<?xml version="1.0" standalone="no"?>
<!DOCTYPE svg PUBLIC "-//W3C//DTD SVG 1.1//EN" "http://www.w3.org/Graphics/SVG/1.1/DTD/svg11.dtd" >
<svg xmlns="http://www.w3.org/2000/svg" xmlns:xlink="http://www.w3.org/1999/xlink" version="1.1">
<metadata>
Created by FontForge 20170731 at Thu Aug 16 17:55:49 2007
 By Aleksey,,,
(c) 1988, 1995, 1999, 2002 Adobe Systems Incorporated. All rights reserved.
</metadata>
<defs>
<font id="AmericanaStd-Italic" horiz-adv-x="648" >
  <font-face 
    font-family="Americana Std"
    font-weight="400"
    font-style="italic"
    font-stretch="normal"
    units-per-em="1000"
    panose-1="2 2 6 5 6 5 6 9 9 4"
    ascent="725"
    descent="-275"
    x-height="520"
    cap-height="644"
    bbox="-168 -250 997 895"
    underline-thickness="50"
    underline-position="-200"
    slope="-10"
    unicode-range="U+0020-FB02"
  />
<missing-glyph horiz-adv-x="554" 
d="M54 0v700h500v-700h-500zM304 395l170 255h-340zM334 350l170 -255v510zM134 50h340l-170 255zM104 605v-510l170 255z" />
    <glyph glyph-name="f_i" unicode="fi" horiz-adv-x="556" 
d="M280 471h-89l-53 -385q-21 -153 -88.5 -220.5t-157.5 -67.5h-13q-23 0 -23 9q0 4 3 10l20 47q7 17 13 17q4 0 9 -10q12 -22 23.5 -30.5t32.5 -8.5q39 0 60.5 56t46.5 219l55 364h-89l9 26h83l10 54q14 73 84 123.5t147 50.5q22 0 22 -5q0 -6 -4 -13l-26 -47
q-5 -10 -9 -10q-1 0 -2.5 1.5t-3 4t-2.5 3.5q-21 25 -53 25q-27 0 -47 -25t-28 -51t-11 -52l-7 -59h96zM354 110l48 289q3 21 3 26q0 25 -7.5 35t-24.5 17q-7 3 -7 5q0 4 7 6l120 32l-57 -433q-3 -18 -3 -32q0 -6 1.5 -11t3 -9t5 -7.5l6 -6t6.5 -5.5t6 -4t5.5 -3t4.5 -2
q8 -5 8 -7q0 -3 -9 -3q-2 0 -18 0.5t-37 1.5t-35 1q-16 0 -51 -1.5t-37 -1.5q-7 0 -7 4q0 3 5 6q23 13 31.5 19.5t17.5 26.5t15 57zM419 642q0 20 17 34t38 14q18 0 29 -12t11 -30q0 -20 -17 -34t-38 -14q-18 0 -29 12t-11 30z" />
    <glyph glyph-name="f_l" unicode="fl" horiz-adv-x="556" 
d="M280 471h-89l-53 -385q-21 -153 -88.5 -220.5t-157.5 -67.5h-13q-23 0 -23 9q0 4 3 10l20 47q7 17 13 17q4 0 9 -10q12 -22 23.5 -30.5t32.5 -8.5q39 0 60.5 56t46.5 219l55 364h-89l9 26h83l10 54q14 73 84 123.5t147 50.5q22 0 22 -5q0 -6 -4 -13l-26 -47
q-5 -10 -9 -10q-1 0 -2.5 1.5t-3 4t-2.5 3.5q-21 25 -53 25q-27 0 -47 -25t-28 -51t-11 -52l-7 -59h96zM349 91l86 515q3 15 3 26q0 26 -7 36.5t-23 17.5q-9 4 -9 7q0 4 3 4l121 28l-86 -630q-3 -30 -3 -36q0 -35 32 -46q16 -5 16 -10q0 -6 -8 -6q-3 0 -17.5 0.5t-35.5 1.5
t-41 1q-19 0 -39.5 -0.5t-34.5 -1.5t-15 -1q-7 0 -7 6q0 3 9 8q27 12 38.5 27.5t17.5 52.5z" />
    <glyph glyph-name=".notdef" horiz-adv-x="554" 
d="M54 0v700h500v-700h-500zM304 395l170 255h-340zM334 350l170 -255v510zM134 50h340l-170 255zM104 605v-510l170 255z" />
    <glyph glyph-name=".null" horiz-adv-x="0" 
 />
    <glyph glyph-name="nonmarkingreturn" horiz-adv-x="333" 
 />
    <glyph glyph-name="space" unicode=" " horiz-adv-x="324" 
 />
    <glyph glyph-name="exclam" unicode="!" horiz-adv-x="278" 
d="M145 40q0 -21 -15.5 -38t-36.5 -17q-19 0 -31 12t-12 32q0 21 15.5 38t36.5 17q19 0 31 -12t12 -32zM119 123h-14q18 126 18 333q0 204 74 204q40 0 36 -64q0 -17 -7.5 -51t-15.5 -63.5t-19 -68.5t-14 -48q-36 -125 -58 -242z" />
    <glyph glyph-name="quotedbl" unicode="&#x22;" horiz-adv-x="333" 
d="M291 579l-16 -204q0 -1 -0.5 -6t-1 -8.5t-2 -8t-4.5 -6.5t-7 -2t-7 2t-4.5 6.5t-2 8t-1 8.5t-0.5 6l-16 204q-6 81 31 81t31 -81zM154 579l-16 -204q0 -1 -0.5 -6t-1 -8.5t-2 -8t-4.5 -6.5t-7 -2t-7 2t-4.5 6.5t-2 8t-1 8.5t-0.5 6l-16 204q-6 81 31 81t31 -81z" />
    <glyph glyph-name="numbersign" unicode="#" 
d="M538 242l-5 -44h-115l-28 -198h-50l28 198h-118l-28 -198h-50l28 198h-113l5 44h114l19 133h-114l6 44h113l28 196h50l-28 -196h118l28 196h50l-28 -196h114l-5 -44h-114l-20 -133h115zM393 375h-118l-20 -133h118z" />
    <glyph glyph-name="dollar" unicode="$" 
d="M307 21l-17 -92h-32l17 92q-103 -5 -230 53l40 89q4 11 9 11q2 0 8 -12q41 -77 80 -99.5t110 -22.5q61 0 119 38.5t58 97.5q0 38 -27 60.5t-50.5 28t-80.5 13.5q-3 1 -4 1t-3 0.5t-4 0.5q-39 6 -63 12t-51.5 19.5t-41 38t-13.5 60.5q0 85 70.5 134t158.5 49l16 92h32
l-17 -92q118 0 175 -40l-31 -78q-3 -10 -8 -10t-7 10q-9 44 -55.5 72t-99.5 28q-59 0 -108 -32.5t-49 -89.5q0 -22 5.5 -38.5t20.5 -28t25.5 -18t37.5 -11.5t37.5 -6.5t42.5 -5.5q31 -4 51 -7.5t44.5 -12.5t39 -22.5t24.5 -36.5t10 -54q0 -83 -75.5 -135.5t-163.5 -55.5z
" />
    <glyph glyph-name="percent" unicode="%" horiz-adv-x="722" 
d="M558 630h50l-440 -645h-51zM74 394q0 -41 18.5 -70t56.5 -29q122 0 122 218q0 41 -18.5 70t-56.5 29q-122 0 -122 -218zM450 102q0 -41 18.5 -70t56.5 -29q122 0 122 218q0 41 -18.5 70t-56.5 29q-122 0 -122 -218zM8 426q0 82 53.5 143t134.5 61q65 0 103 -41.5
t38 -107.5q0 -82 -53.5 -143t-134.5 -61q-65 0 -103 41.5t-38 107.5zM384 134q0 82 53.5 143t134.5 61q65 0 103 -41.5t38 -107.5q0 -82 -53.5 -143t-134.5 -61q-65 0 -103 41.5t-38 107.5z" />
    <glyph glyph-name="ampersand" unicode="&#x26;" horiz-adv-x="778" 
d="M751 391l-42 -86q-66 -11 -98 -11q-11 0 -80 3q-35 3 -69 3q-27 0 -57 -12.5t-46 -31.5l2 -1q50 21 102 21q59 0 102.5 -28.5t43.5 -84.5q0 -46 -32 -83t-80 -57.5t-96.5 -31t-89.5 -10.5q-44 0 -88 8.5t-88 27t-71.5 54.5t-27.5 85q0 77 57.5 122t143.5 65v2
q-79 34 -79 105q0 80 66 125t150 45q86 0 154 -36l-49 -81q-18 53 -44.5 74.5t-82.5 21.5q-53 0 -87 -33.5t-34 -85.5q0 -43 28.5 -72.5t71.5 -36.5l-1 -14q-42 -14 -72 -28t-63 -36.5t-50 -54t-17 -71.5q0 -80 60.5 -122.5t144.5 -42.5q86 0 144.5 37.5t58.5 115.5
q0 45 -25.5 73t-81.5 28q-75 0 -119 -60l-16 16q130 152 272 152l71 1q76 6 111 33l4 2q2 0 2 -2q0 -1 -3 -7z" />
    <glyph glyph-name="quotesingle" unicode="'" horiz-adv-x="222" 
d="M167 579l-16 -204q0 -1 -0.5 -6t-1 -8.5t-2 -8t-4.5 -6.5t-7 -2t-7 2t-4.5 6.5t-2 8t-1 8.5t-0.5 6l-16 204q-6 81 31 81t31 -81z" />
    <glyph glyph-name="parenleft" unicode="(" horiz-adv-x="278" 
d="M160 -179h-23q-51 94 -76 176t-25 176q0 103 46.5 215t96.5 180t84 92h22q-90 -95 -136.5 -253.5t-46.5 -309.5q0 -130 58 -276z" />
    <glyph glyph-name="parenright" unicode=")" horiz-adv-x="278" 
d="M97 660h23q51 -94 76 -176t25 -176q0 -103 -46.5 -215t-96.5 -180t-84 -92h-22q90 95 136.5 253.5t46.5 309.5q0 130 -58 276z" />
    <glyph glyph-name="asterisk" unicode="*" horiz-adv-x="444" 
d="M202 640h96q-28 -62 -33 -158q69 17 137 76l29 -85q-81 1 -168 -19q78 -77 133 -105l-74 -61q-35 95 -73 150q-65 -91 -72 -150l-77 63q74 38 127 103q-87 20 -168 19l29 85q66 -58 147 -76q-5 96 -33 158z" />
    <glyph glyph-name="plus" unicode="+" horiz-adv-x="600" 
d="M271 289v231h58v-231h230v-58h-230v-231h-58v231h-230v58h230z" />
    <glyph glyph-name="comma" unicode="," horiz-adv-x="324" 
d="M71 34q0 21 15 35.5t37 14.5q49 0 49 -57q0 -41 -40.5 -96.5t-62.5 -55.5q-6 0 -6 3q0 4 3 8q57 54 60 101q-55 0 -55 47z" />
    <glyph glyph-name="hyphen" unicode="-" horiz-adv-x="259" 
d="M9 289h241l-10 -58h-241z" />
    <glyph glyph-name="period" unicode="." horiz-adv-x="324" 
d="M165 40q0 -21 -15.5 -38t-36.5 -17q-19 0 -31 12t-12 32q0 21 15.5 38t36.5 17q19 0 31 -12t12 -32z" />
    <glyph glyph-name="slash" unicode="/" horiz-adv-x="278" 
d="M-20 -20l263 680h50l-264 -680h-49z" />
    <glyph glyph-name="zero" unicode="0" 
d="M112 206q0 -203 171 -203q60 0 106.5 27.5t72.5 68.5t42.5 98t22 107t5.5 105q0 99 -39 151t-132 52q-60 0 -106.5 -27.5t-72.5 -68.5t-42.5 -98t-22 -107t-5.5 -105zM18 265q0 93 45.5 177t125 136t172.5 52q118 0 191.5 -80.5t73.5 -199.5q0 -144 -100 -254.5
t-243 -110.5q-116 0 -190.5 81t-74.5 199z" />
    <glyph glyph-name="one" unicode="1" 
d="M245 107l70 396q5 25 5 31q0 53 -58 53q-2 0 -5.5 -0.5t-5.5 -0.5q-6 0 -6 4q0 3 8 5l152 35l-65 -516q-6 -32 -6 -39q0 -45 43 -64q13 -5 14 -9q0 -5 -13 -5l-36 1q-36 2 -56 2q-33 0 -62 -1t-43 -1.5t-16 -0.5q-7 0 -7 6q0 5 40 21q35 15 47 83z" />
    <glyph glyph-name="two" unicode="2" 
d="M96 71h329q25 2 49 18.5t61 52.5l3 2q3 2 4 2q3 0 3 -3q0 -4 -4 -11l-68 -132h-461q4 36 29 71t63.5 64.5t72 49.5t70.5 38q108 52 143 79q85 66 86 171q0 66 -40 102.5t-106 36.5q-63 0 -115 -34t-80 -91q-3 -8 -6 -8t-5 11l-8 86q96 54 225 54q94 0 163.5 -49.5
t69.5 -139.5q0 -38 -18 -70t-43 -53.5t-65 -42t-71 -31.5t-74.5 -26t-62.5 -22q-117 -47 -144 -125z" />
    <glyph glyph-name="three" unicode="3" 
d="M231 315l5 36q62 -11 84 -11q72 0 120.5 37.5t48.5 107.5q0 64 -42.5 95.5t-107.5 31.5q-55 0 -106.5 -30t-88.5 -90q-2 -2 -3.5 -5.5t-2.5 -5.5t-2 -2q-2 0 -3 11l-8 88q100 52 220 52q40 0 78.5 -7t77 -22.5t62.5 -47t24 -74.5t-36.5 -77.5t-81.5 -50.5t-87 -19v-2
q36 -8 64 -18.5t57 -28t45 -45.5t16 -64q0 -53 -30.5 -92t-79.5 -59t-98.5 -29t-98.5 -9q-63 0 -122.5 13.5t-83 23.5t-59.5 28l46 97q4 10 7 10q6 0 8 -10q5 -63 60 -103.5t135 -40.5q93 0 155.5 44.5t62.5 134.5q0 67 -44.5 103.5t-113.5 36.5q-15 0 -42.5 -3t-34.5 -4z
" />
    <glyph glyph-name="four" unicode="4" 
d="M18 203l454 419q10 8 12 8q3 0 3 -5t-1 -9l-54 -414q59 0 101 12t74 49q12 13 14 13q5 0 5 -4q0 -6 -7 -18l-46 -97h-147l-10 -73q-1 -6 -1 -23q0 -32 51 -51q9 -4 9 -9q1 -1 -0.5 -2t-4.5 -1.5t-7 -0.5q-2 0 -14.5 0.5t-34 1.5t-46.5 1q-30 0 -57 -0.5t-42 -1.5t-16 -1
q-9 0 -9 4q0 6 13 9q60 22 75 108l6 39h-332zM72 202h274l51 319l-2 2z" />
    <glyph glyph-name="five" unicode="5" 
d="M157 615h391q28 0 50 17q3 3 8 3q3 0 3 -4l-4 -12l-33 -75h-337q-41 0 -59.5 -15.5t-25.5 -57.5l-26 -144q105 32 203 32q38 0 79.5 -8.5t84.5 -26t71 -52.5t28 -81q0 -58 -31 -100.5t-82 -64.5t-103 -31.5t-105 -9.5q-67 0 -145.5 15t-118.5 47l47 100q3 6 6 6q5 0 5 -6
q5 -65 71 -104.5t131 -39.5q103 0 165 50.5t62 151.5q0 64 -54 100t-121 36q-114 0 -224 -47z" />
    <glyph glyph-name="six" unicode="6" 
d="M136 168q0 -81 50.5 -123t133.5 -42q94 0 141.5 66t47.5 165q0 73 -42 113.5t-115 40.5q-96 0 -156 -61.5t-60 -158.5zM629 574l-37 -85q-6 -12 -8 -12q-3 0 -5 9q-18 64 -68 95t-97 31q-124 0 -200 -101.5t-73 -228.5h1q26 57 84.5 90.5t123.5 33.5q101 0 179 -51.5
t78 -147.5q0 -74 -47 -126t-111.5 -74t-136.5 -22q-119 0 -196.5 72.5t-77.5 190.5q0 159 108 270.5t266 111.5q130 0 217 -56z" />
    <glyph glyph-name="seven" unicode="7" 
d="M139 615h500q-2 -25 -30.5 -65.5t-58.5 -73t-72.5 -75.5t-52.5 -54q-71 -78 -106 -159t-45 -188h-119q16 93 84 188.5t155 173.5q149 132 185 182h-401q-43 0 -82 -46q-6 -8 -13 -8q-1 0 -1 2t3 8z" />
    <glyph glyph-name="eight" unicode="8" 
d="M288 3q51 0 100 15.5t86.5 52.5t37.5 89q0 41 -51.5 76t-109.5 51t-95 16q-65 0 -117 -48.5t-52 -112.5q0 -50 33 -82.5t76 -44.5t92 -12zM356 612q-40 0 -77.5 -9.5t-68.5 -37t-31 -69.5q0 -59 60 -95.5t123 -36.5q62 0 110.5 40.5t48.5 100.5q0 32 -15.5 54t-41.5 33
t-52 15.5t-56 4.5zM11 146q0 128 215 170v2q-50 13 -86.5 49t-36.5 85t23.5 85.5t62.5 55.5t81.5 28t87.5 9q35 0 72 -6t76.5 -19t65 -40.5t25.5 -64.5q0 -34 -20 -61.5t-53.5 -44.5t-64.5 -27t-65 -16v-1q33 -10 51.5 -16.5t49.5 -21t48.5 -30t31 -40.5t13.5 -54
q0 -54 -31 -95.5t-79.5 -63.5t-99 -33t-99.5 -11q-34 0 -67.5 4t-71 15t-65 28t-46 46.5t-18.5 67.5z" />
    <glyph glyph-name="nine" unicode="9" 
d="M512 447q0 81 -50.5 123t-133.5 42q-88 0 -138.5 -67t-50.5 -164q0 -89 39 -131t124 -42q97 0 155 60t55 179zM19 41l39 94q7 17 9 17q3 0 8 -23q15 -60 62 -93t97 -33q63 0 112.5 22t78.5 55t48.5 77.5t27 81.5t9.5 75h-2q-21 -58 -83.5 -95t-130.5 -37
q-109 0 -181 57.5t-72 140.5q0 78 46.5 136.5t112.5 86t136 27.5q126 0 200 -79.5t74 -198.5q0 -44 -12 -92t-41 -97.5t-70.5 -88.5t-106.5 -64t-144 -25q-130 0 -217 56z" />
    <glyph glyph-name="colon" unicode=":" horiz-adv-x="324" 
d="M165 40q0 -21 -15.5 -38t-36.5 -17q-19 0 -31 12t-12 32q0 21 15.5 38t36.5 17q19 0 31 -12t12 -32zM225 404q0 -21 -15.5 -38t-36.5 -17q-19 0 -31 12t-12 32q0 21 15.5 38t36.5 17q19 0 31 -12t12 -32z" />
    <glyph glyph-name="semicolon" unicode=";" horiz-adv-x="324" 
d="M71 34q0 21 15 35.5t37 14.5q49 0 49 -57q0 -41 -40.5 -96.5t-62.5 -55.5q-6 0 -6 3q0 4 3 8q57 54 60 101q-55 0 -55 47zM225 404q0 -21 -15.5 -38t-36.5 -17q-19 0 -31 12t-12 32q0 21 15.5 38t36.5 17q19 0 31 -12t12 -32z" />
    <glyph glyph-name="less" unicode="&#x3c;" horiz-adv-x="600" 
d="M554 61v-62l-508 232v58l508 232v-62l-436 -199z" />
    <glyph glyph-name="equal" unicode="=" horiz-adv-x="600" 
d="M559 387v-58h-518v58h518zM559 191v-58h-518v58h518z" />
    <glyph glyph-name="greater" unicode="&#x3e;" horiz-adv-x="600" 
d="M46 61l436 199l-436 199v62l508 -232v-58l-508 -232v62z" />
    <glyph glyph-name="question" unicode="?" horiz-adv-x="500" 
d="M181 118h-16q2 37 20.5 76t34.5 60t52 64q33 39 50.5 63.5t34 64t16.5 78.5q0 118 -118 118q-58 0 -108 -30.5t-77 -82.5q-4 -8 -8 -8t-4 8l-9 84q90 47 207 47q82 0 148.5 -42.5t66.5 -120.5q0 -39 -22.5 -76t-47.5 -58.5t-70 -54.5q-48 -36 -71.5 -55.5t-49.5 -57
t-29 -77.5zM202 40q0 -21 -15.5 -38t-36.5 -17q-19 0 -31 12t-12 32q0 21 15.5 38t36.5 17q19 0 31 -12t12 -32z" />
    <glyph glyph-name="at" unicode="@" horiz-adv-x="800" 
d="M512 391q0 64 -45 64t-94 -56.5t-49 -143.5q0 -82 68 -82q34 0 72 60t48 158zM526 441l10 40h66l-66 -257q0 -7 -2.5 -20.5t7.5 -26.5t33 -13q64 0 102 65t38 140q0 44 -20 91t-56.5 88t-94 67.5t-125.5 26.5q-127 0 -208 -93.5t-81 -253.5q0 -113 82.5 -201t215.5 -88
q38 0 73 7t57.5 15.5t53.5 21.5q7 3 11 5l14 -21q-128 -54 -208 -54q-92 0 -165.5 32t-116.5 81.5t-65.5 104.5t-22.5 107q0 156 105 255.5t255 99.5q137 0 230.5 -83t93.5 -207q0 -53 -20.5 -105.5t-64 -91t-98.5 -38.5q-30 0 -52 15.5t-30 30.5t-7 23h-2q-9 -13 -22 -26.5
t-39 -28t-52 -14.5q-95 0 -95 123q0 27 12.5 65t34.5 77t61.5 66t85.5 27q21 0 36.5 -9t21 -17.5t14.5 -25.5z" />
    <glyph glyph-name="A" unicode="A" horiz-adv-x="778" 
d="M407 573l-157 -234h238zM495 317h-264l-108 -170q-38 -59 -38 -95q0 -29 48 -43q9 -3 9 -8q0 -4 -9 -4l-35 1q-34 2 -54 2q-15 0 -44 -1.5t-32 -1.5q-8 0 -8 3t1.5 4.5t6 4.5t6.5 4q18 13 26 24l453 641h2l214 -580q2 -6 6 -16t5.5 -14.5t4.5 -12t5 -11t4.5 -9t4.5 -7.5
t5 -5.5t6 -4.5t7 -2.5t8 -2.5q13 -2 13 -10q0 -6 -9 -6q-2 0 -20 0.5t-41.5 1.5t-38.5 1q-17 0 -53.5 -1.5t-40.5 -1.5q-8 0 -8 5q0 4 7 8q38 13 38 51q0 25 -10 55z" />
    <glyph glyph-name="B" unicode="B" horiz-adv-x="741" 
d="M296 338h-118l-28 -195q-8 -56 -8 -63q0 -33 27.5 -45.5t113.5 -12.5q54 0 93.5 3.5t81 14t67 29t42 51t16.5 76.5q0 79 -69 110.5t-218 31.5zM223 618l-42 -258h163q235 0 235 156q0 102 -164 102h-192zM70 185l58 353q3 14 3 29q0 22 -6.5 35.5t-14 18.5t-19.5 9
q-10 3 -10 7t15 4q4 0 64 -0.5t91 -0.5h179q31 0 66.5 -4.5t79.5 -16.5t72.5 -39.5t28.5 -66.5q0 -138 -228 -164v-2q36 -3 64 -8t63 -16.5t58 -28t39 -44.5t16 -65q0 -60 -50.5 -104t-117.5 -62.5t-137 -18.5h-350q-4 0 -13.5 -0.5t-14.5 -0.5q-18 -2 -20 -2q-6 0 -6 6
q0 5 16 12q26 14 43.5 48t30.5 122z" />
    <glyph glyph-name="C" unicode="C" horiz-adv-x="741" 
d="M660 134l6 -66q-109 -88 -272 -88q-157 0 -254.5 75.5t-97.5 220.5q0 108 61.5 197.5t157.5 138t202 48.5q168 0 268 -85l-30 -72q-12 -25 -13 -25q-5 0 -10 26q-11 68 -73 101t-142 33t-144 -35.5t-102 -94.5t-57.5 -130.5t-19.5 -149.5q0 -102 72.5 -164t174.5 -62
q81 0 152 40t103 100q6 11 10 11q5 0 8 -19z" />
    <glyph glyph-name="D" unicode="D" horiz-adv-x="778" 
d="M226 618l-70 -475q0 -4 -3.5 -22t-3.5 -27q0 -50 26.5 -63.5t99.5 -13.5q89 0 167 19q51 12 91.5 60t61.5 108.5t32 113.5t11 88q0 67 -21.5 111t-63 65t-83.5 28.5t-101 7.5h-143zM56 94l69 410q1 6 2.5 18t2.5 21.5t1 17.5q0 55 -40 66q-8 3 -8 8q0 7 11 7
q3 0 18.5 -0.5t51 -1t85.5 -0.5h165q145 0 233.5 -71t88.5 -191q0 -41 -12 -88t-42 -100t-75 -95t-119 -70t-165 -28q-25 0 -80.5 1.5t-85.5 1.5q-31 0 -58.5 -0.5t-45.5 -1t-31 -0.5t-20 -0.5t-8 -0.5q-12 0 -12 6q0 5 12 9q52 17 62 82z" />
    <glyph glyph-name="E" unicode="E" horiz-adv-x="704" 
d="M222 618l-39 -266h174q88 0 128.5 14.5t62.5 45.5q9 14 11 14q4 0 4 -7q0 -3 -2 -17l-23 -139q-1 -9 -6 -9q-3 0 -9 18q-23 58 -143 58h-201l-23 -208q-6 -51 -6 -57q0 -27 29 -35t125 -8q241 0 337 100q4 4 8 9t6.5 7.5t5.5 2.5q4 0 4 -3q0 -4 -1 -5l-62 -137
q-54 0 -159.5 2t-159.5 2q-47 0 -146 -2t-150 -2q-8 0 -8 6q0 4 12 6q25 7 44.5 39t26.5 79l64 414q3 16 3 47q0 19 -6.5 27t-25.5 18q-8 3 -8 7q0 5 8 5q46 0 136.5 -2t133.5 -2q50 0 146.5 2t145.5 2l13 -111q0 -1 0.5 -4t0.5 -5q0 -3 -4 -3q-2 0 -14 15q-69 82 -162 82
h-271z" />
    <glyph glyph-name="F" unicode="F" 
d="M227 618l-44 -266h200q68 0 101.5 14.5t53.5 40.5q13 20 14 20q5 0 5 -6q0 -1 -1 -5t-1 -6l-21 -148q-3 -16 -8 -16q-1 0 -9 21q-12 31 -50.5 47t-125.5 16h-162l-29 -213q-1 -5 -2.5 -13.5t-2.5 -15.5t-1 -13q0 -55 49 -67q12 -3 12 -6q0 -5 -8 -5q-1 0 -20 0.5
t-44.5 1.5t-40.5 1q-19 0 -42 -0.5t-39.5 -1.5t-17.5 -1q-7 0 -7 3q0 4 13 10q27 13 42.5 46t30.5 126l49 310q12 77 12 87q0 40 -31 51q-7 2 -7 7q0 7 7 7q46 0 136.5 -2t133.5 -2q51 0 145.5 2t138.5 2l15 -111q0 -2 0.5 -7t0.5 -6q0 -9 -6 -9q-3 0 -14 19
q-28 45 -93.5 66.5t-125.5 21.5h-206z" />
    <glyph glyph-name="G" unicode="G" horiz-adv-x="796" 
d="M681 217l-21 -149q-132 -88 -266 -88q-157 0 -254.5 75.5t-97.5 220.5q0 108 61.5 197.5t157.5 138t202 48.5q162 0 278 -84l-33 -74q-10 -24 -15 -24t-11 24q-18 63 -81 99.5t-138 36.5q-80 0 -144 -35.5t-102 -94.5t-57.5 -130.5t-19.5 -149.5q0 -102 72.5 -164
t174.5 -62q34 0 64 5.5t57.5 18t46 36t24.5 56.5l14 75q5 31 5 51q0 33 -15.5 48t-60.5 20q-19 3 -19 6q0 6 13 6q3 0 45 -1t73 -1q14 0 58.5 1t53.5 1q10 0 10 -4q0 -5 -18 -9q-27 -8 -38.5 -26t-18.5 -68z" />
    <glyph glyph-name="H" unicode="H" horiz-adv-x="796" 
d="M618 330h-430l-31 -225q-4 -34 -4 -48q0 -31 27 -49q5 -5 5 -7q0 -5 -11 -5q-14 0 -41.5 2t-41.5 2q-12 0 -38 -2t-39 -2q-11 0 -11 5t14 14q31 20 41 71l74 421q9 49 9 87q0 23 -23 40q-5 3 -5 5q0 5 9 5q11 0 33.5 -2t32.5 -2q12 0 35.5 2t35.5 2q15 0 15 -4
q0 -7 -19 -12q-17 -6 -26 -33t-17 -86l-21 -157h431l27 155q9 50 9 87q0 23 -23 40q-5 3 -5 5q0 5 9 5q11 0 33.5 -2t32.5 -2q12 0 35.5 2t35.5 2q15 0 15 -4q0 -7 -19 -12q-17 -6 -26 -33t-17 -86l-55 -404q-4 -34 -4 -48q0 -31 27 -49q5 -5 5 -7q0 -5 -11 -5
q-14 0 -41.5 2t-41.5 2q-12 0 -38 -2t-39 -2q-11 0 -11 5t14 14q31 20 41 71z" />
    <glyph glyph-name="I" unicode="I" horiz-adv-x="278" 
d="M207 509l-55 -404q-4 -34 -4 -48q0 -31 27 -49q5 -5 5 -7q0 -5 -11 -5q-5 0 -36 2t-47 2q-14 0 -42.5 -2t-34.5 -2q-11 0 -11 5q0 3 2 4.5t6 3t7 3.5q19 15 32 46t25 102l57 347q9 49 9 87q0 31 -20 40q-8 3 -8 5q0 5 9 5q11 0 33.5 -2t32.5 -2q13 0 41 2t38 2q9 0 9 -4
t-20 -14q-30 -14 -44 -117z" />
    <glyph glyph-name="J" unicode="J" horiz-adv-x="444" 
d="M-31 2l37 84q6 12 9 12q2 0 6 -12q8 -22 15.5 -36t25.5 -27t44 -13q27 0 48.5 9.5t36.5 29.5t25 38.5t17.5 50t11 50t8 52t6.5 42.5l33 219q8 54 8 84q0 37 -34 48q-13 4 -13 7q0 4 10 4q13 0 39 -2t38 -2q16 0 50 2t36 2q12 0 12 -4q1 -1 -2 -3t-7 -4q-20 -7 -30 -23.5
t-16 -57.5l-43 -306q-15 -107 -93.5 -186.5t-188.5 -79.5q-70 0 -89 22z" />
    <glyph glyph-name="K" unicode="K" horiz-adv-x="685" 
d="M183 249l-19 -125q-5 -27 -5 -52q0 -45 34 -59q22 -8 22 -12t-9 -4q-2 0 -18 0.5t-38 1.5t-39 1t-40.5 -0.5t-40 -1.5t-17.5 -1q-4 0 -4 4t15 9q43 14 64 156l50 341q9 49 9 87q0 29 -20 39q-8 4 -8 6q0 5 9 5q11 0 33.5 -2t32.5 -2q12 0 36 2t39 2q11 0 11 -4
q0 -2 -2 -3.5t-4 -2.5t-6 -2.5t-7 -3.5q-15 -11 -23 -35.5t-16 -79.5l-28 -180l243 170q71 50 93 70.5t21 37.5q-1 12 -10 19.5t-9 8.5q0 5 7 5q12 0 35.5 -2t34.5 -2q14 0 48 2t44 2q11 0 11 -4q0 -1 -5 -3t-13.5 -5.5t-13.5 -5.5q-26 -12 -58 -30.5t-51.5 -32t-54 -37.5
t-42.5 -29l-208 -140v-2q50 -3 77.5 -7t57 -15t49 -32t36.5 -55q6 -11 19.5 -35.5t19 -34t17 -29t16.5 -28t15 -24t16.5 -22.5t15.5 -18t17 -17.5t17.5 -14t19.5 -12.5q16 -8 16 -11t-7 -3q-2 0 -33 1.5t-46 1.5q-12 0 -36.5 -1.5t-37.5 -1.5l-120 237q-28 47 -58 73t-75 26
q-66 0 -79 -84z" />
    <glyph glyph-name="L" unicode="L" horiz-adv-x="667" 
d="M216 509l-45 -351q-9 -61 -9 -82q0 -29 25.5 -41.5t82.5 -12.5q95 0 187.5 21.5t139.5 68.5q20 18 25 18q4 0 4 -4l-6 -18l-52 -112q-52 0 -154.5 2t-155.5 2q-52 0 -149 -2t-117 -2q-13 0 -13 4t14 9q37 13 55.5 42t31.5 110l56 346q10 47 10 75q0 33 -27 47
q-18 8 -18 11q0 4 10 4q6 0 38 -2t43 -2q27 0 58.5 2t33.5 2q7 0 7 -3t-29 -16q-18 -10 -28.5 -35.5t-17.5 -80.5z" />
    <glyph glyph-name="M" unicode="M" horiz-adv-x="870" 
d="M229 642l178 -527l340 527q24 -2 49 -2q12 0 36 1t29 1q8 0 8 -3q0 -2 -10 -9q-17 -9 -26 -17t-18 -29t-13 -54l-49 -406q-4 -31 -4 -55q0 -45 33 -61q4 -2 7 -3t4 -1.5t1 -1.5q0 -5 -8 -5l-14 1q-15 0 -37.5 1t-44.5 1q-21 0 -42.5 -0.5t-35.5 -1.5t-16 -1q-10 0 -10 3
q0 4 19 12q47 16 64 140l55 411h-2l-350 -545l-23 -38q-1 0 -12 34l-184 558h-2l-52 -344q-12 -82 -12 -136q0 -63 37 -82q14 -6 14 -9q0 -4 -8 -4l-32 1q-32 2 -48 2q-17 0 -35 -0.5t-29.5 -1.5t-12.5 -1q-7 0 -7 3q0 6 10 7q21 5 37 22.5t26.5 45t17 52t11.5 57.5l51 316
q5 33 5 64q0 50 -33 68q-6 3 -6 7q0 3 8 3q7 0 30.5 -1t34.5 -1q12 0 36 1t35 1z" />
    <glyph glyph-name="N" unicode="N" horiz-adv-x="759" 
d="M219 644l396 -504l50 336q5 30 5 70q0 38 -13.5 58t-44.5 29q-14 4 -14 7q0 4 7 4q14 0 42.5 -2t41.5 -2q15 0 45 2t46 2q7 0 7 -4q0 -5 -11 -8q-33 -11 -49.5 -36t-27.5 -81l-80 -508q-3 -27 -6 -27h-2q-1 0 -27 35l-427 559l-52 -359q-11 -79 -11 -112q0 -45 12 -64
t39 -30q12 -5 12 -7q0 -5 -4 -5q-2 0 -37.5 1.5t-53.5 1.5q-16 0 -49.5 -1.5t-35.5 -1.5q-6 0 -6 3q0 6 14 11q28 11 47 42t27 61t17 79l44 295q6 39 6 70q0 62 -39 75q-10 4 -10 8q0 3 6 3q11 0 33 -0.5t32 -0.5q12 0 36 0.5t35 0.5z" />
    <glyph glyph-name="O" unicode="O" horiz-adv-x="833" 
d="M693 412q0 105 -62 165.5t-168 60.5q-67 0 -122 -23.5t-91.5 -62.5t-61.5 -92.5t-36.5 -111.5t-11.5 -120q0 -105 62 -165.5t168 -60.5q67 0 122 23.5t91.5 62.5t61.5 92.5t36.5 111.5t11.5 120zM791 364q0 -108 -61.5 -197.5t-157.5 -138t-202 -48.5q-135 0 -231.5 81.5
t-96.5 214.5q0 108 61.5 197.5t157.5 138t202 48.5q135 0 231.5 -81.5t96.5 -214.5z" />
    <glyph glyph-name="P" unicode="P" horiz-adv-x="685" 
d="M220 618l-44 -285q57 -9 138 -9q274 0 274 177q0 117 -166 117h-202zM66 144l62 390q4 28 4 37q0 27 -10 39t-33 19q-10 5 -10 9q0 6 12 6q26 0 80 -2q52 -2 78 -2h146q291 0 291 -142q0 -92 -97.5 -144t-286.5 -52q-64 0 -130 4l-20 -170q-4 -34 -4 -50q0 -34 11 -50.5
t33 -22.5q27 -6 27 -11t-11 -5q-1 0 -18 0.5t-45 1.5t-56 1q-26 0 -50.5 -0.5t-39 -1.5t-16.5 -1q-8 0 -8 4t14 9q31 11 48.5 38.5t28.5 95.5z" />
    <glyph glyph-name="Q" unicode="Q" horiz-adv-x="833" 
d="M693 412q0 105 -62 165.5t-168 60.5q-67 0 -122 -23.5t-91.5 -62.5t-61.5 -92.5t-36.5 -111.5t-11.5 -120q0 -105 62 -165.5t168 -60.5q67 0 122 23.5t91.5 62.5t61.5 92.5t36.5 111.5t11.5 120zM702 -141l-127 -58q-48 16 -143 72q-41 24 -60.5 35t-49.5 23t-51 12
q-49 0 -108 -50l-9 20q134 62 172 68v3q-121 13 -202.5 91.5t-81.5 200.5q0 108 61.5 197.5t157.5 138t202 48.5q135 0 231.5 -81.5t96.5 -214.5q0 -81 -35.5 -153t-94 -122t-133.5 -79t-153 -30v-2q61 -24 144 -61q110 -55 149 -55q10 0 28 7q13 5 14 5q6 0 4 -5
q0 -5 -12 -10z" />
    <glyph glyph-name="R" unicode="R" horiz-adv-x="722" 
d="M215 618l-40 -267h210q82 0 139 43t57 122q0 102 -174 102h-192zM172 329l-23 -210q-3 -27 -3 -41q0 -30 8 -44t24 -23q10 -7 10 -10q0 -4 -9 -4q-1 0 -35 1.5t-50 1.5q-14 0 -56 -1.5t-44 -1.5q-10 0 -10 4t13 9q26 13 41.5 43t26.5 94l56 366q6 41 6 56q0 45 -34 61
q-7 4 -7 7q0 5 13 5q2 0 19 -0.5t39.5 -1t38.5 -0.5h221q145 0 203.5 -32t58.5 -106q0 -44 -24 -77t-63.5 -50.5t-78.5 -26t-81 -11.5v-2q76 -21 110 -52t53 -103l23 -96q15 -64 54 -76q11 -2 11 -6q0 -5 -10 -5q-2 0 -29 1.5t-40 1.5q-10 0 -32 -1.5t-30 -1.5l-58 246
q-7 30 -23.5 48.5t-44 26t-48 9.5t-55.5 2h-141z" />
    <glyph glyph-name="S" unicode="S" 
d="M-33 42l47 109q3 8 6 8q2 0 4 -10q16 -80 77 -113.5t169 -33.5q96 0 165 46t69 124q0 41 -26 64.5t-56.5 31.5t-108.5 20q-8 2 -12.5 2.5t-11 1.5t-12.5 2q-42 7 -68.5 13t-60 18t-53 27.5t-33 41t-13.5 58.5q0 30 18.5 64t56 67.5t107 55t158.5 21.5q53 0 123.5 -16
t111.5 -40l-36 -80q-10 -20 -12 -20q-1 0 -6 28q-6 35 -45 60.5t-80.5 35.5t-75.5 10q-39 0 -74.5 -7t-70.5 -22.5t-56 -46t-21 -72.5q0 -43 36 -70.5t68 -35t108 -19.5q11 -2 16 -3q42 -6 68 -11.5t59.5 -16.5t53 -25.5t33 -38.5t13.5 -56q0 -61 -36 -108.5t-91.5 -73.5
t-113 -39t-110.5 -13q-123 0 -284 62z" />
    <glyph glyph-name="T" unicode="T" horiz-adv-x="704" 
d="M712 640l11 -102q0 -4 1.5 -11.5t1.5 -10.5q0 -6 -6 -6q-5 0 -11 14q-24 49 -84.5 71.5t-126.5 22.5q-24 0 -38.5 -4.5t-22.5 -19t-10 -24.5t-5 -38q-1 -5 -1 -7l-51 -400q-5 -30 -5 -49q1 -28 9.5 -42.5t28.5 -25.5q2 -1 4.5 -2t4.5 -1t3 -1t1 -2q0 -5 -9 -5
q-1 0 -44 1.5t-65 1.5q-20 0 -61 -1.5t-42 -1.5q-6 0 -6 4q0 6 17 9q31 5 47.5 39t33.5 133l60 363q5 27 5 34q0 17 -17 28t-48 11q-138 0 -231 -93q-9 -9 -11 -9q-3 0 -3 5q0 4 7 16l45 103h618z" />
    <glyph glyph-name="U" unicode="U" horiz-adv-x="759" 
d="M195 498l-34 -207q-7 -45 -7 -96q0 -58 17 -97t49 -58t67.5 -26.5t84.5 -7.5q58 0 99.5 12.5t78 44.5t61 94t38.5 155l18 122q9 70 9 105q0 87 -55 95q-15 3 -15 6t10 3q10 1 36 -1t39 -2q15 0 45 2t45 2q8 0 8 -4q0 -3 -15 -8q-52 -19 -66 -104l-49 -294
q-45 -254 -306 -254q-141 0 -214 51t-73 150q0 20 7 76l50 290q4 24 4 37q0 38 -33 50q-8 2 -8 6t7 4q14 0 41.5 -2t40.5 -2q16 0 49 2t42 2q7 0 7 -4t-14 -7q-24 -7 -38 -36.5t-26 -98.5z" />
    <glyph glyph-name="V" unicode="V" horiz-adv-x="722" 
d="M228 452l124 -356l254 388q47 71 47 107q0 27 -32 38q-26 8 -26 12q0 3 7 3q1 0 16.5 -1t38 -2t42.5 -1q13 0 39.5 2t31.5 2q8 0 8 -4q0 -2 -18 -12q-49 -28 -118 -132l-311 -483q-21 -33 -25 -33h-2q-5 0 -16 34l-159 478q-37 110 -69 132q-4 3 -11 6.5t-10.5 5.5
t-3.5 4q0 4 9 4t45 -2t55 -2q17 0 44 2t33 2q9 0 9 -4q0 -2 -2.5 -3t-8 -3t-9.5 -4q-25 -14 -23 -45q1 -17 41 -133z" />
    <glyph glyph-name="W" unicode="W" horiz-adv-x="944" 
d="M497 505l-233 -491q-14 -34 -22 -34h-2q-5 0 -27 89l-118 493q-7 27 -17 43t-32 27q-10 6 -10 8q0 4 6 4q15 0 43.5 -2t42.5 -2q16 0 46 2t46 2q9 0 9 -5t-20 -10q-19 -6 -25 -17t-6 -33q0 -19 7 -45l106 -410l235 485q23 49 26 49h2q3 0 10 -36l102 -494h2l169 339
q38 78 38 109q0 40 -47 56q-9 4 -9 6q0 6 7 6q16 0 42.5 -2t38.5 -2q14 0 41.5 2t41.5 2q4 0 4 -3q0 -6 -12 -10q-42 -12 -112 -152l-238 -466q-16 -33 -21 -33h-2q-5 0 -15 53l-95 472h-2z" />
    <glyph glyph-name="X" unicode="X" horiz-adv-x="704" 
d="M539 501l-151 -150l162 -248q15 -23 40.5 -53t40.5 -39q4 -2 10.5 -4t9.5 -3.5t3 -2.5q0 -4 -10 -4q-1 0 -16 0.5t-40.5 1.5t-51.5 1q-22 0 -45.5 -0.5t-38.5 -1.5t-17 -1q-9 0 -9 4q0 5 10 8q25 13 25 37q0 21 -18 54l-114 199l-164 -183q-15 -16 -21.5 -24t-13 -21
t-6.5 -26q0 -23 28 -36q7 -3 7 -8q0 -4 -7 -4q-1 0 -35.5 1.5t-52.5 1.5q-21 0 -40 -0.5t-30 -1.5t-12 -1q-6 0 -6 5q0 3 15 11q54 35 161 138l167 165l-120 199q-19 32 -48.5 70.5t-47.5 48.5q-6 3 -6 6q0 4 8 4q15 0 44.5 -2t44.5 -2q16 0 48 2t47 2q5 0 5 -5q0 -6 -11 -8
q-26 -4 -26 -34q0 -29 31 -80l88 -145l138 139q57 58 57 89q0 16 -16 28q-3 2 -6.5 4.5t-5 3.5t-1.5 2q0 6 6 6q13 0 39 -2t38 -2q14 0 41.5 2t41.5 2q5 0 5 -5q0 -2 -27 -17q-33 -19 -147 -121z" />
    <glyph glyph-name="Y" unicode="Y" horiz-adv-x="685" 
d="M231 539l138 -224l191 197q18 19 25 27t16.5 25.5t9.5 33.5q0 31 -37 36q-9 2 -9 6t6 4q14 0 41 -2t40 -2q14 0 43 2t44 2q8 0 8 -4q0 -3 -15 -11q-26 -13 -76.5 -57.5t-82.5 -77.5l-195 -205l-25 -187q-5 -33 -5 -36q0 -15 8 -32t24 -24q16 -8 16 -11q0 -2 -10 -2
q-1 0 -14.5 0.5t-36 1.5t-44.5 1q-20 0 -40.5 -0.5t-34 -1.5t-15.5 -1q-7 0 -7 3q0 6 10 9q29 10 43 32t23 84l23 156l-142 238q-51 88 -97 111q-3 2 -6 3.5t-4.5 2t-3 1.5t-1.5 2q0 5 7 5q17 0 50 -2t49 -2q18 0 53 2t53 2q8 0 8 -5q0 -2 -10 -5q-40 -10 -40 -37
q0 -24 22 -58z" />
    <glyph glyph-name="Z" unicode="Z" horiz-adv-x="630" 
d="M579 117l-61 -121q-46 0 -136.5 2t-136.5 2q-41 0 -126 -2t-128 -2q-9 0 -9 4q0 6 10 16l462 519q37 40 37 54q0 20 -29 24.5t-140 4.5q-87 0 -138 -24t-90 -65q-8 -10 -11 -10q-5 0 -5 4q0 5 8 21l46 100q41 0 123 -2t121 -2q44 0 131 2t132 2q8 0 8 -2q0 -1 -14 -17
l-417 -475q-62 -72 -61 -93q2 -20 23.5 -27.5t88.5 -7.5q213 0 300 103q8 10 14 10q3 0 3 -4t-5 -14z" />
    <glyph glyph-name="bracketleft" unicode="[" horiz-adv-x="278" 
d="M177 550l-77 -564q-1 -8 -4 -27t-5 -36t-2 -30q0 -25 15 -38t46 -19l-2 -16q-120 13 -120 118q0 14 5 43.5t5 33.5l73 515q9 64 49 94t109 36l-3 -16q-77 -3 -89 -94z" />
    <glyph glyph-name="backslash" unicode="\" horiz-adv-x="278" 
d="M33 660l263 -680h-49l-264 680h50z" />
    <glyph glyph-name="bracketright" unicode="]" horiz-adv-x="278" 
d="M83 -70l88 644q8 56 -61 70l2 16q120 -13 120 -121l-83 -589q-9 -63 -49 -93t-109 -37l3 16q77 3 89 94z" />
    <glyph glyph-name="asciicircum" unicode="^" horiz-adv-x="600" 
d="M153 250h-62l183 365h52l183 -365h-62l-147 295z" />
    <glyph glyph-name="underscore" unicode="_" horiz-adv-x="500" 
d="M0 -75h500v-50h-500v50z" />
    <glyph glyph-name="grave" unicode="`" horiz-adv-x="259" 
d="M233 582l-139 107q-20 12 -20 30q0 15 9 25.5t23 10.5q20 0 32 -15l126 -158h-31z" />
    <glyph glyph-name="a" unicode="a" horiz-adv-x="630" 
d="M496 380l19 99q-45 38 -125 38q-69 0 -123.5 -30t-87 -80.5t-49 -110.5t-16.5 -126q0 -65 29 -112t91 -47q42 0 78 17t62 49t45.5 66t35 81.5t24 80t17.5 75.5zM597 495l-48 -206q-26 -110 -26 -210q0 -48 24 -66q9 -7 9 -8q0 -5 -7 -5h-92q-6 10 -6 153h-2
q-40 -80 -91.5 -124t-130.5 -44q-93 0 -148 59.5t-55 152.5q0 101 55.5 179.5t142 118.5t186.5 40q99 0 189 -40z" />
    <glyph glyph-name="b" unicode="b" horiz-adv-x="667" 
d="M149 250l-31 -189q61 -58 149 -58q66 0 119 30t85.5 79.5t49.5 109t17 121.5q0 74 -39 124t-110 50q-48 0 -90 -25.5t-70.5 -67t-48 -85t-31.5 -89.5zM224 725l-62 -364l2 -2q44 83 100.5 129.5t139.5 46.5q95 0 159.5 -67.5t64.5 -163.5q0 -143 -110.5 -231t-257.5 -88
q-50 0 -111.5 16.5t-108.5 41.5l94 565q2 10 2 30t-6.5 29.5t-23.5 13.5q-10 3 -10 8t3 5z" />
    <glyph glyph-name="c" unicode="c" horiz-adv-x="556" 
d="M537 496l-39 -83q-4 -11 -8 -11q-3 0 -7 11q-15 46 -48.5 75t-67.5 29q-61 0 -110 -30t-78.5 -78t-45 -104.5t-15.5 -114.5q0 -77 46 -132t132 -55q99 0 203 95l11 -15q-90 -98 -220 -98q-116 0 -189 58t-73 170q0 136 103 229t236 93q107 0 170 -39z" />
    <glyph glyph-name="d" unicode="d" horiz-adv-x="667" 
d="M516 326l21 124q-22 30 -68 48.5t-87 18.5q-87 0 -150 -53t-90.5 -128.5t-27.5 -160.5q0 -73 39.5 -122.5t110.5 -49.5q49 0 92.5 28.5t74.5 75.5t52.5 103t32.5 116zM528 690l122 35l-72 -502q-15 -103 -15 -150q0 -44 22 -61q1 -1 3 -2t3 -2l2 -2t1 -3q0 -3 -13 -3h-83
q-3 4 -4 30.5t-1.5 71t-1.5 60.5h-2q-35 -76 -96.5 -126.5t-138.5 -50.5q-106 0 -168 68t-62 176q0 88 52.5 159.5t131.5 109t165 37.5q80 0 174 -27l17 98q0 2 1.5 11.5t1.5 13.5q0 39 -39 51q-7 2 -7 3q0 3 7 5z" />
    <glyph glyph-name="e" unicode="e" horiz-adv-x="556" 
d="M499 113l15 -17q-53 -56 -108.5 -83.5t-126.5 -27.5q-107 0 -181 63.5t-74 153.5q0 88 50.5 165.5t131 122.5t168.5 45q25 0 49.5 -3.5t52 -12t44.5 -27.5t17 -45q0 -41 -32.5 -72t-82 -45.5t-93.5 -21t-82 -6.5q-75 0 -115 12q-18 -58 -18 -108q0 -85 47 -144t124 -59
q65 0 115 29t99 81zM447 451q0 66 -87 66q-78 0 -137.5 -53t-79.5 -130q49 -14 90 -14q36 0 69.5 5.5t68 18.5t55.5 40.5t21 66.5z" />
    <glyph glyph-name="f" unicode="f" horiz-adv-x="296" 
d="M280 471h-89l-53 -385q-21 -153 -88.5 -220.5t-157.5 -67.5h-13q-23 0 -23 9q0 4 3 10l20 47q7 17 13 17q4 0 9 -10q12 -22 23.5 -30.5t32.5 -8.5q39 0 60.5 56t46.5 219l55 364h-89l9 26h83l10 54q14 73 84 123.5t147 50.5q22 0 22 -5q0 -6 -4 -13l-26 -47
q-5 -10 -9 -10q-1 0 -2.5 1.5t-3 4t-2.5 3.5q-21 25 -53 25q-27 0 -47 -25t-28 -51t-11 -52l-7 -59h96z" />
    <glyph glyph-name="g" unicode="g" horiz-adv-x="667" 
d="M513 321l26 155q-87 41 -157 41q-87 0 -150 -53t-90.5 -128.5t-27.5 -160.5q0 -73 39 -122.5t106 -49.5q49 0 89 20.5t65.5 51.5t46.5 76t32 83.5t21 86.5zM29 -170l45 80q58 -90 154 -90q234 0 264 345l-2 2q-44 -90 -96.5 -136t-139.5 -46q-105 0 -167.5 65.5
t-62.5 161.5q0 133 108.5 228t240.5 95q117 0 243 -42q-20 -102 -62 -441q-13 -104 -104 -177t-241 -73q-45 0 -106.5 10t-73.5 18z" />
    <glyph glyph-name="h" unicode="h" 
d="M476 139l24 153q6 44 6 71q0 74 -37 110t-102 36q-74 0 -136 -68t-76 -147l-37 -189q-3 -19 -3 -38q0 -27 7.5 -38.5t23.5 -19.5q8 -4 8 -7q0 -5 -10 -5q-2 0 -32.5 1.5t-48.5 1.5q-16 0 -35 -0.5t-32 -1.5t-15 -1q-6 0 -6 5q0 4 9 8q49 15 60 96l74 473q5 37 5 43
q0 42 -23 54q-14 6 -14 11t14 8l112 30l-58 -362h2q37 78 101.5 125t146.5 47q76 0 128.5 -40t50.5 -117q0 -30 -2 -45l-30 -245q-4 -30 -4 -37q0 -21 6.5 -29t23.5 -13q8 -3 8 -9q0 -3 -7 -3q-1 0 -17 0.5t-36 1.5t-33 1q-23 0 -40 -0.5t-25 -1.5t-9 -1q-10 0 -10 5t15 12
q22 11 33 39.5t20 85.5z" />
    <glyph glyph-name="i" unicode="i" horiz-adv-x="259" 
d="M57 110l48 289q3 21 3 26q0 25 -7.5 35t-24.5 17q-7 3 -7 5q0 4 7 6l120 32l-57 -433q-3 -18 -3 -32q0 -6 1.5 -11t3 -9t5 -7.5l6 -6t6.5 -5.5t6 -4t5.5 -3t4.5 -2q8 -5 8 -7q0 -3 -9 -3q-2 0 -18 0.5t-37 1.5t-35 1q-17 0 -51.5 -1.5t-36.5 -1.5q-7 0 -7 4q0 3 5 6
q23 13 31.5 19.5t17.5 26.5t15 57zM122 642q0 20 17 34t38 14q18 0 29 -12t11 -30q0 -20 -17 -34t-38 -14q-18 0 -29 12t-11 30z" />
    <glyph glyph-name="j" unicode="j" horiz-adv-x="259" 
d="M58 23l52 378q3 23 3 40q0 28 -28 39q-12 5 -12 8t21 8l105 24l-67 -502q-10 -76 -80.5 -146t-169.5 -70q-18 0 -18 9q0 3 3 9l30 65q2 5 5 5t5 -6q21 -42 55 -42q42 0 63.5 49t32.5 132zM122 642q0 20 17 34t38 14q18 0 29 -12t11 -30q0 -20 -17 -34t-38 -14
q-18 0 -29 12t-11 30z" />
    <glyph glyph-name="k" unicode="k" horiz-adv-x="574" 
d="M227 725l-72 -433l153 97q105 68 105 99q0 9 -10 19q-9 9 -9 10q0 5 10 5q6 0 35 -1t43 -1q16 0 50 1t36 1q7 0 7 -4q0 -6 -18 -12q-71 -22 -165 -85l-167 -111v-2q45 0 75 -8.5t52 -31t34 -42.5t32 -63q70 -136 114 -152q10 -2 10 -11q0 -3 -10 -3q-2 0 -27 1.5t-38 1.5
q-10 0 -31 -1.5t-30 -1.5l-85 186q-12 25 -19 37.5t-21 32t-31 28.5t-39 9q-20 0 -32.5 -5t-20 -19.5t-9.5 -23t-7 -33.5l-15 -100q-2 -18 -2 -36q0 -47 35 -64q7 -5 7 -7q0 -5 -8 -5q-1 0 -34 1.5t-50 1.5q-15 0 -45.5 -1.5t-34.5 -1.5q-9 0 -11 4q0 7 7 10q20 8 29.5 18
t20.5 44.5t23 104.5l73 430q2 10 2 30q0 39 -34 48q-6 2 -6 4q0 4 3 4z" />
    <glyph glyph-name="l" unicode="l" horiz-adv-x="259" 
d="M52 91l86 515q3 15 3 26q0 26 -7 36.5t-23 17.5q-9 4 -9 7q0 4 3 4l121 28l-86 -630q-3 -30 -3 -36q0 -35 32 -46q16 -5 16 -10q0 -6 -8 -6l-33 1q-34 2 -61 2q-19 0 -39.5 -0.5t-34.5 -1.5t-15 -1q-7 0 -7 6q0 3 9 8q27 12 38.5 27.5t17.5 52.5z" />
    <glyph glyph-name="m" unicode="m" horiz-adv-x="1000" 
d="M180 520l-28 -164h2q85 179 228 179q163 0 163 -169h2q71 169 220 169q75 0 122 -41.5t47 -115.5q0 -40 -6 -84l-31 -245v-6q0 -17 19.5 -28.5t19.5 -13.5q0 -4 -10 -4l-32 1q-33 2 -49 2q-15 0 -45 -1.5t-32 -1.5q-7 0 -7 5q0 2 16 10q40 17 55 144l20 141q5 32 5 62
q0 64 -31 107t-79 43q-53 0 -97 -34.5t-68 -78t-36 -90.5q-46 -181 -46 -248q0 -23 10 -35t20.5 -15.5t10.5 -6.5q0 -4 -8 -4q-1 0 -33 1.5t-49 1.5q-20 0 -37.5 -0.5t-27.5 -1.5t-12 -1q-8 0 -8 6q1 4 18 7q15 4 26 33.5t28 115.5l25 157q0 6 1 16.5t1.5 19.5t0.5 17
q0 140 -120 140q-55 0 -105 -53.5t-74 -115.5q-18 -47 -36 -143t-18 -145q0 -18 9.5 -28.5t19.5 -14.5t10 -6q0 -6 -8 -6q-1 0 -14.5 0.5t-31.5 1.5t-29 1q-15 0 -31 -0.5t-27 -1.5t-12 -1q-8 0 -8 5q0 1 4 3.5t10.5 8t13 15t13.5 29t11 46.5l42 261q6 38 6 57q0 22 -9.5 36
t-19.5 19t-10 6q0 8 8 9z" />
    <glyph glyph-name="n" unicode="n" 
d="M183 520l-29 -157h2q37 78 101.5 125t146.5 47q76 0 128.5 -40t50.5 -117q0 -30 -2 -45l-30 -245q-4 -30 -4 -37q0 -21 6.5 -29t23.5 -13q8 -3 8 -9q0 -3 -7 -3q-1 0 -17 0.5t-36 1.5t-33 1q-23 0 -40 -0.5t-25 -1.5t-9 -1q-10 0 -10 5t15 12q22 11 33 39.5t20 85.5
l24 153q6 44 6 71q0 74 -37 110t-102 36q-74 0 -136 -68t-76 -147l-37 -189q-3 -19 -3 -38q0 -27 7.5 -38.5t23.5 -19.5q8 -4 8 -7q0 -5 -10 -5q-2 0 -32.5 1.5t-48.5 1.5q-16 0 -35 -0.5t-32 -1.5t-15 -1q-6 0 -6 5q0 4 9 8q49 15 60 96l50 310l3 21q0 30 -36 43q-7 2 -7 7
q0 4 5 6z" />
    <glyph glyph-name="o" unicode="o" horiz-adv-x="667" 
d="M367 517q-53 0 -96 -20t-71 -52t-47 -75.5t-27 -88t-8 -91.5q0 -87 41.5 -137t126.5 -50q53 0 96 20t71 52t47 75.5t27 88t8 91.5q0 87 -41.5 137t-126.5 50zM367 535q101 0 179.5 -63.5t78.5 -164.5q0 -138 -100 -230t-239 -92q-101 0 -179.5 63.5t-78.5 164.5
q0 138 100 230t239 92z" />
    <glyph glyph-name="p" unicode="p" horiz-adv-x="667" 
d="M181 520l-25 -159h2q44 83 98 128.5t136 45.5q102 0 166 -66.5t64 -169.5q0 -94 -54.5 -167.5t-136.5 -110t-174 -36.5q-70 0 -148 28l-18 -109q-4 -26 -4 -46q0 -23 12.5 -32.5t36.5 -12.5q12 -1 12 -5q0 -6 -6 -6q-17 0 -50.5 2t-50.5 2q-15 0 -47 -2t-48 -2
q-10 0 -10 6q0 3 11 6q29 9 41.5 30.5t24.5 96.5l72 415q7 46 7 71q0 26 -7.5 35.5t-27.5 18.5q-7 2 -7 6q0 3 5 5zM138 233l-24 -168q13 -26 57.5 -44t89.5 -18q66 0 119 30t85.5 79.5t49.5 109t17 121.5q0 74 -39 124t-110 50q-42 0 -79.5 -19.5t-64.5 -50.5t-49 -69.5
t-34.5 -75t-17.5 -69.5z" />
    <glyph glyph-name="q" unicode="q" horiz-adv-x="667" 
d="M518 321l26 155q-61 41 -162 41q-87 0 -150 -53t-90.5 -128.5t-27.5 -160.5q0 -73 39.5 -122.5t110.5 -49.5q49 0 89 20.5t65.5 51.5t46.5 76t32 83.5t21 86.5zM464 -63l36 224h-2q-84 -176 -244 -176q-106 0 -168 67.5t-62 171.5q0 54 25.5 109.5t70 100t111.5 73
t142 28.5q122 0 254 -47l-67 -412q-24 -156 -24 -205q0 -28 11 -41t34 -20q14 -4 14 -7q0 -4 -9 -4q-1 0 -34 1.5t-51 1.5q-28 0 -67.5 -1.5t-41.5 -1.5q-12 0 -12 6q0 5 9 7q31 7 47.5 34.5t27.5 90.5z" />
    <glyph glyph-name="r" unicode="r" horiz-adv-x="370" 
d="M191 520l-24 -153l2 -2q39 81 96.5 125.5t116.5 44.5q9 0 9 -4q0 -3 -2 -9l-38 -73q-3 -5 -6 -5q-1 0 -3.5 1t-6.5 3t-7 3q-16 8 -33 8q-47 0 -84 -54.5t-49 -124.5l-28 -157q-3 -27 -3 -64q0 -24 7.5 -35t28.5 -16q10 -2 10 -7q0 -4 -10 -4q-2 0 -36 1.5t-52 1.5
q-15 0 -48.5 -1.5t-35.5 -1.5q-7 0 -7 6q0 4 9 7q48 14 67 149l39 248q3 18 3 37t-5.5 27t-19.5 17q-6 4 -6 6q0 6 14 8z" />
    <glyph glyph-name="s" unicode="s" horiz-adv-x="556" 
d="M520 499l-33 -83q-4 -11 -7 -11q-1 0 -4 5q-26 56 -63 81.5t-98 25.5q-64 0 -121 -30t-57 -88q0 -24 10.5 -42t24 -28t40.5 -17t44.5 -9.5t52.5 -6.5h3t3 -0.5t3 -0.5q34 -4 54.5 -7t47.5 -11.5t42 -20.5t26 -33.5t11 -50.5q0 -52 -30.5 -90.5t-78.5 -58.5t-96 -29
t-94 -9q-135 0 -223 52l37 85q4 9 8 9q7 0 9 -23q6 -49 63.5 -77t124.5 -28q33 0 67 7.5t66 22.5t52.5 43t20.5 64q0 24 -11 39.5t-39.5 25t-46.5 12.5t-62 9q-15 2 -22 3q-41 5 -67.5 11.5t-55.5 20.5t-43.5 38.5t-14.5 60.5q0 49 26 85.5t69 54.5t86.5 26.5t88.5 8.5
q115 0 187 -36z" />
    <glyph glyph-name="t" unicode="t" horiz-adv-x="296" 
d="M127 471h-78l3 20q87 7 164 147q4 9 8 9q3 0 3 -4q0 -5 -1 -8l-27 -138h100l-6 -26h-99l-34 -243q-14 -100 -14 -141q0 -26 7 -42.5t14 -22t22 -12.5l4 -2t4 -1t3 -1t1 -2q0 -6 -8 -6q-1 0 -18.5 1t-33.5 1q-15 0 -31 -1t-18 -1q-10 0 -16.5 13.5t-6.5 28.5q0 32 3 51z
" />
    <glyph glyph-name="u" unicode="u" 
d="M525 506l79 14l-41 -225q-22 -121 -22 -216q0 -49 23 -66q9 -7 9 -8q0 -5 -7 -5h-92q-11 67 -5 178h-2q-43 -93 -102.5 -143t-153.5 -50q-76 0 -121 42t-45 121q0 31 12 97l31 160q6 28 6 35q0 28 -29 42q-8 3 -8 8t13 8l118 22l-61 -328q-5 -32 -5 -55q0 -54 35 -90
t90 -36q40 0 74.5 17.5t60 50t44.5 67t33.5 80.5t22.5 77t16 70z" />
    <glyph glyph-name="v" unicode="v" horiz-adv-x="611" 
d="M193 520l-45 -216q-21 -102 -21 -149q0 -62 39 -103t101 -41q80 0 137.5 52.5t82.5 124t25 148.5q0 120 -56 150q-5 2 -5 5q0 5 7 6l102 23q8 -46 8 -66q0 -43 -6 -89t-19 -101.5t-39 -103t-62.5 -88t-92.5 -64t-125 -23.5q-73 0 -123.5 44t-50.5 122q0 48 26 167t26 128
q0 15 -33 40q-7 5 -7 7q0 3 21 7z" />
    <glyph glyph-name="w" unicode="w" horiz-adv-x="981" 
d="M519 509l75 11l-60 -276q-7 -37 -7 -72q0 -75 27.5 -118t99.5 -43q54 0 99.5 34t72.5 86.5t41.5 109t14.5 106.5q0 49 -13.5 91.5t-43.5 54.5q-7 3 -7 5q0 3 4 3l110 19q6 -45 6 -67q0 -41 -7 -93t-29.5 -120.5t-56.5 -123.5t-95 -93t-139 -38q-35 0 -61.5 10t-43 25.5
t-28 41.5t-17.5 51t-11 61h-2q-43 -91 -97.5 -140t-143.5 -49q-67 0 -114 47t-47 119q0 49 27 163.5t27 126.5q0 30 -29 46q-6 3 -6 6q0 4 14 7l121 20l-56 -224q-21 -82 -21 -141q0 -61 28.5 -101.5t90.5 -40.5q47 0 87 27.5t66.5 73t43.5 88t29 89.5z" />
    <glyph glyph-name="x" unicode="x" horiz-adv-x="574" 
d="M160 520l134 -210l45 57q2 2 11.5 15.5t14 19.5l15 20t17 21.5t18 20t20 19.5t20 16t21 13.5t20.5 8t21 3.5q25 0 41 -4l-44 -90q-4 -9 -7 -9q-1 0 -5 2q-17 11 -31 11q-48 0 -94 -54l-73 -88l100 -174q18 -32 46.5 -62t55.5 -46q9 -4 9 -6q0 -4 -6 -4h-108q-19 0 -47 51
l-91 174l-45 -66q-21 -31 -38 -52.5t-45 -52t-58 -47t-58 -16.5q-15 0 -25 5l39 96q5 11 8 11t6 -3q23 -15 34 -15q27 0 61 25t61 64l50 74l-78 133q-3 5 -16.5 25t-19 28t-18.5 24.5t-21.5 24.5t-20.5 17t-24 13q-4 1 -4 5q0 2 3 2h106z" />
    <glyph glyph-name="y" unicode="y" 
d="M537 508l80 12l-45 -182q-17 -75 -34 -207q0 -4 -2.5 -25t-4 -29.5t-5.5 -30t-8 -34t-11.5 -32.5t-16.5 -34t-22.5 -31t-29.5 -31q-29 -25 -54 -41t-79.5 -30.5t-126.5 -14.5q-86 0 -176 26l33 75q6 10 9 10t5 -4q49 -81 173 -81q62 0 110.5 32t77 85.5t44 109.5
t22.5 118h-2q-84 -184 -244 -184q-73 0 -129 42.5t-56 111.5q0 45 29 169t29 140t-6.5 24.5t-21.5 18.5q-6 3 -6 6q0 2 6 4l121 19l-62 -329q-9 -48 -9 -55q0 -58 38 -91.5t96 -33.5q50 0 92 29t70 77.5t46.5 100t29.5 108.5z" />
    <glyph glyph-name="z" unicode="z" horiz-adv-x="556" 
d="M60 405l56 119q34 0 101.5 -2t100.5 -2q39 0 106 2t92 2q15 0 15 -15t-98 -117.5t-196 -209.5t-98 -132q0 -13 12.5 -20t22.5 -7.5t29 -0.5q202 0 296 97q9 9 11 9q5 0 5 -7q0 -1 -1 -3l-2.5 -5l-2.5 -5l-50 -112q-40 0 -118.5 2t-119.5 2q-35 0 -109 -2t-111 -2
q-6 0 -6 10q0 6 5 14l379 404q25 28 25 52q0 12 -12.5 17t-52.5 5q-93 0 -151.5 -20t-119.5 -76q-4 -4 -8 -4q-2 0 -2 2q0 3 2 5z" />
    <glyph glyph-name="braceleft" unicode="{" horiz-adv-x="278" 
d="M201 529l-28 -164q-10 -57 -33 -84.5t-84 -39.5v-3q80 -19 80 -77q0 -22 -4 -46l-27 -164q-4 -32 -4 -39q0 -65 60 -76l-2 -16q-65 0 -93.5 21t-28.5 75q0 26 3 40l29 173q4 21 4 41q0 29 -16 44t-49 25q49 14 69 38.5t29 73.5l29 173q13 81 52.5 108.5t109.5 27.5
l-1 -16q-43 -7 -64.5 -35t-30.5 -80z" />
    <glyph glyph-name="bar" unicode="|" horiz-adv-x="222" 
d="M86 750h50v-1000h-50v1000z" />
    <glyph glyph-name="braceright" unicode="}" horiz-adv-x="278" 
d="M59 -49l28 164q10 57 33 84.5t84 39.5v3q-80 19 -80 77q0 22 4 46l27 164q4 32 4 39q0 65 -60 76l2 16q65 0 93.5 -21t28.5 -75q0 -26 -3 -40l-29 -173q-4 -21 -4 -41q0 -29 16 -44t49 -25q-49 -14 -69 -38.5t-29 -73.5l-29 -173q-13 -81 -52.5 -108.5t-109.5 -27.5l1 16
q43 7 64.5 35t30.5 80z" />
    <glyph glyph-name="asciitilde" unicode="~" horiz-adv-x="600" 
d="M495 326l36 -42q-20 -27 -33 -42t-38 -29.5t-54 -14.5q-38 0 -104 34t-113 34q-51 0 -84 -72l-36 42q45 86 125 86q41 0 115 -34q76 -34 98 -34q19 0 36.5 12t27 24.5t24.5 35.5z" />
    <glyph glyph-name="uni00A0" unicode="&#xa0;" horiz-adv-x="324" 
 />
    <glyph glyph-name="exclamdown" unicode="&#xa1;" horiz-adv-x="278" 
d="M116 480q0 21 15.5 38t36.5 17q19 0 31 -12t12 -32q0 -21 -15.5 -38t-36.5 -17q-19 0 -31 12t-12 32zM142 397h14q-18 -126 -18 -333q0 -204 -74 -204q-40 0 -36 64q0 17 7.5 51t15.5 63.5t19 68.5t14 48q36 125 58 242z" />
    <glyph glyph-name="cent" unicode="&#xa2;" 
d="M524 504l-32 -69q-4 -9 -7 -9q-2 0 -6 9q-13 38 -40.5 59.5t-56.5 21.5q-55 0 -96 -24t-63.5 -64t-33.5 -85t-11 -95q0 -64 36.5 -107.5t108.5 -43.5q89 0 169 75l10 -13q-71 -77 -171 -80l-15 -97h-36l15 97q-89 5 -143 53t-54 136q0 105 72 180t177 86l15 96h36
l-15 -93q89 0 141 -33z" />
    <glyph glyph-name="sterling" unicode="&#xa3;" 
d="M22 69q0 -49 59 -49q46 0 86 29.5t48 73.5q-39 22 -76 22t-77 -21t-40 -55zM226 307h-94l9 30h81q0 8 -2.5 29.5t-2.5 33.5q0 100 61 165t160 65q62 0 150 -50l-41 -91q-5 -10 -8 -10q-4 0 -4 10q-6 58 -45.5 86.5t-92.5 28.5q-47 0 -81 -32.5t-34 -79.5q0 -18 3.5 -40.5
t6.5 -36.5t10 -41.5t9 -36.5h166l-11 -30h-149q0 -8 0.5 -22t0.5 -20q0 -77 -30 -118q17 -7 53.5 -27.5t45.5 -24.5q66 -33 103 -33q66 0 126 94q6 9 10 9q5 0 5 -5q0 -2 -2 -8q-57 -88 -100 -127.5t-94 -39.5q-21 0 -41 6.5t-40.5 22t-33 26t-34.5 32.5l-29 29
q-60 -58 -114 -87t-126 -29q-25 0 -44.5 11.5t-19.5 34.5q0 37 39 69t86 47.5t82 15.5q22 0 66 -4q5 21 6 42t1 30.5t-3 38t-4 37.5z" />
    <glyph glyph-name="currency" unicode="&#xa4;" 
d="M79 98l54 57q-54 67 -54 152q0 95 56 154l-56 57l38 38l56 -55q65 55 157 55q86 0 151 -55l56 55l38 -38l-54 -54q54 -63 54 -155q0 -89 -53 -155l53 -56l-38 -38l-53 58q-65 -58 -155 -58q-93 0 -159 58l-53 -58zM329 110q80 0 136 59t56 140q0 79 -56 138t-135 59
q-82 0 -139.5 -58t-57.5 -141q0 -82 57.5 -139.5t138.5 -57.5z" />
    <glyph glyph-name="yen" unicode="&#xa5;" 
d="M221 518l133 -215l164 189q17 18 24 26t16 24.5t9 32.5q0 22 -36 32q-8 3 -8 7q0 5 6 5q13 0 39.5 -2t38.5 -2q14 0 41.5 2t41.5 2q8 0 8 -4t-13 -10q-53 -27 -130 -107l-95 -108h103l-9 -30h-120l-72 -82v-2h177l-9 -30h-172l-24 -170q-2 -20 -2 -26q0 -22 38 -41
q10 -6 10 -10q0 -3 -10 -3q-15 0 -45 2t-46 2q-15 0 -42 -2t-35 -2q-17 0 -17 4t12 7q25 8 34.5 21.5t17.5 57.5l27 160h-172l9 30h165l-49 84h-125l9 30h99l-63 108q-48 83 -99 108q-14 5 -14 8q0 5 7 5q16 0 48 -2t47 -2q18 0 51.5 2t50.5 2q8 0 8 -5q0 -3 -8 -6
q-17 -7 -23.5 -10t-11.5 -9t-5 -15q0 -23 21 -56z" />
    <glyph glyph-name="brokenbar" unicode="&#xa6;" horiz-adv-x="222" 
d="M86 675h50v-350h-50v350zM86 175h50v-350h-50v350z" />
    <glyph glyph-name="section" unicode="&#xa7;" horiz-adv-x="556" 
d="M385 276l-194 165q-65 -40 -65 -108q0 -11 6.5 -25.5t15.5 -21.5l221 -184q56 31 56 99q0 37 -40 75zM30 -118l6 72q0 9 3 9q2 0 13 -16q62 -84 172 -84q55 0 100.5 25t45.5 73q0 25 -10.5 47t-38 46.5t-42.5 36t-56 40.5q-34 25 -54.5 41.5t-45 41.5t-36 52.5
t-11.5 58.5q0 45 31.5 81.5t75.5 48.5q-23 31 -23 71q0 134 187 134q37 0 83.5 -16t72.5 -39l-22 -45q-4 -10 -8 -10t-8 9q-19 40 -58 59.5t-78 19.5q-52 0 -85.5 -22t-33.5 -71q0 -24 19.5 -49t39 -41t60.5 -45q3 -2 5 -3.5t4.5 -3t4.5 -3.5q41 -29 65.5 -50t45.5 -54
t21 -67q0 -46 -25.5 -85t-67.5 -57q38 -40 38 -95q0 -43 -18.5 -74t-51 -47t-67.5 -23t-75 -7q-106 0 -178 41z" />
    <glyph glyph-name="dieresis" unicode="&#xa8;" horiz-adv-x="259" 
d="M60 648q0 21 14.5 35.5t35.5 14.5t35.5 -14.5t14.5 -35.5q0 -20 -15 -35t-35 -15t-35 15t-15 35zM261 648q0 21 14.5 35.5t35.5 14.5t35.5 -14.5t14.5 -35.5q0 -20 -15 -35t-35 -15t-35 15t-15 35z" />
    <glyph glyph-name="copyright" unicode="&#xa9;" horiz-adv-x="800" 
d="M732 320q0 -140 -97.5 -240t-234.5 -100t-234.5 100t-97.5 240t97.5 240t234.5 100t234.5 -100t97.5 -240zM687 320q0 119 -84.5 211.5t-202.5 92.5t-202.5 -92.5t-84.5 -211.5t84.5 -211.5t202.5 -92.5t202.5 92.5t84.5 211.5zM551 234h14l-16 -67q-46 -35 -128 -35
q-89 0 -146 47.5t-57 148.5q0 70 55 129.5t153 59.5q31 0 71 -9t52 -25v-73h-14q-2 37 -28.5 63t-84.5 26q-72 0 -109.5 -46t-38.5 -122q-1 -82 38.5 -131.5t117.5 -49.5q88 0 121 84z" />
    <glyph glyph-name="ordfeminine" unicode="&#xaa;" horiz-adv-x="378" 
d="M326 537l13 51q-24 17 -81 17q-87 0 -126.5 -55t-39.5 -140t64 -85q33 0 60 15t44 35.5t31.5 52t21 55.5t13.5 54zM396 606l-31 -124q-16 -63 -16 -126q0 -29 11 -39l5 -5q0 -3 -4 -3h-60q-4 6 -4 92h-2q-25 -48 -58.5 -74.5t-84.5 -26.5q-61 0 -96.5 35.5t-35.5 91.5
q0 91 74.5 147t174.5 56q60 0 127 -24z" />
    <glyph glyph-name="guillemotleft" unicode="&#xab;" horiz-adv-x="556" 
d="M164 271l87 -185q-25 -4 -50 -22q-14 43 -49 121t-39 88q18 20 52 57t61 68t50 59q12 -20 36 -39zM315 271l87 -185q-25 -4 -50 -22q-14 43 -49 121t-39 88q18 20 52 57t61 68t50 59q12 -20 36 -39z" />
    <glyph glyph-name="logicalnot" unicode="&#xac;" horiz-adv-x="600" 
d="M41 329v58h518v-272h-58v214h-460z" />
    <glyph glyph-name="uni00AD" unicode="&#xad;" horiz-adv-x="259" 
d="M9 289h241l-10 -58h-241z" />
    <glyph glyph-name="registered" unicode="&#xae;" horiz-adv-x="800" 
d="M242 493v13h167q48 0 82.5 -22.5t34.5 -65.5q0 -39 -22.5 -66.5t-58.5 -39.5l57 -78q53 -70 81 -84v-11h-54q-10 0 -19 6.5t-20 22t-21.5 32.5t-29.5 46.5t-38 55.5h-54v-95q0 -36 5.5 -41t44.5 -9v-18h-155v18q39 4 44 9t5 41v234q0 37 -5.5 42t-43.5 10zM347 488v-168
h48q75 0 75 93q0 75 -79 75h-44zM732 320q0 -140 -97.5 -240t-234.5 -100t-234.5 100t-97.5 240t97.5 240t234.5 100t234.5 -100t97.5 -240zM687 320q0 119 -84.5 211.5t-202.5 92.5t-202.5 -92.5t-84.5 -211.5t84.5 -211.5t202.5 -92.5t202.5 92.5t84.5 211.5z" />
    <glyph glyph-name="macron" unicode="&#xaf;" horiz-adv-x="259" 
d="M365 674l-12 -51h-301l12 51h301z" />
    <glyph glyph-name="degree" unicode="&#xb0;" horiz-adv-x="400" 
d="M200 384q44 0 71 28.5t27 74.5t-27 74.5t-71 28.5t-71 -28.5t-27 -74.5t27 -74.5t71 -28.5zM200 344q-60 0 -101.5 41.5t-41.5 101.5t41.5 101.5t101.5 41.5t101.5 -41.5t41.5 -101.5t-41.5 -101.5t-101.5 -41.5z" />
    <glyph glyph-name="plusminus" unicode="&#xb1;" horiz-adv-x="600" 
d="M271 345v175h58v-175h230v-58h-230v-176h-58v176h-230v58h230zM41 0v58h518v-58h-518z" />
    <glyph glyph-name="twosuperior" unicode="&#xb2;" horiz-adv-x="388" 
d="M66 302h214q27 1 72 35q3 3 4 3q2 0 2 -2q0 -4 -2 -7l-45 -79h-299q4 41 53.5 80t99.5 58q34 13 54 23t42 27t32 40.5t10 55.5q0 69 -84 69q-95 0 -127 -61q-3 -5 -4 -5q-3 0 -3 7l-6 52q63 32 147 32q61 0 106 -29.5t45 -83.5q0 -27 -14.5 -48.5t-42 -37.5t-51.5 -25.5
t-60 -21.5t-49 -17q-75 -31 -94 -65z" />
    <glyph glyph-name="threesuperior" unicode="&#xb3;" horiz-adv-x="388" 
d="M150 434l3 37q44 -7 55 -7q46 0 73 19.5t27 59.5q0 62 -88 62q-68 0 -126 -58q-1 -1 -2 -3t-2 -3.5t-2 -1.5q-1 2 -2 7l-5 53q65 31 143 31q36 0 69 -7t61 -28.5t28 -55.5q0 -37 -44 -61t-90 -27v-2q119 -22 119 -93q0 -42 -35.5 -69t-77.5 -35.5t-87 -8.5q-88 0 -172 39
l30 58q2 6 4 6q5 0 5 -6q6 -32 40.5 -52t86.5 -20q132 0 132 93q0 38 -24.5 58t-68.5 20q-9 0 -26 -2.5t-24 -2.5z" />
    <glyph glyph-name="acute" unicode="&#xb4;" horiz-adv-x="259" 
d="M164 582h-34l137 135q2 2 7 7.5t7 7t6 5.5t6 5t6 3.5t7 3.5t7 1.5t8 0.5q13 0 22 -9t9 -20q0 -25 -31 -44z" />
    <glyph glyph-name="mu" unicode="&#xb5;" 
d="M188 520l-61 -328q-5 -32 -5 -55q0 -54 35 -90t90 -36q40 0 74.5 17.5t60 50t44.5 67t33.5 80.5t22.5 77t16 70l27 133l79 14l-41 -225q-22 -121 -22 -216q0 -49 23 -66q9 -7 9 -8q0 -5 -7 -5h-92q-11 67 -5 178h-2q-43 -93 -102.5 -143t-153.5 -50q-65 0 -108 32
l-33 -218q-11 0 -32.5 1.5t-32.5 1.5t-34.5 -1.5t-26.5 -1.5q-8 0 -8 5q0 4 9 8q48 28 59 97l84 496q6 28 6 35q0 28 -29 42q-8 3 -8 8t13 8z" />
    <glyph glyph-name="paragraph" unicode="&#xb6;" horiz-adv-x="600" 
d="M496 566l-105 -748h-48l111 793h-56l-111 -793h-48l60 430q-87 0 -124 46t-37 114q0 116 53.5 174t176.5 58h219l-3 -21q-50 0 -66.5 -9.5t-21.5 -43.5z" />
    <glyph glyph-name="periodcentered" unicode="&#xb7;" horiz-adv-x="324" 
d="M212 260q0 -21 -14.5 -35.5t-35.5 -14.5t-35.5 14.5t-14.5 35.5t14.5 35.5t35.5 14.5t35.5 -14.5t14.5 -35.5z" />
    <glyph glyph-name="cedilla" unicode="&#xb8;" horiz-adv-x="259" 
d="M-19 -103l-9 8l56 95h37l-38 -65q15 3 29 3q30 0 53.5 -18t23.5 -47q0 -43 -34 -66t-81 -23q-49 0 -97 21l17 29q41 -15 64 -15q22 0 39.5 10t17.5 30q0 30 -26.5 40.5t-51.5 -2.5z" />
    <glyph glyph-name="onesuperior" unicode="&#xb9;" horiz-adv-x="388" 
d="M166 316l46 238l3 18q0 28 -38 28h-7q-4 0 -4 4q0 2 5 5l109 21l-43 -310q0 -3 -1 -8.5t-1.5 -10t-0.5 -7.5q0 -9 5 -18.5t13 -11.5q9 -4 9 -9t-8 -5q-1 0 -24 1t-36 1q-21 0 -40 -0.5t-28 -1t-11 -0.5q-4 0 -4 6t26 15q22 10 30 45z" />
    <glyph glyph-name="ordmasculine" unicode="&#xba;" horiz-adv-x="400" 
d="M190 325q148 0 148 182q0 50 -21 74t-74 24q-56 0 -91 -28t-46.5 -66t-11.5 -88t21.5 -74t74.5 -24zM243 630q66 0 116.5 -38.5t50.5 -98.5q0 -83 -65 -138t-155 -55q-66 0 -117 38.5t-51 98.5q0 83 65 138t156 55z" />
    <glyph glyph-name="guillemotright" unicode="&#xbb;" horiz-adv-x="556" 
d="M382 250l-87 185q25 4 50 22q14 -43 49 -121t39 -88q-18 -20 -52 -57t-61 -68t-50 -59q-12 20 -36 39zM231 250l-87 185q25 4 50 22q14 -43 49 -121t39 -88q-18 -20 -52 -57t-61 -68t-50 -59q-12 20 -36 39z" />
    <glyph glyph-name="onequarter" unicode="&#xbc;" horiz-adv-x="972" 
d="M505 122l295 251q7 5 8 5q2 0 2 -3t-1 -5l-31 -234q71 0 110 22q8 8 9 8q3 0 3 -3q0 -4 -4 -10l-30 -59h-96l-6 -43q-1 -4 -1 -14q0 -18 33 -31q6 -3 6 -5l-4 -3h-4q-2 0 -10 0.5t-21.5 1t-29.5 0.5q-20 0 -37.5 -0.5t-27 -1t-10.5 -0.5q-6 0 -6 3t8 5q26 12 35 65l4 23
h-202zM552 136h154l26 152h-2zM200 -15l452 645h49l-451 -645h-50zM166 316l46 238l3 18q0 28 -38 28h-7q-4 0 -4 4q0 2 5 5l109 21l-43 -310q0 -3 -1 -8.5t-1.5 -10t-0.5 -7.5q0 -9 5 -18.5t13 -11.5q9 -4 9 -9t-8 -5q-1 0 -24 1t-36 1q-21 0 -40 -0.5t-28 -1t-11 -0.5
q-4 0 -4 6t26 15q22 10 30 45z" />
    <glyph glyph-name="onehalf" unicode="&#xbd;" horiz-adv-x="972" 
d="M190 -15l452 645h49l-451 -645h-50zM573 50h214q27 1 72 35q3 3 4 3q2 0 2 -2q0 -4 -2 -7l-45 -79h-299q4 41 53.5 80t99.5 58q34 13 54 23t42 27t32 40.5t10 55.5q0 69 -84 69q-95 0 -127 -61q-3 -5 -4 -5q-3 0 -3 7l-6 52q63 32 147 32q61 0 106 -29.5t45 -83.5
q0 -27 -14.5 -48.5t-42 -37.5t-51.5 -25.5t-60 -21.5t-49 -17q-75 -31 -94 -65zM156 316l46 238l3 18q0 28 -38 28h-7q-4 0 -4 4q0 2 5 5l109 21l-43 -310q0 -3 -1 -8.5t-1.5 -10t-0.5 -7.5q0 -9 5 -18.5t13 -11.5q9 -4 9 -9t-8 -5q-1 0 -24.5 1t-35.5 1q-21 0 -40 -0.5
t-28 -1t-11 -0.5q-4 0 -4 6t26 15q22 10 30 45z" />
    <glyph glyph-name="threequarters" unicode="&#xbe;" horiz-adv-x="972" 
d="M255 -15l452 645h49l-451 -645h-50zM180 434l3 37q44 -7 55 -7q46 0 73 19.5t27 59.5q0 62 -88 62q-68 0 -126 -58q-1 -1 -2 -3t-2 -3.5t-2 -1.5q-1 2 -2 7l-5 53q65 31 143 31q36 0 69 -7t61 -28.5t28 -55.5q0 -37 -44 -61t-90 -27v-2q119 -22 119 -93q0 -42 -35.5 -69
t-77.5 -35.5t-87 -8.5q-88 0 -172 39l30 58q2 6 4 6q5 0 5 -6q6 -32 40.5 -52t86.5 -20q132 0 132 93q0 38 -24.5 58t-68.5 20q-9 0 -26 -2.5t-24 -2.5zM505 122l295 251q7 5 8 5q2 0 2 -3t-1 -5l-31 -234q71 0 110 22q8 8 9 8q3 0 3 -3q0 -4 -4 -10l-30 -59h-96l-6 -43
q-1 -4 -1 -14q0 -18 33 -31q6 -3 6 -5l-4 -3h-4q-2 0 -10 0.5t-21.5 1t-29.5 0.5q-20 0 -37.5 -0.5t-27 -1t-10.5 -0.5q-6 0 -6 3t8 5q26 12 35 65l4 23h-202zM552 136h154l26 152h-2z" />
    <glyph glyph-name="questiondown" unicode="&#xbf;" horiz-adv-x="500" 
d="M304 402h16q-2 -37 -20.5 -76t-34.5 -60t-52 -64q-33 -39 -50.5 -63.5t-34 -64t-16.5 -78.5q0 -118 118 -118q58 0 108 30.5t77 82.5q4 8 8 8t4 -8l9 -84q-90 -47 -207 -47q-82 0 -148.5 42.5t-66.5 120.5q0 39 22.5 76t47.5 58.5t70 54.5q48 36 71.5 55.5t49.5 57
t29 77.5zM283 480q0 21 15.5 38t36.5 17q19 0 31 -12t12 -32q0 -21 -15.5 -38t-36.5 -17q-19 0 -31 12t-12 32z" />
    <glyph glyph-name="Agrave" unicode="&#xc0;" horiz-adv-x="778" 
d="M407 573l-157 -234h238zM495 317h-264l-108 -170q-38 -59 -38 -95q0 -29 48 -43q9 -3 9 -8q0 -4 -9 -4l-35 1q-34 2 -54 2q-15 0 -44 -1.5t-32 -1.5q-8 0 -8 3t1.5 4.5t6 4.5t6.5 4q18 13 26 24l453 641h2l214 -580q2 -6 6 -16t5.5 -14.5t4.5 -12t5 -11t4.5 -9t4.5 -7.5
t5 -5.5t6 -4.5t7 -2.5t8 -2.5q13 -2 13 -10q0 -6 -9 -6q-2 0 -20 0.5t-41.5 1.5t-38.5 1q-17 0 -53.5 -1.5t-40.5 -1.5q-8 0 -8 5q0 4 7 8q38 13 38 51q0 25 -10 55zM499 688l-139 107q-20 12 -20 30q0 15 9 25.5t23 10.5q20 0 32 -15l126 -158h-31z" />
    <glyph glyph-name="Aacute" unicode="&#xc1;" horiz-adv-x="778" 
d="M407 573l-157 -234h238zM495 317h-264l-108 -170q-38 -59 -38 -95q0 -29 48 -43q9 -3 9 -8q0 -4 -9 -4l-35 1q-34 2 -54 2q-15 0 -44 -1.5t-32 -1.5q-8 0 -8 3t1.5 4.5t6 4.5t6.5 4q18 13 26 24l453 641h2l214 -580q2 -6 6 -16t5.5 -14.5t4.5 -12t5 -11t4.5 -9t4.5 -7.5
t5 -5.5t6 -4.5t7 -2.5t8 -2.5q13 -2 13 -10q0 -6 -9 -6q-2 0 -20 0.5t-41.5 1.5t-38.5 1q-17 0 -53.5 -1.5t-40.5 -1.5q-8 0 -8 5q0 4 7 8q38 13 38 51q0 25 -10 55zM430 688h-34l137 135q2 2 7 7.5t7 7t6 5.5t6 5t6 3.5t7 3.5t7 1.5t8 0.5q13 0 22 -9t9 -20q0 -25 -31 -44z
" />
    <glyph glyph-name="Acircumflex" unicode="&#xc2;" horiz-adv-x="778" 
d="M407 573l-157 -234h238zM495 317h-264l-108 -170q-38 -59 -38 -95q0 -29 48 -43q9 -3 9 -8q0 -4 -9 -4l-35 1q-34 2 -54 2q-15 0 -44 -1.5t-32 -1.5q-8 0 -8 3t1.5 4.5t6 4.5t6.5 4q18 13 26 24l453 641h2l214 -580q2 -6 6 -16t5.5 -14.5t4.5 -12t5 -11t4.5 -9t4.5 -7.5
t5 -5.5t6 -4.5t7 -2.5t8 -2.5q13 -2 13 -10q0 -6 -9 -6q-2 0 -20 0.5t-41.5 1.5t-38.5 1q-17 0 -53.5 -1.5t-40.5 -1.5q-8 0 -8 5q0 4 7 8q38 13 38 51q0 25 -10 55zM510 857l88 -169h-36l-82 104l-135 -104h-41l158 169h48z" />
    <glyph glyph-name="Atilde" unicode="&#xc3;" horiz-adv-x="778" 
d="M407 573l-157 -234h238zM495 317h-264l-108 -170q-38 -59 -38 -95q0 -29 48 -43q9 -3 9 -8q0 -4 -9 -4l-35 1q-34 2 -54 2q-15 0 -44 -1.5t-32 -1.5q-8 0 -8 3t1.5 4.5t6 4.5t6.5 4q18 13 26 24l453 641h2l214 -580q2 -6 6 -16t5.5 -14.5t4.5 -12t5 -11t4.5 -9t4.5 -7.5
t5 -5.5t6 -4.5t7 -2.5t8 -2.5q13 -2 13 -10q0 -6 -9 -6q-2 0 -20 0.5t-41.5 1.5t-38.5 1q-17 0 -53.5 -1.5t-40.5 -1.5q-8 0 -8 5q0 4 7 8q38 13 38 51q0 25 -10 55zM348 714h-29q24 105 99 105q28 0 80 -21q52 -22 64 -22q24 0 36 10t20 34h29q-8 -42 -33 -73t-64 -31
q-26 0 -78 22q-50 22 -72 22q-36 0 -52 -46z" />
    <glyph glyph-name="Adieresis" unicode="&#xc4;" horiz-adv-x="778" 
d="M407 573l-157 -234h238zM495 317h-264l-108 -170q-38 -59 -38 -95q0 -29 48 -43q9 -3 9 -8q0 -4 -9 -4l-35 1q-34 2 -54 2q-15 0 -44 -1.5t-32 -1.5q-8 0 -8 3t1.5 4.5t6 4.5t6.5 4q18 13 26 24l453 641h2l214 -580q2 -6 6 -16t5.5 -14.5t4.5 -12t5 -11t4.5 -9t4.5 -7.5
t5 -5.5t6 -4.5t7 -2.5t8 -2.5q13 -2 13 -10q0 -6 -9 -6q-2 0 -20 0.5t-41.5 1.5t-38.5 1q-17 0 -53.5 -1.5t-40.5 -1.5q-8 0 -8 5q0 4 7 8q38 13 38 51q0 25 -10 55zM326 754q0 21 14.5 35.5t35.5 14.5t35.5 -14.5t14.5 -35.5q0 -20 -15 -35t-35 -15t-35 15t-15 35zM527 754
q0 21 14.5 35.5t35.5 14.5t35.5 -14.5t14.5 -35.5q0 -20 -15 -35t-35 -15t-35 15t-15 35z" />
    <glyph glyph-name="Aring" unicode="&#xc5;" horiz-adv-x="778" 
d="M407 573l-157 -234h238zM495 317h-264l-108 -170q-38 -59 -38 -95q0 -29 48 -43q9 -3 9 -8q0 -4 -9 -4l-35 1q-34 2 -54 2q-15 0 -44 -1.5t-32 -1.5q-8 0 -8 3t1.5 4.5t6 4.5t6.5 4q18 13 26 24l453 641h2l214 -580q2 -6 6 -16t5.5 -14.5t4.5 -12t5 -11t4.5 -9t4.5 -7.5
t5 -5.5t6 -4.5t7 -2.5t8 -2.5q13 -2 13 -10q0 -6 -9 -6q-2 0 -20 0.5t-41.5 1.5t-38.5 1q-17 0 -53.5 -1.5t-40.5 -1.5q-8 0 -8 5q0 4 7 8q38 13 38 51q0 25 -10 55zM450 683q-44 0 -75 31.5t-31 74.5t31 74.5t75 31.5t75 -31.5t31 -74.5t-31 -74.5t-75 -31.5zM450 854
q-28 0 -46.5 -18t-18.5 -47t18.5 -47t46.5 -18t46.5 18t18.5 47t-18.5 47t-46.5 18z" />
    <glyph glyph-name="AE" unicode="&#xc6;" horiz-adv-x="944" 
d="M219 352h215l35 230q0 2 1.5 10.5t1.5 14.5q0 17 -16 17q-15 0 -28 -17zM916 640l13 -110q0 -2 0.5 -5t0.5 -4q0 -3 -4 -3q-2 0 -14 15q-70 81 -162 81h-190l-39 -262h139q61 0 103.5 13t64.5 52q4 9 7 9q4 0 4 -3q0 -1 -1 -4l-27 -158q-2 -12 -8 -12t-6 6q-5 75 -143 75
h-135l-25 -201q-4 -33 -4 -64q0 -27 22.5 -35t81.5 -8q222 0 304 99q16 19 20 19t4 -3q0 -4 -1 -5l-62 -132h-447q-14 0 -46 -2q-30 -2 -41 -2q-8 0 -8 4q0 5 8 10q33 15 44 30q17 23 25 67l37 223h-230l-135 -176q-3 -4 -9 -11.5t-8.5 -11.5t-7.5 -10.5t-7.5 -10.5t-6 -9.5
t-5.5 -9.5t-3.5 -8.5t-2.5 -8.5t-1 -8q0 -5 1 -9.5t3 -9t3.5 -7.5t6 -6.5t6.5 -5.5t8 -5.5t7 -4.5t8 -5l8 -4q9 -5 9 -9t-6 -4q-14 0 -41.5 2t-41.5 2q-12 0 -38 -2t-39 -2q-22 0 -22 4t13 11q14 7 46 45l413 498q33 39 33 55q0 14 -31 20q-9 1 -9 6t9 5h555z" />
    <glyph glyph-name="Ccedilla" unicode="&#xc7;" horiz-adv-x="741" 
d="M660 134l6 -66q-109 -88 -272 -88q-24 0 -46 3l-28 -48q15 3 29 3q30 0 53.5 -18t23.5 -47q0 -43 -34 -66t-81 -23q-49 0 -97 21l17 29q41 -15 64 -15q22 0 39.5 10t17.5 30q0 30 -26.5 40.5t-51.5 -2.5l-9 8l49 83q-125 16 -198.5 89t-73.5 199q0 108 61.5 197.5
t157.5 138t202 48.5q168 0 268 -85l-30 -72q-12 -25 -13 -25q-5 0 -10 26q-11 68 -73 101t-142 33t-144 -35.5t-102 -94.5t-57.5 -130.5t-19.5 -149.5q0 -102 72.5 -164t174.5 -62q81 0 152 40t103 100q6 11 10 11q5 0 8 -19z" />
    <glyph glyph-name="Egrave" unicode="&#xc8;" horiz-adv-x="704" 
d="M222 618l-39 -266h174q88 0 128.5 14.5t62.5 45.5q9 14 11 14q4 0 4 -7q0 -3 -2 -17l-23 -139q-1 -9 -6 -9q-3 0 -9 18q-23 58 -143 58h-201l-23 -208q-6 -51 -6 -57q0 -27 29 -35t125 -8q241 0 337 100q4 4 8 9t6.5 7.5t5.5 2.5q4 0 4 -3q0 -4 -1 -5l-62 -137
q-54 0 -159.5 2t-159.5 2q-47 0 -146 -2t-150 -2q-8 0 -8 6q0 4 12 6q25 7 44.5 39t26.5 79l64 414q3 16 3 47q0 19 -6.5 27t-25.5 18q-8 3 -8 7q0 5 8 5q46 0 136.5 -2t133.5 -2q50 0 146.5 2t145.5 2l13 -111q0 -1 0.5 -4t0.5 -5q0 -3 -4 -3q-2 0 -14 15q-69 82 -162 82
h-271zM450 688l-139 107q-20 12 -20 30q0 15 9 25.5t23 10.5q20 0 32 -15l126 -158h-31z" />
    <glyph glyph-name="Eacute" unicode="&#xc9;" horiz-adv-x="704" 
d="M222 618l-39 -266h174q88 0 128.5 14.5t62.5 45.5q9 14 11 14q4 0 4 -7q0 -3 -2 -17l-23 -139q-1 -9 -6 -9q-3 0 -9 18q-23 58 -143 58h-201l-23 -208q-6 -51 -6 -57q0 -27 29 -35t125 -8q241 0 337 100q4 4 8 9t6.5 7.5t5.5 2.5q4 0 4 -3q0 -4 -1 -5l-62 -137
q-54 0 -159.5 2t-159.5 2q-47 0 -146 -2t-150 -2q-8 0 -8 6q0 4 12 6q25 7 44.5 39t26.5 79l64 414q3 16 3 47q0 19 -6.5 27t-25.5 18q-8 3 -8 7q0 5 8 5q46 0 136.5 -2t133.5 -2q50 0 146.5 2t145.5 2l13 -111q0 -1 0.5 -4t0.5 -5q0 -3 -4 -3q-2 0 -14 15q-69 82 -162 82
h-271zM381 688h-34l137 135q2 2 7 7.5t7 7t6 5.5t6 5t6 3.5t7 3.5t7 1.5t8 0.5q13 0 22 -9t9 -20q0 -25 -31 -44z" />
    <glyph glyph-name="Ecircumflex" unicode="&#xca;" horiz-adv-x="704" 
d="M222 618l-39 -266h174q88 0 128.5 14.5t62.5 45.5q9 14 11 14q4 0 4 -7q0 -3 -2 -17l-23 -139q-1 -9 -6 -9q-3 0 -9 18q-23 58 -143 58h-201l-23 -208q-6 -51 -6 -57q0 -27 29 -35t125 -8q241 0 337 100q4 4 8 9t6.5 7.5t5.5 2.5q4 0 4 -3q0 -4 -1 -5l-62 -137
q-54 0 -159.5 2t-159.5 2q-47 0 -146 -2t-150 -2q-8 0 -8 6q0 4 12 6q25 7 44.5 39t26.5 79l64 414q3 16 3 47q0 19 -6.5 27t-25.5 18q-8 3 -8 7q0 5 8 5q46 0 136.5 -2t133.5 -2q50 0 146.5 2t145.5 2l13 -111q0 -1 0.5 -4t0.5 -5q0 -3 -4 -3q-2 0 -14 15q-69 82 -162 82
h-271zM461 857l88 -169h-36l-82 104l-135 -104h-41l158 169h48z" />
    <glyph glyph-name="Edieresis" unicode="&#xcb;" horiz-adv-x="704" 
d="M222 618l-39 -266h174q88 0 128.5 14.5t62.5 45.5q9 14 11 14q4 0 4 -7q0 -3 -2 -17l-23 -139q-1 -9 -6 -9q-3 0 -9 18q-23 58 -143 58h-201l-23 -208q-6 -51 -6 -57q0 -27 29 -35t125 -8q241 0 337 100q4 4 8 9t6.5 7.5t5.5 2.5q4 0 4 -3q0 -4 -1 -5l-62 -137
q-54 0 -159.5 2t-159.5 2q-47 0 -146 -2t-150 -2q-8 0 -8 6q0 4 12 6q25 7 44.5 39t26.5 79l64 414q3 16 3 47q0 19 -6.5 27t-25.5 18q-8 3 -8 7q0 5 8 5q46 0 136.5 -2t133.5 -2q50 0 146.5 2t145.5 2l13 -111q0 -1 0.5 -4t0.5 -5q0 -3 -4 -3q-2 0 -14 15q-69 82 -162 82
h-271zM277 754q0 21 14.5 35.5t35.5 14.5t35.5 -14.5t14.5 -35.5q0 -20 -15 -35t-35 -15t-35 15t-15 35zM478 754q0 21 14.5 35.5t35.5 14.5t35.5 -14.5t14.5 -35.5q0 -20 -15 -35t-35 -15t-35 15t-15 35z" />
    <glyph glyph-name="Igrave" unicode="&#xcc;" horiz-adv-x="278" 
d="M207 509l-55 -404q-4 -34 -4 -48q0 -31 27 -49q5 -5 5 -7q0 -5 -11 -5q-5 0 -36 2t-47 2q-14 0 -42.5 -2t-34.5 -2q-11 0 -11 5q0 3 2 4.5t6 3t7 3.5q19 15 32 46t25 102l57 347q9 49 9 87q0 31 -20 40q-8 3 -8 5q0 5 9 5q11 0 33.5 -2t32.5 -2q13 0 41 2t38 2q9 0 9 -4
t-20 -14q-30 -14 -44 -117zM237 688l-139 107q-20 12 -20 30q0 15 9 25.5t23 10.5q20 0 32 -15l126 -158h-31z" />
    <glyph glyph-name="Iacute" unicode="&#xcd;" horiz-adv-x="278" 
d="M207 509l-55 -404q-4 -34 -4 -48q0 -31 27 -49q5 -5 5 -7q0 -5 -11 -5q-5 0 -36 2t-47 2q-14 0 -42.5 -2t-34.5 -2q-11 0 -11 5q0 3 2 4.5t6 3t7 3.5q19 15 32 46t25 102l57 347q9 49 9 87q0 31 -20 40q-8 3 -8 5q0 5 9 5q11 0 33.5 -2t32.5 -2q13 0 41 2t38 2q9 0 9 -4
t-20 -14q-30 -14 -44 -117zM168 688h-34l137 135q2 2 7 7.5t7 7t6 5.5t6 5t6 3.5t7 3.5t7 1.5t8 0.5q13 0 22 -9t9 -20q0 -25 -31 -44z" />
    <glyph glyph-name="Icircumflex" unicode="&#xce;" horiz-adv-x="278" 
d="M207 509l-55 -404q-4 -34 -4 -48q0 -31 27 -49q5 -5 5 -7q0 -5 -11 -5q-5 0 -36 2t-47 2q-14 0 -42.5 -2t-34.5 -2q-11 0 -11 5q0 3 2 4.5t6 3t7 3.5q19 15 32 46t25 102l57 347q9 49 9 87q0 31 -20 40q-8 3 -8 5q0 5 9 5q11 0 33.5 -2t32.5 -2q13 0 41 2t38 2q9 0 9 -4
t-20 -14q-30 -14 -44 -117zM248 857l88 -169h-36l-82 104l-135 -104h-41l158 169h48z" />
    <glyph glyph-name="Idieresis" unicode="&#xcf;" horiz-adv-x="278" 
d="M207 509l-55 -404q-4 -34 -4 -48q0 -31 27 -49q5 -5 5 -7q0 -5 -11 -5q-5 0 -36 2t-47 2q-14 0 -42.5 -2t-34.5 -2q-11 0 -11 5q0 3 2 4.5t6 3t7 3.5q19 15 32 46t25 102l57 347q9 49 9 87q0 31 -20 40q-8 3 -8 5q0 5 9 5q11 0 33.5 -2t32.5 -2q13 0 41 2t38 2q9 0 9 -4
t-20 -14q-30 -14 -44 -117zM64 754q0 21 14.5 35.5t35.5 14.5t35.5 -14.5t14.5 -35.5q0 -20 -15 -35t-35 -15t-35 15t-15 35zM265 754q0 21 14.5 35.5t35.5 14.5t35.5 -14.5t14.5 -35.5q0 -20 -15 -35t-35 -15t-35 15t-15 35z" />
    <glyph glyph-name="Eth" unicode="&#xd0;" horiz-adv-x="778" 
d="M184 330l-28 -187q0 -4 -3.5 -22t-3.5 -27q0 -50 26.5 -63.5t99.5 -13.5q89 0 167 19q51 12 91.5 60t61.5 108.5t32 113.5t11 88q0 67 -21.5 111t-63 65t-83.5 28.5t-101 7.5h-143l-39 -266h181l-8 -22h-176zM100 352l25 152q1 6 2.5 18t2.5 21.5t1 17.5q0 55 -40 66
q-8 3 -8 8q0 7 11 7q3 0 18.5 -0.5t51 -1t85.5 -0.5h165q145 0 233.5 -71t88.5 -191q0 -41 -12 -88t-42 -100t-75 -95t-119 -70t-165 -28q-25 0 -80.5 1.5t-85.5 1.5q-31 0 -58.5 -0.5t-45.5 -1t-31 -0.5t-20 -0.5t-8 -0.5q-12 0 -12 6q0 5 12 9q52 17 62 82l40 236h-74
l8 22h70z" />
    <glyph glyph-name="Ntilde" unicode="&#xd1;" horiz-adv-x="759" 
d="M219 644l396 -504l50 336q5 30 5 70q0 38 -13.5 58t-44.5 29q-14 4 -14 7q0 4 7 4q14 0 42.5 -2t41.5 -2q15 0 45 2t46 2q7 0 7 -4q0 -5 -11 -8q-33 -11 -49.5 -36t-27.5 -81l-80 -508q-3 -27 -6 -27h-2q-1 0 -27 35l-427 559l-52 -359q-11 -79 -11 -112q0 -45 12 -64
t39 -30q12 -5 12 -7q0 -5 -4 -5q-2 0 -37.5 1.5t-53.5 1.5q-16 0 -49.5 -1.5t-35.5 -1.5q-6 0 -6 3q0 6 14 11q28 11 47 42t27 61t17 79l44 295q6 39 6 70q0 62 -39 75q-10 4 -10 8q0 3 6 3q11 0 33 -0.5t32 -0.5q12 0 36 0.5t35 0.5zM326 714h-29q24 105 99 105
q28 0 80 -21q52 -22 64 -22q24 0 36 10t20 34h29q-8 -42 -33 -73t-64 -31q-26 0 -78 22q-50 22 -72 22q-36 0 -52 -46z" />
    <glyph glyph-name="Ograve" unicode="&#xd2;" horiz-adv-x="833" 
d="M693 412q0 105 -62 165.5t-168 60.5q-67 0 -122 -23.5t-91.5 -62.5t-61.5 -92.5t-36.5 -111.5t-11.5 -120q0 -105 62 -165.5t168 -60.5q67 0 122 23.5t91.5 62.5t61.5 92.5t36.5 111.5t11.5 120zM791 364q0 -108 -61.5 -197.5t-157.5 -138t-202 -48.5q-135 0 -231.5 81.5
t-96.5 214.5q0 108 61.5 197.5t157.5 138t202 48.5q135 0 231.5 -81.5t96.5 -214.5zM532 688l-139 107q-20 12 -20 30q0 15 9 25.5t23 10.5q20 0 32 -15l126 -158h-31z" />
    <glyph glyph-name="Oacute" unicode="&#xd3;" horiz-adv-x="833" 
d="M693 412q0 105 -62 165.5t-168 60.5q-67 0 -122 -23.5t-91.5 -62.5t-61.5 -92.5t-36.5 -111.5t-11.5 -120q0 -105 62 -165.5t168 -60.5q67 0 122 23.5t91.5 62.5t61.5 92.5t36.5 111.5t11.5 120zM791 364q0 -108 -61.5 -197.5t-157.5 -138t-202 -48.5q-135 0 -231.5 81.5
t-96.5 214.5q0 108 61.5 197.5t157.5 138t202 48.5q135 0 231.5 -81.5t96.5 -214.5zM463 688h-34l137 135q2 2 7 7.5t7 7t6 5.5t6 5t6 3.5t7 3.5t7 1.5t8 0.5q13 0 22 -9t9 -20q0 -25 -31 -44z" />
    <glyph glyph-name="Ocircumflex" unicode="&#xd4;" horiz-adv-x="833" 
d="M693 412q0 105 -62 165.5t-168 60.5q-67 0 -122 -23.5t-91.5 -62.5t-61.5 -92.5t-36.5 -111.5t-11.5 -120q0 -105 62 -165.5t168 -60.5q67 0 122 23.5t91.5 62.5t61.5 92.5t36.5 111.5t11.5 120zM791 364q0 -108 -61.5 -197.5t-157.5 -138t-202 -48.5q-135 0 -231.5 81.5
t-96.5 214.5q0 108 61.5 197.5t157.5 138t202 48.5q135 0 231.5 -81.5t96.5 -214.5zM543 857l88 -169h-36l-82 104l-135 -104h-41l158 169h48z" />
    <glyph glyph-name="Otilde" unicode="&#xd5;" horiz-adv-x="833" 
d="M693 412q0 105 -62 165.5t-168 60.5q-67 0 -122 -23.5t-91.5 -62.5t-61.5 -92.5t-36.5 -111.5t-11.5 -120q0 -105 62 -165.5t168 -60.5q67 0 122 23.5t91.5 62.5t61.5 92.5t36.5 111.5t11.5 120zM791 364q0 -108 -61.5 -197.5t-157.5 -138t-202 -48.5q-135 0 -231.5 81.5
t-96.5 214.5q0 108 61.5 197.5t157.5 138t202 48.5q135 0 231.5 -81.5t96.5 -214.5zM381 714h-29q24 105 99 105q27 0 80 -21q52 -22 64 -22q24 0 36 10t20 34h29q-8 -42 -33 -73t-64 -31q-26 0 -78 22q-50 22 -72 22q-36 0 -52 -46z" />
    <glyph glyph-name="Odieresis" unicode="&#xd6;" horiz-adv-x="833" 
d="M693 412q0 105 -62 165.5t-168 60.5q-67 0 -122 -23.5t-91.5 -62.5t-61.5 -92.5t-36.5 -111.5t-11.5 -120q0 -105 62 -165.5t168 -60.5q67 0 122 23.5t91.5 62.5t61.5 92.5t36.5 111.5t11.5 120zM791 364q0 -108 -61.5 -197.5t-157.5 -138t-202 -48.5q-135 0 -231.5 81.5
t-96.5 214.5q0 108 61.5 197.5t157.5 138t202 48.5q135 0 231.5 -81.5t96.5 -214.5zM359 754q0 21 14.5 35.5t35.5 14.5t35.5 -14.5t14.5 -35.5q0 -20 -15 -35t-35 -15t-35 15t-15 35zM560 754q0 21 14.5 35.5t35.5 14.5t35.5 -14.5t14.5 -35.5q0 -20 -15 -35t-35 -15
t-35 15t-15 35z" />
    <glyph glyph-name="multiply" unicode="&#xd7;" horiz-adv-x="600" 
d="M259 260l-218 218l41 41l218 -218l218 218l41 -41l-218 -218l218 -218l-41 -41l-218 218l-218 -218l-41 41z" />
    <glyph glyph-name="Oslash" unicode="&#xd8;" horiz-adv-x="833" 
d="M651 554l-454 -485q59 -67 173 -67q67 0 122 23.5t91.5 62.5t61.5 92.5t36.5 111.5t11.5 120q0 84 -42 142zM175 99l451 482q-59 57 -163 57q-67 0 -122 -23.5t-91.5 -62.5t-61.5 -92.5t-36.5 -111.5t-11.5 -120q0 -74 35 -129zM72 -64h-50l117 125q-97 84 -97 215
q0 108 61.5 197.5t157.5 138t202 48.5q107 0 189 -51l93 99h51l-113 -120q108 -83 108 -224q0 -108 -61.5 -197.5t-157.5 -138t-202 -48.5q-116 0 -201 59z" />
    <glyph glyph-name="Ugrave" unicode="&#xd9;" horiz-adv-x="759" 
d="M195 498l-34 -207q-7 -45 -7 -96q0 -58 17 -97t49 -58t67.5 -26.5t84.5 -7.5q58 0 99.5 12.5t78 44.5t61 94t38.5 155l18 122q9 70 9 105q0 87 -55 95q-15 3 -15 6t10 3q10 1 36 -1t39 -2q15 0 45 2t45 2q8 0 8 -4q0 -3 -15 -8q-52 -19 -66 -104l-49 -294
q-45 -254 -306 -254q-141 0 -214 51t-73 150q0 20 7 76l50 290q4 24 4 37q0 38 -33 50q-8 2 -8 6t7 4q14 0 41.5 -2t40.5 -2q16 0 49 2t42 2q7 0 7 -4t-14 -7q-24 -7 -38 -36.5t-26 -98.5zM495 688l-139 107q-20 12 -20 30q0 15 9 25.5t23 10.5q20 0 32 -15l126 -158h-31z
" />
    <glyph glyph-name="Uacute" unicode="&#xda;" horiz-adv-x="759" 
d="M195 498l-34 -207q-7 -45 -7 -96q0 -58 17 -97t49 -58t67.5 -26.5t84.5 -7.5q58 0 99.5 12.5t78 44.5t61 94t38.5 155l18 122q9 70 9 105q0 87 -55 95q-15 3 -15 6t10 3q10 1 36 -1t39 -2q15 0 45 2t45 2q8 0 8 -4q0 -3 -15 -8q-52 -19 -66 -104l-49 -294
q-45 -254 -306 -254q-141 0 -214 51t-73 150q0 20 7 76l50 290q4 24 4 37q0 38 -33 50q-8 2 -8 6t7 4q14 0 41.5 -2t40.5 -2q16 0 49 2t42 2q7 0 7 -4t-14 -7q-24 -7 -38 -36.5t-26 -98.5zM426 688h-34l137 135q2 2 7 7.5t7 7t6 5.5t6 5t6 3.5t7 3.5t7 1.5t8 0.5q13 0 22 -9
t9 -20q0 -25 -31 -44z" />
    <glyph glyph-name="Ucircumflex" unicode="&#xdb;" horiz-adv-x="759" 
d="M195 498l-34 -207q-7 -45 -7 -96q0 -58 17 -97t49 -58t67.5 -26.5t84.5 -7.5q58 0 99.5 12.5t78 44.5t61 94t38.5 155l18 122q9 70 9 105q0 87 -55 95q-15 3 -15 6t10 3q10 1 36 -1t39 -2q15 0 45 2t45 2q8 0 8 -4q0 -3 -15 -8q-52 -19 -66 -104l-49 -294
q-45 -254 -306 -254q-141 0 -214 51t-73 150q0 20 7 76l50 290q4 24 4 37q0 38 -33 50q-8 2 -8 6t7 4q14 0 41.5 -2t40.5 -2q16 0 49 2t42 2q7 0 7 -4t-14 -7q-24 -7 -38 -36.5t-26 -98.5zM506 857l88 -169h-36l-82 104l-135 -104h-41l158 169h48z" />
    <glyph glyph-name="Udieresis" unicode="&#xdc;" horiz-adv-x="759" 
d="M195 498l-34 -207q-7 -45 -7 -96q0 -58 17 -97t49 -58t67.5 -26.5t84.5 -7.5q58 0 99.5 12.5t78 44.5t61 94t38.5 155l18 122q9 70 9 105q0 87 -55 95q-15 3 -15 6t10 3q10 1 36 -1t39 -2q15 0 45 2t45 2q8 0 8 -4q0 -3 -15 -8q-52 -19 -66 -104l-49 -294
q-45 -254 -306 -254q-141 0 -214 51t-73 150q0 20 7 76l50 290q4 24 4 37q0 38 -33 50q-8 2 -8 6t7 4q14 0 41.5 -2t40.5 -2q16 0 49 2t42 2q7 0 7 -4t-14 -7q-24 -7 -38 -36.5t-26 -98.5zM322 754q0 21 14.5 35.5t35.5 14.5t35.5 -14.5t14.5 -35.5q0 -20 -15 -35t-35 -15
t-35 15t-15 35zM523 754q0 21 14.5 35.5t35.5 14.5t35.5 -14.5t14.5 -35.5q0 -20 -15 -35t-35 -15t-35 15t-15 35z" />
    <glyph glyph-name="Yacute" unicode="&#xdd;" horiz-adv-x="685" 
d="M231 539l138 -224l191 197q18 19 25 27t16.5 25.5t9.5 33.5q0 31 -37 36q-9 2 -9 6t6 4q14 0 41 -2t40 -2q14 0 43 2t44 2q8 0 8 -4q0 -3 -15 -11q-26 -13 -76.5 -57.5t-82.5 -77.5l-195 -205l-25 -187q-5 -33 -5 -36q0 -15 8 -32t24 -24q16 -8 16 -11q0 -2 -10 -2
q-1 0 -14.5 0.5t-36 1.5t-44.5 1q-20 0 -40.5 -0.5t-34 -1.5t-15.5 -1q-7 0 -7 3q0 6 10 9q29 10 43 32t23 84l23 156l-142 238q-51 88 -97 111q-3 2 -6 3.5t-4.5 2t-3 1.5t-1.5 2q0 5 7 5q17 0 50 -2t49 -2q18 0 53 2t53 2q8 0 8 -5q0 -2 -10 -5q-40 -10 -40 -37
q0 -24 22 -58zM383 688h-34l137 135q2 2 7 7.5t7 7t6 5.5t6 5t6 3.5t7 3.5t7 1.5t8 0.5q13 0 22 -9t9 -20q0 -25 -31 -44z" />
    <glyph glyph-name="Thorn" unicode="&#xde;" horiz-adv-x="685" 
d="M203 483l-38 -286q65 -8 137 -8q274 0 274 177q0 117 -166 117h-207zM70 160l57 347q9 49 9 87q0 31 -20 40q-8 3 -8 5q0 5 9 5q11 0 33.5 -2t32.5 -2q13 0 41 2t38 2q9 0 9 -4t-20 -14q-30 -14 -44 -117l-1 -4h177q291 0 291 -142q0 -92 -97.5 -144t-286.5 -52
q-45 0 -129 4l-9 -66q-4 -34 -4 -48q0 -16 20.5 -29.5t41.5 -19.5q5 -1 5 -7q0 -5 -11 -5q-5 0 -53.5 2t-64.5 2q-14 0 -54 -2t-46 -2q-11 0 -11 5q0 3 2 4t7 2.5t7 2.5q34 15 50 45t29 105z" />
    <glyph glyph-name="germandbls" unicode="&#xdf;" horiz-adv-x="630" 
d="M234 11l5 93q0 10 6 10t6 -10q4 -25 7.5 -37t12 -30t25 -26t41.5 -8q40 0 71 24t48 61t25.5 75.5t8.5 75.5q0 71 -27.5 105.5t-97.5 34.5q-9 0 -25 -1t-25 -1q-14 0 -14 11q0 13 9 13q8 0 23 -2t23 -2q66 0 101 61.5t35 133.5q0 57 -37.5 86t-95.5 29q-40 0 -72 -13.5
t-50 -32t-31.5 -43t-18 -40t-6.5 -28.5l-67 -464q-21 -153 -88.5 -220.5t-157.5 -67.5h-13q-23 0 -23 9q0 4 3 10l20 47q7 17 13 17q4 0 9 -10q12 -22 23.5 -30.5t32.5 -8.5q39 0 60.5 56t46.5 219l55 376q14 113 85.5 177.5t184.5 64.5q81 0 142.5 -36.5t61.5 -112.5
q0 -62 -43 -115.5t-104 -62.5q-4 0 -4 -5q0 -4 3 -4q71 -12 115 -52.5t44 -109.5q0 -99 -77.5 -170.5t-177.5 -71.5q-61 0 -91 26z" />
    <glyph glyph-name="agrave" unicode="&#xe0;" horiz-adv-x="630" 
d="M496 380l19 99q-45 38 -125 38q-69 0 -123.5 -30t-87 -80.5t-49 -110.5t-16.5 -126q0 -65 29 -112t91 -47q42 0 78 17t62 49t45.5 66t35 81.5t24 80t17.5 75.5zM597 495l-48 -206q-26 -110 -26 -210q0 -48 24 -66q9 -7 9 -8q0 -5 -7 -5h-92q-6 10 -6 153h-2
q-40 -80 -91.5 -124t-130.5 -44q-93 0 -148 59.5t-55 152.5q0 101 55.5 179.5t142 118.5t186.5 40q99 0 189 -40zM460 582l-139 107q-20 12 -20 30q0 15 9 25.5t23 10.5q20 0 32 -15l126 -158h-31z" />
    <glyph glyph-name="aacute" unicode="&#xe1;" horiz-adv-x="630" 
d="M496 380l19 99q-45 38 -125 38q-69 0 -123.5 -30t-87 -80.5t-49 -110.5t-16.5 -126q0 -65 29 -112t91 -47q42 0 78 17t62 49t45.5 66t35 81.5t24 80t17.5 75.5zM597 495l-48 -206q-26 -110 -26 -210q0 -48 24 -66q9 -7 9 -8q0 -5 -7 -5h-92q-6 10 -6 153h-2
q-40 -80 -91.5 -124t-130.5 -44q-93 0 -148 59.5t-55 152.5q0 101 55.5 179.5t142 118.5t186.5 40q99 0 189 -40zM391 582h-34l137 135q2 2 7 7.5t7 7t6 5.5t6 5t6 3.5t7 3.5t7 1.5t8 0.5q13 0 22 -9t9 -20q0 -25 -31 -44z" />
    <glyph glyph-name="acircumflex" unicode="&#xe2;" horiz-adv-x="630" 
d="M496 380l19 99q-45 38 -125 38q-69 0 -123.5 -30t-87 -80.5t-49 -110.5t-16.5 -126q0 -65 29 -112t91 -47q42 0 78 17t62 49t45.5 66t35 81.5t24 80t17.5 75.5zM597 495l-48 -206q-26 -110 -26 -210q0 -48 24 -66q9 -7 9 -8q0 -5 -7 -5h-92q-6 10 -6 153h-2
q-40 -80 -91.5 -124t-130.5 -44q-93 0 -148 59.5t-55 152.5q0 101 55.5 179.5t142 118.5t186.5 40q99 0 189 -40zM471 751l88 -169h-36l-82 104l-135 -104h-41l158 169h48z" />
    <glyph glyph-name="atilde" unicode="&#xe3;" horiz-adv-x="630" 
d="M496 380l19 99q-45 38 -125 38q-69 0 -123.5 -30t-87 -80.5t-49 -110.5t-16.5 -126q0 -65 29 -112t91 -47q42 0 78 17t62 49t45.5 66t35 81.5t24 80t17.5 75.5zM597 495l-48 -206q-26 -110 -26 -210q0 -48 24 -66q9 -7 9 -8q0 -5 -7 -5h-92q-6 10 -6 153h-2
q-40 -80 -91.5 -124t-130.5 -44q-93 0 -148 59.5t-55 152.5q0 101 55.5 179.5t142 118.5t186.5 40q99 0 189 -40zM309 608h-29q24 105 99 105q28 0 80 -21q52 -22 64 -22q24 0 36 10t20 34h29q-8 -42 -33 -73t-64 -31q-26 0 -78 22q-50 22 -72 22q-36 0 -52 -46z" />
    <glyph glyph-name="adieresis" unicode="&#xe4;" horiz-adv-x="630" 
d="M496 380l19 99q-45 38 -125 38q-69 0 -123.5 -30t-87 -80.5t-49 -110.5t-16.5 -126q0 -65 29 -112t91 -47q42 0 78 17t62 49t45.5 66t35 81.5t24 80t17.5 75.5zM597 495l-48 -206q-26 -110 -26 -210q0 -48 24 -66q9 -7 9 -8q0 -5 -7 -5h-92q-6 10 -6 153h-2
q-40 -80 -91.5 -124t-130.5 -44q-93 0 -148 59.5t-55 152.5q0 101 55.5 179.5t142 118.5t186.5 40q99 0 189 -40zM287 648q0 21 14.5 35.5t35.5 14.5t35.5 -14.5t14.5 -35.5q0 -20 -15 -35t-35 -15t-35 15t-15 35zM488 648q0 21 14.5 35.5t35.5 14.5t35.5 -14.5t14.5 -35.5
q0 -20 -15 -35t-35 -15t-35 15t-15 35z" />
    <glyph glyph-name="aring" unicode="&#xe5;" horiz-adv-x="630" 
d="M496 380l19 99q-45 38 -125 38q-69 0 -123.5 -30t-87 -80.5t-49 -110.5t-16.5 -126q0 -65 29 -112t91 -47q42 0 78 17t62 49t45.5 66t35 81.5t24 80t17.5 75.5zM597 495l-48 -206q-26 -110 -26 -210q0 -48 24 -66q9 -7 9 -8q0 -5 -7 -5h-92q-6 10 -6 153h-2
q-40 -80 -91.5 -124t-130.5 -44q-93 0 -148 59.5t-55 152.5q0 101 55.5 179.5t142 118.5t186.5 40q99 0 189 -40zM411 577q-43 0 -74.5 31.5t-31.5 74.5t31.5 74.5t74.5 31.5t74.5 -31.5t31.5 -74.5t-31.5 -74.5t-74.5 -31.5zM411 748q-29 0 -47 -18t-18 -47t18 -47t47 -18
t47 18t18 47t-18 47t-47 18z" />
    <glyph glyph-name="ae" unicode="&#xe6;" horiz-adv-x="963" 
d="M496 380l19 99q-45 38 -125 38q-69 0 -123.5 -30t-87 -80.5t-49 -110.5t-16.5 -126q0 -65 29 -112t91 -47q42 0 78 17t62 49t45.5 66t35 81.5t24 80t17.5 75.5zM405 0l25 96h-4q-52 -55 -81 -74q-56 -37 -118 -37q-93 0 -148 59.5t-55 152.5q0 101 55.5 179.5t142 118.5
t186.5 40q99 0 189 -40l-10 -35h6q38 31 93 53t104 22q72 0 120 -21t48 -67q0 -42 -28.5 -72t-74 -45t-90.5 -21.5t-91 -6.5q-77 0 -116 9q-14 -45 -14 -105q0 -89 45 -146t139 -57q48 0 102.5 30.5t96.5 74.5l13 -14q-101 -109 -245 -109q-70 0 -122.5 29.5t-81.5 74.5h-2
l-18 -89h-66zM781 517q-66 0 -132 -58.5t-85 -124.5q49 -14 90 -14q36 0 69.5 5.5t68 18.5t55.5 40.5t21 66.5q0 66 -87 66z" />
    <glyph glyph-name="ccedilla" unicode="&#xe7;" horiz-adv-x="556" 
d="M537 496l-39 -83q-4 -11 -8 -11q-3 0 -7 11q-15 46 -48.5 75t-67.5 29q-61 0 -110 -30t-78.5 -78t-45 -104.5t-15.5 -114.5q0 -77 46 -132t132 -55q99 0 203 95l11 -15q-90 -98 -220 -98q-18 0 -38 3l-30 -53q15 3 29 3q30 0 53.5 -18t23.5 -47q0 -43 -34 -66t-81 -23
q-49 0 -97 21l17 29q41 -15 64 -15q22 0 39.5 10t17.5 30q0 30 -26.5 40.5t-51.5 -2.5l-9 8l51 88q-87 15 -138.5 70.5t-51.5 149.5q0 136 103 229t236 93q107 0 170 -39z" />
    <glyph glyph-name="egrave" unicode="&#xe8;" horiz-adv-x="556" 
d="M499 113l15 -17q-53 -56 -108.5 -83.5t-126.5 -27.5q-107 0 -181 63.5t-74 153.5q0 88 50.5 165.5t131 122.5t168.5 45q25 0 49.5 -3.5t52 -12t44.5 -27.5t17 -45q0 -41 -32.5 -72t-82 -45.5t-93.5 -21t-82 -6.5q-75 0 -115 12q-18 -58 -18 -108q0 -85 47 -144t124 -59
q65 0 115 29t99 81zM447 451q0 66 -87 66q-78 0 -137.5 -53t-79.5 -130q49 -14 90 -14q36 0 69.5 5.5t68 18.5t55.5 40.5t21 66.5zM434 582l-139 107q-20 12 -20 30q0 15 9 25.5t23 10.5q20 0 32 -15l126 -158h-31z" />
    <glyph glyph-name="eacute" unicode="&#xe9;" horiz-adv-x="556" 
d="M499 113l15 -17q-53 -56 -108.5 -83.5t-126.5 -27.5q-107 0 -181 63.5t-74 153.5q0 88 50.5 165.5t131 122.5t168.5 45q25 0 49.5 -3.5t52 -12t44.5 -27.5t17 -45q0 -41 -32.5 -72t-82 -45.5t-93.5 -21t-82 -6.5q-75 0 -115 12q-18 -58 -18 -108q0 -85 47 -144t124 -59
q65 0 115 29t99 81zM447 451q0 66 -87 66q-78 0 -137.5 -53t-79.5 -130q49 -14 90 -14q36 0 69.5 5.5t68 18.5t55.5 40.5t21 66.5zM365 582h-34l137 135q2 2 7 7.5t7 7t6 5.5t6 5t6 3.5t7 3.5t7 1.5t8 0.5q13 0 22 -9t9 -20q0 -25 -31 -44z" />
    <glyph glyph-name="ecircumflex" unicode="&#xea;" horiz-adv-x="556" 
d="M499 113l15 -17q-53 -56 -108.5 -83.5t-126.5 -27.5q-107 0 -181 63.5t-74 153.5q0 88 50.5 165.5t131 122.5t168.5 45q25 0 49.5 -3.5t52 -12t44.5 -27.5t17 -45q0 -41 -32.5 -72t-82 -45.5t-93.5 -21t-82 -6.5q-75 0 -115 12q-18 -58 -18 -108q0 -85 47 -144t124 -59
q65 0 115 29t99 81zM447 451q0 66 -87 66q-78 0 -137.5 -53t-79.5 -130q49 -14 90 -14q36 0 69.5 5.5t68 18.5t55.5 40.5t21 66.5zM445 751l88 -169h-36l-82 104l-135 -104h-41l158 169h48z" />
    <glyph glyph-name="edieresis" unicode="&#xeb;" horiz-adv-x="556" 
d="M499 113l15 -17q-53 -56 -108.5 -83.5t-126.5 -27.5q-107 0 -181 63.5t-74 153.5q0 88 50.5 165.5t131 122.5t168.5 45q25 0 49.5 -3.5t52 -12t44.5 -27.5t17 -45q0 -41 -32.5 -72t-82 -45.5t-93.5 -21t-82 -6.5q-75 0 -115 12q-18 -58 -18 -108q0 -85 47 -144t124 -59
q65 0 115 29t99 81zM447 451q0 66 -87 66q-78 0 -137.5 -53t-79.5 -130q49 -14 90 -14q36 0 69.5 5.5t68 18.5t55.5 40.5t21 66.5zM261 648q0 21 14.5 35.5t35.5 14.5t35.5 -14.5t14.5 -35.5q0 -20 -15 -35t-35 -15t-35 15t-15 35zM462 648q0 21 14.5 35.5t35.5 14.5
t35.5 -14.5t14.5 -35.5q0 -20 -15 -35t-35 -15t-35 15t-15 35z" />
    <glyph glyph-name="igrave" unicode="&#xec;" horiz-adv-x="259" 
d="M57 110l48 289q3 21 3 26q0 25 -7.5 35t-24.5 17q-7 3 -7 5q0 4 7 6l120 32l-57 -433q-3 -18 -3 -32q0 -6 1.5 -11t3 -9t5 -7.5l6 -6t6.5 -5.5t6 -4t5.5 -3t4.5 -2q8 -5 8 -7q0 -3 -9 -3q-2 0 -18 0.5t-37 1.5t-35 1q-17 0 -51.5 -1.5t-36.5 -1.5q-7 0 -7 4q0 3 5 6
q23 13 31.5 19.5t17.5 26.5t15 57zM210 582l-139 107q-20 12 -20 30q0 15 9 25.5t23 10.5q20 0 32 -15l126 -158h-31z" />
    <glyph glyph-name="iacute" unicode="&#xed;" horiz-adv-x="259" 
d="M57 110l48 289q3 21 3 26q0 25 -7.5 35t-24.5 17q-7 3 -7 5q0 4 7 6l120 32l-57 -433q-3 -18 -3 -32q0 -6 1.5 -11t3 -9t5 -7.5l6 -6t6.5 -5.5t6 -4t5.5 -3t4.5 -2q8 -5 8 -7q0 -3 -9 -3q-2 0 -18 0.5t-37 1.5t-35 1q-17 0 -51.5 -1.5t-36.5 -1.5q-7 0 -7 4q0 3 5 6
q23 13 31.5 19.5t17.5 26.5t15 57zM141 582h-34l137 135q2 2 7 7.5t7 7t6 5.5t6 5t6 3.5t7 3.5t7 1.5t8 0.5q13 0 22 -9t9 -20q0 -25 -31 -44z" />
    <glyph glyph-name="icircumflex" unicode="&#xee;" horiz-adv-x="259" 
d="M57 110l48 289q3 21 3 26q0 25 -7.5 35t-24.5 17q-7 3 -7 5q0 4 7 6l120 32l-57 -433q-3 -18 -3 -32q0 -6 1.5 -11t3 -9t5 -7.5l6 -6t6.5 -5.5t6 -4t5.5 -3t4.5 -2q8 -5 8 -7q0 -3 -9 -3q-2 0 -18 0.5t-37 1.5t-35 1q-17 0 -51.5 -1.5t-36.5 -1.5q-7 0 -7 4q0 3 5 6
q23 13 31.5 19.5t17.5 26.5t15 57zM221 751l88 -169h-36l-82 104l-135 -104h-41l158 169h48z" />
    <glyph glyph-name="idieresis" unicode="&#xef;" horiz-adv-x="259" 
d="M57 110l48 289q3 21 3 26q0 25 -7.5 35t-24.5 17q-7 3 -7 5q0 4 7 6l120 32l-57 -433q-3 -18 -3 -32q0 -6 1.5 -11t3 -9t5 -7.5l6 -6t6.5 -5.5t6 -4t5.5 -3t4.5 -2q8 -5 8 -7q0 -3 -9 -3q-2 0 -18 0.5t-37 1.5t-35 1q-17 0 -51.5 -1.5t-36.5 -1.5q-7 0 -7 4q0 3 5 6
q23 13 31.5 19.5t17.5 26.5t15 57zM37 648q0 21 14.5 35.5t35.5 14.5t35.5 -14.5t14.5 -35.5q0 -20 -15 -35t-35 -15t-35 15t-15 35zM238 648q0 21 14.5 35.5t35.5 14.5t35.5 -14.5t14.5 -35.5q0 -20 -15 -35t-35 -15t-35 15t-15 35z" />
    <glyph glyph-name="eth" unicode="&#xf0;" horiz-adv-x="667" 
d="M367 517q-53 0 -96 -20t-71 -52t-47 -75.5t-27 -88t-8 -91.5q0 -87 41.5 -137t126.5 -50q53 0 96 20t71 52t47 75.5t27 88t8 91.5q0 87 -41.5 137t-126.5 50zM264 710l24 15q63 -23 123 -64l188 53l10 -29l-167 -46q81 -61 132 -139.5t51 -161.5q0 -159 -99 -256
t-240 -97q-101 0 -179.5 63.5t-78.5 164.5q0 138 100 230t239 92q59 0 109 -22l2 2q-39 61 -92 108l-192 -54l-7 30l170 47q-38 31 -93 64z" />
    <glyph glyph-name="ntilde" unicode="&#xf1;" 
d="M183 520l-29 -157h2q37 78 101.5 125t146.5 47q76 0 128.5 -40t50.5 -117q0 -30 -2 -45l-30 -245q-4 -30 -4 -37q0 -21 6.5 -29t23.5 -13q8 -3 8 -9q0 -3 -7 -3q-1 0 -17 0.5t-36 1.5t-33 1q-23 0 -40 -0.5t-25 -1.5t-9 -1q-10 0 -10 5t15 12q22 11 33 39.5t20 85.5
l24 153q6 44 6 71q0 74 -37 110t-102 36q-74 0 -136 -68t-76 -147l-37 -189q-3 -19 -3 -38q0 -27 7.5 -38.5t23.5 -19.5q8 -4 8 -7q0 -5 -10 -5q-2 0 -32.5 1.5t-48.5 1.5q-16 0 -35 -0.5t-32 -1.5t-15 -1q-6 0 -6 5q0 4 9 8q49 15 60 96l50 310l3 21q0 30 -36 43q-7 2 -7 7
q0 4 5 6zM277 608h-29q24 105 99 105q27 0 80 -21q52 -22 64 -22q24 0 36 10t20 34h29q-8 -42 -33 -73t-64 -31q-26 0 -78 22q-50 22 -72 22q-36 0 -52 -46z" />
    <glyph glyph-name="ograve" unicode="&#xf2;" horiz-adv-x="667" 
d="M367 517q-53 0 -96 -20t-71 -52t-47 -75.5t-27 -88t-8 -91.5q0 -87 41.5 -137t126.5 -50q53 0 96 20t71 52t47 75.5t27 88t8 91.5q0 87 -41.5 137t-126.5 50zM367 535q101 0 179.5 -63.5t78.5 -164.5q0 -138 -100 -230t-239 -92q-101 0 -179.5 63.5t-78.5 164.5
q0 138 100 230t239 92zM437 582l-139 107q-20 12 -20 30q0 15 9 25.5t23 10.5q20 0 32 -15l126 -158h-31z" />
    <glyph glyph-name="oacute" unicode="&#xf3;" horiz-adv-x="667" 
d="M367 517q-53 0 -96 -20t-71 -52t-47 -75.5t-27 -88t-8 -91.5q0 -87 41.5 -137t126.5 -50q53 0 96 20t71 52t47 75.5t27 88t8 91.5q0 87 -41.5 137t-126.5 50zM367 535q101 0 179.5 -63.5t78.5 -164.5q0 -138 -100 -230t-239 -92q-101 0 -179.5 63.5t-78.5 164.5
q0 138 100 230t239 92zM368 582h-34l137 135q2 2 7 7.5t7 7t6 5.5t6 5t6 3.5t7 3.5t7 1.5t8 0.5q13 0 22 -9t9 -20q0 -25 -31 -44z" />
    <glyph glyph-name="ocircumflex" unicode="&#xf4;" horiz-adv-x="667" 
d="M367 517q-53 0 -96 -20t-71 -52t-47 -75.5t-27 -88t-8 -91.5q0 -87 41.5 -137t126.5 -50q53 0 96 20t71 52t47 75.5t27 88t8 91.5q0 87 -41.5 137t-126.5 50zM367 535q101 0 179.5 -63.5t78.5 -164.5q0 -138 -100 -230t-239 -92q-101 0 -179.5 63.5t-78.5 164.5
q0 138 100 230t239 92zM448 751l88 -169h-36l-82 104l-135 -104h-41l158 169h48z" />
    <glyph glyph-name="otilde" unicode="&#xf5;" horiz-adv-x="667" 
d="M367 517q-53 0 -96 -20t-71 -52t-47 -75.5t-27 -88t-8 -91.5q0 -87 41.5 -137t126.5 -50q53 0 96 20t71 52t47 75.5t27 88t8 91.5q0 87 -41.5 137t-126.5 50zM367 535q101 0 179.5 -63.5t78.5 -164.5q0 -138 -100 -230t-239 -92q-101 0 -179.5 63.5t-78.5 164.5
q0 138 100 230t239 92zM286 608h-29q24 105 99 105q28 0 80 -21q52 -22 64 -22q24 0 36 10t20 34h29q-8 -42 -33 -73t-64 -31q-26 0 -78 22q-50 22 -72 22q-36 0 -52 -46z" />
    <glyph glyph-name="odieresis" unicode="&#xf6;" horiz-adv-x="667" 
d="M367 517q-53 0 -96 -20t-71 -52t-47 -75.5t-27 -88t-8 -91.5q0 -87 41.5 -137t126.5 -50q53 0 96 20t71 52t47 75.5t27 88t8 91.5q0 87 -41.5 137t-126.5 50zM367 535q101 0 179.5 -63.5t78.5 -164.5q0 -138 -100 -230t-239 -92q-101 0 -179.5 63.5t-78.5 164.5
q0 138 100 230t239 92zM264 648q0 21 14.5 35.5t35.5 14.5t35.5 -14.5t14.5 -35.5q0 -20 -15 -35t-35 -15t-35 15t-15 35zM465 648q0 21 14.5 35.5t35.5 14.5t35.5 -14.5t14.5 -35.5q0 -20 -15 -35t-35 -15t-35 15t-15 35z" />
    <glyph glyph-name="divide" unicode="&#xf7;" horiz-adv-x="600" 
d="M559 231h-518v58h518v-58zM240 460q0 25 18 42.5t42 17.5t42 -18t18 -42q0 -23 -18 -41.5t-42 -18.5t-42 18t-18 42zM240 60q0 25 18 42.5t42 17.5t42 -18t18 -42q0 -23 -18 -41.5t-42 -18.5t-42 18t-18 42z" />
    <glyph glyph-name="oslash" unicode="&#xf8;" horiz-adv-x="667" 
d="M139 85l361 372q-43 60 -133 60q-53 0 -96 -20t-71 -52t-47 -75.5t-27 -88t-8 -91.5q0 -63 21 -105zM602 563h48l-96 -99q71 -64 71 -157q0 -138 -100 -230t-239 -92q-85 0 -152 45l-77 -80h-49l97 100q-77 65 -77 163q0 138 100 230t239 92q90 0 160 -50zM517 426
l-359 -371q44 -52 128 -52q53 0 96 20t71 52t47 75.5t27 88t8 91.5q0 59 -18 96z" />
    <glyph glyph-name="ugrave" unicode="&#xf9;" 
d="M525 506l79 14l-41 -225q-22 -121 -22 -216q0 -49 23 -66q9 -7 9 -8q0 -5 -7 -5h-92q-11 67 -5 178h-2q-43 -93 -102.5 -143t-153.5 -50q-76 0 -121 42t-45 121q0 31 12 97l31 160q6 28 6 35q0 28 -29 42q-8 3 -8 8t13 8l118 22l-61 -328q-5 -32 -5 -55q0 -54 35 -90
t90 -36q40 0 74.5 17.5t60 50t44.5 67t33.5 80.5t22.5 77t16 70zM428 582l-139 107q-20 12 -20 30q0 15 9 25.5t23 10.5q20 0 32 -15l126 -158h-31z" />
    <glyph glyph-name="uacute" unicode="&#xfa;" 
d="M525 506l79 14l-41 -225q-22 -121 -22 -216q0 -49 23 -66q9 -7 9 -8q0 -5 -7 -5h-92q-11 67 -5 178h-2q-43 -93 -102.5 -143t-153.5 -50q-76 0 -121 42t-45 121q0 31 12 97l31 160q6 28 6 35q0 28 -29 42q-8 3 -8 8t13 8l118 22l-61 -328q-5 -32 -5 -55q0 -54 35 -90
t90 -36q40 0 74.5 17.5t60 50t44.5 67t33.5 80.5t22.5 77t16 70zM359 582h-34l137 135q2 2 7 7.5t7 7t6 5.5t6 5t6 3.5t7 3.5t7 1.5t8 0.5q13 0 22 -9t9 -20q0 -25 -31 -44z" />
    <glyph glyph-name="ucircumflex" unicode="&#xfb;" 
d="M525 506l79 14l-41 -225q-22 -121 -22 -216q0 -49 23 -66q9 -7 9 -8q0 -5 -7 -5h-92q-11 67 -5 178h-2q-43 -93 -102.5 -143t-153.5 -50q-76 0 -121 42t-45 121q0 31 12 97l31 160q6 28 6 35q0 28 -29 42q-8 3 -8 8t13 8l118 22l-61 -328q-5 -32 -5 -55q0 -54 35 -90
t90 -36q40 0 74.5 17.5t60 50t44.5 67t33.5 80.5t22.5 77t16 70zM439 751l88 -169h-36l-82 104l-135 -104h-41l158 169h48z" />
    <glyph glyph-name="udieresis" unicode="&#xfc;" 
d="M525 506l79 14l-41 -225q-22 -121 -22 -216q0 -49 23 -66q9 -7 9 -8q0 -5 -7 -5h-92q-11 67 -5 178h-2q-43 -93 -102.5 -143t-153.5 -50q-76 0 -121 42t-45 121q0 31 12 97l31 160q6 28 6 35q0 28 -29 42q-8 3 -8 8t13 8l118 22l-61 -328q-5 -32 -5 -55q0 -54 35 -90
t90 -36q40 0 74.5 17.5t60 50t44.5 67t33.5 80.5t22.5 77t16 70zM255 648q0 21 14.5 35.5t35.5 14.5t35.5 -14.5t14.5 -35.5q0 -20 -15 -35t-35 -15t-35 15t-15 35zM456 648q0 21 14.5 35.5t35.5 14.5t35.5 -14.5t14.5 -35.5q0 -20 -15 -35t-35 -15t-35 15t-15 35z" />
    <glyph glyph-name="yacute" unicode="&#xfd;" 
d="M537 508l80 12l-45 -182q-17 -75 -34 -207q0 -4 -2.5 -25t-4 -29.5t-5.5 -30t-8 -34t-11.5 -32.5t-16.5 -34t-22.5 -31t-29.5 -31q-29 -25 -54 -41t-79.5 -30.5t-126.5 -14.5q-86 0 -176 26l33 75q6 10 9 10t5 -4q49 -81 173 -81q62 0 110.5 32t77 85.5t44 109.5
t22.5 118h-2q-84 -184 -244 -184q-73 0 -129 42.5t-56 111.5q0 45 29 169t29 140t-6.5 24.5t-21.5 18.5q-6 3 -6 6q0 2 6 4l121 19l-62 -329q-9 -48 -9 -55q0 -58 38 -91.5t96 -33.5q50 0 92 29t70 77.5t46.5 100t29.5 108.5zM359 582h-34l137 135q2 2 7 7.5t7 7t6 5.5t6 5
t6 3.5t7 3.5t7 1.5t8 0.5q13 0 22 -9t9 -20q0 -25 -31 -44z" />
    <glyph glyph-name="thorn" unicode="&#xfe;" horiz-adv-x="667" 
d="M109 13l-18 -109q-4 -26 -4 -46q0 -23 12.5 -32.5t36.5 -12.5q12 -1 12 -5q0 -6 -6 -6q-17 0 -50.5 2t-50.5 2q-15 0 -47 -2t-48 -2q-10 0 -10 6q0 3 11 6q29 9 41.5 30.5t24.5 96.5l111 656q3 23 3 41q0 21 -7 30t-24 12q-10 2 -10 9q0 6 7 6l122 30l-62 -359h5
q46 81 99 125t135 44q102 0 166 -66.5t64 -169.5q0 -94 -54.5 -167.5t-136.5 -110t-174 -36.5q-70 0 -148 28zM138 233l-24 -168q13 -26 57.5 -44t89.5 -18q66 0 119 30t85.5 79.5t49.5 109t17 121.5q0 74 -39 124t-110 50q-42 0 -79.5 -19.5t-64.5 -50.5t-49 -69.5
t-34.5 -75t-17.5 -69.5z" />
    <glyph glyph-name="ydieresis" unicode="&#xff;" 
d="M537 508l80 12l-45 -182q-17 -75 -34 -207q0 -4 -2.5 -25t-4 -29.5t-5.5 -30t-8 -34t-11.5 -32.5t-16.5 -34t-22.5 -31t-29.5 -31q-29 -25 -54 -41t-79.5 -30.5t-126.5 -14.5q-86 0 -176 26l33 75q6 10 9 10t5 -4q49 -81 173 -81q62 0 110.5 32t77 85.5t44 109.5
t22.5 118h-2q-84 -184 -244 -184q-73 0 -129 42.5t-56 111.5q0 45 29 169t29 140t-6.5 24.5t-21.5 18.5q-6 3 -6 6q0 2 6 4l121 19l-62 -329q-9 -48 -9 -55q0 -58 38 -91.5t96 -33.5q50 0 92 29t70 77.5t46.5 100t29.5 108.5zM255 648q0 21 14.5 35.5t35.5 14.5t35.5 -14.5
t14.5 -35.5q0 -20 -15 -35t-35 -15t-35 15t-15 35zM456 648q0 21 14.5 35.5t35.5 14.5t35.5 -14.5t14.5 -35.5q0 -20 -15 -35t-35 -15t-35 15t-15 35z" />
    <glyph glyph-name="dotlessi" unicode="&#x131;" horiz-adv-x="259" 
d="M57 110l48 289q3 21 3 26q0 25 -7.5 35t-24.5 17q-7 3 -7 5q0 4 7 6l120 32l-57 -433q-3 -18 -3 -32q0 -6 1.5 -11t3 -9t5 -7.5l6 -6t6.5 -5.5t6 -4t5.5 -3t4.5 -2q8 -5 8 -7q0 -3 -9 -3q-2 0 -18 0.5t-37 1.5t-35 1q-17 0 -51.5 -1.5t-36.5 -1.5q-7 0 -7 4q0 3 5 6
q23 13 31.5 19.5t17.5 26.5t15 57z" />
    <glyph glyph-name="Lslash" unicode="&#x141;" horiz-adv-x="667" 
d="M216 509l-22 -168l184 61l-4 -24l-183 -61l-20 -159q-9 -61 -9 -82q0 -29 25.5 -41.5t82.5 -12.5q95 0 187.5 21.5t139.5 68.5q20 18 25 18q4 0 4 -4l-6 -18l-52 -112q-52 0 -154.5 2t-155.5 2q-52 0 -149 -2t-117 -2q-13 0 -13 4t14 9q37 13 55.5 42t31.5 110l20 126
l-88 -29l4 24l88 29l32 196q10 47 10 75q0 33 -27 47q-18 8 -18 11q0 4 10 4q6 0 38 -2t43 -2q27 0 58.5 2t33.5 2q7 0 7 -3t-29 -16q-18 -10 -28.5 -35.5t-17.5 -80.5z" />
    <glyph glyph-name="lslash" unicode="&#x142;" horiz-adv-x="259" 
d="M103 398l35 208q3 15 3 26q0 26 -7 36.5t-23 17.5q-9 4 -9 7q0 4 3 4l121 28l-41 -304l83 23l-6 -28l-81 -24l-41 -297q-3 -30 -3 -36q0 -35 32 -46q16 -5 16 -10q0 -6 -8 -6l-33 1q-34 2 -61 2q-19 0 -39.5 -0.5t-34.5 -1.5t-15 -1q-7 0 -7 6q0 3 9 8q27 12 38.5 27.5
t17.5 52.5l46 277l-84 -24l6 30z" />
    <glyph glyph-name="OE" unicode="&#x152;" horiz-adv-x="1000" 
d="M491 128l53 370q9 65 9 73q0 38 -24.5 48t-122.5 10q-76 0 -132.5 -35.5t-87 -95t-45 -126t-14.5 -139.5q0 -222 184 -222q58 0 89.5 4t51 19t26.5 34.5t13 59.5zM636 618l-35 -266h111q61 0 104 13t63 52q6 8 7 8q5 0 5 -8q0 -2 -0.5 -5t-0.5 -5l-23 -141q-3 -15 -6 -15
q-5 0 -8 10q-12 38 -40.5 53.5t-106.5 15.5h-108l-19 -186q-6 -54 -6 -60q0 -37 13.5 -49.5t57.5 -12.5q222 0 304 100q16 19 20 19t4 -3q0 -4 -1 -5l-62 -133h-291q-55 0 -165 -5q-88 -6 -137 -6q-139 0 -209.5 81t-70.5 199q0 76 22.5 143t66 121.5t116 86t165.5 31.5
q29 0 144 -5q92 -6 142 -6h270l13 -107q0 -1 0.5 -4t0.5 -5q0 -3 -4 -3q-2 0 -14 15q-69 82 -162 82h-160z" />
    <glyph glyph-name="oe" unicode="&#x153;" horiz-adv-x="1000" 
d="M329 517q-80 0 -135 -52t-77.5 -123.5t-22.5 -151.5q0 -86 39 -136.5t115 -50.5q53 0 96 20t71 52t47 75.5t27 88t8 91.5q0 87 -41.5 137t-126.5 50zM953 112l20 -16q-107 -111 -251 -111q-72 0 -135 35t-78 88q-46 -58 -115 -90.5t-146 -32.5q-92 0 -168 64t-76 164
q0 134 102.5 228t222.5 94q75 0 138.5 -34.5t97.5 -96.5q36 51 116.5 91t135.5 40q170 0 170 -89q0 -69 -86.5 -106.5t-210.5 -37.5q-76 0 -99 10q-18 -38 -18 -100q0 -33 10 -67.5t30.5 -67.5t56.5 -53.5t83 -20.5q50 0 108.5 33t91.5 76zM816 517q-68 2 -129 -55.5
t-88 -127.5q49 -14 90 -14q36 0 68.5 5.5t66 18.5t53.5 40.5t20 66.5q0 66 -81 66z" />
    <glyph glyph-name="Scaron" unicode="&#x160;" 
d="M-33 42l47 109q3 8 6 8q2 0 4 -10q16 -80 77 -113.5t169 -33.5q96 0 165 46t69 124q0 41 -26 64.5t-56.5 31.5t-108.5 20q-8 2 -12.5 2.5t-11 1.5t-12.5 2q-42 7 -68.5 13t-60 18t-53 27.5t-33 41t-13.5 58.5q0 30 18.5 64t56 67.5t107 55t158.5 21.5q53 0 123.5 -16
t111.5 -40l-36 -80q-10 -20 -12 -20q-1 0 -6 28q-6 35 -45 60.5t-80.5 35.5t-75.5 10q-39 0 -74.5 -7t-70.5 -22.5t-56 -46t-21 -72.5q0 -43 36 -70.5t68 -35t108 -19.5q11 -2 16 -3q42 -6 68 -11.5t59.5 -16.5t53 -25.5t33 -38.5t13.5 -56q0 -61 -36 -108.5t-91.5 -73.5
t-113 -39t-110.5 -13q-123 0 -284 62zM417 688h-46l-96 169h37l90 -105l143 105h36z" />
    <glyph glyph-name="scaron" unicode="&#x161;" horiz-adv-x="556" 
d="M520 499l-33 -83q-4 -11 -7 -11q-1 0 -4 5q-26 56 -63 81.5t-98 25.5q-64 0 -121 -30t-57 -88q0 -24 10.5 -42t24 -28t40.5 -17t44.5 -9.5t52.5 -6.5h3t3 -0.5t3 -0.5q34 -4 54.5 -7t47.5 -11.5t42 -20.5t26 -33.5t11 -50.5q0 -52 -30.5 -90.5t-78.5 -58.5t-96 -29
t-94 -9q-135 0 -223 52l37 85q4 9 8 9q7 0 9 -23q6 -49 63.5 -77t124.5 -28q33 0 67 7.5t66 22.5t52.5 43t20.5 64q0 24 -11 39.5t-39.5 25t-46.5 12.5t-62 9q-15 2 -22 3q-41 5 -67.5 11.5t-55.5 20.5t-43.5 38.5t-14.5 60.5q0 49 26 85.5t69 54.5t86.5 26.5t88.5 8.5
q115 0 187 -36zM365 582h-46l-96 169h37l90 -105l143 105h36z" />
    <glyph glyph-name="Ydieresis" unicode="&#x178;" horiz-adv-x="685" 
d="M231 539l138 -224l191 197q18 19 25 27t16.5 25.5t9.5 33.5q0 31 -37 36q-9 2 -9 6t6 4q14 0 41 -2t40 -2q14 0 43 2t44 2q8 0 8 -4q0 -3 -15 -11q-26 -13 -76.5 -57.5t-82.5 -77.5l-195 -205l-25 -187q-5 -33 -5 -36q0 -15 8 -32t24 -24q16 -8 16 -11q0 -2 -10 -2
q-1 0 -14.5 0.5t-36 1.5t-44.5 1q-20 0 -40.5 -0.5t-34 -1.5t-15.5 -1q-7 0 -7 3q0 6 10 9q29 10 43 32t23 84l23 156l-142 238q-51 88 -97 111q-3 2 -6 3.5t-4.5 2t-3 1.5t-1.5 2q0 5 7 5q17 0 50 -2t49 -2q18 0 53 2t53 2q8 0 8 -5q0 -2 -10 -5q-40 -10 -40 -37
q0 -24 22 -58zM279 754q0 21 14.5 35.5t35.5 14.5t35.5 -14.5t14.5 -35.5q0 -20 -15 -35t-35 -15t-35 15t-15 35zM480 754q0 21 14.5 35.5t35.5 14.5t35.5 -14.5t14.5 -35.5q0 -20 -15 -35t-35 -15t-35 15t-15 35z" />
    <glyph glyph-name="Zcaron" unicode="&#x17d;" horiz-adv-x="630" 
d="M579 117l-61 -121q-46 0 -136.5 2t-136.5 2q-41 0 -126 -2t-128 -2q-9 0 -9 4q0 6 10 16l462 519q37 40 37 54q0 20 -29 24.5t-140 4.5q-87 0 -138 -24t-90 -65q-8 -10 -11 -10q-5 0 -5 4q0 5 8 21l46 100q41 0 123 -2t121 -2q44 0 131 2t132 2q8 0 8 -2q0 -1 -14 -17
l-417 -475q-62 -72 -61 -93q2 -20 23.5 -27.5t88.5 -7.5q213 0 300 103q8 10 14 10q3 0 3 -4t-5 -14zM408 688h-46l-96 169h37l90 -105l143 105h36z" />
    <glyph glyph-name="zcaron" unicode="&#x17e;" horiz-adv-x="556" 
d="M60 405l56 119q34 0 101.5 -2t100.5 -2q39 0 106 2t92 2q15 0 15 -15t-98 -117.5t-196 -209.5t-98 -132q0 -13 12.5 -20t22.5 -7.5t29 -0.5q202 0 296 97q9 9 11 9q5 0 5 -7q0 -1 -1 -3l-2.5 -5l-2.5 -5l-50 -112q-40 0 -118.5 2t-119.5 2q-35 0 -109 -2t-111 -2
q-6 0 -6 10q0 6 5 14l379 404q25 28 25 52q0 12 -12.5 17t-52.5 5q-93 0 -151.5 -20t-119.5 -76q-4 -4 -8 -4q-2 0 -2 2q0 3 2 5zM365 582h-46l-96 169h37l90 -105l143 105h36z" />
    <glyph glyph-name="florin" unicode="&#x192;" 
d="M394 448h93l-7 -30h-90l-50 -383q-14 -110 -90 -173.5t-194 -63.5l34 66q3 7 7 7q1 0 7 -6q29 -29 58 -29q16 0 29.5 8t23.5 24t17 32t12 39.5t8 39t6.5 38t4.5 28.5l46 373h-84l6 30h83q7 120 81.5 191t195.5 67l-37 -75q-15 13 -22 18t-20 10t-27 5q-23 0 -40 -18.5
t-26.5 -48.5t-14 -54t-6.5 -47z" />
    <glyph glyph-name="circumflex" unicode="&#x2c6;" horiz-adv-x="259" 
d="M244 751l88 -169h-36l-82 104l-135 -104h-41l158 169h48z" />
    <glyph glyph-name="caron" unicode="&#x2c7;" horiz-adv-x="259" 
d="M216 582h-46l-96 169h37l90 -105l143 105h36z" />
    <glyph glyph-name="uni02C9" unicode="&#x2c9;" horiz-adv-x="259" 
d="M365 674l-12 -51h-301l12 51h301z" />
    <glyph glyph-name="breve" unicode="&#x2d8;" horiz-adv-x="259" 
d="M71 742h29v-2q-1 -2 0 -2q1 -44 31.5 -70t76.5 -26q90 0 135 100h29q-17 -71 -59 -115.5t-109 -44.5q-75 0 -104 41.5t-29 118.5z" />
    <glyph glyph-name="dotaccent" unicode="&#x2d9;" horiz-adv-x="259" 
d="M160 648q0 21 14.5 35.5t35.5 14.5t35.5 -14.5t14.5 -35.5q0 -20 -15 -35t-35 -15t-35 15t-15 35z" />
    <glyph glyph-name="ring" unicode="&#x2da;" horiz-adv-x="259" 
d="M184 577q-44 0 -75 31.5t-31 74.5t31 74.5t75 31.5t75 -31.5t31 -74.5t-31 -74.5t-75 -31.5zM184 748q-28 0 -46.5 -18t-18.5 -47t18.5 -47t46.5 -18t46.5 18t18.5 47t-18.5 47t-46.5 18z" />
    <glyph glyph-name="ogonek" unicode="&#x2db;" horiz-adv-x="259" 
d="M120 0h47q-6 -3 -28 -13.5t-34.5 -18t-29 -20.5t-24.5 -30t-8 -38q0 -23 14 -39.5t38 -16.5q36 0 70 21l20 -24q-51 -32 -112 -32q-104 0 -104 79q0 50 43 84t95 45z" />
    <glyph glyph-name="tilde" unicode="&#x2dc;" horiz-adv-x="259" 
d="M82 608h-29q24 105 99 105q28 0 80 -21q52 -22 64 -22q24 0 36 10t20 34h29q-8 -42 -33 -73t-64 -31q-26 0 -78 22q-50 22 -72 22q-36 0 -52 -46z" />
    <glyph glyph-name="hungarumlaut" unicode="&#x2dd;" horiz-adv-x="259" 
d="M229 582h-42l148 147q22 25 45 25q13 0 22.5 -8.5t9.5 -25.5t-35 -43zM108 582h-42l108 147q20 25 45 25q13 0 22.5 -8.5t9.5 -25.5q0 -16 -33 -43z" />
    <glyph glyph-name="uni03A9" unicode="&#x3a9;" horiz-adv-x="848" 
d="M775 135l-54 -135h-269l-3 21q2 2 21 19.5t26.5 25t27 26.5t30 32t27.5 34t27.5 39.5t22.5 41t19.5 46.5t11.5 48q10 75 1 126.5t-39 83t-67.5 45.5t-84.5 14q-104 0 -181 -68.5t-102 -206.5q-4 -23 -5 -44.5t3 -43t6.5 -37.5t12 -37.5t13.5 -31.5t18 -32t17 -27.5
t19 -28t17 -23.5l-11 -22h-268l-4 135l24 1q10 -47 24.5 -61.5t49.5 -14.5h123q-33 25 -53.5 44.5t-47 54.5t-35.5 79t0 96q24 133 133 215t254 82q149 0 227 -77t54 -209q-7 -44 -30.5 -85.5t-60.5 -78.5t-69 -63t-77 -58h128q37 0 54 13t45 63z" />
    <glyph glyph-name="uni03BC" unicode="&#x3bc;" 
d="M188 520l-61 -328q-5 -32 -5 -55q0 -54 35 -90t90 -36q40 0 74.5 17.5t60 50t44.5 67t33.5 80.5t22.5 77t16 70l27 133l79 14l-41 -225q-22 -121 -22 -216q0 -49 23 -66q9 -7 9 -8q0 -5 -7 -5h-92q-11 67 -5 178h-2q-43 -93 -102.5 -143t-153.5 -50q-65 0 -108 32
l-33 -218q-11 0 -32.5 1.5t-32.5 1.5t-34.5 -1.5t-26.5 -1.5q-8 0 -8 5q0 4 9 8q48 28 59 97l84 496q6 28 6 35q0 28 -29 42q-8 3 -8 8t13 8z" />
    <glyph glyph-name="pi" unicode="&#x3c0;" horiz-adv-x="621" 
d="M589 447l21 -10q-23 -58 -54 -85q-24 -4 -77 -4q-16 -58 -43 -224q-15 -83 34 -83q25 0 60 30l9 -20q-48 -62 -121 -62q-45 0 -64 25.5t-8 89.5q18 97 55 246q-72 1 -186 1l-3 -18q-16 -93 -45 -171.5t-50 -113.5t-32 -43q-38 -13 -61 -16l-3 16q61 54 102 156.5
t57 191.5q-34 0 -62.5 -7.5t-44 -16t-42.5 -25.5l-11 20q50 49 76 64q49 28 118 28q24 0 84.5 -1.5t116.5 -2t102 -0.5q23 0 38.5 7t33.5 28z" />
    <glyph glyph-name="uni2010" unicode="&#x2010;" horiz-adv-x="259" 
d="M9 289h241l-10 -58h-241z" />
    <glyph glyph-name="endash" unicode="&#x2013;" horiz-adv-x="500" 
d="M-3 283h500l-8 -46h-500z" />
    <glyph glyph-name="emdash" unicode="&#x2014;" horiz-adv-x="1000" 
d="M989 237h-1000l8 46h1000z" />
    <glyph glyph-name="quoteleft" unicode="&#x2018;" horiz-adv-x="148" 
d="M148 501q0 -21 -15 -35.5t-37 -14.5q-49 0 -49 57q0 41 40.5 96.5t62.5 55.5q6 0 6 -3t-3 -8q-57 -54 -60 -101q55 0 55 -47z" />
    <glyph glyph-name="quoteright" unicode="&#x2019;" horiz-adv-x="148" 
d="M75 610q0 21 15 35.5t37 14.5q49 0 49 -57q0 -41 -40.5 -96.5t-62.5 -55.5q-6 0 -6 3q0 4 3 8q57 54 60 101q-55 0 -55 47z" />
    <glyph glyph-name="quotesinglbase" unicode="&#x201a;" horiz-adv-x="148" 
d="M-10 34q0 21 15 35.5t37 14.5q49 0 49 -57q0 -41 -40.5 -96.5t-62.5 -55.5q-6 0 -6 3q0 4 3 8q57 54 60 101q-55 0 -55 47z" />
    <glyph glyph-name="quotedblleft" unicode="&#x201c;" horiz-adv-x="315" 
d="M153 501q0 -21 -15 -35.5t-37 -14.5q-49 0 -49 57q0 41 40.5 96.5t62.5 55.5q6 0 6 -3t-3 -8q-57 -54 -60 -101q55 0 55 -47zM301 501q0 -21 -15 -35.5t-37 -14.5q-49 0 -49 57q0 41 40.5 96.5t62.5 55.5q6 0 6 -3t-3 -8q-57 -54 -60 -101q55 0 55 -47z" />
    <glyph glyph-name="quotedblright" unicode="&#x201d;" horiz-adv-x="315" 
d="M233 610q0 21 15 35.5t37 14.5q49 0 49 -57q0 -41 -40.5 -96.5t-62.5 -55.5q-6 0 -6 3q0 4 3 8q57 54 60 101q-55 0 -55 47zM85 610q0 21 15 35.5t37 14.5q49 0 49 -57q0 -41 -40.5 -96.5t-62.5 -55.5q-6 0 -6 3q0 4 3 8q57 54 60 101q-55 0 -55 47z" />
    <glyph glyph-name="quotedblbase" unicode="&#x201e;" horiz-adv-x="315" 
d="M138 34q0 21 15 35.5t37 14.5q49 0 49 -57q0 -41 -40.5 -96.5t-62.5 -55.5q-6 0 -6 3q0 4 3 8q57 54 60 101q-55 0 -55 47zM-10 34q0 21 15 35.5t37 14.5q49 0 49 -57q0 -41 -40.5 -96.5t-62.5 -55.5q-6 0 -6 3q0 4 3 8q57 54 60 101q-55 0 -55 47z" />
    <glyph glyph-name="dagger" unicode="&#x2020;" horiz-adv-x="556" 
d="M314 367l-75 -502q-6 0 -17.5 2t-16.5 2t-16 -2t-16 -2l83 502h-23q-28 0 -84.5 -2t-85.5 -2q8 43 8 48q28 0 84 -3.5t84 -3.5h24l36 240q5 0 14.5 -2t15.5 -2q5 0 15 2t16 2l-39 -240h23q28 0 84.5 2t85.5 2q-8 -43 -8 -48q-28 0 -84 3.5t-84 3.5h-24z" />
    <glyph glyph-name="daggerdbl" unicode="&#x2021;" horiz-adv-x="556" 
d="M217 141l38 233h-23q-28 0 -84.5 -2t-85.5 -2q8 43 8 48q28 0 84 -3.5t84 -3.5h24l36 233q5 0 15 -2t15 -2q6 0 17 2t16 2l-39 -233h23q28 0 84.5 2t85.5 2q-8 -43 -8 -48q-28 0 -84 3.5t-84 3.5h-24l-37 -233h23q28 0 84.5 2t85.5 2q-8 -43 -8 -48q-28 0 -84 3.5
t-84 3.5h-24l-38 -239q-5 0 -16 2t-17 2q-5 0 -15.5 -2t-15.5 -2l41 239h-23q-28 0 -84.5 -2t-85.5 -2q8 43 8 48q28 0 84 -3.5t84 -3.5h24z" />
    <glyph glyph-name="bullet" unicode="&#x2022;" horiz-adv-x="500" 
d="M250 480q69 0 115 -45.5t45 -114.5q1 -69 -45 -114.5t-115 -45.5t-115 45.5t-45 114.5q-1 69 45 114.5t115 45.5z" />
    <glyph glyph-name="ellipsis" unicode="&#x2026;" horiz-adv-x="1000" 
d="M165 40q0 -21 -15.5 -38t-36.5 -17q-19 0 -31 12t-12 32q0 21 15.5 38t36.5 17q19 0 31 -12t12 -32zM498 40q0 -21 -15.5 -38t-36.5 -17q-19 0 -31 12t-12 32q0 21 15.5 38t36.5 17q19 0 31 -12t12 -32zM831 40q0 -21 -15.5 -38t-36.5 -17q-19 0 -31 12t-12 32
q0 21 15.5 38t36.5 17q19 0 31 -12t12 -32z" />
    <glyph glyph-name="perthousand" unicode="&#x2030;" horiz-adv-x="1000" 
d="M503 630h44l-384 -645h-44zM75 395q0 -41 18 -70.5t57 -29.5q33 0 55.5 23.5t31.5 62t12.5 69t3.5 62.5q0 41 -18 70.5t-57 29.5q-33 0 -55.5 -23.5t-31.5 -62t-12.5 -69t-3.5 -62.5zM414 103q0 -41 18 -70.5t57 -29.5q33 0 55.5 23.5t31.5 62t12.5 69t3.5 62.5
q0 41 -18 70.5t-57 29.5q-33 0 -55.5 -23.5t-31.5 -62t-12.5 -69t-3.5 -62.5zM21 425q0 79 44 142t119 63q59 0 91 -43.5t32 -104.5q0 -79 -44 -142t-119 -63q-59 0 -91 43.5t-32 104.5zM360 133q0 79 44 142t119 63q59 0 91 -43.5t32 -104.5q0 -79 -44 -142t-119 -63
q-59 0 -91 43.5t-32 104.5zM748 103q0 -41 18 -70.5t57 -29.5q33 0 55.5 23.5t31.5 62t12.5 69t3.5 62.5q0 41 -18 70.5t-57 29.5q-33 0 -55.5 -23.5t-31.5 -62t-12.5 -69t-3.5 -62.5zM694 133q0 79 44 142t119 63q59 0 91 -43.5t32 -104.5q0 -79 -44 -142t-119 -63
q-59 0 -91 43.5t-32 104.5z" />
    <glyph glyph-name="guilsinglleft" unicode="&#x2039;" horiz-adv-x="389" 
d="M148 271l87 -185q-25 -4 -50 -22q-14 43 -49 121t-39 88q18 20 52 57t61 68t50 59q12 -20 36 -39z" />
    <glyph glyph-name="guilsinglright" unicode="&#x203a;" horiz-adv-x="389" 
d="M231 250l-87 185q25 4 50 22q14 -43 49 -121t39 -88q-18 -20 -52 -57t-61 -68t-50 -59q-12 20 -36 39z" />
    <glyph glyph-name="fraction" unicode="&#x2044;" horiz-adv-x="167" 
d="M-167 -15l452 645h49l-451 -645h-50z" />
    <glyph glyph-name="Euro" unicode="&#x20ac;" 
d="M47 391h68q38 107 133 173t186 66q136 0 218 -85l-27 -69q-5 -11 -9 -11q-2 0 -3.5 4t-5 15.5t-7.5 22.5q-19 50 -68.5 77.5t-97.5 27.5q-89 0 -144.5 -59.5t-80.5 -161.5h360l-23 -42h-345q-7 -37 -10 -83h310l-22 -42h-289q0 -102 45 -161.5t125 -59.5q68 0 126 39.5
t87 100.5q5 11 8 11q4 0 7 -19l3 -62q-92 -88 -225 -88q-108 0 -179 63.5t-86 175.5h-99l23 42h72v15q0 37 7 68h-79z" />
    <glyph glyph-name="afii61289" unicode="&#x2113;" horiz-adv-x="439" 
d="M364 113l15 -17q-86 -109 -198 -109q-67 0 -98 36q-33 41 -15 137l11 65l-79 -48l-7 23l92 59l20 114q21 119 40.5 170t60.5 85q45 40 98 40q47 0 64.5 -37.5t8.5 -86.5q-13 -74 -66.5 -139.5t-146.5 -135.5l-13 -73q-16 -88 4.5 -124t70.5 -36q69 0 138 77zM193 433
l-22 -124q131 118 151 232q7 38 -1.5 67.5t-34.5 29.5q-33 0 -53.5 -48t-39.5 -157z" />
    <glyph glyph-name="trademark" unicode="&#x2122;" horiz-adv-x="990" 
d="M239 622v-310q0 -40 5.5 -46.5t44.5 -11.5v-18h-156v18q39 5 44.5 11.5t5.5 46.5v310h-52q-51 0 -69 -70h-18v88h334v-88h-18q-18 70 -69 70h-52zM673 233l-155 315h-2v-231q0 -32 11 -45.5t42 -17.5v-18h-130v18q31 4 42 17.5t11 45.5v256q-8 22 -27.5 35.5t-40.5 13.5
v18h109l161 -322l167 322h93v-18q-58 -3 -58 -59v-251q0 -40 5.5 -46.5t44.5 -11.5v-18h-155v18q39 5 44 11t5 47v239h-2l-156 -318h-9z" />
    <glyph glyph-name="Omega" unicode="&#x2126;" horiz-adv-x="848" 
d="M775 135l-54 -135h-269l-3 21q2 2 21 19.5t26.5 25t27 26.5t30 32t27.5 34t27.5 39.5t22.5 41t19.5 46.5t11.5 48q10 75 1 126.5t-39 83t-67.5 45.5t-84.5 14q-104 0 -181 -68.5t-102 -206.5q-4 -23 -5 -44.5t3 -43t6.5 -37.5t12 -37.5t13.5 -31.5t18 -32t17 -27.5
t19 -28t17 -23.5l-11 -22h-268l-4 135l24 1q10 -47 24.5 -61.5t49.5 -14.5h123q-33 25 -53.5 44.5t-47 54.5t-35.5 79t0 96q24 133 133 215t254 82q149 0 227 -77t54 -209q-7 -44 -30.5 -85.5t-60.5 -78.5t-69 -63t-77 -58h128q37 0 54 13t45 63z" />
    <glyph glyph-name="estimated" unicode="&#x212e;" horiz-adv-x="830" 
d="M800 298h-579q-5 0 -5 -4v-175q0 -10 8 -20q92 -95 219 -95q138 0 231 106h51q-49 -57 -123.5 -90.5t-159.5 -33.5q-148 0 -252.5 94t-104.5 227t104.5 227.5t252.5 94.5t253 -94t105 -228v-9zM669 321v176q0 12 -9 21q-93 91 -217 91q-126 0 -218 -94q-9 -9 -9 -22v-172
q0 -6 5 -6h444q4 0 4 6z" />
    <glyph glyph-name="partialdiff" unicode="&#x2202;" horiz-adv-x="585" 
d="M300 402h1q44 0 86 -20.5t61 -56.5q18 65 23 93q15 82 -5 150q-11 37 -46.5 66.5t-78.5 29.5q-77 0 -168 -63q-14 -2 -24 19.5t1 39.5q84 42 167 42q144 0 203 -129q39 -84 17 -207q-24 -140 -95 -238q-105 -142 -249 -142q-92 0 -138.5 54t-31.5 142q17 91 91 153
q80 67 186 67zM319 364h-1q-80 0 -138 -54q-56 -55 -74 -153q-11 -60 14 -99.5t79 -39.5q83 0 149 91q30 40 48 78.5t38 98.5q-10 26 -41.5 52t-73.5 26z" />
    <glyph glyph-name="uni2206" unicode="&#x2206;" horiz-adv-x="704" 
d="M607 0h-623l4 22l392 597l44 11l187 -608zM509 43l-146 499l-317 -499h463z" />
    <glyph glyph-name="product" unicode="&#x220f;" horiz-adv-x="806" 
d="M775 629v-24q-69 -4 -83 -13t-14 -44v-531q0 -43 14.5 -53.5t81.5 -14.5v-25h-276v25q69 4 83 13.5t14 55.5v548q0 21 -7 26t-30 5h-257q-22 0 -28 -4.5t-6 -21.5v-553q0 -45 12 -55t75 -14v-25h-266v25q66 5 80.5 15t14.5 54v530q0 36 -14.5 44.5t-83.5 12.5v24h690z
" />
    <glyph glyph-name="summation" unicode="&#x2211;" horiz-adv-x="667" 
d="M641 106l-47 -185h-510v24l243 321l-236 339v24h501q0 -6 2.5 -32.5t6 -64t5.5 -64.5l-25 -6q-15 78 -39 110q-11 15 -31.5 21t-77.5 6h-233l201 -292l-240 -319h303q40 0 57 1.5t35.5 16t28.5 36.5t30 72z" />
    <glyph glyph-name="minus" unicode="&#x2212;" horiz-adv-x="600" 
d="M559 231h-518v58h518v-58z" />
    <glyph glyph-name="uni2215" unicode="&#x2215;" horiz-adv-x="167" 
d="M-167 -15l452 645h49l-451 -645h-50z" />
    <glyph glyph-name="uni2219" unicode="&#x2219;" horiz-adv-x="324" 
d="M212 260q0 -21 -14.5 -35.5t-35.5 -14.5t-35.5 14.5t-14.5 35.5t14.5 35.5t35.5 14.5t35.5 -14.5t14.5 -35.5z" />
    <glyph glyph-name="radical" unicode="&#x221a;" horiz-adv-x="639" 
d="M623 809l-173 -930l-21 -13l-239 507l-92 -48l-12 30l158 82l195 -426h1l146 809z" />
    <glyph glyph-name="infinity" unicode="&#x221e;" horiz-adv-x="795" 
d="M745 257v-1q0 -71 -46 -115t-108 -44q-45 0 -88 28.5t-97 90.5q-33 -38 -55.5 -59.5t-58.5 -40.5t-74 -19q-62 0 -106.5 45t-44.5 111q0 69 45.5 114t113.5 45q51 0 94.5 -31.5t90.5 -87.5q25 28 32 35.5t30.5 29.5t38 30t38.5 16t48 8q65 -1 106 -43.5t41 -111.5z
M224 147h2q13 0 25 3t26 11.5t22 13t23 19.5t19 18t21 22l16 18q-53 64 -79 84q-39 28 -80 28q-45 0 -72 -32.5t-27 -79.5q0 -44 29 -74.5t75 -30.5zM592 364h-1q-19 0 -37 -7t-36.5 -22t-29 -24.5t-29 -30.5t-21.5 -24q52 -59 86 -84t70 -25q44 0 71 32.5t27 73.5
q0 51 -28 81t-72 30z" />
    <glyph glyph-name="integral" unicode="&#x222b;" horiz-adv-x="435" 
d="M222 22l-19 371q-19 385 147 385q21 0 39.5 -11t19.5 -30q0 -19 -11 -29.5t-28 -10.5q-16 0 -29 22.5t-24 22.5q-12 0 -22.5 -12t-18 -51.5t-4.5 -101.5l18 -361q6 -121 -3.5 -204.5t-33 -125t-50 -58t-61.5 -16.5q-26 0 -42.5 13t-16.5 31q-1 16 13.5 28.5t33.5 12.5
q13 0 25 -23.5t22 -23.5q25 0 37.5 47.5t7.5 124.5z" />
    <glyph glyph-name="approxequal" unicode="&#x2248;" horiz-adv-x="614" 
d="M532 401l34 -34q-58 -90 -138 -90q-8 0 -16.5 1t-15 2t-15.5 4l-13.5 4.5t-15.5 6.5t-15 7l-17 8.5t-18 8.5q-62 32 -98 32q-33 0 -57.5 -18.5t-51.5 -53.5l-34 33q25 42 64.5 66.5t84.5 24.5q12 0 24.5 -2t21 -4t20.5 -7.5t17.5 -8t18 -9.5t15.5 -8t12.5 -6.5t11.5 -6.5
l10 -5t11 -5t10 -4t11 -3.5t10.5 -2t12 -2t12.5 -0.5q57 0 104 72zM532 229l34 -34q-58 -90 -139 -90q-7 0 -13.5 0.5t-11.5 1t-12.5 3t-11.5 3t-12 4t-11 4.5t-12.5 6t-12.5 6t-14 7t-14 7q-62 32 -97 32q-34 0 -59 -19t-51 -54l-34 34q25 42 65 66.5t84 24.5q10 0 20 -1
t20 -4t17 -5t17 -7t14.5 -7t15 -8t12.5 -7q6 -3 19 -10t19.5 -10t18 -7.5t22 -6t22.5 -1.5q32 0 56 16.5t49 55.5z" />
    <glyph glyph-name="notequal" unicode="&#x2260;" horiz-adv-x="629" 
d="M458 473l-47 -97h166v-52h-190l-69 -144h259v-51h-283l-58 -122l-43 21l48 101h-158v51h182l69 144h-251v52h275l57 118z" />
    <glyph glyph-name="lessequal" unicode="&#x2264;" horiz-adv-x="643" 
d="M589 84l-486 218v55l486 217v-59l-426 -184v-2l426 -186v-59zM591 -6h-494v52h494v-52z" />
    <glyph glyph-name="greaterequal" unicode="&#x2265;" horiz-adv-x="643" 
d="M103 574l486 -217v-55l-486 -218v59l426 186v2l-426 184v59zM589 -6h-491v52h491v-52z" />
    <glyph glyph-name="lozenge" unicode="&#x25ca;" horiz-adv-x="656" 
d="M608 298l-224 -371h-57l-223 371l224 375h56zM546 298l-188 319h-3l-189 -318l189 -319h3z" />
    <glyph glyph-name="fi" unicode="&#xfb01;" horiz-adv-x="556" 
d="M280 471h-89l-53 -385q-21 -153 -88.5 -220.5t-157.5 -67.5h-13q-23 0 -23 9q0 4 3 10l20 47q7 17 13 17q4 0 9 -10q12 -22 23.5 -30.5t32.5 -8.5q39 0 60.5 56t46.5 219l55 364h-89l9 26h83l10 54q14 73 84 123.5t147 50.5q22 0 22 -5q0 -6 -4 -13l-26 -47
q-5 -10 -9 -10q-1 0 -2.5 1.5t-3 4t-2.5 3.5q-21 25 -53 25q-27 0 -47 -25t-28 -51t-11 -52l-7 -59h96zM354 110l48 289q3 21 3 26q0 25 -7.5 35t-24.5 17q-7 3 -7 5q0 4 7 6l120 32l-57 -433q-3 -18 -3 -32q0 -6 1.5 -11t3 -9t5 -7.5l6 -6t6.5 -5.5t6 -4t5.5 -3t4.5 -2
q8 -5 8 -7q0 -3 -9 -3q-2 0 -18 0.5t-37 1.5t-35 1q-16 0 -51 -1.5t-37 -1.5q-7 0 -7 4q0 3 5 6q23 13 31.5 19.5t17.5 26.5t15 57zM419 642q0 20 17 34t38 14q18 0 29 -12t11 -30q0 -20 -17 -34t-38 -14q-18 0 -29 12t-11 30z" />
    <glyph glyph-name="fl" unicode="&#xfb02;" horiz-adv-x="556" 
d="M280 471h-89l-53 -385q-21 -153 -88.5 -220.5t-157.5 -67.5h-13q-23 0 -23 9q0 4 3 10l20 47q7 17 13 17q4 0 9 -10q12 -22 23.5 -30.5t32.5 -8.5q39 0 60.5 56t46.5 219l55 364h-89l9 26h83l10 54q14 73 84 123.5t147 50.5q22 0 22 -5q0 -6 -4 -13l-26 -47
q-5 -10 -9 -10q-1 0 -2.5 1.5t-3 4t-2.5 3.5q-21 25 -53 25q-27 0 -47 -25t-28 -51t-11 -52l-7 -59h96zM349 91l86 515q3 15 3 26q0 26 -7 36.5t-23 17.5q-9 4 -9 7q0 4 3 4l121 28l-86 -630q-3 -30 -3 -36q0 -35 32 -46q16 -5 16 -10q0 -6 -8 -6q-3 0 -17.5 0.5t-35.5 1.5
t-41 1q-19 0 -39.5 -0.5t-34.5 -1.5t-15 -1q-7 0 -7 6q0 3 9 8q27 12 38.5 27.5t17.5 52.5z" />
    <glyph glyph-name="one.superior" horiz-adv-x="388" 
d="M166 316l46 238l3 18q0 28 -38 28h-7q-4 0 -4 4q0 2 5 5l109 21l-43 -310q0 -3 -1 -8.5t-1.5 -10t-0.5 -7.5q0 -9 5 -18.5t13 -11.5q9 -4 9 -9t-8 -5q-1 0 -24 1t-36 1q-21 0 -40 -0.5t-28 -1t-11 -0.5q-4 0 -4 6t26 15q22 10 30 45z" />
    <glyph glyph-name="two.superior" horiz-adv-x="388" 
d="M66 302h214q27 1 72 35q3 3 4 3q2 0 2 -2q0 -4 -2 -7l-45 -79h-299q4 41 53.5 80t99.5 58q34 13 54 23t42 27t32 40.5t10 55.5q0 69 -84 69q-95 0 -127 -61q-3 -5 -4 -5q-3 0 -3 7l-6 52q63 32 147 32q61 0 106 -29.5t45 -83.5q0 -27 -14.5 -48.5t-42 -37.5t-51.5 -25.5
t-60 -21.5t-49 -17q-75 -31 -94 -65z" />
    <glyph glyph-name="three.superior" horiz-adv-x="388" 
d="M150 434l3 37q44 -7 55 -7q46 0 73 19.5t27 59.5q0 62 -88 62q-68 0 -126 -58q-1 -1 -2 -3t-2 -3.5t-2 -1.5q-1 2 -2 7l-5 53q65 31 143 31q36 0 69 -7t61 -28.5t28 -55.5q0 -37 -44 -61t-90 -27v-2q119 -22 119 -93q0 -42 -35.5 -69t-77.5 -35.5t-87 -8.5q-88 0 -172 39
l30 58q2 6 4 6q5 0 5 -6q6 -32 40.5 -52t86.5 -20q132 0 132 93q0 38 -24.5 58t-68.5 20q-9 0 -26 -2.5t-24 -2.5z" />
    <glyph glyph-name="a.superior" horiz-adv-x="378" 
d="M326 537l13 51q-24 17 -81 17q-87 0 -126.5 -55t-39.5 -140t64 -85q33 0 60 15t44 35.5t31.5 52t21 55.5t13.5 54zM396 606l-31 -124q-16 -63 -16 -126q0 -29 11 -39l5 -5q0 -3 -4 -3h-60q-4 6 -4 92h-2q-25 -48 -58.5 -74.5t-84.5 -26.5q-61 0 -96.5 35.5t-35.5 91.5
q0 91 74.5 147t174.5 56q60 0 127 -24z" />
    <glyph glyph-name="o.superior" horiz-adv-x="400" 
d="M190 325q148 0 148 182q0 50 -21 74t-74 24q-56 0 -91 -28t-46.5 -66t-11.5 -88t21.5 -74t74.5 -24zM243 630q66 0 116.5 -38.5t50.5 -98.5q0 -83 -65 -138t-155 -55q-66 0 -117 38.5t-51 98.5q0 83 65 138t156 55z" />
    </font>
</defs>
</svg>
