<?xml version="1.0" standalone="no"?>
<!DOCTYPE svg PUBLIC "-//W3C//DTD SVG 1.1//EN" "http://www.w3.org/Graphics/SVG/1.1/DTD/svg11.dtd" >
<svg xmlns="http://www.w3.org/2000/svg" xmlns:xlink="http://www.w3.org/1999/xlink" version="1.1">
<metadata>
Created by FontForge 20170731 at Thu Aug 16 17:55:45 2007
 By Aleksey,,,
(c) 1988, 1995, 1999, 2002 Adobe Systems Incorporated. All rights reserved.
</metadata>
<defs>
<font id="AmericanaStd-Bold" horiz-adv-x="648" >
  <font-face 
    font-family="Americana Std"
    font-weight="700"
    font-stretch="normal"
    units-per-em="1000"
    panose-1="2 2 7 7 7 5 6 2 9 4"
    ascent="725"
    descent="-275"
    x-height="520"
    cap-height="644"
    bbox="-167 -250 1000 894"
    underline-thickness="50"
    underline-position="-200"
    unicode-range="U+0020-FB02"
  />
<missing-glyph horiz-adv-x="500" 
d="M0 0v700h500v-700h-500zM250 395l170 255h-340zM280 350l170 -255v510zM80 50h340l-170 255zM50 605v-510l170 255z" />
    <glyph glyph-name="f_i" unicode="fi" horiz-adv-x="611" 
d="M306 495l-9 -32h-89v-337q0 -54 8.5 -77t43.5 -42q10 0 10 -4q0 -3 -14 -3h-199q-14 0 -14 3l14 6q31 12 39.5 37.5t8.5 79.5v337h-87l13 32h74v32q0 198 265 198l-28 -73q-6 -19 -10 -19q-6 0 -12 8q-29 48 -62 48q-29 0 -39.5 -18.5t-10.5 -57.5v-118h98zM421 126v291
q0 7 -0.5 13.5t-1.5 11.5t-2.5 9.5t-3 7.5t-4 6t-4 4.5t-5 4t-4.5 3l-5 2.5t-5 3q-2 1 -6.5 2t-7.5 2t-3 2t18 4q64 12 137 32v-398q0 -54 10 -82.5t42 -34.5q10 -2 10 -9q0 -3 -14 -3q-3 0 -17 0.5t-36.5 1.5t-46.5 1t-46.5 -0.5t-36.5 -1.5t-17 -1q-14 0 -14 3q0 7 10 9
q32 6 42.5 34.5t10.5 82.5zM464 589q-24 0 -41.5 17.5t-17.5 41.5t17.5 42t41.5 18q25 0 42.5 -18t17.5 -42t-17.5 -41.5t-42.5 -17.5z" />
    <glyph glyph-name="f_l" unicode="fl" horiz-adv-x="611" 
d="M306 495l-9 -32h-89v-337q0 -54 8.5 -77t43.5 -42q10 0 10 -4q0 -3 -14 -3h-199q-14 0 -14 3l14 6q31 12 39.5 37.5t8.5 79.5v337h-87l13 32h74v32q0 198 265 198l-28 -73q-6 -19 -10 -19q-6 0 -12 8q-29 48 -62 48q-29 0 -39.5 -18.5t-10.5 -57.5v-118h98zM524 725v-599
q0 -37 2.5 -56t15.5 -37t39 -27q6 -3 6 -6t-9 -3l-12 1q-11 0 -36 1t-58 1q-24 0 -48 -0.5t-39 -1.5t-17 -1q-10 0 -10 3t6 6q38 16 47.5 41t9.5 79v478q0 37 -7.5 53.5t-26.5 20.5q-15 2 -15 8q0 5 15 7q64 12 137 32z" />
    <glyph glyph-name=".notdef" horiz-adv-x="500" 
d="M0 0v700h500v-700h-500zM250 395l170 255h-340zM280 350l170 -255v510zM80 50h340l-170 255zM50 605v-510l170 255z" />
    <glyph glyph-name=".null" horiz-adv-x="0" 
 />
    <glyph glyph-name="nonmarkingreturn" horiz-adv-x="333" 
 />
    <glyph glyph-name="space" unicode=" " horiz-adv-x="324" 
 />
    <glyph glyph-name="exclam" unicode="!" horiz-adv-x="278" 
d="M150 149h-22q0 93 -28 219q-17 77 -17 153q0 139 56 139t56 -139q0 -76 -17 -153q-28 -126 -28 -219zM139 105q24 0 42 -18t18 -42t-18 -42t-42 -18t-42 18t-18 42t18 42t42 18z" />
    <glyph glyph-name="quotedbl" unicode="&#x22;" horiz-adv-x="333" 
d="M272 579l-17 -204q-4 -31 -17 -31q-12 0 -16 31l-17 204q-6 81 33 81q40 0 34 -81zM128 579l-17 -204q-4 -31 -16 -31q-13 0 -17 31l-17 204q-6 81 34 81q39 0 33 -81z" />
    <glyph glyph-name="numbersign" unicode="#" 
d="M204 197h-109l6 44h109l19 133h-108l6 44h108l27 197h57l-28 -197h112l27 197h57l-28 -197h93l-6 -44h-93l-19 -133h92l-6 -44h-92l-27 -197h-57l28 197h-111l-28 -197h-57zM397 374h-112l-18 -133h111z" />
    <glyph glyph-name="dollar" unicode="$" 
d="M321 600v92h36v-92q95 0 186 -41l-22 -78q-8 -26 -15 -26q-6 0 -8 11q-11 51 -59.5 82t-101.5 31q-49 0 -86 -32t-37 -81q0 -52 43 -76.5t116 -34.5q199 -26 199 -149q0 -79 -67.5 -132.5t-147.5 -53.5v-94h-36v94q-118 0 -245 55l30 91q8 24 12 24q2 0 6 -20
q10 -48 65 -88.5t125 -40.5q60 0 107.5 33.5t47.5 91.5q0 35 -24 57t-54.5 30t-77.5 13q-95 15 -148.5 51t-53.5 110q0 77 65.5 125t144.5 48z" />
    <glyph glyph-name="percent" unicode="%" horiz-adv-x="667" 
d="M171 -15h-52l378 645h52zM88 453q0 -80 14.5 -118.5t55.5 -38.5t55.5 38.5t14.5 118.5t-14.5 118.5t-55.5 38.5t-55.5 -38.5t-14.5 -118.5zM438 162q0 -80 14.5 -118.5t55.5 -38.5t55.5 38.5t14.5 118.5t-14.5 118.5t-55.5 38.5t-55.5 -38.5t-14.5 -118.5zM16 453
q0 69 39 123t104 54q64 0 103 -54.5t38 -122.5q1 -68 -38 -122.5t-103 -54.5q-65 0 -104 54t-39 123zM366 162q0 69 39 123t104 54q64 0 103 -54.5t38 -122.5q1 -68 -38 -122.5t-103 -54.5q-65 0 -104 54t-39 123z" />
    <glyph glyph-name="ampersand" unicode="&#x26;" horiz-adv-x="722" 
d="M231 300q-33 -25 -48 -46.5t-15 -57.5q0 -90 48.5 -133t129.5 -43q76 0 123 47q-35 21 -115 101.5t-123 131.5zM389 479q0 48 -21.5 79.5t-67.5 31.5q-36 0 -55.5 -20.5t-19.5 -56.5q0 -79 79 -158q42 24 62 51.5t23 72.5zM557 0l-66 47q-57 -36 -109 -51.5t-118 -15.5
q-82 0 -145 38.5t-63 111.5q0 41 16.5 74.5t40 53t47 32t41.5 19.5t19 9q-6 6 -15.5 17t-25.5 48.5t-16 78.5q0 64 47.5 108.5t119.5 44.5q65 0 104 -28.5t43 -86.5q0 -58 -48.5 -102t-111.5 -60q32 -39 102 -106t103 -88q21 34 21 69q0 43 -20 64t-65 32q-6 2 -6 5
q0 5 46 5h136q-5 -72 -19 -111.5t-57 -92.5q2 -1 19 -16t23.5 -20.5t23.5 -18.5t28 -19.5t26 -14t28 -11.5q22 -5 22 -10t-3 -5h-168z" />
    <glyph glyph-name="quotesingle" unicode="'" horiz-adv-x="222" 
d="M144 579l-17 -204q-4 -31 -17 -31q-12 0 -16 31l-17 204q-6 81 33 81q40 0 34 -81z" />
    <glyph glyph-name="parenleft" unicode="(" horiz-adv-x="278" 
d="M209 660h24q-58 -85 -78 -182.5t-25 -232.5q-5 -258 110 -433h-27q-83 108 -129 212.5t-46 220.5q0 184 171 415z" />
    <glyph glyph-name="parenright" unicode=")" horiz-adv-x="278" 
d="M45 660h24q171 -231 171 -415q0 -116 -46 -220.5t-129 -212.5h-27q115 175 110 433q-5 135 -25 232.5t-78 182.5z" />
    <glyph glyph-name="asterisk" unicode="*" horiz-adv-x="444" 
d="M166 640h115q-43 -66 -40 -162q10 1 20.5 4t19 6.5t19.5 9.5t17.5 10t18.5 12.5t16 12t17 14t16 12.5l30 -102q-87 9 -166 -17q56 -75 130 -96l-90 -75q-17 83 -68 149q-51 -66 -68 -149l-90 75q74 21 130 96q-78 26 -165 17l30 102q3 -2 16 -12.5t17 -14t16 -12
t18.5 -12.5t17.5 -10t19.5 -9.5t19 -6.5t20.5 -4q1 77 -36 162z" />
    <glyph glyph-name="plus" unicode="+" horiz-adv-x="600" 
d="M270 290v230h60v-230h230v-60h-230v-230h-60v230h-230v60h230z" />
    <glyph glyph-name="comma" unicode="," horiz-adv-x="324" 
d="M133 -144l-14 10q49 48 54 119q-31 -2 -51 14t-20 46q0 24 16.5 42t41.5 18q31 0 46.5 -21t15.5 -54q0 -89 -89 -174z" />
    <glyph glyph-name="hyphen" unicode="-" horiz-adv-x="259" 
d="M2 220l19 80h236l-18 -80h-237z" />
    <glyph glyph-name="period" unicode="." horiz-adv-x="324" 
d="M162 105q24 0 42 -18t18 -42t-18 -42t-42 -18t-42 18t-18 42t18 42t42 18z" />
    <glyph glyph-name="slash" unicode="/" horiz-adv-x="278" 
d="M239 660h61l-261 -680h-61z" />
    <glyph glyph-name="zero" unicode="0" 
d="M143 308q0 -31 1.5 -57t6 -58.5t12 -58t21 -51t32 -42t46.5 -27t62 -10.5q40 0 70.5 13t49.5 37.5t32 52.5t19 65.5t8 67.5t2 67q0 31 -1.5 57t-6 58.5t-12 58t-21 51t-32 42t-46.5 27t-62 10.5q-40 0 -70.5 -13t-49.5 -37.5t-32 -52.5t-19 -65.5t-8 -67.5t-2 -67z
M18 307q0 132 87.5 227.5t218.5 95.5t218.5 -95.5t87.5 -227.5t-87.5 -227t-218.5 -95t-218.5 95t-87.5 227z" />
    <glyph glyph-name="one" unicode="1" 
d="M271 132v365q0 40 -14 56.5t-52 22.5q-8 2 -8 5t6 5q101 23 174 44v-498q0 -24 2 -40.5t8 -36.5t20.5 -32t36.5 -16q19 -3 19 -7t-20 -4q-2 0 -13.5 1t-38 2t-67.5 1q-39 0 -66.5 -1t-39 -2t-13.5 -1q-20 0 -20 4t19 7q22 4 36.5 16t20.5 32t8 36.5t2 40.5z" />
    <glyph glyph-name="two" unicode="2" 
d="M569 128l-44 -128h-476q0 122 234 248q149 80 149 200q0 73 -41.5 114.5t-116.5 41.5q-59 0 -105 -34t-63 -90q-6 -19 -10 -19q-5 0 -10 20l-26 98q118 51 212 51q52 0 98.5 -9.5t90.5 -30.5t70 -61.5t26 -95.5q0 -26 -7.5 -49t-17 -40t-29 -32.5t-34 -25t-42 -21
t-42 -16.5t-45 -15t-41.5 -14q-78 -27 -116 -64t-38 -70h270q103 0 146 66q6 8 10 8q5 0 5 -6q0 -5 -7 -26z" />
    <glyph glyph-name="three" unicode="3" 
d="M208 309v42q18 -7 58 -7q170 0 170 135q0 63 -43 97.5t-107 34.5q-55 0 -106.5 -36t-63.5 -84q-8 -31 -11 -31q-4 0 -11 29l-23 86q104 55 218 55q272 0 272 -155q0 -126 -232 -142v-2q43 0 85.5 -8.5t84 -27t67 -53t25.5 -80.5q0 -52 -29.5 -89t-77.5 -55t-93.5 -25.5
t-93.5 -7.5q-164 0 -273 62l30 88q12 32 16 32q5 0 6 -10q9 -63 68 -108t124 -45q85 0 141.5 39.5t56.5 120.5q0 77 -56.5 116t-137.5 39q-35 0 -64 -10z" />
    <glyph glyph-name="four" unicode="4" 
d="M340 154h-328q5 38 37 72l346 369q31 35 40 35h2q9 0 9 -28v-400q114 3 166 79q4 7 8 7q5 0 5 -10q0 -5 -6 -21l-37 -110q-50 7 -136 7v-22q0 -24 2 -40.5t8 -36.5t20.5 -32t36.5 -16q19 -3 19 -7t-20 -4q-17 0 -50 2t-69 2q-40 0 -67 -1t-38.5 -2t-13.5 -1q-15 0 -15 4
t14 7q22 4 36.5 16t20.5 32t8 36.5t2 40.5v22zM340 505l-265 -303h265v303z" />
    <glyph glyph-name="five" unicode="5" 
d="M79 295l25 320h393q38 0 57 17q3 5 7 5q3 0 3 -4q0 -5 -4 -13l-30 -91h-350q-35 0 -49.5 -20t-17.5 -66l-8 -114q110 36 197 36q33 0 67 -3.5t78 -15t76.5 -30.5t55.5 -53.5t23 -80.5t-20.5 -81.5t-52 -57t-74 -35t-82.5 -18.5t-81 -5q-66 0 -140 17.5t-127 47.5l32 97
q8 21 10 21q4 0 5 -7q14 -70 78.5 -113.5t138.5 -43.5q80 0 134 43t54 122q0 82 -55.5 126.5t-139.5 44.5q-99 0 -203 -45z" />
    <glyph glyph-name="six" unicode="6" 
d="M332 4q81 0 120.5 50.5t39.5 137.5t-39.5 137.5t-120.5 50.5t-120.5 -50.5t-39.5 -137.5t39.5 -137.5t120.5 -50.5zM595 568l-32 -95q-5 -15 -11 -15q-5 0 -12 23q-38 130 -179 130q-62 0 -105.5 -32t-63.5 -85t-27.5 -103.5t-6.5 -105.5h2q65 120 188 120
q114 0 191.5 -54.5t77.5 -155.5q0 -88 -74 -149t-195 -61q-69 0 -124 20t-89 51t-56.5 72.5t-31.5 82t-9 81.5q0 53 18.5 109t54.5 108.5t100.5 86.5t146.5 34q51 0 99 -11t71 -20.5t67 -30.5z" />
    <glyph glyph-name="seven" unicode="7" 
d="M541 529h-302q-31 0 -44.5 -0.5t-31 -0.5t-24.5 -2.5t-15.5 -3.5t-14.5 -7.5t-11 -10t-16 -15.5t-18 -19q-3 -5 -7 -5q-3 0 -3 3q0 1 6 17l46 130h521q1 -65 -129 -195q-149 -149 -149 -366l3 -54h-148q0 34 5.5 65.5t12 55t23 52t26 44t34.5 43.5t34 37.5t39.5 39.5
t38.5 38q5 5 33.5 32.5t40 39.5t27.5 36t23 46z" />
    <glyph glyph-name="eight" unicode="8" 
d="M339 277l-49 16q-20 0 -53.5 -15.5t-64.5 -49t-31 -72.5q0 -76 57 -114t137 -38q67 0 119.5 35.5t52.5 99.5q0 15 -3 28.5t-10.5 24.5t-13.5 19.5t-20 16.5t-21 13t-25 11.5t-24.5 8.5t-26.5 8.5t-24 7.5zM322 377l33 -5q41 -6 74.5 34.5t33.5 87.5q0 58 -44.5 87.5
t-103.5 29.5q-50 0 -90 -29t-40 -78q0 -51 41.5 -85t95.5 -42zM391 352v-1q5 -1 28 -8t31 -9t29 -9.5t30 -12l27 -13.5t26 -17l20 -20t17.5 -24t9.5 -28t4 -34q0 -53 -29 -92.5t-75.5 -59.5t-94.5 -29.5t-96 -9.5q-42 0 -87 8t-91 25.5t-75.5 52t-29.5 80.5q0 130 204 153
q-37 14 -59.5 24.5t-49 29.5t-39 46t-12.5 62q0 56 41.5 95t94 54t107.5 15q39 0 78 -6.5t79 -21t65 -45t25 -71.5q0 -42 -30 -72.5t-67.5 -43.5t-80.5 -18z" />
    <glyph glyph-name="nine" unicode="9" 
d="M311 611q-76 0 -116 -55.5t-40 -141.5q0 -97 41.5 -151.5t108.5 -54.5q78 0 124 58.5t46 151.5q0 88 -44 140.5t-120 52.5zM50 45l31 98q6 25 10 25q5 0 7 -22q6 -54 63.5 -98t124.5 -44q50 0 88.5 22t59.5 54t34 74t16.5 77.5t1.5 68.5h-2q-20 -47 -70 -82t-125 -35
q-102 0 -180.5 64t-78.5 159q0 94 79.5 159t189.5 65q69 0 124 -20t89 -51t56.5 -72.5t31.5 -82t9 -81.5q0 -42 -9 -85.5t-32.5 -90t-58.5 -81.5t-92 -58t-128 -23q-129 0 -239 60z" />
    <glyph glyph-name="colon" unicode=":" horiz-adv-x="324" 
d="M162 470q24 0 42 -18t18 -42t-18 -42t-42 -18t-42 18t-18 42t18 42t42 18zM162 105q24 0 42 -18t18 -42t-18 -42t-42 -18t-42 18t-18 42t18 42t42 18z" />
    <glyph glyph-name="semicolon" unicode=";" horiz-adv-x="324" 
d="M133 -144l-14 10q49 48 54 119q-31 -2 -51 14t-20 46q0 24 16.5 42t41.5 18q31 0 46.5 -21t15.5 -54q0 -89 -89 -174zM162 470q24 0 42 -18t18 -42t-18 -42t-42 -18t-42 18t-18 42t18 42t42 18z" />
    <glyph glyph-name="less" unicode="&#x3c;" horiz-adv-x="600" 
d="M554 61v-62l-508 232v58l508 232v-62l-436 -199z" />
    <glyph glyph-name="equal" unicode="=" horiz-adv-x="600" 
d="M560 388v-60h-520v60h520zM560 192v-60h-520v60h520z" />
    <glyph glyph-name="greater" unicode="&#x3e;" horiz-adv-x="600" 
d="M46 61l436 199l-436 199v62l508 -232v-58l-508 -232v62z" />
    <glyph glyph-name="question" unicode="?" horiz-adv-x="500" 
d="M236 149h-22q-4 48 14 85t59 89q29 36 50.5 83.5t21.5 86.5q0 67 -40.5 107.5t-108.5 40.5q-52 0 -98 -42t-62 -95q-2 -8 -5 -8q-4 0 -8 15l-27 98q40 22 99 36.5t109 14.5q106 0 179.5 -53.5t73.5 -119.5q0 -32 -9 -58t-28 -47.5t-35 -35t-44 -33.5q-31 -22 -44.5 -33
t-34.5 -32.5t-30 -45.5t-10 -53zM225 105q24 0 42 -18t18 -42t-18 -42t-42 -18t-42 18t-18 42t18 42t42 18z" />
    <glyph glyph-name="at" unicode="@" horiz-adv-x="800" 
d="M509 389q0 63 -42 63q-43 0 -89 -54.5t-46 -135.5q0 -42 17 -62.5t45 -20.5q35 0 70.5 57t44.5 153zM525 444l9 38h69l-64 -251q-1 -9 -2.5 -23t8 -27t29.5 -13q57 0 93 64.5t36 136.5q0 59 -32.5 117.5t-99.5 100.5t-153 42q-118 0 -197.5 -88.5t-79.5 -245.5
q0 -110 81 -193t205 -83q59 0 101 11.5t95 34.5l12 -29q-122 -56 -207 -56q-92 0 -165.5 32t-116.5 81.5t-65.5 104.5t-22.5 107q0 155 105.5 255t254.5 100q137 0 230.5 -83t93.5 -207q0 -53 -20.5 -105.5t-64 -91t-98.5 -38.5q-30 0 -51.5 15.5t-29.5 30.5t-7 23h-2
q-15 -19 -46 -41.5t-68 -26.5q-13 0 -26.5 3.5t-30.5 14.5t-27.5 38t-10.5 66q0 29 12.5 67t35 77t61.5 66t86 27q8 0 15.5 -1.5t13 -3t11 -6t8 -6t7 -8.5t5.5 -8t5.5 -9t4.5 -9z" />
    <glyph glyph-name="A" unicode="A" horiz-adv-x="778" 
d="M462 292h-238l-54 -105q-35 -68 -35 -114q0 -15 4 -26t13 -18.5t16.5 -11t20.5 -8.5q11 -3 11 -7q0 -5 -12 -5q-2 0 -15 0.5t-36 1.5t-47 1t-49.5 -1.5t-28.5 -1.5q-13 0 -13 5q0 2 2 4.5t4.5 4t6.5 4t6 3.5q27 22 61.5 71t54.5 87l245 476q5 8 7 8h2q4 0 8 -8l294 -550
q30 -55 67 -83q4 -3 10.5 -6.5t9.5 -6t3 -4.5q0 -5 -14 -5q-2 0 -18 0.5t-42 1.5t-52 1q-36 0 -64.5 -0.5t-42.5 -1.5l-14 -1q-10 0 -10 3q0 5 13 8q28 10 28 52q0 26 -45 114zM449 317l-107 208l-105 -208h212z" />
    <glyph glyph-name="B" unicode="B" horiz-adv-x="759" 
d="M206 333v-187q0 -77 12 -99t59 -22h140q171 0 171 156q0 42 -21.5 73.5t-55.5 47.5t-68 23.5t-66 7.5h-171zM206 615v-257h124q103 0 154.5 36t51.5 99q0 55 -43.5 88.5t-122.5 33.5h-164zM90 114v414q0 24 -1 37t-5 26.5t-12 21t-22 12.5q-16 7 -16 10q0 5 22 5h344
q41 0 82 -6.5t84 -21t69.5 -44.5t26.5 -71q0 -128 -215 -148v-2q45 -1 89.5 -10t88 -28.5t70.5 -55t27 -83.5q0 -42 -20.5 -74t-55.5 -51t-70.5 -29t-74.5 -14q-47 -6 -107 -6q-3 0 -65 2t-115 2h-132q-10 0 -25 -1t-22 -1q-27 0 -27 4t18 9q64 18 64 103z" />
    <glyph glyph-name="C" unicode="C" horiz-adv-x="759" 
d="M696 162l26 -91q-112 -91 -302 -91q-75 0 -142 21.5t-120.5 62t-84.5 107t-31 149.5q0 149 112.5 244.5t265.5 95.5q73 0 150.5 -19.5t136.5 -56.5l-31 -94q-11 -34 -14 -34q-4 0 -11 26q-36 149 -231 153q-53 0 -95 -18.5t-69.5 -49t-46 -72t-26 -85t-7.5 -90.5
q0 -59 15 -112.5t46.5 -100.5t88.5 -74.5t134 -27.5q149 0 216 154q1 3 2.5 6.5t2 6t1.5 4.5t2.5 3t2.5 1q4 0 9 -18z" />
    <glyph glyph-name="D" unicode="D" horiz-adv-x="796" 
d="M206 615v-511q0 -42 25.5 -60.5t92.5 -18.5q159 0 226.5 79t67.5 232q0 279 -262 279h-150zM404 0h-368q-23 0 -23 3t18 8q59 19 59 118v399q0 45 -8.5 64.5t-30.5 31.5q-17 8 -17 12t14 4h332q161 0 266.5 -88t105.5 -230q0 -55 -22 -110.5t-63.5 -103.5t-110 -78
t-152.5 -30z" />
    <glyph glyph-name="E" unicode="E" horiz-adv-x="722" 
d="M201 615v-265h185q54 0 97 22t54 53q3 9 8 9q4 0 4 -15v-165q0 -21 -4 -21q-2 0 -8 14q-10 26 -29.5 43t-47 24t-49.5 9t-55 2h-155v-211q0 -53 20 -71t73 -18h113q63 0 137.5 31t123.5 78q23 21 27 21q3 0 3 -3l-2 -8l-44 -144h-609q-30 0 -30 4q0 1 5.5 3.5t12.5 6
t10 5.5q27 21 35.5 50t8.5 98v340q0 56 -8 83.5t-36 34.5q-17 7 -17 9q0 6 19 6h565l27 -94q9 -30 9 -37q0 -8 -5 -8q-7 0 -12 9q-30 49 -98.5 77t-143.5 28h-184z" />
    <glyph glyph-name="F" unicode="F" horiz-adv-x="667" 
d="M207 615v-265h185q54 0 97 22t51 53q3 9 7 9q5 0 5 -13v-170q0 -10 -4 -10q-1 0 -11 18q-19 34 -67.5 50t-107.5 16h-155v-144q0 -156 52 -172q21 -7 21 -9q0 -3 -6 -3q-1 0 -20.5 0.5t-49.5 1.5t-55 1t-53 -0.5t-46 -1.5t-19 -1q-9 0 -9 3q0 2 15 9q31 16 42.5 42.5
t11.5 81.5v395q0 47 -6.5 69.5t-27.5 30.5q-16 5 -16 8q0 4 17 4h554l27 -94q1 -4 4 -13t5.5 -16t2.5 -8q0 -7 -3 -7t-13 12q-43 48 -108.5 74.5t-137.5 26.5h-182z" />
    <glyph glyph-name="G" unicode="G" horiz-adv-x="815" 
d="M718 234v-165q-50 -44 -130 -66.5t-170 -22.5q-72 0 -138 21.5t-120.5 62t-87 107t-32.5 149.5q0 149 112.5 244.5t265.5 95.5q190 0 314 -84l-35 -87q-1 -2 -3.5 -9t-5 -11.5t-3.5 -4.5q-2 0 -7 18q-15 73 -82.5 113t-151.5 40q-68 0 -121 -28t-85 -76t-48 -105.5
t-16 -121.5q0 -122 69.5 -210.5t174.5 -88.5q100 0 142 36.5t42 116.5v74q0 23 -5 37.5t-18.5 23t-26 12.5t-36.5 10q-27 6 -27 10t14 4l57 -2q56 -2 82 -2q23 0 70.5 2t51.5 2q20 0 20 -7q0 -3 -18 -8q-33 -10 -40.5 -25t-7.5 -55z" />
    <glyph glyph-name="H" unicode="H" horiz-adv-x="796" 
d="M207 350h381v202q0 71 -43 82q-10 4 -10 6q0 4 15 4q6 0 42 -2t54 -2t54 2t42 2q15 0 15 -4q0 -2 -10 -6q-43 -11 -43 -82v-444q0 -39 11 -61.5t43 -38.5q9 -4 9 -8q0 -3 -16 -3q-15 0 -44.5 1.5t-60.5 1.5t-60.5 -1.5t-44.5 -1.5q-16 0 -16 3q0 4 9 8q32 16 43 38.5
t11 61.5v217h-381v-217q0 -39 11 -61.5t43 -38.5q9 -4 9 -8q0 -3 -16 -3q-15 0 -44.5 1.5t-60.5 1.5t-60.5 -1.5t-44.5 -1.5q-16 0 -16 3q0 4 9 8q32 16 43 38.5t11 61.5v444q0 71 -43 82q-10 4 -10 6q0 4 15 4q6 0 42 -2t54 -2t54 2t42 2q15 0 15 -4q0 -2 -10 -6
q-43 -11 -43 -82v-202z" />
    <glyph glyph-name="I" unicode="I" horiz-adv-x="296" 
d="M90 108v444q-1 69 -39 78q-11 3 -11 6q0 8 12 8q2 0 19.5 -1t40 -2t36.5 -1t34 1t35 2t17 1q14 0 14 -8q0 -2 -2.5 -3.5t-7 -4t-6.5 -3.5q-26 -17 -26 -55v-462q0 -76 49 -98q14 -7 14 -8q0 -2 -11 -2h-223q-8 0 -8 2q0 1 16 8q27 14 37 36.5t10 61.5z" />
    <glyph glyph-name="J" unicode="J" horiz-adv-x="463" 
d="M4 3l32 93q6 17 11 17q4 0 8 -16q6 -37 32.5 -64.5t62.5 -27.5q105 0 105 166v351q0 53 -8.5 77.5t-34.5 30.5q-14 2 -14 7q0 7 19 7q6 0 42 -2t54 -2q19 0 54 2t38 2q11 0 11 -7q0 -1 -15 -9q-16 -7 -23 -21.5t-7 -54.5v-344q0 -91 -66 -159.5t-184 -68.5q-65 0 -117 23
z" />
    <glyph glyph-name="K" unicode="K" horiz-adv-x="704" 
d="M108 108v444q0 70 -31 81q-10 3 -10 6q0 5 14 5q1 0 15 -1t33.5 -2t34.5 -1q23 0 55 2l32 2q13 0 13 -4l-10 -5q-17 -8 -23.5 -26.5t-6.5 -56.5v-213l218 184q19 16 43 43t24 38q0 20 -15 27q-14 6 -14 9q0 4 9 4q2 0 16.5 -1t37 -2t44.5 -1q27 0 48.5 1t32 2t11.5 1
q6 0 6 -4q0 -2 -14 -7q-75 -29 -194 -123l-195 -156l2 -2q69 3 132.5 -20t93.5 -76q34 -60 88.5 -133.5t91.5 -100.5q3 -3 10.5 -7t11 -7t3.5 -6q0 -5 -13 -5q-2 0 -13 0.5t-28 1.5t-32 1q-23 0 -48 -1.5t-26 -1.5q-24 0 -31 9q-25 38 -67.5 110.5t-56.5 95.5
q-36 59 -63.5 86t-57.5 27q-33 0 -44 -19t-11 -54v-144q0 -39 11 -61.5t43 -38.5q9 -4 9 -8q0 -3 -16 -3q-15 0 -44.5 1.5t-60.5 1.5t-60.5 -1.5t-44.5 -1.5q-16 0 -16 3q0 4 9 8q32 16 43 38.5t11 61.5z" />
    <glyph glyph-name="L" unicode="L" horiz-adv-x="685" 
d="M210 552v-419q0 -70 26.5 -89t96.5 -19h53q66 0 142.5 32.5t120.5 83.5q3 4 7 9t6 8t4 5t4 2q6 0 6 -7q0 -2 -2 -7t-2 -7l-41 -144h-588q-22 0 -22 5q0 1 24 9q29 12 39 43.5t10 99.5v395q0 66 -43 80q-10 4 -10 8t15 4q6 0 42 -2t54 -2t54 2t42 2q12 0 12 -5q0 -1 -9 -6
q-41 -18 -41 -81z" />
    <glyph glyph-name="M" unicode="M" horiz-adv-x="870" 
d="M213 644l237 -494l221 494h157q14 0 14 -6q0 -4 -14 -8q-42 -9 -42 -89v-380q0 -29 1.5 -48t7 -44t19 -40t34.5 -19q16 -4 16 -8q0 -5 -16 -5q-1 0 -5.5 0.5t-13.5 0.5t-21.5 0.5t-33 1t-44.5 0.5q-34 0 -60 -0.5t-39 -1.5t-15 -1q-12 0 -12 5q0 2 16 7q18 5 29.5 20.5
t16.5 40t6.5 44t1.5 47.5v415h-2l-250 -544q-3 -10 -11 -25t-14 -15h-2q-3 0 -6.5 3t-6.5 8.5t-5 10t-4.5 11t-3.5 8.5l-247 543h-2v-379q0 -154 66 -181q21 -13 21 -15q0 -1 -13 -1h-173q-14 0 -14 3q0 1 14 9q38 21 56 74.5t18 110.5v330q0 36 -11 67.5t-36 36.5
q-7 1 -7 9q0 4 7 4h165z" />
    <glyph glyph-name="N" unicode="N" horiz-adv-x="759" 
d="M118 571v-393q0 -133 76 -168l12 -6q0 -4 -22 -4h-168q-9 0 -9 2q0 4 7 4q79 38 79 172v280q0 89 -11.5 122t-36.5 44q-18 8 -18 11q0 5 15 5h166l440 -449v239q0 81 -15.5 131t-62.5 70q-8 3 -8 8t13 5h164q10 0 10 -4t-17 -13q-59 -29 -59 -165v-469q0 -15 -5 -15h-2
q-3 0 -21 18z" />
    <glyph glyph-name="O" unicode="O" horiz-adv-x="833" 
d="M660 320q0 47 -7.5 90.5t-26 85t-46 72t-69.5 49t-95 18.5t-95 -18.5t-69.5 -49t-46 -72t-26 -85t-7.5 -90.5t7.5 -90.5t26 -85t46 -72t69.5 -49t95 -18.5t95 18.5t69.5 49t46 72t26 85t7.5 90.5zM794 320q0 -149 -112.5 -244.5t-265.5 -95.5t-265.5 95.5t-112.5 244.5
t112.5 244.5t265.5 95.5t265.5 -95.5t112.5 -244.5z" />
    <glyph glyph-name="P" unicode="P" horiz-adv-x="685" 
d="M206 304v-196q0 -40 11.5 -62t44.5 -35q4 -2 11 -4t11 -3t4 -2q0 -5 -8 -5q-2 0 -23.5 0.5t-52.5 1.5t-56 1q-42 0 -70.5 -0.5t-39.5 -1.5l-10 -1q-7 0 -7 4q0 1 2.5 2t6.5 2.5t6 2.5q33 16 43.5 43t10.5 90v387q0 41 -6.5 64t-32.5 36q-13 6 -13 7q0 5 10 5h328
q45 0 91.5 -7.5t95.5 -25t80 -52.5t31 -83t-35 -84t-91 -54t-112 -26.5t-111 -8.5q-71 0 -119 5zM206 615v-282q29 -9 101 -9q111 0 172 41.5t61 112.5q0 49 -33.5 81.5t-77 44t-95.5 11.5h-128z" />
    <glyph glyph-name="Q" unicode="Q" horiz-adv-x="833" 
d="M660 320q0 47 -7.5 90.5t-26 85t-46 72t-69.5 49t-95 18.5t-95 -18.5t-69.5 -49t-46 -72t-26 -85t-7.5 -90.5t7.5 -90.5t26 -85t46 -72t69.5 -49t95 -18.5t95 18.5t69.5 49t46 72t26 85t7.5 90.5zM759 -146l-134 -58l-152 84q-111 60 -148 60q-5 0 -10 -1t-9 -1.5t-9 -3
t-8.5 -4t-9 -5.5t-8.5 -5.5t-9.5 -6.5t-8.5 -7t-9.5 -8t-9.5 -8l-3 32q35 20 50.5 28t46 19t55.5 12v2q-143 10 -244 103t-101 234q0 149 112.5 244.5t265.5 95.5t265.5 -95.5t112.5 -244.5q0 -98 -52 -176t-135.5 -119.5t-179.5 -43.5v-2q48 -2 116 -29.5t122.5 -54
t70.5 -26.5q18 0 36 5q4 1 10 1q4 0 4 -5q0 -4 -27 -16z" />
    <glyph glyph-name="R" unicode="R" horiz-adv-x="759" 
d="M206 615v-263h181q77 0 120.5 40t43.5 95q0 58 -40 93t-117 35h-188zM206 327v-219q0 -76 49 -98q14 -7 14 -8q0 -2 -11 -2h-223q-8 0 -8 2q0 1 16 8q27 14 37 36.5t10 61.5v420q0 81 -40 95q-3 1 -6.5 2t-5.5 2t-4.5 2t-3.5 2t-1 3q0 6 19 6h374q263 0 263 -147
q0 -156 -269 -156v-2q189 -22 232 -152q52 -154 91 -168q17 -11 17 -13t-38 -2h-132l-48 131q-37 100 -53 126q-36 58 -113 65q-10 1 -20 1z" />
    <glyph glyph-name="S" unicode="S" horiz-adv-x="685" 
d="M606 617l-28 -96q-7 -21 -10 -21q-2 0 -5 6q-21 58 -73 93.5t-139 35.5q-187 0 -187 -119q0 -22 6 -39.5t14 -30t25.5 -22t30.5 -15t40.5 -10.5t44.5 -7.5t52 -6.5t55 -7q206 -28 206 -169q0 -63 -30 -109.5t-80 -71.5t-104 -36.5t-113 -11.5q-82 0 -140.5 13t-151.5 46
l32 119q6 22 11 22t7 -13q10 -70 84.5 -116t150.5 -46q41 0 76.5 6.5t70 21.5t55 45.5t20.5 73.5q0 23 -5.5 41t-19 30t-25 20t-34 14t-34.5 8t-39 6t-36 5q-34 4 -58.5 8t-61 12.5t-62 21.5t-50 31.5t-37 45.5t-12.5 61q0 47 18 84t47 59t69.5 36t80 19.5t83.5 5.5
q142 0 256 -43z" />
    <glyph glyph-name="T" unicode="T" horiz-adv-x="722" 
d="M303 152v417q0 28 -13.5 37t-48.5 9q-107 0 -211 -99q-17 -17 -18 -17q-5 0 -5 6q0 2 1 5t3 8.5t3 9.5l32 112h630l32 -112q1 -4 3 -9.5t3 -8.5t1 -5q0 -6 -5 -6q-1 0 -18 17q-104 99 -211 99q-35 0 -48.5 -9t-13.5 -37v-461q0 -86 60 -97q15 -2 15 -8t-8 -6
q-2 0 -21.5 0.5t-49 1.5t-54.5 1t-54 -0.5t-48 -1.5t-21 -1q-9 0 -9 5q0 2 2.5 3t7.5 2.5t9 2.5q34 15 44.5 43t10.5 99z" />
    <glyph glyph-name="U" unicode="U" horiz-adv-x="778" 
d="M210 552v-356q0 -91 59 -141t154 -50q124 0 181 59.5t57 188.5v209q0 133 -68 168q-13 6 -13 10t8 4q12 0 35.5 -2t48.5 -2t52.5 2t29.5 2q15 0 15 -4q0 -2 -15 -13q-67 -42 -68 -165v-208q0 -144 -68.5 -209t-214.5 -65q-50 0 -91 5t-83 19t-70.5 37t-46.5 62.5
t-18 91.5v357q0 71 -43 82q-10 4 -10 6q0 4 15 4q6 0 42 -2t54 -2t54 2t42 2q15 0 15 -4q0 -2 -10 -6q-43 -11 -43 -82z" />
    <glyph glyph-name="V" unicode="V" horiz-adv-x="778" 
d="M263 466l181 -327l153 314q38 83 38 120q0 36 -35 52q-2 1 -7 3t-9 3.5t-7 4t-3 4.5q0 4 13 4t38 -2t51 -2t46 2t24 2q22 0 22 -6t-17 -20q-26 -20 -59 -66t-54 -87l-228 -453q-16 -32 -23 -32h-2q-6 0 -26 37l-260 512q-3 7 -10.5 21.5t-10 19.5t-8.5 15t-10 14.5
t-10.5 11t-14 11t-16.5 8.5q-10 5 -10 8q0 6 17 6q6 0 34 -2t64 -2q31 0 61.5 2t47.5 2q12 0 12 -4q0 -7 -17 -9q-14 -3 -21.5 -14.5t-7.5 -19.5q0 -7 3.5 -17.5t11.5 -25t14.5 -27t17.5 -32t17 -29.5z" />
    <glyph glyph-name="W" unicode="W" horiz-adv-x="1000" 
d="M744 167l112 314q16 46 16 86q0 44 -43 64l-15 9q0 4 9 4q11 0 33 -2t46 -2q22 0 43.5 2t32.5 2q16 0 16 -5q0 -2 -19 -16q-41 -33 -72 -115l-185 -481q-18 -47 -25 -47h-2q-7 0 -24 46l-178 449l-165 -455q-4 -12 -11 -26t-11 -14h-2q-8 0 -23 41l-208 555
q-17 41 -40 50q-19 8 -19 11q0 7 14 7q3 0 34.5 -2t63.5 -2q30 0 65.5 2t37.5 2q10 0 10 -6t-10 -9q-33 -8 -33 -37q0 -19 38 -115l121 -308l153 431q1 1 7.5 20t11.5 29.5t8 10.5h2q7 0 29 -55z" />
    <glyph glyph-name="X" unicode="X" horiz-adv-x="722" 
d="M272 542l114 -164l117 150q22 28 22 55q0 17 -10.5 33t-23.5 19q-10 2 -10 5q0 4 15 4q13 0 40.5 -2t56.5 -2t60.5 2t32.5 2q15 0 15 -4q0 -2 -9 -7q-34 -13 -50 -24q-29 -19 -61.5 -49t-50.5 -50l-131 -152l165 -215l12 -15q12 -14 17.5 -21t19 -22t23 -24.5t22.5 -21.5
t25 -20t23 -13q9 -4 9 -6q0 -3 -16 -3q-2 0 -19.5 0.5t-46 1.5t-56.5 1q-40 0 -69 -0.5t-43 -1.5t-16 -1q-12 0 -12 4q0 3 9 5q30 9 30 35q0 19 -29 59l-131 188l-83 -113q-62 -83 -62 -114q0 -23 8.5 -35t30.5 -20q7 -2 7 -6q0 -3 -11 -3q-1 0 -14.5 0.5t-35.5 1.5t-43 1
q-22 0 -44 -0.5t-35.5 -1.5t-15.5 -1q-12 0 -12 3q0 4 12 10q50 31 125 110l160 187l-136 195q-76 112 -123 130q-11 5 -11 8q0 4 17 4q16 0 46.5 -2t63.5 -2q30 0 60 2t46 2q17 0 17 -4t-8 -6q-37 -4 -37 -33q0 -11 34 -59z" />
    <glyph glyph-name="Y" unicode="Y" horiz-adv-x="722" 
d="M232 532l172 -220l138 185q47 61 47 91t-25 41q-19 8 -19 11q0 4 14 4q1 0 25 -2t47 -2q21 0 48 2t28 2q13 0 13 -6q0 -1 -1.5 -2t-4 -3t-5.5 -4t-7.5 -4.5t-8.5 -5.5q-18 -13 -51.5 -48t-49.5 -56l-170 -229v-165q0 -60 7.5 -81.5t34.5 -32.5l13 -6q0 -4 -12 -4
q-2 0 -14 0.5t-35 1.5t-52 1t-52 -0.5t-35 -1.5t-14 -1q-12 0 -12 4l13 6q27 11 34.5 32.5t7.5 81.5v149l-203 266q-42 54 -76 80q-6 5 -13.5 9.5t-10 7t-2.5 4.5q0 7 14 7q1 0 22 -1t52 -2t56 -1q31 0 61 2t31 2q12 0 12 -6q0 -4 -16 -9q-31 -13 -31 -35q0 -5 1 -9.5
t1.5 -8t3 -8t3 -6.5t4.5 -7.5t5 -7t6 -8t6 -7.5z" />
    <glyph glyph-name="Z" unicode="Z" 
d="M608 640l-356 -530q-28 -47 -28 -53q0 -18 18.5 -25t67.5 -7q205 0 297 107q15 17 19 17q3 0 3 -4q0 -5 -4 -17l-42 -128h-554l383 541q23 33 23 47q0 27 -51 27h-88q-88 0 -135.5 -23t-103.5 -77q-7 -6 -10 -6t-3 4q0 6 7 25l37 102h520z" />
    <glyph glyph-name="bracketleft" unicode="[" horiz-adv-x="259" 
d="M207 660v-20q-36 0 -53.5 -24.5t-17.5 -63.5v-602q0 -118 74 -118v-20q-162 0 -162 165v514q0 81 33.5 124t125.5 45z" />
    <glyph glyph-name="backslash" unicode="\" horiz-adv-x="278" 
d="M-22 660h61l261 -680h-61z" />
    <glyph glyph-name="bracketright" unicode="]" horiz-adv-x="259" 
d="M52 640v20q92 -2 125.5 -45t33.5 -124v-514q0 -165 -162 -165v20q74 0 74 118v602q0 39 -17.5 63.5t-53.5 24.5z" />
    <glyph glyph-name="asciicircum" unicode="^" horiz-adv-x="600" 
d="M153 250h-62l183 365h52l183 -365h-62l-147 295z" />
    <glyph glyph-name="underscore" unicode="_" horiz-adv-x="500" 
d="M0 -75h500v-50h-500v50z" />
    <glyph glyph-name="grave" unicode="`" horiz-adv-x="278" 
d="M218 586h-51l-163 98q-22 14 -22 34t13.5 34t32.5 14q20 0 48 -28z" />
    <glyph glyph-name="a" unicode="a" horiz-adv-x="611" 
d="M428 230v70h-59q-219 0 -219 -164q0 -55 35.5 -90.5t88.5 -35.5q42 0 73.5 20.5t48 54t24.5 70t8 75.5zM531 368v-281q0 -61 36 -77q10 -5 10 -6q0 -4 -13 -4h-108q-21 48 -24 102h-2q-56 -117 -185 -117q-87 0 -149 42t-62 125q0 36 17 65t47.5 46t64 29t75 17.5
t71.5 7.5t62 2h57v33q0 75 -36.5 119.5t-109.5 44.5q-71 0 -113.5 -25.5t-68.5 -89.5l-8 -17q-1 0 -5 11l-26 90q58 30 110 40t126 10q62 0 112 -14.5t86 -53.5t36 -99z" />
    <glyph glyph-name="b" unicode="b" horiz-adv-x="667" 
d="M166 260q0 -74 17.5 -127t46 -77.5t55.5 -35t56 -10.5q22 0 43.5 5.5t46 22.5t42.5 43t30 72.5t12 106.5t-12 106.5t-30 72.5t-42.5 43t-46 22.5t-43.5 5.5q-29 0 -56 -10.5t-55.5 -35t-46 -77.5t-17.5 -127zM164 725v-318h2q29 66 77 97t129 31q96 0 177.5 -76.5
t81.5 -198.5q0 -109 -76 -192t-183 -83q-141 0 -212 108q-12 -58 -34 -93h-94q-32 0 -32 4q0 5 6 8q55 20 55 94v498q0 66 -34 74q-15 2 -15 7q0 6 15 8q64 12 137 32z" />
    <glyph glyph-name="c" unicode="c" horiz-adv-x="593" 
d="M552 475l-23 -78q-8 -27 -12 -27q-2 0 -6 12q-47 134 -183 134q-62 0 -104 -40t-58 -95t-17 -121q0 -126 57.5 -188t135.5 -62q62 0 117 37.5t84 94.5l16 -16q-42 -71 -96.5 -106t-133.5 -35q-128 0 -212 77.5t-84 197.5t84 197.5t212 77.5q48 0 118.5 -17.5t104.5 -42.5
z" />
    <glyph glyph-name="d" unicode="d" horiz-adv-x="667" 
d="M150 260q0 -74 17.5 -127t46 -77.5t55.5 -35t56 -10.5q27 0 55 13.5t56 41t45.5 78.5t17.5 117q0 60 -12 106.5t-30 72.5t-42.5 43t-46 22.5t-43.5 5.5q-29 0 -56 -10.5t-55.5 -35t-46 -77.5t-17.5 -127zM597 725v-465q0 -110 4 -164q6 -74 53 -87q7 -2 7 -5q0 -4 -17 -4
h-118q-15 30 -29 100h-2q-66 -115 -203 -115q-108 0 -183 76t-75 199q0 109 75.5 192t182.5 83q137 0 200 -85h2v154q0 18 -0.5 27t-4 21.5t-12 19t-22.5 9.5q-13 4 -13 6q0 3 18 6q64 12 137 32z" />
    <glyph glyph-name="e" unicode="e" horiz-adv-x="630" 
d="M156 349h302q0 77 -38 122t-113 45q-64 0 -103 -48t-48 -119zM584 330h-432q-3 -34 -3 -65q0 -130 56 -192.5t137 -62.5q85 0 146.5 53t87.5 143h21q-24 -104 -95 -162.5t-173 -58.5q-128 0 -212 77.5t-84 197.5t84 197.5t212 77.5q91 0 168 -54t87 -151z" />
    <glyph glyph-name="f" unicode="f" horiz-adv-x="333" 
d="M306 495l-9 -32h-89v-337q0 -54 8.5 -77t43.5 -42q10 0 10 -4q0 -3 -14 -3h-199q-14 0 -14 3l14 6q31 12 39.5 37.5t8.5 79.5v337h-87l13 32h74v32q0 198 265 198l-28 -73q-6 -19 -10 -19q-6 0 -12 8q-29 48 -62 48q-29 0 -39.5 -18.5t-10.5 -57.5v-118h98z" />
    <glyph glyph-name="g" unicode="g" horiz-adv-x="630" 
d="M311 184q67 0 103.5 45t42.5 121q-6 76 -42.5 121t-103.5 45q-68 0 -104.5 -45t-42.5 -121q6 -76 42.5 -121t104.5 -45zM610 611l-34 -106q-3 2 -13 11.5t-18.5 16t-25.5 12t-38 5.5q-16 0 -35 -9t-24 -24q38 -19 55.5 -29.5t41.5 -31t34 -46t10 -60.5q0 -49 -26 -86.5
t-66 -58t-81.5 -30.5t-79.5 -10q-8 -1 -27 -1.5t-28 -1t-20.5 -3t-16.5 -8t-5 -14.5q0 -20 31 -26.5t84 -8.5h11q32 -1 53.5 -3t57.5 -7t60.5 -15t49 -24.5t37.5 -39t13 -55.5q0 -67 -87 -111.5t-206 -44.5q-140 0 -219 35t-79 81q0 23 8 41.5t19 31t30.5 22.5t33 15t37 9.5
t32 5.5t28.5 3v2q-100 7 -100 53q0 23 26 40t52 24t45 8v2q-73 9 -125 58.5t-47 116.5q0 49 26 86.5t66 58t81.5 30.5t79.5 10q44 0 93 -13q53 52 94 70.5t112 18.5zM317 32q-24 0 -40 -0.5t-42.5 -3.5t-44 -10t-35.5 -18t-27 -29.5t-9 -43.5v-1q0 -25 9 -43.5t27 -29.5
t35.5 -18t44 -10t42.5 -3.5t40 -0.5q84 0 141 27.5t57 77.5q0 106 -198 106z" />
    <glyph glyph-name="h" unicode="h" 
d="M74 126v478q0 72 -33 76q-16 2 -16 5t17 7q73 16 135 33v-328h2q39 138 193 138q92 0 152.5 -52.5t60.5 -163.5v-193q-1 -67 7.5 -89t32.5 -30q13 -4 13 -7t-15 -3q-2 0 -13.5 0.5t-32 1.5t-44.5 1q-32 0 -67 -1.5t-36 -1.5q-11 0 -11 3q0 5 9 6q28 3 41 29.5t13 90.5
v194q0 78 -36.5 134t-110.5 56q-83 0 -120.5 -73t-37.5 -189v-122q0 -28 1.5 -44.5t6 -34t14.5 -27t26 -12.5q11 -2 11 -6q0 -5 -9 -5q-2 0 -16.5 0.5t-38 1.5t-47.5 1t-49 -0.5t-40.5 -1.5t-17.5 -1q-9 0 -9 5q0 4 11 6q34 5 44 33.5t10 84.5z" />
    <glyph glyph-name="i" unicode="i" horiz-adv-x="278" 
d="M88 126v291q0 7 -0.5 13.5t-1.5 11.5t-2.5 9.5t-3 7.5t-4 6t-4 4.5t-5 4t-4.5 3l-5 2.5t-5 3q-2 1 -6.5 2t-7.5 2t-3 2t18 4q64 12 137 32v-398q0 -54 10 -82.5t42 -34.5q10 -2 10 -9q0 -3 -14 -3q-3 0 -17 0.5t-36.5 1.5t-46.5 1t-46.5 -0.5t-36.5 -1.5t-17 -1
q-14 0 -14 3q0 7 10 9q32 6 42.5 34.5t10.5 82.5zM131 589q-24 0 -41.5 17.5t-17.5 41.5t17.5 42t41.5 18q25 0 42.5 -18t17.5 -42t-17.5 -41.5t-42.5 -17.5z" />
    <glyph glyph-name="j" unicode="j" horiz-adv-x="278" 
d="M196 524v-494q0 -55 -19.5 -98t-47 -66.5t-63 -38.5t-63 -20t-51.5 -5q-16 0 -39 6l25 80q7 18 10 18q4 0 12 -15q7 -13 13 -21t21.5 -16.5t35.5 -8.5q63 0 63 233v325q0 69 -35 79q-14 2 -14 7q0 2 15 4q76 11 137 31zM136 589q-24 0 -41.5 17.5t-17.5 41.5t17.5 42
t41.5 18q25 0 42.5 -18t17.5 -42t-17.5 -41.5t-42.5 -17.5z" />
    <glyph glyph-name="k" unicode="k" horiz-adv-x="593" 
d="M433 -3l-96 161q0 1 -12 20.5t-17 27.5t-18 25.5t-22.5 26t-23 16t-26.5 7.5t-20.5 -6t-10.5 -20t-3.5 -25t-0.5 -32v-72q0 -53 10 -79.5t44 -38.5q9 -2 9 -6q0 -5 -11 -5q-1 0 -15.5 0.5t-39.5 1.5t-49 1t-47.5 -0.5t-37.5 -1.5t-15 -1q-10 0 -10 5q0 2 7 6
q33 10 42.5 47t9.5 111v397q0 52 -7 79.5t-30 30.5q-17 3 -17 9q0 2 19 8q114 28 138 35v-432l168 140q37 31 37 52q0 10 -17 27q-1 1 -4 2t-4.5 2.5t-1.5 3.5q0 4 14 4q3 0 16 -1t35 -2t45 -1q27 0 53 2t40 2t14 -6q0 -2 -33 -10q-75 -18 -162 -85l-148 -112v-2
q34 -1 59.5 -5t47.5 -16t35 -20.5t32 -33.5t28.5 -39t32.5 -51q66 -106 130 -135q10 -4 10 -7q0 -5 -11 -5q-1 0 -16 0.5t-38.5 1.5t-45.5 1q-12 0 -34 -1.5t-32 -1.5z" />
    <glyph glyph-name="l" unicode="l" horiz-adv-x="278" 
d="M191 725v-599q0 -37 2.5 -56t15.5 -37t39 -27q6 -3 6 -6t-9 -3l-11 1q-12 0 -37 1t-58 1q-24 0 -48 -0.5t-39 -1.5t-17 -1q-10 0 -10 3t6 6q38 16 47.5 41t9.5 79v478q0 37 -7.5 53.5t-26.5 20.5q-15 2 -15 8q0 5 15 7q64 12 137 32z" />
    <glyph glyph-name="m" unicode="m" horiz-adv-x="1000" 
d="M166 524v-128h2q48 139 201 139q71 0 119.5 -36.5t60.5 -102.5h2q41 139 196 139q186 0 186 -227v-212q0 -45 8 -62.5t31 -25.5q13 -4 13 -8q0 -3 -14 -3q-1 0 -12.5 0.5t-32.5 1.5t-45 1t-47.5 -0.5t-37.5 -1.5t-15 -1q-8 0 -8 5q0 2 7 6q32 9 41 39.5t9 101.5v202
q0 68 -30 113.5t-94 45.5q-43 0 -74.5 -24t-47 -62.5t-22.5 -77.5t-7 -79v-170q0 -42 8.5 -62.5t33.5 -24.5q12 -2 12 -9q0 -4 -11 -4q-2 0 -14.5 0.5t-34.5 1.5t-46 1q-32 0 -65 -2l-33 -1q-8 0 -8 3q0 4 6 6q28 8 38.5 38t10.5 82v225q0 68 -30 113.5t-94 45.5
q-43 0 -74.5 -24t-47 -62.5t-22.5 -77.5t-7 -79v-141q0 -53 9.5 -82.5t37.5 -35.5q6 -2 6 -8q0 -3 -14 -3q-2 0 -13.5 0.5t-32.5 1.5t-45 1t-41.5 -0.5t-26 -1.5t-10.5 -1q-11 0 -11 3q0 4 7 8q20 7 25.5 43.5t5.5 108.5v243q0 69 -33 76q-16 2 -16 5q0 6 15 8q77 15 126 32
z" />
    <glyph glyph-name="n" unicode="n" 
d="M166 524v-144h2q20 72 66 113.5t138 41.5t152.5 -52.5t60.5 -163.5v-193q-1 -67 7.5 -89t32.5 -30q13 -4 13 -7t-15 -3q-2 0 -13.5 0.5t-32 1.5t-44.5 1q-32 0 -67 -1.5t-36 -1.5q-11 0 -11 3q0 5 9 6q28 3 41 29.5t13 90.5v194q0 78 -36.5 134t-110.5 56
q-83 0 -120.5 -73t-37.5 -189v-122q0 -28 1.5 -44.5t6 -34t14.5 -27t26 -12.5q11 -2 11 -6q0 -5 -9 -5q-2 0 -16.5 0.5t-38 1.5t-47.5 1t-49 -0.5t-40.5 -1.5t-17.5 -1q-9 0 -9 5q0 4 11 6q34 5 44 33.5t10 84.5v248q0 48 -7.5 72.5t-27.5 33.5q-18 8 -18 10t19 5
q93 17 126 29z" />
    <glyph glyph-name="o" unicode="o" horiz-adv-x="667" 
d="M153 260q0 -256 180 -256q181 0 181 256t-181 256q-180 0 -180 -256zM37 260q0 120 84 197.5t212 77.5q129 0 213 -77.5t84 -197.5t-84 -197.5t-213 -77.5q-128 0 -212 77.5t-84 197.5z" />
    <glyph glyph-name="p" unicode="p" horiz-adv-x="667" 
d="M166 260q0 -74 17.5 -127t46 -77.5t55.5 -35t56 -10.5q22 0 43.5 5.5t46 22.5t42.5 43t30 72.5t12 106.5t-12 106.5t-30 72.5t-42.5 43t-46 22.5t-43.5 5.5q-29 0 -56 -10.5t-55.5 -35t-46 -77.5t-17.5 -127zM68 -68v471q3 63 -33 74q-16 5 -16 7q0 6 15 8q71 9 126 32
v-130h2q55 141 210 141q99 0 179 -76t80 -199q0 -107 -78 -191t-181 -84q-51 0 -90.5 14t-58.5 29.5t-52 47.5v-105q0 -143 42 -155q23 -7 23 -10v-2q0 -2 -18 -2q-1 0 -34.5 1t-63.5 1q-8 0 -32 -1t-48 -1q-26 0 -26 3v1q0 3 11 6q27 7 35 29.5t8 90.5z" />
    <glyph glyph-name="q" unicode="q" horiz-adv-x="667" 
d="M486 260q0 48 -8 89.5t-25.5 79t-52 59.5t-82.5 22t-82.5 -22t-53 -59.5t-26.5 -79t-8 -89.5t8 -89.5t26.5 -79t53 -59.5t82.5 -22t82.5 22t52 59.5t25.5 79t8 89.5zM589 403v-471q0 -67 8.5 -89.5t34.5 -30.5q11 -3 11 -4v-1q0 -5 -29 -5q-11 0 -39 1t-38 1
q-11 0 -57 -1t-49 -1q-12 0 -12 3v2q0 3 21 7q28 4 37 31.5t9 86.5v173h-2q-23 -59 -68 -89.5t-126 -30.5q-107 0 -182.5 83t-75.5 192t75.5 192t182.5 83q65 0 115 -24.5t76 -70.5h2q8 65 26 84h103q21 0 21 -4q0 -3 -9 -5q-20 -5 -27.5 -27t-7.5 -85z" />
    <glyph glyph-name="r" unicode="r" horiz-adv-x="389" 
d="M183 524v-129h2q31 66 83.5 104.5t119.5 35.5l-42 -103q-21 16 -62 16t-68 -43t-27 -95v-184q0 -56 10.5 -84.5t46.5 -35.5q10 -3 10 -6t-8 -3q-2 0 -18.5 0.5t-42.5 1.5t-50 1t-49 -0.5t-41 -1.5t-17 -1q-9 0 -9 3t11 5q35 13 44.5 35t9.5 86v239q0 57 -7 82t-32 31
q-15 4 -15 8q0 2 4 2.5t9 1t8 1.5q73 13 130 33z" />
    <glyph glyph-name="s" unicode="s" horiz-adv-x="574" 
d="M500 497l-25 -75q-5 -12 -9 -12q-6 0 -7 8q-7 42 -53.5 70t-108.5 28q-63 0 -104.5 -29.5t-41.5 -90.5q0 -25 14.5 -43t41.5 -27.5t55.5 -14t67.5 -7.5q107 -7 155.5 -39t48.5 -103q0 -51 -27 -87.5t-71 -55t-89 -26.5t-92 -8q-129 0 -236 40l21 83q5 19 9 19t6 -9
q7 -37 45 -64t80.5 -38.5t80.5 -11.5q43 0 79.5 10t65 38.5t28.5 71.5q0 53 -39 70.5t-138 25.5q-206 19 -206 147q0 49 25 84t66.5 52t83.5 24.5t88 7.5q93 0 186 -38z" />
    <glyph glyph-name="t" unicode="t" horiz-adv-x="333" 
d="M105 463h-65q-10 0 -10 9q0 6 20 14q88 31 142 142q4 10 11 10q5 0 5 -14v-129h111l-7 -32h-104v-284q0 -90 17 -124t47 -44q12 -5 12 -7q0 -4 -16 -4h-121q-42 20 -42 73v390z" />
    <glyph glyph-name="u" unicode="u" 
d="M575 524v-397q0 -62 11.5 -87t43.5 -33q6 -1 6 -3q0 -4 -13 -4h-119q-23 51 -26 115h-2q-25 -67 -71.5 -98.5t-123.5 -31.5q-110 0 -161.5 49t-51.5 167v202q0 44 -5.5 58.5t-26.5 21.5q-15 4 -15 8q0 2 15 4q55 7 135 29v-324q0 -78 36.5 -134t110.5 -56
q73 0 113.5 57.5t40.5 134.5v201q0 42 -7 58.5t-22 24.5q-4 2 -9 5q-4 1 -4 2q0 3 16 6q69 11 129 25z" />
    <glyph glyph-name="v" unicode="v" 
d="M203 406l156 -300l128 249q34 74 34 105q0 39 -46 54q-9 2 -9 6t10 4q11 0 32.5 -2t43.5 -2q21 0 42 2t32 2q13 0 13 -3q0 -6 -9 -12q-42 -29 -102 -137l-195 -373q-7 -14 -12 -14h-2q-1 0 -10 15l-175 341q-25 51 -38 74.5t-33.5 52.5t-40.5 42q-12 8 -12 10q0 4 13 4
q4 0 32.5 -2t56.5 -2q20 0 40.5 1t34 2t15.5 1q13 0 13 -4t-9 -8q-28 -7 -28 -38q0 -15 25 -68z" />
    <glyph glyph-name="w" unicode="w" horiz-adv-x="963" 
d="M477 394l-161 -392q-2 -5 -6.5 -11t-8.5 -6h-2q-9 0 -25 33l-200 417q-25 61 -62 79q-5 3 -5 5q0 5 14 5q13 0 40 -2t55 -2q27 0 52.5 2t39.5 2t14 -4t-18 -10q-24 -9 -24 -34q0 -30 22 -70l136 -272l154 369q14 32 23 32h2q10 0 25 -32l170 -369l111 248q17 44 17 59
q0 57 -50 72q-4 1 -4 5q0 6 11 6t32 -2t43 -2q21 0 41 2t31 2t11 -4q0 -7 -3 -9q-51 -42 -99 -143l-170 -362q-8 -21 -16 -21h-2q-5 0 -15 21z" />
    <glyph glyph-name="x" unicode="x" horiz-adv-x="593" 
d="M262 398l62 -83l51 62q62 75 62 98q0 18 -13 31q-2 3 -9 6.5t-7 6.5q0 5 13 5q10 0 30 -2t41 -2q20 0 39 2t30 2q10 0 10 -4q0 -2 -4 -4.5t-13.5 -7.5t-18.5 -13q-8 -7 -27.5 -22.5t-34.5 -28.5t-27 -26l-110 -120l104 -141q90 -121 129 -145l8 -4t6.5 -3.5t4.5 -2.5
t2 -2q1 -1 -3 -2q-3 -1 -7 -1q-1 0 -4.5 0.5t-10.5 0.5t-17 0.5t-28.5 1t-41.5 0.5q-34 0 -59 -0.5t-36 -1.5t-12 -1q-9 0 -9 4q0 1 17 6q17 8 17 26q0 16 -57 94l-75 103l-69 -89q-57 -74 -57 -106q0 -10 5.5 -19t14.5 -10q13 -5 13 -6q0 -3 -14 -3q-1 0 -10 0.5t-24.5 1.5
t-32.5 1q-18 0 -37 -0.5t-30.5 -1.5t-13.5 -1q-9 0 -9 4q0 2 3 3l9 3t12 6q57 37 134 126l98 111l-100 139q-66 90 -103 120q-3 3 -9 5t-10 3.5t-4 2.5q0 4 16 4q13 0 38.5 -2t51.5 -2q25 0 50 2t38 2t13 -4q0 -1 -7.5 -4t-14.5 -10t-7 -19q0 -16 54 -89z" />
    <glyph glyph-name="y" unicode="y" 
d="M522 358l-181 -349q-63 -126 -121 -168q-56 -42 -154 -39l31 85q8 23 9 23q3 0 3 -4q14 -36 73 -36q46 0 72.5 37.5t26.5 84.5q0 39 -53 148l-149 299q-11 20 -17 30t-19 23.5t-29 21.5q-5 3 -5 6q0 4 14 4q13 0 40.5 -2t56.5 -2q27 0 53 2t40 2t14 -4t-6 -5
q-1 -1 -8.5 -3.5t-9.5 -3.5t-7.5 -4.5t-7 -7t-3.5 -10.5t-2 -15q0 -35 31 -88l148 -275l89 171q62 124 62 170q0 48 -45 61q-9 3 -9 10q0 4 12 4q1 0 27 -2t52 -2q18 0 35.5 1t28.5 2t13 1q12 0 12 -4t-5 -7q-23 -15 -57.5 -66t-54.5 -89z" />
    <glyph glyph-name="z" unicode="z" horiz-adv-x="593" 
d="M544 520l-298 -405q-50 -67 -50 -73q0 -17 54 -17q100 0 170 18.5t127 75.5q11 13 15 13q3 0 3 -4q0 -2 -7 -26l-37 -102h-493l341 438q24 31 24 39q0 12 -15.5 15t-48.5 3q-100 0 -155 -18t-110 -83q-6 -6 -8 -6t-2 4q2 10 4 16l41 112h445z" />
    <glyph glyph-name="braceleft" unicode="{" horiz-adv-x="259" 
d="M78 -51v175q0 48 -19 73.5t-66 38.5q47 13 66 38.5t19 73.5v175q0 137 159 137v-20q-36 0 -53.5 -27t-17.5 -91v-162q0 -54 -19.5 -82.5t-73.5 -40.5v-2q54 -12 73.5 -40.5t19.5 -82.5v-162q0 -118 71 -118v-20q-159 0 -159 137z" />
    <glyph glyph-name="bar" unicode="|" horiz-adv-x="222" 
d="M81 750h60v-1000h-60v1000z" />
    <glyph glyph-name="braceright" unicode="}" horiz-adv-x="259" 
d="M181 523v-175q0 -48 19 -73.5t66 -38.5q-47 -13 -66 -38.5t-19 -73.5v-175q0 -137 -159 -137v20q36 0 53.5 27t17.5 91v162q0 54 19.5 82.5t73.5 40.5v2q-54 12 -73.5 40.5t-19.5 82.5v162q0 118 -71 118v20q159 0 159 -137z" />
    <glyph glyph-name="asciitilde" unicode="~" horiz-adv-x="600" 
d="M495 326l36 -42q-20 -27 -33 -42t-38 -29.5t-54 -14.5q-42 0 -102 33q-62 35 -115 35q-51 0 -84 -72l-36 42q45 86 125 86q39 0 111 -32q7 -3 21.5 -9.5t23 -10t20 -8t20.5 -6.5t17 -2q19 0 36.5 12t27 24.5t24.5 35.5z" />
    <glyph glyph-name="uni00A0" unicode="&#xa0;" horiz-adv-x="324" 
 />
    <glyph glyph-name="exclamdown" unicode="&#xa1;" horiz-adv-x="278" 
d="M128 371h22q0 -93 28 -219q17 -77 17 -153q0 -139 -56 -139t-56 139q0 76 17 153q28 126 28 219zM139 415q-24 0 -42 18t-18 42t18 42t42 18t42 -18t18 -42t-18 -42t-42 -18z" />
    <glyph glyph-name="cent" unicode="&#xa2;" 
d="M516 489l-19 -66q-7 -23 -10 -23t-5 10q-41 114 -156 114q-40 0 -70 -19t-47.5 -51.5t-26 -69.5t-8.5 -78q0 -107 47.5 -159.5t116.5 -52.5q53 0 99.5 31.5t71.5 80.5l13 -13q-67 -114 -179 -119v-88h-36v89q-101 6 -166 70.5t-65 160.5t65 161t165 71v90h36v-89
q43 -3 95.5 -16.5t78.5 -33.5z" />
    <glyph glyph-name="sterling" unicode="&#xa3;" 
d="M100 69q0 -21 19 -33.5t38 -12.5q34 0 63 31t27 68q-28 19 -64 19q-35 0 -59 -17.5t-24 -54.5zM231 306h-90l11 32h74q-19 48 -19 106q0 75 53.5 130.5t120.5 55.5q72 0 155 -54l-26 -88q-6 -19 -10 -19q-3 0 -5 13q-12 53 -50 90t-85 37q-36 0 -61 -31.5t-25 -72.5
q0 -12 1.5 -24.5t5 -26.5t6 -23t9 -25t9 -22t10.5 -24t10 -22h157l-11 -32h-138q14 -50 14 -79q0 -45 -17 -79q12 -4 88 -42q62 -30 94 -30q57 0 97 70q2 3 4 8t3 8t3 5t4 2q5 0 5 -5q0 -6 -11 -34q-19 -58 -57.5 -101.5t-87.5 -43.5q-42 0 -92 39q-12 9 -38 34t-41 36
q-102 -109 -212 -109q-26 0 -47 13t-21 41q0 38 34.5 68.5t76 44.5t74.5 14q8 0 23 -1.5t22 -1.5q3 66 -20 143z" />
    <glyph glyph-name="currency" unicode="&#xa4;" 
d="M74 99l54 57q-53 66 -53 151q0 95 55 153l-56 57l40 40l57 -55q63 54 155 54q86 0 149 -54l56 56l42 -42l-55 -54q53 -60 53 -153q0 -89 -52 -154l53 -56l-40 -40l-54 58q-63 -57 -153 -57q-93 0 -157 57l-54 -58zM325 117q77 0 131 57t54 135q0 76 -54 133t-130 57
q-79 0 -134.5 -56t-55.5 -136q0 -79 55.5 -134.5t133.5 -55.5z" />
    <glyph glyph-name="yen" unicode="&#xa5;" 
d="M114 252v32h161l-37 55h-124v32h100l-111 166q-23 39 -64 68q-8 6 -8 10t9 4q16 0 42 -2t52 -2q24 0 49.5 2t41.5 2q10 0 10 -4q0 -6 -8 -6q-31 -5 -31 -38q0 -20 24 -56l142 -213l103 165q45 73 45 109q0 8 -3.5 14t-6.5 8.5t-10.5 6t-9.5 4.5q-4 2 -4 6t10 4q8 0 26 -2
t36 -2q17 0 34 2t26 2t9 -4q0 -5 -3 -6q-54 -32 -103 -112l-79 -126h109v-32h-125l-35 -55h160v-32h-161v-166q0 -33 7 -52.5t29 -27.5q7 -2 7 -6q0 -6 -14 -6q-12 0 -35.5 3t-46.5 3t-46.5 -3t-35.5 -3q-14 0 -14 6q0 4 7 6q22 8 29 27.5t7 52.5v166h-160z" />
    <glyph glyph-name="brokenbar" unicode="&#xa6;" horiz-adv-x="222" 
d="M81 675h60v-350h-60v350zM81 175h60v-350h-60v350z" />
    <glyph glyph-name="section" unicode="&#xa7;" horiz-adv-x="556" 
d="M324 322q-13 4 -43 12t-43 12t-33.5 11.5t-33.5 16t-23 18.5q-42 -27 -42 -79q0 -43 30.5 -69t85.5 -45q12 -3 38 -10t37.5 -10.5t32 -9.5t33 -11t28 -11.5t28.5 -14.5q30 43 30 77q0 44 -32.5 69t-92.5 44zM67 -120l11 71q2 18 6 18q2 0 5 -7q22 -42 75.5 -68.5
t99.5 -26.5q62 0 110 30t48 89q0 14 -4.5 26.5t-10.5 21.5t-19.5 18t-22 14t-28.5 11.5t-30 9.5t-34.5 9.5t-33.5 9.5q-40 11 -68 22.5t-57 31.5t-43.5 51t-14.5 73q0 72 70 129q-33 34 -33 88q0 65 49.5 112t143.5 47q130 0 186 -56l-31 -55q-6 -10 -8 -10q-3 0 -9 15
q-16 39 -58 60t-96 21q-52 0 -84.5 -26t-32.5 -76q0 -46 37.5 -70.5t121.5 -46.5q87 -23 137 -60.5t50 -107.5q0 -55 -59 -130q42 -34 42 -101q0 -74 -70 -124.5t-167 -50.5q-114 0 -178 38z" />
    <glyph glyph-name="dieresis" unicode="&#xa8;" horiz-adv-x="278" 
d="M242 715q24 0 42 -18t18 -42t-18 -42t-42 -18t-42 18t-18 42t18 42t42 18zM36 715q24 0 42 -18t18 -42t-18 -42t-42 -18t-42 18t-18 42t18 42t42 18z" />
    <glyph glyph-name="copyright" unicode="&#xa9;" horiz-adv-x="800" 
d="M400 -20q-139 0 -235.5 99t-96.5 240q0 142 96.5 241.5t235.5 99.5t235.5 -99.5t96.5 -241.5q0 -141 -96.5 -240t-235.5 -99zM400 21q114 0 196 89t82 209q0 121 -81.5 210.5t-196.5 89.5q-114 0 -196 -90t-82 -210t82 -209t196 -89zM548 237h16l-15 -68q-1 -11 -26 -19
q-46 -17 -103 -17q-92 0 -150 48t-58 147q0 71 55.5 130.5t158.5 59.5q48 0 102 -18q20 -5 20 -20v-69h-16q-4 36 -30 62t-79 26q-66 0 -100 -45.5t-35 -121.5q-1 -82 34 -131t107 -49q85 0 119 85z" />
    <glyph glyph-name="ordfeminine" unicode="&#xaa;" horiz-adv-x="367" 
d="M258 447v28h-33q-32 0 -52 -2t-42 -10t-33 -26t-11 -46q0 -61 76 -61q95 0 95 117zM330 530v-169q0 -37 24 -46q1 -1 3 -2q2 0 2.5 -0.5t0.5 -1.5q0 -2 -8 -2h-71q-13 28 -15 61h-2q-36 -70 -120 -70q-56 0 -96.5 25t-40.5 75q0 32 23.5 53.5t62 31t69.5 12.5t64 3h32v20
q0 44 -20.5 64.5t-69.5 20.5q-51 0 -76.5 -9.5t-41.5 -45.5q-1 -2 -2 -5t-2 -5l-1 -1q-1 0 -3 7l-17 54q61 30 153 30q64 0 108 -24t44 -76z" />
    <glyph glyph-name="guillemotleft" unicode="&#xab;" horiz-adv-x="556" 
d="M401 67q-30 62 -126 194q76 106 130 192q22 -30 59 -41q-81 -95 -111 -151q15 -26 58 -86t54 -65q-48 -25 -64 -43zM217 67q-30 62 -126 194q76 106 130 192q22 -30 59 -41q-81 -95 -111 -151q15 -26 58 -86t54 -65q-48 -25 -64 -43z" />
    <glyph glyph-name="logicalnot" unicode="&#xac;" horiz-adv-x="600" 
d="M500 114v214h-460v60h520v-274h-60z" />
    <glyph glyph-name="uni00AD" unicode="&#xad;" horiz-adv-x="259" 
d="M2 220l19 80h236l-18 -80h-237z" />
    <glyph glyph-name="registered" unicode="&#xae;" horiz-adv-x="800" 
d="M400 -20q-139 0 -235.5 99t-96.5 240q0 142 96.5 241.5t235.5 99.5t235.5 -99.5t96.5 -241.5q0 -141 -96.5 -240t-235.5 -99zM400 21q114 0 196 89t82 209q0 121 -81.5 210.5t-196.5 89.5q-114 0 -196 -90t-82 -210t82 -209t196 -89zM241 492v15h175q47 0 80.5 -23
t33.5 -67q0 -37 -22 -64.5t-57 -39.5l56 -78q46 -61 75 -83v-9h-63q-9 0 -18 7.5t-20 23t-21 33t-27 45t-33 51.5h-47v-97q0 -33 5.5 -38.5t42.5 -9.5v-15h-160v15q36 4 42 9.5t6 38.5v238q0 33 -5.5 38.5t-42.5 9.5zM353 488v-166h42q68 0 68 90q0 76 -70 76h-40z" />
    <glyph glyph-name="macron" unicode="&#xaf;" horiz-adv-x="278" 
d="M301 625h-323v65h323v-65z" />
    <glyph glyph-name="degree" unicode="&#xb0;" horiz-adv-x="400" 
d="M200 590q-44 0 -71 -29t-27 -74t27 -74t71 -29t71 29t27 74t-27 74t-71 29zM200 344q-60 0 -101.5 41.5t-41.5 101.5t41.5 101.5t101.5 41.5t101.5 -41.5t41.5 -101.5t-41.5 -101.5t-101.5 -41.5z" />
    <glyph glyph-name="plusminus" unicode="&#xb1;" horiz-adv-x="600" 
d="M270 345v175h60v-175h230v-60h-230v-175h-60v175h-230v60h230zM40 0v60h520v-60h-520z" />
    <glyph glyph-name="twosuperior" unicode="&#xb2;" horiz-adv-x="388" 
d="M361 329l-29 -77h-309q0 73 152 149q92 46 92 120q0 83 -98 83q-40 0 -69.5 -16t-39.5 -48q-3 -11 -7 -11t-6 12l-17 58q76 31 138 31q46 0 85 -9.5t69.5 -37t30.5 -71.5q0 -21 -8.5 -38.5t-18.5 -28.5t-31 -22t-33.5 -16t-39 -14.5t-35.5 -12.5q-102 -40 -102 -76h176
q67 0 92 39q3 5 8 5q4 0 4 -4q0 -5 -4 -15z" />
    <glyph glyph-name="threesuperior" unicode="&#xb3;" horiz-adv-x="388" 
d="M135 432v36q12 -5 38 -5q51 0 79 16t28 60q0 65 -94 65q-39 0 -70.5 -15t-37.5 -42q-4 -19 -8 -19q-5 0 -9 17l-15 52q68 33 142 33q177 0 177 -93q0 -77 -151 -85v-1q38 0 74.5 -8.5t66 -33t29.5 -60.5q0 -31 -19 -53.5t-50 -33t-61 -15t-61 -4.5q-106 0 -177 37l19 53
q9 18 13 19q4 0 4 -6q0 -36 38 -56.5t84 -20.5q59 0 92 17t33 64q0 87 -122 87q-29 0 -42 -5z" />
    <glyph glyph-name="acute" unicode="&#xb4;" horiz-adv-x="278" 
d="M111 586h-51l142 152q28 28 48 28q19 0 32.5 -14t13.5 -34t-22 -34z" />
    <glyph glyph-name="mu" unicode="&#xb5;" 
d="M472 202v201q0 42 -7 58.5t-22 24.5q-4 2 -9 5q-4 1 -4 2q0 3 16 6q69 11 129 25v-397q0 -62 11.5 -87t43.5 -33q6 -1 6 -3q0 -4 -13 -4h-119q-23 51 -26 115h-2q-25 -67 -71.5 -98.5t-123.5 -31.5q-70 0 -110 18v-201h-147q-10 0 -10 5q0 2 21 8q19 5 26 27.5t7 71.5
v489q0 44 -5.5 58.5t-26.5 21.5q-15 4 -15 8q0 2 15 4q55 7 135 29v-324q0 -78 36.5 -134t110.5 -56q73 0 113.5 57.5t40.5 134.5z" />
    <glyph glyph-name="paragraph" unicode="&#xb6;" horiz-adv-x="600" 
d="M519 640v-25q-38 0 -55 -10.5t-17 -38.5v-690h-52v739h-54v-739h-52v400q-88 0 -131.5 50.5t-43.5 138.5q0 93 43 134t142 41h220z" />
    <glyph glyph-name="periodcentered" unicode="&#xb7;" horiz-adv-x="324" 
d="M162 320q24 0 42 -18t18 -42t-18 -42t-42 -18t-42 18t-18 42t18 42t42 18z" />
    <glyph glyph-name="cedilla" unicode="&#xb8;" horiz-adv-x="278" 
d="M24 -200l17 35q30 -12 62 -12q26 0 41 11t15 30q0 13 -14 24.5t-33 11.5q-17 0 -29 -4l-11 8l43 96h41l-31 -64q27 3 33 3q86 0 86 -73q0 -44 -39 -63t-88 -19q-56 0 -93 16z" />
    <glyph glyph-name="onesuperior" unicode="&#xb9;" horiz-adv-x="388" 
d="M154 331v219q0 21 -8 29.5t-32 12.5q-5 0 -5 6q0 5 4 6q38 7 116 26v-299q0 -29 7.5 -46.5t33.5 -22.5q12 -2 12 -7t-12 -5q-2 0 -9.5 0.5t-25 1t-43.5 0.5t-44 -0.5t-25.5 -1t-8.5 -0.5q-13 0 -13 5t13 7q26 5 33 22t7 47z" />
    <glyph glyph-name="ordmasculine" unicode="&#xba;" horiz-adv-x="400" 
d="M307 465q0 65 -21.5 102.5t-86.5 37.5q-34 0 -56 -11t-32.5 -33t-14 -43.5t-3.5 -52.5t3.5 -52.5t14 -43.5t32.5 -33t56 -11q65 0 86.5 37.5t21.5 102.5zM7 465q0 72 54.5 118.5t137.5 46.5q84 0 139 -46.5t55 -118.5t-55 -118.5t-139 -46.5q-83 0 -137.5 46.5
t-54.5 118.5z" />
    <glyph glyph-name="guillemotright" unicode="&#xbb;" horiz-adv-x="556" 
d="M339 67q-16 18 -64 43q11 5 54 65t58 86q-30 56 -111 151q37 11 59 41q54 -86 130 -192q-96 -132 -126 -194zM155 67q-16 18 -64 43q11 5 54 65t58 86q-30 56 -111 151q37 11 59 41q54 -86 130 -192q-96 -132 -126 -194z" />
    <glyph glyph-name="onequarter" unicode="&#xbc;" horiz-adv-x="972" 
d="M774 92h-213q3 23 24 44l225 221q17 21 29 21q10 0 10 -17v-240q68 2 102 48q2 4 5 4t3 -6q0 -3 -4 -13l-24 -66q-28 4 -82 4v-13q0 -64 37 -72q13 -2 13 -6q0 -3 -13 -3q-11 0 -32.5 1t-45.5 1q-26 0 -43.5 -0.5t-25.5 -1t-9 -0.5q-9 0 -9 3q0 4 9 6q19 3 29.5 15.5
t12.5 25t2 31.5v13zM774 303l-172 -182h172v182zM310 -15h-53l448 645h53zM175 331v219q0 21 -8 29.5t-32 12.5q-5 0 -5 6q0 5 4 6q38 7 116 26v-299q0 -29 7.5 -46.5t33.5 -22.5q12 -2 12 -7t-12 -5q-2 0 -9.5 0.5t-25 1t-43.5 0.5t-44 -0.5t-25.5 -1t-8.5 -0.5
q-13 0 -13 5t13 7q26 5 33 22t7 47z" />
    <glyph glyph-name="onehalf" unicode="&#xbd;" horiz-adv-x="972" 
d="M250 -15h-53l448 645h53zM173 331v219q0 21 -8 29.5t-32 12.5q-5 0 -5 6q0 5 4 6q38 7 116 26v-299q0 -29 7.5 -46.5t33.5 -22.5q12 -2 12 -7t-12 -5q-2 0 -9.5 0.5t-25 1t-43.5 0.5t-44 -0.5t-25.5 -1t-8.5 -0.5q-13 0 -13 5t13 7q26 5 33 22t7 47zM919 77l-29 -77h-309
q0 73 152 149q92 46 92 120q0 83 -98 83q-40 0 -69.5 -16t-39.5 -48q-3 -11 -7 -11t-6 12l-17 58q76 31 138 31q46 0 85 -9.5t69.5 -37t30.5 -71.5q0 -21 -8.5 -38.5t-18.5 -28.5t-31 -22t-33.5 -16t-39 -14.5t-35.5 -12.5q-102 -40 -102 -76h176q67 0 92 39q3 5 8 5
q4 0 4 -4q0 -5 -4 -15z" />
    <glyph glyph-name="threequarters" unicode="&#xbe;" horiz-adv-x="972" 
d="M346 -15h-53l448 645h53zM144 432v36q12 -5 38 -5q51 0 79 16t28 60q0 65 -94 65q-39 0 -70.5 -15t-37.5 -42q-4 -19 -8 -19q-5 0 -9 17l-15 52q68 33 142 33q177 0 177 -93q0 -77 -151 -85v-1q38 0 74.5 -8.5t66 -33t29.5 -60.5q0 -31 -19 -53.5t-50 -33t-61 -15
t-61 -4.5q-106 0 -177 37l19 53q9 18 13 19q4 0 4 -6q0 -36 38 -56.5t84 -20.5q59 0 92 17t33 64q0 87 -122 87q-29 0 -42 -5zM774 92h-213q3 23 24 44l225 221q17 21 29 21q10 0 10 -17v-240q68 2 102 48q2 4 5 4t3 -6q0 -3 -4 -13l-24 -66q-28 4 -82 4v-13q0 -64 37 -72
q13 -2 13 -6q0 -3 -13 -3q-11 0 -32.5 1t-45.5 1q-26 0 -43.5 -0.5t-25.5 -1t-9 -0.5q-9 0 -9 3q0 4 9 6q19 3 29.5 15.5t12.5 25t2 31.5v13zM774 303l-172 -182h172v182z" />
    <glyph glyph-name="questiondown" unicode="&#xbf;" horiz-adv-x="500" 
d="M264 371h22q4 -48 -14 -85t-59 -89q-29 -36 -50.5 -83.5t-21.5 -86.5q0 -67 40.5 -107.5t108.5 -40.5q52 0 98 42t62 95q2 8 5 8q4 0 8 -15l27 -98q-40 -22 -99 -36.5t-109 -14.5q-106 0 -179.5 53.5t-73.5 119.5q0 32 9 58t28 47.5t35 35t44 33.5q31 22 44.5 33
t34.5 32.5t30 45.5t10 53zM275 415q-24 0 -42 18t-18 42t18 42t42 18t42 -18t18 -42t-18 -42t-42 -18z" />
    <glyph glyph-name="Agrave" unicode="&#xc0;" horiz-adv-x="778" 
d="M462 292h-238l-54 -105q-35 -68 -35 -114q0 -15 4 -26t13 -18.5t16.5 -11t20.5 -8.5q11 -3 11 -7q0 -5 -12 -5q-2 0 -15 0.5t-36 1.5t-47 1t-49.5 -1.5t-28.5 -1.5q-13 0 -13 5q0 2 2 4.5t4.5 4t6.5 4t6 3.5q27 22 61.5 71t54.5 87l245 476q5 8 7 8h2q4 0 8 -8l294 -550
q30 -55 67 -83q4 -3 10.5 -6.5t9.5 -6t3 -4.5q0 -5 -14 -5q-2 0 -18 0.5t-42 1.5t-52 1q-36 0 -64.5 -0.5t-42.5 -1.5l-14 -1q-10 0 -10 3q0 5 13 8q28 10 28 52q0 26 -45 114zM449 317l-107 208l-105 -208h212zM468 688h-51l-163 98q-22 14 -22 34t13.5 34t32.5 14
q20 0 48 -28z" />
    <glyph glyph-name="Aacute" unicode="&#xc1;" horiz-adv-x="778" 
d="M462 292h-238l-54 -105q-35 -68 -35 -114q0 -15 4 -26t13 -18.5t16.5 -11t20.5 -8.5q11 -3 11 -7q0 -5 -12 -5q-2 0 -15 0.5t-36 1.5t-47 1t-49.5 -1.5t-28.5 -1.5q-13 0 -13 5q0 2 2 4.5t4.5 4t6.5 4t6 3.5q27 22 61.5 71t54.5 87l245 476q5 8 7 8h2q4 0 8 -8l294 -550
q30 -55 67 -83q4 -3 10.5 -6.5t9.5 -6t3 -4.5q0 -5 -14 -5q-2 0 -18 0.5t-42 1.5t-52 1q-36 0 -64.5 -0.5t-42.5 -1.5l-14 -1q-10 0 -10 3q0 5 13 8q28 10 28 52q0 26 -45 114zM449 317l-107 208l-105 -208h212zM361 688h-51l142 152q28 28 48 28q19 0 32.5 -14t13.5 -34
t-22 -34z" />
    <glyph glyph-name="Acircumflex" unicode="&#xc2;" horiz-adv-x="778" 
d="M462 292h-238l-54 -105q-35 -68 -35 -114q0 -15 4 -26t13 -18.5t16.5 -11t20.5 -8.5q11 -3 11 -7q0 -5 -12 -5q-2 0 -15 0.5t-36 1.5t-47 1t-49.5 -1.5t-28.5 -1.5q-13 0 -13 5q0 2 2 4.5t4.5 4t6.5 4t6 3.5q27 22 61.5 71t54.5 87l245 476q5 8 7 8h2q4 0 8 -8l294 -550
q30 -55 67 -83q4 -3 10.5 -6.5t9.5 -6t3 -4.5q0 -5 -14 -5q-2 0 -18 0.5t-42 1.5t-52 1q-36 0 -64.5 -0.5t-42.5 -1.5l-14 -1q-10 0 -10 3q0 5 13 8q28 10 28 52q0 26 -45 114zM449 317l-107 208l-105 -208h212zM350 860h78l124 -172h-47l-116 100l-114 -100h-48z" />
    <glyph glyph-name="Atilde" unicode="&#xc3;" horiz-adv-x="778" 
d="M462 292h-238l-54 -105q-35 -68 -35 -114q0 -15 4 -26t13 -18.5t16.5 -11t20.5 -8.5q11 -3 11 -7q0 -5 -12 -5q-2 0 -15 0.5t-36 1.5t-47 1t-49.5 -1.5t-28.5 -1.5q-13 0 -13 5q0 2 2 4.5t4.5 4t6.5 4t6 3.5q27 22 61.5 71t54.5 87l245 476q5 8 7 8h2q4 0 8 -8l294 -550
q30 -55 67 -83q4 -3 10.5 -6.5t9.5 -6t3 -4.5q0 -5 -14 -5q-2 0 -18 0.5t-42 1.5t-52 1q-36 0 -64.5 -0.5t-42.5 -1.5l-14 -1q-10 0 -10 3q0 5 13 8q28 10 28 52q0 26 -45 114zM449 317l-107 208l-105 -208h212zM528 827h37q-28 -119 -116 -119q-32 0 -82 25q-50 24 -65 24
q-20 0 -33.5 -13.5t-18.5 -33.5h-37q8 49 37 82t76 33q32 0 82 -23q48 -24 69 -24q33 0 51 49z" />
    <glyph glyph-name="Adieresis" unicode="&#xc4;" horiz-adv-x="778" 
d="M462 292h-238l-54 -105q-35 -68 -35 -114q0 -15 4 -26t13 -18.5t16.5 -11t20.5 -8.5q11 -3 11 -7q0 -5 -12 -5q-2 0 -15 0.5t-36 1.5t-47 1t-49.5 -1.5t-28.5 -1.5q-13 0 -13 5q0 2 2 4.5t4.5 4t6.5 4t6 3.5q27 22 61.5 71t54.5 87l245 476q5 8 7 8h2q4 0 8 -8l294 -550
q30 -55 67 -83q4 -3 10.5 -6.5t9.5 -6t3 -4.5q0 -5 -14 -5q-2 0 -18 0.5t-42 1.5t-52 1q-36 0 -64.5 -0.5t-42.5 -1.5l-14 -1q-10 0 -10 3q0 5 13 8q28 10 28 52q0 26 -45 114zM449 317l-107 208l-105 -208h212zM492 817q24 0 42 -18t18 -42t-18 -42t-42 -18t-42 18t-18 42
t18 42t42 18zM286 817q24 0 42 -18t18 -42t-18 -42t-42 -18t-42 18t-18 42t18 42t42 18z" />
    <glyph glyph-name="Aring" unicode="&#xc5;" horiz-adv-x="778" 
d="M462 292h-238l-54 -105q-35 -68 -35 -114q0 -15 4 -26t13 -18.5t16.5 -11t20.5 -8.5q11 -3 11 -7q0 -5 -12 -5q-2 0 -15 0.5t-36 1.5t-47 1t-49.5 -1.5t-28.5 -1.5q-13 0 -13 5q0 2 2 4.5t4.5 4t6.5 4t6 3.5q27 22 61.5 71t54.5 87l245 476q5 8 7 8h2q4 0 8 -8l294 -550
q30 -55 67 -83q4 -3 10.5 -6.5t9.5 -6t3 -4.5q0 -5 -14 -5q-2 0 -18 0.5t-42 1.5t-52 1q-36 0 -64.5 -0.5t-42.5 -1.5l-14 -1q-10 0 -10 3q0 5 13 8q28 10 28 52q0 26 -45 114zM449 317l-107 208l-105 -208h212zM389 688q-43 0 -73 30t-30 73t30 73t73 30t73 -30.5t30 -72.5
q0 -43 -30 -73t-73 -30zM389 850q-25 0 -42 -17.5t-17 -41.5q0 -25 17 -42t42 -17t42 17t17 42q0 24 -17 41.5t-42 17.5z" />
    <glyph glyph-name="AE" unicode="&#xc6;" horiz-adv-x="963" 
d="M233 350h199v241q0 24 -20 24q-15 0 -38 -38zM864 640l33 -118l5 -20q0 -4 -5 -4q-1 0 -14 15q-23 25 -37.5 38.5t-40 30.5t-57 25t-70.5 8h-130v-265h100q54 0 96.5 22t54.5 53q5 11 7 11q5 0 5 -17v-165q0 -18 -5 -18q-2 0 -7 11q-18 40 -45.5 59t-73.5 19h-132v-184
q0 -79 20 -97.5t97 -18.5q63 0 137.5 31t123.5 78q23 21 27 21q3 0 3 -3l-2 -8l-44 -144h-533q-17 0 -17 4q0 1 3.5 3l10.5 6t13 8q45 34 45 123v181h-216l-100 -173q-3 -5 -9 -16t-9 -16t-6.5 -13.5t-5 -16.5t-1.5 -17q0 -39 49 -63q16 -7 16 -10t-10 -3q-1 0 -14 0.5
t-33.5 1.5t-40.5 1q-27 0 -48.5 -0.5t-31.5 -1.5l-10 -1q-12 0 -12 3q0 2 10 10q18 16 48.5 51t50.5 67l266 415q22 36 22 57q0 23 -21 29q-18 5 -18 6q0 5 19 5h537z" />
    <glyph glyph-name="Ccedilla" unicode="&#xc7;" horiz-adv-x="759" 
d="M696 162l26 -91q-106 -86 -276 -89l-22 -46q27 3 33 3q86 0 86 -73q0 -44 -39 -63t-88 -19q-56 0 -93 16l17 35q30 -12 62 -12q26 0 41 11t15 30q0 13 -14 24.5t-33 11.5q-17 0 -29 -4l-11 8l34 77q-154 4 -258.5 92t-104.5 247q0 149 112.5 244.5t265.5 95.5
q73 0 150.5 -19.5t136.5 -56.5l-31 -94q-11 -34 -14 -34q-4 0 -11 26q-36 149 -231 153q-53 0 -95 -18.5t-69.5 -49t-46 -72t-26 -85t-7.5 -90.5q0 -59 15 -112.5t46.5 -100.5t88.5 -74.5t134 -27.5q149 0 216 154q1 3 2.5 6.5t2 6t1.5 4.5t2.5 3t2.5 1q4 0 9 -18z" />
    <glyph glyph-name="Egrave" unicode="&#xc8;" horiz-adv-x="722" 
d="M201 615v-265h185q54 0 97 22t54 53q3 9 8 9q4 0 4 -15v-165q0 -21 -4 -21q-2 0 -8 14q-10 26 -29.5 43t-47 24t-49.5 9t-55 2h-155v-211q0 -53 20 -71t73 -18h113q63 0 137.5 31t123.5 78q23 21 27 21q3 0 3 -3l-2 -8l-44 -144h-609q-30 0 -30 4q0 1 5.5 3.5t12.5 6
t10 5.5q27 21 35.5 50t8.5 98v340q0 56 -8 83.5t-36 34.5q-17 7 -17 9q0 6 19 6h565l27 -94q9 -30 9 -37q0 -8 -5 -8q-7 0 -12 9q-30 49 -98.5 77t-143.5 28h-184zM434 688h-51l-163 98q-22 14 -22 34t13.5 34t32.5 14q20 0 48 -28z" />
    <glyph glyph-name="Eacute" unicode="&#xc9;" horiz-adv-x="722" 
d="M201 615v-265h185q54 0 97 22t54 53q3 9 8 9q4 0 4 -15v-165q0 -21 -4 -21q-2 0 -8 14q-10 26 -29.5 43t-47 24t-49.5 9t-55 2h-155v-211q0 -53 20 -71t73 -18h113q63 0 137.5 31t123.5 78q23 21 27 21q3 0 3 -3l-2 -8l-44 -144h-609q-30 0 -30 4q0 1 5.5 3.5t12.5 6
t10 5.5q27 21 35.5 50t8.5 98v340q0 56 -8 83.5t-36 34.5q-17 7 -17 9q0 6 19 6h565l27 -94q9 -30 9 -37q0 -8 -5 -8q-7 0 -12 9q-30 49 -98.5 77t-143.5 28h-184zM327 688h-51l142 152q28 28 48 28q19 0 32.5 -14t13.5 -34t-22 -34z" />
    <glyph glyph-name="Ecircumflex" unicode="&#xca;" horiz-adv-x="722" 
d="M201 615v-265h185q54 0 97 22t54 53q3 9 8 9q4 0 4 -15v-165q0 -21 -4 -21q-2 0 -8 14q-10 26 -29.5 43t-47 24t-49.5 9t-55 2h-155v-211q0 -53 20 -71t73 -18h113q63 0 137.5 31t123.5 78q23 21 27 21q3 0 3 -3l-2 -8l-44 -144h-609q-30 0 -30 4q0 1 5.5 3.5t12.5 6
t10 5.5q27 21 35.5 50t8.5 98v340q0 56 -8 83.5t-36 34.5q-17 7 -17 9q0 6 19 6h565l27 -94q9 -30 9 -37q0 -8 -5 -8q-7 0 -12 9q-30 49 -98.5 77t-143.5 28h-184zM316 860h78l124 -172h-47l-116 100l-114 -100h-48z" />
    <glyph glyph-name="Edieresis" unicode="&#xcb;" horiz-adv-x="722" 
d="M201 615v-265h185q54 0 97 22t54 53q3 9 8 9q4 0 4 -15v-165q0 -21 -4 -21q-2 0 -8 14q-10 26 -29.5 43t-47 24t-49.5 9t-55 2h-155v-211q0 -53 20 -71t73 -18h113q63 0 137.5 31t123.5 78q23 21 27 21q3 0 3 -3l-2 -8l-44 -144h-609q-30 0 -30 4q0 1 5.5 3.5t12.5 6
t10 5.5q27 21 35.5 50t8.5 98v340q0 56 -8 83.5t-36 34.5q-17 7 -17 9q0 6 19 6h565l27 -94q9 -30 9 -37q0 -8 -5 -8q-7 0 -12 9q-30 49 -98.5 77t-143.5 28h-184zM458 817q24 0 42 -18t18 -42t-18 -42t-42 -18t-42 18t-18 42t18 42t42 18zM252 817q24 0 42 -18t18 -42
t-18 -42t-42 -18t-42 18t-18 42t18 42t42 18z" />
    <glyph glyph-name="Igrave" unicode="&#xcc;" horiz-adv-x="296" 
d="M90 108v444q-1 69 -39 78q-11 3 -11 6q0 8 12 8q2 0 19.5 -1t40 -2t36.5 -1t34 1t35 2t17 1q14 0 14 -8q0 -2 -2.5 -3.5t-7 -4t-6.5 -3.5q-26 -17 -26 -55v-462q0 -76 49 -98q14 -7 14 -8q0 -2 -11 -2h-223q-8 0 -8 2q0 1 16 8q27 14 37 36.5t10 61.5zM221 688h-51
l-163 98q-22 14 -22 34t13.5 34t32.5 14q20 0 48 -28z" />
    <glyph glyph-name="Iacute" unicode="&#xcd;" horiz-adv-x="296" 
d="M90 108v444q-1 69 -39 78q-11 3 -11 6q0 8 12 8q2 0 19.5 -1t40 -2t36.5 -1t34 1t35 2t17 1q14 0 14 -8q0 -2 -2.5 -3.5t-7 -4t-6.5 -3.5q-26 -17 -26 -55v-462q0 -76 49 -98q14 -7 14 -8q0 -2 -11 -2h-223q-8 0 -8 2q0 1 16 8q27 14 37 36.5t10 61.5zM114 688h-51
l142 152q28 28 48 28q19 0 32.5 -14t13.5 -34t-22 -34z" />
    <glyph glyph-name="Icircumflex" unicode="&#xce;" horiz-adv-x="296" 
d="M90 108v444q-1 69 -39 78q-11 3 -11 6q0 8 12 8q2 0 19.5 -1t40 -2t36.5 -1t34 1t35 2t17 1q14 0 14 -8q0 -2 -2.5 -3.5t-7 -4t-6.5 -3.5q-26 -17 -26 -55v-462q0 -76 49 -98q14 -7 14 -8q0 -2 -11 -2h-223q-8 0 -8 2q0 1 16 8q27 14 37 36.5t10 61.5zM103 860h78
l124 -172h-47l-116 100l-114 -100h-48z" />
    <glyph glyph-name="Idieresis" unicode="&#xcf;" horiz-adv-x="296" 
d="M90 108v444q-1 69 -39 78q-11 3 -11 6q0 8 12 8q2 0 19.5 -1t40 -2t36.5 -1t34 1t35 2t17 1q14 0 14 -8q0 -2 -2.5 -3.5t-7 -4t-6.5 -3.5q-26 -17 -26 -55v-462q0 -76 49 -98q14 -7 14 -8q0 -2 -11 -2h-223q-8 0 -8 2q0 1 16 8q27 14 37 36.5t10 61.5zM245 817
q24 0 42 -18t18 -42t-18 -42t-42 -18t-42 18t-18 42t18 42t42 18zM39 817q24 0 42 -18t18 -42t-18 -42t-42 -18t-42 18t-18 42t18 42t42 18z" />
    <glyph glyph-name="Eth" unicode="&#xd0;" horiz-adv-x="796" 
d="M206 615v-265h180v-25h-180v-221q0 -42 25.5 -60.5t92.5 -18.5q159 0 226.5 79t67.5 232q0 279 -262 279h-150zM90 350v178q0 45 -8.5 64.5t-30.5 31.5q-17 8 -17 12t14 4h332q161 0 266.5 -88t105.5 -230q0 -55 -22 -110.5t-63.5 -103.5t-110 -78t-152.5 -30h-368
q-23 0 -23 3t18 8q59 19 59 118v196h-86v25h86z" />
    <glyph glyph-name="Ntilde" unicode="&#xd1;" horiz-adv-x="759" 
d="M118 571v-393q0 -133 76 -168l12 -6q0 -4 -22 -4h-168q-9 0 -9 2q0 4 7 4q79 38 79 172v280q0 89 -11.5 122t-36.5 44q-18 8 -18 11q0 5 15 5h166l440 -449v239q0 81 -15.5 131t-62.5 70q-8 3 -8 8t13 5h164q10 0 10 -4t-17 -13q-59 -29 -59 -165v-469q0 -15 -5 -15h-2
q-3 0 -21 18zM531 827h37q-28 -119 -116 -119q-32 0 -82 25q-50 24 -65 24q-20 0 -33.5 -13.5t-18.5 -33.5h-37q8 49 37 82t76 33q32 0 82 -23q48 -24 69 -24q33 0 51 49z" />
    <glyph glyph-name="Ograve" unicode="&#xd2;" horiz-adv-x="833" 
d="M660 320q0 47 -7.5 90.5t-26 85t-46 72t-69.5 49t-95 18.5t-95 -18.5t-69.5 -49t-46 -72t-26 -85t-7.5 -90.5t7.5 -90.5t26 -85t46 -72t69.5 -49t95 -18.5t95 18.5t69.5 49t46 72t26 85t7.5 90.5zM794 320q0 -149 -112.5 -244.5t-265.5 -95.5t-265.5 95.5t-112.5 244.5
t112.5 244.5t265.5 95.5t265.5 -95.5t112.5 -244.5zM496 688h-51l-163 98q-22 14 -22 34t13.5 34t32.5 14q20 0 48 -28z" />
    <glyph glyph-name="Oacute" unicode="&#xd3;" horiz-adv-x="833" 
d="M660 320q0 47 -7.5 90.5t-26 85t-46 72t-69.5 49t-95 18.5t-95 -18.5t-69.5 -49t-46 -72t-26 -85t-7.5 -90.5t7.5 -90.5t26 -85t46 -72t69.5 -49t95 -18.5t95 18.5t69.5 49t46 72t26 85t7.5 90.5zM794 320q0 -149 -112.5 -244.5t-265.5 -95.5t-265.5 95.5t-112.5 244.5
t112.5 244.5t265.5 95.5t265.5 -95.5t112.5 -244.5zM389 688h-51l142 152q28 28 48 28q19 0 32.5 -14t13.5 -34t-22 -34z" />
    <glyph glyph-name="Ocircumflex" unicode="&#xd4;" horiz-adv-x="833" 
d="M660 320q0 47 -7.5 90.5t-26 85t-46 72t-69.5 49t-95 18.5t-95 -18.5t-69.5 -49t-46 -72t-26 -85t-7.5 -90.5t7.5 -90.5t26 -85t46 -72t69.5 -49t95 -18.5t95 18.5t69.5 49t46 72t26 85t7.5 90.5zM794 320q0 -149 -112.5 -244.5t-265.5 -95.5t-265.5 95.5t-112.5 244.5
t112.5 244.5t265.5 95.5t265.5 -95.5t112.5 -244.5zM378 860h78l124 -172h-47l-116 100l-114 -100h-48z" />
    <glyph glyph-name="Otilde" unicode="&#xd5;" horiz-adv-x="833" 
d="M660 320q0 47 -7.5 90.5t-26 85t-46 72t-69.5 49t-95 18.5t-95 -18.5t-69.5 -49t-46 -72t-26 -85t-7.5 -90.5t7.5 -90.5t26 -85t46 -72t69.5 -49t95 -18.5t95 18.5t69.5 49t46 72t26 85t7.5 90.5zM794 320q0 -149 -112.5 -244.5t-265.5 -95.5t-265.5 95.5t-112.5 244.5
t112.5 244.5t265.5 95.5t265.5 -95.5t112.5 -244.5zM556 827h37q-28 -119 -116 -119q-32 0 -82 25q-50 24 -65 24q-20 0 -33.5 -13.5t-18.5 -33.5h-37q8 49 37 82t76 33q32 0 82 -23q48 -24 69 -24q33 0 51 49z" />
    <glyph glyph-name="Odieresis" unicode="&#xd6;" horiz-adv-x="833" 
d="M660 320q0 47 -7.5 90.5t-26 85t-46 72t-69.5 49t-95 18.5t-95 -18.5t-69.5 -49t-46 -72t-26 -85t-7.5 -90.5t7.5 -90.5t26 -85t46 -72t69.5 -49t95 -18.5t95 18.5t69.5 49t46 72t26 85t7.5 90.5zM794 320q0 -149 -112.5 -244.5t-265.5 -95.5t-265.5 95.5t-112.5 244.5
t112.5 244.5t265.5 95.5t265.5 -95.5t112.5 -244.5zM520 817q24 0 42 -18t18 -42t-18 -42t-42 -18t-42 18t-18 42t18 42t42 18zM314 817q24 0 42 -18t18 -42t-18 -42t-42 -18t-42 18t-18 42t18 42t42 18z" />
    <glyph glyph-name="multiply" unicode="&#xd7;" horiz-adv-x="600" 
d="M258 260l-218 218l41 42l219 -217l218 217l42 -42l-218 -218l218 -218l-42 -42l-218 218l-219 -218l-41 42z" />
    <glyph glyph-name="Oslash" unicode="&#xd8;" horiz-adv-x="833" 
d="M617 512l-384 -414q65 -93 183 -93q53 0 95 18.5t69.5 49t46 72t26 85t7.5 90.5q0 113 -43 192zM738 708h62l-127 -136q121 -98 121 -252q0 -149 -112.5 -244.5t-265.5 -95.5q-128 0 -229 68l-105 -112h-62l130 140q-112 97 -112 244q0 149 112.5 244.5t265.5 95.5
q120 0 220 -62zM209 139l383 412q-61 84 -176 84q-53 0 -95 -18.5t-69.5 -49t-46 -72t-26 -85t-7.5 -90.5q0 -104 37 -181z" />
    <glyph glyph-name="Ugrave" unicode="&#xd9;" horiz-adv-x="778" 
d="M210 552v-356q0 -91 59 -141t154 -50q124 0 181 59.5t57 188.5v209q0 133 -68 168q-13 6 -13 10t8 4q12 0 35.5 -2t48.5 -2t52.5 2t29.5 2q15 0 15 -4q0 -2 -15 -13q-67 -42 -68 -165v-208q0 -144 -68.5 -209t-214.5 -65q-50 0 -91 5t-83 19t-70.5 37t-46.5 62.5
t-18 91.5v357q0 71 -43 82q-10 4 -10 6q0 4 15 4q6 0 42 -2t54 -2t54 2t42 2q15 0 15 -4q0 -2 -10 -6q-43 -11 -43 -82zM497 688h-51l-163 98q-22 14 -22 34t13.5 34t32.5 14q20 0 48 -28z" />
    <glyph glyph-name="Uacute" unicode="&#xda;" horiz-adv-x="778" 
d="M210 552v-356q0 -91 59 -141t154 -50q124 0 181 59.5t57 188.5v209q0 133 -68 168q-13 6 -13 10t8 4q12 0 35.5 -2t48.5 -2t52.5 2t29.5 2q15 0 15 -4q0 -2 -15 -13q-67 -42 -68 -165v-208q0 -144 -68.5 -209t-214.5 -65q-50 0 -91 5t-83 19t-70.5 37t-46.5 62.5
t-18 91.5v357q0 71 -43 82q-10 4 -10 6q0 4 15 4q6 0 42 -2t54 -2t54 2t42 2q15 0 15 -4q0 -2 -10 -6q-43 -11 -43 -82zM390 688h-51l142 152q28 28 48 28q19 0 32.5 -14t13.5 -34t-22 -34z" />
    <glyph glyph-name="Ucircumflex" unicode="&#xdb;" horiz-adv-x="778" 
d="M210 552v-356q0 -91 59 -141t154 -50q124 0 181 59.5t57 188.5v209q0 133 -68 168q-13 6 -13 10t8 4q12 0 35.5 -2t48.5 -2t52.5 2t29.5 2q15 0 15 -4q0 -2 -15 -13q-67 -42 -68 -165v-208q0 -144 -68.5 -209t-214.5 -65q-50 0 -91 5t-83 19t-70.5 37t-46.5 62.5
t-18 91.5v357q0 71 -43 82q-10 4 -10 6q0 4 15 4q6 0 42 -2t54 -2t54 2t42 2q15 0 15 -4q0 -2 -10 -6q-43 -11 -43 -82zM379 860h78l124 -172h-47l-116 100l-114 -100h-48z" />
    <glyph glyph-name="Udieresis" unicode="&#xdc;" horiz-adv-x="778" 
d="M210 552v-356q0 -91 59 -141t154 -50q124 0 181 59.5t57 188.5v209q0 133 -68 168q-13 6 -13 10t8 4q12 0 35.5 -2t48.5 -2t52.5 2t29.5 2q15 0 15 -4q0 -2 -15 -13q-67 -42 -68 -165v-208q0 -144 -68.5 -209t-214.5 -65q-50 0 -91 5t-83 19t-70.5 37t-46.5 62.5
t-18 91.5v357q0 71 -43 82q-10 4 -10 6q0 4 15 4q6 0 42 -2t54 -2t54 2t42 2q15 0 15 -4q0 -2 -10 -6q-43 -11 -43 -82zM521 817q24 0 42 -18t18 -42t-18 -42t-42 -18t-42 18t-18 42t18 42t42 18zM315 817q24 0 42 -18t18 -42t-18 -42t-42 -18t-42 18t-18 42t18 42t42 18z
" />
    <glyph glyph-name="Yacute" unicode="&#xdd;" horiz-adv-x="722" 
d="M232 532l172 -220l138 185q47 61 47 91t-25 41q-19 8 -19 11q0 4 14 4q1 0 25 -2t47 -2q21 0 48 2t28 2q13 0 13 -6q0 -1 -1.5 -2t-4 -3t-5.5 -4t-7.5 -4.5t-8.5 -5.5q-18 -13 -51.5 -48t-49.5 -56l-170 -229v-165q0 -60 7.5 -81.5t34.5 -32.5l13 -6q0 -4 -12 -4
q-2 0 -14 0.5t-35 1.5t-52 1t-52 -0.5t-35 -1.5t-14 -1q-12 0 -12 4l13 6q27 11 34.5 32.5t7.5 81.5v149l-203 266q-42 54 -76 80q-6 5 -13.5 9.5t-10 7t-2.5 4.5q0 7 14 7q1 0 22 -1t52 -2t56 -1q31 0 61 2t31 2q12 0 12 -6q0 -4 -16 -9q-31 -13 -31 -35q0 -5 1 -9.5
t1.5 -8t3 -8t3 -6.5t4.5 -7.5t5 -7t6 -8t6 -7.5zM345 688h-51l142 152q28 28 48 28q19 0 32.5 -14t13.5 -34t-22 -34z" />
    <glyph glyph-name="Thorn" unicode="&#xde;" horiz-adv-x="685" 
d="M90 142v410q0 62 -38 79q-14 6 -14 9q0 4 14 4q2 0 19.5 -1t40 -2t36.5 -1t36.5 1t40 2t19.5 1q14 0 14 -4q0 -2 -13 -9q-39 -17 -39 -79v-42h170q45 0 91.5 -7.5t95.5 -25t80 -52.5t31 -83t-35 -84t-91 -54t-112 -26.5t-111 -8.5q-71 0 -119 5v-66q0 -78 54 -95
q28 -8 28 -9q0 -4 -8 -4h-252q-8 0 -8 2q0 1 3.5 2.5t9.5 3t9 3.5q28 16 38 45t10 86zM206 485v-282q29 -9 101 -9q111 0 172 41.5t61 112.5q0 49 -33.5 81.5t-77 44t-95.5 11.5h-128z" />
    <glyph glyph-name="germandbls" unicode="&#xdf;" horiz-adv-x="630" 
d="M285 7l-9 68q0 2 -1.5 10.5t-1.5 11.5q0 6 3 6q4 0 6 -5q9 -36 32.5 -65t56.5 -29q105 0 105 212q0 87 -37 122.5t-119 37.5q-26 1 -34 3t-8 11q0 10 10 10q4 0 11.5 -1.5t8.5 -1.5t6.5 -0.5t10.5 -0.5q34 0 55.5 13t31 38.5t12 48.5t2.5 59q0 73 -35.5 112t-87.5 39
q-58 0 -94.5 -34.5t-36.5 -93.5v-452q0 -54 7.5 -77t40.5 -40q3 -2 7 -3t6 -2t2 -2q0 -2 -8 -2h-206q-12 0 -12 4q0 2 13 8q32 15 39.5 37.5t7.5 76.5v371q0 110 67 169t172 59q109 0 168 -49t59 -130q0 -64 -45 -103.5t-112 -49.5v-2q98 -10 156 -58.5t58 -142.5
t-58.5 -149.5t-152.5 -55.5q-43 0 -96 22z" />
    <glyph glyph-name="agrave" unicode="&#xe0;" horiz-adv-x="611" 
d="M428 230v70h-59q-219 0 -219 -164q0 -55 35.5 -90.5t88.5 -35.5q42 0 73.5 20.5t48 54t24.5 70t8 75.5zM531 368v-281q0 -61 36 -77q10 -5 10 -6q0 -4 -13 -4h-108q-21 48 -24 102h-2q-56 -117 -185 -117q-87 0 -149 42t-62 125q0 36 17 65t47.5 46t64 29t75 17.5
t71.5 7.5t62 2h57v33q0 75 -36.5 119.5t-109.5 44.5q-71 0 -113.5 -25.5t-68.5 -89.5l-8 -17q-1 0 -5 11l-26 90q58 30 110 40t126 10q62 0 112 -14.5t86 -53.5t36 -99zM373 586h-51l-163 98q-22 14 -22 34t13.5 34t32.5 14q20 0 48 -28z" />
    <glyph glyph-name="aacute" unicode="&#xe1;" horiz-adv-x="611" 
d="M428 230v70h-59q-219 0 -219 -164q0 -55 35.5 -90.5t88.5 -35.5q42 0 73.5 20.5t48 54t24.5 70t8 75.5zM531 368v-281q0 -61 36 -77q10 -5 10 -6q0 -4 -13 -4h-108q-21 48 -24 102h-2q-56 -117 -185 -117q-87 0 -149 42t-62 125q0 36 17 65t47.5 46t64 29t75 17.5
t71.5 7.5t62 2h57v33q0 75 -36.5 119.5t-109.5 44.5q-71 0 -113.5 -25.5t-68.5 -89.5l-8 -17q-1 0 -5 11l-26 90q58 30 110 40t126 10q62 0 112 -14.5t86 -53.5t36 -99zM266 586h-51l142 152q28 28 48 28q19 0 32.5 -14t13.5 -34t-22 -34z" />
    <glyph glyph-name="acircumflex" unicode="&#xe2;" horiz-adv-x="611" 
d="M428 230v70h-59q-219 0 -219 -164q0 -55 35.5 -90.5t88.5 -35.5q42 0 73.5 20.5t48 54t24.5 70t8 75.5zM531 368v-281q0 -61 36 -77q10 -5 10 -6q0 -4 -13 -4h-108q-21 48 -24 102h-2q-56 -117 -185 -117q-87 0 -149 42t-62 125q0 36 17 65t47.5 46t64 29t75 17.5
t71.5 7.5t62 2h57v33q0 75 -36.5 119.5t-109.5 44.5q-71 0 -113.5 -25.5t-68.5 -89.5l-8 -17q-1 0 -5 11l-26 90q58 30 110 40t126 10q62 0 112 -14.5t86 -53.5t36 -99zM255 758h78l124 -172h-47l-116 100l-114 -100h-48z" />
    <glyph glyph-name="atilde" unicode="&#xe3;" horiz-adv-x="611" 
d="M428 230v70h-59q-219 0 -219 -164q0 -55 35.5 -90.5t88.5 -35.5q42 0 73.5 20.5t48 54t24.5 70t8 75.5zM531 368v-281q0 -61 36 -77q10 -5 10 -6q0 -4 -13 -4h-108q-21 48 -24 102h-2q-56 -117 -185 -117q-87 0 -149 42t-62 125q0 36 17 65t47.5 46t64 29t75 17.5
t71.5 7.5t62 2h57v33q0 75 -36.5 119.5t-109.5 44.5q-71 0 -113.5 -25.5t-68.5 -89.5l-8 -17q-1 0 -5 11l-26 90q58 30 110 40t126 10q62 0 112 -14.5t86 -53.5t36 -99zM433 725h37q-28 -119 -116 -119q-32 0 -82 25q-50 24 -65 24q-20 0 -33.5 -13.5t-18.5 -33.5h-37
q8 49 37 82t76 33q32 0 82 -23q48 -24 69 -24q33 0 51 49z" />
    <glyph glyph-name="adieresis" unicode="&#xe4;" horiz-adv-x="611" 
d="M428 230v70h-59q-219 0 -219 -164q0 -55 35.5 -90.5t88.5 -35.5q42 0 73.5 20.5t48 54t24.5 70t8 75.5zM531 368v-281q0 -61 36 -77q10 -5 10 -6q0 -4 -13 -4h-108q-21 48 -24 102h-2q-56 -117 -185 -117q-87 0 -149 42t-62 125q0 36 17 65t47.5 46t64 29t75 17.5
t71.5 7.5t62 2h57v33q0 75 -36.5 119.5t-109.5 44.5q-71 0 -113.5 -25.5t-68.5 -89.5l-8 -17q-1 0 -5 11l-26 90q58 30 110 40t126 10q62 0 112 -14.5t86 -53.5t36 -99zM397 715q24 0 42 -18t18 -42t-18 -42t-42 -18t-42 18t-18 42t18 42t42 18zM191 715q24 0 42 -18t18 -42
t-18 -42t-42 -18t-42 18t-18 42t18 42t42 18z" />
    <glyph glyph-name="aring" unicode="&#xe5;" horiz-adv-x="611" 
d="M428 230v70h-59q-219 0 -219 -164q0 -55 35.5 -90.5t88.5 -35.5q42 0 73.5 20.5t48 54t24.5 70t8 75.5zM531 368v-281q0 -61 36 -77q10 -5 10 -6q0 -4 -13 -4h-108q-21 48 -24 102h-2q-56 -117 -185 -117q-87 0 -149 42t-62 125q0 36 17 65t47.5 46t64 29t75 17.5
t71.5 7.5t62 2h57v33q0 75 -36.5 119.5t-109.5 44.5q-71 0 -113.5 -25.5t-68.5 -89.5l-8 -17q-1 0 -5 11l-26 90q58 30 110 40t126 10q62 0 112 -14.5t86 -53.5t36 -99zM294 586q-44 0 -73.5 30t-29.5 73t30 73t73 30t73 -30.5t30 -72.5q0 -43 -30 -73t-73 -30zM294 748
q-25 0 -42 -17.5t-17 -41.5q0 -25 17 -42t42 -17t42 17t17 42q0 24 -17 41.5t-42 17.5z" />
    <glyph glyph-name="ae" unicode="&#xe6;" horiz-adv-x="1000" 
d="M531 349h302q0 75 -39.5 121t-111.5 46q-64 0 -103 -48t-48 -119zM959 330h-432q-3 -34 -3 -65q0 -130 56 -192.5t137 -62.5q85 0 146.5 53t87.5 143h21q-24 -104 -95 -162.5t-173 -58.5q-103 0 -164 37.5t-98 112.5q-47 -150 -204 -150q-87 0 -149 42t-62 125
q0 36 17 65t47.5 46t64 29t75 17.5t71.5 7.5t62 2h57v33q0 73 -39.5 118.5t-106.5 45.5q-141 0 -181 -116q-4 -16 -9 -16q-4 0 -7 11l-23 88q57 32 109 42t126 10q68 0 116.5 -17t90.5 -56q77 73 207 73q88 0 166.5 -54t88.5 -151zM421 230v70h-59q-219 0 -219 -164
q0 -55 35.5 -90.5t88.5 -35.5q42 0 73.5 20.5t48 54t24.5 70t8 75.5z" />
    <glyph glyph-name="ccedilla" unicode="&#xe7;" horiz-adv-x="593" 
d="M552 475l-23 -78q-8 -27 -12 -27q-2 0 -6 12q-47 134 -183 134q-62 0 -104 -40t-58 -95t-17 -121q0 -126 57.5 -188t135.5 -62q62 0 117 37.5t84 94.5l16 -16q-40 -68 -91.5 -102.5t-125.5 -37.5l-24 -50q27 3 33 3q86 0 86 -73q0 -44 -39 -63t-88 -19q-56 0 -93 16
l17 35q30 -12 62 -12q26 0 41 11t15 30q0 13 -14 24.5t-33 11.5q-17 0 -29 -4l-11 8l37 83q-118 8 -193.5 84t-75.5 189q0 120 84 197.5t212 77.5q48 0 118.5 -17.5t104.5 -42.5z" />
    <glyph glyph-name="egrave" unicode="&#xe8;" horiz-adv-x="630" 
d="M156 349h302q0 77 -38 122t-113 45q-64 0 -103 -48t-48 -119zM584 330h-432q-3 -34 -3 -65q0 -130 56 -192.5t137 -62.5q85 0 146.5 53t87.5 143h21q-24 -104 -95 -162.5t-173 -58.5q-128 0 -212 77.5t-84 197.5t84 197.5t212 77.5q91 0 168 -54t87 -151zM406 586h-51
l-163 98q-22 14 -22 34t13.5 34t32.5 14q20 0 48 -28z" />
    <glyph glyph-name="eacute" unicode="&#xe9;" horiz-adv-x="630" 
d="M156 349h302q0 77 -38 122t-113 45q-64 0 -103 -48t-48 -119zM584 330h-432q-3 -34 -3 -65q0 -130 56 -192.5t137 -62.5q85 0 146.5 53t87.5 143h21q-24 -104 -95 -162.5t-173 -58.5q-128 0 -212 77.5t-84 197.5t84 197.5t212 77.5q91 0 168 -54t87 -151zM299 586h-51
l142 152q28 28 48 28q19 0 32.5 -14t13.5 -34t-22 -34z" />
    <glyph glyph-name="ecircumflex" unicode="&#xea;" horiz-adv-x="630" 
d="M156 349h302q0 77 -38 122t-113 45q-64 0 -103 -48t-48 -119zM584 330h-432q-3 -34 -3 -65q0 -130 56 -192.5t137 -62.5q85 0 146.5 53t87.5 143h21q-24 -104 -95 -162.5t-173 -58.5q-128 0 -212 77.5t-84 197.5t84 197.5t212 77.5q91 0 168 -54t87 -151zM288 758h78
l124 -172h-47l-116 100l-114 -100h-48z" />
    <glyph glyph-name="edieresis" unicode="&#xeb;" horiz-adv-x="630" 
d="M156 349h302q0 77 -38 122t-113 45q-64 0 -103 -48t-48 -119zM584 330h-432q-3 -34 -3 -65q0 -130 56 -192.5t137 -62.5q85 0 146.5 53t87.5 143h21q-24 -104 -95 -162.5t-173 -58.5q-128 0 -212 77.5t-84 197.5t84 197.5t212 77.5q91 0 168 -54t87 -151zM430 715
q24 0 42 -18t18 -42t-18 -42t-42 -18t-42 18t-18 42t18 42t42 18zM224 715q24 0 42 -18t18 -42t-18 -42t-42 -18t-42 18t-18 42t18 42t42 18z" />
    <glyph glyph-name="igrave" unicode="&#xec;" horiz-adv-x="278" 
d="M88 126v291q0 7 -0.5 13.5t-1.5 11.5t-2.5 9.5t-3 7.5t-4 6t-4 4.5t-5 4t-4.5 3l-5 2.5t-5 3q-2 1 -6.5 2t-7.5 2t-3 2t18 4q64 12 137 32v-398q0 -54 10 -82.5t42 -34.5q10 -2 10 -9q0 -3 -14 -3q-3 0 -17 0.5t-36.5 1.5t-46.5 1t-46.5 -0.5t-36.5 -1.5t-17 -1
q-14 0 -14 3q0 7 10 9q32 6 42.5 34.5t10.5 82.5zM212 586h-51l-163 98q-22 14 -22 34t13.5 34t32.5 14q20 0 48 -28z" />
    <glyph glyph-name="iacute" unicode="&#xed;" horiz-adv-x="278" 
d="M88 126v291q0 7 -0.5 13.5t-1.5 11.5t-2.5 9.5t-3 7.5t-4 6t-4 4.5t-5 4t-4.5 3l-5 2.5t-5 3q-2 1 -6.5 2t-7.5 2t-3 2t18 4q64 12 137 32v-398q0 -54 10 -82.5t42 -34.5q10 -2 10 -9q0 -3 -14 -3q-3 0 -17 0.5t-36.5 1.5t-46.5 1t-46.5 -0.5t-36.5 -1.5t-17 -1
q-14 0 -14 3q0 7 10 9q32 6 42.5 34.5t10.5 82.5zM105 586h-51l142 152q28 28 48 28q19 0 32.5 -14t13.5 -34t-22 -34z" />
    <glyph glyph-name="icircumflex" unicode="&#xee;" horiz-adv-x="278" 
d="M88 126v291q0 7 -0.5 13.5t-1.5 11.5t-2.5 9.5t-3 7.5t-4 6t-4 4.5t-5 4t-4.5 3l-5 2.5t-5 3q-2 1 -6.5 2t-7.5 2t-3 2t18 4q64 12 137 32v-398q0 -54 10 -82.5t42 -34.5q10 -2 10 -9q0 -3 -14 -3q-3 0 -17 0.5t-36.5 1.5t-46.5 1t-46.5 -0.5t-36.5 -1.5t-17 -1
q-14 0 -14 3q0 7 10 9q32 6 42.5 34.5t10.5 82.5zM94 758h78l124 -172h-47l-116 100l-114 -100h-48z" />
    <glyph glyph-name="idieresis" unicode="&#xef;" horiz-adv-x="278" 
d="M88 126v291q0 7 -0.5 13.5t-1.5 11.5t-2.5 9.5t-3 7.5t-4 6t-4 4.5t-5 4t-4.5 3l-5 2.5t-5 3q-2 1 -6.5 2t-7.5 2t-3 2t18 4q64 12 137 32v-398q0 -54 10 -82.5t42 -34.5q10 -2 10 -9q0 -3 -14 -3q-3 0 -17 0.5t-36.5 1.5t-46.5 1t-46.5 -0.5t-36.5 -1.5t-17 -1
q-14 0 -14 3q0 7 10 9q32 6 42.5 34.5t10.5 82.5zM236 715q24 0 42 -18t18 -42t-18 -42t-42 -18t-42 18t-18 42t18 42t42 18zM30 715q24 0 42 -18t18 -42t-18 -42t-42 -18t-42 18t-18 42t18 42t42 18z" />
    <glyph glyph-name="eth" unicode="&#xf0;" horiz-adv-x="667" 
d="M153 260q0 -256 180 -256q181 0 181 256t-181 256q-180 0 -180 -256zM148 562l-8 28l172 52q-51 42 -102 72l18 11q69 -29 133 -69l223 66l8 -28l-200 -59q103 -70 169.5 -160.5t68.5 -194.5q0 -133 -83.5 -214t-213.5 -81q-128 0 -212 77.5t-84 197.5t84 197.5t212 77.5
q47 0 97 -15l2 2q-40 51 -92 97z" />
    <glyph glyph-name="ntilde" unicode="&#xf1;" 
d="M166 524v-144h2q20 72 66 113.5t138 41.5t152.5 -52.5t60.5 -163.5v-193q-1 -67 7.5 -89t32.5 -30q13 -4 13 -7t-15 -3q-2 0 -13.5 0.5t-32 1.5t-44.5 1q-32 0 -67 -1.5t-36 -1.5q-11 0 -11 3q0 5 9 6q28 3 41 29.5t13 90.5v194q0 78 -36.5 134t-110.5 56
q-83 0 -120.5 -73t-37.5 -189v-122q0 -28 1.5 -44.5t6 -34t14.5 -27t26 -12.5q11 -2 11 -6q0 -5 -9 -5q-2 0 -16.5 0.5t-38 1.5t-47.5 1t-49 -0.5t-40.5 -1.5t-17.5 -1q-9 0 -9 5q0 4 11 6q34 5 44 33.5t10 84.5v248q0 48 -7.5 72.5t-27.5 33.5q-18 8 -18 10t19 5
q93 17 126 29zM463 725h37q-28 -119 -116 -119q-32 0 -82 25q-50 24 -65 24q-20 0 -33.5 -13.5t-18.5 -33.5h-37q8 49 37 82t76 33q32 0 82 -23q48 -24 69 -24q33 0 51 49z" />
    <glyph glyph-name="ograve" unicode="&#xf2;" horiz-adv-x="667" 
d="M153 260q0 -256 180 -256q181 0 181 256t-181 256q-180 0 -180 -256zM37 260q0 120 84 197.5t212 77.5q129 0 213 -77.5t84 -197.5t-84 -197.5t-213 -77.5q-128 0 -212 77.5t-84 197.5zM413 586h-51l-163 98q-22 14 -22 34t13.5 34t32.5 14q20 0 48 -28z" />
    <glyph glyph-name="oacute" unicode="&#xf3;" horiz-adv-x="667" 
d="M153 260q0 -256 180 -256q181 0 181 256t-181 256q-180 0 -180 -256zM37 260q0 120 84 197.5t212 77.5q129 0 213 -77.5t84 -197.5t-84 -197.5t-213 -77.5q-128 0 -212 77.5t-84 197.5zM306 586h-51l142 152q28 28 48 28q19 0 32.5 -14t13.5 -34t-22 -34z" />
    <glyph glyph-name="ocircumflex" unicode="&#xf4;" horiz-adv-x="667" 
d="M153 260q0 -256 180 -256q181 0 181 256t-181 256q-180 0 -180 -256zM37 260q0 120 84 197.5t212 77.5q129 0 213 -77.5t84 -197.5t-84 -197.5t-213 -77.5q-128 0 -212 77.5t-84 197.5zM295 758h78l124 -172h-47l-116 100l-114 -100h-48z" />
    <glyph glyph-name="otilde" unicode="&#xf5;" horiz-adv-x="667" 
d="M153 260q0 -256 180 -256q181 0 181 256t-181 256q-180 0 -180 -256zM37 260q0 120 84 197.5t212 77.5q129 0 213 -77.5t84 -197.5t-84 -197.5t-213 -77.5q-128 0 -212 77.5t-84 197.5zM473 725h37q-28 -119 -116 -119q-32 0 -82 25q-50 24 -65 24q-20 0 -33.5 -13.5
t-18.5 -33.5h-37q8 49 37 82t76 33q32 0 82 -23q48 -24 69 -24q33 0 51 49z" />
    <glyph glyph-name="odieresis" unicode="&#xf6;" horiz-adv-x="667" 
d="M153 260q0 -256 180 -256q181 0 181 256t-181 256q-180 0 -180 -256zM37 260q0 120 84 197.5t212 77.5q129 0 213 -77.5t84 -197.5t-84 -197.5t-213 -77.5q-128 0 -212 77.5t-84 197.5zM437 715q24 0 42 -18t18 -42t-18 -42t-42 -18t-42 18t-18 42t18 42t42 18zM231 715
q24 0 42 -18t18 -42t-18 -42t-42 -18t-42 18t-18 42t18 42t42 18z" />
    <glyph glyph-name="divide" unicode="&#xf7;" horiz-adv-x="600" 
d="M560 230h-520v60h520v-60zM300 408q-24 0 -42 18t-18 42t18 42t42 18t42 -18t18 -42t-18 -42t-42 -18zM300 -8q-24 0 -42 18t-18 42t18 42t42 18t42 -18t18 -42t-18 -42t-42 -18z" />
    <glyph glyph-name="oslash" unicode="&#xf8;" horiz-adv-x="667" 
d="M171 127l307 307q-44 82 -145 82q-180 0 -180 -256q0 -79 18 -133zM613 569h56l-117 -117q78 -77 78 -192q0 -120 -84 -197.5t-213 -77.5q-108 0 -189 60l-93 -93h-56l119 118q-77 75 -77 190q0 120 84 197.5t212 77.5q108 0 188 -58zM495 395l-307 -307q44 -84 145 -84
q181 0 181 256q0 79 -19 135z" />
    <glyph glyph-name="ugrave" unicode="&#xf9;" 
d="M575 524v-397q0 -62 11.5 -87t43.5 -33q6 -1 6 -3q0 -4 -13 -4h-119q-23 51 -26 115h-2q-25 -67 -71.5 -98.5t-123.5 -31.5q-110 0 -161.5 49t-51.5 167v202q0 44 -5.5 58.5t-26.5 21.5q-15 4 -15 8q0 2 15 4q55 7 135 29v-324q0 -78 36.5 -134t110.5 -56
q73 0 113.5 57.5t40.5 134.5v201q0 42 -7 58.5t-22 24.5q-4 2 -9 5q-4 1 -4 2q0 3 16 6q69 11 129 25zM397 586h-51l-163 98q-22 14 -22 34t13.5 34t32.5 14q20 0 48 -28z" />
    <glyph glyph-name="uacute" unicode="&#xfa;" 
d="M575 524v-397q0 -62 11.5 -87t43.5 -33q6 -1 6 -3q0 -4 -13 -4h-119q-23 51 -26 115h-2q-25 -67 -71.5 -98.5t-123.5 -31.5q-110 0 -161.5 49t-51.5 167v202q0 44 -5.5 58.5t-26.5 21.5q-15 4 -15 8q0 2 15 4q55 7 135 29v-324q0 -78 36.5 -134t110.5 -56
q73 0 113.5 57.5t40.5 134.5v201q0 42 -7 58.5t-22 24.5q-4 2 -9 5q-4 1 -4 2q0 3 16 6q69 11 129 25zM290 586h-51l142 152q28 28 48 28q19 0 32.5 -14t13.5 -34t-22 -34z" />
    <glyph glyph-name="ucircumflex" unicode="&#xfb;" 
d="M575 524v-397q0 -62 11.5 -87t43.5 -33q6 -1 6 -3q0 -4 -13 -4h-119q-23 51 -26 115h-2q-25 -67 -71.5 -98.5t-123.5 -31.5q-110 0 -161.5 49t-51.5 167v202q0 44 -5.5 58.5t-26.5 21.5q-15 4 -15 8q0 2 15 4q55 7 135 29v-324q0 -78 36.5 -134t110.5 -56
q73 0 113.5 57.5t40.5 134.5v201q0 42 -7 58.5t-22 24.5q-4 2 -9 5q-4 1 -4 2q0 3 16 6q69 11 129 25zM279 758h78l124 -172h-47l-116 100l-114 -100h-48z" />
    <glyph glyph-name="udieresis" unicode="&#xfc;" 
d="M575 524v-397q0 -62 11.5 -87t43.5 -33q6 -1 6 -3q0 -4 -13 -4h-119q-23 51 -26 115h-2q-25 -67 -71.5 -98.5t-123.5 -31.5q-110 0 -161.5 49t-51.5 167v202q0 44 -5.5 58.5t-26.5 21.5q-15 4 -15 8q0 2 15 4q55 7 135 29v-324q0 -78 36.5 -134t110.5 -56
q73 0 113.5 57.5t40.5 134.5v201q0 42 -7 58.5t-22 24.5q-4 2 -9 5q-4 1 -4 2q0 3 16 6q69 11 129 25zM421 715q24 0 42 -18t18 -42t-18 -42t-42 -18t-42 18t-18 42t18 42t42 18zM215 715q24 0 42 -18t18 -42t-18 -42t-42 -18t-42 18t-18 42t18 42t42 18z" />
    <glyph glyph-name="yacute" unicode="&#xfd;" 
d="M522 358l-181 -349q-63 -126 -121 -168q-56 -42 -154 -39l31 85q8 23 9 23q3 0 3 -4q14 -36 73 -36q46 0 72.5 37.5t26.5 84.5q0 39 -53 148l-149 299q-11 20 -17 30t-19 23.5t-29 21.5q-5 3 -5 6q0 4 14 4q13 0 40.5 -2t56.5 -2q27 0 53 2t40 2t14 -4t-6 -5
q-1 -1 -8.5 -3.5t-9.5 -3.5t-7.5 -4.5t-7 -7t-3.5 -10.5t-2 -15q0 -35 31 -88l148 -275l89 171q62 124 62 170q0 48 -45 61q-9 3 -9 10q0 4 12 4q1 0 27 -2t52 -2q18 0 35.5 1t28.5 2t13 1q12 0 12 -4t-5 -7q-23 -15 -57.5 -66t-54.5 -89zM296 586h-51l142 152q28 28 48 28
q19 0 32.5 -14t13.5 -34t-22 -34z" />
    <glyph glyph-name="thorn" unicode="&#xfe;" horiz-adv-x="667" 
d="M166 260q0 -74 17.5 -127t46 -77.5t55.5 -35t56 -10.5q22 0 43.5 5.5t46 22.5t42.5 43t30 72.5t12 106.5t-12 106.5t-30 72.5t-42.5 43t-46 22.5t-43.5 5.5q-29 0 -56 -10.5t-55.5 -35t-46 -77.5t-17.5 -127zM68 -68v672q0 66 -35 74q-14 6 -14 7q0 6 15 8q64 12 137 32
v-305h2q51 115 199 115q99 0 179 -76t80 -199q0 -107 -78 -191t-181 -84q-51 0 -90.5 14t-58.5 29.5t-52 47.5v-105q0 -143 42 -155q23 -7 23 -10v-2q0 -2 -18 -2q-1 0 -34.5 1t-63.5 1q-8 0 -32 -1t-48 -1q-26 0 -26 3v1q0 3 11 6q27 7 35 29.5t8 90.5z" />
    <glyph glyph-name="ydieresis" unicode="&#xff;" 
d="M522 358l-181 -349q-63 -126 -121 -168q-56 -42 -154 -39l31 85q8 23 9 23q3 0 3 -4q14 -36 73 -36q46 0 72.5 37.5t26.5 84.5q0 39 -53 148l-149 299q-11 20 -17 30t-19 23.5t-29 21.5q-5 3 -5 6q0 4 14 4q13 0 40.5 -2t56.5 -2q27 0 53 2t40 2t14 -4t-6 -5
q-1 -1 -8.5 -3.5t-9.5 -3.5t-7.5 -4.5t-7 -7t-3.5 -10.5t-2 -15q0 -35 31 -88l148 -275l89 171q62 124 62 170q0 48 -45 61q-9 3 -9 10q0 4 12 4q1 0 27 -2t52 -2q18 0 35.5 1t28.5 2t13 1q12 0 12 -4t-5 -7q-23 -15 -57.5 -66t-54.5 -89zM427 715q24 0 42 -18t18 -42
t-18 -42t-42 -18t-42 18t-18 42t18 42t42 18zM221 715q24 0 42 -18t18 -42t-18 -42t-42 -18t-42 18t-18 42t18 42t42 18z" />
    <glyph glyph-name="dotlessi" unicode="&#x131;" horiz-adv-x="278" 
d="M88 126v291q0 7 -0.5 13.5t-1.5 11.5t-2.5 9.5t-3 7.5t-4 6t-4 4.5t-5 4t-4.5 3l-5 2.5t-5 3q-2 1 -6.5 2t-7.5 2t-3 2t18 4q64 12 137 32v-398q0 -54 10 -82.5t42 -34.5q10 -2 10 -9q0 -3 -14 -3q-3 0 -17 0.5t-36.5 1.5t-46.5 1t-46.5 -0.5t-36.5 -1.5t-17 -1
q-14 0 -14 3q0 7 10 9q32 6 42.5 34.5t10.5 82.5z" />
    <glyph glyph-name="Lslash" unicode="&#x141;" horiz-adv-x="685" 
d="M210 552v-195l166 72v-25l-166 -72v-199q0 -70 26.5 -89t96.5 -19h53q66 0 142.5 32.5t120.5 83.5q3 4 7 9t6 8t4 5t4 2q6 0 6 -7q0 -2 -2 -7t-2 -7l-41 -144h-588q-22 0 -22 5q0 1 24 9q29 12 39 43.5t10 99.5v124l-74 -32v25l74 32v246q0 66 -43 80q-10 4 -10 8t15 4
q6 0 42 -2t54 -2t54 2t42 2q12 0 12 -5q0 -1 -9 -6q-41 -18 -41 -81z" />
    <glyph glyph-name="lslash" unicode="&#x142;" horiz-adv-x="278" 
d="M88 373v231q0 37 -7.5 53.5t-26.5 20.5q-15 2 -15 8q0 5 15 7q64 12 137 32v-291l73 44v-27l-73 -44v-281q0 -37 2.5 -56t15.5 -37t39 -27q6 -3 6 -6t-9 -3l-11 1q-12 0 -37 1t-58 1q-24 0 -48 -0.5t-39 -1.5t-17 -1q-10 0 -10 3t6 6q38 16 47.5 41t9.5 79v220l-74 -44
v27z" />
    <glyph glyph-name="OE" unicode="&#x152;" horiz-adv-x="1000" 
d="M597 615v-265h100q50 0 83 11t46.5 24t25.5 35q8 12 10 12q4 0 4 -15v-163q0 -20 -4 -20q-1 0 -9 16q-19 42 -52 58.5t-101 16.5h-103v-181q-4 -77 13 -98t92 -21q51 0 91.5 8.5t71.5 27t48 32.5t41 38q22 24 23 24q3 0 3 -3l-2 -8l-44 -144h-389q-21 0 -83 -4
q-60 -4 -108 -4q-85 0 -149 27.5t-100 75t-53.5 104t-17.5 121.5q0 150 89.5 239t264.5 89q25 0 79 -4q52 -4 78 -4h360l29 -125q7 -21 7 -29q0 -5 -4 -5q-3 0 -8 10q-27 63 -63.5 93.5t-98.5 30.5h-170zM494 136v387q0 47 -6.5 65t-31 26.5t-84.5 8.5q-222 0 -222 -303
q0 -52 5 -94t19 -82t36.5 -67t59.5 -43.5t86 -16.5q51 0 78 4t41 20.5t16.5 34.5t2.5 60z" />
    <glyph glyph-name="oe" unicode="&#x153;" horiz-adv-x="1000" 
d="M566 349h266q0 69 -30.5 118t-98.5 49q-59 0 -93.5 -46t-43.5 -121zM958 330h-395q-4 -31 -4 -69q0 -48 10 -91t30.5 -79.5t57.5 -58.5t87 -22q64 -1 123 54t81 140h21q-24 -103 -95 -161t-173 -58q-127 3 -193 107q-41 -57 -91 -82t-118 -25q-119 0 -196 77.5t-77 197.5
t77 197.5t196 77.5q141 0 208 -107q32 49 83 78t113 29q91 0 168 -54t87 -151zM456 260q0 39 -2.5 69.5t-11.5 67.5t-25 61t-46.5 41t-71.5 17t-71.5 -17t-46.5 -41t-25 -61t-11.5 -67.5t-2.5 -69.5t2.5 -69.5t11.5 -67.5t25 -61t46.5 -41t71.5 -17t71.5 17t46.5 41t25 61
t11.5 67.5t2.5 69.5z" />
    <glyph glyph-name="Scaron" unicode="&#x160;" horiz-adv-x="685" 
d="M606 617l-28 -96q-7 -21 -10 -21q-2 0 -5 6q-21 58 -73 93.5t-139 35.5q-187 0 -187 -119q0 -22 6 -39.5t14 -30t25.5 -22t30.5 -15t40.5 -10.5t44.5 -7.5t52 -6.5t55 -7q206 -28 206 -169q0 -63 -30 -109.5t-80 -71.5t-104 -36.5t-113 -11.5q-82 0 -140.5 13t-151.5 46
l32 119q6 22 11 22t7 -13q10 -70 84.5 -116t150.5 -46q41 0 76.5 6.5t70 21.5t55 45.5t20.5 73.5q0 23 -5.5 41t-19 30t-25 20t-34 14t-34.5 8t-39 6t-36 5q-34 4 -58.5 8t-61 12.5t-62 21.5t-50 31.5t-37 45.5t-12.5 61q0 47 18 84t47 59t69.5 36t80 19.5t83.5 5.5
q142 0 256 -43zM394 688h-78l-123 172h48l114 -101l116 101h47z" />
    <glyph glyph-name="scaron" unicode="&#x161;" horiz-adv-x="574" 
d="M500 497l-25 -75q-5 -12 -9 -12q-6 0 -7 8q-7 42 -53.5 70t-108.5 28q-63 0 -104.5 -29.5t-41.5 -90.5q0 -25 14.5 -43t41.5 -27.5t55.5 -14t67.5 -7.5q107 -7 155.5 -39t48.5 -103q0 -51 -27 -87.5t-71 -55t-89 -26.5t-92 -8q-129 0 -236 40l21 83q5 19 9 19t6 -9
q7 -37 45 -64t80.5 -38.5t80.5 -11.5q43 0 79.5 10t65 38.5t28.5 71.5q0 53 -39 70.5t-138 25.5q-206 19 -206 147q0 49 25 84t66.5 52t83.5 24.5t88 7.5q93 0 186 -38zM326 586h-78l-123 172h48l114 -101l116 101h47z" />
    <glyph glyph-name="Ydieresis" unicode="&#x178;" horiz-adv-x="722" 
d="M232 532l172 -220l138 185q47 61 47 91t-25 41q-19 8 -19 11q0 4 14 4q1 0 25 -2t47 -2q21 0 48 2t28 2q13 0 13 -6q0 -1 -1.5 -2t-4 -3t-5.5 -4t-7.5 -4.5t-8.5 -5.5q-18 -13 -51.5 -48t-49.5 -56l-170 -229v-165q0 -60 7.5 -81.5t34.5 -32.5l13 -6q0 -4 -12 -4
q-2 0 -14 0.5t-35 1.5t-52 1t-52 -0.5t-35 -1.5t-14 -1q-12 0 -12 4l13 6q27 11 34.5 32.5t7.5 81.5v149l-203 266q-42 54 -76 80q-6 5 -13.5 9.5t-10 7t-2.5 4.5q0 7 14 7q1 0 22 -1t52 -2t56 -1q31 0 61 2t31 2q12 0 12 -6q0 -4 -16 -9q-31 -13 -31 -35q0 -5 1 -9.5
t1.5 -8t3 -8t3 -6.5t4.5 -7.5t5 -7t6 -8t6 -7.5zM476 817q24 0 42 -18t18 -42t-18 -42t-42 -18t-42 18t-18 42t18 42t42 18zM270 817q24 0 42 -18t18 -42t-18 -42t-42 -18t-42 18t-18 42t18 42t42 18z" />
    <glyph glyph-name="Zcaron" unicode="&#x17d;" 
d="M608 640l-356 -530q-28 -47 -28 -53q0 -18 18.5 -25t67.5 -7q205 0 297 107q15 17 19 17q3 0 3 -4q0 -5 -4 -17l-42 -128h-554l383 541q23 33 23 47q0 27 -51 27h-88q-88 0 -135.5 -23t-103.5 -77q-7 -6 -10 -6t-3 4q0 6 7 25l37 102h520zM375 688h-78l-123 172h48
l114 -101l116 101h47z" />
    <glyph glyph-name="zcaron" unicode="&#x17e;" horiz-adv-x="593" 
d="M544 520l-298 -405q-50 -67 -50 -73q0 -17 54 -17q100 0 170 18.5t127 75.5q11 13 15 13q3 0 3 -4q0 -2 -7 -26l-37 -102h-493l341 438q24 31 24 39q0 12 -15.5 15t-48.5 3q-100 0 -155 -18t-110 -83q-6 -6 -8 -6t-2 4q2 10 4 16l41 112h445zM336 586h-78l-123 172h48
l114 -101l116 101h47z" />
    <glyph glyph-name="florin" unicode="&#x192;" 
d="M334 440h-94l11 32h88q36 253 343 253l-41 -88q-6 -14 -12 -14q-3 0 -16 20q-9 17 -28 28.5t-39 11.5q-55 0 -81 -154q-1 -5 -1 -7l-8 -50h107l-11 -32h-99l-21 -146q-1 -8 -3 -26q-7 -65 -13 -103.5t-19.5 -98.5t-36.5 -106t-55 -80q-73 -78 -224 -78q-20 0 -60 4l47 74
q14 20 19 20q8 0 12 -13q8 -19 25 -34t38 -15q20 0 36 13.5t27 40t16.5 44.5t12.5 50q25 104 40 216z" />
    <glyph glyph-name="circumflex" unicode="&#x2c6;" horiz-adv-x="278" 
d="M100 758h78l124 -172h-47l-116 100l-114 -100h-48z" />
    <glyph glyph-name="caron" unicode="&#x2c7;" horiz-adv-x="278" 
d="M178 586h-78l-123 172h48l114 -101l116 101h47z" />
    <glyph glyph-name="uni02C9" unicode="&#x2c9;" horiz-adv-x="278" 
d="M301 625h-323v65h323v-65z" />
    <glyph glyph-name="breve" unicode="&#x2d8;" horiz-adv-x="278" 
d="M-8 745h38q7 -41 34 -65t68 -24q102 0 116 91h38q-5 -74 -44 -117.5t-111 -43.5q-66 0 -103.5 46t-35.5 113z" />
    <glyph glyph-name="dotaccent" unicode="&#x2d9;" horiz-adv-x="278" 
d="M139 715q24 0 42 -18t18 -42t-18 -42t-42 -18t-42 18t-18 42t18 42t42 18z" />
    <glyph glyph-name="ring" unicode="&#x2da;" horiz-adv-x="278" 
d="M139 586q-43 0 -73 30t-30 73t30 73t73 30t73 -30.5t30 -72.5q0 -43 -30 -73t-73 -30zM139 748q-25 0 -42 -17.5t-17 -41.5q0 -25 17 -42t42 -17t42 17t17 42q0 24 -17 41.5t-42 17.5z" />
    <glyph glyph-name="ogonek" unicode="&#x2db;" horiz-adv-x="278" 
d="M246 -157l12 -40q-45 -19 -96 -19t-85.5 22.5t-34.5 70.5q0 53 48 88t111 44h55q-63 -20 -96 -52t-33 -67q0 -25 15.5 -46t39.5 -21q28 0 64 20z" />
    <glyph glyph-name="tilde" unicode="&#x2dc;" horiz-adv-x="278" 
d="M278 725h37q-28 -119 -116 -119q-32 0 -82 25q-50 24 -65 24q-20 0 -33.5 -13.5t-18.5 -33.5h-37q8 49 37 82t76 33q32 0 82 -23q48 -24 69 -24q33 0 51 49z" />
    <glyph glyph-name="hungarumlaut" unicode="&#x2dd;" horiz-adv-x="278" 
d="M46 586h-50l87 109q1 1 16.5 21.5t23 29t23 18.5t29.5 10q18 0 31 -13t13 -34q0 -19 -24 -36zM212 586h-51l142 152q28 28 48 28q19 0 32.5 -14t13.5 -34t-22 -34z" />
    <glyph glyph-name="uni03A9" unicode="&#x3a9;" horiz-adv-x="847" 
d="M807 148l-31 -148h-282l-8 24q72 84 100 138q48 88 47 176q-1 132 -60.5 195.5t-151.5 63.5q-94 0 -151 -65.5t-57 -198.5q0 -40 11 -80.5t22.5 -67.5t36.5 -64t36 -50.5t38 -46.5l-8 -24h-282l-28 148l29 1q19 -45 35.5 -59t53.5 -14h114q-36 23 -61.5 43t-57.5 53
t-49 76t-17 92q0 131 95 211t243 80q151 0 243 -76t92 -206q0 -42 -16.5 -82.5t-47 -75.5t-59 -60.5t-67.5 -54.5h122q37 0 52 13t34 60z" />
    <glyph glyph-name="uni03BC" unicode="&#x3bc;" 
d="M472 202v201q0 42 -7 58.5t-22 24.5q-4 2 -9 5q-4 1 -4 2q0 3 16 6q69 11 129 25v-397q0 -62 11.5 -87t43.5 -33q6 -1 6 -3q0 -4 -13 -4h-119q-23 51 -26 115h-2q-25 -67 -71.5 -98.5t-123.5 -31.5q-70 0 -110 18v-201h-147q-10 0 -10 5q0 2 21 8q19 5 26 27.5t7 71.5
v489q0 44 -5.5 58.5t-26.5 21.5q-15 4 -15 8q0 2 15 4q55 7 135 29v-324q0 -78 36.5 -134t110.5 -56q73 0 113.5 57.5t40.5 134.5z" />
    <glyph glyph-name="pi" unicode="&#x3c0;" horiz-adv-x="637" 
d="M581 454l26 -10q-4 -28 -17 -59.5t-24 -42.5q-30 -5 -75 -5q-6 -56 -4 -204q0 -81 48 -81q24 0 51 24l14 -24q-21 -31 -54 -47t-68 -16q-103 0 -103 119q0 95 11 231q-73 2 -165 2v-15q0 -93 -15.5 -170t-30 -109.5t-24.5 -41.5q-47 -15 -64 -16l-7 18q51 57 75 155.5
t24 180.5q-48 0 -77 -10.5t-64 -34.5l-17 25q40 50 62 66q47 34 124 33q38 0 145.5 -1.5t161.5 -1.5q44 0 67 35z" />
    <glyph glyph-name="uni2010" unicode="&#x2010;" horiz-adv-x="259" 
d="M2 220l19 80h236l-18 -80h-237z" />
    <glyph glyph-name="endash" unicode="&#x2013;" horiz-adv-x="500" 
d="M500 290v-60h-500v60h500z" />
    <glyph glyph-name="emdash" unicode="&#x2014;" horiz-adv-x="1000" 
d="M1000 230h-1000v60h1000v-60z" />
    <glyph glyph-name="quoteleft" unicode="&#x2018;" horiz-adv-x="148" 
d="M103 660l11 -9q-53 -53 -52 -118q4 1 12 1q20 0 37.5 -16.5t17.5 -41.5q0 -24 -14 -39.5t-38 -15.5q-27 0 -43 18.5t-16 49.5q0 53 20.5 90t64.5 81z" />
    <glyph glyph-name="quoteright" unicode="&#x2019;" horiz-adv-x="148" 
d="M45 421l-11 9q53 53 52 118q-4 -1 -12 -1q-20 0 -37.5 16.5t-17.5 41.5q0 24 14 39.5t38 15.5q27 0 43 -18.5t16 -49.5q0 -53 -20.5 -90t-64.5 -81z" />
    <glyph glyph-name="quotesinglbase" unicode="&#x201a;" horiz-adv-x="148" 
d="M44 -134l-11 9q53 53 52 118q-4 -1 -12 -1q-20 0 -37.5 16.5t-17.5 41.5q0 24 14 39.5t38 15.5q27 0 43 -18.5t16 -49.5q0 -53 -20.5 -90t-64.5 -81z" />
    <glyph glyph-name="quotedblleft" unicode="&#x201c;" horiz-adv-x="296" 
d="M251 660l11 -9q-53 -53 -52 -118q4 1 12 1q20 0 37.5 -16.5t17.5 -41.5q0 -24 -14 -39.5t-38 -15.5q-27 0 -43 18.5t-16 49.5q0 53 20.5 90t64.5 81zM103 660l11 -9q-53 -53 -52 -118q4 1 12 1q20 0 37.5 -16.5t17.5 -41.5q0 -24 -14 -39.5t-38 -15.5q-27 0 -43 18.5
t-16 49.5q0 53 20.5 90t64.5 81z" />
    <glyph glyph-name="quotedblright" unicode="&#x201d;" horiz-adv-x="296" 
d="M45 421l-11 9q53 53 52 118q-4 -1 -12 -1q-20 0 -37.5 16.5t-17.5 41.5q0 24 14 39.5t38 15.5q27 0 43 -18.5t16 -49.5q0 -53 -20.5 -90t-64.5 -81zM193 421l-11 9q53 53 52 118q-4 -1 -12 -1q-20 0 -37.5 16.5t-17.5 41.5q0 24 14 39.5t38 15.5q27 0 43 -18.5t16 -49.5
q0 -53 -20.5 -90t-64.5 -81z" />
    <glyph glyph-name="quotedblbase" unicode="&#x201e;" horiz-adv-x="296" 
d="M45 -134l-11 9q53 53 52 118q-4 -1 -12 -1q-20 0 -37.5 16.5t-17.5 41.5q0 24 14 39.5t38 15.5q27 0 43 -18.5t16 -49.5q0 -53 -20.5 -90t-64.5 -81zM193 -134l-11 9q53 53 52 118q-4 -1 -12 -1q-20 0 -37.5 16.5t-17.5 41.5q0 24 14 39.5t38 15.5q27 0 43 -18.5
t16 -49.5q0 -53 -20.5 -90t-64.5 -81z" />
    <glyph glyph-name="dagger" unicode="&#x2020;" horiz-adv-x="556" 
d="M313 421l190 6v-70l-190 6l6 -487h-82l6 487l-190 -6v70l190 -6l-6 219h82z" />
    <glyph glyph-name="daggerdbl" unicode="&#x2021;" horiz-adv-x="556" 
d="M313 421l190 6v-70l-190 6v-198l190 6v-70l-190 6l6 -231h-82l6 231l-190 -6v70l190 -6v198l-190 -6v70l190 -6l-6 219h82z" />
    <glyph glyph-name="bullet" unicode="&#x2022;" horiz-adv-x="500" 
d="M410 320q0 -67 -46.5 -113.5t-113.5 -46.5t-113.5 46.5t-46.5 113.5t46.5 113.5t113.5 46.5t113.5 -46.5t46.5 -113.5z" />
    <glyph glyph-name="ellipsis" unicode="&#x2026;" horiz-adv-x="1000" 
d="M167 105q24 0 42 -18t18 -42t-18 -42t-42 -18t-42 18t-18 42t18 42t42 18zM500 105q24 0 42 -18t18 -42t-18 -42t-42 -18t-42 18t-18 42t18 42t42 18zM833 105q24 0 42 -18t18 -42t-18 -42t-42 -18t-42 18t-18 42t18 42t42 18z" />
    <glyph glyph-name="perthousand" unicode="&#x2030;" horiz-adv-x="1000" 
d="M771 162q0 -80 14.5 -118.5t55.5 -38.5t55.5 38.5t14.5 118.5t-14.5 118.5t-55.5 38.5t-55.5 -38.5t-14.5 -118.5zM171 -15h-52l378 645h52zM88 453q0 -80 14.5 -118.5t55.5 -38.5t55.5 38.5t14.5 118.5t-14.5 118.5t-55.5 38.5t-55.5 -38.5t-14.5 -118.5zM699 162
q0 69 39 123t104 54q64 0 103 -54.5t38 -122.5q1 -68 -38 -122.5t-103 -54.5q-65 0 -104 54t-39 123zM16 453q0 69 39 123t104 54q64 0 103 -54.5t38 -122.5q1 -68 -38 -122.5t-103 -54.5q-65 0 -104 54t-39 123zM438 162q0 -80 14.5 -118.5t55.5 -38.5t55.5 38.5
t14.5 118.5t-14.5 118.5t-55.5 38.5t-55.5 -38.5t-14.5 -118.5zM366 162q0 69 39 123t104 54q64 0 103 -54.5t38 -122.5q1 -68 -38 -122.5t-103 -54.5q-65 0 -104 54t-39 123z" />
    <glyph glyph-name="guilsinglleft" unicode="&#x2039;" horiz-adv-x="389" 
d="M225 67q-30 62 -126 194q76 106 130 192q22 -30 59 -41q-81 -95 -111 -151q15 -26 58 -86t54 -65q-48 -25 -64 -43z" />
    <glyph glyph-name="guilsinglright" unicode="&#x203a;" horiz-adv-x="389" 
d="M164 67q-16 18 -64 43q11 5 54 65t58 86q-30 56 -111 151q37 11 59 41q54 -86 130 -192q-96 -132 -126 -194z" />
    <glyph glyph-name="fraction" unicode="&#x2044;" horiz-adv-x="167" 
d="M-114 -15h-53l448 645h53z" />
    <glyph glyph-name="Euro" unicode="&#x20ac;" 
d="M485 226h-247q3 -49 11.5 -85t26.5 -68.5t51 -49.5t81 -17q56 0 105 40t64 100q5 20 9 20q3 0 8 -17l23 -78q-77 -86 -209 -86q-105 0 -185 66.5t-105 174.5h-84l15 45h62q-3 43 1 80h-72l15 45h65q26 104 103.5 169t186.5 65q43 0 92 -15.5t76 -30.5l27 -16l-30 -84
q-11 -29 -13 -29t-6 21q-29 134 -147 134q-48 0 -81.5 -17t-51 -49.5t-26 -66.5t-11.5 -81h303l-15 -45h-291q-1 -13 -1 -40q0 -26 1 -40h264z" />
    <glyph glyph-name="afii61289" unicode="&#x2113;" horiz-adv-x="465" 
d="M423 126l20 -21q-74 -119 -192 -119q-73 0 -114 38q-42 44 -42 143v53l-69 -44l-13 28l81 55v114q0 111 11.5 163t45.5 88q45 51 110 51q53 0 79 -38.5t26 -91.5q0 -74 -43 -138t-127 -133v-70q0 -84 25.5 -120.5t75.5 -36.5q67 0 126 79zM196 433v-113q50 56 76 107.5
t26 116.5q0 37 -12.5 66.5t-37.5 29.5q-31 0 -41.5 -47t-10.5 -160z" />
    <glyph glyph-name="trademark" unicode="&#x2122;" horiz-adv-x="990" 
d="M239 621v-311q0 -37 5.5 -43.5t44.5 -11.5v-19h-171v19q39 5 44.5 11.5t5.5 43.5v311h-49q-51 0 -68 -69h-20v88h345v-88h-20q-17 69 -67 69h-50zM666 234l-149 306h-2v-219q0 -35 10.5 -49t42.5 -17v-19h-131v19q32 3 42 17t10 49v249q-9 23 -28 37t-41 14v19h121
l154 -309l160 309h103v-19q-32 -1 -44 -14.5t-12 -41.5v-255q0 -37 5.5 -43.5t44.5 -11.5v-19h-170v19q38 5 43.5 11.5t5.5 43.5v232h-2l-152 -308h-11z" />
    <glyph glyph-name="Omega" unicode="&#x2126;" horiz-adv-x="847" 
d="M807 148l-31 -148h-282l-8 24q72 84 100 138q48 88 47 176q-1 132 -60.5 195.5t-151.5 63.5q-94 0 -151 -65.5t-57 -198.5q0 -40 11 -80.5t22.5 -67.5t36.5 -64t36 -50.5t38 -46.5l-8 -24h-282l-28 148l29 1q19 -45 35.5 -59t53.5 -14h114q-36 23 -61.5 43t-57.5 53
t-49 76t-17 92q0 131 95 211t243 80q151 0 243 -76t92 -206q0 -42 -16.5 -82.5t-47 -75.5t-59 -60.5t-67.5 -54.5h122q37 0 52 13t34 60z" />
    <glyph glyph-name="estimated" unicode="&#x212e;" horiz-adv-x="776" 
d="M745 298h-579q-5 0 -5 -4v-175q0 -10 8 -20q92 -95 219 -95q140 0 231 106h51q-49 -57 -123.5 -90.5t-159.5 -33.5q-148 0 -252.5 94t-104.5 227t104.5 227.5t252.5 94.5t253 -94t105 -228v-9zM614 321v176q0 12 -9 21q-93 91 -217 91q-126 0 -218 -94q-9 -9 -9 -22v-172
q0 -6 5 -6h444q4 0 4 6z" />
    <glyph glyph-name="partialdiff" unicode="&#x2202;" horiz-adv-x="596" 
d="M285 401h1q43 0 86 -19t65 -51q8 56 8 95q0 85 -30 145q-16 34 -51 58.5t-72 24.5q-71 0 -161 -70q-16 -1 -33.5 27t-7.5 47q78 41 162 41q147 0 234 -131q56 -86 56 -206q0 -138 -55 -234q-81 -142 -232 -142q-95 0 -152 54.5t-57 142.5q0 91 64 153q70 65 175 65z
M318 357h-1q-72 0 -115 -53q-45 -57 -45 -154q0 -56 27 -92t74 -36q72 0 118 88q35 65 53 178q-14 25 -44 47t-67 22z" />
    <glyph glyph-name="uni2206" unicode="&#x2206;" horiz-adv-x="713" 
d="M672 0h-633v28l286 589l54 13l293 -602v-28zM535 52l-217 465l-214 -465h431z" />
    <glyph glyph-name="product" unicode="&#x220f;" horiz-adv-x="768" 
d="M737 634v-29q-68 -4 -82.5 -15t-14.5 -53v-505q0 -49 15 -61t81 -16v-29h-298v29q65 4 78 15t13 62v533q0 21 -6.5 26t-29.5 5h-220q-23 0 -29 -5t-6 -24v-535q0 -50 11.5 -61.5t72.5 -15.5v-29h-289v29q65 5 79.5 16.5t14.5 60.5v505q0 42 -15 53t-83 15v29h708z" />
    <glyph glyph-name="summation" unicode="&#x2211;" horiz-adv-x="619" 
d="M593 121l-49 -200h-517v30l237 309l-228 344v30h506q2 -39 14 -170l-30 -7q-17 75 -41 110q-12 18 -32.5 25t-76.5 7h-203l186 -283l-236 -310h287q27 0 40 0.5t29 5t23 10.5t18.5 22t19.5 34.5t22 51.5z" />
    <glyph glyph-name="minus" unicode="&#x2212;" horiz-adv-x="600" 
d="M560 230h-520v60h520v-60z" />
    <glyph glyph-name="uni2215" unicode="&#x2215;" horiz-adv-x="167" 
d="M-114 -15h-53l448 645h53z" />
    <glyph glyph-name="uni2219" unicode="&#x2219;" horiz-adv-x="324" 
d="M162 320q24 0 42 -18t18 -42t-18 -42t-42 -18t-42 18t-18 42t18 42t42 18z" />
    <glyph glyph-name="radical" unicode="&#x221a;" horiz-adv-x="587" 
d="M575 804l-176 -929l-27 -14l-235 499l-91 -46l-13 36l175 86l179 -396h2l142 775z" />
    <glyph glyph-name="infinity" unicode="&#x221e;" horiz-adv-x="770" 
d="M721 258v-1q0 -73 -46.5 -118.5t-109.5 -45.5q-87 0 -181 113q-47 -55 -88 -84t-95 -29q-63 0 -108.5 45.5t-45.5 113.5q0 71 46 117t116 46q52 0 95 -29t86 -83q3 3 9 10q22 24 35 37t36 31t47.5 26t53.5 8q65 0 107.5 -43.5t42.5 -113.5zM208 153h2q11 0 22 3t19.5 6.5
t19.5 11.5t17 12.5t18 16t15.5 15.5t15.5 17t14 15q-29 37 -43 53.5t-43.5 34.5t-60.5 18q-41 0 -67 -29.5t-26 -74.5q0 -41 27.5 -70t69.5 -29zM564 356h-1q-15 0 -30 -5.5t-25.5 -11.5t-26.5 -20.5t-21.5 -20.5t-21 -24t-16.5 -19q48 -57 79.5 -79.5t65.5 -22.5
q41 0 65.5 30.5t24.5 68.5q0 47 -26 75.5t-67 28.5z" />
    <glyph glyph-name="integral" unicode="&#x222b;" horiz-adv-x="398" 
d="M168 6l-20 368q-6 116 6 198.5t38.5 123.5t55.5 58t63 17q24 0 45 -13t22 -35q0 -23 -14 -35.5t-33 -12.5t-33 26.5t-24 26.5q-44 0 -37 -154l18 -354q21 -413 -164 -413q-28 0 -47.5 15t-20.5 36q-1 20 17.5 35t40.5 15q15 0 27.5 -28.5t22.5 -28.5q21 0 31 42t6 113z
" />
    <glyph glyph-name="approxequal" unicode="&#x2248;" horiz-adv-x="593" 
d="M507 410l43 -43q-62 -92 -144 -92q-21 0 -43 6t-34 11.5t-45 22.5q-60 31 -94 31q-54 0 -109 -70l-42 43q25 41 67.5 67t87.5 26q47 0 114 -37q25 -14 35.5 -19.5t26.5 -10t34 -4.5q55 0 103 69zM507 233l43 -43q-63 -92 -145 -92q-21 0 -42.5 6t-35.5 12.5t-43 21.5
q-60 31 -93 31t-58 -18t-52 -52l-42 43q25 41 67.5 66.5t87.5 25.5q10 0 19.5 -1t19.5 -3.5l16 -4t17 -6.5t13.5 -6t14.5 -7l13 -7q4 -2 15 -8.5t15.5 -9t14 -7t16.5 -6.5t16.5 -3.5t19.5 -1.5q30 0 53 16.5t50 53.5z" />
    <glyph glyph-name="notequal" unicode="&#x2260;" horiz-adv-x="593" 
d="M429 472l-42 -89h154v-64h-184l-63 -134h247v-64h-277l-55 -118l-54 26l44 92h-148v64h178l63 134h-241v64h270l55 115z" />
    <glyph glyph-name="lessequal" unicode="&#x2264;" horiz-adv-x="593" 
d="M540 97l-485 213v68l484 212v-72l-411 -173v-2l412 -174v-72zM541 -4h-490v65h490v-65z" />
    <glyph glyph-name="greaterequal" unicode="&#x2265;" horiz-adv-x="593" 
d="M55 590l485 -212v-69l-485 -212v72l411 174v2l-411 173v72zM537 -4h-485v65h485v-65z" />
    <glyph glyph-name="lozenge" unicode="&#x25ca;" horiz-adv-x="613" 
d="M566 299l-223 -372h-75l-222 372l224 375h73zM489 299l-181 310h-3l-182 -309l182 -310h3z" />
    <glyph glyph-name="fi" unicode="&#xfb01;" horiz-adv-x="611" 
d="M306 495l-9 -32h-89v-337q0 -54 8.5 -77t43.5 -42q10 0 10 -4q0 -3 -14 -3h-199q-14 0 -14 3l14 6q31 12 39.5 37.5t8.5 79.5v337h-87l13 32h74v32q0 198 265 198l-28 -73q-6 -19 -10 -19q-6 0 -12 8q-29 48 -62 48q-29 0 -39.5 -18.5t-10.5 -57.5v-118h98zM421 126v291
q0 7 -0.5 13.5t-1.5 11.5t-2.5 9.5t-3 7.5t-4 6t-4 4.5t-5 4t-4.5 3l-5 2.5t-5 3q-2 1 -6.5 2t-7.5 2t-3 2t18 4q64 12 137 32v-398q0 -54 10 -82.5t42 -34.5q10 -2 10 -9q0 -3 -14 -3q-3 0 -17 0.5t-36.5 1.5t-46.5 1t-46.5 -0.5t-36.5 -1.5t-17 -1q-14 0 -14 3q0 7 10 9
q32 6 42.5 34.5t10.5 82.5zM464 589q-24 0 -41.5 17.5t-17.5 41.5t17.5 42t41.5 18q25 0 42.5 -18t17.5 -42t-17.5 -41.5t-42.5 -17.5z" />
    <glyph glyph-name="fl" unicode="&#xfb02;" horiz-adv-x="611" 
d="M306 495l-9 -32h-89v-337q0 -54 8.5 -77t43.5 -42q10 0 10 -4q0 -3 -14 -3h-199q-14 0 -14 3l14 6q31 12 39.5 37.5t8.5 79.5v337h-87l13 32h74v32q0 198 265 198l-28 -73q-6 -19 -10 -19q-6 0 -12 8q-29 48 -62 48q-29 0 -39.5 -18.5t-10.5 -57.5v-118h98zM524 725v-599
q0 -37 2.5 -56t15.5 -37t39 -27q6 -3 6 -6t-9 -3l-12 1q-11 0 -36 1t-58 1q-24 0 -48 -0.5t-39 -1.5t-17 -1q-10 0 -10 3t6 6q38 16 47.5 41t9.5 79v478q0 37 -7.5 53.5t-26.5 20.5q-15 2 -15 8q0 5 15 7q64 12 137 32z" />
    <glyph glyph-name="one.superior" horiz-adv-x="388" 
d="M154 331v219q0 21 -8 29.5t-32 12.5q-5 0 -5 6q0 5 4 6q38 7 116 26v-299q0 -29 7.5 -46.5t33.5 -22.5q12 -2 12 -7t-12 -5q-2 0 -9.5 0.5t-25 1t-43.5 0.5t-44 -0.5t-25.5 -1t-8.5 -0.5q-13 0 -13 5t13 7q26 5 33 22t7 47z" />
    <glyph glyph-name="two.superior" horiz-adv-x="388" 
d="M361 329l-29 -77h-309q0 73 152 149q92 46 92 120q0 83 -98 83q-40 0 -69.5 -16t-39.5 -48q-3 -11 -7 -11t-6 12l-17 58q76 31 138 31q46 0 85 -9.5t69.5 -37t30.5 -71.5q0 -21 -8.5 -38.5t-18.5 -28.5t-31 -22t-33.5 -16t-39 -14.5t-35.5 -12.5q-102 -40 -102 -76h176
q67 0 92 39q3 5 8 5q4 0 4 -4q0 -5 -4 -15z" />
    <glyph glyph-name="three.superior" horiz-adv-x="388" 
d="M135 432v36q12 -5 38 -5q51 0 79 16t28 60q0 65 -94 65q-39 0 -70.5 -15t-37.5 -42q-4 -19 -8 -19q-5 0 -9 17l-15 52q68 33 142 33q177 0 177 -93q0 -77 -151 -85v-1q38 0 74.5 -8.5t66 -33t29.5 -60.5q0 -31 -19 -53.5t-50 -33t-61 -15t-61 -4.5q-106 0 -177 37l19 53
q9 18 13 19q4 0 4 -6q0 -36 38 -56.5t84 -20.5q59 0 92 17t33 64q0 87 -122 87q-29 0 -42 -5z" />
    <glyph glyph-name="a.superior" horiz-adv-x="367" 
d="M258 447v28h-33q-32 0 -52 -2t-42 -10t-33 -26t-11 -46q0 -61 76 -61q95 0 95 117zM330 530v-169q0 -37 24 -46q1 -1 3 -2q2 0 2.5 -0.5t0.5 -1.5q0 -2 -8 -2h-71q-13 28 -15 61h-2q-36 -70 -120 -70q-56 0 -96.5 25t-40.5 75q0 32 23.5 53.5t62 31t69.5 12.5t64 3h32v20
q0 44 -20.5 64.5t-69.5 20.5q-51 0 -76.5 -9.5t-41.5 -45.5q-1 -2 -2 -5t-2 -5l-1 -1q-1 0 -3 7l-17 54q61 30 153 30q64 0 108 -24t44 -76z" />
    <glyph glyph-name="o.superior" horiz-adv-x="400" 
d="M307 465q0 65 -21.5 102.5t-86.5 37.5q-34 0 -56 -11t-32.5 -33t-14 -43.5t-3.5 -52.5t3.5 -52.5t14 -43.5t32.5 -33t56 -11q65 0 86.5 37.5t21.5 102.5zM7 465q0 72 54.5 118.5t137.5 46.5q84 0 139 -46.5t55 -118.5t-55 -118.5t-139 -46.5q-83 0 -137.5 46.5
t-54.5 118.5z" />
    </font>
</defs>
</svg>
