<?xml version="1.0" standalone="no"?>
<!DOCTYPE svg PUBLIC "-//W3C//DTD SVG 1.1//EN" "http://www.w3.org/Graphics/SVG/1.1/DTD/svg11.dtd" >
<svg xmlns="http://www.w3.org/2000/svg" xmlns:xlink="http://www.w3.org/1999/xlink" version="1.1">
<metadata>
Created by FontForge 20170731 at Fri Dec 20 17:01:00 2002
 By Aleksey,,,
(URW)++,Copyright 2001 by (URW)++ Design &#38; Development
</metadata>
<defs>
<font id="AmericanaTOT-Bol" horiz-adv-x="500" >
  <font-face 
    font-family="AmericanaTOT"
    font-weight="700"
    font-stretch="normal"
    units-per-em="1000"
    panose-1="4 0 8 0 0 0 0 0 0 0"
    ascent="800"
    descent="-200"
    x-height="540"
    cap-height="669"
    bbox="-117 -234 1159 932"
    underline-thickness="60"
    underline-position="-240"
    unicode-range="U+0020-FB02"
  />
<missing-glyph horiz-adv-x="300" 
 />
    <glyph glyph-name="fi" unicode="fi" horiz-adv-x="684" 
d="M342 518l-14 -33h-95v-338q0 -79 19 -112q7 -12 16.5 -18t31.5 -10v-9q-61 4 -116 4q-54 0 -127 -4v9q27 5 38 12t18 23q17 36 17 105v338h-97l13 33h84v20q0 95 59 152q70 65 180 65q4 0 36 -2l-40 -105q-29 65 -78 65q-31 0 -42.5 -31t-11.5 -113v-51h109zM656 7v-9
q-61 4 -115 4q-51 0 -122 -4v9q25 5 35.5 12t17.5 23q14 33 14 105v175q0 57 -1 80.5t-3 47t-10 31t-16.5 13t-29.5 11.5v8q93 15 164 34l-1 -67v-75v-258q0 -78 19 -112q11 -20 48 -28zM527 731q26 0 44 -18.5t18 -44.5q0 -25 -18.5 -43t-43.5 -18t-43.5 18.5t-18.5 43.5
t18.5 43.5t43.5 18.5z" />
    <glyph glyph-name="fl" unicode="fl" horiz-adv-x="676" 
d="M342 518l-14 -33h-95v-338q0 -79 19 -112q7 -12 16.5 -18t31.5 -10v-9q-61 4 -116 4q-54 0 -127 -4v9q27 5 38 12t18 23q17 36 17 105v338h-97l13 33h84v20q0 95 59 152q70 65 180 65q4 0 36 -2l-40 -105q-29 65 -78 65q-31 0 -42.5 -31t-11.5 -113v-51h109zM653 7v-9
q-69 4 -123 4q-52 0 -125 -4v9q25 5 36.5 12.5t19.5 23.5q17 34 17 104v235q0 258 -14 295q-5 15 -14.5 21.5t-28.5 8.5v8q47 3 163 40q0 -48 -2 -98q-1 -37 -1 -81v-429q0 -77 14 -104.5t58 -35.5z" />
    <glyph glyph-name=".notdef" horiz-adv-x="300" 
 />
    <glyph glyph-name=".null" horiz-adv-x="0" 
 />
    <glyph glyph-name="nonmarkingreturn" horiz-adv-x="333" 
 />
    <glyph glyph-name="space" unicode=" " horiz-adv-x="300" 
 />
    <glyph glyph-name="exclam" unicode="!" horiz-adv-x="260" 
d="M142 144h-24q1 36 -7 122q-1 18 -36 199q-7 35 -7 74q0 63 17 102t45 39t45 -39t17 -102q0 -30 -4 -56.5t-29 -157.5q-15 -64 -17 -181zM130 114q27 0 45.5 -18.5t18.5 -45.5q0 -26 -19 -44.5t-44 -18.5q-26 0 -45 19t-19 45q0 25 18.5 44t44.5 19z" />
    <glyph glyph-name="quotedbl" unicode="&#x22;" horiz-adv-x="392" 
d="M127 399h-49l-32 268h113zM313 399h-49l-32 268h114z" />
    <glyph glyph-name="numbersign" unicode="#" horiz-adv-x="585" 
d="M390 228l-52 -228h-51l52 228h-133l-52 -228h-51l52 228h-115l8 47h119l27 130h-114l8 47h118l48 215h51l-48 -215h133l48 215h52l-49 -215h107l-7 -47h-112l-27 -130h108l-8 -47h-112zM351 275l27 130h-133l-27 -130h133z" />
    <glyph glyph-name="dollar" unicode="$" horiz-adv-x="753" 
d="M411 32v-95h-37v93q-116 3 -256 60l37 119l10 -4q10 -63 70 -105.5t140 -42.5q63 0 106.5 37t43.5 90q0 46 -29 67q-18 15 -85 28l-94 18q-83 15 -121 55q-39 41 -39 97q0 50 31 92.5t83 64.5q41 17 103 21v98h37v-97q121 -2 196 -44l-35 -103l-10 4q-12 53 -57 84.5
t-107 31.5q-60 0 -99 -32t-39 -81q0 -76 121 -97l75 -14q96 -17 137 -53q42 -39 42 -99q0 -74 -63.5 -129t-160.5 -64z" />
    <glyph glyph-name="percent" unicode="%" horiz-adv-x="593" 
d="M166 680q59 0 96.5 -42.5t37.5 -109.5q0 -64 -38 -106.5t-96 -42.5t-96 43t-38 108t38 107.5t96 42.5zM166 654q-28 0 -40 -28t-12 -95q0 -68 12 -96t40 -28t40 28t12 94q0 68 -12 96.5t-40 28.5zM482 667h50l-424 -667h-52zM428 288q59 0 96.5 -42.5t37.5 -109.5
q0 -64 -38 -106.5t-96 -42.5t-96 43t-38 108t38 107.5t96 42.5zM428 262q-28 0 -40 -28t-12 -95q0 -68 12 -96t40 -28t40 28t12 94q0 68 -12 96.5t-40 28.5z" />
    <glyph glyph-name="ampersand" unicode="&#x26;" horiz-adv-x="770" 
d="M763 0h-201q-33 27 -63 54q-105 -71 -215 -71q-103 0 -177 44q-34 20 -54.5 55t-20.5 73q0 113 173 182q-57 73 -57 140q0 72 53 122.5t128 50.5q66 0 111 -36.5t45 -89.5q0 -105 -169 -169q69 -73 108.5 -109t111.5 -95q18 37 18 68q0 62 -34 86q-17 13 -64 20v15
q51 -4 102 -4q50 0 95 4q-12 -128 -82 -217q134 -102 192 -112v-11zM297 377q7 4 17 10q44 24 60 50.5t16 75.5q0 53 -23 81.5t-66 28.5q-37 0 -60.5 -24.5t-23.5 -63.5q0 -35 17.5 -70t62.5 -88zM220 317q-67 -41 -67 -119q0 -71 55 -122t132 -51q74 0 136 47
q-83 73 -131 119t-125 126z" />
    <glyph glyph-name="quotesingle" unicode="'" horiz-adv-x="221" 
d="M137 399h-53l-32 268h117z" />
    <glyph glyph-name="parenleft" unicode="(" horiz-adv-x="375" 
d="M280 747h28q-53 -63 -85 -184.5t-32 -259.5q0 -141 26 -238.5t93 -211.5h-26q-41 48 -82 113q-112 179 -112 331q0 146 93 314q43 81 97 136z" />
    <glyph glyph-name="parenright" unicode=")" horiz-adv-x="375" 
d="M95 -147h-28q53 63 85 184.5t32 259.5q0 140 -26 238t-93 212h27q38 -44 81 -113q59 -95 85.5 -173t26.5 -158q0 -145 -92 -314q-45 -81 -98 -136z" />
    <glyph glyph-name="asterisk" unicode="*" horiz-adv-x="537" 
d="M248 584v9v5q-2 83 -37 149h115q-38 -73 -38 -152q0 -7 1 -11q85 25 143 86l36 -110q-29 5 -53 5q-57 0 -114 -20q49 -72 126 -110l-93 -67q-12 83 -66 154q-55 -74 -65 -154l-93 67q75 38 126 110q-57 20 -115 20q-23 0 -52 -5l35 110q62 -62 144 -86z" />
    <glyph glyph-name="plus" unicode="+" 
d="M15 381h203v197h62v-197h205v-60h-205v-197h-62v197h-203v60z" />
    <glyph glyph-name="comma" unicode="," horiz-adv-x="233" 
d="M82 -150l-15 15q50 47 60 119h-12q-29 0 -47 18t-18 47q0 27 17.5 44.5t45.5 17.5q64 0 64 -76q0 -49 -26 -99.5t-69 -85.5z" />
    <glyph glyph-name="hyphen" unicode="-" horiz-adv-x="176" 
d="M176 310l-16 -60h-160l16 60h160z" />
    <glyph glyph-name="period" unicode="." horiz-adv-x="233" 
d="M116 114q27 0 45.5 -18.5t18.5 -45.5q0 -26 -19 -44.5t-44 -18.5q-26 0 -45 19t-19 45q0 25 18.5 44t44.5 19z" />
    <glyph glyph-name="slash" unicode="/" horiz-adv-x="477" 
d="M341 700h50l-254 -733h-50z" />
    <glyph glyph-name="zero" unicode="0" horiz-adv-x="753" 
d="M376 650q147 0 243 -104q81 -87 81 -234q0 -136 -81 -225q-45 -49 -108.5 -76.5t-133.5 -27.5q-69 0 -133 27.5t-109 76.5q-81 88 -81 230q0 144 81 229q98 104 241 104zM377 623q-114 0 -156 -86q-15 -30 -24.5 -92t-9.5 -128q0 -163 39 -231q45 -76 151 -76
q115 0 157 86q14 30 23.5 92t9.5 126q0 167 -39 234q-43 75 -151 75z" />
    <glyph glyph-name="one" unicode="1" horiz-adv-x="753" 
d="M240 596v10q28 3 95 19.5t100 28.5v-359q0 -216 26 -256q15 -23 61 -31v-10q-76 4 -141 4q-62 0 -149 -4v10q30 4 44 12.5t23 25.5q23 42 23 249v160q0 95 -19 117q-19 23 -63 24z" />
    <glyph glyph-name="two" unicode="2" horiz-adv-x="753" 
d="M647 175l-58 -175h-495q27 150 223 246q99 52 137.5 99t38.5 113q0 73 -44.5 119t-115.5 46q-91 0 -147 -67q-23 -27 -42 -76l-9 -4l-29 120q116 54 239 54q127 0 204 -55.5t77 -147.5q0 -76 -56.5 -125t-186.5 -87q-169 -43 -187 -132h233q70 0 102 5t60 21q29 16 46 49
z" />
    <glyph glyph-name="three" unicode="3" horiz-adv-x="753" 
d="M83 44l36 123l9 -4q12 -47 52 -87q66 -66 166 -66q84 0 137.5 45t53.5 115q0 81 -67 124q-46 30 -127 30q-55 0 -79 -9v50q30 -9 73 -9q75 0 117.5 35t42.5 97q0 59 -42.5 97.5t-109.5 38.5q-64 0 -115.5 -40.5t-69.5 -105.5l-10 -3l-31 115q120 60 249 60q122 0 192 -40
t70 -110q0 -77 -77 -120q-36 -19 -110 -37q118 -21 172.5 -61t54.5 -106q0 -89 -85.5 -141t-232.5 -52q-74 0 -148.5 17t-120.5 44z" />
    <glyph glyph-name="four" unicode="4" horiz-adv-x="753" 
d="M696 296l-48 -136l-12 1l-57 5q-6 1 -51 3q-14 0 -25 1q1 -75 7 -105t23 -42t60 -15v-10q-56 2 -140 2t-150 -2v10q58 5 71.5 30.5t15.5 131.5h-346l18 50l424 440l17 -3v-12l-1 -173v-64q0 -15 1 -38v-61v-89q72 -1 113.5 17.5t67.5 62.5zM390 220v299l-280 -299h280z
" />
    <glyph glyph-name="five" unicode="5" horiz-adv-x="753" 
d="M640 648l-37 -108h-316q-74 0 -90.5 -11t-21.5 -64l-11 -127q94 32 195 32q145 0 232.5 -52.5t87.5 -138.5q0 -88 -83 -142t-219 -54q-164 0 -303 62l41 126l10 -4q17 -72 80.5 -114.5t154.5 -42.5q93 0 140 47q46 46 46 115q0 76 -55.5 123.5t-143.5 47.5
q-82 0 -218 -48l28 338h408q29 0 39 3t27 17z" />
    <glyph glyph-name="six" unicode="6" horiz-adv-x="753" 
d="M658 591l-42 -119l-9 4q-15 68 -66.5 107.5t-124.5 39.5q-140 0 -190 -128q-31 -80 -31 -161q0 -5 2 -39q41 68 89 97.5t120 29.5q108 0 194 -55q86 -56 86 -156q0 -99 -82 -163.5t-209 -64.5q-149 0 -239 93q-42 43 -66 105.5t-24 127.5q0 68 27 134.5t74 112.5
q92 94 239 94q126 0 252 -59zM382 395q-74 0 -122.5 -54.5t-48.5 -138.5q0 -83 48.5 -137.5t122.5 -54.5t122.5 54t48.5 136q0 86 -48 140.5t-123 54.5z" />
    <glyph glyph-name="seven" unicode="7" horiz-adv-x="753" 
d="M75 482l53 151h550q-16 -52 -42 -91t-78 -90l-28 -30q-143 -154 -143 -351q0 -21 5 -71h-162q12 204 200 368l42 37q100 92 105 135h-308q-83 0 -117.5 -11.5t-67.5 -50.5z" />
    <glyph glyph-name="eight" unicode="8" horiz-adv-x="753" 
d="M474 360l51 -18q81 -30 109 -53q51 -43 51 -107q0 -89 -84 -144t-220 -55q-140 0 -226.5 49t-86.5 129q0 88 103 129q43 16 105 27q-60 19 -95 43q-65 44 -65 120q0 40 22.5 76.5t60.5 56.5q70 37 189 37q115 0 183.5 -40.5t68.5 -108.5q0 -67 -68 -106q-35 -20 -98 -35z
M343 399l71 -20q52 9 84 43.5t32 81.5q0 57 -40 88t-112 31q-70 0 -111 -29t-41 -79q0 -82 117 -116zM427 273l-95 27q-64 -7 -104 -48t-40 -98q0 -65 53.5 -104.5t142.5 -39.5q82 0 131.5 36.5t49.5 98.5q0 51 -46 84q-41 29 -92 44z" />
    <glyph glyph-name="nine" unicode="9" horiz-adv-x="753" 
d="M97 40l40 129l10 -3q8 -52 33 -82q29 -33 76.5 -53.5t96.5 -20.5q54 0 97.5 26.5t65.5 71.5q38 83 38 179q0 14 -1 24q-32 -66 -80 -96t-122 -30q-119 0 -201.5 66.5t-82.5 162.5q0 100 85.5 168t212.5 68q140 0 230.5 -90t90.5 -230q0 -66 -23 -131t-63 -111
q-90 -105 -257 -105q-141 0 -246 57zM371 623q-78 0 -124.5 -56t-46.5 -149q0 -94 46.5 -150t124.5 -56t125 55.5t47 147.5q0 96 -46.5 152t-125.5 56z" />
    <glyph glyph-name="colon" unicode=":" horiz-adv-x="233" 
d="M116 114q27 0 45.5 -18.5t18.5 -45.5q0 -26 -19 -44.5t-44 -18.5q-26 0 -45 19t-19 45q0 25 18.5 44t44.5 19zM116 561q27 0 45.5 -18.5t18.5 -45.5q0 -25 -19 -44t-44 -19q-26 0 -45 19t-19 45t18.5 44.5t44.5 18.5z" />
    <glyph glyph-name="semicolon" unicode=";" horiz-adv-x="235" 
d="M115 561q27 0 45.5 -18.5t18.5 -45.5q0 -25 -18.5 -44t-44.5 -19t-45 19t-19 45t19 44.5t44 18.5zM82 -150l-15 15q50 47 60 119h-12q-29 0 -47 18t-18 47q0 27 17.5 44.5t45.5 17.5q64 0 64 -76q0 -49 -26 -99.5t-69 -85.5z" />
    <glyph glyph-name="less" unicode="&#x3c;" 
d="M459 624v-51l-279 -179l279 -188v-137l-418 283v7z" />
    <glyph glyph-name="equal" unicode="=" 
d="M15 454h470v-58h-470v58zM15 307h470v-58h-470v58z" />
    <glyph glyph-name="greater" unicode="&#x3e;" 
d="M41 69v51l279 180l-279 188v136l418 -283v-7z" />
    <glyph glyph-name="question" unicode="?" horiz-adv-x="543" 
d="M62 512l-33 122q97 46 213 46t192.5 -54t76.5 -136q0 -55 -39 -104q-17 -20 -30.5 -31t-79.5 -56q-55 -38 -76 -71t-25 -88h-25q1 62 17.5 101.5t68.5 103.5q61 78 61 153q0 74 -35 114.5t-100 40.5t-113 -37t-65 -101zM250 114q27 0 45.5 -18.5t18.5 -45.5
q0 -26 -19 -44.5t-44 -18.5q-26 0 -45 19t-19 45q0 25 18.5 44t44.5 19z" />
    <glyph glyph-name="at" unicode="@" horiz-adv-x="779" 
d="M616 131l40 -7q-46 -47 -79 -73q-82 -64 -194 -64q-136 0 -231.5 97.5t-95.5 236.5q0 85 41 163.5t111 128.5q94 68 218 68q130 0 214 -77t84 -195q0 -105 -64 -187.5t-146 -82.5q-29 0 -47.5 21.5t-20.5 57.5q-58 -81 -128 -81q-44 0 -72.5 36.5t-28.5 93.5
q0 94 62.5 176t134.5 82q58 0 91 -51l9 38q23 0 65 5l-66 -242q-11 -46 -11 -60q0 -38 32 -38q39 0 87 56q62 74 62 171q0 103 -72.5 170.5t-183.5 67.5q-138 0 -227 -92q-40 -42 -68.5 -111.5t-28.5 -127.5q0 -56 27 -114.5t71 -97.5q80 -72 189 -72q92 0 165 54
q11 8 61 50zM456 331l27 84q2 6 2 9q0 32 -14 50.5t-39 18.5q-56 0 -102 -85q-48 -91 -48 -170q0 -29 14.5 -48t37.5 -19q34 0 66.5 39t50.5 101q5 18 5 20z" />
    <glyph glyph-name="A" unicode="A" horiz-adv-x="873" 
d="M512 304h-250l-36 -66q-62 -112 -62 -163t70 -67v-10q-61 4 -112 4t-112 -4v10q41 13 88 77t127 213l211 398l249 -458q80 -148 104.5 -180t70.5 -50v-10q-76 4 -138 4q-60 0 -144 -4v10q27 4 37.5 13t10.5 28q0 29 -48 126zM500 331l-114 210l-111 -210h225z" />
    <glyph glyph-name="B" unicode="B" horiz-adv-x="860" 
d="M77 667h306q122 0 168 -6q92 -14 140.5 -52t48.5 -97q0 -73 -77 -118q-34 -20 -109 -38q101 -18 139 -35q107 -48 107 -138q0 -64 -52.5 -111t-144.5 -65q-51 -9 -194 -9q-20 0 -86 3q-16 1 -134 1q-60 0 -139 -4v10q39 8 55.5 25.5t21.5 53.5q10 77 10 296v126
q0 68 -2.5 89.5t-12.5 34.5q-12 16 -45 24v10zM257 369h102q127 0 187.5 33t60.5 103q0 45 -24.5 76.5t-68.5 43.5q-55 15 -166 15h-91v-271zM257 342v-103q0 -2 2 -64q1 -23 1 -58q1 -59 27.5 -75.5t120.5 -16.5q105 0 154 16t77 53t28 86q0 44 -25 79.5t-68 52.5
q-78 30 -213 30h-104z" />
    <glyph glyph-name="C" unicode="C" horiz-adv-x="841" 
d="M770 610l-45 -133l-9 3q-17 87 -78 134t-155 47q-153 0 -227 -110q-58 -85 -58 -214q0 -147 82 -238.5t213 -91.5q57 0 108 20.5t85 56.5q33 34 51 98l10 4l30 -118q-124 -88 -298 -88q-150 0 -265 70q-73 44 -114.5 119.5t-41.5 162.5q0 75 31.5 143.5t89.5 117.5
q110 94 284 94q77 0 145 -17t162 -60z" />
    <glyph glyph-name="D" unicode="D" horiz-adv-x="883" 
d="M77 667h363q93 0 152 -17t113 -59q120 -93 120 -247q0 -77 -31 -146t-87 -115q-57 -47 -126.5 -66t-182.5 -19q-42 0 -78 2q-147 5 -270 -2v10q39 8 55.5 25.5t21.5 53.5q10 76 10 294v127q0 68 -2.5 89t-12.5 35q-12 16 -45 25v10zM257 640v-261q0 -179 4.5 -241
t18.5 -84q19 -29 121 -29q148 0 219.5 77t71.5 238q0 156 -73 230q-39 40 -91 55t-148 15h-123z" />
    <glyph glyph-name="E" unicode="E" horiz-adv-x="837" 
d="M782 156l-55 -156h-306l-152 1q-31 1 -65 1q-55 0 -154 -4v10q39 8 55.5 25.5t21.5 53.5q10 76 10 294v127q0 68 -2.5 89.5t-12.5 34.5q-13 16 -45 25v10h608l42 -149l-10 -3q-46 67 -120.5 96t-198.5 29h-141v-277h136q104 0 151 18.5t71 68.5h10v-206h-10
q-21 54 -67.5 73t-158.5 19h-132v-77q0 -67 7 -163q3 -43 27.5 -56.5t98.5 -13.5q144 0 220 26.5t163 107.5z" />
    <glyph glyph-name="F" unicode="F" horiz-adv-x="743" 
d="M609 450v-206h-10q-22 55 -73.5 72t-192.5 17h-90v-38q0 -129 5 -183t19.5 -76t48.5 -28v-10q-76 4 -136 4q-58 0 -137 -4v10q35 8 51 25.5t20 53.5q9 82 9 294v127q0 69 -2.5 90t-12.5 34q-14 17 -45 25v10h611l42 -148l-10 -3q-54 68 -138.5 96t-233.5 28h-91v-280h93
q142 0 193 17.5t70 72.5h10z" />
    <glyph glyph-name="G" unicode="G" horiz-adv-x="859" 
d="M767 601l-40 -116l-10 3q-42 172 -242 172q-143 0 -215 -101q-65 -90 -65 -231q0 -142 70 -225q38 -44 93 -70t112 -26q47 0 90.5 18t59.5 44q18 28 18 98v49q0 60 -22.5 81.5t-95.5 28.5v13q79 -4 165 -4q78 0 147 4v-13q-45 -6 -60 -25q-9 -12 -11.5 -27t-2.5 -58v-142
q-49 -34 -88 -52q-96 -42 -209 -42q-130 0 -241 65q-77 46 -121 122t-44 165q0 71 29.5 138t81.5 115q113 102 301 102q81 0 160.5 -23t139.5 -63z" />
    <glyph glyph-name="H" unicode="H" horiz-adv-x="875" 
d="M638 334h-401v-39q0 -129 4.5 -182.5t17.5 -76t45 -28.5v-10q-69 4 -125 4q-53 0 -129 -4v10q32 7 45 29t17.5 75.5t4.5 182.5v213q0 68 -2.5 89.5t-10.5 35.5q-10 17 -40 26v10q81 -4 124 -4q47 0 102 4v-10q-31 -10 -43 -31q-10 -20 -10 -120v-147h401v147
q0 69 -2.5 90.5t-10.5 34.5q-12 18 -40 26v10q83 -4 123 -4q48 0 103 4v-10q-30 -10 -43 -31q-10 -21 -10 -120v-213q0 -78 1.5 -122.5t5 -79t11.5 -50t19 -23.5t30 -12v-10q-69 4 -124 4q-54 0 -130 -4v10q19 4 30 12t19 23.5t11.5 50t5 79t1.5 122.5v39z" />
    <glyph glyph-name="I" unicode="I" horiz-adv-x="353" 
d="M64 659v10q83 -4 123 -4q48 0 103 4v-10q-30 -10 -43 -31q-10 -21 -10 -120v-213q0 -78 1.5 -122.5t5 -79t11.5 -50t19 -23.5t30 -12v-10q-69 4 -124 4q-54 0 -130 -4v10q17 3 26.5 7.5t18 19t12 33t6.5 58.5t3.5 85.5t0.5 123.5v173q0 69 -2.5 90.5t-10.5 34.5
q-12 18 -40 26z" />
    <glyph glyph-name="J" unicode="J" horiz-adv-x="509" 
d="M27 8l35 114l10 -3q13 -50 42 -77.5t69 -27.5q69 0 89 93q12 59 12 230v172q0 69 -2.5 90t-13.5 34q-15 18 -47 26v10q77 -4 130 -4q55 0 98 4v-10q-28 -8 -38.5 -26t-10.5 -55q0 -11 2 -69l4 -106q4 -104 4 -157q0 -107 -74 -184q-79 -82 -191 -82q-33 0 -54.5 5.5
t-63.5 22.5z" />
    <glyph glyph-name="K" unicode="K" horiz-adv-x="798" 
d="M304 8v-10q-69 4 -124 4q-54 0 -130 -4v10q19 4 30 12t19 23.5t11.5 50t5 79t1.5 122.5v214q0 68 -2.5 89.5t-10.5 34.5q-12 18 -40 26v10q76 -4 124 -4q55 0 102 4v-10q-33 -10 -43 -31q-10 -20 -10 -119v-161l171 144q78 65 103 92t25 44q0 11 -7 18t-25 13v10
q64 -4 117 -4q56 0 103 4v-10q-73 -32 -133.5 -70t-145.5 -107l-142 -115q111 -7 159 -35t109 -121q71 -102 117.5 -147.5t89.5 -55.5v-10l-11 1q-70 5 -91 3q-102 -9 -115 -4q-22 10 -78 117q-13 27 -60.5 97.5t-63.5 86.5q-34 34 -71 34q-51 0 -51 -64q0 -199 20 -233
q14 -21 47 -28z" />
    <glyph glyph-name="L" unicode="L" horiz-adv-x="766" 
d="M750 168l-52 -168h-317q-90 2 -214 2q-29 0 -117 -4v10q39 8 55.5 25.5t21.5 53.5q10 76 10 295v127q0 68 -2.5 89.5t-10.5 34.5q-12 18 -40 26v10q76 -4 131 -4q12 0 102 2v-8q-36 -10 -48 -31q-12 -20 -12 -119v-116q0 -202 7 -277q5 -56 29 -72.5t100 -16.5
q129 0 206.5 32.5t140.5 112.5z" />
    <glyph glyph-name="M" unicode="M" horiz-adv-x="998" 
d="M515 161l239 508q56 -4 95 -4q43 0 82 4v-10q-36 -10 -48 -31q-12 -19 -12 -119v-214q0 -77 1.5 -122t5.5 -79.5t13.5 -50t22 -23.5t34.5 -12v-10q-75 4 -133 4q-57 0 -134 -4v10q20 4 31.5 12t20 23.5t12 50t5 79t1.5 122.5v299l-290 -614l-291 608v-294q0 -164 18 -217
q20 -57 79 -69v-10q-61 4 -110 4q-47 0 -114 -4v10q59 20 79.5 79t20.5 207v215q0 70 -3 90.5t-14 34.5q-16 17 -50 25v10q68 -4 107 -4q45 0 82 4z" />
    <glyph glyph-name="N" unicode="N" horiz-adv-x="881" 
d="M747 -30l-587 611v-198q0 -120 2.5 -181.5t14 -105t29 -59.5t51.5 -29v-10q-57 4 -105 4q-45 0 -109 -4v10q48 17 66 58q16 38 20 92.5t4 224.5v126q0 70 -3 90.5t-16 34.5q-16 17 -54 25v10q72 -4 113 -4q46 0 83 4l464 -483v183q0 160 -18.5 216.5t-77.5 73.5v10
q71 -4 117 -4q51 0 96 4v-10q-39 -11 -57.5 -37.5t-25.5 -82.5t-7 -170v-399z" />
    <glyph glyph-name="O" unicode="O" horiz-adv-x="901" 
d="M449 687q131 0 234 -66q159 -102 159 -293q0 -146 -113.5 -247t-278.5 -101q-167 0 -279.5 101.5t-112.5 252.5q0 89 42 165t117 122q106 66 232 66zM450 660q-115 0 -183.5 -88.5t-68.5 -237.5q0 -150 68 -238.5t184 -88.5q115 0 183.5 87.5t68.5 233.5q0 154 -67.5 243
t-184.5 89z" />
    <glyph glyph-name="P" unicode="P" horiz-adv-x="774" 
d="M250 318v-23q0 -221 26 -255q17 -23 61 -32v-10q-77 4 -130 4q-20 0 -157 -4v10q20 2 31.5 6t21.5 16.5t14.5 29t7.5 51.5t4 75.5t1 108.5v213q0 67 -2.5 88.5t-10.5 34.5q-13 17 -47 26v10h333q131 0 204 -27q61 -22 94 -60t33 -85q0 -85 -97.5 -134.5t-267.5 -49.5
q-78 0 -119 7zM250 640v-294q43 -8 92 -8q113 0 184 37q32 17 50 49t18 71q0 145 -225 145h-119z" />
    <glyph glyph-name="Q" unicode="Q" horiz-adv-x="901" 
d="M813 -120l8 -12q-23 -19 -77.5 -41.5t-102.5 -32.5q-46 18 -181 93q-93 52 -131 52q-34 0 -96 -52l-7 28q66 40 155 70q-149 26 -236 120t-87 229q0 150 112.5 251.5t279.5 101.5t279.5 -101.5t112.5 -252.5t-109 -250t-281 -103q101 -28 213 -80q78 -35 102 -35
q17 0 46 15zM450 660q-115 0 -183.5 -88.5t-68.5 -237.5q0 -150 68 -238.5t184 -88.5q115 0 183.5 87.5t68.5 233.5q0 154 -67.5 243t-184.5 89z" />
    <glyph glyph-name="R" unicode="R" horiz-adv-x="875" 
d="M247 336v-41q0 -98 2 -147.5t10.5 -82.5t21.5 -42.5t39 -14.5v-10q-67 4 -129 4q-60 0 -141 -4v10q19 3 30 8t20.5 18.5t14 30.5t7.5 51t4 73.5t1 105.5v213q0 89 -10 113.5t-50 35.5v10h360q164 0 232 -40q75 -46 75 -120q0 -44 -25 -79.5t-71 -55.5q-43 -18 -142 -28
q103 -23 141.5 -57.5t84.5 -147.5q31 -74 50 -96t63 -35v-10q-55 4 -99 4q-42 0 -101 -4q-12 21 -42 109q-32 92 -52.5 132t-47.5 62q-25 20 -56.5 27.5t-92.5 7.5h-97zM247 363h100q110 0 162 20q40 14 62.5 47.5t22.5 80.5q0 40 -18.5 70.5t-49.5 42.5q-42 16 -168 16
h-111v-277z" />
    <glyph glyph-name="S" unicode="S" horiz-adv-x="779" 
d="M699 627l-41 -121l-9 3q-10 74 -91 117q-66 36 -149 36q-85 0 -134.5 -36.5t-49.5 -98.5q0 -51 35.5 -79.5t115.5 -42.5l122 -19q62 -11 95 -21t60 -29q68 -46 68 -127q0 -59 -34 -109t-95 -81q-80 -40 -192 -40q-188 0 -337 69l47 143l9 -4q9 -89 104 -140
q74 -41 168 -41q99 0 158 42t59 112q0 54 -37 79q-29 22 -114 35l-117 18q-104 17 -158 54q-70 48 -70 134q0 50 28.5 95t78.5 73q71 40 182 40q156 0 298 -61z" />
    <glyph glyph-name="T" unicode="T" horiz-adv-x="819" 
d="M40 520l-10 4l43 144h674l43 -144l-10 -4q-115 126 -247 126q-29 0 -41.5 -7t-16.5 -25q-5 -28 -5 -154v-165q0 -77 2 -122t6 -79t14.5 -50t24 -24t36.5 -12v-10q-84 4 -143 4q-58 0 -143 -4v10q39 6 55 28.5t22 77t6 181.5v165q0 135 -7 160q-7 26 -57 26
q-131 0 -246 -126z" />
    <glyph glyph-name="U" unicode="U" horiz-adv-x="857" 
d="M594 659v10q75 -4 123 -4q49 0 104 4v-10q-46 -12 -68 -42.5t-30.5 -94.5t-8.5 -194v-72q0 -276 -288 -276q-142 0 -231 39q-54 25 -79 75.5t-25 135.5l2 187v92q0 67 -2.5 88.5t-10.5 35.5q-11 17 -40 26v10q76 -4 128 -4t115 4v-10q-43 -13 -56 -38q-9 -16 -11.5 -42.5
t-2.5 -103.5v-105q0 -169 17 -222q46 -141 218 -141q123 0 184 69q55 61 55 190v79q0 178 -13 234q-8 32 -25.5 50t-54.5 30z" />
    <glyph glyph-name="V" unicode="V" horiz-adv-x="858" 
d="M483 145l88 169q74 143 87 176q29 69 29 106q0 49 -66 63v10q75 -4 121 -4q52 0 99 4v-10q-50 -23 -94.5 -85.5t-135.5 -237.5l-188 -359l-261 494q-37 71 -52 99.5t-33 50.5t-28 26.5t-34 11.5v10q89 -4 146 -4q58 0 118 4v-10q-52 -11 -52 -36q0 -28 66 -143z" />
    <glyph glyph-name="W" unicode="W" horiz-adv-x="1140" 
d="M775 -30l-223 514l-201 -514l-204 494q-49 115 -53 123q-15 34 -30.5 49t-45.5 23v10q88 -4 145 -4t117 4v-10q-34 -9 -44.5 -16.5t-10.5 -24.5q0 -24 43 -127l132 -319l206 522l223 -517l68 172q69 173 69 235q0 59 -63 75v10q73 -4 121 -4q52 0 99 4v-10
q-52 -10 -98 -83q-16 -27 -30.5 -60.5t-73.5 -182.5z" />
    <glyph glyph-name="X" unicode="X" horiz-adv-x="778" 
d="M350 295l-37 -44q-115 -137 -115 -198q0 -18 11.5 -28t40.5 -17v-10q-63 4 -114 4q-50 0 -119 -4v10q58 33 107 77t126 132l85 101l-110 155q-80 112 -113 146.5t-65 39.5v10q92 -4 150 -4q60 0 123 4v-10l-8 -2q-41 -8 -41 -35q0 -14 23 -47q9 -12 35 -51q44 -63 45 -63
l50 -68l31 37q48 57 80 110t32 76q0 36 -42 43v10q73 -4 119 -4q52 0 97 4v-10q-39 -11 -112 -79t-163 -178l-25 -31l49 -67q119 -161 181 -227t97 -69v-10q-80 4 -144 4q-63 0 -151 -4v10q43 7 43 31q0 27 -56 105z" />
    <glyph glyph-name="Y" unicode="Y" horiz-adv-x="805" 
d="M452 294v-19q0 -119 5 -169.5t18.5 -71t46.5 -26.5v-10q-69 4 -126 4q-54 0 -131 -4v10q19 4 30 11.5t19 22t11.5 46.5t5 73.5t1.5 113.5v19l-169 215q-63 81 -95 110t-69 40v10q95 -4 154 -4q61 0 125 4v-10q-51 -7 -51 -43q0 -29 56 -99l155 -195l108 144
q57 76 71 100.5t14 47.5q0 32 -49 45v10q71 -4 116 -4q50 0 94 4v-10q-61 -26 -112 -76.5t-157 -190.5z" />
    <glyph glyph-name="Z" unicode="Z" horiz-adv-x="732" 
d="M672 153l-53 -153h-579l239 330q94 130 161 232q27 40 27 55q0 13 -17.5 18t-61.5 5h-46q-101 0 -163 -25.5t-121 -91.5l-9 4l47 140h544l-176 -254q-95 -139 -193 -301q-24 -38 -24 -53q0 -32 77 -32h52q93 0 167 33.5t119 95.5z" />
    <glyph glyph-name="bracketleft" unicode="[" horiz-adv-x="375" 
d="M309 746v-20q-28 -4 -42 -11.5t-25 -23.5q-11 -18 -13.5 -38t-2.5 -81v-544q0 -65 4 -87t18 -39q15 -20 61 -28v-20l-20 -1q-78 0 -125 58q-20 26 -25.5 54.5t-5.5 108.5v452q0 80 5.5 108.5t25.5 54.5q47 58 125 58z" />
    <glyph glyph-name="backslash" unicode="\" horiz-adv-x="477" 
d="M137 700l254 -733h-50l-254 733h50z" />
    <glyph glyph-name="bracketright" unicode="]" horiz-adv-x="375" 
d="M66 -146v20q29 5 43 12t24 23q11 18 13.5 38t2.5 81v544q0 65 -4 87t-18 39q-15 20 -61 28v20l20 1q78 0 125 -58q20 -26 25.5 -54.5t5.5 -108.5v-452q0 -80 -5.5 -108.5t-25.5 -54.5q-47 -58 -125 -58z" />
    <glyph glyph-name="asciicircum" unicode="^" 
d="M527 282h-51l-179 279l-188 -279h-137l283 418h7z" />
    <glyph glyph-name="underscore" unicode="_" 
d="M15 -90h470v-60h-470v60z" />
    <glyph glyph-name="grave" unicode="`" 
d="M333 592l-119 63q-47 25 -57.5 34.5t-10.5 26.5q0 16 11.5 26.5t29.5 10.5q17 0 32.5 -10t49.5 -43l111 -108h-47z" />
    <glyph glyph-name="a" unicode="a" horiz-adv-x="673" 
d="M640 0h-137q-20 51 -28 101q-30 -50 -56 -71q-54 -44 -135 -44q-101 0 -166.5 46.5t-65.5 119.5q0 99 117 144q96 37 246 37h55v34q0 81 -41 123.5t-120 42.5q-101 0 -157 -58q-27 -29 -38 -74l-9 -3l-30 103q112 59 255 59q126 0 191 -55q32 -28 45.5 -66.5t13.5 -105.5
v-120q0 -116 11.5 -155t48.5 -50v-8zM470 306h-55q-115 0 -176 -40t-61 -115q0 -57 37 -97.5t89 -40.5q42 0 79.5 22.5t58.5 59.5q28 52 28 158v53z" />
    <glyph glyph-name="b" unicode="b" horiz-adv-x="760" 
d="M167 0h-134v8q24 6 35 13.5t19 22.5q16 36 16 107v237q0 198 -9 272q-3 26 -14 37t-37 14v8q49 4 162 40q0 -13 -0.5 -25.5t-1 -33t-0.5 -38.5q-1 -38 -1 -81v-167q64 146 216 146q124 0 207 -81t83 -202q0 -126 -86.5 -208t-219.5 -82q-140 0 -201 103q-23 -72 -34 -90z
M401 533q-88 0 -142 -73t-54 -192q0 -118 50 -186t136 -68q45 0 84 21.5t61 58.5q45 71 45 178q0 121 -48.5 191t-131.5 70z" />
    <glyph glyph-name="c" unicode="c" horiz-adv-x="652" 
d="M618 496l-31 -101l-8 2q-11 51 -47 83q-61 53 -151 53q-97 0 -149.5 -65.5t-52.5 -185.5q0 -122 48 -187q58 -81 166 -81q65 0 120.5 35.5t89.5 97.5l19 -18q-48 -74 -108 -108t-142 -34q-140 0 -230 81.5t-90 207.5q0 124 87 204t223 80q128 0 256 -64z" />
    <glyph glyph-name="d" unicode="d" horiz-adv-x="747" 
d="M714 0h-138q-17 36 -30 120q-67 -133 -202 -133q-124 0 -208.5 82t-84.5 203q0 124 84 206t212 82q134 0 209 -100v99q-2 110 -10 128.5t-51 23.5v8q49 4 162 40q0 -51 -2 -98l-1 -82v-432q0 -77 17 -111q9 -19 43 -28v-8zM360 533q-83 0 -132.5 -73t-49.5 -194
q0 -118 48 -185t132 -67q99 0 154 97q42 75 42 172q0 112 -43 174q-24 35 -65 55.5t-86 20.5z" />
    <glyph glyph-name="e" unicode="e" horiz-adv-x="696" 
d="M645 336h-464q-2 -30 -2 -60q0 -94 40 -168q24 -43 68.5 -68.5t97.5 -25.5q58 0 111 28t88 78q26 35 45 93l24 -12q-69 -214 -291 -214q-136 0 -223 80.5t-87 207.5q0 122 87 203.5t218 81.5q138 0 224 -91q59 -62 64 -133zM185 363h323q0 77 -42.5 123.5t-112.5 46.5
q-66 0 -111.5 -46.5t-56.5 -123.5z" />
    <glyph glyph-name="f" unicode="f" horiz-adv-x="381" 
d="M342 518l-14 -33h-95v-338q0 -79 19 -112q7 -12 16.5 -18t31.5 -10v-9q-61 4 -116 4q-54 0 -127 -4v9q27 5 38 12t18 23q17 36 17 105v338h-97l13 33h84v20q0 95 59 152q70 65 180 65q4 0 36 -2l-40 -105q-29 65 -78 65q-31 0 -42.5 -31t-11.5 -113v-51h109z" />
    <glyph glyph-name="g" unicode="g" horiz-adv-x="694" 
d="M657 642l-37 -116q-34 48 -87 48q-40 0 -70 -34q149 -61 149 -171q0 -44 -26 -84t-73 -67q-39 -22 -79.5 -31.5t-110.5 -12.5q-75 -4 -75 -25q0 -14 25 -20t104 -11q144 -9 198 -29q94 -32 94 -105q0 -80 -93 -128.5t-245 -48.5q-126 0 -205 37.5t-79 96.5q0 51 61 82
q29 14 119 35q-50 11 -70 23t-20 32q0 26 28 43.5t91 31.5q-56 17 -91 36q-90 51 -90 143q0 80 77.5 136.5t187.5 56.5q50 0 97 -11q92 95 194 95q4 0 26 -2zM343 533q-72 0 -111.5 -43.5t-39.5 -122.5t39.5 -122.5t112.5 -43.5q71 0 111 43t40 120q0 82 -39 125.5
t-113 43.5zM361 44q-103 0 -157.5 -27t-54.5 -77q0 -51 50.5 -78.5t144.5 -27.5q103 0 164 31t61 83q0 49 -50.5 72.5t-157.5 23.5z" />
    <glyph glyph-name="h" unicode="h" horiz-adv-x="721" 
d="M190 576v-183q27 66 62 97q60 54 157 54q95 0 157 -54q34 -29 47.5 -68t13.5 -107v-168q0 -79 17 -112q9 -20 43 -28v-9q-61 4 -112 4q-49 0 -118 -4v9q21 5 30.5 12t16.5 23q13 33 13 105v168q0 91 -39.5 143t-107.5 52q-75 0 -122.5 -60.5t-47.5 -156.5v-146
q0 -78 17 -112q9 -20 43 -28v-9q-61 4 -111 4q-47 0 -119 -4v9q25 5 35 12t17 23q15 35 15 105v235q0 194 -10 274q-3 26 -14.5 37t-38.5 14v9q53 4 158 39q0 -48 -1 -98q-1 -37 -1 -81z" />
    <glyph glyph-name="i" unicode="i" horiz-adv-x="303" 
d="M275 7v-9q-61 4 -115 4q-51 0 -122 -4v9q25 5 35.5 12t17.5 23q14 33 14 105v175q0 57 -1 80.5t-3 47t-10 31t-16.5 13t-29.5 11.5v8q93 15 164 34l-1 -67v-48v-27v-258q0 -78 19 -112q11 -20 48 -28zM147 731q26 0 44 -18.5t18 -44.5q0 -25 -18.5 -43t-43.5 -18
t-43.5 18.5t-18.5 43.5t18.5 43.5t43.5 18.5z" />
    <glyph glyph-name="j" unicode="j" horiz-adv-x="320" 
d="M-50 -201l36 114q21 -39 39 -55t42 -16q23 0 35.5 12t20 53t10 105.5t2.5 184.5v125q0 121 -7.5 145.5t-50.5 37.5v8q83 14 162 34l-1 -142v-147q0 -30 4 -129q2 -54 2 -65q0 -117 -53 -180q-34 -40 -87 -63.5t-109 -23.5q-35 0 -45 2zM177 729q26 0 44 -18.5t18 -44.5
q0 -25 -18.5 -43t-43.5 -18t-43.5 18.5t-18.5 43.5t18.5 43.5t43.5 18.5z" />
    <glyph glyph-name="k" unicode="k" horiz-adv-x="672" 
d="M647 0h-182q-34 38 -74 111q-37 66 -53 90t-39 49q-38 39 -62 39q-27 0 -36 -29q-6 -16 -6 -87v-26q0 -77 13.5 -105t55.5 -35v-9q-67 4 -119 4q-50 0 -122 -4v9q24 5 35 12.5t19 23.5q16 34 16 104v235q0 200 -10 274q-3 26 -15 37.5t-38 13.5v9q54 4 169 39
q0 -48 -2 -98q-1 -37 -1 -81v-269l116 88q101 77 101 113q0 19 -28 32v9q30 -4 117 -4q77 0 103 4v-9q-70 -23 -115.5 -50t-145.5 -105l-84 -63q85 -6 127.5 -34.5t95.5 -115.5q56 -85 94.5 -123t69.5 -41v-8z" />
    <glyph glyph-name="l" unicode="l" horiz-adv-x="295" 
d="M271 7v-9q-69 4 -123 4q-53 0 -125 -4v9q25 5 36.5 12.5t19.5 23.5q17 36 17 104v235q0 258 -14 295q-5 15 -14.5 21.5t-28.5 8.5v8q47 3 163 40q0 -48 -2 -98q-1 -37 -1 -81v-429q0 -77 14 -104.5t58 -35.5z" />
    <glyph glyph-name="m" unicode="m" horiz-adv-x="1138" 
d="M50 498v9q88 13 159 33q-3 -33 -4 -115q0 -13 -1 -27q32 71 63 102q56 55 149 55q82 0 131.5 -36.5t72.5 -113.5q30 80 81 117.5t129 37.5q54 0 100 -20.5t72 -57.5q24 -33 33 -75t9 -121v-139q0 -79 17 -112q9 -20 43 -28v-9q-64 4 -113 4q-48 0 -117 -4v9q21 5 30.5 12
t16.5 23q13 33 13 105v139q0 234 -145 234q-82 0 -124 -76q-33 -58 -33 -165v-132q0 -80 16 -112q12 -21 44 -28v-9q-61 4 -112 4q-49 0 -118 -4v9q22 5 31 12t16 23q13 33 13 105v132q0 109 -23 164q-16 35 -47 55.5t-69 20.5q-84 0 -133 -83q-22 -36 -29.5 -69t-7.5 -88
v-132q0 -78 17 -112q9 -20 43 -28v-9q-61 4 -113 4q-50 0 -117 -4v9q22 5 31 12t15 23q14 36 14 105v168q0 56 -1 80t-2.5 47.5t-8.5 31t-15 13t-26 11.5z" />
    <glyph glyph-name="n" unicode="n" horiz-adv-x="731" 
d="M697 7v-9q-61 4 -112 4q-49 0 -118 -4v9q22 5 31 12t15 23q14 36 14 105v135q0 111 -28 170q-16 32 -48 52t-69 20q-80 0 -127 -89q-35 -66 -35 -159v-129q0 -78 17 -112q9 -20 43 -28v-9q-60 4 -114 4q-51 0 -123 -4v9q24 5 34.5 12t17.5 23q15 34 15 105v168
q0 56 -1 80t-2.5 47.5t-8.5 31t-15 13t-26 11.5v9q37 6 159 33q-3 -33 -4 -115v-27q56 162 205 162q52 0 97.5 -19.5t74.5 -53.5q28 -34 38 -77t10 -133v-130q0 -78 17 -112q10 -19 43 -28z" />
    <glyph glyph-name="o" unicode="o" horiz-adv-x="735" 
d="M367 560q137 0 227 -82.5t90 -207.5q0 -60 -29 -118t-79 -98q-85 -67 -208 -67t-208 67q-51 40 -79.5 98.5t-28.5 120.5q0 63 29 122t79 98q86 67 207 67zM368 533q-87 0 -138 -70t-51 -190q0 -119 51 -189t138 -70q86 0 137.5 69.5t51.5 186.5q0 123 -50.5 193
t-138.5 70z" />
    <glyph glyph-name="p" unicode="p" horiz-adv-x="750" 
d="M37 498v9q91 15 161 33q-3 -29 -4 -103q0 -12 -1 -24q28 50 48 74q62 73 167 73q122 0 206 -81.5t84 -200.5q0 -127 -85 -209t-217 -82q-71 0 -117.5 24.5t-83.5 81.5q4 -212 14.5 -250.5t65.5 -47.5v-8q-59 4 -117 4q-59 0 -135 -4v8q27 5 36.5 11.5t14.5 21.5
q8 24 13.5 118.5t5.5 196.5v172q0 121 -7.5 145.5t-48.5 37.5zM393 533q-54 0 -101 -34.5t-71 -92.5q-18 -42 -18 -153q0 -87 27 -141q51 -99 156 -99q86 0 135.5 70.5t49.5 193.5q0 118 -48 187t-130 69z" />
    <glyph glyph-name="q" unicode="q" horiz-adv-x="740" 
d="M580 533h127v-8q-33 -13 -43 -48.5t-10 -136.5v-167q-1 -140 0 -201.5t8.5 -106t18.5 -54t36 -16.5v-8q-68 4 -128 4q-62 0 -122 -4v8q33 8 45 15.5t19 26.5q7 20 13 85t6 128v67q-67 -130 -200 -130q-127 0 -212.5 81.5t-85.5 202.5q0 123 88.5 206.5t217.5 83.5
q68 0 115 -23t87 -76q11 45 20 71zM365 534q-84 0 -135 -73.5t-51 -194.5q0 -115 49.5 -183.5t132.5 -68.5q91 0 144 77q46 67 46 190q0 63 -7.5 99.5t-26.5 68.5q-24 40 -64.5 62.5t-87.5 22.5z" />
    <glyph glyph-name="r" unicode="r" horiz-adv-x="457" 
d="M427 549l-43 -120q-21 27 -56 27q-53 0 -83.5 -55.5t-30.5 -153.5v-100q0 -81 13 -106t60 -34v-9q-68 4 -123 4q-54 0 -126 -4v9q25 4 36.5 11t19.5 24q17 36 17 105v182q0 121 -7.5 145.5t-49.5 37.5v8q89 15 161 34q-3 -34 -4 -116v-40q28 50 54 81q61 71 144 71z" />
    <glyph glyph-name="s" unicode="s" horiz-adv-x="645" 
d="M577 511l-36 -100l-8 4q-13 56 -58.5 87t-116.5 31q-66 0 -106 -30.5t-40 -80.5q0 -40 29 -60.5t103 -33.5l69 -12q89 -14 128 -42q53 -38 53 -106q0 -43 -25.5 -82.5t-66.5 -61.5q-68 -37 -182 -37q-138 0 -267 59l35 106l7 -2q10 -46 45 -76q73 -60 181 -60
q74 0 120 32.5t46 84.5q0 45 -34 69q-19 13 -70 22l-75 13q-104 18 -153.5 56.5t-49.5 102.5q0 74 65 120t170 46q112 0 237 -49z" />
    <glyph glyph-name="t" unicode="t" horiz-adv-x="359" 
d="M218 680v-161h119l-17 -33h-102v-130q0 -109 7 -214q4 -71 20.5 -98.5t57.5 -35.5v-8h-149q-27 17 -35.5 47.5t-8.5 110.5q0 69 3 141q0 16 0.5 36t1 31t0.5 17v103h-91l9 21q51 13 98 59.5t79 113.5h8z" />
    <glyph glyph-name="u" unicode="u" horiz-adv-x="687" 
d="M663 0h-129q-10 20 -20 50q-5 19 -15 53q-42 -65 -86 -90.5t-114 -25.5q-53 0 -101 17.5t-77 47.5q-44 45 -44 162l2 98v30q0 68 -3.5 95t-14 39t-38.5 22v9q77 12 163 33q-2 -29 -4 -142v-107q0 -125 23 -190q14 -41 46 -64.5t72 -23.5q49 0 97 35t61 81q16 56 16 167
v59q0 85 -8.5 108t-45.5 35v9q80 12 160 33q-2 -33 -3 -142v-98q0 -203 19 -254q9 -30 44 -38v-8z" />
    <glyph glyph-name="v" unicode="v" horiz-adv-x="693" 
d="M344 -13l-191 365q-64 121 -84.5 148t-60.5 40v9q79 -4 130 -4q52 0 105 4v-9q-23 -4 -32.5 -12.5t-9.5 -23.5q0 -20 11 -45t56 -107l121 -222l63 117q97 184 97 235q0 31 -23 45q-10 7 -38 13v9q67 -4 108 -4q48 0 89 4v-9q-35 -12 -72.5 -65t-114.5 -201z" />
    <glyph glyph-name="w" unicode="w" horiz-adv-x="1033" 
d="M707 -23l-202 430l-183 -430l-194 389q-39 83 -56 113.5t-29.5 43t-34.5 17.5v9q80 -4 130 -4q53 0 106 4v-9q-27 -7 -37 -17t-10 -30q0 -21 22 -67q56 -116 146 -280l183 432l207 -437l57 118q29 62 55 135q20 52 20 83q0 48 -67 63v9q69 -4 113 -4q48 0 92 4v-9
q-42 -16 -78 -71.5t-113 -223.5z" />
    <glyph glyph-name="x" unicode="x" horiz-adv-x="668" 
d="M300 237l-32 -35q-100 -112 -100 -158q0 -27 40 -37v-9q-51 4 -93 4q-40 0 -97 -4v9q43 22 84 59.5t116 120.5l65 73l-77 107q-74 104 -102.5 134t-60.5 39v9q77 -4 125 -4q55 0 102 4v-9q-29 -6 -29 -28q0 -27 66 -112l52 -69l32 36q80 87 80 130q0 26 -30 43v9
q61 -4 99 -4q44 0 81 4v-9q-47 -24 -88 -61.5t-121 -130.5l-36 -40l76 -99q101 -134 131.5 -165t62.5 -37v-9q-67 4 -122 4q-52 0 -128 -4v9q19 4 26.5 10t7.5 19q0 24 -62 108z" />
    <glyph glyph-name="y" unicode="y" horiz-adv-x="697" 
d="M74 -210l47 133q29 -50 76 -50q35 0 71 36q37 38 37 81q0 42 -49 139l-129 259q-43 87 -63 113t-56 39v9q83 -4 134 -4q54 0 110 4v-9q-50 -7 -50 -46q0 -18 7.5 -35t51.5 -102l130 -241l38 69q43 76 88 178q29 69 29 110q0 28 -14 43t-49 24v9q69 -4 113 -4q49 0 93 4
v-9q-46 -32 -70 -65t-80 -140l-187 -352q-41 -76 -78 -116t-86 -62q-43 -18 -83 -18q-16 0 -31 3z" />
    <glyph glyph-name="z" unicode="z" horiz-adv-x="658" 
d="M611 144l-47 -144h-517l334 438q14 20 20 27q25 33 25 41q0 14 -63 14h-33q-92 0 -148.5 -24.5t-103.5 -83.5l-8 3l47 132h466l-220 -301q-7 -9 -57 -80q-25 -36 -44 -63q-31 -42 -31 -55q0 -12 11.5 -16.5t40.5 -4.5h42q80 0 118.5 9t82.5 38q42 27 77 73z" />
    <glyph glyph-name="braceleft" unicode="{" 
d="M104 288v20q50 3 69 21t19 63q0 30 -1 44l-1 68q0 82 11 120.5t40 57.5q18 13 39.5 15.5t101.5 4.5h19v-24q-47 -1 -70.5 -11t-37.5 -36q-13 -31 -12 -83v-92q3 -81 -15 -112t-76 -44v-3q59 -9 81 -57q9 -22 9 -78v-98q-3 -107 20.5 -140.5t100.5 -34.5v-24
q-110 2 -137 9q-76 23 -76 140q0 8 0.5 25.5t1 65.5t1.5 102q-1 43 -20.5 61t-66.5 20z" />
    <glyph glyph-name="bar" unicode="|" 
d="M211 667h78v-834h-78v834z" />
    <glyph glyph-name="braceright" unicode="}" 
d="M396 308v-20q-49 -3 -68 -20.5t-19 -58.5l3 -196q0 -122 -85 -141q-25 -5 -128 -7v24q55 0 81 16t35 56q5 26 5 61v160q-2 100 90 115v3q-66 11 -84 61q-7 24 -6 60l-1 147q-3 62 -29 86t-91 24v24h19l42 -1q53 -1 78 -8.5t42 -28.5q31 -39 31 -152q0 -1 -0.5 -9.5
t-1 -25.5t-0.5 -33q-1 -16 -1 -51q0 -46 19 -64t69 -21z" />
    <glyph glyph-name="asciitilde" unicode="~" horiz-adv-x="667" 
d="M518 734l19 -12q-25 -48 -61.5 -76t-73.5 -28q-22 0 -84 21q-59 20 -86 20q-22 0 -37 -8.5t-37 -33.5l-2.5 -2.5t-3 -3.5t-3.5 -3l-18 11q59 105 135 105q25 0 85 -21q54 -19 79 -19q49 0 88 50z" />
    <glyph glyph-name="exclamdown" unicode="&#xa1;" horiz-adv-x="260" 
d="M118 523h24q0 -34 7 -122q2 -22 37 -199q6 -38 6 -74q0 -62 -17 -101.5t-44 -39.5q-28 0 -45 39t-17 102q0 39 15 120l18 94q16 76 16 181zM130 681q26 0 45 -19t19 -45q0 -25 -19 -44t-44 -19q-27 0 -45.5 18.5t-18.5 45.5q0 26 18.5 44.5t44.5 18.5z" />
    <glyph glyph-name="cent" unicode="&#xa2;" horiz-adv-x="753" 
d="M415 123v-85h-37v85q-80 10 -127 64t-47 138q0 85 47 141t127 66v80h37v-79q69 -5 123 -36l-25 -80l-10 3q-9 41 -34 64t-61 23q-53 0 -82 -45.5t-29 -130.5q0 -82 30.5 -132t80.5 -50q43 0 73 34.5t42 98.5l24 -27q-14 -60 -48 -93.5t-84 -38.5z" />
    <glyph glyph-name="sterling" unicode="&#xa3;" horiz-adv-x="753" 
d="M378 345h185l-13 -37h-158q12 -36 12 -62q0 -27 -20 -91q26 -7 101 -42q71 -34 110 -34q73 0 121 93l15 -6q-24 -79 -76 -131t-108 -52q-34 0 -66 16.5t-93 65.5q-19 16 -40 31q-124 -103 -249 -103q-33 0 -55 15t-22 38q0 50 65.5 90t147.5 40q27 0 56 -4q1 12 1 23
q0 43 -21 113h-108l13 37h84l-5 19q-14 48 -14 86q0 78 53 132q65 68 158 68q87 0 178 -56l-38 -113l-10 3q-15 65 -54.5 102t-94.5 37q-50 0 -80.5 -29t-30.5 -77q0 -52 26 -105l22 -48q7 -17 8 -19zM285 129q-2 1 -5 2q-29 18 -71 18q-38 0 -65 -20t-27 -48
q0 -21 17.5 -34.5t44.5 -13.5q87 0 106 96z" />
    <glyph glyph-name="currency" unicode="&#xa4;" horiz-adv-x="667" 
d="M48 97l94 94q-28 46 -38.5 76.5t-10.5 68.5q0 69 48 157l-95 94l40 41l96 -95q69 49 151 49q68 0 150 -50l98 97l40 -40l-98 -99q27 -45 37 -77t10 -71t-10 -70t-38 -77l98 -98l-41 -41l-96 97q-78 -50 -151 -50q-69 0 -149 48l-95 -95zM332 496q-63 0 -108 -45t-45 -109
q0 -63 45 -108t109 -45q62 0 107.5 45t45.5 106q0 65 -45 110.5t-109 45.5z" />
    <glyph glyph-name="yen" unicode="&#xa5;" horiz-adv-x="753" 
d="M63 455v37h94l-14 17q-63 82 -94.5 111t-68.5 39v10q92 -4 153 -4q62 0 126 4v-10q-51 -7 -51 -43q0 -28 56 -99l19 -25h263q42 57 53.5 78.5t11.5 43.5q0 32 -48 45v10q71 -4 116 -4q50 0 94 4v-10q-47 -19 -91 -57t-101 -110h109v-37h-138l-120 -163h188v-37h-188
q1 -112 6 -158t18.5 -64.5t46.5 -24.5v-10q-69 4 -126 4q-55 0 -131 -4v10q32 7 44 24.5t16.5 62t5.5 160.5h-179v37h179l-126 163h-123zM519 455h-207l106 -133z" />
    <glyph glyph-name="brokenbar" unicode="&#xa6;" 
d="M211 667h78v-345h-78v345zM211 153h78v-320h-78v320z" />
    <glyph glyph-name="section" unicode="&#xa7;" horiz-adv-x="537" 
d="M457 689l-34 -60l-9 3q-13 42 -52 67.5t-90 25.5q-55 0 -89.5 -28.5t-34.5 -75.5q0 -77 114 -110l82 -23q67 -19 103 -58.5t36 -93.5q0 -28 -9 -49.5t-38 -65.5q-3 -5 -7 -11q43 -31 43 -88q0 -77 -70 -133t-167 -56q-32 0 -84 12.5t-86 28.5l10 84l11 -1q25 -30 43 -45
q56 -51 134 -51q62 0 103.5 35t41.5 88q0 34 -23.5 54.5t-84.5 38.5l-93 28q-50 15 -73.5 27t-42.5 34q-40 43 -40 102q0 76 68 132q-30 40 -30 86q0 33 18.5 67t47.5 56q52 38 130 38q46 0 96 -16.5t76 -41.5zM309 410l-66 21q-70 21 -98 45q-43 -28 -43 -75q0 -43 32 -72
q22 -20 76 -37l76 -24q77 -23 119 -41q29 38 29 78q0 45 -37 70q-23 15 -88 35z" />
    <glyph glyph-name="dieresis" unicode="&#xa8;" 
d="M150 731q23 0 40 -17.5t17 -40.5q0 -24 -17 -41t-41 -17t-41 17t-17 41t17 41t42 17zM350 730q23 0 40 -17t17 -40q0 -24 -17 -41t-41 -17q-23 0 -40 17t-17 41q0 23 17 40t41 17z" />
    <glyph glyph-name="copyright" unicode="&#xa9;" horiz-adv-x="804" 
d="M582 496l-29 -85l-10 4q-10 51 -44.5 78t-89.5 27q-76 0 -119.5 -49.5t-43.5 -137.5q0 -84 47 -136.5t122 -52.5q112 0 141 102l11 4l19 -75q-75 -53 -179 -53q-109 0 -179 59t-70 150q0 92 67.5 151.5t172.5 59.5q83 0 184 -46zM402 680q143 0 244.5 -101.5
t101.5 -244.5q0 -145 -102 -246t-249 -101q-140 0 -241 102.5t-101 244.5q0 143 101.5 244.5t245.5 101.5zM402 643q-128 0 -219 -90.5t-91 -218.5q0 -127 90.5 -218.5t215.5 -91.5q131 0 222 90t91 220q0 128 -90.5 218.5t-218.5 90.5z" />
    <glyph glyph-name="ordfeminine" unicode="&#xaa;" horiz-adv-x="433" 
d="M395 284v-28h-357v28h357zM392 332h-86q-8 24 -16 52q-22 -32 -47 -46t-63 -14q-61 0 -100 28.5t-39 72.5q0 53 56 81t160 28h29v16q0 95 -91 95t-111 -77l-11 -4l-19 67q69 36 153 36q75 0 114 -33q36 -29 36 -103v-71q0 -69 6.5 -90t28.5 -27v-11zM286 512h-29
q-135 0 -135 -88q0 -32 20.5 -55t49.5 -23q52 0 78 47q16 29 16 91v28z" />
    <glyph glyph-name="guillemotleft" unicode="&#xab;" horiz-adv-x="462" 
d="M177 469l9 -7q25 -20 47 -32q-82 -111 -103 -147q38 -61 98 -141q1 -1 2.5 -3.5t3 -4.5t2.5 -4q-29 -10 -61 -39q-43 82 -125 191q3 4 9.5 14t21 31t38.5 56q49 70 58 86zM357 469q5 -5 9 -7q25 -20 47 -32q-82 -111 -103 -147q38 -61 98 -141l8 -12q-29 -10 -61 -39
q-43 82 -125 191q3 4 9.5 14t21 31t38.5 56q49 70 58 86z" />
    <glyph glyph-name="logicalnot" unicode="&#xac;" 
d="M337 0v211h-305v56h435v-267h-130z" />
    <glyph glyph-name="registered" unicode="&#xae;" horiz-adv-x="804" 
d="M511 151l-99 173h-55v-116q0 -22 6.5 -30t26.5 -8h17v-19h-178v19h15q20 0 26.5 7.5t6.5 30.5v251q0 23 -6.5 30.5t-26.5 7.5h-18v19h183q61 0 93 -15q55 -28 55 -86q0 -32 -16 -53t-53 -37l76 -130q15 -25 41 -25h3v-19h-97zM357 342h43q34 0 51 11q25 18 25 63
q0 36 -19.5 55.5t-56.5 19.5h-43v-149zM402 680q143 0 244.5 -101.5t101.5 -244.5q0 -145 -102 -246t-249 -101q-140 0 -241 102.5t-101 244.5q0 143 101.5 244.5t245.5 101.5zM402 643q-128 0 -219 -90.5t-91 -218.5q0 -127 90.5 -218.5t215.5 -91.5q131 0 222 90t91 220
q0 128 -90.5 218.5t-218.5 90.5z" />
    <glyph glyph-name="macron" unicode="&#xaf;" 
d="M67 661v33h367v-33h-367z" />
    <glyph glyph-name="degree" unicode="&#xb0;" horiz-adv-x="423" 
d="M213 634q37 0 64.5 -27t27.5 -65t-27.5 -65t-66.5 -27q-38 0 -65.5 27t-27.5 66q0 38 27.5 64.5t67.5 26.5zM212 600q-24 0 -41 -17t-17 -41t17 -41t40 -17q24 0 41 17t17 41q0 23 -17 40.5t-40 17.5z" />
    <glyph glyph-name="plusminus" unicode="&#xb1;" 
d="M15 389h203v197h62v-197h205v-60h-205v-191h-62v191h-203v60zM15 95h470v-60h-470v60z" />
    <glyph glyph-name="twosuperior" unicode="&#xb2;" horiz-adv-x="499" 
d="M426 375l-39 -109h-323q15 94 145 152q62 31 86.5 58t24.5 65q0 41 -28 67.5t-71 26.5q-84 0 -118 -85l-11 -3l-21 77q77 33 158 33q83 0 133 -34t50 -89q0 -46 -37 -76t-121 -52q-104 -25 -116 -72h144q64 0 90.5 9t41.5 36z" />
    <glyph glyph-name="threesuperior" unicode="&#xb3;" horiz-adv-x="499" 
d="M57 294l25 79l11 -4q10 -40 48 -65t88 -25q52 0 85.5 25.5t33.5 66.5t-32 64t-88 23q-36 0 -54 -6v38q24 -7 50 -7q47 0 73 20t26 55q0 34 -26.5 55.5t-67.5 21.5q-40 0 -72 -23.5t-44 -61.5l-11 -4l-22 74q82 37 164 37q79 0 125 -24.5t46 -67.5q0 -67 -106 -92
q131 -23 131 -98q0 -55 -55.5 -86.5t-151.5 -31.5q-105 0 -176 37z" />
    <glyph glyph-name="acute" unicode="&#xb4;" 
d="M167 592h-47l112 108q34 33 49 43t32 10q18 0 29.5 -10.5t11.5 -26.5q0 -17 -10.5 -26.5t-57.5 -34.5z" />
    <glyph glyph-name="mu" unicode="&#xb5;" horiz-adv-x="464" 
d="M482 53v-18l-106 -45q-1 -1 -5 -1q-22 1 -32 15t-23 61q-50 -50 -76 -65t-63 -15q-42 0 -67 19.5t-42 66.5q0 -49 4 -76q0 -4 8 -38q2 -12 11 -47q8 -35 8 -49q0 -23 -15 -38.5t-37 -15.5q-23 0 -37.5 15t-14.5 38q0 24 8 62q30 150 30 337v198h104v-287q0 -78 20 -106
q18 -25 53 -25q51 0 100 66v352h103v-332q0 -47 8 -63.5t32 -16.5q13 0 29 8z" />
    <glyph glyph-name="paragraph" unicode="&#xb6;" horiz-adv-x="594" 
d="M546 667v-28h-17q-41 0 -50 -11t-9 -63v-568q1 -43 7 -50t41 -7h20v-28h-128v725h-81v-725h-144v28h22q41 0 52 8q7 5 8 11.5t2 40.5v346h-35q-66 0 -98 16q-41 20 -64.5 58.5t-23.5 85.5q0 52 25.5 91.5t69.5 56.5q25 10 44 11.5t103 1.5h256zM269 639h-29
q-46 0 -66 -20q-35 -33 -35 -113q0 -59 25.5 -93t69.5 -34h35v260z" />
    <glyph glyph-name="periodcentered" unicode="&#xb7;" horiz-adv-x="233" 
d="M116 344q27 0 45.5 -18.5t18.5 -45.5q0 -26 -19 -44.5t-44 -18.5q-26 0 -45 19t-19 45q0 25 18.5 44t44.5 19z" />
    <glyph glyph-name="cedilla" unicode="&#xb8;" 
d="M272 0l-24 -55q20 3 29 3q39 0 62 -18t23 -48q0 -39 -32.5 -62.5t-86.5 -23.5q-51 0 -106 30l16 30q51 -21 78 -21q22 0 34.5 11.5t12.5 30.5q0 17 -11.5 27.5t-30.5 10.5q-13 0 -29 -5l-7 6l39 84h33z" />
    <glyph glyph-name="onesuperior" unicode="&#xb9;" horiz-adv-x="499" 
d="M159 618v13q18 2 63.5 12t67.5 17v-215q0 -107 9 -134.5t46 -32.5v-12q-39 2 -93 2t-99 -2v12q39 5 48.5 32t9.5 135v94q0 51 -8 63q-11 14 -33 16h-9h-2z" />
    <glyph glyph-name="ordmasculine" unicode="&#xba;" horiz-adv-x="467" 
d="M411 284v-28h-356v28h356zM233 674q81 0 134.5 -49t53.5 -124q0 -71 -54.5 -120t-133.5 -49q-80 0 -134 49t-54 122t54 122t134 49zM233 652q-50 0 -78.5 -40t-28.5 -109t28.5 -109t78.5 -40q49 0 78 40t29 107q0 71 -28.5 111t-78.5 40z" />
    <glyph glyph-name="guillemotright" unicode="&#xbb;" horiz-adv-x="462" 
d="M286 91q-8 6 -10 7q-24 19 -46 32q79 106 103 147q-38 61 -98 141q-1 1 -2.5 3.5t-3 4.5t-2.5 4q29 10 61 39q43 -82 125 -191q-21 -32 -69 -101q-49 -70 -58 -86zM106 91q-9 7 -10 7q-24 19 -46 32q79 106 103 147q-38 61 -98 141q-1 1 -2.5 3.5t-3 4.5t-2.5 4
q29 10 61 39q43 -82 125 -191q-5 -7 -10 -14.5t-21 -30.5t-38 -56q-49 -70 -58 -86z" />
    <glyph glyph-name="onequarter" unicode="&#xbc;" horiz-adv-x="1064" 
d="M159 618v13q18 2 63.5 12t67.5 17v-215q0 -107 9 -134.5t46 -32.5v-12q-39 2 -93 2t-99 -2v12q39 5 48.5 32t9.5 135v94q0 51 -8 63q-11 14 -33 16h-9h-2zM634 667h50l-254 -667h-50zM1023 180l-33 -86l-10 1l-37 3h-5q-4 1 -15 1.5t-24 0.5q1 -59 9.5 -72.5t47.5 -16.5
v-12q-40 1 -90 1q-47 0 -102 -1v12q38 3 46 16t10 73h-223l14 35l272 261l16 -3q0 -43 -1 -112v-37v-23q1 -6 1 -36v-49q44 0 69.5 11t41.5 37zM820 136v165l-168 -165h168z" />
    <glyph glyph-name="onehalf" unicode="&#xbd;" horiz-adv-x="1064" 
d="M159 618v13q18 2 63.5 12t67.5 17v-215q0 -107 9 -134.5t46 -32.5v-12q-39 2 -93 2t-99 -2v12q39 5 48.5 32t9.5 135v94q0 51 -8 63q-11 14 -33 16h-9h-2zM634 667h50l-254 -667h-50zM991 109l-38 -109h-324q15 93 145 152q62 31 86.5 58t24.5 65q0 41 -28 67.5t-71 26.5
q-84 0 -118 -85l-11 -4l-20 77q74 34 157 34t133 -34t50 -89q0 -46 -37 -76t-121 -52q-102 -25 -116 -72h145q64 0 90.5 9t40.5 36z" />
    <glyph glyph-name="threequarters" unicode="&#xbe;" horiz-adv-x="1064" 
d="M57 294l25 79l11 -4q10 -40 48 -65t88 -25q52 0 85.5 25.5t33.5 66.5t-32 64t-88 23q-36 0 -54 -6v38q24 -7 50 -7q47 0 73 20t26 55q0 34 -26.5 55.5t-67.5 21.5q-40 0 -72 -23.5t-44 -61.5l-11 -4l-22 74q82 37 164 37q79 0 125 -24.5t46 -67.5q0 -67 -106 -92
q131 -23 131 -98q0 -55 -55.5 -86.5t-151.5 -31.5q-105 0 -176 37zM633 667h50l-253 -667h-50zM1023 180l-33 -86l-10 1l-37 3h-5q-4 1 -15 1.5t-24 0.5q1 -59 9.5 -72.5t47.5 -16.5v-12q-40 1 -90 1q-47 0 -102 -1v12q38 3 46 16t10 73h-223l14 35l272 261l16 -3
q0 -43 -1 -112v-37v-23q1 -6 1 -36v-49q44 0 69.5 11t41.5 37zM820 136v165l-168 -165h168z" />
    <glyph glyph-name="questiondown" unicode="&#xbf;" horiz-adv-x="543" 
d="M482 155l32 -122q-95 -46 -213 -46q-116 0 -192.5 54t-76.5 136q0 55 39 104q17 21 30.5 32t79.5 55q55 38 76 71t25 88h25q-1 -62 -17.5 -101.5t-68.5 -102.5q-61 -79 -61 -154q0 -74 35 -114.5t100 -40.5t113 37t65 101zM293 681q26 0 45 -19t19 -45q0 -25 -18.5 -44
t-44.5 -19q-27 0 -45.5 18.5t-18.5 45.5q0 26 19 44.5t44 18.5z" />
    <glyph glyph-name="Agrave" unicode="&#xc0;" horiz-adv-x="873" 
d="M512 304h-250l-36 -66q-62 -112 -62 -163t70 -67v-10q-61 4 -112 4t-112 -4v10q41 13 88 77t127 213l211 398l249 -458q80 -148 104.5 -180t70.5 -50v-10q-76 4 -138 4q-60 0 -144 -4v10q27 4 37.5 13t10.5 28q0 29 -48 126zM500 331l-114 210l-111 -210h225zM495 732
l-89 41q-58 27 -71.5 38t-13.5 30q0 18 13.5 29.5t33.5 11.5t33 -8.5t49 -44.5l99 -97h-54z" />
    <glyph glyph-name="Aacute" unicode="&#xc1;" horiz-adv-x="873" 
d="M512 304h-250l-36 -66q-62 -112 -62 -163t70 -67v-10q-61 4 -112 4t-112 -4v10q41 13 88 77t127 213l211 398l249 -458q80 -148 104.5 -180t70.5 -50v-10q-76 4 -138 4q-60 0 -144 -4v10q27 4 37.5 13t10.5 28q0 29 -48 126zM500 331l-114 210l-111 -210h225zM431 732
h-55l99 97q37 36 50 44.5t32 8.5q21 0 34 -11.5t13 -29.5q0 -19 -13.5 -30t-71.5 -38z" />
    <glyph glyph-name="Acircumflex" unicode="&#xc2;" horiz-adv-x="873" 
d="M512 304h-250l-36 -66q-62 -112 -62 -163t70 -67v-10q-61 4 -112 4t-112 -4v10q41 13 88 77t127 213l211 398l249 -458q80 -148 104.5 -180t70.5 -50v-10q-76 4 -138 4q-60 0 -144 -4v10q27 4 37.5 13t10.5 28q0 29 -48 126zM500 331l-114 210l-111 -210h225zM337 731
h-51l115 151h72l110 -151h-58l-92 78z" />
    <glyph glyph-name="Atilde" unicode="&#xc3;" horiz-adv-x="873" 
d="M512 304h-250l-36 -66q-62 -112 -62 -163t70 -67v-10q-61 4 -112 4t-112 -4v10q41 13 88 77t127 213l211 398l249 -458q80 -148 104.5 -180t70.5 -50v-10q-76 4 -138 4q-60 0 -144 -4v10q27 4 37.5 13t10.5 28q0 29 -48 126zM500 331l-114 210l-111 -210h225zM277 745
h-36q43 124 127 124q33 0 99 -29q56 -25 84 -25q22 0 33.5 10t21.5 37h37q-38 -119 -125 -119q-30 0 -82 22q-62 28 -90 28q-26 0 -41.5 -11t-27.5 -37z" />
    <glyph glyph-name="Adieresis" unicode="&#xc4;" horiz-adv-x="873" 
d="M512 304h-250l-36 -66q-62 -112 -62 -163t70 -67v-10q-61 4 -112 4t-112 -4v10q41 13 88 77t127 213l211 398l249 -458q80 -148 104.5 -180t70.5 -50v-10q-76 4 -138 4q-60 0 -144 -4v10q27 4 37.5 13t10.5 28q0 29 -48 126zM500 331l-114 210l-111 -210h225zM309 872
q26 0 45.5 -19.5t19.5 -45.5q0 -27 -19.5 -46.5t-46.5 -19.5t-46 19.5t-19 46.5t19.5 46t46.5 19zM562 872q26 0 45.5 -19.5t19.5 -45.5q0 -27 -19.5 -46.5t-46.5 -19.5t-46 19.5t-19 46.5t19.5 46t46.5 19z" />
    <glyph glyph-name="Aring" unicode="&#xc5;" horiz-adv-x="873" 
d="M512 304h-250l-36 -66q-62 -112 -62 -163t70 -67v-10q-61 4 -112 4t-112 -4v10q41 13 88 77t127 213l211 398l249 -458q80 -148 104.5 -180t70.5 -50v-10q-76 4 -138 4q-60 0 -144 -4v10q27 4 37.5 13t10.5 28q0 29 -48 126zM500 331l-114 210l-111 -210h225zM436 877
q-21 0 -36 -14.5t-15 -35.5t14.5 -36t35.5 -15q20 0 35 15t15 36q0 20 -14.5 35t-34.5 15zM437 925q39 0 67.5 -29t28.5 -69q0 -41 -28.5 -69.5t-69.5 -28.5t-69.5 29t-28.5 70t29 69t71 28z" />
    <glyph glyph-name="AE" unicode="&#xc6;" horiz-adv-x="1143" 
d="M496 304h-200l-38 -66q-58 -109 -68 -131t-10 -44q0 -42 54 -55v-10q-60 4 -112 4t-112 -4v10q72 26 116.5 77.5t134.5 212.5l126 210q3 6 22 36q40 61 40 78q0 24 -33 35v10h576l42 -149l-10 -3q-47 67 -121.5 96t-198.5 29h-88v-277h83q105 0 152 18.5t71 68.5h10v-206
h-10q-21 54 -67.5 73t-159.5 19h-79v-77q0 -46 4 -110.5t8 -78.5q11 -43 102 -43q117 0 192.5 29t157.5 104l9 -4l-55 -156h-306q-64 2 -172 2q-27 0 -147 -4v10q60 15 71 53.5t16 242.5zM495 331v309l-185 -309h185z" />
    <glyph glyph-name="Ccedilla" unicode="&#xc7;" horiz-adv-x="841" 
d="M770 610l-45 -133l-9 3q-17 87 -78 134t-155 47q-153 0 -227 -110q-58 -85 -58 -214q0 -147 82 -238.5t213 -91.5q57 0 108 20.5t85 56.5q33 34 51 98l10 4l30 -118q-59 -41 -137.5 -64.5t-159.5 -23.5q-4 0 -48 2l-16 -37q20 3 30 3q38 0 61 -18t23 -48
q0 -39 -32.5 -62.5t-86.5 -23.5q-51 0 -106 30l16 30q51 -21 78 -21q22 0 34.5 11.5t12.5 30.5q0 17 -11.5 27.5t-30.5 10.5q-13 0 -29 -5l-7 6l32 70q-76 12 -134 37q-98 43 -153 124.5t-55 184.5q0 75 31.5 143.5t89.5 117.5q110 94 284 94q77 0 145 -17t162 -60z" />
    <glyph glyph-name="Egrave" unicode="&#xc8;" horiz-adv-x="837" 
d="M782 156l-55 -156h-306l-152 1q-31 1 -65 1q-55 0 -154 -4v10q39 8 55.5 25.5t21.5 53.5q10 76 10 294v127q0 68 -2.5 89.5t-12.5 34.5q-13 16 -45 25v10h608l42 -149l-10 -3q-46 67 -120.5 96t-198.5 29h-141v-277h136q104 0 151 18.5t71 68.5h10v-206h-10
q-21 54 -67.5 73t-158.5 19h-132v-77q0 -67 7 -163q3 -43 27.5 -56.5t98.5 -13.5q144 0 220 26.5t163 107.5zM427 732l-88 41q-58 27 -71.5 38t-13.5 30q0 18 13.5 29.5t33.5 11.5q19 0 32 -8.5t50 -44.5l99 -97h-55z" />
    <glyph glyph-name="Eacute" unicode="&#xc9;" horiz-adv-x="837" 
d="M782 156l-55 -156h-306l-152 1q-31 1 -65 1q-55 0 -154 -4v10q39 8 55.5 25.5t21.5 53.5q10 76 10 294v127q0 68 -2.5 89.5t-12.5 34.5q-13 16 -45 25v10h608l42 -149l-10 -3q-46 67 -120.5 96t-198.5 29h-141v-277h136q104 0 151 18.5t71 68.5h10v-206h-10
q-21 54 -67.5 73t-158.5 19h-132v-77q0 -67 7 -163q3 -43 27.5 -56.5t98.5 -13.5q144 0 220 26.5t163 107.5zM381 732h-54l98 97q37 36 50 44.5t32 8.5q21 0 34 -11.5t13 -29.5q0 -19 -13.5 -30t-71.5 -38z" />
    <glyph glyph-name="Ecircumflex" unicode="&#xca;" horiz-adv-x="837" 
d="M782 156l-55 -156h-306l-152 1q-31 1 -65 1q-55 0 -154 -4v10q39 8 55.5 25.5t21.5 53.5q10 76 10 294v127q0 68 -2.5 89.5t-12.5 34.5q-13 16 -45 25v10h608l42 -149l-10 -3q-46 67 -120.5 96t-198.5 29h-141v-277h136q104 0 151 18.5t71 68.5h10v-206h-10
q-21 54 -67.5 73t-158.5 19h-132v-77q0 -67 7 -163q3 -43 27.5 -56.5t98.5 -13.5q144 0 220 26.5t163 107.5zM298 731h-51l114 151h72l111 -151h-59l-91 78z" />
    <glyph glyph-name="Edieresis" unicode="&#xcb;" horiz-adv-x="837" 
d="M782 156l-55 -156h-306l-152 1q-31 1 -65 1q-55 0 -154 -4v10q39 8 55.5 25.5t21.5 53.5q10 76 10 294v127q0 68 -2.5 89.5t-12.5 34.5q-13 16 -45 25v10h608l42 -149l-10 -3q-46 67 -120.5 96t-198.5 29h-141v-277h136q104 0 151 18.5t71 68.5h10v-206h-10
q-21 54 -67.5 73t-158.5 19h-132v-77q0 -67 7 -163q3 -43 27.5 -56.5t98.5 -13.5q144 0 220 26.5t163 107.5zM268 872q26 0 45.5 -19.5t19.5 -45.5q0 -27 -19.5 -46.5t-46.5 -19.5t-46 19.5t-19 46.5t19.5 46t46.5 19zM520 872q26 0 45.5 -19.5t19.5 -45.5
q0 -27 -19.5 -46.5t-46.5 -19.5t-46 19.5t-19 46.5t19.5 46t46.5 19z" />
    <glyph glyph-name="Igrave" unicode="&#xcc;" horiz-adv-x="353" 
d="M64 659v10q83 -4 123 -4q48 0 103 4v-10q-30 -10 -43 -31q-10 -21 -10 -120v-213q0 -78 1.5 -122.5t5 -79t11.5 -50t19 -23.5t30 -12v-10q-69 4 -124 4q-54 0 -130 -4v10q17 3 26.5 7.5t18 19t12 33t6.5 58.5t3.5 85.5t0.5 123.5v173q0 69 -2.5 90.5t-10.5 34.5
q-12 18 -40 26zM225 732l-88 41q-58 27 -71.5 38t-13.5 30q0 18 13.5 29.5t33.5 11.5q19 0 32 -8.5t50 -44.5l99 -97h-55z" />
    <glyph glyph-name="Iacute" unicode="&#xcd;" horiz-adv-x="353" 
d="M64 659v10q83 -4 123 -4q48 0 103 4v-10q-30 -10 -43 -31q-10 -21 -10 -120v-213q0 -78 1.5 -122.5t5 -79t11.5 -50t19 -23.5t30 -12v-10q-69 4 -124 4q-54 0 -130 -4v10q17 3 26.5 7.5t18 19t12 33t6.5 58.5t3.5 85.5t0.5 123.5v173q0 69 -2.5 90.5t-10.5 34.5
q-12 18 -40 26zM140 732h-54l98 97q38 37 50.5 45t31.5 8q21 0 34 -11.5t13 -29.5q0 -19 -13.5 -30t-71.5 -38z" />
    <glyph glyph-name="Icircumflex" unicode="&#xce;" horiz-adv-x="353" 
d="M63 659v10q83 -4 123 -4q48 0 103 4v-10q-30 -10 -43 -31q-10 -21 -10 -120v-213q0 -78 1.5 -122.5t5 -79t11.5 -50t19 -23.5t30 -12v-10q-69 4 -124 4q-54 0 -130 -4v10q17 3 26.5 7.5t18 19t12 33t6.5 58.5t3.5 85.5t0.5 123.5v173q0 69 -2.5 90.5t-10.5 34.5
q-12 18 -40 26zM79 731h-51l114 151h72l111 -151h-59l-91 78z" />
    <glyph glyph-name="Idieresis" unicode="&#xcf;" horiz-adv-x="353" 
d="M64 659v10q83 -4 123 -4q48 0 103 4v-10q-30 -10 -43 -31q-10 -21 -10 -120v-213q0 -78 1.5 -122.5t5 -79t11.5 -50t19 -23.5t30 -12v-10q-69 4 -124 4q-54 0 -130 -4v10q17 3 26.5 7.5t18 19t12 33t6.5 58.5t3.5 85.5t0.5 123.5v173q0 69 -2.5 90.5t-10.5 34.5
q-12 18 -40 26zM84 872q26 0 45.5 -19.5t19.5 -45.5q0 -27 -19.5 -46.5t-46.5 -19.5t-46 19.5t-19 46.5t19.5 46t46.5 19zM270 872q26 0 45.5 -19.5t19.5 -45.5q0 -27 -19.5 -46.5t-46.5 -19.5t-46 19.5t-19 46.5t19.5 46t46.5 19z" />
    <glyph glyph-name="Eth" unicode="&#xd0;" horiz-adv-x="883" 
d="M137 363v18v127q0 68 -2.5 89t-12.5 35q-12 16 -45 25v10h363q93 0 152 -17t113 -59q120 -93 120 -248q0 -77 -31 -145.5t-87 -114.5q-57 -47 -126.5 -66t-182.5 -19q-6 0 -78 2q-147 5 -270 -2v10q60 13 72.5 60t14.5 268h-66v27h66zM257 363h214v-27h-214
q1 -226 13 -262q9 -29 36.5 -39t94.5 -10q148 0 219.5 77t71.5 238q0 156 -73 230q-39 40 -91 55t-148 15h-123v-277z" />
    <glyph glyph-name="Ntilde" unicode="&#xd1;" horiz-adv-x="881" 
d="M747 -30l-587 611v-198q0 -120 2.5 -181.5t14 -105t29 -59.5t51.5 -29v-10q-57 4 -105 4q-45 0 -109 -4v10q48 17 66 58q16 38 20 92.5t4 224.5v126q0 70 -3 90.5t-16 34.5q-16 17 -54 25v10q72 -4 113 -4q46 0 83 4l464 -483v183q0 160 -18.5 216.5t-77.5 73.5v10
q71 -4 117 -4q51 0 96 4v-10q-39 -11 -57.5 -37.5t-25.5 -82.5t-7 -170v-399zM294 745h-36q23 64 53.5 94t73.5 30q33 0 99 -29q56 -25 84 -25q22 0 34 10t22 37h36q-38 -119 -125 -119q-31 0 -81 22q-63 28 -90 28t-42.5 -11t-27.5 -37z" />
    <glyph glyph-name="Ograve" unicode="&#xd2;" horiz-adv-x="901" 
d="M449 687q131 0 234 -66q159 -102 159 -293q0 -146 -113.5 -247t-278.5 -101q-167 0 -279.5 101.5t-112.5 252.5q0 89 42 165t117 122q106 66 232 66zM450 660q-115 0 -183.5 -88.5t-68.5 -237.5q0 -150 68 -238.5t184 -88.5q115 0 183.5 87.5t68.5 233.5q0 154 -67.5 243
t-184.5 89zM501 732l-88 41q-59 27 -72.5 38t-13.5 30q0 18 13.5 29.5t33.5 11.5t33 -8.5t49 -44.5l99 -97h-54z" />
    <glyph glyph-name="Oacute" unicode="&#xd3;" horiz-adv-x="901" 
d="M449 687q131 0 234 -66q159 -102 159 -293q0 -146 -113.5 -247t-278.5 -101q-167 0 -279.5 101.5t-112.5 252.5q0 89 42 165t117 122q106 66 232 66zM450 660q-115 0 -183.5 -88.5t-68.5 -237.5q0 -150 68 -238.5t184 -88.5q115 0 183.5 87.5t68.5 233.5q0 154 -67.5 243
t-184.5 89zM425 732h-54l99 97q37 36 50 44.5t32 8.5q21 0 34 -11.5t13 -29.5q0 -19 -13.5 -30t-71.5 -38z" />
    <glyph glyph-name="Ocircumflex" unicode="&#xd4;" horiz-adv-x="901" 
d="M449 687q131 0 234 -66q159 -102 159 -293q0 -146 -113.5 -247t-278.5 -101q-167 0 -279.5 101.5t-112.5 252.5q0 89 42 165t117 122q106 66 232 66zM450 660q-115 0 -183.5 -88.5t-68.5 -237.5q0 -150 68 -238.5t184 -88.5q115 0 183.5 87.5t68.5 233.5q0 154 -67.5 243
t-184.5 89zM352 731h-50l114 151h72l111 -151h-59l-92 78z" />
    <glyph glyph-name="Otilde" unicode="&#xd5;" horiz-adv-x="901" 
d="M449 687q131 0 234 -66q159 -102 159 -293q0 -146 -113.5 -247t-278.5 -101q-167 0 -279.5 101.5t-112.5 252.5q0 89 42 165t117 122q106 66 232 66zM450 660q-115 0 -183.5 -88.5t-68.5 -237.5q0 -150 68 -238.5t184 -88.5q115 0 183.5 87.5t68.5 233.5q0 154 -67.5 243
t-184.5 89zM299 745h-36q43 124 127 124q33 0 99 -29q56 -25 84 -25q22 0 33.5 10t21.5 37h37q-38 -119 -125 -119q-31 0 -81 22q-63 28 -90 28t-42.5 -11t-27.5 -37z" />
    <glyph glyph-name="Odieresis" unicode="&#xd6;" horiz-adv-x="901" 
d="M449 687q131 0 234 -66q159 -102 159 -293q0 -146 -113.5 -247t-278.5 -101q-167 0 -279.5 101.5t-112.5 252.5q0 89 42 165t117 122q106 66 232 66zM450 660q-115 0 -183.5 -88.5t-68.5 -237.5q0 -150 68 -238.5t184 -88.5q115 0 183.5 87.5t68.5 233.5q0 154 -67.5 243
t-184.5 89zM324 872q26 0 45.5 -19.5t19.5 -45.5q0 -27 -19.5 -46.5t-46.5 -19.5t-46 19.5t-19 46.5t19.5 46t46.5 19zM577 872q26 0 45.5 -19.5t19.5 -45.5q0 -27 -19.5 -46.5t-46.5 -19.5t-46 19.5t-19 46.5t19.5 46t46.5 19z" />
    <glyph glyph-name="multiply" unicode="&#xd7;" 
d="M97 547l152 -153l154 155l43 -44l-154 -154l153 -152l-42 -43l-153 154l-153 -155l-44 44l154 154l-152 152z" />
    <glyph glyph-name="Oslash" unicode="&#xd8;" horiz-adv-x="901" 
d="M756 740l-83 -113q82 -49 125.5 -124.5t43.5 -169.5q0 -150 -112.5 -251.5t-279.5 -101.5q-110 0 -211 53l-68 -93h-33l78 107q-158 104 -158 287q0 150 112.5 251.5t278.5 101.5q108 0 200 -47l73 100h34zM633 573l-357 -489q70 -77 174 -77q116 0 184 88.5t68 238.5
q0 151 -69 239zM259 106l356 487q-67 67 -165 67q-116 0 -184 -88.5t-68 -239.5q0 -138 61 -226z" />
    <glyph glyph-name="Ugrave" unicode="&#xd9;" horiz-adv-x="857" 
d="M594 659v10q75 -4 123 -4q49 0 104 4v-10q-46 -12 -68 -42.5t-30.5 -94.5t-8.5 -194v-72q0 -276 -288 -276q-142 0 -231 39q-54 25 -79 75.5t-25 135.5l2 187v92q0 67 -2.5 88.5t-10.5 35.5q-11 17 -40 26v10q76 -4 128 -4t115 4v-10q-43 -13 -56 -38q-9 -16 -11.5 -42.5
t-2.5 -103.5v-105q0 -169 17 -222q46 -141 218 -141q123 0 184 69q55 61 55 190v79q0 178 -13 234q-8 32 -25.5 50t-54.5 30zM472 732l-88 41q-58 27 -71.5 38t-13.5 30q0 18 13.5 29.5t33.5 11.5q19 0 31.5 -8t50.5 -45l98 -97h-54z" />
    <glyph glyph-name="Uacute" unicode="&#xda;" horiz-adv-x="857" 
d="M594 659v10q75 -4 123 -4q49 0 104 4v-10q-46 -12 -68 -42.5t-30.5 -94.5t-8.5 -194v-72q0 -276 -288 -276q-142 0 -231 39q-54 25 -79 75.5t-25 135.5l2 187v92q0 67 -2.5 88.5t-10.5 35.5q-11 17 -40 26v10q76 -4 128 -4t115 4v-10q-43 -13 -56 -38q-9 -16 -11.5 -42.5
t-2.5 -103.5v-105q0 -169 17 -222q46 -141 218 -141q123 0 184 69q55 61 55 190v79q0 178 -13 234q-8 32 -25.5 50t-54.5 30zM426 732h-54l99 97q36 36 49 44.5t33 8.5q21 0 34 -11.5t13 -29.5q0 -19 -13.5 -30t-72.5 -38z" />
    <glyph glyph-name="Ucircumflex" unicode="&#xdb;" horiz-adv-x="857" 
d="M594 659v10q75 -4 123 -4q49 0 104 4v-10q-46 -12 -68 -42.5t-30.5 -94.5t-8.5 -194v-72q0 -276 -288 -276q-142 0 -231 39q-54 25 -79 75.5t-25 135.5l2 187v92q0 67 -2.5 88.5t-10.5 35.5q-11 17 -40 26v10q76 -4 128 -4t115 4v-10q-43 -13 -56 -38q-9 -16 -11.5 -42.5
t-2.5 -103.5v-105q0 -169 17 -222q46 -141 218 -141q123 0 184 69q55 61 55 190v79q0 178 -13 234q-8 32 -25.5 50t-54.5 30zM341 731h-51l115 151h71l111 -151h-58l-92 78z" />
    <glyph glyph-name="Udieresis" unicode="&#xdc;" horiz-adv-x="857" 
d="M594 659v10q75 -4 123 -4q49 0 104 4v-10q-46 -12 -68 -42.5t-30.5 -94.5t-8.5 -194v-72q0 -276 -288 -276q-142 0 -231 39q-54 25 -79 75.5t-25 135.5l2 187v92q0 67 -2.5 88.5t-10.5 35.5q-11 17 -40 26v10q76 -4 128 -4t115 4v-10q-43 -13 -56 -38q-9 -16 -11.5 -42.5
t-2.5 -103.5v-105q0 -169 17 -222q46 -141 218 -141q123 0 184 69q55 61 55 190v79q0 178 -13 234q-8 32 -25.5 50t-54.5 30zM304 872q26 0 45.5 -19.5t19.5 -45.5q0 -27 -19.5 -46.5t-46.5 -19.5t-46 19.5t-19 46.5t19.5 46t46.5 19zM557 872q26 0 45.5 -19.5t19.5 -45.5
q0 -27 -19.5 -46.5t-46.5 -19.5t-46 19.5t-19 46.5t19.5 46t46.5 19z" />
    <glyph glyph-name="Yacute" unicode="&#xdd;" horiz-adv-x="805" 
d="M452 294v-19q0 -119 5 -169.5t18.5 -71t46.5 -26.5v-10q-69 4 -126 4q-54 0 -131 -4v10q19 4 30 11.5t19 22t11.5 46.5t5 73.5t1.5 113.5v19l-169 215q-63 81 -95 110t-69 40v10q95 -4 154 -4q61 0 125 4v-10q-51 -7 -51 -43q0 -29 56 -99l155 -195l108 144
q57 76 71 100.5t14 47.5q0 32 -49 45v10q71 -4 116 -4q50 0 94 4v-10q-61 -26 -112 -76.5t-157 -190.5zM412 732h-55l99 97q37 36 50 44.5t32 8.5q21 0 34 -11.5t13 -29.5q0 -19 -13.5 -30t-71.5 -38z" />
    <glyph glyph-name="Thorn" unicode="&#xde;" horiz-adv-x="777" 
d="M250 185v-23q0 -69 6 -97t22.5 -40t58.5 -17v-10q-77 4 -130 4q-20 0 -157 -4v10q20 2 31.5 6t21.5 16.5t14.5 29t7.5 51.5t4 75.5t1 108.5v213q0 67 -2.5 88.5t-10.5 34.5q-14 18 -47 26v10q96 -3 124 -3q38 0 103 3v-10q-30 -10 -38.5 -33t-8.5 -91h153q129 0 204 -27
q61 -22 94 -60t33 -85q0 -85 -97.5 -134.5t-267.5 -49.5q-79 0 -119 8zM250 506v-294q50 -8 92 -8q113 0 184 37q32 17 50 49t18 71q0 145 -225 145h-119z" />
    <glyph glyph-name="germandbls" unicode="&#xdf;" horiz-adv-x="700" 
d="M317 99l9 1q32 -86 102 -86q50 0 76 50q22 41 22 119q0 151 -63 192q-28 17 -109 17q-12 0 -26 -1l-7 28q29 -7 39 -7q61 0 88 35.5t27 114.5q0 78 -33.5 119t-97.5 41q-62 0 -103 -35q-37 -30 -37 -105l2 -435q2 -80 15.5 -106.5t56.5 -33.5v-9q-68 4 -122 4t-126 -4v9
q25 5 36.5 12.5t19.5 23.5q17 36 17 104v350q0 78 11.5 114.5t45.5 69.5q68 67 190 67q108 0 169.5 -47t61.5 -130q0 -69 -49 -116q-22 -21 -99 -49q52 -6 83 -17t59 -34q71 -59 71 -156q0 -103 -65 -159q-63 -53 -147 -53q-52 0 -105 21z" />
    <glyph glyph-name="agrave" unicode="&#xe0;" horiz-adv-x="663" 
d="M640 0h-137q-20 51 -28 101q-30 -50 -56 -71q-54 -44 -135 -44q-101 0 -166.5 46.5t-65.5 119.5q0 99 117 144q96 37 246 37h55v34q0 81 -41 123.5t-120 42.5q-101 0 -157 -58q-27 -29 -38 -74l-9 -3l-30 103q112 59 255 59q126 0 191 -55q32 -28 45.5 -66.5t13.5 -105.5
v-120q0 -116 11.5 -155t48.5 -50v-8zM470 306h-55q-115 0 -176 -40t-61 -115q0 -57 37 -97.5t89 -40.5q42 0 79.5 22.5t58.5 59.5q28 52 28 158v53zM380 592l-118 63q-47 25 -58 34.5t-11 26.5q0 16 11.5 26.5t29.5 10.5q17 0 32.5 -10t49.5 -43l112 -108h-48z" />
    <glyph glyph-name="aacute" unicode="&#xe1;" horiz-adv-x="663" 
d="M640 0h-137q-20 51 -28 101q-30 -50 -56 -71q-54 -44 -135 -44q-101 0 -166.5 46.5t-65.5 119.5q0 99 117 144q96 37 246 37h55v34q0 81 -41 123.5t-120 42.5q-101 0 -157 -58q-27 -29 -38 -74l-9 -3l-30 103q112 59 255 59q126 0 191 -55q32 -28 45.5 -66.5t13.5 -105.5
v-120q0 -116 11.5 -155t48.5 -50v-8zM470 306h-55q-115 0 -176 -40t-61 -115q0 -57 37 -97.5t89 -40.5q42 0 79.5 22.5t58.5 59.5q28 52 28 158v53zM320 592h-48l112 108q34 33 49 43t32 10q18 0 29.5 -10.5t11.5 -26.5q0 -17 -10.5 -26.5t-57.5 -34.5z" />
    <glyph glyph-name="acircumflex" unicode="&#xe2;" horiz-adv-x="673" 
d="M640 0h-137q-20 51 -28 101q-30 -50 -56 -71q-54 -44 -135 -44q-101 0 -166.5 46.5t-65.5 119.5q0 99 117 144q96 37 246 37h55v34q0 81 -41 123.5t-120 42.5q-101 0 -157 -58q-27 -29 -38 -74l-9 -3l-30 103q112 59 255 59q126 0 191 -55q32 -28 45.5 -66.5t13.5 -105.5
v-120q0 -116 11.5 -155t48.5 -50v-8zM470 306h-55q-115 0 -176 -40t-61 -115q0 -57 37 -97.5t89 -40.5q42 0 79.5 22.5t58.5 59.5q28 52 28 158v53zM175 591l132 164h56l122 -164h-40l-111 96l-118 -96h-41z" />
    <glyph glyph-name="atilde" unicode="&#xe3;" horiz-adv-x="673" 
d="M640 0h-137q-20 51 -28 101q-30 -50 -56 -71q-54 -44 -135 -44q-101 0 -166.5 46.5t-65.5 119.5q0 99 117 144q96 37 246 37h55v34q0 81 -41 123.5t-120 42.5q-101 0 -157 -58q-27 -29 -38 -74l-9 -3l-30 103q112 59 255 59q126 0 191 -55q32 -28 45.5 -66.5t13.5 -105.5
v-120q0 -116 11.5 -155t48.5 -50v-8zM470 306h-55q-115 0 -176 -40t-61 -115q0 -57 37 -97.5t89 -40.5q42 0 79.5 22.5t58.5 59.5q28 52 28 158v53zM188 615h-35q31 112 116 112q34 0 93 -21q52 -19 70 -19q22 0 33.5 9t22.5 35h32q-28 -111 -111 -111q-31 0 -88 22
q-49 19 -71 19q-23 0 -37 -10t-25 -36z" />
    <glyph glyph-name="adieresis" unicode="&#xe4;" horiz-adv-x="663" 
d="M640 0h-137q-20 51 -28 101q-30 -50 -56 -71q-54 -44 -135 -44q-101 0 -166.5 46.5t-65.5 119.5q0 99 117 144q96 37 246 37h55v34q0 81 -41 123.5t-120 42.5q-101 0 -157 -58q-27 -29 -38 -74l-9 -3l-30 103q112 59 255 59q126 0 191 -55q32 -28 45.5 -66.5t13.5 -105.5
v-120q0 -116 11.5 -155t48.5 -50v-8zM470 306h-55q-115 0 -176 -40t-61 -115q0 -57 37 -97.5t89 -40.5q42 0 79.5 22.5t58.5 59.5q28 52 28 158v53zM240 731q23 0 40 -17.5t17 -40.5q0 -24 -17 -41t-41 -17t-41 17t-17 41t17 41t42 17zM441 730q23 0 40 -17t17 -40
q0 -24 -17 -41t-41 -17q-23 0 -40 17t-17 41q0 23 17 40t41 17z" />
    <glyph glyph-name="aring" unicode="&#xe5;" horiz-adv-x="663" 
d="M640 0h-137q-20 51 -28 101q-30 -50 -56 -71q-54 -44 -135 -44q-101 0 -166.5 46.5t-65.5 119.5q0 99 117 144q96 37 246 37h55v34q0 81 -41 123.5t-120 42.5q-101 0 -157 -58q-27 -29 -38 -74l-9 -3l-30 103q112 59 255 59q126 0 191 -55q32 -28 45.5 -66.5t13.5 -105.5
v-120q0 -116 11.5 -155t48.5 -50v-8zM470 306h-55q-115 0 -176 -40t-61 -115q0 -57 37 -97.5t89 -40.5q42 0 79.5 22.5t58.5 59.5q28 52 28 158v53zM335 765q-24 0 -41 -17t-17 -40q0 -25 17 -42t40 -17q24 0 41 17t17 41q0 23 -17 40.5t-40 17.5zM336 810q42 0 72 -30.5
t30 -72.5q0 -43 -30.5 -73.5t-72.5 -30.5q-43 0 -73.5 30.5t-30.5 73.5t30.5 73t74.5 30z" />
    <glyph glyph-name="ae" unicode="&#xe6;" horiz-adv-x="1103" 
d="M1051 336h-463q-3 -21 -3 -60q0 -94 40 -168q24 -43 68.5 -68.5t97.5 -25.5q58 0 111 28t88 78q25 34 46 93l23 -12q-69 -214 -291 -214q-138 0 -237 92q-24 -29 -48 -46q-69 -46 -192 -46q-107 0 -173 45.5t-66 119.5q0 99 117 144q96 37 246 37h55v33q0 82 -41 124.5
t-120 42.5q-101 0 -157 -58q-27 -29 -38 -74l-9 -3l-30 103q112 59 256 59q142 0 213 -77q33 34 98 56t129 22q106 0 190.5 -68t89.5 -157zM470 306h-55q-115 0 -176 -40t-61 -115q0 -57 37 -97t89 -40q42 0 79.5 22.5t58.5 59.5q28 51 28 157v53zM591 363h323
q0 77 -42.5 124t-112.5 47q-65 0 -111.5 -47t-56.5 -124z" />
    <glyph glyph-name="ccedilla" unicode="&#xe7;" horiz-adv-x="652" 
d="M618 496l-31 -101l-8 2q-11 51 -47 83q-61 53 -151 53q-97 0 -149.5 -65.5t-52.5 -186.5q0 -120 48 -187q59 -81 166 -81q65 0 120.5 35.5t89.5 98.5l19 -18q-91 -142 -243 -142h-9h-16l-19 -42q21 3 30 3q39 0 62 -18t23 -48q0 -39 -32.5 -62.5t-86.5 -23.5
q-51 0 -107 30l16 30q51 -21 79 -21q22 0 34.5 11.5t12.5 30.5q0 17 -11.5 27.5t-31.5 10.5q-12 0 -28 -5l-8 6l35 74q-126 19 -198 95.5t-72 190.5q0 124 87 204t223 80q128 0 256 -64z" />
    <glyph glyph-name="egrave" unicode="&#xe8;" horiz-adv-x="696" 
d="M645 336h-464q-2 -30 -2 -60q0 -94 40 -168q24 -43 68.5 -68.5t97.5 -25.5q58 0 111 28t88 78q26 35 45 93l24 -12q-69 -214 -291 -214q-136 0 -223 80.5t-87 207.5q0 122 87 203.5t218 81.5q138 0 224 -91q59 -62 64 -133zM185 363h323q0 77 -42.5 123.5t-112.5 46.5
q-66 0 -111.5 -46.5t-56.5 -123.5zM411 592l-119 63q-47 25 -57.5 34.5t-10.5 26.5q0 16 11.5 26.5t29.5 10.5q16 0 31 -10t50 -43l112 -108h-47z" />
    <glyph glyph-name="eacute" unicode="&#xe9;" horiz-adv-x="696" 
d="M645 336h-464q-2 -30 -2 -60q0 -94 40 -168q24 -43 68.5 -68.5t97.5 -25.5q58 0 111 28t88 78q26 35 45 93l24 -12q-69 -214 -291 -214q-136 0 -223 80.5t-87 207.5q0 122 87 203.5t218 81.5q138 0 224 -91q59 -62 64 -133zM185 363h323q0 77 -42.5 123.5t-112.5 46.5
q-66 0 -111.5 -46.5t-56.5 -123.5zM336 592h-47l111 108q34 33 49.5 43t32.5 10q18 0 29.5 -10.5t11.5 -26.5q0 -17 -11 -26.5t-58 -34.5z" />
    <glyph glyph-name="ecircumflex" unicode="&#xea;" horiz-adv-x="696" 
d="M645 336h-464q-2 -30 -2 -60q0 -94 40 -168q24 -43 68.5 -68.5t97.5 -25.5q58 0 111 28t88 78q26 35 45 93l24 -12q-69 -214 -291 -214q-136 0 -223 80.5t-87 207.5q0 122 87 203.5t218 81.5q138 0 224 -91q59 -62 64 -133zM185 363h323q0 77 -42.5 123.5t-112.5 46.5
q-66 0 -111.5 -46.5t-56.5 -123.5zM205 591l133 164h56l122 -164h-40l-111 96l-118 -96h-42z" />
    <glyph glyph-name="edieresis" unicode="&#xeb;" horiz-adv-x="696" 
d="M645 336h-464q-2 -30 -2 -60q0 -94 40 -168q24 -43 68.5 -68.5t97.5 -25.5q58 0 111 28t88 78q26 35 45 93l24 -12q-69 -214 -291 -214q-136 0 -223 80.5t-87 207.5q0 122 87 203.5t218 81.5q138 0 224 -91q59 -62 64 -133zM185 363h323q0 77 -42.5 123.5t-112.5 46.5
q-66 0 -111.5 -46.5t-56.5 -123.5zM261 731q23 0 40 -17.5t17 -40.5q0 -24 -17 -41t-41 -17t-41 17t-17 41t17 41t42 17zM461 730q23 0 40 -17t17 -40q0 -24 -17 -41t-41 -17q-23 0 -40 17t-17 41q0 23 17 40t41 17z" />
    <glyph glyph-name="igrave" unicode="&#xec;" horiz-adv-x="303" 
d="M280 7v-9q-61 4 -115 4q-51 0 -122 -4v9q25 5 35.5 12t17.5 23q14 33 14 105v175q0 57 -1 80.5t-3 47t-10 31t-16.5 13t-29.5 11.5v8q93 15 164 34l-1 -67v-48v-27v-258q0 -78 19 -112q11 -20 48 -28zM214 592l-119 63q-47 25 -57.5 34.5t-10.5 26.5q0 16 11.5 26.5
t29.5 10.5q17 0 32.5 -10t49.5 -43l111 -108h-47z" />
    <glyph glyph-name="iacute" unicode="&#xed;" horiz-adv-x="303" 
d="M280 7v-9q-61 4 -115 4q-51 0 -122 -4v9q25 5 35.5 12t17.5 23q14 33 14 105v175q0 57 -1 80.5t-3 47t-10 31t-16.5 13t-29.5 11.5v8q93 15 164 34l-1 -67v-48v-27v-258q0 -78 19 -112q11 -20 48 -28zM127 592h-47l111 108q34 33 49.5 43t32.5 10q18 0 29.5 -10.5
t11.5 -26.5q0 -17 -11 -26.5t-58 -34.5z" />
    <glyph glyph-name="icircumflex" unicode="&#xee;" horiz-adv-x="303" 
d="M280 7v-9q-61 4 -115 4q-51 0 -122 -4v9q25 5 35.5 12t17.5 23q14 33 14 105v175q0 57 -1 80.5t-3 47t-10 31t-16.5 13t-29.5 11.5v8q93 15 164 34l-1 -67v-48v-27v-258q0 -78 19 -112q11 -20 48 -28zM-4 591l133 164h56l121 -164h-39l-112 96l-117 -96h-42z" />
    <glyph glyph-name="idieresis" unicode="&#xef;" horiz-adv-x="303" 
d="M280 7v-9q-61 4 -115 4q-51 0 -122 -4v9q25 5 35.5 12t17.5 23q14 33 14 105v175q0 57 -1 80.5t-3 47t-10 31t-16.5 13t-29.5 11.5v8q93 15 164 34l-1 -67v-48v-27v-258q0 -78 19 -112q11 -20 48 -28zM69 731q23 0 40 -17.5t17 -40.5q0 -24 -17 -41t-41 -17t-41 17
t-17 41t17 41t42 17zM236 730q23 0 40 -17t17 -40q0 -24 -17 -41t-41 -17q-23 0 -40 17t-17 41q0 23 17 40t41 17z" />
    <glyph glyph-name="eth" unicode="&#xf0;" horiz-adv-x="735" 
d="M456 780l20 -20l-77 -72q86 -53 149 -114q136 -138 136 -300q0 -63 -28.5 -121.5t-79.5 -98.5q-85 -67 -208 -67t-208 67q-51 40 -79.5 98.5t-28.5 121.5q0 62 28.5 120.5t79.5 98.5q85 67 211 67q53 0 100 -13q-37 52 -107 112l-85 -77l-20 20l83 76q-32 34 -91 72
l12 19q36 -15 111 -63zM368 533q-87 0 -138 -70t-51 -190q0 -119 51 -189t138 -70q86 0 137.5 69.5t51.5 186.5q0 123 -50.5 193t-138.5 70z" />
    <glyph glyph-name="ntilde" unicode="&#xf1;" horiz-adv-x="731" 
d="M697 7v-9q-61 4 -112 4q-49 0 -118 -4v9q22 5 31 12t15 23q14 36 14 105v135q0 111 -28 170q-16 32 -48 52t-69 20q-80 0 -127 -89q-35 -66 -35 -159v-129q0 -78 17 -112q9 -20 43 -28v-9q-60 4 -114 4q-51 0 -123 -4v9q24 5 34.5 12t17.5 23q15 34 15 105v168
q0 56 -1 80t-2.5 47.5t-8.5 31t-15 13t-26 11.5v9q37 6 159 33q-3 -33 -4 -115v-27q56 162 205 162q52 0 97.5 -19.5t74.5 -53.5q28 -34 38 -77t10 -133v-130q0 -78 17 -112q10 -19 43 -28zM248 615h-35q31 112 115 112q35 0 93 -21q53 -19 70 -19q22 0 33.5 9t23.5 35h32
q-29 -111 -112 -111q-31 0 -88 22q-49 19 -71 19q-23 0 -37 -10.5t-24 -35.5z" />
    <glyph glyph-name="ograve" unicode="&#xf2;" horiz-adv-x="735" 
d="M367 560q137 0 227 -82.5t90 -207.5q0 -60 -29 -118t-79 -98q-85 -67 -208 -67t-208 67q-51 40 -79.5 98.5t-28.5 120.5q0 63 29 122t79 98q86 67 207 67zM368 533q-87 0 -138 -70t-51 -190q0 -119 51 -189t138 -70q86 0 137.5 69.5t51.5 186.5q0 123 -50.5 193
t-138.5 70zM434 592l-119 63q-47 25 -57.5 34.5t-10.5 26.5q0 16 11.5 26.5t29.5 10.5q17 0 32.5 -10t49.5 -43l111 -108h-47z" />
    <glyph glyph-name="oacute" unicode="&#xf3;" horiz-adv-x="735" 
d="M367 560q137 0 227 -82.5t90 -207.5q0 -60 -29 -118t-79 -98q-85 -67 -208 -67t-208 67q-51 40 -79.5 98.5t-28.5 120.5q0 63 29 122t79 98q86 67 207 67zM368 533q-87 0 -138 -70t-51 -190q0 -119 51 -189t138 -70q86 0 137.5 69.5t51.5 186.5q0 123 -50.5 193
t-138.5 70zM333 592h-47l112 108q34 33 49 43t32 10q18 0 29.5 -10.5t11.5 -26.5q0 -17 -10.5 -26.5t-57.5 -34.5z" />
    <glyph glyph-name="ocircumflex" unicode="&#xf4;" horiz-adv-x="735" 
d="M367 560q137 0 227 -82.5t90 -207.5q0 -60 -29 -118t-79 -98q-85 -67 -208 -67t-208 67q-51 40 -79.5 98.5t-28.5 120.5q0 63 29 122t79 98q86 67 207 67zM368 533q-87 0 -138 -70t-51 -190q0 -119 51 -189t138 -70q86 0 137.5 69.5t51.5 186.5q0 123 -50.5 193
t-138.5 70zM213 591l133 164h56l121 -164h-40l-111 96l-117 -96h-42z" />
    <glyph glyph-name="otilde" unicode="&#xf5;" horiz-adv-x="735" 
d="M367 560q137 0 227 -82.5t90 -207.5q0 -60 -29 -118t-79 -98q-85 -67 -208 -67t-208 67q-51 40 -79.5 98.5t-28.5 120.5q0 63 29 122t79 98q86 67 207 67zM368 533q-87 0 -138 -70t-51 -190q0 -119 51 -189t138 -70q86 0 137.5 69.5t51.5 186.5q0 123 -50.5 193
t-138.5 70zM213 615h-35q31 112 115 112q35 0 93 -21q53 -19 70 -19q22 0 33.5 9t23.5 35h31q-28 -111 -111 -111q-31 0 -88 22q-49 19 -71 19q-23 0 -37 -10.5t-24 -35.5z" />
    <glyph glyph-name="odieresis" unicode="&#xf6;" horiz-adv-x="735" 
d="M367 560q137 0 227 -82.5t90 -207.5q0 -60 -29 -118t-79 -98q-85 -67 -208 -67t-208 67q-51 40 -79.5 98.5t-28.5 120.5q0 63 29 122t79 98q86 67 207 67zM368 533q-87 0 -138 -70t-51 -190q0 -119 51 -189t138 -70q86 0 137.5 69.5t51.5 186.5q0 123 -50.5 193
t-138.5 70zM268 718q23 0 40 -17.5t17 -40.5q0 -24 -17 -41t-41 -17t-41 17t-17 41t17 41t42 17zM469 717q23 0 40 -17t17 -40q0 -24 -17 -41t-41 -17q-23 0 -40 17t-17 41q0 23 17 40t41 17z" />
    <glyph glyph-name="divide" unicode="&#xf7;" 
d="M15 381h470v-60h-470v60zM251 578q20 0 34.5 -15t14.5 -35t-14.5 -34.5t-35.5 -14.5q-20 0 -34.5 14.5t-14.5 34.5q0 21 14.5 35.5t35.5 14.5zM251 223q20 0 34.5 -14.5t14.5 -34.5t-14.5 -35t-34.5 -15t-35 15t-15 35t14.5 34.5t35.5 14.5z" />
    <glyph glyph-name="oslash" unicode="&#xf8;" horiz-adv-x="735" 
d="M603 613l-63 -96q69 -41 106.5 -104.5t37.5 -138.5q0 -63 -28.5 -121.5t-79.5 -98.5q-85 -67 -209 -67q-82 0 -152 33l-48 -73h-34l57 86q-66 42 -102 104.5t-36 135.5q0 123 90.5 205t224.5 82q80 0 148 -29l54 82h34zM506 465l-262 -400q51 -51 124 -51q87 0 138 70
t51 190q0 116 -51 191zM226 89l261 398q-49 46 -119 46q-87 0 -138 -70t-51 -190q0 -109 47 -184z" />
    <glyph glyph-name="ugrave" unicode="&#xf9;" horiz-adv-x="687" 
d="M663 0h-129q-10 20 -20 50q-5 19 -15 53q-42 -65 -86 -90.5t-114 -25.5q-53 0 -101 17.5t-77 47.5q-44 45 -44 162l2 98v30q0 68 -3.5 95t-14 39t-38.5 22v9q77 12 163 33q-2 -29 -4 -142v-107q0 -125 23 -190q14 -41 46 -64.5t72 -23.5q49 0 97 35t61 81q16 56 16 167
v59q0 85 -8.5 108t-45.5 35v9q80 12 160 33q-2 -33 -3 -142v-98q0 -203 19 -254q9 -30 44 -38v-8zM405 592l-118 63q-47 25 -57.5 34.5t-10.5 26.5q0 16 11.5 26.5t29.5 10.5q17 0 32 -10t49 -43l112 -108h-48z" />
    <glyph glyph-name="uacute" unicode="&#xfa;" horiz-adv-x="687" 
d="M663 0h-129q-10 20 -20 50q-5 19 -15 53q-42 -65 -86 -90.5t-114 -25.5q-53 0 -101 17.5t-77 47.5q-44 45 -44 162l2 98v30q0 68 -3.5 95t-14 39t-38.5 22v9q77 12 163 33q-2 -29 -4 -142v-107q0 -125 23 -190q14 -41 46 -64.5t72 -23.5q49 0 97 35t61 81q16 56 16 167
v59q0 85 -8.5 108t-45.5 35v9q80 12 160 33q-2 -33 -3 -142v-98q0 -203 19 -254q9 -30 44 -38v-8zM322 592h-47l111 108q36 33 51 43t31 10q18 0 29.5 -10.5t11.5 -26.5q0 -17 -10.5 -26.5t-57.5 -34.5z" />
    <glyph glyph-name="ucircumflex" unicode="&#xfb;" horiz-adv-x="687" 
d="M663 0h-129q-10 20 -20 50q-5 19 -15 53q-42 -65 -86 -90.5t-114 -25.5q-53 0 -101 17.5t-77 47.5q-44 45 -44 162l2 98v30q0 68 -3.5 95t-14 39t-38.5 22v9q77 12 163 33q-2 -29 -4 -142v-107q0 -125 23 -190q14 -41 46 -64.5t72 -23.5q49 0 97 35t61 81q16 56 16 167
v59q0 85 -8.5 108t-45.5 35v9q80 12 160 33q-2 -33 -3 -142v-98q0 -203 19 -254q9 -30 44 -38v-8zM195 591l133 164h56l121 -164h-40l-111 96l-117 -96h-42z" />
    <glyph glyph-name="udieresis" unicode="&#xfc;" horiz-adv-x="687" 
d="M663 0h-129q-10 20 -20 50q-5 19 -15 53q-42 -65 -86 -90.5t-114 -25.5q-53 0 -101 17.5t-77 47.5q-44 45 -44 162l2 98v30q0 68 -3.5 95t-14 39t-38.5 22v9q77 12 163 33q-2 -29 -4 -142v-107q0 -125 23 -190q14 -41 46 -64.5t72 -23.5q49 0 97 35t61 81q16 56 16 167
v59q0 85 -8.5 108t-45.5 35v9q80 12 160 33q-2 -33 -3 -142v-98q0 -203 19 -254q9 -30 44 -38v-8zM254 718q23 0 40 -17.5t17 -40.5q0 -24 -17 -41t-41 -17t-41 17t-17 41t17 41t42 17zM455 717q23 0 40 -17t17 -40q0 -24 -17 -41t-41 -17q-23 0 -40 17t-17 41q0 23 17 40
t41 17z" />
    <glyph glyph-name="yacute" unicode="&#xfd;" horiz-adv-x="697" 
d="M74 -210l47 133q29 -50 76 -50q35 0 71 36q37 38 37 81q0 42 -49 139l-129 259q-43 87 -63 113t-56 39v9q83 -4 134 -4q54 0 110 4v-9q-50 -7 -50 -46q0 -18 7.5 -35t51.5 -102l130 -241l38 69q43 76 88 178q29 69 29 110q0 28 -14 43t-49 24v9q69 -4 113 -4q49 0 93 4
v-9q-46 -32 -70 -65t-80 -140l-187 -352q-41 -76 -78 -116t-86 -62q-43 -18 -83 -18q-16 0 -31 3zM372 592h-47l111 108q34 33 49.5 43t32.5 10q18 0 29.5 -10.5t11.5 -26.5q0 -17 -11 -26.5t-58 -34.5z" />
    <glyph glyph-name="thorn" unicode="&#xfe;" horiz-adv-x="750" 
d="M194 552l-1 -139q28 50 48 74q62 73 167 73q122 0 206 -81.5t84 -200.5q0 -127 -85 -209t-217 -82q-71 0 -117.5 24.5t-83.5 81.5q4 -212 14.5 -250.5t65.5 -47.5v-8q-59 4 -117 4q-59 0 -135 -4v8q27 5 36.5 11.5t14.5 21.5q8 24 13.5 118.5t5.5 196.5v387
q0 121 -7.5 145.5t-48.5 37.5v9q91 15 161 33q-4 -31 -4 -113v-90zM393 533q-54 0 -101 -34.5t-71 -92.5q-18 -42 -18 -153q0 -87 27 -141q51 -99 156 -99q86 0 135.5 70.5t49.5 193.5q0 118 -48 187t-130 69z" />
    <glyph glyph-name="ydieresis" unicode="&#xff;" horiz-adv-x="697" 
d="M74 -210l47 133q29 -50 76 -50q35 0 71 36q37 38 37 81q0 42 -49 139l-129 259q-43 87 -63 113t-56 39v9q83 -4 134 -4q54 0 110 4v-9q-50 -7 -50 -46q0 -18 7.5 -35t51.5 -102l130 -241l38 69q43 76 88 178q29 69 29 110q0 28 -14 43t-49 24v9q69 -4 113 -4q49 0 93 4
v-9q-46 -32 -70 -65t-80 -140l-187 -352q-41 -76 -78 -116t-86 -62q-43 -18 -83 -18q-16 0 -31 3zM276 731q23 0 40 -17.5t17 -40.5q0 -24 -17 -41t-41 -17t-41 17t-17 41t17 41t42 17zM477 730q23 0 40 -17t17 -40q0 -24 -17 -41t-41 -17q-23 0 -40 17t-17 41q0 23 17 40
t41 17z" />
    <glyph glyph-name="Amacron" unicode="&#x100;" horiz-adv-x="873" 
d="M512 304h-250l-36 -66q-62 -112 -62 -163t70 -67v-10q-61 4 -112 4t-112 -4v10q41 13 88 77t127 213l211 398l249 -458q80 -148 104.5 -180t70.5 -50v-10q-76 4 -138 4q-60 0 -144 -4v10q27 4 37.5 13t10.5 28q0 29 -48 126zM500 331l-114 210l-111 -210h225zM253 777v33
h367v-33h-367z" />
    <glyph glyph-name="amacron" unicode="&#x101;" horiz-adv-x="673" 
d="M640 0h-137q-20 51 -28 101q-30 -50 -56 -71q-54 -44 -135 -44q-101 0 -166.5 46.5t-65.5 119.5q0 99 117 144q96 37 246 37h55v34q0 81 -41 123.5t-120 42.5q-101 0 -157 -58q-27 -29 -38 -74l-9 -3l-30 103q112 59 255 59q126 0 191 -55q32 -28 45.5 -66.5t13.5 -105.5
v-120q0 -116 11.5 -155t48.5 -50v-8zM470 306h-55q-115 0 -176 -40t-61 -115q0 -57 37 -97.5t89 -40.5q42 0 79.5 22.5t58.5 59.5q28 52 28 158v53zM153 661v33h367v-33h-367z" />
    <glyph glyph-name="Abreve" unicode="&#x102;" horiz-adv-x="873" 
d="M512 304h-250l-36 -66q-62 -112 -62 -163t70 -67v-10q-61 4 -112 4t-112 -4v10q41 13 88 77t127 213l211 398l249 -458q80 -148 104.5 -180t70.5 -50v-10q-76 4 -138 4q-60 0 -144 -4v10q27 4 37.5 13t10.5 28q0 29 -48 126zM500 331l-114 210l-111 -210h225zM280 884h34
q23 -87 123 -87q98 0 123 87h33q-11 -69 -41 -105q-41 -50 -115 -50q-80 0 -122 58q-26 33 -35 97z" />
    <glyph glyph-name="abreve" unicode="&#x103;" horiz-adv-x="673" 
d="M640 0h-137q-20 51 -28 101q-30 -50 -56 -71q-54 -44 -135 -44q-101 0 -166.5 46.5t-65.5 119.5q0 99 117 144q96 37 246 37h55v34q0 81 -41 123.5t-120 42.5q-101 0 -157 -58q-27 -29 -38 -74l-9 -3l-30 103q112 59 255 59q126 0 191 -55q32 -28 45.5 -66.5t13.5 -105.5
v-120q0 -116 11.5 -155t48.5 -50v-8zM470 306h-55q-115 0 -176 -40t-61 -115q0 -57 37 -97.5t89 -40.5q42 0 79.5 22.5t58.5 59.5q28 52 28 158v53zM188 765h31q19 -93 118 -93q98 0 118 93h30q-5 -68 -33 -104q-40 -54 -115 -54q-82 0 -121 61q-23 35 -28 97z" />
    <glyph glyph-name="Aogonek" unicode="&#x104;" horiz-adv-x="873" 
d="M845 -1h-7q-88 -43 -88 -102q0 -23 14.5 -38.5t35.5 -15.5q20 0 49 26l15 -15q-49 -62 -109 -62q-37 0 -62 21t-25 52q0 79 127 136q-41 1 -77 1q-51 0 -140 -4v10q27 4 37.5 13t10.5 28q0 29 -48 126l-66 129h-250l-36 -66q-62 -112 -62 -163t70 -67v-10q-61 4 -112 4
t-112 -4v10q41 13 88 77t127 213l211 398l249 -458q80 -148 104.5 -180t70.5 -50v-10zM500 331l-114 210l-111 -210h225z" />
    <glyph glyph-name="aogonek" unicode="&#x105;" horiz-adv-x="673" 
d="M640 0h-14q-89 -44 -89 -103q0 -22 14.5 -38t34.5 -16q13 0 21.5 4.5t28.5 21.5l15 -15q-49 -62 -109 -62q-37 0 -62 21t-25 52q0 83 125 135h-77q-20 51 -28 101q-30 -50 -56 -71q-55 -44 -135 -44q-101 0 -166.5 46.5t-65.5 119.5q0 99 117 144q96 37 246 37h55v34
q0 81 -41 123.5t-120 42.5q-101 0 -157 -58q-27 -29 -38 -74l-9 -3l-30 103q112 59 255 59q126 0 191 -55q32 -28 45.5 -66.5t13.5 -105.5v-120q0 -116 11.5 -155t48.5 -50v-8zM470 306h-55q-115 0 -176 -40t-61 -115q0 -57 37 -97.5t89 -40.5q42 0 79.5 22.5t58.5 59.5
q28 52 28 158v53z" />
    <glyph glyph-name="Cacute" unicode="&#x106;" horiz-adv-x="841" 
d="M770 610l-45 -133l-9 3q-17 87 -78 134t-155 47q-153 0 -227 -110q-58 -85 -58 -214q0 -147 82 -238.5t213 -91.5q57 0 108 20.5t85 56.5q33 34 51 98l10 4l30 -118q-124 -88 -298 -88q-150 0 -265 70q-73 44 -114.5 119.5t-41.5 162.5q0 75 31.5 143.5t89.5 117.5
q110 94 284 94q77 0 145 -17t162 -60zM451 732h-54l98 97q36 36 49 44.5t33 8.5q21 0 34 -11.5t13 -29.5q0 -19 -13.5 -30t-71.5 -38z" />
    <glyph glyph-name="cacute" unicode="&#x107;" horiz-adv-x="652" 
d="M618 496l-31 -101l-8 2q-11 51 -47 83q-61 53 -151 53q-97 0 -149.5 -65.5t-52.5 -185.5q0 -122 48 -187q58 -81 166 -81q65 0 120.5 35.5t89.5 97.5l19 -18q-48 -74 -108 -108t-142 -34q-140 0 -230 81.5t-90 207.5q0 124 87 204t223 80q128 0 256 -64zM337 592h-48
l112 108q33 33 49 43t33 10q18 0 29.5 -10.5t11.5 -26.5q0 -17 -11 -26.5t-58 -34.5z" />
    <glyph glyph-name="Ccaron" unicode="&#x10c;" horiz-adv-x="841" 
d="M770 610l-45 -133l-9 3q-17 87 -78 134t-155 47q-153 0 -227 -110q-58 -85 -58 -214q0 -147 82 -238.5t213 -91.5q57 0 108 20.5t85 56.5q33 34 51 98l10 4l30 -118q-124 -88 -298 -88q-150 0 -265 70q-73 44 -114.5 119.5t-41.5 162.5q0 75 31.5 143.5t89.5 117.5
q110 94 284 94q77 0 145 -17t162 -60zM568 882h51l-115 -151h-71l-111 151h58l92 -78z" />
    <glyph glyph-name="ccaron" unicode="&#x10d;" horiz-adv-x="652" 
d="M618 496l-31 -101l-8 2q-11 51 -47 83q-61 53 -151 53q-97 0 -149.5 -65.5t-52.5 -185.5q0 -122 48 -187q58 -81 166 -81q65 0 120.5 35.5t89.5 97.5l19 -18q-48 -74 -108 -108t-142 -34q-140 0 -230 81.5t-90 207.5q0 124 87 204t223 80q128 0 256 -64zM528 755
l-132 -164h-56l-122 164h40l111 -96l117 96h42z" />
    <glyph glyph-name="Dcaron" unicode="&#x10e;" horiz-adv-x="883" 
d="M77 667h363q93 0 152 -17t113 -59q120 -93 120 -247q0 -77 -31 -146t-87 -115q-57 -47 -126.5 -66t-182.5 -19q-42 0 -78 2q-147 5 -270 -2v10q39 8 55.5 25.5t21.5 53.5q10 76 10 294v127q0 68 -2.5 89t-12.5 35q-12 16 -45 25v10zM257 640v-261q0 -179 4.5 -241
t18.5 -84q19 -29 121 -29q148 0 219.5 77t71.5 238q0 156 -73 230q-39 40 -91 55t-148 15h-123zM504 882h51l-114 -151h-72l-111 151h59l91 -78z" />
    <glyph glyph-name="dcaron" unicode="&#x10f;" horiz-adv-x="857" 
d="M714 0h-138q-17 36 -30 120q-67 -133 -202 -133q-124 0 -208.5 82t-84.5 203q0 124 84 206t212 82q134 0 209 -100v99q-2 110 -10 128.5t-51 23.5v8q49 4 162 40q0 -51 -2 -98l-1 -82v-432q0 -77 17 -111q9 -19 43 -28v-8zM360 533q-83 0 -132.5 -73t-49.5 -194
q0 -118 48 -185t132 -67q99 0 154 97q42 75 42 172q0 112 -43 174q-24 35 -65 55.5t-86 20.5zM762 485l-14 15q50 48 59 120q-5 -1 -11 -1q-28 0 -46.5 18.5t-18.5 46.5t17.5 45.5t45.5 17.5q64 0 64 -76q0 -49 -26.5 -100t-69.5 -86z" />
    <glyph glyph-name="Dcroat" unicode="&#x110;" horiz-adv-x="883" 
d="M137 363v18v127q0 68 -2.5 89t-12.5 35q-12 16 -45 25v10h363q93 0 152 -17t113 -59q120 -93 120 -248q0 -77 -31 -145.5t-87 -114.5q-57 -47 -126.5 -66t-182.5 -19q-6 0 -78 2q-147 5 -270 -2v10q60 13 72.5 60t14.5 268h-66v27h66zM257 363h214v-27h-214
q1 -226 13 -262q9 -29 36.5 -39t94.5 -10q148 0 219.5 77t71.5 238q0 156 -73 230q-39 40 -91 55t-148 15h-123v-277z" />
    <glyph glyph-name="dcroat" unicode="&#x111;" horiz-adv-x="737" 
d="M714 643v-27h-59v-469q0 -75 16 -111q10 -19 43 -28v-8h-138q-17 36 -30 120q-67 -133 -202 -133q-124 0 -208.5 82t-84.5 203q0 125 84 206.5t212 81.5q135 0 209 -100l-2 156h-214v27h213q-2 40 -13 52.5t-45 14.5v8q49 4 162 40v-37q0 -14 -0.5 -32.5t-1 -29
t-0.5 -16.5h59zM360 534q-83 0 -132.5 -73t-49.5 -194q0 -118 48 -185.5t132 -67.5q100 0 154 98q42 74 42 171q0 113 -43 175q-24 35 -65 55.5t-86 20.5z" />
    <glyph glyph-name="Emacron" unicode="&#x112;" horiz-adv-x="837" 
d="M782 156l-55 -156h-306l-152 1q-31 1 -65 1q-55 0 -154 -4v10q39 8 55.5 25.5t21.5 53.5q10 76 10 294v127q0 68 -2.5 89.5t-12.5 34.5q-13 16 -45 25v10h608l42 -149l-10 -3q-46 67 -120.5 96t-198.5 29h-141v-277h136q104 0 151 18.5t71 68.5h10v-206h-10
q-21 54 -67.5 73t-158.5 19h-132v-77q0 -67 7 -163q3 -43 27.5 -56.5t98.5 -13.5q144 0 220 26.5t163 107.5zM203 777v33h367v-33h-367z" />
    <glyph glyph-name="emacron" unicode="&#x113;" horiz-adv-x="696" 
d="M645 336h-464q-2 -30 -2 -60q0 -94 40 -168q24 -43 68.5 -68.5t97.5 -25.5q58 0 111 28t88 78q26 35 45 93l24 -12q-69 -214 -291 -214q-136 0 -223 80.5t-87 207.5q0 122 87 203.5t218 81.5q138 0 224 -91q59 -62 64 -133zM185 363h323q0 77 -42.5 123.5t-112.5 46.5
q-66 0 -111.5 -46.5t-56.5 -123.5zM172 661v33h367v-33h-367z" />
    <glyph glyph-name="Edotaccent" unicode="&#x116;" horiz-adv-x="837" 
d="M782 156l-55 -156h-306l-152 1q-31 1 -65 1q-55 0 -154 -4v10q39 8 55.5 25.5t21.5 53.5q10 76 10 294v127q0 68 -2.5 89.5t-12.5 34.5q-13 16 -45 25v10h608l42 -149l-10 -3q-46 67 -120.5 96t-198.5 29h-141v-277h136q104 0 151 18.5t71 68.5h10v-206h-10
q-21 54 -67.5 73t-158.5 19h-132v-77q0 -67 7 -163q3 -43 27.5 -56.5t98.5 -13.5q144 0 220 26.5t163 107.5zM395 872q26 0 45.5 -19.5t19.5 -45.5q0 -27 -19.5 -46.5t-46.5 -19.5t-46 19.5t-19 46.5t19.5 46t46.5 19z" />
    <glyph glyph-name="edotaccent" unicode="&#x117;" horiz-adv-x="696" 
d="M645 336h-464q-2 -30 -2 -60q0 -94 40 -168q24 -43 68.5 -68.5t97.5 -25.5q58 0 111 28t88 78q26 35 45 93l24 -12q-69 -214 -291 -214q-136 0 -223 80.5t-87 207.5q0 122 87 203.5t218 81.5q138 0 224 -91q59 -62 64 -133zM185 363h323q0 77 -42.5 123.5t-112.5 46.5
q-66 0 -111.5 -46.5t-56.5 -123.5zM356 731q23 0 40 -17.5t17 -40.5q0 -24 -17 -41t-41 -17t-41 17t-17 41t17 41t42 17z" />
    <glyph glyph-name="Eogonek" unicode="&#x118;" horiz-adv-x="837" 
d="M727 0h-7q-90 -44 -90 -103q0 -23 14.5 -38.5t35.5 -15.5q20 0 49 26l15 -15q-49 -62 -109 -62q-37 0 -62 21t-25 52q0 83 125 135h-252l-152 1q-31 1 -65 1q-55 0 -154 -4v10q39 8 55.5 25.5t21.5 53.5q10 76 10 294v127q0 68 -2.5 89.5t-12.5 34.5q-13 16 -45 25v10
h608l42 -149l-10 -3q-46 67 -120.5 96t-198.5 29h-141v-277h136q104 0 151 18.5t71 68.5h10v-206h-10q-21 54 -67.5 73t-158.5 19h-132v-77q0 -67 7 -163q3 -43 27.5 -56.5t98.5 -13.5q144 0 220 26.5t163 107.5l9 -4z" />
    <glyph glyph-name="eogonek" unicode="&#x119;" horiz-adv-x="696" 
d="M515 -131l15 -15q-49 -62 -109 -62q-37 0 -62 21t-25 52q0 35 24.5 65t80.5 64q-48 -8 -80 -8q-134 0 -220.5 81.5t-86.5 206.5q0 123 87 204.5t218 81.5q138 0 224 -91q59 -62 64 -133h-464q-2 -30 -2 -60q0 -96 40 -168q24 -44 68.5 -69.5t97.5 -25.5q58 0 111 28
t88 78q26 37 45 94l24 -12q-19 -60 -48.5 -101t-79.5 -76q-66 -48 -87.5 -73t-21.5 -53q0 -23 14 -39t35 -16q13 0 21.5 4.5t28.5 21.5zM185 363h323q0 77 -42.5 123.5t-112.5 46.5q-66 0 -111.5 -46.5t-56.5 -123.5z" />
    <glyph glyph-name="Ecaron" unicode="&#x11a;" horiz-adv-x="837" 
d="M782 156l-55 -156h-306l-152 1q-31 1 -65 1q-55 0 -154 -4v10q39 8 55.5 25.5t21.5 53.5q10 76 10 294v127q0 68 -2.5 89.5t-12.5 34.5q-13 16 -45 25v10h608l42 -149l-10 -3q-46 67 -120.5 96t-198.5 29h-141v-277h136q104 0 151 18.5t71 68.5h10v-206h-10
q-21 54 -67.5 73t-158.5 19h-132v-77q0 -67 7 -163q3 -43 27.5 -56.5t98.5 -13.5q144 0 220 26.5t163 107.5zM499 882h51l-115 -151h-71l-111 151h58l92 -78z" />
    <glyph glyph-name="ecaron" unicode="&#x11b;" horiz-adv-x="696" 
d="M645 336h-464q-2 -30 -2 -60q0 -94 40 -168q24 -43 68.5 -68.5t97.5 -25.5q58 0 111 28t88 78q26 35 45 93l24 -12q-69 -214 -291 -214q-136 0 -223 80.5t-87 207.5q0 122 87 203.5t218 81.5q138 0 224 -91q59 -62 64 -133zM185 363h323q0 77 -42.5 123.5t-112.5 46.5
q-66 0 -111.5 -46.5t-56.5 -123.5zM521 755l-133 -164h-56l-122 164h40l111 -96l118 96h42z" />
    <glyph glyph-name="Gbreve" unicode="&#x11e;" horiz-adv-x="859" 
d="M767 601l-40 -116l-10 3q-42 172 -242 172q-143 0 -215 -101q-65 -90 -65 -231q0 -142 70 -225q38 -44 93 -70t112 -26q47 0 90.5 18t59.5 44q18 28 18 98v49q0 60 -22.5 81.5t-95.5 28.5v13q79 -4 165 -4q78 0 147 4v-13q-45 -6 -60 -25q-9 -12 -11.5 -27t-2.5 -58v-142
q-49 -34 -88 -52q-96 -42 -209 -42q-130 0 -241 65q-77 46 -121 122t-44 165q0 71 29.5 138t81.5 115q113 102 301 102q81 0 160.5 -23t139.5 -63zM310 884h33q23 -87 123 -87t123 87h33q-9 -69 -40 -105q-43 -50 -116 -50q-79 0 -122 58q-25 34 -34 97z" />
    <glyph glyph-name="gbreve" unicode="&#x11f;" horiz-adv-x="694" 
d="M657 642l-37 -116q-34 48 -87 48q-40 0 -70 -34q149 -61 149 -171q0 -44 -26 -84t-73 -67q-39 -22 -79.5 -31.5t-110.5 -12.5q-75 -4 -75 -25q0 -14 25 -20t104 -11q144 -9 198 -29q94 -32 94 -105q0 -80 -93 -128.5t-245 -48.5q-126 0 -205 37.5t-79 96.5q0 51 61 82
q29 14 119 35q-50 11 -70 23t-20 32q0 26 28 43.5t91 31.5q-56 17 -91 36q-90 51 -90 143q0 80 77.5 136.5t187.5 56.5q50 0 97 -11q92 95 194 95q4 0 26 -2zM343 533q-72 0 -111.5 -43.5t-39.5 -122.5t39.5 -122.5t112.5 -43.5q71 0 111 43t40 120q0 82 -39 125.5
t-113 43.5zM361 44q-103 0 -157.5 -27t-54.5 -77q0 -51 50.5 -78.5t144.5 -27.5q103 0 164 31t61 83q0 49 -50.5 72.5t-157.5 23.5zM209 765h30q20 -93 119 -93q98 0 118 93h30q-7 -70 -33 -104q-40 -54 -116 -54q-81 0 -120 61q-23 35 -28 97z" />
    <glyph glyph-name="Gcommaaccent" unicode="&#x122;" horiz-adv-x="859" 
d="M767 601l-40 -116l-10 3q-42 172 -242 172q-143 0 -215 -101q-65 -90 -65 -231q0 -142 70 -225q38 -44 93 -70t112 -26q47 0 90.5 18t59.5 44q18 28 18 98v49q0 60 -22.5 81.5t-95.5 28.5v13q79 -4 165 -4q78 0 147 4v-13q-45 -6 -60 -25q-9 -12 -11.5 -27t-2.5 -58v-142
q-49 -34 -88 -52q-96 -42 -209 -42q-130 0 -241 65q-77 46 -121 122t-44 165q0 71 29.5 138t81.5 115q113 102 301 102q81 0 160.5 -23t139.5 -63zM417 -234l-5 10q27 14 44.5 37.5t17.5 47.5q0 11 -4 11q-1 0 -14 -7q-4 -2 -11 -2q-17 0 -28.5 11.5t-11.5 28.5q0 18 14 31
t34 13q24 0 40.5 -19.5t16.5 -48.5q0 -38 -24.5 -68t-68.5 -45z" />
    <glyph glyph-name="gcommaaccent" unicode="&#x123;" horiz-adv-x="694" 
d="M657 642l-37 -116q-34 48 -87 48q-40 0 -70 -34q149 -61 149 -171q0 -44 -26 -84t-73 -67q-39 -22 -79.5 -31.5t-110.5 -12.5q-75 -4 -75 -25q0 -14 25 -20t104 -11q144 -9 198 -29q94 -32 94 -105q0 -80 -93 -128.5t-245 -48.5q-126 0 -205 37.5t-79 96.5q0 51 61 82
q29 14 119 35q-50 11 -70 23t-20 32q0 26 28 43.5t91 31.5q-56 17 -91 36q-90 51 -90 143q0 80 77.5 136.5t187.5 56.5q50 0 97 -11q92 95 194 95q4 0 26 -2zM343 533q-72 0 -111.5 -43.5t-39.5 -122.5t39.5 -122.5t112.5 -43.5q71 0 111 43t40 120q0 82 -39 125.5
t-113 43.5zM361 44q-103 0 -157.5 -27t-54.5 -77q0 -51 50.5 -78.5t144.5 -27.5q103 0 164 31t61 83q0 49 -50.5 72.5t-157.5 23.5zM374 880l14 -16q-50 -46 -59 -119q76 0 76 -65q0 -27 -17.5 -44.5t-45.5 -17.5q-64 0 -64 76q0 49 26 99.5t70 86.5z" />
    <glyph glyph-name="Imacron" unicode="&#x12a;" horiz-adv-x="353" 
d="M64 659v10q83 -4 123 -4q48 0 103 4v-10q-30 -10 -43 -31q-10 -21 -10 -120v-213q0 -78 1.5 -122.5t5 -79t11.5 -50t19 -23.5t30 -12v-10q-69 4 -124 4q-54 0 -130 -4v10q17 3 26.5 7.5t18 19t12 33t6.5 58.5t3.5 85.5t0.5 123.5v173q0 69 -2.5 90.5t-10.5 34.5
q-12 18 -40 26zM23 777v33h320v-33h-320z" />
    <glyph glyph-name="imacron" unicode="&#x12b;" horiz-adv-x="303" 
d="M280 7v-9q-61 4 -115 4q-51 0 -122 -4v9q25 5 35.5 12t17.5 23q14 33 14 105v175q0 57 -1 80.5t-3 47t-10 31t-16.5 13t-29.5 11.5v8q93 15 164 34l-1 -67v-48v-27v-258q0 -78 19 -112q11 -20 48 -28zM4 661v33h284v-33h-284z" />
    <glyph glyph-name="Iogonek" unicode="&#x12e;" horiz-adv-x="353" 
d="M284 -1h-4q-88 -43 -88 -102q0 -22 14.5 -38t34.5 -16q13 0 21.5 4.5t28.5 21.5l15 -15q-49 -62 -109 -62q-37 0 -62 21t-25 52q0 80 127 136l-62 1q-60 0 -125 -4v10q17 3 26.5 7.5t18 19t12 33t6.5 58.5t3.5 85.5t0.5 123.5v173q0 69 -2.5 90.5t-10.5 34.5
q-12 18 -40 26v10q83 -4 123 -4q48 0 103 4v-10q-30 -10 -43 -31q-10 -21 -10 -120v-213q0 -78 1.5 -122.5t5 -79t11.5 -50t19 -23.5t30 -12v-10l-14 1h-6z" />
    <glyph glyph-name="iogonek" unicode="&#x12f;" horiz-adv-x="303" 
d="M275 -2l-18 1q-87 -42 -87 -102q0 -23 14 -38.5t35 -15.5q13 0 21.5 4.5t28.5 21.5l15 -15q-50 -62 -109 -62q-37 0 -62 21t-25 52q0 81 127 136h-27l-34 1q-56 0 -116 -4v9q25 5 35.5 12t17.5 23q14 33 14 105v175q0 57 -1 80.5t-3 47t-10 31t-16.5 13t-29.5 11.5v8
q93 15 164 34l-1 -67v-48v-27v-258q0 -78 19 -112q11 -20 48 -28v-9zM147 731q26 0 44 -18.5t18 -44.5q0 -25 -18.5 -43t-43.5 -18t-43.5 18.5t-18.5 43.5t18.5 43.5t43.5 18.5z" />
    <glyph glyph-name="Idotaccent" unicode="&#x130;" horiz-adv-x="353" 
d="M64 659v10q83 -4 123 -4q48 0 103 4v-10q-30 -10 -43 -31q-10 -21 -10 -120v-213q0 -78 1.5 -122.5t5 -79t11.5 -50t19 -23.5t30 -12v-10q-69 4 -124 4q-54 0 -130 -4v10q17 3 26.5 7.5t18 19t12 33t6.5 58.5t3.5 85.5t0.5 123.5v173q0 69 -2.5 90.5t-10.5 34.5
q-12 18 -40 26zM177 872q26 0 45.5 -19.5t19.5 -45.5q0 -27 -19.5 -46.5t-46.5 -19.5t-46 19.5t-19 46.5t19.5 46t46.5 19z" />
    <glyph glyph-name="dotlessi" unicode="&#x131;" horiz-adv-x="303" 
d="M280 7v-9q-61 4 -115 4q-51 0 -122 -4v9q25 5 35.5 12t17.5 23q14 33 14 105v175q0 57 -1 80.5t-3 47t-10 31t-16.5 13t-29.5 11.5v8q93 15 164 34l-1 -67v-48v-27v-258q0 -78 19 -112q11 -20 48 -28z" />
    <glyph glyph-name="Kcommaaccent" unicode="&#x136;" horiz-adv-x="798" 
d="M304 8v-10q-69 4 -124 4q-54 0 -130 -4v10q19 4 30 12t19 23.5t11.5 50t5 79t1.5 122.5v214q0 68 -2.5 89.5t-10.5 34.5q-12 18 -40 26v10q76 -4 124 -4q55 0 102 4v-10q-33 -10 -43 -31q-10 -20 -10 -119v-161l171 144q78 65 103 92t25 44q0 11 -7 18t-25 13v10
q64 -4 117 -4q56 0 103 4v-10q-73 -32 -133.5 -70t-145.5 -107l-142 -115q111 -7 159 -35t109 -121q71 -102 117.5 -147.5t89.5 -55.5v-10l-11 1q-70 5 -91 3q-102 -9 -115 -4q-22 10 -78 117q-13 27 -60.5 97.5t-63.5 86.5q-34 34 -71 34q-51 0 -51 -64q0 -199 20 -233
q14 -21 47 -28zM358 -234l-4 10q27 13 44 37t17 48q0 11 -4 11q-2 0 -3 -1q-13 -8 -22 -8q-16 0 -27.5 12t-11.5 28q0 18 14 31t33 13q24 0 40.5 -19.5t16.5 -48.5q0 -38 -24.5 -68t-68.5 -45z" />
    <glyph glyph-name="kcommaaccent" unicode="&#x137;" horiz-adv-x="672" 
d="M647 0h-182q-34 38 -74 111q-37 66 -53 90t-39 49q-38 39 -62 39q-27 0 -36 -29q-6 -16 -6 -87v-26q0 -77 13.5 -105t55.5 -35v-9q-67 4 -119 4q-50 0 -122 -4v9q24 5 35 12.5t19 23.5q16 34 16 104v235q0 200 -10 274q-3 26 -15 37.5t-38 13.5v9q54 4 169 39
q0 -48 -2 -98q-1 -37 -1 -81v-269l116 88q101 77 101 113q0 19 -28 32v9q30 -4 117 -4q77 0 103 4v-9q-70 -23 -115.5 -50t-145.5 -105l-84 -63q85 -6 127.5 -34.5t95.5 -115.5q56 -85 94.5 -123t69.5 -41v-8zM284 -230l-5 10q27 14 44 36.5t17 45.5q0 11 -4 11q-1 0 -13 -6
q-4 -2 -11 -2q-16 0 -27.5 11.5t-11.5 27.5q0 18 13.5 30.5t32.5 12.5q24 0 40 -19t16 -47q0 -37 -24 -66.5t-67 -44.5z" />
    <glyph glyph-name="Lacute" unicode="&#x139;" horiz-adv-x="766" 
d="M750 168l-52 -168h-317q-90 2 -214 2q-29 0 -117 -4v10q39 8 55.5 25.5t21.5 53.5q10 76 10 295v127q0 68 -2.5 89.5t-10.5 34.5q-12 18 -40 26v10q76 -4 131 -4q12 0 102 2v-8q-36 -10 -48 -31q-12 -20 -12 -119v-116q0 -202 7 -277q5 -56 29 -72.5t100 -16.5
q129 0 206.5 32.5t140.5 112.5zM215 732h-54l98 97q37 36 50.5 44.5t32.5 8.5q21 0 34 -11.5t13 -29.5q0 -19 -13.5 -30t-72.5 -38z" />
    <glyph glyph-name="lacute" unicode="&#x13a;" horiz-adv-x="295" 
d="M271 7v-9q-69 4 -123 4q-53 0 -125 -4v9q25 5 36.5 12.5t19.5 23.5q17 36 17 104v235q0 258 -14 295q-5 15 -14.5 21.5t-28.5 8.5v8q47 3 163 40q0 -48 -2 -98q-1 -37 -1 -81v-429q0 -77 14 -104.5t58 -35.5zM133 782h-54l98 97q38 37 50.5 45t31.5 8q21 0 34 -11.5
t13 -29.5q0 -19 -13.5 -30t-71.5 -38z" />
    <glyph glyph-name="Lcommaaccent" unicode="&#x13b;" horiz-adv-x="766" 
d="M750 168l-52 -168h-317q-90 2 -214 2q-29 0 -117 -4v10q39 8 55.5 25.5t21.5 53.5q10 76 10 295v127q0 68 -2.5 89.5t-10.5 34.5q-12 18 -40 26v10q76 -4 131 -4q12 0 102 2v-8q-36 -10 -48 -31q-12 -20 -12 -119v-116q0 -202 7 -277q5 -56 29 -72.5t100 -16.5
q129 0 206.5 32.5t140.5 112.5zM342 -234l-4 10q27 13 44 37t17 48q0 11 -4 11q-2 0 -3 -1q-13 -8 -22 -8q-16 0 -27.5 12t-11.5 28q0 18 14 31t33 13q24 0 40.5 -19.5t16.5 -48.5q0 -38 -24.5 -68t-68.5 -45z" />
    <glyph glyph-name="lcommaaccent" unicode="&#x13c;" horiz-adv-x="295" 
d="M271 7v-9q-69 4 -123 4q-53 0 -125 -4v9q25 5 36.5 12.5t19.5 23.5q17 36 17 104v235q0 258 -14 295q-5 15 -14.5 21.5t-28.5 8.5v8q47 3 163 40q0 -48 -2 -98q-1 -37 -1 -81v-429q0 -77 14 -104.5t58 -35.5zM107 -230l-4 10q27 13 43.5 36t16.5 46q0 11 -4 11
q-1 0 -13 -6q-4 -2 -11 -2q-17 0 -28 11.5t-11 27.5q0 18 13.5 30.5t32.5 12.5q24 0 40 -19t16 -47q0 -37 -24 -66.5t-67 -44.5z" />
    <glyph glyph-name="Lcaron" unicode="&#x13d;" horiz-adv-x="766" 
d="M750 168l-52 -168h-317q-90 2 -214 2q-29 0 -117 -4v10q39 8 55.5 25.5t21.5 53.5q10 76 10 295v127q0 68 -2.5 89.5t-10.5 34.5q-12 18 -40 26v10q76 -4 131 -4q12 0 102 2v-8q-36 -10 -48 -31q-12 -20 -12 -119v-116q0 -202 7 -277q5 -56 29 -72.5t100 -16.5
q129 0 206.5 32.5t140.5 112.5zM419 406l-15 15q52 49 60 119h-11q-29 0 -47.5 18t-18.5 47q0 27 17.5 44.5t45.5 17.5q64 0 64 -76q0 -49 -26 -99.5t-69 -85.5z" />
    <glyph glyph-name="lcaron" unicode="&#x13e;" horiz-adv-x="385" 
d="M271 7v-9q-69 4 -123 4q-53 0 -125 -4v9q25 5 36.5 12.5t19.5 23.5q17 36 17 104v235q0 258 -14 295q-5 15 -14.5 21.5t-28.5 8.5v8q47 3 163 40q0 -48 -2 -98q-1 -37 -1 -81v-429q0 -77 14 -104.5t58 -35.5zM290 485l-15 15q52 49 60 120q-5 -1 -12 -1q-29 0 -47 18.5
t-18 46.5t17.5 45.5t45.5 17.5q64 0 64 -76q0 -49 -26 -100t-69 -86z" />
    <glyph glyph-name="Lslash" unicode="&#x141;" horiz-adv-x="766" 
d="M55 208l81 60q1 25 1 114v127q0 68 -2.5 89.5t-11.5 34.5q-13 18 -40 26v10q77 -4 132 -4q12 0 102 2v-8q-36 -10 -48 -31q-12 -20 -12 -119v-116l1 -40l186 141v-42l-186 -140q4 -189 10 -225q6 -35 32 -47.5t93 -12.5q128 0 206 32.5t141 112.5l9 -4l-52 -168h-316
q-90 2 -214 2q-34 0 -117 -4v10q24 6 37 13t23 18t14.5 37t6.5 57.5t4 92.5l-80 -60v42z" />
    <glyph glyph-name="lslash" unicode="&#x142;" horiz-adv-x="305" 
d="M101 354v28q0 258 -14 295q-5 15 -14.5 21.5t-28.5 8.5v8q47 3 163 40q0 -48 -2 -98q-1 -37 -1 -81v-151l68 51v-38l-68 -50v-241q0 -77 14 -104.5t58 -35.5v-9q-69 4 -123 4q-53 0 -125 -4v9q25 5 36.5 12.5t19.5 23.5q17 36 17 104v169l-69 -52v38z" />
    <glyph glyph-name="Nacute" unicode="&#x143;" horiz-adv-x="881" 
d="M747 -30l-587 611v-198q0 -120 2.5 -181.5t14 -105t29 -59.5t51.5 -29v-10q-57 4 -105 4q-45 0 -109 -4v10q48 17 66 58q16 38 20 92.5t4 224.5v126q0 70 -3 90.5t-16 34.5q-16 17 -54 25v10q72 -4 113 -4q46 0 83 4l464 -483v183q0 160 -18.5 216.5t-77.5 73.5v10
q71 -4 117 -4q51 0 96 4v-10q-39 -11 -57.5 -37.5t-25.5 -82.5t-7 -170v-399zM426 732h-54l98 97q38 37 50.5 45t31.5 8q21 0 34 -11.5t13 -29.5q0 -19 -13.5 -30t-71.5 -38z" />
    <glyph glyph-name="nacute" unicode="&#x144;" horiz-adv-x="731" 
d="M697 7v-9q-61 4 -112 4q-49 0 -118 -4v9q22 5 31 12t15 23q14 36 14 105v135q0 111 -28 170q-16 32 -48 52t-69 20q-80 0 -127 -89q-35 -66 -35 -159v-129q0 -78 17 -112q9 -20 43 -28v-9q-60 4 -114 4q-51 0 -123 -4v9q24 5 34.5 12t17.5 23q15 34 15 105v168
q0 56 -1 80t-2.5 47.5t-8.5 31t-15 13t-26 11.5v9q37 6 159 33q-3 -33 -4 -115v-27q56 162 205 162q52 0 97.5 -19.5t74.5 -53.5q28 -34 38 -77t10 -133v-130q0 -78 17 -112q10 -19 43 -28zM355 592h-48l112 108q33 33 49 43t33 10q18 0 29.5 -10.5t11.5 -26.5
q0 -17 -11 -26.5t-58 -34.5z" />
    <glyph glyph-name="Ncommaaccent" unicode="&#x145;" horiz-adv-x="881" 
d="M747 -30l-587 611v-198q0 -120 2.5 -181.5t14 -105t29 -59.5t51.5 -29v-10q-57 4 -105 4q-45 0 -109 -4v10q48 17 66 58q16 38 20 92.5t4 224.5v126q0 70 -3 90.5t-16 34.5q-16 17 -54 25v10q72 -4 113 -4q46 0 83 4l464 -483v183q0 160 -18.5 216.5t-77.5 73.5v10
q71 -4 117 -4q51 0 96 4v-10q-39 -11 -57.5 -37.5t-25.5 -82.5t-7 -170v-399zM399 -234l-4 10q27 13 44 37t17 48q0 11 -4 11q-2 0 -3 -1q-13 -8 -22 -8q-16 0 -27.5 12t-11.5 28q0 18 14 31t33 13q24 0 40.5 -19.5t16.5 -48.5q0 -38 -24.5 -68t-68.5 -45z" />
    <glyph glyph-name="ncommaaccent" unicode="&#x146;" horiz-adv-x="731" 
d="M697 7v-9q-61 4 -112 4q-49 0 -118 -4v9q22 5 31 12t15 23q14 36 14 105v135q0 111 -28 170q-16 32 -48 52t-69 20q-80 0 -127 -89q-35 -66 -35 -159v-129q0 -78 17 -112q9 -20 43 -28v-9q-60 4 -114 4q-51 0 -123 -4v9q24 5 34.5 12t17.5 23q15 34 15 105v168
q0 56 -1 80t-2.5 47.5t-8.5 31t-15 13t-26 11.5v9q37 6 159 33q-3 -33 -4 -115v-27q56 162 205 162q52 0 97.5 -19.5t74.5 -53.5q28 -34 38 -77t10 -133v-130q0 -78 17 -112q10 -19 43 -28zM325 -230l-4 10q27 13 43.5 36t16.5 46q0 11 -4 11q-1 0 -13 -6q-4 -2 -11 -2
q-17 0 -28 11.5t-11 27.5q0 18 13.5 30.5t32.5 12.5q24 0 40 -19t16 -47q0 -37 -24 -66.5t-67 -44.5z" />
    <glyph glyph-name="Ncaron" unicode="&#x147;" horiz-adv-x="881" 
d="M747 -30l-587 611v-198q0 -120 2.5 -181.5t14 -105t29 -59.5t51.5 -29v-10q-57 4 -105 4q-45 0 -109 -4v10q48 17 66 58q16 38 20 92.5t4 224.5v126q0 70 -3 90.5t-16 34.5q-16 17 -54 25v10q72 -4 113 -4q46 0 83 4l464 -483v183q0 160 -18.5 216.5t-77.5 73.5v10
q71 -4 117 -4q51 0 96 4v-10q-39 -11 -57.5 -37.5t-25.5 -82.5t-7 -170v-399zM552 882h50l-114 -151h-72l-110 151h58l92 -78z" />
    <glyph glyph-name="ncaron" unicode="&#x148;" horiz-adv-x="731" 
d="M697 7v-9q-61 4 -112 4q-49 0 -118 -4v9q22 5 31 12t15 23q14 36 14 105v135q0 111 -28 170q-16 32 -48 52t-69 20q-80 0 -127 -89q-35 -66 -35 -159v-129q0 -78 17 -112q9 -20 43 -28v-9q-60 4 -114 4q-51 0 -123 -4v9q24 5 34.5 12t17.5 23q15 34 15 105v168
q0 56 -1 80t-2.5 47.5t-8.5 31t-15 13t-26 11.5v9q37 6 159 33q-3 -33 -4 -115v-27q56 162 205 162q52 0 97.5 -19.5t74.5 -53.5q28 -34 38 -77t10 -133v-130q0 -78 17 -112q10 -19 43 -28zM546 755l-132 -164h-56l-122 164h40l111 -96l117 96h42z" />
    <glyph glyph-name="Omacron" unicode="&#x14c;" horiz-adv-x="901" 
d="M449 687q131 0 234 -66q159 -102 159 -293q0 -146 -113.5 -247t-278.5 -101q-167 0 -279.5 101.5t-112.5 252.5q0 89 42 165t117 122q106 66 232 66zM450 660q-115 0 -183.5 -88.5t-68.5 -237.5q0 -150 68 -238.5t184 -88.5q115 0 183.5 87.5t68.5 233.5q0 154 -67.5 243
t-184.5 89zM267 777v33h366v-33h-366z" />
    <glyph glyph-name="omacron" unicode="&#x14d;" horiz-adv-x="735" 
d="M367 560q137 0 227 -82.5t90 -207.5q0 -60 -29 -118t-79 -98q-85 -67 -208 -67t-208 67q-51 40 -79.5 98.5t-28.5 120.5q0 63 29 122t79 98q86 67 207 67zM368 533q-87 0 -138 -70t-51 -190q0 -119 51 -189t138 -70q86 0 137.5 69.5t51.5 186.5q0 123 -50.5 193
t-138.5 70zM185 661v33h366v-33h-366z" />
    <glyph glyph-name="Ohungarumlaut" unicode="&#x150;" horiz-adv-x="901" 
d="M449 687q131 0 234 -66q159 -102 159 -293q0 -146 -113.5 -247t-278.5 -101q-167 0 -279.5 101.5t-112.5 252.5q0 89 42 165t117 122q106 66 232 66zM450 660q-115 0 -183.5 -88.5t-68.5 -237.5q0 -150 68 -238.5t184 -88.5q115 0 183.5 87.5t68.5 233.5q0 154 -67.5 243
t-184.5 89zM351 730h-52l78 93q31 36 38 42q19 19 42 19q19 0 31 -11.5t12 -28.5q0 -16 -8.5 -24.5t-51.5 -35.5zM536 730h-56l93 91q38 38 55.5 49.5t34.5 11.5q18 0 30.5 -12t12.5 -29q0 -16 -14.5 -29t-54.5 -33z" />
    <glyph glyph-name="ohungarumlaut" unicode="&#x151;" horiz-adv-x="735" 
d="M367 560q137 0 227 -82.5t90 -207.5q0 -60 -29 -118t-79 -98q-85 -67 -208 -67t-208 67q-51 40 -79.5 98.5t-28.5 120.5q0 63 29 122t79 98q86 67 207 67zM368 533q-87 0 -138 -70t-51 -190q0 -119 51 -189t138 -70q86 0 137.5 69.5t51.5 186.5q0 123 -50.5 193
t-138.5 70zM449 589h-46l108 118q33 34 43 41t25 7q16 0 27.5 -10.5t11.5 -25.5q0 -16 -10.5 -26.5t-49.5 -35.5zM283 589h-43l90 116q26 32 38 41.5t29 9.5t27 -9t10 -24q0 -14 -11 -27t-49 -40z" />
    <glyph glyph-name="OE" unicode="&#x152;" horiz-adv-x="1159" 
d="M1007 667l42 -149l-10 -3q-46 67 -120.5 96t-198.5 29h-88v-277h83q104 0 151 18.5t71 68.5h10v-206h-10q-21 54 -67.5 73t-158.5 19h-79v-77q0 -45 4 -110.5t8 -78.5q11 -43 101 -43q117 0 192.5 29t157.5 104l9 -4l-55 -156h-252l-153 1q-31 1 -59 1q-42 0 -94 -7
q-64 -8 -103 -8q-139 0 -234.5 100t-95.5 246q0 150 96.5 248.5t242.5 98.5q23 0 74 -7q58 -6 64 -6h472zM511 166v389q0 60 -42 81q-32 17 -76 17q-99 0 -157 -86t-58 -234q0 -149 58 -234t159 -85q60 0 88 36.5t28 115.5z" />
    <glyph glyph-name="oe" unicode="&#x153;" horiz-adv-x="1202" 
d="M1150 336h-463q-3 -22 -3 -60q0 -96 40 -168q24 -44 68.5 -69.5t97.5 -25.5q58 0 111 28t88 78q28 40 46 94l24 -12q-71 -215 -293 -215q-144 0 -249 105q-100 -104 -248 -104q-122 0 -209 67q-51 41 -79.5 98.5t-28.5 120.5t28.5 121t79.5 99q85 67 209 67
q146 0 251 -106q97 106 241 106q140 0 225 -91q59 -62 64 -133zM368 533q-87 0 -138 -70t-51 -190t51 -189.5t138 -69.5q86 0 137.5 69t51.5 187q0 122 -50.5 192.5t-138.5 70.5zM690 363h323q0 77 -42.5 123.5t-112.5 46.5q-65 0 -111 -46.5t-57 -123.5z" />
    <glyph glyph-name="Racute" unicode="&#x154;" horiz-adv-x="875" 
d="M247 336v-41q0 -98 2 -147.5t10.5 -82.5t21.5 -42.5t39 -14.5v-10q-67 4 -129 4q-60 0 -141 -4v10q19 3 30 8t20.5 18.5t14 30.5t7.5 51t4 73.5t1 105.5v213q0 89 -10 113.5t-50 35.5v10h360q164 0 232 -40q75 -46 75 -120q0 -44 -25 -79.5t-71 -55.5q-43 -18 -142 -28
q103 -23 141.5 -57.5t84.5 -147.5q31 -74 50 -96t63 -35v-10q-55 4 -99 4q-42 0 -101 -4q-12 21 -42 109q-32 92 -52.5 132t-47.5 62q-25 20 -56.5 27.5t-92.5 7.5h-97zM247 363h100q110 0 162 20q40 14 62.5 47.5t22.5 80.5q0 40 -18.5 70.5t-49.5 42.5q-42 16 -168 16
h-111v-277zM354 732h-54l98 97q36 35 50 44t33 9q21 0 34 -11.5t13 -29.5q0 -19 -13.5 -30t-72.5 -38z" />
    <glyph glyph-name="racute" unicode="&#x155;" horiz-adv-x="457" 
d="M427 549l-43 -120q-21 27 -56 27q-53 0 -83.5 -55.5t-30.5 -153.5v-100q0 -81 13 -106t60 -34v-9q-68 4 -123 4q-54 0 -126 -4v9q25 4 36.5 11t19.5 24q17 36 17 105v182q0 121 -7.5 145.5t-49.5 37.5v8q89 15 161 34q-3 -34 -4 -116v-40q28 50 54 81q61 71 144 71z
M226 592h-47l111 108q34 33 49.5 43t32.5 10q18 0 29.5 -10.5t11.5 -26.5q0 -17 -11 -26.5t-58 -34.5z" />
    <glyph glyph-name="Rcommaaccent" unicode="&#x156;" horiz-adv-x="875" 
d="M247 336v-41q0 -98 2 -147.5t10.5 -82.5t21.5 -42.5t39 -14.5v-10q-67 4 -129 4q-60 0 -141 -4v10q19 3 30 8t20.5 18.5t14 30.5t7.5 51t4 73.5t1 105.5v213q0 89 -10 113.5t-50 35.5v10h360q164 0 232 -40q75 -46 75 -120q0 -44 -25 -79.5t-71 -55.5q-43 -18 -142 -28
q103 -23 141.5 -57.5t84.5 -147.5q31 -74 50 -96t63 -35v-10q-55 4 -99 4q-42 0 -101 -4q-12 21 -42 109q-32 92 -52.5 132t-47.5 62q-25 20 -56.5 27.5t-92.5 7.5h-97zM247 363h100q110 0 162 20q40 14 62.5 47.5t22.5 80.5q0 40 -18.5 70.5t-49.5 42.5q-42 16 -168 16
h-111v-277zM396 -234l-4 10q27 14 44.5 37.5t17.5 47.5q0 11 -4 11q-1 0 -14 -7q-4 -2 -11 -2q-17 0 -28.5 11.5t-11.5 28.5q0 18 14 31t34 13q24 0 40.5 -19.5t16.5 -48.5q0 -38 -25 -68t-69 -45z" />
    <glyph glyph-name="rcommaaccent" unicode="&#x157;" horiz-adv-x="457" 
d="M427 549l-43 -120q-21 27 -56 27q-53 0 -83.5 -55.5t-30.5 -153.5v-100q0 -81 13 -106t60 -34v-9q-68 4 -123 4q-54 0 -126 -4v9q25 4 36.5 11t19.5 24q17 36 17 105v182q0 121 -7.5 145.5t-49.5 37.5v8q89 15 161 34q-3 -34 -4 -116v-40q28 50 54 81q61 71 144 71z
M124 -230l-5 10q27 14 44 36.5t17 45.5q0 11 -4 11q-1 0 -13 -6q-4 -2 -11 -2q-16 0 -27.5 11.5t-11.5 27.5q0 18 13.5 30.5t32.5 12.5q24 0 40 -19t16 -47q0 -37 -24 -66.5t-67 -44.5z" />
    <glyph glyph-name="Rcaron" unicode="&#x158;" horiz-adv-x="875" 
d="M247 336v-41q0 -98 2 -147.5t10.5 -82.5t21.5 -42.5t39 -14.5v-10q-67 4 -129 4q-60 0 -141 -4v10q19 3 30 8t20.5 18.5t14 30.5t7.5 51t4 73.5t1 105.5v213q0 89 -10 113.5t-50 35.5v10h360q164 0 232 -40q75 -46 75 -120q0 -44 -25 -79.5t-71 -55.5q-43 -18 -142 -28
q103 -23 141.5 -57.5t84.5 -147.5q31 -74 50 -96t63 -35v-10q-55 4 -99 4q-42 0 -101 -4q-12 21 -42 109q-32 92 -52.5 132t-47.5 62q-25 20 -56.5 27.5t-92.5 7.5h-97zM247 363h100q110 0 162 20q40 14 62.5 47.5t22.5 80.5q0 40 -18.5 70.5t-49.5 42.5q-42 16 -168 16
h-111v-277zM480 882h51l-115 -151h-71l-111 151h58l92 -78z" />
    <glyph glyph-name="rcaron" unicode="&#x159;" horiz-adv-x="457" 
d="M427 549l-43 -120q-21 27 -56 27q-53 0 -83.5 -55.5t-30.5 -153.5v-100q0 -81 13 -106t60 -34v-9q-68 4 -123 4q-54 0 -126 -4v9q25 4 36.5 11t19.5 24q17 36 17 105v182q0 121 -7.5 145.5t-49.5 37.5v8q89 15 161 34q-3 -34 -4 -116v-40q28 50 54 81q61 71 144 71z
M383 755l-132 -164h-57l-121 164h40l111 -96l117 96h42z" />
    <glyph glyph-name="Sacute" unicode="&#x15a;" horiz-adv-x="779" 
d="M699 627l-41 -121l-9 3q-10 74 -91 117q-66 36 -149 36q-85 0 -134.5 -36.5t-49.5 -98.5q0 -42 26 -70q33 -37 125 -52l122 -19q62 -11 94.5 -21.5t59.5 -28.5q69 -47 69 -127q0 -102 -88.5 -166t-229.5 -64q-191 0 -340 69l47 143l9 -4q6 -58 48 -99q85 -82 224 -82
q99 0 158 42t59 112q0 54 -37 79q-29 22 -114 35l-117 18q-104 17 -158 54q-32 23 -51 58.5t-19 74.5q0 51 28.5 95.5t78.5 73.5q70 40 180 40q158 0 300 -61zM398 732h-54l98 97q36 35 50 44t33 9q21 0 34 -11.5t13 -29.5q0 -19 -13.5 -30t-72.5 -38z" />
    <glyph glyph-name="sacute" unicode="&#x15b;" horiz-adv-x="645" 
d="M577 511l-36 -100l-8 4q-13 56 -58.5 87t-116.5 31q-66 0 -106 -30.5t-40 -80.5q0 -40 29 -60.5t103 -33.5l69 -12q89 -14 128 -42q53 -38 53 -106q0 -43 -25.5 -82.5t-66.5 -61.5q-68 -37 -182 -37q-138 0 -267 59l35 106l7 -2q10 -46 45 -76q73 -60 181 -60
q74 0 120 32.5t46 84.5q0 45 -34 69q-19 13 -70 22l-75 13q-104 18 -153.5 56.5t-49.5 102.5q0 74 65 120t170 46q112 0 237 -49zM308 592h-47l111 108q34 33 49.5 43t32.5 10q18 0 29.5 -10.5t11.5 -26.5q0 -17 -11 -26.5t-58 -34.5z" />
    <glyph glyph-name="Scedilla" unicode="&#x15e;" horiz-adv-x="779" 
d="M405 -21l-15 -34q21 3 30 3q39 0 62 -18t23 -48q0 -39 -32.5 -62.5t-87.5 -23.5q-50 0 -106 30l16 30q51 -21 79 -21q22 0 34.5 11.5t12.5 30.5q0 17 -11.5 27.5t-31.5 10.5q-12 0 -28 -5l-8 6l30 64q-179 6 -309 68l47 143l9 -4q9 -89 104 -140q74 -41 168 -41
q99 0 158 42t59 112q0 54 -37 79q-29 22 -114 35l-117 18q-104 17 -158 54q-70 48 -70 134q0 50 28.5 95t78.5 73q71 40 182 40q156 0 298 -61l-41 -121l-9 3q-10 74 -91 117q-66 36 -149 36q-85 0 -134.5 -36.5t-49.5 -98.5q0 -51 35.5 -79.5t115.5 -42.5l122 -19
q62 -11 95 -21t60 -29q68 -46 68 -127q0 -101 -88.5 -165.5t-227.5 -64.5z" />
    <glyph glyph-name="scedilla" unicode="&#x15f;" horiz-adv-x="645" 
d="M340 -13l-18 -42q20 3 29 3q39 0 62 -18t23 -48q0 -39 -32.5 -62.5t-86.5 -23.5q-51 0 -106 30l16 30q51 -21 78 -21q22 0 34.5 11.5t12.5 30.5q0 17 -11.5 27.5t-31.5 10.5q-12 0 -28 -5l-8 6l33 71q-127 0 -253 59l35 106l7 -2q10 -47 45 -77q73 -60 181 -60
q74 0 120 32.5t46 84.5q0 46 -34 70q-19 13 -70 22l-75 13q-104 18 -153.5 56.5t-49.5 102.5q0 74 65 120t170 46q112 0 237 -49l-36 -100l-8 4q-13 56 -58.5 87t-116.5 31q-66 0 -106 -30.5t-40 -80.5q0 -40 29 -60.5t103 -33.5l69 -12q89 -14 128 -42q53 -38 53 -106
q0 -56 -38 -100.5t-103 -64.5q-44 -13 -113 -16z" />
    <glyph glyph-name="Scaron" unicode="&#x160;" horiz-adv-x="779" 
d="M699 627l-41 -121l-9 3q-10 74 -91 117q-66 36 -149 36q-85 0 -134.5 -36.5t-49.5 -98.5q0 -42 26 -70q33 -37 125 -52l122 -19q62 -11 94.5 -21.5t59.5 -28.5q69 -47 69 -127q0 -102 -88.5 -166t-229.5 -64q-191 0 -340 69l47 143l9 -4q6 -58 48 -99q85 -82 224 -82
q99 0 158 42t59 112q0 54 -37 79q-29 22 -114 35l-117 18q-104 17 -158 54q-32 23 -51 58.5t-19 74.5q0 51 28.5 95.5t78.5 73.5q70 40 180 40q158 0 300 -61zM512 882h51l-115 -151h-72l-110 151h58l92 -78z" />
    <glyph glyph-name="scaron" unicode="&#x161;" horiz-adv-x="645" 
d="M577 511l-36 -100l-8 4q-13 56 -58.5 87t-116.5 31q-66 0 -106 -30.5t-40 -80.5q0 -40 29 -60.5t103 -33.5l69 -12q89 -14 128 -42q53 -38 53 -106q0 -43 -25.5 -82.5t-66.5 -61.5q-68 -37 -182 -37q-138 0 -267 59l35 106l7 -2q10 -46 45 -76q73 -60 181 -60
q74 0 120 32.5t46 84.5q0 45 -34 69q-19 13 -70 22l-75 13q-104 18 -153.5 56.5t-49.5 102.5q0 74 65 120t170 46q112 0 237 -49zM518 755l-133 -164h-56l-121 164h39l112 -96l117 96h42z" />
    <glyph glyph-name="Tcommaaccent" unicode="&#x162;" horiz-adv-x="819" 
d="M40 520l-10 4l43 144h674l43 -144l-10 -4q-115 126 -247 126q-29 0 -41.5 -7t-16.5 -25q-5 -28 -5 -154v-165q0 -77 2 -122t6 -79t14.5 -50t24 -24t36.5 -12v-10q-84 4 -143 4q-58 0 -143 -4v10q39 6 55 28.5t22 77t6 181.5v165q0 135 -7 160q-7 26 -57 26
q-131 0 -246 -126zM369 -234l-5 10q28 13 45 37t17 48q0 11 -4 11q-1 0 -14 -7q-4 -2 -11 -2q-17 0 -28.5 11.5t-11.5 28.5q0 18 14 31t34 13q24 0 40.5 -19.5t16.5 -48.5q0 -38 -24.5 -68t-68.5 -45z" />
    <glyph glyph-name="tcommaaccent" unicode="&#x163;" horiz-adv-x="359" 
d="M218 680v-161h119l-17 -33h-102v-130q0 -109 7 -214q4 -71 20.5 -98.5t57.5 -35.5v-8h-149q-27 17 -35.5 47.5t-8.5 110.5q0 69 3 141q0 16 0.5 36t1 31t0.5 17v103h-91l9 21q51 13 98 59.5t79 113.5h8zM140 -230l-5 10q27 14 44 36.5t17 45.5q0 11 -4 11q-1 0 -13 -6
q-4 -2 -11 -2q-16 0 -27.5 11.5t-11.5 27.5q0 18 13.5 30.5t32.5 12.5q24 0 40 -19t16 -47q0 -37 -24 -66.5t-67 -44.5z" />
    <glyph glyph-name="Tcaron" unicode="&#x164;" horiz-adv-x="819" 
d="M40 520l-10 4l43 144h674l43 -144l-10 -4q-115 126 -247 126q-29 0 -41.5 -7t-16.5 -25q-5 -28 -5 -154v-165q0 -77 2 -122t6 -79t14.5 -50t24 -24t36.5 -12v-10q-84 4 -143 4q-58 0 -143 -4v10q39 6 55 28.5t22 77t6 181.5v165q0 135 -7 160q-7 26 -57 26
q-131 0 -246 -126zM507 882h51l-114 -151h-72l-111 151h59l91 -78z" />
    <glyph glyph-name="tcaron" unicode="&#x165;" horiz-adv-x="404" 
d="M218 680v-161h119l-17 -33h-102v-130q0 -109 7 -214q4 -71 20.5 -98.5t57.5 -35.5v-8h-149q-27 17 -35.5 47.5t-8.5 110.5q0 69 3 141q0 16 0.5 36t1 31t0.5 17v103h-91l9 21q51 13 98 59.5t79 113.5h8zM295 585l-14 15q50 48 59 120q-4 -1 -11 -1q-29 0 -47 18.5
t-18 46.5t17.5 45.5t45.5 17.5q64 0 64 -76q0 -49 -26.5 -100t-69.5 -86z" />
    <glyph glyph-name="Umacron" unicode="&#x16a;" horiz-adv-x="857" 
d="M594 659v10q75 -4 123 -4q49 0 104 4v-10q-46 -12 -68 -42.5t-30.5 -94.5t-8.5 -194v-72q0 -276 -288 -276q-142 0 -231 39q-54 25 -79 75.5t-25 135.5l2 187v92q0 67 -2.5 88.5t-10.5 35.5q-11 17 -40 26v10q76 -4 128 -4t115 4v-10q-43 -13 -56 -38q-9 -16 -11.5 -42.5
t-2.5 -103.5v-105q0 -169 17 -222q46 -141 218 -141q123 0 184 69q55 61 55 190v79q0 178 -13 234q-8 32 -25.5 50t-54.5 30zM247 777v33h367v-33h-367z" />
    <glyph glyph-name="umacron" unicode="&#x16b;" horiz-adv-x="687" 
d="M663 0h-129q-10 20 -20 50q-5 19 -15 53q-42 -65 -86 -90.5t-114 -25.5q-53 0 -101 17.5t-77 47.5q-44 45 -44 162l2 98v30q0 68 -3.5 95t-14 39t-38.5 22v9q77 12 163 33q-2 -29 -4 -142v-107q0 -125 23 -190q14 -41 46 -64.5t72 -23.5q49 0 97 35t61 81q16 56 16 167
v59q0 85 -8.5 108t-45.5 35v9q80 12 160 33q-2 -33 -3 -142v-98q0 -203 19 -254q9 -30 44 -38v-8zM160 661v33h367v-33h-367z" />
    <glyph glyph-name="Uring" unicode="&#x16e;" horiz-adv-x="857" 
d="M594 659v10q75 -4 123 -4q49 0 104 4v-10q-46 -12 -68 -42.5t-30.5 -94.5t-8.5 -194v-72q0 -276 -288 -276q-142 0 -231 39q-54 25 -79 75.5t-25 135.5l2 187v92q0 67 -2.5 88.5t-10.5 35.5q-11 17 -40 26v10q76 -4 128 -4t115 4v-10q-43 -13 -56 -38q-9 -16 -11.5 -42.5
t-2.5 -103.5v-105q0 -169 17 -222q46 -141 218 -141q123 0 184 69q55 61 55 190v79q0 178 -13 234q-8 32 -25.5 50t-54.5 30zM443 857q-21 0 -36 -14.5t-15 -35.5t14.5 -35.5t35.5 -14.5t36 15t15 35t-15 35t-35 15zM444 905q39 0 67.5 -29t28.5 -69q0 -41 -29 -69.5
t-69 -28.5q-41 0 -69.5 29t-28.5 70t29 69t71 28z" />
    <glyph glyph-name="uring" unicode="&#x16f;" horiz-adv-x="687" 
d="M663 0h-129q-13 27 -35 103q-42 -65 -86 -90.5t-114 -25.5q-53 0 -101 17.5t-77 47.5q-44 45 -44 162l2 98v30q0 68 -3.5 95t-14 39t-38.5 22v8q79 13 163 34q-2 -29 -4 -142v-107q0 -125 23 -190q14 -41 46 -64.5t72 -23.5q49 0 97 35t61 81q16 56 16 167v59
q0 85 -8.5 107.5t-45.5 35.5v8q83 14 160 34q-1 -33 -3 -142v-98q0 -203 19 -254q9 -30 44 -38v-8zM354 730q-24 0 -41 -16.5t-17 -40.5t17 -41t40 -17q24 0 41 17t17 41q0 23 -17 40t-40 17zM355 776q42 0 72 -30.5t30 -72.5q0 -43 -30.5 -73.5t-72.5 -30.5
q-43 0 -73.5 30.5t-30.5 73.5t30.5 73t74.5 30z" />
    <glyph glyph-name="Uhungarumlaut" unicode="&#x170;" horiz-adv-x="857" 
d="M594 659v10q75 -4 123 -4q49 0 104 4v-10q-46 -12 -68 -42.5t-30.5 -94.5t-8.5 -194v-72q0 -276 -288 -276q-142 0 -231 39q-54 25 -79 75.5t-25 135.5l2 187v92q0 67 -2.5 88.5t-10.5 35.5q-11 17 -40 26v10q76 -4 128 -4t115 4v-10q-43 -13 -56 -38q-9 -16 -11.5 -42.5
t-2.5 -103.5v-105q0 -169 17 -222q46 -141 218 -141q123 0 184 69q55 61 55 190v79q0 178 -13 234q-8 32 -25.5 50t-54.5 30zM353 730h-52l79 93q31 36 37 42q19 19 43 19q19 0 31 -11.5t12 -28.5q0 -16 -8.5 -24.5t-51.5 -35.5zM538 730h-55l93 91q37 37 55 49t35 12
q18 0 30.5 -12t12.5 -29q0 -16 -14.5 -29t-54.5 -33z" />
    <glyph glyph-name="uhungarumlaut" unicode="&#x171;" horiz-adv-x="687" 
d="M663 0h-129q-10 20 -20 50q-5 19 -15 53q-42 -65 -86 -90.5t-114 -25.5q-53 0 -101 17.5t-77 47.5q-44 45 -44 162l2 98v30q0 68 -3.5 95t-14 39t-38.5 22v9q77 12 163 33q-2 -29 -4 -142v-107q0 -125 23 -190q14 -41 46 -64.5t72 -23.5q49 0 97 35t61 81q16 56 16 167
v59q0 85 -8.5 108t-45.5 35v9q80 12 160 33q-2 -33 -3 -142v-98q0 -203 19 -254q9 -30 44 -38v-8zM422 589h-46l109 118q33 34 42.5 41t25.5 7t27.5 -10.5t11.5 -25.5q0 -16 -10 -26t-51 -36zM257 589h-44l90 116q26 32 38.5 41.5t28.5 9.5q17 0 27.5 -9t10.5 -24t-10.5 -26
t-50.5 -41z" />
    <glyph glyph-name="Uogonek" unicode="&#x172;" horiz-adv-x="857" 
d="M622 -131l15 -15q-50 -62 -109 -62q-37 0 -62 21t-25 52q0 35 22 64t74 64q-52 -13 -114 -13q-138 0 -228 39q-54 25 -79 75.5t-25 135.5l2 187v92q0 67 -2.5 88.5t-10.5 35.5q-11 17 -40 26v10q76 -4 128 -4t115 4v-10q-43 -13 -56 -38q-9 -16 -11.5 -42.5t-2.5 -103.5
v-105q0 -169 17 -222q46 -141 218 -141q123 0 184 69q55 61 55 190v79q0 178 -13 234q-8 32 -25.5 50t-54.5 30v10q75 -4 123 -4q49 0 104 4v-10q-46 -12 -68 -42.5t-30.5 -94.5t-8.5 -194v-72q0 -115 -51 -182q-13 -17 -54 -53q-48 -41 -67 -68t-19 -55q0 -23 14 -39
t35 -16q13 0 21.5 4.5t28.5 21.5z" />
    <glyph glyph-name="uogonek" unicode="&#x173;" horiz-adv-x="687" 
d="M663 0h-10q-89 -43 -89 -103q0 -23 14 -38.5t35 -15.5q13 0 21.5 4.5t28.5 21.5l15 -15q-50 -62 -109 -62q-37 0 -62 21t-25 52q0 83 125 135h-73q-10 20 -20 50q-5 19 -15 53q-42 -65 -86 -90.5t-114 -25.5q-53 0 -101 17.5t-77 47.5q-44 45 -44 162l2 98v30
q0 68 -3.5 95t-14 39t-38.5 22v9q77 12 163 33q-2 -29 -4 -142v-107q0 -125 23 -190q14 -41 46 -64.5t72 -23.5q49 0 97 35t61 81q16 56 16 167v59q0 85 -8.5 108t-45.5 35v9q80 12 160 33q-2 -33 -3 -142v-98q0 -203 19 -254q9 -30 44 -38v-8z" />
    <glyph glyph-name="Ydieresis" unicode="&#x178;" horiz-adv-x="805" 
d="M452 294v-19q0 -119 5 -169.5t18.5 -71t46.5 -26.5v-10q-69 4 -126 4q-54 0 -131 -4v10q19 4 30 11.5t19 22t11.5 46.5t5 73.5t1.5 113.5v19l-169 215q-63 81 -95 110t-69 40v10q95 -4 154 -4q61 0 125 4v-10q-51 -7 -51 -43q0 -29 56 -99l155 -195l108 144
q57 76 71 100.5t14 47.5q0 32 -49 45v10q71 -4 116 -4q50 0 94 4v-10q-61 -26 -112 -76.5t-157 -190.5zM270 872q26 0 45.5 -19.5t19.5 -45.5q0 -27 -19.5 -46.5t-46.5 -19.5t-46 19.5t-19 46.5t19.5 46t46.5 19zM522 872q26 0 45.5 -19.5t19.5 -45.5q0 -27 -19.5 -46.5
t-46.5 -19.5t-46 19.5t-19 46.5t19.5 46t46.5 19z" />
    <glyph glyph-name="Zacute" unicode="&#x179;" horiz-adv-x="732" 
d="M672 153l-53 -153h-579l239 330q94 130 161 232q27 40 27 55q0 13 -17.5 18t-61.5 5h-46q-101 0 -163 -25.5t-121 -91.5l-9 4l47 140h544l-176 -254q-95 -139 -193 -301q-24 -38 -24 -53q0 -32 77 -32h52q93 0 167 33.5t119 95.5zM360 732h-54l98 97q37 36 50 44.5
t33 8.5q21 0 34 -11.5t13 -29.5q0 -19 -13.5 -30t-72.5 -38z" />
    <glyph glyph-name="zacute" unicode="&#x17a;" horiz-adv-x="658" 
d="M611 144l-47 -144h-517l334 438q14 20 20 27q25 33 25 41q0 14 -63 14h-33q-92 0 -148.5 -24.5t-103.5 -83.5l-8 3l47 132h466l-220 -301q-7 -9 -57 -80q-25 -36 -44 -63q-31 -42 -31 -55q0 -12 11.5 -16.5t40.5 -4.5h42q80 0 118.5 9t82.5 38q42 27 77 73zM339 592h-47
l112 108q34 33 49 43t32 10q18 0 29.5 -10.5t11.5 -26.5q0 -17 -10.5 -26.5t-57.5 -34.5z" />
    <glyph glyph-name="Zdotaccent" unicode="&#x17b;" horiz-adv-x="732" 
d="M672 153l-53 -153h-579l239 330q94 130 161 232q27 40 27 55q0 13 -17.5 18t-61.5 5h-46q-101 0 -163 -25.5t-121 -91.5l-9 4l47 140h544l-176 -254q-95 -139 -193 -301q-24 -38 -24 -53q0 -32 77 -32h52q93 0 167 33.5t119 95.5zM366 872q26 0 45.5 -19.5t19.5 -45.5
q0 -27 -19.5 -46.5t-46.5 -19.5t-46 19.5t-19 46.5t19.5 46t46.5 19z" />
    <glyph glyph-name="zdotaccent" unicode="&#x17c;" horiz-adv-x="658" 
d="M611 144l-47 -144h-517l334 438q14 20 20 27q25 33 25 41q0 14 -63 14h-33q-92 0 -148.5 -24.5t-103.5 -83.5l-8 3l47 132h466l-220 -301q-7 -9 -57 -80q-25 -36 -44 -63q-31 -42 -31 -55q0 -12 11.5 -16.5t40.5 -4.5h42q80 0 118.5 9t82.5 38q42 27 77 73zM365 731
q23 0 40 -17.5t17 -40.5q0 -24 -17 -41t-41 -17t-41 17t-17 41t17 41t42 17z" />
    <glyph glyph-name="Zcaron" unicode="&#x17d;" horiz-adv-x="732" 
d="M672 153l-53 -153h-579l239 330q94 130 161 232q27 40 27 55q0 13 -17.5 18t-61.5 5h-46q-101 0 -163 -25.5t-121 -91.5l-9 4l47 140h544l-176 -254q-95 -139 -193 -301q-24 -38 -24 -53q0 -32 77 -32h52q93 0 167 33.5t119 95.5zM453 882h51l-114 -151h-72l-111 151h59
l91 -78z" />
    <glyph glyph-name="zcaron" unicode="&#x17e;" horiz-adv-x="658" 
d="M611 144l-47 -144h-517l334 438q14 20 20 27q25 33 25 41q0 14 -63 14h-33q-92 0 -148.5 -24.5t-103.5 -83.5l-8 3l47 132h466l-220 -301q-7 -9 -57 -80q-25 -36 -44 -63q-31 -42 -31 -55q0 -12 11.5 -16.5t40.5 -4.5h42q80 0 118.5 9t82.5 38q42 27 77 73zM510 755
l-132 -164h-57l-121 164h40l111 -96l117 96h42z" />
    <glyph glyph-name="florin" unicode="&#x192;" horiz-adv-x="753" 
d="M592 585l-20 -33h-95l-107 -548q-19 -97 -97 -157.5t-185 -60.5q-5 0 -35 2l61 106l9 -3q15 -63 56 -63q31 0 48 31t34 114l112 579h-96l19 33h84l4 20q19 97 97 157.5t184 60.5q12 0 36 -3l-61 -105l-10 3q-14 63 -55 63q-31 0 -48.5 -31.5t-33.5 -113.5l-10 -51h109z
" />
    <glyph glyph-name="Scommaaccent" unicode="&#x218;" horiz-adv-x="779" 
d="M699 627l-41 -121l-9 3q-10 74 -91 117q-66 36 -149 36q-85 0 -134.5 -36.5t-49.5 -98.5q0 -51 35.5 -79.5t115.5 -42.5l122 -19q62 -11 95 -21t60 -29q68 -46 68 -127q0 -59 -34 -109t-95 -81q-80 -40 -192 -40q-188 0 -337 69l47 143l9 -4q9 -89 104 -140
q74 -41 168 -41q99 0 158 42t59 112q0 54 -37 79q-29 22 -114 35l-117 18q-104 17 -158 54q-70 48 -70 134q0 50 28.5 95t78.5 73q71 40 182 40q156 0 298 -61zM351 -234l-5 10q28 13 45 37t17 48q0 11 -4 11q-2 0 -3 -1q-13 -8 -22 -8q-16 0 -27.5 12t-11.5 28q0 18 14 31
t33 13q24 0 40.5 -19.5t16.5 -48.5q0 -38 -24.5 -68t-68.5 -45z" />
    <glyph glyph-name="scommaaccent" unicode="&#x219;" horiz-adv-x="645" 
d="M577 511l-36 -100l-8 4q-13 56 -58.5 87t-116.5 31q-66 0 -106 -30.5t-40 -80.5q0 -40 29 -60.5t103 -33.5l69 -12q89 -14 128 -42q53 -38 53 -106q0 -43 -25.5 -82.5t-66.5 -61.5q-68 -37 -182 -37q-138 0 -267 59l35 106l7 -2q10 -46 45 -76q73 -60 181 -60
q74 0 120 32.5t46 84.5q0 45 -34 69q-19 13 -70 22l-75 13q-104 18 -153.5 56.5t-49.5 102.5q0 74 65 120t170 46q112 0 237 -49zM289 -230l-4 10q26 14 43 36.5t17 45.5q0 11 -4 11q-1 0 -13 -6q-4 -2 -11 -2q-17 0 -28 11.5t-11 27.5q0 18 13.5 30.5t32.5 12.5
q24 0 40 -19t16 -47q0 -37 -24 -66.5t-67 -44.5z" />
    <glyph glyph-name="circumflex" unicode="&#x2c6;" 
d="M95 591l133 164h56l121 -164h-39l-112 96l-117 -96h-42z" />
    <glyph glyph-name="caron" unicode="&#x2c7;" 
d="M405 755l-132 -164h-56l-122 164h40l111 -96l118 96h41z" />
    <glyph glyph-name="breve" unicode="&#x2d8;" 
d="M102 765h30q20 -93 118 -93q99 0 118 93h31q-7 -70 -33 -104q-40 -54 -116 -54q-80 0 -121 61q-22 35 -27 97z" />
    <glyph glyph-name="dotaccent" unicode="&#x2d9;" 
d="M251 731q23 0 40 -17.5t17 -40.5q0 -24 -17 -41t-41 -17t-41 17t-17 41t17 41t42 17z" />
    <glyph glyph-name="ring" unicode="&#x2da;" 
d="M251 730q-24 0 -41 -16.5t-17 -40.5t17 -41t40 -17q24 0 41 17t17 41q0 23 -17 40t-40 17zM252 776q42 0 72 -30.5t30 -72.5q0 -43 -30.5 -73.5t-72.5 -30.5q-43 0 -73.5 30.5t-30.5 73.5t30.5 73t74.5 30z" />
    <glyph glyph-name="ogonek" unicode="&#x2db;" 
d="M276 2l42 -2q-89 -43 -89 -103q0 -22 14.5 -38t34.5 -16q13 0 21.5 4.5t28.5 21.5l15 -15q-49 -62 -109 -62q-37 0 -62 21t-25 52q0 81 129 137z" />
    <glyph glyph-name="tilde" unicode="&#x2dc;" 
d="M102 615h-35q31 112 115 112q35 0 93 -21q53 -19 70 -19q22 0 33.5 9t23.5 35h32q-29 -111 -112 -111q-31 0 -88 22q-49 19 -71 19q-23 0 -37 -10.5t-24 -35.5z" />
    <glyph glyph-name="hungarumlaut" unicode="&#x2dd;" 
d="M256 589h-46l109 118q34 34 43.5 41t24.5 7q16 0 27.5 -10.5t11.5 -25.5q0 -16 -10 -26t-51 -36zM90 589h-43l90 116q26 32 38 41.5t29 9.5t27 -9t10 -24q0 -14 -11 -26.5t-49 -40.5z" />
    <glyph glyph-name="endash" unicode="&#x2013;" horiz-adv-x="731" 
d="M696 310l-17 -60h-645l17 60h645z" />
    <glyph glyph-name="emdash" unicode="&#x2014;" horiz-adv-x="949" 
d="M949 310l-16 -60h-933l16 60h933z" />
    <glyph glyph-name="quoteleft" unicode="&#x2018;" horiz-adv-x="233" 
d="M145 753l15 -15q-50 -47 -60 -119h12q28 0 46.5 -18.5t18.5 -46.5q0 -27 -17.5 -44.5t-45.5 -17.5q-64 0 -64 76q0 49 26 99.5t69 85.5z" />
    <glyph glyph-name="quoteright" unicode="&#x2019;" horiz-adv-x="233" 
d="M82 485l-15 15q50 47 60 120q-5 -1 -12 -1q-29 0 -47 18.5t-18 46.5t17.5 45.5t45.5 17.5q64 0 64 -76q0 -49 -26 -100t-69 -86z" />
    <glyph glyph-name="quotesinglbase" unicode="&#x201a;" horiz-adv-x="233" 
d="M82 -150l-15 15q50 47 60 119h-12q-29 0 -47 18t-18 47q0 27 17.5 44.5t45.5 17.5q64 0 64 -76q0 -49 -26 -99.5t-69 -85.5z" />
    <glyph glyph-name="quotedblleft" unicode="&#x201c;" horiz-adv-x="433" 
d="M345 753l15 -15q-50 -47 -60 -119h12q28 0 46.5 -18.5t18.5 -46.5q0 -27 -17.5 -44.5t-45.5 -17.5q-64 0 -64 76q0 49 26 99.5t69 85.5zM145 753l15 -15q-50 -47 -60 -119h12q28 0 46.5 -18.5t18.5 -46.5q0 -27 -17.5 -44.5t-45.5 -17.5q-64 0 -64 76q0 49 26 99.5
t69 85.5z" />
    <glyph glyph-name="quotedblright" unicode="&#x201d;" horiz-adv-x="433" 
d="M82 485l-15 15q50 47 60 120q-5 -1 -12 -1q-29 0 -47 18.5t-18 46.5t17.5 45.5t45.5 17.5q64 0 64 -76q0 -49 -26 -100t-69 -86zM282 485l-15 15q50 47 60 120q-5 -1 -12 -1q-29 0 -47 18.5t-18 46.5t17.5 45.5t45.5 17.5q64 0 64 -76q0 -49 -26 -100t-69 -86z" />
    <glyph glyph-name="quotedblbase" unicode="&#x201e;" horiz-adv-x="433" 
d="M82 -150l-15 15q50 47 60 120q-5 -1 -12 -1q-29 0 -47 18t-18 47q0 28 17.5 45.5t45.5 17.5q64 0 64 -76q0 -49 -26 -100t-69 -86zM282 -150l-15 15q50 47 60 120q-5 -1 -12 -1q-29 0 -47 18t-18 47q0 28 17.5 45.5t45.5 17.5q64 0 64 -76q0 -49 -26 -100t-69 -86z" />
    <glyph glyph-name="dagger" unicode="&#x2020;" horiz-adv-x="537" 
d="M492 460l-190 3l3 -530h-67l4 530l-197 -3v67l197 -4l-4 224h67l-3 -224l190 4v-67z" />
    <glyph glyph-name="daggerdbl" unicode="&#x2021;" horiz-adv-x="537" 
d="M492 460l-190 3v-246l190 3v-67l-190 4l3 -224h-66l3 224l-197 -4v67l197 -3v246l-197 -3v67l197 -4l-3 224h66l-3 -224l190 4v-67z" />
    <glyph glyph-name="bullet" unicode="&#x2022;" horiz-adv-x="667" 
d="M337 477q55 0 95.5 -41t40.5 -97q0 -58 -40.5 -98.5t-97.5 -40.5t-98 40.5t-41 97.5q0 58 41 98.5t100 40.5z" />
    <glyph glyph-name="ellipsis" unicode="&#x2026;" horiz-adv-x="700" 
d="M116 114q27 0 45.5 -18.5t18.5 -45.5q0 -26 -19 -44.5t-44 -18.5q-26 0 -45 19t-19 45q0 25 18.5 44t44.5 19zM349 114q27 0 45.5 -18.5t18.5 -45.5q0 -26 -18.5 -44.5t-44.5 -18.5t-45 19t-19 45q0 25 19 44t44 19zM583 114q27 0 45.5 -18.5t18.5 -45.5
q0 -26 -18.5 -44.5t-44.5 -18.5t-45 19t-19 45q0 25 19 44t44 19z" />
    <glyph glyph-name="perthousand" unicode="&#x2030;" horiz-adv-x="900" 
d="M166 680q59 0 96.5 -42.5t37.5 -109.5q0 -64 -38 -106.5t-96 -42.5t-96 43t-38 108t38 107.5t96 42.5zM166 654q-28 0 -40 -28t-12 -95q0 -68 12 -96t40 -28t40 28t12 94q0 68 -12 96.5t-40 28.5zM482 667h50l-424 -667h-52zM421 288q59 0 96.5 -42.5t37.5 -109.5
q0 -64 -38 -106.5t-96 -42.5t-96 43t-38 108t38 107.5t96 42.5zM421 262q-28 0 -40 -28t-12 -95q0 -68 12 -96t40 -28t40 28t12 94q0 68 -12 96.5t-40 28.5zM734 288q59 0 97 -42.5t38 -109.5q0 -64 -38.5 -106.5t-95.5 -42.5q-58 0 -96.5 43t-38.5 108t38 107.5t96 42.5z
M735 262q-29 0 -41 -28t-12 -95t12 -95.5t41 -28.5q28 0 40 28t12 94q0 68 -12 96.5t-40 28.5z" />
    <glyph glyph-name="guilsinglleft" unicode="&#x2039;" horiz-adv-x="282" 
d="M177 469l9 -7q25 -20 47 -32q-82 -111 -103 -147q38 -61 98 -141q1 -1 2.5 -3.5t3 -4.5t2.5 -4q-29 -10 -61 -39q-43 82 -125 191q3 4 9.5 14t21 31t38.5 56q49 70 58 86z" />
    <glyph glyph-name="guilsinglright" unicode="&#x203a;" horiz-adv-x="282" 
d="M106 91q-9 7 -10 7q-24 19 -46 32q79 106 103 147q-38 61 -98 141q-1 1 -2.5 3.5t-3 4.5t-2.5 4q29 10 61 39q43 -82 125 -191q-5 -7 -10 -14.5t-21 -30.5t-38 -56q-49 -70 -58 -86z" />
    <glyph glyph-name="fraction" unicode="&#x2044;" horiz-adv-x="70" 
d="M137 667h50l-254 -667h-50z" />
    <glyph glyph-name="Euro" unicode="&#x20ac;" horiz-adv-x="666" 
d="M205 382h317l-19 -33h-301q-1 -14 -1 -33q0 -22 3 -52h244l-19 -33h-220q18 -101 80.5 -161.5t148.5 -60.5q62 0 106 36q22 17 34.5 38t24.5 61v-122q-71 -38 -173 -38q-131 0 -225.5 67t-122.5 180h-82l19 33h57q-4 27 -4 52q0 22 2 33h-74l19 33h60q22 122 114 195
t223 73q108 0 237 -60l-51 -81l-4 1q-13 55 -56.5 85t-109.5 30q-94 0 -153.5 -63.5t-73.5 -179.5z" />
    <glyph glyph-name="trademark" unicode="&#x2122;" horiz-adv-x="1167" 
d="M36 573l-12 4l28 90h424l28 -90l-12 -4q-72 75 -152 75q-26 0 -30.5 -13.5t-4.5 -93.5v-97q0 -75 4 -107t14 -44.5t34 -15.5v-12q-44 2 -93 2q-48 0 -93 -2v12q35 4 43.5 31.5t8.5 135.5v97q0 80 -4 93q-3 14 -32 14q-79 0 -151 -75zM858 374l145 294q30 -2 62 -2
q12 0 54 2v-12q-26 -6 -31.5 -18.5t-5.5 -67.5v-125q0 -76 3.5 -107.5t12.5 -44t32 -15.5v-12q-42 2 -87 2q-43 0 -86 -2v12q29 4 36 31.5t7 135.5v159l-175 -354l-177 351v-157q0 -98 11 -127q12 -33 49 -39v-12q-34 2 -73 2q-38 0 -74 -2v12q37 11 49.5 44.5t12.5 121.5
v126q0 55 -6 67.5t-35 18.5v12q36 -2 69 -2q13 0 55 2z" />
    <glyph glyph-name="Delta" unicode="&#x2206;" horiz-adv-x="667" 
d="M364 681l307 -681h-675l305 681h63zM297 563l-187 -421q-14 -29 -14 -43q0 -16 10.5 -22.5t38.5 -6.5h366z" />
    <glyph glyph-name="summation" unicode="&#x2211;" horiz-adv-x="667" 
d="M46 667h538v-169h-20q-9 76 -45.5 107t-115.5 31h-217l198 -364l-244 -438h262q58 0 91 11.5t61 40.5q35 37 51 104h20l-33 -223h-546l251 448z" />
    <glyph glyph-name="minus" unicode="&#x2212;" 
d="M15 381h470v-60h-470v60z" />
    <glyph glyph-name="radical" unicode="&#x221a;" horiz-adv-x="667" 
d="M650 823v-33h-114l-185 -790h-111l-85 354h-138v33h228l79 -337l182 773h144z" />
    <glyph glyph-name="lessequal" unicode="&#x2264;" 
d="M459 627v-51l-279 -179l279 -188v-137l-418 283v7zM41 46h418v-46h-418v46z" />
    <glyph glyph-name="greaterequal" unicode="&#x2265;" 
d="M41 46h418v-46h-418v46zM41 72v51l279 180l-279 188v136l418 -286v-7z" />
    <glyph glyph-name="lozenge" unicode="&#x25ca;" horiz-adv-x="667" 
d="M334 693l259 -359l-259 -360l-260 360zM334 604l-197 -270l197 -271l197 271z" />
    <glyph glyph-name="commaaccent" unicode="&#xf6c3;" 
d="M210 -230l-5 10q27 14 44 36.5t17 45.5q0 11 -4 11q-1 0 -13 -6q-4 -2 -11 -2q-16 0 -27.5 11.5t-11.5 27.5q0 18 13.5 30.5t32.5 12.5q24 0 40 -19t16 -47q0 -37 -24 -66.5t-67 -44.5z" />
    <glyph glyph-name="nbspace" horiz-adv-x="300" 
 />
    <glyph glyph-name="sfthyphen" horiz-adv-x="176" 
d="M176 310l-16 -60h-160l16 60h160z" />
    <glyph glyph-name="middot" horiz-adv-x="233" 
d="M116 344q27 0 45.5 -18.5t18.5 -45.5q0 -26 -19 -44.5t-44 -18.5q-26 0 -45 19t-19 45q0 25 18.5 44t44.5 19z" />
    </font>
</defs>
</svg>
