<?xml version="1.0" standalone="no"?>
<!DOCTYPE svg PUBLIC "-//W3C//DTD SVG 1.1//EN" "http://www.w3.org/Graphics/SVG/1.1/DTD/svg11.dtd" >
<svg xmlns="http://www.w3.org/2000/svg" xmlns:xlink="http://www.w3.org/1999/xlink" version="1.1">
<metadata>
Created by FontForge 20170731 at Fri Dec 20 17:00:58 2002
 By Aleksey,,,
(URW)++,Copyright 2001 by (URW)++ Design &#38; Development
</metadata>
<defs>
<font id="AmericanaTOT-Reg" horiz-adv-x="500" >
  <font-face 
    font-family="AmericanaTOT"
    font-weight="400"
    font-stretch="normal"
    units-per-em="1000"
    panose-1="4 0 5 0 0 0 0 0 0 0"
    ascent="800"
    descent="-200"
    x-height="540"
    cap-height="669"
    bbox="-160 -233 1135 915"
    underline-thickness="42"
    underline-position="-193"
    unicode-range="U+0020-FB02"
  />
<missing-glyph horiz-adv-x="300" 
 />
    <glyph glyph-name="fi" unicode="fi" horiz-adv-x="601" 
d="M367 757l-31 -86l-6 2q-29 38 -60 38q-30 0 -48 -33t-18 -88v-50h101l-9 -28h-92v-117q0 -260 9 -318.5t52 -71.5v-7q-49 4 -112 4q-50 0 -89 -4v7q46 14 54 73q9 60 9 317v117h-94l11 28h83v5q0 97 57 147q34 30 79 48t85 18q9 0 19 -1zM389 501v6q94 17 128 33v-10v-66
v-54v-231q0 -101 13 -138q12 -31 43 -36v-7q-52 4 -108 4q-46 0 -85 -4v7q33 6 46.5 45.5t13.5 128.5v32q0 213 -6 249t-45 41zM470 720q21 0 36 -15t15 -37q0 -20 -15 -35t-36 -15t-36 15t-15 36t15 36t36 15z" />
    <glyph glyph-name="fl" unicode="fl" horiz-adv-x="599" 
d="M367 757l-31 -86l-6 2q-29 38 -60 38q-30 0 -48 -33t-18 -88v-50h101l-9 -28h-92v-117q0 -260 9 -318.5t52 -71.5v-7q-49 4 -112 4q-50 0 -89 -4v7q46 14 54 73q9 60 9 317v117h-94l11 28h83v5q0 97 57 147q34 30 79 48t85 18q9 0 19 -1zM575 5v-7q-53 4 -118 4
q-52 0 -92 -4v7q25 8 37.5 22t20.5 59t10 111t2 197v99q-1 29 -2.5 84t-2.5 85q-1 28 -11.5 40t-36.5 14v6q67 11 127 33q-4 -100 -4 -230v-131q0 -242 13 -316q8 -59 57 -73z" />
    <glyph glyph-name=".notdef" horiz-adv-x="300" 
 />
    <glyph glyph-name=".null" horiz-adv-x="0" 
 />
    <glyph glyph-name="nonmarkingreturn" horiz-adv-x="333" 
 />
    <glyph glyph-name="space" unicode=" " horiz-adv-x="300" 
 />
    <glyph glyph-name="exclam" unicode="!" horiz-adv-x="220" 
d="M100 124v18q0 73 -5 122t-27 196q-8 59 -8 98q0 52 14 84.5t36 32.5t36 -32.5t14 -85.5q0 -40 -25 -210q-15 -102 -15 -206v-17h-20zM110 93q21 0 35.5 -14.5t14.5 -35.5q0 -20 -15 -35t-35 -15t-35 15t-15 35t15 35t35 15z" />
    <glyph glyph-name="quotedbl" unicode="&#x22;" horiz-adv-x="330" 
d="M108 399h-34l-21 268h76zM257 399h-35l-20 268h75z" />
    <glyph glyph-name="numbersign" unicode="#" horiz-adv-x="592" 
d="M394 229l-44 -229h-38l44 229h-154l-44 -229h-38l45 229h-118l6 35h120l27 152h-117l5 35h120l41 216h38l-42 -216h154l42 216h38l-42 -216h112l-6 -35h-114l-27 -152h112l-6 -35h-114zM365 264l26 152h-154l-27 -152h155z" />
    <glyph glyph-name="dollar" unicode="$" horiz-adv-x="733" 
d="M400 23v-98h-37v97q-145 3 -250 62l35 103l8 -3q8 -55 72 -95t143 -40q73 0 118.5 35.5t45.5 92.5q0 46 -27.5 69.5t-93.5 35.5l-65 12q-109 20 -145 47q-23 17 -37 47t-14 61q0 47 27 86t75 61q46 21 108 27v96h37v-96q89 -2 189 -45l-28 -89l-9 2q-14 47 -63 79.5
t-107 32.5q-64 0 -107 -34t-43 -84q0 -48 36 -75q23 -19 95 -32l54 -10q79 -15 106.5 -24t50.5 -29q47 -38 47 -103q0 -70 -63 -124t-158 -65z" />
    <glyph glyph-name="percent" unicode="%" horiz-adv-x="522" 
d="M159 677q55 0 90 -41t35 -106q0 -62 -35.5 -103t-89.5 -41q-55 0 -90 41t-35 105q0 63 35 104t90 41zM158 655q-63 0 -63 -123q0 -124 63 -124t63 122q0 125 -63 125zM451 667h40l-419 -667h-40zM366 281q55 0 90 -41t35 -106q0 -62 -35.5 -103t-89.5 -41q-55 0 -90 41
t-35 105q0 63 35 104t90 41zM365 259q-63 0 -63 -123q0 -124 63 -124t63 122q0 125 -63 125z" />
    <glyph glyph-name="ampersand" unicode="&#x26;" horiz-adv-x="743" 
d="M730 0h-169q-48 38 -71 61q-69 -75 -207 -75q-107 0 -177.5 48.5t-70.5 122.5q0 54 43 102t119 79q-62 76 -62 141q0 67 52 117.5t122 50.5q62 0 102 -34.5t40 -86.5q0 -107 -164 -171q119 -126 232 -218q26 45 26 85q0 47 -20 71t-69 33v9q67 -3 88 -3q22 0 79 3v-8
q0 -45 -22.5 -104t-57.5 -106q84 -69 111.5 -85t75.5 -24v-8zM274 370q6 3 7 3q44 20 70.5 59t26.5 85q0 48 -24.5 78t-64.5 30q-38 0 -65.5 -27.5t-27.5 -66.5q0 -66 78 -161zM468 77l-142 127q-32 31 -112 117q-42 -20 -65 -55t-23 -78q0 -70 57 -121t137 -51q89 0 148 61
z" />
    <glyph glyph-name="quotesingle" unicode="'" horiz-adv-x="190" 
d="M113 399h-36l-21 268h78z" />
    <glyph glyph-name="parenleft" unicode="(" horiz-adv-x="347" 
d="M256 747h22q-57 -93 -82 -191.5t-25 -227.5q0 -141 25.5 -245.5t81.5 -195.5h-22q-160 208 -160 434q0 212 160 426z" />
    <glyph glyph-name="parenright" unicode=")" horiz-adv-x="347" 
d="M90 -113h-21q56 92 81.5 191t25.5 227q0 142 -25 246t-82 196h21q161 -209 161 -434q0 -212 -161 -426z" />
    <glyph glyph-name="asterisk" unicode="*" 
d="M110 538l23 71q15 -17 45 -34t59 -25q1 6 1 12q0 58 -25 105h74q-26 -48 -24 -117q28 7 58.5 24.5t45.5 34.5l23 -71q-22 3 -31 3q-46 0 -88 -16q16 -24 42 -48t46 -33l-60 -44q-2 23 -16.5 54.5t-32.5 54.5q-18 -22 -33 -54.5t-16 -54.5l-61 44q22 11 47.5 34t41.5 47
q-42 16 -90 16q-9 0 -29 -3z" />
    <glyph glyph-name="plus" unicode="+" 
d="M23 362h205v192h44v-192h205v-42h-205v-193h-44v193h-205v42z" />
    <glyph glyph-name="comma" unicode="," horiz-adv-x="220" 
d="M75 -117l-8 7q50 57 50 105v5q-13 -3 -18 -3q-20 0 -33.5 14t-13.5 35t14.5 35.5t34.5 14.5q25 0 39.5 -18t14.5 -50q0 -89 -80 -145z" />
    <glyph glyph-name="hyphen" unicode="-" horiz-adv-x="155" 
d="M10 363h141l-7 -47h-141z" />
    <glyph glyph-name="period" unicode="." horiz-adv-x="220" 
d="M110 93q21 0 35.5 -14.5t14.5 -35.5q0 -20 -15 -35t-35 -15t-35 15t-15 35t15 35t35 15z" />
    <glyph glyph-name="slash" unicode="/" horiz-adv-x="484" 
d="M347 700h43l-254 -733h-43z" />
    <glyph glyph-name="zero" unicode="0" horiz-adv-x="733" 
d="M366 647q130 0 218 -92q91 -94 91 -243q0 -139 -88.5 -232t-219.5 -93q-133 0 -220.5 94t-87.5 236q0 147 91 238q91 92 216 92zM367 625q-100 0 -152.5 -79t-52.5 -229t52.5 -229t152.5 -79q53 0 96.5 25t66.5 69q42 81 42 210q0 154 -52 233t-153 79z" />
    <glyph glyph-name="one" unicode="1" horiz-adv-x="733" 
d="M260 595v7q112 31 147 45v-251q0 -270 11 -324q9 -46 39 -59l28 -8v-7q-60 4 -132 4q-59 0 -104 -4v7q42 8 56 28q21 31 24 172q1 57 1 191v69q0 75 -12.5 99t-57.5 31z" />
    <glyph glyph-name="two" unicode="2" horiz-adv-x="733" 
d="M608 155l-47 -155h-476q11 68 68 130t148 105q108 56 137 88q52 54 52 135q0 74 -45 120.5t-117 46.5q-59 0 -112 -32t-81 -86l-7 -1l-25 87q125 54 227 54q119 0 191 -54.5t72 -145.5q0 -86 -66 -141q-30 -26 -55 -37.5t-129 -47.5q-71 -23 -117 -59.5t-56 -77.5h200
q108 0 153 14t78 58z" />
    <glyph glyph-name="three" unicode="3" horiz-adv-x="733" 
d="M68 62l38 103l6 -2q13 -68 77.5 -111t153.5 -43q80 0 130 38q29 22 46 55t17 68q0 68 -55 113.5t-137 45.5q-41 0 -71 -10v50q36 -16 77 -16q77 0 119.5 36t42.5 100q0 63 -42.5 99.5t-115.5 36.5q-86 0 -142 -48q-24 -20 -54 -67l-7 -2l-23 90q39 22 99.5 35.5
t118.5 13.5q121 0 195 -42.5t74 -111.5q0 -71 -70 -113q-39 -24 -124 -40q99 -20 141 -47q77 -47 77 -124q0 -82 -79.5 -132t-210.5 -50q-147 0 -281 75z" />
    <glyph glyph-name="four" unicode="4" horiz-adv-x="733" 
d="M666 285l-40 -125q-43 3 -149 5v-29q0 -74 13.5 -96.5t65.5 -34.5v-7q-63 4 -137 4q-60 0 -107 -4v7q46 8 62 35t16 96v29h-349l15 45l399 444l17 -4q1 -49 2.5 -157.5t2.5 -162.5v-16v-8v-75v-19q73 0 113.5 16.5t68.5 57.5zM390 212l1 329l-283 -329h282z" />
    <glyph glyph-name="five" unicode="5" horiz-adv-x="733" 
d="M616 653l-30 -95h-328q-50 0 -65.5 -14t-19.5 -63l-10 -141q109 36 199 36q130 0 213 -54t83 -137q0 -45 -26 -87.5t-69 -66.5q-79 -44 -201 -44q-146 0 -287 62l38 111l8 -4q18 -49 48 -78q74 -69 193 -69q86 0 139.5 46.5t53.5 122.5q0 80 -56.5 128t-151.5 48
q-101 0 -215 -54l25 333h335h53q26 0 36 3.5t27 19.5z" />
    <glyph glyph-name="six" unicode="6" horiz-adv-x="733" 
d="M645 580l-35 -95l-7 2q-18 64 -71.5 101t-129.5 37q-151 0 -206 -152q-26 -75 -26 -153q0 -17 1 -30q32 57 62 82q60 49 157 49q118 0 196 -61t78 -153q0 -95 -78 -158t-197 -63q-150 0 -237 96q-82 91 -82 225q0 129 81 227q93 113 249 113q137 0 245 -67zM373 396
q-84 0 -138 -55t-54 -140q0 -87 54.5 -140t143.5 -53q92 0 138 60q43 56 43 134q0 86 -52 140t-135 54z" />
    <glyph glyph-name="seven" unicode="7" horiz-adv-x="733" 
d="M81 490l43 143h529q-2 -32 -20.5 -62t-89.5 -115l-36 -42q-146 -169 -146 -353q0 -24 4 -61h-130q-1 6 -1 11q0 87 68 205q47 82 159 192l37 35q30 29 52 59.5t24 47.5h-303q-85 0 -119.5 -12t-62.5 -50z" />
    <glyph glyph-name="eight" unicode="8" horiz-adv-x="733" 
d="M443 361q72 -21 119 -41q102 -44 102 -139q0 -88 -82 -141t-217 -53q-130 0 -212.5 49t-82.5 127q0 56 46.5 95t146.5 68q-149 47 -149 154q0 77 70 122t191 45q108 0 174.5 -39t66.5 -102q0 -35 -20.5 -65t-57.5 -49q-36 -19 -95 -31zM321 392l72 -20q59 9 92 33
q54 38 54 98q0 56 -45.5 89t-124.5 33q-77 0 -125 -31.5t-48 -83.5q0 -39 33.5 -70.5t91.5 -47.5zM407 288l-97 26q-68 -7 -110 -47.5t-42 -99.5q0 -37 20.5 -72t55.5 -55q54 -31 140 -31q87 0 136 34q29 19 46 48.5t17 60.5q0 47 -39.5 79t-126.5 57z" />
    <glyph glyph-name="nine" unicode="9" horiz-adv-x="733" 
d="M110 40l31 108l8 -2q16 -61 73 -99t131 -38q126 0 177 107q36 79 36 168q0 22 -1 39q-31 -59 -62 -85q-59 -51 -157 -51q-116 0 -195 65.5t-79 161.5q0 100 82 166.5t204 66.5q152 0 238 -109q66 -82 66 -210q0 -155 -90 -249q-88 -92 -233 -92q-60 0 -127.5 15.5
t-101.5 37.5zM357 625q-83 0 -132.5 -54t-49.5 -146q0 -96 53 -154.5t141 -58.5q81 0 132.5 56t51.5 144q0 97 -53.5 155t-142.5 58z" />
    <glyph glyph-name="colon" unicode=":" horiz-adv-x="220" 
d="M110 93q21 0 35.5 -14.5t14.5 -35.5q0 -20 -15 -35t-35 -15t-35 15t-15 35t15 35t35 15zM110 533q21 0 35.5 -14.5t14.5 -35.5q0 -20 -15 -35t-35 -15t-35 15t-15 35t15 35t35 15z" />
    <glyph glyph-name="semicolon" unicode=";" horiz-adv-x="220" 
d="M78 -117l-8 7q50 57 50 105v5q-14 -3 -18 -3q-20 0 -33.5 14t-13.5 35t14.5 35.5t34.5 14.5q25 0 39.5 -18t14.5 -50q0 -89 -80 -145zM114 533q21 0 35.5 -14.5t14.5 -35.5q0 -20 -15 -35t-35 -15t-35 15t-15 35t15 35t35 15z" />
    <glyph glyph-name="less" unicode="&#x3c;" 
d="M457 612v-37l-313 -204l313 -209v-99l-414 277v6z" />
    <glyph glyph-name="equal" unicode="=" 
d="M23 432h454v-41h-454v41zM23 291h454v-41h-454v41z" />
    <glyph glyph-name="greater" unicode="&#x3e;" 
d="M43 63v38l313 204l-313 209v98l414 -276v-6z" />
    <glyph glyph-name="question" unicode="?" horiz-adv-x="567" 
d="M71 525l-29 106q106 44 211 44q104 0 174.5 -52.5t70.5 -129.5q0 -60 -44 -113q-20 -25 -84 -79q-58 -48 -80.5 -87t-22.5 -89h-23q2 49 20.5 95.5t68.5 126.5q32 51 39 67q23 49 23 96q0 65 -37.5 104t-98.5 39q-40 0 -78.5 -16t-63.5 -44q-23 -25 -38 -65zM259 93
q21 0 35.5 -14.5t14.5 -36.5q0 -20 -15 -34.5t-35 -14.5t-35 15t-15 35t15 35t35 15z" />
    <glyph glyph-name="at" unicode="@" horiz-adv-x="774" 
d="M596 106l26 -12q-74 -60 -131 -84.5t-124 -24.5q-133 0 -226 95.5t-93 232.5q0 89 45.5 173.5t121.5 135.5q94 62 218 62q131 0 211 -73t80 -192q0 -108 -62.5 -194.5t-139.5 -86.5q-29 0 -47 24t-18 63v13q-66 -102 -138 -102q-41 0 -65.5 34.5t-24.5 91.5
q0 94 61.5 178t130.5 84q54 0 89 -55l7 43q24 1 50 8l-56 -234q-11 -42 -11 -69q0 -48 36 -48q42 0 87 54q68 80 68 190q0 107 -70.5 173.5t-183.5 66.5q-74 0 -140.5 -28.5t-112.5 -79.5q-38 -43 -65.5 -115t-27.5 -130q0 -59 29 -119t76 -99q78 -65 180 -65q81 0 151 42
q14 9 69 47zM476 368l15 49q2 8 2 10q0 32 -16.5 51.5t-42.5 19.5q-58 0 -105 -84q-51 -89 -51 -173q0 -34 15.5 -55t40.5 -21q45 0 85 58q43 61 53 126q4 18 4 19z" />
    <glyph glyph-name="A" unicode="A" horiz-adv-x="830" 
d="M513 319h-262l-37 -72q-44 -87 -58 -122t-14 -58q0 -42 55 -62v-7q-47 4 -104 4q-47 0 -83 -4v7q43 26 81 82t125 219l202 381l187 -368q90 -167 118 -218q26 -43 44.5 -62t48.5 -34v-7q-57 4 -125 4q-56 0 -99 -4v7q39 11 39 43q0 36 -39 114zM502 341l-117 227
l-122 -227h239z" />
    <glyph glyph-name="B" unicode="B" horiz-adv-x="828" 
d="M70 667h254q205 0 279 -28q104 -42 104 -130q0 -77 -81 -120q-38 -20 -132 -35q107 -11 155 -31q56 -23 87.5 -62t31.5 -85t-33 -85t-91 -63q-74 -30 -215 -30q-15 0 -127 2q-11 1 -50 1q-31 0 -46 1h-34q-84 0 -122 -4v7q58 14 69 73q11 63 11 315v117q0 85 -11.5 113.5
t-48.5 36.5v7zM213 363h133q81 0 127 9.5t78 33.5q46 35 46 101q0 83 -63 113q-54 25 -199 25h-122v-282zM213 341v-89q3 -159 4 -166q4 -54 58 -61q35 -5 128 -5q130 0 181 30q34 19 54 53t20 72q0 40 -21 75t-56 55q-34 20 -89.5 28t-158.5 8h-120z" />
    <glyph glyph-name="C" unicode="C" horiz-adv-x="813" 
d="M749 593l-36 -96l-7 2q-22 76 -90.5 119.5t-165.5 43.5q-128 0 -205 -90t-77 -238q0 -147 82.5 -238t216.5 -91q111 0 193 69q37 30 61 83l7 2l21 -86q-119 -90 -285 -90q-161 0 -277 86q-60 44 -94.5 115t-34.5 149q0 138 98 238q111 113 298 113q88 0 165.5 -24
t129.5 -67z" />
    <glyph glyph-name="D" unicode="D" horiz-adv-x="848" 
d="M67 667h328q101 0 166.5 -20.5t121.5 -69.5q106 -95 106 -237q0 -82 -36.5 -155t-100.5 -118q-53 -38 -118 -53.5t-172 -15.5q-42 0 -124 2q-22 2 -91 2q-11 0 -56 -2q-16 0 -29 1q-10 0 -12 -3v7q52 14 63 73q10 57 10 316v116q0 84 -11 113t-45 37v7zM206 645v-211
q0 -334 19 -376q10 -22 41 -30.5t103 -8.5q157 0 229 67q81 76 81 253q0 161 -83 243q-35 34 -83 48.5t-126 14.5h-181z" />
    <glyph glyph-name="E" unicode="E" horiz-adv-x="795" 
d="M70 667h579l36 -132l-7 -3q-53 64 -119 88.5t-187 24.5h-166v-284h140q124 0 171.5 16.5t65.5 65.5h7v-184h-7q-15 48 -62.5 64t-177.5 16h-137v-70q0 -116 6 -166.5t22 -63.5q13 -10 36 -13.5t81 -3.5q160 0 247 28t137 96l6 -3l-45 -143h-532q-60 0 -114 -2v7
q28 7 42.5 24.5t20.5 48.5q10 57 10 316v116q0 83 -10.5 112t-42.5 38v7z" />
    <glyph glyph-name="F" unicode="F" horiz-adv-x="709" 
d="M682 528l-7 -3q-46 67 -126.5 93.5t-241.5 26.5h-108v-287h129q149 0 193 22q37 20 51 62h7v-189h-7q-13 27 -24 39t-31 21q-52 23 -185 23h-133v-35q0 -203 22 -255q15 -31 56 -41v-7q-61 4 -136 4q-57 0 -98 -4v7q52 14 63 73q10 57 10 315v117q0 82 -10.5 111
t-42.5 39v7h580z" />
    <glyph glyph-name="G" unicode="G" horiz-adv-x="826" 
d="M740 598l-35 -104l-6 3q-20 73 -91.5 119t-164.5 46q-129 0 -203.5 -88t-74.5 -240q0 -150 75 -235q83 -94 221 -94q57 0 105.5 19t65.5 48q13 22 13 76v62q0 42 -10 64t-34 34q-21 10 -75 22v7q54 -3 126 -3q65 0 147 2v-6q-43 -14 -51 -31.5t-8 -95.5v-128
q-122 -92 -286 -92q-170 0 -284.5 99.5t-114.5 247.5q0 155 111 254.5t283 99.5q78 0 159.5 -24t131.5 -62z" />
    <glyph glyph-name="H" unicode="H" horiz-adv-x="843" 
d="M647 338h-451v-37q0 -176 9.5 -230.5t41.5 -65.5v-7q-48 4 -109 4q-51 0 -88 -4v7q24 8 35 18t18.5 55.5t8.5 108.5t1 206v123q0 81 -8.5 109t-34.5 37v7q36 -4 76 -4q44 0 91 4v-7q-25 -9 -33 -37t-8 -109v-156h451v156q0 81 -8.5 109t-34.5 37v7q36 -4 76 -4q44 0 93 4
v-7q-26 -9 -34.5 -37t-8.5 -109v-123q0 -142 1 -205t8.5 -109t18.5 -56.5t35 -17.5v-7q-51 4 -111 4q-51 0 -88 -4v7q29 10 38 41q15 51 15 255v37z" />
    <glyph glyph-name="I" unicode="I" horiz-adv-x="308" 
d="M258 5v-7q-53 4 -116 4q-52 0 -92 -4v7q24 8 35 18.5t18.5 56t8.5 109t1 206.5v122q0 80 -8.5 108t-34.5 37v7q35 -4 76 -4q48 0 93 4v-7q-26 -9 -34.5 -37t-8.5 -108v-122q0 -143 1 -207t8.5 -110t18 -56t34.5 -17z" />
    <glyph glyph-name="J" unicode="J" horiz-adv-x="482" 
d="M27 11l33 100l6 -2q18 -44 47 -68t64 -24q60 0 86 67t26 293v140q0 81 -9.5 108.5t-40.5 36.5v7q37 -4 81 -4q50 0 102 4v-7q-31 -9 -40.5 -37t-9.5 -108v-108q0 -16 2 -76v-39q0 -80 -10 -121.5t-39 -83.5q-35 -48 -88 -77t-108 -29q-58 0 -102 28z" />
    <glyph glyph-name="K" unicode="K" horiz-adv-x="778" 
d="M574 -2l-98 147q-61 91 -85 120.5t-51 48.5q-37 26 -75 26q-36 0 -52.5 -20.5t-16.5 -66.5v-18q0 -159 18 -198q12 -25 46 -32v-7q-55 4 -121 4q-52 0 -89 -4v7q24 8 35 18t18.5 56t8.5 109.5t1 206.5v122q0 81 -9.5 108.5t-40.5 36.5v7q37 -4 81 -4q49 0 92 4v-7
q-25 -9 -32.5 -37t-7.5 -108v-172l139 112q118 94 148.5 123t30.5 48q0 23 -26 34v7q40 -4 89 -4q55 0 110 4v-7q-57 -21 -115 -59.5t-203 -153.5l-107 -83q120 -5 170 -33t114 -125q83 -118 120.5 -154t90.5 -49v-7q-47 4 -102 4q-46 0 -81 -4z" />
    <glyph glyph-name="L" unicode="L" horiz-adv-x="732" 
d="M715 139l-41 -139h-508q-60 0 -116 -2v7q59 14 70 73q12 61 12 317v122q0 81 -11 108.5t-46 36.5v7q41 -4 87 -4q53 0 110 4v-7q-35 -9 -46 -37t-11 -108v-130q3 -220 5 -260t11 -62q11 -24 39 -33.5t90 -9.5q182 0 273 55q36 23 76 65z" />
    <glyph glyph-name="M" unicode="M" horiz-adv-x="935" 
d="M476 126l263 543q29 -4 60 -4q29 0 69 4v-7q-31 -9 -41 -37t-10 -108v-215q0 -204 19 -256q11 -29 49 -41v-7q-56 4 -122 4q-53 0 -96 -4v7q36 10 48 41q19 48 19 256v290l-297 -612l-291 619v-276q0 -142 3.5 -191t15.5 -74q15 -35 57 -53v-7q-45 4 -100 4q-44 0 -79 -4
v7q38 16 54 48q16 34 20 129q4 116 4 234v101q0 89 -18 116q-7 11 -14 16t-28 13v7q33 -4 72 -4q41 0 77 4z" />
    <glyph glyph-name="N" unicode="N" horiz-adv-x="843" 
d="M720 -27l-564 620v-230q0 -114 2.5 -175.5t12.5 -103t25 -56.5t43 -23v-7q-76 4 -105 4q-40 0 -91 -4v7q40 9 57 37q20 32 25.5 91.5t5.5 229.5v154q0 77 -13 103.5t-57 41.5v7q39 -4 83 -4q43 0 82 4l469 -523v208q0 139 -10 212q-8 55 -40 78q-9 7 -35 18v7
q39 -4 84 -4q52 0 105 4v-7q-21 -8 -32 -13.5t-21.5 -22t-14.5 -32.5t-7 -57.5t-3.5 -83.5t-0.5 -123v-357z" />
    <glyph glyph-name="O" unicode="O" horiz-adv-x="884" 
d="M441 684q167 0 276 -100.5t109 -254.5q0 -147 -110.5 -246.5t-273.5 -99.5q-164 0 -274 100t-110 251q0 149 110 249.5t273 100.5zM441 662q-127 0 -203 -93q-70 -83 -70 -236q0 -150 70 -236q75 -92 204 -92q127 0 200.5 87t73.5 237q0 157 -70 240q-76 93 -205 93z" />
    <glyph glyph-name="P" unicode="P" horiz-adv-x="749" 
d="M210 314v-12q0 -204 25 -256q16 -31 63 -41v-7q-67 4 -146 4q-58 0 -102 -4v7q56 14 66 73q11 56 11 316v116q0 84 -10 112.5t-43 37.5v7h321q144 0 229.5 -47t85.5 -127q0 -49 -35 -87.5t-100 -61.5q-92 -34 -258 -34q-35 0 -107 4zM210 645v-302q54 -11 126 -11
q130 0 197 42t67 122q0 49 -26.5 84t-75.5 48q-58 17 -182 17h-106z" />
    <glyph glyph-name="Q" unicode="Q" horiz-adv-x="893" 
d="M282 -118l-6 29q69 45 146 73q-118 7 -202 59q-76 47 -119 124.5t-43 166.5q0 150 110 250t274 100t274 -100t110 -250q0 -144 -99.5 -241.5t-257.5 -108.5q38 -10 186 -67q106 -40 136 -40q22 0 49 17l8 -12q-54 -37 -130 -75q-67 23 -240 105q-57 28 -91 28
q-44 0 -105 -58zM441 662q-127 0 -203 -93q-70 -83 -70 -236q0 -150 70 -236q75 -92 204 -92q127 0 200.5 87t73.5 237q0 157 -70 240q-76 93 -205 93z" />
    <glyph glyph-name="R" unicode="R" horiz-adv-x="834" 
d="M206 339v-38q0 -207 19 -255q11 -31 47 -41v-7q-56 4 -125 4q-56 0 -97 -4v7q52 14 63 73q10 57 10 315v124q0 81 -10 108.5t-43 36.5v5h292q129 0 195 -12t102 -41q55 -44 55 -106q0 -44 -26.5 -81t-73.5 -57q-45 -18 -135 -25q94 -25 136 -63.5t75 -130.5
q31 -84 51.5 -113t51.5 -33v-7q-36 4 -81 4q-37 0 -65 -4q-20 35 -61 159q-25 77 -55 117.5t-71 52.5q-36 12 -135 12h-119zM206 361h140q88 0 131.5 8.5t76.5 31.5q50 37 50 109q0 37 -15.5 66t-41.5 43q-51 26 -182 26h-159v-284z" />
    <glyph glyph-name="S" unicode="S" horiz-adv-x="771" 
d="M708 611l-41 -104l-7 3q-2 64 -78 108t-183 44q-77 0 -125 -36q-53 -42 -53 -100q0 -51 40 -81t133 -50l78 -16q139 -30 190 -71q23 -18 37 -48.5t14 -62.5q0 -91 -84 -152.5t-207 -61.5q-186 0 -359 88l46 116l6 -3q6 -59 47 -96q44 -38 112 -60.5t141 -22.5
q91 0 149 42.5t58 109.5q0 64 -53 93q-33 18 -118 39l-91 22q-124 30 -176 70q-49 38 -49 106q0 86 75 141.5t190 55.5q150 0 308 -73z" />
    <glyph glyph-name="T" unicode="T" horiz-adv-x="773" 
d="M265 -2v7q58 14 69 73q11 63 11 319v121q0 92 -9 108q-12 19 -61 19q-79 0 -133 -24t-105 -82h-7l43 128h627l43 -128h-7q-50 57 -105 81.5t-133 24.5q-49 0 -61 -19q-9 -16 -9 -108v-121q0 -256 11 -319q11 -59 69 -73v-7q-45 4 -122 4q-76 0 -121 -4z" />
    <glyph glyph-name="U" unicode="U" horiz-adv-x="802" 
d="M40 662v7q39 -4 82 -4q51 0 111 4v-7q-37 -9 -48.5 -37t-11.5 -108v-189q0 -94 9.5 -144.5t34.5 -88.5q57 -87 198 -87q150 0 205 85q47 71 47 229v95q0 148 -24 198q-15 32 -58 47v7q37 -4 80 -4q49 0 100 4v-7q-35 -8 -50 -32q-16 -25 -19.5 -62t-3.5 -165v-94
q0 -167 -57 -240q-69 -86 -235 -86q-86 0 -156 22t-104 59q-30 31 -42 76.5t-12 123.5l1 62q3 51 3 62v129q0 81 -9.5 108.5t-40.5 36.5z" />
    <glyph glyph-name="V" unicode="V" horiz-adv-x="808" 
d="M440 115l70 132q52 102 122 254q30 67 30 100q0 25 -12 38t-45 23v7q37 -4 83 -4q51 0 103 4v-7q-35 -19 -67 -68t-113 -209l-208 -405l-178 353l-108 210q-31 60 -50 82t-52 37v7q43 -4 92 -4q56 0 113 4v-7q-37 -13 -37 -47q0 -25 51.5 -125.5t205.5 -374.5z" />
    <glyph glyph-name="W" unicode="W" horiz-adv-x="1096" 
d="M752 -30l-204 553l-200 -553l-163 392q-82 204 -104 243.5t-63 56.5v7q44 -4 95 -4q58 0 117 4v-7q-27 -11 -36 -22.5t-9 -33.5q0 -34 66 -184l126 -289l200 547l212 -547l74 194q81 208 81 271q0 48 -54 64v7q39 -4 84 -4q52 0 105 4v-7q-41 -22 -70 -66.5t-69 -146.5
q-4 -12 -58 -147z" />
    <glyph glyph-name="X" unicode="X" horiz-adv-x="725" 
d="M338 302l-33 -42q-130 -160 -130 -212q0 -16 7 -24.5t29 -18.5v-7q-49 4 -109 4q-48 0 -85 -4v7q37 16 62.5 39.5t99.5 110.5l145 169l-151 198q-51 72 -73 96t-54 44v7q43 -4 92 -4q56 0 113 4v-7q-19 -5 -26.5 -14t-7.5 -26q0 -20 17.5 -48.5t74.5 -103.5l67 -85l60 71
q29 36 74 100q23 33 23 60q0 37 -36 46v7q37 -4 82 -4q50 0 102 4v-7q-33 -10 -75 -51t-132 -149l-82 -98l96 -122q94 -121 140.5 -169.5t86.5 -67.5v-7q-59 4 -130 4q-59 0 -103 -4v7q28 11 28 34q0 28 -78 135z" />
    <glyph glyph-name="Y" unicode="Y" horiz-adv-x="760" 
d="M412 299v-151q0 -82 12 -109t51 -34v-7q-55 4 -120 4q-53 0 -93 -4v7q37 7 48.5 30.5t11.5 92.5v158l-164 213q-5 6 -24 31t-28 38q-38 50 -58.5 68.5t-48.5 25.5v7q48 -4 104 -4q66 0 130 4v-7q-44 -15 -44 -49q0 -25 27 -64q30 -43 59 -79l121 -146l78 90
q74 86 107 141q18 30 18 56q0 21 -8 30.5t-34 20.5v7q39 -4 84 -4q53 0 106 4v-7q-32 -13 -75.5 -56.5t-139.5 -161.5z" />
    <glyph glyph-name="Z" unicode="Z" horiz-adv-x="711" 
d="M651 141l-47 -141h-564l252 337q131 177 161.5 221t30.5 59q0 28 -58 28h-39q-131 0 -206 -26t-115 -84l-6 3l42 129h527l-233 -322q-71 -97 -162 -240q-21 -33 -21 -48q0 -20 20 -27.5t76 -7.5h31q208 0 305 121z" />
    <glyph glyph-name="bracketleft" unicode="[" horiz-adv-x="307" 
d="M237 746v-18q-39 -7 -56.5 -38.5t-17.5 -92.5v-561q0 -61 17.5 -92t56.5 -39v-18q-54 -1 -97 40q-26 25 -35.5 55.5t-9.5 86.5v495q0 87 30 126q19 25 47.5 41t54.5 16q5 0 10 -1z" />
    <glyph glyph-name="backslash" unicode="\" horiz-adv-x="484" 
d="M136 700l254 -733h-43l-254 733h43z" />
    <glyph glyph-name="bracketright" unicode="]" horiz-adv-x="307" 
d="M70 -113v18q39 8 56.5 39t17.5 92v561q0 61 -17.5 92.5t-56.5 38.5v18q5 1 10 1q26 0 54.5 -16t47.5 -41q30 -39 30 -126v-495q0 -86 -30 -125q-41 -54 -102 -57h-10z" />
    <glyph glyph-name="asciicircum" unicode="^" 
d="M525 286h-37l-204 313l-209 -313h-99l276 414h7z" />
    <glyph glyph-name="underscore" unicode="_" 
d="M23 -88h454v-42h-454v42z" />
    <glyph glyph-name="grave" unicode="`" 
d="M341 601l-128 76q-53 31 -53 53q0 13 8.5 21t22.5 8q17 0 42 -24l140 -134h-32z" />
    <glyph glyph-name="a" unicode="a" horiz-adv-x="642" 
d="M610 0h-102q-12 33 -23 102q-63 -115 -197 -115q-102 0 -169 46t-67 116q0 95 116 141q99 38 255 38h54v30q0 173 -171 173q-75 0 -126 -34.5t-68 -96.5l-6 -2l-30 100q130 55 241 55q123 0 184 -55q53 -47 53 -178v-147q0 -84 12.5 -120.5t43.5 -47.5v-5zM477 306h-56
q-272 0 -272 -158q0 -62 41.5 -100.5t108.5 -38.5q54 0 98 26t62 69q13 32 15.5 56t2.5 119v27z" />
    <glyph glyph-name="b" unicode="b" horiz-adv-x="726" 
d="M127 0h-94v5q16 6 24 16t15 31q13 44 17 119q1 31 6 241v14q0 200 -8 246q-6 36 -48 40v7q60 8 129 36q-3 -117 -3 -230v-107q74 135 220 135q124 0 206.5 -80.5t82.5 -200.5q0 -113 -71 -193q-81 -92 -221 -92q-138 0 -223 110q-4 -26 -32 -97zM377 532q-93 0 -154 -75
q-58 -72 -58 -196q0 -111 43 -171q26 -37 71.5 -59.5t95.5 -22.5q91 0 146.5 72.5t55.5 190.5q0 119 -54.5 190t-145.5 71z" />
    <glyph glyph-name="c" unicode="c" horiz-adv-x="621" 
d="M591 487l-32 -95l-6 2q-19 49 -44 76q-26 28 -69.5 44.5t-88.5 16.5q-94 0 -148 -68.5t-54 -188.5q0 -121 58 -190t159 -69q69 0 117 31t94 104l14 -25q-76 -138 -240 -138q-126 0 -212.5 82t-86.5 201q0 56 23.5 111t64.5 94q83 78 213 78q120 0 238 -66z" />
    <glyph glyph-name="d" unicode="d" horiz-adv-x="727" 
d="M693 0h-107q-13 31 -27 116q-44 -69 -94.5 -99t-123.5 -30q-125 0 -207.5 79.5t-82.5 200.5q0 124 84 205t213 81q130 0 211 -96v39q0 166 -10 188q-9 23 -47 26v6q76 14 132 39q-4 -85 -4 -228v-131q0 -205 13 -318q9 -59 50 -73v-5zM353 531q-99 0 -152 -68.5
t-53 -195.5q0 -102 40 -166q58 -92 165 -92q48 0 90.5 21t67.5 57q46 68 46 183q0 129 -51.5 195t-152.5 66z" />
    <glyph glyph-name="e" unicode="e" horiz-adv-x="667" 
d="M616 340h-462q-5 -25 -5 -61q0 -93 36 -162q25 -49 71.5 -76t107.5 -27q88 0 150.5 52t90.5 149l19 -17q-24 -98 -99 -155t-178 -57q-128 0 -211.5 81t-83.5 205q0 117 85 199t207 82q103 0 181.5 -61.5t90.5 -151.5zM159 361h354q0 77 -46 124t-122 47q-151 0 -186 -171
z" />
    <glyph glyph-name="f" unicode="f" horiz-adv-x="342" 
d="M367 757l-31 -86l-6 2q-29 38 -60 38q-30 0 -48 -33t-18 -88v-50h101l-9 -28h-92v-117q0 -260 9 -318.5t52 -71.5v-7q-49 4 -112 4q-50 0 -89 -4v7q46 14 54 73q9 60 9 317v117h-94l11 28h83v5q0 97 57 147q34 30 79 48t85 18q9 0 19 -1z" />
    <glyph glyph-name="g" unicode="g" horiz-adv-x="694" 
d="M668 629l-34 -95q-19 22 -35.5 30t-42.5 8q-53 0 -84 -38q143 -62 143 -175q0 -76 -65.5 -130t-166.5 -61q-20 -1 -95 -1q-60 0 -60 -25q0 -16 20.5 -24.5t70.5 -13.5q186 -16 256 -39q42 -14 66 -41.5t24 -62.5q0 -43 -28 -77t-80 -54q-92 -37 -212 -37
q-129 0 -213.5 39.5t-84.5 99.5q0 50 57 84q34 19 111 36q-40 10 -56.5 22.5t-16.5 32.5q0 26 28 45.5t78 28.5q-54 24 -89 48q-73 51 -73 130q0 44 25 84.5t68 67.5q68 42 164 42q54 0 102 -12q77 90 194 90q3 0 29 -2zM351 531q-82 0 -128 -44.5t-46 -124.5
q0 -84 45 -128.5t130 -44.5q83 0 128.5 44.5t45.5 124.5q0 83 -45 128t-130 45zM319 39q-93 0 -139 -26q-23 -12 -37.5 -35.5t-14.5 -47.5q0 -55 59.5 -85.5t166.5 -30.5t172 32t65 85q0 44 -51 72q-29 16 -91.5 26t-129.5 10z" />
    <glyph glyph-name="h" unicode="h" horiz-adv-x="697" 
d="M157 525v-125q27 63 64 98q66 55 158 55q54 0 101 -18.5t74 -50.5q49 -56 49 -183v-122q0 -101 14 -139q11 -30 46 -35v-7q-55 4 -110 4q-47 0 -87 -4v7q35 6 47.5 43t12.5 131v122q0 120 -50 173q-47 47 -120 47q-89 0 -139 -63t-50 -176v-103q0 -101 14 -139
q11 -30 45 -35v-7q-49 4 -109 4q-50 0 -87 -4v7q35 6 47.5 43t12.5 131v247q0 193 -8 237q-6 36 -46 39v7q61 15 125 46q-4 -99 -4 -230z" />
    <glyph glyph-name="i" unicode="i" horiz-adv-x="259" 
d="M47 501v6q94 17 128 33v-10v-66v-54v-231q0 -101 13 -138q12 -31 43 -36v-7q-52 4 -108 4q-46 0 -85 -4v7q33 6 46.5 45.5t13.5 128.5v32q0 213 -6 249t-45 41zM128 720q21 0 36 -15t15 -37q0 -20 -15 -35t-36 -15t-36 15t-15 36t15 36t36 15z" />
    <glyph glyph-name="j" unicode="j" horiz-adv-x="289" 
d="M-50 -196l27 80l7 -1q25 -45 67 -45q25 0 39.5 14.5t23.5 58t12 111t3 183.5v6q0 207 -7 249q-6 36 -47 41v6q70 11 130 33q-4 -70 -4 -130v-127q0 -33 4 -147q1 -9 1 -32q0 -182 -85 -255q-58 -49 -141 -49q-17 0 -30 4zM164 720q21 0 36 -15t15 -37q0 -20 -15 -35
t-36 -15t-36 15t-15 36t15 36t36 15z" />
    <glyph glyph-name="k" unicode="k" horiz-adv-x="643" 
d="M618 0h-149q-21 25 -73 115q-51 89 -82 126q-47 56 -93 56q-54 0 -54 -85v-33q0 -101 15 -136q12 -29 52 -38v-7q-53 4 -117 4q-53 0 -94 -4v7q51 17 58 85q5 39 10.5 165t5.5 206v32q0 119 -4 157.5t-18 48.5q-13 8 -35 10v7q72 14 131 39q-4 -100 -4 -230v-223l91 68
q78 58 107 86t29 44q0 23 -30 30v5q74 -3 101 -3q13 0 113 3v-5q-74 -21 -112 -43t-172 -122l-61 -44h22q70 0 117 -38q23 -19 36 -35.5t66 -98.5q48 -73 76 -101t68 -43v-5z" />
    <glyph glyph-name="l" unicode="l" horiz-adv-x="257" 
d="M233 5v-7q-53 4 -118 4q-52 0 -92 -4v7q25 8 37.5 22t20.5 59t10 111t2 197v99q-1 57 -5 169q-1 28 -11.5 40t-36.5 14v6q67 11 127 33q-4 -100 -4 -230v-131q0 -242 13 -316q8 -59 57 -73z" />
    <glyph glyph-name="m" unicode="m" horiz-adv-x="1088" 
d="M162 410v-23q29 86 81.5 126.5t134.5 40.5q94 0 148 -52q31 -31 49 -99q29 78 80.5 114t132.5 36q106 0 161 -64q52 -57 52 -188v-122q0 -101 12 -139q9 -30 41 -35v-7q-48 4 -107 4q-48 0 -84 -4v7q31 6 42 42.5t11 131.5v139q0 97 -40.5 149.5t-115.5 52.5
q-89 0 -136 -76q-38 -62 -38 -170v-95q0 -103 13 -139q11 -30 43 -35v-7q-49 4 -105 4q-45 0 -81 -4v7q31 6 42 42.5t11 131.5v82q0 128 -26 184q-32 73 -130 73q-104 0 -147 -88q-33 -65 -33 -202v-49q0 -99 11 -139q9 -30 39 -35v-7q-43 4 -101 4q-46 0 -79 -4v7
q31 7 42 43.5t11 130.5v32q0 205 -7 243q-5 37 -43 40v7q50 10 121 39q-5 -60 -5 -130z" />
    <glyph glyph-name="n" unicode="n" horiz-adv-x="688" 
d="M655 5v-7q-51 4 -107 4q-45 0 -81 -4v7q31 6 42 42.5t11 131.5v92q0 133 -36 186q-44 63 -132 63q-86 0 -132.5 -70t-46.5 -200v-71q0 -101 12 -139q9 -30 40 -35v-7q-45 4 -101 4q-46 0 -81 -4v7q31 6 42 42.5t11 131.5v32q0 203 -7 243q-5 35 -43 40v7q59 12 121 39
q-4 -70 -4 -130v-17q33 86 83 123.5t132 37.5q59 0 107 -22t73 -59q22 -34 30.5 -81.5t8.5 -141.5v-71q0 -98 13 -139q11 -30 45 -35z" />
    <glyph glyph-name="o" unicode="o" horiz-adv-x="710" 
d="M355 553q134 0 223 -89q81 -80 81 -198q0 -116 -88.5 -197.5t-215.5 -81.5q-128 0 -215.5 81.5t-87.5 201.5q0 119 87.5 201t215.5 82zM355 531q-121 0 -169 -92q-37 -69 -37 -169t37 -169q48 -92 169 -92q122 0 170 92q37 72 37 166q0 104 -37 172q-48 92 -170 92z" />
    <glyph glyph-name="p" unicode="p" horiz-adv-x="712" 
d="M149 410v-15q44 85 97 121.5t132 36.5q118 0 200 -80.5t82 -196.5q0 -123 -81 -206t-201 -83q-122 0 -218 105v-120q0 -94 14.5 -131t54.5 -42v-7q-57 3 -121 3q-46 0 -85 -3v7q35 7 47.5 43.5t12.5 129.5v239q0 200 -8 246q-5 37 -45 40v7q39 7 124 36q-5 -63 -5 -130z
M367 532q-43 0 -87 -24t-74 -65q-44 -62 -44 -174q0 -125 48 -184q27 -35 71 -56t89 -21q48 0 90.5 23.5t64.5 62.5q38 67 38 180q0 123 -51 189q-25 31 -65 50t-80 19z" />
    <glyph glyph-name="q" unicode="q" horiz-adv-x="717" 
d="M558 -28v136q-41 -65 -91.5 -93t-124.5 -28q-127 0 -208.5 78.5t-81.5 201.5q0 99 66 180q88 106 222 106q124 0 218 -88q6 26 9 38q6 21 10 32h94v-5q-29 -22 -36.5 -54t-7.5 -135v-369q0 -100 15 -135q12 -28 52 -38v-7q-58 3 -114 3q-46 0 -89 -3v7q40 10 52 38
q15 35 15 135zM357 528q-50 0 -92.5 -22t-67.5 -61q-48 -75 -48 -183q0 -116 58 -185q25 -31 66.5 -49.5t84.5 -18.5q48 0 90.5 23t68.5 62q39 59 39 165q0 111 -26 166q-22 48 -69 75.5t-104 27.5z" />
    <glyph glyph-name="r" unicode="r" horiz-adv-x="416" 
d="M387 550l-37 -105q-25 29 -53 29q-52 0 -84 -58.5t-32 -153.5v-83q0 -101 14 -139q11 -29 47 -35v-7q-44 4 -107 4q-57 0 -97 -4v7q38 6 52 42.5t14 131.5v32q0 195 -7 249q-6 36 -46 41v6q72 11 131 33q-4 -89 -4 -130v-10q25 65 80.5 108t113.5 43q8 0 15 -1z" />
    <glyph glyph-name="s" unicode="s" horiz-adv-x="630" 
d="M558 504l-33 -94l-6 3q-12 52 -64.5 84.5t-123.5 32.5q-67 0 -109 -33t-42 -86q0 -42 30.5 -64t101.5 -32l74 -10q72 -10 103 -19.5t53 -30.5q38 -33 38 -87q0 -39 -24.5 -78.5t-63.5 -61.5q-71 -41 -182 -41q-134 0 -257 55l35 98l7 -2q7 -56 70.5 -92.5t153.5 -36.5
q80 0 130.5 33.5t50.5 87.5q0 46 -36 69q-33 20 -105 29l-84 11q-84 11 -129.5 49.5t-45.5 98.5q0 38 21.5 73t58.5 57q64 37 159 37q111 0 219 -50z" />
    <glyph glyph-name="t" unicode="t" horiz-adv-x="313" 
d="M187 674l-2 -157h106l-9 -28h-98l-2 -130q-1 -140 6 -211t23.5 -102.5t50.5 -38.5v-7h-114q-26 9 -35 35q-12 33 -12 99q0 46 5 264l2 91h-84l6 19q58 23 90 59.5t57 106.5h10z" />
    <glyph glyph-name="u" unicode="u" horiz-adv-x="645" 
d="M621 0h-89q-17 36 -33 106q-37 -63 -86 -91t-123 -28q-100 0 -157 49q-60 49 -60 166l3 120v23q0 107 -7 126t-46 23v7q71 11 133 39q-4 -56 -4 -130v-145q0 -120 28 -173q37 -72 134 -72q52 0 95 23.5t62 62.5q28 60 28 207v32q0 106 -7 125.5t-45 23.5v7q68 11 132 39
q-4 -56 -4 -130v-131q0 -155 8.5 -206.5t37.5 -65.5v-7z" />
    <glyph glyph-name="v" unicode="v" horiz-adv-x="652" 
d="M328 -13l-155 301q-60 116 -67 130q-32 62 -51.5 86t-46.5 31v7q59 -4 92 -4q23 0 104 4v-7q-22 -7 -29.5 -15t-7.5 -24q0 -27 44 -110l146 -287l110 217q60 120 60 156q0 46 -59 63v7q48 -4 83 -4q21 0 93 4v-7q-38 -20 -63.5 -57.5t-86.5 -161.5z" />
    <glyph glyph-name="w" unicode="w" horiz-adv-x="976" 
d="M678 -13l-191 443l-182 -443l-153 320q-88 177 -97 192q-16 26 -47 36v7q59 -4 92 -4q23 0 103 4v-7q-39 -13 -39 -45q0 -14 10.5 -38.5t71.5 -160.5l85 -176l181 452l198 -446l94 216q49 115 49 150q0 19 -13 30t-44 18v7q48 -4 81 -4q20 0 91 4v-7q-31 -11 -66 -65.5
t-86 -170.5z" />
    <glyph glyph-name="x" unicode="x" horiz-adv-x="627" 
d="M334 302l61 -74q108 -131 142 -167t68 -56v-7q-52 4 -114 4q-50 0 -89 -4v7q31 11 31 35q0 19 -57 94l-88 116l-31 -34q-108 -120 -108 -166q0 -30 29 -45v-7q-40 4 -90 4q-39 0 -70 -4v7q38 20 63.5 45t114.5 129l79 89l-76 97q-91 115 -111 136t-52 34v7q49 -4 85 -4
q21 0 96 4v-7q-25 -8 -25 -29q0 -27 74 -120l53 -65l38 44q86 97 86 138q0 21 -27 32v7q44 -4 75 -4q19 0 84 4v-7q-61 -26 -187 -170z" />
    <glyph glyph-name="y" unicode="y" horiz-adv-x="656" 
d="M77 -199l31 98l7 -2q20 -27 56 -27q43 0 85.5 43.5t42.5 87.5q0 48 -66 179l-71 141q-4 7 -28.5 51t-36.5 67q-26 48 -42.5 65.5t-46.5 30.5v7q60 -4 94 -4q23 0 106 4v-7l-7 -3q-33 -12 -33 -38q0 -17 40 -97l152 -296l80 161q66 134 77 160t11 52q0 48 -60 61v7
q49 -4 85 -4q20 0 95 4v-7q-37 -17 -66 -60.5t-108 -200.5l-112 -227q-63 -127 -103.5 -173t-106.5 -64q-42 -10 -62 -10q-7 0 -13 1z" />
    <glyph glyph-name="z" unicode="z" horiz-adv-x="628" 
d="M581 125l-39 -125h-495l328 421q8 10 48 59q12 15 12 22q0 10 -10 13t-41 3h-60q-90 0 -142.5 -21t-102.5 -78l-7 2l41 119h452l-227 -286l-65 -85q-37 -48 -40 -52q-45 -59 -45 -74q0 -13 14 -17t59 -4h41q120 0 185 35q38 20 88 71z" />
    <glyph glyph-name="braceleft" unicode="{" 
d="M104 312v15q57 3 78.5 21.5t21.5 64.5q0 27 -1 43q-1 39 -1 84q0 74 10 108.5t37 54.5q18 12 39.5 15t94.5 4q8 0 18 1v-22q-60 -1 -88.5 -15t-39.5 -48q-8 -30 -7 -67q-1 -79 -1 -152q-2 -83 -75 -98v-3q28 -4 47.5 -24t25.5 -50q3 -21 3 -93v-98q-2 -85 26 -114.5
t109 -28.5v-22q-107 2 -128 9q-72 23 -72 139q0 36 3 189q0 47 -22.5 66.5t-77.5 20.5z" />
    <glyph glyph-name="bar" unicode="|" 
d="M224 667h53v-834h-53v834z" />
    <glyph glyph-name="braceright" unicode="}" 
d="M396 327v-15q-57 -3 -78.5 -21t-21.5 -63l3 -193q0 -121 -80 -140q-18 -5 -120 -7v22q62 -1 91 15t39 56q5 25 5 59q0 104 1 163q-2 100 75 115v3q-54 11 -70 62q-5 21 -5 60l-1 148q-3 62 -32 86t-103 24v22q10 -1 18 -1h39q49 -1 73 -9t41 -29q16 -21 22 -51t6 -92
q0 -41 -1 -81q-1 -17 -1 -48q0 -45 22 -63.5t78 -21.5z" />
    <glyph glyph-name="asciitilde" unicode="~" horiz-adv-x="667" 
d="M530 734l14 -9q-24 -43 -62 -69.5t-74 -26.5q-21 0 -63 14q-87 29 -117 29q-26 0 -43 -11t-48 -47l-14 9q59 96 138 96q26 0 91 -22q54 -18 79 -18q54 0 99 55z" />
    <glyph glyph-name="exclamdown" unicode="&#xa1;" horiz-adv-x="220" 
d="M120 543v-18q0 -73 5 -122t27 -196q8 -59 8 -98q0 -52 -14 -84.5t-36 -32.5t-36 32.5t-14 85.5q0 40 25 210q15 102 15 206v17h20zM110 674q20 0 35 -15t15 -35t-15 -35t-35 -15q-21 0 -35.5 14.5t-14.5 35.5q0 20 15 35t35 15z" />
    <glyph glyph-name="cent" unicode="&#xa2;" horiz-adv-x="733" 
d="M596 508l-27 -81l-5 2q-15 41 -37 65q-23 23 -60 37.5t-75 14.5q-80 0 -126 -58.5t-46 -160.5q0 -103 49.5 -162t135.5 -59q59 0 100 26.5t79 88.5l12 -21q-58 -111 -187 -117v-82h-30v82q-104 5 -172.5 73.5t-68.5 166.5q0 64 32.5 120.5t87.5 87.5q50 27 121 33v81h30
v-81q95 -5 187 -56z" />
    <glyph glyph-name="sterling" unicode="&#xa3;" horiz-adv-x="733" 
d="M348 348h177l-11 -33h-155l5 -14q12 -38 12 -68q0 -41 -20 -81q35 -8 102 -45q76 -42 116 -42q50 0 84 44q12 15 37 58l15 -5q-22 -68 -73 -122q-48 -54 -103 -54q-64 0 -153 79q-31 29 -52 39q-99 -118 -226 -118q-79 0 -79 56q0 49 63 90t138 41q35 0 65 -6q1 7 1 14
q0 53 -21 126l-3 8h-101l10 33h81l-4 15q-15 47 -15 92q0 80 57.5 136t140.5 56q38 0 84.5 -15.5t81.5 -39.5l-32 -96l-8 2q-15 55 -57.5 88t-97.5 33q-49 0 -78 -29t-29 -78q0 -30 6.5 -53t39.5 -105zM283 128q-37 20 -80 20q-46 0 -76.5 -21t-30.5 -52q0 -23 19 -38
t49 -15q28 0 55 14t43 37q13 18 21 55z" />
    <glyph glyph-name="currency" unicode="&#xa4;" horiz-adv-x="667" 
d="M65 102l90 91q-53 75 -53 145q0 69 51 153l-91 91l29 29l91 -92q70 54 151 54q39 0 71.5 -12t77.5 -42l93 92l29 -28l-94 -94q29 -46 40 -77t11 -70q0 -40 -11 -70.5t-41 -75.5l94 -94l-29 -28l-93 92q-76 -53 -149 -53q-70 0 -147 52l-92 -92zM332 516q-71 0 -122 -51
t-51 -122t51 -122t122 -51t122 50t51 120q0 74 -50 125t-123 51z" />
    <glyph glyph-name="yen" unicode="&#xa5;" horiz-adv-x="753" 
d="M157 492l-13 17q-64 82 -95.5 111t-68.5 39v10q95 -4 154 -4q61 0 125 4v-10q-51 -7 -51 -43q0 -29 56 -99l20 -25h262q43 58 54.5 79.5t11.5 42.5q0 32 -49 45v10q71 -4 116 -4q50 0 94 4v-10q-47 -19 -91.5 -57.5t-100.5 -109.5h109v-33h-135l-122 -166h187v-33h-187
q0 -88 2 -130.5t10.5 -71.5t20.5 -37.5t37 -12.5v-10q-69 4 -126 4q-54 0 -131 -4v10q17 4 26 7.5t17.5 15t11.5 24t6 44t3.5 65t1.5 96.5h-179v33h180l-130 166h-120v33h94zM521 459h-211l109 -138z" />
    <glyph glyph-name="brokenbar" unicode="&#xa6;" 
d="M224 667h53v-334h-53v334zM224 153h53v-320h-53v320z" />
    <glyph glyph-name="section" unicode="&#xa7;" 
d="M444 680l-31 -58l-7 4q-38 100 -147 100q-57 0 -93 -32t-36 -82q0 -46 38 -75q18 -14 73 -32l83 -26q71 -23 104 -57t33 -84q0 -62 -54 -131q34 -34 34 -86q0 -77 -56.5 -129t-141.5 -52q-46 0 -104 14t-101 36l13 83l7 -1q23 -47 74 -75.5t113 -28.5q68 0 107 31t39 85
q0 38 -20.5 58.5t-77.5 39.5l-109 36q-73 24 -99 49q-44 41 -44 114t67 125q-27 40 -27 83q0 70 52 114t133 44q97 0 178 -67zM320 403l-82 27q-55 18 -75.5 28t-39.5 28q-43 -33 -43 -77q0 -41 23.5 -66.5t78.5 -44.5l103 -35q77 -27 103 -43q33 51 33 80q0 38 -24 64
q-18 19 -77 39z" />
    <glyph glyph-name="dieresis" unicode="&#xa8;" 
d="M149 732q22 0 37 -15.5t15 -37.5q0 -21 -15.5 -36t-36.5 -15t-36.5 15.5t-15.5 36.5q0 22 15 37t37 15zM352 732q22 0 37 -15.5t15 -37.5q0 -21 -15.5 -36t-36.5 -15t-36.5 15.5t-15.5 36.5q0 22 15 37t37 15z" />
    <glyph glyph-name="copyright" unicode="&#xa9;" horiz-adv-x="784" 
d="M592 477l-22 -58l-12 1q-13 46 -53 72.5t-98 26.5q-75 0 -120.5 -54.5t-45.5 -144.5q0 -89 48.5 -144t127.5 -55q51 0 90.5 24.5t59.5 67.5l13 2l12 -52q-72 -55 -176 -55q-109 0 -179.5 60t-70.5 152t69 152t175 60q114 0 182 -55zM397 678q140 0 240 -101.5t100 -243.5
t-101 -243t-243 -101t-243.5 101t-101.5 243q0 145 101.5 245t247.5 100zM397 648q-133 0 -224.5 -91.5t-91.5 -223.5q0 -130 91.5 -222t220.5 -92q128 0 219.5 92.5t91.5 222.5q0 128 -91 221t-216 93z" />
    <glyph glyph-name="ordfeminine" unicode="&#xaa;" horiz-adv-x="433" 
d="M395 284v-28h-357v28h357zM383 336h-66q-8 23 -12 53q-23 -33 -49 -47t-65 -14q-61 0 -101.5 28t-40.5 70q0 52 58 80.5t163 28.5h28v14q0 99 -96 99q-44 0 -73 -20t-38 -56l-8 -3l-20 64q81 34 145 34q72 0 110 -33q32 -29 32 -107v-86q0 -49 7 -69.5t26 -26.5v-9z
M298 516h-29q-157 0 -157 -91q0 -35 23.5 -56.5t61.5 -21.5q31 0 56 15t35 39q7 19 8.5 33t1.5 69v13z" />
    <glyph glyph-name="guillemotleft" unicode="&#xab;" horiz-adv-x="450" 
d="M345 456l8 -6q20 -15 40 -25q-77 -104 -103 -147q31 -51 97 -141q2 -4 8 -11q-19 -7 -49 -27q-39 69 -120 178q5 8 14.5 22t28 41.5t38.5 57.5q31 45 38 58zM176 456q2 -2 8 -6q20 -15 40 -25q-77 -104 -103 -147q28 -47 96 -141q2 -2 8 -11q-21 -8 -48 -27
q-39 69 -120 178q4 6 81 121q21 31 38 58z" />
    <glyph glyph-name="logicalnot" unicode="&#xac;" 
d="M373 0v227h-337v40h429v-267h-92z" />
    <glyph glyph-name="registered" unicode="&#xae;" horiz-adv-x="804" 
d="M521 151l-99 174h-75v-118q0 -22 6.5 -30t26.5 -8h17v-18h-155v18h15q20 0 26.5 7.5t6.5 30.5v253q0 23 -6.5 30.5t-26.5 7.5h-18v18h160q61 0 93 -15q55 -28 55 -86q0 -32 -16 -52.5t-53 -35.5l76 -132q15 -26 46 -26v-18h-79zM347 342h59q39 0 55 12q27 17 27 62
q0 37 -22 57.5t-61 20.5h-58v-152zM402 680q143 0 244.5 -101.5t101.5 -244.5q0 -145 -102 -246t-249 -101q-140 0 -241 102.5t-101 244.5q0 143 101.5 244.5t245.5 101.5zM402 649q-131 0 -223.5 -92t-92.5 -223q0 -130 92 -223t220 -93q133 0 226 92t93 224
q0 130 -92.5 222.5t-222.5 92.5z" />
    <glyph glyph-name="macron" unicode="&#xaf;" 
d="M67 662v32h367v-32h-367z" />
    <glyph glyph-name="degree" unicode="&#xb0;" horiz-adv-x="434" 
d="M214 641q42 0 71.5 -28t29.5 -67q0 -40 -29 -68t-70 -28q-40 0 -68.5 29t-28.5 69q0 39 27.5 66t67.5 27zM218 621q-34 0 -56.5 -21t-22.5 -53t23.5 -54.5t56.5 -22.5q31 0 53.5 22.5t22.5 53.5q0 30 -23 52.5t-54 22.5z" />
    <glyph glyph-name="plusminus" unicode="&#xb1;" 
d="M23 374h205v192h44v-192h205v-42h-205v-190h-44v190h-205v42zM23 98h454v-42h-454v42z" />
    <glyph glyph-name="twosuperior" unicode="&#xb2;" horiz-adv-x="449" 
d="M372 364l-30 -97h-287q5 41 40 80t90 65q61 32 79 51q30 32 30 77q0 43 -25.5 69.5t-66.5 26.5q-35 0 -65.5 -19t-46.5 -51l-8 -1l-16 57q74 33 138 33q71 0 114.5 -33t43.5 -88q0 -52 -40 -86q-18 -15 -33.5 -22t-76.5 -28q-80 -28 -98 -74l113 -1h14q52 0 77.5 9
t43.5 34z" />
    <glyph glyph-name="threesuperior" unicode="&#xb3;" horiz-adv-x="449" 
d="M44 306l25 66l8 -3q8 -41 44.5 -66t88.5 -25q48 0 79 26t31 66q0 39 -31 65t-78 26q-25 0 -45 -7v39q24 -11 49 -11q43 0 67 20t24 57q0 36 -24 56.5t-65 20.5q-39 0 -64 -15t-49 -53l-9 -2l-15 59q57 30 132 30q73 0 117.5 -26t44.5 -68q0 -69 -101 -90
q115 -25 115 -101q0 -50 -47.5 -80.5t-126.5 -30.5q-89 0 -170 47z" />
    <glyph glyph-name="acute" unicode="&#xb4;" 
d="M159 601h-32l140 134q25 24 42 24q14 0 22.5 -8t8.5 -21q0 -12 -11.5 -23t-42.5 -30z" />
    <glyph glyph-name="mu" unicode="&#xb5;" horiz-adv-x="444" 
d="M454 51v-15l-81 -46q-1 -1 -4 -1q-11 0 -26 11q-15 12 -22 55l-3 18q-56 -54 -86 -71t-69 -17q-81 0 -109 89q0 -67 2 -86q0 -2 4 -35q3 -15 7 -45q4 -36 4 -44q0 -24 -10 -38.5t-27 -14.5q-16 0 -27 14.5t-10 34.5q2 27 7 57q28 166 28 362v178h70v-286q0 -49 5.5 -73
t20.5 -41q23 -26 63 -26q68 0 123 80v346h70v-340q0 -45 8 -61t31 -16q12 0 31 11z" />
    <glyph glyph-name="paragraph" unicode="&#xb6;" horiz-adv-x="553" 
d="M519 667v-23h-19q-43 0 -52.5 -11.5t-9.5 -65.5v-570q1 -47 7 -56q10 -11 48 -11h22v-23h-120v736h-93v-736h-128v23h21q44 0 55 11q6 6 7 13.5t3 44.5v352h-46q-75 0 -118 39q-51 45 -51 120q0 49 24 87.5t64 54.5q27 11 48 13t104 2h234zM259 644h-36q-61 0 -89 -33
t-28 -104q0 -60 29.5 -94t81.5 -34h42v265z" />
    <glyph glyph-name="periodcentered" unicode="&#xb7;" horiz-adv-x="220" 
d="M110 330q21 0 35.5 -14.5t14.5 -35.5q0 -20 -15 -35t-35 -15t-35 15t-15 35t15 35t35 15z" />
    <glyph glyph-name="cedilla" unicode="&#xb8;" 
d="M261 0l-21 -50q20 3 27 3q31 0 50.5 -17t19.5 -44q0 -35 -30.5 -57.5t-78.5 -22.5q-42 0 -91 20l15 29q46 -19 74 -19q23 0 36.5 11.5t13.5 31.5q0 18 -12 28.5t-32 10.5q-12 0 -26 -5l-8 6l34 75h29z" />
    <glyph glyph-name="onesuperior" unicode="&#xb9;" horiz-adv-x="449" 
d="M159 618v10q69 19 93 29v-153q0 -159 6 -190t40 -38v-10q-29 2 -81 2q-42 0 -65 -2v10q35 6 41.5 37.5t6.5 190.5v41q0 44 -7 56.5t-34 16.5z" />
    <glyph glyph-name="ordmasculine" unicode="&#xba;" horiz-adv-x="467" 
d="M411 284v-28h-356v28h356zM232 674q78 0 130 -49t52 -123q0 -70 -52.5 -118.5t-128.5 -48.5q-77 0 -129 49t-52 121q0 71 52 120t128 49zM233 655q-57 0 -87.5 -39t-30.5 -111q0 -73 30.5 -112t87.5 -39q56 0 87 39t31 110q0 73 -30.5 112.5t-87.5 39.5z" />
    <glyph glyph-name="guillemotright" unicode="&#xbb;" horiz-adv-x="452" 
d="M106 99q-6 4 -8 6q-17 13 -41 25q78 105 104 147q-35 56 -97 141q-1 1 -2.5 3.5t-3 4.5t-2.5 4q20 6 49 26q39 -70 119 -178q-8 -13 -64 -97q-47 -69 -54 -82zM275 99l-8 6q-20 15 -40 25q79 106 103 147q-34 56 -97 141q-1 1 -2.5 3.5t-3 4.5t-2.5 4q19 5 49 26
q40 -72 120 -178q-33 -49 -65 -97q-48 -72 -54 -82z" />
    <glyph glyph-name="onequarter" unicode="&#xbc;" horiz-adv-x="939" 
d="M159 618v10q69 19 93 29v-153q0 -159 6 -190t40 -38v-10q-29 2 -81 2q-42 0 -65 -2v10q35 6 41.5 37.5t6.5 190.5v41q0 44 -7 56.5t-34 16.5zM613 667h37l-324 -667h-37zM894 175l-25 -80q-3 0 -87 3v-14q0 -43 7.5 -55t38.5 -20v-10q-30 2 -83 2q-21 0 -67 -2v10
q28 5 37 20t9 55v14h-207l10 31l237 264l15 -3l3 -192v-9v-5v-44v-8q43 1 64 10t38 34zM724 132l1 182l-157 -182h156z" />
    <glyph glyph-name="onehalf" unicode="&#xbd;" horiz-adv-x="939" 
d="M159 618v10q69 19 93 29v-153q0 -159 6 -190t40 -38v-10q-29 2 -81 2q-42 0 -65 -2v10q35 6 41.5 37.5t6.5 190.5v41q0 44 -7 56.5t-34 16.5zM613 667h37l-324 -667h-37zM861 97l-30 -97h-287q5 42 39.5 80.5t89.5 64.5q63 33 80 51q30 32 30 77q0 43 -25.5 69.5
t-66.5 26.5q-35 0 -65.5 -19t-46.5 -51l-8 -2l-16 58q76 33 138 33q71 0 114.5 -33t43.5 -88q0 -52 -40 -86q-18 -15 -33.5 -22t-76.5 -28q-80 -28 -98 -74l113 -1h13q52 0 77.5 9t44.5 34z" />
    <glyph glyph-name="threequarters" unicode="&#xbe;" horiz-adv-x="939" 
d="M44 306l25 66l8 -3q8 -41 44.5 -66t88.5 -25q48 0 79 26t31 66q0 39 -31 65t-78 26q-25 0 -45 -7v39q24 -11 49 -11q43 0 67 20t24 57q0 36 -24 56.5t-65 20.5q-39 0 -64 -15t-49 -53l-9 -2l-15 59q57 30 132 30q73 0 117.5 -26t44.5 -68q0 -69 -101 -90
q115 -25 115 -101q0 -50 -47.5 -80.5t-126.5 -30.5q-89 0 -170 47zM612 667h37l-324 -667h-36zM894 175l-25 -80q-3 0 -87 3v-14q0 -43 7.5 -55t38.5 -20v-10q-30 2 -83 2q-21 0 -67 -2v10q28 5 37 20t9 55v14h-207l10 31l237 264l15 -3l3 -192v-9v-5v-44v-8q43 1 64 10
t38 34zM724 132l1 182l-157 -182h156z" />
    <glyph glyph-name="questiondown" unicode="&#xbf;" horiz-adv-x="567" 
d="M495 142l30 -106q-108 -44 -211 -44q-104 0 -174.5 52.5t-70.5 129.5q0 59 43 113q28 33 85 79q57 48 80 87t23 89h23q-1 -49 -20 -95t-69 -127q-30 -46 -39 -67q-23 -48 -23 -96q0 -65 37.5 -104t98.5 -39q39 0 78 16t64 44q23 25 38 65zM307 674q20 0 35 -15t15 -35
t-15 -35t-35 -15q-21 0 -35.5 14.5t-14.5 36.5q0 20 15 34.5t35 14.5z" />
    <glyph glyph-name="Agrave" unicode="&#xc0;" horiz-adv-x="830" 
d="M513 319h-262l-37 -72q-44 -87 -58 -122t-14 -58q0 -42 55 -62v-7q-47 4 -104 4q-47 0 -83 -4v7q43 26 81 82t125 219l202 381l187 -368q90 -167 118 -218q26 -43 44.5 -62t48.5 -34v-7q-57 4 -125 4q-56 0 -99 -4v7q39 11 39 43q0 36 -39 114zM502 341l-117 227
l-122 -227h239zM450 712l-86 48q-57 31 -73.5 44t-16.5 26t10.5 22.5t24.5 9.5q13 0 27.5 -10t50.5 -45l102 -95h-39z" />
    <glyph glyph-name="Aacute" unicode="&#xc1;" horiz-adv-x="830" 
d="M513 319h-262l-37 -72q-44 -87 -58 -122t-14 -58q0 -42 55 -62v-7q-47 4 -104 4q-47 0 -83 -4v7q43 26 81 82t125 219l202 381l187 -368q90 -167 118 -218q26 -43 44.5 -62t48.5 -34v-7q-57 4 -125 4q-56 0 -99 -4v7q39 11 39 43q0 36 -39 114zM502 341l-117 227
l-122 -227h239zM414 712h-39l102 95q36 35 50.5 45t27.5 10q14 0 24.5 -9.5t10.5 -22.5t-16.5 -26t-73.5 -44z" />
    <glyph glyph-name="Acircumflex" unicode="&#xc2;" horiz-adv-x="830" 
d="M513 319h-262l-37 -72q-44 -87 -58 -122t-14 -58q0 -42 55 -62v-7q-47 4 -104 4q-47 0 -83 -4v7q43 26 81 82t125 219l202 381l187 -368q90 -167 118 -218q26 -43 44.5 -62t48.5 -34v-7q-57 4 -125 4q-56 0 -99 -4v7q39 11 39 43q0 36 -39 114zM502 341l-117 227
l-122 -227h239zM271 712l122 149h54l112 -149h-34l-110 90l-108 -90h-36z" />
    <glyph glyph-name="Atilde" unicode="&#xc3;" horiz-adv-x="830" 
d="M513 319h-262l-37 -72q-44 -87 -58 -122t-14 -58q0 -42 55 -62v-7q-47 4 -104 4q-47 0 -83 -4v7q43 26 81 82t125 219l202 381l187 -368q90 -167 118 -218q26 -43 44.5 -62t48.5 -34v-7q-57 4 -125 4q-56 0 -99 -4v7q39 11 39 43q0 36 -39 114zM502 341l-117 227
l-122 -227h239zM268 738h-26q27 94 105 94q32 0 88 -24q48 -21 68 -21q39 0 59 49h25q-25 -98 -102 -98q-32 0 -107 30q-32 13 -54 13q-37 0 -56 -43z" />
    <glyph glyph-name="Adieresis" unicode="&#xc4;" horiz-adv-x="830" 
d="M513 319h-262l-37 -72q-44 -87 -58 -122t-14 -58q0 -42 55 -62v-7q-47 4 -104 4q-47 0 -83 -4v7q43 26 81 82t125 219l202 381l187 -368q90 -167 118 -218q26 -43 44.5 -62t48.5 -34v-7q-57 4 -125 4q-56 0 -99 -4v7q39 11 39 43q0 36 -39 114zM502 341l-117 227
l-122 -227h239zM292 839q22 0 37 -15.5t15 -37.5q0 -21 -15.5 -36t-36.5 -15t-36.5 15.5t-15.5 36.5q0 22 15 37t37 15zM538 839q22 0 37 -15.5t15 -37.5q0 -21 -15.5 -36t-36.5 -15t-36.5 15.5t-15.5 36.5q0 22 15 37t37 15z" />
    <glyph glyph-name="Aring" unicode="&#xc5;" horiz-adv-x="830" 
d="M513 319h-262l-37 -72q-44 -87 -58 -122t-14 -58q0 -42 55 -62v-7q-47 4 -104 4q-47 0 -83 -4v7q43 26 81 82t125 219l202 381l187 -368q90 -167 118 -218q26 -43 44.5 -62t48.5 -34v-7q-57 4 -125 4q-56 0 -99 -4v7q39 11 39 43q0 36 -39 114zM502 341l-117 227
l-122 -227h239zM415 865q33 0 56 -23t23 -56q0 -32 -23.5 -55t-55.5 -23t-55.5 23t-23.5 56q0 32 23 55t56 23zM415 824q-16 0 -27 -11t-11 -26q0 -16 11 -27t27 -11t27 11t11 26q0 16 -11 27t-27 11z" />
    <glyph glyph-name="AE" unicode="&#xc6;" horiz-adv-x="1070" 
d="M496 309h-197l-41 -71q-58 -109 -68 -131t-10 -44q0 -44 54 -58v-7q-65 4 -112 4t-112 -4v7q72 26 116.5 78.5t134.5 214.5l126 210q4 6 22 36q40 60 40 78q0 26 -33 38v7h532l36 -132l-7 -3q-53 64 -119 88.5t-186 24.5h-93v-284h66q124 0 171.5 16.5t65.5 65.5h7v-184
h-7q-15 49 -62 64.5t-177 15.5h-64v-70q0 -116 6 -167t22 -64q20 -16 100 -16q58 0 125.5 13.5t112.5 33.5q50 24 89 77l6 -3l-45 -143h-458q-60 0 -114 -2v7q52 11 62 56q11 45 11 239v9zM495 331v309l-185 -309h185z" />
    <glyph glyph-name="Ccedilla" unicode="&#xc7;" horiz-adv-x="813" 
d="M455 -17l-17 -38q21 3 30 3q35 0 56.5 -18t21.5 -47q0 -37 -31 -58.5t-83 -21.5q-50 0 -104 23l16 30q49 -20 79 -20q26 0 41 11t15 30q0 17 -14.5 27.5t-37.5 10.5q-13 0 -29 -5l-8 6l33 69l-17 3q-91 15 -132 30t-87 51q-62 48 -95.5 117t-33.5 147q0 138 98 238
q111 113 298 113q88 0 165.5 -24t129.5 -67l-36 -96l-7 2q-22 76 -90.5 119.5t-165.5 43.5q-128 0 -205 -90t-77 -238q0 -147 82.5 -238t216.5 -91q111 0 193 69q37 30 61 83l7 2l21 -86q-121 -90 -283 -90h-11z" />
    <glyph glyph-name="Egrave" unicode="&#xc8;" horiz-adv-x="795" 
d="M70 667h579l36 -132l-7 -3q-53 64 -119 88.5t-187 24.5h-166v-284h140q124 0 171.5 16.5t65.5 65.5h7v-184h-7q-15 48 -62.5 64t-177.5 16h-137v-70q0 -116 6 -166.5t22 -63.5q13 -10 36 -13.5t81 -3.5q160 0 247 28t137 96l6 -3l-45 -143h-532q-60 0 -114 -2v7
q28 7 42.5 24.5t20.5 48.5q10 57 10 316v116q0 83 -10.5 112t-42.5 38v7zM421 712l-86 48q-57 31 -73.5 44t-16.5 26t10.5 22.5t24.5 9.5q13 0 26.5 -10t51.5 -45l101 -95h-38z" />
    <glyph glyph-name="Eacute" unicode="&#xc9;" horiz-adv-x="795" 
d="M70 667h579l36 -132l-7 -3q-53 64 -119 88.5t-187 24.5h-166v-284h140q124 0 171.5 16.5t65.5 65.5h7v-184h-7q-15 48 -62.5 64t-177.5 16h-137v-70q0 -116 6 -166.5t22 -63.5q13 -10 36 -13.5t81 -3.5q160 0 247 28t137 96l6 -3l-45 -143h-532q-60 0 -114 -2v7
q28 7 42.5 24.5t20.5 48.5q10 57 10 316v116q0 83 -10.5 112t-42.5 38v7zM345 712h-38l101 95q38 35 51.5 45t26.5 10q14 0 24.5 -9.5t10.5 -22.5t-16.5 -26t-73.5 -44z" />
    <glyph glyph-name="Ecircumflex" unicode="&#xca;" horiz-adv-x="795" 
d="M70 667h579l36 -132l-7 -3q-53 64 -119 88.5t-187 24.5h-166v-284h140q124 0 171.5 16.5t65.5 65.5h7v-184h-7q-15 48 -62.5 64t-177.5 16h-137v-70q0 -116 6 -166.5t22 -63.5q13 -10 36 -13.5t81 -3.5q160 0 247 28t137 96l6 -3l-45 -143h-532q-60 0 -114 -2v7
q28 7 42.5 24.5t20.5 48.5q10 57 10 316v116q0 83 -10.5 112t-42.5 38v7zM238 712l122 149h54l112 -149h-34l-110 90l-108 -90h-36z" />
    <glyph glyph-name="Edieresis" unicode="&#xcb;" horiz-adv-x="795" 
d="M70 667h579l36 -132l-7 -3q-53 64 -119 88.5t-187 24.5h-166v-284h140q124 0 171.5 16.5t65.5 65.5h7v-184h-7q-15 48 -62.5 64t-177.5 16h-137v-70q0 -116 6 -166.5t22 -63.5q13 -10 36 -13.5t81 -3.5q160 0 247 28t137 96l6 -3l-45 -143h-532q-60 0 -114 -2v7
q28 7 42.5 24.5t20.5 48.5q10 57 10 316v116q0 83 -10.5 112t-42.5 38v7zM249 839q22 0 37 -15.5t15 -37.5q0 -21 -15.5 -36t-36.5 -15t-36.5 15.5t-15.5 36.5q0 22 15 37t37 15zM495 839q22 0 37 -15.5t15 -37.5q0 -21 -15.5 -36t-36.5 -15t-36.5 15.5t-15.5 36.5
q0 22 15 37t37 15z" />
    <glyph glyph-name="Igrave" unicode="&#xcc;" horiz-adv-x="308" 
d="M259 5v-7q-53 4 -116 4q-52 0 -92 -4v7q24 7 35 17.5t18.5 56.5t8.5 109.5t1 206.5v122q0 80 -8.5 108t-34.5 37v7q35 -4 76 -4q48 0 93 4v-7q-26 -9 -34.5 -37t-8.5 -108v-122q0 -143 1 -207t8.5 -110t18 -56t34.5 -17zM209 712l-86 48q-57 31 -73.5 44t-16.5 26
t10.5 22.5t24.5 9.5q13 0 26.5 -10t51.5 -45l101 -95h-38z" />
    <glyph glyph-name="Iacute" unicode="&#xcd;" horiz-adv-x="308" 
d="M258 5v-7q-53 4 -116 4q-52 0 -92 -4v7q24 8 35 18.5t18.5 56t8.5 109t1 206.5v122q0 80 -8.5 108t-34.5 37v7q35 -4 76 -4q48 0 93 4v-7q-26 -9 -34.5 -37t-8.5 -108v-122q0 -143 1 -207t8.5 -110t18 -56t34.5 -17zM135 712h-39l101 95q37 35 51 45t27 10
q14 0 24.5 -9.5t10.5 -22.5t-17 -26t-72 -44z" />
    <glyph glyph-name="Icircumflex" unicode="&#xce;" horiz-adv-x="308" 
d="M258 5v-7q-53 4 -116 4q-52 0 -92 -4v7q24 7 35 17.5t18.5 56.5t8.5 109.5t1 206.5v122q0 80 -8.5 108t-34.5 37v7q35 -4 76 -4q48 0 93 4v-7q-26 -9 -34.5 -37t-8.5 -108v-122q0 -143 1 -207t8.5 -110t18 -56t34.5 -17zM15 712l122 149h54l112 -149h-34l-110 90
l-108 -90h-36z" />
    <glyph glyph-name="Idieresis" unicode="&#xcf;" horiz-adv-x="308" 
d="M258 5v-7q-53 4 -116 4q-52 0 -92 -4v7q24 7 35 17.5t18.5 56.5t8.5 109.5t1 206.5v122q0 80 -8.5 108t-34.5 37v7q35 -4 76 -4q48 0 93 4v-7q-26 -9 -34.5 -37t-8.5 -108v-122q0 -143 1 -207t8.5 -110t18 -56t34.5 -17zM71 839q22 0 37 -15.5t15 -37.5q0 -21 -15.5 -36
t-36.5 -15t-36.5 15.5t-15.5 36.5q0 22 15 37t37 15zM238 839q22 0 37 -15.5t15 -37.5q0 -21 -15.5 -36t-36.5 -15t-36.5 15.5t-15.5 36.5q0 22 15 37t37 15z" />
    <glyph glyph-name="Eth" unicode="&#xd0;" horiz-adv-x="848" 
d="M123 367v143q0 84 -11 113t-45 37v7h328q102 0 167.5 -20.5t121.5 -69.5q106 -95 106 -237q0 -82 -36.5 -155t-100.5 -118q-54 -38 -119 -53.5t-172 -15.5q-65 0 -123 2q-48 2 -92 2q-16 0 -24 -1l-31 -1q-17 0 -30 1q-9 0 -12 -3v7q22 6 33.5 15.5t20.5 26.5t12.5 56.5
t5 89.5t1.5 141h-70v33h70zM207 367h246v-33h-245v-50q3 -193 18 -226q10 -22 40.5 -30.5t103.5 -8.5q157 0 229 67q81 76 81 253q0 163 -83 243q-66 63 -209 63h-182z" />
    <glyph glyph-name="Ntilde" unicode="&#xd1;" horiz-adv-x="843" 
d="M720 -27l-564 620v-230q0 -114 2.5 -175.5t12.5 -103t25 -56.5t43 -23v-7q-76 4 -105 4q-40 0 -91 -4v7q40 9 57 37q20 32 25.5 91.5t5.5 229.5v154q0 77 -13 103.5t-57 41.5v7q39 -4 83 -4q43 0 82 4l469 -523v208q0 139 -10 212q-8 55 -40 78q-9 7 -35 18v7
q39 -4 84 -4q52 0 105 4v-7q-21 -8 -32 -13.5t-21.5 -22t-14.5 -32.5t-7 -57.5t-3.5 -83.5t-0.5 -123v-357zM289 738h-25q27 94 104 94q34 0 88 -24q49 -21 69 -21q39 0 59 49h25q-26 -98 -102 -98q-32 0 -107 30q-32 13 -54 13q-38 0 -57 -43z" />
    <glyph glyph-name="Ograve" unicode="&#xd2;" horiz-adv-x="884" 
d="M441 684q167 0 276 -100.5t109 -254.5q0 -147 -110.5 -246.5t-273.5 -99.5q-164 0 -274 100t-110 251q0 149 110 249.5t273 100.5zM441 662q-127 0 -203 -93q-70 -83 -70 -236q0 -150 70 -236q75 -92 204 -92q127 0 200.5 87t73.5 237q0 157 -70 240q-76 93 -205 93z
M477 712l-86 48q-57 31 -73.5 44t-16.5 26t10.5 22.5t24.5 9.5q13 0 27.5 -10t50.5 -45l102 -95h-39z" />
    <glyph glyph-name="Oacute" unicode="&#xd3;" horiz-adv-x="884" 
d="M441 684q167 0 276 -100.5t109 -254.5q0 -147 -110.5 -246.5t-273.5 -99.5q-164 0 -274 100t-110 251q0 149 110 249.5t273 100.5zM441 662q-127 0 -203 -93q-70 -83 -70 -236q0 -150 70 -236q75 -92 204 -92q127 0 200.5 87t73.5 237q0 157 -70 240q-76 93 -205 93z
M420 712h-38l101 95q38 35 51.5 45t26.5 10q14 0 24.5 -9.5t10.5 -22.5t-17 -26.5t-73 -43.5z" />
    <glyph glyph-name="Ocircumflex" unicode="&#xd4;" horiz-adv-x="884" 
d="M441 684q167 0 276 -100.5t109 -254.5q0 -147 -110.5 -246.5t-273.5 -99.5q-164 0 -274 100t-110 251q0 149 110 249.5t273 100.5zM441 662q-127 0 -203 -93q-70 -83 -70 -236q0 -150 70 -236q75 -92 204 -92q127 0 200.5 87t73.5 237q0 157 -70 240q-76 93 -205 93z
M298 712l122 149h54l112 -149h-34l-110 90l-108 -90h-36z" />
    <glyph glyph-name="Otilde" unicode="&#xd5;" horiz-adv-x="884" 
d="M441 684q167 0 276 -100.5t109 -254.5q0 -147 -110.5 -246.5t-273.5 -99.5q-164 0 -274 100t-110 251q0 149 110 249.5t273 100.5zM441 662q-127 0 -203 -93q-70 -83 -70 -236q0 -150 70 -236q75 -92 204 -92q127 0 200.5 87t73.5 237q0 157 -70 240q-76 93 -205 93z
M295 738h-26q27 94 105 94q32 0 88 -24q48 -21 68 -21q39 0 59 49h25q-24 -98 -102 -98q-32 0 -107 30q-32 13 -54 13q-37 0 -56 -43z" />
    <glyph glyph-name="Odieresis" unicode="&#xd6;" horiz-adv-x="884" 
d="M441 684q167 0 276 -100.5t109 -254.5q0 -147 -110.5 -246.5t-273.5 -99.5q-164 0 -274 100t-110 251q0 149 110 249.5t273 100.5zM441 662q-127 0 -203 -93q-70 -83 -70 -236q0 -150 70 -236q75 -92 204 -92q127 0 200.5 87t73.5 237q0 157 -70 240q-76 93 -205 93z
M319 839q22 0 37 -15.5t15 -37.5q0 -21 -15.5 -36t-36.5 -15t-36.5 15.5t-15.5 36.5q0 22 15 37t37 15zM565 839q22 0 37 -15.5t15 -37.5q0 -21 -15.5 -36t-36.5 -15t-36.5 15.5t-15.5 36.5q0 22 15 37t37 15z" />
    <glyph glyph-name="multiply" unicode="&#xd7;" 
d="M92 529l158 -159l158 160l31 -31l-159 -159l158 -158l-29 -30l-159 159l-159 -159l-30 30l159 159l-158 158z" />
    <glyph glyph-name="Oslash" unicode="&#xd8;" horiz-adv-x="884" 
d="M799 740l-112 -133q139 -104 139 -274q0 -150 -110 -250t-274 -100q-121 0 -226 63l-88 -106h-43l104 125q-131 106 -131 269q0 150 109.5 250t273.5 100q121 0 219 -58l96 114h43zM651 564l-402 -480q79 -79 193 -79q128 0 201 87.5t73 239.5q0 147 -65 232zM227 110
l402 479q-77 73 -187 73q-128 0 -201 -87.5t-73 -239.5q0 -140 59 -225z" />
    <glyph glyph-name="Ugrave" unicode="&#xd9;" horiz-adv-x="802" 
d="M40 662v7q39 -4 82 -4q51 0 111 4v-7q-37 -9 -48.5 -37t-11.5 -108v-189q0 -94 9.5 -144.5t34.5 -88.5q57 -87 198 -87q150 0 205 85q47 71 47 229v95q0 148 -24 198q-15 32 -58 47v7q37 -4 80 -4q49 0 100 4v-7q-35 -8 -50 -32q-16 -25 -19.5 -62t-3.5 -165v-94
q0 -167 -57 -240q-69 -86 -235 -86q-86 0 -156 22t-104 59q-30 31 -42 76.5t-12 123.5l1 62q3 51 3 62v129q0 81 -9.5 108.5t-40.5 36.5zM450 712l-86 48q-57 31 -73.5 44t-16.5 26t10.5 22.5t24.5 9.5q13 0 26.5 -10t51.5 -45l101 -95h-38z" />
    <glyph glyph-name="Uacute" unicode="&#xda;" horiz-adv-x="802" 
d="M40 662v7q39 -4 82 -4q51 0 111 4v-7q-37 -9 -48.5 -37t-11.5 -108v-189q0 -94 9.5 -144.5t34.5 -88.5q57 -87 198 -87q150 0 205 85q47 71 47 229v95q0 148 -24 198q-15 32 -58 47v7q37 -4 80 -4q49 0 100 4v-7q-35 -8 -50 -32q-16 -25 -19.5 -62t-3.5 -165v-94
q0 -167 -57 -240q-69 -86 -235 -86q-86 0 -156 22t-104 59q-30 31 -42 76.5t-12 123.5l1 62q3 51 3 62v129q0 81 -9.5 108.5t-40.5 36.5zM393 712h-38l101 95q38 35 51.5 45t26.5 10q14 0 24.5 -9.5t10.5 -22.5t-16.5 -26t-73.5 -44z" />
    <glyph glyph-name="Ucircumflex" unicode="&#xdb;" horiz-adv-x="802" 
d="M40 662v7q39 -4 82 -4q51 0 111 4v-7q-37 -9 -48.5 -37t-11.5 -108v-189q0 -94 9.5 -144.5t34.5 -88.5q57 -87 198 -87q150 0 205 85q47 71 47 229v95q0 148 -24 198q-15 32 -58 47v7q37 -4 80 -4q49 0 100 4v-7q-35 -8 -50 -32q-16 -25 -19.5 -62t-3.5 -165v-94
q0 -167 -57 -240q-69 -86 -235 -86q-86 0 -156 22t-104 59q-30 31 -42 76.5t-12 123.5l1 62q3 51 3 62v129q0 81 -9.5 108.5t-40.5 36.5zM262 712l122 149h54l112 -149h-34l-110 90l-108 -90h-36z" />
    <glyph glyph-name="Udieresis" unicode="&#xdc;" horiz-adv-x="802" 
d="M40 662v7q39 -4 82 -4q51 0 111 4v-7q-37 -9 -48.5 -37t-11.5 -108v-189q0 -94 9.5 -144.5t34.5 -88.5q57 -87 198 -87q150 0 205 85q47 71 47 229v95q0 148 -24 198q-15 32 -58 47v7q37 -4 80 -4q49 0 100 4v-7q-35 -8 -50 -32q-16 -25 -19.5 -62t-3.5 -165v-94
q0 -167 -57 -240q-69 -86 -235 -86q-86 0 -156 22t-104 59q-30 31 -42 76.5t-12 123.5l1 62q3 51 3 62v129q0 81 -9.5 108.5t-40.5 36.5zM278 839q22 0 37 -15.5t15 -37.5q0 -21 -15.5 -36t-36.5 -15t-36.5 15.5t-15.5 36.5q0 22 15 37t37 15zM524 839q22 0 37 -15.5
t15 -37.5q0 -21 -15.5 -36t-36.5 -15t-36.5 15.5t-15.5 36.5q0 22 15 37t37 15z" />
    <glyph glyph-name="Yacute" unicode="&#xdd;" horiz-adv-x="760" 
d="M412 299v-151q0 -82 12 -109t51 -34v-7q-55 4 -120 4q-53 0 -93 -4v7q37 7 48.5 30.5t11.5 92.5v158l-164 213q-5 6 -24 31t-28 38q-38 50 -58.5 68.5t-48.5 25.5v7q48 -4 104 -4q66 0 130 4v-7q-44 -15 -44 -49q0 -25 27 -64q30 -43 59 -79l121 -146l78 90
q74 86 107 141q18 30 18 56q0 21 -8 30.5t-34 20.5v7q39 -4 84 -4q53 0 106 4v-7q-32 -13 -75.5 -56.5t-139.5 -161.5zM397 712h-38l101 95q38 35 51.5 45t26.5 10q14 0 24.5 -9.5t10.5 -22.5t-16.5 -26t-73.5 -44z" />
    <glyph glyph-name="Thorn" unicode="&#xde;" horiz-adv-x="749" 
d="M210 181v-13q0 -112 21 -138q12 -16 53 -25v-7q-59 4 -133 4q-57 0 -101 -4v7q56 14 66 73q11 56 11 316v122q0 81 -8.5 109t-34.5 37v7q35 -4 76 -4q48 0 93 4v-7q-26 -7 -34.5 -28.5t-8.5 -83.5v-17h185q145 0 230 -47t85 -127q0 -49 -35 -87.5t-100 -61.5
q-92 -34 -258 -34q-37 0 -107 5zM210 511v-302q55 -11 126 -11q130 0 197 42t67 122q0 49 -26.5 84t-75.5 48q-58 17 -182 17h-106z" />
    <glyph glyph-name="germandbls" unicode="&#xdf;" horiz-adv-x="677" 
d="M295 104h7q17 -40 25 -51q26 -44 76 -44q57 0 90.5 47.5t33.5 128.5q0 95 -39 153q-35 54 -117 54l-55 -1v27q18 -5 51 -5q51 0 83 43q27 38 27 107q0 82 -33 122q-40 46 -118 46q-76 0 -111 -40q-45 -51 -45 -188v-109q0 -143 1 -206.5t8 -109t17 -56t33 -17.5v-7
q-47 4 -110 4q-52 0 -89 -4v7q24 8 35 18.5t18.5 56t8.5 108.5t1 206v53q0 96 11 141t45 87q63 78 185 78q97 0 166 -47q65 -47 65 -132q0 -127 -138 -167q80 -18 122 -51q75 -57 75 -156q0 -92 -61 -152.5t-154 -60.5q-60 0 -105 21z" />
    <glyph glyph-name="agrave" unicode="&#xe0;" horiz-adv-x="642" 
d="M610 0h-102q-12 33 -23 102q-63 -115 -197 -115q-102 0 -169 46t-67 116q0 95 116 141q99 38 255 38h54v30q0 173 -171 173q-75 0 -126 -34.5t-68 -96.5l-6 -2l-30 100q130 55 241 55q123 0 184 -55q53 -47 53 -178v-147q0 -84 12.5 -120.5t43.5 -47.5v-5zM477 306h-56
q-272 0 -272 -158q0 -62 41.5 -100.5t108.5 -38.5q54 0 98 26t62 69q13 32 15.5 56t2.5 119v27zM380 601l-127 76q-31 19 -42.5 30t-11.5 23q0 13 8.5 21t22.5 8q17 0 42 -24l140 -134h-32z" />
    <glyph glyph-name="aacute" unicode="&#xe1;" horiz-adv-x="642" 
d="M610 0h-102q-12 33 -23 102q-63 -115 -197 -115q-102 0 -169 46t-67 116q0 95 116 141q99 38 255 38h54v30q0 173 -171 173q-75 0 -126 -34.5t-68 -96.5l-6 -2l-30 100q130 55 241 55q123 0 184 -55q53 -47 53 -178v-147q0 -84 12.5 -120.5t43.5 -47.5v-5zM477 306h-56
q-272 0 -272 -158q0 -62 41.5 -100.5t108.5 -38.5q54 0 98 26t62 69q13 32 15.5 56t2.5 119v27zM304 601h-31l139 134q25 24 42 24q14 0 22.5 -8t8.5 -21q0 -12 -11.5 -23.5t-41.5 -29.5z" />
    <glyph glyph-name="acircumflex" unicode="&#xe2;" horiz-adv-x="642" 
d="M610 0h-102q-12 33 -23 102q-63 -115 -197 -115q-102 0 -169 46t-67 116q0 95 116 141q99 38 255 38h54v30q0 173 -171 173q-75 0 -126 -34.5t-68 -96.5l-6 -2l-30 100q130 55 241 55q123 0 184 -55q53 -47 53 -178v-147q0 -84 12.5 -120.5t43.5 -47.5v-5zM477 306h-56
q-272 0 -272 -158q0 -62 41.5 -100.5t108.5 -38.5q54 0 98 26t62 69q13 32 15.5 56t2.5 119v27zM191 598l122 163h45l122 -163h-30l-116 103l-113 -103h-30z" />
    <glyph glyph-name="atilde" unicode="&#xe3;" horiz-adv-x="642" 
d="M610 0h-102q-12 33 -23 102q-63 -115 -197 -115q-102 0 -169 46t-67 116q0 95 116 141q99 38 255 38h54v30q0 173 -171 173q-75 0 -126 -34.5t-68 -96.5l-6 -2l-30 100q130 55 241 55q123 0 184 -55q53 -47 53 -178v-147q0 -84 12.5 -120.5t43.5 -47.5v-5zM477 306h-56
q-272 0 -272 -158q0 -62 41.5 -100.5t108.5 -38.5q54 0 98 26t62 69q13 32 15.5 56t2.5 119v27zM183 631h-25q27 95 105 95q32 0 88 -24q48 -21 68 -21q39 0 59 48h25q-25 -97 -102 -97q-32 0 -107 30q-32 13 -54 13q-38 0 -57 -44z" />
    <glyph glyph-name="adieresis" unicode="&#xe4;" horiz-adv-x="642" 
d="M610 0h-102q-12 33 -23 102q-63 -115 -197 -115q-102 0 -169 46t-67 116q0 95 116 141q99 38 255 38h54v30q0 173 -171 173q-75 0 -126 -34.5t-68 -96.5l-6 -2l-30 100q130 55 241 55q123 0 184 -55q53 -47 53 -178v-147q0 -84 12.5 -120.5t43.5 -47.5v-5zM477 306h-56
q-272 0 -272 -158q0 -62 41.5 -100.5t108.5 -38.5q54 0 98 26t62 69q13 32 15.5 56t2.5 119v27zM234 732q22 0 37 -15.5t15 -37.5q0 -21 -15.5 -36t-36.5 -15t-36.5 15.5t-15.5 36.5q0 22 15 37t37 15zM437 732q22 0 37 -15.5t15 -37.5q0 -21 -15.5 -36t-36.5 -15
t-36.5 15.5t-15.5 36.5q0 22 15 37t37 15z" />
    <glyph glyph-name="aring" unicode="&#xe5;" horiz-adv-x="642" 
d="M610 0h-102q-12 33 -23 102q-63 -115 -197 -115q-102 0 -169 46t-67 116q0 95 116 141q99 38 255 38h54v30q0 173 -171 173q-75 0 -126 -34.5t-68 -96.5l-6 -2l-30 100q130 55 241 55q123 0 184 -55q53 -47 53 -178v-147q0 -84 12.5 -120.5t43.5 -47.5v-5zM477 306h-56
q-272 0 -272 -158q0 -62 41.5 -100.5t108.5 -38.5q54 0 98 26t62 69q13 32 15.5 56t2.5 119v27zM337 759q33 0 56 -23t23 -57q0 -32 -23.5 -55t-55.5 -23q-33 0 -56 23.5t-23 55.5q0 33 23 56t56 23zM337 718q-16 0 -27 -11t-11 -27t11 -27t27 -11t27 11t11 27t-11 27
t-27 11z" />
    <glyph glyph-name="ae" unicode="&#xe6;" horiz-adv-x="1087" 
d="M107 398l-31 101q134 54 241 54q119 0 185 -55q20 -17 34 -48q97 103 227 103q103 0 182 -61.5t91 -151.5h-463q-5 -28 -5 -61q0 -93 36 -162q52 -103 179 -103q89 0 151.5 51.5t90.5 147.5l19 -15q-25 -98 -99.5 -155t-178.5 -57q-65 0 -115 19.5t-102 65.5
q-45 -45 -103.5 -64.5t-147.5 -19.5q-109 0 -177.5 45t-68.5 117q0 95 116 141q99 38 256 38h54v30q0 173 -172 173q-75 0 -126 -34.5t-67 -96.5zM478 306h-56q-273 0 -273 -158q0 -62 41.5 -100.5t108.5 -38.5q55 0 99 26t61 69q14 33 16.5 58t2.5 117v27zM578 361h355
q0 77 -46 124t-122 47q-152 0 -187 -171z" />
    <glyph glyph-name="ccedilla" unicode="&#xe7;" horiz-adv-x="621" 
d="M367 -13l-16 -37q19 3 27 3q31 0 50.5 -17t19.5 -44q0 -35 -30.5 -57.5t-78.5 -22.5q-42 0 -91 20l15 29q46 -19 74 -19q23 0 36.5 11.5t13.5 31.5q0 18 -12 28.5t-32 10.5q-11 0 -26 -5l-7 6l28 62q-16 2 -17 2q-72 11 -102.5 23.5t-68.5 45.5q-98 86 -98 211
q0 57 23.5 112t64.5 94q83 78 213 78q120 0 238 -66l-32 -95l-6 2q-19 49 -44 76q-26 28 -69.5 44.5t-88.5 16.5q-94 0 -148 -68.5t-54 -188.5q0 -121 58 -190t159 -69q69 0 117 31t94 104l14 -25q-38 -65 -85.5 -96.5t-122.5 -38.5q-2 -1 -16 -3z" />
    <glyph glyph-name="egrave" unicode="&#xe8;" horiz-adv-x="667" 
d="M616 340h-462q-5 -25 -5 -61q0 -93 36 -162q25 -49 71.5 -76t107.5 -27q88 0 150.5 52t90.5 149l19 -17q-24 -98 -99 -155t-178 -57q-128 0 -211.5 81t-83.5 205q0 117 85 199t207 82q103 0 181.5 -61.5t90.5 -151.5zM159 361h354q0 77 -46 124t-122 47q-151 0 -186 -171
zM410 601l-128 76q-53 31 -53 53q0 13 8.5 21t22.5 8q17 0 42 -24l140 -134h-32z" />
    <glyph glyph-name="eacute" unicode="&#xe9;" horiz-adv-x="667" 
d="M616 340h-462q-5 -25 -5 -61q0 -93 36 -162q25 -49 71.5 -76t107.5 -27q88 0 150.5 52t90.5 149l19 -17q-24 -98 -99 -155t-178 -57q-128 0 -211.5 81t-83.5 205q0 117 85 199t207 82q103 0 181.5 -61.5t90.5 -151.5zM159 361h354q0 77 -46 124t-122 47q-151 0 -186 -171
zM334 601h-32l140 134q25 24 42 24q14 0 22.5 -8t8.5 -21q0 -22 -53 -53z" />
    <glyph glyph-name="ecircumflex" unicode="&#xea;" horiz-adv-x="667" 
d="M616 340h-462q-5 -25 -5 -61q0 -93 36 -162q25 -49 71.5 -76t107.5 -27q88 0 150.5 52t90.5 149l19 -17q-24 -98 -99 -155t-178 -57q-128 0 -211.5 81t-83.5 205q0 117 85 199t207 82q103 0 181.5 -61.5t90.5 -151.5zM159 361h354q0 77 -46 124t-122 47q-151 0 -186 -171
zM215 598l122 163h46l121 -163h-29l-116 103l-114 -103h-30z" />
    <glyph glyph-name="edieresis" unicode="&#xeb;" horiz-adv-x="667" 
d="M616 340h-462q-5 -25 -5 -61q0 -93 36 -162q25 -49 71.5 -76t107.5 -27q88 0 150.5 52t90.5 149l19 -17q-24 -98 -99 -155t-178 -57q-128 0 -211.5 81t-83.5 205q0 117 85 199t207 82q103 0 181.5 -61.5t90.5 -151.5zM159 361h354q0 77 -46 124t-122 47q-151 0 -186 -171
zM265 732q22 0 37 -15.5t15 -37.5q0 -21 -15.5 -36t-36.5 -15t-36.5 15.5t-15.5 36.5q0 22 15 37t37 15zM469 732q22 0 37 -15.5t15 -37.5q0 -21 -15.5 -36t-36.5 -15t-36.5 15.5t-15.5 36.5q0 22 15 37t37 15z" />
    <glyph glyph-name="igrave" unicode="&#xec;" horiz-adv-x="259" 
d="M46 501v6q94 17 128 33v-10v-66v-54v-231q0 -101 13 -138q12 -31 43 -36v-7q-52 4 -108 4q-46 0 -85 -4v7q33 6 46.5 45.5t13.5 128.5v32q0 213 -6 249t-45 41zM187 601l-128 76q-53 31 -53 53q0 13 8.5 21t22.5 8q17 0 42 -24l140 -134h-32z" />
    <glyph glyph-name="iacute" unicode="&#xed;" horiz-adv-x="259" 
d="M47 501v6q94 17 128 33v-10v-66v-54v-231q0 -101 13 -138q12 -31 43 -36v-7q-52 4 -108 4q-46 0 -85 -4v7q33 6 46.5 45.5t13.5 128.5v32q0 213 -6 249t-45 41zM94 601h-32l140 134q27 24 42 24q14 0 22.5 -8t8.5 -21q0 -12 -11.5 -23t-42.5 -30z" />
    <glyph glyph-name="icircumflex" unicode="&#xee;" horiz-adv-x="259" 
d="M47 501v6q94 17 128 33v-10v-66v-54v-231q0 -101 13 -138q12 -31 43 -36v-7q-52 4 -108 4q-46 0 -85 -4v7q33 6 46.5 45.5t13.5 128.5v32q0 213 -6 249t-45 41zM-15 598l122 163h45l122 -163h-30l-116 103l-113 -103h-30z" />
    <glyph glyph-name="idieresis" unicode="&#xef;" horiz-adv-x="259" 
d="M46 501v6q94 17 128 33v-10v-66v-54v-231q0 -101 13 -138q12 -31 43 -36v-7q-52 4 -108 4q-46 0 -85 -4v7q33 6 46.5 45.5t13.5 128.5v32q0 213 -6 249t-45 41zM51 732q22 0 37 -15.5t15 -37.5q0 -21 -15.5 -36t-36.5 -15t-36.5 15.5t-15.5 36.5q0 22 15 37t37 15z
M208 732q22 0 37 -15.5t15 -37.5q0 -21 -15.5 -36t-36.5 -15t-36.5 15.5t-15.5 36.5q0 22 15 37t37 15z" />
    <glyph glyph-name="eth" unicode="&#xf0;" horiz-adv-x="706" 
d="M438 771l18 -21l-73 -68q86 -56 143 -114q131 -139 131 -297q0 -121 -87 -202.5t-217 -81.5q-129 0 -216 81t-87 202q0 62 27.5 119t76.5 98q81 66 200 66q54 0 102 -16q-36 54 -107 113l-81 -76l-19 20l79 75q-30 34 -87 72l12 19q34 -16 106 -63zM353 531
q-95 0 -150.5 -70t-55.5 -191t55.5 -191t150.5 -70t151 69.5t56 188.5q0 123 -55 193.5t-152 70.5z" />
    <glyph glyph-name="ntilde" unicode="&#xf1;" horiz-adv-x="688" 
d="M655 5v-7q-51 4 -107 4q-45 0 -81 -4v7q31 6 42 42.5t11 131.5v92q0 133 -36 186q-44 63 -132 63q-86 0 -132.5 -70t-46.5 -200v-71q0 -101 12 -139q9 -30 40 -35v-7q-45 4 -101 4q-46 0 -81 -4v7q31 6 42 42.5t11 131.5v32q0 203 -7 243q-5 35 -43 40v7q59 12 121 39
q-4 -70 -4 -130v-17q33 86 83 123.5t132 37.5q59 0 107 -22t73 -59q22 -34 30.5 -81.5t8.5 -141.5v-71q0 -98 13 -139q11 -30 45 -35zM224 631h-25q27 95 104 95q34 0 88 -24q49 -21 69 -21q39 0 59 48h25q-26 -97 -102 -97q-32 0 -107 30q-32 13 -54 13q-38 0 -57 -44z" />
    <glyph glyph-name="ograve" unicode="&#xf2;" horiz-adv-x="710" 
d="M355 553q134 0 223 -89q81 -80 81 -198q0 -116 -88.5 -197.5t-215.5 -81.5q-128 0 -215.5 81.5t-87.5 201.5q0 119 87.5 201t215.5 82zM355 531q-121 0 -169 -92q-37 -69 -37 -169t37 -169q48 -92 169 -92q122 0 170 92q37 72 37 166q0 104 -37 172q-48 92 -170 92z
M421 601l-128 76q-53 31 -53 53q0 13 8.5 21t22.5 8q17 0 42 -24l140 -134h-32z" />
    <glyph glyph-name="oacute" unicode="&#xf3;" horiz-adv-x="710" 
d="M355 553q134 0 223 -89q81 -80 81 -198q0 -116 -88.5 -197.5t-215.5 -81.5q-128 0 -215.5 81.5t-87.5 201.5q0 119 87.5 201t215.5 82zM355 531q-121 0 -169 -92q-37 -69 -37 -169t37 -169q48 -92 169 -92q122 0 170 92q37 72 37 166q0 104 -37 172q-48 92 -170 92z
M345 601h-32l140 134q25 24 42 24q14 0 22.5 -8t8.5 -21q0 -22 -53 -53z" />
    <glyph glyph-name="ocircumflex" unicode="&#xf4;" horiz-adv-x="710" 
d="M355 553q134 0 223 -89q81 -80 81 -198q0 -116 -88.5 -197.5t-215.5 -81.5q-128 0 -215.5 81.5t-87.5 201.5q0 119 87.5 201t215.5 82zM355 531q-121 0 -169 -92q-37 -69 -37 -169t37 -169q48 -92 169 -92q122 0 170 92q37 72 37 166q0 104 -37 172q-48 92 -170 92z
M227 598l121 163h46l121 -163h-29l-116 103l-114 -103h-29z" />
    <glyph glyph-name="otilde" unicode="&#xf5;" horiz-adv-x="710" 
d="M355 553q134 0 223 -89q81 -80 81 -198q0 -116 -88.5 -197.5t-215.5 -81.5q-128 0 -215.5 81.5t-87.5 201.5q0 119 87.5 201t215.5 82zM355 531q-121 0 -169 -92q-37 -69 -37 -169t37 -169q48 -92 169 -92q122 0 170 92q37 72 37 166q0 104 -37 172q-48 92 -170 92z
M219 631h-26q27 95 105 95q32 0 88 -24q48 -21 68 -21q39 0 59 48h25q-25 -97 -102 -97q-32 0 -107 30q-32 13 -54 13q-38 0 -56 -44z" />
    <glyph glyph-name="odieresis" unicode="&#xf6;" horiz-adv-x="710" 
d="M355 553q134 0 223 -89q81 -80 81 -198q0 -116 -88.5 -197.5t-215.5 -81.5q-128 0 -215.5 81.5t-87.5 201.5q0 119 87.5 201t215.5 82zM355 531q-121 0 -169 -92q-37 -69 -37 -169t37 -169q48 -92 169 -92q122 0 170 92q37 72 37 166q0 104 -37 172q-48 92 -170 92z
M254 732q22 0 37 -15.5t15 -37.5q0 -21 -15.5 -36t-36.5 -15t-36.5 15.5t-15.5 36.5q0 22 15 37t37 15zM457 732q22 0 37 -15.5t15 -37.5q0 -21 -15.5 -36t-36.5 -15t-36.5 15.5t-15.5 36.5q0 22 15 37t37 15z" />
    <glyph glyph-name="divide" unicode="&#xf7;" 
d="M23 362h454v-42h-454v42zM251 564q15 0 26.5 -11.5t11.5 -27.5t-11.5 -27.5t-27.5 -11.5t-27.5 11.5t-11.5 27.5t11.5 27.5t28.5 11.5zM250 195q16 0 27.5 -11.5t11.5 -27.5t-11.5 -27.5t-27.5 -11.5t-27.5 11.5t-11.5 27.5t11.5 27.5t27.5 11.5z" />
    <glyph glyph-name="oslash" unicode="&#xf8;" horiz-adv-x="735" 
d="M683 600l-109 -121q97 -87 97 -209q0 -120 -87.5 -201.5t-215.5 -81.5q-102 0 -185 57l-88 -97h-43l106 117q-94 87 -94 206q0 120 87.5 201.5t215.5 81.5q101 0 182 -54l91 101h43zM538 439l-325 -362q55 -68 153 -68q124 0 171 93q37 68 37 168q0 97 -36 169zM195 106
l325 361q-57 64 -151 64q-124 0 -171 -93q-37 -68 -37 -169q0 -91 34 -163z" />
    <glyph glyph-name="ugrave" unicode="&#xf9;" horiz-adv-x="645" 
d="M621 0h-89q-17 36 -33 106q-37 -63 -86 -91t-123 -28q-100 0 -157 49q-60 49 -60 166l3 120v23q0 107 -7 126t-46 23v7q71 11 133 39q-4 -56 -4 -130v-145q0 -120 28 -173q37 -72 134 -72q52 0 95 23.5t62 62.5q28 60 28 207v32q0 106 -7 125.5t-45 23.5v7q68 11 132 39
q-4 -56 -4 -130v-131q0 -155 8.5 -206.5t37.5 -65.5v-7zM377 601l-127 76q-31 19 -42.5 30t-11.5 23q0 13 8.5 21t22.5 8q17 0 42 -24l140 -134h-32z" />
    <glyph glyph-name="uacute" unicode="&#xfa;" horiz-adv-x="645" 
d="M621 0h-89q-17 36 -33 106q-37 -63 -86 -91t-123 -28q-100 0 -157 49q-60 49 -60 166l3 120v23q0 107 -7 126t-46 23v7q71 11 133 39q-4 -56 -4 -130v-145q0 -120 28 -173q37 -72 134 -72q52 0 95 23.5t62 62.5q28 60 28 207v32q0 106 -7 125.5t-45 23.5v7q68 11 132 39
q-4 -56 -4 -130v-131q0 -155 8.5 -206.5t37.5 -65.5v-7zM307 601h-32l140 134q25 24 42 24q14 0 22.5 -8t8.5 -21q0 -12 -11.5 -23t-42.5 -30z" />
    <glyph glyph-name="ucircumflex" unicode="&#xfb;" horiz-adv-x="645" 
d="M621 0h-89q-17 36 -33 106q-37 -63 -86 -91t-123 -28q-100 0 -157 49q-60 49 -60 166l3 120v23q0 107 -7 126t-46 23v7q71 11 133 39q-4 -56 -4 -130v-145q0 -120 28 -173q37 -72 134 -72q52 0 95 23.5t62 62.5q28 60 28 207v32q0 106 -7 125.5t-45 23.5v7q68 11 132 39
q-4 -56 -4 -130v-131q0 -155 8.5 -206.5t37.5 -65.5v-7zM178 598l122 163h45l122 -163h-30l-116 103l-113 -103h-30z" />
    <glyph glyph-name="udieresis" unicode="&#xfc;" horiz-adv-x="645" 
d="M621 0h-89q-17 36 -33 106q-37 -63 -86 -91t-123 -28q-100 0 -157 49q-60 49 -60 166l3 120v23q0 107 -7 126t-46 23v7q71 11 133 39q-4 -56 -4 -130v-145q0 -120 28 -173q37 -72 134 -72q52 0 95 23.5t62 62.5q28 60 28 207v32q0 106 -7 125.5t-45 23.5v7q68 11 132 39
q-4 -56 -4 -130v-131q0 -155 8.5 -206.5t37.5 -65.5v-7zM233 732q22 0 37 -15.5t15 -37.5q0 -21 -15.5 -36t-36.5 -15t-36.5 15.5t-15.5 36.5q0 22 15 37t37 15zM436 732q22 0 37 -15.5t15 -37.5q0 -21 -15.5 -36t-36.5 -15t-36.5 15.5t-15.5 36.5q0 22 15 37t37 15z" />
    <glyph glyph-name="yacute" unicode="&#xfd;" horiz-adv-x="656" 
d="M77 -199l31 98l7 -2q20 -27 56 -27q43 0 85.5 43.5t42.5 87.5q0 48 -66 179l-71 141q-4 7 -28.5 51t-36.5 67q-26 48 -42.5 65.5t-46.5 30.5v7q60 -4 94 -4q23 0 106 4v-7l-7 -3q-33 -12 -33 -38q0 -17 40 -97l152 -296l80 161q66 134 77 160t11 52q0 48 -60 61v7
q49 -4 85 -4q20 0 95 4v-7q-37 -17 -66 -60.5t-108 -200.5l-112 -227q-63 -127 -103.5 -173t-106.5 -64q-42 -10 -62 -10q-7 0 -13 1zM333 601h-32l140 134q25 24 42 24q14 0 22.5 -8t8.5 -21q0 -12 -11.5 -23.5t-41.5 -29.5z" />
    <glyph glyph-name="thorn" unicode="&#xfe;" horiz-adv-x="712" 
d="M148 625v-230q31 55 52 81q62 77 177 77q119 0 201 -80.5t82 -196.5q0 -123 -81 -206t-201 -83q-122 0 -218 105v-120q0 -94 14.5 -131t54.5 -42v-7q-57 3 -121 3q-46 0 -85 -3v7q35 7 47.5 43.5t12.5 129.5v454q0 200 -8 246q-5 37 -45 40v7q39 6 123 36q-5 -67 -5 -130
zM365 532q-96 0 -159 -85q-44 -63 -44 -178q0 -124 48 -185q27 -34 70.5 -55t88.5 -21q49 0 91.5 23.5t64.5 62.5q38 67 38 181q0 124 -51 188q-25 31 -65 50t-82 19z" />
    <glyph glyph-name="ydieresis" unicode="&#xff;" horiz-adv-x="656" 
d="M77 -199l31 98l7 -2q20 -27 56 -27q43 0 85.5 43.5t42.5 87.5q0 48 -66 179l-71 141q-4 7 -28.5 51t-36.5 67q-26 48 -42.5 65.5t-46.5 30.5v7q60 -4 94 -4q23 0 106 4v-7l-7 -3q-33 -12 -33 -38q0 -17 40 -97l152 -296l80 161q66 134 77 160t11 52q0 48 -60 61v7
q49 -4 85 -4q20 0 95 4v-7q-37 -17 -66 -60.5t-108 -200.5l-112 -227q-63 -127 -103.5 -173t-106.5 -64q-42 -10 -62 -10q-7 0 -13 1zM253 732q22 0 37 -15.5t15 -37.5q0 -21 -15.5 -36t-36.5 -15t-36.5 15.5t-15.5 36.5q0 22 15 37t37 15zM456 732q22 0 37 -15.5t15 -37.5
q0 -21 -15.5 -36t-36.5 -15t-36.5 15.5t-15.5 36.5q0 22 15 37t37 15z" />
    <glyph glyph-name="Amacron" unicode="&#x100;" horiz-adv-x="830" 
d="M513 319h-262l-37 -72q-44 -87 -58 -122t-14 -58q0 -42 55 -62v-7q-47 4 -104 4q-47 0 -83 -4v7q43 26 81 82t125 219l202 381l187 -368q90 -167 118 -218q26 -43 44.5 -62t48.5 -34v-7q-57 4 -125 4q-56 0 -99 -4v7q39 11 39 43q0 36 -39 114zM502 341l-117 227
l-122 -227h239zM231 777v32h367v-32h-367z" />
    <glyph glyph-name="amacron" unicode="&#x101;" horiz-adv-x="642" 
d="M610 0h-102q-12 33 -23 102q-63 -115 -197 -115q-102 0 -169 46t-67 116q0 95 116 141q99 38 255 38h54v30q0 173 -171 173q-75 0 -126 -34.5t-68 -96.5l-6 -2l-30 100q130 55 241 55q123 0 184 -55q53 -47 53 -178v-147q0 -84 12.5 -120.5t43.5 -47.5v-5zM477 306h-56
q-272 0 -272 -158q0 -62 41.5 -100.5t108.5 -38.5q54 0 98 26t62 69q13 32 15.5 56t2.5 119v27zM145 662v32h367v-32h-367z" />
    <glyph glyph-name="Abreve" unicode="&#x102;" horiz-adv-x="830" 
d="M513 319h-262l-37 -72q-44 -87 -58 -122t-14 -58q0 -42 55 -62v-7q-47 4 -104 4q-47 0 -83 -4v7q43 26 81 82t125 219l202 381l187 -368q90 -167 118 -218q26 -43 44.5 -62t48.5 -34v-7q-57 4 -125 4q-56 0 -99 -4v7q39 11 39 43q0 36 -39 114zM502 341l-117 227
l-122 -227h239zM284 859h30q19 -87 106 -87t106 87h30q-6 -71 -40.5 -107.5t-95.5 -36.5t-95.5 36.5t-40.5 107.5z" />
    <glyph glyph-name="abreve" unicode="&#x103;" horiz-adv-x="642" 
d="M610 0h-102q-12 33 -23 102q-63 -115 -197 -115q-102 0 -169 46t-67 116q0 95 116 141q99 38 255 38h54v30q0 173 -171 173q-75 0 -126 -34.5t-68 -96.5l-6 -2l-30 100q130 55 241 55q123 0 184 -55q53 -47 53 -178v-147q0 -84 12.5 -120.5t43.5 -47.5v-5zM477 306h-56
q-272 0 -272 -158q0 -62 41.5 -100.5t108.5 -38.5q54 0 98 26t62 69q13 32 15.5 56t2.5 119v27zM193 762h28q4 -50 33 -78t76 -28t76 28t33 78h28q-4 -71 -24 -102q-37 -61 -113 -61q-83 0 -118 70q-16 31 -19 93z" />
    <glyph glyph-name="Aogonek" unicode="&#x104;" horiz-adv-x="830" 
d="M816 5v-7q-22 2 -26 2q-93 -43 -93 -103q0 -23 15 -38.5t37 -15.5q14 0 22.5 4.5t28.5 21.5l15 -15q-50 -62 -108 -62q-33 0 -55.5 21t-22.5 52q0 82 125 136q-31 1 -65 1q-50 0 -97 -4v7q39 11 39 43q0 36 -39 114l-79 157h-262l-37 -72q-44 -87 -58 -122t-14 -58
q0 -42 55 -62v-7q-47 4 -104 4q-47 0 -83 -4v7q43 26 81 82t125 219l202 381l187 -368q90 -167 118 -218q26 -43 44.5 -62t48.5 -34zM502 341l-117 227l-122 -227h239z" />
    <glyph glyph-name="aogonek" unicode="&#x105;" horiz-adv-x="642" 
d="M610 0h-20q-89 -39 -89 -100q0 -25 14.5 -41t36.5 -16q24 0 51 26l15 -16q-49 -62 -107 -62q-34 0 -56.5 21t-22.5 53q0 41 31 76.5t89 58.5h-44q-12 33 -23 102q-64 -115 -197 -115q-102 0 -169 46t-67 116q0 95 116 141q99 38 255 38h54v30q0 173 -171 173
q-75 0 -126 -34.5t-68 -96.5l-6 -2l-30 100q130 55 241 55q123 0 184 -55q53 -47 53 -178v-147q0 -84 12.5 -120.5t43.5 -47.5v-5zM477 306h-56q-272 0 -272 -158q0 -62 41.5 -100.5t108.5 -38.5q54 0 98 26t62 69q13 32 15.5 56t2.5 119v27z" />
    <glyph glyph-name="Cacute" unicode="&#x106;" horiz-adv-x="813" 
d="M749 593l-36 -96l-7 2q-22 76 -90.5 119.5t-165.5 43.5q-128 0 -205 -90t-77 -238q0 -147 82.5 -238t216.5 -91q111 0 193 69q37 30 61 83l7 2l21 -86q-119 -90 -285 -90q-161 0 -277 86q-60 44 -94.5 115t-34.5 149q0 138 98 238q111 113 298 113q88 0 165.5 -24
t129.5 -67zM445 712h-38l101 95q38 35 51.5 45t26.5 10q14 0 24.5 -9.5t10.5 -22.5t-16.5 -26t-73.5 -44z" />
    <glyph glyph-name="cacute" unicode="&#x107;" horiz-adv-x="621" 
d="M591 487l-32 -95l-6 2q-19 49 -44 76q-26 28 -69.5 44.5t-88.5 16.5q-94 0 -148 -68.5t-54 -188.5q0 -121 58 -190t159 -69q69 0 117 31t94 104l14 -25q-76 -138 -240 -138q-126 0 -212.5 82t-86.5 201q0 56 23.5 111t64.5 94q83 78 213 78q120 0 238 -66zM320 601h-32
l140 134q25 24 42 24q14 0 22.5 -8t8.5 -21q0 -12 -11.5 -23t-42.5 -30z" />
    <glyph glyph-name="Ccaron" unicode="&#x10c;" horiz-adv-x="813" 
d="M749 593l-36 -96l-7 2q-22 76 -90.5 119.5t-165.5 43.5q-128 0 -205 -90t-77 -238q0 -147 82.5 -238t216.5 -91q111 0 193 69q37 30 61 83l7 2l21 -86q-119 -90 -285 -90q-161 0 -277 86q-60 44 -94.5 115t-34.5 149q0 138 98 238q111 113 298 113q88 0 165.5 -24
t129.5 -67zM605 861l-122 -149h-54l-112 149h34l110 -90l108 90h36z" />
    <glyph glyph-name="ccaron" unicode="&#x10d;" horiz-adv-x="621" 
d="M591 487l-32 -95l-6 2q-19 49 -44 76q-26 28 -69.5 44.5t-88.5 16.5q-94 0 -148 -68.5t-54 -188.5q0 -121 58 -190t159 -69q69 0 117 31t94 104l14 -25q-76 -138 -240 -138q-126 0 -212.5 82t-86.5 201q0 56 23.5 111t64.5 94q83 78 213 78q120 0 238 -66zM499 762
l-122 -163h-46l-121 163h29l116 -103l114 103h30z" />
    <glyph glyph-name="Dcaron" unicode="&#x10e;" horiz-adv-x="848" 
d="M67 667h328q101 0 166.5 -20.5t121.5 -69.5q106 -95 106 -237q0 -82 -36.5 -155t-100.5 -118q-53 -38 -118 -53.5t-172 -15.5q-42 0 -124 2q-22 2 -91 2q-11 0 -56 -2q-16 0 -29 1q-10 0 -12 -3v7q52 14 63 73q10 57 10 316v116q0 84 -11 113t-45 37v7zM206 645v-211
q0 -334 19 -376q10 -22 41 -30.5t103 -8.5q157 0 229 67q81 76 81 253q0 161 -83 243q-35 34 -83 48.5t-126 14.5h-181zM540 861l-121 -149h-55l-111 149h34l109 -90l109 90h35z" />
    <glyph glyph-name="dcaron" unicode="&#x10f;" horiz-adv-x="815" 
d="M693 0h-107q-13 31 -27 116q-44 -69 -94.5 -99t-123.5 -30q-125 0 -207.5 79.5t-82.5 200.5q0 124 84 205t213 81q130 0 211 -96v39q0 166 -10 188q-9 23 -47 26v6q76 14 132 39q-4 -85 -4 -228v-131q0 -205 13 -318q9 -59 50 -73v-5zM353 531q-99 0 -152 -68.5
t-53 -195.5q0 -102 40 -166q58 -92 165 -92q48 0 90.5 21t67.5 57q46 68 46 183q0 129 -51.5 195t-152.5 66zM736 534l-9 7q52 58 50 108v2q-12 -3 -18 -3q-19 0 -33 14.5t-14 34.5q0 21 14.5 35.5t34.5 14.5q25 0 39.5 -18t14.5 -50q0 -88 -79 -145z" />
    <glyph glyph-name="Dcroat" unicode="&#x110;" horiz-adv-x="848" 
d="M123 367v143q0 84 -11 113t-45 37v7h328q102 0 167.5 -20.5t121.5 -69.5q106 -95 106 -237q0 -82 -36.5 -155t-100.5 -118q-54 -38 -119 -53.5t-172 -15.5q-65 0 -123 2q-48 2 -92 2q-16 0 -24 -1l-31 -1q-17 0 -30 1q-9 0 -12 -3v7q22 6 33.5 15.5t20.5 26.5t12.5 56.5
t5 89.5t1.5 141h-70v33h70zM207 367h246v-33h-245v-50q3 -193 18 -226q10 -22 40.5 -30.5t103.5 -8.5q157 0 229 67q81 76 81 253q0 163 -83 243q-66 63 -209 63h-182z" />
    <glyph glyph-name="dcroat" unicode="&#x111;" horiz-adv-x="727" 
d="M631 611l-1 -215v-29q0 -183 14 -289q7 -59 50 -73v-5h-108q-14 38 -26 116q-44 -69 -94.5 -99t-123.5 -30q-125 0 -207.5 79.5t-82.5 200.5q0 124 84 205t213 81q128 0 211 -96l-4 154h-240v32h239q1 37 -10 51t-42 16v7q73 12 131 39l-1 -19l-1 -94h51v-32h-52z
M354 531q-99 0 -152 -68.5t-53 -195.5q0 -102 40 -166q58 -92 165 -92q48 0 90.5 21t67.5 57q46 68 46 183q0 129 -51.5 195t-152.5 66z" />
    <glyph glyph-name="Emacron" unicode="&#x112;" horiz-adv-x="795" 
d="M70 667h579l36 -132l-7 -3q-53 64 -119 88.5t-187 24.5h-166v-284h140q124 0 171.5 16.5t65.5 65.5h7v-184h-7q-15 48 -62.5 64t-177.5 16h-137v-70q0 -116 6 -166.5t22 -63.5q13 -10 36 -13.5t81 -3.5q160 0 247 28t137 96l6 -3l-45 -143h-532q-60 0 -114 -2v7
q28 7 42.5 24.5t20.5 48.5q10 57 10 316v116q0 83 -10.5 112t-42.5 38v7zM198 777v32h367v-32h-367z" />
    <glyph glyph-name="emacron" unicode="&#x113;" horiz-adv-x="667" 
d="M616 340h-462q-5 -25 -5 -61q0 -93 36 -162q25 -49 71.5 -76t107.5 -27q88 0 150.5 52t90.5 149l19 -17q-24 -98 -99 -155t-178 -57q-128 0 -211.5 81t-83.5 205q0 117 85 199t207 82q103 0 181.5 -61.5t90.5 -151.5zM159 361h354q0 77 -46 124t-122 47q-151 0 -186 -171
zM166 662v32h367v-32h-367z" />
    <glyph glyph-name="Edotaccent" unicode="&#x116;" horiz-adv-x="795" 
d="M70 667h579l36 -132l-7 -3q-53 64 -119 88.5t-187 24.5h-166v-284h140q124 0 171.5 16.5t65.5 65.5h7v-184h-7q-15 48 -62.5 64t-177.5 16h-137v-70q0 -116 6 -166.5t22 -63.5q13 -10 36 -13.5t81 -3.5q160 0 247 28t137 96l6 -3l-45 -143h-532q-60 0 -114 -2v7
q28 7 42.5 24.5t20.5 48.5q10 57 10 316v116q0 83 -10.5 112t-42.5 38v7zM381 839q22 0 37 -15.5t15 -37.5q0 -21 -15.5 -36t-36.5 -15t-36.5 15.5t-15.5 36.5q0 22 15 37t37 15z" />
    <glyph glyph-name="edotaccent" unicode="&#x117;" horiz-adv-x="667" 
d="M616 340h-462q-5 -25 -5 -61q0 -93 36 -162q25 -49 71.5 -76t107.5 -27q88 0 150.5 52t90.5 149l19 -17q-24 -98 -99 -155t-178 -57q-128 0 -211.5 81t-83.5 205q0 117 85 199t207 82q103 0 181.5 -61.5t90.5 -151.5zM159 361h354q0 77 -46 124t-122 47q-151 0 -186 -171
zM352 732q22 0 37 -15.5t15 -37.5q0 -21 -15.5 -36t-36.5 -15t-36.5 15.5t-15.5 36.5q0 22 15 37t37 15z" />
    <glyph glyph-name="Eogonek" unicode="&#x118;" horiz-adv-x="795" 
d="M696 0h-22q-93 -43 -93 -103q0 -23 15.5 -38.5t37.5 -15.5q21 0 50 26l15 -15q-48 -62 -108 -62q-32 0 -55 21t-23 52q0 81 123 135h-472q-60 0 -114 -2v7q28 7 42.5 24.5t20.5 48.5q10 57 10 316v116q0 83 -10.5 112t-42.5 38v7h579l36 -132l-7 -3q-53 64 -119 88.5
t-187 24.5h-166v-284h140q124 0 171.5 16.5t65.5 65.5h7v-184h-7q-15 48 -62.5 64t-177.5 16h-137v-70q0 -116 6 -166.5t22 -63.5q13 -10 36 -13.5t81 -3.5q160 0 247 28t137 96l6 -3z" />
    <glyph glyph-name="eogonek" unicode="&#x119;" horiz-adv-x="667" 
d="M480 -131l15 -16q-50 -62 -108 -62q-34 0 -56.5 21t-22.5 53q0 36 27 71t72 55q-27 -5 -60 -5q-128 0 -211.5 81t-83.5 205q0 117 85 199t207 82q103 0 181.5 -61.5t90.5 -151.5h-462q-5 -25 -5 -61q0 -93 36 -162q25 -49 71.5 -76t107.5 -27q88 0 150.5 52t90.5 149
l19 -17q-31 -118 -140 -180q-63 -40 -85 -64.5t-22 -53.5q0 -25 14.5 -41t36.5 -16q25 0 52 26zM159 361h354q0 77 -46 124t-122 47q-151 0 -186 -171z" />
    <glyph glyph-name="Ecaron" unicode="&#x11a;" horiz-adv-x="795" 
d="M70 667h579l36 -132l-7 -3q-53 64 -119 88.5t-187 24.5h-166v-284h140q124 0 171.5 16.5t65.5 65.5h7v-184h-7q-15 48 -62.5 64t-177.5 16h-137v-70q0 -116 6 -166.5t22 -63.5q13 -10 36 -13.5t81 -3.5q160 0 247 28t137 96l6 -3l-45 -143h-532q-60 0 -114 -2v7
q28 7 42.5 24.5t20.5 48.5q10 57 10 316v116q0 83 -10.5 112t-42.5 38v7zM524 861l-121 -149h-55l-112 149h35l109 -90l108 90h36z" />
    <glyph glyph-name="ecaron" unicode="&#x11b;" horiz-adv-x="667" 
d="M616 340h-462q-5 -25 -5 -61q0 -93 36 -162q25 -49 71.5 -76t107.5 -27q88 0 150.5 52t90.5 149l19 -17q-24 -98 -99 -155t-178 -57q-128 0 -211.5 81t-83.5 205q0 117 85 199t207 82q103 0 181.5 -61.5t90.5 -151.5zM159 361h354q0 77 -46 124t-122 47q-151 0 -186 -171
zM501 762l-122 -163h-45l-122 163h30l116 -103l113 103h30z" />
    <glyph glyph-name="Gbreve" unicode="&#x11e;" horiz-adv-x="826" 
d="M740 598l-35 -104l-6 3q-20 73 -91.5 119t-164.5 46q-129 0 -203.5 -88t-74.5 -240q0 -150 75 -235q83 -94 221 -94q57 0 105.5 19t65.5 48q13 22 13 76v62q0 42 -10 64t-34 34q-21 10 -75 22v7q54 -3 126 -3q65 0 147 2v-6q-43 -14 -51 -31.5t-8 -95.5v-128
q-122 -92 -286 -92q-170 0 -284.5 99.5t-114.5 247.5q0 155 111 254.5t283 99.5q78 0 159.5 -24t131.5 -62zM314 859h30q17 -87 106 -87q42 0 69.5 22.5t35.5 64.5h31q-14 -144 -136 -144q-61 0 -95.5 36.5t-40.5 107.5z" />
    <glyph glyph-name="gbreve" unicode="&#x11f;" horiz-adv-x="694" 
d="M668 629l-34 -95q-19 22 -35.5 30t-42.5 8q-53 0 -84 -38q143 -62 143 -175q0 -76 -65.5 -130t-166.5 -61q-20 -1 -95 -1q-60 0 -60 -25q0 -16 20.5 -24.5t70.5 -13.5q186 -16 256 -39q42 -14 66 -41.5t24 -62.5q0 -43 -28 -77t-80 -54q-92 -37 -212 -37
q-129 0 -213.5 39.5t-84.5 99.5q0 50 57 84q34 19 111 36q-40 10 -56.5 22.5t-16.5 32.5q0 26 28 45.5t78 28.5q-54 24 -89 48q-73 51 -73 130q0 44 25 84.5t68 67.5q68 42 164 42q54 0 102 -12q77 90 194 90q3 0 29 -2zM351 531q-82 0 -128 -44.5t-46 -124.5
q0 -84 45 -128.5t130 -44.5q83 0 128.5 44.5t45.5 124.5q0 83 -45 128t-130 45zM319 39q-93 0 -139 -26q-23 -12 -37.5 -35.5t-14.5 -47.5q0 -55 59.5 -85.5t166.5 -30.5t172 32t65 85q0 44 -51 72q-29 16 -91.5 26t-129.5 10zM224 762h28q5 -50 33.5 -78t75.5 -28
q46 0 75 28t34 78h27q-3 -68 -23 -102q-37 -61 -113 -61q-84 0 -119 70q-15 32 -18 93z" />
    <glyph glyph-name="Gcommaaccent" unicode="&#x122;" horiz-adv-x="826" 
d="M740 598l-35 -104l-6 3q-20 73 -91.5 119t-164.5 46q-129 0 -203.5 -88t-74.5 -240q0 -150 75 -235q83 -94 221 -94q57 0 105.5 19t65.5 48q13 22 13 76v62q0 42 -10 64t-34 34q-21 10 -75 22v7q54 -3 126 -3q65 0 147 2v-6q-43 -14 -51 -31.5t-8 -95.5v-128
q-122 -92 -286 -92q-170 0 -284.5 99.5t-114.5 247.5q0 155 111 254.5t283 99.5q78 0 159.5 -24t131.5 -62zM397 -200l-3 8q21 10 35 30.5t14 40.5q0 9 -4 9q-1 0 -10 -4q-1 -1 -8 -1q-12 0 -20.5 8.5t-8.5 21.5q0 14 10.5 24t24.5 10q18 0 30 -15t12 -37q0 -67 -72 -95z
" />
    <glyph glyph-name="gcommaaccent" unicode="&#x123;" horiz-adv-x="694" 
d="M668 629l-34 -95q-19 22 -35.5 30t-42.5 8q-53 0 -84 -38q143 -62 143 -175q0 -76 -65.5 -130t-166.5 -61q-20 -1 -95 -1q-60 0 -60 -25q0 -16 20.5 -24.5t70.5 -13.5q186 -16 256 -39q42 -14 66 -41.5t24 -62.5q0 -43 -28 -77t-80 -54q-92 -37 -212 -37
q-129 0 -213.5 39.5t-84.5 99.5q0 50 57 84q34 19 111 36q-40 10 -56.5 22.5t-16.5 32.5q0 26 28 45.5t78 28.5q-54 24 -89 48q-73 51 -73 130q0 44 25 84.5t68 67.5q68 42 164 42q54 0 102 -12q77 90 194 90q3 0 29 -2zM351 531q-82 0 -128 -44.5t-46 -124.5
q0 -84 45 -128.5t130 -44.5q83 0 128.5 44.5t45.5 124.5q0 83 -45 128t-130 45zM319 39q-93 0 -139 -26q-23 -12 -37.5 -35.5t-14.5 -47.5q0 -55 59.5 -85.5t166.5 -30.5t172 32t65 85q0 44 -51 72q-29 16 -91.5 26t-129.5 10zM384 807l8 -7q-53 -62 -50 -108v-2q14 3 18 3
q20 0 33.5 -14t13.5 -35t-14.5 -35.5t-34.5 -14.5q-25 0 -39.5 18t-14.5 50q0 89 80 145z" />
    <glyph glyph-name="Imacron" unicode="&#x12a;" horiz-adv-x="308" 
d="M258 5v-7q-53 4 -116 4q-52 0 -92 -4v7q24 7 35 17.5t18.5 56.5t8.5 109.5t1 206.5v122q0 80 -8.5 108t-34.5 37v7q35 -4 76 -4q48 0 93 4v-7q-26 -9 -34.5 -37t-8.5 -108v-122q0 -143 1 -207t8.5 -110t18 -56t34.5 -17zM7 777v32h301v-32h-301z" />
    <glyph glyph-name="imacron" unicode="&#x12b;" horiz-adv-x="259" 
d="M46 501v6q94 17 128 33v-10v-66v-54v-231q0 -101 13 -138q12 -31 43 -36v-7q-52 4 -108 4q-46 0 -85 -4v7q33 6 46.5 45.5t13.5 128.5v32q0 213 -6 249t-45 41zM-27 662v32h292v-32h-292z" />
    <glyph glyph-name="Iogonek" unicode="&#x12e;" horiz-adv-x="308" 
d="M258 5v-7q-5 1 -9 1l-14 -7q-35 -17 -56 -42.5t-21 -52.5q0 -23 15 -38.5t37 -15.5q14 0 22.5 4.5t28.5 21.5l15 -15q-50 -62 -108 -62q-33 0 -55.5 21t-22.5 52q0 82 124 136l-69 1q-54 0 -95 -4v7q24 8 35 18.5t18.5 56t8.5 109t1 206.5v122q0 80 -8.5 108t-34.5 37v7
q35 -4 76 -4q48 0 93 4v-7q-26 -9 -34.5 -37t-8.5 -108v-122q0 -143 1 -207t8.5 -110t18 -56t34.5 -17z" />
    <glyph glyph-name="iogonek" unicode="&#x12f;" horiz-adv-x="259" 
d="M231 5v-7q-16 1 -22 2q-89 -38 -89 -100q0 -25 14.5 -41t36.5 -16q24 0 51 26l16 -16q-50 -62 -108 -62q-34 0 -56.5 21t-22.5 53q0 87 122 136q-28 1 -51 1q-43 0 -84 -4v7q33 6 46.5 45.5t13.5 128.5v32q0 213 -6 249t-45 41v6q94 17 128 33v-10v-66v-54v-231
q0 -101 13 -138q12 -31 43 -36zM128 720q21 0 36 -15t15 -37q0 -20 -15 -35t-36 -15t-36 15t-15 36t15 36t36 15z" />
    <glyph glyph-name="Idotaccent" unicode="&#x130;" horiz-adv-x="308" 
d="M258 5v-7q-53 4 -116 4q-52 0 -92 -4v7q24 8 35 18.5t18.5 56t8.5 109t1 206.5v122q0 80 -8.5 108t-34.5 37v7q35 -4 76 -4q48 0 93 4v-7q-26 -9 -34.5 -37t-8.5 -108v-122q0 -143 1 -207t8.5 -110t18 -56t34.5 -17zM161 839q22 0 37 -15.5t15 -37.5q0 -21 -15.5 -36
t-36.5 -15t-36.5 15.5t-15.5 36.5q0 22 15 37t37 15z" />
    <glyph glyph-name="dotlessi" unicode="&#x131;" horiz-adv-x="259" 
d="M47 501v6q94 17 128 33v-10v-66v-54v-231q0 -101 13 -138q12 -31 43 -36v-7q-52 4 -108 4q-46 0 -85 -4v7q33 6 46.5 45.5t13.5 128.5v32q0 213 -6 249t-45 41z" />
    <glyph glyph-name="Kcommaaccent" unicode="&#x136;" horiz-adv-x="778" 
d="M574 -2l-98 147q-61 91 -85 120.5t-51 48.5q-37 26 -75 26q-36 0 -52.5 -20.5t-16.5 -66.5v-18q0 -159 18 -198q12 -25 46 -32v-7q-55 4 -121 4q-52 0 -89 -4v7q24 8 35 18t18.5 56t8.5 109.5t1 206.5v122q0 81 -9.5 108.5t-40.5 36.5v7q37 -4 81 -4q49 0 92 4v-7
q-25 -9 -32.5 -37t-7.5 -108v-172l139 112q118 94 148.5 123t30.5 48q0 23 -26 34v7q40 -4 89 -4q55 0 110 4v-7q-57 -21 -115 -59.5t-203 -153.5l-107 -83q120 -5 170 -33t114 -125q83 -118 120.5 -154t90.5 -49v-7q-47 4 -102 4q-46 0 -81 -4zM335 -200l-3 8
q21 11 34.5 31t13.5 40q0 9 -4 9q-1 0 -9 -4q-2 -1 -8 -1q-12 0 -20.5 8.5t-8.5 21.5q0 14 10 24t25 10q18 0 29.5 -14.5t11.5 -37.5q0 -67 -71 -95z" />
    <glyph glyph-name="kcommaaccent" unicode="&#x137;" horiz-adv-x="643" 
d="M618 0h-149q-21 25 -73 115q-51 89 -82 126q-47 56 -93 56q-54 0 -54 -85v-33q0 -101 15 -136q12 -29 52 -38v-7q-53 4 -117 4q-53 0 -94 -4v7q51 17 58 85q5 39 10.5 165t5.5 206v32q0 119 -4 157.5t-18 48.5q-13 8 -35 10v7q72 14 131 39q-4 -100 -4 -230v-223l91 68
q78 58 107 86t29 44q0 23 -30 30v5q74 -3 101 -3q13 0 113 3v-5q-74 -21 -112 -43t-172 -122l-61 -44h22q70 0 117 -38q23 -19 36 -35.5t66 -98.5q48 -73 76 -101t68 -43v-5zM271 -198l-3 8q20 10 33.5 30t13.5 40q0 9 -4 9q-1 0 -9 -4q-2 -1 -7 -1q-13 0 -21 8.5t-8 21.5
q0 14 10 23.5t24 9.5q18 0 29.5 -14.5t11.5 -36.5q0 -65 -70 -94z" />
    <glyph glyph-name="Lacute" unicode="&#x139;" horiz-adv-x="732" 
d="M715 139l-41 -139h-508q-60 0 -116 -2v7q59 14 70 73q12 61 12 317v122q0 81 -11 108.5t-46 36.5v7q41 -4 87 -4q53 0 110 4v-7q-35 -9 -46 -37t-11 -108v-130q3 -220 5 -260t11 -62q11 -24 39 -33.5t90 -9.5q182 0 273 55q36 23 76 65zM184 712h-38l101 95
q38 35 51.5 45t26.5 10q14 0 24.5 -9.5t10.5 -22.5t-16.5 -26t-73.5 -44z" />
    <glyph glyph-name="lacute" unicode="&#x13a;" horiz-adv-x="257" 
d="M233 5v-7q-53 4 -118 4q-52 0 -92 -4v7q25 8 37.5 22t20.5 59t10 111t2 197v99q-1 57 -5 169q-1 28 -11.5 40t-36.5 14v6q67 11 127 33q-4 -100 -4 -230v-131q0 -242 13 -316q8 -59 57 -73zM86 765h-39l102 95q36 35 50.5 45t27.5 10q14 0 24.5 -9.5t10.5 -22.5
t-16.5 -26t-73.5 -44z" />
    <glyph glyph-name="Lcommaaccent" unicode="&#x13b;" horiz-adv-x="732" 
d="M715 139l-41 -139h-508q-60 0 -116 -2v7q59 14 70 73q12 61 12 317v122q0 81 -11 108.5t-46 36.5v7q41 -4 87 -4q53 0 110 4v-7q-35 -9 -46 -37t-11 -108v-130q3 -220 5 -260t11 -62q11 -24 39 -33.5t90 -9.5q182 0 273 55q36 23 76 65zM333 -200l-3 8q21 11 34.5 31
t13.5 40q0 9 -4 9q-1 0 -9 -4q-2 -1 -8 -1q-12 0 -20.5 8.5t-8.5 21.5q0 14 10 24t25 10q18 0 29.5 -14.5t11.5 -37.5q0 -67 -71 -95z" />
    <glyph glyph-name="lcommaaccent" unicode="&#x13c;" horiz-adv-x="257" 
d="M233 5v-7q-53 4 -118 4q-52 0 -92 -4v7q25 8 37.5 22t20.5 59t10 111t2 197v99q-1 57 -5 169q-1 28 -11.5 40t-36.5 14v6q67 11 127 33q-4 -100 -4 -230v-131q0 -242 13 -316q8 -59 57 -73zM95 -198l-3 8q20 11 34 31t14 39q0 9 -4 9q-1 0 -9 -4q-2 -1 -8 -1
q-12 0 -20.5 8.5t-8.5 21.5q0 14 10 23.5t25 9.5q17 0 29 -14.5t12 -36.5q0 -65 -71 -94z" />
    <glyph glyph-name="Lcaron" unicode="&#x13d;" horiz-adv-x="732" 
d="M715 139l-41 -139h-508q-60 0 -116 -2v7q59 14 70 73q12 61 12 317v122q0 81 -11 108.5t-46 36.5v7q41 -4 87 -4q53 0 110 4v-7q-35 -9 -46 -37t-11 -108v-130q3 -220 5 -260t11 -62q11 -24 39 -33.5t90 -9.5q182 0 273 55q36 23 76 65zM350 456l-8 7q52 58 50 108v2
q-14 -3 -18 -3q-20 0 -33.5 14t-13.5 35t14.5 35.5t34.5 14.5q25 0 39.5 -18t14.5 -50q0 -89 -80 -145z" />
    <glyph glyph-name="lcaron" unicode="&#x13e;" horiz-adv-x="337" 
d="M233 5v-7q-53 4 -118 4q-52 0 -92 -4v7q25 8 37.5 22t20.5 59t10 111t2 197v99q-1 57 -5 169q-1 28 -11.5 40t-36.5 14v6q67 11 127 33q-4 -100 -4 -230v-131q0 -242 13 -316q8 -59 57 -73zM257 534l-8 7q53 61 50 108v2q-13 -3 -18 -3q-20 0 -33.5 14t-13.5 35
t14.5 35.5t34.5 14.5q25 0 39.5 -18t14.5 -50q0 -89 -80 -145z" />
    <glyph glyph-name="Lslash" unicode="&#x141;" horiz-adv-x="732" 
d="M215 342l214 160v-50l-213 -160q2 -171 9 -208q8 -36 36 -49t99 -13q182 0 273 55q36 23 76 65l6 -3l-41 -139h-508q-62 0 -116 -2v7q35 9 50.5 29t22 63.5t7.5 136.5l-74 -56v50l75 57v232q0 81 -11 109t-45 36v7q40 -4 87 -4q53 0 110 4v-7q-35 -8 -46 -36t-11 -109
v-175z" />
    <glyph glyph-name="lslash" unicode="&#x142;" horiz-adv-x="281" 
d="M244 467v-44l-69 -52q1 -102 2.5 -158t5 -100t12 -63t19.5 -29t31 -16v-7q-53 4 -118 4q-52 0 -92 -4v7q31 8 44.5 34.5t19 87t6.5 198.5l-68 -51v43l68 51v125q0 154 -7 191q-6 29 -46 32v6q67 11 127 33q-4 -100 -4 -230v-111z" />
    <glyph glyph-name="Nacute" unicode="&#x143;" horiz-adv-x="843" 
d="M720 -27l-564 620v-230q0 -114 2.5 -175.5t12.5 -103t25 -56.5t43 -23v-7q-76 4 -105 4q-40 0 -91 -4v7q40 9 57 37q20 32 25.5 91.5t5.5 229.5v154q0 77 -13 103.5t-57 41.5v7q39 -4 83 -4q43 0 82 4l469 -523v208q0 139 -10 212q-8 55 -40 78q-9 7 -35 18v7
q39 -4 84 -4q52 0 105 4v-7q-21 -8 -32 -13.5t-21.5 -22t-14.5 -32.5t-7 -57.5t-3.5 -83.5t-0.5 -123v-357zM422 712h-38l101 95q38 35 51.5 45t26.5 10q14 0 24.5 -9.5t10.5 -22.5t-16.5 -26t-73.5 -44z" />
    <glyph glyph-name="nacute" unicode="&#x144;" horiz-adv-x="688" 
d="M655 5v-7q-51 4 -107 4q-45 0 -81 -4v7q31 6 42 42.5t11 131.5v92q0 133 -36 186q-44 63 -132 63q-86 0 -132.5 -70t-46.5 -200v-71q0 -101 12 -139q9 -30 40 -35v-7q-45 4 -101 4q-46 0 -81 -4v7q31 6 42 42.5t11 131.5v32q0 203 -7 243q-5 35 -43 40v7q59 12 121 39
q-4 -70 -4 -130v-17q33 86 83 123.5t132 37.5q59 0 107 -22t73 -59q22 -34 30.5 -81.5t8.5 -141.5v-71q0 -98 13 -139q11 -30 45 -35zM320 601h-32l140 134q27 24 42 24q14 0 22.5 -8t8.5 -21q0 -12 -11.5 -23t-42.5 -30z" />
    <glyph glyph-name="Ncommaaccent" unicode="&#x145;" horiz-adv-x="843" 
d="M720 -27l-564 620v-230q0 -114 2.5 -175.5t12.5 -103t25 -56.5t43 -23v-7q-76 4 -105 4q-40 0 -91 -4v7q40 9 57 37q20 32 25.5 91.5t5.5 229.5v154q0 77 -13 103.5t-57 41.5v7q39 -4 83 -4q43 0 82 4l469 -523v208q0 139 -10 212q-8 55 -40 78q-9 7 -35 18v7
q39 -4 84 -4q52 0 105 4v-7q-21 -8 -32 -13.5t-21.5 -22t-14.5 -32.5t-7 -57.5t-3.5 -83.5t-0.5 -123v-357zM388 -200l-3 8q21 11 34.5 31t13.5 40q0 9 -4 9q-1 0 -9 -4q-2 -1 -8 -1q-12 0 -20.5 8.5t-8.5 21.5q0 14 10 24t25 10q18 0 29.5 -14.5t11.5 -37.5q0 -67 -71 -95z
" />
    <glyph glyph-name="ncommaaccent" unicode="&#x146;" horiz-adv-x="688" 
d="M655 5v-7q-51 4 -107 4q-45 0 -81 -4v7q31 6 42 42.5t11 131.5v92q0 133 -36 186q-44 63 -132 63q-86 0 -132.5 -70t-46.5 -200v-71q0 -101 12 -139q9 -30 40 -35v-7q-45 4 -101 4q-46 0 -81 -4v7q31 6 42 42.5t11 131.5v32q0 203 -7 243q-5 35 -43 40v7q59 12 121 39
q-4 -70 -4 -130v-17q33 86 83 123.5t132 37.5q59 0 107 -22t73 -59q22 -34 30.5 -81.5t8.5 -141.5v-71q0 -98 13 -139q11 -30 45 -35zM311 -198l-3 8q20 11 34 31t14 39q0 9 -4 9q-1 0 -9 -4q-2 -1 -8 -1q-12 0 -20.5 8.5t-8.5 21.5q0 14 10 23.5t25 9.5q17 0 29 -14.5
t12 -36.5q0 -65 -71 -94z" />
    <glyph glyph-name="Ncaron" unicode="&#x147;" horiz-adv-x="843" 
d="M720 -27l-564 620v-230q0 -114 2.5 -175.5t12.5 -103t25 -56.5t43 -23v-7q-76 4 -105 4q-40 0 -91 -4v7q40 9 57 37q20 32 25.5 91.5t5.5 229.5v154q0 77 -13 103.5t-57 41.5v7q39 -4 83 -4q43 0 82 4l469 -523v208q0 139 -10 212q-8 55 -40 78q-9 7 -35 18v7
q39 -4 84 -4q52 0 105 4v-7q-21 -8 -32 -13.5t-21.5 -22t-14.5 -32.5t-7 -57.5t-3.5 -83.5t-0.5 -123v-357zM580 861l-121 -149h-55l-111 149h34l109 -90l109 90h35z" />
    <glyph glyph-name="ncaron" unicode="&#x148;" horiz-adv-x="688" 
d="M655 5v-7q-51 4 -107 4q-45 0 -81 -4v7q31 6 42 42.5t11 131.5v92q0 133 -36 186q-44 63 -132 63q-86 0 -132.5 -70t-46.5 -200v-71q0 -101 12 -139q9 -30 40 -35v-7q-45 4 -101 4q-46 0 -81 -4v7q31 6 42 42.5t11 131.5v32q0 203 -7 243q-5 35 -43 40v7q59 12 121 39
q-4 -70 -4 -130v-17q33 86 83 123.5t132 37.5q59 0 107 -22t73 -59q22 -34 30.5 -81.5t8.5 -141.5v-71q0 -98 13 -139q11 -30 45 -35zM513 762l-122 -163h-46l-121 163h29l116 -103l114 103h30z" />
    <glyph glyph-name="Omacron" unicode="&#x14c;" horiz-adv-x="884" 
d="M441 684q167 0 276 -100.5t109 -254.5q0 -147 -110.5 -246.5t-273.5 -99.5q-164 0 -274 100t-110 251q0 149 110 249.5t273 100.5zM441 662q-127 0 -203 -93q-70 -83 -70 -236q0 -150 70 -236q75 -92 204 -92q127 0 200.5 87t73.5 237q0 157 -70 240q-76 93 -205 93z
M258 777v32h367v-32h-367z" />
    <glyph glyph-name="omacron" unicode="&#x14d;" horiz-adv-x="710" 
d="M355 553q134 0 223 -89q81 -80 81 -198q0 -116 -88.5 -197.5t-215.5 -81.5q-128 0 -215.5 81.5t-87.5 201.5q0 119 87.5 201t215.5 82zM355 531q-121 0 -169 -92q-37 -69 -37 -169t37 -169q48 -92 169 -92q122 0 170 92q37 72 37 166q0 104 -37 172q-48 92 -170 92z
M172 662v32h367v-32h-367z" />
    <glyph glyph-name="Ohungarumlaut" unicode="&#x150;" horiz-adv-x="884" 
d="M441 684q167 0 276 -100.5t109 -254.5q0 -147 -110.5 -246.5t-273.5 -99.5q-164 0 -274 100t-110 251q0 149 110 249.5t273 100.5zM441 662q-127 0 -203 -93q-70 -83 -70 -236q0 -150 70 -236q75 -92 204 -92q127 0 200.5 87t73.5 237q0 157 -70 240q-76 93 -205 93z
M364 707h-31l87 113q26 33 34 39.5t20 6.5q13 0 23 -10t10 -23q0 -10 -6.5 -17.5t-31.5 -26.5zM517 707h-32l110 112q29 29 39.5 36.5t22.5 7.5q13 0 22.5 -9.5t9.5 -22.5q0 -11 -8 -20t-32 -23z" />
    <glyph glyph-name="ohungarumlaut" unicode="&#x151;" horiz-adv-x="710" 
d="M355 553q134 0 223 -89q81 -80 81 -198q0 -116 -88.5 -197.5t-215.5 -81.5q-128 0 -215.5 81.5t-87.5 201.5q0 119 87.5 201t215.5 82zM355 531q-121 0 -169 -92q-37 -69 -37 -169t37 -169q48 -92 169 -92q122 0 170 92q37 72 37 166q0 104 -37 172q-48 92 -170 92z
M290 596h-26l78 123q21 32 28 38.5t20 6.5q14 0 23.5 -8.5t9.5 -20.5q0 -10 -6.5 -18.5t-30.5 -30.5zM426 596h-29l101 122q27 31 34 36.5t20 5.5t22 -8.5t9 -21.5q0 -11 -7 -18.5t-42 -33.5z" />
    <glyph glyph-name="OE" unicode="&#x152;" horiz-adv-x="1159" 
d="M941 667l36 -132l-7 -3q-53 64 -119 88.5t-186 24.5h-71v-284h73q124 0 171.5 16.5t65.5 65.5h7v-184h-7q-15 48 -62.5 64t-177.5 16h-70v-70q0 -117 6.5 -167.5t22.5 -63.5q20 -16 92 -16q54 0 119 13.5t108 33.5q47 24 85 76l6 -2l-50 -143h-186l-153 1q-31 1 -60 1
q-41 0 -93 -7q-64 -8 -103 -8q-139 0 -234.5 100t-95.5 246q0 150 96.5 248.5t242.5 98.5q23 0 74 -7q58 -6 64 -6h406zM511 166v389q0 60 -42 81q-32 17 -77 17q-103 0 -163.5 -86t-60.5 -234t60.5 -233.5t165.5 -85.5q61 0 89 36.5t28 115.5z" />
    <glyph glyph-name="oe" unicode="&#x153;" horiz-adv-x="1178" 
d="M1116 214l19 -16q-25 -98 -99.5 -155t-178.5 -57q-147 0 -250 122q-99 -121 -251 -121q-129 0 -216.5 82t-87.5 201q0 120 87.5 201.5t216.5 81.5q153 0 254 -124q100 124 244 124q103 0 182 -61.5t91 -151.5h-462q-6 -24 -6 -61q0 -93 36 -162q25 -49 71.5 -76
t107.5 -27q88 0 151 52t91 148zM355 531q-121 0 -169 -92q-37 -69 -37 -169t37 -168q48 -93 169 -93q122 0 170 93q37 71 37 166q0 103 -37 171q-48 92 -170 92zM669 361h355q0 77 -46 124t-122 47q-152 0 -187 -171z" />
    <glyph glyph-name="Racute" unicode="&#x154;" horiz-adv-x="834" 
d="M206 339v-38q0 -207 19 -255q11 -31 47 -41v-7q-56 4 -125 4q-56 0 -97 -4v7q52 14 63 73q10 57 10 315v124q0 81 -10 108.5t-43 36.5v5h292q129 0 195 -12t102 -41q55 -44 55 -106q0 -44 -26.5 -81t-73.5 -57q-45 -18 -135 -25q94 -25 136 -63.5t75 -130.5
q31 -84 51.5 -113t51.5 -33v-7q-36 4 -81 4q-37 0 -65 -4q-20 35 -61 159q-25 77 -55 117.5t-71 52.5q-36 12 -135 12h-119zM206 361h140q88 0 131.5 8.5t76.5 31.5q50 37 50 109q0 37 -15.5 66t-41.5 43q-51 26 -182 26h-159v-284zM365 712h-39l102 95q37 35 51 45t27 10
q14 0 24.5 -9.5t10.5 -22.5t-16.5 -26t-73.5 -44z" />
    <glyph glyph-name="racute" unicode="&#x155;" horiz-adv-x="416" 
d="M387 550l-37 -105q-25 29 -53 29q-52 0 -84 -58.5t-32 -153.5v-83q0 -101 14 -139q11 -29 47 -35v-7q-44 4 -107 4q-57 0 -97 -4v7q38 6 52 42.5t14 131.5v32q0 195 -7 249q-6 36 -46 41v6q72 11 131 33q-4 -89 -4 -130v-10q25 65 80.5 108t113.5 43q8 0 15 -1zM212 601
h-32l140 134q25 24 42 24q14 0 22.5 -8t8.5 -21q0 -12 -11.5 -23t-42.5 -30z" />
    <glyph glyph-name="Rcommaaccent" unicode="&#x156;" horiz-adv-x="834" 
d="M206 339v-38q0 -207 19 -255q11 -31 47 -41v-7q-56 4 -125 4q-56 0 -97 -4v7q52 14 63 73q10 57 10 315v124q0 81 -10 108.5t-43 36.5v5h292q129 0 195 -12t102 -41q55 -44 55 -106q0 -44 -26.5 -81t-73.5 -57q-45 -18 -135 -25q94 -25 136 -63.5t75 -130.5
q31 -84 51.5 -113t51.5 -33v-7q-36 4 -81 4q-37 0 -65 -4q-20 35 -61 159q-25 77 -55 117.5t-71 52.5q-36 12 -135 12h-119zM206 361h140q88 0 131.5 8.5t76.5 31.5q50 37 50 109q0 37 -15.5 66t-41.5 43q-51 26 -182 26h-159v-284zM384 -200l-3 8q21 11 34.5 31t13.5 40
q0 9 -4 9q-1 0 -9 -4q-2 -1 -8 -1q-12 0 -20.5 8.5t-8.5 21.5q0 14 10 24t25 10q18 0 29.5 -14.5t11.5 -37.5q0 -67 -71 -95z" />
    <glyph glyph-name="rcommaaccent" unicode="&#x157;" horiz-adv-x="416" 
d="M387 550l-37 -105q-25 29 -53 29q-52 0 -84 -58.5t-32 -153.5v-83q0 -101 14 -139q11 -29 47 -35v-7q-44 4 -107 4q-57 0 -97 -4v7q38 6 52 42.5t14 131.5v32q0 195 -7 249q-6 36 -46 41v6q72 11 131 33q-4 -89 -4 -130v-10q25 65 80.5 108t113.5 43q8 0 15 -1zM114 -198
l-3 8q21 10 34.5 30t13.5 40q0 9 -4 9q-1 0 -9 -4q-2 -1 -8 -1q-12 0 -20.5 8.5t-8.5 21.5q0 14 10 23.5t25 9.5q17 0 29 -14.5t12 -36.5q0 -65 -71 -94z" />
    <glyph glyph-name="Rcaron" unicode="&#x158;" horiz-adv-x="834" 
d="M206 339v-38q0 -207 19 -255q11 -31 47 -41v-7q-56 4 -125 4q-56 0 -97 -4v7q52 14 63 73q10 57 10 315v124q0 81 -10 108.5t-43 36.5v5h292q129 0 195 -12t102 -41q55 -44 55 -106q0 -44 -26.5 -81t-73.5 -57q-45 -18 -135 -25q94 -25 136 -63.5t75 -130.5
q31 -84 51.5 -113t51.5 -33v-7q-36 4 -81 4q-37 0 -65 -4q-20 35 -61 159q-25 77 -55 117.5t-71 52.5q-36 12 -135 12h-119zM206 361h140q88 0 131.5 8.5t76.5 31.5q50 37 50 109q0 37 -15.5 66t-41.5 43q-51 26 -182 26h-159v-284zM535 861l-122 -149h-54l-112 149h34
l110 -90l108 90h36z" />
    <glyph glyph-name="rcaron" unicode="&#x159;" horiz-adv-x="416" 
d="M387 550l-37 -105q-25 29 -53 29q-52 0 -84 -58.5t-32 -153.5v-83q0 -101 14 -139q11 -29 47 -35v-7q-44 4 -107 4q-57 0 -97 -4v7q38 6 52 42.5t14 131.5v32q0 195 -7 249q-6 36 -46 41v6q72 11 131 33q-4 -89 -4 -130v-10q25 65 80.5 108t113.5 43q8 0 15 -1zM366 762
l-122 -163h-45l-122 163h30l116 -103l114 103h29z" />
    <glyph glyph-name="Sacute" unicode="&#x15a;" horiz-adv-x="771" 
d="M708 611l-41 -104l-7 3q-2 64 -78 108t-183 44q-77 0 -125 -36q-53 -42 -53 -100q0 -51 40 -81t133 -50l78 -16q139 -30 190 -71q23 -18 37 -48.5t14 -62.5q0 -91 -84 -152.5t-207 -61.5q-186 0 -359 88l46 116l6 -3q6 -59 47 -96q44 -38 112 -60.5t141 -22.5
q91 0 149 42.5t58 109.5q0 64 -53 93q-33 18 -118 39l-91 22q-124 30 -176 70q-49 38 -49 106q0 86 75 141.5t190 55.5q150 0 308 -73zM405 712h-39l101 95q38 35 51.5 45t26.5 10q14 0 24.5 -9.5t10.5 -22.5t-17 -26.5t-72 -43.5z" />
    <glyph glyph-name="sacute" unicode="&#x15b;" horiz-adv-x="630" 
d="M558 504l-33 -94l-6 3q-12 52 -64.5 84.5t-123.5 32.5q-67 0 -109 -33t-42 -86q0 -42 30.5 -64t101.5 -32l74 -10q72 -10 103 -19.5t53 -30.5q38 -33 38 -87q0 -39 -24.5 -78.5t-63.5 -61.5q-71 -41 -182 -41q-134 0 -257 55l35 98l7 -2q7 -56 70.5 -92.5t153.5 -36.5
q80 0 130.5 33.5t50.5 87.5q0 46 -36 69q-33 20 -105 29l-84 11q-84 11 -129.5 49.5t-45.5 98.5q0 38 21.5 73t58.5 57q64 37 159 37q111 0 219 -50zM308 601h-32l140 134q25 24 42 24q14 0 22.5 -8t8.5 -21q0 -12 -11.5 -23.5t-41.5 -29.5z" />
    <glyph glyph-name="Scedilla" unicode="&#x15e;" horiz-adv-x="771" 
d="M407 -16l-17 -39q20 3 29 3q35 0 56.5 -18t21.5 -47q0 -37 -31 -58.5t-83 -21.5q-50 0 -104 23l16 30q49 -20 79 -20q26 0 41 11t15 30q0 17 -14.5 27.5t-37.5 10.5q-13 0 -29 -5l-7 6l32 69q-172 14 -311 86l46 116l6 -3q6 -59 47 -96q44 -38 112 -60.5t141 -22.5
q91 0 149 42.5t58 109.5q0 64 -53 93q-33 18 -118 39l-91 22q-124 30 -176 70q-49 38 -49 106q0 86 75 141.5t190 55.5q150 0 308 -73l-41 -104l-7 3q-2 64 -78 108t-183 44q-77 0 -125 -36q-53 -42 -53 -100q0 -51 40 -81t133 -50l78 -16q139 -30 190 -71q51 -39 51 -111
q0 -91 -83.5 -152.5t-205.5 -61.5q-8 0 -17 1z" />
    <glyph glyph-name="scedilla" unicode="&#x15f;" horiz-adv-x="630" 
d="M336 -13l-16 -37q19 3 27 3q31 0 50.5 -17t19.5 -44q0 -35 -30.5 -57.5t-78.5 -22.5q-42 0 -91 20l15 29q46 -19 74 -19q23 0 36.5 11.5t13.5 31.5q0 18 -12 28.5t-33 10.5q-11 0 -25 -5l-8 6l28 62q-140 3 -253 55l35 98l7 -2q7 -56 70.5 -93t153.5 -37q80 0 130.5 34
t50.5 87q0 44 -31.5 66.5t-109.5 32.5l-84 11q-84 11 -129.5 49.5t-45.5 98.5q0 38 21.5 73t58.5 57q64 37 159 37q111 0 219 -50l-33 -94l-6 3q-12 52 -64.5 84.5t-123.5 32.5q-67 0 -109 -33t-42 -86q0 -42 30.5 -64t101.5 -32l74 -10q72 -10 103 -19.5t53 -30.5
q38 -35 38 -87q0 -53 -38 -97.5t-102 -65.5q-50 -15 -104 -18z" />
    <glyph glyph-name="Scaron" unicode="&#x160;" horiz-adv-x="771" 
d="M708 611l-41 -104l-7 3q-2 64 -78 108t-183 44q-77 0 -125 -36q-53 -42 -53 -100q0 -51 40 -81t133 -50l78 -16q139 -30 190 -71q23 -18 37 -48.5t14 -62.5q0 -91 -84 -152.5t-207 -61.5q-186 0 -359 88l46 116l6 -3q6 -59 47 -96q44 -38 112 -60.5t141 -22.5
q91 0 149 42.5t58 109.5q0 64 -53 93q-33 18 -118 39l-91 22q-124 30 -176 70q-49 38 -49 106q0 86 75 141.5t190 55.5q150 0 308 -73zM577 875l-121 -150h-55l-111 150h34l109 -91l109 91h35z" />
    <glyph glyph-name="scaron" unicode="&#x161;" horiz-adv-x="630" 
d="M558 504l-33 -94l-6 3q-12 52 -64.5 84.5t-123.5 32.5q-67 0 -109 -33t-42 -86q0 -42 30.5 -64t101.5 -32l74 -10q72 -10 103 -19.5t53 -30.5q38 -33 38 -87q0 -39 -24.5 -78.5t-63.5 -61.5q-71 -41 -182 -41q-134 0 -257 55l35 98l7 -2q7 -56 70.5 -92.5t153.5 -36.5
q80 0 130.5 33.5t50.5 87.5q0 46 -36 69q-33 20 -105 29l-84 11q-84 11 -129.5 49.5t-45.5 98.5q0 38 21.5 73t58.5 57q64 37 159 37q111 0 219 -50zM487 762l-122 -163h-46l-121 163h29l116 -103l114 103h30z" />
    <glyph glyph-name="Tcommaaccent" unicode="&#x162;" horiz-adv-x="773" 
d="M265 -2v7q58 14 69 73q11 63 11 319v121q0 92 -9 108q-12 19 -61 19q-79 0 -133 -24t-105 -82h-7l43 128h627l43 -128h-7q-50 57 -105 81.5t-133 24.5q-49 0 -61 -19q-9 -16 -9 -108v-121q0 -256 11 -319q11 -59 69 -73v-7q-45 4 -122 4q-76 0 -121 -4zM353 -200l-3 8
q21 11 35 31t14 40q0 9 -4 9q-1 0 -10 -4q-1 -1 -8 -1q-12 0 -20.5 8.5t-8.5 21.5q0 14 10.5 24t24.5 10q18 0 30 -15t12 -37q0 -67 -72 -95z" />
    <glyph glyph-name="tcommaaccent" unicode="&#x163;" horiz-adv-x="313" 
d="M187 674l-2 -157h106l-9 -28h-98l-2 -130q-1 -140 6 -211t23.5 -102.5t50.5 -38.5v-7h-114q-26 9 -35 35q-12 33 -12 99q0 46 5 264l2 91h-84l6 19q58 23 90 59.5t57 106.5h10zM138 -198l-3 8q20 10 33.5 30t13.5 40q0 9 -4 9q-1 0 -9 -4q-2 -1 -7 -1q-13 0 -21 8.5
t-8 21.5q0 14 10 23.5t24 9.5q18 0 29.5 -14.5t11.5 -36.5q0 -65 -70 -94z" />
    <glyph glyph-name="Tcaron" unicode="&#x164;" horiz-adv-x="773" 
d="M265 -2v7q58 14 69 73q11 63 11 319v121q0 92 -9 108q-12 19 -61 19q-79 0 -133 -24t-105 -82h-7l43 128h627l43 -128h-7q-50 57 -105 81.5t-133 24.5q-49 0 -61 -19q-9 -16 -9 -108v-121q0 -256 11 -319q11 -59 69 -73v-7q-45 4 -122 4q-76 0 -121 -4zM535 861
l-121 -149h-55l-111 149h34l109 -90l109 90h35z" />
    <glyph glyph-name="tcaron" unicode="&#x165;" horiz-adv-x="352" 
d="M187 674l-2 -157h106l-9 -28h-98l-2 -130q-1 -140 6 -211t23.5 -102.5t50.5 -38.5v-7h-114q-26 9 -35 35q-12 33 -12 99q0 46 5 264l2 91h-84l6 19q58 23 90 59.5t57 106.5h10zM259 596l-8 8q55 61 50 107v2q-13 -3 -18 -3q-20 0 -33.5 14t-13.5 35t14.5 35.5t34.5 14.5
q25 0 39.5 -18t14.5 -50q0 -89 -80 -145z" />
    <glyph glyph-name="Umacron" unicode="&#x16a;" horiz-adv-x="802" 
d="M40 662v7q39 -4 82 -4q51 0 111 4v-7q-37 -9 -48.5 -37t-11.5 -108v-189q0 -94 9.5 -144.5t34.5 -88.5q57 -87 198 -87q150 0 205 85q47 71 47 229v95q0 148 -24 198q-15 32 -58 47v7q37 -4 80 -4q49 0 100 4v-7q-35 -8 -50 -32q-16 -25 -19.5 -62t-3.5 -165v-94
q0 -167 -57 -240q-69 -86 -235 -86q-86 0 -156 22t-104 59q-30 31 -42 76.5t-12 123.5l1 62q3 51 3 62v129q0 81 -9.5 108.5t-40.5 36.5zM228 777v32h366v-32h-366z" />
    <glyph glyph-name="umacron" unicode="&#x16b;" horiz-adv-x="645" 
d="M621 0h-89q-17 36 -33 106q-37 -63 -86 -91t-123 -28q-100 0 -157 49q-60 49 -60 166l3 120v23q0 107 -7 126t-46 23v7q71 11 133 39q-4 -56 -4 -130v-145q0 -120 28 -173q37 -72 134 -72q52 0 95 23.5t62 62.5q28 60 28 207v32q0 106 -7 125.5t-45 23.5v7q68 11 132 39
q-4 -56 -4 -130v-131q0 -155 8.5 -206.5t37.5 -65.5v-7zM139 662v32h367v-32h-367z" />
    <glyph glyph-name="Uring" unicode="&#x16e;" horiz-adv-x="802" 
d="M40 662v7q39 -4 82 -4q51 0 111 4v-7q-37 -9 -48.5 -37t-11.5 -108v-189q0 -94 9.5 -144.5t34.5 -88.5q57 -87 198 -87q150 0 205 85q47 71 47 229v95q0 148 -24 198q-15 32 -58 47v7q37 -4 80 -4q49 0 100 4v-7q-35 -8 -50 -32q-16 -25 -19.5 -62t-3.5 -165v-94
q0 -167 -57 -240q-69 -86 -235 -86q-86 0 -156 22t-104 59q-30 31 -42 76.5t-12 123.5l1 62q3 51 3 62v129q0 81 -9.5 108.5t-40.5 36.5zM416 865q33 0 56 -23t23 -56q0 -32 -23.5 -55t-55.5 -23t-55 23t-23 56q0 32 23 55t55 23zM417 824q-16 0 -27 -11t-11 -26
q0 -16 11 -27t27 -11q15 0 26 11t11 26q0 16 -11 27t-26 11z" />
    <glyph glyph-name="uring" unicode="&#x16f;" horiz-adv-x="645" 
d="M621 0h-89q-17 36 -33 106q-37 -63 -86 -91t-123 -28q-100 0 -157 49q-60 49 -60 166l3 120v23q0 107 -7 126t-46 23v7q71 11 133 39q-4 -56 -4 -130v-145q0 -120 28 -173q37 -72 134 -72q52 0 95 23.5t62 62.5q28 60 28 207v32q0 106 -7 125.5t-45 23.5v7q68 11 132 39
q-4 -56 -4 -130v-131q0 -155 8.5 -206.5t37.5 -65.5v-7zM336 759q33 0 56 -23t23 -57q0 -32 -23.5 -55t-55.5 -23q-33 0 -56 23.5t-23 55.5q0 33 23 56t56 23zM336 718q-16 0 -27 -11t-11 -27t11 -27t27 -11t27 11t11 27t-11 27t-27 11z" />
    <glyph glyph-name="Uhungarumlaut" unicode="&#x170;" horiz-adv-x="802" 
d="M40 662v7q39 -4 82 -4q51 0 111 4v-7q-37 -9 -48.5 -37t-11.5 -108v-189q0 -94 9.5 -144.5t34.5 -88.5q57 -87 198 -87q150 0 205 85q47 71 47 229v95q0 148 -24 198q-15 32 -58 47v7q37 -4 80 -4q49 0 100 4v-7q-35 -8 -50 -32q-16 -25 -19.5 -62t-3.5 -165v-94
q0 -167 -57 -240q-69 -86 -235 -86q-86 0 -156 22t-104 59q-30 31 -42 76.5t-12 123.5l1 62q3 51 3 62v129q0 81 -9.5 108.5t-40.5 36.5zM328 707h-30l86 113q22 29 32.5 37.5t21.5 8.5q13 0 23 -10.5t10 -22.5q0 -10 -6.5 -17.5t-31.5 -26.5zM481 707h-32l110 112
q28 28 39.5 36t22.5 8q14 0 23.5 -9.5t9.5 -22.5q0 -11 -8 -19.5t-33 -23.5z" />
    <glyph glyph-name="uhungarumlaut" unicode="&#x171;" horiz-adv-x="645" 
d="M621 0h-89q-17 36 -33 106q-37 -63 -86 -91t-123 -28q-100 0 -157 49q-60 49 -60 166l3 120v23q0 107 -7 126t-46 23v7q71 11 133 39q-4 -56 -4 -130v-145q0 -120 28 -173q37 -72 134 -72q52 0 95 23.5t62 62.5q28 60 28 207v32q0 106 -7 125.5t-45 23.5v7q68 11 132 39
q-4 -56 -4 -130v-131q0 -155 8.5 -206.5t37.5 -65.5v-7zM248 596h-26l79 123q20 32 27.5 38.5t20.5 6.5t22.5 -8.5t9.5 -20.5q0 -10 -6.5 -18.5t-30.5 -30.5zM384 596h-29l101 122q26 30 33.5 36t20.5 6t22 -8.5t9 -21.5q0 -11 -6.5 -18t-41.5 -34z" />
    <glyph glyph-name="Uogonek" unicode="&#x172;" horiz-adv-x="802" 
d="M566 -131l15 -15q-48 -62 -108 -62q-33 0 -55.5 21t-22.5 52q0 81 113 131q-55 -13 -112 -13q-82 0 -152 22t-104 59q-30 31 -42 76.5t-12 123.5l1 62q3 53 3 62v129q0 81 -9.5 108.5t-40.5 36.5v7q39 -4 82 -4q51 0 111 4v-7q-37 -9 -48.5 -37t-11.5 -108v-189
q0 -94 9.5 -144.5t34.5 -88.5q57 -87 198 -87q150 0 205 85q47 71 47 229v95q0 148 -24 198q-15 32 -58 47v7q37 -4 80 -4q49 0 100 4v-7q-35 -8 -50 -32q-16 -25 -19.5 -62t-3.5 -165v-94q0 -176 -65 -249q-14 -16 -88 -66q-43 -28 -59.5 -49.5t-16.5 -47.5q0 -23 15 -38.5
t37 -15.5q14 0 22.5 4.5t28.5 21.5z" />
    <glyph glyph-name="uogonek" unicode="&#x173;" horiz-adv-x="645" 
d="M621 0h-13q-90 -38 -90 -100q0 -25 14.5 -41t36.5 -16q25 0 51 26l16 -16q-50 -62 -108 -62q-34 0 -56.5 21t-22.5 53q0 41 31 76.5t89 58.5h-37q-17 36 -33 106q-37 -63 -86 -91t-123 -28q-100 0 -157 49q-60 51 -60 166l3 120v23q0 107 -7 126t-46 23v7q71 11 133 39
q-4 -56 -4 -130v-145q0 -120 28 -173q37 -72 134 -72q52 0 95 23.5t62 62.5q28 60 28 207v32q0 106 -7 125.5t-45 23.5v7q68 11 132 39q-4 -56 -4 -130v-131q0 -155 8.5 -206.5t37.5 -65.5v-7z" />
    <glyph glyph-name="Ydieresis" unicode="&#x178;" horiz-adv-x="760" 
d="M412 299v-151q0 -82 12 -109t51 -34v-7q-55 4 -120 4q-53 0 -93 -4v7q37 7 48.5 30.5t11.5 92.5v158l-164 213q-5 6 -24 31t-28 38q-38 50 -58.5 68.5t-48.5 25.5v7q48 -4 104 -4q66 0 130 4v-7q-44 -15 -44 -49q0 -25 27 -64q30 -43 59 -79l121 -146l78 90
q74 86 107 141q18 30 18 56q0 21 -8 30.5t-34 20.5v7q39 -4 84 -4q53 0 106 4v-7q-32 -13 -75.5 -56.5t-139.5 -161.5zM258 839q22 0 37 -15.5t15 -37.5q0 -21 -15.5 -36t-36.5 -15t-36.5 15.5t-15.5 36.5q0 22 15 37t37 15zM504 839q22 0 37 -15.5t15 -37.5
q0 -21 -15.5 -36t-36.5 -15t-36.5 15.5t-15.5 36.5q0 22 15 37t37 15z" />
    <glyph glyph-name="Zacute" unicode="&#x179;" horiz-adv-x="711" 
d="M651 141l-47 -141h-564l252 337q131 177 161.5 221t30.5 59q0 28 -58 28h-39q-131 0 -206 -26t-115 -84l-6 3l42 129h527l-233 -322q-71 -97 -162 -240q-21 -33 -21 -48q0 -20 20 -27.5t76 -7.5h31q208 0 305 121zM345 712h-39l102 95q37 35 51 45t27 10q14 0 24.5 -9.5
t10.5 -22.5t-16.5 -26t-73.5 -44z" />
    <glyph glyph-name="zacute" unicode="&#x17a;" horiz-adv-x="628" 
d="M581 125l-39 -125h-495l328 421q8 10 48 59q12 15 12 22q0 10 -10 13t-41 3h-60q-90 0 -142.5 -21t-102.5 -78l-7 2l41 119h452l-227 -286l-65 -85q-37 -48 -40 -52q-45 -59 -45 -74q0 -13 14 -17t59 -4h41q120 0 185 35q38 20 88 71zM308 601h-32l140 134q25 24 42 24
q14 0 22.5 -8t8.5 -21q0 -12 -11.5 -23t-42.5 -30z" />
    <glyph glyph-name="Zdotaccent" unicode="&#x17b;" horiz-adv-x="711" 
d="M651 141l-47 -141h-564l252 337q131 177 161.5 221t30.5 59q0 28 -58 28h-39q-131 0 -206 -26t-115 -84l-6 3l42 129h527l-233 -322q-71 -97 -162 -240q-21 -33 -21 -48q0 -20 20 -27.5t76 -7.5h31q208 0 305 121zM366 839q22 0 37 -15.5t15 -37.5q0 -21 -15.5 -36
t-36.5 -15t-36.5 15.5t-15.5 36.5q0 22 15 37t37 15z" />
    <glyph glyph-name="zdotaccent" unicode="&#x17c;" horiz-adv-x="628" 
d="M581 125l-39 -125h-495l328 421q8 10 48 59q12 15 12 22q0 10 -10 13t-41 3h-60q-90 0 -142.5 -21t-102.5 -78l-7 2l41 119h452l-227 -286l-65 -85q-37 -48 -40 -52q-45 -59 -45 -74q0 -13 14 -17t59 -4h41q120 0 185 35q38 20 88 71zM339 732q22 0 37 -15.5t15 -37.5
q0 -21 -15.5 -36t-36.5 -15t-36.5 15.5t-15.5 36.5q0 22 15 37t37 15z" />
    <glyph glyph-name="Zcaron" unicode="&#x17d;" horiz-adv-x="711" 
d="M651 141l-47 -141h-564l252 337q131 177 161.5 221t30.5 59q0 28 -58 28h-39q-131 0 -206 -26t-115 -84l-6 3l42 129h527l-233 -322q-71 -97 -162 -240q-21 -33 -21 -48q0 -20 20 -27.5t76 -7.5h31q208 0 305 121zM507 861l-122 -149h-55l-111 149h34l109 -90l109 90h36z
" />
    <glyph glyph-name="zcaron" unicode="&#x17e;" horiz-adv-x="628" 
d="M581 125l-39 -125h-495l328 421q8 10 48 59q12 15 12 22q0 10 -10 13t-41 3h-60q-90 0 -142.5 -21t-102.5 -78l-7 2l41 119h452l-227 -286l-65 -85q-37 -48 -40 -52q-45 -59 -45 -74q0 -13 14 -17t59 -4h41q120 0 185 35q38 20 88 71zM479 762l-121 -163h-46l-121 163h29
l116 -103l114 103h29z" />
    <glyph glyph-name="florin" unicode="&#x192;" 
d="M542 757l-48 -86l-5 2q-22 38 -52 38q-31 0 -55.5 -33t-34.5 -88l-10 -50h101l-15 -28h-91l-23 -117l-72 -368q-19 -98 -85 -147q-39 -29 -88 -47.5t-89 -18.5q-9 0 -18 1l48 86l5 -2q22 -38 53 -38q30 0 54.5 32.5t34.5 87.5l80 414l23 117h-94l17 28h83l1 5
q18 98 85 147q40 30 88.5 48t88.5 18q9 0 18 -1z" />
    <glyph glyph-name="Scommaaccent" unicode="&#x218;" horiz-adv-x="771" 
d="M708 611l-41 -104l-7 3q-2 64 -78 108t-183 44q-77 0 -125 -36q-53 -42 -53 -100q0 -51 40 -81t133 -50l78 -16q139 -30 190 -71q23 -18 37 -48.5t14 -62.5q0 -91 -84 -152.5t-207 -61.5q-186 0 -359 88l46 116l6 -3q6 -59 47 -96q44 -38 112 -60.5t141 -22.5
q91 0 149 42.5t58 109.5q0 64 -53 93q-33 18 -118 39l-91 22q-124 30 -176 70q-49 38 -49 106q0 86 75 141.5t190 55.5q150 0 308 -73zM363 -200l-3 8q21 10 35 30.5t14 40.5q0 9 -4 9q-1 0 -10 -4q-1 -1 -8 -1q-12 0 -20.5 8.5t-8.5 21.5q0 14 10.5 24t24.5 10q18 0 30 -15
t12 -37q0 -67 -72 -95z" />
    <glyph glyph-name="scommaaccent" unicode="&#x219;" horiz-adv-x="630" 
d="M558 504l-33 -94l-6 3q-12 52 -64.5 84.5t-123.5 32.5q-67 0 -109 -33t-42 -86q0 -42 30.5 -64t101.5 -32l74 -10q72 -10 103 -19.5t53 -30.5q38 -33 38 -87q0 -39 -24.5 -78.5t-63.5 -61.5q-71 -41 -182 -41q-134 0 -257 55l35 98l7 -2q7 -56 70.5 -92.5t153.5 -36.5
q80 0 130.5 33.5t50.5 87.5q0 46 -36 69q-33 20 -105 29l-84 11q-84 11 -129.5 49.5t-45.5 98.5q0 38 21.5 73t58.5 57q64 37 159 37q111 0 219 -50zM282 -198l-3 8q20 11 34 31t14 39q0 9 -4 9q-1 0 -9 -4q-2 -1 -8 -1q-12 0 -20.5 8.5t-8.5 21.5q0 14 10 23.5t25 9.5
q17 0 29 -14.5t12 -36.5q0 -65 -71 -94z" />
    <glyph glyph-name="circumflex" unicode="&#x2c6;" 
d="M106 598l122 163h45l122 -163h-30l-116 103l-113 -103h-30z" />
    <glyph glyph-name="caron" unicode="&#x2c7;" 
d="M395 762l-122 -163h-45l-122 163h30l116 -103l113 103h30z" />
    <glyph glyph-name="breve" unicode="&#x2d8;" 
d="M113 762h28q5 -50 33.5 -78t75.5 -28q46 0 75 28t34 78h27q-3 -68 -23 -102q-37 -61 -113 -61q-84 0 -119 70q-15 32 -18 93z" />
    <glyph glyph-name="dotaccent" unicode="&#x2d9;" 
d="M250 732q22 0 37 -15.5t15 -37.5q0 -21 -15.5 -36t-36.5 -15t-36.5 15.5t-15.5 36.5q0 22 15 37t37 15z" />
    <glyph glyph-name="ring" unicode="&#x2da;" 
d="M249 759q33 0 56 -23t23 -57q0 -32 -23.5 -55t-55.5 -23t-55 23.5t-23 55.5q0 33 23 56t55 23zM250 718q-16 0 -27 -11t-11 -27t11 -27t27 -11q15 0 26 11t11 27t-11 27t-26 11z" />
    <glyph glyph-name="ogonek" unicode="&#x2db;" 
d="M290 0h39q-90 -38 -90 -100q0 -25 14.5 -41t36.5 -16q25 0 51 26l15 -16q-49 -62 -107 -62q-34 0 -56.5 21t-22.5 53q0 41 32 76.5t88 58.5z" />
    <glyph glyph-name="tilde" unicode="&#x2dc;" 
d="M102 631h-25q27 95 105 95q32 0 88 -24q48 -21 68 -21q39 0 59 48h25q-25 -97 -102 -97q-32 0 -107 30q-32 13 -54 13q-38 0 -57 -44z" />
    <glyph glyph-name="hungarumlaut" unicode="&#x2dd;" 
d="M103 596h-26l79 123q21 32 28 38.5t20 6.5t22.5 -8.5t9.5 -20.5q0 -16 -37 -49zM239 596h-29l102 122q26 31 33 36.5t20 5.5t22 -8.5t9 -21.5q0 -11 -7 -18.5t-41 -33.5z" />
    <glyph glyph-name="endash" unicode="&#x2013;" 
d="M27 363h453l-8 -47h-452z" />
    <glyph glyph-name="emdash" unicode="&#x2014;" horiz-adv-x="933" 
d="M10 363h920l-8 -47h-919z" />
    <glyph glyph-name="quoteleft" unicode="&#x2018;" horiz-adv-x="220" 
d="M145 753l8 -7q-52 -56 -50 -107v-3q14 3 18 3q20 0 33.5 -14t13.5 -35q0 -20 -14.5 -34.5t-34.5 -14.5q-25 0 -39.5 18t-14.5 50q0 89 80 144z" />
    <glyph glyph-name="quoteright" unicode="&#x2019;" horiz-adv-x="220" 
d="M75 534l-8 7q53 61 50 108v2q-13 -3 -18 -3q-19 0 -33 14.5t-14 34.5q0 21 14.5 35.5t34.5 14.5q25 0 39.5 -18t14.5 -50q0 -89 -80 -145z" />
    <glyph glyph-name="quotesinglbase" unicode="&#x201a;" horiz-adv-x="220" 
d="M75 -117l-8 7q53 61 50 107v3q-13 -3 -18 -3q-20 0 -33.5 14t-13.5 35t14.5 35.5t34.5 14.5q25 0 39.5 -18t14.5 -50q0 -89 -80 -145z" />
    <glyph glyph-name="quotedblleft" unicode="&#x201c;" horiz-adv-x="373" 
d="M298 753l8 -7q-53 -61 -50 -107v-3q14 3 18 3q20 0 33.5 -14t13.5 -35q0 -20 -14.5 -34.5t-34.5 -14.5q-25 0 -39.5 18t-14.5 50q0 88 80 144zM145 753l8 -7q-52 -56 -50 -107v-3q14 3 18 3q20 0 33.5 -14t13.5 -35q0 -20 -14.5 -34.5t-34.5 -14.5q-25 0 -39.5 18
t-14.5 50q0 89 80 144z" />
    <glyph glyph-name="quotedblright" unicode="&#x201d;" horiz-adv-x="373" 
d="M75 534l-8 7q53 61 50 108v2q-13 -3 -18 -3q-19 0 -33 14.5t-14 34.5q0 21 14.5 35.5t34.5 14.5q25 0 39.5 -18t14.5 -50q0 -89 -80 -145zM228 534l-8 7q52 59 50 108v2q-14 -3 -18 -3q-20 0 -33.5 14t-13.5 35t14.5 35.5t34.5 14.5q25 0 39.5 -18t14.5 -50
q0 -89 -80 -145z" />
    <glyph glyph-name="quotedblbase" unicode="&#x201e;" horiz-adv-x="373" 
d="M75 -117l-8 7q50 57 50 105v5q-13 -3 -18 -3q-20 0 -33.5 14t-13.5 35t14.5 35.5t34.5 14.5q25 0 39.5 -18t14.5 -50q0 -89 -80 -145zM228 -117l-8 7q53 59 50 110q-14 -3 -18 -3q-20 0 -33.5 14t-13.5 35t14.5 35.5t34.5 14.5q25 0 39.5 -18t14.5 -50q0 -90 -80 -145z
" />
    <glyph glyph-name="dagger" unicode="&#x2020;" 
d="M470 465l-195 4l3 -536h-54l2 536l-197 -4v56l197 -3l-4 229h58l-3 -229l193 3v-56z" />
    <glyph glyph-name="daggerdbl" unicode="&#x2021;" 
d="M470 465l-195 4v-258l195 4v-56l-193 3l3 -229h-57l3 229l-197 -3v56l197 -4v258l-197 -4v56l197 -3l-3 229h57l-3 -229l193 3v-56z" />
    <glyph glyph-name="bullet" unicode="&#x2022;" horiz-adv-x="667" 
d="M337 477q55 0 95.5 -41t40.5 -97q0 -58 -40.5 -98.5t-97.5 -40.5t-98 40.5t-41 97.5q0 58 41 98.5t100 40.5z" />
    <glyph glyph-name="ellipsis" unicode="&#x2026;" horiz-adv-x="660" 
d="M110 93q21 0 35.5 -14.5t14.5 -35.5q0 -20 -15 -35t-35 -15t-35 15t-15 35t15 35t35 15zM330 93q21 0 35.5 -14.5t14.5 -35.5q0 -20 -15 -35t-35 -15t-35 15t-15 35t15 35t35 15zM550 93q21 0 35.5 -14.5t14.5 -35.5q0 -20 -15 -35t-35 -15t-35 15t-15 35t15 35t35 15z
" />
    <glyph glyph-name="perthousand" unicode="&#x2030;" horiz-adv-x="822" 
d="M159 677q55 0 90 -41t35 -106q0 -62 -35.5 -103t-89.5 -41q-55 0 -90 41t-35 105q0 63 35 104t90 41zM158 655q-63 0 -63 -123q0 -124 63 -124t63 122q0 125 -63 125zM451 667h40l-419 -667h-40zM366 281q55 0 90 -41t35 -106q0 -62 -35.5 -103t-89.5 -41q-55 0 -90 41
t-35 105q0 63 35 104t90 41zM365 259q-63 0 -63 -123q0 -124 63 -124t63 122q0 125 -63 125zM666 281q55 0 90 -41t35 -106q0 -62 -35.5 -103t-89.5 -41q-55 0 -90 41t-35 105q0 63 35 104t90 41zM665 259q-63 0 -63 -123q0 -124 63 -124t63 122q0 125 -63 125z" />
    <glyph glyph-name="guilsinglleft" unicode="&#x2039;" horiz-adv-x="283" 
d="M176 456q2 -2 8 -6q20 -15 40 -25q-77 -104 -103 -147q28 -47 96 -141q2 -2 8 -11q-21 -8 -48 -27q-39 69 -120 178q4 6 81 121q21 31 38 58z" />
    <glyph glyph-name="guilsinglright" unicode="&#x203a;" horiz-adv-x="283" 
d="M106 99q-6 4 -8 6q-17 13 -41 25q78 105 104 147q-35 56 -97 141q-1 1 -2.5 3.5t-3 4.5t-2.5 4q20 6 49 26q39 -70 119 -178q-8 -13 -64 -97q-47 -69 -54 -82z" />
    <glyph glyph-name="fraction" unicode="&#x2044;" horiz-adv-x="40" 
d="M164 667h36l-323 -667h-37z" />
    <glyph glyph-name="Euro" unicode="&#x20ac;" horiz-adv-x="638" 
d="M177 382h323l-20 -32h-306q-1 -13 -1 -32q0 -29 3 -56h249l-20 -32h-224q19 -102 80.5 -162.5t147.5 -60.5q75 0 128 51q22 19 40 61l3 -1v-93q-26 -17 -74 -27.5t-95 -10.5q-124 0 -213.5 65.5t-117.5 177.5h-80l19 32h54q-4 24 -4 55q0 22 2 33h-71l19 32h56
q12 66 48 121q93 143 280 143q137 0 221 -63l-44 -71l-7 4q-15 51 -61 80.5t-111 29.5q-92 0 -151.5 -64.5t-72.5 -179.5z" />
    <glyph glyph-name="trademark" unicode="&#x2122;" horiz-adv-x="1099" 
d="M169 266v10q36 7 43 40t7 189v71q0 52 -5.5 62t-33.5 10q-49 0 -81.5 -14t-64.5 -49l-11 1l28 81h396l28 -81l-11 -1q-32 35 -64.5 49t-81.5 14q-28 0 -33.5 -10t-5.5 -62v-71q0 -85 1 -122.5t7 -64.5t14 -32.5t28 -9.5v-10q-38 3 -80 3q-43 0 -80 -3zM804 353l161 315
q32 -2 41 -2q4 0 46 2v-10q-20 -5 -26 -20.5t-6 -62.5v-127q0 -104 7.5 -134.5t34.5 -37.5v-10q-60 2 -80 2q-41 0 -63 -2v10q26 6 33.5 37t7.5 135v155l-180 -353l-176 357v-146q0 -132 11 -155q11 -21 36 -31v-9q-25 2 -66 2q-34 0 -53 -2v9q25 10 33 28q15 30 15 212v60
q0 46 -6.5 60.5t-30.5 23.5v9q38 -2 49 -2q12 0 50 2z" />
    <glyph glyph-name="Delta" unicode="&#x2206;" horiz-adv-x="667" 
d="M351 683l308 -683h-652l307 683h37zM311 592l-207 -460q-14 -31 -14 -48q0 -18 10.5 -25.5t35.5 -7.5h412z" />
    <glyph glyph-name="summation" unicode="&#x2211;" horiz-adv-x="667" 
d="M57 667h514v-159h-18q-11 77 -46 105t-123 28h-228l206 -388l-238 -439h265q60 0 93.5 10.5t59.5 38.5q35 36 52 102h18l-33 -198h-522l243 449z" />
    <glyph glyph-name="minus" unicode="&#x2212;" 
d="M23 362h454v-42h-454v42z" />
    <glyph glyph-name="radical" unicode="&#x221a;" horiz-adv-x="667" 
d="M650 823v-27h-119l-185 -796h-80l-87 360h-162v27h228l79 -337l182 773h144z" />
    <glyph glyph-name="lessequal" unicode="&#x2264;" 
d="M457 614v-37l-313 -204l313 -209v-99l-414 277v6zM43 34h414v-34h-414v34z" />
    <glyph glyph-name="greaterequal" unicode="&#x2265;" 
d="M43 34h414v-34h-414v34zM43 65v37l313 204l-313 210v98l414 -278v-6z" />
    <glyph glyph-name="lozenge" unicode="&#x25ca;" horiz-adv-x="667" 
d="M334 693l259 -359l-259 -360l-260 360zM334 604l-197 -270l197 -271l197 271z" />
    <glyph glyph-name="commaaccent" unicode="&#xf6c3;" 
d="M217 -198l-3 8q20 10 33.5 30t13.5 40q0 9 -4 9q-1 0 -9 -4q-2 -1 -7 -1q-13 0 -21 8.5t-8 21.5q0 14 10 23.5t24 9.5q18 0 29.5 -14.5t11.5 -36.5q0 -65 -70 -94z" />
    <glyph glyph-name="nbspace" horiz-adv-x="300" 
 />
    <glyph glyph-name="sfthyphen" horiz-adv-x="155" 
d="M10 363h141l-7 -47h-141z" />
    <glyph glyph-name="middot" horiz-adv-x="220" 
d="M110 330q21 0 35.5 -14.5t14.5 -35.5q0 -20 -15 -35t-35 -15t-35 15t-15 35t15 35t35 15z" />
    </font>
</defs>
</svg>
