<?xml version="1.0" standalone="no"?>
<!DOCTYPE svg PUBLIC "-//W3C//DTD SVG 1.1//EN" "http://www.w3.org/Graphics/SVG/1.1/DTD/svg11.dtd" >
<svg xmlns="http://www.w3.org/2000/svg" xmlns:xlink="http://www.w3.org/1999/xlink" version="1.1">
<metadata>
Created by FontForge 20170731 at Sat Apr 18 11:47:17 2015
 By Aleksey,,,
2013 Iconian Fonts - www.iconian.com
</metadata>
<defs>
<font id="AirstrikeChrome" horiz-adv-x="787" >
  <font-face 
    font-family="Airstrike Chrome"
    font-weight="400"
    font-stretch="normal"
    units-per-em="1000"
    panose-1="0 0 0 0 0 0 0 0 0 0"
    ascent="800"
    descent="-200"
    x-height="544"
    cap-height="544"
    bbox="-185 -173 1378 735"
    underline-thickness="50"
    underline-position="-175"
    unicode-range="U+0020-20AC"
  />
<missing-glyph horiz-adv-x="500" 
 />
    <glyph glyph-name=".notdef" horiz-adv-x="500" 
 />
    <glyph glyph-name=".null" horiz-adv-x="0" 
 />
    <glyph glyph-name="nonmarkingreturn" horiz-adv-x="500" 
 />
    <glyph glyph-name="space" unicode=" " horiz-adv-x="279" 
 />
    <glyph glyph-name="space" unicode="&#xa0;" horiz-adv-x="279" 
 />
    <glyph glyph-name="FL0021h" unicode="!" horiz-adv-x="280" 
d="M174 7h-68q10 -7 32 -7q21 0 36 7zM237 530l-3 -8h192l3 8h-192zM111 186l-5 -15h192l5 15h-192zM220 483l-9 -24h192l9 24h-192zM198 424l-10 -27h192l10 27h-192zM93 83h150q0 2 0.5 5t0.5 6q0 19 -13 32h-94q-30 -19 -44 -43zM176 364l-11 -30h192l11 30h-192zM237 67
h-152q-2 -6 -2 -9v-11q0 -17 8 -27h108q28 20 38 47zM155 305l-13 -34h192l13 34h-192zM133 245l-14 -37h192l14 37h-192zM69 47q0 7 1 13.5t6 20.5h8l-4 9q9 14 22.5 27t29.5 23h-21l-17 17h-7l13 37h-2l25 63h-2l25 62h7l-1 1h-8l23 58h13l-5 5h-8l22 55h16l-7 7h-8l21 52
h21l-11 11h-8l15 36h222l-3 -6l18 -17l-12 -30h-22l17 -17l-18 -46h-17l13 -13l-19 -49h-14l11 -11l-20 -52h-8l7 -7l-22 -56h-4l4 -4l-23 -59l-13 -37h-88q8 -8 13 -17l6 -6q19 -19 19 -43q0 -2 -0.5 -3t-0.5 -3v-16h-13l6 -9q-6 -14 -17 -28.5t-28 -25.5h-27l3 -12
q-10 -5 -20 -6.5t-20 -1.5q-11 0 -28 6.5t-42 22.5l-11 10q-9 5 -20 13h17q-5 12 -5 26z" />
    <glyph glyph-name="FL0022h" unicode="&#x22;" horiz-adv-x="358" 
d="M444 531q-18 0 -36 -9h65q-5 4 -12.5 6.5t-16.5 2.5zM299 531q-18 0 -36 -9h65q-5 4 -12.5 6.5t-16.5 2.5zM370 340h8q14 0 40 24h-72q6 -24 24 -24zM225 340h8q14 0 40 24h-72q6 -24 24 -24zM481 459l3 8q1 2 2 6.5t2 9.5h-121q-5 -8 -8 -16l-3 -8h125zM336 459l3 8
q1 2 2 6.5t2 9.5h-121q-5 -8 -8 -16l-3 -8h125zM343 397h107q5 7 10 13.5t8 13.5h-123q-1 -6 -1.5 -12.5t-0.5 -14.5zM198 397h107q12 13 18 27h-123q-1 -6 -1.5 -12.5t-0.5 -14.5zM444 545q12 0 32 -11t40 -26h-6l17 -17h-23l17 -17q-2 -13 -4 -20.5t-3 -11.5h-1l-5 -14
h-16l13 -13q-9 -20 -16 -30.5t-13 -18.5h-20l11 -11q-23 -20 -42 -33t-27 -13h-8q-6 0 -10.5 2.5t-9.5 6.5l-10 9q-11 4 -18 14.5t-12 25.5l-1 -1h-18l11 -11q-23 -20 -42 -33t-27 -13h-8q-6 0 -10.5 2.5t-9.5 6.5l-10 9q-22 10 -33 51h24l-5 5h-4l-13 13q0 24 3 42h18l-7 7
h-8l11 27q2 5 5.5 11.5t7.5 13.5h58l-11 11h-6l-5 24q25 13 49 13q12 0 32 -11t40 -26h-6l11 -11h41l-11 11h-6l-5 24q25 13 49 13zM342 383q-1 -3 -3 -5h11l-5 5h-3z" />
    <glyph glyph-name="FL0023h" unicode="#" horiz-adv-x="779" 
d="M162 7l-2 -7h192l2 7h-192zM429 0h192l2 7h-192zM811 522l3 8h-192l-3 -8h192zM542 522l3 8h-192l-3 -8h192zM605 483l-9 -24h192l9 24h-192zM336 483l-9 -24h192l9 24h-192zM453 67l-17 -47h192l17 47h-192zM184 67l-17 -47h192l17 47h-192zM870 397l29 27h-617l-29 -27
h617zM457 289h77l-7 -18h192l7 18h30l17 16h-617l-17 -16h126l-7 -18h192zM218 364l-32 -30h617l32 30h-617zM800 208l31 29h-124l3 8h-192l-3 -8h-77l3 8h-192l-3 -8h-32l-31 -29h617zM382 83l7 19h77l-7 -19h192l7 19h30l25 24h-617l-25 -24h126l-7 -19h192zM160 186
l-43 -40h617l43 40h-617zM933 438l-5 -5l18 -18l-52 -49h-22l11 -11l-55 -52h-14l7 -7l-40 -38h-28l-3 -7h116l-5 -5l18 -18l-54 -51h-1l-64 -60h1l-48 -46h-28l-7 -19l-20 -54l-1 -3l-7 -26h-216l-17 17h-7l10 35h2l17 48h-1v2h-22l-7 -19l-20 -54l-1 -3l-7 -26h-216
l-17 17h-7l10 35h2l17 48h-1v2h-106l-17 17h-10l54 52h1l57 54l60 57h28l3 6h-2v1h-106l-17 17h-10l46 44h12l-1 1h-10l61 58h22l-5 5h-10l58 55h44l-7 7h-8l21 52h21l-11 11h-8l15 36h222l-3 -6l18 -17l-12 -30h-22l17 -17l-15 -36h41l-7 7h-8l21 52h21l-11 11h-8l15 36
h222l-3 -6l18 -17l-12 -30h-22l17 -17l-15 -36h115zM484 258l-3 -7h24l3 6h-2v1h-22z" />
    <glyph glyph-name="FL0024h" unicode="$" horiz-adv-x="692" 
d="M527 662l-5 -14h126l5 14h-126zM505 602l-6 -17h126l6 17h-126zM246 -112l-10 -29h126l10 29h-126zM419 364l-10 -30h126l10 30h-126zM354 186l-14 -40h126l14 40h-126zM840 530h-234l4 13h-126l-4 -13h-150q-15 0 -36 -8h541q2 2 2.5 4t2.5 4zM173 364v-11v-19h211
q-6 3 -9 6q-2 2 -6 5.5t-4 4.5v5q0 6 1 9h-193zM268 -52l-19 -53h126l19 53h-126zM519 174v-12q0 -10 -2 -16h187q1 5 1.5 11t0.5 11v6q0 9 -1 12h-188q2 -10 2 -12zM397 -42l16 42h152q20 0 34 7h-540q-1 -2 -2 -3.5t-2 -3.5h232l-16 -42h126zM805 483h-566l-21 -24h567
l10 12zM725 397l27 27h-557q-4 -7 -7 -13.5t-6 -13.5h543zM651 305h-478v-10v-24h506q-5 10 -12.5 18t-15.5 16zM692 245h-515q6 -27 25 -37h500q-2 9 -4 18.5t-6 18.5zM699 126h-550q-7 -7 -16 -18t-20 -25h566q6 11 11 21.5t9 21.5zM669 67h-568q-10 -13 -18.5 -25
t-15.5 -22h555q27 18 47 47zM842 544l4 -9l14 -14l8 -19q-1 -1 -1 -2l-1 -1q-1 -3 -6 -8h-51l2 -3l14 -14l8 -19q-2 -2 -4 -4.5t-5 -6.5q-2 -3 -6.5 -8t-6.5 -8h-25l13 -13l-49 -49h-181l11 -11l-13 -36h85l7 -3q6 -6 12.5 -13.5t13.5 -17.5q15 -15 33 -45h-7l11 -11
q5 -11 8 -24.5t5 -27.5h-1q2 -9 2.5 -14t0.5 -9v-6q0 -8 -1 -16.5t-2 -16.5h-14l9 -12q-5 -16 -11 -28t-12 -23h-14l6 -11q-23 -32 -53 -52h-19l2 -10q-21 -10 -43 -10h-145l-12 -29l1 -1l-27 -75l-12 -36h-149l-17 17h-7l19 57h1l15 42h-2l9 25h-202l-17 17h-8q4 10 10 20
h-1q3 4 8 11.5l11 16.5t12.5 18t12.5 17h-1q18 23 33.5 42t25.5 29h180l13 37h-117q-8 6 -11 9l-8 8h-3q-26 17 -39 65h1v60h7l-1 1h-6v58h14l-5 5h-8l14 30t12 25h19l-7 7h-9q11 13 20.5 25t13.5 16v-1q1 1 1.5 2t1.5 2t2 3.5t3 4.5h73l-11 11h-6l-5 24q25 12 48 12h139
l4 13h28l-14 14h-7l15 45h155l-2 -6l18 -17l-13 -39h-25l-1 -3l8 -7h207zM503 634l14 42h155l-2 -5l18 -18l-13 -36h-148l-17 17h-7zM400 355q-2 -4 -2.5 -6.5t-1.5 -4.5h1l-1 -5v-1l10 28h-17z" />
    <glyph glyph-name="FL0025h" unicode="%" horiz-adv-x="820" 
d="M708 7h-153q24 -7 62 -7h50q23 0 41 7zM302 522h166q-30 8 -60 8h-66q-18 0 -40 -8zM109 7l-8 -7h171l8 7h-171zM742 530l-10 -8h173l10 8h-173zM189 397h108l6 16q2 2 3.5 5t3.5 6h-112q-2 -5 -3 -8.5t-2 -5.5t-2 -5.5t-2 -7.5zM527 408q1 3 1 8t1 8h-114v-6
q0 -14 -1 -15l-3 -6h114q2 10 2 11zM685 483l-29 -24h173l29 24h-173zM497 146h109l1 2q8 14 21.5 25t25.5 13h-136q-14 -18 -21 -40zM614 424l-33 -27h172l33 27h-172zM832 186h-140q16 -2 21 -11t5 -22v-7h113q4 19 1 40zM541 364l-36 -30h172l36 30h-172zM470 305
l-41 -34h172l41 34h-172zM397 245l-45 -37h172l45 37h-172zM326 186l-49 -40h172l49 40h-172zM220 459h307q-2 7 -3.5 13t-4.5 11h-277q-6 -6 -11.5 -12t-10.5 -12zM462 305h-262q9 -14 23 -21.5t32 -12.5h145q34 9 62 34zM253 126l-52 -43h172l52 43h-172zM182 67l-57 -47
h171l57 47h-171zM511 364h-125q-20 -15 -30 -15h-26q-14 0 -24 15h-121q0 -17 3 -30h303q5 7 10 14.5t10 15.5zM536 208h291q-7 21 -31 37h-216q-22 -13 -44 -37zM825 120l2 6h-114q-1 -1 -1.5 -2t-1.5 -2q-8 -14 -24.5 -26t-25.5 -12h-26q-13 0 -23.5 14t-10.5 28h-109v-5
q-3 -17 -1 -38h316q5 8 10 17.5t9 19.5zM793 67h-301q7 -30 33 -47h213q34 20 55 47zM692 508l44 36h219l-6 -5l18 -18l-38 -30h-38l17 -17l-56 -46h-28l13 -13l-59 -49h-26l11 -11l-63 -52h-15l7 -7l-46 -37h153q9 -7 17.5 -14.5t15.5 -18.5l2 -2q17 -17 29 -47h-9l9 -9
q1 -3 1 -9v-10q0 -6 -0.5 -13t-2.5 -18l1 -1l-7 -20v-1q-5 -11 -10 -21.5t-13 -22.5h-16l6 -12q-22 -27 -61 -51h-32l3 -12q-21 -8 -45 -8h-50q-18 0 -35 1.5t-33 6.5l-12 12h-15q-4 2 -7.5 4.5t-6.5 6.5l-6 6h-2q-30 17 -43 63h-1q0 1 -0.5 2t-0.5 3t-0.5 3.5t-0.5 3.5h1
v17v9q0 7 1 10l-2 -2h-2l-76 -63h-1l-76 -63l-23 -20h-204l-17 17h-11l23 20l17 15h1l58 48l76 63h-2l83 68h1l48 40h-97q-28 6 -50 28l-2 1q-24 16 -46 50h9l-1 1h-6q-2 12 -3.5 26t-1.5 32h11l-5 5h-6q0 1 0.5 3.5t0.5 3.5q2 5 3.5 11t4.5 14l2 -2l1 1l0.5 1.5l1.5 4.5
q-1 3 -1.5 3.5t-0.5 -0.5l2.5 7.5t3.5 7.5h41l-7 7h-5l-10 21q2 2 3.5 4t3.5 4q5 5 10.5 11.5t10.5 11.5h80l-11 11h-6l-5 26q11 5 24 7.5t24 2.5h66q39 0 69 -10l-1 -5l18 -17l-3 -15h37q2 -3 2.5 -5.5t2.5 -4.5l13 -13q5 -10 8.5 -21t6.5 -25h-10l13 -13q-4 -10 -4.5 -13
t-0.5 -5l49 41h28l-7 7h-11l63 52h33l-11 11h-11zM324 366h-1q4 -3 7 -3h26q5 0 25 15h20l-5 5h-8l13 26v19h-64l13 -13q-4 -5 -9 -13.5t-7 -11.5q-2 -2 -3 -5zM696 128q1 1 3 3.5t5 8.5v13q0 1 -2 9l-7 7q-1 1 -8 3v5h-12l1 -22q-10 -2 -21.5 -11.5t-17.5 -20.5l-4 -8h-2
v-9q0 -2 2 -8h1h26q6 0 17.5 9t18.5 21zM340 346l-7 7q4 -6 7 -7zM520 366l1 -1l1 1h-2zM557 379v-1h1zM183 423q-1 -1 -1 -2q0 1 1 2z" />
    <glyph glyph-name="FL0026h" unicode="&#x26;" horiz-adv-x="832" 
d="M218 0h284q61 0 93 7h-465q27 -7 88 -7zM777 530h-366q-26 0 -47 -2t-38 -6h445zM177 364l-6 -30h202l11 30h-207zM177 271h174l12 34h-193q0 -21 7 -34zM742 186h-203q-2 -6 -4 -11t-3 -7l-2 -5q-1 -1 -2.5 -3l-1.5 -2q-3 -2 -8 -5.5t-10 -6.5h221q4 9 7.5 19t5.5 21z
M97 146h221q-2 3 -4 6.5t-4 5.5l9 28h-204q-5 -11 -10 -21.5t-8 -18.5zM743 483h-503q-12 -12 -21 -24h505q5 6 9.5 12t9.5 12zM694 424h-494q-2 -5 -3 -9t-2 -6l-5 -12h478q7 7 13 13.5t13 13.5zM434 305l-40 -34h460l36 34h-456zM129 208h658l39 37h-462l-33 -29l10 29
h-168q-10 -7 -21.5 -15.5t-22.5 -21.5zM79 83h622q5 9 10.5 20t10.5 23h-632q-8 -28 -11 -43zM77 67v-6q0 -29 19 -41h541q35 17 55 47h-615zM779 544l5 -11l13 -12l9 -17q-5 -8 -10 -13h-48l2 -5l13 -12l9 -18q-2 -3 -5 -6t-5 -6l-12 -16h-49l13 -13l8 -19q-10 -10 -12 -13
l-17 -17h-284l11 -11l-20 -52h-9l7 -7l-3 -6l35 29h495l-5 -5l18 -18l-59 -56h-9l4 -4l-62 -59h-50l11 -13q-2 -9 -6.5 -20.5t-9.5 -25.5l2 -1q-8 -18 -15 -33t-13 -26h1q-1 -2 -1.5 -2.5t-1.5 -2.5q-1 0 -1 -1q-35 -47 -68 -63h-42l1 -13q-17 -4 -41.5 -5.5t-55.5 -1.5
h-284q-29 0 -51.5 1.5t-41.5 6.5l-12 12h-20q-4 3 -6.5 5t-4.5 4l-8 8h-3q-16 10 -22 23.5t-6 31.5v20h5l-3 4q2 8 6 21.5t9 33.5h10l-6 10q5 11 10.5 25t11.5 25h18l-8 15q11 14 22 22.5t20 15.5l3 1l2 1l4 4h4l-7 4q-5 8 -6.5 22t-1.5 34h5l-1 1h-7l12 58h17l-5 5h-8
l13 31q1 1 1 3t1 3q2 5 3.5 9t3.5 9h15l-7 7h-9q11 16 22 28.5t22 23.5h104l-11 11h-6l-2 28q17 4 40 6t52 2h368zM353 177l-12 -37h157l-4 15q7 4 12.5 7t4.5 2l4 3l2 2q0 1 1 2l2 6h-167z" />
    <glyph glyph-name="FL0027h" unicode="'" horiz-adv-x="213" 
d="M299 531q-18 0 -36 -9h65q-5 4 -12.5 6.5t-16.5 2.5zM225 340h8q14 0 40 24h-72q6 -24 24 -24zM336 459l3 8q1 2 2 6.5t2 9.5h-121q-5 -8 -8 -16l-3 -8h125zM198 397h107q12 13 18 27h-123q-1 -6 -1.5 -12.5t-0.5 -14.5zM299 545q12 0 32 -11t40 -26h-6l17 -17h-23
l17 -17q-2 -13 -4 -20.5t-3 -11.5h-1l-5 -14h-16l13 -13q-12 -27 -31 -49h-18l11 -11q-23 -20 -42 -33t-27 -13h-8q-6 0 -10.5 2.5t-9.5 6.5l-10 9q-22 10 -33 51h24l-5 5h-4l-13 13q0 24 3 42h18l-7 7h-8l11 27q2 5 5.5 11.5t7.5 13.5h58l-11 11h-6l-5 24q25 13 49 13z" />
    <glyph glyph-name="FL0028h" unicode="(" horiz-adv-x="442" 
d="M398 7h-152q36 -21 72 -30t59 -14q5 11 10.5 22t10.5 22zM327 522h241q5 5 8.5 10.5t8.5 10.5h-212q-25 -8 -46 -21zM183 364l-15 -30h192q7 15 18 30h-195zM204 397h204q10 8 20.5 13.5t21.5 5.5h17q2 1 9 8h-253q-5 -7 -9.5 -13.5t-9.5 -13.5zM276 483l-24 -24h261
q6 6 11.5 12t11.5 12h-260zM145 271h190q0 2 1 3l8 24q1 1 1 3q0 3 1 4h-190q-4 -9 -6.5 -17.5t-4.5 -16.5zM135 208h186q-1 3 -1 12v1q0 7 6 24h-188q-3 -20 -3 -37zM330 186h-194q1 -11 2 -21t3 -19h218q-8 9 -16 19t-13 21zM420 67h-243q20 -27 49 -47h178q5 13 9.5 25
t6.5 22zM379 126h-232q4 -13 9 -23.5t10 -19.5h256v2q-6 7 -17.5 17t-25.5 24zM325 508l-8 25q21 13 55 24h241q-1 -2 -2 -2.5t-2 -2.5l18 -18q-8 -10 -14 -18t-8 -11l-1 -1q-2 -2 -3.5 -4.5t-7.5 -8.5h-27l17 -17l-31 -31q-3 -3 -7 -7.5t-7 -7.5h-28l13 -13
q-9 -9 -17.5 -17t-15.5 -13h-20q-9 0 -19 -5.5t-20 -13.5h-23l11 -11q-11 -15 -19 -28t-13 -24h-17l7 -7q0 -1 -0.5 -7t-0.5 -7q0 -2 -0.5 -5.5t-3.5 -6.5l-8 -24h1q1 -1 1 -6h-9l4 -4q-10 -27 -10 -35v-1q0 -3 0.5 -7t3.5 -16h-1l6 -6q3 -8 8.5 -15.5t12.5 -15.5q0 -1 1 -1
l6 -2q4 -4 8 -7.5t7 -6.5q2 -2 6 -5.5t7 -7.5q7 -5 11.5 -10.5t8.5 -9.5v-4l8 -7q1 -2 6 -7l3 -3v-17h-8l6 -7q-2 -8 -6 -20t-10 -26l1 -1l-17 -34h-1l-7.5 -17.5t-7.5 -16.5q-26 6 -70 18t-109 50l-11 11q-5 2 -10.5 5.5t-10.5 6.5h9q-12 11 -25 25.5t-27 34.5h2
q-13 23 -20 51h-2q-4 14 -5.5 31.5t-2.5 36.5h7l-7 7q0 12 1 25.5t3 26.5h17l-11 15q2 7 5 16t11 29h7l-1 1h-8l29 58h38l-5 5h-5l-11 20q1 2 2 2.5t2 2.5q5 8 9.5 15.5t11.5 14.5h19l-7 7h-10l52 52h71l-11 11h-5z" />
    <glyph glyph-name="FL0029h" unicode=")" horiz-adv-x="441" 
d="M237 522h114q-30 13 -61 21h-43q-2 -5 -5 -10.5t-5 -10.5zM211 459h230q-6 7 -12 12.5t-13 11.5h-196q-3 -7 -5 -13t-4 -11zM296 334h196q-1 8 -1.5 15t-2.5 15h-212q7 -8 11.5 -15.5t8.5 -14.5zM493 305h-186q0 -3 0.5 -6t0.5 -5q-1 -3 -2.5 -9l-3.5 -14h187q4 16 4 34z
M245 397h233q-2 7 -5.5 13.5t-6.5 13.5h-257q16 -11 36 -27zM484 245h-190q-1 -2 -2 -5t-2 -7l-6 -17q-2 -7 -3 -8h190q4 9 7 18.5t6 18.5zM462 186h-191q-5 -11 -11.5 -21t-14.5 -19h197q10 19 20 40zM430 126h-202q-12 -13 -25 -20.5t-25 -7.5h-17l-18 -15h257
q8 11 15.5 21.5t14.5 21.5zM323 7h-251q-8 -11 -17 -21.5t-17 -22.5h170q29 0 58.5 12t56.5 32zM387 67h-261q-11 -11 -21.5 -23t-21.5 -24h257l24 22t23 25zM236 508l-10 14q-6 -8 -6 -6q0 4 6.5 17.5t11.5 23.5h56q23 -6 69 -25l-1 -5l17 -17l-4 -13h47l10 -10l13.5 -13.5
t25.5 -28.5h-3l7 -7h1v-1l8 -8l1 -1h-5l13 -13q2 -7 6 -14l1 -1q2 -4 4.5 -10t8.5 -24h-7l11 -11q3 -14 4 -26.5t3 -25.5h-17v-1l17 -17q0 -16 -4 -31v-14h-20l4 -4l10 -16q-1 -1 -1 -5l-1 -1v-1q-2 -4 -5.5 -14.5t-8.5 -21.5h-16l10 -15q-7 -16 -12.5 -26.5t-10.5 -20.5
h-18l8 -15q-8 -14 -16.5 -25.5t-16.5 -22.5h-17l6 -12q-12 -15 -25 -27.5t-26 -23.5h-18l4 -11q-28 -21 -59 -33.5t-63 -12.5h-190l-17 17h-8q20 31 29 43t12 14q2 5 3.5 6.5l3.5 3.5l0.5 0.5t0.5 1.5l3 3q10 11 21.5 24t21.5 24h-3l52 43h21q9 0 20.5 7.5t23.5 20.5h1
q11 14 19.5 27.5t16.5 26.5h-1l13 26l2 6q2 6 4 13t7 18h-1q2 6 5 19.5t5 18.5h1v4q0 1 -0.5 3t-0.5 5v12h3l-1 1h-1l-10 6q-5 9 -14.5 22t-22.5 30q-10 7 -24 16t-31 21l-9 8q-5 4 -10.5 7.5t-11.5 7.5h60l-7 7h-4l-12 17q1 2 1.5 5.5t1.5 6.5l4 -1l0.5 1.5l1.5 4.5
q-2 10 -2 4q2 3 3 7t3 7h40l-11 11h-4zM204 480q0 1 0.5 2l0.5 1q0 -1 -0.5 -2zM228 535q1 1 0 1v-1z" />
    <glyph glyph-name="FL0419h" unicode="*" horiz-adv-x="278" 
d="M234 424l22 -26l22 26h-44zM301 424l4 -26l42 26h-46zM391 585l5 10h-87l-3 -10h85zM252 483l-35 -24h169l-16 24h-118zM246 543l-14 -21h192v21h-178zM419 609l-3 -6l18 -17l-15 -29h19v-6l17 -17v-43h-73l5 -9l9 -8l30 -46h-34l13 -13l-89 -55l-17 17l-5 -3l-1 8
l-17 -20l-18 18l-2 -2l-43 50h-11l-17 17h-12l66 46h-7l-17 17h-9l32 49h70l-14 14h-7l11 38h121z" />
    <glyph glyph-name="FL002Bh" unicode="+" horiz-adv-x="493" 
d="M336 424l-10 -27h135l10 27h-135zM228 126l-10 -28h135l10 28h-135zM314 364l-11 -30h135l11 30h-135zM249 186l-14 -40h135l14 40h-135zM221 305l-36 -34h331l36 34h-331zM158 245l-39 -37h331l39 37h-331zM305 383l22 55h165l-3 -6l18 -17l-19 -49h-14l11 -11l-14 -36
h116l-5 -5l18 -18l-59 -56h-8l4 -4l-62 -59h-56l-21 -62h-1l-17 -48h-157l-17 17h-7l19 56l13 37h-120l-17 17h-10l68 65l63 60h76l-1 1h-8l23 58h13l-5 5h-8z" />
    <glyph glyph-name="FL002Ch" unicode="," horiz-adv-x="240" 
d="M88 -72h9q7 0 17 5.5t22 14.5h-75q8 -20 27 -20zM226 94q0 19 -13 32h-94q-30 -19 -44 -43h149q2 10 2 11zM57 -42h92q27 24 46 49h-142v-8q0 -10 1 -20.5t3 -20.5zM68 67l-14 -39q-1 -1 -1 -8h149q3 3 4 8l14 39h-152zM83 -91l-8 8q-23 11 -35 45h1q-1 5 -1.5 9.5
t-0.5 9.5v18v22q0 5 2 13l13 35h-4q15 26 31.5 43.5t32.5 27.5h105q8 -8 13 -17l6 -6q19 -19 19 -43q0 -7 -3 -16h1l-2 -4v-2l-17 -48q-1 -1 -1 -2t-1 -2l3 -2q-11 -15 -24 -29.5t-25 -27.5l2 -2q-25 -19 -44 -30.5t-29 -11.5h-9q-13 0 -25 12z" />
    <glyph glyph-name="FL002Dh" unicode="-" horiz-adv-x="393" 
d="M221 305l-36 -34h231l36 34h-231zM158 245l-39 -37h231l39 37h-231zM84 194l68 65l63 60h272l-5 -5l18 -18l-59 -56h-8l4 -4l-62 -59h-264l-17 17h-10z" />
    <glyph glyph-name="FL002Eh" unicode="." horiz-adv-x="240" 
d="M156 7h-68q10 -7 32 -7q21 0 36 7zM75 83h150q0 2 0.5 5t0.5 6q0 19 -13 32h-94q-30 -19 -44 -43zM219 67h-152q-2 -6 -2 -9v-11q0 -17 8 -27h108q28 20 38 47zM51 47q0 7 1 13.5t6 20.5h8l-4 9q9 14 22.5 27t29.5 23h105q8 -8 13 -17l6 -6q19 -19 19 -43q0 -2 -0.5 -3
t-0.5 -3v-16h-13l6 -9q-6 -14 -17 -28.5t-28 -25.5h-27l3 -12q-10 -5 -20 -6.5t-20 -1.5q-11 0 -28 6.5t-42 22.5l-11 10q-9 5 -20 13h17q-5 12 -5 26z" />
    <glyph glyph-name="FL002Fh" unicode="/" horiz-adv-x="689" 
d="M34 0h213l8 7h-213zM839 522l9 8h-214l-9 -8h214zM580 483l-27 -24h214l27 24h-214zM514 424l-31 -27h214l31 27h-214zM446 364l-34 -30h214l34 30h-214zM379 305l-39 -34h214l39 34h-214zM311 245l-42 -37h214l42 37h-214zM244 186l-46 -40h214l46 40h-214zM176 126
l-49 -43h214l49 43h-214zM109 67l-53 -47h213l54 47h-214zM883 544l-5 -5l18 -18l-33 -30h-38l17 -17l-51 -46h-27l13 -13l-56 -49h-23l11 -11l-59 -52h-15l7 -7l-64 -56h-8l4 -4l-67 -59l-68 -60l-67 -59l-7 -6l-61 -54l-33 -29h-246l-17 17h-11l23 20l7 6l10 9l53 48
l72 63h-1l71 62l7 6l64 57l71 62h13l-1 1h-11l66 58h21l-5 5h-11l63 55h26l-7 7h-11l58 52h36l-11 11h-11l40 36h254z" />
    <glyph glyph-name="FL0030h" unicode="0" horiz-adv-x="753" 
d="M544 7h-252q38 -7 93 -7h100q32 0 59 7zM384 522h276q-43 8 -87 8h-132q-25 0 -57 -8zM817 364h-205q8 -11 11 -30h195v8q0 5 -0.5 11t-0.5 11zM165 334h195q15 16 33 30h-211q-5 -8 -9 -15t-8 -15zM139 271h185q1 9 11 27q1 2 2 3.5t2 3.5h-188q-8 -21 -12 -34zM813 287
q1 5 1.5 9t0.5 9h-190q0 -8 -0.5 -16t-1.5 -16l-1 -2h188q1 4 1.5 7.5t1.5 8.5zM129 208h197q-6 18 -6 36v1h-187v-2q-4 -17 -4 -35zM802 245h-189q-2 -3 -3.5 -6.5t-3.5 -6.5l-8 -12t-9 -12h198q10 21 15 37zM132 146h240q-22 13 -36 40h-207q0 -22 3 -40zM775 186h-208
q-30 -27 -58 -40h239q17 22 27 40zM268 459h511q-5 7 -11.5 13t-13.5 11h-454l-16 -12zM230 424l-24 -27h605q-3 13 -9 27h-572zM667 67h-498q29 -32 73 -47h342q23 8 43.5 19.5t39.5 27.5zM731 126h-594q4 -12 8.5 -23t11.5 -20h530q12 10 23 20.5t21 22.5zM381 508l-3 27
q33 9 63 9h132q27 0 50.5 -2t43.5 -6l-1 -6l18 -17l-2 -16h77q8 -7 19 -17t24 -27q5 -5 10 -11.5t10 -13.5h-6l13 -13q10 -22 16 -49h-8l11 -11v-22q0 -3 0.5 -6t0.5 -5v-19h-10l7 -7q0 -14 -0.5 -20t-1.5 -11t-2.5 -13t-2.5 -12h-21l4 -4l11 -14q-3 -10 -8 -21t-11 -24h-19
l10 -16q-8 -13 -15.5 -24t-15.5 -22h-22l8 -16q-11 -14 -23 -25t-25 -22h-23l5 -14q-38 -30 -89 -49h-40l2 -13q-27 -7 -62 -7h-100q-28 0 -52.5 1.5t-44.5 5.5l-13 13h-34q-35 12 -67 41q-31 20 -56 51h4q-7 12 -12.5 27t-10.5 32h2l-3 3q-3 18 -3 57h7l-7 7q0 11 0.5 19
t2.5 16q1 0 1 1v16h17l-11 15q2 7 6 18t11 27h27l-1 1h-5l-12 18q3 6 8.5 15t10.5 17l1.5 3l2.5 5h16l-5 5h-9l49 55h53l-7 7h-5l-9 23q8 8 14 11q4 2 6.5 4.5t18.5 13.5h102l-11 11h-6zM360 180l3 -3v-2q21 -20 45 -35h91l-3 16q17 8 34 19.5t31 24.5h3q13 15 18 22.5
t10 14.5q4 4 5 7q0 1 1 2v3q0 2 0.5 5.5t0.5 4.5h1l9 20q1 7 1.5 16.5t0.5 23.5h7l-1 1h-6q-2 11 -5.5 21.5t-11.5 24.5h-158l11 -11q-51 -39 -63 -52h-12l7 -7q-8 -11 -10 -15.5t-4 -7.5q-8 -14 -12 -33h-6l4 -4v-12q0 -17 9 -44z" />
    <glyph glyph-name="FL0031h" unicode="1" horiz-adv-x="357" 
d="M121 0h192l2 7h-192zM290 522h213l3 8h-205q-3 -2 -5.5 -4t-5.5 -4zM253 364l-11 -30h192l11 30h-192zM251 483l-21 -24h250l9 24h-238zM232 305l-13 -34h192l13 34h-192zM210 245l-14 -37h192l14 37h-192zM183 397h274l10 27h-265q-16 -18 -19 -27zM188 186l-14 -40h192
l14 40h-192zM166 126l-15 -43h192l15 43h-192zM145 67l-17 -47h192l17 47h-192zM256 508l27 27q4 4 17 9h227l-3 -6l18 -17l-12 -30h-22l17 -17l-18 -46h-17l13 -13l-19 -49h-14l11 -11l-20 -52h-8l7 -7l-22 -56h-4l4 -4l-23 -59l-21 -62h-2l-21 -63h-1l-20 -54l-1 -3
l-7 -26h-216l-17 17h-7l10 35h2l22 60l20 59h1l19 54h-1l25 63h-2l25 62h7l-1 1h-8l18 46h-36l-17 17h-5l-12 18q2 5 9 14.5t17 22.5h21l-7 7h-9l45 52h32l-11 11h-10z" />
    <glyph glyph-name="FL0032h" unicode="2" horiz-adv-x="693" 
d="M128 0h455l7 7h-492q10 -7 30 -7zM749 530h-442l-8 -8h480q-14 8 -30 8zM776 352q2 3 3.5 6t3.5 6h-191q-2 -5 -6 -9l-4 -5q0 -1 -6 -4.5t-10 -5.5q-2 -2 -5.5 -3t-6.5 -3h207q9 9 15 18zM284 146l16 28q3 4 5.5 7t4.5 5h-188q-8 -8 -12 -15q-5 -6 -8.5 -12.5t-6.5 -12.5
h189zM805 483h-544q-6 -6 -11.5 -12t-10.5 -12h570q-1 6 -1.5 12t-2.5 12zM734 305h-460q-14 -7 -28 -15.5t-29 -18.5h478q11 9 21 17.5t18 16.5zM806 424h-596q-6 -8 -10.5 -14.5t-9.5 -12.5h609q2 7 4 13.5t3 13.5zM659 245h-476q-11 -9 -21.5 -18.5t-19.5 -18.5h447
q17 7 35 16.5t35 20.5zM73 83h584q11 14 20 25.5t14 17.5h-606q-9 -22 -12 -43zM84 20h518q10 11 20 22.5t21 24.5h-571v-3q0 -28 12 -44zM749 544q23 0 79 -36h-8l17 -17h-23l5 -4v-4l17 -17q1 -2 2 -13t3 -25h-25l4 -4q0 -2 -1 -3l7 -6l11 -12q-1 -5 -4 -15.5t-7 -21.5
h-16l11 -11q-1 -2 -6 -11t-6 -11l-3 -6l-1 -1q-4 -5 -8.5 -11t-10.5 -12h-39l7 -7l8 -19q-18 -18 -43 -37h-44l4 -4l6 -20q-35 -23 -75 -39h-253l-21 -21t-7 -8v-1l-4 -7h396l-5 -5l18 -18q-4 -4 -15.5 -18.5t-17.5 -22.5q-4 -5 -9 -12t-10 -12h-1q-10 -11 -22.5 -26.5
t-22.5 -26.5l1 -1l-29 -29h-460q-11 0 -27 6.5t-41 22.5l-11 10q-9 5 -20 13h18q-5 10 -7 20.5t-2 22.5v17h3l-2 3q2 9 5 21t9 27h-1q1 1 1.5 3t2.5 4v1q1 4 3 6q4 8 8.5 16.5t11.5 17.5q2 3 4.5 6t6.5 8h-2q20 20 37.5 36.5t28.5 26.5h-1q35 24 60 40t37 22h261l-1 1h-10
l9.5 9.5t6.5 5.5q4 4 8 7.5t5 4.5q5 2 6.5 3t3.5 2l1 1q1 0 2 1l-1 -1l1 1q1 0 2 1q2 2 5 2l6 7l0.5 0.5t0.5 1.5h-386l-17 17h-10q9 9 14 18q2 4 5 8t2 2q4 5 8.5 11.5t11.5 15.5h21l-7 7h-10l9 9q8 8 20 22.5t18 20.5h31l-11 11h-10l36 36h448z" />
    <glyph glyph-name="FL0033h" unicode="3" horiz-adv-x="703" 
d="M285 522h426q-18 8 -33 8h-385zM578 7h-529q-4 -4 -5 -7h441q61 0 93 7zM568 334h201q6 15 9 30h-191l-1 -2q-2 -4 -7.5 -12.5t-10.5 -15.5zM491 146h221q4 9 7.5 19t5.5 21h-207q0 -14 -3 -18l-2 -5q-1 -1 -2.5 -3l-1.5 -2q-3 -2 -8 -5.5t-10 -6.5zM235 459h528l-6 12
t-7 12h-498q-5 -6 -9 -12zM754 305h-377l-39 -34h387q15 12 29 34zM211 424l-18 -27h585q-1 6 -1.5 12.5t-2.5 14.5h-563zM710 245h-402l-42 -37h461q-1 13 -6.5 21.5t-10.5 15.5zM705 126h-568q-10 -11 -18.5 -21.5t-17.5 -21.5h583q5 9 10.5 20t10.5 23zM675 67h-585
q-8 -11 -16.5 -23t-16.5 -24h563q35 17 55 47zM282 508l-5 23q0 3 3 6l7 7h391q23 0 46 -12l-1 -5l17 -17l-4 -13h22q2 -3 3.5 -6t3.5 -6l11 -11q8 -12 13.5 -23.5t11.5 -22.5h-11l13 -13q2 -7 3.5 -17.5t2.5 -15.5v-16h-8l11 -11q-2 -12 -6.5 -25t-9.5 -27h-29l7 -7l9 -17
q-14 -23 -33 -39h-19l8 -8q6 -8 12 -18.5t8 -36.5q-3 -17 -8.5 -33t-11.5 -29h-13l9 -13q-7 -15 -13 -28t-11 -22h-13l6 -11q-12 -18 -26.5 -30.5t-34.5 -21.5h-44l1 -13q-17 -4 -41 -5.5t-54 -1.5h-468l-17 17h-10l9.5 9.5t5.5 6.5q6 6 9 10t5 6q7 11 17 25t18 26h-8
q9 8 11 9.5t6 6.5l5.5 5.5t5.5 6.5q2 2 3.5 4t3.5 4q8 8 16 17.5t15 17.5h354l-4 18q13 8 16 9q1 1 1.5 2t1.5 2l1 3l0.5 1t0.5 2h-246l-17 17h-11l74 65l69 60h200l-1 1h-5l-11 21q5 5 9.5 12.5l7.5 12.5h-379l-17 17h-9l36 55h42l-7 7h-5l-11 21q7 11 12.5 18t10.5 13h54
l-11 11h-6z" />
    <glyph glyph-name="FL0034h" unicode="4" horiz-adv-x="686" 
d="M450 0h192l2 7h-192zM424 522l3 8h-190l-3 -8h190zM832 522l3 8h-192l-3 -8h192zM220 483l-9 -24h190l9 24h-190zM626 483l-9 -24h192l9 24h-192zM198 424l-10 -27h190l10 27h-190zM604 424l-10 -27h192l10 27h-192zM176 364l-11 -30h190l11 30h-190zM582 364l-11 -30
h192l11 30h-192zM539 245l-14 -37h192l14 37h-192zM517 186l-14 -40h192l14 40h-192zM495 126l-15 -43h192l15 43h-192zM474 67l-17 -47h192l17 47h-192zM133 245l-14 -37h353l36 37h-375zM534 271l23 23l-9 -23h192l13 34h-598l-13 -34h392zM448 544l-3 -6l18 -17l-12 -30
h-22l17 -17l-18 -46h-17l13 -13l-19 -49h-14l11 -11l-14 -36h171l-1 1h-8l23 58h13l-5 5h-8l22 55h16l-7 7h-8l21 52h21l-11 11h-8l15 36h222l-3 -6l18 -17l-12 -30h-22l17 -17l-18 -46h-17l13 -13l-19 -49h-14l11 -11l-20 -52h-8l7 -7l-22 -56h-4l4 -4l-23 -59l-21 -62h-2
l-21 -63l-1 1v-1l-20 -54l-1 -3l-7 -26h-216l-17 17h-7l10 35h2l22 60l20 59h1l14 40l-3 -3h-374l-17 17h-8l25 63h-2l25 62h7l-1 1h-8l23 58h13l-5 5h-8l22 55h16l-7 7h-8l21 52h21l-11 11h-8l15 36h220z" />
    <glyph glyph-name="FL0035h" unicode="5" horiz-adv-x="686" 
d="M592 7h-540q-1 -2 -2 -3.5t-2 -3.5h510q20 0 34 7zM232 530l-3 -8h599q2 2 2.5 4t2.5 4h-601zM165 334h210q-4 3 -7 6q-2 2 -6 5.5t-4 4.5v5l3 9h-190l-4 -11q-1 -5 -1.5 -9.5t-0.5 -9.5zM502 146h195q1 5 1.5 11t0.5 11v4q0 3 -0.5 6.5t-0.5 7.5h-188q2 -10 2 -12
q0 -14 -10 -28zM798 483h-583l-9 -24h572l10 12zM746 424h-553l-10 -27h535q7 7 14 13.5t14 13.5zM185 271h479q-12 19 -32 34h-462q5 -18 15 -34zM252 208h442q-3 9 -6 18.5t-8 18.5h-475q19 -21 47 -37zM692 126h-550q-7 -7 -16 -18t-20 -25h566q6 11 11 21.5t9 21.5z
M662 67h-568q-10 -13 -18.5 -25t-15.5 -22h555q27 18 47 47zM208 508l15 36h644l-5 -5l18 -18l-3 -3.5t-7 -7t-7 -7t-4 -4.5q-1 -3 -6 -8h-51l2 -3l14 -14l8 -19q-2 -2 -4 -4.5t-5 -6.5q-2 -3 -6.5 -8t-6.5 -8h-51l13 -13l8 -19l-15 -15q-4 -4 -8.5 -8t-7.5 -7h-358l11 -11
l-5 -15q6 -4 14 -9t17 -11h-8l1 -1h222q8 -7 18.5 -18.5t21.5 -25.5q7 -8 13.5 -16.5t14.5 -18.5h-2l4 -4q4 -8 9 -21t8 -21v-6q0 -5 1 -7l4 -4q0 -2 0.5 -9.5t0.5 -9.5v-10q0 -8 -1 -16.5t-2 -16.5h-14l9 -12q-5 -16 -11 -28t-12 -23h-14l6 -11q-23 -32 -53 -52h-24l3 -12
q-10 -5 -20 -6.5t-19 -1.5h-528l-17 17h-8q4 10 10 20h-1q3 4 8 11.5l11 16.5t12.5 18t12.5 17h-1q18 23 33.5 42t25.5 29h360l-6 12q6 9 8 20q-2 2 -2 5h-224l-5 1q-9 5 -19.5 12.5t-22.5 18.5q-11 9 -25 21.5t-28 28.5h8l-7 4q-13 19 -22 56h18l-1 1h-4l-13 13q0 17 1 20
l0.5 0.5t0.5 1.5l9 23h13l-5 5h-8l22 55h16l-7 7h-8l21 52h21l-11 11h-8z" />
    <glyph glyph-name="FL0036h" unicode="6" horiz-adv-x="668" 
d="M519 7h-143q24 -4 48.5 -5.5t49.5 -1.5t45 7zM349 522h462l6 8h-413q-25 0 -55 -8zM160 334h194q12 18 22 30h-203q-4 -8 -7 -15t-6 -15zM696 186h-195q1 -4 2 -7t2 -5l-19 -28h191q5 10 10 19.5t9 20.5zM160 146h234q-15 12 -32 40h-214q4 -22 12 -40zM243 459h516
l21 24h-508q-8 -6 -15 -12zM192 397h504l30 27h-515q-5 -7 -9.5 -13.5t-9.5 -13.5zM616 67h-395q20 -17 44 -28t51 -19h236q17 8 33 20.5t31 26.5zM144 271h558q-6 19 -21 34h-530q-2 -9 -3.5 -17.5t-3.5 -16.5zM664 126h-494q16 -28 33 -43h428q9 10 17 21zM145 208h558
q3 18 3 33v4h-563v-2v-18q0 -7 2 -17zM346 508l-3 27q30 9 61 9h439q-1 -2 -2 -3t-2 -3l18 -17q-7 -11 -13 -19.5t-8 -10.5h-29l17 -17l-41 -46h-22l13 -13l-54 -49h-311l11 -11l-16 -18t-14 -18h297q6 -6 14 -19l5 -4q19 -19 31 -56h-4l4 -4v-15q0 -8 -1.5 -18.5
t-3.5 -25.5h-16l10 -15q-5 -14 -11 -25t-11 -22h-19l8 -15q-7 -11 -16 -23t-22 -25h-17l6 -13q-16 -14 -32.5 -27t-36.5 -23h-35l2 -12q-24 -8 -48 -8q-26 0 -52 1.5t-50 5.5l-13 13h-46q-29 8 -59.5 24.5t-64.5 44.5l-6 5q-5 5 -11 9t-11 9h5q-11 12 -20.5 27t-19.5 32h2
l-1 1q-5 12 -9 26.5t-8 32.5h7l-6 5q-2 10 -2 17v21v16h12l-11 14q2 8 4.5 22.5t4.5 23.5h25l-1 1h-4l-12 18l3 9q3 8 6 15.5t8 15.5h36l-5 5h-5l-11 20q1 2 2 2.5t2 2.5q5 8 9.5 15.5t11.5 14.5h49l-7 7h-5l-9 22q2 2 4 3.5t4 3.5q6 5 13 11.5t13 11.5h97l-11 11h-6z
M388 177q2 -6 4 -7q14 -17 31 -30h42l24 34q-1 1 -0.5 1.5t-0.5 1.5h-100z" />
    <glyph glyph-name="FL0037h" unicode="7" horiz-adv-x="643" 
d="M78 7l-6 -7h202l7 7h-203zM290 522h504l8 8h-501q-3 -2 -5.5 -4t-5.5 -4zM422 364l-29 -30h214l30 30h-215zM365 305l-33 -34h213l33 34h-213zM307 245l-35 -37h210l37 37h-212zM251 186l-39 -40h208l40 40h-209zM193 126l-42 -43h206l43 43h-207zM136 67l-45 -47h203
l47 47h-205zM251 483l-21 -24h501l24 24h-504zM183 397h487l27 27h-495q-16 -18 -19 -27zM256 508l27 27q4 4 17 9h536l-5 -5l18 -18l-30 -30h-34l17 -17l-46 -46h-25l13 -13l-49 -49h-22l11 -11l-52 -52h-15l7 -7l-54 -56h-8l4 -4l-267 -267h-230l-17 17h-9l16 20h-1l11 12
l3 3l46 48h-1l62 63h-1l61 62l60 63l2 2l58 60h12l-1 1h-10l44 46h-201l-17 17h-5l-12 18q2 5 9 14.5t17 22.5h21l-7 7h-9l45 52h32l-11 11h-10z" />
    <glyph glyph-name="FL0038h" unicode="8" horiz-adv-x="734" 
d="M609 7h-479q27 -7 88 -7h298q61 0 93 7zM326 522h417q-18 8 -34 8h-298q-26 0 -47 -2t-38 -6zM808 364h-191v-2q-2 -5 -8 -14.5t-10 -13.5h200q1 1 1 2q0 2 1 3q2 7 4 13t3 12zM177 364l-6 -30h202l11 30h-207zM177 271h174l12 34h-193q0 -21 7 -34zM756 186h-203
q-2 -6 -4 -11t-3 -7l-2 -5q-1 -1 -2.5 -3l-1.5 -2q-3 -2 -8 -5.5t-10 -6.5h221l2 5q7 17 11 35zM97 146h221q-2 3 -4 6.5t-4 5.5l1 3q0 1 0.5 1.5t0.5 1.5l-1 2l7 20h-203q-5 -11 -10 -21.5t-8 -18.5zM785 305h-351l-40 -34h362q15 12 29 34zM219 459h577q-5 12 -12 24h-544
q-12 -12 -21 -24zM195 409l-5 -12h620q-1 4 -1 13q0 4 -0.5 7t-1.5 7h-607q-2 -5 -3 -9t-2 -6zM741 245h-377l-33 -29l10 29h-168q-10 -7 -21.5 -15.5t-22.5 -21.5h629q-1 13 -6.5 21.5t-10.5 15.5zM736 126h-646q-4 -12 -6.5 -22.5t-4.5 -20.5h636q5 9 10.5 20t10.5 23z
M706 67h-629v-6q0 -29 19 -41h555q35 17 55 47zM323 508l-2 28q40 8 90 8h298q24 0 47 -12l-1 -5l17 -17l-4 -13h24q2 -3 3.5 -6t3.5 -6l11 -11q5 -9 11 -20.5t11 -25.5h-9l13 -13q2 -9 3 -17t1 -12q0 -2 0.5 -10t0.5 -10h-22l3 -3v-2l6 -6l11 -13q-2 -11 -7 -23
q0 -1 -0.5 -1.5t-0.5 -1.5q0 -5 -1 -6.5t-6 -6.5h-26l7 -7l9 -17q-14 -23 -33 -39h-19l8 -8q6 -8 12 -18.5t8 -36.5h-14l11 -14q-5 -17 -12 -36l-5 -12h-13l9 -13q-7 -15 -13 -28t-11 -22h-13l6 -11q-12 -18 -26.5 -30.5t-34.5 -21.5h-44l1 -13q-17 -4 -41 -5.5t-54 -1.5
h-298q-29 0 -51.5 1.5t-41.5 6.5l-12 12h-20q-4 3 -6.5 5t-4.5 4l-8 8h-3q-16 10 -22 23.5t-6 31.5v20h2q3 17 6.5 30.5t8.5 28.5h10l-6 10q4 10 9 21.5t10 22.5h-4q26 30 37 40t18 15q2 2 3.5 2.5t3.5 2.5l2 1l4 4h4l-7 4q-5 8 -6.5 22t-1.5 34h5l-1 1h-7l12 58h17l-5 5h-8
l13 31q1 1 1 3t1 3q2 5 3.5 9t3.5 9h38l-7 7h-5l-10 21q9 13 27 31h106l-11 11h-6zM398 296l-3 -6l35 29h146l-1 1h-10q10 10 22 24t16 20v2h-194l11 -11l-20 -52h-9zM343 147v-7h169l-4 15q7 4 12.5 7t4.5 2l4 3l2 2q0 1 1 2l2 6h-181z" />
    <glyph glyph-name="FL0039h" unicode="9" horiz-adv-x="668" 
d="M339 522h199q-29 4 -65 6t-78 2h-8q-22 0 -48 -8zM507 7h-458q-4 -4 -5 -7h413q28 0 50 7zM161 335q0 -1 -1 -1h206q-5 5 -6.5 10.5t-3.5 11.5l5 8h-188q-7 -13 -12 -29zM713 364h-229q5 -7 10 -14.5t10 -15.5h211q0 8 -0.5 15t-1.5 15zM695 186h-195q-17 -26 -39 -40
h214q6 10 11 19.5t9 20.5zM268 483l-27 -24h435q-5 7 -11.5 13t-13.5 11h-383zM192 397h514q-3 13 -9 27h-486q-5 -7 -9.5 -13.5t-9.5 -13.5zM717 287v18h-562v-16q0 -15 1 -18h560q1 3 1 13v3zM713 245h-549q13 -25 45 -37h495q6 18 9 37zM662 126h-506q-11 -11 -22 -21.5
t-22 -21.5h515q10 10 18.5 20.5t16.5 22.5zM612 67h-514q-10 -11 -19.5 -23t-19.5 -24h483q19 8 36.5 20.5t33.5 26.5zM336 508l-3 26q26 10 54 10h8q45 0 82 -2t66 -6v-6l17 -17l-1 -16h96q21 -15 50 -52q3 -4 6.5 -8t7.5 -9h-8l13 -13q10 -22 16 -49h-13v-5l17 -16
q1 -8 1.5 -16.5t0.5 -25.5h-5l7 -7v-32q0 -5 -0.5 -10t-2.5 -14h-16l4 -4l11 -13q-1 -7 -4.5 -18t-8.5 -28h-16l10 -15q-8 -23 -24 -47h-18l8 -15q-8 -14 -18 -25.5t-21 -22.5h-18l5 -13q-17 -15 -36 -28t-39 -22h-36l2 -13q-22 -7 -53 -7h-431l-17 17h-8q5 11 11 20h-3
q8 10 24 29t28 34h-2q5 6 14.5 16t20 20.5t20.5 20t16 14.5h273q31 19 49 37h-244q-21 7 -38 24l-4 4q-27 18 -45 54h2q-1 5 -1.5 9t-0.5 7v14v30h23l-1 1h-6v8l-7 7l-3 1l1 3q3 10 7 19.5t9 19.5h36l-5 5h-5l-11 20q1 2 2 2.5t2 2.5q5 8 9.5 15.5t11.5 14.5h19l-7 7h-11
l58 52h90l-11 11h-6zM388 335v-2q2 -3 6.5 -6t9.5 -7h-5l1 -1h102l-1 1h-4q-2 2 -3.5 4t-3.5 5q-5 9 -6 10q-1 0 -3 5l1 -1q-3 4 -7 9.5t-11 13.5h-74l11 -11zM684 465q0 1 -1 1z" />
    <glyph glyph-name="FL003Ah" unicode=":" horiz-adv-x="241" 
d="M235 397h58q-13 5 -27 5q-13 0 -31 -5zM157 7h-68q10 -7 32 -7q21 0 36 7zM301 305h-141q1 -23 18 -34h81q10 4 17 10q7 5 13.5 11t11.5 13zM165 334h152q4 8 4 21q0 2 -0.5 4.5t-0.5 4.5h-135q-7 -8 -11.5 -15t-8.5 -15zM76 83h150q0 2 0.5 5t0.5 6q0 19 -13 32h-94
q-30 -19 -44 -43zM220 67h-152q-2 -6 -2 -9v-11q0 -17 8 -27h108q28 20 38 47zM52 47q0 7 1 13.5t6 20.5h8l-4 9q9 14 22.5 27t29.5 23h105q8 -8 13 -17l6 -6q19 -19 19 -43q0 -2 -0.5 -3t-0.5 -3v-16h-13l6 -9q-6 -14 -17 -28.5t-28 -25.5h-27l3 -12q-10 -5 -20 -6.5
t-20 -1.5q-11 0 -28 6.5t-42 22.5l-11 10q-9 5 -20 13h17q-5 12 -5 26zM232 383l-3 27q18 6 37 6q9 0 19.5 -2t19.5 -7l-1 -5l17 -17l-2 -7h15v-6l17 -17v-16q0 -2 0.5 -2.5t0.5 -1.5q0 -11 -8 -32h-30l7 -7l9 -18q-10 -14 -28 -26h1q-4 -3 -9.5 -6t-11.5 -6h-87l-8 6
l-11 11h-3q-25 15 -28 62h24l-1 1h-5l-12 18q6 17 29 40h63l-5 5h-6z" />
    <glyph glyph-name="FL003Bh" unicode=";" horiz-adv-x="241" 
d="M266 402q-13 0 -31 -5h58q-13 5 -27 5zM88 -72h9q7 0 17 5.5t22 14.5h-75q8 -20 27 -20zM178 271h79q26 11 43 32l0.5 0.5t0.5 1.5h-141q1 -23 18 -34zM321 355q0 2 -0.5 4.5t-0.5 4.5h-135q-7 -8 -11.5 -15t-8.5 -15h152q4 11 4 21zM226 94q0 19 -13 32h-94
q-30 -19 -44 -43h149q2 10 2 11zM57 -42h92q27 24 46 49h-142v-8q0 -10 1 -20.5t3 -20.5zM68 67l-14 -39q-1 -1 -1 -8h149q3 3 4 8l14 39h-152zM83 -91l-8 8q-23 11 -35 45h1q-1 5 -1.5 9.5t-0.5 9.5v18v22q0 5 2 13l13 35h-4q15 26 31.5 43.5t32.5 27.5h105q8 -8 13 -17
l6 -6q19 -19 19 -43q0 -7 -3 -16h1l-2 -4v-2l-17 -48q-1 -1 -1 -2t-1 -2l3 -2q-11 -15 -24 -29.5t-25 -27.5l2 -2q-25 -19 -44 -30.5t-29 -11.5h-9q-13 0 -25 12zM266 416q9 0 19.5 -2t19.5 -7l-1 -5l17 -17l-2 -7h15v-6l17 -17v-16q0 -2 0.5 -2.5t0.5 -1.5q0 -11 -3 -21
q-1 -2 -1 -7v-4h-23l7 -7q0 -11 -0.5 -14.5t-2.5 -5.5l-1 -1q-19 -23 -49 -35h-81l-6 2l-2 1q-2 1 -3 2l-2 2l-12 11l-1 1q-12 8 -18.5 23.5t-8.5 36.5h7l-1 1h-8q8 18 17.5 32.5t19.5 25.5h60l-5 5h-6l-3 26q18 7 40 7z" />
    <glyph glyph-name="FL003Ch" unicode="&#x3c;" horiz-adv-x="486" 
d="M236 7l3 -7h213l-3 7h-213zM430 530l-9 -8h214l9 8h-214zM376 483l-27 -24h214l27 24h-214zM310 424l-31 -27h214l31 27h-214zM242 364l-34 -30h214l34 30h-214zM175 305l-39 -34h214l39 34h-214zM139 245l15 -37h214l-15 37h-214zM163 186l16 -40h214l-16 40h-214z
M187 126l18 -43h213l-17 43h-214zM211 67l20 -47h213l-19 47h-214zM385 508l40 36h254l-5 -5l18 -18l-33 -30h-38l17 -17l-51 -46h-27l13 -13l-56 -49h-23l11 -11l-59 -52h-15l7 -7l-63 -55l5 -5l24 -59l25 -62h-1l23 -57h1l28 -69h-1l9 -20h-236l-17 17h-5l-15 35l-25 60h1
l-25 59l-24 60l-17 42l-15 15h-11l71 62h13l-1 1h-11l66 58h21l-5 5h-11l63 55h26l-7 7h-11l58 52h36l-11 11h-11z" />
    <glyph glyph-name="FL003Dh" unicode="=" horiz-adv-x="464" 
d="M140 289h302l17 16h-302zM72 102h302l25 24h-302zM283 424l-29 -27h302l29 27h-302zM215 237l-31 -29h302l31 29h-302zM219 364l-32 -30h302l32 30h-302zM161 186l-43 -40h302l43 40h-302zM149 194l60 57h343l-5 -5l18 -18l-54 -51h-1l-64 -60h1l-48 -46h-335l-17 17h-10
l54 52h1zM220 383l58 55h341l-5 -5l18 -18l-52 -49h-22l11 -11l-55 -52h-14l7 -7l-40 -38h-335l-17 17h-10l46 44h12l-1 1h-10l61 58h22l-5 5h-10z" />
    <glyph glyph-name="FL003Eh" unicode="&#x3e;" horiz-adv-x="486" 
d="M34 0h213l8 7h-213zM442 530h-214l3 -8h214zM247 483l9 -24h214l-9 24h-214zM270 424l11 -27h214l-11 27h-214zM295 364l12 -30h214l-12 30h-214zM319 305l14 -34h214l-14 34h-214zM311 245l-42 -37h214l42 37h-214zM244 186l-45 -40h214l45 40h-214zM176 126l-49 -43
h214l49 43h-214zM109 67l-53 -47h214l53 47h-214zM207 544h244l3 -9l15 -14l12 -30h-9l1 -3l15 -14l18 -46h-8l13 -13l20 -49h-6l11 -11l21 -52h-4l7 -7l23 -56h-13l4 -4l-67 -59h-1l-69 -62h-1l-71 -63h-1l-70 -63l-23 -20h-246l-17 17h-11l23 20l7 6l10 9l53 48l81 71h1
l60 54l7 6l67 59h17l-25 60h6l-1 1h-5l-24 58h8l-5 5h-5l-23 55h10l-7 7h-5l-21 52h12l-11 11h-5z" />
    <glyph glyph-name="FL003Fh" unicode="?" horiz-adv-x="686" 
d="M195 7h-68q10 -7 32 -7q21 0 36 7zM155 170h155v1q2 5 19 15h-162q-3 -5 -6.5 -8.5t-5.5 -7.5zM300 530l-8 -8h481q-14 8 -31 8h-442zM114 83h150q0 2 0.5 5t0.5 6q0 19 -13 32h-94q-30 -19 -44 -43zM547 334h207q9 9 15 18l4 6l4 6h-192q-2 -5 -6 -9l-4 -5q0 -1 -6 -4.5
t-10 -5.5q-2 -2 -5.5 -3t-6.5 -3zM258 67h-152q-2 -6 -2 -9v-11q0 -17 8 -27h108q28 20 38 47zM232 459h570q-1 4 -1 12q0 4 -2 12h-545q-6 -6 -11.5 -12t-10.5 -12zM262 271h426q11 9 21 17.5t18 16.5h-409l-28 -16t-28 -18zM187 208h395q17 7 35 16.5t35 20.5h-424
q-11 -9 -21.5 -18.5t-19.5 -18.5zM183 397h609q2 7 4 13.5t3 13.5h-596q-6 -8 -10.5 -14.5t-9.5 -12.5zM258 508l36 36h448q24 0 80 -36h-8l17 -17h-19v-2l16 -15q4 -15 4 -27q0 -2 0.5 -9.5t0.5 -9.5h-15l13 -13q-2 -15 -5 -26.5t-7 -22.5h-6l11 -11l-18 -18t-3 -4l-2 -2
v-1l-1 -1q-13 -18 -21 -26h-12l7 -7q-37 -37 -62 -56h-7l4 -4q-32 -20 -59 -35.5t-47 -23.5h-249l4 -19q-16 -8 -17 -11v-8h-82q3 -4 6.5 -8t5.5 -8l6 -6q19 -19 19 -43q0 -2 -0.5 -3t-0.5 -3v-16h-13l6 -9q-6 -14 -17 -28.5t-28 -25.5h-27l3 -12q-10 -5 -20 -6.5t-20 -1.5
q-11 0 -28 6.5t-42 22.5l-11 10q-9 5 -20 13h17q-5 12 -5 26q0 7 1 13.5t6 20.5h8l-4 9q9 14 22.5 27t29.5 23h21l-16 16h-5l-11 20q1 1 2.5 3t2.5 3l0.5 0.5t1.5 2.5l1.5 2.5t3.5 4.5q1 1 2 3.5t3 4.5h23l-7 16q12 12 24 23t23 20h37l-7 22q17 11 32.5 21t29.5 17h237l-1 1
h-5l-10 22l3.5 3.5t2.5 0.5l1 1q5 3 6.5 3.5t4.5 2.5q1 0 2 1l-1 -1l1 1q1 0 2 1q2 2 5 2l6 7l0.5 0.5t0.5 1.5h-366l-17 17h-5l-11 20q2 2 2.5 3t1.5 2l3 3q4 5 8.5 11.5t11.5 15.5h45l-7 7h-5l-10 21q2 2 3.5 4t3.5 4q5 5 10.5 11.5t10.5 11.5h31l-11 11h-10z" />
    <glyph glyph-name="FL0040h" unicode="@" horiz-adv-x="783" 
d="M537 364h-37q-34 -8 -65 -30h140q-14 24 -38 30zM457 168h170q38 0 69 3.5t57 14.5h-343q17 -14 47 -18zM387 275q-1 -1 -1 -4h79q5 9 13 15.5t18 6.5q16 0 16 -14q0 1 -0.5 -1t-1.5 -7h65q0 1 2 3q2 11 3.5 18t1.5 11v2h-178q-7 -8 -11 -15.5t-6 -14.5zM854 360v3v1
h-195q7 -15 7 -30h186q1 6 1.5 12.5t0.5 13.5zM167 334h192q5 8 9.5 15t9.5 15h-195q-5 -8 -8.5 -15zM143 271h191l9 27q1 1 1 3q0 3 1 4h-190l-2 -6q-3 -8 -5.5 -14.5t-4.5 -13.5zM840 278q2 7 3.5 13.5t3.5 13.5h-185q-2 -4 -3 -7q-8 -20 -27 -27h205q1 3 3 7zM134 208
h186q-1 3 -1 12v1q0 6 6 24h-188q-3 -20 -3 -37zM376 -37h87q5 13 8.5 24t6.5 20h-233q36 -21 72 -30t59 -14zM675 543h-306q-24 -8 -43 -21h430q-20 8 -40.5 13t-40.5 8zM140 146h218q-8 9 -16 19t-13 21h-194q1 -11 2 -21t3 -19zM165 83h262q-4 0 -6 2q-6 7 -17.5 17
t-25.5 24h-232q4 -13 9 -23.5t10 -19.5zM813 483h-538l-24 -24h580q-8 13 -18 24zM846 424h-624q-5 -7 -9.5 -13.5t-9.5 -13.5h204q11 8 21 13.5t21 5.5h128q35 -6 53 -19h221q-1 7 -2 13.5t-3 13.5zM225 20h258q7 17 11 28.5t6 18.5h-324q20 -27 49 -47zM393 208h399
q21 18 32 37h-438q0 -23 7 -37zM814 497l8 -3q3 -3 7 -8t9 -13l3 -2q6 -6 13.5 -16.5t15.5 -26.5h-11l1 -1v-5l17 -16l2.5 -12.5t3.5 -27.5h-9l11 -11v-15q0 -9 -1 -18.5t-2 -18.5h-8l7 -7q-2 -9 -4 -18.5t-7 -22.5q-2 -7 -3.5 -10l-2.5 -5h-5l4 -4q-13 -20 -25 -34.5
t-23 -24.5h-38l4 -19q-29 -12 -62.5 -16.5t-71.5 -4.5h-171q-35 4 -77 40l-5 5q-7 4 -12.5 8.5t-10.5 9.5h10q-5 11 -7 26t-2 33v10q-2 -8 -5.5 -16t-5.5 -13h-5l4 -4q-10 -29 -10 -35v-1v-7q0 -3 3 -13l3 -3q8 -17 20 -32q2 -2 2.5 -3t2.5 -2h3q4 -4 8.5 -8t8.5 -8
q4 -3 8.5 -7.5l8.5 -8.5l14 -14l-2 -2l11 -11h78l-0.5 -1.5l-1.5 -4.5l18 -17q-1 -3 -4 -11t-6.5 -17.5t-7.5 -20.5t-7 -20q-5 -12 -10 -29t-9 -28h-97q-24 5 -66 17t-105 49l-12 11l-10 6l-10 6h9q-11 10 -24.5 25t-27.5 35h1q-11 20 -21 59l-2 2q-2 8 -3.5 24t-2.5 34h7
l-7 7q0 14 1 27.5t3 24.5h16l-10 15q1 1 1 4t1 4q2 5 4 10.5t4 11.5l2 -1q2 7 6 13h26l-3 3h188q0 -1 -0.5 -4.5t-0.5 -5.5v-7q0 -5 -1 -7q-2 -5 -5 -13t-5 -15q-1 -2 -1.5 -4t-1.5 -4q-6 -16 -8.5 -26t-2.5 -12v-1q0 -2 0.5 -5.5t2.5 -14.5h2q6 -14 16.5 -28t21.5 -27
q2 -2 3.5 -4t3.5 -4l6 -7q6 -5 11.5 -10t10.5 -9l6 -7q-4 3 -7.5 6.5l-6.5 6.5h-3q0 -2 2 -2h-242l-3 2h-5q3 -11 6 -21t7 -18h262v16l-2 2l4 -3l1 -1v-1v1l1 -1h-1v-10h11l3 -3h71l2 -3q-4 -11 -11.5 -32.5t-13.5 -36.5l-1 -3l-9.5 -28.5l-8.5 -25.5h-100q-23 4 -62 15.5
t-100 44.5l-8 9h4l-4 3q2 -1 2.5 -1.5t2.5 -1.5h285v-1q4 10 8 20.5t7 20.5h-61v-6h-262l-9 5l-1 1h-1q13 -20 21 -29l-6 7q-9 9 -18 19.5t-17 22.5h1q-6 9 -11.5 24t-11.5 35h3l-6 6q-2 9 -3.5 23.5t-2.5 30.5h11l-11 11q0 28 4 48h20l-4 4l-10 14q2 5 3.5 11t3.5 12l-1 1
q0 10 7 21h25l-1 1h-5l-12 18q4 8 10.5 20t11.5 20h16l-5 5h-8q2 4 4.5 7t4.5 7h-1q6 10 15.5 23t13.5 18h19l-7 7h-10l52 52h34l-11 11h-14q61 39 89 49h310q20 -3 42.5 -8.5t48.5 -16.5l-1 -5l17 -17l-4 -13h34zM380 137h-234q-1 8 -2 18.5t-1 21.5h205q7 -11 15 -20.5
t17 -19.5zM540 378q27 -6 49 -40l1 -1q7 -7 13 -15.5t11 -18.5h-8l7 -7v-13q0 -12 -4 -24h15l-4 22q9 5 16 10t10 12q2 4 3.5 7.5t3.5 8.5h6l-1 1h-6q0 13 -3.5 25.5t-8.5 24.5q-10 5 -21 8.5t-24 6.5h-126q-8 0 -17.5 -5.5t-20.5 -13.5h-23l11 -11q-3 -5 -9 -13t-11 -16
q31 21 56.5 34.5t41.5 17.5h43zM330 221v-1q0 -3 0.5 -7t3.5 -16h-191q0 22 4 39h186q-3 -12 -3 -15zM354 295l-3 -5l1 -1l-6 -16t-5 -13h-186q2 5 3 9.5t3 9.5h1l1 4h-1q1 5 6 13h186v-1zM374 -48q-19 4 -46.5 11t-69.5 26h225q-3 -10 -6.5 -20t-5.5 -17h-97zM376 296
q0 -1 -0.5 -5.5t-0.5 -6.5q3 9 10 19h-16zM395 320q-3 -5 -5.5 -10t-4.5 -7q2 5 12 16h7l-1 1h-8zM142 301v2l4 -1l-1 -5h-5q1 1 1 2t1 2zM209 16q-2 0 -2 2z" />
    <glyph glyph-name="FL0041h" unicode="A" 
d="M575 0h178l-1 7h-178zM449 522h203q-8 8 -16 8h-168q-8 0 -19 -8zM469 7h-431q0 2 -0.5 0t-1.5 -7h423q4 1 10 7zM519 364l5 -30h177l-4 30h-178zM315 364l-24 -30h202l22 30h-200zM528 305l5 -34h178l-5 34h-178zM537 245l6 -37h177l-5 37h-178zM398 470l-9 -11h290
q-2 6 -3.5 12t-3.5 12h-265q-8 -8 -9 -13zM269 305l-27 -34h204l25 34h-202zM546 186l6 -40h178l-6 40h-178zM222 245l-29 -37h206l27 37h-204zM176 186l-32 -40h208l30 40h-206zM562 67l9 -47h179l-8 47h-180zM362 424l-21 -27h351l-4 27h-326zM522 67h-439l-37 -47h436
q10 10 20 22t20 25zM554 113l5 -30h181l-7 43h-604l-34 -43h439q8 11 13 18t7 12zM559 6l-9 46h-5l6 -12q-10 -13 -21 -26t-23 -25h-14l4 -10q-4 -4 -8.5 -6t-6.5 -4h-440l-17 17h-7q1 6 2 10.5t2 9.5h-5l9 11q7 24 15 24q1 0 1.5 -0.5t1.5 -0.5l22 29l49 63l49 62l49 63
l49 62h10l-1 1h-9l46 58h18l-5 5h-9l43 55h20l-7 7h-9l28 34q2 4 5.5 8.5t8.5 9.5h62l-11 11h-5l-8 24q8 5 15.5 8.5t13.5 3.5h168q14 0 50 -36h-4l17 -17h-16q0 -1 0.5 -1.5l0.5 -0.5l15 -15q5 -15 8 -25.5t6 -20.5h-8l13 -13l7 -49h-9l11 -11l7 -52h-5l7 -7l8 -56h-3l4 -4
l8 -58l1 -1l8 -60h1l10 -65h-1l9 -53l1 -1l4 -29h-201l-17 17h-6zM424 177l-28 -37h142l-7 54h-1l-9 63h-1l-6 46h-8l7 -7l-41 -56h-9l4 -4z" />
    <glyph glyph-name="FL0042h" unicode="B" horiz-adv-x="721" 
d="M589 7h-543l-2 -7h459q54 0 86 7zM696 530h-459l-3 -8h503q-21 8 -41 8zM176 364l-11 -30h192l11 30h-192zM795 364h-190l-1 -2q-2 -4 -7.5 -12.5t-10.5 -15.5h198q8 15 11 30zM155 305l-13 -34h192l13 34h-192zM111 186l-14 -40h192l15 40h-193zM743 186h-203
q0 -5 -2 -7l-2 -5q-1 -1 -5 -8.5l-4 -7.5q-3 -2 -8 -5.5t-10 -6.5h221q4 9 7.5 19t5.5 21zM766 305h-371l-39 -34h376q9 7 17.5 15t16.5 19zM777 483h-557l-9 -24h576q-2 6 -4.5 12t-5.5 12zM797 397l-3 27h-596l-10 -27h609zM327 245l-3 -3l1 3h-192l-14 -37h624
q-4 22 -16 37h-400zM723 126h-634l-15 -43h627q5 9 11 20t11 23zM690 67h-622l-17 -47h580q19 8 33 19.5t26 27.5zM779 497l10 -6q1 -2 1.5 -4t2.5 -5l14 -14q3 -6 7 -17t9 -23h-12l13 -13l5 -49h-24l4 -4v-1l6 -6l11 -13q-2 -9 -6 -19t-9 -20h-32l7 -7l9 -17
q-18 -24 -39 -39h-7l4 -4q9 -11 14.5 -26t9.5 -33h-14l11 -13q-2 -10 -7 -23.5t-10 -25.5h-13l9 -13q-8 -17 -14 -29.5t-11 -20.5h-15l6 -12q-13 -17 -28.5 -29t-37.5 -22h-43l1 -13q-32 -7 -88 -7h-474l-17 17h-7l10 35h2l22 60l20 59h1l19 54h-1l25 63h-2l25 62h7l-1 1h-8
l23 58h13l-5 5h-8l22 55h16l-7 7h-8l21 52h21l-11 11h-8l15 36h468q27 0 53 -12l-1 -5l17 -17l-4 -13h18zM404 355l-14 -36h177l-1 1h-9q10 12 18.5 25t13.5 21h-196zM340 177l-15 -37h174l-4 15q7 4 12.5 7t4.5 2l1 1q1 0 2 1q2 4 3 6.5t2 4.5h-180zM520 170v1h1h-1v-1z
" />
    <glyph glyph-name="FL0043h" unicode="C" horiz-adv-x="663" 
d="M562 7h-186q24 -4 48.5 -5.5t49.5 -1.5h80q2 1 8 7zM349 522h462l6 8h-413q-25 0 -55 -8zM160 334h195q8 13 23 30h-205q-4 -8 -7 -15t-6 -15zM144 271h186q1 6 3 12.5t4 14.5q1 1 1 3q0 3 1 4h-188q-2 -9 -3.5 -17.5t-3.5 -16.5zM143 245v-2v-18q0 -7 2 -17h198
q-5 9 -8 18.5t-5 18.5h-187zM357 186h-209q4 -22 12 -40h239q-11 7 -22 17.5t-20 22.5zM243 459h516l21 24h-508q-8 -6 -15 -12zM192 397h504l30 27h-515q-5 -7 -9.5 -13.5t-9.5 -13.5zM622 67h-401q20 -17 44 -28t51 -19h261q23 20 45 47zM667 126h-497q16 -28 33 -43h432
q8 11 16 21.5t16 21.5zM346 508l-3 27q30 9 61 9h439q-1 -2 -2 -3t-2 -3l18 -17q-7 -11 -13 -19.5t-8 -10.5h-29l17 -17l-41 -46h-22l13 -13l-54 -49h-309l11 -11q-12 -14 -22.5 -27t-18.5 -25h-18l7 -7q0 -1 -0.5 -7t-0.5 -7q0 -6 -2 -10q-4 -7 -7 -32h-5l4 -4
q2 -11 6.5 -25t15.5 -32q21 -18 55 -39h233l6 -11l12 -12l9 -17q-8 -11 -17.5 -24t-17.5 -24h-16l6 -12q-15 -19 -50 -51h-15l4 -10q-2 -2 -4 -3.5t-9 -6.5h-83q-26 0 -52 1.5t-50 5.5l-13 13h-46q-29 8 -59.5 24.5t-64.5 44.5l-6 5q-5 5 -11 9t-11 9h5q-11 12 -20.5 27
t-19.5 32h1q-6 14 -10 29t-7 31h2q-2 14 -2.5 23.5t-0.5 19.5v16h12l-11 14q2 8 4.5 22.5t4.5 23.5h25l-1 1h-4l-12 18l3 9q3 8 6 15.5t8 15.5h36l-5 5h-5l-11 20q1 2 2 2.5t2 2.5q5 8 9.5 15.5t11.5 14.5h49l-7 7h-5l-9 22q2 2 4 3.5t4 3.5q6 5 13 11.5t13 11.5h97l-11 11
h-6z" />
    <glyph glyph-name="FL0044h" unicode="D" horiz-adv-x="690" 
d="M44 0h249q28 0 54 1.5t50 5.5h-351zM672 530h-435l-3 -8h488q-24 8 -50 8zM176 364l-11 -30h194l11 30h-194zM780 364h-203q1 -2 1 -9q0 -12 -4 -21h199q2 8 3.5 15t3.5 15zM155 305l-13 -34h194l13 34h-194zM762 305h-200l-3 -9q-7 -16 -15 -25h200q5 8 9.5 17zM133 245
l-14 -37h194l14 37h-194zM725 241q1 1 1.5 2t1.5 2h-202q-15 -18 -39 -37h216q5 8 10.5 16t11.5 17zM111 186l-14 -40h194l14 40h-194zM687 186h-231q-20 -13 -41.5 -23t-43.5 -17h284q8 9 16 19t16 21zM769 483h-549l-9 -24h569q-2 6 -4.5 12t-6.5 12zM786 413q0 2 -0.5 5
t-0.5 6h-587l-10 -27h597q1 3 1 8v8zM565 67h-497l-17 -47h408q58 16 106 47zM636 126h-547l-15 -43h514q13 9 25 20t23 23zM770 497l11 -6q2 -3 3.5 -5.5t3.5 -6.5l10 -10q5 -8 9 -19t9 -22h-13l13 -13q0 -2 0.5 -8.5t0.5 -8.5v-5q0 -4 -0.5 -10t-2.5 -17h-24l4 -4v-1l6 -6
l11 -13q-2 -11 -4 -20.5t-5 -18.5h-27l7 -7l10 -15l-10 -20t-12 -21h-8l4 -4q-6 -12 -8.5 -16.5t-3.5 -5.5l-4 -6l-4 -6h-1q-4 -5 -8.5 -12.5t-8.5 -12.5h-21l9 -17q-7 -11 -16.5 -22t-20.5 -23h-22l7 -17q-11 -11 -24 -23t-29 -23h-24l4 -14q-25 -16 -52.5 -28.5
t-56.5 -20.5h-62l1 -13q-24 -4 -51 -5.5t-57 -1.5h-264l-17 17h-7l10 35h2l22 60l20 59h1l19 54h-1l25 63h-2l25 62h7l-1 1h-8l23 58h13l-5 5h-8l22 55h16l-7 7h-8l21 52h21l-11 11h-8l15 36h444q27 0 60 -11l-1 -5l18 -17l-3 -14h24zM340 177l-13 -37h37l-2 17q41 14 89 43
h3q20 17 37 31.5t26 25.5h-2q11 13 19 24t12 21l7 17h10l-1 1h-7q3 11 6 21.5t3 13.5v3l-2 8h-167l11 -11l-20 -52h-8l7 -7l-22 -56h-4l4 -4z" />
    <glyph glyph-name="FL0045h" unicode="E" horiz-adv-x="657" 
d="M556 7h-510l-2 -7h503l2.5 1.5t6.5 5.5zM807 530h-570l-3 -8h569l2 4zM176 364l-11 -30h192l11 30h-192zM155 305l-13 -34h192l12 34h-191zM111 186l-14 -40h191l14 40h-191zM391 305l-35 -34h229l36 34h-230zM776 483h-556l-9 -24h546q5 6 9.5 12t9.5 12zM726 424h-528
l-10 -27h506q6 3 14 10t18 17zM133 245l-14 -37h400l39 37h-229l-7 -7l2 7h-191zM662 126h-573l-15 -43h559q2 2 4 5t4 5t9 13t12 20zM618 67h-550l-17 -47h520q23 20 47 47zM664 140l7 -13l11 -10l10 -17q-5 -9 -13 -21t-10 -14l-2 -2q-6 -8 -9 -11h-18l6 -12
q-12 -14 -26 -27t-25 -24h-15l4 -10q-5 -5 -6.5 -6t-7.5 -4h-521l-17 17h-7l10 35h2l22 60l20 59h1l19 54h-1l25 63h-2l25 62h7l-1 1h-8l23 58h13l-5 5h-8l22 55h16l-7 7h-8l21 52h21l-11 11h-8l15 36h602q-1 -3 -3 -5l18 -18q-5 -8 -8.5 -15.5l-3.5 -7.5l0.5 -2t0.5 -5h-53
l2 -5l13 -12l9 -18q-2 -3 -5 -6t-5 -6l-12 -16h-50l13 -13l8 -19q-23 -23 -37 -30h-324l11 -11l-14 -36h266l-5 -5l18 -18l-59 -56h-8l4 -4l-62 -59h-207l-13 -37h340z" />
    <glyph glyph-name="FL0046h" unicode="F" horiz-adv-x="653" 
d="M44 0h191l2 7h-191zM807 530h-570l-3 -8h569l2 4zM176 364l-11 -30h192l11 30h-192zM155 305l-13 -34h192l12 34h-191zM111 186l-14 -40h191l14 40h-191zM391 305l-35 -34h229l36 34h-230zM89 126l-15 -43h191l15 43h-191zM68 67l-17 -47h191l17 47h-191zM776 483h-556
l-9 -24h546q5 6 9.5 12t9.5 12zM726 424h-528l-10 -27h506q6 3 14 10t18 17zM133 245l-14 -37h400l39 37h-229l-7 -7l2 7h-191zM228 544h602q-1 -3 -3 -5l18 -18q-5 -8 -8.5 -15.5l-3.5 -7.5l0.5 -2t0.5 -5h-53l2 -5l13 -12l9 -18q-2 -3 -5 -6t-5 -6l-12 -16h-50l13 -13
l8 -19q-23 -23 -37 -30h-324l11 -11l-14 -36h266l-5 -5l18 -18l-59 -56h-8l4 -4l-62 -59h-207l-21 -62h-2l-21 -63h-1l-20 -54l-1 -3l-7 -26h-215l-17 17h-7l10 35h2l22 60l20 59h1l19 54h-1l25 63h-2l25 62h7l-1 1h-8l23 58h13l-5 5h-8l22 55h16l-7 7h-8l21 52h21l-11 11
h-8z" />
    <glyph glyph-name="FL0047h" unicode="G" horiz-adv-x="672" 
d="M474 0h149l2 7h-249q24 -4 48.5 -5.5t49.5 -1.5zM817 530h-413q-25 0 -55 -8h462zM375 364h-201l-7.5 -15t-6.5 -15h194q5 8 10 15.5t11 14.5zM337 298q1 1 1 3q0 3 1 4h-188q-5 -18 -6 -34h185q1 6 3 12.5t4 14.5zM330 245h-187v-2v-18q0 -7 2 -17h197q-9 16 -12 37z
M511 186l-14 -40h181l15 40h-182zM356 186h-208q4 -22 12 -40h238q-11 7 -22 17.5t-20 22.5zM453 271h273l12 34h-256q-8 -8 -15 -16.5t-14 -17.5zM406 208h296l14 37h-283q-9 -12 -16 -21.5t-11 -15.5zM759 459l21 24h-508q-8 -6 -14.5 -12t-13.5 -12h515zM696 397l30 27
h-514q-5 -7 -10 -13.5t-10 -13.5h504zM316 20h314l18 47h-427q20 -17 44 -28t51 -19zM203 83h451l17 43h-501q16 -28 33 -43zM819 544l5 -11l13 -12l9 -17q-5 -8 -10 -13h-29l17 -17l-41 -46h-22l13 -13l-54 -49h-336l11 -11l8 -18q-5 -6 -11.5 -15.5t-11.5 -18.5h-17l7 -7
q0 -1 -0.5 -7t-0.5 -7q0 -7 -3 -11q-2 -5 -3 -12.5t-3 -18.5h-12l13 -13q2 -8 5 -18.5t9 -24.5q9 -10 24 -20.5t36 -23.5h45l13 37h-67l-17 17h-5l-12 19q5 8 9.5 14.5t12.5 16.5l4 4l2 3q1 1 2 3.5t3 4.5h25l-10 19q2 2 9.5 10.5t16.5 18.5q2 3 5.5 6t5.5 6h280l-2 -5
l18 -18l-19 -56h-6l4 -4l-23 -59l-23 -60h1l-24 -59h1l-25 -64l-7 -25h-158q-26 0 -52 1.5t-50 5.5l-13 13h-46q-29 8 -59.5 24.5t-64.5 44.5l-6 5q-5 5 -11 9t-11 9h5q-10 11 -19.5 26t-20.5 33h1q-6 14 -10 29t-7 31h2q-2 14 -2.5 23.5t-0.5 19.5v16h1q2 20 4.5 34.5
t4.5 25.5h9l-1 1h-8q10 24 15.5 35.5t10.5 22.5h15l-5 5h-8q2 3 7.5 11t11.5 17l11 16.5t8 10.5h21l-7 7h-10q2 2 8 7.5t11 10.5l22 20t16 14h94l-11 11h-6l-3 26q30 10 64 10h415z" />
    <glyph glyph-name="FL0048h" unicode="H" horiz-adv-x="686" 
d="M452 0h190l2 7h-190zM46 7l-2 -7h192l2 7h-192zM645 530l-3 -8h190l3 8h-190zM237 530l-3 -8h192l3 8h-192zM628 483l-9 -24h190l9 24h-190zM220 483l-9 -24h192l9 24h-192zM606 424l-10 -27h190l10 27h-190zM198 424l-10 -27h192l10 27h-192zM584 364l-11 -30h190l11 30
h-190zM176 364l-11 -30h192l11 30h-192zM155 305l-13 -34h192l13 34h-192zM519 186l-14 -40h190l14 40h-190zM111 186l-14 -40h192l14 40h-192zM497 126l-15 -43h190l15 43h-190zM89 126l-15 -43h192l15 43h-192zM476 67l-17 -47h190l17 47h-190zM68 67l-17 -47h192l17 47
h-192zM398 305l-33 -34h375l13 34h-355zM133 245l-14 -37h598l14 37h-391l-24 -25l9 25h-192zM213 508l15 36h222l-3 -6l18 -17l-12 -30h-22l17 -17l-18 -46h-17l13 -13l-19 -49h-14l11 -11l-16 -40l4 4h169l-1 1h-8l23 58h13l-5 5h-8l22 55h16l-7 7h-8l21 52h21l-11 11h-8
l15 36h220l-3 -6l18 -17l-12 -30h-22l17 -17l-18 -46h-17l13 -13l-19 -49h-14l11 -11l-20 -52h-8l7 -7l-22 -56h-4l4 -4l-23 -59l-21 -62h-2l-21 -63h-1l-20 -54l-1 -3l-7 -26h-214l-17 17h-7l10 35h2l22 60l20 59h1l13 37h-163l-21 -62h-2l-21 -63l-1 1v-1l-20 -54l-1 -3
l-7 -26h-216l-17 17h-7l10 35h2l22 60l20 59h1l19 54h-1l25 63h-2l25 62h7l-1 1h-8l23 58h13l-5 5h-8l22 55h16l-7 7h-8l21 52h21l-11 11h-8zM376 303v-1v1z" />
    <glyph glyph-name="FL0049h" unicode="I" horiz-adv-x="648" 
d="M39 1v-1h499q8 0 15 7h-511q-3 -5 -3 -6zM290 522h508l2 4l2 4h-501q-3 -2 -5.5 -4t-5.5 -4zM360 364l-11 -30h192l11 30h-192zM339 305l-13 -34h192l13 34h-192zM317 245l-14 -37h192l14 37h-192zM295 186l-14 -40h192l14 40h-192zM251 483l-21 -24h522q5 6 9.5 12
t9.5 12h-520zM183 397h506q6 3 14 10t18 17h-519q-16 -18 -19 -27zM102 83h521q9 12 17 23t13 20h-508q-10 -8 -21 -19.5t-22 -23.5zM51 20h517q18 17 42 47h-521q-11 -14 -20.5 -26t-17.5 -21zM256 508l27 27q4 4 17 9h525q-1 -3 -3 -5l18 -18q-5 -8 -8.5 -15.5l-3.5 -7.5
l0.5 -2t0.5 -5h-33l17 -17q-1 -2 -4 -6t-7 -9t-7.5 -9.5t-4.5 -5.5l-12 -16h-23l13 -13q-19 -19 -33.5 -31.5t-22.5 -17.5h-135l11 -11l-20 -52h-8l7 -7l-22 -56h-4l4 -4l-23 -59l-13 -37h170q-1 -2 -2 -3t-2 -3l18 -17q-11 -18 -22 -34t-22 -31h-1q-12 -16 -23.5 -29
t-22.5 -24l1 -1q-4 -2 -7 -5l-4 -4q-28 -20 -34 -20h-510l-17 17h-6v15q0 6 10 20h6l-3 6q2 3 6 7t8 9h-1q3 4 9 11t10 12q3 4 6.5 8t5.5 7h12l-4 10q10 11 21 22t30 27h123l19 54h-1l25 63h-2l25 62h7l-1 1h-8l18 46h-143l-17 17h-5l-12 18q2 5 9 14.5t17 22.5h21l-7 7h-9
l45 52h32l-11 11h-10z" />
    <glyph glyph-name="FL004Ah" unicode="J" horiz-adv-x="605" 
d="M564 530l-3 -8h190l3 8h-190zM39 0h336q42 0 71 7h-403q-1 -2 -2 -3.5t-2 -3.5zM547 483l-9 -24h190l9 24h-190zM525 424l-9 -27h189l10 27h-190zM504 364l-11 -30h189l11 30h-189zM482 305l-12 -34h189l12 34h-189zM441 208h195q3 9 6.5 18t7.5 19h-190l-4 -12
q-4 -9 -15 -25zM380 146h228q5 9 9.5 19t9.5 21h-201q-10 -12 -21.5 -22.5t-24.5 -17.5zM94 83h476q7 9 14 19.5t14 23.5h-467q-21 -21 -37 -43zM51 20h438q38 17 67 47h-474q-8 -12 -15.5 -23.5t-15.5 -23.5zM540 508l15 36h220l-3 -6l18 -17l-12 -30h-22l17 -17l-18 -46
h-17l13 -13l-19 -49h-14l11 -11l-20 -52h-10l7 -7l-19 -56h-7l4 -4q-1 -3 -3 -11t-3 -11q-6 -14 -9.5 -22.5t-5.5 -14.5q-5 -11 -13.5 -30t-13.5 -30h1q-22 -40 -36 -59h1q-46 -49 -91 -69h-41l1 -12q-19 -5 -37.5 -6.5t-38.5 -1.5h-336l-17 17h-5l-12 18q0 1 1.5 3.5
t9.5 13.5h5l-3 6q8 12 18.5 27t18.5 27h10l-4 9q8 11 18 22.5t26 27.5h250l-4 18q14 7 25.5 18t22.5 24h17l-7 14q4 5 7 10.5t7 13.5l1 2l7 19l21 60h9l-1 1h-8l23 58h14l-5 5h-7l19 55h16l-7 7h-8l21 52h21l-11 11h-8z" />
    <glyph glyph-name="FL004Bh" unicode="K" horiz-adv-x="730" 
d="M46 7l-2 -7h192l2 7h-192zM733 0l-5 7h-215l6 -7h214zM237 530l-3 -8h192l3 8h-192zM673 530l-11 -8h214l11 8h-214zM220 483l-9 -24h192l9 24h-192zM198 424l-10 -27h192l10 27h-192zM607 483l-33 -24h220l31 24h-218zM176 364l-11 -30h192l11 30h-192zM525 424l-37 -27
h225l35 27h-223zM442 364l-42 -30h231l39 30h-228zM111 186l-14 -40h192l15 40h-193zM89 126l-15 -43h192l16 43h-193zM68 67l-17 -47h192l17 47h-192zM365 186l33 -40h229l-29 40h-233zM415 126l35 -43h223l-31 43h-227zM463 67l39 -47h216l-34 47h-221zM155 305l-13 -34
h407l44 34h-233l-18 -13l5 13h-192zM312 208l11 30l24 -30h235l-27 37h-422l-14 -37h193zM213 508l15 36h222l-3 -6l18 -17l-12 -30h-22l17 -17l-18 -46h-17l13 -13l-19 -49h-14l11 -11l-1 -2l35 25h25l-5 5h-12l75 55h29l-7 7h-12l72 52h39l-11 11h-12l50 36h260l-7 -5
l18 -18l-41 -30h-38l17 -17l-60 -46h-30l13 -13l-64 -49h-25l11 -11l-68 -52h-16l7 -7l-72 -55l6 -5l43 -59l42 -59l2 -1l47 -65h-1l38 -52l2 -2l21 -29h-240l-17 17h-4l-17 20l-52 63h-1l-58 71l-41 50l-5 -13h1l-23 -60h1l-25 -65l-20 -54l-1 -3l-7 -26h-216l-17 17h-7
l10 35h2l22 60l20 59h1l19 54h-1l25 63h-2l25 62h7l-1 1h-8l23 58h13l-5 5h-8l22 55h16l-7 7h-8l21 52h21l-11 11h-8z" />
    <glyph glyph-name="FL004Ch" unicode="L" horiz-adv-x="592" 
d="M425 522l3 8h-191l-3 -8h191zM46 7l-2 -7h439q2 2 4 3.5t4 3.5h-445zM220 483l-9 -24h191l9 24h-191zM198 424l-10 -27h191l10 27h-191zM176 364l-11 -30h191l11 30h-191zM155 305l-13 -34h191l13 34h-191zM133 245l-14 -37h191l14 37h-191zM111 186l-14 -40h191l14 40
h-191zM595 126h-506l-15 -43h487q11 14 20 25t14 18zM548 67h-480l-17 -47h454q11 11 21.5 22.5t21.5 24.5zM597 140l5 -10l13 -13l9 -17l-12.5 -17.5t-18.5 -22.5l2 -2l-22 -22h-1q-11 -12 -21.5 -24.5t-20.5 -22.5h-1q-5 -5 -10 -9t-5 -5l-6 -6h-459l-17 17h-7l10 35h2
l22 60l20 59h1l19 54h-1l25 63h-2l25 62h7l-1 1h-8l23 58h13l-5 5h-8l22 55h16l-7 7h-8l21 52h21l-11 11h-8l15 36h221l-3 -6l18 -17l-12 -30h-22l17 -17l-18 -46h-17l13 -13l-19 -49h-14l11 -11l-20 -52h-8l7 -7l-22 -56h-4l4 -4l-23 -59l-13 -37h273z" />
    <glyph glyph-name="FL004Dh" unicode="M" horiz-adv-x="868" 
d="M399 0h69l6 7h-76zM44 0h192l2 7h-192zM632 0h192l2 7h-192zM237 530l-3 -8h246l-1 8h-242zM775 530l-8 -8h247l3 8h-242zM387 67l8 -47h91l43 47h-142zM220 483l-9 -24h281l-4 24h-268zM731 483l-22 -24h282l9 24h-269zM133 245l-14 -37h192l14 37h-192zM721 245
l-14 -37h192l14 37h-192zM111 186l-14 -40h192l14 40h-192zM699 186l-14 -40h192l14 40h-192zM376 126l8 -43h160l39 43h-207zM677 126l-15 -43h192l15 43h-192zM89 126l-15 -43h192l15 43h-192zM198 424l-10 -27h316l-5 27h-301zM677 424l-25 -27h316l10 27h-301zM656 67
l-17 -47h192l17 47h-192zM68 67l-17 -47h192l17 47h-192zM365 186l7 -40h229l37 40h-273zM176 364l-11 -30h351l-6 30h-334zM622 364l-28 -30h351l11 30h-334zM354 245l7 -37h297l33 37h-337zM740 298l-10 -27h192l13 34h-367l-32 -34h179zM334 271l10 27l5 -27h179l-6 34
h-367l-13 -34h192zM881 52l-20 -54l-1 -3l-7 -26h-216l-17 17h-7l10 35h2l22 60l20 59h1l12 33l-53 -56l-2 -2l-57 -63h-1l-57 -63h-1l-16 -20h-84l-17 17h-6l-3 20l-11 63l-2 12l-10 51l-11 62l-2 7l-9 -24l-21 -62h-2l-21 -63h-1l-20 -54l-1 -3l-7 -26h-216l-17 17h-7
l10 35h2l22 60l20 59h1l19 54h-1l25 63h-2l25 62h7l-1 1h-8l23 58h13l-5 5h-8l22 55h16l-7 7h-8l21 52h21l-11 11h-8l15 36h264v-7l17 -16l3 -30h-11v-1l16 -16l8 -46h-10l13 -13l9 -49h-9l11 -11l10 -49l13 13h10l-1 1h-10l55 58h19l-5 5h-10l52 55h22l-7 7h-10l49 52h28
l-11 11h-10l36 36h269l-3 -6l18 -17l-12 -30h-22l17 -17l-18 -46h-17l13 -13l-19 -49h-14l11 -11l-20 -52h-8l7 -7l-22 -56h-4l4 -4l-23 -59l-21 -62h-2l-21 -63l-1 1v-1zM546 303h-2l1 -2z" />
    <glyph glyph-name="FL004Eh" unicode="N" horiz-adv-x="686" 
d="M46 7l-2 -7h192l2 7h-192zM645 530l-3 -8h190l3 8h-190zM400 0h242l2 7h-245zM237 530l-3 -8h246l-1 8h-242zM628 483l-9 -24h190l9 24h-190zM606 424l-10 -27h190l10 27h-190zM584 364l-11 -30h190l11 30h-190zM563 305l-13 -34h190l13 34h-190zM220 483l-9 -24h281
l-4 24h-268zM133 245l-14 -37h192l14 37h-192zM111 186l-14 -40h192l14 40h-192zM89 126l-15 -43h192l15 43h-192zM198 424l-10 -27h316l-5 27h-301zM68 67l-17 -47h192l17 47h-192zM176 364l-11 -30h351l-6 30h-334zM387 67l9 -47h253l17 47h-279zM334 271l10 27l5 -27h179
l-6 34h-367l-13 -34h192zM376 126l8 -43h288l15 43h-311zM365 186l7 -40h323l14 40h-344zM536 232l-3 13h-179l7 -37h356l14 37h-190zM621 508l15 36h220l-3 -6l18 -17l-12 -30h-22l17 -17l-18 -46h-17l13 -13l-19 -49h-14l11 -11l-20 -52h-8l7 -7l-22 -56h-4l4 -4l-23 -59
l-21 -62h-2l-21 -63h-1l-20 -54l-1 -3l-7 -26h-261l-17 17h-6l-3 20l-24 126l-11 62l-2 7l-9 -24l-21 -62h-2l-21 -63l-1 1v-1l-20 -54l-1 -3l-7 -26h-216l-17 17h-7l10 35h2l22 60l20 59h1l19 54h-1l25 63h-2l25 62h7l-1 1h-8l23 58h13l-5 5h-8l22 55h16l-7 7h-8l21 52h21
l-11 11h-8l15 36h264v-7l17 -16l3 -30h-11v-1l16 -16l8 -46h-10l13 -13l9 -49h-9l11 -11l10 -48l5 12h7l-1 1h-8l23 58h13l-5 5h-8l22 55h16l-7 7h-8l21 52h21l-11 11h-8zM544 303l2 -3l1 3h-3z" />
    <glyph glyph-name="FL004Fh" unicode="O" horiz-adv-x="753" 
d="M548 7h-256q38 -7 93 -7h100q36 0 63 7zM381 522h289q-22 4 -46 6t-51 2h-132q-26 0 -60 -8zM819 351v13h-207q8 -11 11 -30h195q1 3 1 8v9zM161 334h199q15 16 33 30h-215q-5 -8 -9 -15t-8 -15zM138 271h186q1 9 11 27q1 2 2 3.5t2 3.5h-190q-4 -10 -6.5 -18t-4.5 -16z
M813 287l3 18h-191q0 -8 -0.5 -16t-1.5 -16l-1 -2h188q1 4 1.5 7.5t1.5 8.5zM129 208h197q-6 18 -6 36v1h-187v-2q-4 -17 -4 -35zM803 245h-190q-2 -3 -3.5 -6.5t-3.5 -6.5q-4 -9 -17 -24h201q4 9 7 18t6 19zM132 146h240q-22 13 -36 40h-207q0 -22 3 -40zM779 186h-212
q-14 -13 -30 -23t-30 -17h247q6 9 12 19t13 21zM261 459h526q-11 13 -24 24h-469q-9 -6 -17 -12zM200 397h614q-2 7 -3.5 13.5t-3.5 13.5h-584q-6 -7 -12 -13.5t-11 -13.5zM677 67h-508q29 -32 73 -47h350q44 16 85 47zM739 126h-602q4 -12 8.5 -23t11.5 -20h540
q25 22 42 43zM378 508l-3 27q33 9 66 9h132q31 0 56.5 -2t47.5 -6l-1 -6l18 -17l-2 -16h76q9 -7 20 -18.5t24 -28.5q4 -5 8.5 -10.5t9.5 -11.5h-9l13 -13q7 -21 9.5 -31l4.5 -18h-9l11 -11v-24q0 -4 -0.5 -9t-2.5 -19h-5l7 -7l-5 -31q-1 -5 -2.5 -13t-2.5 -12h-20l4 -4
l11 -14q-2 -7 -5.5 -17.5t-11.5 -27.5h-18l10 -16q-6 -11 -13 -22.5t-16 -23.5h-20l8 -16q-18 -23 -47 -47h-22l5 -14q-20 -16 -43 -28t-48 -21h-44l2 -13q-27 -7 -66 -7h-100q-28 0 -52.5 1.5t-44.5 5.5l-13 13h-34q-35 12 -67 41q-31 20 -56 51h4q-7 12 -12.5 27t-10.5 32
h2l-3 3q-3 18 -3 57h7l-7 7q0 11 0.5 19t2.5 16q1 0 1 1v16h16l-12 15q2 5 6.5 17l10.5 28h25l-1 1h-5l-12 18q3 6 8.5 15t10.5 17l1.5 3l2.5 5h38l-5 5h-5l-11 21q4 5 8.5 10t11.5 12q3 3 6 6.5t5 5.5h53l-7 7h-5l-9 25q2 1 4 2.5t4 2.5q4 2 5 3l1 1q1 0 2 1q6 5 14 10
t10 7h105l-11 11h-6zM360 180l3 -3v-2q21 -20 45 -35h89l-3 16q17 8 35.5 19t32.5 25h1q11 13 19 22t10 14l1.5 2.5t3.5 4.5l-1 -1q0 1 2 3v4q0 2 0.5 5.5t0.5 4.5h1l9 20q1 7 1.5 16.5t0.5 23.5h7l-1 1h-6q-2 11 -5.5 21.5t-11.5 24.5h-158l11 -11q-51 -39 -63 -52h-12
l7 -7q-8 -11 -10 -15.5t-4 -7.5q-8 -14 -12 -33h-6l4 -4v-12q0 -17 9 -44zM799 463q0 1 -1 1z" />
    <glyph glyph-name="FL0050h" unicode="P" horiz-adv-x="707" 
d="M46 7l-2 -7h192l2 7h-192zM237 530l-3 -8h499q-19 8 -37 8h-459zM176 364l-11 -30h192l11 30h-192zM795 364h-190l-1 -2q-2 -4 -7.5 -12.5t-10.5 -15.5h203q4 13 6 30zM155 305l-13 -34h192l13 34h-192zM111 186l-14 -40h192l15 40h-193zM89 126l-15 -43h192l16 43h-193z
M68 67l-17 -47h192l17 47h-192zM776 305h-381l-39 -34h396q15 18 24 34zM773 483h-553l-9 -24h573q-2 6 -5 12zM793 424h-595l-10 -27h608q0 12 -3 27zM725 245h-398l-3 -3l1 3h-192l-14 -37h544q33 13 62 37zM775 497l10 -6q1 -3 2 -5.5t2 -4.5l14 -13q3 -6 6.5 -14
t10.5 -26h-14l1 -1q0 -4 1 -5l16 -16q3 -15 3 -40h-20l2 -2v-3l6 -6l11 -12q-1 -8 -3.5 -17.5t-6.5 -22.5h-27l7 -7l10 -16q-4 -8 -12 -18.5t-18 -21.5h-35l4 -4l7 -19q-15 -13 -32 -22.5t-35 -17.5h-345l-23 -60h1l-25 -65l-20 -54l-1 -3l-7 -26h-216l-17 17h-7l10 35h2
l22 60l20 59h1l19 54h-1l25 63h-2l25 62h7l-1 1h-8l23 58h13l-5 5h-8l22 55h16l-7 7h-8l21 52h21l-11 11h-8l15 36h468q26 0 50 -12l-1 -5l17 -17l-4 -13h17zM404 355l-14 -36h177l-1 1h-9q10 12 18.5 25t13.5 21h-196z" />
    <glyph glyph-name="FL0051h" unicode="Q" horiz-adv-x="746" 
d="M379 522h274q-40 8 -80 8h-132q-16 0 -31 -2t-31 -6zM813 364h-209q10 -14 15 -30h195v5v12q0 9 -1 13zM161 334h199q15 16 33 30h-216q-5 -8 -8.5 -15zM809 287q1 5 1.5 9t0.5 9h-187v-10v-12q0 -9 -1 -10l-1 -2h184q1 4 1.5 7.5t1.5 8.5zM138 271h186q1 9 11 27
q1 2 2 3.5t2 3.5h-191q-3 -8 -5.5 -17t-4.5 -17zM130 208h196q-6 18 -6 36v1h-187v-2q-3 -18 -3 -35zM718 -28l-18 35h-386q23 -4 47 -5.5t50 -1.5h90l17 -28h200zM135 146h237q-22 13 -36 40h-206q0 -18 5 -40zM260 459h512q-9 11 -26 24h-454q-8 -5 -16 -11.5t-16 -12.5z
M771 186h-373l18 -40h328q17 22 27 40zM798 245h-185q-2 -3 -3.5 -6.5t-3.5 -6.5q-2 -5 -4.5 -9t-4.5 -8l-16 30h-210l17 -37h394q10 17 16 37zM200 397h606q-2 7 -5 13.5t-6 13.5h-573q-6 -7 -11.5 -13.5t-10.5 -13.5zM261 20h432l-24 47h-490q34 -32 82 -47zM728 126h-587
q11 -28 24 -43h522q11 10 21 20.5t20 22.5zM376 508l-3 27q34 9 68 9h132q47 0 87 -8l-1 -6l18 -17l-2 -16h76q8 -6 19.5 -18t31.5 -34h-2q3 -4 6.5 -7.5l7.5 -7.5l2 -2h-7l13 -13q4 -9 8.5 -19.5t10.5 -29.5h-14v-5l17 -16q1 -4 1 -13v-13v-16h-10l7 -7q0 -14 -0.5 -20
t-1.5 -11t-2.5 -13t-2.5 -12h-21l4 -4l11 -14q-3 -10 -8.5 -21.5t-11.5 -23.5h-18l10 -16q-8 -13 -15.5 -24t-15.5 -22h-21l8 -16q-9 -11 -20.5 -23t-25.5 -24h-12l27 -53l1 -1l29 -57h-224l-17 17h-5l-7 11h-72q-28 0 -53 1.5t-48 5.5l-13 13h-36l-3 1q-46 13 -100 61
q-8 7 -17 14.5t-17 15.5h6q-9 13 -16 27.5t-14 31.5h3l-2 2q-2 9 -3.5 22.5t-1.5 35.5h7l-7 7q0 20 3 38v14h15l-9 15q0 1 0.5 2.5t0.5 2.5v1q0 1 1 2l2 8t3 9q1 5 3 10l4 10h26l-1 1h-5l-12 18q4 8 10.5 20t11.5 20h39l-5 5h-5l-10 21q1 1 4.5 5.5t9 11t8.5 9.5q2 2 3.5 4
t3.5 4h53l-7 7h-5l-11 25q5 0 6 1l1 1q2 2 3 2.5t2 1.5q3 3 8 6.5t21 14.5h105l-11 11h-6zM365 273q-3 -4 -7 -14h232l5 -11l3 -3v4q0 2 0.5 5.5t0.5 4.5h1l10 20v40h4l-1 1h-5q-3 10 -8.5 21t-15.5 25h-148l11 -11q-51 -39 -63 -52h-12l7 -7q-8 -11 -10 -15.5t-4 -7.5z
M363 177v-2q12 -12 38 -30l-25 55l-22 46l-1 -6h-6l4 -4v-12q0 -17 9 -44zM785 460q0 1 -1 1z" />
    <glyph glyph-name="FL0052h" unicode="R" horiz-adv-x="725" 
d="M46 7l-2 -7h192l2 7h-192zM733 0l-7 7h-215l8 -7h214zM237 530l-3 -8h491q-21 8 -42 8h-446zM176 364l-11 -30h192l11 30h-192zM792 364h-193q-1 -8 -4 -16.5t-10 -13.5h202q2 7 3 14.5t2 15.5zM155 305l-13 -34h192l13 34h-192zM289 146l13 36l5 4h-196l-14 -40h192z
M89 126l-15 -43h192l15 43h-192zM68 67l-17 -47h192l17 47h-192zM317 186l44 -40h229l-39 40h-234zM382 126l47 -43h223l-42 43h-228zM446 67l51 -47h216l-46 47h-221zM775 305h-388l-34 -34h396q8 8 14.5 16t11.5 18zM768 483h-548l-9 -24h569q-5 12 -12 24zM789 424h-591
l-10 -27h604q0 7 -1 13.5t-2 13.5zM714 245h-386l-5 -5l2 5h-192l-14 -37h479q31 5 60.5 13.5t55.5 23.5zM213 508l15 36h455q28 0 54 -12l-1 -5l17 -17l-4 -13h20l11 -6q2 -2 2.5 -5t2.5 -6l12 -11q5 -8 9.5 -18t9.5 -23h-16l3 -3v-4l17 -17q0 -6 1 -7q1 -5 1.5 -11
t0.5 -20h-19l2 -2v-3l6 -6l11 -12q-1 -7 -2.5 -15t-6.5 -25h-26l7 -7l10 -16q-6 -11 -14 -21t-17 -19h-44l4 -4l6 -20q-28 -17 -58.5 -25.5t-61.5 -13.5h-41l37 -37l8 -8l62 -63h-1l47 -48l35 -35h-4l17 -17h-245l-20 17h-1l-40 35h2l-65 60l-64 59l-16 15l-1 -1l-14 -39h-1
l-21 -63h-1l-20 -54l-1 -3l-7 -26h-216l-17 17h-7l10 35h2l22 60l20 59h1l19 54h-1l25 63h-2l25 62h7l-1 1h-8l23 58h13l-5 5h-8l22 55h16l-7 7h-8l21 52h21l-11 11h-8zM404 355l-14 -36h166l-1 1h-11q17 13 25.5 24.5t12.5 21.5h-189z" />
    <glyph glyph-name="FL0053h" unicode="S" horiz-adv-x="692" 
d="M55 0h510q20 0 34 7h-540q-1 -2 -2 -3.5t-2 -3.5zM840 530h-510q-15 0 -36 -8h541q2 2 2.5 4t2.5 4zM375 340q-2 2 -6 5.5t-4 4.5v5q0 6 1 9h-192v-11v-10q0 -6 1 -9h209q-6 3 -9 6zM519 174v-12q0 -10 -2 -16h187q1 5 1.5 11t0.5 11v6q0 9 -1 12h-188q2 -10 2 -12z
M805 483h-566l-10 -12l-10 -12h566l10 12zM725 397l27 27h-557q-4 -7 -6.5 -13.5t-5.5 -13.5h542zM651 305h-470q3 -8 6.5 -17t8.5 -17h483q-5 10 -12.5 18t-15.5 16zM692 245h-478q22 -27 48 -37h440q-2 9 -4 18.5t-6 18.5zM113 83h566q6 11 11 21.5t9 21.5h-550
q-7 -7 -16 -18t-20 -25zM67 20h555q27 18 47 47h-568q-10 -13 -18.5 -25t-15.5 -22zM842 544l4 -9l14 -14l8 -19l-2 -3q-1 -3 -6 -8h-51l2 -3l14 -14l8 -19q-2 -2 -4 -4.5t-5 -6.5q-2 -3 -6.5 -8t-6.5 -8h-25l13 -13l-49 -49h-361l11 -11q-2 -4 -2.5 -6.5t-1.5 -4.5h1l-1 -5
l17 -17l-1 -3h240l7 -3q6 -6 12.5 -13.5t13.5 -17.5q15 -15 33 -45h-7l11 -11q5 -11 8 -24.5t5 -27.5h-1q2 -9 2.5 -14t0.5 -9v-6q0 -8 -1 -16.5t-2 -16.5h-1q-6 -19 -12 -32.5t-12 -24.5h1q-32 -48 -65 -69h-19l2 -10q-21 -10 -43 -10h-510l-17 17h-5l-12 18q0 1 1.5 3.5
t9.5 13.5h4l-2 5l2 2l2 2l17.5 25t18.5 26h10l-4 9q11 14 22 27t21 23h356q5 11 5.5 15t0.5 7v10q-2 2 -2 5h-223q-21 8 -43 29q-27 18 -53 53h2q-5 10 -11.5 24.5t-12.5 35.5h7l-1 1h-6q-1 5 -1.5 9t-0.5 8v16v25h16l-5 5h-6q0 5 4 15t5 12q4 8 7 15.5l5 12.5h20l-7 7h-9
q2 3 8 10.5t12.5 15.5t13 15.5t9.5 10.5h71l-11 11h-6l-5 24q25 12 48 12h512z" />
    <glyph glyph-name="FL0054h" unicode="T" horiz-adv-x="648" 
d="M230 7l-2 -7h192l2 7h-192zM290 522h508l2 4l2 4h-501q-3 -2 -5.5 -4t-5.5 -4zM360 364l-11 -30h192l11 30h-192zM339 305l-13 -34h192l13 34h-192zM317 245l-14 -37h192l14 37h-192zM295 186l-14 -40h192l14 40h-192zM273 126l-15 -43h192l15 43h-192zM252 67l-17 -47
h192l17 47h-192zM251 483l-21 -24h522q5 6 9.5 12t9.5 12h-520zM183 397h506q6 3 14 10t18 17h-519q-16 -18 -19 -27zM256 508l27 27q4 4 17 9h525q-1 -3 -3 -5l18 -18q-5 -8 -8.5 -15.5l-3.5 -7.5l0.5 -2t0.5 -5h-33l17 -17q-1 -2 -4 -6t-7 -9t-7.5 -9.5t-4.5 -5.5l-12 -16
h-23l13 -13q-19 -19 -33.5 -31.5t-22.5 -17.5h-135l11 -11l-20 -52h-8l7 -7l-22 -56h-4l4 -4l-23 -59l-21 -62h-2l-21 -63h-1l-20 -54l-1 -3l-7 -26h-216l-17 17h-7l10 35h2l22 60l20 59h1l19 54h-1l25 63h-2l25 62h7l-1 1h-8l18 46h-143l-17 17h-5l-12 18q2 5 9 14.5
t17 22.5h21l-7 7h-9l45 52h32l-11 11h-10zM477 52h1l-1 1v-1z" />
    <glyph glyph-name="FL0055h" unicode="U" horiz-adv-x="714" 
d="M426 530h-189l-3 -8h189q1 2 1.5 4t1.5 4zM860 522l3 8h-190l-3 -8h190zM367 0h117q18 0 35 1.5t32 5.5h-294q23 -4 50 -5.5t60 -1.5zM220 483l-9 -24h190q2 5 4 11.5t4 12.5h-189zM656 483l-9 -24h190l9 24h-190zM634 424l-9 -27h189l10 27h-190zM389 424h-190l-10 -27
h191zM613 364l-11 -30h189l11 30h-189zM369 364h-191l-11 -30h192q2 7 4.5 14.5t5.5 15.5zM773 283l8 22h-190l-12 -34h189q2 3 2.5 6t2.5 6zM148 271h190q2 6 5 14.5t6 19.5h-192q-3 -9 -5 -17.5t-4 -16.5zM759 245h-190l-4 -12q-4 -9 -15 -25h193l8 18t8 19zM131 208h195
v1q0 5 1.5 13t3.5 19q0 1 -0.5 1.5t0.5 2.5h-191q-2 -10 -4.5 -19t-4.5 -18zM124 147v-1h228q-18 12 -24 40h-201q-3 -23 -3 -39zM734 186h-201q-10 -12 -22.5 -22.5t-27.5 -17.5h231q5 9 10 19t10 21zM204 20h386q37 17 67 47h-515q17 -30 62 -47zM134 83h538q16 19 31 43
h-578q1 -25 9 -43zM428 544l8 -14l10 -9l10 -16q-1 -1 -1 -3v-1q-1 -1 -1 -5v-5h-28l17 -17q-1 -3 -3.5 -12.5t-3.5 -12.5q-1 -8 -8 -21h-31l6 -7l6 -6l11 -14q-2 -8 -6.5 -18.5t-6.5 -16.5h-29l11 -11l10 -15q-2 -6 -4 -11t-3 -9l-6 -17h-9l7 -7q-4 -13 -9 -28t-10 -28h-7
l4 -4v-17q-5 -25 -5 -30v-12q1 -8 5 -17q5 -5 11 -10t14 -10h86l-3 16q17 8 31 19.5t25 24.5h3q17 25 24 40l7 19l21 60h9l-1 1h-8l23 58h14l-5 5h-7l19 55h16l-7 7h-8l21 52h21l-11 11h-8l15 36h220l-3 -6l18 -17l-12 -30h-22l17 -17l-18 -46h-17l13 -13l-19 -49h-14
l11 -11l-20 -52h-9l7 -7l-14 -41l-2 -3q-1 -2 -2.5 -6t-2.5 -6h-20l4 -4l10 -15q-2 -6 -5 -11.5t-5 -10.5l-9 -22h-16l10 -15l-3.5 -7l-3.5 -7q-4 -7 -7 -14.5t-8 -15.5l1 -1q-11 -17 -21 -32t-19 -26l1 -1q-25 -25 -48 -42.5t-44 -26.5h-37l2 -12q-17 -5 -35.5 -6.5
t-37.5 -1.5h-117q-35 0 -63 1.5t-51 5.5l-13 13h-36l-4 1q-29 10 -50 31q-30 21 -53 60h2q-6 18 -9 51v15q0 13 1 25.5t3 27.5h11l-8 11q2 9 5.5 23.5t5.5 24.5h17l-11 14q0 2 2 8q1 2 1.5 5t1.5 5q2 3 3 13q1 4 1.5 8t1.5 7h10l-1 1h-8l23 58h12l-5 5h-8l22 55h15l-7 7h-8
l21 52h21l-11 11h-8l15 36h200z" />
    <glyph glyph-name="FL0056h" unicode="V" horiz-adv-x="773" 
d="M521 7h-198q7 -7 16 -7h165q10 0 17 7zM401 530h-174l1 -8h174zM726 530l-6 -8h206l6 8h-206zM233 483l4 -24h173l-3 24h-174zM242 424l4 -27h172l-3 27h-173zM689 483l-19 -24h208l18 24h-207zM251 364l4 -30h172l-4 30h-172zM643 424l-21 -27h209l20 27h-208zM259 305
l5 -34h171l-4 34h-172zM597 364l-24 -30h210l23 30h-209zM268 245l5 -37h171l-5 37h-171zM551 305l-27 -34h211l26 34h-210zM504 245l-28 -37h211l28 37h-211zM577 62l4 5h-284q6 -26 17 -47h223q13 11 24 23t16 19zM293 83h300l32 43h-340l4 -25q1 -4 1.5 -8.5t2.5 -9.5z
M459 186l-10 -13l-2 13h-171l6 -40h358l31 40h-212zM691 508l28 36h241l-4 -5l18 -18l-22 -30h-31l17 -17l-34 -46h-24l13 -13l-36 -49h-19l11 -11l-40 -52h-12l7 -7l-43 -56h-7l4 -4l-45 -59h1l-48 -62h-1l-42 -57h1l-18 -23q-5 -6 -17 -19t-29 -27h-16l4 -10
q-13 -10 -24 -10h-165q-14 0 -39 24q-12 9 -31 28h8q-5 12 -9.5 26.5t-8.5 30.5q-1 1 -1 4q0 4 -1 6q0 1 -0.5 2t-0.5 3q-1 1 -1 4v2l-5 33h-1l-8 62h-1l-8 63h-1l-8 62h6l-1 1h-6l-7 58h9l-5 5h-6l-7 55h11l-7 7h-6l-7 52h15l-11 11h-6l-4 36h203v-7l17 -16l3 -30h-14v-1
l17 -16l5 -46h-10l13 -13l5 -49h-8l11 -11l7 -52h-6l7 -7l6 -56h-2l4 -4l1 -12l25 33l49 62h10l-1 1h-9l46 58h17l-5 5h-9l43 55h21l-7 7h-9l41 52h29l-11 11h-9zM303 10l-7 8q2 -2 3.5 -4t3.5 -4z" />
    <glyph glyph-name="FL0077h" unicode="W" horiz-adv-x="904" 
d="M716 7h-141q4 -7 10 -7h118q6 0 13 7zM383 7h-143q4 -7 10 -7h119q7 0 14 7zM562 530l-5 -8h159v8h-154zM227 530v-8h165v8h-165zM887 530l-5 -8h176l5 8h-176zM227 483v-24h165v24h-165zM857 483l-15 -24h175l16 24h-176zM227 424v-27h165v27h-165zM531 483l-15 -24h204
l-1 24h-188zM820 424l-17 -27h174l18 27h-175zM227 364v-30h165v30h-165zM782 364l-19 -30h173l20 30h-174zM227 305v-34h165v34h-165zM493 424l-17 -27h249l-2 27h-230zM761 63l2 4h-201q5 -30 9 -47h157q10 11 19 23.5t14 19.5zM454 364l-19 -30h294l-2 30h-273zM426 63
l3 4h-202q1 -13 2.5 -25t4.5 -22h161q9 11 17 23.5t14 19.5zM227 91v-8h213l30 43h-243v-35zM560 83h214l28 43h-247q2 -12 3 -23t2 -20zM227 186v-40h257l28 40h-285zM553 146h262l26 40h-292q1 -11 2 -21t2 -19zM745 305l-12 -19l-2 19h-315l-22 -34h502l22 34h-173z
M547 208h308l24 37h-652v-37h300l17 24q1 -7 1.5 -12.5t1.5 -11.5zM531 508l23 36h176v-6l17 -17v-30h-14l17 -17l1 -46h-11l13 -13l4 -49h-11l11 -11v-4l17 27h17l-5 5h-9l35 55h20l-7 7h-9l33 52h27l-11 11h-9l23 36h210l-4 -6l18 -17l-19 -30h-28l17 -17l-30 -46h-21
l13 -13l-32 -49h-18l11 -11l-34 -52h-11l7 -7l-36 -56h-7l4 -4l-38 -59l-40 -62h-1l-40 -63h-2l-7 -14l-1 -1q-2 -2 -4 -5.5t-4 -6.5h-1q-5 -6 -12 -15.5t-17 -20.5h-12l4 -10q-5 -5 -11 -7.5t-10 -2.5h-118q-6 0 -13 7l-11 11q-8 2 -21 19q-5 6 -9 15h5l-5 25t-5 35v4
q-1 7 -1.5 14.5t-2.5 16.5q0 1 -0.5 3.5t-0.5 6.5v14h3l-5 5q0 -1 -2 9l-27 -39h-1l-39 -57h1l-16 -22q-4 -5 -8.5 -10.5t-5.5 -7.5q-8 -16 -21 -29h-13l4 -10q-10 -10 -22 -10h-119q-6 0 -13 7l-11 11q-8 2 -21 19h-2l-2 6q-2 2 -2.5 4.5t-2.5 4.5h3q-3 14 -4.5 29t-2.5 31
h1v238h7l-1 1h-6v58h11l-5 5h-6v55h13l-7 7h-6v52h17l-11 11h-6v36h193v-6l17 -17v-30h-17l17 -17v-46h-13l13 -13v-49h-11l11 -11v-13l23 36h18l-5 5h-9l35 55h21l-7 7h-9l33 52h28l-11 11h-9z" />
    <glyph glyph-name="FL0058h" unicode="X" horiz-adv-x="690" 
d="M34 0h213l8 7h-213zM656 0l-3 7h-213l3 -7h213zM442 530h-214l3 -8h214zM634 530l-9 -8h214l9 8h-214zM247 483l9 -24h214l-10 24h-213zM580 483l-27 -24h214l27 24h-214zM319 305l14 -34h221l39 34h-274zM176 126l-49 -43h214l49 43h-214zM391 126l18 -43h213l-17 43
h-214zM415 67l20 -47h213l-19 47h-214zM109 67l-53 -47h213l54 47h-214zM311 245l-42 -37h303l-15 37h-246zM295 364l12 -30h319l34 30h-365zM492 405l-8 19h-214l11 -27h416l31 27h-215zM244 186l-45 -40h398l-16 40h-337zM207 544h244l3 -9l15 -14l12 -30h-10l1 -3l15 -14
l16 -40l5 4h27l-7 7h-11l58 52h36l-11 11h-11l40 36h254l-5 -5l18 -18l-33 -30h-38l17 -17l-51 -46h-27l13 -13l-56 -49h-23l11 -11l-59 -52h-15l7 -7l-63 -55l5 -5l24 -59l25 -62h-1l23 -57h1l28 -69h-1l9 -20h-236l-17 17h-5l-15 35l-24 57l-23 -20l-7 -6l-61 -54l-33 -29
h-246l-17 17h-11l23 20l17 15l53 48l81 71h1l60 54l7 6l67 59h17l-25 60h6l-1 1h-5l-24 58h8l-5 5h-5l-23 55h10l-7 7h-5l-21 52h12l-11 11h-5z" />
    <glyph glyph-name="FL0059h" unicode="Y" horiz-adv-x="688" 
d="M250 7l-2 -7h192l2 7h-192zM441 530h-214l3 -8h214zM633 530l-9 -8h214l9 8h-214zM246 483l10 -24h213l-10 24h-213zM579 483l-27 -24h214l27 24h-214zM337 245l-13 -37h192l13 37h-192zM316 186l-15 -40h192l15 40h-192zM294 126l-16 -43h192l16 43h-192zM318 305
l14 -34h221l39 34h-274zM272 67l-17 -47h192l17 47h-192zM294 364l12 -30h319l34 30h-365zM491 405l-8 19h-213l11 -27h415l31 27h-215zM588 508l40 36h254l-5 -5l18 -18l-33 -30h-38l17 -17l-51 -46h-27l13 -13l-56 -49h-23l11 -11l-59 -52h-15l7 -7l-64 -56h-17l4 -4
l-20 -59l-23 -60h1l-25 -65l-20 -54l-1 -3l-7 -26h-216l-17 17h-7l10 35h2l17 48h-1l25 63h-2l27 68l19 57h-3l-26 62h6l-1 1h-5l-24 58h9l-5 5h-5l-23 55h10l-7 7h-5l-22 52h12l-11 11h-5l-15 36h244l3 -9l15 -14l12 -30h-10l1 -3l15 -14l16 -40l5 4h27l-7 7h-11l58 52h36
l-11 11h-11z" />
    <glyph glyph-name="FL005Ah" unicode="Z" horiz-adv-x="648" 
d="M46 7l-7 -7h499q8 0 15 7h-507zM290 522h503l9 8h-501q-3 -2 -5.5 -4t-5.5 -4zM419 364l-31 -30h209l31 30h-209zM357 305l-35 -34h209l35 34h-209zM295 245l-39 -37h209l39 37h-209zM233 186l-42 -40h209l42 40h-209zM251 483l-21 -24h497l25 24h-501zM183 397h480
l28 27h-489q-16 -18 -19 -27zM653 126h-483l-45 -43h498q9 12 17 23t13 20zM610 67h-501l-49 -47h508q18 17 42 47zM256 508l27 27q4 4 17 9h537l-5 -5l18 -18l-33 -30h-34l17 -17l-48 -46h-26l13 -13l-51 -49h-23l11 -11l-54 -52h-15l7 -7l-58 -56h-8l4 -4l-62 -59l-39 -37
h204l7 -13l11 -10l10 -17q-11 -18 -34 -48h-16l6 -12q-8 -11 -17 -21t-20 -20l1 -1q-4 -2 -7 -5l-4 -4q-28 -20 -34 -20h-526l-17 17h-10l35 35l50 48l74 71l63 60l60 57l2 2l62 60h13l-1 1h-10l47 46h-197l-17 17h-5l-12 18q2 5 9 14.5t17 22.5h21l-7 7h-9l45 52h32l-11 11
h-10z" />
    <glyph glyph-name="FL005Bh" unicode="[" horiz-adv-x="444" 
d="M309 -56l6 4h-290l-1 -4h285zM613 597h-352l-5 -12h350q2 2 3.5 5zM198 424l-9 -27h191l9 27h-191zM177 364l-11 -30h191l11 30h-191zM155 305l-12 -34h191l12 34h-191zM524 483h-305l-8 -24h191l1 3h90q10 0 31 21zM576 543h-335l-8 -21h326q5 5 9 10.5t8 10.5zM133 245
l-13 -37h191l13 37h-191zM112 186l-15 -40h191l15 40h-191zM90 126l-16 -43h191l16 43h-191zM376 7h-329l-18 -49h297q11 10 24 22.5t26 26.5zM422 67h-354l-17 -47h337q4 5 7.5 9t6.5 8q2 2 8 11.5t12 18.5zM252 611h384l-3 -6l18 -17l-9.5 -19t-9.5 -15h-53l5 -8l12 -12
l9 -17q-5 -7 -10.5 -13.5t-10.5 -12.5h-56l2 -3l14 -14l8 -19q-24 -24 -39 -24h-83l-1 -3h-18l13 -13l-17 -49h-14l11 -11l-20 -52h-10l7 -7l-19 -56h-7l4 -4l-20 -59l-23 -60h1l-14 -36h121l5 -11l13 -12l9 -18q-2 -3 -4.5 -6.5t-4.5 -6.5h-1q-5 -7 -8 -12.5l-3 -5.5
q-4 -4 -9 -9.5t-8 -10.5h-13l4 -10q-8 -9 -18 -18t-19 -18l4 -4l-39 -26h-303l-17 17h-7l4 14h-1l4 9l2 9h1l17 44l22 63h-1l25 63h-2l27 68l20 59h1l21 60h9l-1 1h-8l23 58h14l-5 5h-7l19 55h17l-7 7h-7l18 52h21l-11 11h-8l20 49h25l-14 14h-8z" />
    <glyph glyph-name="FL005Ch" unicode="\" horiz-adv-x="689" 
d="M439 7l3 -7h213l-3 7h-213zM441 530h-214l3 -8h214zM246 483l9 -24h214l-9 24h-214zM269 424l11 -27h214l-11 27h-214zM294 364l12 -30h214l-12 30h-214zM318 305l14 -34h213l-14 34h-213zM342 245l15 -37h214l-15 37h-214zM366 186l16 -40h214l-16 40h-214zM390 126
l18 -43h213l-17 43h-214zM414 67l20 -47h213l-19 47h-214zM206 544h244l3 -9l15 -14l12 -30h-9l1 -3l15 -14l18 -46h-8l13 -13l20 -49h-6l11 -11l21 -52h-5l7 -7l23 -56h-2l4 -4l24 -59l25 -62h-1l23 -57h1l28 -69h-1l9 -20h-236l-17 17h-5l-15 35l-25 60h1l-25 59l-24 60
l-24 59h1l-25 60h6l-1 1h-5l-24 58h8l-5 5h-5l-23 55h10l-7 7h-5l-21 52h12l-11 11h-5z" />
    <glyph glyph-name="FL005Dh" unicode="]" horiz-adv-x="444" 
d="M27 -57h352l2 5h-352q-1 -1 -1 -2q0 -2 -1 -3zM318 585h295l4 11h-285q-3 0 -14 -11zM363 424l-10 -27h191l10 27h-191zM341 364l-11 -30h191l11 30h-191zM320 305l-13 -34h191l13 34h-191zM254 522h336l7 21h-323q-5 -5 -10 -10.5t-10 -10.5zM298 245l-14 -37h191l14 37
h-191zM276 186l-14 -40h191l14 40h-191zM377 461l-1 -2h191l9 24h-351q-5 -8 -8.5 -14t-4.5 -8h165zM254 126l-15 -43h191l15 43h-191zM82 20h325l17 47h-297q-10 -8 -22 -20.5t-23 -26.5zM36 -42h348l18 49h-331q-11 -13 -19.5 -25.5t-15.5 -23.5zM332 383l19 47h-137
l-17 17h-8q2 4 6.5 14t12.5 21h-1l10 15h51l-11 11h-5l-10 21q5 5 13 14t13 14h67l-14 14h-5l-10 22q8 8 16 12.5t10 4.5h304l-2 -5l18 -18l-12 -33h-25l-1 -2l18 -18l-15 -43h-22l17 -17l-18 -46h-17l13 -13l-19 -49h-14l11 -11l-20 -52h-8l7 -7l-22 -56h-4l4 -4l-23 -59
l-21 -62h-2l-21 -63h-1l-20 -53l1 -1l-22 -58l1 -1l-11 -27h-370l-17 17h-6v10q0 2 0.5 4t0.5 3q0 5 1 7t8 9h1l-1 3q5 9 14 21t28 35h7l-3 6q11 14 25.5 28t28.5 26h101l20 59h1l19 54h-1l25 63h-2l25 62h7l-1 1h-8l23 58h13l-5 5h-8zM457 52h1l-1 1v-1z" />
    <glyph glyph-name="FL005Eh" unicode="^" 
d="M574 7l1 -7h178l-1 7h-178zM36 0h213l5 7h-216q0 2 -0.5 0t-1.5 -7zM636 530h-168q-8 0 -19 -8h203q-8 8 -16 8zM520 364l4 -30h177l-4 30h-177zM529 305l5 -34h177l-5 34h-177zM315 364l-24 -30h202l22 30h-200zM538 245l5 -37h177l-5 37h-177zM672 483h-265
q-8 -8 -9 -13l-9 -11h290q-2 6 -3.5 12t-3.5 12zM269 305l-27 -34h205l25 34h-203zM547 186l6 -40h177l-6 40h-177zM556 126l6 -43h178l-7 43h-177zM222 245l-29 -37h208l27 37h-206zM565 67l7 -47h178l-8 47h-177zM176 186l-32 -40h211l30 40h-209zM362 424l-21 -27h351
l-4 27h-326zM129 126l-34 -43h214l32 43h-212zM83 67l-37 -47h217l35 47h-215zM636 544q14 0 50 -36h-4l17 -17h-18l4 -3q1 -2 1.5 -3.5t1.5 -3.5l14 -14q3 -8 5.5 -18t5.5 -21h-8l13 -13l7 -49h-9l11 -11l7 -52h-5l7 -7l8 -56h-3l4 -4l8 -58l1 -1l8 -60h1l10 -65h-1l9 -53
l1 -1l4 -29h-201l-17 17h-6l-3 20l-9 63h-1l-8 63h-1l-8 62h-2l-8 63h-1l-6 46h-8l7 -7l-41 -56h-8l4 -4l-43 -59h1l-45 -60h1l-44 -59h1l-51 -69h-1l-14 -20h-218l-17 17h-4l-13 16q0 3 1 4h-6l8 11q9 27 16 27q2 0 4 -2l70 90l49 62l49 63l49 62h10l-1 1h-9l46 58h18l-5 5
h-9l43 55h20l-7 7h-9l28 34q2 4 5.5 8.5t8.5 9.5h28l-11 11h-12q49 36 62 36h168z" />
    <glyph glyph-name="FL005Fh" unicode="_" horiz-adv-x="494" 
d="M34 0h332l7 7h-332zM167 126l-45 -43h332l45 43h-332zM105 67l-50 -47h332l50 47h-332zM27 -31l-17 17h-10l35 35h1l63 60l62 59h373l-5 -5l18 -18l-68 -65h-1l-66 -63h-1l-20 -20h-364z" />
    <glyph glyph-name="FL0060h" unicode="`" horiz-adv-x="202" 
d="M284 530q-4 0 -28 -8h43q-5 8 -15 8zM277 399q9 0 11 2l6 4q6 2 10 7.5t7 11.5h-80q8 -11 21 -18t25 -7zM219 480q-5 -10 0 -21h99q-1 5 -1.5 9.5t-0.5 9.5l-2 5h-94q-1 -1 -1 -3zM284 544q18 0 37 -31l2 -2q4 -4 7.5 -8.5t7.5 -11.5h-13l1 -3l15 -14l6 -15
q0 -3 0.5 -6.5t1.5 -8.5v-16h-13l13 -13q-7 -13 -13.5 -23.5t-15.5 -15.5l-4 -3q-5 -5 -19 -5q-11 0 -25 8.5t-27 20.5q-22 16 -41 41h18l-7 7h-5q-7 19 -7 25v5q0 2 2 8q0 5 9 14h52l-11 11h-6l-3 25l9 3q24 8 29 8z" />
    <glyph glyph-name="a" unicode="a" 
d="M575 0h178l-1 7h-178zM449 522h203q-8 8 -16 8h-168q-8 0 -19 -8zM469 7h-431q0 2 -0.5 0t-1.5 -7h423q4 1 10 7zM519 364l5 -30h177l-4 30h-178zM315 364l-24 -30h202l22 30h-200zM528 305l5 -34h178l-5 34h-178zM537 245l6 -37h177l-5 37h-178zM398 470l-9 -11h290
q-2 6 -3.5 12t-3.5 12h-265q-8 -8 -9 -13zM269 305l-27 -34h204l25 34h-202zM546 186l6 -40h178l-6 40h-178zM222 245l-29 -37h206l27 37h-204zM176 186l-32 -40h208l30 40h-206zM562 67l9 -47h179l-8 47h-180zM362 424l-21 -27h351l-4 27h-326zM522 67h-439l-37 -47h436
q10 10 20 22t20 25zM554 113l5 -30h181l-7 43h-604l-34 -43h439q8 11 13 18t7 12zM559 6l-9 46h-5l6 -12q-10 -13 -21 -26t-23 -25h-14l4 -10q-4 -4 -8.5 -6t-6.5 -4h-440l-17 17h-7q1 6 2 10.5t2 9.5h-5l9 11q7 24 15 24q1 0 1.5 -0.5t1.5 -0.5l22 29l49 63l49 62l49 63
l49 62h10l-1 1h-9l46 58h18l-5 5h-9l43 55h20l-7 7h-9l28 34q2 4 5.5 8.5t8.5 9.5h62l-11 11h-5l-8 24q8 5 15.5 8.5t13.5 3.5h168q14 0 50 -36h-4l17 -17h-16q0 -1 0.5 -1.5l0.5 -0.5l15 -15q5 -15 8 -25.5t6 -20.5h-8l13 -13l7 -49h-9l11 -11l7 -52h-5l7 -7l8 -56h-3l4 -4
l8 -58l1 -1l8 -60h1l10 -65h-1l9 -53l1 -1l4 -29h-201l-17 17h-6zM424 177l-28 -37h142l-7 54h-1l-9 63h-1l-6 46h-8l7 -7l-41 -56h-9l4 -4z" />
    <glyph glyph-name="FL0062h" unicode="b" horiz-adv-x="721" 
d="M589 7h-543l-2 -7h459q54 0 86 7zM696 530h-459l-3 -8h503q-21 8 -41 8zM176 364l-11 -30h192l11 30h-192zM795 364h-190l-1 -2q-2 -4 -7.5 -12.5t-10.5 -15.5h198q8 15 11 30zM155 305l-13 -34h192l13 34h-192zM111 186l-14 -40h192l15 40h-193zM743 186h-203
q0 -5 -2 -7l-2 -5q-1 -1 -5 -8.5l-4 -7.5q-3 -2 -8 -5.5t-10 -6.5h221q4 9 7.5 19t5.5 21zM766 305h-371l-39 -34h376q9 7 17.5 15t16.5 19zM777 483h-557l-9 -24h576q-2 6 -4.5 12t-5.5 12zM797 397l-3 27h-596l-10 -27h609zM327 245l-3 -3l1 3h-192l-14 -37h624
q-4 22 -16 37h-400zM723 126h-634l-15 -43h627q5 9 11 20t11 23zM690 67h-622l-17 -47h580q19 8 33 19.5t26 27.5zM779 497l10 -6q1 -2 1.5 -4t2.5 -5l14 -14q3 -6 7 -17t9 -23h-12l13 -13l5 -49h-24l4 -4v-1l6 -6l11 -13q-2 -9 -6 -19t-9 -20h-32l7 -7l9 -17
q-18 -24 -39 -39h-7l4 -4q9 -11 14.5 -26t9.5 -33h-14l11 -13q-2 -10 -7 -23.5t-10 -25.5h-13l9 -13q-8 -17 -14 -29.5t-11 -20.5h-15l6 -12q-13 -17 -28.5 -29t-37.5 -22h-43l1 -13q-32 -7 -88 -7h-474l-17 17h-7l10 35h2l22 60l20 59h1l19 54h-1l25 63h-2l25 62h7l-1 1h-8
l23 58h13l-5 5h-8l22 55h16l-7 7h-8l21 52h21l-11 11h-8l15 36h468q27 0 53 -12l-1 -5l17 -17l-4 -13h18zM404 355l-14 -36h177l-1 1h-9q10 12 18.5 25t13.5 21h-196zM340 177l-15 -37h174l-4 15q7 4 12.5 7t4.5 2l1 1q1 0 2 1q2 4 3 6.5t2 4.5h-180zM520 170v1h1h-1v-1z
" />
    <glyph glyph-name="c" unicode="c" horiz-adv-x="663" 
d="M562 7h-186q24 -4 48.5 -5.5t49.5 -1.5h80q2 1 8 7zM349 522h462l6 8h-413q-25 0 -55 -8zM160 334h195q8 13 23 30h-205q-4 -8 -7 -15t-6 -15zM144 271h186q1 6 3 12.5t4 14.5q1 1 1 3q0 3 1 4h-188q-2 -9 -3.5 -17.5t-3.5 -16.5zM143 245v-2v-18q0 -7 2 -17h198
q-5 9 -8 18.5t-5 18.5h-187zM357 186h-209q4 -22 12 -40h239q-11 7 -22 17.5t-20 22.5zM243 459h516l21 24h-508q-8 -6 -15 -12zM192 397h504l30 27h-515q-5 -7 -9.5 -13.5t-9.5 -13.5zM622 67h-401q20 -17 44 -28t51 -19h261q23 20 45 47zM667 126h-497q16 -28 33 -43h432
q8 11 16 21.5t16 21.5zM346 508l-3 27q30 9 61 9h439q-1 -2 -2 -3t-2 -3l18 -17q-7 -11 -13 -19.5t-8 -10.5h-29l17 -17l-41 -46h-22l13 -13l-54 -49h-309l11 -11q-12 -14 -22.5 -27t-18.5 -25h-18l7 -7q0 -1 -0.5 -7t-0.5 -7q0 -6 -2 -10q-4 -7 -7 -32h-5l4 -4
q2 -11 6.5 -25t15.5 -32q21 -18 55 -39h233l6 -11l12 -12l9 -17q-8 -11 -17.5 -24t-17.5 -24h-16l6 -12q-15 -19 -50 -51h-15l4 -10q-2 -2 -4 -3.5t-9 -6.5h-83q-26 0 -52 1.5t-50 5.5l-13 13h-46q-29 8 -59.5 24.5t-64.5 44.5l-6 5q-5 5 -11 9t-11 9h5q-11 12 -20.5 27
t-19.5 32h1q-6 14 -10 29t-7 31h2q-2 14 -2.5 23.5t-0.5 19.5v16h12l-11 14q2 8 4.5 22.5t4.5 23.5h25l-1 1h-4l-12 18l3 9q3 8 6 15.5t8 15.5h36l-5 5h-5l-11 20q1 2 2 2.5t2 2.5q5 8 9.5 15.5t11.5 14.5h49l-7 7h-5l-9 22q2 2 4 3.5t4 3.5q6 5 13 11.5t13 11.5h97l-11 11
h-6z" />
    <glyph glyph-name="FL0064h" unicode="d" horiz-adv-x="690" 
d="M44 0h249q29 0 55 1.5t50 5.5h-352zM672 530h-435l-3 -8h488q-24 8 -50 8zM176 364l-11 -30h194l11 30h-194zM780 364h-203q1 -2 1 -9q0 -13 -4 -21h198q2 8 4 15t4 15zM155 305l-13 -34h194l13 34h-194zM761 305h-198l-3 -9q-3 -8 -6.5 -14t-7.5 -11h198q5 8 9 16.5
t8 17.5zM133 245l-14 -37h194l14 37h-194zM723 239q1 2 2 3t2 3h-201q-17 -20 -38 -37h213q5 8 11 15.5t11 15.5zM111 186l-14 -40h194l14 40h-194zM685 186h-228q-42 -27 -84 -40h279q8 9 16.5 19t16.5 21zM769 483h-549l-9 -24h569q-2 6 -4.5 12t-6.5 12zM786 413
q0 2 -0.5 5t-0.5 6h-587l-10 -27h597q1 3 1 8v8zM563 67h-495l-17 -47h408q29 8 55 20t49 27zM634 126h-545l-15 -43h511q13 9 25 20t24 23zM770 497l11 -6q2 -3 3.5 -5.5t3.5 -6.5l10 -10q5 -8 9 -19t9 -22h-13l13 -13q0 -2 0.5 -8.5t0.5 -8.5v-5q0 -4 -0.5 -10t-2.5 -17
h-23l3 -3q0 -1 -0.5 -1.5l-0.5 -0.5l7 -6l11 -13q-2 -13 -5 -22t-5 -17h-27l7 -7l10 -15q-6 -14 -10.5 -23.5t-9.5 -17.5h-1l4 -4l-3 -3.5t-7 -7t-7 -7t-4 -4.5q-5 -9 -16 -22h1q-2 -3 -5.5 -7.5t-5.5 -7.5h-22l9 -18q-8 -11 -19 -23t-19 -21h-21l7 -17q-11 -11 -24 -22.5
t-30 -23.5h-23l4 -14q-48 -32 -107 -49h-61l1 -13q-24 -4 -51 -5.5t-58 -1.5h-264l-17 17h-7l10 35h2l22 60l20 59h1l19 54h-1l25 63h-2l25 62h7l-1 1h-8l23 58h13l-5 5h-8l22 55h16l-7 7h-8l21 52h21l-11 11h-8l15 36h444q27 0 60 -11l-1 -5l18 -17l-3 -14h24zM340 177
l-13 -37h39l-2 17q22 7 44 18t45 25h2q48 37 64 59h2q16 22 26 43l7 17h8l-1 1h-8q11 27 11 35v3l-2 8h-167l11 -11l-20 -52h-8l7 -7l-22 -56h-4l4 -4z" />
    <glyph glyph-name="e" unicode="e" horiz-adv-x="657" 
d="M556 7h-510l-2 -7h503l2.5 1.5t6.5 5.5zM807 530h-570l-3 -8h569l2 4zM176 364l-11 -30h192l11 30h-192zM155 305l-13 -34h192l12 34h-191zM111 186l-14 -40h191l14 40h-191zM391 305l-35 -34h229l36 34h-230zM776 483h-556l-9 -24h546q5 6 9.5 12t9.5 12zM726 424h-528
l-10 -27h506q6 3 14 10t18 17zM133 245l-14 -37h400l39 37h-229l-7 -7l2 7h-191zM662 126h-573l-15 -43h559q2 2 4 5t4 5t9 13t12 20zM618 67h-550l-17 -47h520q23 20 47 47zM664 140l7 -13l11 -10l10 -17q-5 -9 -13 -21t-10 -14l-2 -2q-6 -8 -9 -11h-18l6 -12
q-12 -14 -26 -27t-25 -24h-15l4 -10q-5 -5 -6.5 -6t-7.5 -4h-521l-17 17h-7l10 35h2l22 60l20 59h1l19 54h-1l25 63h-2l25 62h7l-1 1h-8l23 58h13l-5 5h-8l22 55h16l-7 7h-8l21 52h21l-11 11h-8l15 36h602q-1 -3 -3 -5l18 -18q-5 -8 -8.5 -15.5l-3.5 -7.5l0.5 -2t0.5 -5h-53
l2 -5l13 -12l9 -18q-2 -3 -5 -6t-5 -6l-12 -16h-50l13 -13l8 -19q-23 -23 -37 -30h-324l11 -11l-14 -36h266l-5 -5l18 -18l-59 -56h-8l4 -4l-62 -59h-207l-13 -37h340z" />
    <glyph glyph-name="FL0066h" unicode="f" horiz-adv-x="653" 
d="M44 0h191l2 7h-191zM807 530h-570l-3 -8h569l2 4zM176 364l-11 -30h192l11 30h-192zM155 305l-13 -34h192l12 34h-191zM111 186l-14 -40h191l14 40h-191zM391 305l-35 -34h229l36 34h-230zM89 126l-15 -43h191l15 43h-191zM68 67l-17 -47h191l17 47h-191zM776 483h-556
l-9 -24h546q5 6 9.5 12t9.5 12zM726 424h-528l-10 -27h506q6 3 14 10t18 17zM133 245l-14 -37h400l39 37h-229l-7 -7l2 7h-191zM228 544h602q-1 -3 -3 -5l18 -18q-5 -8 -8.5 -15.5l-3.5 -7.5l0.5 -2t0.5 -5h-53l2 -5l13 -12l9 -18q-2 -3 -5 -6t-5 -6l-12 -16h-50l13 -13
l8 -19q-23 -23 -37 -30h-324l11 -11l-14 -36h266l-5 -5l18 -18l-59 -56h-8l4 -4l-62 -59h-207l-21 -62h-2l-21 -63h-1l-20 -54l-1 -3l-7 -26h-215l-17 17h-7l10 35h2l22 60l20 59h1l19 54h-1l25 63h-2l25 62h7l-1 1h-8l23 58h13l-5 5h-8l22 55h16l-7 7h-8l21 52h21l-11 11
h-8z" />
    <glyph glyph-name="FL0067h" unicode="g" horiz-adv-x="672" 
d="M474 0h149l2 7h-249q24 -4 48.5 -5.5t49.5 -1.5zM817 530h-413q-25 0 -55 -8h462zM375 364h-201l-7.5 -15t-6.5 -15h194q5 8 10 15.5t11 14.5zM337 298q1 1 1 3q0 3 1 4h-188q-5 -18 -6 -34h185q1 6 3 12.5t4 14.5zM330 245h-187v-2v-18q0 -7 2 -17h197q-9 16 -12 37z
M511 186l-14 -40h181l15 40h-182zM356 186h-208q4 -22 12 -40h238q-11 7 -22 17.5t-20 22.5zM453 271h273l12 34h-256q-8 -8 -15 -16.5t-14 -17.5zM406 208h296l14 37h-283q-9 -12 -16 -21.5t-11 -15.5zM759 459l21 24h-508q-8 -6 -14.5 -12t-13.5 -12h515zM696 397l30 27
h-514q-5 -7 -10 -13.5t-10 -13.5h504zM316 20h314l18 47h-427q20 -17 44 -28t51 -19zM203 83h451l17 43h-501q16 -28 33 -43zM819 544l5 -11l13 -12l9 -17q-5 -8 -10 -13h-29l17 -17l-41 -46h-22l13 -13l-54 -49h-336l11 -11l8 -18q-5 -6 -11.5 -15.5t-11.5 -18.5h-17l7 -7
q0 -1 -0.5 -7t-0.5 -7q0 -7 -3 -11q-2 -5 -3 -12.5t-3 -18.5h-12l13 -13q2 -8 5 -18.5t9 -24.5q9 -10 24 -20.5t36 -23.5h45l13 37h-67l-17 17h-5l-12 19q5 8 9.5 14.5t12.5 16.5l4 4l2 3q1 1 2 3.5t3 4.5h25l-10 19q2 2 9.5 10.5t16.5 18.5q2 3 5.5 6t5.5 6h280l-2 -5
l18 -18l-19 -56h-6l4 -4l-23 -59l-23 -60h1l-24 -59h1l-25 -64l-7 -25h-158q-26 0 -52 1.5t-50 5.5l-13 13h-46q-29 8 -59.5 24.5t-64.5 44.5l-6 5q-5 5 -11 9t-11 9h5q-10 11 -19.5 26t-20.5 33h1q-6 14 -10 29t-7 31h2q-2 14 -2.5 23.5t-0.5 19.5v16h1q2 20 4.5 34.5
t4.5 25.5h9l-1 1h-8q10 24 15.5 35.5t10.5 22.5h15l-5 5h-8q2 3 7.5 11t11.5 17l11 16.5t8 10.5h21l-7 7h-10q2 2 8 7.5t11 10.5l22 20t16 14h94l-11 11h-6l-3 26q30 10 64 10h415z" />
    <glyph glyph-name="h" unicode="h" horiz-adv-x="686" 
d="M452 0h190l2 7h-190zM46 7l-2 -7h192l2 7h-192zM645 530l-3 -8h190l3 8h-190zM237 530l-3 -8h192l3 8h-192zM628 483l-9 -24h190l9 24h-190zM220 483l-9 -24h192l9 24h-192zM606 424l-10 -27h190l10 27h-190zM198 424l-10 -27h192l10 27h-192zM584 364l-11 -30h190l11 30
h-190zM176 364l-11 -30h192l11 30h-192zM155 305l-13 -34h192l13 34h-192zM519 186l-14 -40h190l14 40h-190zM111 186l-14 -40h192l14 40h-192zM497 126l-15 -43h190l15 43h-190zM89 126l-15 -43h192l15 43h-192zM476 67l-17 -47h190l17 47h-190zM68 67l-17 -47h192l17 47
h-192zM398 305l-33 -34h375l13 34h-355zM133 245l-14 -37h598l14 37h-391l-24 -25l9 25h-192zM213 508l15 36h222l-3 -6l18 -17l-12 -30h-22l17 -17l-18 -46h-17l13 -13l-19 -49h-14l11 -11l-16 -40l4 4h169l-1 1h-8l23 58h13l-5 5h-8l22 55h16l-7 7h-8l21 52h21l-11 11h-8
l15 36h220l-3 -6l18 -17l-12 -30h-22l17 -17l-18 -46h-17l13 -13l-19 -49h-14l11 -11l-20 -52h-8l7 -7l-22 -56h-4l4 -4l-23 -59l-21 -62h-2l-21 -63h-1l-20 -54l-1 -3l-7 -26h-214l-17 17h-7l10 35h2l22 60l20 59h1l13 37h-163l-21 -62h-2l-21 -63l-1 1v-1l-20 -54l-1 -3
l-7 -26h-216l-17 17h-7l10 35h2l22 60l20 59h1l19 54h-1l25 63h-2l25 62h7l-1 1h-8l23 58h13l-5 5h-8l22 55h16l-7 7h-8l21 52h21l-11 11h-8zM376 303v-1v1z" />
    <glyph glyph-name="FL0069h" unicode="i" horiz-adv-x="284" 
d="M48 7l-2 -7h192l2 7h-192zM239 530l-3 -8h192l3 8h-192zM222 483l-9 -24h192l9 24h-192zM200 424l-10 -27h192l10 27h-192zM178 364l-11 -30h192l11 30h-192zM157 305l-13 -34h192l13 34h-192zM135 245l-14 -37h192l14 37h-192zM113 186l-14 -40h192l14 40h-192zM91 126
l-15 -43h192l15 43h-192zM70 67l-17 -47h192l17 47h-192zM215 508l15 36h222l-3 -6l18 -17l-12 -30h-22l17 -17l-18 -46h-17l13 -13l-19 -49h-14l11 -11l-20 -52h-8l7 -7l-22 -56h-4l4 -4l-23 -59l-21 -62h-2l-21 -63h-1l-20 -54l-1 -3l-7 -26h-216l-17 17h-7l10 35h2l22 60
l20 59h1l19 54h-1l25 63h-2l25 62h7l-1 1h-8l23 58h13l-5 5h-8l22 55h16l-7 7h-8l21 52h21l-11 11h-8z" />
    <glyph glyph-name="FL006Ah" unicode="j" horiz-adv-x="605" 
d="M564 530l-3 -8h190l3 8h-190zM39 0h336q42 0 71 7h-403q-1 -2 -2 -3.5t-2 -3.5zM547 483l-9 -24h190l9 24h-190zM525 424l-9 -27h189l10 27h-190zM504 364l-11 -30h189l11 30h-189zM482 305l-12 -34h189l12 34h-189zM441 208h195q3 9 6.5 18t7.5 19h-190l-4 -12
q-4 -9 -15 -25zM380 146h228q5 9 9.5 19t9.5 21h-201q-10 -12 -21.5 -22.5t-24.5 -17.5zM94 83h476q7 9 14 19.5t14 23.5h-467q-21 -21 -37 -43zM51 20h438q38 17 67 47h-474q-8 -12 -15.5 -23.5t-15.5 -23.5zM540 508l15 36h220l-3 -6l18 -17l-12 -30h-22l17 -17l-18 -46
h-17l13 -13l-19 -49h-14l11 -11l-20 -52h-10l7 -7l-19 -56h-7l4 -4q-1 -3 -3 -11t-3 -11q-6 -14 -9.5 -22.5t-5.5 -14.5q-5 -11 -13.5 -30t-13.5 -30h1q-22 -40 -36 -59h1q-46 -49 -91 -69h-41l1 -12q-19 -5 -37.5 -6.5t-38.5 -1.5h-336l-17 17h-5l-12 18q0 1 1.5 3.5
t9.5 13.5h5l-3 6q8 12 18.5 27t18.5 27h10l-4 9q8 11 18 22.5t26 27.5h250l-4 18q14 7 25.5 18t22.5 24h17l-7 14q4 5 7 10.5t7 13.5l1 2l7 19l21 60h9l-1 1h-8l23 58h14l-5 5h-7l19 55h16l-7 7h-8l21 52h21l-11 11h-8z" />
    <glyph glyph-name="FL006Bh" unicode="k" horiz-adv-x="730" 
d="M46 7l-2 -7h192l2 7h-192zM733 0l-5 7h-215l6 -7h214zM237 530l-3 -8h192l3 8h-192zM673 530l-11 -8h214l11 8h-214zM220 483l-9 -24h192l9 24h-192zM198 424l-10 -27h192l10 27h-192zM607 483l-33 -24h220l31 24h-218zM176 364l-11 -30h192l11 30h-192zM525 424l-37 -27
h225l35 27h-223zM442 364l-42 -30h231l39 30h-228zM111 186l-14 -40h192l15 40h-193zM89 126l-15 -43h192l16 43h-193zM68 67l-17 -47h192l17 47h-192zM365 186l33 -40h229l-29 40h-233zM415 126l35 -43h223l-31 43h-227zM463 67l39 -47h216l-34 47h-221zM155 305l-13 -34
h407l44 34h-233l-18 -13l5 13h-192zM312 208l11 30l24 -30h235l-27 37h-422l-14 -37h193zM213 508l15 36h222l-3 -6l18 -17l-12 -30h-22l17 -17l-18 -46h-17l13 -13l-19 -49h-14l11 -11l-1 -2l35 25h25l-5 5h-12l75 55h29l-7 7h-12l72 52h39l-11 11h-12l50 36h260l-7 -5
l18 -18l-41 -30h-38l17 -17l-60 -46h-30l13 -13l-64 -49h-25l11 -11l-68 -52h-16l7 -7l-72 -55l6 -5l43 -59l42 -59l2 -1l47 -65h-1l38 -52l2 -2l21 -29h-240l-17 17h-4l-17 20l-52 63h-1l-58 71l-41 50l-5 -13h1l-23 -60h1l-25 -65l-20 -54l-1 -3l-7 -26h-216l-17 17h-7
l10 35h2l22 60l20 59h1l19 54h-1l25 63h-2l25 62h7l-1 1h-8l23 58h13l-5 5h-8l22 55h16l-7 7h-8l21 52h21l-11 11h-8z" />
    <glyph glyph-name="FL006Ch" unicode="l" horiz-adv-x="592" 
d="M425 522l3 8h-191l-3 -8h191zM46 7l-2 -7h439q2 2 4 3.5t4 3.5h-445zM220 483l-9 -24h191l9 24h-191zM198 424l-10 -27h191l10 27h-191zM176 364l-11 -30h191l11 30h-191zM155 305l-13 -34h191l13 34h-191zM133 245l-14 -37h191l14 37h-191zM111 186l-14 -40h191l14 40
h-191zM595 126h-506l-15 -43h487q11 14 20 25t14 18zM548 67h-480l-17 -47h454q11 11 21.5 22.5t21.5 24.5zM597 140l5 -10l13 -13l9 -17l-12.5 -17.5t-18.5 -22.5l2 -2l-22 -22h-1q-11 -12 -21.5 -24.5t-20.5 -22.5h-1q-5 -5 -10 -9t-5 -5l-6 -6h-459l-17 17h-7l10 35h2
l22 60l20 59h1l19 54h-1l25 63h-2l25 62h7l-1 1h-8l23 58h13l-5 5h-8l22 55h16l-7 7h-8l21 52h21l-11 11h-8l15 36h221l-3 -6l18 -17l-12 -30h-22l17 -17l-18 -46h-17l13 -13l-19 -49h-14l11 -11l-20 -52h-8l7 -7l-22 -56h-4l4 -4l-23 -59l-13 -37h273z" />
    <glyph glyph-name="FL006Dh" unicode="m" horiz-adv-x="868" 
d="M399 0h69l6 7h-76zM44 0h192l2 7h-192zM632 0h192l2 7h-192zM237 530l-3 -8h246l-1 8h-242zM775 530l-8 -8h247l3 8h-242zM387 67l8 -47h91l43 47h-142zM220 483l-9 -24h281l-4 24h-268zM731 483l-22 -24h282l9 24h-269zM133 245l-14 -37h192l14 37h-192zM721 245
l-14 -37h192l14 37h-192zM111 186l-14 -40h192l14 40h-192zM699 186l-14 -40h192l14 40h-192zM376 126l8 -43h160l39 43h-207zM677 126l-15 -43h192l15 43h-192zM89 126l-15 -43h192l15 43h-192zM198 424l-10 -27h316l-5 27h-301zM677 424l-25 -27h316l10 27h-301zM656 67
l-17 -47h192l17 47h-192zM68 67l-17 -47h192l17 47h-192zM365 186l7 -40h229l37 40h-273zM176 364l-11 -30h351l-6 30h-334zM622 364l-28 -30h351l11 30h-334zM354 245l7 -37h297l33 37h-337zM740 298l-10 -27h192l13 34h-367l-32 -34h179zM334 271l10 27l5 -27h179l-6 34
h-367l-13 -34h192zM881 52l-20 -54l-1 -3l-7 -26h-216l-17 17h-7l10 35h2l22 60l20 59h1l12 33l-53 -56l-2 -2l-57 -63h-1l-57 -63h-1l-16 -20h-84l-17 17h-6l-3 20l-11 63l-2 12l-10 51l-11 62l-2 7l-9 -24l-21 -62h-2l-21 -63h-1l-20 -54l-1 -3l-7 -26h-216l-17 17h-7
l10 35h2l22 60l20 59h1l19 54h-1l25 63h-2l25 62h7l-1 1h-8l23 58h13l-5 5h-8l22 55h16l-7 7h-8l21 52h21l-11 11h-8l15 36h264v-7l17 -16l3 -30h-11v-1l16 -16l8 -46h-10l13 -13l9 -49h-9l11 -11l10 -49l13 13h10l-1 1h-10l55 58h19l-5 5h-10l52 55h22l-7 7h-10l49 52h28
l-11 11h-10l36 36h269l-3 -6l18 -17l-12 -30h-22l17 -17l-18 -46h-17l13 -13l-19 -49h-14l11 -11l-20 -52h-8l7 -7l-22 -56h-4l4 -4l-23 -59l-21 -62h-2l-21 -63l-1 1v-1zM546 303h-2l1 -2z" />
    <glyph glyph-name="FL006Eh" unicode="n" horiz-adv-x="686" 
d="M46 7l-2 -7h192l2 7h-192zM645 530l-3 -8h190l3 8h-190zM400 0h242l2 7h-245zM237 530l-3 -8h246l-1 8h-242zM628 483l-9 -24h190l9 24h-190zM606 424l-10 -27h190l10 27h-190zM584 364l-11 -30h190l11 30h-190zM563 305l-13 -34h190l13 34h-190zM220 483l-9 -24h281
l-4 24h-268zM133 245l-14 -37h192l14 37h-192zM111 186l-14 -40h192l14 40h-192zM89 126l-15 -43h192l15 43h-192zM198 424l-10 -27h316l-5 27h-301zM68 67l-17 -47h192l17 47h-192zM176 364l-11 -30h351l-6 30h-334zM387 67l9 -47h253l17 47h-279zM334 271l10 27l5 -27h179
l-6 34h-367l-13 -34h192zM376 126l8 -43h288l15 43h-311zM365 186l7 -40h323l14 40h-344zM536 232l-3 13h-179l7 -37h356l14 37h-190zM621 508l15 36h220l-3 -6l18 -17l-12 -30h-22l17 -17l-18 -46h-17l13 -13l-19 -49h-14l11 -11l-20 -52h-8l7 -7l-22 -56h-4l4 -4l-23 -59
l-21 -62h-2l-21 -63h-1l-20 -54l-1 -3l-7 -26h-261l-17 17h-6l-3 20l-24 126l-11 62l-2 7l-9 -24l-21 -62h-2l-21 -63l-1 1v-1l-20 -54l-1 -3l-7 -26h-216l-17 17h-7l10 35h2l22 60l20 59h1l19 54h-1l25 63h-2l25 62h7l-1 1h-8l23 58h13l-5 5h-8l22 55h16l-7 7h-8l21 52h21
l-11 11h-8l15 36h264v-7l17 -16l3 -30h-11v-1l16 -16l8 -46h-10l13 -13l9 -49h-9l11 -11l10 -48l5 12h7l-1 1h-8l23 58h13l-5 5h-8l22 55h16l-7 7h-8l21 52h21l-11 11h-8zM544 303l2 -3l1 3h-3z" />
    <glyph glyph-name="FL006Fh" unicode="o" horiz-adv-x="770" 
d="M565 7h-273q38 -7 93 -7h117q36 0 63 7zM381 522h299q-46 8 -90 8h-149q-26 0 -60 -8zM834 364h-205q8 -11 11 -30h195v11v9q0 7 -1 10zM162 334h198q15 16 33 30h-215q-5 -8 -8.5 -15zM138 271h186q1 9 11 27q1 2 2 3.5t2 3.5h-190q-4 -8 -6.5 -17t-4.5 -17zM830 287
l3 18h-191q0 -8 -0.5 -16t-1.5 -16l-1 -2h188q1 4 1.5 7.5t1.5 8.5zM129 208h197q-6 18 -6 36v1h-187v-2q-4 -17 -4 -35zM820 245h-190q-2 -3 -3.5 -6.5t-3.5 -6.5q-4 -9 -17 -24h200q4 9 7.5 18t6.5 19zM132 146h240q-22 13 -36 40h-207q0 -22 3 -40zM795 186h-212
q-31 -26 -60 -40h246q8 10 14 19.5t12 20.5zM295 483l-33 -24h537q-11 13 -24 24h-480zM201 397h628q-3 13 -9 27h-596q-6 -7 -12 -13.5t-11 -13.5zM692 67h-523q29 -32 73 -47h365q44 16 85 47zM754 126h-617q4 -12 8.5 -23t11.5 -20h554q24 19 43 43zM378 508l-3 27
q33 9 66 9h149q29 0 53 -2t44 -6l-1 -6l18 -17l-2 -16h78q9 -7 20 -18.5t24 -28.5q4 -5 8.5 -10.5t9.5 -11.5h-8l13 -13q10 -22 16 -49h-15v-4l17 -16q1 -3 1 -11v-10v-22h-7l7 -7l-5 -31q-1 -5 -2.5 -13t-2.5 -12h-20l4 -4l11 -14q-2 -5 -7 -18t-11 -27h-18l10 -16
q-7 -12 -14.5 -23t-15.5 -23h-20l8 -16q-21 -26 -47 -47h-22l5 -14q-20 -16 -43 -28t-48 -21h-42l2 -13q-27 -7 -66 -7h-117q-28 0 -52.5 1.5t-44.5 5.5l-13 13h-34q-35 12 -67 41q-31 20 -56 51h4q-7 12 -12.5 27t-10.5 32h2l-3 3q-3 18 -3 57h7l-7 7q0 11 0.5 19t2.5 16
q1 0 1 1v16h16l-11 11v4q0 1 0.5 2.5t0.5 2.5q2 5 4.5 12.5t10.5 27.5h26l-1 1h-5l-12 18q4 8 10.5 20t11.5 20h39l-5 5h-5l-11 21q4 5 8.5 10t11.5 12q3 3 6 6.5t5 5.5h19l-7 7h-12l72 52h104l-11 11h-6zM360 180l3 -3v-2q21 -20 45 -35h105l-3 16q18 10 36.5 21.5
t32.5 22.5h1q11 13 19 22t10 14l1.5 2.5t3.5 4.5l-1 -1q0 1 2 3v4q0 2 0.5 5.5t0.5 4.5h1l9 20q1 7 1.5 16.5t0.5 23.5h7l-1 1h-6q-2 11 -5.5 21.5t-11.5 24.5h-175l11 -11q-51 -39 -63 -52h-12l7 -7q-8 -11 -10 -15.5t-4 -7.5q-8 -14 -12 -33h-6l4 -4v-12q0 -17 9 -44z
M811 463q0 1 -1 1z" />
    <glyph glyph-name="p" unicode="p" horiz-adv-x="707" 
d="M46 7l-2 -7h192l2 7h-192zM237 530l-3 -8h496q-18 8 -34 8h-459zM176 364l-11 -30h192l11 30h-192zM795 364h-190l-1 -2q-2 -4 -7.5 -12.5t-10.5 -15.5h203q4 13 6 30zM155 305l-13 -34h192l13 34h-192zM111 186l-14 -40h192l15 40h-193zM89 126l-15 -43h192l16 43h-193z
M68 67l-17 -47h192l17 47h-192zM776 305h-381l-38 -34h395q15 18 24 34zM770 483h-550l-9 -24h571q-5 12 -12 24zM792 424h-594l-10 -27h608q0 12 -4 27zM725 245h-398l-3 -3l1 3h-192l-14 -37h544q33 13 62 37zM213 508l15 36h468q24 0 47 -12l-1 -5l17 -17l-4 -13h16
l11 -6q2 -2 2.5 -5t2.5 -6l12 -11q5 -8 9.5 -18t9.5 -23h-15l3 -3h1q0 -2 0.5 -3.5t0.5 -3.5l16 -15q3 -14 3 -37h-20l2 -2v-3l6 -6l11 -12q-1 -8 -3.5 -17.5t-6.5 -22.5h-27l7 -7l10 -16q-4 -8 -12 -18.5t-18 -21.5h-35l4 -4l7 -19q-15 -13 -32 -22.5t-35 -17.5h-345
l-23 -60h1l-25 -65l-20 -54l-1 -3l-7 -26h-216l-17 17h-7l10 35h2l22 60l20 59h1l19 54h-1l25 63h-2l25 62h7l-1 1h-8l23 58h13l-5 5h-8l22 55h16l-7 7h-8l21 52h21l-11 11h-8zM404 355l-14 -36h177l-1 1h-9q10 12 18.5 25t13.5 21h-196z" />
    <glyph glyph-name="FL0071h" unicode="q" horiz-adv-x="743" 
d="M381 522h272q-40 8 -80 8h-132q-26 0 -60 -8zM813 364h-209q10 -14 15 -30h195v5v12q0 9 -1 13zM162 334h198q15 16 33 30h-214q-5 -8 -9 -15t-8 -15zM809 287q1 5 1.5 9t0.5 9h-187v-10v-12q0 -9 -1 -10l-1 -2h184q1 4 1.5 7.5t1.5 8.5zM139 271h185q1 9 11 27
q1 2 2 3.5t2 3.5h-190q-3 -8 -5.5 -17t-4.5 -17zM130 208h196q-6 18 -6 36v1h-187v-2q-3 -18 -3 -35zM718 -28l-18 35h-386q23 -4 47 -5.5t50 -1.5h90l17 -28h200zM135 146h237q-22 13 -36 40h-206q0 -18 5 -40zM295 483l-33 -24h510q-9 11 -26 24h-451zM771 186h-373
l18 -40h328q17 22 27 40zM798 245h-185q-2 -3 -3.5 -6.5t-3.5 -6.5q-2 -5 -4.5 -9t-4.5 -8l-16 30h-210l17 -37h394q10 17 16 37zM202 397h604q-2 7 -5 13.5t-6 13.5h-570q-6 -7 -12 -13.5t-11 -13.5zM261 20h432l-24 47h-490q34 -32 82 -47zM728 126h-587q11 -28 24 -43
h522q11 10 21 20.5t20 22.5zM378 508l-3 27q33 9 66 9h132q47 0 87 -8l-1 -6l18 -17l-2 -16h76q8 -6 19.5 -18t31.5 -34h-2q3 -4 6.5 -7.5l7.5 -7.5q0 -2 2 -2h-7l13 -13q4 -9 8.5 -19.5t10.5 -29.5h-14v-5l17 -16q1 -4 1 -13v-13v-16h-10l7 -7q0 -14 -0.5 -20t-1.5 -11
t-2.5 -13t-2.5 -12h-21l4 -4l11 -14q-3 -10 -8.5 -21.5t-11.5 -23.5h-18l10 -16q-8 -13 -15.5 -24t-15.5 -22h-21l8 -16q-9 -11 -20.5 -23t-25.5 -24h-12l27 -53l1 -1l29 -57h-224l-17 17h-5l-7 11h-72q-28 0 -53 1.5t-48 5.5l-13 13h-36l-3 1q-46 13 -100 61q-8 7 -17 14.5
t-17 15.5h6q-9 13 -16 27.5t-14 31.5h3l-2 2q-2 9 -3.5 22.5t-1.5 35.5h7l-7 7q0 20 3 38v14h16l-9 15q0 1 0.5 2.5t0.5 2.5v1q0 1 1 2l2 8t3 9q1 5 3 10l4 10h26l-1 1h-5l-12 18q3 6 8.5 15t10.5 17l1.5 3l2.5 5h39l-5 5h-5l-11 21q4 5 8.5 10t11.5 12q3 3 6 6.5t5 5.5h18
l-7 7h-12l72 52h104l-11 11h-6zM365 273q-3 -4 -7 -14h232l5 -11l3 -3v4q0 2 0.5 5.5t0.5 4.5h1l10 20v40h4l-1 1h-5q-3 10 -8.5 21t-15.5 25h-148l11 -11q-51 -39 -63 -52h-12l7 -7q-8 -11 -10 -15.5t-4 -7.5zM363 177v-2q12 -12 38 -30l-25 55l-22 46l-1 -6h-6l4 -4v-12
q0 -17 9 -44zM785 460q0 1 -1 1z" />
    <glyph glyph-name="r" unicode="r" horiz-adv-x="731" 
d="M46 7l-2 -7h192l2 7h-192zM733 0l-7 7h-215l8 -7h214zM237 530l-3 -8h493q-21 8 -44 8h-446zM176 364l-11 -30h192l11 30h-192zM792 364h-193q-1 -8 -4 -16.5t-10 -13.5h202q2 7 3 14.5t2 15.5zM155 305l-13 -34h192l13 34h-192zM289 146l13 36l5 4h-196l-14 -40h192z
M89 126l-15 -43h192l15 43h-192zM68 67l-17 -47h192l17 47h-192zM317 186l44 -40h229l-39 40h-234zM382 126l47 -43h223l-42 43h-228zM446 67l51 -47h216l-46 47h-221zM775 305h-388l-33 -34h395q8 8 14.5 16t11.5 18zM771 483h-551l-9 -24h570q-2 6 -4.5 12t-5.5 12z
M790 424h-592l-10 -27h604q0 7 -0.5 13.5t-1.5 13.5zM714 245h-386l-5 -5l2 5h-192l-14 -37h479q31 5 60.5 13.5t55.5 23.5zM773 497l10 -6q1 -2 1.5 -4t2.5 -5l14 -14q3 -6 7 -17t9 -23h-15l2 -2v-5l17 -16q1 -7 1.5 -15t0.5 -24h-19l2 -2v-3l6 -6l11 -12q-1 -7 -2.5 -15
t-6.5 -25h-26l7 -7l10 -16q-6 -11 -14 -21t-17 -19h-44l4 -4l6 -20q-28 -17 -58.5 -25.5t-61.5 -13.5h-41l37 -37l8 -8l62 -63h-1l47 -48l35 -35h-4l17 -17h-245l-20 17h-1l-40 35h2l-65 60l-64 59l-16 15l-1 -1l-14 -39h-1l-21 -63h-1l-20 -54l-1 -3l-7 -26h-216l-17 17h-7
l10 35h2l22 60l20 59h1l19 54h-1l25 63h-2l25 62h7l-1 1h-8l23 58h13l-5 5h-8l22 55h16l-7 7h-8l21 52h21l-11 11h-8l15 36h455q30 0 56 -12l-1 -5l17 -17l-4 -13h22zM404 355l-14 -36h166l-1 1h-11q17 13 25.5 24.5t12.5 21.5h-189zM293 52h1l-1 1v-1z" />
    <glyph glyph-name="FL201Ch" unicode="s" horiz-adv-x="692" 
d="M55 0h510q20 0 34 7h-540q-1 -2 -2 -3.5t-2 -3.5zM840 530h-510q-15 0 -36 -8h541q2 2 2.5 4t2.5 4zM375 340q-2 2 -6 5.5t-4 4.5v5q0 6 1 9h-192v-11v-10q0 -6 1 -9h209q-6 3 -9 6zM519 174v-12q0 -10 -2 -16h187q1 5 1.5 11t0.5 11v6q0 9 -1 12h-188q2 -10 2 -12z
M805 483h-566l-10 -12l-10 -12h566l10 12zM725 397l27 27h-557q-4 -7 -6.5 -13.5t-5.5 -13.5h542zM652 305h-471q3 -8 6.5 -17t8.5 -17h484q-5 10 -12.5 18t-15.5 16zM693 245h-479q22 -27 48 -37h441q-2 9 -4.5 18.5t-5.5 18.5zM113 83h566q6 11 11 21.5t9 21.5h-550
q-7 -7 -16 -18t-20 -25zM67 20h555q27 18 47 47h-568q-10 -13 -18.5 -25t-15.5 -22zM842 544l4 -9l14 -14l8 -19l-2 -3q-1 -3 -6 -8h-51l2 -3l14 -14l8 -19q-2 -2 -4 -4.5t-5 -6.5q-2 -3 -6.5 -8t-6.5 -8h-25l13 -13l-49 -49h-361l11 -11q-2 -4 -2.5 -6.5t-1.5 -4.5h1l-1 -5
l17 -17l-1 -3h241l7 -3q6 -6 12.5 -13.5t13.5 -17.5q15 -15 33 -45h-8l12 -12q4 -11 7.5 -23t5.5 -28h-2q2 -9 2.5 -14t0.5 -9v-6q0 -8 -1 -16.5t-2 -16.5h-1q-6 -19 -12 -32.5t-12 -24.5h1q-32 -48 -65 -69h-19l2 -10q-21 -10 -43 -10h-510l-17 17h-5l-12 18q0 1 1.5 3.5
t9.5 13.5h4l-2 5l2 2l2 2l17.5 25t18.5 26h10l-4 9q11 14 22 27t21 23h356q5 11 5.5 15t0.5 7v10q-2 2 -2 5h-223q-21 8 -43 29q-27 18 -53 53h2q-5 10 -11.5 24.5t-12.5 35.5h7l-1 1h-6q-1 5 -1.5 9t-0.5 8v16v25h16l-5 5h-6q0 5 4 15t5 12q4 8 7 15.5l5 12.5h20l-7 7h-9
q2 3 8 10.5t12.5 15.5t13 15.5t9.5 10.5h71l-11 11h-6l-5 24q25 12 48 12h512z" />
    <glyph glyph-name="FL0074h" unicode="t" horiz-adv-x="648" 
d="M230 7l-2 -7h192l2 7h-192zM290 522h508l2 4l2 4h-501q-3 -2 -5.5 -4t-5.5 -4zM360 364l-11 -30h192l11 30h-192zM339 305l-13 -34h192l13 34h-192zM317 245l-14 -37h192l14 37h-192zM295 186l-14 -40h192l14 40h-192zM273 126l-15 -43h192l15 43h-192zM252 67l-17 -47
h192l17 47h-192zM251 483l-21 -24h522q5 6 9.5 12t9.5 12h-520zM183 397h506q6 3 14 10t18 17h-519q-16 -18 -19 -27zM256 508l27 27q4 4 17 9h525q-1 -3 -3 -5l18 -18q-5 -8 -8.5 -15.5l-3.5 -7.5l0.5 -2t0.5 -5h-33l17 -17q-1 -2 -4 -6t-7 -9t-7.5 -9.5t-4.5 -5.5l-12 -16
h-23l13 -13q-19 -19 -33.5 -31.5t-22.5 -17.5h-135l11 -11l-20 -52h-8l7 -7l-22 -56h-4l4 -4l-23 -59l-21 -62h-2l-21 -63h-1l-20 -54l-1 -3l-7 -26h-216l-17 17h-7l10 35h2l22 60l20 59h1l19 54h-1l25 63h-2l25 62h7l-1 1h-8l18 46h-143l-17 17h-5l-12 18q2 5 9 14.5
t17 22.5h21l-7 7h-9l45 52h32l-11 11h-10zM477 52h1l-1 1v-1z" />
    <glyph glyph-name="FL2022h" unicode="u" horiz-adv-x="714" 
d="M426 530h-189l-3 -8h189q1 2 1.5 4t1.5 4zM860 522l3 8h-190l-3 -8h190zM367 0h117q18 0 35 1.5t32 5.5h-292q23 -4 49.5 -5.5t58.5 -1.5zM220 483l-9 -24h190q2 5 4 11.5t4 12.5h-189zM656 483l-9 -24h190l9 24h-190zM634 424l-9 -27h189l10 27h-190zM389 424h-190
l-10 -27h191zM613 364l-11 -30h189l11 30h-189zM369 364h-191l-11 -30h192q2 7 4.5 14.5t5.5 15.5zM773 283l8 22h-190l-12 -34h189q2 3 2.5 6t2.5 6zM147 271h191q2 6 5 14.5t6 19.5h-192q-3 -9 -5 -17.5t-5 -16.5zM759 245h-190l-4 -12q-4 -9 -15 -25h193l8 18t8 19z
M128 208h198v1q0 5 1.5 13t3.5 19q0 1 -0.5 1.5t0.5 2.5h-193q-3 -10 -5.5 -19t-4.5 -18zM734 186h-201q-10 -12 -22.5 -22.5t-27.5 -17.5h231q5 9 10 19t10 21zM122 150v-4h233q-20 14 -27 40h-204q-1 -5 -1.5 -10t-0.5 -9v-17zM204 20h386q37 17 67 47h-516q20 -31 63 -47
zM133 83h539q16 19 31 43h-580q1 -12 3.5 -23t6.5 -20zM428 544l8 -14l10 -9l10 -16q-1 -1 -1 -3v-1q-1 -1 -1 -5v-5h-28l17 -17q-1 -3 -3.5 -12t-3.5 -13t-2.5 -9t-5.5 -12h-31l6 -7l6 -6l11 -14q-2 -8 -6.5 -18.5t-6.5 -16.5h-29l11 -11l10 -15q-2 -6 -4 -11t-3 -9l-6 -17
h-9l7 -7q-4 -13 -9 -28t-10 -28h-7l4 -4v-17q-5 -25 -5 -30v-12q1 -5 3 -9l4 -8q13 -13 24 -20h85l-3 16q17 8 31 19.5t25 24.5h3q17 25 24 40l7 19l21 60h9l-1 1h-8l23 58h14l-5 5h-7l19 55h16l-7 7h-8l21 52h21l-11 11h-8l15 36h220l-3 -6l18 -17l-12 -30h-22l17 -17
l-18 -46h-17l13 -13l-19 -49h-14l11 -11l-20 -52h-9l7 -7l-14 -41l-2 -3q-1 -2 -2.5 -6t-2.5 -6h-20l4 -4l10 -15q-2 -6 -5 -11.5t-5 -10.5l-9 -22h-16l10 -15l-3.5 -7l-3.5 -7q-4 -7 -7 -14.5t-8 -15.5l1 -1q-11 -17 -21 -32t-19 -26l1 -1q-25 -25 -48 -42.5t-44 -26.5h-37
l2 -12q-17 -5 -35.5 -6.5t-37.5 -1.5h-117q-35 0 -62 1.5t-50 5.5l-13 13h-38l-4 1q-14 5 -26.5 12.5t-23.5 18.5q-30 21 -55 60h3q-4 9 -6.5 21.5t-3.5 29.5v18q0 12 0.5 23t2.5 27h11l-8 11q2 9 6 23.5t7 24.5h1l11 31v4q1 2 2.5 8t6.5 17h7l-1 1h-8l23 58h12l-5 5h-8
l22 55h15l-7 7h-8l21 52h21l-11 11h-8l15 36h200z" />
    <glyph glyph-name="FL0076h" unicode="v" horiz-adv-x="773" 
d="M521 7h-198q7 -7 16 -7h165q10 0 17 7zM401 530h-174l1 -8h174zM726 530l-6 -8h206l6 8h-206zM233 483l4 -24h173l-3 24h-174zM242 424l4 -27h172l-3 27h-173zM689 483l-19 -24h208l18 24h-207zM251 364l4 -30h172l-4 30h-172zM643 424l-21 -27h209l20 27h-208zM259 305
l5 -34h171l-4 34h-172zM597 364l-24 -30h210l23 30h-209zM268 245l5 -37h171l-5 37h-171zM551 305l-27 -34h211l26 34h-210zM504 245l-28 -37h211l28 37h-211zM577 62l4 5h-284q6 -26 17 -47h223q13 11 24 23t16 19zM293 83h300l32 43h-340l4 -25q1 -4 1.5 -8.5t2.5 -9.5z
M459 186l-10 -13l-2 13h-171l6 -40h358l31 40h-212zM691 508l28 36h241l-4 -5l18 -18l-22 -30h-31l17 -17l-34 -46h-24l13 -13l-36 -49h-19l11 -11l-40 -52h-12l7 -7l-43 -56h-7l4 -4l-45 -59h1l-48 -62h-1l-42 -57h1l-18 -23q-5 -6 -17 -19t-29 -27h-16l4 -10
q-13 -10 -24 -10h-165q-14 0 -39 24q-12 9 -31 28h8q-5 12 -9.5 26.5t-8.5 30.5q-1 1 -1 4q0 4 -1 6q0 1 -0.5 2t-0.5 3q-1 1 -1 4v2l-5 33h-1l-8 62h-1l-8 63h-1l-8 62h6l-1 1h-6l-7 58h9l-5 5h-6l-7 55h11l-7 7h-6l-7 52h15l-11 11h-6l-4 36h203v-7l17 -16l3 -30h-14v-1
l17 -16l5 -46h-10l13 -13l5 -49h-8l11 -11l7 -52h-6l7 -7l6 -56h-2l4 -4l1 -12l25 33l49 62h10l-1 1h-9l46 58h17l-5 5h-9l43 55h21l-7 7h-9l41 52h29l-11 11h-9zM303 10l-7 8q2 -2 3.5 -4t3.5 -4z" />
    <glyph glyph-name="FL0057h" unicode="w" horiz-adv-x="904" 
d="M238 530l-3 -8h188l3 8h-188zM552 530l-3 -8h190l3 8h-190zM863 530l-3 -8h190l3 8h-190zM325 0h535l2 7h-625q17 -4 39.5 -5.5t48.5 -1.5zM221 483l-9 -24h190l8 24h-189zM535 483l-9 -24h190l9 24h-190zM846 483l-9 -24h190l9 24h-190zM824 424l-9 -27h189l10 27h-190z
M513 424l-9 -27h190l9 27h-190zM199 424l-10 -27h192l9 27h-191zM803 364l-11 -30h189l11 30h-189zM492 364l-11 -30h190l11 30h-190zM177 364l-11 -30h194l10 30h-193zM781 305l-12 -34h189l13 34h-190zM470 305l-12 -34h190l12 34h-190zM156 305l-13 -34h195l12 34h-194z
M759 245l-13 -37h189l14 37h-190zM448 245l-13 -37h190l13 37h-190zM332 245h-198l-14 -37h204q0 5 2.5 15.5t5.5 21.5zM738 186l-15 -40h190l14 40h-189zM427 186l-15 -40h190l15 40h-190zM325 186h-213q-3 -11 -5 -20.5t-3 -19.5h263q-15 2 -26.5 10t-15.5 30zM115 83h775
l15 43h-801q0 -23 11 -43zM189 20h678l17 47h-760q10 -14 26 -26.5t39 -20.5zM528 508l15 36h220l-3 -6l18 -17l-12 -30h-22l17 -17l-18 -46h-18l13 -13l-17 -49h-14l11 -11l-20 -52h-10l7 -7l-19 -56h-7l4 -4l-20 -59l-15 -37h67l24 60l20 59h1l21 60h9l-1 1h-8l23 58h14
l-5 5h-7l19 55h16l-7 7h-8l21 52h21l-11 11h-8l15 36h220l-3 -6l18 -17l-12 -30h-22l17 -17l-18 -46h-17l13 -13l-19 -49h-14l11 -11l-20 -52h-8l7 -7l-22 -56h-4l4 -4l-23 -59l-21 -62h-2l-21 -63h-1l-20 -54l-1 -3l-7 -26h-544q-29 0 -52 1.5t-40 5.5l-13 13h-31l-4 1
q-16 5 -29 14t-25 20q-14 11 -27 25t-26 32h1q-9 19 -9 51h-1q2 20 4.5 34.5t5.5 27.5l1 2q0 3 1 4l23 57h-2l25 62h7l-1 1h-8l23 58h13l-5 5h-8l22 55h16l-7 7h-8l21 52h21l-11 11h-8l15 36h218l-3 -6l18 -17l-12 -30h-22l17 -17l-16 -46h-17l13 -13l-17 -49h-14l11 -11
l-18 -52h-9l7 -7l-19 -56h-18l4 -4l11 -14q-3 -11 -5.5 -23t-2.5 -22h-8l9 -9v-3q4 -2 8.5 -3t9.5 -2l-1 -6l15 -14h6l24 60l20 59h1l21 60h9l-1 1h-8l23 58h14l-5 5h-7l19 55h16l-7 7h-8l21 52h21l-11 11h-8zM917 52h1l-1 1v-1z" />
    <glyph glyph-name="FL0079h" unicode="x" horiz-adv-x="690" 
d="M34 0h213l8 7h-213zM656 0l-3 7h-213l3 -7h213zM442 530h-214l3 -8h214zM634 530l-9 -8h214l9 8h-214zM247 483l9 -24h214l-10 24h-213zM580 483l-27 -24h214l27 24h-214zM319 305l14 -34h221l39 34h-274zM176 126l-49 -43h214l49 43h-214zM391 126l18 -43h213l-17 43
h-214zM415 67l20 -47h213l-19 47h-214zM109 67l-53 -47h213l54 47h-214zM311 245l-42 -37h303l-15 37h-246zM295 364l12 -30h319l34 30h-365zM492 405l-8 19h-214l11 -27h416l31 27h-215zM244 186l-45 -40h398l-16 40h-337zM207 544h244l3 -9l15 -14l12 -30h-10l1 -3l15 -14
l16 -40l5 4h27l-7 7h-11l58 52h36l-11 11h-11l40 36h254l-5 -5l18 -18l-33 -30h-38l17 -17l-51 -46h-27l13 -13l-56 -49h-23l11 -11l-59 -52h-15l7 -7l-63 -55l5 -5l24 -59l25 -62h-1l23 -57h1l28 -69h-1l9 -20h-236l-17 17h-5l-15 35l-24 57l-23 -20l-7 -6l-61 -54l-33 -29
h-246l-17 17h-11l23 20l17 15l53 48l81 71h1l60 54l7 6l67 59h17l-25 60h6l-1 1h-5l-24 58h8l-5 5h-5l-23 55h10l-7 7h-5l-21 52h12l-11 11h-5z" />
    <glyph glyph-name="FL007Bh" unicode="y" horiz-adv-x="688" 
d="M250 7l-2 -7h192l2 7h-192zM441 530h-214l3 -8h214zM633 530l-9 -8h214l9 8h-214zM246 483l10 -24h213l-10 24h-213zM579 483l-27 -24h214l27 24h-214zM337 245l-13 -37h192l13 37h-192zM316 186l-15 -40h192l15 40h-192zM294 126l-16 -43h192l16 43h-192zM318 305
l14 -34h221l39 34h-274zM272 67l-17 -47h192l17 47h-192zM294 364l12 -30h319l34 30h-365zM491 405l-8 19h-213l11 -27h415l31 27h-215zM588 508l40 36h254l-5 -5l18 -18l-33 -30h-38l17 -17l-51 -46h-27l13 -13l-56 -49h-23l11 -11l-59 -52h-15l7 -7l-64 -56h-17l4 -4
l-20 -59l-23 -60h1l-25 -65l-20 -54l-1 -3l-7 -26h-216l-17 17h-7l10 35h2l17 48h-1l25 63h-2l27 68l19 57h-3l-26 62h6l-1 1h-5l-24 58h9l-5 5h-5l-23 55h10l-7 7h-5l-22 52h12l-11 11h-5l-15 36h244l3 -9l15 -14l12 -30h-10l1 -3l15 -14l16 -40l5 4h27l-7 7h-11l58 52h36
l-11 11h-11z" />
    <glyph glyph-name="FL007Ah" unicode="z" horiz-adv-x="648" 
d="M46 7l-7 -7h499q8 0 15 7h-507zM290 522h503l9 8h-501q-3 -2 -5.5 -4t-5.5 -4zM419 364l-31 -30h209l31 30h-209zM357 305l-35 -34h209l35 34h-209zM295 245l-39 -37h209l39 37h-209zM233 186l-42 -40h209l42 40h-209zM251 483l-21 -24h497l25 24h-501zM183 397h480
l28 27h-489q-16 -18 -19 -27zM653 126h-483l-45 -43h498q9 12 17 23t13 20zM610 67h-501l-49 -47h508q18 17 42 47zM256 508l27 27q4 4 17 9h537l-5 -5l18 -18l-33 -30h-34l17 -17l-48 -46h-26l13 -13l-51 -49h-23l11 -11l-54 -52h-15l7 -7l-58 -56h-8l4 -4l-62 -59l-39 -37
h204l7 -13l11 -10l10 -17q-11 -18 -34 -48h-16l6 -12q-8 -11 -17 -21t-20 -20l1 -1q-4 -2 -7 -5l-4 -4q-28 -20 -34 -20h-526l-17 17h-10l35 35l50 48l74 71l63 60l60 57l2 2l62 60h13l-1 1h-10l47 46h-197l-17 17h-5l-12 18q2 5 9 14.5t17 22.5h21l-7 7h-9l45 52h32l-11 11
h-10z" />
    <glyph glyph-name="FL007Dh" unicode="{" horiz-adv-x="587" 
d="M167 -56h285l6 4h-290zM756 597h-352l-5 -12h350q2 2 3.5 5zM341 424l-10 -27h192l9 27h-191zM319 364l-11 -30h192l11 30h-192zM545 459l1 3h90q10 0 31 21h-305l-8 -24h191zM719 543h-335l-8 -21h326q5 5 9 10.5t8 10.5zM254 186l-14 -40h191l15 40h-192zM233 126
l-16 -43h191l16 43h-191zM221 305l-36 -34h292l12 34h-268zM158 245l-39 -37h335l13 37h-309zM519 7h-329l-18 -49h297q11 10 24 22.5t26 26.5zM545 37q2 2 8 11.5t12 18.5h-354l-17 -47h337q4 5 7.5 9t6.5 8zM395 611h384l-3 -6l18 -17l-9.5 -19t-9.5 -15h-53l5 -8l12 -12
l9 -17q-5 -7 -10.5 -13.5t-10.5 -12.5h-30l17 -17q-20 -20 -35.5 -31.5t-22.5 -11.5h-83l-1 -3h-18l13 -13l-17 -49h-14l11 -11l-20 -52h-10l7 -7l-19 -56h-7l4 -4l-20 -59l-23 -60h1l-14 -36h148q-4 -4 -5 -6l18 -17q-1 -1 -4 -6t-7 -10t-7 -9.5t-4 -5.5h-1q-3 -6 -6 -10.5
t-4 -6.5l-1 -1q-4 -4 -9 -9.5t-8 -10.5h-13l4 -10q-8 -9 -18 -18t-19 -18l4 -4l-39 -26h-303l-17 17h-7l4 14h-1l6 18h1l17 44l22 63h-1l25 63l15 45h-125l-17 17h-10l66 63l2 2l63 60h81l-1 1h-8l23 58h13l-5 5h-8l22 55h17l-7 7h-7l18 52h21l-11 11h-8l20 49h25l-14 14h-8
z" />
    <glyph glyph-name="FL007Ch" unicode="|" horiz-adv-x="280" 
d="M284 662l-5 -14h192l5 14h-192zM262 602l-6 -17h192l6 17h-192zM241 543l-8 -21h192l8 21h-192zM219 483l-8 -24h192l8 24h-192zM198 424l-10 -27h192l10 27h-192zM4 -112l-11 -29h192l10 29h-191zM176 364l-11 -30h192l11 30h-192zM155 305l-13 -34h192l13 34h-192z
M133 245l-14 -37h192l14 37h-192zM111 186l-14 -40h192l14 40h-192zM89 126l-15 -43h192l15 43h-192zM68 67l-17 -47h192l17 47h-192zM46 7l-18 -49h192l18 49h-192zM25 -52l-19 -53h192l19 53h-192zM237 571l15 45h221l-2 -6l18 -17l-13 -39h-24l-1 -3l18 -17l-17 -43h-23
l17 -17l-16 -46h-17l13 -13l-19 -49h-14l11 -11l-20 -52h-8l7 -7l-22 -56h-4l4 -4l-23 -59l-21 -62h-2l-21 -63h-1l-20 -53l1 -1l-23 -58l1 -1l-27 -75l-12 -36h-216l-17 17h-8l19 47l19 52h-3l30 77l22 60l20 59h1l19 54h-1l25 63h-2l25 62h7l-1 1h-8l23 58h13l-5 5h-8
l22 55h17l-7 7h-7l18 52h21l-11 11h-8l20 49h26l-14 14h-7zM260 634l14 42h221l-2 -5l18 -18l-13 -36h-214l-17 17h-7z" />
    <glyph glyph-name="FL007Eh" unicode="}" horiz-adv-x="587" 
d="M27 -57h352l2 5h-352q-1 -1 -1 -2q0 -2 -1 -3zM613 585l4 11h-285q-3 0 -14 -11h295zM363 424l-10 -27h192l10 27h-192zM254 522h336l7 21h-323q-5 -5 -10 -10.5t-10 -10.5zM667 334l12 11h-153l7 19h-192l-11 -30h337zM276 186l-14 -40h191l14 40h-191zM212 461h165
l-1 -2h191l9 24h-351q-5 -8 -8.5 -14t-4.5 -8zM254 126l-15 -43h191l15 43h-191zM475 208l1 2h59l37 35h-274l-14 -37h191zM320 305l-13 -34h293l36 34h-316zM82 20h325l17 47h-297q-10 -8 -22 -20.5t-23 -26.5zM36 -42h348l18 49h-331q-11 -13 -19.5 -25.5t-15.5 -23.5z
M636 610l-2 -5l18 -18l-12 -33h-25l-1 -2l18 -18l-15 -43h-22l17 -17l-18 -46h-16l13 -13l-19 -49h-14l7 -7h149l-5 -5l18 -18l-36 -33h-14l7 -7l-59 -56h-9l4 -4l-60 -57h-57l-1 -2l-21 -62h-2l-21 -63h-1l-20 -53l1 -1l-22 -58l1 -1l-11 -27h-370l-17 17h-6v10q0 2 0.5 4
t0.5 3q0 5 1 7t8 9h1l-1 3q5 9 14 21t28 35h7l-3 6q11 14 25.5 28t28.5 26h101l20 59h1l19 54h-1l25 63h-2l25 62h7l-1 1h-8l23 58h13l-5 5h-8l19 47h-119l-17 17h-5l-11 17v4q-3 -3 9 14h-1l10 15h51l-11 11h-5l-10 21q5 5 13 14t13 14h40l-14 14h-10q19 19 32.5 29
t15.5 10h304zM457 52h1l-1 1v-1z" />
    <glyph glyph-name="FL0080h" unicode="~" horiz-adv-x="445" 
d="M507 305h-99l-32 -34h98q11 11 19 19.5t14 14.5zM154 245l-36 -37h98l35 37h-97zM413 209q11 11 19 19.5t16 16.5h-172l18 -37h117q1 0 2 1zM212 305l-33 -34h185l-16 34h-136zM85 194l61 63l2 2l58 60h151l4 -10l14 -13l2 -4l25 27h107l4 -9l14 -14l8 -19l-4.5 -4.5
t-5.5 -6.5l-26 -26h-8l4 -4q-5 -5 -17 -17.5t-17 -17.5l-20 -20q-3 -3 -4 -3.5t-6 -0.5h-124l-17 17h-5l-10 19l-34 -36h-129l-17 17h-10z" />
    <glyph glyph-name="FL007Fh" horiz-adv-x="175" 
 />
    <glyph glyph-name="FL00A1h" unicode="&#xa1;" horiz-adv-x="280" 
d="M296 522h72q-14 8 -33 8q-18 0 -39 -8zM44 0h192l2 7h-192zM362 424h-132q4 -18 21 -27h71q23 10 40 27zM385 460q4 9 4 23h-144q-8 -11 -12 -23q0 -1 -1 -1h152q1 0 1 1zM357 334l10 25h-192l-10 -25h192zM155 305l-13 -34h192l13 34h-192zM133 245l-14 -37h192l14 37
h-192zM111 186l-14 -40h192l14 40h-192zM89 126l-15 -43h192l15 43h-192zM68 67l-17 -47h192l17 47h-192zM388 373l-3 -6l18 -17l-19 -47h-8l7 -7l-22 -56h-4l4 -4l-23 -59l-21 -62h-2l-21 -63h-1l-20 -54l-1 -3l-7 -26h-216l-17 17h-7l10 35h2l22 60l20 59h1l19 54h-1
l25 63h-2l25 62h7l-1 1h-8l22 53h92l-10 10h-1q-26 14 -36 55h31l-7 7h-6v9l-7 7l-3 1q2 5 7 14t13 21h71l-11 11h-6l-5 26q20 10 47 10q21 0 47 -14l-1 -4l17 -17l-3 -12h8v-6l17 -17q0 -24 -4 -36q0 -8 -2 -9t-10 -1h-35l13 -13l8 -18q-13 -13 -32 -24h30z" />
    <glyph glyph-name="FL00A2h" unicode="&#xa2;" horiz-adv-x="663" 
d="M575 662l-5 -14h126l5 14h-126zM554 602l-6 -17h126l6 17h-126zM294 -112l-11 -30h126l11 30h-126zM467 364l-11 -30h126l11 30h-126zM446 305l-13 -34h126l13 34h-126zM424 245l-14 -37h126l14 37h-126zM349 522h462l6 8h-163l4 13h-126l-4 -13h-124q-25 0 -55 -8z
M160 334h194q5 8 10 15.5t11 14.5h-202q-4 -8 -7 -15t-6 -15zM144 271h186q1 6 3 12.5t4 14.5q1 1 1 3q0 3 1 4h-188q-2 -9 -3.5 -17.5t-3.5 -16.5zM316 -52l-20 -53h126l20 53h-126zM562 7h-225l-18 -49h126l16 42h93q2 1 8 7zM145 208h197q-10 18 -12 37h-187v-2v-19
q0 -6 2 -16zM243 459h516l21 24h-508q-8 -6 -15 -12zM192 397h504l30 27h-515q-5 -7 -9.5 -13.5t-9.5 -13.5zM160 146h354l14 40h-126l-12 -34q-10 7 -18 15.5t-16 18.5h-208q5 -24 12 -40zM315 20h262q23 20 45 47h-402q20 -17 44 -28t51 -19zM202 83h433q8 11 16 21.5
t16 21.5h-497q7 -12 14.5 -23t17.5 -20zM529 571l15 45h155l-2 -5l18 -18l-13 -39h-26l-1 -3l8 -7h160q-1 -2 -2 -3t-2 -3l18 -17q-7 -11 -13 -19.5t-8 -10.5h-29l17 -17l-41 -46h-22l13 -13l-54 -49h-102l11 -11l-20 -52h-8l7 -7l-22 -56h-4l4 -4l-23 -59l-13 -37h143
q-2 -2 -3 -5l18 -18q-7 -10 -20 -28.5t-22 -30.5q-15 -19 -31.5 -36.5t-33.5 -32.5h-15l4 -10q-2 -2 -4 -3.5t-9 -6.5h-89l-11 -29l1 -1l-23 -59l1 -1l-20 -52h-149l-17 17h-8l14 37h-1l25 63h-2l19 50q-25 8 -52.5 23.5t-56.5 40.5l-6 5q-5 5 -11 9t-11 9h5q-20 23 -39 59
h2l-1 1q-11 23 -17 59h7l-6 5q-2 10 -2 17v21v16h12l-11 14q2 8 4.5 22.5t4.5 23.5h25l-1 1h-4l-12 18l3 9q3 8 6 15.5t8 15.5h36l-5 5h-5l-11 20q1 2 2 2.5t2 2.5q5 8 9.5 15.5t11.5 14.5h49l-7 7h-5l-9 22q2 2 4 3.5t4 3.5q6 5 13 11.5t13 11.5h97l-11 11h-6l-3 27
q30 9 61 9h113l4 13h29l-14 14h-7zM551 634l14 42h155l-2 -5l18 -18l-13 -36h-148l-17 17h-7zM435 320l18 46h-45l11 -11q-16 -18 -25 -30.5t-14 -21.5h-17l7 -7q0 -1 -0.5 -7t-0.5 -7q0 -6 -2 -10q-4 -7 -7 -32h-4l4 -4q3 -23 17 -53q3 -4 7 -7l6 18h-1l25 63h-2l25 62h7
l-1 1h-8z" />
    <glyph glyph-name="FL00A3h" unicode="&#xa3;" horiz-adv-x="706" 
d="M515 522h110q0 2 -0.5 4t-0.5 4h-70q-15 0 -39 -8zM34 0h638v7h-631zM418 459h212v24h-183q-8 -6 -15 -12zM319 334h201q0 19 4 28l1 2h-193q-3 -6 -5.5 -12.5t-5.5 -12.5q-2 -6 -2 -5zM356 397h269q2 7 2.5 13.5t1.5 13.5h-249q-14 -15 -24 -27zM245 158l-5 -12h221
q-2 3 -4 6.5t-4 5.5l-0.5 2t-1.5 3l2 5q2 2 4 7t6 11h-207q-5 -8 -7 -15t-4 -13zM227 305l-36 -34h441l-14 34h-391zM163 245l-39 -37h534l-15 37h-480zM670 126h-503l-45 -43h553q-1 12 -2 22.5t-3 20.5zM675 67h-570l-50 -47h618q1 12 1.5 24t0.5 23zM512 508l-5 26
q24 10 47 10h84q0 -5 1 -7l16 -16q0 -2 0.5 -8.5t0.5 -7.5v-14h-12l17 -17v-46h-13l13 -13q-2 -14 -3.5 -26t-3.5 -23h-102l11 -11l-9 -18h-1q-2 -10 -2 -18h76l3 -9l15 -14l23 -56h-2l4 -4l24 -59h-192q-2 -4 -8 -14t-8 -14l-3 -6v-1l1 -1v-1h187l13 -11q0 -4 1 -5l16 -16
q2 -11 3 -25t3 -31h-6l5 -5q0 -11 -1 -28.5t-2 -29.5v-20h-676l-17 17h-10l35 35h1l63 60l62 59h61l10 23v1q1 0 1 2v1q0 1 1 3t1 3q0 3 1 4h-120l-17 17h-10l68 65h1l63 60h102l-1 1h-4l-13 13q0 9 4 13l-1 -1q1 1 1 3t1 3l3 6q1 2 1.5 4t2.5 5l6 12h41l-5 5h-5l-10 21
q3 4 8.5 10t10.5 11l6.5 6.5t5.5 6.5h53l-7 7h-5l-9 22q2 2 4 3.5t4 3.5q6 5 13 11.5t13 11.5h88l-11 11h-6z" />
    <glyph glyph-name="FL00A4h" unicode="&#xa4;" horiz-adv-x="690" 
d="M656 0l-3 7h-213l3 -7h213zM34 0h213l8 7h-213zM442 530h-214l3 -8h214zM634 530l-9 -8h214l9 8h-214zM220 271h123q2 3 3.5 6.5t3.5 7.5q4 5 7.5 10t7.5 10h-131q-5 -9 -8.5 -17.5t-5.5 -16.5zM668 279q1 7 1.5 13.5t0.5 12.5h-129q2 -10 2 -17v-9t-1 -8h124q1 1 1 4
t1 4zM658 245h-127q-13 -20 -39 -37h145q14 20 21 37zM216 208h146q-16 16 -20 37h-126q-2 -11 -1.5 -20t1.5 -17zM247 483l10 -24h213l-9 24h-214zM580 483l-27 -24h214l27 24h-214zM416 67l19 -47h213l-20 47h-212zM110 67l-54 -47h214l53 47h-213zM254 334h148
q8 4 15.5 6.5t15.5 2.5h54q12 0 20.5 -2.5t14.5 -6.5h144q-4 15 -10 27l3 3h-377l-15 -15t-13 -15zM485 423l-1 1h-213l11 -27h415l30 27h-213l-1 -1h-28zM619 186h-397q4 -10 7 -14l-1 -1l-29 -25h397l-5 14q8 6 15 12t13 14zM371 109h28l10 -26h213l-18 43h-427l-49 -43
h213zM589 508l40 36h254l-5 -5l18 -18l-33 -30h-38l17 -17l-51 -46h-29l13 -13l-54 -49h-26l11 -11l-16 -16q2 -7 5 -15.5t5 -20.5h-6l7 -7q0 -15 -0.5 -23t-1.5 -15q-1 -1 -1 -2v-1q0 -4 -1 -7t-6 -8h-17l4 -4l10 -15q-10 -25 -25 -44h-24l9 -18q-12 -14 -24 -24l6 -17
l1 -1l27 -65h-1l27 -63h-1l9 -20h-236l-17 17h-5l-15 35h1l-24 57h-2l-29 -26h-1l-70 -63l-23 -20h-246l-17 17h-11l23 20h-1l144 126h-1l50 43q-3 5 -5.5 11.5t-4.5 13.5h6l-6 5q-1 3 -1 10v13v14q0 4 0.5 8t1.5 9h14l-11 15q6 16 15 36q1 2 2 4.5t2 4.5h33l-1 1h-5l-11 21
q6 8 15 17l20 20h7l-5 5h-5l-23 55h10l-7 7h-5l-22 52h12l-11 11h-5l-15 36h244l3 -9l15 -14l12 -30h-9l1 -3l15 -14l14 -37h5l1 1h27l-7 7h-11l58 52h36l-11 11h-11zM371 236q2 -13 13 -30l6 -6h61q27 17 46 32.5t26 26.5h5v12q0 4 0.5 8t0.5 6t-1 9t-3 15q-8 3 -18 3h-54
q-6 0 -13 -2.5t-15 -6.5h-24l7 -7q-12 -14 -18.5 -23t-10.5 -14l-3.5 -7t-3.5 -6q-1 -1 -2 -3t-2 -3h-1z" />
    <glyph glyph-name="FL00A5h" unicode="&#xa5;" horiz-adv-x="688" 
d="M250 7l-2 -7h192l2 7h-192zM441 530h-214l3 -8h214zM838 522l9 8h-214l-9 -8h214zM246 483l9 -24h214l-10 24h-213zM579 483l-27 -24h214l27 24h-214zM318 305l13 -34h222l39 34h-274zM447 20l16 43h63l6 4h-415l-6 -4h160l-16 -43h192zM294 364l12 -30h319l34 30h-365z
M493 146l10 27h63l20 13h-415l-20 -13h160l-10 -27h192zM491 405l-8 19h-214l11 -27h416l31 27h-215zM263 245l-57 -37h415l57 37h-415zM209 126l-67 -43h415l67 43h-415zM882 544l-5 -5l18 -18l-33 -30h-38l17 -17l-51 -46h-27l13 -13l-56 -49h-23l11 -11l-59 -52h-15l7 -7
l-43 -37h128l-9 -6l18 -17l-91 -59h-1l-54 -35h-59l-1 -2h143l-9 -6l18 -17l-101 -65h-1l-30 -20h-59l-14 -38l-7 -25h-216l-17 17h-7l6 20h-1l3 7l2 8h1l4 11h-149l-17 17h-13l30 20h-1l110 71h79v2h-149l-17 17h-14l63 41h1l91 59h63l-24 60h6l-1 1h-5l-24 58h8l-5 5h-5
l-23 55h10l-7 7h-5l-21 52h12l-11 11h-5l-15 36h244l3 -9l15 -14l12 -30h-10l1 -3l15 -14l16 -40l5 4h27l-7 7h-11l58 52h36l-11 11h-11l40 36h254z" />
    <glyph glyph-name="FL00A6h" unicode="&#xa6;" horiz-adv-x="280" 
d="M284 662l-5 -14h192l5 14h-192zM262 602l-6 -17h192l6 17h-192zM241 543l-8 -21h192l8 21h-192zM219 483l-8 -24h192l8 24h-192zM198 424l-10 -27h192l10 27h-192zM4 -112l-11 -29h192l10 29h-191zM176 364l-11 -30h192l11 30h-192zM155 305l-13 -34h192l13 34h-192z
M133 245l-14 -37h192l14 37h-192zM111 186l-14 -40h192l14 40h-192zM89 126l-15 -43h192l15 43h-192zM68 67l-17 -47h192l17 47h-192zM46 7l-18 -49h192l18 49h-192zM25 -52l-19 -53h192l19 53h-192zM237 571l15 45h221l-2 -6l18 -17l-13 -39h-24l-1 -3l18 -17l-17 -43h-23
l17 -17l-16 -46h-17l13 -13l-19 -49h-14l11 -11l-20 -52h-8l7 -7l-22 -56h-4l4 -4l-23 -59l-21 -62h-2l-21 -63h-1l-20 -53l1 -1l-23 -58l1 -1l-27 -75l-12 -36h-216l-17 17h-8l19 47l19 52h-3l30 77l22 60l20 59h1l19 54h-1l25 63h-2l25 62h7l-1 1h-8l23 58h13l-5 5h-8
l22 55h17l-7 7h-7l18 52h21l-11 11h-8l20 49h26l-14 14h-7zM260 634l14 42h221l-2 -5l18 -18l-13 -36h-214l-17 17h-7z" />
    <glyph glyph-name="FL00A7h" unicode="&#xa7;" horiz-adv-x="690" 
d="M34 0h213l8 7h-213zM634 530l-9 -8h214l9 8h-214zM668 279q1 7 1.5 13.5t0.5 12.5h-129q2 -10 2 -17v-9t-1 -8h123q1 1 3 8zM220 271h124l6 14q4 5 7.5 10t7.5 10h-131q-4 -6 -6.5 -12t-4.5 -12t-3 -10zM658 245h-127q-13 -20 -39 -37h145q14 20 21 37zM216 208h146
q-16 16 -20 37h-126q-2 -11 -1.5 -20t1.5 -17zM580 483l-27 -24h214l27 24h-214zM336 397h361l30 27h-213l-1 -1h-28q-39 0 -76.5 -5.5t-72.5 -20.5zM110 67l-54 -47h214l53 47h-213zM512 126h-335l-49 -43h213l30 26h28q60 0 113 17zM254 334h148q8 4 15.5 6.5t15.5 2.5h54
q12 0 20.5 -2.5t14.5 -6.5h144q-4 15 -10 27l3 3h-377l-15 -15t-13 -15zM620 186h-398q4 -10 7 -14l-30 -26h364q8 3 14.5 6.5t13.5 7.5q15 12 29 26zM589 508l40 36h254l-5 -5l18 -18l-33 -30h-38l17 -17l-51 -46h-29l13 -13l-54 -49h-26l11 -11l-16 -16q2 -7 5 -15.5
t5 -20.5h-6l7 -7q0 -15 -0.5 -23t-1.5 -15l-1 -2q-2 -5 -3 -9t-3 -7h-18l4 -4l10 -15q-10 -25 -25 -44h-23l8 -19q-15 -15 -30 -27q-6 -4 -13 -7.5t-21 -8.5h-52l3 -19q-53 -18 -116 -18h-25l-29 -26h-1l-70 -63l-23 -20h-246l-17 17h-11l23 20h-1l144 126h-1l50 43
q-3 5 -5.5 11.5t-4.5 13.5h6l-6 5q-1 3 -1 10v13v14q0 4 0.5 8t1.5 9h14l-10 14v3q0 3 1 4q6 18 18 39h32l-1 1h-5l-11 21q6 8 15 17l20 20h68l-5 5h-6l-5 26q38 17 76.5 22.5t80.5 5.5h22l1 1h27l-7 7h-11l58 52h36l-11 11h-11zM371 236q2 -13 13 -30l6 -6h61
q27 17 46 32.5t26 26.5h5v12q0 4 0.5 8t0.5 6t-1 9t-3 15q-8 3 -18 3h-54q-6 0 -13 -2.5t-15 -6.5h-24l7 -7q-12 -14 -18.5 -23t-10.5 -14l-8 -19h-4z" />
    <glyph glyph-name="FL00A8h" unicode="&#xa8;" horiz-adv-x="396" 
d="M300 530q-17 0 -36 -8h65q-11 8 -29 8zM482 530q-16 0 -37 -8h66q-11 8 -29 8zM257 412q23 0 43 12h-78q12 -12 35 -12zM439 412q23 0 43 12h-78q12 -12 35 -12zM215 471q-3 -6 -3 -12h124l6 12l3 12h-125q-2 -4 -3 -7t-2 -5zM517 459l6 12l3 12h-125q-2 -4 -3 -7t-2 -5
q-3 -6 -3 -12h124zM300 544q22 0 72 -36h-6l17 -17h-21l17 -17l-6 -26l-10 -20h-18l13 -13q-55 -34 -81 -34q-27 0 -61 32q-7 5 -13.5 11t-14.5 14h23l-7 7h-6q0 26 4 33q1 4 3.5 9t5.5 10h62l-11 11h-6l-5 24q24 12 49 12zM482 544q22 0 72 -36h-6l17 -17h-22l17 -17
l-6 -26l-10 -20h-17l13 -13q-55 -34 -81 -34q-27 0 -61 32q-7 5 -13.5 11t-14.5 14h22l-7 7h-6q0 26 4 33q1 4 3.5 9t5.5 10h63l-11 11h-6l-5 24q25 12 49 12zM195 435q2 -3 5 -5z" />
    <glyph glyph-name="copyright" unicode="&#xa9;" horiz-adv-x="310" 
d="M377 461l-16 5q-2 -2 -2.5 -3.5t-2.5 -3.5h20q0 1 1 2zM332 424h-47q7 -4 23 -4q15 0 24 4zM241 522h19l8 8q3 3 6 6.5t7 6.5h-23q-1 -1 -1.5 -2t-1.5 -2q-4 -5 -7.5 -9t-6.5 -8zM446 543h-22q2 -3 2.5 -6.5t1.5 -6.5q0 -2 0.5 -4t0.5 -4h20q0 4 -0.5 8t-1.5 9q0 3 -1 4z
M442 483h-19q-6 -14 -12 -24h19q4 6 7 11.5t5 12.5zM213 459h20q1 10 6 24h-19l-4 -12t-3 -12zM267 459h20q0 9 6 24h-20q-3 -7 -4 -13t-2 -11zM371 594q-21 0 -46 -9h86q-20 9 -40 9zM230 397h39q-10 4 -13 7q-11 8 -17 20h-23q5 -18 14 -27zM403 424h-24q-18 -16 -31 -20
q-5 -2 -9.5 -3.5t-9.5 -3.5h41q18 10 33 27zM297 522h24q14 8 28 8q13 0 19 -8h23q-3 15 -17 21h-42q-20 -6 -35 -21zM266 445q-2 -6 -2 -9q0 -5 -1 -8h-10l13 -13v-2q2 -1 4.5 -2t5.5 -2q1 0 2.5 -0.5t2.5 -0.5l-1 -6l17 -17l-4 -19h-43l-8 4l-13 13l-8 4q-8 8 -13.5 21
t-10.5 30h26l-7 7h-4l-13 14q1 9 3.5 15t5.5 14l3 9h44l-11 11h-5l-10 21q-1 -2 4 4t8 10q1 1 2 1.5t2 2.5h-1l5 10h66l-5 -5l1 -2q4 2 8 3.5t9 3.5h10l-14 14h-6l-3 25q34 12 56 12q26 0 53 -13l-1 -5l17 -17l-4 -16h12l10 -6q1 -2 1.5 -4t1.5 -4l15 -15q2 -8 2 -7
q1 -4 1.5 -10.5t0.5 -19.5h-33l5 -8l10 -9l10 -14q-7 -17 -16 -32h-44l-5 4l2 -4l14 -13l8 -18q-18 -21 -37 -31h-48l-17 17h-6l-1 6q-16 0 -26 7l-14 13q-5 2 -10 5l5 24l-7 7h-4zM335 438l1 -8l12 -11q4 2 7 4.5t7 4.5h-13l-17 17h-10l24 24q0 2 10 12l44 -12q2 6 5 11.5
t5 10.5h-28q-6 8 -13 8q-11 0 -25 -8h-27l-5 4q0 -1 -0.5 -1.5t-0.5 -1.5l18 -18q-5 -12 -7.5 -21t-3.5 -15h17zM409 525l6 -9v11h-1l-3 9t-10 18h-19q12 -8 18 -21zM293 499l-2 -2h20l-10 10zM419 508q1 -2 2 -5l2 -6h9l-11 11h-2zM261 491l-4 3q0 -2 -1 -3l4 -4
q0 1 0.5 1.5t0.5 2.5z" />
    <glyph glyph-name="FL00ABh" unicode="&#xab;" horiz-adv-x="340" 
d="M305 397l4 11l-17 -11h13zM440 397l5 12l-19 -12h14zM301 186l47 -40h1l15 40h-63zM165 186l45 -40h3l15 40h-63zM242 364l-46 -30h87l10 30h-51zM376 364l-46 -30h87l11 30h-52zM338 271l-2 2l47 32h-90q-3 -4 -4.5 -6.5t-2.5 -4.5l-9 -23h61zM202 271l-1 1l48 33h-90
q-7 -7 -8 -12l-9 -22h60zM269 214l7 -6h96l10 28l-11 9h-103l-5 -13q-2 -5 1 -10t5 -8zM134 213l5 -5h98l10 27l-13 10h-101l-5 -14q-2 -5 1 -10t5 -8zM475 445l-5 -12l18 -17l-21 -50h-14l11 -11l-20 -52h-13l7 -7l-57 -40l18 -15l-2 -4l18 -17l-16 -43h1l-24 -62h-11
l-20 17h-1l-73 62h-1l-6 -17l-24 -62h-14l-19 17h-2l-51 45l-2 1l-17 16h-2l-9 9q-1 1 -2 2.5t-2 2.5q-2 4 -4.5 8.5t-2.5 10.5v4q0 2 2 6l7 20h-1l17 42q3 8 15 20h10l-1 1h-14l89 58h26l-5 5h-14l93 61l-5 -12l18 -17l-18 -49h-15l11 -11l-3 -7l46 30h25l-5 5h-15z
M258 257h-2l3 7l-15 -10l10 -7z" />
    <glyph glyph-name="FL00ACh" unicode="&#xac;" horiz-adv-x="505" 
d="M372 126l-10 -28h135l10 28h-135zM393 186l-14 -40h135l15 40h-136zM221 305l-36 -34h375l12 34h-351zM158 245l-39 -37h418l13 37h-392zM84 194l68 65l63 60h376l-2 -5l18 -18l-19 -56h-7l4 -4l-20 -59l-23 -60l-18 -50h-157l-17 17h-7l19 56l13 37h-264l-17 17h-10z
" />
    <glyph glyph-name="FL00ADh" unicode="&#xad;" horiz-adv-x="350" 
d="M221 305l-36 -34h188l36 34h-188zM158 245l-39 -37h188l39 37h-188zM84 194l68 65l63 60h229l-5 -5l18 -18l-59 -56h-8l4 -4l-62 -59h-221l-17 17h-10z" />
    <glyph glyph-name="registered" unicode="&#xae;" horiz-adv-x="310" 
d="M256 540l-15 -18h19q2 2 4 4.5t4 4.5l12 12h-22q-1 -1 -1 -2zM447 543h-23q1 -2 2 -5t2 -7q0 -2 0.5 -4.5t0.5 -4.5h21q0 10 -3 21zM441 483h-19q-2 -6 -4.5 -12t-7.5 -12h20l6 12t5 12zM214 459h20q0 12 4 24h-19q-2 -6 -3 -12zM372 595q-21 0 -50 -10h92q-19 10 -42 10
zM231 397h41q-9 2 -16 8q-13 12 -17 19h-22q5 -18 14 -27zM403 424h-25q-8 -6 -15 -11t-15 -8q-6 -3 -11.5 -4.5t-10.5 -3.5h42q10 5 18.5 12t16.5 15zM359 483h-76l-9 -24h19l6 15h11q10 0 13 -4q4 -1 7 -11h22q-5 14 -14 18q12 0 21 6zM305 543l-8 -21h18l2 4h21
q13 0 17.5 -0.5t5 -1.5t-0.5 -1.5t2 -0.5h23q0 2 -0.5 3t-0.5 3q0 7 -10 11q-4 4 -29 4h-40zM448 557l13 -10q0 -2 0.5 -3t0.5 -3l16 -15q3 -11 3 -35h-35l4 -6l11 -11l10 -15q-4 -9 -7.5 -16.5t-6.5 -14.5h-47l13 -13l8 -19q-8 -8 -17.5 -15.5t-22.5 -14.5h-48l-17 17h-6
l-3 26q5 2 10.5 3.5t8.5 2.5q1 0 1.5 0.5t1.5 0.5h-1q10 3 21 12h-16l-15 15h-2l-6 -15h-42l-13 12v-12h-12l11 -12q6 -4 10.5 -5.5t6.5 -2.5l-1 -5l18 -17l-3 -20h-44l-8 4l-13 13l-8 4q-8 8 -13.5 21t-10.5 30h26l-7 7h-4l-13 14q1 6 3 14t7 24h22l-11 11h-9l31 37
q0 3 9 12h84l-14 14h-6l-3 26q36 12 59 12q29 0 55 -14l-1 -5l17 -17l-4 -16h9zM370 496q0 -1 -9 -1l2 -5l16 -16l6 -20q-4 -3 -8 -4l6 -12h14l-7 7h-9q15 20 21 29.5t9 16.5h-29q-5 0 -6 0.5t-4 3.5q-1 0 -1 1h-1zM409 522q6 -6 6 -14v8q0 3 -0.5 6t-0.5 4q-2 4 -3.5 9
t-8.5 19h-29q2 -1 3.5 -1.5t3.5 -1.5q14 -8 17 -18zM252 491l13 -15l6 15h-19zM415 505v-8h17l-11 11h-6v-3zM291 498l-1 -1h5l-2 2l-1 -1h-1z" />
    <glyph glyph-name="FL00AFh" unicode="&#xaf;" horiz-adv-x="494" 
d="M321 530l-9 -8h332l9 8h-332zM271 483l-26 -24h332l26 24h-332zM208 424l-28 -27h332l28 27h-332zM276 508l40 36h372l-5 -5l18 -18l-33 -30h-34l17 -17l-50 -46h-26l13 -13l-51 -49h-365l-17 17h-10l57 55h25l-7 7h-10l56 52h32l-11 11h-11z" />
    <glyph glyph-name="FL00B0h" unicode="&#xb0;" horiz-adv-x="215" 
d="M300 530q-17 0 -36 -8h65q-11 8 -29 8zM257 412q23 0 43 12h-78q12 -12 35 -12zM215 471q-3 -6 -3 -12h124l6 12l3 12h-125q-2 -4 -3 -7t-2 -5zM300 544q22 0 72 -36h-6l17 -17h-21l17 -17l-6 -26l-10 -20h-18l13 -13q-55 -34 -81 -34q-27 0 -61 32q-7 5 -13.5 11
t-14.5 14h23l-7 7h-6q0 26 4 33q1 4 3.5 9t5.5 10h62l-11 11h-6l-5 24q24 12 49 12zM195 435q2 -3 5 -5z" />
    <glyph glyph-name="FL00B1h" unicode="&#xb1;" horiz-adv-x="493" 
d="M40 7l-7 -7h331l7 7h-331zM249 186l-8 -22h135l8 22h-135zM357 483l-9 -24h135l9 24h-135zM335 424l-10 -27h135l10 27h-135zM270 245l-13 -37h135l13 37h-135zM237 364l-32 -30h331l32 30h-331zM174 305l-36 -34h331l36 34h-331zM166 126l-45 -43h331l45 43h-331z
M104 67l-50 -47h331l50 47h-331zM327 445l21 52h165l-3 -6l18 -17l-18 -46h-17l13 -13l-15 -37h112l-5 -5l18 -18l-55 -52h-15l7 -7l-59 -56h-58l4 -4l-20 -59h-1l-14 -37h127l-5 -5l18 -18l-68 -65h-1l-66 -63h-1l-20 -20h-363l-17 17h-10l35 35h1l63 60l62 59h79l-10 10
h-7l18 50l13 40h-123l-17 17h-10l65 62h13l-1 1h-10l61 58h86l-5 5h-8l22 55h16l-7 7h-8z" />
    <glyph glyph-name="FL00B4h" unicode="&#xb4;" horiz-adv-x="202" 
d="M282 522h44q-11 8 -22 8t-22 -8zM278 424h-80q-5 -14 4 -19l4 -4q2 -2 9 -2q12 0 30.5 7.5t32.5 17.5zM334 483h-95l-5 -5q-5 -5 -9 -9.5t-8 -9.5h100q12 12 16 21q0 2 1 3zM280 508l-8 24q8 5 16 8.5t16 3.5q15 0 65 -36h-6l17 -17h-42l1 -3l15 -14l5 -12l5 -5
q-7 -14 -22 -29h-57l13 -13l6 -20q-15 -11 -35 -19t-34 -8q-11 0 -16 4l-14 13q-8 1 -9 6l-5 5q-8 8 -8 21q0 1 0.5 4t5.5 17h17l-7 7h-9q8 12 13.5 19t9 11.5t6.5 7.5l5 5l9 9h63l-11 11h-5z" />
    <glyph glyph-name="FL00B5h" unicode="&#xb5;" horiz-adv-x="869" 
d="M713 272l-1 -1h1v1zM321 67v-1l4 1h-4zM757 126l12 -5l2 5h-14zM472 67l-11 -19l41 19h-30zM425 245h-41q0 -12 11 -12q7 0 28 9l1 1q0 1 1 2zM468 290q-3 -5 -5.5 -9.5t-5.5 -9.5h14l12 34h-16q1 -3 1 -15zM633 272h30l2 33h-4zM323 305h-24l-14 -34h13q8 20 25 34z
M690 300l-11 -29h18l12 34h-18q0 -2 -0.5 -3t-0.5 -2zM449 483l-28 -24h52l-18 24h-6zM558 305l-13 -34h23l15 34h-25zM783 305l-13 -34h24l14 34h-25zM725 305l14 -34h12l14 34h-40zM639 305h-36l-14 -34h23q6 8 12.5 16.5t14.5 17.5zM496 305l15 -34h15l14 34h-44z
M443 275q3 10 1 12q0 15 -12 15q-16 0 -38 -31h47q1 1 1 2t1 2zM402 305h-24l-1 -2q-1 1 -2 1t-2 1h-12q-11 -3 -24 -15q-9 -8 -17 -19h57q6 10 12 18.5t13 15.5zM214 276l-60 -5h112l15 34h-77zM214 215l-16 -7h99q-10 9 -7 37h-16l-10 -25l-25 -8l15 33h-80zM858 276l72 6
l-1 12l-15 11h-84l-17 -34h47q0 1 -1 2t-1 3zM554 483l-52 -24h231l15 24h-17l-131 -21l5 21h-51zM323 424h-20l-13 -27h555l-32 9l27 18h-460l-11 -10q-7 -4 -16 -4q-13 0 -30 14zM536 83l56 26l24 -26h23l46 43h-465l-16 -10l149 -7l-20 -26h68l66 14l4 -14h65zM761 245
l-10 -27q-16 0 -28 27h-20l-10 -27l-15 -1l10 28h-18l-9 -27l-10 5q-1 16 -6 22h-19q-9 -6 -22 -22h-20q3 5 5.5 11t6.5 11h-18l-8 -20l-26 -8l12 28h-20l-11 -31q-19 0 -32 31h-15l-11 -30l-16 -3l11 33h-21q-22 -31 -39 -31q-5 -1 -9 -1.5t-7 -0.5q-28 0 -26 18
q2 4 2.5 7.5t2.5 7.5h-59q-8 -20 13 -20q5 0 9.5 0.5t9.5 1.5l-5 -18q-1 -1 -6 -1h435l15 10l13 -6l-5 -4h92q0 15 -7 37h-109zM200 357l-4 -23h476h6h197l-15 11l61 17h6l-1 2h-652l-6 -14zM707 146l1 1l2 -1h69l17 40h-649l-4 -2l118 -33l-8 -5h454zM489 469l61 28h73
l-2 -6l10 -10l98 16h45l-4 -6l18 -17l-23 -36h120l-7 -5l18 -18l-32 -21l7 -7l-2 -9h66l5 -10l13 -13l12 -24h-21l-30 -8l4 -3h-6l1 -1h6l24 -18v-5l17 -16l2 -28l-62 -6l2 -2q1 0 5 -4h-12l4 -4q9 -33 9 -59h-76l-25 -60l-1 -2l-11 -28l-26 11l-14 14l-8 3h-16l-67 -63h-32
l-17 17h-4l-5 5l-47 -22h-31l3 -13l-78 -36l-18 17l-10 -4l24 41l-26 -5h-74l2 -15l-21 -6l-18 17l-5 -1v22h-3l3 4v7l-118 7l-18 17l-13 1l54 33l-80 23l-15 15l-14 4l40 20h46l-3 16l-26 20l-6 5l-23 18h19l-1 26l46 4l-10 30h2l-1 1h-7l9 52l71 -7l6 13h15l-5 5h-8l27 55
h30l7 -3q13 -11 22 -11q7 0 8 1l14 13h27l-7 7h-11l60 52h18l11 -16l8 -7l9 -14zM503 254q1 -3 3 -5l12 -12l2 6l-14 14h-2zM744 248v-6l1 -1l1 4z" />
    <glyph glyph-name="FL00B7h" unicode="&#xb6;" horiz-adv-x="648" 
d="M259 303l1 2h-4q2 -2 3 -2zM667 208l5 4l-13 6l-15 -10h23zM560 217l15 1l10 27h-15zM533 223l10 -5l9 27h-25q5 -6 6 -22zM333 212l16 3l11 30h-16zM426 217l26 8l8 20h-22zM466 223h20q13 16 22 22h-30q-4 -5 -6.5 -11t-5.5 -11zM121 212l25 8l10 25h-20zM647 305
l-14 -34h19l13 34h-18zM163 305l-15 -34h19l14 34h-18zM422 305l-14 -34h19l13 34h-18zM633 218l10 27h-38q12 -27 28 -27zM465 305l-15 -34h21l14 34h-20zM690 305l-14 -34h19l17 34h-22zM407 214l11 31h-43q13 -31 32 -31zM365 305l-12 -34h40l-15 34h-13zM180 271h22
q8 11 17 19q13 12 24 15h-38q-17 -14 -25 -34zM594 271l1 1v-1h26l-14 34h-16l-12 -34h15zM179 208h30q5 0 6 1l5 18q-5 -1 -9.5 -1.5t-9.5 -0.5q-21 0 -13 20h-16q-3 -28 7 -37zM547 305l-2 -33h-30l28 33h-22q-8 -9 -14.5 -17.5t-12.5 -16.5h67l11 29q0 1 0.5 2t0.5 3h-26
zM325 275q-1 -1 -1 -2t-1 -2h16q3 5 5.5 9.5t5.5 9.5q0 12 -1 15h-65q-7 -7 -13 -15.5t-12 -18.5h17q22 31 38 31q12 0 12 -15q2 -2 -1 -12zM242 230q-2 -18 26 -18q3 0 7 0.5t9 1.5q17 0 39 31h-16q-1 -1 -1 -2l-1 -1q-21 -9 -28 -9q-11 0 -11 12h-19q-2 -4 -2.5 -7.5
t-2.5 -7.5zM679 236l-4 -10l24 -11l-4 -3l18 -18l-22 -17h-63l-17 17h-6l-2 -7l-34 -2v-2l-4 2h-1l-1 1l-20 10l-14 13q-11 -9 -17 -17h-26l-5 5l-1 -2l-53 -16l-4 4q-10 2 -18 10l-2 1h-2v2l-5 6q-6 2 -10 6l-9 -23l-40 -7l-14 13q-11 -8 -19 -8q-1 0 -1.5 -0.5t-1.5 -0.5
h1q-2 -1 -7 -1h-7q-23 0 -31 8l-8 7l-4 -15q-6 -3 -9.5 -3.5t-6.5 -0.5h-30l-8 3l-16 15l-1 -3l-53 -17l-18 17l-8 -2l31 67l1 2l27 60h233l4 -9l12 -13l10 22h93l-3 -6l4 -4q2 3 4 5.5t4 4.5h101l3 -9l11 -11l8 20h97l-3 -6l18 -17l-28 -56h-47zM619 208q-6 2 -7 4l-5 -12z
M233 247v1q-2 -2 -2.5 -4t-2.5 -4h3q1 1 1 3q0 3 1 4zM199 177l-17 17h-1q0 -1 1 -1z" />
    <glyph glyph-name="FL00B9h" unicode="&#xb7;" horiz-adv-x="215" 
d="M231 341q-9 0 -17.5 -2t-16.5 -5h62q-13 7 -28 7zM188 223q33 0 59 22h-101q10 -22 42 -22zM147 282q-1 -2 -2 -4.5t-2 -6.5h126q2 2 2.5 5t2.5 6q4 7 4 19v4h-118q-9 -11 -13 -23zM231 355q21 0 41 -11l-1 -5l17 -17l-1 -3h5v-6l17 -17v-15q0 -14 -6 -24h1q-1 -1 -1 -3
v-1l-1 -1l-6 -12h-3l4 -4q-26 -21 -49 -32.5t-40 -11.5q-24 0 -42 18l-7 7q-21 12 -36 42h1q2 8 4 15t6 13q5 14 20 32h43l-1 1h-6l-5 25q23 10 46 10z" />
    <glyph glyph-name="FL00B8h" unicode="&#xb8;" horiz-adv-x="208" 
d="M-133 -112l-6 -4h261l1 4h-256zM148 -42l18 48h-119l-11 -30h-53l-24 -18h189zM-54 -52l-70 -53h250l19 53h-199zM187 20l-3 -6l18 -17l-23 -57l1 -1l-26 -71l-3 -15h-306l-17 17h-13l38 25l64 49h-1l62 46h48l12 30h149z" />
    <glyph glyph-name="FL00BBh" unicode="&#xbb;" horiz-adv-x="340" 
d="M192 407l-4 -10h15zM327 408l-4 -11h17zM231 146h3l61 40h-49zM162 186h-51l-14 -40h3zM309 305l31 -25l-13 -9h67l13 34h-98zM172 305l33 -26l-12 -8h66l12 34h-99zM272 338l-30 26h-66l-11 -30h109q-1 1 -1 2t-1 2zM407 339l-29 25h-67l-11 -30h110q-1 2 -1.5 2.5
t-1.5 2.5zM261 226l-7 -18h75l26 17q5 4 11.5 9t12.5 11h-90zM126 225l-7 -17h76l25 16q5 4 12 9.5t13 11.5h-90zM304 383l16 48l57 -48h-5l5 -5h6l34 -30l1 -3l1 -1q1 0 2 -1l23 -23h-4l17 -17h-21l7 -7l-22 -56l5 -4q-17 -17 -27.5 -26t-17.5 -14l-29 -19h-1l-94 -62h-22
l-17 17h-8l20 53l-12 -8h1l-96 -62h-21l-17 17h-7l21 62h-1l16 39l34 24h-1l33 22l-20 17l-4 3l-24 20h21l-1 1h-8l23 58h13l-5 5h-8l20 47l52 -47h-5l5 -5h8l35 -31l4 -8v-1l16 40h14l-5 5h-7zM304 290l-9 -25l21 15z" />
    <glyph glyph-name="FL00BFh" unicode="&#xbf;" horiz-adv-x="686" 
d="M681 522h72q-14 8 -33 8q-18 0 -39 -8zM747 424h-132q4 -18 21 -27h71q23 10 40 27zM137 0h442l7 7h-479q10 -7 30 -7zM770 460q5 18 5 23h-145q-8 -11 -12 -23q0 -1 -1 -1h152q1 0 1 1zM724 360h-155v-1q-2 -3 -17.5 -13.5t-46.5 -10.5h-149q-4 0 -7.5 -0.5t-8.5 -0.5
h362q15 15 22 26zM304 180l8 6h-195q-1 -1 -7 -9q-12 -18 -18 -31h197v1q0 7 3 15t8 13zM674 305h-414q-14 -8 -27 -16t-27 -18h427q11 8 21 16.5t20 17.5zM596 245h-422q-11 -9 -20.5 -18.5t-17.5 -18.5h379q39 9 81 37zM643 67h-566q2 -29 15 -47h507q21 21 44 47z
M690 126h-606q-3 -11 -5 -21.5t-2 -21.5h580q9 11 17.5 21.5t15.5 21.5zM678 508l-5 26q20 10 47 10q26 0 82 -36h-8l17 -17h-22l17 -17q0 -13 -1.5 -21t-3.5 -16q0 -7 -2 -8t-10 -1h-35l13 -13l8 -18q-21 -21 -45 -31l1 -2l13 -13l9 -17q-6 -8 -12 -15.5t-14 -15.5h-40
l7 -7l7 -19q-10 -9 -21.5 -19t-22.5 -18h-45l4 -4l6 -20q-47 -29 -84 -39h-172l-35 -26l-2 -3q-4 -4 -6 -8h369l5 -11l13 -12l9 -17q-14 -24 -37 -48h-17l6 -12q-11 -13 -23.5 -26.5t-23.5 -24.5l-20 -20h-447q-11 0 -27 6.5t-41 22.5l-11 10q-9 5 -20 13h17q-5 11 -8.5 26
t-4.5 34h1q2 31 7 51q0 1 0.5 1.5t0.5 1.5l1 1v1q0 2 1 3q8 15 14.5 26t11.5 19l1 1q0 1 1 2l1 1.5l3 4.5h-1q17 17 32.5 33.5t29.5 29.5h-3q32 23 56 39t37 23h88l-1 1h-6v28h7q1 0 2 0.5t3 0.5h156q20 0 32.5 5.5t17.5 10.5v9h86l-0.5 0.5t-0.5 1.5l-7 7h-1q-26 14 -36 55
h31l-7 7h-6v9l-7 7l-3 1q2 5 7 14t13 21h71l-11 11h-6z" />
    <glyph glyph-name="FL00C0h" unicode="&#xc0;" 
d="M585 717q-4 0 -10 -2l-15 -5h40q-7 7 -15 7zM578 586q9 0 11 2l6 4q8 3 12 10h-67q17 -16 38 -16zM574 7l1 -7h178l-1 7h-178zM519 648h100q-1 4 -1.5 7t-0.5 7h-99q-1 -4 1 -14zM636 530h-168q-8 0 -19 -8h203q-8 8 -16 8zM36 0h423q4 1 10 7h-431q0 2 -0.5 0t-1.5 -7z
M519 364l5 -30h177l-4 30h-178zM315 364l-24 -30h202l22 30h-200zM528 305l5 -34h178l-5 34h-178zM537 245l6 -37h177l-5 37h-178zM672 483h-265q-8 -8 -9 -13l-9 -11h290q-2 6 -3.5 12t-3.5 12zM269 305l-27 -34h204l25 34h-202zM546 186l6 -40h178l-6 40h-178zM222 245
l-29 -37h206l27 37h-204zM176 186l-32 -40h208l30 40h-206zM562 67l9 -47h179l-8 47h-180zM362 424l-21 -27h351l-4 27h-326zM522 67h-439l-37 -47h436q10 10 20 22t20 25zM554 113l5 -30h181l-7 43h-604l-34 -43h439q8 11 13 18t7 12zM636 544q14 0 50 -36h-4l17 -17h-18
l4 -3q1 -2 1.5 -3.5t1.5 -3.5l14 -14q3 -8 5.5 -18t5.5 -21h-8l13 -13l7 -49h-9l11 -11l7 -52h-5l7 -7l8 -56h-3l4 -4l8 -58l1 -1l8 -60h1l10 -65h-1l9 -53l1 -1l4 -29h-201l-17 17h-6l-3 20l-9 46h-5l6 -12q-8 -11 -17 -21.5t-18 -20.5h-1q-1 -2 -8 -9q-13 -12 -18 -15
t-7 -5h-426l-17 17h-4l-13 16q0 3 1 4h-6l8 11q9 27 16 27q2 0 4 -2l70 90l49 62l49 63l49 62h10l-1 1h-9l46 58h18l-5 5h-9l43 55h20l-7 7h-9l28 34q2 4 5.5 8.5t8.5 9.5h28l-11 11h-12q49 36 62 36h168zM424 177l-28 -37h142l-7 54h-1l-9 63h-1l-6 46h-8l7 -7l-41 -56h-9
l4 -4zM518 634l-12 10q-2 6 -2 8v6v18h127v-6l17 -17q0 -9 0.5 -13t1.5 -7v-16h-111l-10 8l-9 9h-2zM598 555q-12 0 -29 10.5t-37 27.5q-8 5 -14.5 10.5t-13.5 12.5h128q-1 -2 -2 -3t-2 -3l18 -17q-9 -15 -15.5 -22t-11.5 -9l-2 -2q-5 -5 -19 -5zM585 731q8 0 20.5 -9.5
t28.5 -25.5h-4l8 -9l1 -1l8 -7h-72l-17 17h-6l-5 25q1 0 3 0.5t3 0.5t2 1q24 8 30 8zM639 686l-1 1q1 0 1 -1z" />
    <glyph glyph-name="FL00C1h" unicode="&#xc1;" 
d="M621 718q-11 0 -22 -8h44q-11 8 -22 8zM520 593l3 -4q2 -2 10 -2q9 0 21.5 4t25.5 11h-65q1 -7 5 -9zM574 7l1 -7h178l-1 7h-178zM536 648h99l6.5 6.5t5.5 7.5h-99q-3 -4 -6 -7t-6 -7zM636 530h-168q-8 0 -19 -8h203q-8 8 -16 8zM36 0h423q4 1 10 7h-431q0 2 -0.5 0
t-1.5 -7zM519 364l5 -30h177l-4 30h-178zM315 364l-24 -30h202l22 30h-200zM528 305l5 -34h178l-5 34h-178zM537 245l6 -37h177l-5 37h-178zM672 483h-265q-8 -8 -9 -13l-9 -11h290q-2 6 -3.5 12t-3.5 12zM269 305l-27 -34h204l25 34h-202zM546 186l6 -40h178l-6 40h-178z
M222 245l-29 -37h206l27 37h-204zM176 186l-32 -40h208l30 40h-206zM562 67l9 -47h179l-8 47h-180zM362 424l-21 -27h351l-4 27h-326zM522 67h-439l-37 -47h436q10 10 20 22t20 25zM554 113l5 -30h181l-7 43h-604l-34 -43h439q8 11 13 18t7 12zM636 544q14 0 50 -36h-4
l17 -17h-18l4 -3q1 -2 1.5 -3.5t1.5 -3.5l14 -14q3 -8 5.5 -18t5.5 -21h-8l13 -13l7 -49h-9l11 -11l7 -52h-5l7 -7l8 -56h-3l4 -4l8 -58l1 -1l8 -60h1l10 -65h-1l9 -53l1 -1l4 -29h-201l-17 17h-6l-3 20l-9 46h-5l6 -12q-8 -11 -17 -21.5t-18 -20.5h-1q-1 -2 -8 -9
q-13 -12 -18 -15t-7 -5h-426l-17 17h-4l-13 16q0 3 1 4h-6l8 11q9 27 16 27q2 0 4 -2l70 90l49 62l49 63l49 62h10l-1 1h-9l46 58h18l-5 5h-9l43 55h20l-7 7h-9l28 34q2 4 5.5 8.5t8.5 9.5h28l-11 11h-12q49 36 62 36h168zM424 177l-28 -37h142l-7 54h-1l-9 63h-1l-6 46h-8
l7 -7l-41 -56h-9l4 -4zM534 634l-10 22l5 5q1 1 1.5 2t1.5 2l4 4t5 7h131q-1 -2 -2 -3t-2 -3l18 -17q-11 -19 -16.5 -25.5t-9.5 -10.5h-104l-17 17h-5zM512 580l-2 2q-6 4 -9 12.5t-5 21.5h91l2 -7l16 -16l5 -19q-16 -8 -31 -13t-26 -5q-13 0 -19 6l-13 12q-8 4 -9 6z
M621 732q15 0 65 -36h-6l17 -17h-112l-17 17h-12q49 36 65 36z" />
    <glyph glyph-name="FL00C2h" unicode="&#xc2;" 
d="M612 602l5 -9h82l-5 9h-82zM526 593l8 9h-90l-9 -9q-1 -1 91 0zM574 7l1 -7h178l-1 7h-178zM636 530h-168q-8 0 -19 -8h203q-8 8 -16 8zM579 648l4 4l2 -4h86l-7 14h-159l-14 -14h88zM36 0h423q4 1 10 7h-431q0 2 -0.5 0t-1.5 -7zM519 364l5 -30h177l-4 30h-178zM315 364
l-24 -30h202l22 30h-200zM528 305l5 -34h178l-5 34h-178zM537 245l6 -37h177l-5 37h-178zM672 483h-265q-8 -8 -9 -13l-9 -11h290q-2 6 -3.5 12t-3.5 12zM269 305l-27 -34h204l25 34h-202zM546 186l6 -40h178l-6 40h-178zM222 245l-29 -37h206l27 37h-204zM176 186l-32 -40
h208l30 40h-206zM562 67l9 -47h179l-8 47h-180zM362 424l-21 -27h351l-4 27h-326zM522 67h-439l-37 -47h436q10 10 20 22t20 25zM554 113l5 -30h181l-7 43h-604l-34 -43h439q8 11 13 18t7 12zM636 544q14 0 50 -36h-4l17 -17h-18l4 -3q1 -2 1.5 -3.5t1.5 -3.5l14 -14
q3 -8 5.5 -18t5.5 -21h-8l13 -13l7 -49h-9l11 -11l7 -52h-5l7 -7l8 -56h-3l4 -4l8 -58l1 -1l8 -60h1l10 -65h-1l9 -53l1 -1l4 -29h-201l-17 17h-6l-3 20l-9 46h-5l6 -12q-17 -23 -36 -42q-17 -18 -24 -22.5t-9 -6.5h-426l-17 17h-4l-13 16q0 3 1 4h-6l8 11q9 27 16 27
q2 0 4 -2l70 90l49 62l49 63l49 62h10l-1 1h-9l46 58h18l-5 5h-9l43 55h20l-7 7h-9l28 34q2 4 5.5 8.5t8.5 9.5h28l-11 11h-12q49 36 62 36h168zM484 617l-17 17h-10l42 42h174l5 -10l13 -13l18 -36h-225zM424 177l-28 -37h142l-7 54h-1l-9 63h-1l-6 46h-8l7 -7l-41 -56h-9
l4 -4zM440 565l-15 14q-10 3 -10 9q0 5 10 15l13 13h126l-4 -5l18 -18l-24 -27l-8 -4q-11 -1 -22 -1h-19h-28q-14 0 -24 0.5t-13 3.5zM608 579l-20 37h115l6 -11l12 -12l17 -31h-108l-17 17h-5z" />
    <glyph glyph-name="FL00C3h" unicode="&#xc3;" 
d="M405 593h91l9 9h-91zM582 602l5 -9h82q4 0 9 3t9 6h-105zM574 7l1 -7h178l-1 7h-178zM636 530h-168q-8 0 -19 -8h203q-8 8 -16 8zM36 0h423q4 1 10 7h-431q0 2 -0.5 0t-1.5 -7zM660 662l-11 -11l-6 11h-168l-14 -14h89l4 4l2 -4h179q5 4 8 7l7 7h-90zM519 364l5 -30h177
l-4 30h-178zM315 364l-24 -30h202l22 30h-200zM528 305l5 -34h178l-5 34h-178zM537 245l6 -37h177l-5 37h-178zM672 483h-265q-8 -8 -9 -13l-9 -11h290q-2 6 -3.5 12t-3.5 12zM269 305l-27 -34h204l25 34h-202zM546 186l6 -40h178l-6 40h-178zM222 245l-29 -37h206l27 37
h-204zM176 186l-32 -40h208l30 40h-206zM562 67l9 -47h179l-8 47h-180zM362 424l-21 -27h351l-4 27h-326zM522 67h-439l-37 -47h436q10 10 20 22t20 25zM554 113l5 -30h181l-7 43h-604l-34 -43h439q8 11 13 18t7 12zM636 544q14 0 50 -36h-4l17 -17h-18l4 -3q1 -2 1.5 -3.5
t1.5 -3.5l14 -14q3 -8 5.5 -18t5.5 -21h-8l13 -13l7 -49h-9l11 -11l7 -52h-5l7 -7l8 -56h-3l4 -4l8 -58l1 -1l8 -60h1l10 -65h-1l9 -53l1 -1l4 -29h-201l-17 17h-6l-3 20l-9 46h-5l6 -12q-17 -23 -36 -42q-17 -18 -24 -22.5t-9 -6.5h-426l-17 17h-4l-13 16q0 3 1 4h-6l8 11
q9 27 16 27q2 0 4 -2l70 90l49 62l49 63l49 62h10l-1 1h-9l46 58h18l-5 5h-9l43 55h20l-7 7h-9l28 34q2 4 5.5 8.5t8.5 9.5h28l-11 11h-12q49 36 62 36h168zM469 676h183v-2l2 2h130l-5 -5l18 -18l-17 -17t-22 -19h-304l-17 17h-10zM424 177l-28 -37h142l-7 54h-1l-9 63h-1
l-6 46h-8l7 -7l-41 -56h-9l4 -4zM398 562l-17 17h-10l37 37h131l-5 -5l18 -18l-31 -31h-123zM578 579l-20 37h169q-2 -2 -3.5 -3t-2.5 -2l18 -18q-14 -11 -29 -21t-21 -10h-89l-17 17h-5z" />
    <glyph glyph-name="FL00C4h" unicode="&#xc4;" 
d="M701 712q-5 0 -9 -0.5t-9 -1.5h34q-4 1 -7.5 1.5t-8.5 0.5zM519 712q-5 0 -9 -0.5t-9 -1.5h34q-4 1 -7.5 1.5t-8.5 0.5zM658 594q16 0 35 8h-65q10 -8 30 -8zM476 594q15 0 36 8h-66q14 -8 30 -8zM574 7l1 -7h178l-1 7h-178zM636 530h-168q-8 0 -19 -8h203q-8 8 -16 8z
M435 653q-1 -1 -1 -3q0 -1 -1 -2h127q0 -1 2 5q2 8 2 9h-125l-2 -4t-2 -5zM743 653q2 8 2 9h-125l-2 -4t-2 -5q-1 -1 -1 -3q0 -1 -1 -2h127q0 -1 2 5zM36 0h423q4 1 10 7h-431q0 2 -0.5 0t-1.5 -7zM519 364l5 -30h177l-4 30h-178zM315 364l-24 -30h202l22 30h-200zM528 305
l5 -34h178l-5 34h-178zM537 245l6 -37h177l-5 37h-178zM672 483h-265q-8 -8 -9 -13l-9 -11h290q-2 6 -3.5 12t-3.5 12zM269 305l-27 -34h204l25 34h-202zM546 186l6 -40h178l-6 40h-178zM222 245l-29 -37h206l27 37h-204zM176 186l-32 -40h208l30 40h-206zM562 67l9 -47h179
l-8 47h-180zM362 424l-21 -27h351l-4 27h-326zM522 67h-439l-37 -47h436q10 10 20 22t20 25zM554 113l5 -30h181l-7 43h-604l-34 -43h439q8 11 13 18t7 12zM636 544q14 0 50 -36h-4l17 -17h-18l4 -3q1 -2 1.5 -3.5t1.5 -3.5l14 -14q3 -8 5.5 -18t5.5 -21h-8l13 -13l7 -49h-9
l11 -11l7 -52h-5l7 -7l8 -56h-3l4 -4l8 -58l1 -1l8 -60h1l10 -65h-1l9 -53l1 -1l4 -29h-201l-17 17h-6l-3 20l-9 46h-5l6 -12q-17 -23 -36 -42q-17 -18 -24 -22.5t-9 -6.5h-426l-17 17h-4l-13 16q0 3 1 4h-6l8 11q9 27 16 27q2 0 4 -2l70 90l49 62l49 63l49 62h10l-1 1h-9
l46 58h18l-5 5h-9l43 55h20l-7 7h-9l28 34q2 4 5.5 8.5t8.5 9.5h28l-11 11h-12q49 36 62 36h168zM399 634q10 10 15.5 15t6.5 6l1 2q1 3 3 7t7 12h146v-6l17 -17v-4q3 2 7 6q1 0 1 1q2 5 2.5 8.5t7.5 11.5h146v-6l17 -17q0 -11 -1 -15.5t-2 -7.5v-2q-1 -1 -1 -3v-8h-165
l-15 14q0 -2 -1 -3t-1 -3l0.5 -1.5t0.5 -6.5h-165l-17 17h-10zM424 177l-28 -37h142l-7 54h-1l-9 63h-1l-6 46h-8l7 -7l-41 -56h-9l4 -4zM428 593l-11 10q-9 5 -20 13h122l1 -8l16 -15l4 -19q-27 -11 -44 -11q-22 0 -68 30zM619 593l-3 3q-6 4 -12 9t-13 11h110l1 -8l16 -15
l4 -19q-25 -11 -44 -11q-11 0 -25 6.5t-34 23.5zM701 726q10 0 14.5 -0.5t8.5 -1.5l-1 -6l18 -17l-2 -22h-38l-17 17h-6l-2 27q7 1 13.5 2t11.5 1zM519 726q10 0 14.5 -0.5t8.5 -1.5l-1 -6l18 -17l-2 -22h-38l-17 17h-6l-2 27q7 1 13.5 2t11.5 1z" />
    <glyph glyph-name="FL00C5h" unicode="&#xc5;" 
d="M611 712q-5 0 -9 -0.5t-9 -1.5h34q-4 1 -7.5 1.5t-8.5 0.5zM568 594q15 0 36 8h-66q14 -8 30 -8zM574 7l1 -7h178l-1 7h-178zM636 530h-168q-8 0 -19 -8h203q-8 8 -16 8zM527 653q-1 -1 -1 -3q0 -1 -1 -2h127q0 -1 2 5q2 8 2 9h-125l-2 -4t-2 -5zM36 0h423q4 1 10 7h-431
q0 2 -0.5 0t-1.5 -7zM519 364l5 -30h177l-4 30h-178zM315 364l-24 -30h202l22 30h-200zM528 305l5 -34h178l-5 34h-178zM537 245l6 -37h177l-5 37h-178zM672 483h-265q-8 -8 -9 -13l-9 -11h290q-2 6 -3.5 12t-3.5 12zM269 305l-27 -34h204l25 34h-202zM546 186l6 -40h178
l-6 40h-178zM222 245l-29 -37h206l27 37h-204zM176 186l-32 -40h208l30 40h-206zM562 67l9 -47h179l-8 47h-180zM362 424l-21 -27h351l-4 27h-326zM522 67h-439l-37 -47h436q10 10 20 22t20 25zM554 113l5 -30h181l-7 43h-604l-34 -43h439q8 11 13 18t7 12zM636 544
q14 0 50 -36h-4l17 -17h-18l4 -3q1 -2 1.5 -3.5t1.5 -3.5l14 -14q3 -8 5.5 -18t5.5 -21h-8l13 -13l7 -49h-9l11 -11l7 -52h-5l7 -7l8 -56h-3l4 -4l8 -58l1 -1l8 -60h1l10 -65h-1l9 -53l1 -1l4 -29h-201l-17 17h-6l-3 20l-9 46h-5l6 -12q-8 -11 -17 -21.5t-18 -20.5h-1
q-1 -2 -8 -9q-13 -12 -18 -15t-7 -5h-426l-17 17h-4l-13 16q0 3 1 4h-6l8 11q9 27 16 27q2 0 4 -2l70 90l49 62l49 63l49 62h10l-1 1h-9l46 58h18l-5 5h-9l43 55h20l-7 7h-9l28 34q2 4 5.5 8.5t8.5 9.5h28l-11 11h-12q49 36 62 36h168zM424 177l-28 -37h142l-7 54h-1l-9 63
h-1l-6 46h-8l7 -7l-41 -56h-9l4 -4zM491 634q10 10 15.5 15t6.5 6l1 2q1 3 3 7t7 12h146v-6l17 -17q0 -11 -1.5 -17t-3.5 -11l0.5 -1.5t0.5 -6.5h-165l-17 17h-10zM520 593l-11 10q-9 5 -20 13h122l1 -8l16 -15l4 -19q-27 -11 -44 -11q-22 0 -68 30zM611 726q10 0 14.5 -0.5
t8.5 -1.5l-1 -6l18 -17l-2 -22h-38l-17 17h-6l-2 27q7 1 13.5 2t11.5 1z" />
    <glyph glyph-name="FL00C6h" unicode="&#xc6;" horiz-adv-x="1195" 
d="M636 530h-168q-8 0 -19 -8h202q-8 8 -15 8zM36 0h423q4 1 10 7h-431q0 2 -0.5 0t-1.5 -7zM574 7l1 -7h505l2.5 1.5t6.5 5.5h-515zM1340 530h-570l-3 -8h569l2 4zM315 364l-24 -30h202l22 30h-200zM673 483h-266q-8 -8 -9 -13l-9 -11h292l-4 12zM269 305l-27 -34h204
l25 34h-202zM222 245l-29 -37h206l27 37h-204zM924 305l-35 -34h229l36 34h-230zM176 186l-32 -40h208l30 40h-206zM362 424l-21 -27h351l-4 27h-326zM701 340l-4 24h-178l5 -30h366l11 30h-192zM546 186l6 -40h269l14 40h-289zM528 305l5 -34h334l12 34h-351zM1309 483
h-556l-9 -24h546q5 6 9.5 12t9.5 12zM1259 424h-528l-10 -27h506q6 3 14 10t18 17zM537 245l6 -37h509l39 37h-229l-7 -7l2 7h-320zM522 67h-439l-37 -47h436q10 10 20 22t20 25zM1151 67h-589l9 -47h533q23 20 47 47zM554 113l5 -30h607q2 2 4 5t4 5t9 13t12 20h-1066
l-34 -43h439q8 11 13 18t7 12zM761 544h602q-1 -3 -3 -5l18 -18q-5 -8 -8.5 -15.5l-3.5 -7.5l0.5 -2t0.5 -5h-53l2 -5l13 -12l9 -18q-2 -3 -5 -6t-5 -6l-12 -16h-50l13 -13l8 -19q-23 -23 -37 -30h-324l11 -11l-14 -36h266l-5 -5l18 -18l-59 -56h-8l4 -4l-62 -59h-207
l-13 -37h364q-1 -2 -2 -3t-2 -3l18 -17q-4 -7 -9.5 -15.5t-10 -16.5t-8.5 -13.5t-5 -6.5l-2 -2q-6 -8 -9 -11h-18l6 -12q-12 -14 -26 -27t-25 -24h-1q-12 -11 -15.5 -14t-8.5 -6h-518l-17 17h-6l-3 20l-9 46h-5l6 -12q-8 -11 -17 -21.5t-18 -20.5h-1q-1 -2 -8 -9
q-13 -12 -18 -15t-7 -5h-426l-17 17h-4l-13 16q0 3 1 4h-6l8 11q9 27 16 27q2 0 4 -2l70 90l49 62l49 63l49 62h10l-1 1h-9l46 58h18l-5 5h-9l43 55h20l-7 7h-9l28 34q2 4 5.5 8.5t8.5 9.5h28l-11 11h-12q49 36 62 36h168q13 0 49 -36h-4l17 -17h-16l4 -3q1 -1 1 -3t1 -3v-1
l15 -14q2 -7 5 -15t7 -24h-10l9 -10l8 20h16l-7 7h-8l21 52h21l-11 11h-8zM424 177l-28 -37h142l-7 54h-1l-9 63h-1l-6 46h-8l7 -7l-41 -56h-9l4 -4z" />
    <glyph glyph-name="FL00C7h" unicode="&#xc7;" horiz-adv-x="663" 
d="M129 -112l-5 -4h261l1 4h-257zM349 522h462l6 8h-413q-25 0 -55 -8zM160 334h194q5 8 10 15.5t11 14.5h-201l-7.5 -15t-6.5 -15zM145 271h185q1 6 3 12.5t4 14.5q1 1 1 3q0 3 1 4h-188q-5 -18 -6 -34zM145 208h198q-5 9 -8 18.5t-5 18.5h-187v-2v-18q0 -7 2 -17zM246 -24
l-24 -18h189l16 43q2 -1 12 -1h115q2 1 8 7h-252l-11 -31h-53zM160 146h239q-11 7 -22 17.5t-20 22.5h-209q4 -22 12 -40zM209 -52l-70 -53h250l19 53h-199zM244 459h515l21 24h-508q-8 -6 -14.5 -12t-13.5 -12zM192 397h504l30 27h-514q-5 -7 -10 -13.5t-10 -13.5zM315 20
h262q23 20 45 47h-402q41 -32 95 -47zM202 83h433q8 11 16 21.5t16 21.5h-497q7 -12 14.5 -23t17.5 -20zM346 508l-3 27q30 9 61 9h439q-1 -2 -2 -3t-2 -3l18 -17q-7 -11 -13 -19.5t-8 -10.5h-29l17 -17l-41 -46h-22l13 -13l-54 -49h-312l11 -11q-16 -18 -25 -30.5
t-14 -21.5h-17l7 -7q0 -1 -0.5 -7t-0.5 -7q0 -6 -2 -10q-4 -7 -7 -32h-5l4 -4q2 -10 6 -23t14 -30q10 -10 24 -21t33 -22h257q-2 -2 -3 -5l18 -18q-7 -10 -20 -28.5t-22 -30.5q-15 -19 -31.5 -36.5t-33.5 -32.5h-1q-13 -13 -23 -20h-123l-12 -29l1 -1l-26 -71l-3 -15h-302
l-17 17h-11l13 11l6 5l20 16h2l55 42h-1l62 46h48l4 13q-43 19 -86 55l-7 7q-5 4 -10.5 7.5t-10.5 8.5h6q-20 23 -39 59h2l-1 1q-5 12 -9 26.5t-8 32.5h7l-6 5q-2 10 -2 17v21v16h13l-11 12q2 14 3.5 25t4.5 23h25l-1 1h-4l-12 18q5 14 9.5 23l8.5 17h35l-5 5h-5l-10 20
l12.5 17.5l12.5 17.5h49l-7 7h-5l-9 22q9 9 12 11q5 5 10.5 10t10.5 9h97l-11 11h-6z" />
    <glyph glyph-name="FL00C8h" unicode="&#xc8;" horiz-adv-x="657" 
d="M535 591q1 0 3.5 0.5l7.5 1.5l6 4q4 2 7 5h-55q14 -11 31 -11zM548 721h-14q-2 -1 -7 -3t-13 -4q-3 -3 -7 -4h52q-3 8 -11 11zM477 648h99q0 4 -0.5 7t-1.5 7h-99q0 -4 2 -14zM46 7l-2 -7h503l2.5 1.5t6.5 5.5h-510zM807 530h-570l-3 -8h569l2 4zM176 364l-11 -30h192
l11 30h-192zM155 305l-13 -34h192l12 34h-191zM111 186l-14 -40h191l14 40h-191zM391 305l-35 -34h229l36 34h-230zM776 483h-556l-9 -24h546q5 6 9.5 12t9.5 12zM726 424h-528l-10 -27h506q6 3 14 10t18 17zM133 245l-14 -37h400l39 37h-229l-7 -7l2 7h-191zM641 93
q2 2 9 13t12 20h-573l-15 -43h559q2 2 4 5t4 5zM618 67h-550l-17 -47h520q23 20 47 47zM809 544l10 -15l8 -8l10 -16q-2 -2 -3 -4.5l-1 -2.5l0.5 -2t0.5 -5h-53l2 -5l13 -12l9 -18q-2 -3 -5 -6t-5 -6l-12 -16h-50l13 -13l8 -19q-23 -23 -37 -30h-324l11 -11l-14 -36h266
l-5 -5l18 -18l-59 -56h-8l4 -4l-62 -59h-207l-13 -37h364q-1 -2 -2 -3t-2 -3l18 -17q-4 -7 -9.5 -15.5t-10 -16.5t-8.5 -13.5t-5 -6.5l-2 -2q-6 -8 -9 -11h-18l6 -12q-12 -14 -26 -27t-25 -24h-1q-12 -11 -15.5 -14t-8.5 -6h-521l-17 17h-7l10 35h2l22 60l20 59h1l19 54h-1
l25 63h-2l25 62h7l-1 1h-8l23 58h13l-5 5h-8l22 55h16l-7 7h-8l21 52h21l-11 11h-8l15 36h581zM476 634l-13 10q-1 3 -1.5 10t-0.5 22h127v-6l17 -17v-10q1 -3 1.5 -7.5t0.5 -18.5h-110l-11 8l-9 9h-1zM491 593l-9 9q-5 4 -10 7t-9 7h130l-5 -5l18 -18q-8 -8 -15.5 -15
t-12.5 -10l-9 -6q-1 0 -3.5 -0.5t-3.5 -0.5q-3 -1 -7 -1q-22 0 -64 33zM549 735l4 -1q7 -3 18 -21l8 -7h-1q0 1 -1 1l2 -1q8 -9 16 -27h-95l-17 17h-10q16 16 22 21.5t9 6.5l1 1q5 2 11.5 4.5t11.5 4.5q1 0 2 0.5t2 0.5h17z" />
    <glyph glyph-name="FL00C9h" unicode="&#xc9;" horiz-adv-x="657" 
d="M478 598l3 -4q2 -2 9 -2q15 0 36 10h-52q1 -3 4 -4zM601 715q-3 2 -5.5 3t-5.5 3h-22q-5 -2 -9 -5l-8 -6h54q-1 2 -2 2.5t-2 2.5zM489 648h99l6.5 6.5t6.5 7.5h-100q-3 -4 -6 -7t-6 -7zM46 7l-2 -7h503l2.5 1.5t6.5 5.5h-510zM807 530h-570l-3 -8h569l2 4zM176 364
l-11 -30h192l11 30h-192zM155 305l-13 -34h192l12 34h-191zM111 186l-14 -40h191l14 40h-191zM391 305l-35 -34h229l36 34h-230zM776 483h-556l-9 -24h546q5 6 9.5 12t9.5 12zM726 424h-528l-10 -27h506q6 3 14 10t18 17zM133 245l-14 -37h400l39 37h-229l-7 -7l2 7h-191z
M641 93q2 2 9 13t12 20h-573l-15 -43h559q2 2 4 5t4 5zM618 67h-550l-17 -47h520q23 20 47 47zM809 544l10 -15l8 -8l10 -16q-2 -2 -3 -4.5l-1 -2.5l0.5 -2t0.5 -5h-53l2 -5l13 -12l9 -18q-2 -3 -5 -6t-5 -6l-12 -16h-50l13 -13l8 -19q-23 -23 -37 -30h-324l11 -11l-14 -36
h266l-5 -5l18 -18l-59 -56h-8l4 -4l-62 -59h-207l-13 -37h364q-1 -2 -2 -3t-2 -3l18 -17q-4 -7 -9.5 -15.5t-10 -16.5t-8.5 -13.5t-5 -6.5l-2 -2q-6 -8 -9 -11h-18l6 -12q-12 -14 -26 -27t-25 -24h-1q-12 -11 -15.5 -14t-8.5 -6h-521l-17 17h-7l10 35h2l22 60l20 59h1l19 54
h-1l25 63h-2l25 62h7l-1 1h-8l23 58h13l-5 5h-8l22 55h16l-7 7h-8l21 52h21l-11 11h-8l15 36h581zM487 634l-10 22l5 5q1 1 1.5 2t1.5 2l4 4t5 7h136q-2 -2 -2.5 -3t-1.5 -2l18 -18q-15 -19 -21 -25.5t-10 -10.5h-104l-17 17h-5zM609 727l1 -3l29 -28h-4l17 -17h-111l-17 17
h-11q26 22 36 29t15 10h30q1 -1 2 -1.5t2 -1.5q0 -1 3 -1zM470 585l-4 5q-7 8 -15 26h83l1 -8l16 -15l4 -19q-27 -13 -45 -13q-12 0 -18 6l-12 12q-7 1 -10 6z" />
    <glyph glyph-name="FL00CAh" unicode="&#xca;" horiz-adv-x="657" 
d="M586 713h-62q-4 0 -10 -3h81q-5 3 -9 3zM573 602l3 -6h82l-3 6h-82zM394 596h91l6 6h-91zM537 648l7 7l4 -7h84l-7 14h-164l-14 -14h90zM46 7l-2 -7h503l2.5 1.5t6.5 5.5h-510zM807 530h-570l-3 -8h569l2 4zM176 364l-11 -30h192l11 30h-192zM155 305l-13 -34h192l12 34
h-191zM111 186l-14 -40h191l14 40h-191zM391 305l-35 -34h229l36 34h-230zM776 483h-556l-9 -24h546q5 6 9.5 12t9.5 12zM726 424h-528l-10 -27h506q6 3 14 10t18 17zM133 245l-14 -37h400l39 37h-229l-7 -7l2 7h-191zM641 93q2 2 9 13t12 20h-573l-15 -43h559q2 2 4 5t4 5z
M618 67h-550l-17 -47h520q23 20 47 47zM809 544l10 -15l8 -8l10 -16q-2 -2 -3 -4.5l-1 -2.5l0.5 -2t0.5 -5h-53l2 -5l13 -12l9 -18q-2 -3 -5 -6t-5 -6l-12 -16h-50l13 -13l8 -19q-23 -23 -37 -30h-324l11 -11l-14 -36h266l-5 -5l18 -18l-59 -56h-8l4 -4l-62 -59h-207
l-13 -37h364q-1 -2 -2 -3t-2 -3l18 -17q-4 -7 -9.5 -15.5t-10 -16.5t-8.5 -13.5t-5 -6.5l-2 -2q-6 -8 -9 -11h-18l6 -12q-12 -14 -26 -27t-25 -24h-1q-12 -11 -15.5 -14t-8.5 -6h-521l-17 17h-7l10 35h2l22 60l20 59h1l19 54h-1l25 63h-2l25 62h7l-1 1h-8l23 58h13l-5 5h-8
l22 55h16l-7 7h-8l21 52h21l-11 11h-8l15 36h581zM440 617l-17 17h-10l42 42h179l5 -10l13 -13l18 -36h-230zM387 565l-17 17h-10l34 34h131l-5 -5l18 -18l-28 -28h-123zM567 582l-17 34h114l5 -10l13 -13l14 -28h-107l-17 17h-5zM586 727q5 0 19.5 -8.5t36.5 -22.5h-8
l17 -17h-122l-17 17h-6l-5 24q13 7 23 7h62z" />
    <glyph glyph-name="FL00CBh" unicode="&#xcb;" horiz-adv-x="657" 
d="M491 712q-5 0 -9 -0.5t-9 -1.5h34q-4 1 -7.5 1.5t-8.5 0.5zM673 712q-5 0 -9 -0.5t-9 -1.5h34q-4 1 -7.5 1.5t-8.5 0.5zM630 594q16 0 35 8h-65q10 -8 30 -8zM448 594q15 0 36 8h-66q14 -8 30 -8zM715 653q2 8 2 9h-125l-2 -4t-2 -5q-1 -1 -1 -3q0 -1 -1 -2h127q0 -1 2 5
zM407 653q-1 -1 -1 -3q0 -1 -1 -2h127q0 -1 2 5q2 8 2 9h-125l-2 -4t-2 -5zM46 7l-2 -7h503l2.5 1.5t6.5 5.5h-510zM807 530h-570l-3 -8h569l2 4zM176 364l-11 -30h192l11 30h-192zM155 305l-13 -34h192l12 34h-191zM111 186l-14 -40h191l14 40h-191zM391 305l-35 -34h229
l36 34h-230zM776 483h-556l-9 -24h546q5 6 9.5 12t9.5 12zM726 424h-528l-10 -27h506q6 3 14 10t18 17zM133 245l-14 -37h400l39 37h-229l-7 -7l2 7h-191zM641 93q2 2 9 13t12 20h-573l-15 -43h559q2 2 4 5t4 5zM618 67h-550l-17 -47h520q23 20 47 47zM809 544l10 -15l8 -8
l10 -16q-2 -2 -3 -4.5l-1 -2.5l0.5 -2t0.5 -5h-53l2 -5l13 -12l9 -18q-2 -3 -5 -6t-5 -6l-12 -16h-50l13 -13l8 -19q-23 -23 -37 -30h-324l11 -11l-14 -36h266l-5 -5l18 -18l-59 -56h-8l4 -4l-62 -59h-207l-13 -37h364q-1 -2 -2 -3t-2 -3l18 -17q-4 -7 -9.5 -15.5t-10 -16.5
t-8.5 -13.5t-5 -6.5l-2 -2q-6 -8 -9 -11h-18l6 -12q-12 -14 -26 -27t-25 -24h-1q-12 -11 -15.5 -14t-8.5 -6h-521l-17 17h-7l10 35h2l22 60l20 59h1l19 54h-1l25 63h-2l25 62h7l-1 1h-8l23 58h13l-5 5h-8l22 55h16l-7 7h-8l21 52h21l-11 11h-8l15 36h581zM371 634
q10 10 15.5 15t6.5 6l1 2q1 3 3 7t7 12h146v-6l17 -17v-4q3 2 7 6q1 0 1 1q2 5 2.5 8.5t7.5 11.5h146v-6l17 -17q0 -11 -1 -15.5t-2 -7.5v-2q-1 -1 -1 -3v-8h-165l-15 14q0 -2 -1 -3t-1 -3l0.5 -1.5t0.5 -6.5h-165l-17 17h-10zM400 593l-11 10q-9 5 -20 13h122l1 -8l16 -15
l4 -19q-27 -11 -44 -11q-22 0 -68 30zM591 593l-3 3q-6 4 -12 9t-13 11h110l1 -8l16 -15l4 -19q-25 -11 -44 -11q-11 0 -25 6.5t-34 23.5zM673 726q10 0 14.5 -0.5t8.5 -1.5l-1 -6l18 -17l-2 -22h-38l-17 17h-6l-2 27q7 1 13.5 2t11.5 1zM491 726q10 0 14.5 -0.5t8.5 -1.5
l-1 -6l18 -17l-2 -22h-38l-17 17h-6l-2 27q7 1 13.5 2t11.5 1z" />
    <glyph glyph-name="FL00CCh" unicode="&#xcc;" horiz-adv-x="280" 
d="M376 718q-4 0 -28 -8h44q-6 8 -16 8zM370 587q8 0 10 2l7 4q6 2 11 9h-65q16 -15 37 -15zM44 0h192l2 7h-192zM311 648h100q-1 4 -1.5 7t-1.5 7h-99q0 -8 2 -14zM429 530h-192l-3 -8h192zM220 483l-9 -24h192l9 24h-192zM198 424l-10 -27h192l10 27h-192zM176 364
l-11 -30h192l11 30h-192zM155 305l-13 -34h192l13 34h-192zM133 245l-14 -37h192l14 37h-192zM111 186l-14 -40h192l14 40h-192zM89 126l-15 -43h192l15 43h-192zM68 67l-17 -47h192l17 47h-192zM228 544h222l-3 -6l18 -17l-12 -30h-22l17 -17l-18 -46h-17l13 -13l-19 -49
h-14l11 -11l-20 -52h-8l7 -7l-22 -56h-4l4 -4l-23 -59l-21 -62h-2l-21 -63h-1l-20 -54l-1 -3l-7 -26h-216l-17 17h-7l10 35h2l22 60l20 59h1l19 54h-1l25 63h-2l25 62h7l-1 1h-8l23 58h13l-5 5h-8l22 55h16l-7 7h-8l21 52h21l-11 11h-8zM309 634l-10 6q-3 6 -3.5 15.5
t-0.5 20.5h127v-6l17 -17q0 -14 1 -15q0 -2 2.5 -8t6.5 -13h-118l-10 6l-11 11h-1zM325 593l-4 3q-5 5 -11.5 10t-11.5 10h128q-3 -3 -4 -6l18 -17q-20 -26 -28 -30l-4 -2q-5 -5 -18 -5q-11 0 -29 10t-36 27zM376 732q16 0 45 -36h-1l2 -2q3 -3 5.5 -6.5t6.5 -7.5l1 -1h-71
l-17 17h-6l-3 25l9 3q24 8 29 8zM293 52h1l-1 1v-1z" />
    <glyph glyph-name="FL00CDh" unicode="&#xcd;" horiz-adv-x="280" 
d="M410 720q-11 0 -24 -10h48q-2 0 -2 2q-11 8 -22 8zM309 595l3 -4q2 -2 9 -2q18 0 42 13h-59q2 -4 5 -7zM44 0h192l2 7h-192zM322 648h100l6.5 6.5t6.5 7.5h-100q-3 -4 -6.5 -7t-6.5 -7zM426 522l3 8h-192l-3 -8h192zM220 483l-9 -24h192l9 24h-192zM198 424l-10 -27h192
l10 27h-192zM176 364l-11 -30h192l11 30h-192zM155 305l-13 -34h192l13 34h-192zM133 245l-14 -37h192l14 37h-192zM111 186l-14 -40h192l14 40h-192zM89 126l-15 -43h192l15 43h-192zM68 67l-17 -47h192l17 47h-192zM450 544l-3 -6l18 -17l-12 -30h-22l17 -17l-18 -46h-17
l13 -13l-19 -49h-14l11 -11l-20 -52h-8l7 -7l-22 -56h-4l4 -4l-23 -59l-21 -62h-2l-21 -63h-1l-20 -54l-1 -3l-7 -26h-216l-17 17h-7l10 35h2l22 60l20 59h1l19 54h-1l25 63h-2l25 62h7l-1 1h-8l23 58h13l-5 5h-8l22 55h16l-7 7h-8l21 52h21l-11 11h-8l15 36h222zM320 634
l-10 22l5 5q1 1 1.5 2t1.5 2l3.5 3.5t6.5 7.5h136q-2 -2 -2.5 -3t-1.5 -2l18 -18q-15 -19 -21 -25.5t-10 -10.5h-105l-17 17h-5zM301 582l-3 3q-3 2 -5 7t-8 24h85l2 -7l16 -16l5 -19q-14 -8 -28.5 -12t-23.5 -4q-12 0 -18 6l-12 12q-7 1 -10 6zM410 734q14 0 35 -15l-2 -1
l20 -20v-1l-6 3q-1 1 -3 1v-22h-82l-17 17h-11q47 38 66 38z" />
    <glyph glyph-name="FL00CEh" unicode="&#xce;" horiz-adv-x="280" 
d="M416 712h-62l-8 -2h77q-6 2 -7 2zM403 602l4 -7h82l-4 7h-82zM225 595h91l7 7h-91zM44 0h192l2 7h-192zM426 522l3 8h-192l-3 -8h192zM368 648l6 6l3 -6h85l-7 14h-162l-14 -14h89zM220 483l-9 -24h192l9 24h-192zM198 424l-10 -27h192l10 27h-192zM176 364l-11 -30h192
l11 30h-192zM155 305l-13 -34h192l13 34h-192zM133 245l-14 -37h192l14 37h-192zM111 186l-14 -40h192l14 40h-192zM89 126l-15 -43h192l15 43h-192zM68 67l-17 -47h192l17 47h-192zM450 544l-3 -6l18 -17l-12 -30h-22l17 -17l-18 -46h-17l13 -13l-19 -49h-14l11 -11
l-20 -52h-8l7 -7l-22 -56h-4l4 -4l-23 -59l-21 -62h-2l-21 -63h-1l-20 -54l-1 -3l-7 -26h-216l-17 17h-7l10 35h2l22 60l20 59h1l19 54h-1l25 63h-2l25 62h7l-1 1h-8l23 58h13l-5 5h-8l22 55h16l-7 7h-8l21 52h21l-11 11h-8l15 36h222zM272 617l-17 17h-10l42 42h177l5 -10
l13 -13l18 -36h-228zM218 564l-17 17h-10l35 35h131l-5 -5l18 -18l-29 -29h-123zM398 581l-19 35h115l6 -11l12 -12l16 -29h-108l-17 17h-5zM416 726q6 0 15 -4q-1 0 4 -3l-1 -4l18 -17l-4 -19h-82l-17 17h-6v22l-2 6q6 2 13 2h62z" />
    <glyph glyph-name="FL00CFh" unicode="&#xcf;" horiz-adv-x="280" 
d="M310 712q-5 0 -9 -0.5t-9 -1.5h34q-4 1 -7.5 1.5t-8.5 0.5zM492 712q-5 0 -9 -0.5t-9 -1.5h34q-4 1 -7.5 1.5t-8.5 0.5zM449 594q16 0 35 8h-65q10 -8 30 -8zM267 594q15 0 36 8h-66q14 -8 30 -8zM44 0h192l2 7h-192zM426 522l3 8h-192l-3 -8h192zM226 653q-1 -1 -1 -3
q0 -1 -1 -2h127q0 -1 2 5q2 8 2 9h-125l-2 -4t-2 -5zM534 653q2 8 2 9h-125l-2 -4t-2 -5q-1 -1 -1 -3q0 -1 -1 -2h127q0 -1 2 5zM220 483l-9 -24h192l9 24h-192zM198 424l-10 -27h192l10 27h-192zM176 364l-11 -30h192l11 30h-192zM155 305l-13 -34h192l13 34h-192zM133 245
l-14 -37h192l14 37h-192zM111 186l-14 -40h192l14 40h-192zM89 126l-15 -43h192l15 43h-192zM68 67l-17 -47h192l17 47h-192zM450 544l-3 -6l18 -17l-12 -30h-22l17 -17l-18 -46h-17l13 -13l-19 -49h-14l11 -11l-20 -52h-8l7 -7l-22 -56h-4l4 -4l-23 -59l-21 -62h-2l-21 -63
h-1l-20 -54l-1 -3l-7 -26h-216l-17 17h-7l10 35h2l22 60l20 59h1l19 54h-1l25 63h-2l25 62h7l-1 1h-8l23 58h13l-5 5h-8l22 55h16l-7 7h-8l21 52h21l-11 11h-8l15 36h222zM190 634q10 10 15.5 15t6.5 6l1 2q1 3 3 7t7 12h146v-6l17 -17v-4q3 2 7 6q1 0 1 1q2 5 2.5 8.5
t7.5 11.5h146v-6l17 -17q0 -11 -1 -15.5t-2 -7.5v-2q-1 -1 -1 -3v-8h-165l-15 14q0 -2 -1 -3t-1 -3l0.5 -1.5t0.5 -6.5h-165l-17 17h-10zM219 593l-11 10q-9 5 -20 13h122l1 -8l16 -15l4 -19q-27 -11 -44 -11q-22 0 -68 30zM410 593l-3 3q-6 4 -12 9t-13 11h110l1 -8l16 -15
l4 -19q-25 -11 -44 -11q-11 0 -25 6.5t-34 23.5zM492 726q10 0 14.5 -0.5t8.5 -1.5l-1 -6l18 -17l-2 -22h-38l-17 17h-6l-2 27q7 1 13.5 2t11.5 1zM310 726q10 0 14.5 -0.5t8.5 -1.5l-1 -6l18 -17l-2 -22h-38l-17 17h-6l-2 27q7 1 13.5 2t11.5 1z" />
    <glyph glyph-name="FL00D0h" unicode="&#xd0;" horiz-adv-x="805" 
d="M154 0h249q25 0 48 1.5t46 5.5h-341zM782 530h-435l-3 -8h486q-24 8 -48 8zM286 364l-11 -30h194l11 30h-194zM890 364h-203q1 -2 1 -9q0 -5 -0.5 -10.5t-1.5 -10.5h196q2 8 4 15t4 15zM870 305h-191q-2 -4 -3 -7q-4 -7 -7.5 -13.5t-8.5 -13.5h192q5 8 9.5 17zM833 243
l0.5 0.5t0.5 1.5h-194q-9 -9 -20 -18.5t-24 -18.5h210q7 8 13.5 17t13.5 18zM221 186l-14 -40h194l14 40h-194zM788 186h-226q-20 -13 -41 -23t-43 -17h273q9 9 18.5 19t18.5 21zM221 305l-36 -34h341l36 34h-341zM158 245l-39 -37h341l39 37h-341zM878 483h-548l-9 -24h568
q-2 6 -5 12zM896 424h-588l-10 -27h597q1 5 1 13v14zM657 67h-479l-17 -47h393q57 17 103 47zM731 126h-532l-15 -43h496q13 9 25.5 20t25.5 23zM880 497l10 -6q1 -3 2 -5.5t2 -4.5l14 -13q3 -6 6.5 -14t10.5 -26h-18l3 -3v-4l17 -17v-16q0 -4 -0.5 -9.5t-1.5 -12.5h-24
l3 -3q0 -1 -0.5 -1.5l-0.5 -0.5l7 -6l11 -13q-2 -13 -5 -22t-5 -17h-28l7 -7l10 -15l-10 -20t-12 -21h-17l4 -4q0 -11 -0.5 -14.5t-2.5 -5.5q-7 -9 -15 -20t-15 -19h-24l9 -18q-9 -11 -19.5 -22t-21.5 -22h-24l7 -17q-11 -11 -25 -23t-31 -23h-24l4 -14q-27 -17 -53 -29
t-53 -20h-57l1 -13q-23 -4 -47 -5.5t-51 -1.5h-264l-17 17h-7l10 35h2l22 60l20 59h1l13 37h-92l-17 17h-10l68 65l63 60h48l-1 1h-8l23 58h13l-5 5h-8l22 55h16l-7 7h-8l21 52h21l-11 11h-8l15 36h444q25 0 58 -11l-1 -5l18 -17l-3 -14h26zM516 355l-14 -36h95l-5 -5
l18 -18l-59 -56h-8l4 -4l-62 -59h-35l-13 -37h34l-2 17q20 6 42.5 17.5t45.5 25.5h4q51 37 71 57h-1q26 36 32 47q1 2 1.5 3.5t1.5 3.5l4 8h7l-1 1h-6q2 11 3 20.5t1 14.5v3l-2 8h-167z" />
    <glyph glyph-name="FL00D1h" unicode="&#xd1;" horiz-adv-x="686" 
d="M364 593h91l9 9h-91zM541 602l5 -9h82q4 0 9 3t9 6h-105zM44 0h192l2 7h-192zM832 522l3 8h-190l-3 -8h190zM399 7l1 -7h242l2 7h-245zM479 530h-242l-3 -8h246zM619 662l-11 -11l-6 11h-168l-14 -14h89l4 4l2 -4h179q5 4 8 7l7 7h-90zM628 483l-9 -24h190l9 24h-190z
M606 424l-10 -27h190l10 27h-190zM584 364l-11 -30h190l11 30h-190zM563 305l-13 -34h190l13 34h-190zM220 483l-9 -24h281l-4 24h-268zM133 245l-14 -37h192l14 37h-192zM111 186l-14 -40h192l14 40h-192zM89 126l-15 -43h192l15 43h-192zM198 424l-10 -27h316l-5 27h-301z
M68 67l-17 -47h192l17 47h-192zM176 364l-11 -30h351l-6 30h-334zM387 67l9 -47h253l17 47h-279zM334 271l10 27l5 -27h179l-6 34h-367l-13 -34h192zM376 126l8 -43h288l15 43h-311zM365 186l7 -40h323l14 40h-344zM536 232l-3 13h-179l7 -37h356l14 37h-190zM699 52
l-20 -54l-1 -3l-7 -26h-261l-17 17h-6l-3 20l-12 63l-2 12l-10 51l-11 62l-1 6l-1 1l-9 -24l-21 -62h-2l-21 -63l-1 1v-1l-20 -54l-1 -3l-7 -26h-216l-17 17h-7l10 35h2l22 60l20 59h1l19 54h-1l25 63h-2l25 62h7l-1 1h-8l23 58h13l-5 5h-8l22 55h16l-7 7h-8l21 52h21
l-11 11h-8l15 36h264v-7l17 -16l3 -30h-11v-1l16 -16l8 -46h-10l13 -13l9 -49h-9l11 -11l10 -48l5 12h7l-1 1h-8l23 58h13l-5 5h-8l22 55h16l-7 7h-8l21 52h21l-11 11h-8l15 36h220l-3 -6l18 -17l-12 -30h-22l17 -17l-18 -46h-17l13 -13l-19 -49h-14l11 -11l-20 -52h-8l7 -7
l-22 -56h-4l4 -4l-23 -59l-21 -62h-2l-21 -63l-1 1v-1zM428 676h183v-2l2 2h130l-5 -5l18 -18l-17 -17t-22 -19h-304l-17 17h-10zM357 562l-17 17h-10l37 37h131l-5 -5l18 -18l-31 -31h-123zM537 579l-20 37h169q-2 -2 -3.5 -3t-2.5 -2l18 -18q-14 -11 -29 -21t-21 -10h-89
l-17 17h-5zM544 303l2 -3l1 3h-3z" />
    <glyph glyph-name="FL00D2h" unicode="&#xd2;" horiz-adv-x="753" 
d="M613 720q-4 0 -28 -8q-2 -2 -4 -2h49q-7 10 -17 10zM606 589q9 0 11 2l7 4q4 1 8 7h-60q16 -13 34 -13zM548 648h99q0 4 -0.5 7t-1.5 7h-99q0 -4 2 -14zM385 0h100q32 0 59 7h-251q21 -4 44 -5.5t48 -1.5zM573 530h-132q-26 0 -56 -8h276q-22 4 -43.5 6t-44.5 2zM623 334
h194q1 8 0.5 15t-1.5 15h-204q8 -17 11 -30zM393 364h-211q-11 -15 -18 -30h196q15 16 33 30zM335 298q1 2 2 3.5t2 3.5h-189q-8 -21 -12 -34h186q1 9 11 27zM813 287q1 5 1.5 9t0.5 9h-190q-1 -5 -1 -9v-8q0 -10 -1 -15l-0.5 -0.5t-0.5 -1.5h188q1 4 1.5 7.5t1.5 8.5z
M320 245h-188v-2q-2 -9 -2.5 -18t-1.5 -17h198q-6 18 -6 37zM606 232l-8 -12t-9 -12h198q10 21 15 37h-189q-2 -3 -3.5 -6.5t-3.5 -6.5zM509 146h239q17 22 27 40h-208q-30 -27 -58 -40zM336 186h-208q0 -24 4 -40h240q-22 13 -36 40zM754 483h-453l-33 -24h511
q-5 7 -11.5 13t-13.5 11zM801 424h-571q-14 -14 -24 -27h605q-2 7 -4.5 13.5t-5.5 13.5zM242 20h342q23 8 43.5 19.5t39.5 27.5h-499q26 -30 74 -47zM156 83h531q12 10 23 20.5t21 22.5h-595q4 -12 8.5 -23t11.5 -20zM573 544q26 0 49.5 -2t45.5 -6l-1 -6l18 -17l-2 -16h72
l5 -2q10 -8 21 -19.5t24 -27.5q5 -5 8.5 -10t8.5 -10h-8l3 -6l14 -14q3 -7 6.5 -18.5t8.5 -23.5h-11l11 -11q1 -5 1.5 -9.5t0.5 -8.5v-14v-20h-9l7 -7q0 -14 -0.5 -20t-1.5 -11t-2.5 -13t-2.5 -12h-6l4 -4q-5 -18 -11 -32.5t-12 -26.5q-12 -22 -22 -36.5t-18 -25.5h-1
q-18 -23 -33 -38t-28 -25q-59 -46 -107 -63h-37l2 -12q-17 -5 -33 -6.5t-32 -1.5h-100q-26 0 -50.5 1.5t-45.5 5.5l-13 13h-34l-3 1q-19 7 -37.5 18t-37.5 29q-12 9 -23.5 20t-22.5 24h3q-5 9 -10.5 22t-10.5 29h-1q-2 11 -3.5 26.5t-1.5 41.5v14q1 8 2 16.5t2 14.5v14h1
q4 14 9 28.5t13 31.5h9l-1 1h-8q8 17 17 31.5t17 26.5h16l-5 5h-9q14 19 25.5 32t21.5 23h20l-7 7h-12l72 52h99l-11 11h-6l-3 26q30 10 65 10h132zM622 320l-13 11q-1 6 -5 15t-10 20h-192l11 -11l7 -20q-11 -8 -20 -16t-16 -16h-12l7 -7q-8 -11 -10 -15.5t-4 -7.5
q-8 -14 -12 -33h-17l15 -15q0 -21 10 -48h-1q8 -8 19.5 -17.5t27.5 -19.5h97l-4 18q16 8 31.5 18.5t29.5 23.5h3q14 15 19.5 23.5t10.5 16.5h1l2 4q0 1 1 2v3q0 2 0.5 5.5t0.5 4.5h9q0 17 1 19q1 3 1 11v12q0 5 0.5 10.5t0.5 7.5h14l-1 1h-2zM547 634l-13 10q-1 3 -1.5 10
t-0.5 22h127v-6l17 -17v-10q1 -3 1.5 -7.5t0.5 -18.5h-110l-11 8l-9 9h-1zM560 593l-6 5q-5 4 -11 8.5t-11 9.5h125q-1 -3 -3 -5l18 -18q-6 -9 -12.5 -17t-11.5 -11h1l-4 -2q-5 -5 -19 -5q-10 0 -28 9t-38 26zM613 734q11 0 20.5 -9t19.5 -24l1 -1q4 -4 8 -9t8 -12h-69
l-17 17h-6v22h-1l-1 5q2 1 4 1.5t4 1.5q24 8 29 8zM167 53l7 -7zM792 461q0 1 -1 1z" />
    <glyph glyph-name="FL00D3h" unicode="&#xd3;" horiz-adv-x="753" 
d="M643 720q-11 0 -24 -10h48q-2 0 -2 2q-11 8 -22 8zM542 595l3 -4q2 -2 9 -2q18 0 42 13h-59q2 -4 5 -7zM555 648h100l6.5 6.5t6.5 7.5h-100q-3 -4 -6.5 -7t-6.5 -7zM385 0h100q32 0 59 7h-251q21 -4 44 -5.5t48 -1.5zM573 530h-132q-26 0 -56 -8h276q-22 4 -43.5 6
t-44.5 2zM623 334h194q1 8 0.5 15t-1.5 15h-204q8 -17 11 -30zM393 364h-211q-11 -15 -18 -30h196q15 16 33 30zM335 298q1 2 2 3.5t2 3.5h-189q-8 -21 -12 -34h186q1 9 11 27zM813 287q1 5 1.5 9t0.5 9h-190q-1 -5 -1 -9v-8q0 -10 -1 -15l-0.5 -0.5t-0.5 -1.5h188
q1 4 1.5 7.5t1.5 8.5zM320 245h-188v-2q-2 -9 -2.5 -18t-1.5 -17h198q-6 18 -6 37zM606 232l-8 -12t-9 -12h198q10 21 15 37h-189q-2 -3 -3.5 -6.5t-3.5 -6.5zM509 146h239q17 22 27 40h-208q-30 -27 -58 -40zM336 186h-208q0 -24 4 -40h240q-22 13 -36 40zM754 483h-453
l-33 -24h511q-5 7 -11.5 13t-13.5 11zM801 424h-571q-14 -14 -24 -27h605q-2 7 -4.5 13.5t-5.5 13.5zM242 20h342q23 8 43.5 19.5t39.5 27.5h-499q26 -30 74 -47zM156 83h531q12 10 23 20.5t21 22.5h-595q4 -12 8.5 -23t11.5 -20zM755 497l5 -2q10 -8 21 -19.5t24 -27.5
q5 -5 8.5 -10t8.5 -10h-8l3 -6l14 -14q3 -7 6.5 -18.5t8.5 -23.5h-11l11 -11q1 -5 1.5 -9.5t0.5 -8.5v-14v-20h-9l7 -7q0 -14 -0.5 -20t-1.5 -11t-2.5 -13t-2.5 -12h-6l4 -4q-5 -18 -11 -32.5t-12 -26.5q-12 -22 -22 -36.5t-18 -25.5h-1q-18 -23 -33 -38t-28 -25
q-59 -46 -107 -63h-37l2 -12q-17 -5 -33 -6.5t-32 -1.5h-100q-26 0 -50.5 1.5t-45.5 5.5l-13 13h-34l-3 1q-19 7 -37.5 18t-37.5 29q-12 9 -23.5 20t-22.5 24h3q-5 9 -10.5 22t-10.5 29h-1q-2 11 -3.5 26.5t-1.5 41.5v14q1 8 2 17.5t2 15.5v12h1q4 14 9 28.5t13 31.5h9l-1 1
h-8q8 17 17 31.5t17 26.5h16l-5 5h-9q14 19 25.5 32t21.5 23h20l-7 7h-12l72 52h99l-11 11h-6l-3 26q30 10 65 10h132q26 0 49.5 -2t45.5 -6l-1 -6l18 -17l-2 -16h72zM622 320l-13 11q-1 6 -5 15t-10 20h-192l11 -11l7 -20q-11 -8 -20 -16t-16 -16h-12l7 -7
q-8 -11 -10 -15.5t-4 -7.5q-8 -14 -12 -33h-17l15 -15q0 -21 10 -48h-1q8 -8 19.5 -17.5t27.5 -19.5h97l-4 18q16 8 31.5 18.5t29.5 23.5h3q14 15 19.5 23.5t10.5 16.5h1l2 4q0 1 1 2v3q0 2 0.5 5.5t0.5 4.5h9q0 17 1 19q1 3 1 11v12q0 5 0.5 10.5t0.5 7.5h14l-1 1h-2z
M553 634l-10 22l5 5q1 1 1.5 2t1.5 2l3.5 3.5t6.5 7.5h136q-2 -2 -2.5 -3t-1.5 -2l18 -18q-15 -19 -21 -25.5t-10 -10.5h-105l-17 17h-5zM534 582l-3 3q-3 2 -5 7t-8 24h85l2 -7l16 -16l5 -19q-14 -8 -28.5 -12t-23.5 -4q-12 0 -18 6l-4 3v1l-8 8q-7 1 -10 6zM643 734
q14 0 35 -15l-2 -1l20 -20v-1l-6 3q-1 1 -3 1v-22h-82l-17 17h-11q47 38 66 38zM167 53l7 -7z" />
    <glyph glyph-name="FL00D4h" unicode="&#xd4;" horiz-adv-x="753" 
d="M638 711h-62q-2 0 -2.5 -0.5t-2.5 -0.5h72q-2 0 -3 0.5t-2 0.5zM623 602l5 -8h82l-4 8h-83zM446 594h91l8 8h-91zM385 0h100q32 0 59 7h-251q21 -4 44 -5.5t48 -1.5zM573 530h-132q-26 0 -56 -8h276q-22 4 -43.5 6t-44.5 2zM591 648l5 5l2 -5h85l-7 14h-161l-14 -14h90z
M623 334h194q1 8 0.5 15t-1.5 15h-204q8 -17 11 -30zM393 364h-211q-11 -15 -18 -30h196q15 16 33 30zM335 298q1 2 2 3.5t2 3.5h-189q-8 -21 -12 -34h186q1 9 11 27zM813 287q1 5 1.5 9t0.5 9h-190q-1 -5 -1 -9v-8q0 -10 -1 -15l-0.5 -0.5t-0.5 -1.5h188q1 4 1.5 7.5
t1.5 8.5zM320 245h-188v-2q-2 -9 -2.5 -18t-1.5 -17h198q-6 18 -6 37zM606 232l-8 -12t-9 -12h198q10 21 15 37h-189q-2 -3 -3.5 -6.5t-3.5 -6.5zM509 146h239q17 22 27 40h-208q-30 -27 -58 -40zM336 186h-208q0 -24 4 -40h240q-22 13 -36 40zM754 483h-453l-33 -24h511
q-5 7 -11.5 13t-13.5 11zM801 424h-571q-14 -14 -24 -27h605q-2 7 -4.5 13.5t-5.5 13.5zM242 20h342q23 8 43.5 19.5t39.5 27.5h-499q26 -30 74 -47zM156 83h531q12 10 23 20.5t21 22.5h-595q4 -12 8.5 -23t11.5 -20zM573 544q26 0 49.5 -2t45.5 -6l-1 -6l18 -17l-2 -16h72
l5 -2q10 -8 21 -19.5t24 -27.5q5 -5 8.5 -10t8.5 -10h-8l3 -6l14 -14q3 -7 6.5 -18.5t8.5 -23.5h-11l11 -11q1 -5 1.5 -9.5t0.5 -8.5v-14v-20h-9l7 -7q0 -14 -0.5 -20t-1.5 -11t-2.5 -13t-2.5 -12h-6l4 -4q-5 -18 -11 -32.5t-12 -26.5q-12 -22 -22 -36.5t-18 -25.5h-1
q-18 -23 -33 -38t-28 -25q-59 -46 -107 -63h-37l2 -12q-17 -5 -33 -6.5t-32 -1.5h-100q-26 0 -50.5 1.5t-45.5 5.5l-13 13h-34l-3 1q-19 7 -37.5 18t-37.5 29q-12 9 -23.5 20t-22.5 24h3q-5 9 -10.5 22t-10.5 29h-1q-2 11 -3.5 26.5t-1.5 41.5v14q1 8 2 17.5t2 15.5v12h1
q4 14 9 28.5t13 31.5h9l-1 1h-8q8 17 17 31.5t17 26.5h16l-5 5h-9q14 19 25.5 32t21.5 23h20l-7 7h-12l72 52h99l-11 11h-6l-3 26q30 10 65 10h132zM622 320l-13 11q-1 6 -5 15t-10 20h-192l11 -11l7 -20q-11 -8 -20 -16t-16 -16h-12l7 -7q-8 -11 -10 -15.5t-4 -7.5
q-8 -14 -12 -33h-17l15 -15q0 -21 10 -48h-1q8 -8 19.5 -17.5t27.5 -19.5h97l-4 18q16 8 31.5 18.5t29.5 23.5h3q14 15 19.5 23.5t10.5 16.5h1l2 4q0 1 1 2v3q0 2 0.5 5.5t0.5 4.5h9q0 17 1 19q1 3 1 11v12q0 5 0.5 10.5t0.5 7.5h14l-1 1h-2zM494 617l-17 17h-10l42 42h176
l5 -10l13 -13l18 -36h-227zM439 563l-17 17h-10l36 36h131l-5 -5l18 -18l-30 -30h-123zM620 580l-23 36h118l5 -10l13 -13l15 -30h-106l-17 17h-5zM643 725v-1h3v-6l17 -17v-22h-72l-17 17h-6v28h5q1 1 3 1h67zM167 53l9 -9l-10 11q0 -1 1 -2z" />
    <glyph glyph-name="FL00D5h" unicode="&#xd5;" horiz-adv-x="753" 
d="M400 593h91l9 9h-91zM577 602l5 -9h82q4 0 9 3t9 6h-105zM385 0h100q32 0 59 7h-251q21 -4 44 -5.5t48 -1.5zM573 530h-132q-26 0 -56 -8h276q-22 4 -43.5 6t-44.5 2zM655 662l-11 -11l-6 11h-168l-14 -14h89l4 4l2 -4h179q5 4 8 7l7 7h-90zM816 364h-204q8 -17 11 -30
h194q1 8 0.5 15t-1.5 15zM164 334h196q15 16 33 30h-211q-11 -15 -18 -30zM138 271h186q1 9 11 27q1 2 2 3.5t2 3.5h-189q-8 -21 -12 -34zM813 287q1 5 1.5 9t0.5 9h-190q-1 -5 -1 -9v-8q0 -10 -1 -15l-0.5 -0.5t-0.5 -1.5h188q1 4 1.5 7.5t1.5 8.5zM128 208h198
q-6 18 -6 37h-188v-2q-2 -9 -2.5 -18t-1.5 -17zM802 245h-189q-2 -3 -3.5 -6.5t-3.5 -6.5l-8 -12t-9 -12h198q10 21 15 37zM775 186h-208q-30 -27 -58 -40h239q17 22 27 40zM132 146h240q-22 13 -36 40h-208q0 -24 4 -40zM754 483h-453l-33 -24h511q-5 7 -11.5 13t-13.5 11z
M801 424h-571q-14 -14 -24 -27h605q-2 7 -4.5 13.5t-5.5 13.5zM242 20h342q23 8 43.5 19.5t39.5 27.5h-499q26 -30 74 -47zM156 83h531q12 10 23 20.5t21 22.5h-595q4 -12 8.5 -23t11.5 -20zM573 544q26 0 49.5 -2t45.5 -6l-1 -6l18 -17l-2 -16h72l5 -2q10 -8 21 -19.5
t24 -27.5q5 -5 8.5 -10t8.5 -10h-8l3 -6l14 -14q3 -7 6.5 -18.5t8.5 -23.5h-16v-4l17 -16q1 -3 1 -11v-12v-20h-9l7 -7q0 -14 -0.5 -20t-1.5 -11t-2.5 -13t-2.5 -12h-21l4 -4l11 -14q-3 -10 -8 -21t-11 -24h-19l10 -16q-8 -13 -15.5 -24t-15.5 -22h-1q-18 -23 -33 -38
t-28 -25q-59 -46 -107 -63h-37l2 -12q-17 -5 -33 -6.5t-32 -1.5h-100q-26 0 -50.5 1.5t-45.5 5.5l-13 13h-34l-3 1q-19 7 -37.5 18t-37.5 29q-12 9 -23.5 20t-22.5 24h3q-6 11 -11.5 26t-11.5 33h3l-3 3q-2 9 -3 21.5t-1 35.5v14q1 8 2 17.5t2 15.5v12h17l-11 15q2 7 6 18
t11 27h27l-1 1h-5l-12 18q4 8 10.5 18t14.5 22h16l-5 5h-9q14 19 25.5 32t21.5 23h20l-7 7h-12l72 52h99l-11 11h-6l-3 26q30 10 65 10h132zM360 180l3 -3v-2q21 -20 45 -35h91l-3 16q17 8 34 19.5t31 24.5h3q13 15 18 22.5t10 14.5q4 4 5 7q0 1 1 2v3q0 2 0.5 5.5t0.5 4.5
h9q0 17 1 19q1 3 1 11v12q0 5 0.5 10.5t0.5 7.5h7l-1 1h-6q-2 10 -6 21t-11 25h-158l11 -11q-51 -39 -63 -52h-12l7 -7q-8 -11 -10 -15.5t-4 -7.5q-8 -14 -12 -33h-6l4 -4q0 -13 2 -27.5t7 -28.5zM464 676h183v-2l2 2h130l-5 -5l18 -18l-17 -17t-22 -19h-304l-17 17h-10z
M393 562l-17 17h-10l37 37h131l-5 -5l18 -18l-31 -31h-123zM573 579l-20 37h169q-2 -2 -3.5 -3t-2.5 -2l18 -18q-14 -11 -29 -21t-21 -10h-89l-17 17h-5zM167 53l7 -7zM792 461q0 1 -1 1z" />
    <glyph glyph-name="FL00D6h" unicode="&#xd6;" horiz-adv-x="753" 
d="M719 712q-5 0 -9 -0.5t-9 -1.5h34q-4 1 -7.5 1.5t-8.5 0.5zM537 712q-5 0 -9 -0.5t-9 -1.5h34q-4 1 -7.5 1.5t-8.5 0.5zM676 594q16 0 35 8h-65q14 -8 30 -8zM494 594q15 0 36 8h-66q14 -8 30 -8zM385 0h100q32 0 59 7h-251q21 -4 44 -5.5t48 -1.5zM453 653q-1 -1 -1 -3
q0 -1 -1 -2h127q0 -1 2 5q2 8 2 9h-125l-2 -4t-2 -5zM761 653q2 8 2 9h-125l-2 -4t-2 -5q-1 -1 -1 -3q0 -1 -1 -2h127q0 -1 2 5zM573 530h-132q-26 0 -56 -8h276q-22 4 -43.5 6t-44.5 2zM623 334h194q1 8 0.5 15t-1.5 15h-204q8 -17 11 -30zM393 364h-211q-11 -15 -18 -30
h196q15 16 33 30zM335 298q1 2 2 3.5t2 3.5h-189q-8 -21 -12 -34h186q1 9 11 27zM813 287q1 5 1.5 9t0.5 9h-190q-1 -5 -1 -9v-8q0 -10 -1 -15l-0.5 -0.5t-0.5 -1.5h188q1 4 1.5 7.5t1.5 8.5zM320 245h-188v-2q-2 -9 -2.5 -18t-1.5 -17h198q-6 18 -6 37zM606 232l-8 -12
t-9 -12h198q10 21 15 37h-189q-2 -3 -3.5 -6.5t-3.5 -6.5zM509 146h239q17 22 27 40h-208q-30 -27 -58 -40zM336 186h-208q0 -24 4 -40h240q-22 13 -36 40zM754 483h-453l-33 -24h511q-5 7 -11.5 13t-13.5 11zM801 424h-571q-14 -14 -24 -27h605q-2 7 -4.5 13.5t-5.5 13.5z
M242 20h342q23 8 43.5 19.5t39.5 27.5h-499q26 -30 74 -47zM156 83h531q12 10 23 20.5t21 22.5h-595q4 -12 8.5 -23t11.5 -20zM573 544q26 0 49.5 -2t45.5 -6l-1 -6l18 -17l-2 -16h72l5 -2q10 -8 21 -19.5t24 -27.5q5 -5 8.5 -10t8.5 -10h-8l3 -6l14 -14q3 -7 6.5 -18.5
t8.5 -23.5h-11l11 -11q1 -5 1.5 -9.5t0.5 -8.5v-14v-20h-9l7 -7q0 -14 -0.5 -20t-1.5 -11t-2.5 -13t-2.5 -12h-6l4 -4q-5 -18 -11 -32.5t-12 -26.5q-12 -22 -22 -36.5t-18 -25.5h-1q-18 -23 -33 -38t-28 -25q-59 -46 -107 -63h-37l2 -12q-17 -5 -33 -6.5t-32 -1.5h-100
q-26 0 -50.5 1.5t-45.5 5.5l-13 13h-34l-3 1q-19 7 -37.5 18t-37.5 29q-12 9 -23.5 20t-22.5 24h3q-5 9 -10.5 22t-10.5 29h-1q-2 11 -3.5 26.5t-1.5 41.5v14q1 8 2 16.5t2 14.5v14h1q4 14 9 28.5t13 31.5h9l-1 1h-8q8 17 17 31.5t17 26.5h16l-5 5h-9q14 19 25.5 32t21.5 23
h20l-7 7h-12l72 52h99l-11 11h-6l-3 26q30 10 65 10h132zM622 320l-13 11q-1 6 -5 15t-10 20h-192l11 -11l7 -20q-11 -8 -20 -16t-16 -16h-12l7 -7q-8 -11 -10 -15.5t-4 -7.5q-8 -14 -12 -33h-17l15 -15q0 -21 10 -48h-1q8 -8 19.5 -17.5t27.5 -19.5h97l-4 18
q16 8 31.5 18.5t29.5 23.5h3q14 15 19.5 23.5t10.5 16.5h1l2 4q0 1 1 2v3q0 2 0.5 5.5t0.5 4.5h9q0 17 1 19q1 3 1 11v12q0 5 0.5 10.5t0.5 7.5h14l-1 1h-2zM417 634q10 10 15.5 15t6.5 6l1 2q1 3 3 7t7 12h146v-6l17 -17v-4q3 2 7 6q1 0 1 1q2 5 2.5 8.5t7.5 11.5h146v-6
l17 -17q0 -11 -1 -15.5t-2 -7.5v-2q-1 -1 -1 -3v-8h-165l-15 14q0 -2 -1 -3t-1 -3l0.5 -1.5t0.5 -6.5h-165l-17 17h-10zM628 593l-11 10q-9 5 -20 13h122l1 -8l16 -15l4 -19q-25 -11 -44 -11q-22 0 -68 30zM446 593l-11 10q-9 5 -20 13h122l1 -8l16 -15l4 -19
q-27 -11 -44 -11q-22 0 -68 30zM719 726q10 0 14.5 -0.5t8.5 -1.5l-1 -6l18 -17l-2 -22h-38l-17 17h-6l-2 27q7 1 13.5 2t11.5 1zM537 726q10 0 14.5 -0.5t8.5 -1.5l-1 -6l18 -17l-2 -22h-38l-17 17h-6l-2 27q7 1 13.5 2t11.5 1zM167 53l9 -9l-10 11q0 -1 1 -2zM792 461
q0 1 -1 1z" />
    <glyph glyph-name="FL00D7h" unicode="&#xd7;" horiz-adv-x="431" 
d="M417 398l-1 -1h124l1 1h-124zM304 398h-124v-1h124v1zM442 125l-1 1h-124l1 -1h124zM79 125h124l1 1h-124zM375 364l-37 -30h124l37 30h-124zM338 334l-16 30h-125l15 -30h126zM287 186l20 -40h124l-20 40h-124zM154 186l-50 -40h125l51 40h-126zM226 305l17 -34h141
l42 34h-200zM227 245l-46 -37h219l-19 37h-154zM166 412h152v-6l17 -17v-19l1 -2l9 -10l24 20h28l-5 5h-10l29 29h164l-5 -5l18 -18l-23 -23h-25l11 -11l-64 -52h-16l7 -7l-69 -56h-5l4 -4l30 -59l28 -56l10 -10h-4l17 -17h-156l-17 17h-4l-28 28l-31 -24h-4l-21 -21h-156
l-17 17h-10l21 21h-2l10 8l74 60l73 59h12l-30 60h6l-1 1h-5l-29 58h3l-5 5h-6v29zM294 140l-3 5l-6 -5h9z" />
    <glyph glyph-name="FL00D8h" unicode="&#xd8;" horiz-adv-x="753" 
d="M385 0h100q32 0 59 7h-251q21 -4 44 -5.5t48 -1.5zM573 530h-132q-26 0 -56 -8h276q-22 4 -43.5 6t-44.5 2zM456 305l-48 -34h137l47 34h-136zM164 334h196q15 16 33 30h-211q-11 -15 -18 -30zM138 271h186q1 9 11 27q1 2 2 3.5t2 3.5h-189q-8 -21 -12 -34zM623 273
l-0.5 -0.5t-0.5 -1.5h188q2 7 3.5 16.5t1.5 17.5h-191q1 -8 0.5 -16t-1.5 -16zM802 245h-189q-2 -3 -3.5 -6.5t-3.5 -6.5l-8 -12t-9 -12h198q10 21 15 37zM775 186h-208q-30 -27 -58 -40h239q17 22 27 40zM816 364h-276l-43 -30h320q1 8 0.5 15t-1.5 15zM132 146h240h-1v1
l54 39h-297q0 -24 4 -40zM754 483h-453l-33 -24h511q-5 7 -11.5 13t-13.5 11zM128 208h328l52 37h-137l-47 -33q-5 20 -5 33h-187v-2q-2 -9 -2.5 -18t-1.5 -17zM801 424h-571q-14 -14 -24 -27h605q-2 7 -4.5 13.5t-5.5 13.5zM242 20h342q23 8 43.5 19.5t39.5 27.5h-499
q26 -30 74 -47zM156 83h531q12 10 23 20.5t21 22.5h-595q4 -12 8.5 -23t11.5 -20zM573 544q26 0 49.5 -2t45.5 -6l-1 -6l18 -17l-2 -16h72l5 -2q10 -8 21 -19.5t24 -27.5q5 -5 8.5 -10t8.5 -10h-8l3 -6l14 -14q3 -7 6.5 -18.5t8.5 -23.5h-16v-4l17 -16q1 -3 1 -11v-12v-20
h-9l7 -7q0 -14 -0.5 -20t-1.5 -11t-2.5 -13t-2.5 -12h-21l4 -4l11 -14q-3 -10 -8 -21t-11 -24h-19l10 -16q-8 -13 -15.5 -24t-15.5 -22h-1q-18 -23 -33 -38t-28 -25q-59 -46 -107 -63h-37l2 -12q-17 -5 -33 -6.5t-32 -1.5h-100q-26 0 -50.5 1.5t-45.5 5.5l-13 13h-34l-3 1
q-19 7 -37.5 18t-37.5 29q-12 9 -23.5 20t-22.5 24h3q-6 11 -11.5 26t-11.5 33h3l-3 3q-2 9 -3 21.5t-1 35.5v14q1 8 2 17.5t2 15.5v12h17l-11 15q2 7 6 18t11 27h27l-1 1h-5l-12 18q4 8 10.5 18t14.5 22h16l-5 5h-9q14 19 25.5 32t21.5 23h20l-7 7h-12l72 52h99l-11 11h-6
l-3 26q30 10 65 10h132zM479 177l-52 -37h72l-3 16q17 8 34 19.5t31 24.5h3q13 15 18 22.5t10 14.5q4 4 5 7q0 1 1 2v3q0 2 0.5 5.5t0.5 4.5h9v10l-40 -29h-10l4 -4zM365 273q-6 -10 -10 -23l12 9h1l84 60h14l-1 1h-12l66 46h-83l11 -11q-51 -39 -63 -52h-12l7 -7
q-8 -11 -10 -15.5t-4 -7.5zM167 53l9 -9l-10 11q0 -1 1 -2zM792 461q0 1 -1 1z" />
    <glyph glyph-name="FL00D9h" unicode="&#xd9;" horiz-adv-x="714" 
d="M595 719q-4 0 -28 -8q-1 -1 -2 -1h46q-8 9 -16 9zM588 588q1 0 3.5 0.5l7.5 1.5l6 4q4 2 10 8h-62q17 -14 35 -14zM529 648h100q-1 4 -1.5 7t-0.5 7h-100q0 -4 2 -14zM426 530h-189l-3 -8h189q1 2 1.5 4t1.5 4zM860 522l3 8h-190l-3 -8h190zM367 0h117q18 0 35 1.5
t32 5.5h-286q23 -4 48 -5.5t54 -1.5zM220 483l-9 -24h190q2 5 4 11.5t4 12.5h-189zM656 483l-9 -24h190l9 24h-190zM634 424l-9 -27h189l10 27h-190zM389 424h-190l-10 -27h191zM613 364l-11 -30h189l11 30h-189zM369 364h-191l-11 -30h192q2 7 4.5 14.5t5.5 15.5zM773 283
l8 22h-190l-12 -34h189q2 3 2.5 6t2.5 6zM148 271h190q2 6 5 14.5t6 19.5h-192q-3 -9 -5 -17.5t-4 -16.5zM759 245h-190l-4 -12q-4 -9 -15 -25h193l8 18t8 19zM131 208h197q0 15 3 33q0 1 -0.5 1.5t0.5 2.5h-191q-2 -10 -4.5 -19t-4.5 -18zM734 186h-201
q-10 -12 -22.5 -22.5t-27.5 -17.5h231q5 9 10 19t10 21zM124 146h228q-18 15 -22 40h-203q-2 -11 -2.5 -21t-0.5 -19zM213 20h377q37 17 67 47h-511q23 -31 67 -47zM136 83h536q16 19 31 43h-578q1 -12 3.5 -22.5t7.5 -20.5zM428 544l8 -14l10 -9l10 -16q-1 -1 -1 -3v-1
q-1 -1 -1 -5v-5h-28l17 -17q-1 -3 -3.5 -11.5t-3.5 -12.5v-1q-1 -8 -8 -21h-31l6 -7l6 -6l11 -14q-2 -8 -6.5 -18.5t-6.5 -16.5h-29l11 -11l10 -15q-2 -6 -4 -11t-3 -9l-6 -17h-9l7 -7q-4 -13 -9 -28t-10 -28h-7l4 -4v-17q-3 -18 -3 -42q0 -11 7 -22q4 -4 8 -7.5t9 -7.5h90
l-3 16q17 8 31 19.5t25 24.5h3q17 25 24 40l7 19l21 60h9l-1 1h-8l23 58h14l-5 5h-7l19 55h16l-7 7h-8l21 52h21l-11 11h-8l15 36h220l-3 -6l18 -17l-12 -30h-22l17 -17l-18 -46h-17l13 -13l-19 -49h-14l11 -11l-20 -52h-9l7 -7l-14 -41l-2 -3q-1 -2 -2.5 -6t-2.5 -6h-20
l4 -4l10 -15q-2 -6 -5 -11.5t-5 -10.5l-9 -22h-16l10 -15l-3.5 -7l-3.5 -7q-4 -7 -7 -14.5t-8 -15.5l1 -1q-11 -17 -21 -32t-19 -26l1 -1q-25 -25 -48 -42.5t-44 -26.5h-37l2 -12q-17 -5 -35.5 -6.5t-37.5 -1.5h-117q-32 0 -57.5 1.5t-48.5 5.5l-13 13h-35l-4 1
q-33 13 -59 37q-14 10 -26 23.5t-25 30.5h2q-5 11 -7.5 25.5t-3.5 33.5h5l-5 5q0 11 0.5 23.5t4.5 31.5h10l-8 11q2 9 5.5 23.5t5.5 24.5h17l-11 14q0 2 2 8q1 2 1.5 5t1.5 5q2 3 3 13q1 4 1.5 8t1.5 7h10l-1 1h-8l23 58h12l-5 5h-8l22 55h15l-7 7h-8l21 52h21l-11 11h-8
l15 36h200zM528 634l-13 10q-1 3 -1.5 10t-0.5 22h128v-6l17 -17q0 -9 0.5 -13t1.5 -7v-16h-111l-11 8l-9 9h-1zM545 593l-2 2q-6 5 -12.5 10t-12.5 11h125q-2 -2 -2.5 -3t-1.5 -2l18 -18q-11 -15 -17 -21t-10 -8l-8 -5q-1 0 -3.5 -0.5t-3.5 -0.5q-3 -1 -7 -1q-24 0 -63 36z
M595 733q10 0 21.5 -11t23.5 -26h-1l1 -1q3 -4 6 -7.5t7 -7.5l1 -1h-69l-17 17h-6v22l-2 2l-1 3q1 1 3 1q3 0 4 1q24 8 29 8z" />
    <glyph glyph-name="FL00DAh" unicode="&#xda;" horiz-adv-x="714" 
d="M630 719q-6 0 -11.5 -2.5t-11.5 -6.5h46q-1 0 -1 1q-11 8 -22 8zM528 594l4 -4q0 -2 9 -2q8 0 20 4t24 10h-62q2 -7 5 -8zM543 648h99l6.5 6.5t5.5 7.5h-98q-3 -4 -6.5 -7t-6.5 -7zM426 530h-189l-3 -8h189q1 2 1.5 4t1.5 4zM860 522l3 8h-190l-3 -8h190zM367 0h117
q18 0 35 1.5t32 5.5h-286q23 -4 48 -5.5t54 -1.5zM220 483l-9 -24h190q2 5 4 11.5t4 12.5h-189zM656 483l-9 -24h190l9 24h-190zM634 424l-9 -27h189l10 27h-190zM389 424h-190l-10 -27h191zM613 364l-11 -30h189l11 30h-189zM369 364h-191l-11 -30h192q2 7 4.5 14.5
t5.5 15.5zM773 283l8 22h-190l-12 -34h189q2 3 2.5 6t2.5 6zM148 271h190q2 6 5 14.5t6 19.5h-192q-3 -9 -5 -17.5t-4 -16.5zM759 245h-190l-4 -12q-4 -9 -15 -25h193l8 18t8 19zM131 208h197q0 15 3 33q0 1 -0.5 1.5t0.5 2.5h-191q-2 -10 -4.5 -19t-4.5 -18zM734 186h-201
q-10 -12 -22.5 -22.5t-27.5 -17.5h231q5 9 10 19t10 21zM124 146h228q-18 15 -22 40h-203q-2 -11 -2.5 -21t-0.5 -19zM213 20h377q37 17 67 47h-511q23 -31 67 -47zM136 83h536q16 19 31 43h-578q1 -12 3.5 -22.5t7.5 -20.5zM428 544l8 -14l10 -9l10 -16q-1 -1 -1 -3v-1
q-1 -1 -1 -5v-5h-28l17 -17q-1 -3 -3.5 -11.5t-3.5 -12.5v-1q-1 -4 -2.5 -9t-5.5 -12h-31l6 -7l6 -6l11 -14q-2 -8 -6.5 -18.5t-6.5 -16.5h-29l11 -11l10 -15q-2 -6 -4 -11t-3 -9l-6 -17h-9l7 -7q-4 -13 -9 -28t-10 -28h-7l4 -4v-17q-3 -18 -3 -42q0 -11 7 -22q4 -4 8 -7.5
t9 -7.5h90l-3 16q17 8 31 19.5t25 24.5h3q17 25 24 40l7 19l21 60h9l-1 1h-8l23 58h14l-5 5h-7l19 55h16l-7 7h-8l21 52h21l-11 11h-8l15 36h220l-3 -6l18 -17l-12 -30h-22l17 -17l-18 -46h-17l13 -13l-19 -49h-14l11 -11l-20 -52h-9l7 -7l-14 -41l-2 -3q-1 -2 -2.5 -6
t-2.5 -6h-20l4 -4l10 -15q-2 -6 -5 -11.5t-5 -10.5l-9 -22h-16l10 -15l-3.5 -7l-3.5 -7q-4 -7 -7 -14.5t-8 -15.5l1 -1q-11 -17 -21 -32t-19 -26l1 -1q-25 -25 -48 -42.5t-44 -26.5h-37l2 -12q-17 -5 -35.5 -6.5t-37.5 -1.5h-117q-32 0 -57.5 1.5t-48.5 5.5l-13 13h-35l-4 1
q-33 13 -59 37q-14 10 -26 23.5t-25 30.5h2q-5 11 -7.5 25.5t-3.5 33.5h5l-5 5q0 11 0.5 23.5t4.5 31.5h10l-8 11q2 9 5.5 23.5t5.5 24.5h17l-11 14q0 2 2 8q1 2 1.5 5t1.5 5q2 3 3 13q1 4 1.5 8t1.5 7h10l-1 1h-8l23 58h12l-5 5h-8l22 55h15l-7 7h-8l21 52h21l-11 11h-8
l15 36h200zM541 634l-10 22l5 5q1 1 1.5 2t1.5 2l3.5 3.5t6.5 7.5h130q-1 -2 -2 -3t-2 -3l18 -17q-11 -19 -16.5 -25.5t-9.5 -10.5h-104l-17 17h-5zM523 579l-6 6q-7 7 -13 31h89l1 -8l16 -15l4 -19q-14 -8 -28.5 -12.5t-24.5 -4.5q-11 0 -17 6h-1l-12 12q-5 1 -8 4z
M630 733q14 0 35 -15l-1 -1l18 -17q1 -1 1 -4l-1 1q-2 1 -3.5 1.5t-3.5 2.5h-2v-22h-84l-17 17h-14q26 17 45 27t27 10z" />
    <glyph glyph-name="FL00DBh" unicode="&#xdb;" horiz-adv-x="714" 
d="M621 711h-62q-2 0 -2.5 -0.5t-2.5 -0.5h72q-1 1 -5 1zM607 602l5 -8h82l-4 8h-83zM430 594h91l8 8h-91zM426 530h-189l-3 -8h189q1 2 1.5 4t1.5 4zM860 522l3 8h-190l-3 -8h190zM367 0h117q18 0 35 1.5t32 5.5h-286q23 -4 48 -5.5t54 -1.5zM574 648l5 5l3 -5h85l-7 14
h-161l-14 -14h89zM220 483l-9 -24h190q2 5 4 11.5t4 12.5h-189zM656 483l-9 -24h190l9 24h-190zM634 424l-9 -27h189l10 27h-190zM389 424h-190l-10 -27h191zM613 364l-11 -30h189l11 30h-189zM369 364h-191l-11 -30h192q2 7 4.5 14.5t5.5 15.5zM773 283l8 22h-190l-12 -34
h189q2 3 2.5 6t2.5 6zM148 271h190q2 6 5 14.5t6 19.5h-192q-3 -9 -5 -17.5t-4 -16.5zM759 245h-190l-4 -12q-4 -9 -15 -25h193l8 18t8 19zM131 208h197q0 15 3 33q0 1 -0.5 1.5t0.5 2.5h-191q-2 -10 -4.5 -19t-4.5 -18zM734 186h-201q-10 -12 -22.5 -22.5t-27.5 -17.5h231
q5 9 10 19t10 21zM124 146h228q-18 15 -22 40h-203q-2 -11 -2.5 -21t-0.5 -19zM213 20h377q37 17 67 47h-511q23 -31 67 -47zM136 83h536q16 19 31 43h-578q1 -12 3.5 -22.5t7.5 -20.5zM428 544l8 -14l10 -9l10 -16q-1 -1 -1 -3v-1q-1 -1 -1 -5v-5h-28l17 -17
q-1 -3 -3.5 -11.5t-3.5 -12.5v-1q-1 -8 -8 -21h-31l6 -7l6 -6l11 -14q-2 -8 -6.5 -18.5t-6.5 -16.5h-29l11 -11l10 -15q-2 -6 -4 -11t-3 -9l-6 -17h-9l7 -7q-4 -13 -9 -28t-10 -28h-7l4 -4v-17q-3 -18 -3 -42q0 -11 7 -22q4 -4 8 -7.5t9 -7.5h90l-3 16q17 8 31 19.5t25 24.5
h3q17 25 24 40l7 19l21 60h9l-1 1h-8l23 58h14l-5 5h-7l19 55h16l-7 7h-8l21 52h21l-11 11h-8l15 36h220l-3 -6l18 -17l-12 -30h-22l17 -17l-18 -46h-17l13 -13l-19 -49h-14l11 -11l-20 -52h-9l7 -7l-14 -41l-2 -3q-1 -2 -2.5 -6t-2.5 -6h-20l4 -4l10 -15q-2 -6 -5 -11.5
t-5 -10.5l-9 -22h-16l10 -15l-3.5 -7l-3.5 -7q-4 -7 -7 -14.5t-8 -15.5l1 -1q-11 -17 -21 -32t-19 -26l1 -1q-25 -25 -48 -42.5t-44 -26.5h-37l2 -12q-17 -5 -35.5 -6.5t-37.5 -1.5h-117q-32 0 -57.5 1.5t-48.5 5.5l-13 13h-35l-4 1q-33 13 -59 37q-14 10 -26 23.5t-25 30.5
h2q-5 11 -7.5 25.5t-3.5 33.5h5l-5 5q0 11 0.5 23.5t4.5 31.5h10l-8 11q2 9 5.5 23.5t5.5 24.5h17l-11 14q0 2 2 8q1 2 1.5 5t1.5 5q2 3 3 13q1 4 1.5 8t1.5 7h10l-1 1h-8l23 58h12l-5 5h-8l22 55h15l-7 7h-8l21 52h21l-11 11h-8l15 36h200zM478 617l-17 17h-10l42 42h176
l5 -10l13 -13l18 -36h-227zM423 563l-17 17h-10l36 36h131l-5 -5l18 -18l-30 -30h-123zM604 580l-23 36h118l5 -10l13 -13l15 -30h-106l-17 17h-5zM621 725q4 0 7 -0.5t11 -4.5l-1 -5l17 -17l-4 -19h-77l-17 17h-6v28h5q1 1 3 1h62z" />
    <glyph glyph-name="FL00DCh" unicode="&#xdc;" horiz-adv-x="714" 
d="M523 711q-11 0 -14 -1h26q-3 1 -12 1zM705 711q-11 0 -14 -1h26q-3 1 -12 1zM480 593q20 0 38 9h-69q10 -9 31 -9zM662 593q20 0 38 9h-70q12 -9 32 -9zM426 530h-189l-3 -8h189q1 2 1.5 4t1.5 4zM860 522l3 8h-190l-3 -8h190zM367 0h117q18 0 35 1.5t32 5.5h-286
q23 -4 48 -5.5t54 -1.5zM746 652q2 8 2 10h-125q-2 -2 -2.5 -5t-1.5 -5l-1.5 -3l-0.5 -1h127l0.5 1zM438 652l-1.5 -3l-0.5 -1h127l0.5 1l1.5 3q2 8 2 10h-125q-1 -2 -2 -5t-2 -5zM220 483l-9 -24h190q2 5 4 11.5t4 12.5h-189zM656 483l-9 -24h190l9 24h-190zM634 424
l-9 -27h189l10 27h-190zM389 424h-190l-10 -27h191zM613 364l-11 -30h189l11 30h-189zM369 364h-191l-11 -30h192q2 7 4.5 14.5t5.5 15.5zM773 283l8 22h-190l-12 -34h189q2 3 2.5 6t2.5 6zM148 271h190q2 6 5 14.5t6 19.5h-192q-3 -9 -5 -17.5t-4 -16.5zM759 245h-190
l-4 -12q-4 -9 -15 -25h193l8 18t8 19zM131 208h197q0 15 3 33q0 1 -0.5 1.5t0.5 2.5h-191q-2 -10 -4.5 -19t-4.5 -18zM734 186h-201q-10 -12 -22.5 -22.5t-27.5 -17.5h231q5 9 10 19t10 21zM124 146h228q-18 15 -22 40h-203q-2 -11 -2.5 -21t-0.5 -19zM213 20h377
q37 17 67 47h-511q23 -31 67 -47zM136 83h536q16 19 31 43h-578q1 -12 3.5 -22.5t7.5 -20.5zM428 544l8 -14l10 -9l10 -16q-1 -1 -1 -3v-1q-1 -1 -1 -5v-5h-28l17 -17q-1 -3 -3.5 -12t-3.5 -13q-1 -8 -8 -21h-31l6 -7l6 -6l11 -14q-2 -8 -6.5 -18.5t-6.5 -16.5h-29l11 -11
l10 -15q-2 -6 -4 -11t-3 -9l-6 -17h-9l7 -7q-4 -13 -9 -28t-10 -28h-7l4 -4v-17q-3 -18 -3 -42q0 -11 7 -22q4 -4 8 -7.5t9 -7.5h90l-3 16q17 8 31 19.5t25 24.5h3q17 25 24 40l7 19l21 60h9l-1 1h-8l23 58h14l-5 5h-7l19 55h16l-7 7h-8l21 52h21l-11 11h-8l15 36h220l-3 -6
l18 -17l-12 -30h-22l17 -17l-18 -46h-17l13 -13l-19 -49h-14l11 -11l-20 -52h-9l7 -7l-14 -41l-2 -3q-1 -2 -2.5 -6t-2.5 -6h-20l4 -4l10 -15q-2 -6 -5 -11.5t-5 -10.5l-9 -22h-16l10 -15l-3.5 -7l-3.5 -7q-4 -7 -7 -14.5t-8 -15.5l1 -1q-11 -17 -21 -32t-19 -26l1 -1
q-25 -25 -48 -42.5t-44 -26.5h-37l2 -12q-17 -5 -35.5 -6.5t-37.5 -1.5h-117q-32 0 -57.5 1.5t-48.5 5.5l-13 13h-35l-4 1q-33 13 -59 37q-14 10 -26 23.5t-25 30.5h2q-5 11 -7.5 25.5t-3.5 33.5h5l-5 5q0 11 0.5 23.5t4.5 31.5h10l-8 11q2 9 5.5 23.5t5.5 24.5h17l-11 14
q0 2 2 8q1 2 1.5 5t1.5 5q2 3 3 13q1 4 1.5 8t1.5 7h10l-1 1h-8l23 58h12l-5 5h-8l22 55h15l-7 7h-8l21 52h21l-11 11h-8l15 36h200zM762 676v-6l17 -17q0 -9 -0.5 -13.5t-1.5 -7.5l-1 -3q0 -4 -1 -5.5t-6 -6.5h-159l-15 14v-2q0 -4 -1 -5.5t-6 -6.5h-159l-17 17h-10
q18 18 22 20q0 4 3 9q0 -1 2 5q1 2 3 5l2 3h147v-6l17 -17v-4q4 4 7 5v2q1 0 1 -1q1 1 1 3t1 6t9 12h145zM616 593l-9 9q-5 4 -10 7t-9 7h120l1 -8l16 -15l4 -19q-24 -12 -47 -12q-26 0 -66 31zM440 593l-5 4q-5 4 -11 9l-12 10h114l1 -8l16 -15l4 -19q-24 -12 -47 -12
q-25 0 -60 31zM705 725q3 0 7.5 -0.5t13.5 -2.5l-1 -5l18 -17l-3 -21h-31l-17 17h-6l-2 28q3 1 21 1zM523 725q3 0 7.5 -0.5t13.5 -2.5l-1 -5l18 -17l-3 -21h-31l-17 17h-6l-2 28q3 1 21 1z" />
    <glyph glyph-name="FL00DDh" unicode="&#xdd;" horiz-adv-x="688" 
d="M620 719q-6 0 -11.5 -2.5t-11.5 -6.5h46q-1 0 -1 1q-11 8 -22 8zM518 594l4 -4q0 -2 9 -2q8 0 20 4t24 10h-62q2 -7 5 -8zM248 0h192l2 7h-192zM533 648h99l6.5 6.5t5.5 7.5h-98q-3 -4 -6.5 -7t-6.5 -7zM441 530h-214l3 -8h214zM838 522l9 8h-214l-9 -8h214zM246 483
l10 -24h213l-10 24h-213zM579 483l-27 -24h214l27 24h-214zM337 245l-13 -37h192l13 37h-192zM316 186l-15 -40h192l15 40h-192zM294 126l-16 -43h192l16 43h-192zM318 305l14 -34h221l39 34h-274zM272 67l-17 -47h192l17 47h-192zM294 364l12 -30h319l34 30h-365zM491 405
l-8 19h-213l11 -27h415l31 27h-215zM882 544l-5 -5l18 -18l-33 -30h-38l17 -17l-51 -46h-27l13 -13l-56 -49h-23l11 -11l-59 -52h-15l7 -7l-64 -56h-17l4 -4l-20 -59l-23 -60h1l-25 -65l-20 -54l-1 -3l-7 -26h-216l-17 17h-7l10 35h2l17 48h-1l25 63h-2l27 68l19 57h-3
l-26 62h6l-1 1h-5l-24 58h9l-5 5h-5l-23 55h10l-7 7h-5l-22 52h12l-11 11h-5l-15 36h244l3 -9l15 -14l12 -30h-10l1 -3l15 -14l16 -40l5 4h27l-7 7h-11l58 52h36l-11 11h-11l40 36h254zM531 634l-10 22l5 5q1 1 1.5 2t1.5 2l3.5 3.5t6.5 7.5h130q-1 -2 -2 -3t-2 -3l18 -17
q-11 -19 -16.5 -25.5t-9.5 -10.5h-104l-17 17h-5zM513 579l-6 6q-5 5 -7.5 12t-5.5 19h89l1 -8l16 -15l4 -19q-14 -8 -28.5 -12.5t-24.5 -4.5q-11 0 -17 6h-1l-12 12q-5 1 -8 4zM620 733q14 0 35 -15l-1 -1l18 -17q1 -1 1 -4q-2 2 -4 2.5t-4 2.5h-2v-22h-84l-17 17h-14
q26 17 45 27t27 10z" />
    <glyph glyph-name="FL00DEh" unicode="&#xde;" horiz-adv-x="712" 
d="M46 7l-2 -7h192l2 7h-192zM426 522l3 8h-192l-3 -8h192zM220 483l-9 -24h192l9 24h-192zM133 245l-14 -37h193l13 37h-192zM111 186l-14 -40h192l15 40h-193zM68 67l-17 -47h192l17 47h-192zM756 245h-198q-5 -7 -9 -12.5t-5 -5.5h-160l-22 -19h379q5 8 8.5 17.5
t6.5 19.5zM688 424h-490l-10 -27h533q-14 18 -33 27zM335 271l8 23h205q2 0 9.5 -8.5t10.5 -13.5v-1h192q1 3 1 12q-1 3 -1 10q0 4 -2 12h-603l-13 -34h193zM728 186h-391l-45 -40h398q10 8 19.5 18t18.5 22zM741 364h-565l-11 -30h587q-2 8 -5 15t-6 15zM266 83l3 9h281
q56 0 111 34h-572l-15 -43h192zM450 544l-3 -6l18 -17l-12 -30h-22l17 -17l-15 -36h256l5 -1q20 -11 52 -50q6 -9 17 -21h-8q0 -2 1 -3l15 -15q4 -10 7.5 -20t8.5 -25h-7l7 -7q4 -15 4 -26q0 -2 0.5 -3.5t0.5 -3.5q0 -5 -0.5 -9.5t-2.5 -13.5h-17l4 -4l11 -14
q-3 -10 -7 -20.5t-13 -24.5h-19l9 -18q-8 -11 -18 -21t-21 -20l2 -1q-45 -27 -83.5 -41.5t-66.5 -14.5h-274l-3 -9l-20 -54l-1 -3l-7 -26h-216l-17 17h-7l10 35h2l22 60l20 59h1l19 54h-1l25 63h-2l25 62h7l-1 1h-8l23 58h13l-5 5h-8l22 55h16l-7 7h-8l21 52h21l-11 11h-8
l15 36h222zM360 236l-6 -17l25 22h161q2 3 4.5 8t6.5 10h3v4h-184l-7 -23h-7z" />
    <glyph glyph-name="FL00DFh" unicode="&#xdf;" horiz-adv-x="703" 
d="M578 7h-317q-4 -4 -5 -7h229q61 0 93 7zM285 522h426q-18 8 -33 8h-385zM4 -112l-11 -29h192l10 29h-191zM177 364l-11 -30h191l11 30h-191zM778 364h-191l-1 -2q-2 -4 -7.5 -12.5t-10.5 -15.5h201q6 15 9 30zM155 305l-12 -34h191l13 34h-192zM133 245l-13 -37h191
l14 37h-192zM112 186l-15 -40h192l14 40h-191zM90 126l-16 -43h192l15 43h-191zM725 186h-207q0 -14 -3 -18l-2 -5q-1 -1 -2.5 -3l-1.5 -2q-3 -2 -8 -5.5t-10 -6.5h221q4 9 7.5 19t5.5 21zM754 305h-253l-39 -34h263q15 12 29 34zM68 67l-17 -47h192l17 47h-192zM47 7
l-18 -49h191l18 49h-191zM25 -52l-19 -53h192l19 53h-192zM710 245h-278l-42 -37h337q-1 13 -6.5 21.5t-10.5 15.5zM231 459h532l-6 12t-7 12h-499l-10 -12zM189 398l-1 -1h590q-1 6 -1.5 12.5t-2.5 14.5h-569q-5 -7 -8.5 -13.5t-7.5 -12.5zM705 126h-356
q-10 -11 -18.5 -21.5t-17.5 -21.5h371q5 9 10.5 20t10.5 23zM675 67h-373q-8 -11 -16.5 -23t-16.5 -24h351q35 17 55 47zM282 508l-5 23q0 3 3 6l7 7h391q23 0 46 -12l-1 -5l17 -17l-4 -13h22q2 -3 3.5 -6t3.5 -6l11 -11q8 -12 13.5 -23.5t11.5 -22.5h-11l13 -13
q2 -7 3.5 -17.5t2.5 -15.5v-16h-21l4 -4v-1l6 -6l11 -13q-2 -7 -5 -16.5t-8 -22.5h-29l7 -7l9 -17q-14 -23 -33 -39h-19l8 -8q6 -8 12 -18.5t8 -36.5h-14l11 -13q-2 -11 -7 -23.5t-10 -25.5h-13l9 -13q-7 -15 -13 -28t-11 -22h-13l6 -11q-12 -18 -26.5 -30.5t-34.5 -21.5
h-44l1 -13q-17 -4 -41 -5.5t-54 -1.5h-242l-12 -29l1 -1l-27 -75l-12 -36h-216l-17 17h-8l19 47l19 52h-2l24 62l22 63h-1l25 63h-2l27 68l20 59h1l21 60h9l-1 1h-8l23 58h1l-5 5h-10l26 26l4 6l-1 -1q1 2 3.5 6.5t1.5 2.5l10 15h43l-7 7h-5l-11 21q1 1 2.5 3t4.5 5
q2 2 2.5 3t2.5 3q2 3 5 6.5t10 10.5h54l-11 11h-6zM381 177l-17 17h-11l74 65l69 60h53l-1 1h-9q10 12 18.5 25t13.5 21h-178l11 -11l-20 -52h-8l7 -7l-22 -56h-4l4 -4l-23 -59l-21 -62h-2l-4 -12l2 2q8 8 16 17.5t15 17.5h137l-4 15q7 4 12.5 7t4.5 2l4 3q1 1 1.5 2t1.5 2
l1 3l0.5 1t0.5 2h-122z" />
    <glyph glyph-name="FL00E0h" unicode="&#xe0;" 
d="M585 717q-4 0 -10 -2l-15 -5h40q-7 7 -15 7zM578 586q9 0 11 2l6 4q8 3 12 10h-67q17 -16 38 -16zM574 7l1 -7h178l-1 7h-178zM519 648h100q-1 4 -1.5 7t-0.5 7h-99q-1 -4 1 -14zM636 530h-168q-8 0 -19 -8h203q-8 8 -16 8zM36 0h423q4 1 10 7h-431q0 2 -0.5 0t-1.5 -7z
M519 364l5 -30h177l-4 30h-178zM315 364l-24 -30h202l22 30h-200zM528 305l5 -34h178l-5 34h-178zM537 245l6 -37h177l-5 37h-178zM672 483h-265q-8 -8 -9 -13l-9 -11h290q-2 6 -3.5 12t-3.5 12zM269 305l-27 -34h204l25 34h-202zM546 186l6 -40h178l-6 40h-178zM222 245
l-29 -37h206l27 37h-204zM176 186l-32 -40h208l30 40h-206zM562 67l9 -47h179l-8 47h-180zM362 424l-21 -27h351l-4 27h-326zM522 67h-439l-37 -47h436q10 10 20 22t20 25zM554 113l5 -30h181l-7 43h-604l-34 -43h439q8 11 13 18t7 12zM636 544q14 0 50 -36h-4l17 -17h-18
l4 -3q1 -2 1.5 -3.5t1.5 -3.5l14 -14q3 -8 5.5 -18t5.5 -21h-8l13 -13l7 -49h-9l11 -11l7 -52h-5l7 -7l8 -56h-3l4 -4l8 -58l1 -1l8 -60h1l10 -65h-1l9 -53l1 -1l4 -29h-201l-17 17h-6l-3 20l-9 46h-5l6 -12q-8 -11 -17 -21.5t-18 -20.5h-1q-1 -2 -8 -9q-13 -12 -18 -15
t-7 -5h-426l-17 17h-4l-13 16q0 3 1 4h-6l8 11q9 27 16 27q2 0 4 -2l70 90l49 62l49 63l49 62h10l-1 1h-9l46 58h18l-5 5h-9l43 55h20l-7 7h-9l28 34q2 4 5.5 8.5t8.5 9.5h28l-11 11h-12q49 36 62 36h168zM424 177l-28 -37h142l-7 54h-1l-9 63h-1l-6 46h-8l7 -7l-41 -56h-9
l4 -4zM518 634l-12 10q-2 6 -2 8v6v18h127v-6l17 -17q0 -9 0.5 -13t1.5 -7v-16h-111l-10 8l-9 9h-2zM598 555q-12 0 -29 10.5t-37 27.5q-8 5 -14.5 10.5t-13.5 12.5h128q-1 -2 -2 -3t-2 -3l18 -17q-9 -15 -15.5 -22t-11.5 -9l-2 -2q-5 -5 -19 -5zM585 731q8 0 20.5 -9.5
t28.5 -25.5h-4l8 -9l1 -1l8 -7h-72l-17 17h-6l-5 25q1 0 3 0.5t3 0.5t2 1q24 8 30 8zM639 686l-1 1q1 0 1 -1z" />
    <glyph glyph-name="FL00E1h" unicode="&#xe1;" 
d="M621 718q-11 0 -22 -8h44q-11 8 -22 8zM520 593l3 -4q2 -2 10 -2q9 0 21.5 4t25.5 11h-65q1 -7 5 -9zM574 7l1 -7h178l-1 7h-178zM536 648h99l6.5 6.5t5.5 7.5h-99q-3 -4 -6 -7t-6 -7zM636 530h-168q-8 0 -19 -8h203q-8 8 -16 8zM36 0h423q4 1 10 7h-431q0 2 -0.5 0
t-1.5 -7zM519 364l5 -30h177l-4 30h-178zM315 364l-24 -30h202l22 30h-200zM528 305l5 -34h178l-5 34h-178zM537 245l6 -37h177l-5 37h-178zM672 483h-265q-8 -8 -9 -13l-9 -11h290q-2 6 -3.5 12t-3.5 12zM269 305l-27 -34h204l25 34h-202zM546 186l6 -40h178l-6 40h-178z
M222 245l-29 -37h206l27 37h-204zM176 186l-32 -40h208l30 40h-206zM562 67l9 -47h179l-8 47h-180zM362 424l-21 -27h351l-4 27h-326zM522 67h-439l-37 -47h436q10 10 20 22t20 25zM554 113l5 -30h181l-7 43h-604l-34 -43h439q8 11 13 18t7 12zM636 544q14 0 50 -36h-4
l17 -17h-18l4 -3q1 -2 1.5 -3.5t1.5 -3.5l14 -14q3 -8 5.5 -18t5.5 -21h-8l13 -13l7 -49h-9l11 -11l7 -52h-5l7 -7l8 -56h-3l4 -4l8 -58l1 -1l8 -60h1l10 -65h-1l9 -53l1 -1l4 -29h-201l-17 17h-6l-3 20l-9 46h-5l6 -12q-8 -11 -17 -21.5t-18 -20.5h-1q-1 -2 -8 -9
q-13 -12 -18 -15t-7 -5h-426l-17 17h-4l-13 16q0 3 1 4h-6l8 11q9 27 16 27q2 0 4 -2l70 90l49 62l49 63l49 62h10l-1 1h-9l46 58h18l-5 5h-9l43 55h20l-7 7h-9l28 34q2 4 5.5 8.5t8.5 9.5h28l-11 11h-12q49 36 62 36h168zM424 177l-28 -37h142l-7 54h-1l-9 63h-1l-6 46h-8
l7 -7l-41 -56h-9l4 -4zM534 634l-10 22l5 5q1 1 1.5 2t1.5 2l4 4t5 7h131q-1 -2 -2 -3t-2 -3l18 -17q-11 -19 -16.5 -25.5t-9.5 -10.5h-104l-17 17h-5zM512 580l-2 2q-6 4 -9 12.5t-5 21.5h91l2 -7l16 -16l5 -19q-16 -8 -31 -13t-26 -5q-13 0 -19 6l-13 12q-8 4 -9 6z
M621 732q15 0 65 -36h-6l17 -17h-112l-17 17h-12q49 36 65 36z" />
    <glyph glyph-name="FL00E2h" unicode="&#xe2;" 
d="M612 602l5 -9h82l-5 9h-82zM526 593l8 9h-90l-9 -9q-1 -1 91 0zM574 7l1 -7h178l-1 7h-178zM636 530h-168q-8 0 -19 -8h203q-8 8 -16 8zM579 648l4 4l2 -4h86l-7 14h-159l-14 -14h88zM36 0h423q4 1 10 7h-431q0 2 -0.5 0t-1.5 -7zM519 364l5 -30h177l-4 30h-178zM315 364
l-24 -30h202l22 30h-200zM528 305l5 -34h178l-5 34h-178zM537 245l6 -37h177l-5 37h-178zM672 483h-265q-8 -8 -9 -13l-9 -11h290q-2 6 -3.5 12t-3.5 12zM269 305l-27 -34h204l25 34h-202zM546 186l6 -40h178l-6 40h-178zM222 245l-29 -37h206l27 37h-204zM176 186l-32 -40
h208l30 40h-206zM562 67l9 -47h179l-8 47h-180zM362 424l-21 -27h351l-4 27h-326zM522 67h-439l-37 -47h436q10 10 20 22t20 25zM554 113l5 -30h181l-7 43h-604l-34 -43h439q8 11 13 18t7 12zM636 544q14 0 50 -36h-4l17 -17h-18l4 -3q1 -2 1.5 -3.5t1.5 -3.5l14 -14
q3 -8 5.5 -18t5.5 -21h-8l13 -13l7 -49h-9l11 -11l7 -52h-5l7 -7l8 -56h-3l4 -4l8 -58l1 -1l8 -60h1l10 -65h-1l9 -53l1 -1l4 -29h-201l-17 17h-6l-3 20l-9 46h-5l6 -12q-17 -23 -36 -42q-17 -18 -24 -22.5t-9 -6.5h-426l-17 17h-4l-13 16q0 3 1 4h-6l8 11q9 27 16 27
q2 0 4 -2l70 90l49 62l49 63l49 62h10l-1 1h-9l46 58h18l-5 5h-9l43 55h20l-7 7h-9l28 34q2 4 5.5 8.5t8.5 9.5h28l-11 11h-12q49 36 62 36h168zM484 617l-17 17h-10l42 42h174l5 -10l13 -13l18 -36h-225zM424 177l-28 -37h142l-7 54h-1l-9 63h-1l-6 46h-8l7 -7l-41 -56h-9
l4 -4zM440 565l-15 14q-10 3 -10 9q0 5 10 15l13 13h126l-4 -5l18 -18l-24 -27l-8 -4q-11 -1 -22 -1h-19h-28q-14 0 -24 0.5t-13 3.5zM608 579l-20 37h115l6 -11l12 -12l17 -31h-108l-17 17h-5z" />
    <glyph glyph-name="FL00E3h" unicode="&#xe3;" 
d="M405 593h91l9 9h-91zM582 602l5 -9h82q4 0 9 3t9 6h-105zM574 7l1 -7h178l-1 7h-178zM636 530h-168q-8 0 -19 -8h203q-8 8 -16 8zM36 0h423q4 1 10 7h-431q0 2 -0.5 0t-1.5 -7zM660 662l-11 -11l-6 11h-168l-14 -14h89l4 4l2 -4h179q5 4 8 7l7 7h-90zM519 364l5 -30h177
l-4 30h-178zM315 364l-24 -30h202l22 30h-200zM528 305l5 -34h178l-5 34h-178zM537 245l6 -37h177l-5 37h-178zM672 483h-265q-8 -8 -9 -13l-9 -11h290q-2 6 -3.5 12t-3.5 12zM269 305l-27 -34h204l25 34h-202zM546 186l6 -40h178l-6 40h-178zM222 245l-29 -37h206l27 37
h-204zM176 186l-32 -40h208l30 40h-206zM562 67l9 -47h179l-8 47h-180zM362 424l-21 -27h351l-4 27h-326zM522 67h-439l-37 -47h436q10 10 20 22t20 25zM554 113l5 -30h181l-7 43h-604l-34 -43h439q8 11 13 18t7 12zM636 544q14 0 50 -36h-4l17 -17h-18l4 -3q1 -2 1.5 -3.5
t1.5 -3.5l14 -14q3 -8 5.5 -18t5.5 -21h-8l13 -13l7 -49h-9l11 -11l7 -52h-5l7 -7l8 -56h-3l4 -4l8 -58l1 -1l8 -60h1l10 -65h-1l9 -53l1 -1l4 -29h-201l-17 17h-6l-3 20l-9 46h-5l6 -12q-17 -23 -36 -42q-17 -18 -24 -22.5t-9 -6.5h-426l-17 17h-4l-13 16q0 3 1 4h-6l8 11
q9 27 16 27q2 0 4 -2l70 90l49 62l49 63l49 62h10l-1 1h-9l46 58h18l-5 5h-9l43 55h20l-7 7h-9l28 34q2 4 5.5 8.5t8.5 9.5h28l-11 11h-12q49 36 62 36h168zM469 676h183v-2l2 2h130l-5 -5l18 -18l-17 -17t-22 -19h-304l-17 17h-10zM424 177l-28 -37h142l-7 54h-1l-9 63h-1
l-6 46h-8l7 -7l-41 -56h-9l4 -4zM398 562l-17 17h-10l37 37h131l-5 -5l18 -18l-31 -31h-123zM578 579l-20 37h169q-2 -2 -3.5 -3t-2.5 -2l18 -18q-14 -11 -29 -21t-21 -10h-89l-17 17h-5z" />
    <glyph glyph-name="FL00E4h" unicode="&#xe4;" 
d="M701 712q-5 0 -9 -0.5t-9 -1.5h34q-4 1 -7.5 1.5t-8.5 0.5zM519 712q-5 0 -9 -0.5t-9 -1.5h34q-4 1 -7.5 1.5t-8.5 0.5zM658 594q16 0 35 8h-65q10 -8 30 -8zM476 594q15 0 36 8h-66q14 -8 30 -8zM574 7l1 -7h178l-1 7h-178zM636 530h-168q-8 0 -19 -8h203q-8 8 -16 8z
M435 653q-1 -1 -1 -3q0 -1 -1 -2h127q0 -1 2 5q2 8 2 9h-125l-2 -4t-2 -5zM743 653q2 8 2 9h-125l-2 -4t-2 -5q-1 -1 -1 -3q0 -1 -1 -2h127q0 -1 2 5zM36 0h423q4 1 10 7h-431q0 2 -0.5 0t-1.5 -7zM519 364l5 -30h177l-4 30h-178zM315 364l-24 -30h202l22 30h-200zM528 305
l5 -34h178l-5 34h-178zM537 245l6 -37h177l-5 37h-178zM672 483h-265q-8 -8 -9 -13l-9 -11h290q-2 6 -3.5 12t-3.5 12zM269 305l-27 -34h204l25 34h-202zM546 186l6 -40h178l-6 40h-178zM222 245l-29 -37h206l27 37h-204zM176 186l-32 -40h208l30 40h-206zM562 67l9 -47h179
l-8 47h-180zM362 424l-21 -27h351l-4 27h-326zM522 67h-439l-37 -47h436q10 10 20 22t20 25zM554 113l5 -30h181l-7 43h-604l-34 -43h439q8 11 13 18t7 12zM636 544q14 0 50 -36h-4l17 -17h-18l4 -3q1 -2 1.5 -3.5t1.5 -3.5l14 -14q3 -8 5.5 -18t5.5 -21h-8l13 -13l7 -49h-9
l11 -11l7 -52h-5l7 -7l8 -56h-3l4 -4l8 -58l1 -1l8 -60h1l10 -65h-1l9 -53l1 -1l4 -29h-201l-17 17h-6l-3 20l-9 46h-5l6 -12q-17 -23 -36 -42q-17 -18 -24 -22.5t-9 -6.5h-426l-17 17h-4l-13 16q0 3 1 4h-6l8 11q9 27 16 27q2 0 4 -2l70 90l49 62l49 63l49 62h10l-1 1h-9
l46 58h18l-5 5h-9l43 55h20l-7 7h-9l28 34q2 4 5.5 8.5t8.5 9.5h28l-11 11h-12q49 36 62 36h168zM399 634q10 10 15.5 15t6.5 6l1 2q1 3 3 7t7 12h146v-6l17 -17v-4q3 2 7 6q1 0 1 1q2 5 2.5 8.5t7.5 11.5h146v-6l17 -17q0 -11 -1 -15.5t-2 -7.5v-2q-1 -1 -1 -3v-8h-165
l-15 14q0 -2 -1 -3t-1 -3l0.5 -1.5t0.5 -6.5h-165l-17 17h-10zM424 177l-28 -37h142l-7 54h-1l-9 63h-1l-6 46h-8l7 -7l-41 -56h-9l4 -4zM428 593l-11 10q-9 5 -20 13h122l1 -8l16 -15l4 -19q-27 -11 -44 -11q-22 0 -68 30zM619 593l-3 3q-6 4 -12 9t-13 11h110l1 -8l16 -15
l4 -19q-25 -11 -44 -11q-11 0 -25 6.5t-34 23.5zM701 726q10 0 14.5 -0.5t8.5 -1.5l-1 -6l18 -17l-2 -22h-38l-17 17h-6l-2 27q7 1 13.5 2t11.5 1zM519 726q10 0 14.5 -0.5t8.5 -1.5l-1 -6l18 -17l-2 -22h-38l-17 17h-6l-2 27q7 1 13.5 2t11.5 1z" />
    </font>
</defs>
</svg>
