<?xml version="1.0" standalone="no"?>
<!DOCTYPE svg PUBLIC "-//W3C//DTD SVG 1.1//EN" "http://www.w3.org/Graphics/SVG/1.1/DTD/svg11.dtd" >
<svg xmlns="http://www.w3.org/2000/svg" xmlns:xlink="http://www.w3.org/1999/xlink" version="1.1">
<metadata>
Created by FontForge 20170731 at Sat Apr 18 11:54:07 2015
 By Aleksey,,,
2013 Iconian Fonts - www.iconian.com
</metadata>
<defs>
<font id="Airstrike3D" horiz-adv-x="779" >
  <font-face 
    font-family="Airstrike 3D"
    font-weight="400"
    font-stretch="normal"
    units-per-em="1000"
    panose-1="0 0 0 0 0 0 0 0 0 0"
    ascent="800"
    descent="-200"
    x-height="544"
    cap-height="544"
    bbox="-186 -173 1374 737"
    underline-thickness="50"
    underline-position="-175"
    unicode-range="U+0020-20AC"
  />
<missing-glyph horiz-adv-x="500" 
 />
    <glyph glyph-name=".notdef" horiz-adv-x="500" 
 />
    <glyph glyph-name=".null" horiz-adv-x="0" 
 />
    <glyph glyph-name="nonmarkingreturn" horiz-adv-x="500" 
 />
    <glyph glyph-name="space" unicode=" " horiz-adv-x="279" 
 />
    <glyph glyph-name="space" unicode="&#xa0;" horiz-adv-x="279" 
 />
    <glyph glyph-name="FL0021h" unicode="!" horiz-adv-x="272" 
d="M65 47q0 -40 31 -53l7 -7q18 -18 51 -18q17 0 35 6t32 16q23 17 36.5 40t13.5 43q0 24 -16 40l-7 6q-5 11 -15 20h88l139 381l-18 18l2 5h-220l-141 -387h7l17 -17h22q-42 -23 -58 -63q-6 -11 -6 -30zM83 70q12 29 41 50t61 21q26 0 40.5 -13.5t14.5 -33.5q0 -17 -12 -38
t-33 -36q-13 -9 -29 -14.5t-32 -5.5q-26 0 -40.5 13t-14.5 34q0 16 4 23zM294 171h-192l131 359h192z" />
    <glyph glyph-name="FL0022h" unicode="&#x22;" horiz-adv-x="350" 
d="M210 467l-13 -37q-3 -14 -3 -34t5.5 -38t21.5 -18h8q7 0 21 9.5t28 23t26.5 29t17.5 28.5l13 37q4 7 4 23q0 18 -11.5 29.5t-32.5 11.5q-26 0 -50.5 -19t-34.5 -45zM355 467l-13 -37q-3 -14 -3 -34t5.5 -38t21.5 -18h8q7 0 21 9.5t28 23t26.5 29t17.5 28.5l13 37
q4 7 4 23q0 18 -11.5 29.5t-32.5 11.5q-26 0 -50.5 -19t-34.5 -45zM182 432l15 40q11 30 39 51.5t59 21.5q39 0 52 -30l9 -8q1 -1 1.5 -2t1.5 -2q15 18 36.5 30t44.5 12q39 0 53 -30l8 -8q14 -14 14 -37q0 -19 -6 -29l-12 -35q-5 -14 -18.5 -31t-29.5 -31.5t-31.5 -24.5
t-23.5 -10h-8q-13 0 -22 9l-10 10q-11 4 -17.5 15t-9.5 25q-20 -23 -43 -41t-35 -18h-8q-13 0 -22 9l-10 10q-17 6 -23 26t-6 42q0 12 0.5 21.5t1.5 14.5z" />
    <glyph glyph-name="FL0023h" unicode="#" horiz-adv-x="771" 
d="M453 289h77l-19 -52h-77zM193 102l-37 -102h192l37 102h77l-37 -102h192l37 102h30l143 135h-124l19 52h30l143 135h-124l39 106h-192l-39 -106h-77l39 106h-192l-39 -106h-32l-143 -135h126l-19 -52h-32l-143 -135h126zM137 -14l30 85h-108l-17 17h-10l172 163h28l2 7
h-107l-17 17h-10l172 163h28l40 106h221l-2 -5l18 -18l-31 -83h23l40 106h221l-2 -5l18 -18l-31 -83h115l-5 -5l18 -18l-166 -157h-28l-2 -7h115l-5 -5l18 -18l-166 -157h-28l-37 -102h-214l-17 17h-7l30 85h-24l-37 -102h-214l-17 17h-7zM480 258l-2 -7h23l2 7h-23z" />
    <glyph glyph-name="FL0024h" unicode="$" horiz-adv-x="684" 
d="M515 174v-12q0 -10 -2.5 -19t-17.5 -9h-37l23 65h20q8 0 11 -8.5t3 -16.5zM388 394h38l-23 -65h-12q-1 0 -8.5 3.5t-11.5 7.5q-2 2 -6 5.5t-4 4.5v5q0 9 8 24t19 15zM283 0l-51 -141h126l51 141h152q27 0 52.5 16.5t45 41.5t31.5 54.5t12 55.5v6q0 23 -7 50t-21.5 50.5
t-37.5 39t-55 15.5h-52l23 65h166q36 34 65.5 68t52.5 68h-234l50 139h-126l-50 -139h-150q-28 0 -56 -18.5t-50.5 -46t-36.5 -58t-14 -54.5v-58q0 -19 2 -36.5t9 -30.5t20 -21t35 -8h120l-23 -65h-177q-3 0 -18 -17.5t-32.5 -40t-33 -44.5t-20.5 -32h232zM213 -155l44 124
h-204l-17 17h-8q6 12 25 38.5t40 54t39 48.5t23 21h167l7 20h-74q-20 0 -32.5 4.5t-21.5 13.5l-8 7q-26 12 -32 40t-6 62v58q0 26 15.5 59t40 62.5t55 49.5t60.5 20h140l51 139h154l-2 -5l18 -18l-42 -116h218q-2 -2 -2 -3t-2 -3l18 -17q-30 -43 -63 -83t-71 -75h-164
l-7 -20h9q35 0 60 -16.5t42 -42.5q26 -26 38 -63t12 -67v-6q0 -28 -13 -59.5t-34 -58t-48.5 -44t-56.5 -17.5h-145l-51 -141h-148l-17 17h-7zM395 349l-2 -6zM396 351q0 -1 -1 -1v-1z" />
    <glyph glyph-name="FL0025h" unicode="%" horiz-adv-x="812" 
d="M627 98v8v2l5 14h1q7 12 18.5 22.5t21.5 10.5h27v-2q0 -10 -1 -11l-3 -10l-4 -4q-7 -12 -18.5 -21t-17.5 -9h-26h-3zM323 363v8v2l5 14h1q7 12 18.5 22.5t21.5 10.5h28v-2v-10l-3 -7q-1 -1 -1 -2q-1 -1 -1 -2l-1 -1q-8 -13 -21 -23t-18 -10h-26h-3zM667 279l294 242
l-18 18l6 5h-215l-178 -147q0 5 0.5 10t0.5 10q0 44 -26 70l-3 3q-16 29 -48.5 41.5t-75.5 12.5h-66q-25 0 -50.5 -11.5t-47.5 -29.5t-39 -41t-25 -47q-2 -7 -4 -13.5t-3 -14.5v-2q-1 -6 -1.5 -12t-0.5 -12q0 -34 12 -55.5t32 -34.5l5 -4q19 -19 48 -26t65 -7h30l-300 -248
h11l17 -17h204l181 149q-1 -4 -1 -12v-10q0 -34 12 -55.5t32 -34.5l5 -4q19 -19 48 -26t65 -7h50q28 0 54.5 11t49 29t39.5 41t25 46l6 18q0 2 0.5 2.5t0.5 3.5v1q3 15 3 30q0 45 -26 71l-3 2v1q-16 29 -48 41.5t-77 12.5h-40zM603 148l-6 -16q-3 -15 8 -31.5t25 -16.5h26
q9 0 25.5 12t24.5 26q4 4 5 9l2 7q1 1 1 15t-6 23.5t-25 9.5h-30q-13 0 -27.5 -12t-22.5 -26zM827 143q0 -1 -0.5 -4t-1.5 -8l-4 -11q-8 -22 -24 -43.5t-37 -38.5t-46 -27.5t-51 -10.5h-50q-30 0 -55.5 5.5t-43 19t-25 37t-2.5 59.5q1 12 6 24q8 22 23.5 43.5t35.5 38.5
t43 27.5t46 10.5h66q61 0 96 -28t24 -94zM299 413l-6 -16q-3 -15 8 -31.5t25 -16.5h26q4 0 11 3.5t14.5 8.5t14.5 12t11 14l2 4t2 5l3 7q1 1 1 15t-7 23.5t-25 9.5h-30q-13 0 -27.5 -12t-22.5 -26zM523 408q0 -1 -0.5 -4t-1.5 -8l-4 -11q-8 -22 -24 -43.5t-37 -38.5
t-46 -27.5t-51 -10.5h-50q-30 0 -55.5 5.5t-43 19t-25 37t-2.5 59.5q1 12 6 24q8 22 23.5 43.5t36 38.5t43.5 27.5t46 10.5h66q30 0 55 -6.5t41 -21.5t22.5 -38t0.5 -56zM268 0h-171l641 530h173z" />
    <glyph glyph-name="FL0026h" unicode="&#x26;" horiz-adv-x="824" 
d="M485 136h-160q-2 0 -9 8.5t-10 13.5l15 45h217q0 -7 -4 -19.5t-6 -15.5l-2 -5q-1 -1 -2.5 -3l-1.5 -2q-3 -3 -9 -6.5l-12 -7t-11 -6zM740 197h32l143 135h-454l-134 -116l56 156q5 11 18 16.5t18 5.5h242q33 33 60.5 67t51.5 69h-366q-61 0 -100 -11.5t-62 -29t-35 -39
t-19 -41.5l-6 -16q-8 -15 -13.5 -37.5t-5.5 -45.5q0 -18 4.5 -32.5t15.5 -20.5q-10 -8 -27.5 -19t-33.5 -31q-10 -13 -18.5 -30.5t-13.5 -30.5l-5 -15q-7 -21 -11 -38.5t-4 -31.5q0 -16 6.5 -27.5t23 -19t43.5 -11t68 -3.5h284q59 0 95.5 7.5t59.5 23t37.5 40.5t29.5 60
l5 15q5 11 9 24.5t6 26.5zM412 347l-20 -57l64 56h494l-5 -5l18 -18l-166 -157h-28q-4 -24 -14 -45h-1l-5 -17q-15 -36 -30 -61.5t-39 -42t-62.5 -24t-99.5 -7.5h-284q-57 0 -89.5 6.5t-47.5 21.5l-8 8q-17 9 -23.5 22.5t-6.5 33.5q0 29 16 74l5 15q6 14 15 33t19 33
q11 14 23 22.5t23 16.5l1 1q1 0 2 1h1q0 1 1 1q-13 19 -13 52q0 26 6 49.5t15 40.5l5 14q7 22 19.5 45t37.5 42t66 31t106 12h392q-1 -3 -3 -5l18 -18q-30 -45 -61.5 -84t-66.5 -74h-247q-4 0 -13 -4t-13 -12h-1zM485 150q1 0 9.5 5t15.5 10v1q2 2 2.5 3t1.5 2v1h-166
l-8 -22h145z" />
    <glyph glyph-name="FL0027h" unicode="'" horiz-adv-x="205" 
d="M210 467l-13 -37q-3 -14 -3 -34t5.5 -38t21.5 -18h8q7 0 21 9.5t28 23t26.5 29t17.5 28.5l13 37q4 7 4 23q0 18 -11.5 29.5t-32.5 11.5q-26 0 -50.5 -19t-34.5 -45zM182 432l15 40q11 30 39 51.5t59 21.5q39 0 53 -30l8 -8q14 -14 14 -37q0 -19 -6 -29l-12 -35
q-5 -14 -18.5 -31t-29.5 -31.5t-31.5 -24.5t-23.5 -10h-8q-13 0 -22 9l-10 10q-17 6 -23 26t-6 42q0 12 0.5 21.5t1.5 14.5z" />
    <glyph glyph-name="FL0028h" unicode="(" horiz-adv-x="434" 
d="M375 143l11 -11q-6 5 -11 11zM117 207v-3q0 -69 25.5 -114t63.5 -74q23 -22 49.5 -37t53 -24.5t50 -15t40.5 -8.5l9 18q14 30 27.5 60.5t13.5 49.5v9q-4 5 -8 9l-9 9v3q-5 7 -11.5 13t-13.5 13h1q-11 10 -22.5 21t-22.5 23q-16 22 -16 41v1q0 5 5 20t10 29l8 24
q6 16 16 35t23 36t27.5 28.5t29.5 11.5h20q42 35 75.5 73.5t68.5 83.5l-18 18q1 1 1.5 2t2.5 3h-199q-37 0 -73 -17t-69.5 -46t-62 -66t-50 -76.5t-33.5 -79t-12 -73.5zM131 204v2v1q0 32 11.5 70t31.5 76.5t47.5 74t59 63t66.5 44t70 16.5h170q-29 -38 -58.5 -71.5
t-65.5 -63.5h-17q-17 0 -33 -12t-30.5 -30t-25.5 -38.5t-17 -37.5l-8 -24q-5 -14 -10.5 -30.5t-5.5 -22.5v-1q0 -20 13.5 -40t30.5 -38t34 -33t24 -24v-6q0 -9 -4.5 -22.5t-11 -29.5t-14.5 -32.5t-15 -31.5q-17 3 -41.5 9t-51.5 17t-53.5 28t-48 43t-34.5 61.5t-13 82.5z
" />
    <glyph glyph-name="FL0029h" unicode=")" horiz-adv-x="433" 
d="M202 409l9 -9q4 -2 7.5 -5t8.5 -6q23 -20 42.5 -45.5t20.5 -48.5q-1 -5 -6 -21.5t-10 -32.5q0 -1 -0.5 -1.5t-0.5 -1.5l-6 -17q-6 -15 -16 -34t-22.5 -35.5t-26.5 -28t-28 -11.5h-21q-43 -36 -78 -75.5t-70 -87.5h9l17 -17h193q36 0 72 17t69 45.5t61.5 65t49 76t32.5 79
t12 72.5v4q0 54 -16 92t-42 66q-23 31 -53.5 52t-61.5 34.5t-59.5 20.5t-47.5 10q-9 -16 -18.5 -35.5t-17 -38t-12 -35t-4.5 -25.5v-14q3 -2 6.5 -4.5t7.5 -4.5zM489 311v-3v-1q0 -32 -11.5 -70t-31.5 -76.5t-47 -74t-59 -63t-66.5 -44t-69.5 -16.5h-170q29 38 58 71.5
t65 63.5h17q16 0 32 12t30.5 30t26 38.5t17.5 37.5l6 17q6 17 11.5 36t6.5 25q0 19 -10.5 38.5t-26 37.5t-33 32.5t-32.5 23.5v6q0 8 4 22.5t11 31.5t15 34t16 31q16 -3 40.5 -9t51.5 -16.5t53.5 -28t47.5 -43t34.5 -61t13.5 -82.5z" />
    <glyph glyph-name="FL0419h" unicode="*" horiz-adv-x="270" 
d="M294 446l7 -48l87 53l-24 35l56 9v77l-52 -23l24 46h-87l-12 -46l-29 25l-53 -77l42 -11l-48 -33l47 -55zM290 374l-1 7l-17 -19l-18 18l-2 -2l-67 78l24 17l-12 12l-9 3l73 106l24 -21l9 36h121l-3 -6l13 -13l9 4v-8l17 -17v-104l-48 -8l20 -29l-111 -68l-17 17z" />
    <glyph glyph-name="FL002Bh" unicode="+" horiz-adv-x="485" 
d="M249 195l-35 -97h135l35 97h48l143 135h-142l38 103h-135l-38 -103h-54l-143 -135h148zM195 84l28 80h-130l-17 17h-10l172 163h50l39 103h164l-2 -5l18 -18l-30 -80h133l-5 -5l18 -18l-166 -157h-46l-35 -97h-157l-17 17h-7z" />
    <glyph glyph-name="FL002Ch" unicode="," horiz-adv-x="232" 
d="M65 70l-15 -42q-1 -1 -1 -14v-15q0 -12 1.5 -24.5t5 -23t10.5 -17t18 -6.5h9q9 0 25.5 10.5t33.5 25.5t31 32.5t19 31.5l15 42q5 20 5 24q0 20 -14.5 33.5t-40.5 13.5q-32 0 -61 -21t-41 -50zM37 33l15 42q14 33 46 56.5t69 23.5q24 0 40 -9.5t23 -25.5l7 -6
q16 -16 16 -40q0 -9 -6 -28l-15 -42q-5 -15 -20.5 -33.5t-34 -35t-36.5 -27.5t-28 -11h-9q-16 0 -27 11l-9 9q-20 8 -26.5 33t-6.5 49v15v10q0 3 2 9z" />
    <glyph glyph-name="FL002Dh" unicode="-" horiz-adv-x="385" 
d="M505 339l5 5h-272l-172 -163h10l17 -17h264l166 157zM475 330l-143 -135h-231l143 135h231z" />
    <glyph glyph-name="FL002Eh" unicode="." horiz-adv-x="232" 
d="M47 47q0 -40 31 -53l7 -7q18 -18 51 -18q17 0 35 6t32 16q23 17 36.5 40t13.5 43q0 24 -16 40l-7 6q-7 16 -23 25.5t-40 9.5q-18 0 -35.5 -6t-32.5 -16.5t-27 -25t-19 -30.5q-6 -11 -6 -30zM65 70q12 29 41 50t61 21q26 0 40.5 -13.5t14.5 -33.5q0 -17 -12 -38t-33 -36
q-13 -9 -29 -14.5t-32 -5.5q-26 0 -40.5 13t-14.5 34q0 16 4 23z" />
    <glyph glyph-name="FL002Fh" unicode="/" horiz-adv-x="681" 
d="M30 0h213l601 530h-214zM21 -31l-17 17h-11l632 558h256l-6 -5l18 -18l-626 -552h-246z" />
    <glyph glyph-name="FL0030h" unicode="0" horiz-adv-x="745" 
d="M347 224v7h-1l2 5q1 14 12 37h1q8 16 22.5 32.5t31 29.5t33.5 21t32 8h81q19 0 33 -6q8 -11 10.5 -24t2.5 -27q0 -18 -1.5 -24t-2.5 -16l-4 -11q-1 -2 -3.5 -7.5t-7.5 -13.5q-8 -15 -23.5 -30.5t-33 -28t-34.5 -20t-27 -7.5h-66q-22 0 -41 18q-16 25 -16 57zM401 -31h100
q62 0 119.5 27.5t104 70.5t77 95.5t38.5 102.5q2 15 3.5 29t1.5 28q0 83 -46 129q-31 49 -91 71t-139 22h-132q-56 0 -110 -28t-99 -71.5t-75.5 -96.5t-37.5 -103q-2 -14 -3 -27.5t-1 -26.5q0 -60 20 -99.5t56 -62.5q35 -34 90 -47t124 -13zM317 257q-1 -1 -1 -7v-6
q0 -18 7 -37.5t19 -35.5t28 -26t34 -10h66q12 0 30.5 8.5t38 22.5t37 31.5t26.5 34.5q9 14 11 22l4 10l1.5 7.5t0.5 1.5q1 8 1.5 16.5t0.5 17.5q0 16 -3 32t-12 28.5t-24.5 20t-40.5 7.5h-81q-16 0 -34.5 -8.5t-36.5 -22.5t-33.5 -31.5t-24.5 -34.5q-5 -12 -9 -22.5
t-5 -18.5zM809 287q-7 -48 -37 -99t-74.5 -93t-100.5 -68.5t-116 -26.5h-100q-55 0 -102 9t-81 30.5t-53.5 58.5t-19.5 93q0 12 1 25t3 27q7 48 36 99t72 93t95 68.5t105 26.5h132q54 0 99 -10.5t77.5 -33t50.5 -58.5t18 -86q0 -13 -1.5 -26.5t-3.5 -28.5z" />
    <glyph glyph-name="FL0031h" unicode="1" horiz-adv-x="349" 
d="M519 539l2 5h-229q-15 -9 -36 -31t-41 -46t-34.5 -43.5t-15.5 -23.5v-19h6l17 -17h47l-137 -378h7l17 -17h214l201 552zM502 530l-193 -530h-192l144 395h-82v1q1 4 14.5 22t32 40t38 42.5t33.5 29.5h205z" />
    <glyph glyph-name="FL0032h" unicode="2" horiz-adv-x="685" 
d="M277 141l19 33q6 8 14 14.5t16 6.5h200q29 0 64.5 15t70 38.5t64 51t47.5 52.5q16 23 24.5 49.5t8.5 52.5q0 32 -14.5 54t-45.5 22h-442q-14 -14 -30 -30.5t-32.5 -34.5t-31 -36.5t-24.5 -34.5h398q9 0 9 -12q0 -17 -10 -27l-4 -5q0 -1 -6 -4.5t-10 -5.5q-7 -4 -19 -9.5
t-13 -5.5h-190q-26 0 -60 -15.5t-67 -39t-62 -50.5t-45 -49q-18 -26 -28 -54t-10 -53q0 -27 13.5 -45.5t42.5 -18.5h455q16 15 35.5 38t37 44t29.5 36.5l12 15.5h-405q-11 0 -11 7zM186 363l-17 17h-9q31 49 69 91.5t68 72.5h448q23 0 38 -9.5t23 -25.5l7 -6
q12 -12 17.5 -30t5.5 -39q0 -58 -35 -108q-19 -26 -49.5 -54.5t-66 -52.5t-72 -39.5t-67.5 -15.5h-200q-5 0 -10.5 -4.5t-10.5 -10.5h1l-1 -1h382l-2 -4l19 -19q0 -1 -12.5 -19.5t-31 -43.5t-39.5 -51t-37 -42h-460q-30 0 -47 17l-7 7q-19 9 -27.5 28t-8.5 43q0 26 10.5 56
t30.5 59q16 23 46 51t65 52t70.5 40.5t63.5 16.5h189q11 5 14.5 7t11.5 7v-1l1 1q1 0 2 1l-1 -1l1 1q1 0 2 1q2 2 5 2l5 6h-384z" />
    <glyph glyph-name="FL0033h" unicode="3" horiz-adv-x="695" 
d="M468 150h-332q-30 -31 -52 -61t-44 -63l-26 -40h9l17 -17h461q61 0 99.5 8t62.5 24.5t39 42.5t31 63l4 11q5 14 11 33t6 35q-1 18 -7 28t-12 18h-1q14 9 27 23t23 31.5t16 36.5t6 38v2q0 30 -12 67.5t-38 63.5l-1 1q-14 21 -34.5 35t-46.5 14h-391q-34 -36 -63 -77.5
t-57 -86.5h9l17 -17h378l-1 -2q-1 -3 -4 -11.5t-4 -8.5h-165l-186 -163h11l17 -17h252q-7 -5 -12.5 -8t-6.5 -3zM142 136h326l5 2.5t11 6l12 7t9 6.5l1.5 2t2.5 3l2 5q2 3 2.5 10t0.5 14h-270l154 135h160q1 0 4.5 4.5t7.5 10.5t7.5 11.5t4.5 8.5l2 5q-1 1 -1.5 3l-0.5 2
q-3 5 -10.5 13.5t-9.5 8.5h-374q22 35 46 69.5t55 66.5h385q26 0 45 -15.5t31.5 -38t18.5 -48t6 -45.5v-2q0 -19 -6.5 -38.5t-17.5 -37t-25 -30.5t-28 -19q4 -8 14 -19t11 -31q0 -14 -5.5 -32.5t-10.5 -31.5l-4 -11q-15 -35 -29.5 -60t-37.5 -40.5t-59.5 -23t-95.5 -7.5
h-441q26 38 50 72.5t52 63.5z" />
    <glyph glyph-name="FL0034h" unicode="4" horiz-adv-x="678" 
d="M446 0h192l193 530h-192l-75 -205h-216l75 205h-190l-124 -340h341l103 104zM458 521l-66 -182h162l76 205h220l-2 -5l18 -18l-201 -552h-214l-17 17h-7l70 195l-22 -22h-361l-17 17h-7l134 368h218l-2 -5z" />
    <glyph glyph-name="FL0035h" unicode="5" horiz-adv-x="678" 
d="M482 148h-334q-5 0 -23 -21t-39 -48.5t-40 -54t-25 -38.5h8l17 -17h528q29 0 56.5 17.5t48.5 44t34 58t13 59.5v4q0 28 -14.5 62t-37.5 60q-18 27 -43.5 46t-56.5 19h-188l9 24h341q38 35 71 75t63 83l-18 17q2 2 2 3t2 3h-637l-70 -189q0 -1 -0.5 -1.5l-0.5 -0.5
q-1 -3 -1 -19q0 -35 23.5 -70t55.5 -58q20 -19 43.5 -30.5t44.5 -11.5h178q-5 -11 -10 -16zM148 134h340q20 20 20 40q0 8 -3 14.5t-11 6.5h-200q-21 0 -44.5 12.5t-43 32.5t-32.5 45t-13 49q0 5 0.5 9.5t1.5 9.5l65 177h601q-23 -34 -52.5 -68t-65.5 -68h-343l-14 -39v-5
q0 -1 4 -4.5t6 -5.5q4 -4 11.5 -9.5t8.5 -5.5h190q26 0 48 -15.5t38.5 -38.5t25.5 -50t9 -49v-4q0 -26 -12 -55.5t-31.5 -54.5t-45 -41.5t-52.5 -16.5h-510q5 10 20.5 32t33 44.5t32.5 40t18 17.5z" />
    <glyph glyph-name="FL0036h" unicode="6" horiz-adv-x="660" 
d="M388 172h94l-15 -22h-49q-13 0 -24 11q-1 2 -2.5 4.5t-3.5 6.5zM450 364h263q42 35 75.5 73.5t67.5 83.5l-18 18q1 1 1.5 2t2.5 3h-442q-56 0 -105.5 -27.5t-87.5 -71t-60 -96.5t-22 -104v-2q0 -69 24 -116t66 -76q24 -23 55.5 -39t67.5 -25.5t74.5 -13.5t77.5 -4
t75.5 18t67.5 46.5t55 65t38 72.5l1 1q6 27 6 49q0 44 -25 69l-3 2q-19 39 -82 52h-216q10 9 20.5 14.5t22.5 5.5zM471 203h-123l6 -9q14 -23 28.5 -40.5t35.5 -17.5h58l25 38q-3 9 -7 17.5t-23 11.5zM696 195q-13 -35 -36 -70t-53 -63t-65 -45t-72 -17q-62 0 -121 11
t-106 38.5t-75.5 74.5t-28.5 119v2q0 48 21 99t57 92t83 67.5t100 26.5h413q-29 -38 -58.5 -71.5t-64.5 -63.5h-260q-25 0 -46 -19.5t-36 -45.5h272q45 -9 63.5 -31.5t18.5 -57.5q0 -21 -6 -46z" />
    <glyph glyph-name="FL0037h" unicode="7" horiz-adv-x="635" 
d="M171 381l17 -17h210l-363 -378h10l17 -17h233l550 552l-18 18l5 5h-540q-15 -9 -36 -31t-41 -46t-34.5 -43.5t-15.5 -23.5v-19h6zM270 0h-202l380 395h-269v1q1 4 14.5 22t32 40t38 42.5t33.5 29.5h501z" />
    <glyph glyph-name="FL0038h" unicode="8" horiz-adv-x="726" 
d="M340 150l8 22h180v-1q-1 -1 -1.5 -2t-2.5 -3v-1q-7 -5 -15.5 -10t-9.5 -5h-159zM392 290l20 57h1q4 8 13 12t13 4h159q-2 -5 -4 -11l-2 -6h-136zM152 310q0 -33 13 -52q-1 0 -1 -1h-1q-1 -1 -2 -1l-1 -1q-11 -8 -23 -16.5t-23 -22.5q-10 -14 -19 -33t-15 -33l-5 -15
q-16 -45 -16 -74q0 -20 6.5 -33.5t23.5 -22.5l8 -8q15 -15 47.5 -21.5t89.5 -6.5h298q61 0 99.5 8t62.5 24.5t39 42.5t31 63l7 20q5 13 9.5 28.5t4.5 27.5v3q-1 18 -7 28t-12 18h-1q20 13 36.5 35t25.5 48q10 23 10 43v14q0 14 -3 30t-9 32.5t-14.5 31.5t-20.5 27h-1
q-14 22 -35 36.5t-49 14.5h-298q-65 0 -106 -12t-66 -31t-37.5 -42t-19.5 -45l-5 -14q-9 -17 -15 -40.5t-6 -49.5zM325 136h174l5 2.5t11 6l12 7t9 6.5l1.5 2t2.5 3l2 5q2 3 6 15.5t4 19.5h-231l-14 -37l1 -2q0 -1 -0.5 -1.5t-0.5 -1.5l-1 -3q3 -5 10 -13.5t9 -8.5zM383 372
l-56 -156l134 116h131q3 0 11 12t10 18v10q-3 5 -10 13t-10 9h-174q-5 0 -18 -5.5t-18 -16.5zM185 393l6 16q7 20 19 41.5t35 39t62 29t100 11.5h298q25 0 44 -14t32 -34.5t19 -44.5t6 -45v-14q0 -17 -9 -39q-10 -28 -28.5 -51t-39.5 -32q4 -8 14 -19t11 -31v-3
q0 -11 -4 -25.5t-9 -26.5l-7 -20q-15 -35 -29.5 -60t-37.5 -40.5t-59.5 -23t-95.5 -7.5h-298q-41 0 -68 3.5t-43.5 11t-23 19t-6.5 27.5q0 14 4 31.5t11 38.5l5 15q5 13 13.5 30.5t18.5 30.5q16 20 33.5 31t27.5 19q-11 6 -15.5 20.5t-4.5 32.5q0 23 5.5 45.5t13.5 37.5z
" />
    <glyph glyph-name="FL0039h" unicode="9" horiz-adv-x="660" 
d="M402 363h52q2 0 10 -2q3 -5 6.5 -10t7.5 -10h-90zM144 340l-1 -1q-6 -26 -6 -50q0 -30 10.5 -52t35.5 -36l2 -1q22 -22 66 -31h212q-20 -20 -40 -20h-264q-42 -35 -77.5 -75t-70.5 -88h9l17 -17h436q53 0 102 27.5t86.5 70t60 95t22.5 102.5v3q0 69 -11 115.5t-40 75.5
h-1h1l-1 1v-1q-32 48 -102.5 67t-198.5 19h-8q-39 0 -76.5 -18t-69 -47.5t-56 -66t-37.5 -72.5zM382 327h123l-5 7q-14 23 -29 41.5t-37 18.5h-58l-24 -38q3 -9 6.5 -17.5t23.5 -11.5zM157 335q13 35 36 70t53 62.5t65 45t72 17.5h8q100 0 163 -11.5t98 -39t48 -74.5
t13 -118v-3q0 -48 -21.5 -98.5t-57.5 -91.5t-83 -67.5t-98 -26.5h-413q29 38 58.5 71.5t64.5 63.5h260q25 0 46 19.5t36 45.5h-272q-45 9 -63.5 31.5t-18.5 57.5q0 20 6 46z" />
    <glyph glyph-name="FL003Ah" unicode=":" horiz-adv-x="233" 
d="M48 47q0 -40 31 -53l7 -7q18 -18 51 -18q17 0 35 6t32 16q23 17 36.5 40t13.5 43q0 24 -16 40l-3 2l1 -1q1 0 2 -1l-7 6q-7 16 -23 25.5t-40 9.5q-18 0 -35.5 -6t-32.5 -16.5t-27 -25t-19 -30.5q-6 -11 -6 -30zM142 308q0 -39 31 -54l7 -6q18 -18 51 -18q17 0 35 6t32 16
q23 17 36.5 40t13.5 43q0 24 -16 40l-7 6q-7 16 -23 25.5t-40 9.5q-37 0 -69 -23t-46 -56q-5 -10 -5 -29zM160 331q12 29 41 50t61 21q26 0 40.5 -13.5t14.5 -33.5q0 -17 -12 -38t-33 -36q-13 -9 -29 -14.5t-32 -5.5q-26 0 -40.5 13t-14.5 34q0 16 4 23zM66 70q12 29 41 50
t61 21q26 0 40.5 -13.5t14.5 -33.5q0 -17 -12 -38t-33 -36q-13 -9 -29 -14.5t-32 -5.5q-26 0 -40.5 13t-14.5 34q0 16 4 23z" />
    <glyph glyph-name="FL003Bh" unicode=";" horiz-adv-x="233" 
d="M65 70l-15 -42q-1 -1 -1 -14v-15q0 -12 1.5 -24.5t5 -23t10.5 -17t18 -6.5h9q9 0 25.5 10.5t33.5 25.5t31 32.5t19 31.5l15 42q5 20 5 24q0 20 -14.5 33.5t-40.5 13.5q-32 0 -61 -21t-41 -50zM160 331q-4 -7 -4 -23q0 -21 14.5 -34t40.5 -13q24 0 47 12t38 30
q11 13 16 28t5 24q0 20 -14.5 33.5t-40.5 13.5q-32 0 -61 -21t-41 -50zM37 33l15 42q14 33 46 56.5t69 23.5q24 0 40 -9.5t23 -25.5l7 -6q-1 1 -2 1l-1 1l3 -2q16 -16 16 -40q0 -9 -6 -28l-15 -42q-5 -15 -20.5 -33.5t-34 -35t-36.5 -27.5t-28 -11h-9q-16 0 -27 11l-9 9
q-20 8 -26.5 33t-6.5 49v15v10q0 3 2 9zM142 308q0 19 6 30q7 16 19 30.5t27 25t32.5 16.5t35.5 6q24 0 40 -9.5t23 -25.5l7 -6q16 -16 16 -40q0 -11 -5.5 -28t-18.5 -31q-17 -20 -42 -33t-51 -13q-33 0 -51 18l-7 6q-31 15 -31 54z" />
    <glyph glyph-name="FL003Ch" unicode="&#x3c;" horiz-adv-x="478" 
d="M231 -14l17 -17h236l-110 274l315 278l-18 18l6 5h-256l-311 -274l116 -284h5zM448 0h-213l-108 266l299 264h214l-299 -264z" />
    <glyph glyph-name="FL003Dh" unicode="=" horiz-adv-x="456" 
d="M611 433l5 5h-343l-172 -163h10l17 -17h335l166 157zM543 246l5 5h-343l-172 -163h10l17 -17h335l166 157zM513 237l-143 -135h-302l143 135h302zM581 424l-143 -135h-302l143 135h302z" />
    <glyph glyph-name="FL003Eh" unicode="&#x3e;" horiz-adv-x="478" 
d="M30 0h213l302 266l-107 264h-214l107 -264zM22 -31l-17 17h-11l320 284l-111 274h244l3 -9l15 -14l113 -278l-311 -274h-245z" />
    <glyph glyph-name="FL003Fh" unicode="?" horiz-adv-x="678" 
d="M86 47q0 -40 31 -53l7 -7q18 -18 51 -18q17 0 35 6t32 16q23 17 36.5 40t13.5 43q0 24 -16 40l-3 2l1 -1q1 0 2 -1l-7 6q-5 11 -14 19h82v7q4 5 16.5 11.5t36.5 6.5h149q31 0 67.5 15.5t72 39.5t66 52.5t49.5 54.5q35 47 35 107q0 22 -5.5 40t-17.5 30l-3 2l1 -1
q1 0 2 -1l-5 5q-17 36 -63 36h-448q-30 -30 -68 -72.5t-69 -91.5h9l17 -17h384l-5 -6q-2 0 -6 -3q-1 -1 -2 -1l1 1q-1 -1 -2 -1l-1 -1v1q-8 -5 -11.5 -7t-14.5 -7h-138q-28 0 -65 -18.5t-74 -46t-69.5 -59.5t-51.5 -59h9l16 -17q-19 -11 -34 -27t-23 -35q-6 -11 -6 -30z
M104 70q12 29 41 50t61 21q26 0 40.5 -13.5t14.5 -33.5q0 -17 -12 -38t-33 -36q-13 -9 -29 -14.5t-32 -5.5q-26 0 -40.5 13t-14.5 34q0 16 4 23zM306 170h-155q16 23 44.5 50t61.5 50.5t67 39t60 15.5h139q1 0 13 5.5t19 9.5q4 2 10 5.5t6 4.5l4 5q10 10 10 27q0 12 -9 12
h-398q10 16 24.5 34.5t31 36.5t32.5 34.5t30 30.5h442q32 0 46 -22.5t14 -54.5q0 -26 -8.5 -52.5t-24.5 -48.5q-18 -25 -47.5 -52.5t-64 -51t-70 -38.5t-64.5 -15h-149q-32 0 -47 -10.5t-17 -13.5v-1z" />
    <glyph glyph-name="FL0040h" unicode="@" horiz-adv-x="775" 
d="M461 270q4 10 12.5 16.5t18.5 6.5q16 0 16 -14q0 1 -0.5 -1.5l-1.5 -7.5q-3 -10 -12 -16.5t-19 -6.5q-15 0 -15 15q0 7 1 8zM383 275q-1 -1 -1 -12v-11q0 -33 14.5 -56t56.5 -28h170q82 0 135.5 22t77.5 88q14 45 14 82v3q0 47 -14 78.5t-36.5 51.5t-51 30.5t-56.5 16
t-53 7.5t-42 5h-181q-41 0 -81.5 -22.5t-76.5 -59t-64.5 -81.5t-44.5 -90q-19 -47 -19 -93v-2q0 -47 13 -82.5t34.5 -61.5t48 -43t53.5 -28t51.5 -17t41.5 -9h87q20 57 29.5 83t9.5 30h-6q-16 0 -40.5 2.5t-34.5 6.5q-7 9 -24 24t-34 33t-30.5 38t-13.5 40v1q0 5 8 27.5
t16 49.5q6 17 17.5 37.5t25.5 38.5t30.5 30t32.5 12h128q42 -7 65.5 -29t23.5 -54q0 -22 -7 -35q-8 -21 -27.5 -27.5t-46.5 -6.5h-13q2 2 2.5 4.5t2.5 5.5q2 11 3.5 18t1.5 11q0 26 -16 44.5t-46 18.5q-19 0 -40 -8t-39.5 -20.5t-33 -29t-20.5 -33.5zM368 263v4
q-3 -9 -6.5 -17t-5.5 -16l-7 -21t-3 -12v-1q0 -19 16 -41q11 -12 22.5 -23t22.5 -21h-1q5 -5 9.5 -9t8.5 -9q10 -4 32 -5.5t36 -1.5h20v-6l17 -17q0 -15 -5.5 -31t-17.5 -50q-4 -10 -9.5 -25t-10.5 -29h-96q-16 3 -37.5 8t-45.5 13.5t-48.5 21.5t-46.5 33q-40 29 -68 75.5
t-28 120.5v2q0 47 20 98q16 46 46 93t67.5 84.5t80.5 61t86 23.5h184q8 -2 16 -2.5t16 -1.5q23 -3 51 -7t55.5 -13t53 -25t43.5 -43q20 -21 33 -53t13 -78v-3q0 -41 -15 -86q-13 -35 -33.5 -58t-48.5 -36t-63.5 -18t-77.5 -5h-171q-20 2 -34 8.5t-24 15.5l-6 6
q-23 13 -31.5 34.5t-8.5 50.5v11zM465 385q-11 0 -22.5 -7t-22.5 -18.5t-21 -26t-17 -28.5q10 15 26 28.5t34 24t37.5 16.5t36.5 6q25 0 42 -11t25 -28l5 -4q21 -20 21 -54v-3q26 5 34 26q5 12 5 27q0 21 -12 36q-9 6 -20.5 10t-24.5 6h-126zM388 128l6 -6v1zM421 94
q-1 1 -1.5 2t-1.5 2l3 -3v-1zM445 72l-2 1h-1v1z" />
    <glyph glyph-name="FL0041h" unicode="A" 
d="M510 296l23 -148h-134zM21 -14l17 -17h439q4 2 12.5 9t18.5 17.5t20.5 23t19.5 24.5l11 -57h6l17 -17h200l-68 445q-3 10 -6.5 23.5t-8 27t-10.5 26t-14 20.5l-6 5q-7 12 -16 20t-21 8h-168q-8 0 -20 -7.5t-24 -18t-22 -21.5t-15 -18l-1 -1l-342 -438q-1 1 -3 1
q-8 0 -15 -24l-2 -2v-4q-2 -6 -3 -12t-3 -13h7zM515 369l-168 -225v-10h203zM683 429l66 -429h-178l-21 113q-2 -6 -14.5 -23t-28 -36t-30.5 -35t-22 -19h-423q1 5 1.5 7t0.5 0v3l360 460q3 6 12 16t19.5 19.5t21 17t17.5 7.5h168q10 0 18.5 -11t14.5 -27t10.5 -33.5
t7.5 -29.5z" />
    <glyph glyph-name="FL0042h" unicode="B" horiz-adv-x="713" 
d="M325 150l9 22h180q-1 -3 -3 -7q-7 -5 -15.5 -10t-9.5 -5h-161zM386 319l16 44h183l-1 -2q-1 -3 -4 -11.5t-4 -8.5h-165zM224 544l-203 -558h7l17 -17h474q55 0 92.5 8t63 24.5t43 42.5t33.5 63l4 11q6 14 11 29t5 30q-1 18 -7.5 33.5t-15.5 26.5q13 9 26.5 22.5t24.5 30
t18 35t7 36.5v2q0 39 -8.5 74t-30.5 57l-2 1q1 -1 2 -1l-2 2q-14 22 -35.5 35t-55.5 13h-468zM307 203l-26 -67h205l5 2.5t11 6l12 7t9 6.5l4 7.5t5 8.5l2 5q2 3 2.5 10t0.5 14h-230zM375 394l-55 -152l96 85h160q1 0 4.5 4.5t7.5 10.5t7.5 11.5t4.5 8.5l2 5q-1 1 -1.5 3
l-0.5 2q-3 5 -10.5 13.5t-9.5 8.5h-205zM40 0l193 530h459q30 0 49.5 -12.5t31 -32.5t16 -47t4.5 -55v-2q0 -20 -8.5 -39t-21 -35.5t-27 -29t-26.5 -18.5q11 -9 20 -25.5t10 -36.5q0 -14 -5 -28t-10 -27l-4 -11q-15 -35 -31.5 -60t-41.5 -40.5t-60.5 -23t-88.5 -7.5h-459z
" />
    <glyph glyph-name="FL0043h" unicode="C" horiz-adv-x="655" 
d="M125 245v-2q0 -69 24 -116t66 -76q24 -23 55.5 -39t67.5 -25.5t74.5 -13.5t77.5 -4h84q42 32 75 73.5t61 83.5l-18 18q2 2 3 5h-265q-13 0 -26.5 7.5t-25.5 20.5q-10 14 -16 30t-6 30q0 9 8 38h-1q6 16 16 32t22 28.5t24.5 20.5t24.5 8h263q42 35 75.5 73.5t67.5 83.5
l-18 18q1 1 1.5 2t2.5 3h-442q-56 0 -105.5 -27.5t-87.5 -71t-60 -96.5t-22 -104zM139 243v2q0 48 21 99t57 92t83 67.5t100 26.5h413q-29 -38 -58.5 -71.5t-64.5 -63.5h-260q-13 0 -27.5 -8.5t-28 -22.5t-24.5 -31.5t-17 -34.5q-8 -29 -8 -41q0 -19 10 -40.5t25.5 -39.5
t34 -30t35.5 -12h239q-23 -34 -52 -69.5t-67 -65.5h-80q-62 0 -121 11t-106 38.5t-75.5 74.5t-28.5 119z" />
    <glyph glyph-name="FL0044h" unicode="D" horiz-adv-x="682" 
d="M283 135l95 260h162q19 0 26.5 -11.5t7.5 -28.5q0 -13 -6.5 -28t-12.5 -31q-5 -13 -13 -23t-13 -18q-14 -22 -41 -43.5t-59 -38.5t-64 -27.5t-56 -10.5h-26zM721 241q31 42 46 87.5t15 84.5q0 51 -27 84t-87 33h-435l-193 -530h249q78 0 140 13.5t113 42.5t94.5 74.5
t84.5 110.5zM45 -31l-17 17h-7l203 558h444q42 0 68 -14t41 -38l3 -3q17 -17 25 -42t8 -54q0 -42 -15.5 -87.5t-47.5 -90.5q-42 -66 -86 -113t-96.5 -76.5t-115.5 -43t-143 -13.5h-264zM405 364l-78 -214q23 3 51 13.5t54.5 26t48.5 34t34 36.5q1 1 2.5 3t2.5 3l6 10l1 1
l8 12t7 12l6 15q5 11 8.5 21t3.5 18q0 7 -1 9h-154z" />
    <glyph glyph-name="FL0045h" unicode="E" horiz-adv-x="649" 
d="M224 544l-203 -558h7l17 -17h518q1 0 13.5 10t29 25t33 31.5t26.5 29.5q1 1 6 9.5t11 19t11.5 20t7.5 12.5l-18 17q2 2 2 3q0 2 1 3h-362l5 15h197l166 157l-18 18l5 5h-272l-19 -19l14 39h301q9 0 29 18.5t41.5 44t40.5 52t27 42.5l-18 18q2 2 3 5h-602zM40 0l193 530
h570q-7 -14 -23.5 -36.5t-35 -44.5t-36 -38t-25.5 -16h-308l-57 -157l95 92h231l-143 -135h-199l-22 -60h383q-1 -2 -5 -8.5t-8 -13.5t-8 -13t-5 -7q-9 -12 -24.5 -28t-30.5 -30.5t-26.5 -24.5t-12.5 -10h-503z" />
    <glyph glyph-name="FL0046h" unicode="F" horiz-adv-x="645" 
d="M224 544l-203 -558h7l17 -17h213l71 195h197l166 157l-18 18l5 5h-272l-19 -19l14 39h301q9 0 29 18.5t41.5 44t40.5 52t27 42.5l-18 18q2 2 3 5h-602zM40 0l193 530h570q-7 -14 -23.5 -36.5t-35 -44.5t-36 -38t-25.5 -16h-308l-57 -157l95 92h231l-143 -135h-199
l-71 -195h-191z" />
    <glyph glyph-name="FL0047h" unicode="G" horiz-adv-x="664" 
d="M619 0l125 330h-240q-14 -11 -31.5 -31.5t-33.5 -41t-27.5 -37t-12.5 -19.5v-1h113l-23 -65h-59q-18 0 -36.5 12t-34 30t-25 39.5t-9.5 40.5q0 12 8 41q6 17 16 34.5t22.5 31.5t27.5 22.5t31 8.5h260q35 30 64.5 63.5t58.5 71.5h-413q-53 0 -100 -26.5t-83 -68.5t-57 -93
t-21 -99q0 -72 28.5 -119t75.5 -74.5t106 -38.5t121 -11h149zM765 344l-2 -6l17 -17l-134 -352h-156q-39 0 -77.5 4t-74.5 13.5t-67.5 25.5t-55.5 39q-42 29 -66 76t-24 116q0 51 22 104t60 97t87.5 72t105.5 28h442q-2 -2 -2.5 -3t-1.5 -2l18 -18q-34 -45 -67.5 -83.5
t-75.5 -73.5h-263q-14 0 -27.5 -8t-24.5 -20.5t-20 -28.5t-15 -32h1q-8 -29 -8 -38q0 -30 19 -58q25 -30 55 -30h49l7 20h-78l-17 17h-6v17q1 4 13.5 22t29.5 40.5t36.5 44.5t34.5 34h266zM384 165l-4 4q1 -1 1.5 -2t2.5 -2z" />
    <glyph glyph-name="FL0048h" unicode="H" horiz-adv-x="678" 
d="M385 315l75 206l-18 18l2 5h-220l-203 -558h7l17 -17h214l69 190h163l-62 -173h7l17 -17h212l201 552l-18 18l2 5h-218l-76 -205h-148zM232 0h-192l193 530h192l-113 -310l102 105h152l75 205h190l-193 -530h-190l69 190h-216z" />
    <glyph glyph-name="FL0049h" unicode="I" horiz-adv-x="640" 
d="M509 149l78 215h111q9 0 29 18.5t41.5 44t40.5 52t27 42.5l-18 18q2 2 3 5h-529q-15 -9 -36 -31t-41 -46t-34.5 -43.5t-15.5 -23.5v-19h6l17 -17h154l-79 -215h-115q-15 -9 -36 -31t-41 -46t-34.5 -43.5t-15.5 -23.5v-19h6l17 -17h510q9 0 29 18.5t41.5 44t40.5 52
t27 42.5l-18 18q2 2 3 5h-168zM534 0h-499v1q1 4 14.5 22t32 40t38 42.5t33.5 29.5h120l95 260h-189v1q1 4 14.5 22t32 40t38 42.5t33.5 29.5h501q-7 -14 -23.5 -36.5t-35 -44.5t-36 -38t-25.5 -16h-118l-95 -260h189q-7 -14 -23.5 -36.5t-35 -44.5t-36 -38t-25.5 -16z" />
    <glyph glyph-name="FL004Ah" unicode="J" horiz-adv-x="597" 
d="M19 -14l17 -17h355q67 0 112 18t77 52.5t55.5 85t47.5 116.5l102 280l-18 18l2 5h-218l-111 -304q-7 -13 -17.5 -29t-24 -29.5t-29 -23t-31.5 -9.5h-208q-37 -37 -65 -77.5t-55 -85.5h9zM371 0h-29h-307q21 35 45 69t56 66h202q19 0 37 10t32.5 25t26 32t18.5 31l108 297
h190l-97 -265q-23 -64 -46 -113.5t-54 -83t-74.5 -51t-107.5 -17.5z" />
    <glyph glyph-name="FL004Bh" unicode="K" horiz-adv-x="722" 
d="M398 351l62 170l-18 18l2 5h-220l-203 -558h7l17 -17h214l81 222l169 -205h4l17 -17h240l-198 273l364 279l-18 18l7 5h-260zM232 0h-192l193 530h192l-87 -238l331 238h214l-346 -265l192 -265h-214l-196 238z" />
    <glyph glyph-name="FL004Ch" unicode="L" horiz-adv-x="584" 
d="M233 530l-193 -530h439q14 11 35 33.5t40 45t31.5 39.5t11.5 17h-317l144 395h-191zM21 -14l203 558h219l-2 -5l18 -18l-135 -372h276v-4q0 -1 -1 -1v-1l18 -17q3 0 -8.5 -19.5t-29.5 -46t-39 -52.5t-37 -39h-458l-17 17h-7z" />
    <glyph glyph-name="FL004Dh" unicode="M" horiz-adv-x="860" 
d="M1030 539l2 5h-266l-221 -239l-41 216l-16 15l-1 8h-263l-203 -558h7l17 -17h214l84 232l40 -215h6l17 -17h82l189 208l-68 -191h7l17 -17h214l201 552zM1013 530l-193 -530h-192l108 298l-272 -298h-69l-55 298l-108 -298h-192l193 530h242l51 -266l245 266h242z" />
    <glyph glyph-name="FL004Eh" unicode="N" horiz-adv-x="678" 
d="M504 521l-16 15l-1 8h-263l-203 -558h7l17 -17h214l84 231l41 -214h6l17 -17h258l201 552l-18 18l2 5h-218l-87 -238zM232 0h-192l193 530h242l57 -298l109 298h190l-193 -530h-242l-56 298z" />
    <glyph glyph-name="FL004Fh" unicode="O" horiz-adv-x="745" 
d="M347 224v7h-1l2 5q1 14 12 37h1q8 16 22.5 32.5t31 29.5t33.5 21t32 8h81q19 0 33 -6q8 -11 10.5 -24t2.5 -27q0 -18 -1.5 -24t-2.5 -16l-4 -11l-3.5 -7t-7.5 -13q-8 -15 -24 -30.5t-34 -28t-34.5 -20.5t-25.5 -8h-66q-22 0 -41 18q-16 25 -16 57zM401 -31h100
q61 0 118 23.5t103 64t77.5 94.5t40.5 114q6 34 6 66q0 79 -44 126q-29 46 -87 66.5t-146 20.5h-132q-55 0 -109 -25t-98.5 -66t-75.5 -95.5t-39 -112.5q-2 -14 -3 -27.5t-1 -26.5q0 -60 20 -99.5t56 -62.5q35 -34 90 -47t124 -13zM317 257q-1 -1 -1 -7v-6q0 -18 7 -37.5
t19 -35.5t28 -26t34 -10h66q10 0 28.5 8.5t38.5 22.5t38 31.5t27 34.5q9 14 11 22l4 10l1.5 7.5t0.5 1.5q1 8 1.5 16.5t0.5 17.5q0 16 -3 32t-12 28.5t-24.5 20t-40.5 7.5h-81q-16 0 -34.5 -8.5t-36.5 -22.5t-33.5 -31.5t-24.5 -34.5q-5 -12 -9 -22.5t-5 -18.5zM809 287
q-9 -59 -39 -111t-74.5 -91t-100 -62t-114.5 -23h-100q-55 0 -102 9t-81 30.5t-53.5 58.5t-19.5 93q0 12 1 25t3 27q8 56 37 108t72 91.5t94.5 63.5t104.5 24h132q121 0 183.5 -41.5t62.5 -137.5q0 -30 -6 -64z" />
    <glyph glyph-name="FL0050h" unicode="P" horiz-adv-x="699" 
d="M386 319l16 44h183l-1 -2q-1 -3 -4 -11.5t-4 -8.5h-165zM28 -14l17 -17h214l70 192h274q36 0 75 15t71.5 42t53.5 64t21 81q0 30 -9.5 67.5t-35.5 63.5l-1 1q-14 21 -34.5 35t-51.5 14h-468l-203 -558h7zM580 394h-205l-55 -152l96 85h160q1 0 4.5 4.5t7.5 10.5t7.5 11.5
t4.5 8.5l2 5q-1 1 -1.5 3l-0.5 2q-3 5 -10.5 13.5t-9.5 8.5zM232 0h-192l193 530h459q30 0 49.5 -15.5t31 -38t16 -48t4.5 -45.5q0 -42 -20 -77t-51 -60.5t-68 -39.5t-71 -14h-281z" />
    <glyph glyph-name="FL0051h" unicode="Q" horiz-adv-x="738" 
d="M347 224v6q0 1 1 2q0 2 0.5 6t1.5 9l44 -97q-16 3 -30 16q-9 13 -13 28t-4 30zM360 273h1q8 16 22.5 32.5t31 29.5t33.5 21t32 8h69q24 0 40 -10q9 -12 13 -27.5t4 -31.5v-10q-2 -8 -3 -18l-4 -11q-1 -1 -3 -8l-9 9l-5 11h-224q1 1 1 2q0 2 1 3zM427 -31h72l7 -11h5
l17 -17h224l-53 103q54 48 90.5 106t46.5 115q2 14 3.5 27t1.5 27q0 79 -47 129q-31 48 -89 72t-136 24h-132q-56 0 -110 -24.5t-98.5 -66t-75 -95.5t-38.5 -114q-3 -24 -3 -46q0 -60 21 -98.5t56 -63.5q42 -38 104 -52.5t134 -14.5zM417 135l-54 119h210l20 -39q2 4 4.5 8
t4.5 9q9 14 11 22l4 10l1.5 7.5t0.5 1.5q1 1 1 10v12q0 18 -4 35.5t-14.5 32t-28 23.5t-44.5 9h-69q-16 0 -34.5 -8.5t-36.5 -22.5t-33.5 -31.5t-24.5 -34.5q-5 -12 -9 -22.5t-5 -18.5q-1 -1 -1 -7v-6q0 -18 7 -37.5t19 -35.5t28 -26t34 -10h13zM805 287q-9 -57 -47 -116
t-93 -104l49 -95h-200l-17 28h-90q-56 0 -107 9t-89.5 31.5t-61.5 60.5t-23 97q0 21 3 45q8 57 37 109t72 91.5t94.5 63t104.5 23.5h132q54 0 98.5 -12t76 -36t49 -60t17.5 -83q0 -12 -1.5 -25t-3.5 -27z" />
    <glyph glyph-name="FL0052h" unicode="R" horiz-adv-x="717" 
d="M392 334l11 31h178q-1 -6 -4 -14t-10 -8h-166zM28 -14l17 -17h214l68 186l183 -169h2l19 -17h245l-17 17h4l-183 186q41 4 83.5 14.5t77.5 31.5t57 54.5t22 84.5q0 32 -8.5 70t-34.5 64l-2 2q-14 22 -37.5 36.5t-58.5 14.5h-455l-203 -558h7zM595 366v11q0 8 -3 13.5
t-15 5.5h-201l-57 -156l88 89h160q15 0 21.5 13.5t6.5 23.5zM232 0h-192l193 530h446q34 0 55.5 -15t33.5 -38t16.5 -50t4.5 -50q0 -51 -25 -84t-62.5 -52.5t-83 -28t-85.5 -11.5l196 -201h-214l-206 190l-11 -8z" />
    <glyph glyph-name="FL0053h" unicode="S" horiz-adv-x="684" 
d="M515 174v-6v-6q0 -10 -2.5 -19t-17.5 -9h-340q-3 0 -18 -17.5t-32.5 -40t-33 -44.5t-20.5 -32h510q27 0 52.5 16.5t45 41.5t31.5 54.5t12 55.5v6q0 23 -7 50t-21.5 50.5t-37.5 39t-55 15.5h-190q-1 0 -8.5 3.5t-11.5 7.5q-2 2 -6 5.5t-4 4.5v5q0 9 8 24t19 15h330
q36 34 65.5 68t52.5 68h-510q-28 0 -56 -18.5t-50 -46t-36 -58t-14 -54.5q0 -26 9 -53t26.5 -49.5t41.5 -37t54 -14.5h200q8 0 11 -8.5t3 -16.5zM53 -31l-17 17h-8q6 12 25 38.5t40 54t39 48.5t23 21h340q5 0 5.5 4.5t0.5 9.5v6h-180q-27 0 -50 11t-40 28h-1
q-35 25 -54.5 66t-19.5 80q0 26 15 59t39.5 62.5t55 49.5t60.5 20h537q-2 -2 -2 -3t-2 -3l18 -17q-30 -43 -63 -83t-71 -75h-335q-5 0 -9.5 -6.5t-6.5 -13.5h189q35 0 60 -16.5t42 -42.5q26 -26 38 -63t12 -67v-6q0 -28 -13 -59.5t-34 -58t-48.5 -44t-56.5 -17.5h-528z" />
    <glyph glyph-name="FL0054h" unicode="T" horiz-adv-x="640" 
d="M171 381l17 -17h154l-137 -378h7l17 -17h214l144 395h111q9 0 29 18.5t41.5 44t40.5 52t27 42.5l-18 18q2 2 3 5h-529q-15 -9 -36 -31t-41 -46t-34.5 -43.5t-15.5 -23.5v-19h6zM416 0h-192l144 395h-189v1q1 4 14.5 22t32 40t38 42.5t33.5 29.5h501q-7 -14 -23.5 -36.5
t-35 -44.5t-36 -38t-25.5 -16h-118z" />
    <glyph glyph-name="FL0055h" unicode="U" horiz-adv-x="706" 
d="M233 530l-79 -222q-9 -34 -16.5 -60t-12.5 -52q-2 -14 -3.5 -26t-1.5 -23q0 -40 12 -68t40 -45.5t74.5 -25.5t116.5 -8h117q60 0 103 18.5t76 54.5t59 88.5t51 121.5l90 247h-190l-108 -297q-7 -14 -19 -31t-28 -32t-36.5 -25t-44.5 -10h-49q-28 0 -45 19.5t-17 54.5
q0 5 1.5 13t3.5 19q0 3 2 10.5t11 35.5t28 84.5t54 158.5h-189zM140 312l83 232h218q-2 -6 -2 -5l18 -18q-36 -106 -56 -165t-29.5 -88.5t-11.5 -37.5t-2 -11q-5 -25 -5 -30q0 -9 1 -17t4 -15q11 -8 26 -8h49q21 0 38.5 9t32.5 22.5t26 29t18 28.5l1 2l111 304h218l-2 -5
l18 -18l-95 -262q-26 -71 -52.5 -125t-60.5 -90.5t-79 -55.5t-107 -19h-117q-88 0 -140 12t-79 39l-2 2q-31 19 -43.5 49.5t-12.5 75.5q0 13 1.5 25t3.5 26q4 20 8.5 39.5t10.5 37.5l3 12q2 6 3.5 12t3.5 13z" />
    <glyph glyph-name="FL0056h" unicode="V" horiz-adv-x="765" 
d="M411 537l-1 7h-203l63 -441q0 -1 2 -9q3 -14 7.5 -31t10.5 -32t14 -26.5t19 -15.5l9 -9q11 -11 23 -11h165q9 0 21.5 8t24 19t21.5 22t15 17l369 486l-18 18l4 5h-242l-249 -321l-39 298zM397 530l48 -357l277 357h206l-355 -468q-5 -6 -14 -16t-19.5 -20.5t-21.5 -18
t-18 -7.5h-165q-11 0 -19 11t-14 27t-10 33.5t-7 29.5l-62 429h174z" />
    <glyph glyph-name="FL0077h" unicode="W" horiz-adv-x="896" 
d="M725 537v7h-175l-131 -203v180l-17 17v6h-193v-453q0 -14 1.5 -31t5 -32t9.5 -26.5t15 -14.5l12 -12q6 -6 14 -6h119q14 0 28 17t26 34q4 5 7 9t5 7l83 121q1 -3 1 -10q0 -5 1 -8q7 -75 14.5 -111t24.5 -41l13 -13q5 -5 13 -5h118q7 0 16.5 8.5t19 19.5t18 22.5
t13.5 17.5l313 484l-18 17l4 6h-210l-122 -193l-11 170zM712 530l17 -244l154 244h176l-302 -467q-4 -6 -11.5 -16.5t-16 -21t-17 -18t-13.5 -7.5h-118q-8 0 -12.5 13.5t-8.5 41.5t-8.5 72t-11.5 105l-118 -169q-5 -6 -12 -16.5t-15 -21t-16 -18t-14 -7.5h-119
q-7 0 -11.5 9.5t-7 23t-3.5 29.5t-1 29v439h165v-262l170 262h154z" />
    <glyph glyph-name="FL0058h" unicode="X" horiz-adv-x="682" 
d="M391 79l39 -93h5l17 -17h236l-110 274l315 278l-18 18l6 5h-256l-125 -112l-35 89l-15 14l-3 9h-244l111 -274l-320 -284h11l17 -17h245zM387 127l-144 -127h-213l301 266l-107 264h214l50 -125l142 125h214l-299 -264l107 -266h-213z" />
    <glyph glyph-name="FL0059h" unicode="Y" horiz-adv-x="680" 
d="M464 521l-15 14l-3 9h-244l118 -293l-95 -265h7l17 -17h214l94 257l335 295l-18 18l6 5h-256l-125 -112zM436 0h-192l92 252l-113 278h214l50 -125l142 125h214l-315 -278z" />
    <glyph glyph-name="FL005Ah" unicode="Z" horiz-adv-x="640" 
d="M457 149l389 372l-18 18l5 5h-541q-15 -9 -36 -31t-41 -46t-34.5 -43.5t-15.5 -23.5v-19h6l17 -17h207l-395 -378h10l17 -17h527q9 0 29 18.5t41.5 44t40.5 52t27 42.5l-18 18q2 2 3 5h-220zM534 0h-499l413 395h-269v1q1 4 14.5 22t32 40t38 42.5t33.5 29.5h501
l-413 -395h269q-7 -14 -23.5 -36.5t-35 -44.5t-36 -38t-25.5 -16z" />
    <glyph glyph-name="FL005Bh" unicode="[" horiz-adv-x="436" 
d="M248 611l-247 -681h7l17 -17h300q2 0 14.5 10.5t28 25.5t32 31.5t26.5 28.5l1 1q2 2 7 10t11 18t11 19t7 13l-18 17l3 6h-144l122 338h83q9 0 29 18.5t41.5 44t40.5 52t27 42.5l-18 18q2 2 3 5h-384zM20 -56l237 653h352q-7 -14 -23.5 -36.5t-35 -44.5t-36 -38t-25.5 -16
h-90l-139 -383h165q-1 -2 -5 -8.5t-8.5 -13.5t-8.5 -13t-5 -7q-9 -12 -24 -28t-30 -30.5t-26.5 -24.5t-12.5 -10h-285z" />
    <glyph glyph-name="FL005Ch" unicode="\" horiz-adv-x="681" 
d="M434 -14l17 -17h236l-223 552l-15 14l-3 9h-244l227 -558h5zM651 0h-213l-215 530h214z" />
    <glyph glyph-name="FL005Dh" unicode="]" horiz-adv-x="436" 
d="M630 605l2 5h-304q-2 0 -15 -10.5t-30 -26t-34 -32.5t-26 -29q-2 -3 -7.5 -12.5t-11.5 -20t-11.5 -20t-7.5 -12.5h8l17 -17h137l-124 -338h-80q-11 0 -31 -19.5t-41.5 -45.5t-41.5 -54t-29 -44h8l17 -17h377l246 675zM613 596l-238 -653h-352q7 13 23.5 36t35 45t35.5 38
t26 16h90l140 383h-165q1 2 5 8.5t8 13.5t8 13t5 7q9 12 24.5 28t30.5 30.5t26.5 24.5t12.5 10h285z" />
    <glyph glyph-name="FL005Eh" unicode="^" 
d="M245 0l270 369l56 -369h178l-66 429q-3 12 -7.5 29.5t-10.5 33.5t-14.5 27t-18.5 11h-168q-7 0 -17.5 -7.5t-21 -17t-19.5 -19.5t-12 -16l-360 -460v-3q0 2 -0.5 0t-1.5 -7h213zM558 -14l-48 311l-240 -328h-232l-17 17h-7q2 7 3 13t3 12v4l2 2q7 24 15 24q2 0 3 -1
l342 438l1 1q5 7 15 18t22 21.5t24 18t20 7.5h168q12 0 21 -8t16 -20l6 -5q8 -8 14 -20.5t10.5 -26t8 -27t6.5 -23.5l68 -445h-201l-17 17h-6z" />
    <glyph glyph-name="FL005Fh" unicode="_" horiz-adv-x="486" 
d="M535 144l5 5h-373l-172 -163h10l17 -17h365l166 157zM505 135l-143 -135h-332l143 135h332z" />
    <glyph glyph-name="FL0060h" unicode="`" horiz-adv-x="194" 
d="M312 478l-8 22q-3 11 -8 20.5t-16 9.5q-4 0 -28 -8q-27 -17 -37 -42q-3 -7 -1.5 -13t3.5 -12l6 -23q5 -13 20.5 -23t29.5 -10q9 0 11 2l6 4q8 4 13 11.5t9 16.5q5 14 2.5 24.5t-2.5 20.5zM246 391l-3 3q-26 14 -35 38l-6 21q-3 7 -3 18q0 5 3 13q12 32 41 50q24 10 37 10
q11 0 18 -5.5t12 -14.5l11 -11q5 -5 8.5 -13.5t5.5 -16.5l-1 1l9 -25q0 -12 1.5 -16t1.5 -14q0 -11 -4 -20q-5 -11 -10.5 -20t-16.5 -14l-3 -2q-5 -5 -19 -5q-11 0 -24 6.5t-23 16.5z" />
    <glyph glyph-name="a" unicode="a" 
d="M510 296l23 -148h-134zM21 -14l17 -17h439q4 2 12.5 9t18.5 17.5t20.5 23t19.5 24.5l11 -57h6l17 -17h200l-68 445q-3 10 -6.5 23.5t-8 27t-10.5 26t-14 20.5l-6 5q-7 12 -16 20t-21 8h-168q-8 0 -20 -7.5t-24 -18t-22 -21.5t-15 -18l-1 -1l-342 -438q-1 1 -3 1
q-8 0 -15 -24l-2 -2v-4q-2 -6 -3 -12t-3 -13h7zM515 369l-168 -225v-10h203zM683 429l66 -429h-178l-21 113q-2 -6 -14.5 -23t-28 -36t-30.5 -35t-22 -19h-423q1 5 1.5 7t0.5 0v3l360 460q3 6 12 16t19.5 19.5t21 17t17.5 7.5h168q10 0 18.5 -11t14.5 -27t10.5 -33.5
t7.5 -29.5z" />
    <glyph glyph-name="FL0062h" unicode="b" horiz-adv-x="713" 
d="M325 150l9 22h180q-1 -3 -3 -7q-7 -5 -15.5 -10t-9.5 -5h-161zM386 319l16 44h183l-1 -2q-1 -3 -4 -11.5t-4 -8.5h-165zM224 544l-203 -558h7l17 -17h474q55 0 92.5 8t63 24.5t43 42.5t33.5 63l4 11q6 14 11 29t5 30q-1 18 -7.5 33.5t-15.5 26.5q13 9 26.5 22.5t24.5 30
t18 35t7 36.5v2q0 39 -8.5 74t-30.5 57l-2 1q1 -1 2 -1l-2 2q-14 22 -35.5 35t-55.5 13h-468zM307 203l-26 -67h205l5 2.5t11 6l12 7t9 6.5l4 7.5t5 8.5l2 5q2 3 2.5 10t0.5 14h-230zM375 394l-55 -152l96 85h160q1 0 4.5 4.5t7.5 10.5t7.5 11.5t4.5 8.5l2 5q-1 1 -1.5 3
l-0.5 2q-3 5 -10.5 13.5t-9.5 8.5h-205zM40 0l193 530h459q30 0 49.5 -12.5t31 -32.5t16 -47t4.5 -55v-2q0 -20 -8.5 -39t-21 -35.5t-27 -29t-26.5 -18.5q11 -9 20 -25.5t10 -36.5q0 -14 -5 -28t-10 -27l-4 -11q-15 -35 -31.5 -60t-41.5 -40.5t-60.5 -23t-88.5 -7.5h-459z
" />
    <glyph glyph-name="c" unicode="c" horiz-adv-x="655" 
d="M125 245v-2q0 -69 24 -116t66 -76q24 -23 55.5 -39t67.5 -25.5t74.5 -13.5t77.5 -4h84q42 32 75 73.5t61 83.5l-18 18q2 2 3 5h-265q-13 0 -26.5 7.5t-25.5 20.5q-10 14 -16 30t-6 30q0 9 8 38h-1q6 16 16 32t22 28.5t24.5 20.5t24.5 8h263q42 35 75.5 73.5t67.5 83.5
l-18 18q1 1 1.5 2t2.5 3h-442q-56 0 -105.5 -27.5t-87.5 -71t-60 -96.5t-22 -104zM139 243v2q0 48 21 99t57 92t83 67.5t100 26.5h413q-29 -38 -58.5 -71.5t-64.5 -63.5h-260q-13 0 -27.5 -8.5t-28 -22.5t-24.5 -31.5t-17 -34.5q-8 -29 -8 -41q0 -19 10 -40.5t25.5 -39.5
t34 -30t35.5 -12h239q-23 -34 -52 -69.5t-67 -65.5h-80q-62 0 -121 11t-106 38.5t-75.5 74.5t-28.5 119z" />
    <glyph glyph-name="FL0064h" unicode="d" horiz-adv-x="682" 
d="M283 135l95 260h162q19 0 26.5 -11.5t7.5 -28.5q0 -13 -6 -28t-12 -31q-5 -13 -12.5 -23l-13.5 -18q-15 -22 -41.5 -43.5t-57.5 -38.5t-63 -27.5t-59 -10.5h-26zM719 239q31 42 47 88.5t16 85.5q0 51 -27 84t-87 33h-435l-193 -530h249q78 0 138.5 13t111 41.5t94 74
t86.5 110.5zM45 -31l-17 17h-7l203 558h444q42 0 68 -14t41 -38l3 -3q17 -17 25 -42t8 -54q0 -42 -16.5 -88.5t-48.5 -91.5q-44 -66 -88.5 -112.5t-95.5 -76t-113 -42.5t-142 -13h-264zM405 364l-78 -214q24 3 51.5 13.5t54 25.5t48.5 33.5t36 37.5q2 6 6 10q1 2 2 2.5
t3 2.5q7 8 15 26q1 1 1 3t1 3l3 7q5 11 8.5 21.5t3.5 19.5q0 7 -1 9h-154z" />
    <glyph glyph-name="e" unicode="e" horiz-adv-x="649" 
d="M224 544l-203 -558h7l17 -17h518q1 0 13.5 10t29 25t33 31.5t26.5 29.5q1 1 6 9.5t11 19t11.5 20t7.5 12.5l-18 17q2 2 2 3q0 2 1 3h-362l5 15h197l166 157l-18 18l5 5h-272l-19 -19l14 39h301q9 0 29 18.5t41.5 44t40.5 52t27 42.5l-18 18q2 2 3 5h-602zM40 0l193 530
h570q-7 -14 -23.5 -36.5t-35 -44.5t-36 -38t-25.5 -16h-308l-57 -157l95 92h231l-143 -135h-199l-22 -60h383q-1 -2 -5 -8.5t-8 -13.5t-8 -13t-5 -7q-9 -12 -24.5 -28t-30.5 -30.5t-26.5 -24.5t-12.5 -10h-503z" />
    <glyph glyph-name="FL0066h" unicode="f" horiz-adv-x="645" 
d="M224 544l-203 -558h7l17 -17h213l71 195h197l166 157l-18 18l5 5h-272l-19 -19l14 39h301q9 0 29 18.5t41.5 44t40.5 52t27 42.5l-18 18q2 2 3 5h-602zM40 0l193 530h570q-7 -14 -23.5 -36.5t-35 -44.5t-36 -38t-25.5 -16h-308l-57 -157l95 92h231l-143 -135h-199
l-71 -195h-191z" />
    <glyph glyph-name="FL0067h" unicode="g" horiz-adv-x="664" 
d="M619 0l125 330h-240q-14 -11 -31.5 -31.5t-33.5 -41t-27.5 -37t-12.5 -19.5v-1h113l-23 -65h-59q-18 0 -36.5 12t-34 30t-25 39.5t-9.5 40.5q0 12 8 41q6 17 16 34.5t22.5 31.5t27.5 22.5t31 8.5h260q35 30 64.5 63.5t58.5 71.5h-413q-53 0 -100 -26.5t-83 -68.5t-57 -93
t-21 -99q0 -72 28.5 -119t75.5 -74.5t106 -38.5t121 -11h149zM765 344l-2 -6l17 -17l-134 -352h-156q-39 0 -77.5 4t-74.5 13.5t-67.5 25.5t-55.5 39q-42 29 -66 76t-24 116q0 51 22 104t60 97t87.5 72t105.5 28h442q-2 -2 -2.5 -3t-1.5 -2l18 -18q-34 -45 -67.5 -83.5
t-75.5 -73.5h-263q-14 0 -27.5 -8t-24.5 -20.5t-20 -28.5t-15 -32h1q-8 -29 -8 -38q0 -30 19 -58q25 -30 55 -30h49l7 20h-78l-17 17h-6v17q1 4 13.5 22t29.5 40.5t36.5 44.5t34.5 34h266zM384 165l-4 4q1 -1 1.5 -2t2.5 -2z" />
    <glyph glyph-name="h" unicode="h" horiz-adv-x="678" 
d="M385 315l75 206l-18 18l2 5h-220l-203 -558h7l17 -17h214l69 190h163l-62 -173h7l17 -17h212l201 552l-18 18l2 5h-218l-76 -205h-148zM232 0h-192l193 530h192l-113 -310l102 105h152l75 205h190l-193 -530h-190l69 190h-216z" />
    <glyph glyph-name="FL0069h" unicode="i" horiz-adv-x="276" 
d="M30 -14l17 -17h214l201 552l-18 18l2 5h-220l-203 -558h7zM234 0h-192l193 530h192z" />
    <glyph glyph-name="FL006Ah" unicode="j" horiz-adv-x="597" 
d="M19 -14l17 -17h355q67 0 112 18t77 52.5t55.5 85t47.5 116.5l102 280l-18 18l2 5h-218l-111 -304q-7 -13 -17.5 -29t-24 -29.5t-29 -23t-31.5 -9.5h-208q-37 -37 -65 -77.5t-55 -85.5h9zM371 0h-29h-307q21 35 45 69t56 66h202q19 0 37 10t32.5 25t26 32t18.5 31l108 297
h190l-97 -265q-23 -64 -46 -113.5t-54 -83t-74.5 -51t-107.5 -17.5z" />
    <glyph glyph-name="FL006Bh" unicode="k" horiz-adv-x="722" 
d="M398 351l62 170l-18 18l2 5h-220l-203 -558h7l17 -17h214l81 222l169 -205h4l17 -17h240l-198 273l364 279l-18 18l7 5h-260zM232 0h-192l193 530h192l-87 -238l331 238h214l-346 -265l192 -265h-214l-196 238z" />
    <glyph glyph-name="FL006Ch" unicode="l" horiz-adv-x="584" 
d="M233 530l-193 -530h439q14 11 35 33.5t40 45t31.5 39.5t11.5 17h-317l144 395h-191zM21 -14l203 558h219l-2 -5l18 -18l-135 -372h276v-4q0 -1 -1 -1v-1l18 -17q3 0 -8.5 -19.5t-29.5 -46t-39 -52.5t-37 -39h-458l-17 17h-7z" />
    <glyph glyph-name="FL006Dh" unicode="m" horiz-adv-x="860" 
d="M1030 539l2 5h-266l-221 -239l-41 216l-16 15l-1 8h-263l-203 -558h7l17 -17h214l84 232l40 -215h6l17 -17h82l189 208l-68 -191h7l17 -17h214l201 552zM1013 530l-193 -530h-192l108 298l-272 -298h-69l-55 298l-108 -298h-192l193 530h242l51 -266l245 266h242z" />
    <glyph glyph-name="FL006Eh" unicode="n" horiz-adv-x="678" 
d="M504 521l-16 15l-1 8h-263l-203 -558h7l17 -17h214l84 231l41 -214h6l17 -17h258l201 552l-18 18l2 5h-218l-87 -238zM232 0h-192l193 530h242l57 -298l109 298h190l-193 -530h-242l-56 298z" />
    <glyph glyph-name="FL006Fh" unicode="o" horiz-adv-x="762" 
d="M347 224v7h-1l2 5q1 14 12 37h1q8 16 22.5 32.5t31 29.5t33.5 21t32 8h98q19 0 33 -6q8 -11 10.5 -24t2.5 -27q0 -18 -1.5 -24t-2.5 -16l-4 -11l-3.5 -7t-7.5 -13q-8 -15 -24.5 -30.5t-35 -28t-35 -20.5t-23.5 -8h-83q-22 0 -41 18q-16 25 -16 57zM401 -31h117
q61 0 118.5 24.5t103.5 65.5t77 94.5t40 111.5q3 16 4 30.5t1 29.5q0 42 -12 75t-34 56q-31 46 -89.5 67t-140.5 21h-149q-55 0 -109.5 -26t-99.5 -68t-75.5 -96t-37.5 -109q-2 -14 -3 -27.5t-1 -26.5q0 -60 20 -99.5t56 -62.5q35 -34 90 -47t124 -13zM317 257q-1 -1 -1 -7
v-6q0 -18 7 -37.5t19 -35.5t28 -26t34 -10h83q9 0 27 8.5t38.5 22.5t39 31.5t27.5 34.5q9 14 11 22l4 10l1.5 7.5t0.5 1.5q1 8 1.5 16.5t0.5 17.5q0 16 -3 32t-12 28.5t-24.5 20t-40.5 7.5h-98q-16 0 -34.5 -8.5t-36.5 -22.5t-33.5 -31.5t-24.5 -34.5q-5 -12 -9 -22.5
t-5 -18.5zM826 287q-9 -56 -39 -108t-74 -91.5t-99.5 -63.5t-115.5 -24h-117q-55 0 -102 9t-81 30.5t-53.5 58.5t-19.5 93q0 12 1 25t3 27q7 54 36 105.5t72 92t95 65t105 24.5h149q57 0 102 -10.5t77 -32.5t49 -57.5t17 -84.5q0 -14 -1 -28t-4 -30z" />
    <glyph glyph-name="p" unicode="p" horiz-adv-x="699" 
d="M386 319l16 44h183l-1 -2q-1 -3 -4 -11.5t-4 -8.5h-165zM28 -14l17 -17h214l70 192h274q36 0 75 15t71.5 42t53.5 64t21 81q0 30 -11 67.5t-37 63.5l-1 1q-14 21 -34 35t-49 14h-468l-203 -558h7zM580 394h-205l-55 -152l96 85h160q1 0 4.5 4.5t7.5 10.5t7.5 11.5
t4.5 8.5l2 5q-1 1 -1.5 3l-0.5 2q-3 5 -10.5 13.5t-9.5 8.5zM232 0h-192l193 530h459q28 0 47 -15.5t31 -38t17.5 -48t5.5 -45.5q0 -42 -20 -77t-51 -60.5t-68 -39.5t-71 -14h-281z" />
    <glyph glyph-name="FL0071h" unicode="q" horiz-adv-x="735" 
d="M347 224v6q0 1 1 2q0 2 0.5 6t1.5 9l44 -97q-16 3 -30 16q-9 13 -13 28t-4 30zM360 273h1q8 16 22.5 32.5t31 29.5t33.5 21t32 8h69q24 0 40 -10q9 -12 13 -27.5t4 -31.5v-10q-2 -8 -3 -18l-4 -11q-1 -1 -3 -8l-9 9l-5 11h-224q1 1 1 2q0 2 1 3zM427 -31h72l7 -11h5
l17 -17h224l-53 103q54 48 90.5 106t46.5 115q2 14 3.5 27t1.5 27q0 79 -47 129q-31 48 -89 72t-136 24h-132q-56 0 -110 -25.5t-98.5 -67.5t-75 -96t-38.5 -111q-3 -24 -3 -46q0 -60 21 -98.5t56 -63.5q42 -38 104 -52.5t134 -14.5zM417 135l-54 119h210l20 -39q2 4 4.5 8
t4.5 9q9 14 11 22l4 10l1.5 7.5t0.5 1.5q1 1 1 10v12q0 18 -4 35.5t-14.5 32t-28 23.5t-44.5 9h-69q-16 0 -34.5 -8.5t-36.5 -22.5t-33.5 -31.5t-24.5 -34.5q-5 -12 -9 -22.5t-5 -18.5q-1 -1 -1 -7v-6q0 -18 7 -37.5t19 -35.5t28 -26t34 -10h13zM805 287q-9 -57 -47 -116
t-93 -104l49 -95h-200l-17 28h-90q-56 0 -107 9t-89.5 31.5t-61.5 60.5t-23 97q0 21 3 45q8 54 37 106t72 92t94.5 64.5t104.5 24.5h132q54 0 98.5 -12t76 -36t49 -60t17.5 -83q0 -12 -1.5 -25t-3.5 -27z" />
    <glyph glyph-name="r" unicode="r" horiz-adv-x="723" 
d="M392 334l11 31h178q-1 -6 -4 -14t-10 -8h-166zM28 -14l17 -17h214l68 186l183 -169h2l19 -17h245l-17 17h4l-183 186q41 4 83.5 14.5t77.5 31.5t57 54.5t22 84.5q0 16 -1.5 34t-6 36t-12 34.5t-20.5 29.5l-2 2q-14 22 -37.5 36.5t-61.5 14.5h-455l-203 -558h7zM595 366
v11q0 8 -3 13.5t-15 5.5h-201l-57 -156l88 89h160q15 0 21.5 13.5t6.5 23.5zM232 0h-192l193 530h446q36 0 58 -15t33.5 -38t15 -50t3.5 -50q0 -51 -25 -84t-62.5 -52.5t-83 -28t-85.5 -11.5l196 -201h-214l-206 190l-11 -8z" />
    <glyph glyph-name="FL201Ch" unicode="s" horiz-adv-x="684" 
d="M515 174v-6v-6q0 -10 -2.5 -19t-17.5 -9h-340q-3 0 -18 -17.5t-32.5 -40t-33 -44.5t-20.5 -32h510q27 0 52.5 16.5t45 41.5t31.5 54.5t12 55.5v6q0 23 -6.5 50t-21 50.5t-37.5 39t-56 15.5h-190q-1 0 -8.5 3.5t-11.5 7.5q-2 2 -6 5.5t-4 4.5v5q0 9 8 24t19 15h330
q36 34 65.5 68t52.5 68h-510q-28 0 -56 -18.5t-50 -46t-36 -58t-14 -54.5q0 -26 9 -53t26.5 -49.5t41.5 -37t54 -14.5h200q8 0 11 -8.5t3 -16.5zM53 -31l-17 17h-8q6 12 25 38.5t40 54t39 48.5t23 21h340q5 0 5.5 4.5t0.5 9.5v6h-180q-27 0 -50 11t-40 28h-1
q-35 25 -54.5 66t-19.5 80q0 26 15 59t39.5 62.5t55 49.5t60.5 20h537q-2 -2 -2 -3t-2 -3l18 -17q-30 -43 -63 -83t-71 -75h-335q-5 0 -9.5 -6.5t-6.5 -13.5h189q37 0 62.5 -17t41.5 -43q25 -26 36.5 -62.5t11.5 -66.5v-6q0 -28 -13 -59.5t-34 -58t-48.5 -44t-56.5 -17.5
h-528z" />
    <glyph glyph-name="FL0074h" unicode="t" horiz-adv-x="640" 
d="M171 381l17 -17h154l-137 -378h7l17 -17h214l144 395h111q9 0 29 18.5t41.5 44t40.5 52t27 42.5l-18 18q2 2 3 5h-529q-15 -9 -36 -31t-41 -46t-34.5 -43.5t-15.5 -23.5v-19h6zM416 0h-192l144 395h-189v1q1 4 14.5 22t32 40t38 42.5t33.5 29.5h501q-7 -14 -23.5 -36.5
t-35 -44.5t-36 -38t-25.5 -16h-118z" />
    <glyph glyph-name="FL2022h" unicode="u" horiz-adv-x="706" 
d="M233 530l-79 -222q-9 -34 -18 -59.5t-14 -51.5q-2 -14 -3 -25t-1 -22q0 -40 12 -68.5t40 -46.5t75 -26.5t118 -8.5h117q60 0 103 18.5t76 54.5t59 88.5t51 121.5l90 247h-190l-108 -297q-7 -14 -19 -31t-28 -32t-36.5 -25t-44.5 -10h-49q-23 0 -42.5 19.5t-19.5 54.5
q0 5 1.5 13t3.5 19q0 3 2 10.5t11 35.5t28 84.5t54 158.5h-189zM138 305l85 239h218q-2 -6 -2 -5l18 -18q-36 -106 -56 -165t-29.5 -88.5t-11.5 -37.5t-2 -11q-5 -25 -5 -30q0 -9 1 -17t4 -14q10 -9 26 -9h49q21 0 38.5 9t32.5 22.5t26 29t18 28.5l112 306h218l-2 -5l18 -18
l-95 -262q-26 -71 -52.5 -125t-60.5 -90.5t-79 -55.5t-107 -19h-117q-88 0 -140 12.5t-80 39.5q-32 20 -45.5 51.5t-13.5 77.5q0 12 1 23.5t3 25.5q3 14 8 29t10 32q2 8 4 14t4 14q1 4 1.5 8t2.5 9z" />
    <glyph glyph-name="FL0076h" unicode="v" horiz-adv-x="765" 
d="M411 537l-1 7h-203l63 -441q0 -1 2 -9q3 -14 7.5 -31t10.5 -32t14 -26.5t19 -15.5l9 -9q11 -11 23 -11h165q9 0 21.5 8t24 19t21.5 22t15 17l369 486l-18 18l4 5h-242l-249 -321l-39 298zM397 530l48 -357l277 357h206l-355 -468q-5 -6 -14 -16t-19.5 -20.5t-21.5 -18
t-18 -7.5h-165q-11 0 -19 11t-14 27t-10 33.5t-7 29.5l-62 429h174z" />
    <glyph glyph-name="FL0057h" unicode="w" horiz-adv-x="896" 
d="M225 544l-125 -340q-7 -19 -10.5 -35.5t-3.5 -35.5q0 -32 13 -60t45 -48q26 -26 72.5 -41t124.5 -15h542l201 552l-18 18l2 5h-218l-145 -396h-68l136 373l-18 18l2 5h-218l-142 -388q-3 1 -8 1q-6 0 -9 1q-8 1 -14.5 2t-12.5 4q-2 6 -2 10v13l3 12.5t6 25.5q2 6 3 11.5
t2 10.5l92 274l-18 18l2 5h-216zM113 199l121 331h188l-88 -261q-1 -5 -3.5 -14.5t-4.5 -19t-4 -17.5t-2 -11q0 -27 7.5 -39t20 -17.5t28 -6.5t30.5 -5l142 391h190l-144 -396h121l144 396h190l-193 -530h-535q-63 0 -105.5 11t-68 29t-36.5 42t-11 51q0 17 3.5 33t9.5 33z
" />
    <glyph glyph-name="FL0079h" unicode="x" horiz-adv-x="682" 
d="M391 79l39 -93h5l17 -17h236l-110 274l315 278l-18 18l6 5h-256l-125 -112l-35 89l-15 14l-3 9h-244l111 -274l-320 -284h11l17 -17h245zM387 127l-144 -127h-213l301 266l-107 264h214l50 -125l142 125h214l-299 -264l107 -266h-213z" />
    <glyph glyph-name="FL007Bh" unicode="y" horiz-adv-x="680" 
d="M464 521l-15 14l-3 9h-244l118 -293l-95 -265h7l17 -17h214l94 257l335 295l-18 18l6 5h-256l-125 -112zM436 0h-192l92 252l-113 278h214l50 -125l142 125h214l-315 -278z" />
    <glyph glyph-name="FL007Ah" unicode="z" horiz-adv-x="640" 
d="M457 149l389 372l-18 18l5 5h-541q-15 -9 -36 -31t-41 -46t-34.5 -43.5t-15.5 -23.5v-19h6l17 -17h207l-395 -378h10l17 -17h527q9 0 29 18.5t41.5 44t40.5 52t27 42.5l-18 18q2 2 3 5h-220zM534 0h-499l413 395h-269v1q1 4 14.5 22t32 40t38 42.5t33.5 29.5h501
l-413 -395h269q-7 -14 -23.5 -36.5t-35 -44.5t-36 -38t-25.5 -16z" />
    <glyph glyph-name="FL007Dh" unicode="{" horiz-adv-x="579" 
d="M752 597h-352l-97 -267h-59l-143 -135h153l-91 -251h285q1 0 12.5 10t26.5 24.5t30 30.5t24 28q1 1 5 7t8.5 13t8.5 13.5t5 8.5h-165l139 383h90q8 0 25.5 16t36 38t35 44.5t23.5 36.5zM391 611h384q-1 -3 -3 -5l18 -18q-8 -16 -27 -42.5t-40.5 -52t-41.5 -44t-29 -18.5
h-83l-122 -338h144l-3 -6l18 -17q-2 -4 -7 -13t-11 -19t-11 -18t-7 -10l-1 -1q-10 -12 -26.5 -28.5t-32 -31.5t-28 -25.5t-14.5 -10.5h-300l-17 17h-7l84 234h-135l-17 17h-10l172 163h55z" />
    <glyph glyph-name="FL007Ch" unicode="|" horiz-adv-x="272" 
d="M-23 -155l17 -17h214l302 832l-18 18l2 5h-220l-304 -838h7zM181 -141h-192l294 810h192z" />
    <glyph glyph-name="FL007Eh" unicode="}" horiz-adv-x="579" 
d="M23 -57h352l97 267h59l144 135h-153l91 251h-285q-1 0 -12.5 -10t-26.5 -24.5t-30.5 -30.5t-24.5 -28q-1 -1 -5 -7t-8 -13t-8 -13.5t-5 -8.5h165l-140 -383h-90q-9 0 -26 -16t-35.5 -38t-35 -45t-23.5 -36zM648 587l-83 -228h145l-5 -5l18 -18l-167 -157h-57l-97 -267
h-377l-17 17h-8q9 16 29 44t41.5 54t41.5 45.5t31 19.5h80l124 338h-137l-17 17h-8q2 4 8 14.5t12.5 21.5t12 20t6.5 10q10 12 27 29t33.5 32t29 25.5t14.5 10.5h304l-2 -5z" />
    <glyph glyph-name="FL0080h" unicode="~" horiz-adv-x="437" 
d="M428 330l-64 -68l-32 68h-88q-5 0 -12.5 -5t-12.5 -9l-117 -121h98l64 68l33 -68h87q5 0 12.5 5t12.5 9q44 45 68 69.5t35 35.5t12.5 13.5l1.5 2.5h-98zM244 344h97l4 -10l14 -13l13 -29l50 52h110q7 -7 7 -11l12 -12q4 -5 4.5 -9.5t-10 -17t-36 -39t-72.5 -74.5l-1 -1
q0 1 -1 0q-7 -5 -15 -10.5t-16 -5.5h-94l-17 17h-5l-16 33l-47 -50h-129l-17 17h-10l145 150q0 -1 -3 -4q2 1 2.5 1.5t2.5 1.5l-1 -1q7 5 14.5 10t14.5 5z" />
    <glyph glyph-name="FL007Fh" horiz-adv-x="175" 
 />
    <glyph glyph-name="FL00A1h" unicode="&#xa1;" horiz-adv-x="272" 
d="M252 373h-90l-141 -387h7l17 -17h214l139 381l-18 18l2 5h-28q20 11 34.5 27t21.5 36h1q6 15 6 28q0 23 -16 39l-6 6q-8 16 -24 25.5t-40 9.5q-36 0 -69 -23t-46 -56q-6 -15 -6 -28q0 -39 33 -55l6 -5q1 -1 1.5 -2t1.5 -2zM381 460q-5 -15 -15.5 -27.5t-24 -22.5
t-29.5 -15.5t-32 -5.5q-32 0 -47 21t-4 50t40.5 49.5t61.5 20.5t46.5 -20.5t3.5 -49.5zM171 359h192l-131 -359h-192z" />
    <glyph glyph-name="FL00A2h" unicode="&#xa2;" horiz-adv-x="655" 
d="M356 235v2q0 9 8 38h-1q6 16 15 31.5t20 28.5t23.5 21t26.5 8l-68 -187l-8 8q-16 25 -16 50zM550 149l78 215h85q42 35 75.5 73.5t67.5 83.5l-18 18q1 1 1.5 2t2.5 3h-149l42 115l-18 18l2 5h-154l-51 -138h-114q-56 0 -105.5 -27.5t-87.5 -71t-60 -96.5t-22 -104v-2
q0 -64 21.5 -109t58.5 -75l5 -5q20 -22 46.5 -36.5t56.5 -23.5l-53 -150h7l17 -17h148l52 142h90q42 32 75 73.5t61 83.5l-18 18q2 2 3 5h-145zM386 152l89 243h-45q-16 0 -31 -8.5t-27.5 -22.5t-22.5 -31.5t-16 -34.5q-8 -29 -8 -41v-2q0 -27 18.5 -55.5t42.5 -47.5z
M405 -142h-126l57 156q-42 9 -78 26.5t-62.5 45t-41.5 66.5t-15 91v2q0 48 21 99t57 92t83 67.5t100 26.5h124l50 138h126l-50 -138h163q-29 -38 -58.5 -71.5t-64.5 -63.5h-89l-95 -260h163q-23 -34 -52 -69.5t-67 -65.5h-93z" />
    <glyph glyph-name="FL00A3h" unicode="&#xa3;" horiz-adv-x="698" 
d="M489 161h208l-65 157l-15 14l-3 9h-62q0 1 3 4q8 5 17 11.5t10 6.5h69q6 42 6 80q0 16 -2 35.5t-6 42.5l-16 15q0 2 -0.5 4t-0.5 4h-82q-27 0 -59 -16t-62.5 -39.5t-57 -50t-41.5 -46.5q-8 -11 -13.5 -21.5t-10.5 -20.5q-1 -1 -1 -4q0 -1 -0.5 -1.5t-0.5 -1.5v1
q-2 -7 -3 -8h-66l-172 -163h10l17 -17h135l-3 -7h-55l-172 -163h10l17 -17h676q2 19 3 42.5t1 40.5q0 42 -9 75l-16 16q-2 6 -2 7h-193q2 2 3.5 4.5t3.5 6.5zM668 0h-638l143 135h59l9 23q2 7 4.5 14t7.5 15h-155l143 135h71l2 8t3 9q5 11 10.5 22t13.5 22q15 20 40 45.5
t54 48t59 38t56 15.5h70q7 -32 6.5 -66.5t-5.5 -69.5h-59q-1 0 -5.5 -2.5t-10 -6l-11 -7t-9.5 -6.5l-1.5 -2t-2.5 -3l-2 -5q-2 -5 -3 -14t-1 -17q0 -4 2 -4h87l56 -135h-197q-5 -7 -9 -14t-6 -10l-2 -5q1 -1 1.5 -3l0.5 -2q3 -5 10 -13.5t9 -8.5h196q7 -22 7 -64
q0 -35 -3 -72z" />
    <glyph glyph-name="FL00A4h" unicode="&#xa4;" horiz-adv-x="682" 
d="M368 237v4q0 4 5 12q1 2 1.5 3.5t1.5 3.5h-1q12 20 33.5 36t40.5 16h54q4 0 8 -0.5t9 -1.5q5 -10 5 -23q0 -2 -0.5 -4t-0.5 -4v-8l-1 -1t-3 -5q-1 -2 -1 -6q-6 -10 -16 -20t-21 -18t-21.5 -13t-17.5 -5h-44q-15 0 -26 10q-5 12 -5 24zM465 521l-15 14l-3 9h-244l69 -168
q-31 -29 -50.5 -61t-22.5 -61q-1 -7 -1.5 -13.5t-0.5 -13.5q0 -24 11 -52l-215 -189h11l17 -17h246l123 109h2l38 -92h5l17 -17h236l-68 167q31 25 50 57.5t25 63.5v1q1 7 1.5 13.5t0.5 13.5q0 29 -11 54l207 182l-18 18l6 5h-256l-121 -107h-5zM337 261q-1 -11 3.5 -24
t13 -23.5t20 -17.5t25.5 -7h44q8 0 20 5t24.5 13.5t23.5 18.5t17 20q5 6 6 13q4 7 4 12q1 11 0.5 24t-6 23.5t-17 17.5t-32.5 7h-54q-22 0 -46 -18.5t-37 -39.5q-3 -7 -6 -13t-3 -11zM664 279q-5 -30 -25 -62t-52 -57l65 -160h-213l-44 109h-8h-20l-124 -109h-213l194 171
l1 1q-9 15 -12.5 35t0.5 46q3 30 23.5 62t51.5 58l-64 157h214l43 -107h17h11l121 107h214l-192 -169q9 -16 12.5 -36t-0.5 -46z" />
    <glyph glyph-name="FL00A5h" unicode="&#xa5;" horiz-adv-x="680" 
d="M267 63l-23 -63h192l23 63h63l125 80h-159l11 30h63l125 80h-158l314 277h-214l-142 -125l-50 125h-214l112 -277h-63l-125 -80h160l-11 -30h-64l-125 -80h160zM225 -14l16 46h-151l-17 17h-14l144 93h-73l-17 17h-14l168 108h47l-112 277h244l3 -9l15 -14l35 -89
l125 112h256l-6 -5l18 -18l-289 -254h132l-9 -6l18 -17l-137 -87h88l-9 -6l18 -17l-159 -102h-59l-23 -63h-214l-17 17h-7z" />
    <glyph glyph-name="FL00A6h" unicode="&#xa6;" horiz-adv-x="272" 
d="M-23 -155l17 -17h214l302 832l-18 18l2 5h-220l-304 -838h7zM181 -141h-192l294 810h192z" />
    <glyph glyph-name="FL00A7h" unicode="&#xa7;" horiz-adv-x="682" 
d="M368 236q1 1 1 7l6 16l1 2q11 19 32.5 35t40.5 16h54q4 0 8 -0.5t9 -1.5q5 -10 5 -23q0 -2 -0.5 -4t-0.5 -4v-8l-1 -1t-3 -5q-1 -2 -1 -6q-6 -10 -16 -20t-21 -18t-21.5 -13t-17.5 -5h-44q-14 0 -26 9q-5 15 -5 24zM4 -14l17 -17h246l123 109h25q63 0 111 15.5t88 37.5
q53 41 72 96q4 7 6 18q1 3 1.5 5.5t1.5 5.5v2q1 7 1.5 13.5t0.5 13.5q0 29 -11 54l207 182l-18 18l6 5h-256l-121 -107h-23q-54 0 -103 -10t-97 -42q-26 -23 -45.5 -48t-29.5 -51l-1.5 -3l-0.5 -1q-1 -1 -1 -5q0 -1 -0.5 -2t-0.5 -2v1q-3 -9 -3 -20q-1 -7 -1.5 -13.5
t-0.5 -13.5q0 -24 11 -52l-215 -189h11zM337 261q-1 -11 3.5 -24t13 -23.5t20 -17.5t25.5 -7h44q8 0 20 5t24.5 13.5t23.5 18.5t17 20q5 6 6 13q4 7 4 12q1 11 0.5 24t-6 23.5t-17 17.5t-32.5 7h-54q-22 0 -46 -18.5t-37 -39.5l-7 -17q-2 -10 -2 -7zM664 279q-2 -7 -3.5 -14
t-4.5 -14q-8 -24 -25.5 -47.5t-43.5 -43.5q-38 -21 -84.5 -36t-107.5 -15h-28l-124 -109h-213l195 172q-9 15 -12.5 35t0.5 46q0 7 2 13.5t4 14.5q9 24 27 48t42 44q45 30 93 40t100 10h28l121 107h214l-192 -169q9 -16 12.5 -36t-0.5 -46z" />
    <glyph glyph-name="FL00A8h" unicode="&#xa8;" horiz-adv-x="388" 
d="M519 471q9 25 -2.5 42t-38.5 17t-52 -17t-34 -42t3.5 -42t39.5 -17t51 17t33 42zM211 471q-9 -25 3 -42t39 -17t51.5 17t33.5 42t-3 42t-39 17t-51.5 -17t-33.5 -42zM198 476q10 29 38.5 48.5t59.5 19.5q42 0 55 -31l9 -8q13 -13 13 -34q0 -12 -5 -24q-10 -28 -37.5 -47
t-57.5 -19q-28 0 -44 16l-8 7q-28 13 -28 47q0 13 5 25zM411 397l-8 8q-29 14 -29 47q0 8 0.5 11.5t2.5 8.5q0 1 0.5 1.5t0.5 1.5q6 15 16.5 27.5t24 21.5t29 14.5t30.5 5.5q41 0 54 -31l8 -7q14 -14 14 -35q0 -12 -5 -24q-10 -28 -37 -47t-57 -19q-28 0 -44 16z" />
    <glyph glyph-name="copyright" unicode="&#xa9;" horiz-adv-x="302" 
d="M261 420h-1v1q3 -4 6.5 -6.5t7.5 -4.5l3 -3q-8 1 -15 6q0 2 -0.5 3.5t-0.5 3.5zM393 464h-1q1 2 1.5 2.5t1.5 2.5l-14 4l20 5q-2 -4 -4 -7.5t-4 -6.5zM408 525l-9 9q-2 3 -3 5.5t-3 4.5q6 -2 10 -3l4 -8t3 -9v-2q1 0 1 -1q-1 1 -1.5 2t-1.5 2zM320 460h-1q14 34 37 38
q1 -1 1 -5q0 -3 1 -4l5 1l18 -17l-31 9q-13 -24 -32 -29q1 1 1 3q0 3 1 4zM367 608q-28 0 -64 -15q-36 -16 -62 -45q-14 -16 -23.5 -30t-14.5 -30q-5 -10 -6.5 -20t-1.5 -21q0 -7 0.5 -11.5t1.5 -9.5q4 -16 12.5 -28t21.5 -23q2 -1 3 -2t3 -2l8 -7q1 -2 2 -2.5t2 -1.5l3 -2
q28 -16 55 -16q13 0 63 14q18 9 32 19.5t28 25.5h1q14 14 22.5 28t14.5 30q5 11 6.5 22t1.5 21q0 6 -0.5 10.5t-1.5 8.5q-3 22 -18 37l-10 9q-8 13 -26 27q-26 14 -53 14zM357 466l16 -5q-12 -19 -30.5 -30t-38.5 -11q-26 0 -36 16.5t1 46.5q11 31 33 47t49 16q39 0 37 -35
l-18 -4q-3 23 -25 23q-18 0 -33 -12t-23 -35q-17 -45 20 -45q30 0 48 28zM361 576q-23 0 -49.5 -11.5t-47.5 -34.5q-11 -11 -17.5 -23t-11.5 -24q-8 -27 -5 -45q4 -19 22 -34q18 -12 42 -12q23 0 50 12q24 10 46 34q19 19 29 45q8 26 5 47q-3 20 -23 34q-15 12 -40 12z
M367 594q26 0 49 -14q22 -15 27 -41q6 -21 -5 -56q-10 -29 -35 -54q-12 -14 -25.5 -24t-30.5 -18q-50 -14 -60 -14q-27 0 -50 14q-10 8 -16.5 18t-9.5 24q-6 25 5 54q5 15 14 28.5t21 27.5q23 26 57 41q37 14 59 14z" />
    <glyph glyph-name="FL00ABh" unicode="&#xab;" horiz-adv-x="332" 
d="M243 235l-46 37l79 54l29 82l-123 -81q-8 -6 -20 -16t-15 -18l-23 -62q-2 -5 1 -10t5 -8l79 -69zM378 236l-46 37l79 54l30 82l-124 -81q-8 -6 -20 -16t-15 -18l-23 -62q-2 -5 1 -10t5 -8l80 -69zM346 415l-25 -68l147 98l-4 -11l18 -18l-42 -116l-64 -44l19 -15l-2 -4
l18 -17l-41 -113l-18 15l-86 72l-32 -88l-18 15l-96 82q-1 1 -2 2.5t-2 2.5q-2 4 -4.5 8.5t-2.5 10.5v4q0 1 2 7l23 60q4 10 17.5 21.5t22.5 18.5l158 106l-4 -11zM241 255l9 -7l6 18z" />
    <glyph glyph-name="FL00ACh" unicode="&#xac;" horiz-adv-x="497" 
d="M393 195l-35 -97h135l84 232h-333l-143 -135h292zM339 84l28 80h-274l-17 17h-10l172 163h358l-2 -5l18 -18l-92 -254h-157l-17 17h-7z" />
    <glyph glyph-name="FL00ADh" unicode="&#xad;" horiz-adv-x="342" 
d="M462 339l5 5h-229l-172 -163h10l17 -17h221l166 157zM432 330l-143 -135h-188l143 135h188z" />
    <glyph glyph-name="registered" unicode="&#xae;" horiz-adv-x="302" 
d="M375 450q7 3 15 9q-1 -1 -1.5 -2t-2.5 -3l-9 -9q-2 6 -2 5zM317 431l3 -20q-8 -3 -12 -3zM404 542q4 -8 6 -18q1 -3 1 -6v-7q-1 2 -6 11l-2 1q1 0 1 -1h1l-12 11q-2 7 -8 13q6 -1 10.5 -2t8.5 -2zM368 609q-27 0 -66 -15q-38 -17 -60 -45q-27 -30 -39 -61q-7 -18 -7 -38
v-14q0 -5 2 -11q4 -15 12 -26.5t21 -22.5q2 -2 3.5 -2.5t3.5 -1.5q5 -5 9 -8l5 -5q28 -16 55 -16q13 0 63 14q19 9 34 19.5t28 26.5q12 14 21.5 28t14.5 29q9 24 9 44q0 33 -22 55l-3 2q1 0 1 -1l-1 1q-11 22 -28 32v-1q-26 17 -56 17zM313 526l-13 -36h23q17 0 25 5t11 13
q5 12 -5 17q-1 1 -20 1h-21zM276 424h-19l44 119h40q25 0 29 -4q10 -4 10 -11q3 -8 0 -18q-5 -13 -17.5 -22.5t-28.5 -10.5q8 -4 10.5 -10.5t6.5 -19.5l6 -23h-24l-3 18q-4 23 -11 28q-3 4 -13 4h-11zM361 577q-23 0 -49 -11.5t-48 -34.5q-20 -23 -29 -47q-8 -30 -4 -45
q3 -19 21 -34q18 -12 42 -12q23 0 50 12q23 10 47 34q21 24 28 45q9 29 5 47q-3 21 -22 34q-17 12 -41 12zM368 595q28 0 48 -14q23 -15 28 -41t-6 -56q-11 -28 -34 -54q-12 -14 -26 -24t-31 -18q-50 -14 -60 -14q-27 0 -50 14q-10 8 -16 18t-9 24q-6 26 4 54
q5 15 14.5 28.5t21.5 27.5q23 26 56 41q39 14 60 14z" />
    <glyph glyph-name="FL00AFh" unicode="&#xaf;" horiz-adv-x="486" 
d="M679 539l5 5h-373l-172 -163h10l17 -17h365l166 157zM649 530l-143 -135h-332l143 135h332z" />
    <glyph glyph-name="FL00B0h" unicode="&#xb0;" horiz-adv-x="207" 
d="M211 471q-9 -25 3 -42t39 -17t51.5 17t33.5 42t-3 42t-39 17t-51.5 -17t-33.5 -42zM198 476q10 29 38.5 48.5t59.5 19.5q21 0 35.5 -9t20.5 -23l6 -6q0 1 -1 1v1l3 -3q13 -13 13 -34q0 -12 -5 -24q-10 -28 -37.5 -47t-57.5 -19q-28 0 -44 16l-8 7q-28 13 -28 47
q0 13 5 25z" />
    <glyph glyph-name="FL00B1h" unicode="&#xb1;" horiz-adv-x="485" 
d="M172 135l-143 -135h331l143 135h-331zM272 261l-35 -97h135l35 97h48l143 135h-142l38 103h-135l-38 -103h-54l-143 -135h148zM218 150l28 80h-130l-17 17h-10l172 163h50l39 103h164l-2 -5l18 -18l-30 -80h133l-5 -5l18 -18l-166 -157h-46l-30 -81h134l-5 -5l18 -18
l-166 -157h-364l-17 17h-10l172 163h60l-1 1h-7z" />
    <glyph glyph-name="FL00B4h" unicode="&#xb4;" horiz-adv-x="194" 
d="M239 505l-21 -20l-3 -3q-2 -2 -2 -3h-1q-1 -2 -2.5 -3t-2.5 -3l1 1l-12 -16t-11 -19q-6 -12 -6 -24q0 -11 8 -19l5 -5q1 -5 9 -6l14 -13q5 -4 16 -4q8 0 19 3t22.5 8.5t22 12t17.5 12.5l25 23q11 11 21 28h1q5 10 5 22q0 19 -13 32l-9 8q-3 8 -9 14q-19 13 -33 13
q-16 0 -31.5 -12.5t-29.5 -26.5zM230 478l24 22q11 11 23 20.5t23 9.5t22 -8q17 -17 7 -42q-3 -7 -8.5 -13t-11.5 -12l-24 -23q-7 -6 -16.5 -12t-20 -10.5t-20.5 -7.5t-17 -3t-9 2l-4 4q-5 4 -4.5 11.5t4.5 16.5q5 14 14.5 24.5t17.5 20.5z" />
    <glyph glyph-name="FL00B5h" unicode="&#xb5;" horiz-adv-x="861" 
d="M939 296v5l-29 21l30 9h16l-5 33l-16 16l-1 7l-59 15l46 32l-18 17l9 6h-139l15 24l-17 17l4 7l-138 -23l1 2l-18 17l1 4l-22 16l-117 -55l-11 16l-8 8l-12 16l-92 -80l-2 -1q-1 -1 -8 -1q-11 0 -48 37l-46 -96l-70 7l-7 -41l13 -42l-91 -8l25 -19l3 -3l54 -42l-85 -37
l14 -4l15 -15l81 -23l-54 -33l13 -1l18 -17l126 -7l-27 -36l10 2l17 -17l135 28l-24 -42l10 4l18 -17l153 71l20 -20l2 2l18 -18l84 77l65 -27l37 88l66 -14l8 16q2 6 2 13q0 9 -3 23t-11 33l68 6l-2 28zM439 275q-5 -14 -20 -33q-21 -9 -28 -9q-16 0 -7 26l3 7q25 36 41 36
q12 0 12 -15q2 -2 -1 -12zM661 309l-2 -37h-30zM260 220l44 107l-18 -4l-51 -111zM373 303l12 27q-75 -12 -93 -64l-2 -6q-3 -7 -2 -8q-9 -48 19 -48l5.5 1.5t16.5 3.5l5 18q-5 -1 -9.5 -1.5t-9.5 -0.5q-21 0 -12 21q8 23 30 44q19 16 31 16q4 0 9 -3zM464 290q3 36 -27 36
h-6h-4q-46 -23 -71 -96q-2 -18 26 -18q3 0 7 0.5t9 1.5q26 0 66 76zM521 214l39 108l-15 5l-30 -75l-30 70l-38 -110l16 3l19 51q15 -52 39 -52zM566 225l44 107l-21 -5l-49 -110zM647 223l10 -5l29 82q6 34 -12 34q-11 0 -15 -3q-26 -26 -45.5 -53t-33.5 -55h20
q21 26 34 26q11 0 13 -26zM747 218l40 108l-14 6l-32 -76l-28 70l-39 -109l15 1l20 54q16 -54 38 -54zM765 194l21 18l-13 6l-15 -10zM796 246l41 80l-22 6l-34 -83zM925 294l1 -12l-72 -6q24 -57 18 -74l-4 -8l-66 14l-37 -87l-61 26l-81 -75l-35 37l-131 -61l14 24l-8 25
l-146 -31l32 43l-149 7l57 35l-118 33l71 31l-72 55l72 6l-18 55l4 26l68 -7l41 87q27 -27 44 -27q9 0 16 4l84 72l28 -37l120 56l8 -6l-9 -37l150 24l-27 -43h146l-56 -37l112 -31l2 -13h-6l-61 -17z" />
    <glyph glyph-name="FL00B7h" unicode="&#xb6;" horiz-adv-x="640" 
d="M321 275q-5 -14 -20 -33q-21 -9 -28 -9q-16 0 -7 26l3 7q25 36 41 36q12 0 12 -15q2 -2 -1 -12zM543 309l-2 -37h-30zM142 220l44 107l-18 -4l-51 -111zM255 303l12 27q-75 -12 -93 -64l-2 -6q-3 -7 -2 -8q-9 -48 19 -48l5.5 1.5t16.5 3.5l5 18q-5 -1 -9.5 -1.5
t-9.5 -0.5q-21 0 -12 21q8 23 30 44q19 16 31 16q4 0 9 -3zM346 290q3 36 -27 36h-6h-4q-46 -23 -71 -96q-2 -18 26 -18q3 0 7 0.5t9 1.5q26 0 66 76zM403 214l39 108l-15 5l-30 -75l-30 70l-38 -110l16 3l19 51q15 -52 39 -52zM448 225l44 107l-21 -5l-49 -110zM529 223
l10 -5l29 82q6 34 -12 34q-11 0 -15 -3q-26 -26 -45.5 -53t-33.5 -55h20q21 26 34 26q11 0 13 -26zM629 218l40 108l-14 6l-32 -76l-28 70l-39 -109l15 1l20 54q16 -54 38 -54zM647 194l21 18l-13 6l-15 -10zM678 246l41 80l-22 6l-34 -83zM515 352l-3 -7l12 -11l6 6
q11 8 26 8q19 0 24 -17l1 -1l13 35l6 -15l14 -14l13 -33l20 47l36 -15l6 14l51 -14l-3 -5l18 -17l-51 -100l-12 2l-2 -2l18 -18l-45 -38l-18 18l-3 -3l-10 18q-5 5 -6 7l-10 9q-2 2 -4 2.5t-4 2.5l-9 -24l-33 -2l-1 -2l-4 2h-1l-1 1l-21 10l-15 14q-3 -3 -7 -7.5t-9 -10.5
h-41l-44 -13l-5 4q-12 2 -20 11h-1v1l-4 3h2l-4 4q1 -1 1 -2t1 -2l-4 4q-3 1 -7 5l-8 -22l-40 -7l-12 12q-10 -7 -21 -7q-1 0 -1.5 -0.5t-1.5 -0.5h1q-2 -1 -7 -1h-7q-23 0 -31 8l-8 8l-5 -17q-3 -1 -11.5 -3t-10.5 -3t-9 -1q-15 0 -23 8l-13 11q-1 1 -2 1l-1 1v-2l-53 -17
l-18 17l-8 -2l67 146l51 10l-3 -7l12 -12q28 13 72 21l-3 -6l7 -8q3 2 5.5 3t5.5 3h14q24 0 34 -16l13 37l6 -16l14 -13l14 -34l19 46l39 -14l4 10zM227 240q1 2 1.5 4t1.5 4q-6 -6 -7 -8h4z" />
    <glyph glyph-name="FL00B9h" unicode="&#xb7;" horiz-adv-x="207" 
d="M143 282q-4 -7 -4 -20q0 -17 12 -28t33 -11q27 0 52 17t34 42q4 7 4 19q0 17 -12.5 28.5t-34.5 11.5q-27 0 -51 -17t-33 -42zM125 262q0 13 5 26q11 28 38.5 47.5t58.5 19.5q21 0 35.5 -9t20.5 -23l8 -7q14 -14 14 -35q0 -11 -5 -23q-10 -28 -38 -47t-58 -19
q-27 0 -42 15l-8 8q-29 12 -29 47z" />
    <glyph glyph-name="FL00B8h" unicode="&#xb8;" horiz-adv-x="200" 
d="M-21 -24l-122 -92h261l44 122h-119l-11 -30h-53zM-186 -130l160 120h48l12 30h147l-2 -5l18 -18l-52 -144h-302l-17 17h-12z" />
    <glyph glyph-name="FL00BBh" unicode="&#xbb;" horiz-adv-x="332" 
d="M290 317l46 -37l-79 -54l-30 -82l124 81q8 6 20 16t15 18l23 62q2 5 -1 10t-5 8l-80 69zM155 316l46 -37l-79 -54l-30 -82l124 81q8 6 20 16t15 18l22 62q2 5 -0.5 10t-4.5 8l-80 69zM65 107l45 126l67 46l-39 32l43 119l98 -83l1 -1q1 -2 1.5 -2.5t1.5 -2.5l33 90
l95 -81h1q1 -1 2.5 -3t2.5 -3q1 -3 3 -7l11 -10q2 -4 6 -9.5t4 -12.5t-3 -11l-22 -59q-4 -10 -17 -21t-22 -18l-151 -99l-17 17l-9 -6l27 77l-136 -89l-17 17zM312 280l-12 9l-8 -22z" />
    <glyph glyph-name="FL00BFh" unicode="&#xbf;" horiz-adv-x="678" 
d="M637 374h-86v-9q-5 -5 -17.5 -10.5t-32.5 -5.5h-149q-32 0 -69 -15.5t-72.5 -39.5t-66 -53t-49.5 -56q-17 -23 -26.5 -51.5t-9.5 -57.5t9 -50t29 -32l7 -7q18 -18 49 -18h447q13 13 30 30.5t35 38t35 43t31 46.5l-18 17q1 2 2 3t2 3h-391l5 5h1q2 0 4 2q4 1 8 5
q7 4 15.5 8l8.5 4h139q27 0 63.5 18t72.5 44.5t68 57.5t50 57l-18 18q2 2 2.5 3t1.5 2h-6q19 11 33.5 27.5t21.5 35.5h1q2 8 3.5 14.5t1.5 12.5q0 24 -15 39l-8 7q-7 16 -23 25t-40 9q-36 0 -68.5 -22.5t-46.5 -55.5q-5 -10 -5 -29q0 -38 32 -55l7 -6q0 -2 2 -2zM766 460
q-5 -15 -15.5 -27.5t-24 -22.5t-29.5 -15.5t-32 -5.5q-26 0 -40.5 13.5t-14.5 34.5q0 16 4 23q11 29 40.5 49.5t61.5 20.5q26 0 40.5 -13t14.5 -33q0 -4 -5 -24zM565 360h155q-16 -23 -44.5 -50t-61.5 -50.5t-67 -39t-60 -15.5h-139q-1 0 -13 -5.5t-19 -9.5q-4 -2 -10 -5.5
t-6 -4.5l-4 -5q-5 -5 -8 -13t-3 -15q0 -11 9 -11h398q-10 -17 -25 -35.5t-31 -36.5t-32 -34.5t-29 -29.5h-442q-32 0 -46 22t-14 54q0 26 8.5 52.5t24.5 48.5q18 25 48 53t64 51.5t69 38.5t65 15h149q31 0 46.5 10.5t17.5 13.5v1z" />
    <glyph glyph-name="FL00C0h" unicode="&#xc0;" 
d="M613 665l-8 22q-2 11 -7.5 20.5t-16.5 9.5q-4 0 -28 -8q-27 -17 -37 -42q-3 -7 -1.5 -13t3.5 -12l6 -23q5 -13 20.5 -23t29.5 -10q9 0 11 2l6 4q8 4 13 11.5t9 16.5q5 14 2.5 24.5t-2.5 20.5zM550 113l21 -113h178l-66 429q-3 12 -7.5 29.5t-10.5 33.5t-14.5 27t-18.5 11
h-168q-7 0 -17.5 -7.5t-21 -17t-19.5 -19.5t-12 -16l-360 -460v-3q0 2 -0.5 0t-1.5 -7h423q7 3 22 19t30.5 35t28 36t14.5 23zM550 134h-203v10l168 225zM559 -14l-11 57q-9 -12 -19.5 -24.5t-20.5 -23t-18.5 -17.5t-12.5 -9h-439l-17 17h-7q2 7 3 13t3 12v4l2 2q7 24 15 24
q2 0 3 -1l342 438l1 1q5 7 15 18t22 21.5t24 18t20 7.5h168q12 0 21 -8t16 -20l6 -5q8 -8 14 -20.5t10.5 -26t8 -27t6.5 -23.5l68 -445h-200l-17 17h-6zM547 578l-3 3q-26 14 -35 38l-6 21q-3 7 -3 18q0 5 3 13q12 32 41 50q24 10 37 10q12 0 19.5 -7t12.5 -17l9 -8
q11 -13 14 -30h-1l8 -20l1 -4q0 -11 1.5 -15t1.5 -14q0 -11 -4 -20q-5 -11 -10.5 -20t-16.5 -14l-3 -2q-5 -5 -19 -5q-11 0 -24 6.5t-23 16.5zM533 148l-23 148l-111 -148h134z" />
    <glyph glyph-name="FL00C1h" unicode="&#xc1;" 
d="M571 688l-24 -22q-7 -10 -17 -20.5t-15 -24.5q-3 -9 -3.5 -16.5t4.5 -11.5l3 -4q2 -2 10 -2q14 0 37 10t37 23l23 23l12 12t8 13q10 25 -7 42q-11 8 -22 8t-23 -9.5t-23 -20.5zM550 113l21 -113h178l-66 429q-3 12 -7.5 29.5t-10.5 33.5t-14.5 27t-18.5 11h-168
q-7 0 -17.5 -7.5t-21 -17t-19.5 -19.5t-12 -16l-360 -460v-3q0 2 -0.5 0t-1.5 -7h423q7 3 22 19t30.5 35t28 36t14.5 23zM550 134h-203v10l168 225zM559 -14l-11 57q-9 -12 -19.5 -24.5t-20.5 -23t-18.5 -17.5t-12.5 -9h-439l-17 17h-7q2 7 3 13t3 12v4l2 2q7 24 15 24
q2 0 3 -1l342 438l1 1q5 7 15 18t22 21.5t24 18t20 7.5h168q12 0 21 -8t16 -20l6 -5q8 -8 14 -20.5t10.5 -26t8 -27t6.5 -23.5l68 -445h-200l-17 17h-6zM534 672l22 21q14 14 29.5 26.5t31.5 12.5q14 0 33 -13q6 -6 9 -14l9 -8q13 -13 13 -32q0 -12 -5 -22h-1q-3 -8 -8 -14
t-10 -11l-3 -3l-24 -23q-16 -14 -40.5 -25t-40.5 -11q-13 0 -19 6l-13 12q-8 4 -9 6l-4 5q-7 7 -7 19q0 6 5 21q3 10 9 17t11 15h-2l10 10q1 1 1.5 2t2.5 3zM533 148l-23 148l-111 -148h134z" />
    <glyph glyph-name="FL00C2h" unicode="&#xc2;" 
d="M522 593l57 59l34 -59h82l-47 94q-4 6 -11.5 14.5t-15.5 8.5h-62q-5 0 -10.5 -4.5t-10.5 -7.5l-107 -105q-1 -1 91 0zM550 113l21 -113h178l-66 429q-3 12 -7.5 29.5t-10.5 33.5t-14.5 27t-18.5 11h-168q-7 0 -17.5 -7.5t-21 -17t-19.5 -19.5t-12 -16l-360 -460v-3
q0 2 -0.5 0t-1.5 -7h423q7 3 22 19t30.5 35t28 36t14.5 23zM550 134h-203v10l168 225zM559 -14l-11 57q-9 -12 -19.5 -24.5t-20.5 -23t-18.5 -17.5t-12.5 -9h-439l-17 17h-7q2 7 3 13t3 12v4l2 2q7 24 15 24q2 0 3 -1l342 438l1 1q5 7 15 18t22 21.5t24 18t20 7.5h168
q12 0 21 -8t16 -20l6 -5q8 -8 14 -20.5t10.5 -26t8 -27t6.5 -23.5l68 -445h-200l-17 17h-6zM604 579l-15 26l-42 -43q-11 -1 -22 -1h-21h-31q-14 0 -24 0.5t-13 3.5l-15 14q-10 3 -10 9q0 5 10 15l109 107q3 1 6 4q5 4 10 7t13 3h62q13 0 23.5 -10.5t15.5 -18.5l3 -6l1 -1
q-1 1 -2 1l-1 1l2 -2l55 -109h-109l-3 3l-15 25l-2 -2l-13 23l-48 -49q-11 -1 -22 -1h-22h-31h-18q-10 0 -14 1l-5 6q-5 4 7 16l108 106q3 1 7 5q5 4 9 6.5t12 2.5h62q6 0 12 -4t11 -9l19 -19v-1h1q5 -5 9 -10t6 -9l54 -107h-107l-17 17h-5zM569 647l7 -14l-49 -51
q-11 -1 -22 -1h-21h-31h-10l108 106q3 1 7 5q5 4 9 6.5t12 2.5h62q5 0 13 -5q4 -4 5 -7l54 -107h-99l-17 31l10 11l-20 20zM533 148l-23 148l-111 -148h134z" />
    <glyph glyph-name="FL00C3h" unicode="&#xc3;" 
d="M703 710l-58 -59l-33 59h-82q-5 0 -11 -4.5t-11 -7.5l-107 -105h91l58 59l33 -59h82q5 0 11.5 4.5t10.5 7.5q40 39 62 60t32 31t11.5 12l1.5 2h-91zM550 113l21 -113h178l-66 429q-3 12 -7.5 29.5t-10.5 33.5t-14.5 27t-18.5 11h-168q-7 0 -17.5 -7.5t-21 -17
t-19.5 -19.5t-12 -16l-360 -460v-3q0 2 -0.5 0t-1.5 -7h423q7 3 22 19t30.5 35t28 36t14.5 23zM550 134h-203v10l168 225zM559 -14l-11 57q-9 -12 -19.5 -24.5t-20.5 -23t-18.5 -17.5t-12.5 -9h-439l-17 17h-7q2 7 3 13t3 12v4l2 2q7 24 15 24q2 0 3 -1l342 438l1 1
q5 7 15 18t22 21.5t24 18t20 7.5h168q12 0 21 -8t16 -20l6 -5q8 -8 14 -20.5t10.5 -26t8 -27t6.5 -23.5l68 -445h-200l-17 17h-6zM530 724h91l6 -11l12 -12l12 -24l46 47h111v-6l17 -17q0 -7 -1.5 -12t-12 -17t-33 -34t-64.5 -62q-5 -4 -13 -9t-16 -5h-89l-17 17h-5l-15 25
l-42 -42h-123l-17 17h-10l133 131q3 1 6 4q5 4 10.5 7t13.5 3zM533 148l-23 148l-111 -148h134z" />
    <glyph glyph-name="FL00C4h" unicode="&#xc4;" 
d="M739 653q9 25 -3 42t-39 17t-51.5 -17t-33.5 -42t3 -42t39 -17t51.5 17t33.5 42zM431 653q-9 -25 2.5 -42t38.5 -17t52 17t34 42t-3.5 42t-39.5 17t-51 -17t-33 -42zM550 113l21 -113h178l-66 429q-3 12 -7.5 29.5t-10.5 33.5t-14.5 27t-18.5 11h-168q-7 0 -17.5 -7.5
t-21 -17t-19.5 -19.5t-12 -16l-360 -460v-3q0 2 -0.5 0t-1.5 -7h423q7 3 22 19t30.5 35t28 36t14.5 23zM550 134h-203v10l168 225zM559 -14l-11 57q-9 -12 -19.5 -24.5t-20.5 -23t-18.5 -17.5t-12.5 -9h-439l-17 17h-7q2 7 3 13t3 12v4l2 2q7 24 15 24q2 0 3 -1l342 438l1 1
q5 7 15 18t22 21.5t24 18t20 7.5h168q12 0 21 -8t16 -20l6 -5q8 -8 14 -20.5t10.5 -26t8 -27t6.5 -23.5l68 -445h-200l-17 17h-6zM630 579l-8 7q-28 13 -28 47q0 13 5 25q10 29 38.5 48.5t59.5 19.5q42 0 55 -31l9 -8q13 -13 13 -34q0 -12 -5 -24q-10 -28 -37.5 -47
t-57.5 -19q-28 0 -44 16zM418 658q10 29 38 48.5t59 19.5q21 0 35.5 -9t20.5 -23l8 -7q14 -14 14 -35q0 -10 -5 -23q-10 -28 -38 -47t-58 -19q-27 0 -42 15l-8 8q-29 12 -29 47q0 13 5 25zM533 148l-23 148l-111 -148h134z" />
    <glyph glyph-name="FL00C5h" unicode="&#xc5;" 
d="M523 653q-9 -25 2.5 -42t38.5 -17t52 17t34 42t-3.5 42t-39.5 17t-51 -17t-33 -42zM550 113l21 -113h178l-66 429q-3 12 -7.5 29.5t-10.5 33.5t-14.5 27t-18.5 11h-168q-7 0 -17.5 -7.5t-21 -17t-19.5 -19.5t-12 -16l-360 -460v-3q0 2 -0.5 0t-1.5 -7h423q7 3 22 19
t30.5 35t28 36t14.5 23zM550 134h-203v10l168 225zM559 -14l-11 57q-9 -12 -19.5 -24.5t-20.5 -23t-18.5 -17.5t-12.5 -9h-439l-17 17h-7q2 7 3 13t3 12v4l2 2q7 24 15 24q2 0 3 -1l342 438l1 1q5 7 15 18t22 21.5t24 18t20 7.5h168q12 0 21 -8t16 -20l6 -5q8 -8 14 -20.5
t10.5 -26t8 -27t6.5 -23.5l68 -445h-200l-17 17h-6zM510 658q10 29 38 48.5t59 19.5q21 0 35.5 -9t20.5 -23l8 -7q14 -14 14 -35q0 -10 -5 -23q-10 -28 -38 -47t-58 -19q-27 0 -42 15l-8 8q-29 12 -29 47q0 13 5 25zM533 148l-23 148l-111 -148h134z" />
    <glyph glyph-name="FL00C6h" unicode="&#xc6;" horiz-adv-x="1187" 
d="M347 134v10l168 225l35 -235h-203zM1336 530h-570l-69 -190l-14 89q-1 13 -5.5 30t-11.5 33t-16 27t-18 11h-168q-7 0 -17.5 -7.5t-21 -17t-19.5 -19.5t-12 -16l-360 -460v-3q0 2 -0.5 0t-1.5 -7h423q7 3 22 19t30.5 35t28 36t14.5 23l21 -113h505q1 0 12.5 10t26.5 24.5
t30.5 30.5t24.5 28q1 1 5 7t8 13t8 13.5t5 8.5h-383l22 60h199l143 135h-231l-95 -92l57 157h308q8 0 25.5 16t36 38t35 44.5t23.5 36.5zM757 544h602q-1 -3 -3 -5l18 -18q-8 -16 -27 -42.5t-40.5 -52t-41.5 -44t-29 -18.5h-301l-14 -39l19 19h272l-5 -5l18 -18l-166 -157
h-197l-5 -15h362q-2 -2 -3 -6l18 -17q-2 -3 -7.5 -12.5t-11.5 -20t-11 -19t-6 -9.5q-10 -13 -26.5 -29.5t-33 -31.5t-29 -25t-13.5 -10h-514l-17 17h-6l-11 57q-9 -12 -19.5 -24.5t-20.5 -23t-18.5 -17.5t-12.5 -9h-439l-17 17h-7q2 7 3 13t3 12v4l2 2q7 24 15 24q2 0 3 -1
l342 438l1 1q5 7 15 18t22 21.5t24 18t20 7.5h168q9 0 17 -7.5t16 -18.5l8 -7q14 -15 25 -42t14 -49zM533 148l-23 148l-111 -148h134z" />
    <glyph glyph-name="FL00C7h" unicode="&#xc7;" horiz-adv-x="655" 
d="M356 237q0 9 8 38h-1q6 16 15 32t20 28.5t24.5 20.5t27.5 8h263q42 35 75.5 73.5t67.5 83.5l-18 18q1 1 1.5 2t2.5 3h-442q-56 0 -105.5 -28t-87.5 -72t-60 -97t-22 -104q0 -69 24 -115.5t66 -77.5q32 -31 74 -48l-4 -12h-48l-160 -120h12l17 -17h302l42 116h124
q42 32 75 73.5t61 83.5l-18 18q2 2 3 5h-265q-13 0 -26.5 7.5t-25.5 20.5q-10 14 -16 30t-6 30zM381 -116h-261l122 92h53l16 44q-37 11 -68.5 29t-54.5 45t-36 64t-13 85t21 99t57 93t83 68.5t100 26.5h413q-29 -38 -58.5 -71.5t-64.5 -63.5h-260q-16 0 -31 -8.5
t-27.5 -22.5t-22.5 -31.5t-16 -34.5q-8 -29 -8 -41q0 -19 10 -40.5t25.5 -39.5t34 -30t35.5 -12h239q-23 -34 -52 -69.5t-67 -65.5h-80h-24h-11q-10 0 -12 1z" />
    <glyph glyph-name="FL00C8h" unicode="&#xc8;" horiz-adv-x="649" 
d="M570 670l-8 22q-3 11 -8 20.5t-16 9.5q-4 0 -28 -8q-29 -16 -37 -42q-3 -7 -2 -13t3 -12l7 -23q5 -13 20.5 -23t29.5 -10q1 0 3.5 0.5l7.5 1.5l6 4q8 4 13 11.5t8 16.5q5 14 3 24.5t-2 20.5zM233 530l-193 -530h503q1 0 12.5 10t26.5 24.5t30.5 30.5t24.5 28q1 1 5 7
t8 13t8 13.5t5 8.5h-383l22 60h199l143 135h-231l-95 -92l57 157h308q8 0 25.5 16t36 38t35 44.5t23.5 36.5h-570zM21 -14l203 558h602q-1 -3 -3 -5l18 -18q-8 -16 -27 -42.5t-40.5 -52t-41.5 -44t-29 -18.5h-301l-14 -39l19 19h272l-5 -5l18 -18l-166 -157h-197l-5 -15h362
q-2 -2 -3 -6l18 -17q-2 -3 -7 -12t-10.5 -19t-10.5 -18.5t-7 -10.5l-1 -1q-10 -13 -26.5 -29.5t-33 -31.5t-29 -25t-13.5 -10h-518l-17 17h-7zM504 583l-4 3q-11 7 -20.5 17.5t-14.5 21.5l-5 19q-2 4 -2.5 8.5t-0.5 9.5v6q0 2 2 8q9 30 38 48q33 12 41 12q11 0 18 -5.5
t12 -14.5l11 -11q5 -5 8.5 -13.5t5.5 -16.5l-1 1l9 -25q0 -7 1 -10q0 -4 0.5 -9t0.5 -9q0 -14 -8 -31.5t-22 -24.5l-8 -5q-1 0 -3.5 -0.5t-3.5 -0.5q-3 -1 -7 -1q-24 0 -47 23z" />
    <glyph glyph-name="FL00C9h" unicode="&#xc9;" horiz-adv-x="649" 
d="M529 693l-24 -22q-8 -10 -17.5 -20.5t-14.5 -24.5q-4 -7 -4 -17q0 -6 5 -11l3 -4q2 -2 9 -2t17 3t20.5 7.5t20 10.5t16.5 12l24 23l12 12t8 13q10 25 -7 42q-11 8 -22 8t-23 -9.5t-23 -20.5zM233 530l-193 -530h503q1 0 12.5 10t26.5 24.5t30.5 30.5t24.5 28q1 1 5 7
t8 13t8 13.5t5 8.5h-383l22 60h199l143 135h-231l-95 -92l57 157h308q8 0 25.5 16t36 38t35 44.5t23.5 36.5h-570zM21 -14l203 558h602q-1 -3 -3 -5l18 -18q-8 -16 -27 -42.5t-40.5 -52t-41.5 -44t-29 -18.5h-301l-14 -39l19 19h272l-5 -5l18 -18l-166 -157h-197l-5 -15h362
q-2 -2 -3 -6l18 -17q-2 -3 -7 -12t-10.5 -19t-10.5 -18.5t-7 -10.5l-1 -1q-10 -13 -26.5 -29.5t-33 -31.5t-29 -25t-13.5 -10h-518l-17 17h-7zM493 678l21 20q14 14 29.5 26.5t31.5 12.5q14 0 33 -13q6 -6 9 -14l9 -8q13 -13 13 -32q0 -12 -5 -22h-1q-3 -8 -8 -14t-10 -11
l-3 -3l-25 -23q-7 -6 -17.5 -12.5t-22 -12t-22.5 -8.5t-19 -3q-12 0 -18 6l-12 12q-7 1 -10 6l-2 3l-1 1q-8 8 -8 20t5 22q5 12 11 20l12 16l-1 -1q1 2 2.5 3t2.5 3h1q0 1 2 3z" />
    <glyph glyph-name="FL00CAh" unicode="&#xca;" horiz-adv-x="649" 
d="M481 596l59 59l32 -59h82l-47 94q-4 6 -10.5 14.5t-14.5 8.5h-62q-5 0 -11.5 -4.5t-11.5 -7.5l-107 -105h91zM233 530l-193 -530h503q1 0 12.5 10t26.5 24.5t30.5 30.5t24.5 28q1 1 5 7t8 13t8 13.5t5 8.5h-383l22 60h199l143 135h-231l-95 -92l57 157h308q8 0 25.5 16
t36 38t35 44.5t23.5 36.5h-570zM21 -14l203 558h602q-1 -3 -3 -5l18 -18q-8 -16 -27 -42.5t-40.5 -52t-41.5 -44t-29 -18.5h-301l-14 -39l19 19h272l-5 -5l18 -18l-166 -157h-197l-5 -15h362q-2 -2 -3 -6l18 -17q-2 -3 -7 -12t-10.5 -19t-10.5 -18.5t-7 -10.5l-1 -1
q-10 -13 -26.5 -29.5t-33 -31.5t-29 -25t-13.5 -10h-518l-17 17h-7zM563 582l-14 26l-43 -43h-123l-17 17h-10l133 131l4 2l-1 -1q8 5 15 9t13 4h62q14 0 23 -10.5t14 -18.5l2 -4v-1h1q9 -9 16 -21l54 -107h-107l-17 17h-5z" />
    <glyph glyph-name="FL00CBh" unicode="&#xcb;" horiz-adv-x="649" 
d="M711 653q9 25 -3 42t-39 17t-51.5 -17t-33.5 -42t3 -42t39 -17t51.5 17t33.5 42zM403 653q-9 -25 2.5 -42t38.5 -17t52 17t34 42t-3.5 42t-39.5 17t-51 -17t-33 -42zM233 530l-193 -530h503q1 0 12.5 10t26.5 24.5t30.5 30.5t24.5 28q1 1 5 7t8 13t8 13.5t5 8.5h-383
l22 60h199l143 135h-231l-95 -92l57 157h308q8 0 25.5 16t36 38t35 44.5t23.5 36.5h-570zM21 -14l203 558h602q-1 -3 -3 -5l18 -18q-8 -16 -27 -42.5t-40.5 -52t-41.5 -44t-29 -18.5h-301l-14 -39l19 19h272l-5 -5l18 -18l-166 -157h-197l-5 -15h362q-1 -1 -1 -3q0 -1 -2 -3
l18 -17q-2 -3 -7 -12t-10.5 -19t-10.5 -18.5t-7 -10.5l-1 -1q-10 -13 -26.5 -29.5t-33 -31.5t-29 -25t-13.5 -10h-518l-17 17h-7zM602 579l-8 7q-28 13 -28 47q0 13 5 25q10 29 38.5 48.5t59.5 19.5q21 0 35.5 -9t20.5 -23l6 -6q0 1 -1 1v1l3 -3q13 -13 13 -34q0 -12 -5 -24
q-10 -28 -37.5 -47t-57.5 -19q-28 0 -44 16zM390 658q10 29 38 48.5t59 19.5q21 0 35.5 -9t20.5 -23l8 -7q14 -14 14 -35q0 -10 -5 -23q-10 -28 -38 -47t-58 -19q-27 0 -42 15l-8 8q-29 12 -29 47q0 13 5 25z" />
    <glyph glyph-name="FL00CCh" unicode="&#xcc;" horiz-adv-x="272" 
d="M425 530h-192l-193 -530h192zM404 666l-8 22q-2 11 -7.5 20.5t-16.5 9.5q-4 0 -28 -8q-27 -17 -37 -42q-2 -7 -1 -13t3 -12l7 -23q4 -13 20 -23t30 -10q8 0 10 2l7 4q8 4 13 11.5t8 16.5q5 14 3 24.5t-3 20.5zM224 544h220l-2 -5l18 -18l-201 -552h-214l-17 17h-7z
M337 579l-4 4q-11 6 -20 14.5t-11 18.5l-7 24q-2 4 -2.5 9t-0.5 10v5q0 2 2 8q12 32 41 50q24 10 37 10q12 0 19.5 -7t12.5 -17l9 -8q11 -13 14 -30h-1l8 -20l1 -4q0 -6 1.5 -12t1.5 -15t-4 -21q-4 -11 -10 -20.5t-16 -14.5l-5 -3q-5 -4 -17 -4t-25.5 6.5t-23.5 16.5z" />
    <glyph glyph-name="FL00CDh" unicode="&#xcd;" horiz-adv-x="272" 
d="M360 690l-24 -22q-8 -10 -17.5 -20.5t-14.5 -24.5q-4 -7 -4 -17q0 -6 5 -11l3 -4q2 -2 9 -2t17 3t20.5 7.5t20 10.5t16.5 12l24 23l12 12t8 13q10 25 -7 42q-11 8 -22 8t-23 -9.5t-23 -20.5zM40 0h192l193 530h-192zM45 -31l-17 17h-7l203 558h220l-2 -5l18 -18
l-201 -552h-214zM324 675l21 20q14 14 29.5 26.5t31.5 12.5q14 0 33 -13q6 -6 9 -14l9 -8q13 -13 13 -32q0 -12 -5 -22h-1q-3 -8 -8 -14t-10 -11l-3 -3l-25 -23q-7 -6 -17.5 -12.5t-22 -12t-22.5 -8.5t-19 -3q-12 0 -18 6l-12 12q-7 1 -10 6l-2 3l-1 1q-8 8 -8 20t5 22
q5 12 11 20l12 16l-1 -1q1 2 2.5 3t2.5 3h1q0 1 2 3z" />
    <glyph glyph-name="FL00CEh" unicode="&#xce;" horiz-adv-x="272" 
d="M312 595l58 59l33 -59h82l-47 94q-4 6 -11 14.5t-15 8.5h-62q-5 0 -11.5 -4.5t-10.5 -7.5l-107 -105h91zM40 0h192l193 530h-192zM45 -31l-17 17h-7l203 558h220l-2 -5l18 -18l-201 -552h-214zM394 581l-15 25l-42 -42h-123l-17 17h-10l132 130q5 4 13 9.5t18 5.5h62
q14 0 23.5 -10.5t14.5 -18.5l2 -4l1 -1q9 -9 16 -21l54 -107h-107l-17 17h-5z" />
    <glyph glyph-name="FL00CFh" unicode="&#xcf;" horiz-adv-x="272" 
d="M530 653q9 25 -3 42t-39 17t-51.5 -17t-33.5 -42t3 -42t39 -17t51.5 17t33.5 42zM222 653q-9 -25 2.5 -42t38.5 -17t52 17t34 42t-3.5 42t-39.5 17t-51 -17t-33 -42zM40 0h192l193 530h-192zM45 -31l-17 17h-7l203 558h220l-2 -5l18 -18l-201 -552h-214zM421 579l-8 7
q-28 13 -28 47q0 13 5 25q10 29 38.5 48.5t59.5 19.5q42 0 55 -31l9 -8q13 -13 13 -34q0 -12 -5 -24q-10 -28 -37.5 -47t-57.5 -19q-28 0 -44 16zM209 658q10 29 38 48.5t59 19.5q21 0 35.5 -9t20.5 -23l8 -7q14 -14 14 -35q0 -10 -5 -23q-10 -28 -38 -47t-58 -19
q-27 0 -42 15l-8 8q-29 12 -29 47q0 13 5 25z" />
    <glyph glyph-name="FL00D0h" unicode="&#xd0;" horiz-adv-x="797" 
d="M415 195h27l143 135h-121l24 65h162q19 0 26.5 -11.5t7.5 -28.5q0 -26 -12 -57q-5 -13 -12.5 -23l-13.5 -18q-14 -19 -42 -40.5t-61 -39.5t-65.5 -30t-54.5 -12h-30zM829 243q36 48 52 99t10 92.5t-34 68.5t-79 27h-435l-73 -200h-26l-143 -135h120l-71 -195h249
q69 0 127 13.5t109 42.5t98.5 75.5t95.5 111.5zM93 164l-17 17h-10l172 163h22l74 200h444q40 0 67 -14.5t42 -39.5l2 -2q17 -17 25.5 -42t8.5 -54q0 -42 -16.5 -86.5t-48.5 -89.5q-49 -66 -97 -113t-100.5 -77t-111.5 -43.5t-130 -13.5h-264l-17 17h-7l64 178h-102z
M515 364l-7 -20h112l-5 -5l18 -18l-166 -157h-25l-5 -14q22 3 50.5 15t56.5 28.5t52 35t37 35.5q1 3 6 8q1 2 2 2.5t3 2.5q7 8 15 26q11 33 11 52q0 7 -1 9h-154z" />
    <glyph glyph-name="FL00D1h" unicode="&#xd1;" horiz-adv-x="678" 
d="M662 710l-58 -59l-33 59h-82q-5 0 -11 -4.5t-11 -7.5l-107 -105h91l58 59l33 -59h82q5 0 11.5 4.5t10.5 7.5q40 39 62 60t32 31t11.5 12l1.5 2h-91zM40 0h192l108 298l56 -298h242l193 530h-190l-109 -298l-57 298h-242zM488 536l16 -15l41 -215l87 238h218l-2 -5l18 -18
l-201 -552h-258l-17 17h-6l-41 214l-84 -231h-214l-17 17h-7l203 558h263zM489 724h91l6 -11l12 -12l12 -24l46 47h111v-6l17 -17q0 -7 -1.5 -12t-12 -17t-33 -34t-64.5 -62q-5 -4 -13 -9t-16 -5h-89l-17 17h-5l-15 25l-42 -42h-123l-17 17h-10l133 131q3 1 6 4q5 4 10.5 7
t13.5 3z" />
    <glyph glyph-name="FL00D2h" unicode="&#xd2;" horiz-adv-x="745" 
d="M641 668l-8 22q-2 11 -7.5 20.5t-16.5 9.5q-4 0 -28 -8q-27 -17 -37 -42q-2 -7 -1 -13t3 -12l6 -23q5 -13 20.5 -23t29.5 -10q9 0 11 2l7 4q7 4 12 11.5t9 16.5q5 14 2.5 24.5t-2.5 20.5zM809 287q11 66 -2.5 112t-45.5 75t-81.5 42.5t-110.5 13.5h-132q-53 0 -105 -26.5
t-95 -68.5t-72.5 -93t-36.5 -99q-10 -72 5.5 -119t50 -74.5t85.5 -38.5t112 -11h100q60 0 116 26.5t100.5 68.5t74.5 93t37 99zM317 257q1 8 5 18.5t9 22.5q9 17 24.5 34.5t33.5 31.5t36.5 22.5t34.5 8.5h81q23 0 38.5 -7t24.5 -18.5t13 -26t4 -30.5q0 -11 -0.5 -20.5
t-1.5 -19.5q0 1 -0.5 -1.5l-1.5 -7.5l-4 -10q-2 -8 -11 -22q-9 -17 -26.5 -34.5t-37 -31.5t-38 -22.5t-30.5 -8.5h-66q-20 0 -37 12t-29 30t-18 39.5t-3 40.5zM401 -31q-69 0 -125 13.5t-92 48.5q-35 23 -54.5 61.5t-19.5 98.5q0 13 1 26.5t3 27.5q7 50 38 103t76 96.5
t99.5 71.5t109.5 28h132q79 0 137.5 -21t90.5 -69q48 -50 48 -133q0 -14 -1.5 -28t-3.5 -28q-8 -50 -38.5 -102.5t-77 -95.5t-104 -70.5t-119.5 -27.5h-100zM347 224q0 -32 16 -57q19 -18 41 -18h66q10 0 27 7.5t34.5 20t33 28t23.5 30.5q5 8 7.5 13.5t3.5 7.5l4 11
q1 10 3 18q0 7 0.5 13.5t0.5 14.5q0 26 -12 44q-15 7 -34 7h-81q-15 0 -32 -8t-33.5 -21t-31 -29.5t-22.5 -32.5h-1q-11 -23 -12 -37v-2q-1 -3 -1 -10zM609 734q12 0 19.5 -7t12.5 -17l9 -8q11 -13 14 -30h-1l9 -23q0 -12 1.5 -16t1.5 -14q0 -11 -4 -20q-5 -11 -11.5 -20
t-14.5 -14l-4 -2q-5 -5 -19 -5q-11 0 -24 6.5t-23 16.5l-3 3q-26 14 -35 38l-7 25l-1 5v9v5q0 2 2 8q12 32 41 50q24 10 37 10z" />
    <glyph glyph-name="FL00D3h" unicode="&#xd3;" horiz-adv-x="745" 
d="M593 690l-24 -22q-8 -10 -17.5 -20.5t-14.5 -24.5q-4 -7 -4 -17q0 -6 5 -11l3 -4q2 -2 9 -2t17 3t20.5 7.5t20 10.5t16.5 12l24 23l12 12t8 13q10 25 -7 42q-11 8 -22 8t-23 -9.5t-23 -20.5zM809 287q11 66 -2.5 112t-45.5 75t-81.5 42.5t-110.5 13.5h-132
q-53 0 -105 -26.5t-95 -68.5t-72.5 -93t-36.5 -99q-10 -72 5.5 -119t50 -74.5t85.5 -38.5t112 -11h100q60 0 116 26.5t100.5 68.5t74.5 93t37 99zM317 257q1 8 5 18.5t9 22.5q9 17 24.5 34.5t33.5 31.5t36.5 22.5t34.5 8.5h81q23 0 38.5 -7t24.5 -18.5t13 -26t4 -30.5
q0 -11 -0.5 -20.5t-1.5 -19.5q0 1 -0.5 -1.5l-1.5 -7.5l-4 -10q-2 -8 -11 -22q-9 -17 -26.5 -34.5t-37 -31.5t-38 -22.5t-30.5 -8.5h-66q-20 0 -37 12t-29 30t-18 39.5t-3 40.5zM401 -31q-69 0 -125 13.5t-92 48.5q-35 23 -54.5 61.5t-19.5 98.5q0 13 1 26.5t3 27.5
q7 50 38 103t76 96.5t99.5 71.5t109.5 28h132q79 0 137.5 -21t90.5 -69q48 -50 48 -133q0 -14 -1.5 -28t-3.5 -28q-8 -50 -38.5 -102.5t-77 -95.5t-104 -70.5t-119.5 -27.5h-100zM347 224q0 -32 16 -57q19 -18 41 -18h66q10 0 27 7.5t34.5 20t33 28t23.5 30.5q5 8 7.5 13.5
t3.5 7.5l4 11q1 10 3 18q0 7 0.5 13.5t0.5 14.5q0 26 -12 44q-15 7 -34 7h-81q-15 0 -32 -8t-33.5 -21t-31 -29.5t-22.5 -32.5h-1q-11 -23 -12 -37v-2q-1 -3 -1 -10zM557 675l21 20q14 14 29.5 26.5t31.5 12.5q14 0 33 -13q6 -6 9 -14l9 -8q13 -13 13 -32q0 -12 -5 -22h-1
q-3 -8 -8 -14t-10 -11l-3 -3l-25 -23q-7 -6 -17.5 -12.5t-22 -12t-22.5 -8.5t-19 -3q-12 0 -18 6l-12 12q-7 1 -10 6l-2 3l-1 1q-8 8 -8 20t5 22q5 12 11 20l12 16l-1 -1q1 2 2.5 3t2.5 3h1q0 1 2 3z" />
    <glyph glyph-name="FL00D4h" unicode="&#xd4;" horiz-adv-x="745" 
d="M533 594l59 59l32 -59h82l-47 94q-4 6 -10.5 14.5t-14.5 8.5h-62q-5 0 -11.5 -4.5t-11.5 -7.5l-107 -105h91zM809 287q11 66 -2.5 112t-45.5 75t-81.5 42.5t-110.5 13.5h-132q-53 0 -105 -26.5t-95 -68.5t-72.5 -93t-36.5 -99q-10 -72 5.5 -119t50 -74.5t85.5 -38.5
t112 -11h100q60 0 116 26.5t100.5 68.5t74.5 93t37 99zM317 257q1 8 5 18.5t9 22.5q9 17 24.5 34.5t33.5 31.5t36.5 22.5t34.5 8.5h81q23 0 38.5 -7t24.5 -18.5t13 -26t4 -30.5q0 -11 -0.5 -20.5t-1.5 -19.5q0 1 -0.5 -1.5l-1.5 -7.5l-4 -10q-2 -8 -11 -22
q-9 -17 -26.5 -34.5t-37 -31.5t-38 -22.5t-30.5 -8.5h-66q-20 0 -37 12t-29 30t-18 39.5t-3 40.5zM401 -31q-69 0 -125 13.5t-92 48.5q-35 23 -54.5 61.5t-19.5 98.5q0 13 1 26.5t3 27.5q7 50 38 103t76 96.5t99.5 71.5t109.5 28h132q79 0 137.5 -21t90.5 -69
q48 -50 48 -133q0 -14 -1.5 -28t-3.5 -28q-8 -50 -38.5 -102.5t-77 -95.5t-104 -70.5t-119.5 -27.5h-100zM347 224q0 -32 16 -57q19 -18 41 -18h66q10 0 27 7.5t34.5 20t33 28t23.5 30.5q5 8 7.5 13.5t3.5 7.5l4 11q1 10 3 18q0 7 0.5 13.5t0.5 14.5q0 26 -12 44
q-15 7 -34 7h-81q-15 0 -32 -8t-33.5 -21t-31 -29.5t-22.5 -32.5h-1q-11 -23 -12 -37v-2q-1 -3 -1 -10zM615 580l-14 26l-43 -43h-123l-17 17h-10l133 131l4 2l-1 -1q8 5 15 9t13 4h62q14 0 23 -10.5t14 -18.5l2 -4l1 -1q9 -9 16 -21l54 -107h-107l-17 17h-5z" />
    <glyph glyph-name="FL00D5h" unicode="&#xd5;" horiz-adv-x="745" 
d="M698 710l-58 -59l-33 59h-82q-5 0 -11 -4.5t-11 -7.5l-107 -105h91l58 59l33 -59h82q5 0 11.5 4.5t10.5 7.5q40 39 62 60t32 31t11.5 12l1.5 2h-91zM317 257q1 8 5 18.5t9 22.5q9 17 24.5 34.5t33.5 31.5t36.5 22.5t34.5 8.5h81q23 0 38.5 -7t24.5 -18.5t13 -26t4 -30.5
q0 -11 -0.5 -20.5t-1.5 -19.5q0 1 -0.5 -1.5l-1.5 -7.5l-4 -10q-2 -8 -11 -22q-9 -17 -26.5 -34.5t-37 -31.5t-38 -22.5t-30.5 -8.5h-66q-20 0 -37 12t-29 30t-18 39.5t-3 40.5zM809 287q11 66 -2.5 112t-45.5 75t-81.5 42.5t-110.5 13.5h-132q-53 0 -105 -26.5t-95 -68.5
t-72.5 -93t-36.5 -99q-10 -72 5.5 -119t50 -74.5t85.5 -38.5t112 -11h100q60 0 116 26.5t100.5 68.5t74.5 93t37 99zM401 -31q-69 0 -125 13.5t-92 48.5q-35 23 -54.5 61.5t-19.5 98.5q0 13 1 26.5t3 27.5q7 50 38 103t76 96.5t99.5 71.5t109.5 28h132q79 0 137.5 -21
t90.5 -69q48 -50 48 -133q0 -14 -1.5 -28t-3.5 -28q-8 -50 -38.5 -102.5t-77 -95.5t-104 -70.5t-119.5 -27.5h-100zM525 724h91l6 -11l12 -12l12 -24l46 47h111v-6l17 -17q0 -7 -1.5 -12t-12 -17t-33 -34t-64.5 -62q-5 -4 -13 -9t-16 -5h-89l-17 17h-5l-15 25l-42 -42h-123
l-17 17h-10l133 131q3 1 6 4q5 4 10.5 7t13.5 3zM347 224q0 -32 16 -57q19 -18 41 -18h66q10 0 27 7.5t34.5 20t33 28t23.5 30.5q5 8 7.5 13.5t3.5 7.5l4 11q1 10 3 18q0 7 0.5 13.5t0.5 14.5q0 26 -12 44q-15 7 -34 7h-81q-15 0 -32 -8t-33.5 -21t-31 -29.5t-22.5 -32.5h-1
q-11 -23 -12 -37v-2q-1 -3 -1 -10z" />
    <glyph glyph-name="FL00D6h" unicode="&#xd6;" horiz-adv-x="745" 
d="M757 653q9 25 -3 42t-39 17t-51.5 -17t-33.5 -42t3 -42t39 -17t51.5 17t33.5 42zM449 653q-9 -25 2.5 -42t38.5 -17t52 17t34 42t-3.5 42t-39.5 17t-51 -17t-33 -42zM809 287q11 66 -2.5 112t-45.5 75t-81.5 42.5t-110.5 13.5h-132q-53 0 -105 -26.5t-95 -68.5t-72.5 -93
t-36.5 -99q-10 -72 5.5 -119t50 -74.5t85.5 -38.5t112 -11h100q60 0 116 26.5t100.5 68.5t74.5 93t37 99zM317 257q1 8 5 18.5t9 22.5q9 17 24.5 34.5t33.5 31.5t36.5 22.5t34.5 8.5h81q23 0 38.5 -7t24.5 -18.5t13 -26t4 -30.5q0 -11 -0.5 -20.5t-1.5 -19.5q0 1 -0.5 -1.5
l-1.5 -7.5l-4 -10q-2 -8 -11 -22q-9 -17 -26.5 -34.5t-37 -31.5t-38 -22.5t-30.5 -8.5h-66q-20 0 -37 12t-29 30t-18 39.5t-3 40.5zM401 -31q-69 0 -125 13.5t-92 48.5q-35 23 -54.5 61.5t-19.5 98.5q0 13 1 26.5t3 27.5q7 50 38 103t76 96.5t99.5 71.5t109.5 28h132
q79 0 137.5 -21t90.5 -69q48 -50 48 -133q0 -14 -1.5 -28t-3.5 -28q-8 -50 -38.5 -102.5t-77 -95.5t-104 -70.5t-119.5 -27.5h-100zM347 224q0 -32 16 -57q19 -18 41 -18h66q10 0 27 7.5t34.5 20t33 28t23.5 30.5q5 8 7.5 13.5t3.5 7.5l4 11q1 10 3 18q0 7 0.5 13.5
t0.5 14.5q0 26 -12 44q-15 7 -34 7h-81q-15 0 -32 -8t-33.5 -21t-31 -29.5t-22.5 -32.5h-1q-11 -23 -12 -37v-2q-1 -3 -1 -10zM648 579l-8 7q-28 13 -28 47q0 13 5 25q10 29 38.5 48.5t59.5 19.5q42 0 55 -31l9 -8q13 -13 13 -34q0 -12 -5 -24q-10 -28 -37.5 -47t-57.5 -19
q-28 0 -44 16zM436 658q10 29 38 48.5t59 19.5q21 0 35.5 -9t20.5 -23l8 -7q14 -14 14 -35q0 -10 -5 -23q-10 -28 -38 -47t-58 -19q-27 0 -42 15l-8 8q-29 12 -29 47q0 13 5 25z" />
    <glyph glyph-name="FL00D7h" unicode="&#xd7;" horiz-adv-x="423" 
d="M287 145l18 -34h5l17 -17h149l-73 145l186 150l-18 18l6 5h-170l-65 -53l-15 30l-13 12l-5 11h-156l73 -146l-191 -155h11l17 -17h160zM281 190l-82 -65h-124l169 137l-68 136h124l34 -64l79 64h124l-168 -136l69 -137h-124z" />
    <glyph glyph-name="FL00D8h" unicode="&#xd8;" horiz-adv-x="745" 
d="M317 257q1 8 5 18.5t9 22.5q9 17 24.5 34.5t33.5 31.5t36.5 22.5t34.5 8.5h81q5 0 13 -1.5t19 -3.5l-253 -178q-3 11 -4 22.5t1 22.5zM619 273q0 1 -0.5 -1.5l-1.5 -7.5l-4 -10q-2 -8 -11 -22q-9 -17 -26.5 -34.5t-37 -31.5t-38 -22.5t-30.5 -8.5h-66q-21 0 -37 12
l252 180q3 -29 0 -54zM809 287q11 66 -2.5 112t-45.5 75t-81.5 42.5t-110.5 13.5h-132q-53 0 -105 -26.5t-95 -68.5t-72.5 -93t-36.5 -99q-10 -72 5.5 -119t50 -74.5t85.5 -38.5t112 -11h100q60 0 116 26.5t100.5 68.5t74.5 93t37 99zM401 -31q-69 0 -125 13.5t-92 48.5
q-35 23 -54.5 61.5t-19.5 98.5q0 13 1 26.5t3 27.5q7 50 38 103t76 96.5t99.5 71.5t109.5 28h132q79 0 137.5 -21t90.5 -69q48 -50 48 -133q0 -14 -1.5 -28t-3.5 -28q-8 -50 -38.5 -102.5t-77 -95.5t-104 -70.5t-119.5 -27.5h-100zM603 267v1l-166 -119h33q10 0 27 7.5
t34.5 20t33 28t23.5 30.5q5 8 7.5 13.5t3.5 7.5zM360 273q-3 -6 -5 -12t-4 -11l161 114h-32q-15 0 -32 -8t-33.5 -21t-31 -29.5t-22.5 -32.5h-1z" />
    <glyph glyph-name="FL00D9h" unicode="&#xd9;" horiz-adv-x="706" 
d="M623 667l-8 22q-3 11 -8 20.5t-16 9.5q-4 0 -28 -8q-28 -17 -38 -42q-2 -7 -1 -13t3 -12l7 -23q5 -13 20.5 -23t29.5 -10q1 0 3.5 0.5l7.5 1.5l6 4q8 4 13 11.5t8 16.5q5 14 3 24.5t-2 20.5zM233 530l-79 -222q-9 -34 -16.5 -60t-12.5 -52q-20 -107 39 -151.5t199 -44.5
h117q60 0 103 18.5t76 54.5t59 88.5t51 121.5l90 247h-190l-108 -297q-7 -14 -19 -31t-28 -32t-36.5 -25t-44.5 -10h-49q-37 0 -50.5 29t-6.5 77q0 3 2 10.5t11 35.5t28 84.5t54 158.5h-189zM140 312l83 232h218q-2 -6 -2 -5l18 -18q-36 -106 -56 -165t-29.5 -88.5
t-11.5 -37.5t-2 -11q-2 -10 -2 -16v-13q0 -24 4 -35q10 -6 24 -6h49q21 0 38.5 9t32.5 22.5t26 29t18 28.5l112 306h218l-2 -5l18 -18l-95 -262q-26 -71 -52.5 -125t-60.5 -90.5t-79 -55.5t-107 -19h-117q-81 0 -134.5 13t-83.5 43l-2 1q-57 39 -57 119q0 12 1.5 25.5
t3.5 27.5q4 20 8.5 39.5t10.5 37.5l3 12q2 6 3.5 12t3.5 13zM557 580l-4 3q-11 7 -20.5 17.5t-14.5 21.5l-5 19q-2 4 -2.5 9t-0.5 10v5q0 2 2 8q13 32 41 49q33 11 38 11q11 0 18 -5.5t12 -14.5l11 -11q5 -5 8.5 -13.5t5.5 -16.5l-1 1l9 -25q0 -7 1 -10q0 -4 0.5 -9t0.5 -9
q0 -14 -8 -31.5t-22 -24.5l-8 -5q-1 0 -3.5 -0.5t-3.5 -0.5q-3 -1 -7 -1q-24 0 -47 23z" />
    <glyph glyph-name="FL00DAh" unicode="&#xda;" horiz-adv-x="706" 
d="M580 689l-24 -22q-8 -10 -18 -20.5t-15 -24.5q-3 -9 -3.5 -16.5t4.5 -11.5l4 -4q0 -2 9 -2q7 0 17 3t20.5 7.5t20 10.5t16.5 12l23 23l12 12t8 13q10 25 -6 42q-11 8 -22 8t-23 -9.5t-23 -20.5zM233 530l-79 -222q-9 -34 -16.5 -60t-12.5 -52q-20 -107 39 -151.5
t199 -44.5h117q60 0 103 18.5t76 54.5t59 88.5t51 121.5l90 247h-190l-108 -297q-7 -14 -19 -31t-28 -32t-36.5 -25t-44.5 -10h-49q-37 0 -50.5 29t-6.5 77q0 3 2 10.5t11 35.5t28 84.5t54 158.5h-189zM140 312l83 232h218q-2 -6 -2 -5l18 -18q-36 -106 -56 -165
t-29.5 -88.5t-11.5 -37.5t-2 -11q-2 -10 -2 -16v-13q0 -24 4 -35q10 -6 24 -6h49q21 0 38.5 9t32.5 22.5t26 29t18 28.5l112 306h218l-2 -5l18 -18l-95 -262q-26 -71 -52.5 -125t-60.5 -90.5t-79 -55.5t-107 -19h-117q-81 0 -134.5 13t-83.5 43l-2 1q-57 39 -57 119
q0 12 1.5 25.5t3.5 27.5q4 20 8.5 39.5t10.5 37.5l3 12q2 6 3.5 12t3.5 13zM546 677l19 17q14 14 29.5 26.5t31.5 12.5q14 0 33 -13q2 -2 4.5 -5.5t4.5 -7.5l9 -9q12 -12 12 -31q0 -10 -5 -22q-3 -8 -8.5 -14.5t-10.5 -11.5l-3 -3l-24 -23q-7 -6 -17.5 -12.5t-22 -12
t-22.5 -8.5t-19 -3q-11 0 -17 6h-1l-12 12q-5 1 -8 4l-6 6q-8 8 -8 20q0 6 5 21q5 14 12.5 23.5t15.5 17.5q2 2 3 4t5 6z" />
    <glyph glyph-name="FL00DBh" unicode="&#xdb;" horiz-adv-x="706" 
d="M517 594l58 59l33 -59h82l-47 94q-4 6 -11 14.5t-15 8.5h-62q-5 0 -11 -4.5t-11 -7.5l-107 -105h91zM233 530l-79 -222q-9 -34 -16.5 -60t-12.5 -52q-20 -107 39 -151.5t199 -44.5h117q60 0 103 18.5t76 54.5t59 88.5t51 121.5l90 247h-190l-108 -297q-7 -14 -19 -31
t-28 -32t-36.5 -25t-44.5 -10h-49q-37 0 -50.5 29t-6.5 77q0 3 2 10.5t11 35.5t28 84.5t54 158.5h-189zM140 312l83 232h218q-2 -6 -2 -5l18 -18q-36 -106 -56 -165t-29.5 -88.5t-11.5 -37.5t-2 -11q-2 -10 -2 -16v-13q0 -24 4 -35q10 -6 24 -6h49q21 0 38.5 9t32.5 22.5
t26 29t18 28.5l112 306h218l-2 -5l18 -18l-95 -262q-26 -71 -52.5 -125t-60.5 -90.5t-79 -55.5t-107 -19h-117q-81 0 -134.5 13t-83.5 43l-2 1q-57 39 -57 119q0 12 1.5 25.5t3.5 27.5q4 20 8.5 39.5t10.5 37.5l3 12q2 6 3.5 12t3.5 13zM599 580l-15 25l-42 -42h-123l-17 17
h-10l133 131q3 1 6 4q5 4 10.5 7t13.5 3h62q14 0 23.5 -10.5t14.5 -18.5l2 -4l1 -1q9 -9 16 -21l54 -107h-107l-17 17h-5z" />
    <glyph glyph-name="FL00DCh" unicode="&#xdc;" horiz-adv-x="706" 
d="M742 652q9 25 -2.5 42t-38.5 17t-52 -17t-34 -42t3.5 -42t39.5 -17t51 17t33 42zM233 530l-79 -222q-9 -34 -16.5 -60t-12.5 -52q-20 -107 39 -151.5t199 -44.5h117q60 0 103 18.5t76 54.5t59 88.5t51 121.5l90 247h-190l-108 -297q-7 -14 -19 -31t-28 -32t-36.5 -25
t-44.5 -10h-49q-37 0 -50.5 29t-6.5 77q0 3 2 10.5t11 35.5t28 84.5t54 158.5h-189zM434 652q-9 -25 3 -42t39 -17t51.5 17t33.5 42t-3 42t-39 17t-51.5 -17t-33.5 -42zM140 312l83 232h218q-2 -6 -2 -5l18 -18q-36 -106 -56 -165t-29.5 -88.5t-11.5 -37.5t-2 -11
q-2 -10 -2 -16v-13q0 -24 4 -35q10 -6 24 -6h49q21 0 38.5 9t32.5 22.5t26 29t18 28.5l112 306h218l-2 -5l18 -18l-95 -262q-26 -71 -52.5 -125t-60.5 -90.5t-79 -55.5t-107 -19h-117q-81 0 -134.5 13t-83.5 43l-2 1q-57 39 -57 119q0 12 1.5 25.5t3.5 27.5q4 20 8.5 39.5
t10.5 37.5l3 12q2 6 3.5 12t3.5 13zM421 657q10 29 38.5 48.5t59.5 19.5q42 0 55 -31l9 -8q13 -13 13 -34q0 -12 -5 -24q-10 -28 -37.5 -47t-57.5 -19q-28 0 -44 16l-8 7q-28 13 -28 47q0 13 5 25zM634 578l-8 8q-29 14 -29 47q0 8 0.5 11.5t2.5 8.5v-1q0 1 0.5 2t0.5 2
q6 15 16.5 27.5t24 21.5t29 14.5t30.5 5.5q41 0 54 -31l8 -7q14 -14 14 -35q0 -12 -5 -24q-10 -28 -37 -47t-57 -19q-28 0 -44 16z" />
    <glyph glyph-name="FL00DDh" unicode="&#xdd;" horiz-adv-x="680" 
d="M570 689l-24 -22q-8 -10 -18 -20.5t-15 -24.5q-3 -9 -3.5 -16.5t4.5 -11.5l4 -4q0 -2 9 -2q7 0 17 3t20.5 7.5t20 10.5t16.5 12l23 23l12 12t8 13q10 25 -6 42q-11 8 -22 8t-23 -9.5t-23 -20.5zM223 530l113 -278l-92 -252h192l92 252l315 278h-214l-142 -125l-50 125
h-214zM449 535l15 -14l35 -89l125 112h256l-6 -5l18 -18l-335 -295l-94 -257h-214l-17 17h-7l95 265l-118 293h244zM536 677l19 17q14 14 29.5 26.5t31.5 12.5q14 0 33 -13q2 -2 4.5 -5.5t4.5 -7.5l9 -9q12 -12 12 -31q0 -10 -5 -22q-3 -8 -8.5 -14.5t-10.5 -11.5l-3 -3
l-24 -23q-7 -6 -17.5 -12.5t-22 -12t-22.5 -8.5t-19 -3q-11 0 -17 6h-1l-12 12q-5 1 -8 4l-6 6q-8 8 -8 20q0 6 5 21q5 14 12.5 23.5t15.5 17.5q2 2 3 4t5 6z" />
    <glyph glyph-name="FL00DEh" unicode="&#xde;" horiz-adv-x="704" 
d="M284 142l55 152h205q2 0 9.5 -8.5t10.5 -13.5l0.5 -2t0.5 -3l-2 -5q-1 -3 -4 -8.5t-7 -11.5t-7.5 -10.5t-4.5 -4.5h-160zM233 530l-193 -530h192l33 92h281q34 0 71 14t68 39.5t51.5 60.5t20.5 77q-1 20 -7.5 45.5t-18.5 48t-31 38t-44 15.5h-267l36 100h-192zM21 -14
l203 558h220l-2 -5l18 -18l-28 -77h224q26 0 46 -14.5t34 -36.5q25 -26 37.5 -63.5t14.5 -66.5q0 -44 -21.5 -81t-54 -64t-71.5 -42t-75 -15h-274l-33 -92h-214l-17 17h-7zM366 263l-16 -44l25 22h165l3 8.5t4 11.5l1 2h-182z" />
    <glyph glyph-name="FL00DFh" unicode="&#xdf;" horiz-adv-x="695" 
d="M342 178l17 -17h128q-7 -5 -12.5 -8t-6.5 -3h-120q-11 -11 -20.5 -21.5t-17.5 -21.5l25 71h7zM337 184l65 179h165l-1 -2q-1 -3 -4 -11.5t-4 -8.5h-41zM-23 -155l17 -17h214l51 141h242q61 0 99.5 8t62.5 24.5t39 42.5t31 63l4 11q5 14 11 33t6 35q-1 18 -7 28t-12 18h-1
q14 9 27 23t23 31.5t16 36.5t6 38v2q0 30 -12 67.5t-38 63.5l-1 1q-14 21 -34.5 35t-46.5 14h-390q-35 -38 -64 -73t-47 -64l-203 -562h7zM181 -141h-192l196 539q20 34 47 67t57 65h385q26 0 45 -15.5t31.5 -38t18.5 -48t6 -45.5v-2q0 -19 -6.5 -38.5t-17.5 -37t-25 -30.5
t-28 -19q4 -8 14 -19t11 -31q0 -14 -5.5 -32.5t-10.5 -31.5l-4 -11q-15 -35 -29.5 -60t-37.5 -40.5t-59.5 -23t-95.5 -7.5h-229q26 38 50 72.5t52 63.5h114l5 2.5t11 6l12 7t9 6.5l1.5 2t2.5 3l2 5q2 3 2.5 10t0.5 14h-146l154 135h36q1 0 4.5 4.5t7.5 10.5t7.5 11.5
t4.5 8.5l2 5q-1 1 -1.5 3l-0.5 2q-3 5 -10.5 13.5t-9.5 8.5h-187z" />
    <glyph glyph-name="FL00E0h" unicode="&#xe0;" 
d="M613 665l-8 22q-2 11 -7.5 20.5t-16.5 9.5q-4 0 -28 -8q-27 -17 -37 -42q-3 -7 -1.5 -13t3.5 -12l6 -23q5 -13 20.5 -23t29.5 -10q9 0 11 2l6 4q8 4 13 11.5t9 16.5q5 14 2.5 24.5t-2.5 20.5zM550 113l21 -113h178l-66 429q-3 12 -7.5 29.5t-10.5 33.5t-14.5 27t-18.5 11
h-168q-7 0 -17.5 -7.5t-21 -17t-19.5 -19.5t-12 -16l-360 -460v-3q0 2 -0.5 0t-1.5 -7h423q7 3 22 19t30.5 35t28 36t14.5 23zM550 134h-203v10l168 225zM559 -14l-11 57q-9 -12 -19.5 -24.5t-20.5 -23t-18.5 -17.5t-12.5 -9h-439l-17 17h-7q2 7 3 13t3 12v4l2 2q7 24 15 24
q2 0 3 -1l342 438l1 1q5 7 15 18t22 21.5t24 18t20 7.5h168q12 0 21 -8t16 -20l6 -5q8 -8 14 -20.5t10.5 -26t8 -27t6.5 -23.5l68 -445h-200l-17 17h-6zM547 578l-3 3q-26 14 -35 38l-6 21q-3 7 -3 18q0 5 3 13q12 32 41 50q24 10 37 10q12 0 19.5 -7t12.5 -17l9 -8
q11 -13 14 -30h-1l8 -20l1 -4q0 -11 1.5 -15t1.5 -14q0 -11 -4 -20q-5 -11 -10.5 -20t-16.5 -14l-3 -2q-5 -5 -19 -5q-11 0 -24 6.5t-23 16.5zM533 148l-23 148l-111 -148h134z" />
    <glyph glyph-name="FL00E1h" unicode="&#xe1;" 
d="M571 688l-24 -22q-7 -10 -17 -20.5t-15 -24.5q-3 -9 -3.5 -16.5t4.5 -11.5l3 -4q2 -2 10 -2q14 0 37 10t37 23l23 23l12 12t8 13q10 25 -7 42q-11 8 -22 8t-23 -9.5t-23 -20.5zM550 113l21 -113h178l-66 429q-3 12 -7.5 29.5t-10.5 33.5t-14.5 27t-18.5 11h-168
q-7 0 -17.5 -7.5t-21 -17t-19.5 -19.5t-12 -16l-360 -460v-3q0 2 -0.5 0t-1.5 -7h423q7 3 22 19t30.5 35t28 36t14.5 23zM550 134h-203v10l168 225zM559 -14l-11 57q-9 -12 -19.5 -24.5t-20.5 -23t-18.5 -17.5t-12.5 -9h-439l-17 17h-7q2 7 3 13t3 12v4l2 2q7 24 15 24
q2 0 3 -1l342 438l1 1q5 7 15 18t22 21.5t24 18t20 7.5h168q12 0 21 -8t16 -20l6 -5q8 -8 14 -20.5t10.5 -26t8 -27t6.5 -23.5l68 -445h-200l-17 17h-6zM534 672l22 21q14 14 29.5 26.5t31.5 12.5q14 0 33 -13q6 -6 9 -14l9 -8q13 -13 13 -32q0 -12 -5 -22h-1q-3 -8 -8 -14
t-10 -11l-3 -3l-24 -23q-16 -14 -40.5 -25t-40.5 -11q-13 0 -19 6l-13 12q-8 4 -9 6l-4 5q-7 7 -7 19q0 6 5 21q3 10 9 17t11 15h-2l10 10q1 1 1.5 2t2.5 3zM533 148l-23 148l-111 -148h134z" />
    <glyph glyph-name="FL00E2h" unicode="&#xe2;" 
d="M522 593l57 59l34 -59h82l-47 94q-4 6 -11.5 14.5t-15.5 8.5h-62q-5 0 -10.5 -4.5t-10.5 -7.5l-107 -105q-1 -1 91 0zM550 113l21 -113h178l-66 429q-3 12 -7.5 29.5t-10.5 33.5t-14.5 27t-18.5 11h-168q-7 0 -17.5 -7.5t-21 -17t-19.5 -19.5t-12 -16l-360 -460v-3
q0 2 -0.5 0t-1.5 -7h423q7 3 22 19t30.5 35t28 36t14.5 23zM550 134h-203v10l168 225zM559 -14l-11 57q-9 -12 -19.5 -24.5t-20.5 -23t-18.5 -17.5t-12.5 -9h-439l-17 17h-7q2 7 3 13t3 12v4l2 2q7 24 15 24q2 0 3 -1l342 438l1 1q5 7 15 18t22 21.5t24 18t20 7.5h168
q12 0 21 -8t16 -20l6 -5q8 -8 14 -20.5t10.5 -26t8 -27t6.5 -23.5l68 -445h-200l-17 17h-6zM604 579l-15 26l-42 -43q-11 -1 -22 -1h-21h-31q-14 0 -24 0.5t-13 3.5l-15 14q-10 3 -10 9q0 5 10 15l109 107q3 1 6 4q5 4 10 7t13 3h62q13 0 23.5 -10.5t15.5 -18.5l3 -6l1 -1
q-1 1 -2 1l-1 1l2 -2l55 -109h-109l-3 3l-15 25l-2 -2l-13 23l-48 -49q-11 -1 -22 -1h-22h-31h-18q-10 0 -14 1l-5 6q-5 4 7 16l108 106q3 1 7 5q5 4 9 6.5t12 2.5h62q6 0 12 -4t11 -9l19 -19v-1h1q5 -5 9 -10t6 -9l54 -107h-107l-17 17h-5zM569 647l7 -14l-49 -51
q-11 -1 -22 -1h-21h-31h-10l108 106q3 1 7 5q5 4 9 6.5t12 2.5h62q5 0 13 -5q4 -4 5 -7l54 -107h-99l-17 31l10 11l-20 20zM533 148l-23 148l-111 -148h134z" />
    <glyph glyph-name="FL00E3h" unicode="&#xe3;" 
d="M703 710l-58 -59l-33 59h-82q-5 0 -11 -4.5t-11 -7.5l-107 -105h91l58 59l33 -59h82q5 0 11.5 4.5t10.5 7.5q40 39 62 60t32 31t11.5 12l1.5 2h-91zM550 113l21 -113h178l-66 429q-3 12 -7.5 29.5t-10.5 33.5t-14.5 27t-18.5 11h-168q-7 0 -17.5 -7.5t-21 -17
t-19.5 -19.5t-12 -16l-360 -460v-3q0 2 -0.5 0t-1.5 -7h423q7 3 22 19t30.5 35t28 36t14.5 23zM550 134h-203v10l168 225zM559 -14l-11 57q-9 -12 -19.5 -24.5t-20.5 -23t-18.5 -17.5t-12.5 -9h-439l-17 17h-7q2 7 3 13t3 12v4l2 2q7 24 15 24q2 0 3 -1l342 438l1 1
q5 7 15 18t22 21.5t24 18t20 7.5h168q12 0 21 -8t16 -20l6 -5q8 -8 14 -20.5t10.5 -26t8 -27t6.5 -23.5l68 -445h-200l-17 17h-6zM530 724h91l6 -11l12 -12l12 -24l46 47h111v-6l17 -17q0 -7 -1.5 -12t-12 -17t-33 -34t-64.5 -62q-5 -4 -13 -9t-16 -5h-89l-17 17h-5l-15 25
l-42 -42h-123l-17 17h-10l133 131q3 1 6 4q5 4 10.5 7t13.5 3zM533 148l-23 148l-111 -148h134z" />
    <glyph glyph-name="FL00E4h" unicode="&#xe4;" 
d="M739 653q9 25 -3 42t-39 17t-51.5 -17t-33.5 -42t3 -42t39 -17t51.5 17t33.5 42zM431 653q-9 -25 2.5 -42t38.5 -17t52 17t34 42t-3.5 42t-39.5 17t-51 -17t-33 -42zM550 113l21 -113h178l-66 429q-3 12 -7.5 29.5t-10.5 33.5t-14.5 27t-18.5 11h-168q-7 0 -17.5 -7.5
t-21 -17t-19.5 -19.5t-12 -16l-360 -460v-3q0 2 -0.5 0t-1.5 -7h423q7 3 22 19t30.5 35t28 36t14.5 23zM550 134h-203v10l168 225zM559 -14l-11 57q-9 -12 -19.5 -24.5t-20.5 -23t-18.5 -17.5t-12.5 -9h-439l-17 17h-7q2 7 3 13t3 12v4l2 2q7 24 15 24q2 0 3 -1l342 438l1 1
q5 7 15 18t22 21.5t24 18t20 7.5h168q12 0 21 -8t16 -20l6 -5q8 -8 14 -20.5t10.5 -26t8 -27t6.5 -23.5l68 -445h-200l-17 17h-6zM630 579l-8 7q-28 13 -28 47q0 13 5 25q10 29 38.5 48.5t59.5 19.5q42 0 55 -31l9 -8q13 -13 13 -34q0 -12 -5 -24q-10 -28 -37.5 -47
t-57.5 -19q-28 0 -44 16zM418 658q10 29 38 48.5t59 19.5q21 0 35.5 -9t20.5 -23l8 -7q14 -14 14 -35q0 -10 -5 -23q-10 -28 -38 -47t-58 -19q-27 0 -42 15l-8 8q-29 12 -29 47q0 13 5 25zM533 148l-23 148l-111 -148h134z" />
    <glyph glyph-name="FL00E5h" unicode="&#xe5;" 
d="M523 653q-9 -25 2.5 -42t38.5 -17t52 17t34 42t-3.5 42t-39.5 17t-51 -17t-33 -42zM550 113l21 -113h178l-66 429q-3 12 -7.5 29.5t-10.5 33.5t-14.5 27t-18.5 11h-168q-7 0 -17.5 -7.5t-21 -17t-19.5 -19.5t-12 -16l-360 -460v-3q0 2 -0.5 0t-1.5 -7h423q7 3 22 19
t30.5 35t28 36t14.5 23zM550 134h-203v10l168 225zM559 -14l-11 57q-9 -12 -19.5 -24.5t-20.5 -23t-18.5 -17.5t-12.5 -9h-439l-17 17h-7q2 7 3 13t3 12v4l2 2q7 24 15 24q2 0 3 -1l342 438l1 1q5 7 15 18t22 21.5t24 18t20 7.5h168q12 0 21 -8t16 -20l6 -5q8 -8 14 -20.5
t10.5 -26t8 -27t6.5 -23.5l68 -445h-200l-17 17h-6zM510 658q10 29 38 48.5t59 19.5q21 0 35.5 -9t20.5 -23l8 -7q14 -14 14 -35q0 -10 -5 -23q-10 -28 -38 -47t-58 -19q-27 0 -42 15l-8 8q-29 12 -29 47q0 13 5 25zM533 148l-23 148l-111 -148h134z" />
    <glyph glyph-name="FL00E6h" unicode="&#xe6;" horiz-adv-x="1187" 
d="M347 134v10l168 225l35 -235h-203zM1336 530h-570l-69 -190l-14 89q-1 13 -5.5 30t-11.5 33t-16 27t-18 11h-168q-7 0 -17.5 -7.5t-21 -17t-19.5 -19.5t-12 -16l-360 -460v-3q0 2 -0.5 0t-1.5 -7h423q7 3 22 19t30.5 35t28 36t14.5 23l21 -113h505q1 0 12.5 10t26.5 24.5
t30.5 30.5t24.5 28q1 1 5 7t8 13t8 13.5t5 8.5h-383l22 60h199l143 135h-231l-95 -92l57 157h308q8 0 25.5 16t36 38t35 44.5t23.5 36.5zM757 544h602q-1 -3 -3 -5l18 -18q-8 -16 -27 -42.5t-40.5 -52t-41.5 -44t-29 -18.5h-301l-14 -39l19 19h272l-5 -5l18 -18l-166 -157
h-197l-5 -15h362q-2 -2 -3 -6l18 -17q-2 -3 -7.5 -12.5t-11.5 -20t-11 -19t-6 -9.5q-10 -13 -26.5 -29.5t-33 -31.5t-29 -25t-13.5 -10h-514l-17 17h-6l-11 57q-9 -12 -19.5 -24.5t-20.5 -23t-18.5 -17.5t-12.5 -9h-439l-17 17h-7q2 7 3 13t3 12v4l2 2q7 24 15 24q2 0 3 -1
l342 438l1 1q5 7 15 18t22 21.5t24 18t20 7.5h168q9 0 17 -7.5t16 -18.5l8 -7q14 -15 25 -42t14 -49zM533 148l-23 148l-111 -148h134z" />
    <glyph glyph-name="FL00E7h" unicode="&#xe7;" horiz-adv-x="655" 
d="M356 237q0 9 8 38h-1q6 16 15 32t20 28.5t24.5 20.5t27.5 8h263q42 35 75.5 73.5t67.5 83.5l-18 18q1 1 1.5 2t2.5 3h-442q-56 0 -105.5 -28t-87.5 -72t-60 -97t-22 -104q0 -69 24 -115.5t66 -77.5q32 -31 74 -48l-4 -12h-48l-160 -120h12l17 -17h302l42 116h124
q42 32 75 73.5t61 83.5l-18 18q2 2 3 5h-265q-13 0 -26.5 7.5t-25.5 20.5q-10 14 -16 30t-6 30zM381 -116h-261l122 92h53l16 44q-37 11 -68.5 29t-54.5 45t-36 64t-13 85t21 99t57 93t83 68.5t100 26.5h413q-29 -38 -58.5 -71.5t-64.5 -63.5h-260q-16 0 -31 -8.5
t-27.5 -22.5t-22.5 -31.5t-16 -34.5q-8 -29 -8 -41q0 -19 10 -40.5t25.5 -39.5t34 -30t35.5 -12h239q-23 -34 -52 -69.5t-67 -65.5h-80h-24h-11q-10 0 -12 1z" />
    <glyph glyph-name="FL00E8h" unicode="&#xe8;" horiz-adv-x="649" 
d="M570 670l-8 22q-3 11 -8 20.5t-16 9.5q-4 0 -28 -8q-29 -16 -37 -42q-3 -7 -2 -13t3 -12l7 -23q5 -13 20.5 -23t29.5 -10q1 0 3.5 0.5l7.5 1.5l6 4q8 4 13 11.5t8 16.5q5 14 3 24.5t-2 20.5zM233 530l-193 -530h503q1 0 12.5 10t26.5 24.5t30.5 30.5t24.5 28q1 1 5 7
t8 13t8 13.5t5 8.5h-383l22 60h199l143 135h-231l-95 -92l57 157h308q8 0 25.5 16t36 38t35 44.5t23.5 36.5h-570zM21 -14l203 558h602q-1 -3 -3 -5l18 -18q-8 -16 -27 -42.5t-40.5 -52t-41.5 -44t-29 -18.5h-301l-14 -39l19 19h272l-5 -5l18 -18l-166 -157h-197l-5 -15h362
q-2 -2 -3 -6l18 -17q-2 -3 -7 -12t-10.5 -19t-10.5 -18.5t-7 -10.5l-1 -1q-10 -13 -26.5 -29.5t-33 -31.5t-29 -25t-13.5 -10h-518l-17 17h-7zM504 583l-4 3q-11 7 -20.5 17.5t-14.5 21.5l-5 19q-2 4 -2.5 8.5t-0.5 9.5v6q0 2 2 8q9 30 38 48q33 12 41 12q11 0 18 -5.5
t12 -14.5l11 -11q5 -5 8.5 -13.5t5.5 -16.5l-1 1l9 -25q0 -7 1 -10q0 -4 0.5 -9t0.5 -9q0 -14 -8 -31.5t-22 -24.5l-8 -5q-1 0 -3.5 -0.5t-3.5 -0.5q-3 -1 -7 -1q-24 0 -47 23z" />
    <glyph glyph-name="FL00E9h" unicode="&#xe9;" horiz-adv-x="649" 
d="M529 693l-24 -22q-8 -10 -17.5 -20.5t-14.5 -24.5q-4 -7 -4 -17q0 -6 5 -11l3 -4q2 -2 9 -2t17 3t20.5 7.5t20 10.5t16.5 12l24 23l12 12t8 13q10 25 -7 42q-11 8 -22 8t-23 -9.5t-23 -20.5zM233 530l-193 -530h503q1 0 12.5 10t26.5 24.5t30.5 30.5t24.5 28q1 1 5 7
t8 13t8 13.5t5 8.5h-383l22 60h199l143 135h-231l-95 -92l57 157h308q8 0 25.5 16t36 38t35 44.5t23.5 36.5h-570zM21 -14l203 558h602q-1 -3 -3 -5l18 -18q-8 -16 -27 -42.5t-40.5 -52t-41.5 -44t-29 -18.5h-301l-14 -39l19 19h272l-5 -5l18 -18l-166 -157h-197l-5 -15h362
q-2 -2 -3 -6l18 -17q-2 -3 -7 -12t-10.5 -19t-10.5 -18.5t-7 -10.5l-1 -1q-10 -13 -26.5 -29.5t-33 -31.5t-29 -25t-13.5 -10h-518l-17 17h-7zM493 678l21 20q14 14 29.5 26.5t31.5 12.5q14 0 33 -13q6 -6 9 -14l9 -8q13 -13 13 -32q0 -12 -5 -22h-1q-3 -8 -8 -14t-10 -11
l-3 -3l-25 -23q-7 -6 -17.5 -12.5t-22 -12t-22.5 -8.5t-19 -3q-12 0 -18 6l-12 12q-7 1 -10 6l-2 3l-1 1q-8 8 -8 20t5 22q5 12 11 20l12 16l-1 -1q1 2 2.5 3t2.5 3h1q0 1 2 3z" />
    <glyph glyph-name="FL00EAh" unicode="&#xea;" horiz-adv-x="649" 
d="M481 596l59 59l32 -59h82l-47 94q-4 6 -10.5 14.5t-14.5 8.5h-62q-5 0 -11.5 -4.5t-11.5 -7.5l-107 -105h91zM233 530l-193 -530h503q1 0 12.5 10t26.5 24.5t30.5 30.5t24.5 28q1 1 5 7t8 13t8 13.5t5 8.5h-383l22 60h199l143 135h-231l-95 -92l57 157h308q8 0 25.5 16
t36 38t35 44.5t23.5 36.5h-570zM21 -14l203 558h602q-1 -3 -3 -5l18 -18q-8 -16 -27 -42.5t-40.5 -52t-41.5 -44t-29 -18.5h-301l-14 -39l19 19h272l-5 -5l18 -18l-166 -157h-197l-5 -15h362q-2 -2 -3 -6l18 -17q-2 -3 -7 -12t-10.5 -19t-10.5 -18.5t-7 -10.5l-1 -1
q-10 -13 -26.5 -29.5t-33 -31.5t-29 -25t-13.5 -10h-518l-17 17h-7zM563 582l-14 26l-43 -43h-123l-17 17h-10l133 131l4 2l-1 -1q8 5 15 9t13 4h62q14 0 23 -10.5t14 -18.5l2 -4v-1h1q9 -9 16 -21l54 -107h-107l-17 17h-5z" />
    <glyph glyph-name="FL00EBh" unicode="&#xeb;" horiz-adv-x="649" 
d="M711 653q9 25 -3 42t-39 17t-51.5 -17t-33.5 -42t3 -42t39 -17t51.5 17t33.5 42zM403 653q-9 -25 2.5 -42t38.5 -17t52 17t34 42t-3.5 42t-39.5 17t-51 -17t-33 -42zM233 530l-193 -530h503q1 0 12.5 10t26.5 24.5t30.5 30.5t24.5 28q1 1 5 7t8 13t8 13.5t5 8.5h-383
l22 60h199l143 135h-231l-95 -92l57 157h308q8 0 25.5 16t36 38t35 44.5t23.5 36.5h-570zM21 -14l203 558h602q-1 -3 -3 -5l18 -18q-8 -16 -27 -42.5t-40.5 -52t-41.5 -44t-29 -18.5h-301l-14 -39l19 19h272l-5 -5l18 -18l-166 -157h-197l-5 -15h362q-1 -1 -1 -3q0 -1 -2 -3
l18 -17q-2 -3 -7 -12t-10.5 -19t-10.5 -18.5t-7 -10.5l-1 -1q-10 -13 -26.5 -29.5t-33 -31.5t-29 -25t-13.5 -10h-518l-17 17h-7zM602 579l-8 7q-28 13 -28 47q0 13 5 25q10 29 38.5 48.5t59.5 19.5q21 0 35.5 -9t20.5 -23l6 -6q0 1 -1 1v1l3 -3q13 -13 13 -34q0 -12 -5 -24
q-10 -28 -37.5 -47t-57.5 -19q-28 0 -44 16zM390 658q10 29 38 48.5t59 19.5q21 0 35.5 -9t20.5 -23l8 -7q14 -14 14 -35q0 -10 -5 -23q-10 -28 -38 -47t-58 -19q-27 0 -42 15l-8 8q-29 12 -29 47q0 13 5 25z" />
    <glyph glyph-name="FL00ECh" unicode="&#xec;" horiz-adv-x="272" 
d="M425 530h-192l-193 -530h192zM404 666l-8 22q-2 11 -7.5 20.5t-16.5 9.5q-4 0 -28 -8q-27 -17 -37 -42q-2 -7 -1 -13t3 -12l7 -23q4 -13 20 -23t30 -10q8 0 10 2l7 4q8 4 13 11.5t8 16.5q5 14 3 24.5t-3 20.5zM224 544h220l-2 -5l18 -18l-201 -552h-214l-17 17h-7z
M337 579l-4 4q-11 6 -20 14.5t-11 18.5l-7 24q-2 4 -2.5 9t-0.5 10v5q0 2 2 8q12 32 41 50q24 10 37 10q12 0 19.5 -7t12.5 -17l9 -8q11 -13 14 -30h-1l8 -20l1 -4q0 -6 1.5 -12t1.5 -15t-4 -21q-4 -11 -10 -20.5t-16 -14.5l-5 -3q-5 -4 -17 -4t-25.5 6.5t-23.5 16.5z" />
    <glyph glyph-name="FL00EDh" unicode="&#xed;" horiz-adv-x="272" 
d="M360 690l-24 -22q-8 -10 -17.5 -20.5t-14.5 -24.5q-4 -7 -4 -17q0 -6 5 -11l3 -4q2 -2 9 -2t17 3t20.5 7.5t20 10.5t16.5 12l24 23l12 12t8 13q10 25 -7 42q-11 8 -22 8t-23 -9.5t-23 -20.5zM40 0h192l193 530h-192zM45 -31l-17 17h-7l203 558h220l-2 -5l18 -18
l-201 -552h-214zM324 675l21 20q14 14 29.5 26.5t31.5 12.5q14 0 33 -13q6 -6 9 -14l9 -8q13 -13 13 -32q0 -12 -5 -22h-1q-3 -8 -8 -14t-10 -11l-3 -3l-25 -23q-7 -6 -17.5 -12.5t-22 -12t-22.5 -8.5t-19 -3q-12 0 -18 6l-12 12q-7 1 -10 6l-2 3l-1 1q-8 8 -8 20t5 22
q5 12 11 20l12 16l-1 -1q1 2 2.5 3t2.5 3h1q0 1 2 3z" />
    <glyph glyph-name="FL00EEh" unicode="&#xee;" horiz-adv-x="272" 
d="M312 595l58 59l33 -59h82l-47 94q-4 6 -11 14.5t-15 8.5h-62q-5 0 -11.5 -4.5t-10.5 -7.5l-107 -105h91zM40 0h192l193 530h-192zM45 -31l-17 17h-7l203 558h220l-2 -5l18 -18l-201 -552h-214zM394 581l-15 25l-42 -42h-123l-17 17h-10l132 130q5 4 13 9.5t18 5.5h62
q14 0 23.5 -10.5t14.5 -18.5l2 -4l1 -1q9 -9 16 -21l54 -107h-107l-17 17h-5z" />
    <glyph glyph-name="FL00EFh" unicode="&#xef;" horiz-adv-x="272" 
d="M530 653q9 25 -3 42t-39 17t-51.5 -17t-33.5 -42t3 -42t39 -17t51.5 17t33.5 42zM222 653q-9 -25 2.5 -42t38.5 -17t52 17t34 42t-3.5 42t-39.5 17t-51 -17t-33 -42zM40 0h192l193 530h-192zM45 -31l-17 17h-7l203 558h220l-2 -5l18 -18l-201 -552h-214zM421 579l-8 7
q-28 13 -28 47q0 13 5 25q10 29 38.5 48.5t59.5 19.5q42 0 55 -31l9 -8q13 -13 13 -34q0 -12 -5 -24q-10 -28 -37.5 -47t-57.5 -19q-28 0 -44 16zM209 658q10 29 38 48.5t59 19.5q21 0 35.5 -9t20.5 -23l8 -7q14 -14 14 -35q0 -10 -5 -23q-10 -28 -38 -47t-58 -19
q-27 0 -42 15l-8 8q-29 12 -29 47q0 13 5 25z" />
    <glyph glyph-name="FL00F0h" unicode="&#xf0;" horiz-adv-x="670" 
d="M342 203h123q-34 -25 -65.5 -46t-54.5 -21h-58l3 38q11 9 20.5 17.5t31.5 11.5zM111 195q-13 -35 -15.5 -70t7.5 -63t32.5 -45t59.5 -17q61 0 128.5 11t134 38.5t129.5 74.5t115 119q36 48 52 99t10.5 93t-33.5 68.5t-80 26.5h-413q1 -38 6 -71.5t19 -63.5h260
q25 0 32 -19.5t2 -45.5h-272q-64 -11 -105.5 -45.5t-68.5 -89.5zM98 201q29 58 72 94.5t112 48.5h262q1 2 1 8q0 9 -1 12h-268l-17 17h-5q-17 37 -23 77t-7 86h427q42 0 68.5 -15.5t41.5 -41.5h1q35 -35 35 -95q0 -42 -17 -86.5t-49 -89.5h-1q-53 -74 -117 -121.5
t-132 -75.5t-136 -39t-130 -11q-49 0 -78 29l-3 3q-28 16 -40.5 45t-12.5 66q0 40 17 88v1zM345 150q20 0 52 22h-35q-14 -2 -20 -6t-12 -9q-2 -2 -4 -3.5t-4 -3.5h23z" />
    <glyph glyph-name="FL00F1h" unicode="&#xf1;" horiz-adv-x="678" 
d="M662 710l-58 -59l-33 59h-82q-5 0 -11 -4.5t-11 -7.5l-107 -105h91l58 59l33 -59h82q5 0 11.5 4.5t10.5 7.5q40 39 62 60t32 31t11.5 12l1.5 2h-91zM40 0h192l108 298l56 -298h242l193 530h-190l-109 -298l-57 298h-242zM488 536l16 -15l41 -215l87 238h218l-2 -5l18 -18
l-201 -552h-258l-17 17h-6l-41 214l-84 -231h-214l-17 17h-7l203 558h263zM489 724h91l6 -11l12 -12l12 -24l46 47h111v-6l17 -17q0 -7 -1.5 -12t-12 -17t-33 -34t-64.5 -62q-5 -4 -13 -9t-16 -5h-89l-17 17h-5l-15 25l-42 -42h-123l-17 17h-10l133 131q3 1 6 4q5 4 10.5 7
t13.5 3z" />
    <glyph glyph-name="FL00F2h" unicode="&#xf2;" horiz-adv-x="745" 
d="M641 668l-8 22q-2 11 -7.5 20.5t-16.5 9.5q-4 0 -28 -8q-27 -17 -37 -42q-2 -7 -1 -13t3 -12l6 -23q5 -13 20.5 -23t29.5 -10q9 0 11 2l7 4q7 4 12 11.5t9 16.5q5 14 2.5 24.5t-2.5 20.5zM809 287q11 66 -2.5 112t-45.5 75t-81.5 42.5t-110.5 13.5h-132q-53 0 -105 -26.5
t-95 -68.5t-72.5 -93t-36.5 -99q-10 -72 5.5 -119t50 -74.5t85.5 -38.5t112 -11h100q60 0 116 26.5t100.5 68.5t74.5 93t37 99zM317 257q1 8 5 18.5t9 22.5q9 17 24.5 34.5t33.5 31.5t36.5 22.5t34.5 8.5h81q23 0 38.5 -7t24.5 -18.5t13 -26t4 -30.5q0 -11 -0.5 -20.5
t-1.5 -19.5q0 1 -0.5 -1.5l-1.5 -7.5l-4 -10q-2 -8 -11 -22q-9 -17 -26.5 -34.5t-37 -31.5t-38 -22.5t-30.5 -8.5h-66q-20 0 -37 12t-29 30t-18 39.5t-3 40.5zM401 -31q-69 0 -125 13.5t-92 48.5q-35 23 -54.5 61.5t-19.5 98.5q0 13 1 26.5t3 27.5q7 50 38 103t76 96.5
t99.5 71.5t109.5 28h132q79 0 137.5 -21t90.5 -69q48 -50 48 -133q0 -14 -1.5 -28t-3.5 -28q-8 -50 -38.5 -102.5t-77 -95.5t-104 -70.5t-119.5 -27.5h-100zM347 224q0 -32 16 -57q19 -18 41 -18h66q10 0 27 7.5t34.5 20t33 28t23.5 30.5q5 8 7.5 13.5t3.5 7.5l4 11
q1 10 3 18q0 7 0.5 13.5t0.5 14.5q0 26 -12 44q-15 7 -34 7h-81q-15 0 -32 -8t-33.5 -21t-31 -29.5t-22.5 -32.5h-1q-11 -23 -12 -37v-2q-1 -3 -1 -10zM609 734q12 0 19.5 -7t12.5 -17l9 -8q11 -13 14 -30h-1l9 -23q0 -12 1.5 -16t1.5 -14q0 -11 -4 -20q-5 -11 -11.5 -20
t-14.5 -14l-4 -2q-5 -5 -19 -5q-11 0 -24 6.5t-23 16.5l-3 3q-26 14 -35 38l-7 25l-1 5v9v5q0 2 2 8q12 32 41 50q24 10 37 10z" />
    <glyph glyph-name="FL00F3h" unicode="&#xf3;" horiz-adv-x="745" 
d="M593 690l-24 -22q-8 -10 -17.5 -20.5t-14.5 -24.5q-4 -7 -4 -17q0 -6 5 -11l3 -4q2 -2 9 -2t17 3t20.5 7.5t20 10.5t16.5 12l24 23l12 12t8 13q10 25 -7 42q-11 8 -22 8t-23 -9.5t-23 -20.5zM809 287q11 66 -2.5 112t-45.5 75t-81.5 42.5t-110.5 13.5h-132
q-53 0 -105 -26.5t-95 -68.5t-72.5 -93t-36.5 -99q-10 -72 5.5 -119t50 -74.5t85.5 -38.5t112 -11h100q60 0 116 26.5t100.5 68.5t74.5 93t37 99zM317 257q1 8 5 18.5t9 22.5q9 17 24.5 34.5t33.5 31.5t36.5 22.5t34.5 8.5h81q23 0 38.5 -7t24.5 -18.5t13 -26t4 -30.5
q0 -11 -0.5 -20.5t-1.5 -19.5q0 1 -0.5 -1.5l-1.5 -7.5l-4 -10q-2 -8 -11 -22q-9 -17 -26.5 -34.5t-37 -31.5t-38 -22.5t-30.5 -8.5h-66q-20 0 -37 12t-29 30t-18 39.5t-3 40.5zM401 -31q-69 0 -125 13.5t-92 48.5q-35 23 -54.5 61.5t-19.5 98.5q0 13 1 26.5t3 27.5
q7 50 38 103t76 96.5t99.5 71.5t109.5 28h132q79 0 137.5 -21t90.5 -69q48 -50 48 -133q0 -14 -1.5 -28t-3.5 -28q-8 -50 -38.5 -102.5t-77 -95.5t-104 -70.5t-119.5 -27.5h-100zM347 224q0 -32 16 -57q19 -18 41 -18h66q10 0 27 7.5t34.5 20t33 28t23.5 30.5q5 8 7.5 13.5
t3.5 7.5l4 11q1 10 3 18q0 7 0.5 13.5t0.5 14.5q0 26 -12 44q-15 7 -34 7h-81q-15 0 -32 -8t-33.5 -21t-31 -29.5t-22.5 -32.5h-1q-11 -23 -12 -37v-2q-1 -3 -1 -10zM557 675l21 20q14 14 29.5 26.5t31.5 12.5q14 0 33 -13q6 -6 9 -14l9 -8q13 -13 13 -32q0 -12 -5 -22h-1
q-3 -8 -8 -14t-10 -11l-3 -3l-25 -23q-7 -6 -17.5 -12.5t-22 -12t-22.5 -8.5t-19 -3q-12 0 -18 6l-12 12q-7 1 -10 6l-2 3l-1 1q-8 8 -8 20t5 22q5 12 11 20l12 16l-1 -1q1 2 2.5 3t2.5 3h1q0 1 2 3z" />
    <glyph glyph-name="FL00F4h" unicode="&#xf4;" horiz-adv-x="745" 
d="M533 594l59 59l32 -59h82l-47 94q-4 6 -10.5 14.5t-14.5 8.5h-62q-5 0 -11.5 -4.5t-11.5 -7.5l-107 -105h91zM809 287q11 66 -2.5 112t-45.5 75t-81.5 42.5t-110.5 13.5h-132q-53 0 -105 -26.5t-95 -68.5t-72.5 -93t-36.5 -99q-10 -72 5.5 -119t50 -74.5t85.5 -38.5
t112 -11h100q60 0 116 26.5t100.5 68.5t74.5 93t37 99zM317 257q1 8 5 18.5t9 22.5q9 17 24.5 34.5t33.5 31.5t36.5 22.5t34.5 8.5h81q23 0 38.5 -7t24.5 -18.5t13 -26t4 -30.5q0 -11 -0.5 -20.5t-1.5 -19.5q0 1 -0.5 -1.5l-1.5 -7.5l-4 -10q-2 -8 -11 -22
q-9 -17 -26.5 -34.5t-37 -31.5t-38 -22.5t-30.5 -8.5h-66q-20 0 -37 12t-29 30t-18 39.5t-3 40.5zM401 -31q-69 0 -125 13.5t-92 48.5q-35 23 -54.5 61.5t-19.5 98.5q0 13 1 26.5t3 27.5q7 50 38 103t76 96.5t99.5 71.5t109.5 28h132q79 0 137.5 -21t90.5 -69
q48 -50 48 -133q0 -14 -1.5 -28t-3.5 -28q-8 -50 -38.5 -102.5t-77 -95.5t-104 -70.5t-119.5 -27.5h-100zM347 224q0 -32 16 -57q19 -18 41 -18h66q10 0 27 7.5t34.5 20t33 28t23.5 30.5q5 8 7.5 13.5t3.5 7.5l4 11q1 10 3 18q0 7 0.5 13.5t0.5 14.5q0 26 -12 44
q-15 7 -34 7h-81q-15 0 -32 -8t-33.5 -21t-31 -29.5t-22.5 -32.5h-1q-11 -23 -12 -37v-2q-1 -3 -1 -10zM615 580l-14 26l-43 -43h-123l-17 17h-10l133 131l4 2l-1 -1q8 5 15 9t13 4h62q14 0 23 -10.5t14 -18.5l2 -4l1 -1q9 -9 16 -21l54 -107h-107l-17 17h-5z" />
    <glyph glyph-name="FL00F5h" unicode="&#xf5;" horiz-adv-x="745" 
d="M698 710l-58 -59l-33 59h-82q-5 0 -11 -4.5t-11 -7.5l-107 -105h91l58 59l33 -59h82q5 0 11.5 4.5t10.5 7.5q40 39 62 60t32 31t11.5 12l1.5 2h-91zM317 257q1 8 5 18.5t9 22.5q9 17 24.5 34.5t33.5 31.5t36.5 22.5t34.5 8.5h81q25 0 40.5 -7.5t24.5 -20t12 -28.5t3 -32
q0 -9 -0.5 -17.5t-1.5 -16.5q0 1 -0.5 -1.5l-1.5 -7.5l-4 -10q-2 -8 -11 -22q-9 -17 -26.5 -34.5t-37 -31.5t-38 -22.5t-30.5 -8.5h-66q-18 0 -34 10t-28 26t-19 35.5t-7 37.5v6q0 6 1 7zM809 287q2 15 3.5 28.5t1.5 26.5q0 50 -18 86t-50.5 58.5t-77.5 33t-99 10.5h-132
q-53 0 -105 -26.5t-95 -68.5t-72.5 -93t-36.5 -99v-3q-4 -15 -4 -48q0 -56 19.5 -93t53.5 -59t81 -31t103 -9h100q60 0 116 26.5t100.5 68.5t74.5 93t37 99zM401 -31q-69 0 -125.5 13.5t-92.5 48.5q-35 24 -54 62.5t-19 98.5q0 16 1 29t3 23v1q7 50 38 103t76 96.5
t99.5 71.5t109.5 28h132q79 0 139 -22t91 -71q46 -46 46 -129q0 -14 -1.5 -28t-3.5 -29q-8 -50 -38.5 -102.5t-77 -95.5t-104 -70.5t-119.5 -27.5h-100zM525 724h91l6 -11l12 -12l12 -24l46 47h111v-6l17 -17q0 -7 -1.5 -12t-12 -17t-33 -34t-64.5 -62q-5 -4 -13 -9t-16 -5
h-89l-17 17h-5l-15 25l-42 -42h-123l-17 17h-10l133 131q3 1 6 4q5 4 10.5 7t13.5 3zM347 224q0 -32 16 -57q19 -18 41 -18h66q10 0 27 7.5t34.5 20t33 28t23.5 30.5q5 8 7.5 13.5t3.5 7.5l4 11q1 10 2.5 16t1.5 24q0 14 -2.5 27t-10.5 24q-14 6 -33 6h-81q-15 0 -32 -8
t-33.5 -21t-31 -29.5t-22.5 -32.5h-1q-11 -23 -12 -37l-2 -5h1v-7z" />
    <glyph glyph-name="FL00F6h" unicode="&#xf6;" horiz-adv-x="745" 
d="M757 653q9 25 -3 42t-39 17t-51.5 -17t-33.5 -42t3 -42t39 -17t51.5 17t33.5 42zM449 653q-9 -25 2.5 -42t38.5 -17t52 17t34 42t-3.5 42t-39.5 17t-51 -17t-33 -42zM809 287q11 66 -2.5 112t-45.5 75t-81.5 42.5t-110.5 13.5h-132q-53 0 -105 -26.5t-95 -68.5t-72.5 -93
t-36.5 -99q-10 -72 5.5 -119t50 -74.5t85.5 -38.5t112 -11h100q60 0 116 26.5t100.5 68.5t74.5 93t37 99zM317 257q1 8 5 18.5t9 22.5q9 17 24.5 34.5t33.5 31.5t36.5 22.5t34.5 8.5h81q23 0 38.5 -7t24.5 -18.5t13 -26t4 -30.5q0 -11 -0.5 -20.5t-1.5 -19.5q0 1 -0.5 -1.5
l-1.5 -7.5l-4 -10q-2 -8 -11 -22q-9 -17 -26.5 -34.5t-37 -31.5t-38 -22.5t-30.5 -8.5h-66q-20 0 -37 12t-29 30t-18 39.5t-3 40.5zM401 -31q-69 0 -125 13.5t-92 48.5q-35 23 -54.5 61.5t-19.5 98.5q0 13 1 26.5t3 27.5q7 50 38 103t76 96.5t99.5 71.5t109.5 28h132
q79 0 137.5 -21t90.5 -69q48 -50 48 -133q0 -14 -1.5 -28t-3.5 -28q-8 -50 -38.5 -102.5t-77 -95.5t-104 -70.5t-119.5 -27.5h-100zM347 224q0 -32 16 -57q19 -18 41 -18h66q10 0 27 7.5t34.5 20t33 28t23.5 30.5q5 8 7.5 13.5t3.5 7.5l4 11q1 10 3 18q0 7 0.5 13.5
t0.5 14.5q0 26 -12 44q-15 7 -34 7h-81q-15 0 -32 -8t-33.5 -21t-31 -29.5t-22.5 -32.5h-1q-11 -23 -12 -37v-2q-1 -3 -1 -10zM648 579l-8 7q-28 13 -28 47q0 13 5 25q10 29 38.5 48.5t59.5 19.5q42 0 55 -31l9 -8q13 -13 13 -34q0 -12 -5 -24q-10 -28 -37.5 -47t-57.5 -19
q-28 0 -44 16zM436 658q10 29 38 48.5t59 19.5q21 0 35.5 -9t20.5 -23l8 -7q14 -14 14 -35q0 -10 -5 -23q-10 -28 -38 -47t-58 -19q-27 0 -42 15l-8 8q-29 12 -29 47q0 13 5 25z" />
    <glyph glyph-name="FL00F7h" unicode="&#xf7;" horiz-adv-x="456" 
d="M340 108q9 25 -2.5 42t-38.5 17t-52 -17t-34 -42t3.5 -42t39.5 -17t51 17t33 42zM327 417q-9 -25 2.5 -42t38.5 -17t52 17t34 42t-3.5 42t-39.5 17t-51 -17t-33 -42zM244 330l-143 -135h302l143 135h-302zM314 422q10 29 38 48.5t59 19.5q21 0 35.5 -9t20.5 -23l8 -7
q14 -14 14 -35q0 -10 -5 -23q-12 -29 -42 -49h139l-5 -5l18 -18l-166 -157h-84q6 -6 9 -14l8 -7q14 -14 14 -35q0 -12 -5 -24q-10 -28 -37 -47t-57 -19q-28 0 -44 16l-8 8q-29 14 -29 47q0 8 0.5 11.5t2.5 8.5q0 1 0.5 1.5t0.5 1.5q5 16 17 29t27 23h-150l-17 17h-10
l172 163h106l-6 5q-29 14 -29 48q0 13 5 25z" />
    <glyph glyph-name="FL00F8h" unicode="&#xf8;" horiz-adv-x="745" 
d="M317 257q1 8 5 18.5t9 22.5q9 17 24.5 34.5t33.5 31.5t36.5 22.5t34.5 8.5h81q5 0 13 -1.5t19 -3.5l-253 -178q-3 11 -4 22.5t1 22.5zM619 273q0 1 -0.5 -1.5l-1.5 -7.5l-4 -10q-2 -8 -11 -22q-9 -17 -26.5 -34.5t-37 -31.5t-38 -22.5t-30.5 -8.5h-66q-21 0 -37 12
l252 180q3 -29 0 -54zM809 287q11 66 -2.5 112t-45.5 75t-81.5 42.5t-110.5 13.5h-132q-53 0 -105 -26.5t-95 -68.5t-72.5 -93t-36.5 -99q-10 -72 5.5 -119t50 -74.5t85.5 -38.5t112 -11h100q60 0 116 26.5t100.5 68.5t74.5 93t37 99zM401 -31q-69 0 -125 13.5t-92 48.5
q-35 23 -54.5 61.5t-19.5 98.5q0 13 1 26.5t3 27.5q7 50 38 103t76 96.5t99.5 71.5t109.5 28h132q79 0 137.5 -21t90.5 -69q48 -50 48 -133q0 -14 -1.5 -28t-3.5 -28q-8 -50 -38.5 -102.5t-77 -95.5t-104 -70.5t-119.5 -27.5h-100zM603 267v1l-166 -119h33q10 0 27 7.5
t34.5 20t33 28t23.5 30.5q5 8 7.5 13.5t3.5 7.5zM360 273q-3 -6 -5 -12t-4 -11l161 114h-32q-15 0 -32 -8t-33.5 -21t-31 -29.5t-22.5 -32.5h-1z" />
    <glyph glyph-name="FL00F9h" unicode="&#xf9;" horiz-adv-x="706" 
d="M623 667l-8 22q-3 11 -8 20.5t-16 9.5q-4 0 -28 -8q-28 -17 -38 -42q-2 -7 -1 -13t3 -12l7 -23q5 -13 20.5 -23t29.5 -10q1 0 3.5 0.5l7.5 1.5l6 4q8 4 13 11.5t8 16.5q5 14 3 24.5t-2 20.5zM233 530l-79 -222q-9 -34 -16.5 -60t-12.5 -52q-20 -107 39 -151.5t199 -44.5
h117q60 0 103 18.5t76 54.5t59 88.5t51 121.5l90 247h-190l-108 -297q-7 -14 -19 -31t-28 -32t-36.5 -25t-44.5 -10h-49q-37 0 -50.5 29t-6.5 77q0 3 2 10.5t11 35.5t28 84.5t54 158.5h-189zM140 312l83 232h218q-2 -6 -2 -5l18 -18q-36 -106 -56 -165t-29.5 -88.5
t-11.5 -37.5t-2 -11q-2 -10 -2 -16v-13q0 -24 4 -35q10 -6 24 -6h49q21 0 38.5 9t32.5 22.5t26 29t18 28.5l112 306h218l-2 -5l18 -18l-95 -262q-26 -71 -52.5 -125t-60.5 -90.5t-79 -55.5t-107 -19h-117q-81 0 -134.5 13t-83.5 43l-2 1q-57 39 -57 119q0 12 1.5 25.5
t3.5 27.5q4 20 8.5 39.5t10.5 37.5l3 12q2 6 3.5 12t3.5 13zM557 580l-4 3q-11 7 -20.5 17.5t-14.5 21.5l-5 19q-2 4 -2.5 9t-0.5 10v5q0 2 2 8q13 32 41 49q33 11 38 11q11 0 18 -5.5t12 -14.5l11 -11q5 -5 8.5 -13.5t5.5 -16.5l-1 1l9 -25q0 -7 1 -10q0 -4 0.5 -9t0.5 -9
q0 -14 -8 -31.5t-22 -24.5l-8 -5q-1 0 -3.5 -0.5t-3.5 -0.5q-3 -1 -7 -1q-24 0 -47 23z" />
    <glyph glyph-name="FL00FAh" unicode="&#xfa;" horiz-adv-x="706" 
d="M580 689l-24 -22q-8 -10 -18 -20.5t-15 -24.5q-3 -9 -3.5 -16.5t4.5 -11.5l4 -4q0 -2 9 -2q7 0 17 3t20.5 7.5t20 10.5t16.5 12l23 23l12 12t8 13q10 25 -6 42q-11 8 -22 8t-23 -9.5t-23 -20.5zM233 530l-79 -222q-9 -34 -16.5 -60t-12.5 -52q-20 -107 39 -151.5
t199 -44.5h117q60 0 103 18.5t76 54.5t59 88.5t51 121.5l90 247h-190l-108 -297q-7 -14 -19 -31t-28 -32t-36.5 -25t-44.5 -10h-49q-37 0 -50.5 29t-6.5 77q0 3 2 10.5t11 35.5t28 84.5t54 158.5h-189zM140 312l83 232h218q-2 -6 -2 -5l18 -18q-36 -106 -56 -165
t-29.5 -88.5t-11.5 -37.5t-2 -11q-2 -10 -2 -16v-13q0 -24 4 -35q10 -6 24 -6h49q21 0 38.5 9t32.5 22.5t26 29t18 28.5l112 306h218l-2 -5l18 -18l-95 -262q-26 -71 -52.5 -125t-60.5 -90.5t-79 -55.5t-107 -19h-117q-81 0 -134.5 13t-83.5 43l-2 1q-57 39 -57 119
q0 12 1.5 25.5t3.5 27.5q4 20 8.5 39.5t10.5 37.5l3 12q2 6 3.5 12t3.5 13zM546 677l19 17q14 14 29.5 26.5t31.5 12.5q14 0 33 -13q2 -2 4.5 -5.5t4.5 -7.5l9 -9q12 -12 12 -31q0 -10 -5 -22q-3 -8 -8.5 -14.5t-10.5 -11.5l-3 -3l-24 -23q-7 -6 -17.5 -12.5t-22 -12
t-22.5 -8.5t-19 -3q-11 0 -17 6h-1l-12 12q-5 1 -8 4l-6 6q-8 8 -8 20q0 6 5 21q5 14 12.5 23.5t15.5 17.5q2 2 3 4t5 6z" />
    <glyph glyph-name="FL00FBh" unicode="&#xfb;" horiz-adv-x="706" 
d="M517 594l58 59l33 -59h82l-47 94q-4 6 -11 14.5t-15 8.5h-62q-5 0 -11 -4.5t-11 -7.5l-107 -105h91zM233 530l-79 -222q-9 -34 -16.5 -60t-12.5 -52q-20 -107 39 -151.5t199 -44.5h117q60 0 103 18.5t76 54.5t59 88.5t51 121.5l90 247h-190l-108 -297q-7 -14 -19 -31
t-28 -32t-36.5 -25t-44.5 -10h-49q-37 0 -50.5 29t-6.5 77q0 3 2 10.5t11 35.5t28 84.5t54 158.5h-189zM140 312l83 232h218q-2 -6 -2 -5l18 -18q-36 -106 -56 -165t-29.5 -88.5t-11.5 -37.5t-2 -11q-2 -10 -2 -16v-13q0 -24 4 -35q10 -6 24 -6h49q21 0 38.5 9t32.5 22.5
t26 29t18 28.5l112 306h218l-2 -5l18 -18l-95 -262q-26 -71 -52.5 -125t-60.5 -90.5t-79 -55.5t-107 -19h-117q-81 0 -134.5 13t-83.5 43l-2 1q-57 39 -57 119q0 12 1.5 25.5t3.5 27.5q4 20 8.5 39.5t10.5 37.5l3 12q2 6 3.5 12t3.5 13zM599 580l-15 25l-42 -42h-123l-17 17
h-10l133 131q3 1 6 4q5 4 10.5 7t13.5 3h62q14 0 23.5 -10.5t14.5 -18.5l2 -4l1 -1q9 -9 16 -21l54 -107h-107l-17 17h-5z" />
    <glyph glyph-name="FL00FCh" unicode="&#xfc;" horiz-adv-x="706" 
d="M742 652q9 25 -2.5 42t-38.5 17t-52 -17t-34 -42t3.5 -42t39.5 -17t51 17t33 42zM233 530l-79 -222q-9 -34 -16.5 -60t-12.5 -52q-20 -107 39 -151.5t199 -44.5h117q60 0 103 18.5t76 54.5t59 88.5t51 121.5l90 247h-190l-108 -297q-7 -14 -19 -31t-28 -32t-36.5 -25
t-44.5 -10h-49q-37 0 -50.5 29t-6.5 77q0 3 2 10.5t11 35.5t28 84.5t54 158.5h-189zM434 652q-9 -25 3 -42t39 -17t51.5 17t33.5 42t-3 42t-39 17t-51.5 -17t-33.5 -42zM140 312l83 232h218q-2 -6 -2 -5l18 -18q-36 -106 -56 -165t-29.5 -88.5t-11.5 -37.5t-2 -11
q-2 -10 -2 -16v-13q0 -24 4 -35q10 -6 24 -6h49q21 0 38.5 9t32.5 22.5t26 29t18 28.5l112 306h218l-2 -5l18 -18l-95 -262q-26 -71 -52.5 -125t-60.5 -90.5t-79 -55.5t-107 -19h-117q-81 0 -134.5 13t-83.5 43l-2 1q-57 39 -57 119q0 12 1.5 25.5t3.5 27.5q4 20 8.5 39.5
t10.5 37.5l3 12q2 6 3.5 12t3.5 13zM421 657q10 29 38.5 48.5t59.5 19.5q42 0 55 -31l9 -8q13 -13 13 -34q0 -12 -5 -24q-10 -28 -37.5 -47t-57.5 -19q-28 0 -44 16l-8 7q-28 13 -28 47q0 13 5 25zM634 578l-8 8q-29 14 -29 47q0 8 0.5 11.5t2.5 8.5v-1q0 1 0.5 2t0.5 2
q6 15 16.5 27.5t24 21.5t29 14.5t30.5 5.5q41 0 54 -31l8 -7q14 -14 14 -35q0 -12 -5 -24q-10 -28 -37 -47t-57 -19q-28 0 -44 16z" />
    <glyph glyph-name="FL00FDh" unicode="&#xfd;" horiz-adv-x="680" 
d="M570 689l-24 -22q-8 -10 -18 -20.5t-15 -24.5q-3 -9 -3.5 -16.5t4.5 -11.5l4 -4q0 -2 9 -2q7 0 17 3t20.5 7.5t20 10.5t16.5 12l23 23l12 12t8 13q10 25 -6 42q-11 8 -22 8t-23 -9.5t-23 -20.5zM223 530l113 -278l-92 -252h192l92 252l315 278h-214l-142 -125l-50 125
h-214zM449 535l15 -14l35 -89l125 112h256l-6 -5l18 -18l-335 -295l-94 -257h-214l-17 17h-7l95 265l-118 293h244zM536 677l19 17q14 14 29.5 26.5t31.5 12.5q14 0 33 -13q2 -2 4.5 -5.5t4.5 -7.5l9 -9q12 -12 12 -31q0 -10 -5 -22q-3 -8 -8.5 -14.5t-10.5 -11.5l-3 -3
l-24 -23q-7 -6 -17.5 -12.5t-22 -12t-22.5 -8.5t-19 -3q-11 0 -17 6h-1l-12 12q-5 1 -8 4l-6 6q-8 8 -8 20q0 6 5 21q5 14 12.5 23.5t15.5 17.5q2 2 3 4t5 6z" />
    <glyph glyph-name="FL00FEh" unicode="&#xfe;" horiz-adv-x="704" 
d="M284 142l55 152h205q2 0 9.5 -8.5t10.5 -13.5l0.5 -2t0.5 -3l-2 -5q-1 -3 -4 -8.5t-7 -11.5t-7.5 -10.5t-4.5 -4.5h-160zM233 530l-193 -530h192l33 92h281q34 0 71 14t68 39.5t51.5 60.5t20.5 77q-1 20 -7.5 45.5t-18.5 48t-31 38t-44 15.5h-267l36 100h-192zM21 -14
l203 558h220l-2 -5l18 -18l-28 -77h224q26 0 46 -14.5t34 -36.5q25 -26 37.5 -63.5t14.5 -66.5q0 -44 -21.5 -81t-54 -64t-71.5 -42t-75 -15h-274l-33 -92h-214l-17 17h-7zM366 263l-16 -44l25 22h165l3 8.5t4 11.5l1 2h-182z" />
    <glyph glyph-name="FL00FFh" unicode="&#xff;" horiz-adv-x="680" 
d="M734 652q9 25 -2.5 42t-38.5 17t-52 -17t-34 -42t3.5 -42t39.5 -17t51 17t33 42zM426 652q-9 -25 3 -42t39 -17t51.5 17t33.5 42t-3 42t-39 17t-51.5 -17t-33.5 -42zM223 530l113 -278l-92 -252h192l92 252l315 278h-214l-142 -125l-50 125h-214zM449 535l15 -14l35 -89
l125 112h256l-6 -5l18 -18l-335 -295l-94 -257h-214l-17 17h-7l95 265l-118 293h244zM413 657q10 29 38.5 48.5t59.5 19.5q42 0 55 -31l9 -8q13 -13 13 -34q0 -12 -5 -24q-10 -28 -37.5 -47t-57.5 -19q-28 0 -44 16l-8 7q-28 13 -28 47q0 13 5 25zM626 578l-8 8
q-29 14 -29 47q0 8 0.5 11.5t2.5 8.5q0 1 0.5 1.5t0.5 1.5q6 15 16.5 27.5t24 21.5t29 14.5t30.5 5.5q41 0 54 -31l8 -7q14 -14 14 -35q0 -12 -5 -24q-10 -28 -37 -47t-57 -19q-28 0 -44 16z" />
    <glyph glyph-name="FL0152h" unicode="&#x152;" horiz-adv-x="1079" 
d="M430 395h184l-95 -260h-89q-17 0 -35.5 12t-34 30t-25.5 39.5t-10 40.5q0 12 8 41q6 17 16 34.5t22.5 31.5t27.5 22.5t31 8.5zM139 243q0 -72 28.5 -119t75.5 -74.5t106 -38.5t121 -11h503q1 0 12.5 10t26.5 24.5t30.5 30.5t24.5 28q1 1 5 7t8 13t8 13.5t5 8.5h-383
l22 60h199l143 135h-231l-95 -92l57 157h308q8 0 25.5 16t36 38t35 44.5t23.5 36.5h-833q-53 0 -100 -26.5t-83 -68.5t-57 -93t-21 -99zM125 243q0 51 22 104t60 97t87.5 72t105.5 28h856q-1 -3 -3 -5l18 -18q-8 -16 -27 -42.5t-40.5 -52t-41.5 -44t-29 -18.5h-301l-14 -39
l19 19h272l-5 -5l18 -18l-166 -157h-197l-5 -15h362q-2 -2 -3 -6l18 -17q-2 -3 -7 -12t-10.5 -19t-10.5 -18.5t-7 -10.5l-1 -1q-10 -13 -26.5 -29.5t-33 -31.5t-29 -25t-13.5 -10h-503q-39 0 -77.5 4t-74.5 13.5t-67.5 25.5t-55.5 39q-42 29 -66 76t-24 116zM356 237
q0 -14 6 -30t16 -30q12 -13 25.5 -20.5t26.5 -7.5h79l79 215h-138q-14 0 -27.5 -8t-24.5 -20.5t-20 -28.5t-15 -32h1q-8 -29 -8 -38z" />
    <glyph glyph-name="FL0153h" unicode="&#x153;" horiz-adv-x="1079" 
d="M430 395h184l-95 -260h-89q-17 0 -35.5 12t-34 30t-25.5 39.5t-10 40.5q0 12 8 41q6 17 16 34.5t22.5 31.5t27.5 22.5t31 8.5zM139 245v-2q0 -72 28.5 -119t75.5 -74.5t106 -38.5t121 -11h503q1 0 12.5 10t26.5 24.5t30.5 30.5t24.5 28q1 1 5 7t8 13t8 13.5t5 8.5h-383
l22 60h199l143 135h-231l-95 -92l57 157h308q8 0 25.5 16t36 38t35 44.5t23.5 36.5h-833q-53 0 -100 -26.5t-83 -67.5t-57 -92t-21 -99zM125 243v2q0 51 22 104t60 96.5t87.5 71t105.5 27.5h856q-1 -3 -3 -5l18 -18q-8 -16 -27 -42.5t-40.5 -52t-41.5 -44t-29 -18.5h-301
l-14 -39l19 19h272l-5 -5l18 -18l-166 -157h-197l-5 -15h362q-2 -2 -3 -6l18 -17q-2 -3 -7 -12t-10.5 -19t-10.5 -18.5t-7 -10.5l-1 -1q-10 -13 -26.5 -29.5t-33 -31.5t-29 -25t-13.5 -10h-503q-39 0 -77.5 4t-74.5 13.5t-67.5 25.5t-55.5 39q-42 29 -66 76t-24 116z
M356 237q0 -14 6 -30t16 -30q12 -13 25.5 -20.5t26.5 -7.5h79l79 215h-138q-14 0 -27.5 -8t-24.5 -20.5t-20 -28.5t-15 -32h1q-8 -29 -8 -38z" />
    <glyph glyph-name="FL0160h" unicode="&#x160;" horiz-adv-x="684" 
d="M619 708l-59 -59l-32 59h-82l46 -94q5 -6 11.5 -14.5t14.5 -8.5h62q5 0 11.5 4.5t10.5 7.5l108 105h-91zM515 174v-6v-6q0 -10 -2.5 -19t-17.5 -9h-340q-3 0 -18 -17.5t-32.5 -40t-33 -44.5t-20.5 -32h510q27 0 52.5 16.5t45 41.5t31.5 54.5t12 55.5v4q0 23 -8 50.5
t-23.5 51t-38 39.5t-51.5 16h-190q-1 0 -8.5 3.5t-11.5 7.5q-2 2 -6 5.5t-4 4.5v5q0 9 8 24t19 15h330q36 34 65.5 68t52.5 68h-510q-28 0 -56 -18.5t-50 -46t-36 -58t-14 -54.5q0 -26 9 -53t26.5 -49.5t41.5 -37t54 -14.5h200q8 0 11 -8.5t3 -16.5zM53 -31l-17 17h-8
q6 12 25 38.5t40 54t39 48.5t23 21h340q5 0 5.5 4.5t0.5 9.5v6h-180q-27 0 -50 11t-40 28h-1q-35 25 -54.5 66t-19.5 80q0 26 15 59t39.5 62.5t55 49.5t60.5 20h537q-2 -2 -2 -3t-2 -3l18 -17q-30 -43 -63 -83t-71 -75h-335q-5 0 -9.5 -6.5t-6.5 -13.5h189q32 0 56.5 -16.5
t41.5 -42.5q26 -27 40 -64.5t14 -67.5v-4q0 -28 -13 -59.5t-34 -58t-48.5 -44t-56.5 -17.5h-528zM423 722h114l5 -11l13 -12l11 -24l47 47h132l-5 -5l18 -18l-129 -125q-5 -4 -13 -9t-16 -5h-62q-11 0 -20 9l-10 9q-8 3 -13 9t-9 12l-2 2q-1 1 -2 2.5t-2 2.5z" />
    <glyph glyph-name="FL0161h" unicode="&#x161;" horiz-adv-x="684" 
d="M619 708l-59 -59l-32 59h-82l46 -94q5 -6 11.5 -14.5t14.5 -8.5h62q5 0 11.5 4.5t10.5 7.5l108 105h-91zM515 174v-6v-6q0 -10 -2.5 -19t-17.5 -9h-340q-3 0 -18 -17.5t-32.5 -40t-33 -44.5t-20.5 -32h510q27 0 52.5 16.5t45 41.5t31.5 54.5t12 55.5v4q0 23 -8 50.5
t-23.5 51t-38 39.5t-51.5 16h-190q-1 0 -8.5 3.5t-11.5 7.5q-2 2 -6 5.5t-4 4.5v5q0 9 8 24t19 15h330q36 34 65.5 68t52.5 68h-510q-28 0 -56 -18.5t-50 -46t-36 -58t-14 -54.5q0 -26 9 -53t26.5 -49.5t41.5 -37t54 -14.5h200q8 0 11 -8.5t3 -16.5zM53 -31l-17 17h-8
q6 12 25 38.5t40 54t39 48.5t23 21h340q5 0 5.5 4.5t0.5 9.5v6h-180q-27 0 -50 11t-40 28h-1q-35 25 -54.5 66t-19.5 80q0 26 15 59t39.5 62.5t55 49.5t60.5 20h537q-2 -2 -2 -3t-2 -3l18 -17q-30 -43 -63 -83t-71 -75h-335q-5 0 -9.5 -6.5t-6.5 -13.5h189q32 0 56.5 -16.5
t41.5 -42.5q26 -27 40 -64.5t14 -67.5v-4q0 -28 -13 -59.5t-34 -58t-48.5 -44t-56.5 -17.5h-528zM423 722h114l5 -11l13 -12l11 -24l47 47h132l-5 -5l18 -18l-129 -125q-5 -4 -13 -9t-16 -5h-62q-11 0 -20 9l-10 9q-8 3 -13 9t-9 12l-2 2q-1 1 -2 2.5t-2 2.5z" />
    <glyph glyph-name="FL0178h" unicode="&#x178;" horiz-adv-x="680" 
d="M734 652q9 25 -2.5 42t-38.5 17t-52 -17t-34 -42t3.5 -42t39.5 -17t51 17t33 42zM426 652q-9 -25 3 -42t39 -17t51.5 17t33.5 42t-3 42t-39 17t-51.5 -17t-33.5 -42zM223 530l113 -278l-92 -252h192l92 252l315 278h-214l-142 -125l-50 125h-214zM449 535l15 -14l35 -89
l125 112h256l-6 -5l18 -18l-335 -295l-94 -257h-214l-17 17h-7l95 265l-118 293h244zM413 657q10 29 38.5 48.5t59.5 19.5q42 0 55 -31l9 -8q13 -13 13 -34q0 -12 -5 -24q-10 -28 -37.5 -47t-57.5 -19q-28 0 -44 16l-8 7q-28 13 -28 47q0 13 5 25zM626 578l-8 8
q-29 14 -29 47q0 8 0.5 11.5t2.5 8.5q0 1 0.5 1.5t0.5 1.5q6 15 16.5 27.5t24 21.5t29 14.5t30.5 5.5q41 0 54 -31l8 -7q14 -14 14 -35q0 -12 -5 -24q-10 -28 -37 -47t-57 -19q-28 0 -44 16z" />
    <glyph glyph-name="FL017Dh" unicode="&#x17d;" horiz-adv-x="640" 
d="M619 708l-59 -59l-32 59h-82l46 -94q5 -6 11.5 -14.5t14.5 -8.5h62q5 0 11.5 4.5t10.5 7.5l108 105h-91zM35 0h499q8 0 25.5 16t36 38t35 44.5t23.5 36.5h-269l413 395h-501q-14 -9 -33.5 -29.5t-38 -42.5t-32 -40t-14.5 -22v-1h269zM846 521l-389 -372h220q-1 -3 -3 -5
l18 -18q-8 -16 -27 -42.5t-40.5 -52t-41.5 -44t-29 -18.5h-527l-17 17h-10l395 378h-207l-17 17h-6v19q1 4 15.5 23.5t34.5 43.5t41 46t36 31h541l-5 -5zM423 722h114l5 -11l13 -12l11 -24l47 47h132l-5 -5l18 -18l-129 -125q-5 -4 -13 -9t-16 -5h-62q-11 0 -20 9l-10 9
q-8 3 -13 9t-9 12l-2 2q-1 1 -2 2.5t-2 2.5z" />
    <glyph glyph-name="FL017Eh" unicode="&#x17e;" horiz-adv-x="640" 
d="M619 708l-59 -59l-32 59h-82l46 -94q5 -6 11.5 -14.5t14.5 -8.5h62q5 0 11.5 4.5t10.5 7.5l108 105h-91zM35 0h499q8 0 25.5 16t36 38t35 44.5t23.5 36.5h-269l413 395h-501q-14 -9 -33.5 -29.5t-38 -42.5t-32 -40t-14.5 -22v-1h269zM846 521l-389 -372h220q-1 -3 -3 -5
l18 -18q-8 -16 -27 -42.5t-40.5 -52t-41.5 -44t-29 -18.5h-527l-17 17h-10l395 378h-207l-17 17h-6v19q1 4 15.5 23.5t34.5 43.5t41 46t36 31h541l-5 -5zM423 722h114l5 -11l13 -12l11 -24l47 47h132l-5 -5l18 -18l-129 -125q-5 -4 -13 -9t-16 -5h-62q-11 0 -20 9l-10 9
q-8 3 -13 9t-9 12l-2 2q-1 1 -2 2.5t-2 2.5z" />
    <glyph glyph-name="FL00B6h" unicode="&#x192;" horiz-adv-x="900" 
d="M458 275q-5 -14 -20 -33q-21 -9 -28 -9q-16 0 -7 26l3 7q25 36 41 36q12 0 12 -15q2 -2 -1 -12zM680 309l-2 -37h-30zM279 220l44 107l-18 -4l-51 -111zM392 303l12 27q-75 -12 -93 -64l-2 -6q-3 -7 -2 -8q-9 -48 19 -48l5.5 1.5t16.5 3.5l5 18q-5 -1 -9.5 -1.5
t-9.5 -0.5q-21 0 -12 21q8 23 30 44q19 16 31 16q4 0 9 -3zM483 290q3 36 -27 36h-6h-4q-46 -23 -71 -96q-2 -18 26 -18q3 0 7 0.5t9 1.5q26 0 66 76zM540 214l39 108l-15 5l-30 -75l-30 70l-38 -110l16 3l19 51q15 -52 39 -52zM585 225l44 107l-21 -5l-49 -110zM666 223
l10 -5l29 82q6 34 -12 34q-11 0 -15 -3q-26 -26 -45.5 -53t-33.5 -55h20q21 26 34 26q11 0 13 -26zM766 218l40 108l-14 6l-32 -76l-28 70l-39 -109l15 1l20 54q16 -54 38 -54zM784 194l21 18l-13 6l-15 -10zM815 246l41 80l-22 6l-34 -83zM944 294l1 -12l-72 -6
q24 -57 18 -74l-4 -8l-66 14l-37 -87l-61 26l-81 -75l-35 37l-131 -61l14 24l-8 25l-146 -31l32 43l-149 7l57 35l-118 33l71 31l-72 55l72 6l-18 55l4 26l68 -7l41 87q27 -27 44 -27q9 0 16 4l84 72l28 -37l120 56l8 -6l-9 -37l150 24l-27 -43h146l-56 -37l112 -31l2 -13
h-6l-61 -17zM963 289l2 2q6 17 -54 47q42 6 52 36l2 4l1 3l-97 33q22 3 34 35l-7 13h-128l19 37l-36 6l-117 -25l-4 6l13 19l-15 19l-119 -56l-34 37q-17 -7 -38.5 -25t-53.5 -49l-52 25h-2q-26 0 -57 -88l-62 7l-18 -37l16 -44l-63 -12l-5 -30l48 -32l-45 -31q-9 -24 8 -24
l80 -18l-24 -21l-9 -23l136 -13l-17 -31l12 -11l144 24l-13 -37l15 -6l125 61l19 -37l29 6l78 67q14 -11 24 -17.5t22 -6.5q17 0 26 14l33 73l49 -12q19 6 27 26l2 5q1 6 0 7l-14 48h49zM993 349q-10 -21 -27 -31q8 -8 12 -16l3 -3l4 -3q12 -12 12 -22q0 -1 -0.5 -4t-0.5 -4
l-5 -5h-1l-21 -29h-39l10 -34q0 -1 0.5 -2.5t0.5 -2.5t-0.5 -2.5t-0.5 -3.5l-3 -8q-9 -27 -37 -34l-43 10l-28 -62q-16 -22 -37 -22q-14 0 -23.5 5.5t-22.5 15.5l-74 -64l-39 -8l-17 17l-5 -1l-7 13l-108 -52l-30 12l-15 14l-9 4l2 5l-98 -16l-19 17h-2l-26 24l3 6l-99 10
l-16 16l-8 1l14 38l-24 6q-11 0 -15 6l-12 11q-16 3 -16 24q0 7 5 22l29 20l-12 10l-11 11l-12 8l7 49l57 10l-12 34l24 51l62 -7q34 87 66 87h6l45 -22q30 29 52.5 47t46.5 27l33 -37l120 57l17 -23l2 -1l13 -17l86 18l59 -9l-3 -5l18 -17l-7 -12h88l5 -10l13 -13l12 -23
l-5.5 -11t-5.5 -10l59 -19l-2 -5l18 -17zM652 352l-3 -7l12 -11l6 6q11 8 26 8q19 0 24 -17l1 -1l13 35l6 -15l14 -14l13 -33l20 47l36 -15l6 14l30 -8l-14 10l44 12l-64 18l-16 16l-11 3l18 12h-75l-17 17h-9l9 15l-101 -16l-17 17l-7 -1l3 11l-87 -40l-18 17l-3 -1l-11 14
l-71 -60q-11 -6 -21 -6q-19 0 -41 19l-26 -57l25 5l-3 -7l12 -12q28 13 72 21l-3 -6l7 -8q3 2 5.5 3t5.5 3h14q24 0 34 -16l13 37l6 -16l14 -13l14 -34l19 46l39 -14l4 10zM494 105l15 -15l2 -9l99 46l33 -36l78 73l55 -25l12 28l-6 7l-3 -2l-10 18q-5 5 -6 7l-10 9
q-2 2 -4 2.5t-4 2.5l-9 -24l-33 -2l-1 -2l-4 2h-1l-1 1l-21 10l-15 14q-3 -3 -7 -7.5t-9 -10.5h-41l-44 -13l-5 4q-12 2 -20 11h-1v1l-7 7q-6 2 -8 5l-8 -22l-40 -7l-13 12q-10 -7 -20 -7q-1 0 -1.5 -0.5t-1.5 -0.5h1q-2 -1 -7 -1h-7q-23 0 -31 8l-8 8l-5 -17
q-3 -1 -11.5 -3t-10.5 -3t-9 -1q-15 0 -23 8l-13 11q-1 1 -2 1l-1 1v-2l-53 -17l-8 7l-11 -5l76 -21l-6 -4l18 -17l-15 -9l88 -4l-4 -5l18 -18l-2 -3l83 18zM244 325l-2 -15l17 -54l29 64zM878 210q-1 6 -4 18.5t-10 29.5l-21 -40zM216 242l27 -20l10 23zM892 312l-12 -21
l37 3zM364 240q1 2 1.5 4t1.5 4q-6 -6 -7 -8h4z" />
    <glyph glyph-name="FL02C6h" unicode="&#x2c6;" horiz-adv-x="325" 
d="M272 413l59 59l32 -59h82l-46 94q-5 6 -11.5 14.5t-14.5 8.5h-62q-5 0 -11.5 -4.5t-10.5 -7.5l-108 -105h91zM354 399l-14 26l-43 -43h-124l-17 17h-10l134 130q5 4 13 9.5t18 5.5h62q12 0 19.5 -7t12.5 -15q0 -3 2 -3l4 -4l1 -2l1 -1q3 -3 5.5 -6t4.5 -6l-1 1q0 -1 1 -1
q1 -4 5 -6l55 -112h-107l-17 17h-5z" />
    <glyph glyph-name="FL02DCh" unicode="&#x2dc;" horiz-adv-x="413" 
d="M484 530l-59 -59l-32 59h-82q-5 0 -11.5 -4.5t-10.5 -7.5l-108 -105h91l59 59l32 -59h82q5 0 11.5 4.5t11.5 7.5q40 39 61.5 60t31.5 31l12 12l2 2h-91zM311 544h91l5 -11l13 -12l11 -24l47 47h100v-6l17 -17v-18l4 -4l-1 -1l-28.5 -28.5t-74.5 -73.5l-4 -2
q-15 -12 -26 -12h-89l-17 17h-5l-14 26l-43 -43h-124l-17 17h-10l134 130q5 4 13 9.5t18 5.5z" />
    <glyph glyph-name="FL2013h" unicode="&#x2013;" horiz-adv-x="385" 
d="M505 339l5 5h-272l-172 -163h10l17 -17h264l166 157zM475 330l-143 -135h-231l143 135h231z" />
    <glyph glyph-name="FL2014h" unicode="&#x2014;" horiz-adv-x="456" 
d="M576 339l5 5h-343l-172 -163h10l17 -17h335l166 157zM546 330l-143 -135h-302l143 135h302z" />
    <glyph glyph-name="FL2018h" unicode="&#x2018;" horiz-adv-x="205" 
d="M311 403l13 37q1 10 2 25.5t-1 30t-7.5 24.5t-17.5 10h-8q-8 0 -21.5 -9.5t-27.5 -23t-26.5 -29t-17.5 -28.5l-13 -37q-10 -26 1 -45t38 -19q26 0 51 19t35 45zM205 322l-10 9q-27 13 -27 49q0 6 1 13.5t4 14.5l13 37q5 14 19 31.5t30.5 32.5t32 25t24.5 10h8
q21 0 32 -23l10 -9q9 -9 12 -24t3 -32q0 -11 -0.5 -20.5t-1.5 -16.5l-14 -40q-6 -15 -16 -27.5t-22.5 -22.5t-27.5 -15.5t-30 -5.5q-26 0 -40 14z" />
    <glyph glyph-name="FL2019h" unicode="&#x2019;" horiz-adv-x="205" 
d="M210 467l-13 -37q-2 -11 -3 -26t1 -29.5t8 -24.5t18 -10h8q7 0 21 9.5t28 23t26.5 29t17.5 28.5l13 37q10 26 -1.5 45t-38.5 19q-26 0 -50.5 -19t-34.5 -45zM182 432l15 40q11 30 39 51.5t59 21.5q39 0 53 -30l8 -8q14 -14 14 -37q0 -6 -1 -13t-4 -14l-13 -37
q-5 -14 -18.5 -31t-29.5 -31.5t-31.5 -24.5t-23.5 -10h-8q-13 0 -22 9l-10 9q-17 5 -23 24.5t-6 42.5q0 13 0.5 23t1.5 15z" />
    <glyph glyph-name="FL201Ah" unicode="&#x201a;" horiz-adv-x="232" 
d="M65 70l-15 -42q-1 -12 -1.5 -29t2.5 -32.5t10.5 -27t22.5 -11.5h9q9 0 25.5 10.5t33.5 25.5t31 32.5t19 31.5l15 42q11 29 -3.5 50t-46.5 21t-61 -21t-41 -50zM36 31l16 44q14 33 46 56.5t69 23.5q23 0 39 -9.5t24 -25.5l7 -6q16 -16 16 -40q0 -13 -6 -28l-15 -42
q-5 -15 -20.5 -33.5t-34 -35t-36.5 -27.5t-28 -11h-9q-17 0 -28 11l-10 10q-19 8 -25.5 32t-6.5 47q0 11 0.5 19.5t1.5 14.5z" />
    <glyph glyph-name="FL201Eh" unicode="&#x201c;" horiz-adv-x="350" 
d="M457 403l13 37q1 10 2 25.5t-1 30t-7.5 24.5t-17.5 10h-8q-8 0 -21.5 -9.5t-27.5 -23t-26.5 -29t-17.5 -28.5l-13 -37q-10 -26 1 -45t38 -19q26 0 51 19t35 45zM312 403l13 37q1 10 2 25.5t-1 30t-7.5 24.5t-17.5 10h-8q-8 0 -21.5 -9.5t-27.5 -23t-26.5 -29t-17.5 -28.5
l-13 -37q-10 -26 1 -45t38 -19q26 0 51 19t35 45zM206 322l-10 9q-27 13 -27 49q0 6 1 13.5t4 14.5l13 37q5 14 19 31.5t30.5 32.5t32 25t24.5 10h8q21 0 32 -23l10 -9q10 -10 13 -29q20 24 44.5 42.5t37.5 18.5h8q21 0 32 -23l10 -9q9 -9 12 -24t3 -32q0 -11 -0.5 -20.5
t-1.5 -16.5l-14 -40q-6 -15 -16 -27.5t-22.5 -22.5t-27.5 -15.5t-30 -5.5q-26 0 -40 14l-9 8q-15 8 -19 16q-15 -17 -35.5 -27.5t-41.5 -10.5q-26 0 -40 14z" />
    <glyph glyph-name="FL201Dh" unicode="&#x201d;" horiz-adv-x="350" 
d="M210 467l-13 -37q-2 -11 -3 -26t1 -29.5t8 -24.5t18 -10h8q7 0 21 9.5t28 23t26.5 29t17.5 28.5l13 37q10 26 -1.5 45t-38.5 19q-26 0 -50.5 -19t-34.5 -45zM355 467l-13 -37q-2 -11 -3 -26t1 -29.5t8 -24.5t18 -10h8q7 0 21 9.5t28 23t26.5 29t17.5 28.5l13 37
q10 26 -1.5 45t-38.5 19q-26 0 -50.5 -19t-34.5 -45zM182 432l15 40q11 30 39 51.5t59 21.5q39 0 52 -30l9 -8q1 -1 1.5 -2t1.5 -2q15 18 36.5 30t44.5 12q39 0 53 -30l8 -8q14 -14 14 -37q0 -6 -1 -13t-4 -14l-13 -37q-5 -14 -18.5 -31t-29.5 -31.5t-31.5 -24.5t-23.5 -10
h-8q-13 0 -22 9l-10 9q-12 4 -18.5 15t-8.5 26q-20 -23 -43 -41t-35 -18h-8q-13 0 -22 9l-10 9q-17 5 -23 24.5t-6 42.5q0 13 0.5 23t1.5 15z" />
    <glyph glyph-name="FL201Fh" unicode="&#x201e;" horiz-adv-x="405" 
d="M65 70l-15 -42q-1 -12 -1.5 -29t2.5 -32.5t10.5 -27t22.5 -11.5h9q9 0 25.5 10.5t33.5 25.5t31 32.5t19 31.5l15 42q11 29 -3.5 50t-46.5 21t-61 -21t-41 -50zM238 70l-15 -42q-1 -12 -1.5 -29t2.5 -32.5t10.5 -27t22.5 -11.5h9q9 0 25.5 10.5t33.5 25.5t31 32.5t19 31.5
l15 42q11 29 -3.5 50t-46.5 21t-61 -21t-41 -50zM36 31l16 44q14 33 46 56.5t69 23.5q23 0 38.5 -9t23.5 -24l8 -8q-1 1 -2 1l-1 1l3 -2l6 -8q17 21 43 35t54 14q23 0 39 -9.5t24 -25.5l7 -6q-1 1 -2 1l-1 1l3 -2q16 -16 16 -40q0 -13 -6 -28l-15 -42q-5 -15 -20.5 -33.5
t-34 -35t-36.5 -27.5t-28 -11h-9q-17 0 -28 11l-10 10q-14 6 -21 20t-9 31q-11 -13 -24.5 -26t-27 -23t-25.5 -16.5t-19 -6.5h-9q-17 0 -28 11l-10 10q-19 8 -25.5 32t-6.5 47q0 11 0.5 19.5t1.5 14.5z" />
    <glyph glyph-name="FL2020h" unicode="&#x2020;" horiz-adv-x="456" 
d="M238 289l-105 -289h192l105 289h8l143 135h-102l39 106h-192l-39 -106h-8l-143 -135h102zM114 -14l98 272h-84l-17 17h-10l172 163h4l40 106h221l-2 -5l18 -18l-31 -83h93l-5 -5l18 -18l-166 -157h-6l-105 -289h-214l-17 17h-7z" />
    <glyph glyph-name="FL2021h" unicode="&#x2021;" horiz-adv-x="456" 
d="M170 102l-37 -102h192l37 102h8l143 135h-102l19 52h8l143 135h-102l39 106h-192l-39 -106h-8l-143 -135h102l-19 -52h-8l-143 -135h102zM114 -14l30 85h-84l-17 17h-10l172 163h4l2 7h-83l-17 17h-10l172 163h4l40 106h221l-2 -5l18 -18l-31 -83h93l-5 -5l18 -18
l-166 -157h-6l-2 -7h93l-5 -5l18 -18l-166 -157h-6l-37 -102h-214l-17 17h-7z" />
    <glyph glyph-name="FL2023h" unicode="&#x2022;" horiz-adv-x="380" 
d="M136 257q-3 -19 3 -40.5t18 -39.5t29 -30t37 -12h66q12 0 30.5 8.5t38 22.5t37 31.5t26.5 34.5q9 14 11 22l4 10l1.5 7.5t0.5 1.5q1 10 1.5 19.5t0.5 20.5q0 16 -4 30.5t-13 26t-24.5 18.5t-38.5 7h-81q-16 0 -34.5 -8.5t-36.5 -22.5t-33.5 -31.5t-24.5 -34.5
q-5 -12 -9 -22.5t-5 -18.5zM121 244v10q0 6 1 8q3 15 12 33q1 1 3 8q10 19 27 38t36.5 34t40 24.5t38.5 9.5h81q33 0 52.5 -12t29.5 -31l5 -4q24 -27 24 -69q0 -11 -0.5 -20.5t-1.5 -18.5v-1h-12l10 -10q-3 -23 -6 -30t-6 -5l-2 2q-2 -2 -2 -3q-10 -18 -28.5 -36.5
t-39.5 -33.5t-41 -24t-33 -9h-66q-17 0 -31.5 7.5t-27.5 19.5l-3 3q-26 17 -43 48t-17 62z" />
    <glyph glyph-name="FL2026h" unicode="&#x2026;" horiz-adv-x="585" 
d="M52 75q-6 -15 -6 -28q0 -37 31 -52l8 -8q19 -18 51 -18q26 0 51 13t42 33q8 -12 23 -20l8 -8q19 -18 51 -18q27 0 52.5 13.5t42.5 35.5q5 -8 10.5 -13.5t13.5 -9.5l8 -8q19 -18 51 -18q17 0 34.5 6t32.5 16t26.5 24t17.5 31q6 15 6 28q0 24 -16 40l-7 6q-8 16 -24 25.5
t-39 9.5q-29 0 -56 -15t-44 -38q-1 3 -8 12l-7 6q-8 16 -24 25.5t-39 9.5q-29 0 -55 -14t-43 -37q-2 2 -3.5 5t-3.5 5l-7 6q-8 16 -24 25.5t-39 9.5q-37 0 -69 -23.5t-46 -56.5zM65 70q12 29 41 50t61 21t46.5 -21t3.5 -50q-5 -15 -15.5 -27.5t-24 -22t-29.5 -15t-32 -5.5
q-32 0 -47 20.5t-4 49.5zM240 70q12 29 41 50t61 21t46.5 -21t3.5 -50q-5 -15 -15.5 -27.5t-24 -22t-29.5 -15t-32 -5.5q-32 0 -47 20.5t-4 49.5zM418 70q12 29 41 50t61 21t46.5 -21t3.5 -50q-5 -15 -15.5 -27.5t-24 -22t-29.5 -15t-32 -5.5q-32 0 -47 20.5t-4 49.5z" />
    <glyph glyph-name="FL2030h" unicode="&#x2030;" horiz-adv-x="1162" 
d="M972 98v8v2l5 14h1q7 12 18.5 22.5t21.5 10.5h27v-2q0 -10 -1 -11l-3 -10l-4 -4q-7 -12 -18.5 -21t-17.5 -9h-26h-3zM627 98v8v2l5 14h1q7 12 18.5 22.5t21.5 10.5h27v-2q0 -10 -1 -11l-3 -10l-4 -4q-7 -12 -18.5 -21t-17.5 -9h-26h-3zM323 363v8v2l5 14h1
q7 12 18.5 22.5t21.5 10.5h28v-2v-10l-3 -7q-1 -1 -1 -2q-1 -1 -1 -2l-1 -1q-8 -13 -21 -23t-18 -10h-26h-3zM835 222l-4 3l-1 1q-16 28 -48 40.5t-75 12.5h-40l294 242l-18 18l6 5h-215l-178 -147q0 5 0.5 10t0.5 10q0 44 -26 70l-3 3q-16 29 -48.5 41.5t-75.5 12.5h-66
q-25 0 -50.5 -11.5t-47.5 -29.5t-39 -41t-25 -47q-2 -7 -4 -13.5t-3 -14.5v-2q-1 -6 -1.5 -12t-0.5 -12q0 -34 12 -55.5t32 -34.5l5 -4q19 -19 48 -26t65 -7h30l-300 -248h11l17 -17h204l181 149q-1 -4 -1 -12v-10q0 -34 12 -55.5t32 -34.5l5 -4q19 -19 48 -26t65 -7h50
q42 0 79 23t62 56q10 -27 37 -43l4 -3q19 -19 48 -26t65 -7h50q28 0 54.5 11t49 29t39.5 41t25 46l6 18q0 2 0.5 2.5t0.5 3.5v1q3 15 3 30q0 45 -26 71l-3 3q-16 29 -48 41.5t-77 12.5h-66q-38 0 -74 -23.5t-61 -57.5q-6 14 -16 24zM948 148l-6 -16q-3 -15 8 -31.5t25 -16.5
h26q9 0 25.5 12t24.5 26q4 4 5 9l2 7q1 1 1 15t-6 23.5t-25 9.5h-30q-13 0 -27.5 -12t-22.5 -26zM1172 143q0 -1 -0.5 -4t-1.5 -8l-4 -11q-8 -22 -24 -43.5t-37 -38.5t-46 -27.5t-51 -10.5h-50q-30 0 -55.5 5.5t-43 19t-25 37t-2.5 59.5q1 12 6 24q8 22 23.5 43.5t35.5 38.5
t43 27.5t46 10.5h66q61 0 96 -28t24 -94zM603 148l-6 -16q-3 -15 8 -31.5t25 -16.5h26q9 0 25.5 12t24.5 26q4 4 5 9l2 7q1 1 1 15t-6 23.5t-25 9.5h-30q-13 0 -27.5 -12t-22.5 -26zM827 143q0 -1 -0.5 -4t-1.5 -8l-4 -11q-8 -22 -24 -43.5t-37 -38.5t-46 -27.5t-51 -10.5
h-50q-30 0 -55.5 5.5t-43 19t-25 37t-2.5 59.5q1 12 6 24q8 22 23.5 43.5t35.5 38.5t43 27.5t46 10.5h66q61 0 96 -28t24 -94zM299 413l-6 -16q-3 -15 8 -31.5t25 -16.5h26q4 0 11 3.5t14.5 8.5t14.5 12t11 14l2 4t2 5l3 7q1 1 1 15t-7 23.5t-25 9.5h-30q-13 0 -27.5 -12
t-22.5 -26zM523 408q0 -1 -0.5 -4t-1.5 -8l-4 -11q-8 -22 -24 -43.5t-37 -38.5t-46 -27.5t-51 -10.5h-50q-30 0 -55.5 5.5t-43 19t-25 37t-2.5 59.5q1 12 6 24q8 22 23.5 43.5t36 38.5t43.5 27.5t46 10.5h66q30 0 55 -6.5t41 -21.5t22.5 -38t0.5 -56zM268 0h-171l641 530
h173z" />
    <glyph glyph-name="FL2039h" unicode="&#x2039;" horiz-adv-x="197" 
d="M243 236l-46 37l79 54l30 82l-124 -81q-8 -6 -20 -16t-15 -18l-23 -62q-2 -5 1 -10t5 -8l80 -69zM235 107l-18 15l-97 82q-1 1 -2 2.5t-2 2.5q-2 4 -4.5 8.5t-2.5 10.5q0 2 0.5 4.5t2.5 6.5l22 60q4 10 17.5 21.5t22.5 18.5l159 106l-4 -11l18 -18l-42 -116l-64 -44
l19 -15l-2 -4l18 -17z" />
    <glyph glyph-name="FL203Ah" unicode="&#x203a;" horiz-adv-x="197" 
d="M154 316l46 -37l-79 -54l-30 -82l124 81q8 6 20 16t15 18l22 62q2 5 -0.5 10t-4.5 8l-79 70v-1h-1zM64 107l45 126l67 46l-39 32l37 99v28l20 -17h1l-1 -1l84 -73l1 -1q5 -6 6 -10l11 -11l5 -7.5t3 -12.5v-5q0 -1 -2 -5h-1l-21 -61q-4 -10 -17 -21t-22 -18l-151 -99
l-17 17z" />
    <glyph glyph-name="FL20ACh" unicode="&#x20ac;" horiz-adv-x="764" 
d="M482 164h23l125 80h-195q-1 5 -1.5 7t-0.5 0l2 23h110l125 80h-197q13 17 30 29t36 12h260q35 30 64.5 63.5t58.5 71.5h-413q-38 0 -73.5 -14.5t-66 -38.5t-55 -56t-40.5 -67h-19l-125 -80h120l-2 -30h-33l-125 -80h170q14 -48 46 -79.5t75.5 -50.5t94.5 -26.5t103 -7.5
h80q38 30 67 65.5t52 69.5h-239q-31 0 -57 29zM678 258l-9 -6l18 -17l-135 -86h252q-1 -3 -3 -5l18 -18q-28 -42 -61 -83.5t-75 -73.5h-84q-40 0 -79.5 4.5t-76 14.5t-68.5 26.5t-56 40.5l-3 3q-36 29 -59 75h-184l-17 17h-14l144 93h-73l-17 17h-14l168 108h16q19 35 45 67
t57.5 56t67 38.5t73.5 14.5h442q-2 -2 -2.5 -3t-1.5 -2l18 -18q-34 -45 -67.5 -83.5t-75.5 -73.5h-110l-3 -2l18 -17l-137 -87h88z" />
    </font>
</defs>
</svg>
