<?xml version="1.0" standalone="no"?>
<!DOCTYPE svg PUBLIC "-//W3C//DTD SVG 1.1//EN" "http://www.w3.org/Graphics/SVG/1.1/DTD/svg11.dtd" >
<svg xmlns="http://www.w3.org/2000/svg" xmlns:xlink="http://www.w3.org/1999/xlink" version="1.1">
<metadata>
Created by FontForge 20170731 at Sat Apr 18 11:48:58 2015
 By Aleksey,,,
2013 Iconian Fonts - www.iconian.com
</metadata>
<defs>
<font id="AirstrikeHalf-Tone" horiz-adv-x="755" >
  <font-face 
    font-family="Airstrike Half-Tone"
    font-weight="400"
    font-stretch="normal"
    units-per-em="1000"
    panose-1="0 0 0 0 0 0 0 0 0 0"
    ascent="800"
    descent="-200"
    x-height="502"
    cap-height="502"
    bbox="-155 -142 1306 723"
    underline-thickness="50"
    underline-position="-175"
    unicode-range="U+0020-20AC"
  />
<missing-glyph horiz-adv-x="500" 
 />
    <glyph glyph-name=".notdef" horiz-adv-x="500" 
 />
    <glyph glyph-name=".null" horiz-adv-x="0" 
 />
    <glyph glyph-name="nonmarkingreturn" horiz-adv-x="500" 
 />
    <glyph glyph-name="space" unicode=" " horiz-adv-x="279" 
 />
    <glyph glyph-name="space" unicode="&#xa0;" horiz-adv-x="279" 
 />
    <glyph glyph-name="FL0021h" unicode="!" horiz-adv-x="248" 
d="M90 171l33 91h192l-33 -91h-192zM71 70q12 29 41 50t61 21q26 0 40.5 -13.5t14.5 -33.5q0 -17 -12 -38t-33 -36q-13 -9 -29 -14.5t-32 -5.5q-26 0 -40.5 13t-14.5 34q0 16 4 23zM126 270l14 40h192l-14 -40h-192zM146 325l12 33h192l-12 -33h-192zM166 380l9 26h192
l-9 -26h-192zM186 436l7 18h192l-7 -18h-192zM206 491l4 11h192l-4 -11h-192z" />
    <glyph glyph-name="FL0022h" unicode="&#x22;" horiz-adv-x="326" 
d="M327 396v10h114q-7 -11 -22 -26h-92v16zM182 396v10h114q-7 -11 -22 -26h-92v16zM187 436l6 18h125l-6 -18h-125zM332 436l6 18h125l-6 -18h-125zM470 502q1 -3 1.5 -5.5t0.5 -5.5h-116q2 3 10 11h104zM325 502q1 -3 1.5 -5.5t0.5 -5.5h-116q2 3 10 11h104zM209 340
q-15 0 -22 18h63q-23 -18 -33 -18h-8zM354 340q-15 0 -22 18h63q-23 -18 -33 -18h-8z" />
    <glyph glyph-name="FL0023h" unicode="#" horiz-adv-x="747" 
d="M144 0l37 102h-126l143 135h32l9 25h192l-9 -25h77l9 25h192l-9 -25h124l-143 -135h-30l-37 -102h-192l37 102h-77l-37 -102h-192zM161 325l35 33h617l-35 -33h-617zM518 289h-77l-7 -19h-192l7 19h-126l22 21h617l-22 -21h-30l-7 -19h-192zM219 380l28 26h617l-28 -26
h-617zM302 436l7 18h192l-7 -18h-192zM571 436l7 18h192l-7 -18h-192zM322 491l4 11h192l-4 -11h-192zM591 491l4 11h192l-4 -11h-192z" />
    <glyph glyph-name="FL0024h" unicode="$" horiz-adv-x="660" 
d="M220 -141l51 141h-232q5 10 20.5 32t33 44.5t32.5 40t18 17.5h177l23 65h-120q-35 0 -48.5 18t-16.5 45h510q11 -22 16.5 -45t5.5 -43v-6q0 -26 -12 -55.5t-31.5 -54.5t-45 -41.5t-52.5 -16.5h-152l-51 -141h-126zM629 310q22 -18 35 -40h-507v25v15h472zM640 669
l-44 -123h-126l44 123h126zM569 329q17 0 29 -4h-441v28v5h192v-3v-5q0 -1 4 -4.5t6 -5.5q4 -4 11.5 -7.5t8.5 -3.5h12l10 29h126l-10 -29h52zM414 394h-38q-10 0 -19 -14h-196q3 11 9 26h548l-12 -12h-166l-5 -14h-126zM764 454q-4 -5 -7.5 -9t-8.5 -9h-562q3 5 5.5 9
t6.5 9h566zM804 502q-3 -4 -5 -6.5t-4 -4.5h-564q3 3 6 5.5t7 5.5h560zM503 174q0 8 -3 16.5t-11 8.5h-20l-23 -65h37q15 0 17.5 9t2.5 19v12z" />
    <glyph glyph-name="FL0025h" unicode="%" horiz-adv-x="788" 
d="M815 143q0 -1 -0.5 -4t-1.5 -8l-4 -11q-8 -22 -24 -43.5t-37 -38.5t-46 -27.5t-51 -10.5h-50q-30 0 -55.5 5.5t-43 19t-25 37t-2.5 59.5q1 12 6 24q7 19 19.5 38t29 35t35.5 27.5t39 16.5h131q45 -8 67 -36.5t13 -82.5zM85 0l317 262h172l-318 -262h-171zM492 358
q-5 -10 -11.5 -18t-13.5 -15h-293q-5 17 -5 33h126q7 -9 19 -9h26q7 0 21 9h131zM585 132q-3 -15 8 -31.5t25 -16.5h26q9 0 25.5 12t24.5 26q4 4 5 9l2 7q1 1 1 15t-6 23.5t-25 9.5h-30q-13 0 -27.5 -12t-22.5 -26zM452 310q-33 -30 -71 -40h-137q-21 5 -37.5 14t-25.5 26
h271zM583 270h-172l49 40h172zM478 325l40 33h172l-40 -33h-172zM189 436q2 5 5 9t6 9h312q1 -5 1.5 -9t0.5 -9h-119q-8 15 -28 15h-30q-15 0 -31 -15h-117zM544 380l32 26h172l-32 -26h-172zM612 436l22 18h172l-22 -18h-172zM511 406q-1 -1 -1 -5q0 -3 -1 -5l-4 -11
q-1 -1 -1 -3q0 -1 -1 -2h-117q2 2 2.5 3.5t2.5 3.5l2 4t2 5l3 7l0.5 1t0.5 2h112zM281 397q-1 -4 -0.5 -8t1.5 -9h-112q0 5 1 6q1 5 1.5 10t2.5 10h109zM235 491q4 2 7 5t7 6h239q2 -3 5 -5.5t5 -5.5h-263zM679 491l13 11h173l-14 -11h-172z" />
    <glyph glyph-name="FL0026h" unicode="&#x26;" horiz-adv-x="800" 
d="M760 197h-32q-2 -13 -6 -26.5t-9 -24.5l-5 -15q-15 -35 -29.5 -60t-37.5 -40.5t-59.5 -23t-95.5 -7.5h-284q-41 0 -68 3.5t-43.5 11t-23 19t-6.5 27.5q0 14 4 31.5t11 38.5l5 15q5 13 13.5 30.5t18.5 30.5q16 20 33.5 31t27.5 19q-4 2 -7 5h164l-16 -46l53 46h461z
M377 270l46 40h457l-43 -40h-460zM473 136l5 2.5t11 6l12 7t9 6.5l1.5 2t2.5 3l2 5q2 3 6 15.5t4 19.5h-217l-15 -45q3 -5 10 -13.5t9 -8.5h160zM704 454q-4 -5 -8 -9t-8 -9h-498q2 5 4.5 9t5.5 9h504zM407 394q-5 0 -14 -3.5t-17 -10.5h-209q2 3 3 6.5t3 6.5l5 13h483
l-12 -12h-242zM161 270q-7 13 -7 40h195l-15 -40h-173zM154 325q1 16 6 33h206l-12 -33h-200zM741 502l-4 -6t-4 -5h-499q4 2 8.5 5t9.5 6h489zM903 332l-8 -7h-454l8 7h454z" />
    <glyph glyph-name="FL0027h" unicode="'" horiz-adv-x="181" 
d="M182 396v10h114q-7 -11 -22 -26h-91q-1 3 -1 16zM187 436l6 18h125l-6 -18h-125zM325 502q1 -3 1.5 -5.5t0.5 -5.5h-116q2 3 10 11h104zM209 340q-15 0 -22 18h63q-23 -18 -33 -18h-8z" />
    <glyph glyph-name="FL0028h" unicode="(" horiz-adv-x="410" 
d="M119 207q0 13 2 26.5t5 28.5h189q-5 -13 -8 -24.5t-3 -16.5v-1q0 -20 13.5 -40t30.5 -38t34 -33t24 -24v-6q0 -9 -4.5 -22.5t-11 -29.5t-14.5 -32.5t-15 -31.5q-17 3 -41.5 9t-51.5 17t-53.5 28t-48 43t-34.5 61.5t-13 82.5v3zM128 270q3 10 6 19.5t8 20.5h190
q-1 -2 -2 -5t-2 -7l-8 -24l-1.5 -3l-0.5 -1h-190zM148 325q4 8 7.5 16.5t8.5 16.5h195q-6 -8 -10.5 -16.5t-9.5 -16.5h-191zM177 380q8 14 17 26h210q-15 -11 -29 -26h-198zM216 436l15 18h261l-18 -18h-258zM269 491q4 3 7 5.5t7 5.5h253q-3 -4 -5 -6.5t-4 -4.5h-258z
M367 546q22 5 38 5h170q-1 -1 -1.5 -2t-2.5 -3h-204z" />
    <glyph glyph-name="FL0029h" unicode=")" horiz-adv-x="409" 
d="M472 262q-10 -48 -37.5 -101t-66 -97t-84.5 -72.5t-92 -28.5h-170q29 38 58 71.5t65 63.5h17q16 0 32 12t30.5 30t26 38.5t17.5 37.5l6 17q2 7 4.5 14t4.5 15h189zM477 307q0 -22 -4 -37h-187q2 8 3.5 14.5t2.5 9.5q0 4 -0.5 7.5t-1.5 8.5h187v-3zM285 325q-4 8 -8.5 16
t-11.5 17h208q3 -17 3 -33h-191zM246 380l-13.5 13.5t-14.5 12.5h241q2 -6 4.5 -12.5t4.5 -13.5h-222zM190 436q0 9 4 18h236l12 -18h-252zM207 491q1 2 2 5l2 6h163q8 -5 16 -11h-183zM233 546q2 2 3 5q5 -2 11 -2.5t14 -2.5h-28z" />
    <glyph glyph-name="FL0419h" unicode="*" horiz-adv-x="246" 
d="M408 572v-26h-176l20 28l29 -25l12 46h87l-24 -46zM376 451l-25 -15h-68l-1 10l-9 -10h-66l-14 17l1 1h180zM408 495l-25 -4h-161l-23 6l3 5h206v-7zM240 398l-7 8h14zM289 398l-1 8h14z" />
    <glyph glyph-name="FL002Bh" unicode="+" horiz-adv-x="461" 
d="M202 98l35 97h-148l71 67h331l-71 -67h-48l-35 -97h-135zM168 270l43 40h331l-43 -40h-331zM563 330l-6 -5h-331l6 5h54l10 28h135l-10 -28h142zM304 380l10 26h135l-10 -26h-135z" />
    <glyph glyph-name="FL002Ch" unicode="," horiz-adv-x="208" 
d="M38 28l15 42q12 29 41 50t61 21q26 0 40.5 -13.5t14.5 -33.5q0 -4 -5 -24l-15 -42q-5 -14 -19 -31.5t-31 -32.5t-33.5 -25.5t-25.5 -10.5h-9q-11 0 -18 6.5t-10.5 17t-5 23t-1.5 24.5v15q0 13 1 14z" />
    <glyph glyph-name="FL002Dh" unicode="-" horiz-adv-x="361" 
d="M320 195h-231l71 67h231zM168 270l43 40h231l-43 -40h-231zM226 325l6 5h231l-6 -5h-231z" />
    <glyph glyph-name="FL002Eh" unicode="." horiz-adv-x="208" 
d="M53 70q12 29 41 50t61 21q26 0 40.5 -13.5t14.5 -33.5q0 -17 -12 -38t-33 -36q-13 -9 -29 -14.5t-32 -5.5q-26 0 -40.5 13t-14.5 34q0 16 4 23z" />
    <glyph glyph-name="FL002Fh" unicode="/" horiz-adv-x="657" 
d="M231 0h-213l296 262h214zM537 270h-214l46 40h213zM386 325l37 33h214l-38 -33h-213zM448 380l30 26h213l-29 -26h-214zM512 436l20 18h214l-21 -18h-213zM574 491l12 11h214l-12 -11h-214z" />
    <glyph glyph-name="FL0030h" unicode="0" horiz-adv-x="721" 
d="M305 257q-1 -1 -1 -7v-6q0 -18 7 -37.5t19 -35.5t28 -26t34 -10h66q12 0 30.5 8.5t38 22.5t37 31.5t26.5 34.5q9 14 11 22l3 8h187q-12 -47 -43 -93.5t-74.5 -84t-96.5 -61t-108 -23.5h-100q-55 0 -102 9t-81 30.5t-53.5 58.5t-19.5 93q0 12 1 25t3 27q1 5 1.5 9.5
t2.5 9.5h184v-5zM178 380q5 6 10 12.5t10 13.5h594q2 -5 3.5 -11.5t3.5 -14.5h-217q-9 7 -22 11t-31 4h-81q-11 0 -23 -4t-24 -11h-223zM226 436q5 5 10 9t10 9h522l12 -18h-554zM797 287q-1 -5 -1.5 -9t-2.5 -8h-187q0 1 0.5 2l0.5 1q1 8 1.5 16.5t0.5 17.5v3h191
q-1 -6 -1.5 -11.5t-1.5 -11.5zM123 270q2 10 5.5 19.5t8.5 20.5h189q-5 -7 -11 -19.5t-8 -20.5h-184zM144 325q4 8 9 16.5t10 16.5h206q-18 -15 -33 -33h-192zM801 358q1 -3 1 -8v-8v-9q0 -5 -1 -8h-193q-2 18 -9 33h202zM297 491q5 3 10 5.5t10 5.5h389q5 -3 10 -5.5
t10 -5.5h-429z" />
    <glyph glyph-name="FL0031h" unicode="1" horiz-adv-x="325" 
d="M297 0h-192l95 262h192zM203 270l15 40h192l-15 -40h-192zM223 325l12 33h192l-12 -33h-192zM243 380l6 15h-82v1q0 2 6 10h272l-10 -26h-192zM195 436q4 5 7.5 9t7.5 9h252l-6 -18h-261zM242 491q2 3 5 5.5t6 5.5h227l-4 -11h-234z" />
    <glyph glyph-name="FL0032h" unicode="2" horiz-adv-x="661" 
d="M265 141q0 -7 11 -7h405l-12 -15.5t-29.5 -36.5t-37 -44t-35.5 -38h-455q-29 0 -42.5 18.5t-13.5 45.5q0 25 10 53t28 54q14 20 39.5 44t55.5 47h478q-38 -29 -79 -48t-74 -19h-200q-8 0 -16 -6.5t-14 -14.5zM723 310q-10 -11 -21.5 -20.5t-24.5 -19.5h-477q34 24 69 40
h454zM793 454q0 -5 -0.5 -9t-0.5 -9h-589l15 18h575zM786 406q-2 -7 -4.5 -13.5t-5.5 -12.5h-196v2q0 12 -9 12h-398q1 3 8 12h605zM760 352q-5 -7 -10.5 -13.5t-12.5 -13.5h-219q2 1 13.5 6t18.5 9q4 2 10 5.5t6 4.5l4 5l3 3h191q-3 -3 -4 -6zM782 502q3 -5 5 -11h-535
q3 2 5.5 5t5.5 6h519z" />
    <glyph glyph-name="FL0033h" unicode="3" horiz-adv-x="671" 
d="M130 136h326l5 2.5t11 6l12 7t9 6.5l1.5 2t2.5 3l2 5q2 3 2.5 10t0.5 14h-270l80 70h385q-9 -5 -11 -6q4 -8 14 -19t11 -31q0 -14 -5.5 -32.5t-10.5 -31.5l-4 -11q-15 -35 -29.5 -60t-37.5 -40.5t-59.5 -23t-95.5 -7.5h-441q26 38 50 72.5t52 63.5zM741 310
q-13 -23 -33 -40h-387l45 40h375zM564 380q-4 5 -8 9.5t-6 4.5h-374q2 3 3.5 6t3.5 6h578q1 -6 1.5 -12t0.5 -11v-2v-1h-199zM202 436q3 5 6 9t7 9h534q4 -9 5 -18h-552zM383 325l3 2h160q1 0 9.5 11.5t12.5 19.5h192q-3 -15 -11 -33h-366zM243 491q2 2 4 4.5t5 6.5h468
q2 -3 4.5 -5.5t4.5 -5.5h-486z" />
    <glyph glyph-name="FL0034h" unicode="4" horiz-adv-x="654" 
d="M626 0h-192l95 262h192zM438 190h-341l26 72h386zM541 294l-24 -24h-391l15 40h598l-15 -40h-192zM552 325l12 33h192l-12 -33h-192zM146 325l12 33h190l-12 -33h-190zM572 380l9 26h193l-10 -26h-192zM166 380l10 26h189l-9 -26h-190zM592 436l7 18h192l-6 -18h-193z
M187 436l6 18h190l-7 -18h-189zM612 491l4 11h193l-4 -11h-193zM207 491l4 11h189l-4 -11h-189z" />
    <glyph glyph-name="FL0035h" unicode="5" horiz-adv-x="654" 
d="M476 134q20 20 20 40q0 8 -3 14.5t-11 6.5h-200q-26 0 -56 19t-50 48h478q14 -22 21.5 -46t7.5 -44v-4q0 -26 -12 -55.5t-31.5 -54.5t-45 -41.5t-52.5 -16.5h-510q5 10 20.5 32t33 44.5t32.5 40t18 17.5h340zM170 270q-12 16 -18 40h457q11 -8 21.5 -17.5t18.5 -22.5
h-479zM757 454q-4 -5 -7.5 -9t-8.5 -9h-560l7 18h569zM711 406l-12 -12h-343l-5 -14h-190l9 26h541zM149 325v9q0 5 0.5 9.5t1.5 9.5l2 5h190l-1 -3v-5q0 -1 4 -4.5t6 -5.5q4 -4 10.5 -9.5t8.5 -5.5h-222zM797 502q-2 -3 -4.5 -5.5t-4.5 -5.5h-587l4 11h592z" />
    <glyph glyph-name="FL0036h" unicode="6" horiz-adv-x="636" 
d="M684 195q-13 -35 -36 -70t-53 -63t-65 -45t-72 -17q-62 0 -121 11t-106 38.5t-75.5 74.5t-28.5 119v2v17h561q1 -5 1.5 -10.5t0.5 -10.5q0 -21 -6 -46zM128 270q2 10 4 19.5t4 20.5h523q21 -16 27 -40h-558zM205 436q4 5 8 9l9 9h516q-4 -5 -8 -9t-8 -9h-517zM165 380
q8 14 17 26h509q-2 -2 -5.5 -5t-7.5 -6h-260q-11 0 -21 -4t-20 -11h-212zM459 203h-123l6 -9q14 -23 28.5 -40.5t35.5 -17.5h58l25 38q-3 9 -7 17.5t-23 11.5zM141 325q2 8 5.5 16.5t7.5 16.5h201q-5 -7 -10 -13.5t-9 -14.5h272q5 -2 10 -2.5t10 -2.5h-487zM267 491
q5 3 9 5.5t9 5.5h494q-3 -4 -5 -6.5t-4 -4.5h-503z" />
    <glyph glyph-name="FL0037h" unicode="7" horiz-adv-x="611" 
d="M56 0l252 262h211l-261 -262h-202zM195 436q4 5 7.5 9t7.5 9h501l-18 -18h-498zM421 380l15 15h-269v1q0 2 6 10h490l-26 -26h-216zM527 270h-212l39 40h213zM368 325l32 33h215l-33 -33h-214zM242 491q2 3 5 5.5t6 5.5h505l-11 -11h-505z" />
    <glyph glyph-name="FL0038h" unicode="8" horiz-adv-x="702" 
d="M728 262q-9 -5 -11 -6q4 -8 14 -19t11 -31v-3q0 -11 -4 -25.5t-9 -26.5l-7 -20q-15 -35 -29.5 -60t-37.5 -40.5t-59.5 -23t-95.5 -7.5h-298q-41 0 -68 3.5t-43.5 11t-23 19t-6.5 27.5q0 14 4 31.5t11 38.5l5 15q5 13 13.5 30.5t18.5 30.5q16 20 33.5 31t27.5 19
q-4 2 -7 5h164l-16 -46l53 46h360zM313 136h174l5 2.5t11 6l12 7t9 6.5l1.5 2t2.5 3l2 5q2 3 6 15.5t4 19.5h-231l-14 -37l1 -2q0 -1 -0.5 -1.5t-0.5 -1.5l-1 -3q3 -5 10 -13.5t9 -8.5zM772 310q-13 -23 -33 -40h-362l46 40h349zM173 393l5 13h615q1 -3 1 -8v-6v-12h-199
q-9 12 -14 14h-174q-5 0 -14 -3.5t-17 -10.5h-209q2 3 3 6.5t3 6.5zM190 436q2 5 4.5 9t5.5 9h582l6 -18h-598zM791 358q-1 -8 -6 -19q-2 -5 -3.5 -8.5t-2.5 -5.5h-338l8 7h131q2 0 8.5 9t10.5 17h192zM161 270q-7 13 -7 40h195l-15 -40h-173zM154 325q1 16 6 33h206
l-12 -33h-200zM234 491q4 2 8.5 5t9.5 6h502q7 -8 8 -11h-528z" />
    <glyph glyph-name="FL0039h" unicode="9" horiz-adv-x="636" 
d="M699 262q-5 -47 -28 -93.5t-58 -84t-79.5 -61t-92.5 -23.5h-413q29 38 58.5 71.5t64.5 63.5h260q25 0 46 19.5t36 45.5h-272q-36 7 -54.5 22.5t-24.5 39.5h557zM700 310q0 -6 0.5 -11.5t0.5 -11.5v-3q0 -11 -1 -14h-560q-1 3 -1 9v10v10q0 7 1 11h560zM145 335
q2 5 4.5 11t4.5 12h187l-1 -2q3 -9 6.5 -17.5t23.5 -11.5h123l-5 7l-15 24h224q2 -10 2 -17v-8t1 -8h-557zM166 380q4 6 7.5 12.5t8.5 13.5h506q2 -7 3 -13t3 -13h-240q-7 6 -15 10t-17 4h-58l-9 -14h-189zM204 436q4 5 8 9t8 9h444q3 -5 6 -9t5 -9h-471zM262 491
q11 6 17 11h321q6 -3 12 -5.5t11 -5.5h-361z" />
    <glyph glyph-name="FL003Ah" unicode=":" horiz-adv-x="209" 
d="M54 70q12 29 41 50t61 21q26 0 40.5 -13.5t14.5 -33.5q0 -17 -12 -38t-33 -36q-13 -9 -29 -14.5t-32 -5.5q-26 0 -40.5 13t-14.5 34q0 16 4 23zM148 331q8 17 16 27h141v-3q0 -12 -8 -30h-152zM288 310q-10 -15 -28 -29q-9 -6 -20 -11h-77q-19 13 -19 38v2h144zM187 380
q14 10 30 16t33 6t29 -6t19 -16h-111zM213 262q-3 -1 -8 -1h-6q-12 0 -15 1h29z" />
    <glyph glyph-name="FL003Bh" unicode=";" horiz-adv-x="209" 
d="M38 28l15 42q12 29 41 50t61 21q26 0 40.5 -13.5t14.5 -33.5q0 -4 -5 -24l-15 -42q-5 -14 -19 -31.5t-31 -32.5t-33.5 -25.5t-25.5 -10.5h-9q-11 0 -18 6.5t-10.5 17t-5 23t-1.5 24.5v15q0 13 1 14zM148 331q8 17 16 27h141v-3q0 -5 -1.5 -13.5t-5.5 -16.5h-153zM163 270
q-19 13 -19 38v2h145q-2 -4 -5 -7q-19 -23 -45 -33h-76zM250 402q17 0 29 -6t19 -16h-111q14 10 30 16t33 6zM199 261q-12 0 -15 1h29q-3 -1 -14 -1z" />
    <glyph glyph-name="FL003Ch" unicode="&#x3c;" horiz-adv-x="454" 
d="M223 0l-107 262h214l106 -262h-213zM119 270l46 40h214l-46 -40h-214zM182 325l37 33h214l-37 -33h-214zM244 380l30 26h214l-30 -26h-214zM308 436l20 18h214l-20 -18h-214zM370 491l12 11h214l-12 -11h-214z" />
    <glyph glyph-name="FL003Dh" unicode="=" horiz-adv-x="432" 
d="M358 102h-302l143 135h302zM162 325l35 33h302l-35 -33h-302zM220 380l28 26h302l-28 -26h-302zM426 289h-302l22 21h302z" />
    <glyph glyph-name="FL003Eh" unicode="&#x3e;" horiz-adv-x="454" 
d="M231 0h-213l296 262h214zM317 270l-16 40h214l16 -40h-214zM295 325l-13 33h214l13 -33h-214zM273 380l-11 26h214l11 -26h-214zM250 436l-7 18h214l7 -18h-214zM228 491l-5 11h214l5 -11h-214z" />
    <glyph glyph-name="FL003Fh" unicode="?" horiz-adv-x="654" 
d="M139 170q14 21 39.5 45t55.5 47h426q-38 -29 -79 -48t-74 -19h-149q-32 0 -47 -10.5t-17 -13.5v-1h-155zM92 70q12 29 41 50t61 21q26 0 40.5 -13.5t14.5 -33.5q0 -17 -12 -38t-33 -36q-13 -9 -29 -14.5t-32 -5.5q-26 0 -40.5 13t-14.5 34q0 16 4 23zM245 270
q17 12 34 22t34 18h403q-10 -11 -21.5 -20.5t-24.5 -19.5h-425zM196 436l15 18h575v-1q0 -5 -0.5 -9t-0.5 -8h-589zM573 380v2q0 12 -9 12h-398q1 3 8 12h605q-2 -7 -4.5 -13.5t-5.5 -12.5h-196zM511 325q2 1 13.5 6t18.5 9q4 2 10 5.5t6 4.5l4 5l3 3h191q-3 -3 -4 -6
q-5 -7 -10.5 -13.5t-12.5 -13.5h-219zM245 491q3 2 5.5 5t5.5 6h519q3 -5 5 -11h-535z" />
    <glyph glyph-name="FL0040h" unicode="@" horiz-adv-x="751" 
d="M118 206q0 29 7 56h190q-5 -16 -8.5 -27t-3.5 -14v-1q0 -20 13.5 -40t30.5 -38t34 -33t24 -24q10 -4 34.5 -6.5t40.5 -2.5h6q0 -4 -9.5 -30t-29.5 -83h-87q-17 3 -41.5 9t-51.5 17t-53.5 28t-48 43t-34.5 61.5t-13 82.5v2zM441 168q-42 5 -56.5 28t-14.5 56v10h78
q0 -15 15 -15q16 0 27 15h327q-26 -56 -78 -75t-128 -19h-170zM817 454l9 -18h-611l15 18h587zM127 270q2 7 4.5 14t5.5 15q1 2 2 5l2 6h190q-3 -6 -7 -19t-6 -21h-191zM824 278q-2 -7 -3 -8h-207q21 8 29 28q1 2 2 4.5t2 7.5h186q-2 -8 -4.5 -16t-4.5 -16zM449 270h-79
q0 4 1 5q6 18 21 35h174v-7q0 -4 -1.5 -11t-3.5 -18l-1.5 -3l-0.5 -1h-65l1.5 7.5t0.5 1.5q0 14 -16 14q-10 0 -18.5 -6.5t-12.5 -16.5zM147 325q4 8 7.5 16.5t8.5 16.5h195q-6 -8 -10.5 -16.5t-9.5 -16.5h-191zM838 358q0 -17 -3 -33h-185v8q0 14 -4 25h192zM834 406
q1 -6 1.5 -12.5t1.5 -13.5h-204q-12 15 -36 26h237zM776 502q3 -3 6.5 -5.5t6.5 -5.5h-521q3 3 6.5 5.5t6.5 5.5h495zM175 380q5 7 8.5 13t8.5 13h211q-15 -11 -29 -26h-199zM537 358q19 -11 26 -33h-156q12 11 26.5 19t29.5 14h74zM585 552q10 -2 23 -3t29 -3h-274
q21 6 41 6h181z" />
    <glyph glyph-name="FL0041h" unicode="A" 
d="M737 0h-178l-21 113q-2 -6 -14.5 -23t-28 -36t-30.5 -35t-22 -19h-423q1 5 1.5 7t0.5 0v3l197 252h204l-88 -118v-10h203l-20 128h178zM311 380l21 26h342l4 -26h-367zM225 270l32 40h202l-30 -40h-204zM517 270l-6 40h178l6 -40h-178zM268 325l26 33h200l-24 -33h-202z
M509 325l-5 33h178l5 -33h-178zM665 454q1 -5 2 -9.5t2 -8.5h-314l14 18h296zM648 502q3 -5 5 -11h-255q3 2 5.5 5t5.5 6h239z" />
    <glyph glyph-name="FL0042h" unicode="B" horiz-adv-x="689" 
d="M308 242l22 20h374l-6 -3q11 -9 20 -25.5t10 -36.5q0 -14 -5 -28t-10 -27l-4 -11q-15 -35 -31.5 -60t-41.5 -40.5t-60.5 -23t-88.5 -7.5h-459l95 262h192zM269 136h205l5 2.5t11 6l12 7t9 6.5l4 7.5t5 8.5l2 5q2 3 2.5 10t0.5 14h-230zM754 310q-17 -23 -39 -40h-376
l46 40h369zM780 406q1 -4 1 -12v-11v-2v-1h-199q-4 5 -8 9.5t-6 4.5h-205l-5 -14h-192l10 26h604zM773 454q1 -5 2 -9t2 -9h-590l6 18h580zM126 270l15 40h191l-14 -40h-192zM778 358q-2 -8 -5.5 -16.5t-8.5 -16.5h-362l2 2h160q1 0 9.5 11.5t12.5 19.5h192zM146 325l12 33
h192l-12 -33h-192zM748 502q2 -3 4 -5.5t4 -5.5h-549l4 11h537z" />
    <glyph glyph-name="FL0043h" unicode="C" horiz-adv-x="631" 
d="M127 243v2v17h186v-5q0 -19 10 -40.5t25.5 -39.5t34 -30t35.5 -12h239q-23 -34 -52 -69.5t-67 -65.5h-80q-62 0 -121 11t-106 38.5t-75.5 74.5t-28.5 119zM205 436q4 5 8 9l9 9h516q-4 -5 -8 -9t-8 -9h-517zM165 380q8 14 17 26h509q-2 -2 -5.5 -5t-7.5 -6h-260
q-9 0 -18.5 -4t-19.5 -11h-215zM128 270q2 10 4 19.5t4 20.5h189q-3 -6 -6 -19t-5 -21h-186zM141 325q2 8 5.5 16.5t7.5 16.5h203q-14 -15 -24 -33h-192zM267 491q5 3 9 5.5t9 5.5h494q-3 -4 -5 -6.5t-4 -4.5h-503z" />
    <glyph glyph-name="FL0044h" unicode="D" horiz-adv-x="658" 
d="M709 241q-41 -65 -84.5 -110.5t-94.5 -74.5t-113 -42.5t-140 -13.5h-249l95 262h194l-46 -127h26q24 0 56 10.5t64 27.5t59 38.5t41 43.5q1 2 2 3.5t2 3.5h202q-4 -5 -7 -10.5t-7 -10.5zM366 395l-6 -15h-194l10 26h594q-1 -5 -1 -13q0 -3 -0.5 -6t-1.5 -7h-210
q-8 15 -29 15h-162zM765 454q2 -6 2 -9q0 -6 1 -9h-581l6 18h572zM748 310q-10 -21 -20 -40h-200q4 5 8 11.5t7 14.5q2 3 2.5 6.5t2.5 7.5h200zM126 270l15 40h194l-15 -40h-194zM763 358q-3 -17 -9 -33h-199q7 15 7 30v3h201zM146 325l12 33h194l-12 -33h-194zM738 502
q2 -3 5 -5.5t5 -5.5h-541l4 11h527z" />
    <glyph glyph-name="FL0045h" unicode="E" horiz-adv-x="625" 
d="M489 195h-199l-22 -60h383q-1 -2 -5 -8.5t-8 -13.5t-8 -13t-5 -7q-9 -12 -24.5 -28t-30.5 -30.5t-26.5 -24.5t-12.5 -10h-503l95 262h191l-8 -24l24 24h230zM736 454q-8 -11 -15 -18h-534l6 18h543zM339 270l41 40h231l-43 -40h-229zM691 406q-14 -11 -20 -11h-308
l-6 -15h-191l10 26h515zM126 270l15 40h191l-15 -40h-191zM146 325l12 33h191l-12 -33h-191zM774 502q-2 -3 -4 -5.5t-4 -5.5h-559l4 11h563zM396 325l5 5h231l-6 -5h-230z" />
    <glyph glyph-name="FL0046h" unicode="F" horiz-adv-x="621" 
d="M489 195h-199l-71 -195h-191l95 262h191l-8 -24l24 24h230zM736 454q-8 -11 -15 -18h-534l6 18h543zM339 270l41 40h231l-43 -40h-229zM691 406q-14 -11 -20 -11h-308l-6 -15h-191l10 26h515zM126 270l15 40h191l-15 -40h-191zM146 325l12 33h191l-12 -33h-191zM774 502
q-2 -3 -4 -5.5t-4 -5.5h-559l4 11h563zM396 325l5 5h231l-6 -5h-230z" />
    <glyph glyph-name="FL0047h" unicode="G" horiz-adv-x="640" 
d="M387 201q1 3 13.5 21t29.5 40h276l-99 -262h-149q-62 0 -121 11t-106 38.5t-75.5 74.5t-28.5 119v9q0 7 1 10h185v-5q0 -19 9.5 -40.5t25 -39.5t34 -30t36.5 -12h59l23 65h-113v1zM436 270q8 10 16.5 20t17.5 20h254l-15 -40h-273zM738 454q-4 -5 -8 -9t-8 -9h-516
q4 5 8 9l9 9h515zM418 395q-22 0 -41 -15h-211q4 6 7.5 12.5t8.5 13.5h509q-2 -2 -5.5 -5t-7.5 -6h-260zM321 298q-2 -8 -4 -15t-3 -13h-185q1 10 3 19.5t5 20.5h188l-2 -6zM354 358q-6 -8 -11.5 -16t-10.5 -17h-191q3 8 6.5 16.5t7.5 16.5h199zM779 502q-3 -4 -5 -6.5
t-4 -4.5h-503q5 3 9 5.5t9 5.5h494zM732 330l-2 -5h-244q1 1 2.5 2t3.5 3h240z" />
    <glyph glyph-name="FL0048h" unicode="H" horiz-adv-x="654" 
d="M28 0l95 262h192l-15 -42l41 42h380l-95 -262h-190l69 190h-216l-69 -190h-192zM348 270l39 40h352l-15 -40h-376zM126 270l15 40h192l-15 -40h-192zM146 325l12 33h192l-12 -33h-192zM554 325l12 33h190l-12 -33h-190zM166 380l10 26h192l-10 -26h-192zM574 380l9 26
h191l-10 -26h-190zM187 436l6 18h192l-6 -18h-192zM594 436l7 18h190l-6 -18h-191zM207 491l4 11h192l-4 -11h-192zM614 491l4 11h191l-4 -11h-191z" />
    <glyph glyph-name="FL0049h" unicode="I" horiz-adv-x="616" 
d="M23 0v1q1 4 14.5 22t32 40t38 42.5t33.5 29.5h120l46 127h192l-46 -127h189q-7 -14 -23.5 -36.5t-35 -44.5t-36 -38t-25.5 -16h-499zM195 436q4 5 7.5 9t7.5 9h521q-8 -11 -15 -18h-521zM350 380l6 15h-189v1q0 2 6 10h513q-14 -11 -20 -11h-118l-6 -15h-192zM310 270
l15 40h192l-15 -40h-192zM330 325l12 33h192l-12 -33h-192zM242 491q2 3 5 5.5t6 5.5h516q-2 -3 -4 -5.5t-4 -5.5h-519z" />
    <glyph glyph-name="FL004Ah" unicode="J" horiz-adv-x="573" 
d="M23 0q21 35 45 69t56 66h202q19 0 37 10t32.5 25t26 32t18.5 31l10 29h190q-23 -63 -46 -112t-54 -82.5t-74 -50.5t-107 -17h-336zM453 270l15 40h189l-14 -40h-190zM473 325l12 33h190l-12 -33h-190zM493 380l10 26h189l-9 -26h-190zM514 436l6 18h190l-7 -18h-189z
M534 491l4 11h189l-4 -11h-189z" />
    <glyph glyph-name="FL004Bh" unicode="K" horiz-adv-x="698" 
d="M28 0l95 262h404l190 -262h-214l-196 238l-87 -238h-192zM126 270l15 40h191l-6 -18l25 18h232l-52 -40h-405zM372 325l46 33h228l-43 -33h-231zM146 325l12 33h192l-12 -33h-192zM448 380l36 26h225l-34 -26h-227zM166 380l10 26h191l-9 -26h-192zM526 436l25 18h220
l-23 -18h-222zM187 436l6 18h192l-7 -18h-191zM602 491l16 11h216l-14 -11h-218zM207 491l4 11h191l-4 -11h-191z" />
    <glyph glyph-name="FL004Ch" unicode="L" horiz-adv-x="560" 
d="M28 0l95 262h191l-46 -127h317q1 0 -11.5 -17t-31.5 -39.5t-40 -45t-35 -33.5h-439zM126 270l15 40h191l-15 -40h-191zM146 325l12 33h191l-12 -33h-191zM166 380l10 26h191l-10 -26h-191zM187 436l6 18h191l-6 -18h-191zM207 491l4 11h191l-4 -11h-191z" />
    <glyph glyph-name="FL004Dh" unicode="M" horiz-adv-x="836" 
d="M452 0h-69l-49 262h357zM808 0h-192l95 262h192zM220 0h-192l95 262h192zM714 270l10 28l-26 -28h-179l37 40h365l-15 -40h-192zM328 298l-10 -28h-192l15 40h364l8 -40h-180zM146 325l12 33h338l6 -33h-356zM570 325l31 33h337l-12 -33h-356zM166 380l10 26h311l5 -26
h-326zM621 380l24 26h311l-10 -26h-325zM672 436l17 18h284l-6 -18h-295zM187 436l6 18h284l4 -18h-294zM723 491l10 11h258l-4 -11h-264zM207 491l4 11h257l2 -11h-263z" />
    <glyph glyph-name="FL004Eh" unicode="N" horiz-adv-x="654" 
d="M514 262l6 -30l11 30h190l-95 -262h-242l-49 262h179zM28 0l95 262h192l-95 -262h-192zM328 298l-10 -28h-192l15 40h364l7 -40h-179zM146 325l12 33h337l7 -33h-356zM166 380l10 26h310l5 -26h-325zM534 270l14 40h191l-15 -40h-190zM554 325l12 33h190l-12 -33h-190z
M187 436l6 18h284l4 -18h-294zM574 380l9 26h191l-10 -26h-190zM594 436l7 18h190l-6 -18h-191zM207 491l4 11h257l2 -11h-263zM614 491l4 11h191l-4 -11h-191z" />
    <glyph glyph-name="FL004Fh" unicode="O" horiz-adv-x="721" 
d="M305 257q-1 -1 -1 -7v-6q0 -18 7 -37.5t19 -35.5t28 -26t34 -10h66q10 0 28.5 8.5t38.5 22.5t38 31.5t27 34.5q9 14 11 22l3 8h188q-13 -54 -44 -102t-74.5 -83.5t-96 -56t-108.5 -20.5h-100q-55 0 -102 9t-81 30.5t-53.5 58.5t-19.5 93q0 12 1 25t3 27q1 5 1.5 9.5
t1.5 9.5h185v-5zM172 380q5 7 10 13t10 13h605q2 -6 2.5 -12.5t1.5 -13.5h-219q-9 7 -22 11t-31 4h-81q-11 0 -23 -4t-24 -11h-229zM219 436q5 5 10 9t10 9h536q3 -5 5.5 -9t4.5 -9h-566zM797 287q-1 -5 -1.5 -9t-1.5 -8h-188q0 1 0.5 2l0.5 1q1 8 1.5 16.5t0.5 17.5v3h191
q-1 -6 -1.5 -11.5t-1.5 -11.5zM122 270q2 10 5.5 20t7.5 20h191q-5 -7 -11 -19.5t-8 -20.5h-185zM141 325q4 8 8 16.5t9 16.5h211q-18 -15 -33 -33h-195zM803 351q0 -7 -0.5 -13t-0.5 -13h-194q-2 18 -9 33h204v-7zM291 491q5 3 10 5.5t10 5.5h406q5 -3 9.5 -5.5t9.5 -5.5
h-445z" />
    <glyph glyph-name="FL0050h" unicode="P" horiz-adv-x="675" 
d="M28 0l95 262h192l-7 -20l22 20h398q-32 -33 -75 -51.5t-82 -18.5h-281l-70 -192h-192zM763 310q-6 -11 -13 -21.5t-15 -18.5h-396l46 40h378zM363 394l-5 -14h-192l10 26h604q1 -4 1 -12v-11v-3h-199q-4 5 -8 9.5t-6 4.5h-205zM769 454l6 -18h-588l6 18h576zM126 270
l15 40h191l-14 -40h-192zM779 358q-3 -18 -9 -33h-368l2 2h160q1 0 9.5 11.5t12.5 19.5h193zM146 325l12 33h192l-12 -33h-192zM743 502q2 -3 4.5 -5.5t4.5 -5.5h-545l4 11h532z" />
    <glyph glyph-name="FL0051h" unicode="Q" horiz-adv-x="714" 
d="M351 254h210l20 -39q2 4 4.5 8t4.5 9q9 14 11 22l3 8h183q-14 -52 -49.5 -103.5t-84.5 -91.5l49 -95h-200l-17 28h-90q-56 0 -107 9t-89.5 31.5t-61.5 60.5t-23 97q0 21 3 45q1 5 1.5 9.5t1.5 9.5h185v-5q-1 -1 -1 -7v-6q0 -18 7 -37.5t19 -35.5t28 -26t34 -10h13z
M171 380q5 7 10 13t10 13h596q2 -5 3.5 -11.5t3.5 -14.5h-222q-23 15 -55 15h-69q-11 0 -23 -4t-24 -11h-230zM218 436q5 5 9.5 9t9.5 9h523q4 -5 7 -9t6 -9h-555zM122 270q4 22 12 40h192q-5 -7 -11 -19.5t-8 -20.5h-185zM793 287q-1 -5 -1.5 -9t-2.5 -8h-183q0 1 0.5 2
l0.5 1q1 1 1 10v12q0 12 -1 15h189q-1 -6 -1.5 -11.5t-1.5 -11.5zM141 325q4 8 7.5 16.5t8.5 16.5h212q-18 -15 -33 -33h-195zM797 358q1 -3 1 -10v-9q0 -11 -1 -14h-192q-2 10 -5.5 18t-7.5 15h205zM289 491q5 3 10.5 5.5t10.5 5.5h388q5 -3 10 -5.5t10 -5.5h-429z" />
    <glyph glyph-name="FL0052h" unicode="R" horiz-adv-x="693" 
d="M28 0l95 262h192l-8 -22l22 22h394q-20 -16 -44.5 -27t-51 -18t-54 -10.5t-52.5 -5.5l196 -201h-214l-206 190l-11 -8l-66 -182h-192zM762 310q-13 -24 -30 -40h-395l39 40h386zM775 406q1 -7 1.5 -13.5t0.5 -12.5h-194q-1 7 -4 11.5t-14 4.5h-201l-6 -16h-192l10 26h599
zM765 454l6 -18h-584l6 18h572zM126 270l15 40h191l-14 -40h-192zM776 358q-2 -9 -3.5 -17t-4.5 -16h-377l4 4h160q12 0 18.5 9.5t8.5 19.5h194zM146 325l12 33h192l-12 -33h-192zM738 502q2 -3 4.5 -5.5t4.5 -5.5h-540l4 11h527z" />
    <glyph glyph-name="FL0053h" unicode="S" horiz-adv-x="660" 
d="M503 174q0 8 -3 16.5t-11 8.5h-200q-34 0 -60.5 18t-43.5 45h483q11 -22 16.5 -45t5.5 -43v-6q0 -26 -12 -55.5t-31.5 -54.5t-45 -41.5t-52.5 -16.5h-510q5 10 20.5 32t33 44.5t32.5 40t18 17.5h340q15 0 17.5 9t2.5 19v12zM629 310q22 -18 35 -40h-484q-10 17 -16 40
h465zM764 454q-4 -5 -7.5 -9t-8.5 -9h-561q3 5 5.5 9t6.5 9h565zM376 394q-10 0 -19 -14h-195q3 11 9 26h547l-12 -12h-330zM569 329q17 0 29 -4h-437q-3 13 -3 28v5h191v-3v-5q0 -1 4 -4.5t6 -5.5q4 -4 11.5 -7.5t8.5 -3.5h190zM804 502q-3 -4 -5 -6.5t-4 -4.5h-564
q3 3 6.5 5.5t6.5 5.5h560z" />
    <glyph glyph-name="FL0054h" unicode="T" horiz-adv-x="616" 
d="M212 0l95 262h192l-95 -262h-192zM195 436q4 5 7.5 9t7.5 9h521q-8 -11 -15 -18h-521zM350 380l6 15h-189v1q0 2 6 10h513q-14 -11 -20 -11h-118l-6 -15h-192zM310 270l15 40h192l-15 -40h-192zM330 325l12 33h192l-12 -33h-192zM242 491q2 3 5 5.5t6 5.5h516
q-2 -3 -4 -5.5t-4 -5.5h-519z" />
    <glyph glyph-name="FL0055h" unicode="U" horiz-adv-x="682" 
d="M113 196q3 17 7 32.5t9 33.5h190q-3 -11 -3.5 -15t-0.5 -6q-2 -11 -3.5 -19t-1.5 -13q0 -35 17 -54.5t45 -19.5h49q24 0 44.5 10t36.5 25t28 32t19 31l10 29h190q-24 -64 -49.5 -113t-57.5 -82t-74.5 -50t-99.5 -17h-117q-70 0 -116.5 8t-74.5 25.5t-40 45.5t-12 68
q0 11 1.5 23t3.5 26zM142 308v2h193q-5 -13 -8 -23t-5 -17h-190q2 8 4.5 17.5t5.5 20.5zM757 283q-2 -4 -3 -7l-2 -6h-190l15 40h190zM351 358q-7 -18 -11 -33h-192l12 33h191zM582 325l12 33h190l-12 -33h-190zM367 406q-2 -7 -4.5 -13.5t-4.5 -12.5h-190l9 26h190z
M602 380l10 26h190l-10 -26h-190zM623 436l6 18h190l-6 -18h-190zM187 436l7 18h189q-2 -5 -3 -9t-3 -9h-190zM643 491l4 11h190l-4 -11h-190zM400 502l-2 -6t-2 -5h-189l4 11h189z" />
    <glyph glyph-name="FL0056h" unicode="V" horiz-adv-x="741" 
d="M433 173l69 89h210l-151 -200q-5 -6 -14 -16t-19.5 -20.5t-21.5 -18t-18 -7.5h-165q-11 0 -19 11t-14 27t-10 33.5t-7 29.5l-24 161h172zM508 270l31 40h210l-31 -40h-210zM550 325l26 33h209l-25 -33h-210zM248 270l-5 40h172l5 -40h-172zM241 325l-5 33h172l5 -33h-172
zM593 380l20 26h209l-20 -26h-209zM233 380l-4 26h173l3 -26h-172zM637 436l14 18h207l-14 -18h-207zM224 436l-2 18h173l3 -18h-174zM679 491l9 11h206l-8 -11h-207zM216 491l-1 11h174l1 -11h-174z" />
    <glyph glyph-name="FL0077h" unicode="W" horiz-adv-x="872" 
d="M745 63q-4 -6 -11.5 -16.5t-16 -21t-17 -18t-13.5 -7.5h-118q-8 0 -12.5 13.5t-8.5 41.5t-8.5 72t-11.5 105l-118 -169q-5 -6 -12 -16.5t-15 -21t-16 -18t-14 -7.5h-119q-7 0 -11.5 9.5t-7 23t-3.5 29.5t-1 29v171h662zM717 286l15 24h172l-26 -40h-501l26 40h312z
M413 325l21 33h278l2 -33h-301zM211 270v40h165v-40h-165zM449 380l17 26h242l2 -26h-261zM741 325l21 33h173l-21 -33h-173zM211 325v33h165v-33h-165zM776 380l17 26h174l-17 -26h-174zM211 380v26h165v-26h-165zM485 436l12 18h208l1 -18h-221zM812 436l11 18h175
l-12 -18h-174zM211 436v18h165v-18h-165zM521 491l7 11h174l1 -11h-182zM846 491l7 11h176l-7 -11h-176zM211 491v11h165v-11h-165z" />
    <glyph glyph-name="FL0058h" unicode="X" horiz-adv-x="658" 
d="M231 0h-213l296 262h220l106 -262h-213l-52 127zM295 325l-13 33h355l-37 -33h-305zM475 406l1 -1l1 1h215l-30 -26h-389l-11 26h213zM317 270l-16 40h282l-46 -40h-220zM511 436l20 18h215l-20 -18h-215zM250 436l-7 18h213l7 -18h-213zM573 491l13 11h214l-12 -11h-215
zM228 491l-5 11h214l4 -11h-213z" />
    <glyph glyph-name="FL0059h" unicode="Y" horiz-adv-x="656" 
d="M232 0l92 252l-4 10h207l-11 -10l-92 -252h-192zM294 325l-13 33h355l-37 -33h-305zM474 406l1 -1l1 1h215l-30 -26h-389l-11 26h213zM316 270l-16 40h282l-46 -40h-220zM510 436l20 18h215l-20 -18h-215zM249 436l-7 18h213l7 -18h-213zM572 491l13 11h214l-12 -11h-215
zM227 491l-5 11h214l4 -11h-213z" />
    <glyph glyph-name="FL005Ah" unicode="Z" horiz-adv-x="616" 
d="M23 0l274 262h209l-133 -127h269q-7 -14 -23.5 -36.5t-35 -44.5t-36 -38t-25.5 -16h-499zM195 436q4 5 7.5 9t7.5 9h497l-19 -18h-493zM420 380l16 15h-269v1q0 2 6 10h483l-27 -26h-209zM305 270l42 40h209l-42 -40h-209zM363 325l34 33h209l-34 -33h-209zM242 491
q2 3 5 5.5t6 5.5h504l-12 -11h-503z" />
    <glyph glyph-name="FL005Bh" unicode="[" horiz-adv-x="412" 
d="M248 79h165q-1 -2 -5 -8.5t-8.5 -13.5t-8.5 -13t-5 -7q-9 -12 -24 -28t-30 -30.5t-26.5 -24.5t-12.5 -10h-285l115 318h191zM245 597h352q-5 -9 -14 -22.5t-20 -28.5h-337zM126 270l15 40h191l-15 -40h-191zM146 325l12 33h191l-12 -33h-191zM166 380l10 26h191l-10 -26
h-191zM526 502q-2 -3 -5 -6l-5 -5h-309l4 11h315zM187 436l6 18h191l-7 -18h-190z" />
    <glyph glyph-name="FL005Ch" unicode="\" horiz-adv-x="657" 
d="M426 0l-107 262h214l106 -262h-213zM316 270l-16 40h214l16 -40h-214zM294 325l-13 33h214l13 -33h-214zM272 380l-11 26h214l11 -26h-214zM249 436l-7 18h214l7 -18h-214zM227 491l-5 11h214l5 -11h-214z" />
    <glyph glyph-name="FL005Dh" unicode="]" horiz-adv-x="412" 
d="M363 -57h-352q7 13 23.5 36t35 45t35.5 38t26 16h90l67 184h191zM261 546q20 20 36.5 35t18.5 15h285l-18 -50h-322zM291 270l15 40h191l-15 -40h-191zM311 325l12 33h191l-12 -33h-191zM331 380l10 26h191l-10 -26h-191zM213 491q4 7 8 11h346l-4 -11h-350zM352 436
l6 18h191l-6 -18h-191z" />
    <glyph glyph-name="FL005Eh" unicode="^" 
d="M22 7v3l197 252h205l-191 -262h-213q1 5 1.5 7t0.5 0zM559 0l-40 262h177l41 -262h-178zM311 380l21 26h342l4 -26h-367zM225 270l32 40h203l-30 -40h-205zM518 270l-6 40h177l6 -40h-177zM268 325l26 33h201l-24 -33h-203zM509 325l-5 33h178l5 -33h-178zM665 454
q1 -6 2 -10.5t2 -7.5h-314l14 18h296zM648 502q3 -5 5 -11h-255q3 2 5.5 5t5.5 6h239z" />
    <glyph glyph-name="FL005Fh" unicode="_" horiz-adv-x="462" 
d="M350 0h-332l143 135h332z" />
    <glyph glyph-name="FL0060h" unicode="`" horiz-adv-x="170" 
d="M303 454v-9q0 -3 -2 -9h-91l-5 18h98zM292 500l3 -9h-87q1 3 8 11h75q0 -1 0.5 -1.5zM261 399q-15 0 -25 7h44q-1 -1 -2 -1l-6 -4q-2 -2 -11 -2z" />
    <glyph glyph-name="a" unicode="a" 
d="M737 0h-178l-21 113q-2 -6 -14.5 -23t-28 -36t-30.5 -35t-22 -19h-423q1 5 1.5 7t0.5 0v3l197 252h204l-88 -118v-10h203l-20 128h178zM311 380l21 26h342l4 -26h-367zM225 270l32 40h202l-30 -40h-204zM517 270l-6 40h178l6 -40h-178zM268 325l26 33h200l-24 -33h-202z
M509 325l-5 33h178l5 -33h-178zM665 454q1 -5 2 -9.5t2 -8.5h-314l14 18h296zM648 502q3 -5 5 -11h-255q3 2 5.5 5t5.5 6h239z" />
    <glyph glyph-name="FL0062h" unicode="b" horiz-adv-x="689" 
d="M308 242l22 20h374l-6 -3q11 -9 20 -25.5t10 -36.5q0 -14 -5 -28t-10 -27l-4 -11q-15 -35 -31.5 -60t-41.5 -40.5t-60.5 -23t-88.5 -7.5h-459l95 262h192zM269 136h205l5 2.5t11 6l12 7t9 6.5l4 7.5t5 8.5l2 5q2 3 2.5 10t0.5 14h-230zM754 310q-17 -23 -39 -40h-376
l46 40h369zM780 406q1 -4 1 -12v-11v-2v-1h-199q-4 5 -8 9.5t-6 4.5h-205l-5 -14h-192l10 26h604zM773 454q1 -5 2 -9t2 -9h-590l6 18h580zM126 270l15 40h191l-14 -40h-192zM778 358q-2 -8 -5.5 -16.5t-8.5 -16.5h-362l2 2h160q1 0 9.5 11.5t12.5 19.5h192zM146 325l12 33
h192l-12 -33h-192zM748 502q2 -3 4 -5.5t4 -5.5h-549l4 11h537z" />
    <glyph glyph-name="c" unicode="c" horiz-adv-x="631" 
d="M127 243v2v17h186v-5q0 -19 10 -40.5t25.5 -39.5t34 -30t35.5 -12h239q-23 -34 -52 -69.5t-67 -65.5h-80q-62 0 -121 11t-106 38.5t-75.5 74.5t-28.5 119zM205 436q4 5 8 9l9 9h516q-4 -5 -8 -9t-8 -9h-517zM165 380q8 14 17 26h509q-2 -2 -5.5 -5t-7.5 -6h-260
q-9 0 -18.5 -4t-19.5 -11h-215zM128 270q2 10 4 19.5t4 20.5h189q-3 -6 -6 -19t-5 -21h-186zM141 325q2 8 5.5 16.5t7.5 16.5h203q-14 -15 -24 -33h-192zM267 491q5 3 9 5.5t9 5.5h494q-3 -4 -5 -6.5t-4 -4.5h-503z" />
    <glyph glyph-name="FL0064h" unicode="d" horiz-adv-x="658" 
d="M707 239q-43 -65 -86.5 -110.5t-94 -74t-111 -41.5t-138.5 -13h-249l95 262h194l-46 -127h26q27 0 59 10.5t63 27.5t57.5 38.5t41.5 43.5q1 3 5 7h199q-4 -6 -7.5 -12t-7.5 -11zM366 395l-6 -15h-194l10 26h594q-1 -5 -1 -13q0 -3 -0.5 -6t-1.5 -7h-210q-8 15 -29 15
h-162zM765 454q2 -6 2 -9q0 -6 1 -9h-581l6 18h572zM747 310q-5 -11 -9.5 -20.5t-10.5 -19.5h-198q4 5 8 11.5t7 14.5q2 3 2.5 6.5t2.5 7.5h198zM126 270l15 40h194l-15 -40h-194zM763 358q-2 -8 -4.5 -16.5t-5.5 -16.5h-198q7 15 7 30v3h201zM146 325l12 33h194l-12 -33
h-194zM738 502q2 -3 5 -5.5t5 -5.5h-541l4 11h527z" />
    <glyph glyph-name="e" unicode="e" horiz-adv-x="625" 
d="M489 195h-199l-22 -60h383q-1 -2 -5 -8.5t-8 -13.5t-8 -13t-5 -7q-9 -12 -24.5 -28t-30.5 -30.5t-26.5 -24.5t-12.5 -10h-503l95 262h191l-8 -24l24 24h230zM736 454q-8 -11 -15 -18h-534l6 18h543zM339 270l41 40h231l-43 -40h-229zM691 406q-14 -11 -20 -11h-308
l-6 -15h-191l10 26h515zM126 270l15 40h191l-15 -40h-191zM146 325l12 33h191l-12 -33h-191zM774 502q-2 -3 -4 -5.5t-4 -5.5h-559l4 11h563zM396 325l5 5h231l-6 -5h-230z" />
    <glyph glyph-name="FL0066h" unicode="f" horiz-adv-x="621" 
d="M489 195h-199l-71 -195h-191l95 262h191l-8 -24l24 24h230zM736 454q-8 -11 -15 -18h-534l6 18h543zM339 270l41 40h231l-43 -40h-229zM691 406q-14 -11 -20 -11h-308l-6 -15h-191l10 26h515zM126 270l15 40h191l-15 -40h-191zM146 325l12 33h191l-12 -33h-191zM774 502
q-2 -3 -4 -5.5t-4 -5.5h-559l4 11h563zM396 325l5 5h231l-6 -5h-230z" />
    <glyph glyph-name="FL0067h" unicode="g" horiz-adv-x="640" 
d="M387 201q1 3 13.5 21t29.5 40h276l-99 -262h-149q-62 0 -121 11t-106 38.5t-75.5 74.5t-28.5 119v9q0 7 1 10h185v-5q0 -19 9.5 -40.5t25 -39.5t34 -30t36.5 -12h59l23 65h-113v1zM436 270q8 10 16.5 20t17.5 20h254l-15 -40h-273zM738 454q-4 -5 -8 -9t-8 -9h-516
q4 5 8 9l9 9h515zM418 395q-22 0 -41 -15h-211q4 6 7.5 12.5t8.5 13.5h509q-2 -2 -5.5 -5t-7.5 -6h-260zM321 298q-2 -8 -4 -15t-3 -13h-185q1 10 3 19.5t5 20.5h188l-2 -6zM354 358q-6 -8 -11.5 -16t-10.5 -17h-191q3 8 6.5 16.5t7.5 16.5h199zM779 502q-3 -4 -5 -6.5
t-4 -4.5h-503q5 3 9 5.5t9 5.5h494zM732 330l-2 -5h-244q1 1 2.5 2t3.5 3h240z" />
    <glyph glyph-name="h" unicode="h" horiz-adv-x="654" 
d="M28 0l95 262h192l-15 -42l41 42h380l-95 -262h-190l69 190h-216l-69 -190h-192zM348 270l39 40h352l-15 -40h-376zM126 270l15 40h192l-15 -40h-192zM146 325l12 33h192l-12 -33h-192zM554 325l12 33h190l-12 -33h-190zM166 380l10 26h192l-10 -26h-192zM574 380l9 26
h191l-10 -26h-190zM187 436l6 18h192l-6 -18h-192zM594 436l7 18h190l-6 -18h-191zM207 491l4 11h192l-4 -11h-192zM614 491l4 11h191l-4 -11h-191z" />
    <glyph glyph-name="FL0069h" unicode="i" horiz-adv-x="252" 
d="M30 0l95 262h192l-95 -262h-192zM128 270l15 40h192l-15 -40h-192zM148 325l12 33h192l-12 -33h-192zM168 380l10 26h192l-10 -26h-192zM189 436l6 18h192l-6 -18h-192zM209 491l4 11h192l-4 -11h-192z" />
    <glyph glyph-name="FL006Ah" unicode="j" horiz-adv-x="573" 
d="M23 0q21 35 45 69t56 66h202q19 0 37 10t32.5 25t26 32t18.5 31l10 29h190q-23 -63 -46 -112t-54 -82.5t-74 -50.5t-107 -17h-336zM453 270l15 40h189l-14 -40h-190zM473 325l12 33h190l-12 -33h-190zM493 380l10 26h189l-9 -26h-190zM514 436l6 18h190l-7 -18h-189z
M534 491l4 11h189l-4 -11h-189z" />
    <glyph glyph-name="FL006Bh" unicode="k" horiz-adv-x="698" 
d="M28 0l95 262h404l190 -262h-214l-196 238l-87 -238h-192zM126 270l15 40h191l-6 -18l25 18h232l-52 -40h-405zM372 325l46 33h228l-43 -33h-231zM146 325l12 33h192l-12 -33h-192zM448 380l36 26h225l-34 -26h-227zM166 380l10 26h191l-9 -26h-192zM526 436l25 18h220
l-23 -18h-222zM187 436l6 18h192l-7 -18h-191zM602 491l16 11h216l-14 -11h-218zM207 491l4 11h191l-4 -11h-191z" />
    <glyph glyph-name="FL006Ch" unicode="l" horiz-adv-x="560" 
d="M28 0l95 262h191l-46 -127h317q1 0 -11.5 -17t-31.5 -39.5t-40 -45t-35 -33.5h-439zM126 270l15 40h191l-15 -40h-191zM146 325l12 33h191l-12 -33h-191zM166 380l10 26h191l-10 -26h-191zM187 436l6 18h191l-6 -18h-191zM207 491l4 11h191l-4 -11h-191z" />
    <glyph glyph-name="FL006Dh" unicode="m" horiz-adv-x="836" 
d="M452 0h-69l-49 262h357zM808 0h-192l95 262h192zM220 0h-192l95 262h192zM714 270l10 28l-26 -28h-179l37 40h365l-15 -40h-192zM328 298l-10 -28h-192l15 40h364l8 -40h-180zM146 325l12 33h338l6 -33h-356zM570 325l31 33h337l-12 -33h-356zM166 380l10 26h311l5 -26
h-326zM621 380l24 26h311l-10 -26h-325zM672 436l17 18h284l-6 -18h-295zM187 436l6 18h284l4 -18h-294zM723 491l10 11h258l-4 -11h-264zM207 491l4 11h257l2 -11h-263z" />
    <glyph glyph-name="FL006Eh" unicode="n" horiz-adv-x="654" 
d="M514 262l6 -30l11 30h190l-95 -262h-242l-49 262h179zM28 0l95 262h192l-95 -262h-192zM328 298l-10 -28h-192l15 40h364l7 -40h-179zM146 325l12 33h337l7 -33h-356zM166 380l10 26h310l5 -26h-325zM534 270l14 40h191l-15 -40h-190zM554 325l12 33h190l-12 -33h-190z
M187 436l6 18h284l4 -18h-294zM574 380l9 26h191l-10 -26h-190zM594 436l7 18h190l-6 -18h-191zM207 491l4 11h257l2 -11h-263zM614 491l4 11h191l-4 -11h-191z" />
    <glyph glyph-name="FL006Fh" unicode="o" horiz-adv-x="738" 
d="M305 257q-1 -1 -1 -7v-6q0 -18 7 -37.5t19 -35.5t28 -26t34 -10h83q9 0 27 8.5t38.5 22.5t39 31.5t27.5 34.5q9 14 11 22l3 8h188q-13 -52 -44 -99.5t-74 -83.5t-95.5 -57.5t-109.5 -21.5h-117q-55 0 -102 9t-81 30.5t-53.5 58.5t-19.5 93q0 12 1 25t3 27q1 5 1.5 9.5
t1.5 9.5h185v-5zM173 380q5 7 10 13t10 13h618q2 -7 3 -13t2 -13h-217q-9 7 -22 11t-31 4h-98q-11 0 -23 -4t-24 -11h-228zM220 436q5 5 10 9t10 9h547q3 -5 6 -9t5 -9h-578zM814 287q-1 -5 -1.5 -9t-2.5 -8h-187q0 1 0.5 2l0.5 1q1 8 1.5 16.5t0.5 17.5v3h191
q-1 -6 -1.5 -11.5t-1.5 -11.5zM122 270q2 10 5 20t8 20h191q-5 -7 -11 -19.5t-8 -20.5h-185zM141 325q4 8 8 16.5t9 16.5h211q-18 -15 -33 -33h-195zM819 358v-13v-10q0 -7 -1 -10h-193q-2 18 -9 33h203zM292 491q5 3 10.5 5.5t10.5 5.5h414q5 -3 10 -5.5t10 -5.5h-455z" />
    <glyph glyph-name="p" unicode="p" horiz-adv-x="675" 
d="M28 0l95 262h192l-7 -20l22 20h398q-32 -33 -75 -51.5t-82 -18.5h-281l-70 -192h-192zM763 310q-6 -11 -13 -21.5t-15 -18.5h-396l46 40h378zM363 394l-5 -14h-192l10 26h603q1 -6 1.5 -12t0.5 -11v-3h-199q-4 5 -8 9.5t-6 4.5h-205zM768 454q4 -9 5 -18h-586l6 18h575z
M126 270l15 40h191l-14 -40h-192zM779 358q-3 -18 -9 -33h-368l2 2h160q1 0 9.5 11.5t12.5 19.5h193zM146 325l12 33h192l-12 -33h-192zM740 502q2 -3 4.5 -5.5t4.5 -5.5h-542l4 11h529z" />
    <glyph glyph-name="FL0071h" unicode="q" horiz-adv-x="711" 
d="M351 254h210l20 -39q2 4 4.5 8t4.5 9q9 14 11 22l3 8h183q-14 -52 -49.5 -103.5t-84.5 -91.5l49 -95h-200l-17 28h-90q-56 0 -107 9t-89.5 31.5t-61.5 60.5t-23 97q0 21 3 45q1 5 1.5 9.5t1.5 9.5h185v-5q-1 -1 -1 -7v-6q0 -18 7 -37.5t19 -35.5t28 -26t34 -10h13z
M173 380q5 7 10 13t10 13h594q2 -5 3.5 -11.5t3.5 -14.5h-222q-23 15 -55 15h-69q-11 0 -23 -4t-24 -11h-228zM221 436q5 5 9.5 9t9.5 9h520q4 -5 7 -9t6 -9h-552zM122 270l6 20t7 20h191q-5 -7 -11 -19.5t-8 -20.5h-185zM793 287q-1 -5 -1.5 -9t-2.5 -8h-183q0 1 0.5 2
l0.5 1q1 1 1 10v12q0 12 -1 15h189q-1 -6 -1.5 -11.5t-1.5 -11.5zM142 325q4 8 8 16.5t9 16.5h210q-18 -15 -33 -33h-194zM797 358q1 -3 1 -10v-9q0 -11 -1 -14h-192q-2 10 -5.5 18t-7.5 15h205zM292 491q5 3 10.5 5.5t10.5 5.5h385q5 -3 10 -5.5t10 -5.5h-426z" />
    <glyph glyph-name="r" unicode="r" horiz-adv-x="699" 
d="M28 0l95 262h192l-8 -22l22 22h394q-20 -16 -44.5 -27t-51 -18t-54 -10.5t-52.5 -5.5l196 -201h-214l-206 190l-11 -8l-66 -182h-192zM762 310q-13 -24 -30 -40h-395l39 40h386zM776 406q0 -7 0.5 -13.5t0.5 -12.5h-194q-1 7 -4 11.5t-14 4.5h-201l-6 -16h-192l10 26h600
zM767 454q4 -9 5 -18h-585l6 18h574zM126 270l15 40h191l-14 -40h-192zM776 358q-2 -9 -3.5 -17t-4.5 -16h-377l4 4h160q12 0 18.5 9.5t8.5 19.5h194zM146 325l12 33h192l-12 -33h-192zM741 502q2 -3 4 -5.5t4 -5.5h-542l4 11h530z" />
    <glyph glyph-name="FL201Ch" unicode="s" horiz-adv-x="660" 
d="M503 174q0 8 -3 16.5t-11 8.5h-200q-34 0 -60.5 18t-43.5 45h484q11 -22 16 -45t5 -43v-6q0 -26 -12 -55.5t-31.5 -54.5t-45 -41.5t-52.5 -16.5h-510q5 10 20.5 32t33 44.5t32.5 40t18 17.5h340q15 0 17.5 9t2.5 19v12zM630 310q22 -18 35 -40h-485q-10 17 -16 40h466z
M764 454q-4 -5 -7.5 -9t-8.5 -9h-561q3 5 5.5 9t6.5 9h565zM376 394q-10 0 -19 -14h-195q3 11 9 26h547l-12 -12h-330zM569 329q18 0 30 -4h-438q-3 13 -3 28v5h191v-3v-5q0 -1 4 -4.5t6 -5.5q4 -4 11.5 -7.5t8.5 -3.5h190zM804 502q-3 -4 -5 -6.5t-4 -4.5h-564q3 3 6.5 5.5
t6.5 5.5h560z" />
    <glyph glyph-name="FL0074h" unicode="t" horiz-adv-x="616" 
d="M212 0l95 262h192l-95 -262h-192zM195 436q4 5 7.5 9t7.5 9h521q-8 -11 -15 -18h-521zM350 380l6 15h-189v1q0 2 6 10h513q-14 -11 -20 -11h-118l-6 -15h-192zM310 270l15 40h192l-15 -40h-192zM330 325l12 33h192l-12 -33h-192zM242 491q2 3 5 5.5t6 5.5h516
q-2 -3 -4 -5.5t-4 -5.5h-519z" />
    <glyph glyph-name="FL2022h" unicode="u" horiz-adv-x="682" 
d="M110 197q3 17 8 32.5t10 32.5h191q-3 -11 -3.5 -15t-0.5 -6q-2 -11 -3.5 -19t-1.5 -13q0 -35 19.5 -54.5t42.5 -19.5h49q24 0 44.5 10t36.5 25t28 32t19 31l10 29h190q-24 -64 -49.5 -113t-57.5 -82t-74.5 -50t-99.5 -17h-117q-71 0 -118 8.5t-75 26.5t-40 46.5t-12 68.5
q0 11 1 22t3 25zM142 308v2h193q-5 -13 -8 -23t-5 -17h-191q2 8 5 17.5t6 20.5zM757 283q-2 -4 -3 -7l-2 -6h-190l15 40h190zM351 358q-7 -18 -11 -33h-192l12 33h191zM582 325l12 33h190l-12 -33h-190zM367 406q-2 -7 -4.5 -13.5t-4.5 -12.5h-190l9 26h190zM602 380l10 26
h190l-10 -26h-190zM623 436l6 18h190l-6 -18h-190zM187 436l7 18h189q-2 -5 -3 -9t-3 -9h-190zM643 491l4 11h190l-4 -11h-190zM400 502l-2 -6t-2 -5h-189l4 11h189z" />
    <glyph glyph-name="FL0076h" unicode="v" horiz-adv-x="741" 
d="M433 173l69 89h210l-151 -200q-5 -6 -14 -16t-19.5 -20.5t-21.5 -18t-18 -7.5h-165q-11 0 -19 11t-14 27t-10 33.5t-7 29.5l-24 161h172zM508 270l31 40h210l-31 -40h-210zM550 325l26 33h209l-25 -33h-210zM248 270l-5 40h172l5 -40h-172zM241 325l-5 33h172l5 -33h-172
zM593 380l20 26h209l-20 -26h-209zM233 380l-4 26h173l3 -26h-172zM637 436l14 18h207l-14 -18h-207zM224 436l-2 18h173l3 -18h-174zM679 491l9 11h206l-8 -11h-207zM216 491l-1 11h174l1 -11h-174z" />
    <glyph glyph-name="FL0057h" unicode="w" horiz-adv-x="872" 
d="M101 199l23 63h196q-2 -7 -4 -15.5t-4 -16.5t-3 -14t-1 -9q0 -27 7.5 -39t20 -17.5t28 -6.5t30.5 -5l44 123h190l-46 -128h121l46 128h190l-95 -262h-535q-63 0 -105.5 11t-68 29t-36.5 42t-11 51q0 17 3.5 33t9.5 33zM127 270l14 40h195l-14 -40h-195zM441 270l15 40
h190l-15 -40h-190zM752 270l15 40h190l-15 -40h-190zM147 325l12 33h193l-11 -33h-194zM772 325l12 33h190l-12 -33h-190zM461 325l12 33h190l-12 -33h-190zM167 380l9 26h192l-9 -26h-192zM792 380l10 26h190l-10 -26h-190zM481 380l10 26h190l-10 -26h-190zM187 436l7 18
h190l-6 -18h-191zM813 436l6 18h190l-6 -18h-190zM502 436l6 18h190l-6 -18h-190zM522 491l4 11h190l-4 -11h-190zM833 491l4 11h190l-4 -11h-190zM207 491l4 11h189l-3 -11h-190z" />
    <glyph glyph-name="FL0079h" unicode="x" horiz-adv-x="658" 
d="M231 0h-213l296 262h220l106 -262h-213l-52 127zM295 325l-13 33h355l-37 -33h-305zM475 406l1 -1l1 1h215l-30 -26h-389l-11 26h213zM317 270l-16 40h282l-46 -40h-220zM511 436l20 18h215l-20 -18h-215zM250 436l-7 18h213l7 -18h-213zM573 491l13 11h214l-12 -11h-215
zM228 491l-5 11h214l4 -11h-213z" />
    <glyph glyph-name="FL007Bh" unicode="y" horiz-adv-x="656" 
d="M232 0l92 252l-4 10h207l-11 -10l-92 -252h-192zM294 325l-13 33h355l-37 -33h-305zM474 406l1 -1l1 1h215l-30 -26h-389l-11 26h213zM316 270l-16 40h282l-46 -40h-220zM510 436l20 18h215l-20 -18h-215zM249 436l-7 18h213l7 -18h-213zM572 491l13 11h214l-12 -11h-215
zM227 491l-5 11h214l4 -11h-213z" />
    <glyph glyph-name="FL007Ah" unicode="z" horiz-adv-x="616" 
d="M23 0l274 262h209l-133 -127h269q-7 -14 -23.5 -36.5t-35 -44.5t-36 -38t-25.5 -16h-499zM195 436q4 5 7.5 9t7.5 9h497l-19 -18h-493zM420 380l16 15h-269v1q0 2 6 10h483l-27 -26h-209zM305 270l42 40h209l-42 -40h-209zM363 325l34 33h209l-34 -33h-209zM242 491
q2 3 5 5.5t6 5.5h504l-12 -11h-503z" />
    <glyph glyph-name="FL007Dh" unicode="{" horiz-adv-x="555" 
d="M242 195h-153l71 67h297l-66 -183h165q-1 -2 -5 -8.5t-8.5 -13.5t-8.5 -13t-5 -7q-9 -12 -24 -28t-30 -30.5t-26.5 -24.5t-12.5 -10h-285zM388 597h352q-5 -9 -14 -22.5t-20 -28.5h-337zM168 270l43 40h264l-15 -40h-292zM232 330h59l10 28h191l-12 -33h-254zM309 380
l9 26h192l-10 -26h-191zM669 502q-2 -3 -5 -6l-5 -5h-310l4 11h316zM329 436l7 18h191l-7 -18h-191z" />
    <glyph glyph-name="FL007Ch" unicode="|" horiz-adv-x="248" 
d="M-23 -141l146 403h192l-146 -403h-192zM227 546l44 123h192l-44 -123h-192zM126 270l15 40h192l-15 -40h-192zM146 325l12 33h192l-12 -33h-192zM166 380l10 26h192l-10 -26h-192zM187 436l6 18h192l-6 -18h-192zM207 491l4 11h192l-4 -11h-192z" />
    <glyph glyph-name="FL007Eh" unicode="}" horiz-adv-x="555" 
d="M363 -57h-352q7 13 23.5 36t35 45t35.5 38t26 16h90l67 184h286l-55 -52h-59zM601 596l-18 -50h-322q20 20 36.5 35t18.5 15h285zM291 270l15 40h319l-42 -40h-292zM663 345l-22 -20h-330l12 33h191l-4 -13h153zM331 380l10 26h191l-10 -26h-191zM213 491q4 7 8 11h346
l-4 -11h-350zM352 436l6 18h191l-6 -18h-191z" />
    <glyph glyph-name="FL0080h" unicode="~" horiz-adv-x="413" 
d="M285 195l-33 67h197q-11 -11 -23 -23.5t-29 -29.5q-5 -4 -12.5 -9t-12.5 -5h-87zM188 195h-98l65 67h96zM162 270l39 40h128l19 -40h-186zM496 310q-6 -7 -15.5 -16.5l-23.5 -23.5h-98l38 40h99zM514 330q0 -1 -4 -5h-99l5 5h98zM232 330h88l2 -5h-103q8 5 13 5z" />
    <glyph glyph-name="FL007Fh" horiz-adv-x="175" 
 />
    <glyph glyph-name="FL00A1h" unicode="&#xa1;" horiz-adv-x="248" 
d="M220 0h-192l95 262h192zM126 270l15 40h192l-15 -40h-192zM146 325l12 33h192l-12 -33h-192zM367 454q-2 -5 -4.5 -9t-6.5 -9h-144q0 7 3 18h152zM236 491q2 3 5 5.5t6 5.5h123q1 -3 2 -5.5t1 -5.5h-137zM324 406q-26 -17 -56 -17t-45 17h101z" />
    <glyph glyph-name="FL00A2h" unicode="&#xa2;" horiz-adv-x="631" 
d="M267 -142l57 156q-42 9 -78 26.5t-62.5 45t-41.5 66.5t-15 91v2v17h186v-5v-2q0 -27 18.5 -55.5t42.5 -47.5l40 110h126l-46 -127h163q-23 -34 -52 -69.5t-67 -65.5h-93l-52 -142h-126zM518 546l44 122h126l-44 -122h-126zM463 395h-45q-22 0 -41 -15h-212q8 14 17 26
h509q-2 -2 -5.5 -5t-7.5 -6h-89l-6 -15h-126zM205 436q4 5 8 9l9 9h516q-4 -5 -8 -9t-8 -9h-517zM128 270q2 10 4 19.5t4 20.5h189l-2 -6l-2 -6q-2 -8 -4 -15t-3 -13h-186zM141 325q2 8 5.5 16.5t7.5 16.5h200q-6 -8 -11.5 -16t-10.5 -17h-191zM267 491q5 3 9 5.5t9 5.5h494
q-3 -4 -5 -6.5t-4 -4.5h-503zM417 270l15 40h126l-15 -40h-126zM437 325l12 33h126l-12 -33h-126z" />
    <glyph glyph-name="FL00A3h" unicode="&#xa3;" horiz-adv-x="674" 
d="M656 0h-638l143 135h59l9 23q2 7 4.5 14t7.5 15h-155l79 75h455l29 -70h-197q-5 -7 -9 -14t-6 -10l-2 -5q1 -1 1.5 -3l0.5 -2q3 -5 10 -13.5t9 -8.5h196q7 -22 7 -64q0 -35 -3 -72zM174 270l42 40h384l16 -40h-442zM300 325q2 5 5.5 14t7.5 19h193q-2 -8 -2 -13v-14
q0 -4 2 -4h87l1 -2h-294zM326 380l3 3q4 5 8.5 11t10.5 12h262q0 -3 -0.5 -6t-0.5 -6h-59q-2 0 -9.5 -4.5t-15.5 -9.5h-199zM377 436q5 5 9.5 9t9.5 9h218v-9q0 -6 -1 -9h-236zM442 491q11 6 17 11h153q1 -3 1 -11h-171z" />
    <glyph glyph-name="FL00A4h" unicode="&#xa4;" horiz-adv-x="658" 
d="M325 261q-1 -11 3.5 -24t13 -23.5t20 -17.5t25.5 -7h44q8 0 20 5t24.5 13.5t23.5 18.5t17 20q5 6 6 13q0 1 0.5 1.5t0.5 1.5h125q-8 -27 -26.5 -54t-46.5 -48l65 -160h-213l-44 109h-28l-124 -109h-213l194 171l1 1q-9 15 -12.5 35t0.5 46q0 2 0.5 4.5t0.5 4.5h123v-1z
M231 325q13 18 28 33h382q8 -18 11 -33h-136q-13 18 -45 18h-54q-11 0 -23 -5t-23 -13h-140zM273 380l-11 26h429l-30 -26h-388zM652 279q-1 -1 -1 -5q0 -3 -1 -4h-124v1q1 9 0.5 19t-2.5 20h130q0 -8 -0.5 -15.5t-1.5 -15.5zM204 270q2 8 6 18.5t11 21.5h133q-6 -6 -11 -12
t-9 -13q-2 -5 -3.5 -8.5t-3.5 -6.5h-123zM250 436l-7 18h213l8 -18h-214zM511 436l21 18h213l-20 -18h-214zM228 491l-5 11h214l5 -11h-214zM574 491l12 11h214l-13 -11h-213z" />
    <glyph glyph-name="FL00A5h" unicode="&#xa5;" horiz-adv-x="656" 
d="M232 0l23 63h-160l125 80h64l11 30h-160l125 80h63l-4 9h208l-10 -9h158l-125 -80h-63l-11 -30h159l-125 -80h-63l-23 -63h-192zM294 325l-13 33h355l-38 -33h-304zM474 406l1 -1l1 1h214l-29 -26h-389l-11 26h213zM316 270l-16 40h281l-45 -40h-220zM510 436l20 18h215
l-21 -18h-214zM249 436l-7 18h213l7 -18h-213zM572 491l13 11h214l-12 -11h-215zM227 491l-5 11h214l4 -11h-213z" />
    <glyph glyph-name="FL00A6h" unicode="&#xa6;" horiz-adv-x="248" 
d="M-23 -141l146 403h192l-146 -403h-192zM227 546l44 123h192l-44 -123h-192zM126 270l15 40h192l-15 -40h-192zM146 325l12 33h192l-12 -33h-192zM166 380l10 26h192l-10 -26h-192zM187 436l6 18h192l-6 -18h-192zM207 491l4 11h192l-4 -11h-192z" />
    <glyph glyph-name="FL00A7h" unicode="&#xa7;" horiz-adv-x="658" 
d="M325 261q-1 -11 3.5 -24t13 -23.5t20 -17.5t25.5 -7h44q8 0 20 5t24.5 13.5t23.5 18.5t17 20q5 6 6 13q0 1 0.5 1.5t0.5 1.5h125l-2 -6t-2 -5q-8 -24 -25.5 -47.5t-43.5 -43.5q-38 -21 -84.5 -36t-107.5 -15h-28l-124 -109h-213l195 172q-9 15 -12.5 35t0.5 46v9h124v-1z
M231 325q13 18 28 33h382q8 -18 11 -33h-136q-13 18 -45 18h-54q-11 0 -23 -5t-23 -13h-140zM287 380q14 8 28 14.5t28 11.5h348l-30 -26h-374zM203 270q1 2 2 5l2 6q2 7 5.5 14t8.5 15h133q-6 -6 -11 -12t-9 -13l-6 -15h-125zM652 279l-3 -9h-123v1q1 9 0.5 19t-2.5 20h130
q0 -8 -0.5 -15.5t-1.5 -15.5zM511 436l21 18h213l-20 -18h-214zM574 491l12 11h214l-13 -11h-213z" />
    <glyph glyph-name="FL00A8h" unicode="&#xa8;" horiz-adv-x="364" 
d="M379 436q-3 7 -3 18h122q-4 -8 -16 -18h-103zM198 436q-3 7 -3 18h122q-4 -8 -16 -18h-103zM509 502q1 -3 1.5 -5.5t0.5 -5.5h-121q2 3 5 5.5t5 5.5h109zM328 502q1 -3 1 -11h-120q2 3 10 11h109z" />
    <glyph glyph-name="copyright" unicode="&#xa9;" horiz-adv-x="278" 
d="M355 594q26 0 49 -14q19 -13 25 -34h-23q-4 5 -8 9.5t-9 8.5q-15 12 -40 12q-19 0 -40 -7.5t-40 -22.5h-24q21 21 51 34q37 14 59 14zM367 406l-16 -10t-16 -9q-8 -2 -14 -4t-11 -3h-71q-10 4 -14 7q-13 12 -17 19h29q2 -2 3 -2q18 -12 42 -12q23 0 50 12q-1 0 5 2h30z
M356 454q-9 -11 -18 -18h-82q-5 8 -5 18h21q3 -16 25 -16q23 0 39 16h20zM411 454q-3 -5 -6 -9t-7 -9h-22l2 2q7 7 13 16h20zM197 436q-2 9 0 18h20q0 -13 1 -16v-2h-21zM260 491q1 4 6 11h20q-2 -3 -3 -5.5t-3 -5.5h-20zM207 491q2 6 5 11h19q-2 -3 -2.5 -6t-2.5 -5h-19z
M431 502q-2 -8 -3 -11h-19q2 8 2 11h20z" />
    <glyph glyph-name="FL00ABh" unicode="&#xab;" horiz-adv-x="308" 
d="M118 213q-2 3 -5 8t-1 10l11 31h74l34 -27l-34 -91zM253 214q-2 3 -5 8t-1 10l11 30h75l33 -26l-33 -91zM185 272l2 -2h-61l9 23q3 7 13 17h92zM320 273l3 -3h-62l9 24q1 5 12 16h92zM399 327l-3 -2h-95q1 1 2 1.5t2 1.5l46 30h59zM264 326l-2 -1h-95l1 1q1 0 2 1l47 31
h58zM384 380l40 26h4l-10 -26h-34zM250 380l40 26h2l-9 -26h-33z" />
    <glyph glyph-name="FL00ACh" unicode="&#xac;" horiz-adv-x="473" 
d="M346 98l35 97h-292l71 67h380l-59 -164h-135zM168 270l43 40h347l-15 -40h-375zM565 330l-2 -5h-337l6 5h333z" />
    <glyph glyph-name="FL00ADh" unicode="&#xad;" horiz-adv-x="318" 
d="M277 195h-188l71 67h188zM168 270l43 40h188l-43 -40h-188zM226 325l6 5h188l-6 -5h-188z" />
    <glyph glyph-name="registered" unicode="&#xae;" horiz-adv-x="278" 
d="M356 595q28 0 48 -14t27 -35h-24q-7 12 -17 19q-17 12 -41 12q-41 0 -81 -31h-23q21 21 51 35q39 14 60 14zM366 406q-7 -5 -15 -9.5t-16 -8.5q-8 -2 -15.5 -4t-13.5 -4h-65q-9 4 -16 8q-10 7 -16 18h29q1 -1 2 -1q18 -12 42 -12q23 0 50 12q1 0 2 1h32zM337 454
q1 -1 1 -4q0 -2 1 -3l3 -11h-23l-1 6l-3 12h22zM198 436q-1 3 -1 9v9h20q0 -5 2 -15v-3h-21zM411 454q-3 -5 -6.5 -9t-7.5 -9h-21l3 3l12 15h20zM249 436l7 18h19l-7 -18h-19zM364 502q-7 -9 -10 -11h-30q15 2 20 11h20zM431 502q-2 -8 -3 -11h-19q1 3 1.5 5.5t1.5 5.5h19z
M206 491q2 3 3 5.5t3 5.5h19q-2 -4 -3 -6.5t-2 -4.5h-20zM269 491l4 11h19l-4 -11h-19z" />
    <glyph glyph-name="FL00AFh" unicode="&#xaf;" horiz-adv-x="462" 
d="M205 436l19 18h332l-19 -18h-332zM494 395h-332l11 11h332zM263 491l12 11h332l-12 -11h-332z" />
    <glyph glyph-name="FL00B0h" unicode="&#xb0;" horiz-adv-x="183" 
d="M198 436q-3 7 -3 18h122q-4 -8 -16 -18h-103zM328 502q1 -3 1 -11h-120q2 3 10 11h109z" />
    <glyph glyph-name="FL00B1h" unicode="&#xb1;" horiz-adv-x="461" 
d="M17 0l143 135h331l-143 -135h-331zM225 164l35 97h-148l1 1h331l-1 -1h-48l-35 -97h-135zM121 270l43 40h331l-43 -40h-331zM180 325l35 33h331l-35 -33h-331zM586 396l-17 -16h-331l17 16h54l3 10h135l-3 -10h142zM323 436l7 18h135l-7 -18h-135zM482 499l-3 -8h-135
l3 8h135z" />
    <glyph glyph-name="FL00B4h" unicode="&#xb4;" horiz-adv-x="170" 
d="M187 436q2 5 4.5 9t5.5 9h99l-19 -18h-90zM242 500l2 2h76q2 -6 0 -11h-88zM228 406q-8 -4 -16 -5.5t-13 -1.5q-7 0 -9 2l-4 4q-1 0 -2 1h44z" />
    <glyph glyph-name="FL00B5h" unicode="&#xb5;" horiz-adv-x="837" 
d="M735 218l16 44h23l-5 -13l15 -3l8 16h55q18 -44 13 -60l-4 -8l-66 14l-37 -87l-61 26l-81 -75l-35 37l-131 -61l14 24l-8 25l-146 -31l32 43l-149 7l57 35l-118 33l71 31l-62 47h110l-23 -50l25 8l17 42h13v-2q-3 -7 -2 -8q-9 -48 19 -48l5.5 1.5t16.5 3.5l5 18
q-5 -1 -9.5 -1.5t-9.5 -0.5q-21 0 -12 21q2 4 3.5 7.5t3.5 8.5h59q-7 -15 -13 -32q-2 -18 26 -18q3 0 7 0.5t9 1.5q20 0 50 48h16l-17 -50l16 3l17 47h3q15 -48 38 -48l17 48h22l-20 -45l26 8l15 37h21q-6 -10 -11.5 -19.5t-10.5 -19.5h20q21 26 34 26q11 0 13 -26l10 -5
l15 44h18l-16 -45l15 1l16 44h7q15 -44 35 -44zM292 327l-9 -2h-101l-2 6l4 26l68 -7l4 8h634l-46 -13l27 -20h-47l1 1l-22 6l-3 -7h-26l1 1l-14 6l-3 -7h-57v1l-1 -1h-26q-3 9 -12 9q-11 0 -15 -3l-6 -6h-46l3 7l-21 -5l-1 -2h-37l-6 2l-1 -2h-98q-2 0 -4.5 0.5t-4.5 0.5
h-10q-1 -1 -3 -1h-42l3 5q-6 -2 -12 -2.5t-11 -2.5h-59zM266 380l12 26h519l94 -26h-625zM461 454l4 -5l10 5h239l-7 -11h146l-11 -7h-464l21 18h62zM914 282l-72 -6q1 -1 1 -3t1 -3h-48l20 40h75l22 -16zM126 270l72 6l-11 34h81l-19 -40h-123zM391 310q-9 -8 -16 -18
t-14 -22h-58q4 5 8.5 10t9.5 10q19 16 31 16q4 0 9 -3l3 7h27zM495 270l-17 40h48l-16 -40h-15zM627 310q-9 -10 -16.5 -20t-14.5 -20h-24l17 40h38zM427 275q-2 -6 -2 -5h-47q23 32 38 32q12 0 12 -15q2 -2 -1 -12zM723 270l-16 40h45l-17 -40h-12zM421 262q-3 -5 -6.5 -10
t-7.5 -10q-21 -9 -28 -9q-16 0 -7 26l1 3h48zM754 270l15 40h25l-16 -40h-24zM529 270l14 40h26l-18 -40h-22zM663 270l11 30q0 2 0.5 5t0.5 5h20l-14 -40h-18zM315 310q-24 -15 -34 -40h-12l16 40h30zM647 272h-30l32 37zM452 290v10q0 4 -2 10h19l-14 -40h-14q2 5 5 10z
M774 212l-13 6l-15 -10l7 -14zM589 502l4 -3l-2 -8h-36l23 11h11zM503 252l-5 10h9zM729 256l-3 6h5zM696 270l1 2v-2h-1zM292 436l1 1q0 -1 1 -1h-2z" />
    <glyph glyph-name="FL00B7h" unicode="&#xb6;" horiz-adv-x="616" 
d="M556 300l-11 -30h-67q7 10 14.5 20t16.5 20h48q0 -2 -0.5 -5t-0.5 -5zM226 230q6 17 13 32h16l-1 -3q-9 -26 7 -26q7 0 28 9q4 5 7.5 10t6.5 10h15q-30 -48 -50 -48q-5 -1 -9 -1.5t-7 -0.5q-28 0 -26 18zM527 218l-10 5q-2 26 -13 26q-13 0 -34 -26h-20q5 10 10.5 19.5
t11.5 19.5h70zM309 275q3 10 1 12q0 15 -12 15q-15 0 -38 -32h-17q7 12 14 22t16 18h59q2 -6 2 -10v-10l-6 -10t-5 -10h-16q0 -1 2 5zM391 214q-23 0 -38 48h27l5 -10l4 10h19zM158 252q-1 1 2 8v2h20q-2 -5 -3.5 -8.5t-3.5 -7.5q-9 -21 12 -21q5 0 9.5 0.5t9.5 1.5l-5 -18
q-11 -2 -16.5 -3.5l-5.5 -1.5q-28 0 -19 48zM617 218q-20 0 -35 44h26l3 -6l2 6h20zM163 270q10 25 34 40h49l-3 -7q-5 3 -9 3q-12 0 -31 -16q-5 -5 -9.5 -10t-8.5 -10h-22zM579 272l-1 -2h-15l14 40h12l16 -40h-26v2zM337 270l14 40h9l17 -40h-40zM130 220l-25 -8l23 50h19
zM436 225l-26 -8l20 45h21zM433 270l18 40h20l-17 -40h-21zM660 270l16 40h22l-20 -40h-18zM333 215l-16 -3l17 50h16zM392 270l16 40h17l-14 -40h-19zM131 270l19 40h17l-16 -40h-20zM617 270l17 40h17l-15 -40h-19zM559 218l-15 -1l16 45h15zM529 272l2 37l-32 -37h30z
M656 212l-21 -18l-7 14l15 10zM666 246l-15 3l5 13h18zM544 334q9 0 12 -9h-33l6 6q4 3 15 3zM707 326l-1 -1h-24l3 7zM480 332l-3 -7h-19l1 2zM657 326l-1 -1h-16l3 7zM255 330l-3 -5h-20q5 2 11 2.5t12 2.5zM307 326q2 0 4.5 -0.5t4.5 -0.5h-22q2 0 3 1h10zM174 327l-1 -2
h-8zM414 325l1 2l6 -2h-7zM582 325l1 1v-1h-1z" />
    <glyph glyph-name="FL00B9h" unicode="&#xb7;" horiz-adv-x="183" 
d="M131 282q4 15 17 28h113q0 -2 0.5 -4.5t0.5 -4.5q0 -12 -4 -19q-2 -3 -3 -6t-3 -6h-125q0 7 4 12zM172 223q-21 0 -33 11t-12 28h120q-13 -17 -33.5 -28t-41.5 -11zM215 341q26 0 39 -16h-89q23 16 50 16z" />
    <glyph glyph-name="FL00B8h" unicode="&#xb8;" horiz-adv-x="176" 
d="M-155 -116l122 92h53l11 30h119l-44 -122h-261z" />
    <glyph glyph-name="FL00BBh" unicode="&#xbb;" horiz-adv-x="308" 
d="M80 143l30 82l54 37h76l-1 -4q-3 -8 -15 -18t-20 -16zM215 144l30 82l52 36h78l-1 -3q-3 -8 -15 -18t-20 -16zM391 339q2 -3 4.5 -6.5t2.5 -7.5h-117l12 33h76zM256 338q6 -6 6 -13h-116l12 33h74zM189 279l-39 31h107l-14 -40h-67zM324 280l-38 30h107l-15 -40h-69z
M301 380l9 26h3l30 -26h-42zM166 380l9 26h2l30 -26h-41z" />
    <glyph glyph-name="FL00BFh" unicode="&#xbf;" horiz-adv-x="654" 
d="M605 262q-34 -25 -68.5 -41t-61.5 -16h-139q-1 0 -13 -5.5t-19 -9.5q-4 -2 -10 -5.5t-6 -4.5l-4 -5q-5 -5 -8 -13t-3 -15q0 -11 9 -11h398q-10 -17 -25 -35.5t-31 -36.5t-32 -34.5t-29 -29.5h-442q-32 0 -46 22t-14 54q0 26 8.5 52.5t24.5 48.5q14 20 36.5 42.5
t48.5 42.5h426zM663 310q-23 -23 -47 -40h-427q16 11 32 21.5t32 18.5h410zM706 358q-5 -8 -12.5 -16.5t-15.5 -16.5h-390q27 10 52 10h149q29 0 44 9t19 14h154zM752 454q-2 -5 -4.5 -9t-6.5 -9h-143v1v9q0 5 1 8h153zM621 491q2 3 5 5.5t6 5.5h123q3 -6 3 -11h-137z
M709 406q-26 -17 -56 -17t-45 17h101z" />
    <glyph glyph-name="FL00C0h" unicode="&#xc0;" 
d="M559 0l-21 113q-2 -6 -14.5 -23t-28 -36t-30.5 -35t-22 -19h-423q1 5 1.5 7t0.5 0v3l197 252h204l-88 -118v-10h203l-20 128h178l41 -262h-178zM601 665q0 -10 2.5 -20.5t-2.5 -24.5q-4 -9 -9 -16.5t-13 -11.5l-6 -4q-2 -2 -11 -2q-14 0 -29.5 10t-20.5 23l-6 23
q-2 6 -3.5 12t1.5 13q10 25 37 42q24 8 28 8q11 0 16.5 -9.5t7.5 -20.5zM311 380l21 26h342l4 -26h-367zM225 270l32 40h202l-30 -40h-204zM517 270l-6 40h178l6 -40h-178zM268 325l26 33h200l-24 -33h-202zM509 325l-5 33h178l5 -33h-178zM665 454q1 -6 2 -10.5t2 -7.5
h-314l14 18h296zM648 502q3 -5 5 -11h-255q3 2 5.5 5t5.5 6h239z" />
    <glyph glyph-name="FL00C1h" unicode="&#xc1;" 
d="M559 0l-21 113q-2 -6 -14.5 -23t-28 -36t-30.5 -35t-22 -19h-423q1 5 1.5 7t0.5 0v3l197 252h204l-88 -118v-10h203l-20 128h178l41 -262h-178zM535 666l24 22q11 11 23 20.5t23 9.5t22 -8q17 -17 7 -42q-2 -7 -8 -13l-12 -12l-23 -23q-14 -13 -37 -23t-37 -10
q-8 0 -10 2l-3 4q-5 4 -4.5 11.5t3.5 16.5q5 14 15 24.5t17 20.5zM311 380l21 26h342l4 -26h-367zM225 270l32 40h202l-30 -40h-204zM517 270l-6 40h178l6 -40h-178zM268 325l26 33h200l-24 -33h-202zM509 325l-5 33h178l5 -33h-178zM665 454q1 -6 2 -10.5t2 -7.5h-314
l14 18h296zM648 502q3 -5 5 -11h-255q3 2 5.5 5t5.5 6h239z" />
    <glyph glyph-name="FL00C2h" unicode="&#xc2;" 
d="M559 0l-21 113q-2 -6 -14.5 -23t-28 -36t-30.5 -35t-22 -19h-423q1 5 1.5 7t0.5 0v3l197 252h204l-88 -118v-10h203l-20 128h178l41 -262h-178zM567 652l-57 -59q-92 -1 -91 0l107 105q5 3 10.5 7.5t10.5 4.5h62q8 0 15.5 -8.5t11.5 -14.5l47 -94h-82zM311 380l21 26h342
l4 -26h-367zM225 270l32 40h202l-30 -40h-204zM517 270l-6 40h178l6 -40h-178zM268 325l26 33h200l-24 -33h-202zM509 325l-5 33h178l5 -33h-178zM665 454q1 -6 2 -10.5t2 -7.5h-314l14 18h296zM648 502q3 -5 5 -11h-255q3 2 5.5 5t5.5 6h239z" />
    <glyph glyph-name="FL00C3h" unicode="&#xc3;" 
d="M559 0l-21 113q-2 -6 -14.5 -23t-28 -36t-30.5 -35t-22 -19h-423q1 5 1.5 7t0.5 0v3l197 252h204l-88 -118v-10h203l-20 128h178l41 -262h-178zM633 651l58 59h91l-1.5 -2t-11.5 -12t-32 -31t-62 -60q-4 -3 -10.5 -7.5t-11.5 -4.5h-82l-33 59l-58 -59h-91l107 105
q5 3 11 7.5t11 4.5h82zM311 380l21 26h342l4 -26h-367zM225 270l32 40h202l-30 -40h-204zM517 270l-6 40h178l6 -40h-178zM268 325l26 33h200l-24 -33h-202zM509 325l-5 33h178l5 -33h-178zM665 454q1 -6 2 -10.5t2 -7.5h-314l14 18h296zM648 502q3 -5 5 -11h-255q3 2 5.5 5
t5.5 6h239z" />
    <glyph glyph-name="FL00C4h" unicode="&#xc4;" 
d="M559 0l-21 113q-2 -6 -14.5 -23t-28 -36t-30.5 -35t-22 -19h-423q1 5 1.5 7t0.5 0v3l197 252h204l-88 -118v-10h203l-20 128h178l41 -262h-178zM419 653q9 25 33 42t51 17t39.5 -17t3.5 -42t-34 -42t-52 -17t-38.5 17t-2.5 42zM727 653q-9 -25 -33.5 -42t-51.5 -17
t-39 17t-3 42t33.5 42t51.5 17t39 -17t3 -42zM311 380l21 26h342l4 -26h-367zM225 270l32 40h202l-30 -40h-204zM517 270l-6 40h178l6 -40h-178zM268 325l26 33h200l-24 -33h-202zM509 325l-5 33h178l5 -33h-178zM665 454q1 -6 2 -10.5t2 -7.5h-314l14 18h296zM648 502
q3 -5 5 -11h-255q3 2 5.5 5t5.5 6h239z" />
    <glyph glyph-name="FL00C5h" unicode="&#xc5;" 
d="M559 0l-21 113q-2 -6 -14.5 -23t-28 -36t-30.5 -35t-22 -19h-423q1 5 1.5 7t0.5 0v3l197 252h204l-88 -118v-10h203l-20 128h178l41 -262h-178zM511 653q9 25 33 42t51 17t39.5 -17t3.5 -42t-34 -42t-52 -17t-38.5 17t-2.5 42zM311 380l21 26h342l4 -26h-367zM225 270
l32 40h202l-30 -40h-204zM517 270l-6 40h178l6 -40h-178zM268 325l26 33h200l-24 -33h-202zM509 325l-5 33h178l5 -33h-178zM665 454q1 -6 2 -10.5t2 -7.5h-314l14 18h296zM648 502q3 -5 5 -11h-255q3 2 5.5 5t5.5 6h239z" />
    <glyph glyph-name="FL00C6h" unicode="&#xc6;" horiz-adv-x="1163" 
d="M335 144v-10h203l-20 128h329l-8 -24l25 24h229l-71 -67h-199l-22 -60h383q-1 -2 -5 -8.5t-8 -13.5t-8 -13t-5 -7q-9 -12 -24.5 -28t-30.5 -30.5t-26.5 -24.5t-12.5 -10h-505l-21 113q-2 -6 -14.5 -23t-28 -36t-30.5 -35t-22 -19h-423q1 5 1.5 7t0.5 0v3l197 252h204z
M517 270l-6 40h354l-15 -40h-333zM682 358l3 -18l6 18h191l-12 -33h-361l-5 33h178zM1269 454q-8 -11 -15 -18h-534l6 18h543zM311 380l21 26h342l4 -26h-367zM872 270l41 40h231l-43 -40h-229zM896 395l-6 -15h-191l10 26h515q-14 -11 -20 -11h-308zM225 270l32 40h202
l-30 -40h-204zM268 325l26 33h200l-24 -33h-202zM1306 502q-2 -3 -3.5 -6t-3.5 -5h-559l4 11h562zM666 454q2 -5 2.5 -9.5t1.5 -8.5h-315l14 18h297zM649 502q3 -5 5 -11h-256q3 2 5.5 5t5.5 6h240zM1165 330l-6 -5h-230l5 5h231z" />
    <glyph glyph-name="FL00C7h" unicode="&#xc7;" horiz-adv-x="631" 
d="M108 -116l122 92h53l16 44q-37 11 -68.5 29t-54.5 45t-36 64t-13 85v9q0 7 1 10h185v-5q0 -19 10 -40.5t25.5 -39.5t34 -30t35.5 -12h239q-23 -34 -52 -69.5t-67 -65.5h-115q-10 0 -12 1l-42 -117h-261zM206 436q4 5 8 9l9 9h515q-4 -5 -8 -9t-8 -9h-516zM166 380
q4 6 7.5 12.5t8.5 13.5h509q-2 -2 -5.5 -5t-7.5 -6h-260q-22 0 -41 -15h-211zM129 270q1 10 3 19.5t5 20.5h188l-2 -6l-2 -6q-2 -8 -4 -15t-3 -13h-185zM141 325q3 8 6.5 16.5t7.5 16.5h199q-6 -8 -11.5 -16t-10.5 -17h-191zM267 491q5 3 9 5.5t9 5.5h494q-3 -4 -5 -6.5
t-4 -4.5h-503z" />
    <glyph glyph-name="FL00C8h" unicode="&#xc8;" horiz-adv-x="625" 
d="M28 0l95 262h191l-8 -24l24 24h230l-71 -67h-199l-22 -60h383q-1 -2 -5 -8.5t-8 -13.5t-8 -13t-5 -7q-9 -12 -24.5 -28t-30.5 -30.5t-26.5 -24.5t-12.5 -10h-503zM550 692l8 -22q0 -10 2 -20.5t-3 -24.5q-3 -9 -8 -16.5t-13 -11.5l-6 -4l-7.5 -1.5t-3.5 -0.5
q-14 0 -29.5 10t-20.5 23l-7 23q-2 6 -3 12t2 13q8 26 37 42q24 8 28 8q11 0 16 -9.5t8 -20.5zM736 454q-8 -11 -15 -18h-534l6 18h543zM339 270l41 40h231l-43 -40h-229zM363 395l-6 -15h-191l10 26h515q-14 -11 -20 -11h-308zM126 270l15 40h191l-15 -40h-191zM146 325
l12 33h191l-12 -33h-191zM773 502q-2 -3 -3.5 -6t-3.5 -5h-559l4 11h562zM632 330l-6 -5h-230l5 5h231z" />
    <glyph glyph-name="FL00C9h" unicode="&#xc9;" horiz-adv-x="625" 
d="M28 0l95 262h191l-8 -24l25 24h229l-71 -67h-199l-22 -60h383q-1 -2 -5 -8.5t-8 -13.5t-8 -13t-5 -7q-9 -12 -24.5 -28t-30.5 -30.5t-26.5 -24.5t-12.5 -10h-503zM493 671l24 22q11 11 23 20.5t23 9.5t22 -8q17 -17 7 -42q-2 -7 -8 -13l-12 -12l-24 -23q-7 -6 -16.5 -12
t-20 -10.5t-20.5 -7.5t-17 -3t-9 2l-3 4q-5 5 -5 11q0 10 4 17q5 14 14.5 24.5t17.5 20.5zM736 454q-8 -11 -15 -18h-534l6 18h543zM339 270l41 40h231l-43 -40h-229zM363 395l-6 -15h-191l10 26h515q-14 -11 -20 -11h-308zM126 270l15 40h191l-15 -40h-191zM146 325l12 33
h191l-12 -33h-191zM773 502q-2 -3 -3.5 -6t-3.5 -5h-559l4 11h562zM632 330l-6 -5h-230l5 5h231z" />
    <glyph glyph-name="FL00CAh" unicode="&#xca;" horiz-adv-x="625" 
d="M28 0l95 262h191l-8 -24l25 24h229l-71 -67h-199l-22 -60h383q-1 -2 -5 -8.5t-8 -13.5t-8 -13t-5 -7q-9 -12 -24.5 -28t-30.5 -30.5t-26.5 -24.5t-12.5 -10h-503zM528 655l-59 -59h-91l107 105q5 3 11.5 7.5t11.5 4.5h62q8 0 14.5 -8.5t10.5 -14.5l47 -94h-82zM736 454
q-8 -11 -15 -18h-534l6 18h543zM339 270l41 40h231l-43 -40h-229zM363 395l-6 -15h-191l10 26h515q-14 -11 -20 -11h-308zM126 270l15 40h191l-15 -40h-191zM146 325l12 33h191l-12 -33h-191zM773 502q-2 -3 -3.5 -6t-3.5 -5h-559l4 11h562zM632 330l-6 -5h-230l5 5h231z
" />
    <glyph glyph-name="FL00CBh" unicode="&#xcb;" horiz-adv-x="625" 
d="M28 0l95 262h191l-8 -24l25 24h229l-71 -67h-199l-22 -60h383q-1 -2 -5 -8.5t-8 -13.5t-8 -13t-5 -7q-9 -12 -24.5 -28t-30.5 -30.5t-26.5 -24.5t-12.5 -10h-503zM391 653q9 25 33 42t51 17t39.5 -17t3.5 -42t-34 -42t-52 -17t-38.5 17t-2.5 42zM699 653
q-9 -25 -33.5 -42t-51.5 -17t-39 17t-3 42t33.5 42t51.5 17t39 -17t3 -42zM736 454q-8 -11 -15 -18h-534l6 18h543zM339 270l41 40h231l-43 -40h-229zM363 395l-6 -15h-191l10 26h515q-14 -11 -20 -11h-308zM126 270l15 40h191l-15 -40h-191zM146 325l12 33h191l-12 -33
h-191zM773 502q-2 -3 -3.5 -6t-3.5 -5h-559l4 11h562zM632 330l-6 -5h-230l5 5h231z" />
    <glyph glyph-name="FL00CCh" unicode="&#xcc;" horiz-adv-x="248" 
d="M220 0h-192l95 262h192zM392 666q1 -10 3 -20.5t-3 -24.5q-3 -9 -8 -16.5t-13 -11.5l-7 -4q-2 -2 -10 -2q-14 0 -30 10t-20 23l-7 23q-2 6 -3 12t1 13q10 25 37 42q24 8 28 8q11 0 16.5 -9.5t7.5 -20.5zM126 270l15 40h192l-15 -40h-192zM146 325l12 33h192l-12 -33h-192
zM166 380l10 26h192l-10 -26h-192zM187 436l6 18h192l-6 -18h-192zM207 491l4 11h192l-4 -11h-192z" />
    <glyph glyph-name="FL00CDh" unicode="&#xcd;" horiz-adv-x="248" 
d="M220 0h-192l95 262h192zM324 668l24 22q11 11 23 20.5t23 9.5t22 -8q17 -17 7 -42q-2 -7 -8 -13l-12 -12l-24 -23q-7 -6 -16.5 -12t-20 -10.5t-20.5 -7.5t-17 -3t-9 2l-3 4q-5 5 -5 11q0 10 4 17q5 14 14.5 24.5t17.5 20.5zM126 270l15 40h192l-15 -40h-192zM146 325
l12 33h192l-12 -33h-192zM166 380l10 26h192l-10 -26h-192zM187 436l6 18h192l-6 -18h-192zM207 491l4 11h192l-4 -11h-192z" />
    <glyph glyph-name="FL00CEh" unicode="&#xce;" horiz-adv-x="248" 
d="M220 0h-192l95 262h192zM358 654l-58 -59h-91l107 105q4 3 10.5 7.5t11.5 4.5h62q8 0 15 -8.5t11 -14.5l47 -94h-82zM126 270l15 40h192l-15 -40h-192zM146 325l12 33h192l-12 -33h-192zM166 380l10 26h192l-10 -26h-192zM187 436l6 18h192l-6 -18h-192zM207 491l4 11
h192l-4 -11h-192z" />
    <glyph glyph-name="FL00CFh" unicode="&#xcf;" horiz-adv-x="248" 
d="M220 0h-192l95 262h192zM210 653q9 25 33 42t51 17t39.5 -17t3.5 -42t-34 -42t-52 -17t-38.5 17t-2.5 42zM518 653q-9 -25 -33.5 -42t-51.5 -17t-39 17t-3 42t33.5 42t51.5 17t39 -17t3 -42zM126 270l15 40h192l-15 -40h-192zM146 325l12 33h192l-12 -33h-192zM166 380
l10 26h192l-10 -26h-192zM187 436l6 18h192l-6 -18h-192zM207 491l4 11h192l-4 -11h-192z" />
    <glyph glyph-name="FL00D0h" unicode="&#xd0;" horiz-adv-x="773" 
d="M430 195h-27l-22 -60h30q22 0 54.5 12t65.5 30t61 39.5t42 40.5q2 2 3 5h193l-6 -10t-7 -9q-48 -65 -95.5 -111.5t-98.5 -75.5t-109 -42.5t-127 -13.5h-249l71 195h-120l71 67h341zM168 270l43 40h341l-43 -40h-341zM880 406q0 -7 -0.5 -13t-1.5 -13h-211q-8 15 -29 15
h-162l-6 -15h-194l9 26h595zM874 454q2 -5 2.5 -9t1.5 -9h-582l7 18h571zM856 310q-7 -18 -21 -40h-192q9 10 17 28l2 6l2 6h192zM232 330h26l10 28h194l-10 -28h121l-6 -5h-341zM873 358q-2 -8 -4.5 -16.5t-6.5 -16.5h-194q4 12 4 30v3h201zM846 502q8 -8 10 -11h-540l4 11
h526z" />
    <glyph glyph-name="FL00D1h" unicode="&#xd1;" horiz-adv-x="654" 
d="M384 0l-49 262h179l6 -30l11 30h190l-95 -262h-242zM220 0h-192l95 262h192zM592 651l58 59h91l-1.5 -2t-11.5 -12t-32 -31t-62 -60q-4 -3 -10.5 -7.5t-11.5 -4.5h-82l-33 59l-58 -59h-91l107 105q5 3 11 7.5t11 4.5h82zM328 298l-10 -28h-192l15 40h364l7 -40h-179z
M146 325l12 33h337l7 -33h-356zM166 380l10 26h310l5 -26h-325zM534 270l14 40h191l-15 -40h-190zM554 325l12 33h190l-12 -33h-190zM187 436l6 18h284l4 -18h-294zM574 380l9 26h191l-10 -26h-190zM594 436l7 18h190l-6 -18h-191zM207 491l4 11h257l2 -11h-263zM614 491
l4 11h191l-4 -11h-191z" />
    <glyph glyph-name="FL00D2h" unicode="&#xd2;" horiz-adv-x="721" 
d="M305 257q-3 -19 3 -40.5t18 -39.5t29 -30t37 -12h66q12 0 30.5 8.5t38 22.5t37 31.5t26.5 34.5q9 14 11 22l3 8h187q-12 -47 -43 -93.5t-74.5 -84t-96.5 -61t-108 -23.5h-100q-61 0 -112 11t-85.5 38.5t-50 74.5t-5.5 119q1 5 1.5 9.5t2.5 9.5h185v-5zM448 395
q-11 0 -23 -4t-24 -11h-224q5 7 10.5 13t10.5 13h594q2 -6 3.5 -12.5t3.5 -13.5h-218q-10 7 -22.5 11t-29.5 4h-81zM621 690l8 -22q0 -10 2.5 -20.5t-2.5 -24.5q-4 -9 -9 -16.5t-12 -11.5l-7 -4q-2 -2 -11 -2q-14 0 -29.5 10t-20.5 23l-6 23q-2 6 -3 12t1 13q10 25 37 42
q24 8 28 8q11 0 16.5 -9.5t7.5 -20.5zM767 454q7 -9 12 -18h-553q5 5 10 9t10 9h521zM797 287q-1 -5 -1.5 -9t-2.5 -8h-187q0 2 0.5 2.5l0.5 0.5q1 9 1.5 17.5t0.5 19.5h191q-1 -6 -1.5 -11.5t-1.5 -11.5zM319 298q-4 -8 -7 -15t-5 -13h-185q2 10 5.5 19.5t8.5 20.5h190
q-2 -2 -3.5 -5zM369 358q-18 -15 -33 -33h-193q4 8 9 16.5t10 16.5h207zM608 325q-2 18 -9 33h202q0 -8 0.5 -16.5t-0.5 -16.5h-193zM707 502q5 -3 9.5 -5.5t9.5 -5.5h-429q5 3 10 5.5t10 5.5h390z" />
    <glyph glyph-name="FL00D3h" unicode="&#xd3;" horiz-adv-x="721" 
d="M305 257q-3 -19 3 -40.5t18 -39.5t29 -30t37 -12h66q12 0 30.5 8.5t38 22.5t37 31.5t26.5 34.5q9 14 11 22l3 8h187q-12 -47 -43 -93.5t-74.5 -84t-96.5 -61t-108 -23.5h-100q-61 0 -112 11t-85.5 38.5t-50 74.5t-5.5 119q1 5 1.5 9.5t2.5 9.5h185v-5zM448 395
q-11 0 -23 -4t-24 -11h-224q5 7 10.5 13t10.5 13h594q2 -6 3.5 -12.5t3.5 -13.5h-218q-10 7 -22.5 11t-29.5 4h-81zM557 668l24 22q11 11 23 20.5t23 9.5t22 -8q17 -17 7 -42q-2 -7 -8 -13l-12 -12l-24 -23q-7 -6 -16.5 -12t-20 -10.5t-20.5 -7.5t-17 -3t-9 2l-3 4
q-5 5 -5 11q0 10 4 17q5 14 14.5 24.5t17.5 20.5zM767 454q7 -9 12 -18h-553q5 5 10 9t10 9h521zM797 287q-1 -5 -1.5 -9t-2.5 -8h-187q0 2 0.5 2.5l0.5 0.5q1 9 1.5 17.5t0.5 19.5h191q-1 -6 -1.5 -11.5t-1.5 -11.5zM319 298q-4 -8 -7 -15t-5 -13h-185q2 10 5.5 19.5
t8.5 20.5h190q-2 -2 -3.5 -5zM369 358q-18 -15 -33 -33h-193q4 8 9 16.5t10 16.5h207zM608 325q-2 18 -9 33h202q0 -8 0.5 -16.5t-0.5 -16.5h-193zM707 502q5 -3 9.5 -5.5t9.5 -5.5h-429q5 3 10 5.5t10 5.5h390z" />
    <glyph glyph-name="FL00D4h" unicode="&#xd4;" horiz-adv-x="721" 
d="M305 257q-3 -19 3 -40.5t18 -39.5t29 -30t37 -12h66q12 0 30.5 8.5t38 22.5t37 31.5t26.5 34.5q9 14 11 22l3 8h187q-12 -47 -43 -93.5t-74.5 -84t-96.5 -61t-108 -23.5h-100q-61 0 -112 11t-85.5 38.5t-50 74.5t-5.5 119q1 5 1.5 9.5t2.5 9.5h185v-5zM580 653l-59 -59
h-91l107 105q5 3 11.5 7.5t11.5 4.5h62q8 0 14.5 -8.5t10.5 -14.5l47 -94h-82zM448 395q-11 0 -23 -4t-24 -11h-224q5 7 10.5 13t10.5 13h594q2 -6 3.5 -12.5t3.5 -13.5h-218q-10 7 -22.5 11t-29.5 4h-81zM767 454q7 -9 12 -18h-553q5 5 10 9t10 9h521zM797 287
q-1 -5 -1.5 -9t-2.5 -8h-187q0 2 0.5 2.5l0.5 0.5q1 9 1.5 17.5t0.5 19.5h191q-1 -6 -1.5 -11.5t-1.5 -11.5zM319 298q-4 -8 -7 -15t-5 -13h-185q2 10 5.5 19.5t8.5 20.5h190q-2 -2 -3.5 -5zM369 358q-18 -15 -33 -33h-193q4 8 9 16.5t10 16.5h207zM608 325q-2 18 -9 33h202
q0 -8 0.5 -16.5t-0.5 -16.5h-193zM707 502q5 -3 9.5 -5.5t9.5 -5.5h-429q5 3 10 5.5t10 5.5h390z" />
    <glyph glyph-name="FL00D5h" unicode="&#xd5;" horiz-adv-x="721" 
d="M305 257q-3 -19 3 -40.5t18 -39.5t29 -30t37 -12h66q12 0 30.5 8.5t38 22.5t37 31.5t26.5 34.5q9 14 11 22l3 8h187q-12 -47 -43 -93.5t-74.5 -84t-96.5 -61t-108 -23.5h-100q-61 0 -112 11t-85.5 38.5t-50 74.5t-5.5 119q1 5 1.5 9.5t2.5 9.5h185v-5zM628 651l58 59h91
l-1.5 -2t-11.5 -12t-32 -31t-62 -60q-4 -3 -10.5 -7.5t-11.5 -4.5h-82l-33 59l-58 -59h-91l107 105q5 3 11 7.5t11 4.5h82zM792 406q2 -6 3.5 -12.5t3.5 -13.5h-218q-10 7 -22.5 11t-29.5 4h-81q-11 0 -23 -4t-24 -11h-224q5 7 10.5 13t10.5 13h594zM767 454q7 -9 12 -18
h-553q5 5 10 9t10 9h521zM797 287q-1 -5 -1.5 -9t-2.5 -8h-187q0 2 0.5 2.5l0.5 0.5q1 9 1.5 17.5t0.5 19.5h191q-1 -6 -1.5 -11.5t-1.5 -11.5zM122 270q2 10 5.5 19.5t8.5 20.5h190q-5 -7 -11 -19.5t-8 -20.5h-185zM143 325q4 8 9 16.5t10 16.5h207q-18 -15 -33 -33h-193z
M801 358q0 -8 0.5 -16.5t-0.5 -16.5h-193q-2 18 -9 33h202zM707 502q5 -3 9.5 -5.5t9.5 -5.5h-429q5 3 10 5.5t10 5.5h390z" />
    <glyph glyph-name="FL00D6h" unicode="&#xd6;" horiz-adv-x="721" 
d="M305 257q-3 -19 3 -40.5t18 -39.5t29 -30t37 -12h66q12 0 30.5 8.5t38 22.5t37 31.5t26.5 34.5q9 14 11 22l3 8h187q-12 -47 -43 -93.5t-74.5 -84t-96.5 -61t-108 -23.5h-100q-61 0 -112 11t-85.5 38.5t-50 74.5t-5.5 119q1 5 1.5 9.5t2.5 9.5h185v-5zM448 395
q-11 0 -23 -4t-24 -11h-224q5 7 10.5 13t10.5 13h594q2 -6 3.5 -12.5t3.5 -13.5h-218q-10 7 -22.5 11t-29.5 4h-81zM437 653q9 25 33 42t51 17t39.5 -17t3.5 -42t-34 -42t-52 -17t-38.5 17t-2.5 42zM745 653q-9 -25 -33.5 -42t-51.5 -17t-39 17t-3 42t33.5 42t51.5 17
t39 -17t3 -42zM767 454q7 -9 12 -18h-553q5 5 10 9t10 9h521zM797 287q-1 -5 -1.5 -9t-2.5 -8h-187q0 2 0.5 2.5l0.5 0.5q1 9 1.5 17.5t0.5 19.5h191q-1 -6 -1.5 -11.5t-1.5 -11.5zM319 298q-4 -8 -7 -15t-5 -13h-185q2 10 5.5 19.5t8.5 20.5h190q-2 -2 -3.5 -5zM369 358
q-18 -15 -33 -33h-193q4 8 9 16.5t10 16.5h207zM608 325q-2 18 -9 33h202q0 -8 0.5 -16.5t-0.5 -16.5h-193zM707 502q5 -3 9.5 -5.5t9.5 -5.5h-429q5 3 10 5.5t10 5.5h390z" />
    <glyph glyph-name="FL00D7h" unicode="&#xd7;" horiz-adv-x="399" 
d="M187 125h-124l169 137h125l69 -137h-124l-33 65zM309 358l13 -24l29 24h124l-40 -33h-235l-16 33h125zM228 270l-20 40h208l-49 -40h-139zM164 398h124l9 -18h-124zM378 380l23 18h124l-23 -18h-124z" />
    <glyph glyph-name="FL00D8h" unicode="&#xd8;" horiz-adv-x="721" 
d="M305 257q-2 -11 -1 -22.5t4 -22.5l71 50h137l-161 -115q16 -12 37 -12h66q12 0 30.5 8.5t38 22.5t37 31.5t26.5 34.5q9 14 11 22l3 8h187q-12 -47 -43 -93.5t-74.5 -84t-96.5 -61t-108 -23.5h-100q-61 0 -112 11t-85.5 38.5t-50 74.5t-5.5 119q1 5 1.5 9.5t2.5 9.5h185
v-5zM792 406q2 -6 3.5 -12.5t3.5 -13.5h-252l14 10q-11 2 -19 3.5t-13 1.5h-81q-11 0 -23 -4t-24 -11h-224q5 7 10.5 13t10.5 13h594zM801 358q0 -8 0.5 -16.5t-0.5 -16.5h-194v2l-3 -2h-135l46 33h286zM767 454q7 -9 12 -18h-553q5 5 10 9t10 9h521zM607 273q1 9 1.5 18
t-0.5 19h192q-1 -6 -1.5 -11.5t-1.5 -11.5q-1 -5 -1.5 -9t-2.5 -8h-187q0 2 0.5 2.5zM122 270q2 10 5.5 19.5t8.5 20.5h190q-5 -7 -11 -19.5t-8 -20.5h-185zM143 325q4 8 9 16.5t10 16.5h207q-18 -15 -33 -33h-193zM527 270h-137l57 40h136zM707 502q5 -3 9.5 -5.5t9.5 -5.5
h-429q5 3 10 5.5t10 5.5h390z" />
    <glyph glyph-name="FL00D9h" unicode="&#xd9;" horiz-adv-x="682" 
d="M113 196q3 17 7 32.5t9 33.5h190q-3 -11 -3.5 -15t-0.5 -6q-7 -48 6.5 -77t50.5 -29h49q24 0 44.5 10t36.5 25t28 32t19 31l10 29h190q-24 -64 -49.5 -113t-57.5 -82t-74.5 -50t-99.5 -17h-117q-140 0 -199 44.5t-39 151.5zM603 689l8 -22q0 -10 2 -20.5t-3 -24.5
q-3 -9 -8 -16.5t-13 -11.5l-6 -4l-7.5 -1.5t-3.5 -0.5q-14 0 -29.5 10t-20.5 23l-7 23q-2 6 -3 12t1 13q10 25 38 42q24 8 28 8q11 0 16 -9.5t8 -20.5zM142 308v2h193q-5 -13 -8 -23t-5 -17h-190q2 8 4.5 17.5t5.5 20.5zM757 283q-2 -4 -3 -7l-2 -6h-190l15 40h190zM351 358
q-7 -18 -11 -33h-192l12 33h191zM582 325l12 33h190l-12 -33h-190zM367 406q-2 -7 -4.5 -13.5t-4.5 -12.5h-190l9 26h190zM602 380l10 26h190l-10 -26h-190zM623 436l6 18h190l-6 -18h-190zM187 436l7 18h189q-2 -5 -3 -9t-3 -9h-190zM643 491l4 11h190l-4 -11h-190z
M400 502l-2 -6t-2 -5h-189l4 11h189z" />
    <glyph glyph-name="FL00DAh" unicode="&#xda;" horiz-adv-x="682" 
d="M113 196q3 17 7 32.5t9 33.5h190q-3 -11 -3.5 -15t-0.5 -6q-7 -48 6.5 -77t50.5 -29h49q24 0 44.5 10t36.5 25t28 32t19 31l10 29h190q-24 -64 -49.5 -113t-57.5 -82t-74.5 -50t-99.5 -17h-117q-140 0 -199 44.5t-39 151.5zM544 667l24 22q11 11 23 20.5t23 9.5t22 -8
q16 -17 6 -42q-2 -7 -8 -13l-12 -12l-23 -23q-7 -6 -16.5 -12t-20 -10.5t-20.5 -7.5t-17 -3q-9 0 -9 2l-4 4q-5 4 -4.5 11.5t3.5 16.5q5 14 15 24.5t18 20.5zM142 308v2h193q-5 -13 -8 -23t-5 -17h-190q2 8 4.5 17.5t5.5 20.5zM757 283q-2 -4 -3 -7l-2 -6h-190l15 40h190z
M351 358q-7 -18 -11 -33h-192l12 33h191zM582 325l12 33h190l-12 -33h-190zM367 406q-2 -7 -4.5 -13.5t-4.5 -12.5h-190l9 26h190zM602 380l10 26h190l-10 -26h-190zM623 436l6 18h190l-6 -18h-190zM187 436l7 18h189q-2 -5 -3 -9t-3 -9h-190zM643 491l4 11h190l-4 -11h-190
zM400 502l-2 -6t-2 -5h-189l4 11h189z" />
    <glyph glyph-name="FL00DBh" unicode="&#xdb;" horiz-adv-x="682" 
d="M113 196q3 17 7 32.5t9 33.5h190q-3 -11 -3.5 -15t-0.5 -6q-7 -48 6.5 -77t50.5 -29h49q24 0 44.5 10t36.5 25t28 32t19 31l10 29h190q-24 -64 -49.5 -113t-57.5 -82t-74.5 -50t-99.5 -17h-117q-140 0 -199 44.5t-39 151.5zM563 653l-58 -59h-91l107 105q5 3 11 7.5
t11 4.5h62q8 0 15 -8.5t11 -14.5l47 -94h-82zM142 308v2h193q-5 -13 -8 -23t-5 -17h-190q2 8 4.5 17.5t5.5 20.5zM757 283q-2 -4 -3 -7l-2 -6h-190l15 40h190zM351 358q-7 -18 -11 -33h-192l12 33h191zM582 325l12 33h190l-12 -33h-190zM367 406q-2 -7 -4.5 -13.5
t-4.5 -12.5h-190l9 26h190zM602 380l10 26h190l-10 -26h-190zM623 436l6 18h190l-6 -18h-190zM187 436l7 18h189q-2 -5 -3 -9t-3 -9h-190zM643 491l4 11h190l-4 -11h-190zM400 502l-2 -6t-2 -5h-189l4 11h189z" />
    <glyph glyph-name="FL00DCh" unicode="&#xdc;" horiz-adv-x="682" 
d="M113 196q3 17 7 32.5t9 33.5h190q-3 -11 -3.5 -15t-0.5 -6q-7 -48 6.5 -77t50.5 -29h49q24 0 44.5 10t36.5 25t28 32t19 31l10 29h190q-24 -64 -49.5 -113t-57.5 -82t-74.5 -50t-99.5 -17h-117q-140 0 -199 44.5t-39 151.5zM730 652q-9 -25 -33 -42t-51 -17t-39.5 17
t-3.5 42t34 42t52 17t38.5 -17t2.5 -42zM422 652q9 25 33.5 42t51.5 17t39 -17t3 -42t-33.5 -42t-51.5 -17t-39 17t-3 42zM142 308v2h193q-5 -13 -8 -23t-5 -17h-190q2 8 4.5 17.5t5.5 20.5zM757 283q-2 -4 -3 -7l-2 -6h-190l15 40h190zM351 358q-7 -18 -11 -33h-192l12 33
h191zM582 325l12 33h190l-12 -33h-190zM367 406q-2 -7 -4.5 -13.5t-4.5 -12.5h-190l9 26h190zM602 380l10 26h190l-10 -26h-190zM623 436l6 18h190l-6 -18h-190zM187 436l7 18h189q-2 -5 -3 -9t-3 -9h-190zM643 491l4 11h190l-4 -11h-190zM400 502l-2 -6t-2 -5h-189l4 11
h189z" />
    <glyph glyph-name="FL00DDh" unicode="&#xdd;" horiz-adv-x="656" 
d="M324 252l-4 10h207l-11 -10l-92 -252h-192zM294 325l-13 33h355l-37 -33h-305zM474 406l1 -1l1 1h215l-30 -26h-389l-11 26h213zM534 667l24 22q11 11 23 20.5t23 9.5t22 -8q16 -17 6 -42q-2 -7 -8 -13l-12 -12l-23 -23q-7 -6 -16.5 -12t-20 -10.5t-20.5 -7.5t-17 -3
q-9 0 -9 2l-4 4q-5 4 -4.5 11.5t3.5 16.5q5 14 15 24.5t18 20.5zM316 270l-16 40h282l-46 -40h-220zM510 436l20 18h215l-20 -18h-215zM249 436l-7 18h213l7 -18h-213zM572 491l13 11h214l-12 -11h-215zM227 491l-5 11h214l4 -11h-213z" />
    <glyph glyph-name="FL00DEh" unicode="&#xde;" horiz-adv-x="680" 
d="M28 0l95 262h192l-43 -120l96 85h160q1 0 4.5 4.5t7.5 10.5t7 11.5t4 8.5h192q-5 -38 -26.5 -69t-51.5 -53.5t-65 -35t-66 -12.5h-281l-33 -92h-192zM727 358q8 -20 11 -33h-592l12 33h569zM327 294l-9 -24h-192l15 40h601q2 -10 2 -15q0 -8 1 -12q0 -10 -1 -13h-192v2
q-3 5 -10.5 13.5t-9.5 8.5h-205zM697 406q6 -6 10.5 -12.5t9.5 -13.5h-551l10 26h521zM187 436l6 18h192l-6 -18h-192zM207 491l4 11h192l-4 -11h-192z" />
    <glyph glyph-name="FL00DFh" unicode="&#xdf;" horiz-adv-x="671" 
d="M697 262q-9 -5 -11 -6q4 -8 14 -19t11 -31q0 -14 -5.5 -32.5t-10.5 -31.5l-4 -11q-15 -35 -29.5 -60t-37.5 -40.5t-59.5 -23t-95.5 -7.5h-229q26 38 50 72.5t52 63.5h114l5 2.5t11 6l12 7t9 6.5l1.5 2t2.5 3l2 5q2 3 2.5 10t0.5 14h-146l80 70h261zM-23 -141l146 403h192
l-146 -403h-192zM166 380l7 18q1 1 2 3t3 5h583q1 -6 1.5 -12t0.5 -11v-2v-1h-199q-4 5 -8 9.5t-6 4.5h-187l-5 -14h-192zM741 310q-13 -23 -33 -40h-263l45 40h251zM198 436q3 5 6.5 9t6.5 9h538q4 -9 5 -18h-556zM126 270l15 40h191l-14 -40h-192zM760 358q-3 -15 -11 -33
h-242l3 2h36q1 0 9.5 11.5t12.5 19.5h192zM146 325l12 33h192l-12 -33h-192zM241 491l5 5t5 6h469q2 -3 4.5 -5.5t4.5 -5.5h-488z" />
    <glyph glyph-name="FL00E0h" unicode="&#xe0;" 
d="M559 0l-21 113q-2 -6 -14.5 -23t-28 -36t-30.5 -35t-22 -19h-423q1 5 1.5 7t0.5 0v3l197 252h204l-88 -118v-10h203l-20 128h178l41 -262h-178zM601 665q0 -10 2.5 -20.5t-2.5 -24.5q-4 -9 -9 -16.5t-13 -11.5l-6 -4q-2 -2 -11 -2q-14 0 -29.5 10t-20.5 23l-6 23
q-2 6 -3.5 12t1.5 13q10 25 37 42q24 8 28 8q11 0 16.5 -9.5t7.5 -20.5zM311 380l21 26h342l4 -26h-367zM225 270l32 40h202l-30 -40h-204zM517 270l-6 40h178l6 -40h-178zM268 325l26 33h200l-24 -33h-202zM509 325l-5 33h178l5 -33h-178zM665 454q1 -6 2 -10.5t2 -7.5
h-314l14 18h296zM648 502q3 -5 5 -11h-255q3 2 5.5 5t5.5 6h239z" />
    <glyph glyph-name="FL00E1h" unicode="&#xe1;" 
d="M559 0l-21 113q-2 -6 -14.5 -23t-28 -36t-30.5 -35t-22 -19h-423q1 5 1.5 7t0.5 0v3l197 252h204l-88 -118v-10h203l-20 128h178l41 -262h-178zM535 666l24 22q11 11 23 20.5t23 9.5t22 -8q17 -17 7 -42q-2 -7 -8 -13l-12 -12l-23 -23q-14 -13 -37 -23t-37 -10
q-8 0 -10 2l-3 4q-5 4 -4.5 11.5t3.5 16.5q5 14 15 24.5t17 20.5zM311 380l21 26h342l4 -26h-367zM225 270l32 40h202l-30 -40h-204zM517 270l-6 40h178l6 -40h-178zM268 325l26 33h200l-24 -33h-202zM509 325l-5 33h178l5 -33h-178zM665 454q1 -6 2 -10.5t2 -7.5h-314
l14 18h296zM648 502q3 -5 5 -11h-255q3 2 5.5 5t5.5 6h239z" />
    <glyph glyph-name="FL00E2h" unicode="&#xe2;" 
d="M559 0l-21 113q-2 -6 -14.5 -23t-28 -36t-30.5 -35t-22 -19h-423q1 5 1.5 7t0.5 0v3l197 252h204l-88 -118v-10h203l-20 128h178l41 -262h-178zM567 652l-57 -59q-92 -1 -91 0l107 105q5 3 10.5 7.5t10.5 4.5h62q8 0 15.5 -8.5t11.5 -14.5l47 -94h-82zM311 380l21 26h342
l4 -26h-367zM225 270l32 40h202l-30 -40h-204zM517 270l-6 40h178l6 -40h-178zM268 325l26 33h200l-24 -33h-202zM509 325l-5 33h178l5 -33h-178zM665 454q1 -6 2 -10.5t2 -7.5h-314l14 18h296zM648 502q3 -5 5 -11h-255q3 2 5.5 5t5.5 6h239z" />
    <glyph glyph-name="FL00E3h" unicode="&#xe3;" 
d="M559 0l-21 113q-2 -6 -14.5 -23t-28 -36t-30.5 -35t-22 -19h-423q1 5 1.5 7t0.5 0v3l197 252h204l-88 -118v-10h203l-20 128h178l41 -262h-178zM633 651l58 59h91l-1.5 -2t-11.5 -12t-32 -31t-62 -60q-4 -3 -10.5 -7.5t-11.5 -4.5h-82l-33 59l-58 -59h-91l107 105
q5 3 11 7.5t11 4.5h82zM311 380l21 26h342l4 -26h-367zM225 270l32 40h202l-30 -40h-204zM517 270l-6 40h178l6 -40h-178zM268 325l26 33h200l-24 -33h-202zM509 325l-5 33h178l5 -33h-178zM665 454q1 -6 2 -10.5t2 -7.5h-314l14 18h296zM648 502q3 -5 5 -11h-255q3 2 5.5 5
t5.5 6h239z" />
    <glyph glyph-name="FL00E4h" unicode="&#xe4;" 
d="M559 0l-21 113q-2 -6 -14.5 -23t-28 -36t-30.5 -35t-22 -19h-423q1 5 1.5 7t0.5 0v3l197 252h204l-88 -118v-10h203l-20 128h178l41 -262h-178zM419 653q9 25 33 42t51 17t39.5 -17t3.5 -42t-34 -42t-52 -17t-38.5 17t-2.5 42zM727 653q-9 -25 -33.5 -42t-51.5 -17
t-39 17t-3 42t33.5 42t51.5 17t39 -17t3 -42zM311 380l21 26h342l4 -26h-367zM225 270l32 40h202l-30 -40h-204zM517 270l-6 40h178l6 -40h-178zM268 325l26 33h200l-24 -33h-202zM509 325l-5 33h178l5 -33h-178zM665 454q1 -6 2 -10.5t2 -7.5h-314l14 18h296zM648 502
q3 -5 5 -11h-255q3 2 5.5 5t5.5 6h239z" />
    <glyph glyph-name="FL00E5h" unicode="&#xe5;" 
d="M559 0l-21 113q-2 -6 -14.5 -23t-28 -36t-30.5 -35t-22 -19h-423q1 5 1.5 7t0.5 0v3l197 252h204l-88 -118v-10h203l-20 128h178l41 -262h-178zM511 653q9 25 33 42t51 17t39.5 -17t3.5 -42t-34 -42t-52 -17t-38.5 17t-2.5 42zM311 380l21 26h342l4 -26h-367zM225 270
l32 40h202l-30 -40h-204zM517 270l-6 40h178l6 -40h-178zM268 325l26 33h200l-24 -33h-202zM509 325l-5 33h178l5 -33h-178zM665 454q1 -6 2 -10.5t2 -7.5h-314l14 18h296zM648 502q3 -5 5 -11h-255q3 2 5.5 5t5.5 6h239z" />
    <glyph glyph-name="FL00E6h" unicode="&#xe6;" horiz-adv-x="1163" 
d="M335 144v-10h203l-20 128h329l-8 -24l25 24h229l-71 -67h-199l-22 -60h383q-1 -2 -5 -8.5t-8 -13.5t-8 -13t-5 -7q-9 -12 -24.5 -28t-30.5 -30.5t-26.5 -24.5t-12.5 -10h-505l-21 113q-2 -6 -14.5 -23t-28 -36t-30.5 -35t-22 -19h-423q1 5 1.5 7t0.5 0v3l197 252h204z
M517 270l-6 40h354l-15 -40h-333zM682 358l3 -18l6 18h191l-12 -33h-361l-5 33h178zM1269 454q-8 -11 -15 -18h-534l6 18h543zM311 380l21 26h342l4 -26h-367zM872 270l41 40h231l-43 -40h-229zM896 395l-6 -15h-191l10 26h515q-14 -11 -20 -11h-308zM225 270l32 40h202
l-30 -40h-204zM268 325l26 33h200l-24 -33h-202zM1306 502q-2 -3 -3.5 -6t-3.5 -5h-559l4 11h562zM666 454q2 -5 2.5 -9.5t1.5 -8.5h-315l14 18h297zM649 502q3 -5 5 -11h-256q3 2 5.5 5t5.5 6h240zM1165 330l-6 -5h-230l5 5h231z" />
    <glyph glyph-name="FL00E7h" unicode="&#xe7;" horiz-adv-x="631" 
d="M108 -116l122 92h53l16 44q-37 11 -68.5 29t-54.5 45t-36 64t-13 85v9q0 7 1 10h185v-5q0 -19 10 -40.5t25.5 -39.5t34 -30t35.5 -12h239q-23 -34 -52 -69.5t-67 -65.5h-115q-10 0 -12 1l-42 -117h-261zM206 436q4 5 8 9l9 9h515q-4 -5 -8 -9t-8 -9h-516zM166 380
q4 6 7.5 12.5t8.5 13.5h509q-2 -2 -5.5 -5t-7.5 -6h-260q-22 0 -41 -15h-211zM129 270q1 10 3 19.5t5 20.5h188l-2 -6l-2 -6q-2 -8 -4 -15t-3 -13h-185zM141 325q3 8 6.5 16.5t7.5 16.5h199q-6 -8 -11.5 -16t-10.5 -17h-191zM267 491q5 3 9 5.5t9 5.5h494q-3 -4 -5 -6.5
t-4 -4.5h-503z" />
    <glyph glyph-name="FL00E8h" unicode="&#xe8;" horiz-adv-x="625" 
d="M28 0l95 262h191l-8 -24l24 24h230l-71 -67h-199l-22 -60h383q-1 -2 -5 -8.5t-8 -13.5t-8 -13t-5 -7q-9 -12 -24.5 -28t-30.5 -30.5t-26.5 -24.5t-12.5 -10h-503zM550 692l8 -22q0 -10 2 -20.5t-3 -24.5q-3 -9 -8 -16.5t-13 -11.5l-6 -4l-7.5 -1.5t-3.5 -0.5
q-14 0 -29.5 10t-20.5 23l-7 23q-2 6 -3 12t2 13q8 26 37 42q24 8 28 8q11 0 16 -9.5t8 -20.5zM736 454q-8 -11 -15 -18h-534l6 18h543zM339 270l41 40h231l-43 -40h-229zM363 395l-6 -15h-191l10 26h515q-14 -11 -20 -11h-308zM126 270l15 40h191l-15 -40h-191zM146 325
l12 33h191l-12 -33h-191zM773 502q-2 -3 -3.5 -6t-3.5 -5h-559l4 11h562zM632 330l-6 -5h-230l5 5h231z" />
    <glyph glyph-name="FL00E9h" unicode="&#xe9;" horiz-adv-x="625" 
d="M28 0l95 262h191l-8 -24l25 24h229l-71 -67h-199l-22 -60h383q-1 -2 -5 -8.5t-8 -13.5t-8 -13t-5 -7q-9 -12 -24.5 -28t-30.5 -30.5t-26.5 -24.5t-12.5 -10h-503zM493 671l24 22q11 11 23 20.5t23 9.5t22 -8q17 -17 7 -42q-2 -7 -8 -13l-12 -12l-24 -23q-7 -6 -16.5 -12
t-20 -10.5t-20.5 -7.5t-17 -3t-9 2l-3 4q-5 5 -5 11q0 10 4 17q5 14 14.5 24.5t17.5 20.5zM736 454q-8 -11 -15 -18h-534l6 18h543zM339 270l41 40h231l-43 -40h-229zM363 395l-6 -15h-191l10 26h515q-14 -11 -20 -11h-308zM126 270l15 40h191l-15 -40h-191zM146 325l12 33
h191l-12 -33h-191zM773 502q-2 -3 -3.5 -6t-3.5 -5h-559l4 11h562zM632 330l-6 -5h-230l5 5h231z" />
    <glyph glyph-name="FL00EAh" unicode="&#xea;" horiz-adv-x="625" 
d="M28 0l95 262h191l-8 -24l25 24h229l-71 -67h-199l-22 -60h383q-1 -2 -5 -8.5t-8 -13.5t-8 -13t-5 -7q-9 -12 -24.5 -28t-30.5 -30.5t-26.5 -24.5t-12.5 -10h-503zM528 655l-59 -59h-91l107 105q5 3 11.5 7.5t11.5 4.5h62q8 0 14.5 -8.5t10.5 -14.5l47 -94h-82zM736 454
q-8 -11 -15 -18h-534l6 18h543zM339 270l41 40h231l-43 -40h-229zM363 395l-6 -15h-191l10 26h515q-14 -11 -20 -11h-308zM126 270l15 40h191l-15 -40h-191zM146 325l12 33h191l-12 -33h-191zM773 502q-2 -3 -3.5 -6t-3.5 -5h-559l4 11h562zM632 330l-6 -5h-230l5 5h231z
" />
    <glyph glyph-name="FL00EBh" unicode="&#xeb;" horiz-adv-x="625" 
d="M28 0l95 262h191l-8 -24l25 24h229l-71 -67h-199l-22 -60h383q-1 -2 -5 -8.5t-8 -13.5t-8 -13t-5 -7q-9 -12 -24.5 -28t-30.5 -30.5t-26.5 -24.5t-12.5 -10h-503zM391 653q9 25 33 42t51 17t39.5 -17t3.5 -42t-34 -42t-52 -17t-38.5 17t-2.5 42zM699 653
q-9 -25 -33.5 -42t-51.5 -17t-39 17t-3 42t33.5 42t51.5 17t39 -17t3 -42zM736 454q-8 -11 -15 -18h-534l6 18h543zM339 270l41 40h231l-43 -40h-229zM363 395l-6 -15h-191l10 26h515q-14 -11 -20 -11h-308zM126 270l15 40h191l-15 -40h-191zM146 325l12 33h191l-12 -33
h-191zM773 502q-2 -3 -3.5 -6t-3.5 -5h-559l4 11h562zM632 330l-6 -5h-230l5 5h231z" />
    <glyph glyph-name="FL00ECh" unicode="&#xec;" horiz-adv-x="248" 
d="M220 0h-192l95 262h192zM392 666q1 -10 3 -20.5t-3 -24.5q-3 -9 -8 -16.5t-13 -11.5l-7 -4q-2 -2 -10 -2q-14 0 -30 10t-20 23l-7 23q-2 6 -3 12t1 13q10 25 37 42q24 8 28 8q11 0 16.5 -9.5t7.5 -20.5zM126 270l15 40h192l-15 -40h-192zM146 325l12 33h192l-12 -33h-192
zM166 380l10 26h192l-10 -26h-192zM187 436l6 18h192l-6 -18h-192zM207 491l4 11h192l-4 -11h-192z" />
    <glyph glyph-name="FL00EDh" unicode="&#xed;" horiz-adv-x="248" 
d="M220 0h-192l95 262h192zM324 668l24 22q11 11 23 20.5t23 9.5t22 -8q17 -17 7 -42q-2 -7 -8 -13l-12 -12l-24 -23q-7 -6 -16.5 -12t-20 -10.5t-20.5 -7.5t-17 -3t-9 2l-3 4q-5 5 -5 11q0 10 4 17q5 14 14.5 24.5t17.5 20.5zM126 270l15 40h192l-15 -40h-192zM146 325
l12 33h192l-12 -33h-192zM166 380l10 26h192l-10 -26h-192zM187 436l6 18h192l-6 -18h-192zM207 491l4 11h192l-4 -11h-192z" />
    <glyph glyph-name="FL00EEh" unicode="&#xee;" horiz-adv-x="248" 
d="M220 0h-192l95 262h192zM358 654l-58 -59h-91l107 105q4 3 10.5 7.5t11.5 4.5h62q8 0 15 -8.5t11 -14.5l47 -94h-82zM126 270l15 40h192l-15 -40h-192zM146 325l12 33h192l-12 -33h-192zM166 380l10 26h192l-10 -26h-192zM187 436l6 18h192l-6 -18h-192zM207 491l4 11
h192l-4 -11h-192z" />
    <glyph glyph-name="FL00EFh" unicode="&#xef;" horiz-adv-x="248" 
d="M220 0h-192l95 262h192zM210 653q9 25 33 42t51 17t39.5 -17t3.5 -42t-34 -42t-52 -17t-38.5 17t-2.5 42zM518 653q-9 -25 -33.5 -42t-51.5 -17t-39 17t-3 42t33.5 42t51.5 17t39 -17t3 -42zM126 270l15 40h192l-15 -40h-192zM146 325l12 33h192l-12 -33h-192zM166 380
l10 26h192l-10 -26h-192zM187 436l6 18h192l-6 -18h-192zM207 491l4 11h192l-4 -11h-192z" />
    <glyph glyph-name="FL00F0h" unicode="&#xf0;" horiz-adv-x="646" 
d="M99 195q18 38 44 67h560q-3 -5 -6.5 -9.5t-6.5 -9.5q-52 -72 -115 -119t-129.5 -74.5t-134 -38.5t-128.5 -11q-37 0 -59.5 17t-32.5 45t-7.5 63t15.5 70zM730 310q-5 -11 -10.5 -20.5t-11.5 -19.5h-556q12 12 26 22t30 18h522zM748 454q2 -5 2.5 -9t1.5 -9h-516
q-1 5 -2 9t-2 9h516zM754 406q-1 -5 -1 -13q0 -3 -0.5 -6t-1.5 -7h-210q-11 15 -30 15h-260q-3 3 -5 11h508zM330 203q-22 -3 -31.5 -11.5t-20.5 -17.5l-3 -38h58q23 0 54.5 21t65.5 46h-123zM747 358q-2 -8 -5 -16.5t-6 -16.5h-486q6 2 11.5 2.5t11.5 2.5h272q2 10 2 14v14
h200zM720 502q8 -8 10 -11h-503v11h493z" />
    <glyph glyph-name="FL00F1h" unicode="&#xf1;" horiz-adv-x="654" 
d="M384 0l-49 262h179l6 -30l11 30h190l-95 -262h-242zM220 0h-192l95 262h192zM592 651l58 59h91l-1.5 -2t-11.5 -12t-32 -31t-62 -60q-4 -3 -10.5 -7.5t-11.5 -4.5h-82l-33 59l-58 -59h-91l107 105q5 3 11 7.5t11 4.5h82zM328 298l-10 -28h-192l15 40h364l7 -40h-179z
M146 325l12 33h337l7 -33h-356zM166 380l10 26h310l5 -26h-325zM534 270l14 40h191l-15 -40h-190zM554 325l12 33h190l-12 -33h-190zM187 436l6 18h284l4 -18h-294zM574 380l9 26h191l-10 -26h-190zM594 436l7 18h190l-6 -18h-191zM207 491l4 11h257l2 -11h-263zM614 491
l4 11h191l-4 -11h-191z" />
    <glyph glyph-name="FL00F2h" unicode="&#xf2;" horiz-adv-x="721" 
d="M305 257q-3 -19 3 -40.5t18 -39.5t29 -30t37 -12h66q12 0 30.5 8.5t38 22.5t37 31.5t26.5 34.5q9 14 11 22l3 8h187q-12 -47 -43 -93.5t-74.5 -84t-96.5 -61t-108 -23.5h-100q-61 0 -112 11t-85.5 38.5t-50 74.5t-5.5 119q1 5 1.5 9.5t2.5 9.5h185v-5zM448 395
q-11 0 -23 -4t-24 -11h-224q5 7 10.5 13t10.5 13h594q2 -6 3.5 -12.5t3.5 -13.5h-218q-10 7 -22.5 11t-29.5 4h-81zM621 690l8 -22q0 -10 2.5 -20.5t-2.5 -24.5q-4 -9 -9 -16.5t-12 -11.5l-7 -4q-2 -2 -11 -2q-14 0 -29.5 10t-20.5 23l-6 23q-2 6 -3 12t1 13q10 25 37 42
q24 8 28 8q11 0 16.5 -9.5t7.5 -20.5zM767 454q7 -9 12 -18h-553q5 5 10 9t10 9h521zM797 287q-1 -5 -1.5 -9t-2.5 -8h-187q0 2 0.5 2.5l0.5 0.5q1 9 1.5 17.5t0.5 19.5h191q-1 -6 -1.5 -11.5t-1.5 -11.5zM319 298q-4 -8 -7 -15t-5 -13h-185q2 10 5.5 19.5t8.5 20.5h190
q-2 -2 -3.5 -5zM369 358q-18 -15 -33 -33h-193q4 8 9 16.5t10 16.5h207zM608 325q-2 18 -9 33h202q0 -8 0.5 -16.5t-0.5 -16.5h-193zM707 502q5 -3 9.5 -5.5t9.5 -5.5h-429q5 3 10 5.5t10 5.5h390z" />
    <glyph glyph-name="FL00F3h" unicode="&#xf3;" horiz-adv-x="721" 
d="M305 257q-3 -19 3 -40.5t18 -39.5t29 -30t37 -12h66q12 0 30.5 8.5t38 22.5t37 31.5t26.5 34.5q9 14 11 22l3 8h187q-12 -47 -43 -93.5t-74.5 -84t-96.5 -61t-108 -23.5h-100q-61 0 -112 11t-85.5 38.5t-50 74.5t-5.5 119q1 5 1.5 9.5t2.5 9.5h185v-5zM448 395
q-11 0 -23 -4t-24 -11h-224q5 7 10.5 13t10.5 13h594q2 -6 3.5 -12.5t3.5 -13.5h-218q-10 7 -22.5 11t-29.5 4h-81zM557 668l24 22q11 11 23 20.5t23 9.5t22 -8q17 -17 7 -42q-2 -7 -8 -13l-12 -12l-24 -23q-7 -6 -16.5 -12t-20 -10.5t-20.5 -7.5t-17 -3t-9 2l-3 4
q-5 5 -5 11q0 10 4 17q5 14 14.5 24.5t17.5 20.5zM767 454q7 -9 12 -18h-553q5 5 10 9t10 9h521zM797 287q-1 -5 -1.5 -9t-2.5 -8h-187q0 2 0.5 2.5l0.5 0.5q1 9 1.5 17.5t0.5 19.5h191q-1 -6 -1.5 -11.5t-1.5 -11.5zM319 298q-4 -8 -7 -15t-5 -13h-185q2 10 5.5 19.5
t8.5 20.5h190q-2 -2 -3.5 -5zM369 358q-18 -15 -33 -33h-193q4 8 9 16.5t10 16.5h207zM608 325q-2 18 -9 33h202q0 -8 0.5 -16.5t-0.5 -16.5h-193zM707 502q5 -3 9.5 -5.5t9.5 -5.5h-429q5 3 10 5.5t10 5.5h390z" />
    <glyph glyph-name="FL00F4h" unicode="&#xf4;" horiz-adv-x="721" 
d="M305 257q-3 -19 3 -40.5t18 -39.5t29 -30t37 -12h66q12 0 30.5 8.5t38 22.5t37 31.5t26.5 34.5q9 14 11 22l3 8h187q-12 -47 -43 -93.5t-74.5 -84t-96.5 -61t-108 -23.5h-100q-61 0 -112 11t-85.5 38.5t-50 74.5t-5.5 119q1 5 1.5 9.5t2.5 9.5h185v-5zM580 653l-59 -59
h-91l107 105q5 3 11.5 7.5t11.5 4.5h62q8 0 14.5 -8.5t10.5 -14.5l47 -94h-82zM448 395q-11 0 -23 -4t-24 -11h-224q5 7 10.5 13t10.5 13h594q2 -6 3.5 -12.5t3.5 -13.5h-218q-10 7 -22.5 11t-29.5 4h-81zM767 454q7 -9 12 -18h-553q5 5 10 9t10 9h521zM797 287
q-1 -5 -1.5 -9t-2.5 -8h-187q0 2 0.5 2.5l0.5 0.5q1 9 1.5 17.5t0.5 19.5h191q-1 -6 -1.5 -11.5t-1.5 -11.5zM319 298q-4 -8 -7 -15t-5 -13h-185q2 10 5.5 19.5t8.5 20.5h190q-2 -2 -3.5 -5zM369 358q-18 -15 -33 -33h-193q4 8 9 16.5t10 16.5h207zM608 325q-2 18 -9 33h202
q0 -8 0.5 -16.5t-0.5 -16.5h-193zM707 502q5 -3 9.5 -5.5t9.5 -5.5h-429q5 3 10 5.5t10 5.5h390z" />
    <glyph glyph-name="FL00F5h" unicode="&#xf5;" horiz-adv-x="721" 
d="M305 257q-1 -1 -1 -7v-6q0 -18 7 -37.5t19 -35.5t28 -26t34 -10h66q12 0 30.5 8.5t38 22.5t37 31.5t26.5 34.5q9 14 11 22l3 8h187q-12 -47 -43 -93.5t-74.5 -84t-96.5 -61t-108 -23.5h-100q-56 0 -103 9t-81 31t-53.5 59t-19.5 93q0 33 4 48v3q1 5 1.5 9.5t2.5 9.5h185
v-5zM628 651l58 59h91l-1.5 -2t-11.5 -12t-32 -31t-62 -60q-4 -3 -10.5 -7.5t-11.5 -4.5h-82l-33 59l-58 -59h-91l107 105q5 3 11 7.5t11 4.5h82zM792 406q2 -5 3.5 -11.5t3.5 -14.5h-217q-9 7 -22 11t-31 4h-81q-11 0 -23 -4t-24 -11h-224q5 7 10.5 13t10.5 13h594z
M768 454l12 -18h-554q5 5 10 9t10 9h522zM797 287q-1 -5 -1.5 -9t-2.5 -8h-187q0 2 0.5 2.5l0.5 0.5q1 8 1.5 16.5t0.5 17.5v3h191q-1 -6 -1.5 -11.5t-1.5 -11.5zM122 270q2 10 5.5 19.5t8.5 20.5h190q-5 -7 -11 -19.5t-8 -20.5h-185zM143 325q4 8 9 16.5t10 16.5h207
q-18 -15 -33 -33h-193zM802 342v-9q0 -5 -1 -8h-193q-2 18 -9 33h202q1 -3 1 -8v-8zM706 502q5 -3 10 -5.5t10 -5.5h-429q5 3 10 5.5t10 5.5h389z" />
    <glyph glyph-name="FL00F6h" unicode="&#xf6;" horiz-adv-x="721" 
d="M305 257q-3 -19 3 -40.5t18 -39.5t29 -30t37 -12h66q12 0 30.5 8.5t38 22.5t37 31.5t26.5 34.5q9 14 11 22l3 8h187q-12 -47 -43 -93.5t-74.5 -84t-96.5 -61t-108 -23.5h-100q-61 0 -112 11t-85.5 38.5t-50 74.5t-5.5 119q1 5 1.5 9.5t2.5 9.5h185v-5zM448 395
q-11 0 -23 -4t-24 -11h-224q5 7 10.5 13t10.5 13h594q2 -6 3.5 -12.5t3.5 -13.5h-218q-10 7 -22.5 11t-29.5 4h-81zM437 653q9 25 33 42t51 17t39.5 -17t3.5 -42t-34 -42t-52 -17t-38.5 17t-2.5 42zM745 653q-9 -25 -33.5 -42t-51.5 -17t-39 17t-3 42t33.5 42t51.5 17
t39 -17t3 -42zM767 454q7 -9 12 -18h-553q5 5 10 9t10 9h521zM797 287q-1 -5 -1.5 -9t-2.5 -8h-187q0 2 0.5 2.5l0.5 0.5q1 9 1.5 17.5t0.5 19.5h191q-1 -6 -1.5 -11.5t-1.5 -11.5zM319 298q-4 -8 -7 -15t-5 -13h-185q2 10 5.5 19.5t8.5 20.5h190q-2 -2 -3.5 -5zM369 358
q-18 -15 -33 -33h-193q4 8 9 16.5t10 16.5h207zM608 325q-2 18 -9 33h202q0 -8 0.5 -16.5t-0.5 -16.5h-193zM707 502q5 -3 9.5 -5.5t9.5 -5.5h-429q5 3 10 5.5t10 5.5h390z" />
    <glyph glyph-name="FL00F7h" unicode="&#xf7;" horiz-adv-x="432" 
d="M89 195l71 67h302l-71 -67h-302zM168 270l43 40h302l-43 -40h-302zM328 108q-9 -25 -33 -42t-51 -17t-39.5 17t-3.5 42t34 42t52 17t38.5 -17t2.5 -42zM314 380q-5 11 -2 26h125q-12 -18 -22 -26h-101zM441 454q4 -7 4 -18h-120q3 5 7 9l9 9h100zM534 330l-6 -5h-302l6 5
h302z" />
    <glyph glyph-name="FL00F8h" unicode="&#xf8;" horiz-adv-x="721" 
d="M305 257q-2 -11 -1 -22.5t4 -22.5l71 50h137l-161 -115q16 -12 37 -12h66q12 0 30.5 8.5t38 22.5t37 31.5t26.5 34.5q9 14 11 22l3 8h187q-12 -47 -43 -93.5t-74.5 -84t-96.5 -61t-108 -23.5h-100q-61 0 -112 11t-85.5 38.5t-50 74.5t-5.5 119q1 5 1.5 9.5t2.5 9.5h185
v-5zM792 406q2 -6 3.5 -12.5t3.5 -13.5h-252l14 10q-11 2 -19 3.5t-13 1.5h-81q-11 0 -23 -4t-24 -11h-224q5 7 10.5 13t10.5 13h594zM801 358q0 -8 0.5 -16.5t-0.5 -16.5h-194v2l-3 -2h-135l46 33h286zM767 454q7 -9 12 -18h-553q5 5 10 9t10 9h521zM607 273q1 9 1.5 18
t-0.5 19h192q-1 -6 -1.5 -11.5t-1.5 -11.5q-1 -5 -1.5 -9t-2.5 -8h-187q0 2 0.5 2.5zM122 270q2 10 5.5 19.5t8.5 20.5h190q-5 -7 -11 -19.5t-8 -20.5h-185zM143 325q4 8 9 16.5t10 16.5h207q-18 -15 -33 -33h-193zM527 270h-137l57 40h136zM707 502q5 -3 9.5 -5.5t9.5 -5.5
h-429q5 3 10 5.5t10 5.5h390z" />
    <glyph glyph-name="FL00F9h" unicode="&#xf9;" horiz-adv-x="682" 
d="M113 196q3 17 7 32.5t9 33.5h190q-3 -11 -3.5 -15t-0.5 -6q-7 -48 6.5 -77t50.5 -29h49q24 0 44.5 10t36.5 25t28 32t19 31l10 29h190q-24 -64 -49.5 -113t-57.5 -82t-74.5 -50t-99.5 -17h-117q-140 0 -199 44.5t-39 151.5zM603 689l8 -22q0 -10 2 -20.5t-3 -24.5
q-3 -9 -8 -16.5t-13 -11.5l-6 -4l-7.5 -1.5t-3.5 -0.5q-14 0 -29.5 10t-20.5 23l-7 23q-2 6 -3 12t1 13q10 25 38 42q24 8 28 8q11 0 16 -9.5t8 -20.5zM142 308v2h193q-5 -13 -8 -23t-5 -17h-190q2 8 4.5 17.5t5.5 20.5zM757 283q-2 -4 -3 -7l-2 -6h-190l15 40h190zM351 358
q-7 -18 -11 -33h-192l12 33h191zM582 325l12 33h190l-12 -33h-190zM367 406q-2 -7 -4.5 -13.5t-4.5 -12.5h-190l9 26h190zM602 380l10 26h190l-10 -26h-190zM623 436l6 18h190l-6 -18h-190zM187 436l7 18h189q-2 -5 -3 -9t-3 -9h-190zM643 491l4 11h190l-4 -11h-190z
M400 502l-2 -6t-2 -5h-189l4 11h189z" />
    <glyph glyph-name="FL00FAh" unicode="&#xfa;" horiz-adv-x="682" 
d="M113 196q3 17 7 32.5t9 33.5h190q-3 -11 -3.5 -15t-0.5 -6q-7 -48 6.5 -77t50.5 -29h49q24 0 44.5 10t36.5 25t28 32t19 31l10 29h190q-24 -64 -49.5 -113t-57.5 -82t-74.5 -50t-99.5 -17h-117q-140 0 -199 44.5t-39 151.5zM544 667l24 22q11 11 23 20.5t23 9.5t22 -8
q16 -17 6 -42q-2 -7 -8 -13l-12 -12l-23 -23q-7 -6 -16.5 -12t-20 -10.5t-20.5 -7.5t-17 -3q-9 0 -9 2l-4 4q-5 4 -4.5 11.5t3.5 16.5q5 14 15 24.5t18 20.5zM142 308v2h193q-5 -13 -8 -23t-5 -17h-190q2 8 4.5 17.5t5.5 20.5zM757 283q-2 -4 -3 -7l-2 -6h-190l15 40h190z
M351 358q-7 -18 -11 -33h-192l12 33h191zM582 325l12 33h190l-12 -33h-190zM367 406q-2 -7 -4.5 -13.5t-4.5 -12.5h-190l9 26h190zM602 380l10 26h190l-10 -26h-190zM623 436l6 18h190l-6 -18h-190zM187 436l7 18h189q-2 -5 -3 -9t-3 -9h-190zM643 491l4 11h190l-4 -11h-190
zM400 502l-2 -6t-2 -5h-189l4 11h189z" />
    <glyph glyph-name="FL00FBh" unicode="&#xfb;" horiz-adv-x="682" 
d="M113 196q3 17 7 32.5t9 33.5h190q-3 -11 -3.5 -15t-0.5 -6q-7 -48 6.5 -77t50.5 -29h49q24 0 44.5 10t36.5 25t28 32t19 31l10 29h190q-24 -64 -49.5 -113t-57.5 -82t-74.5 -50t-99.5 -17h-117q-140 0 -199 44.5t-39 151.5zM563 653l-58 -59h-91l107 105q5 3 11 7.5
t11 4.5h62q8 0 15 -8.5t11 -14.5l47 -94h-82zM142 308v2h193q-5 -13 -8 -23t-5 -17h-190q2 8 4.5 17.5t5.5 20.5zM757 283q-2 -4 -3 -7l-2 -6h-190l15 40h190zM351 358q-7 -18 -11 -33h-192l12 33h191zM582 325l12 33h190l-12 -33h-190zM367 406q-2 -7 -4.5 -13.5
t-4.5 -12.5h-190l9 26h190zM602 380l10 26h190l-10 -26h-190zM623 436l6 18h190l-6 -18h-190zM187 436l7 18h189q-2 -5 -3 -9t-3 -9h-190zM643 491l4 11h190l-4 -11h-190zM400 502l-2 -6t-2 -5h-189l4 11h189z" />
    <glyph glyph-name="FL00FCh" unicode="&#xfc;" horiz-adv-x="682" 
d="M113 196q3 17 7 32.5t9 33.5h190q-3 -11 -3.5 -15t-0.5 -6q-7 -48 6.5 -77t50.5 -29h49q24 0 44.5 10t36.5 25t28 32t19 31l10 29h190q-24 -64 -49.5 -113t-57.5 -82t-74.5 -50t-99.5 -17h-117q-140 0 -199 44.5t-39 151.5zM730 652q-9 -25 -33 -42t-51 -17t-39.5 17
t-3.5 42t34 42t52 17t38.5 -17t2.5 -42zM422 652q9 25 33.5 42t51.5 17t39 -17t3 -42t-33.5 -42t-51.5 -17t-39 17t-3 42zM142 308v2h193q-5 -13 -8 -23t-5 -17h-190q2 8 4.5 17.5t5.5 20.5zM757 283q-2 -4 -3 -7l-2 -6h-190l15 40h190zM351 358q-7 -18 -11 -33h-192l12 33
h191zM582 325l12 33h190l-12 -33h-190zM367 406q-2 -7 -4.5 -13.5t-4.5 -12.5h-190l9 26h190zM602 380l10 26h190l-10 -26h-190zM623 436l6 18h190l-6 -18h-190zM187 436l7 18h189q-2 -5 -3 -9t-3 -9h-190zM643 491l4 11h190l-4 -11h-190zM400 502l-2 -6t-2 -5h-189l4 11
h189z" />
    <glyph glyph-name="FL00FDh" unicode="&#xfd;" horiz-adv-x="656" 
d="M324 252l-4 10h207l-11 -10l-92 -252h-192zM294 325l-13 33h355l-37 -33h-305zM474 406l1 -1l1 1h215l-30 -26h-389l-11 26h213zM534 667l24 22q11 11 23 20.5t23 9.5t22 -8q16 -17 6 -42q-2 -7 -8 -13l-12 -12l-23 -23q-7 -6 -16.5 -12t-20 -10.5t-20.5 -7.5t-17 -3
q-9 0 -9 2l-4 4q-5 4 -4.5 11.5t3.5 16.5q5 14 15 24.5t18 20.5zM316 270l-16 40h282l-46 -40h-220zM510 436l20 18h215l-20 -18h-215zM249 436l-7 18h213l7 -18h-213zM572 491l13 11h214l-12 -11h-215zM227 491l-5 11h214l4 -11h-213z" />
    <glyph glyph-name="FL00FEh" unicode="&#xfe;" horiz-adv-x="680" 
d="M28 0l95 262h192l-43 -120l96 85h160q1 0 4.5 4.5t7.5 10.5t7 11.5t4 8.5h192q-5 -38 -26.5 -69t-51.5 -53.5t-65 -35t-66 -12.5h-281l-33 -92h-192zM727 358q8 -20 11 -33h-592l12 33h569zM327 294l-9 -24h-192l15 40h601q2 -10 2 -15q0 -8 1 -12q0 -10 -1 -13h-192v2
q-3 5 -10.5 13.5t-9.5 8.5h-205zM697 406q6 -6 10.5 -12.5t9.5 -13.5h-551l10 26h521zM187 436l6 18h192l-6 -18h-192zM207 491l4 11h192l-4 -11h-192z" />
    <glyph glyph-name="FL00FFh" unicode="&#xff;" horiz-adv-x="656" 
d="M324 252l-4 10h207l-11 -10l-92 -252h-192zM722 652q-9 -25 -33 -42t-51 -17t-39.5 17t-3.5 42t34 42t52 17t38.5 -17t2.5 -42zM414 652q9 25 33.5 42t51.5 17t39 -17t3 -42t-33.5 -42t-51.5 -17t-39 17t-3 42zM294 325l-13 33h355l-37 -33h-305zM474 406l1 -1l1 1h215
l-30 -26h-389l-11 26h213zM316 270l-16 40h282l-46 -40h-220zM510 436l20 18h215l-20 -18h-215zM249 436l-7 18h213l7 -18h-213zM572 491l13 11h214l-12 -11h-215zM227 491l-5 11h214l4 -11h-213z" />
    <glyph glyph-name="FL0152h" unicode="&#x152;" horiz-adv-x="1055" 
d="M127 243v9q0 7 1 10h185v-5q0 -19 10 -40.5t25.5 -39.5t34 -30t35.5 -12h89l46 127h191l-8 -24l25 24h229l-71 -67h-199l-22 -60h383q-1 -2 -5 -8.5t-8 -13.5t-8 -13t-5 -7q-9 -12 -24.5 -28t-30.5 -30.5t-26.5 -24.5t-12.5 -10h-503q-62 0 -121 11t-106 38.5t-75.5 74.5
t-28.5 119zM1166 454q-8 -11 -15 -18h-945q4 5 8 9l9 9h943zM602 395h-184q-22 0 -41 -15h-211q4 6 7.5 12.5t8.5 13.5h939q-14 -11 -20 -11h-308l-6 -15h-191zM1203 502q-2 -3 -3.5 -6t-3.5 -5h-929q5 3 9 5.5t9 5.5h918zM769 270l41 40h231l-43 -40h-229zM556 270l15 40
h191l-15 -40h-191zM129 270q1 10 3 19.5t5 20.5h188l-2 -6l-2 -6q-2 -8 -4 -15t-3 -13h-185zM141 325q3 8 6.5 16.5t7.5 16.5h199q-6 -8 -11.5 -16t-10.5 -17h-191zM576 325l12 33h191l-12 -33h-191zM1062 330l-6 -5h-230l5 5h231z" />
    <glyph glyph-name="FL0153h" unicode="&#x153;" horiz-adv-x="1055" 
d="M127 243v2v17h186v-5q0 -19 10 -40.5t25.5 -39.5t34 -30t35.5 -12h89l46 127h191l-8 -24l24 24h230l-71 -67h-199l-22 -60h383q-1 -2 -5 -8.5t-8 -13.5t-8 -13t-5 -7q-9 -12 -24.5 -28t-30.5 -30.5t-26.5 -24.5t-12.5 -10h-503q-62 0 -121 11t-106 38.5t-75.5 74.5
t-28.5 119zM1166 454q-8 -11 -15 -18h-946q4 5 8 9l9 9h944zM602 395h-184q-22 0 -41 -15h-212q8 14 17 26h939q-14 -11 -20 -11h-308l-6 -15h-191zM1203 502q-2 -3 -3.5 -6t-3.5 -5h-929q5 3 9 5.5t9 5.5h918zM769 270l41 40h231l-43 -40h-229zM556 270l15 40h191l-15 -40
h-191zM128 270q2 10 4 19.5t4 20.5h189l-2 -6l-2 -6q-2 -8 -4 -15t-3 -13h-186zM141 325q2 8 5.5 16.5t7.5 16.5h200q-6 -8 -11.5 -16t-10.5 -17h-191zM576 325l12 33h191l-12 -33h-191zM1062 330l-6 -5h-230l5 5h231z" />
    <glyph glyph-name="FL0160h" unicode="&#x160;" horiz-adv-x="660" 
d="M503 174q0 8 -3 16.5t-11 8.5h-200q-34 0 -60.5 18t-43.5 45h480q25 -46 25 -90v-4q0 -26 -12 -55.5t-31.5 -54.5t-45 -41.5t-52.5 -16.5h-510q5 10 20.5 32t33 44.5t32.5 40t18 17.5h340q15 0 17.5 9t2.5 19v12zM625 310q22 -18 35 -40h-480q-10 17 -16 40h461zM548 649
l59 59h91l-108 -105q-4 -3 -10.5 -7.5t-11.5 -4.5h-62q-8 0 -14.5 8.5t-11.5 14.5l-46 94h82zM764 454q-4 -5 -7.5 -9t-8.5 -9h-561q3 5 5.5 9t6.5 9h565zM376 394q-10 0 -19 -14h-195q3 11 9 26h547l-12 -12h-330zM569 329q16 0 27 -4h-435q-3 13 -3 28v5h191v-3v-5
q0 -1 4 -4.5t6 -5.5q4 -4 11.5 -7.5t8.5 -3.5h190zM804 502q-3 -4 -5 -6.5t-4 -4.5h-564q3 3 6.5 5.5t6.5 5.5h560z" />
    <glyph glyph-name="FL0161h" unicode="&#x161;" horiz-adv-x="660" 
d="M503 174q0 8 -3 16.5t-11 8.5h-200q-34 0 -60.5 18t-43.5 45h480q25 -46 25 -90v-4q0 -26 -12 -55.5t-31.5 -54.5t-45 -41.5t-52.5 -16.5h-510q5 10 20.5 32t33 44.5t32.5 40t18 17.5h340q15 0 17.5 9t2.5 19v12zM625 310q22 -18 35 -40h-480q-10 17 -16 40h461zM548 649
l59 59h91l-108 -105q-4 -3 -10.5 -7.5t-11.5 -4.5h-62q-8 0 -14.5 8.5t-11.5 14.5l-46 94h82zM764 454q-4 -5 -7.5 -9t-8.5 -9h-561q3 5 5.5 9t6.5 9h565zM376 394q-10 0 -19 -14h-195q3 11 9 26h547l-12 -12h-330zM569 329q16 0 27 -4h-435q-3 13 -3 28v5h191v-3v-5
q0 -1 4 -4.5t6 -5.5q4 -4 11.5 -7.5t8.5 -3.5h190zM804 502q-3 -4 -5 -6.5t-4 -4.5h-564q3 3 6.5 5.5t6.5 5.5h560z" />
    <glyph glyph-name="FL0178h" unicode="&#x178;" horiz-adv-x="656" 
d="M324 252l-4 10h207l-11 -10l-92 -252h-192zM722 652q-9 -25 -33 -42t-51 -17t-39.5 17t-3.5 42t34 42t52 17t38.5 -17t2.5 -42zM414 652q9 25 33.5 42t51.5 17t39 -17t3 -42t-33.5 -42t-51.5 -17t-39 17t-3 42zM294 325l-13 33h355l-37 -33h-305zM474 406l1 -1l1 1h215
l-30 -26h-389l-11 26h213zM316 270l-16 40h282l-46 -40h-220zM510 436l20 18h215l-20 -18h-215zM249 436l-7 18h213l7 -18h-213zM572 491l13 11h214l-12 -11h-215zM227 491l-5 11h214l4 -11h-213z" />
    <glyph glyph-name="FL017Dh" unicode="&#x17d;" horiz-adv-x="616" 
d="M522 0h-499l274 262h209l-133 -127h269q-7 -14 -23.5 -36.5t-35 -44.5t-36 -38t-25.5 -16zM548 649l59 59h91l-108 -105q-4 -3 -10.5 -7.5t-11.5 -4.5h-62q-8 0 -14.5 8.5t-11.5 14.5l-46 94h82zM195 436q7 7 15 18h497l-19 -18h-493zM167 396q0 2 6 10h483l-27 -26h-209
l16 15h-269v1zM305 270l42 40h209l-42 -40h-209zM363 325l34 33h209l-34 -33h-209zM242 491q2 3 5 5.5t6 5.5h504l-12 -11h-503z" />
    <glyph glyph-name="FL017Eh" unicode="&#x17e;" horiz-adv-x="616" 
d="M522 0h-499l274 262h209l-133 -127h269q-7 -14 -23.5 -36.5t-35 -44.5t-36 -38t-25.5 -16zM548 649l59 59h91l-108 -105q-4 -3 -10.5 -7.5t-11.5 -4.5h-62q-8 0 -14.5 8.5t-11.5 14.5l-46 94h82zM195 436q7 7 15 18h497l-19 -18h-493zM167 396q0 2 6 10h483l-27 -26h-209
l16 15h-269v1zM305 270l42 40h209l-42 -40h-209zM363 325l34 33h209l-34 -33h-209zM242 491q2 3 5 5.5t6 5.5h504l-12 -11h-503z" />
    <glyph glyph-name="FL00B6h" unicode="&#x192;" horiz-adv-x="876" 
d="M176 220l-48 32l1 10h26l62 -47l-71 -31l118 -33l-57 -35l149 -7l-32 -43l146 31l8 -25l-14 -24l131 61l35 -37l81 75l61 -26l37 87l66 -14l4 8q5 16 -13 60h17l14 -47q1 -1 0 -7l-2 -5q-8 -20 -27 -26l-49 12l-33 -73q-9 -14 -26 -14q-12 0 -22 6.5t-24 17.5l-78 -67
l-29 -6l-19 37l-125 -61l-15 6l13 37l-144 -24l-12 11l17 31l-136 13l9 23l24 21l-80 18q-17 0 -8 24zM693 300l-11 -30h-67q7 10 14.5 20t16.5 20h48q0 -2 -0.5 -5t-0.5 -5zM363 230q6 17 13 32h16l-1 -3q-9 -26 7 -26q7 0 28 9q4 5 7.5 10t6.5 10h15q-30 -48 -50 -48
q-5 -1 -9 -1.5t-7 -0.5q-28 0 -26 18zM664 218l-10 5q-2 26 -13 26q-13 0 -34 -26h-20q5 10 10.5 19.5t11.5 19.5h70zM891 449q-2 -7 -6 -13h-24l11 7h-146l7 11h155zM446 275q3 10 1 12q0 15 -12 15q-15 0 -38 -32h-17q7 12 14 22t16 18h59q2 -6 2 -10v-10l-6 -10t-5 -10
h-16q0 -1 2 5zM528 214q-23 0 -38 48h27l5 -10l4 10h19zM196 294l-6 16h16l11 -34l-72 -6h-14l2 12zM954 381l-1 -1h-43l-94 26h64zM295 252q-1 1 2 8v2h20q-2 -5 -3.5 -8.5t-3.5 -7.5q-9 -21 12 -21q5 0 9.5 0.5t9.5 1.5l-5 -18q-11 -2 -16.5 -3.5l-5.5 -1.5q-28 0 -19 48z
M933 282l-1 12l-22 16h34q12 -12 9 -19l-2 -2l-14 -19h-74q-1 1 -1 3t-1 3zM754 218q-20 0 -35 44h26l3 -6l2 6h20zM899 338q7 -4 13 -7t11 -6h-33l-27 20l46 13h33q-13 -16 -43 -20zM300 270q10 25 34 40h49l-3 -7q-5 3 -9 3q-12 0 -31 -16q-5 -5 -9.5 -10t-8.5 -10h-22z
M716 272l-1 -2h-15l14 40h12l16 -40h-26v2zM474 270l14 40h9l17 -40h-40zM267 220l-25 -8l23 50h19zM573 225l-26 -8l20 45h21zM203 357l-4 -26l2 -6h-17l-4 13l9 20h86l-4 -8zM570 270l18 40h20l-17 -40h-21zM797 270l16 40h22l-20 -40h-18zM775 499l-4 -8h-98l52 11h32z
M291 436q9 13 18 18h14l37 -18h-47q-1 0 -1 1l-1 -1h-20zM470 215l-16 -3l17 50h16zM529 270l16 40h17l-14 -40h-19zM754 270l17 40h17l-15 -40h-19zM268 270l19 40h17l-16 -40h-20zM696 218l-15 -1l16 45h15zM264 380q2 6 4.5 12.5t6.5 13.5h22l-12 -26h-21zM666 272l2 37
l-32 -37h30zM376 436q5 5 9.5 9t9.5 9h23l-21 -18h-21zM793 212l-21 -18l-7 14l15 10zM574 491h-28l23 11h28zM438 491q5 3 9 6t9 5h10l10 -11h-38zM803 246l-15 3l5 13h18zM681 334q9 0 12 -9h-33l6 6q4 3 15 3zM612 499l-4 3h21l-8 -11h-11zM844 326l-1 -1h-24l3 7z
M617 332l-3 -7h-19l1 2zM794 326l-1 -1h-16l3 7zM392 330l-3 -5h-20q5 2 11 2.5t12 2.5zM484 449l-4 5h14zM444 326q2 0 4.5 -0.5t4.5 -0.5h-22q2 0 3 1h10zM311 327l-1 -2h-8zM551 325l1 2l6 -2h-7zM719 325l1 1v-1h-1z" />
    <glyph glyph-name="FL02C6h" unicode="&#x2c6;" horiz-adv-x="301" 
d="M192 436l19 18h90l-18 -18h-91zM249 491l11 11h129l6 -11h-146zM338 436l-9 18h84l9 -18h-84z" />
    <glyph glyph-name="FL02DCh" unicode="&#x2dc;" horiz-adv-x="389" 
d="M338 436l-9 18h157q-5 -5 -9.5 -9t-9.5 -9h-129zM192 436l19 18h90l-18 -18h-91zM249 491l11 11h136l6 -11h-153zM433 491l11 11h91l-5.5 -5.5t-6.5 -5.5h-90z" />
    <glyph glyph-name="FL2013h" unicode="&#x2013;" horiz-adv-x="361" 
d="M320 195h-231l71 67h231zM168 270l43 40h231l-43 -40h-231zM226 325l6 5h231l-6 -5h-231z" />
    <glyph glyph-name="FL2014h" unicode="&#x2014;" horiz-adv-x="432" 
d="M391 195h-302l71 67h302zM168 270l43 40h302l-43 -40h-302zM226 325l6 5h302l-6 -5h-302z" />
    <glyph glyph-name="FL2018h" unicode="&#x2018;" horiz-adv-x="181" 
d="M169 380q0 8 5 23l1 3h125l-1 -3q-4 -12 -13 -23h-117zM312 440l-2 -4h-125l2 4q1 3 3 6.5t4 7.5h119q0 -4 -0.5 -7.5t-0.5 -6.5zM213 339q-28 0 -38 19h89q-23 -19 -51 -19zM312 502q1 -3 1 -11h-89q2 3 5 5.5t6 5.5h77z" />
    <glyph glyph-name="FL2019h" unicode="&#x2019;" horiz-adv-x="181" 
d="M182 380q-2 12 0 26h114q-7 -11 -22 -26h-92zM187 436l6 18h125l-6 -18h-125zM325 502q1 -3 1.5 -5.5t0.5 -5.5h-116q2 3 10 11h104zM209 340q-15 0 -22 18h63q-23 -18 -33 -18h-8z" />
    <glyph glyph-name="FL201Ah" unicode="&#x201a;" horiz-adv-x="208" 
d="M38 28l15 42q12 29 41 50t61 21t46.5 -21t3.5 -50l-15 -42q-5 -14 -19 -31.5t-31 -32.5t-33.5 -25.5t-25.5 -10.5h-9q-15 0 -22.5 11.5t-10.5 27t-2.5 32.5t1.5 29z" />
    <glyph glyph-name="FL201Eh" unicode="&#x201c;" horiz-adv-x="326" 
d="M170 380q0 8 5 23l1 3h125l-1 -3q-4 -12 -13 -23h-117zM315 380q0 8 5 23l1 3h125l-1 -3q-4 -12 -13 -23h-117zM313 440l-2 -4h-125l2 4q1 3 3 6.5t4 7.5h119q0 -4 -0.5 -7.5t-0.5 -6.5zM458 440l-2 -4h-125l2 4q1 3 3 6.5t4 7.5h119q0 -4 -0.5 -7.5t-0.5 -6.5zM214 339
q-28 0 -38 19h89q-23 -19 -51 -19zM359 339q-28 0 -38 19h89q-23 -19 -51 -19zM313 502q0 -3 0.5 -5.5t0.5 -5.5h-89q2 3 5 5.5t6 5.5h77zM458 502q0 -3 0.5 -5.5t0.5 -5.5h-89q2 3 5 5.5t6 5.5h77z" />
    <glyph glyph-name="FL201Dh" unicode="&#x201d;" horiz-adv-x="326" 
d="M327 380q-2 12 0 26h114q-7 -11 -22 -26h-92zM182 380q-2 12 0 26h114q-7 -11 -22 -26h-92zM187 436l6 18h125l-6 -18h-125zM332 436l6 18h125l-6 -18h-125zM470 502q1 -3 1.5 -5.5t0.5 -5.5h-116q2 3 10 11h104zM325 502q1 -3 1.5 -5.5t0.5 -5.5h-116q2 3 10 11h104z
M354 340q-15 0 -22 18h63q-23 -18 -33 -18h-8zM209 340q-15 0 -22 18h63q-23 -18 -33 -18h-8z" />
    <glyph glyph-name="FL201Fh" unicode="&#x201e;" horiz-adv-x="381" 
d="M211 28l15 42q12 29 41 50t61 21t46.5 -21t3.5 -50l-15 -42q-5 -14 -19 -31.5t-31 -32.5t-33.5 -25.5t-25.5 -10.5h-9q-15 0 -22.5 11.5t-10.5 27t-2.5 32.5t1.5 29zM38 28l15 42q12 29 41 50t61 21t46.5 -21t3.5 -50l-15 -42q-5 -14 -19 -31.5t-31 -32.5t-33.5 -25.5
t-25.5 -10.5h-9q-15 0 -22.5 11.5t-10.5 27t-2.5 32.5t1.5 29z" />
    <glyph glyph-name="FL2020h" unicode="&#x2020;" horiz-adv-x="432" 
d="M121 0l95 262h192l-95 -262h-192zM418 289l-7 -19h-192l7 19h-102l22 21h302l-22 -21h-8zM162 325l35 33h302l-35 -33h-302zM220 380l28 26h302l-28 -26h-302zM279 436l7 18h192l-7 -18h-192zM299 491l4 11h192l-4 -11h-192z" />
    <glyph glyph-name="FL2021h" unicode="&#x2021;" horiz-adv-x="432" 
d="M121 0l37 102h-102l143 135h8l9 25h192l-9 -25h102l-143 -135h-8l-37 -102h-192zM418 289l-7 -19h-192l7 19h-102l22 21h302l-22 -21h-8zM162 325l35 33h302l-35 -33h-302zM220 380l28 26h302l-28 -26h-302zM279 436l7 18h192l-7 -18h-192zM299 491l4 11h192l-4 -11h-192
z" />
    <glyph glyph-name="FL2023h" unicode="&#x2022;" horiz-adv-x="356" 
d="M124 257v5h299l-3 -8q-2 -8 -11 -22q-9 -17 -26.5 -34.5t-37 -31.5t-38 -22.5t-30.5 -8.5h-66q-20 0 -37 12t-29 30t-18 39.5t-3 40.5zM426 273l-0.5 -1t-0.5 -2h-299q2 8 8 20.5t11 19.5h283q0 -11 -0.5 -19.5t-1.5 -17.5zM418 358q7 -15 9 -33h-272q15 18 33 33h230z
M348 395q17 0 29.5 -4t22.5 -11h-180q12 7 24 11t23 4h81z" />
    <glyph glyph-name="FL2026h" unicode="&#x2026;" horiz-adv-x="561" 
d="M228 70q12 29 41 50t61 21t46.5 -21t3.5 -50q-5 -15 -15.5 -27.5t-24 -22t-29.5 -15t-32 -5.5q-32 0 -47 20.5t-4 49.5zM406 70q12 29 41 50t61 21t46.5 -21t3.5 -50q-5 -15 -15.5 -27.5t-24 -22t-29.5 -15t-32 -5.5q-32 0 -47 20.5t-4 49.5zM53 70q12 29 41 50t61 21
t46.5 -21t3.5 -50q-5 -15 -15.5 -27.5t-24 -22t-29.5 -15t-32 -5.5q-32 0 -47 20.5t-4 49.5z" />
    <glyph glyph-name="FL2030h" unicode="&#x2030;" horiz-adv-x="1138" 
d="M815 143q0 -1 -0.5 -4t-1.5 -8l-4 -11q-8 -22 -24 -43.5t-37 -38.5t-46 -27.5t-51 -10.5h-50q-30 0 -55.5 5.5t-43 19t-25 37t-2.5 59.5q1 12 6 24q7 19 19.5 38t29 35t35.5 27.5t39 16.5h131q45 -8 67 -36.5t13 -82.5zM1160 143q0 -1 -0.5 -4t-1.5 -8l-4 -11
q-8 -22 -24 -43.5t-37 -38.5t-46 -27.5t-51 -10.5h-50q-30 0 -55.5 5.5t-43 19t-25 37t-2.5 59.5q1 12 6 24q7 19 19.5 38t29 35t35.5 27.5t39 16.5h131q45 -8 67 -36.5t13 -82.5zM85 0l317 262h172l-318 -262h-171zM492 358q-5 -10 -11.5 -18t-13.5 -15h-293q-5 17 -5 33
h126q7 -9 19 -9h26q7 0 21 9h131zM585 132q-3 -15 8 -31.5t25 -16.5h26q9 0 25.5 12t24.5 26q4 4 5 9l2 7q1 1 1 15t-6 23.5t-25 9.5h-30q-13 0 -27.5 -12t-22.5 -26zM930 132q-3 -15 8 -31.5t25 -16.5h26q9 0 25.5 12t24.5 26q4 4 5 9l2 7q1 1 1 15t-6 23.5t-25 9.5h-30
q-13 0 -27.5 -12t-22.5 -26zM452 310q-33 -30 -71 -40h-137q-21 5 -37.5 14t-25.5 26h271zM583 270h-172l49 40h172zM478 325l40 33h172l-40 -33h-172zM189 436q2 5 5 9t6 9h312q1 -5 1.5 -9t0.5 -9h-119q-8 15 -28 15h-30q-15 0 -31 -15h-117zM544 380l32 26h172l-32 -26
h-172zM612 436l22 18h172l-22 -18h-172zM511 406q-1 -1 -1 -5q0 -3 -1 -5l-4 -11q-1 -1 -1 -3q0 -1 -1 -2h-117q2 2 2.5 3.5t2.5 3.5l2 4t2 5l3 7l0.5 1t0.5 2h112zM281 397q-1 -4 -0.5 -8t1.5 -9h-112q0 5 1 6q1 5 1.5 10t2.5 10h109zM235 491q4 2 7 5t7 6h239q2 -3 5 -5.5
t5 -5.5h-263zM679 491l13 11h173l-14 -11h-172z" />
    <glyph glyph-name="FL2039h" unicode="&#x2039;" horiz-adv-x="173" 
d="M118 214q-2 3 -5 8t-1 10l11 30h75l33 -26l-33 -91zM185 273l3 -3h-62l9 24q1 5 12 16h92zM264 327l-3 -2h-95q1 1 2 1.5t2 1.5l46 30h59zM249 380l40 26h4l-10 -26h-34z" />
    <glyph glyph-name="FL203Ah" unicode="&#x203a;" horiz-adv-x="173" 
d="M79 143l30 82l54 37h76l-1 -4q-3 -8 -15 -18t-20 -16zM255 338q6 -6 6 -13h-116l12 33h75zM188 279l-39 31h107l-14 -40h-67zM165 380l9 26h4l29 -26h-42z" />
    <glyph glyph-name="FL20ACh" unicode="&#x20ac;" horiz-adv-x="740" 
d="M493 164h-23q26 -29 57 -29h239q-23 -34 -52 -69.5t-67 -65.5h-80q-52 0 -103 7.5t-94.5 26.5t-75.5 50.5t-46 79.5h-170l125 80h33l1 18h185l-1 -11q0 2 0.5 0t1.5 -7h195zM423 274l-1 -4h-185l1 4h-120l56 36h415l-56 -36h-110zM658 354l-46 -29h-415l46 29h19l0.5 1
l1.5 3h200q-1 -1 -1.5 -2t-1.5 -2h197zM847 454q-4 -5 -8 -9t-8 -9h-516q4 5 8 9l9 9h515zM527 395q-11 0 -21 -4t-20 -11h-211q8 14 17 26h508q-2 -2 -5.5 -5t-7.5 -6h-260zM888 502q-3 -4 -5 -6.5t-4 -4.5h-502q5 3 9 5.5t9 5.5h493z" />
    </font>
</defs>
</svg>
