<svg xmlns="http://www.w3.org/2000/svg">
<defs>
<font id="PilatExtended-Black" horiz-adv-x="1020" >
  <font-face 
    font-family="Pilat Extended Black"
    font-weight="950"
    font-stretch="expanded"
    units-per-em="1000"
    panose-1="2 11 10 7 3 0 0 0 0 4"
    ascent="750"
    descent="-250"
    x-height="530"
    cap-height="700"
    bbox="-178 -180 2118 1080"
    underline-thickness="115"
    underline-position="-320"
    unicode-range="U+0020-FB00"
  />
<missing-glyph horiz-adv-x="700" 
d="M369 -80q-113 0 -190 78.5t-77 187.5v18l-19 31q-15 25 -9 53q6 29 31 44l7 4q18 13 43 11q-7 24 0.5 46t28.5 35l7 4q20 12 41 11l-76 120q-12 21 -12 39q0 30 21.5 52.5t51.5 22.5q42 0 65 -35l139 -221v224q0 31 21.5 53t52.5 22t52.5 -22t21.5 -53v-286
q30 -15 48 -43t18 -63v-62q0 -65 -30 -126t-92.5 -103t-143.5 -42zM451 645v-274h66q8 0 22 -2v276q0 18 -13 31t-31 13t-31 -13t-13 -31zM182 579l127 -203l24 -37q13 32 50 32h33l-160 255q-12 20 -37 20q-18 0 -31 -13t-13 -31q0 -12 7 -23zM313 220l8 5q13 9 17 24.5
t-5 30.5l-72 114q-9 14 -25 17.5t-29 -4.5l-8 -5q-13 -9 -17 -25.5t5 -29.5l72 -114q9 -14 25 -17.5t29 4.5zM359 138q0 25 12.5 50t29.5 33q-16 1 -34 15q-7 -25 -29 -37l-7 -4q-18 -11 -43 -11q8 -23 -0.5 -45.5t-28.5 -35.5l-8 -5q-24 -15 -51.5 -8.5t-44.5 31.5l-20 30
q10 -85 78.5 -143t154.5 -58q99 0 168 71.5t69 169.5v62q0 36 -26 62t-62 26h-134q-10 0 -17 -7.5t-7 -19.5q0 -27 19 -47.5t48 -20.5h42q6 0 10.5 -4.5t4.5 -10.5t-4.5 -10.5t-10.5 -4.5q-34 0 -55.5 -23.5t-21.5 -54.5q0 -6 -5 -10.5t-11 -4.5t-11 4.5t-5 10.5zM235 124
l8 5q13 9 17 24.5t-5 30.5l-72 114q-9 14 -25 17.5t-29 -4.5l-8 -5q-13 -9 -17 -25.5t5 -29.5l72 -114q9 -14 25 -17.5t29 4.5z" />
    <glyph glyph-name="f_f" unicode="ff" horiz-adv-x="1038" 
d="M138 352h-118v178h119q7 98 74.5 134t198.5 36h154v-130h-89q-41 0 -54.5 -7.5t-13.5 -28.5v-4h194q7 98 74.5 134t198.5 36h154v-130h-89q-41 0 -54.5 -7.5t-13.5 -28.5v-4h157v-178h-157v-352h-271v352h-193v-352h-271v352z" />
    <glyph glyph-name=".notdef" horiz-adv-x="700" 
d="M369 -80q-113 0 -190 78.5t-77 187.5v18l-19 31q-15 25 -9 53q6 29 31 44l7 4q18 13 43 11q-7 24 0.5 46t28.5 35l7 4q20 12 41 11l-76 120q-12 21 -12 39q0 30 21.5 52.5t51.5 22.5q42 0 65 -35l139 -221v224q0 31 21.5 53t52.5 22t52.5 -22t21.5 -53v-286
q30 -15 48 -43t18 -63v-62q0 -65 -30 -126t-92.5 -103t-143.5 -42zM451 645v-274h66q8 0 22 -2v276q0 18 -13 31t-31 13t-31 -13t-13 -31zM182 579l127 -203l24 -37q13 32 50 32h33l-160 255q-12 20 -37 20q-18 0 -31 -13t-13 -31q0 -12 7 -23zM313 220l8 5q13 9 17 24.5
t-5 30.5l-72 114q-9 14 -25 17.5t-29 -4.5l-8 -5q-13 -9 -17 -25.5t5 -29.5l72 -114q9 -14 25 -17.5t29 4.5zM359 138q0 25 12.5 50t29.5 33q-16 1 -34 15q-7 -25 -29 -37l-7 -4q-18 -11 -43 -11q8 -23 -0.5 -45.5t-28.5 -35.5l-8 -5q-24 -15 -51.5 -8.5t-44.5 31.5l-20 30
q10 -85 78.5 -143t154.5 -58q99 0 168 71.5t69 169.5v62q0 36 -26 62t-62 26h-134q-10 0 -17 -7.5t-7 -19.5q0 -27 19 -47.5t48 -20.5h42q6 0 10.5 -4.5t4.5 -10.5t-4.5 -10.5t-10.5 -4.5q-34 0 -55.5 -23.5t-21.5 -54.5q0 -6 -5 -10.5t-11 -4.5t-11 4.5t-5 10.5zM235 124
l8 5q13 9 17 24.5t-5 30.5l-72 114q-9 14 -25 17.5t-29 -4.5l-8 -5q-13 -9 -17 -25.5t5 -29.5l72 -114q9 -14 25 -17.5t29 4.5z" />
    <glyph glyph-name=".null" horiz-adv-x="0" 
 />
    <glyph glyph-name="nonmarkingreturn" horiz-adv-x="333" 
 />
    <glyph glyph-name="space" unicode=" " horiz-adv-x="260" 
 />
    <glyph glyph-name="exclam" unicode="!" horiz-adv-x="391" 
d="M20 407v293h351v-293l-73 -143h-206zM341 0h-291v205h291v-205z" />
    <glyph glyph-name="quotedbl" unicode="&#x22;" horiz-adv-x="614" 
d="M282 700v-345h-207v345h207zM539 700v-345h-207v345h207z" />
    <glyph glyph-name="numbersign" unicode="#" 
d="M728 0h-191l18 141h-144l-18 -141h-191l18 141h-167v150h186l14 118h-167v150h187l18 141h191l-18 -141h144l18 141h191l-18 -141h168v-150h-188l-14 -118h169v-150h-188zM600 418h-164l-18 -136h164z" />
    <glyph glyph-name="dollar" unicode="$" 
d="M575 10v-115h-120v115q-77 1 -135 6.5t-113 19t-92 35.5t-62 57.5t-33 83.5h309q8 -28 43.5 -37.5t146.5 -9.5q74 0 113 7t49.5 17t10.5 28v4q0 20 -12 28.5t-46 9.5l-300 10q-165 4 -230 46.5t-65 142.5v7q0 115 93 167.5t323 56.5v116h120v-115q200 -5 301.5 -50
t117.5 -152h-308q-9 28 -42 37.5t-131 9.5q-99 0 -131.5 -9.5t-32.5 -33.5v-4q0 -19 12 -27.5t46 -10.5l300 -10q166 -6 230.5 -47t64.5 -142v-6q0 -121 -95.5 -176t-331.5 -59z" />
    <glyph glyph-name="percent" unicode="%" horiz-adv-x="1142" 
d="M272 320h-16q-132 0 -184 40t-52 144v21q0 103 52.5 144t183.5 41h16q131 0 183.5 -41t52.5 -144v-21q0 -104 -52 -144t-184 -40zM864 700l-428 -700h-156l428 700h156zM264 440q53 0 70.5 13.5t17.5 57.5v9q0 41 -18 54.5t-70 13.5t-70 -13.5t-18 -54.5v-9
q0 -44 17.5 -57.5t70.5 -13.5zM886 -10h-16q-132 0 -184 40t-52 144v21q0 103 52.5 144t183.5 41h16q131 0 183.5 -41t52.5 -144v-21q0 -104 -52 -144t-184 -40zM878 110q53 0 70.5 13.5t17.5 57.5v9q0 41 -18 54.5t-70 13.5t-70 -13.5t-18 -54.5v-9q0 -44 17.5 -57.5
t70.5 -13.5z" />
    <glyph glyph-name="ampersand" unicode="&#x26;" horiz-adv-x="1152" 
d="M1152 189v-189h-93q-69 0 -108.5 11.5t-104.5 42.5l-5 2q-106 -66 -296 -66h-159q-194 0 -286 48.5t-92 167.5v7q0 92 48 133t155 64v4q-73 39 -73 120v4q0 91 89.5 131.5t303.5 40.5h39q115 0 188.5 -12t115.5 -40.5t61 -64t30 -92.5h-288q-10 25 -31 36t-75 11h-14
q-52 0 -70.5 -9t-18.5 -28v-4q0 -28 48 -51l295 -145l75 135h275l-147 -235q53 -22 111 -22h27zM411 162h70q72 0 125 10l-257 126q-61 -7 -61 -61v-5q0 -40 26.5 -55t96.5 -15z" />
    <glyph glyph-name="quotesingle" unicode="'" horiz-adv-x="357" 
d="M282 700v-345h-207v345h207z" />
    <glyph glyph-name="parenleft" unicode="(" horiz-adv-x="367" 
d="M338 39v-129q-141 9 -209.5 93t-68.5 272v60q0 188 68.5 272t209.5 93v-129q-67 -11 -97 -62.5t-30 -169.5v-68q0 -118 30 -169.5t97 -62.5z" />
    <glyph glyph-name="parenright" unicode=")" horiz-adv-x="367" 
d="M29 571v129q141 -9 209.5 -93t68.5 -272v-60q0 -188 -68.5 -272t-209.5 -93v129q67 11 97 62.5t30 169.5v68q0 118 -30 169.5t-97 62.5z" />
    <glyph glyph-name="asterisk" unicode="*" horiz-adv-x="459" 
d="M407 377l-113 -83l-60 99h-8l-60 -99l-113 83l75 92l-1 3l-112 27l47 133l105 -48l3 2l-10 114h140l-10 -114l3 -2l105 48l47 -133l-112 -27l-1 -3z" />
    <glyph glyph-name="plus" unicode="+" horiz-adv-x="600" 
d="M226 255h-188v148h188v198h148v-198h188v-148h-188v-198h-148v198z" />
    <glyph glyph-name="comma" unicode="," horiz-adv-x="391" 
d="M260 -118l-17 -22h-184l92 130v10h-101v205h291v-128q0 -89 -81 -195z" />
    <glyph glyph-name="hyphen" unicode="-" horiz-adv-x="390" 
d="M370 200h-350v185h350v-185z" />
    <glyph glyph-name="period" unicode="." horiz-adv-x="391" 
d="M341 0h-291v205h291v-205z" />
    <glyph glyph-name="slash" unicode="/" horiz-adv-x="564" 
d="M146 -100h-146l418 800h146z" />
    <glyph glyph-name="zero" unicode="0" horiz-adv-x="1120" 
d="M614 -11h-108q-262 0 -368 73t-106 267v41q0 194 106 267t368 73h108q262 0 368 -73t106 -267v-41q0 -194 -106 -267t-368 -73zM560 182q83 0 128 5.5t71 25.5t32.5 48t6.5 82v13q0 54 -6.5 82t-32.5 48t-71 25.5t-128 5.5q-109 0 -158 -13.5t-65 -45t-16 -102.5v-13
q0 -71 16 -102.5t65 -45t158 -13.5z" />
    <glyph glyph-name="one" unicode="1" horiz-adv-x="707" 
d="M645 700v-700h-286v496h-10l-317 -143v247l255 100h358z" />
    <glyph glyph-name="two" unicode="2" 
d="M987 189v-189h-953v148q0 131 71.5 189.5t251.5 71.5l262 21q45 4 61.5 14.5t16.5 31.5v1q0 19 -9.5 27.5t-46 13.5t-112.5 5q-109 0 -143.5 -6.5t-51.5 -30.5h-288q20 124 121 174t303 50h97q156 0 248.5 -23.5t131.5 -69t39 -120.5v-10q0 -109 -61 -162t-214 -65
l-359 -29q-22 -2 -30 -9t-8 -23v-10h673z" />
    <glyph glyph-name="three" unicode="3" 
d="M592 -10h-143q-58 0 -101.5 2.5t-93.5 10.5t-85.5 24t-67.5 40.5t-51.5 62.5t-26.5 89h290q10 -26 47 -34t142 -8q68 0 105 1.5t59 7t28 13t6 22.5v4q0 21 -17 29.5t-58 8.5h-284v176h274q38 0 51.5 7.5t13.5 27.5v5q0 15 -11 24t-47 14.5t-103 5.5q-94 0 -126.5 -6.5
t-43.5 -25.5h-298q18 76 58 122.5t120.5 71.5t209.5 25h133q214 0 311 -43.5t97 -130.5v-4q0 -66 -35.5 -99t-125.5 -41v-10q106 -6 143.5 -46.5t37.5 -129.5v-4q0 -76 -36 -121t-125.5 -68t-246.5 -23z" />
    <glyph glyph-name="four" unicode="4" 
d="M928 138v-138h-286v138h-614v313l484 249h416v-373h82v-189h-82zM249 337v-10h393v207h-10z" />
    <glyph glyph-name="five" unicode="5" 
d="M592 -10h-143q-71 0 -123.5 4t-108 17.5t-92 37t-64 64t-35.5 96.5h290q19 -20 52.5 -26t133.5 -6q89 0 130 5t54.5 15.5t13.5 33.5v15q0 23 -14 34t-57.5 16t-135.5 5q-113 0 -150.5 -5.5t-49.5 -22.5h-258l49 427h860v-189h-606l-14 -104h10q23 32 89 49t221 17
q109 0 179 -14t109 -44.5t53.5 -70.5t14.5 -101v-7q0 -134 -99.5 -190t-308.5 -56z" />
    <glyph glyph-name="six" unicode="6" 
d="M602 -10h-151q-229 0 -324 80.5t-95 258.5v41q0 181 97.5 260.5t324.5 79.5h109q143 0 235.5 -27t135.5 -71t61 -112h-302q-13 15 -47 21t-126 6q-90 0 -135.5 -13.5t-60 -39t-14.5 -74.5v-14h10q41 57 291 57q101 0 169.5 -8.5t111 -23.5t65.5 -42.5t30.5 -58t7.5 -77.5
v-4q0 -128 -98 -183.5t-295 -55.5zM508 171q88 0 130 5t55.5 16t13.5 34v14q0 23 -13.5 34t-55.5 16t-130 5t-130 -5t-55.5 -16t-13.5 -34v-14q0 -23 13.5 -34t55.5 -16t130 -5z" />
    <glyph glyph-name="seven" unicode="7" 
d="M1002 495l-514 -495h-385l547 501v10h-630v189h982v-205z" />
    <glyph glyph-name="eight" unicode="8" 
d="M592 -10h-164q-98 0 -168 9.5t-126.5 34t-85 70t-28.5 112.5v5q2 80 44.5 117.5t139.5 45.5v10q-82 10 -123 42t-41 95v4q0 87 95 131t314 44h122q219 0 314 -44t95 -131v-4q0 -63 -41 -95t-123 -42v-10q97 -8 139.5 -45.5t44.5 -117.5v-5q0 -67 -28.5 -112.5t-85 -70
t-126.5 -34t-168 -9.5zM435 431h150q62 0 78 13q17 14 17 36v5q0 18 -11.5 28t-49 15.5t-109.5 5.5t-109.5 -5.5t-49 -15.5t-11.5 -28v-5q0 -22 17 -36q16 -13 78 -13zM510 166q84 0 125.5 7t53 18t11.5 34v4q0 32 -24.5 45.5t-98.5 13.5h-134q-74 0 -98.5 -13.5
t-24.5 -45.5v-4q0 -23 11.5 -34t53 -18t125.5 -7z" />
    <glyph glyph-name="nine" unicode="9" 
d="M418 710h151q229 0 324 -80.5t95 -258.5v-41q0 -181 -97.5 -260.5t-324.5 -79.5h-109q-143 0 -235.5 27t-135.5 71t-61 112h302q13 -15 47 -21t126 -6q89 0 134.5 13.5t60.5 39t15 74.5v14h-10q-41 -57 -291 -57q-101 0 -169.5 8.5t-111 23.5t-65.5 42.5t-30.5 58
t-7.5 77.5v4q0 128 98 183.5t295 55.5zM512 529q-88 0 -130 -5t-55.5 -16t-13.5 -34v-14q0 -23 13.5 -34t55.5 -16t130 -5t130 5t55.5 16t13.5 34v14q0 23 -13.5 34t-55.5 16t-130 5z" />
    <glyph glyph-name="colon" unicode=":" horiz-adv-x="391" 
d="M341 325h-291v205h291v-205zM341 0h-291v205h291v-205z" />
    <glyph glyph-name="semicolon" unicode=";" horiz-adv-x="391" 
d="M341 325h-291v205h291v-205zM260 -118l-17 -22h-184l92 130v10h-101v205h291v-128q0 -89 -81 -195z" />
    <glyph glyph-name="less" unicode="&#x3c;" horiz-adv-x="600" 
d="M530 234v-162l-457 182v149l457 182v-162l-258 -92v-6z" />
    <glyph glyph-name="equal" unicode="=" horiz-adv-x="600" 
d="M542 380h-484v148h484v-148zM542 129h-484v148h484v-148z" />
    <glyph glyph-name="greater" unicode="&#x3e;" horiz-adv-x="600" 
d="M73 423v162l457 -182v-149l-457 -182v162l258 92v6z" />
    <glyph glyph-name="question" unicode="?" horiz-adv-x="858" 
d="M577 257h-321v17q0 53 35 78t144 52q78 20 98 33.5t20 38.5v2q-1 25 -26.5 35t-85.5 10q-76 0 -102.5 -16.5t-32.5 -73.5h-288q4 151 108.5 214t310.5 63h17q388 0 388 -206v-22q0 -80 -42.5 -126t-158.5 -73q-47 -10 -64 -26zM557 0h-291v205h291v-205z" />
    <glyph glyph-name="at" unicode="@" horiz-adv-x="1173" 
d="M556 -154q-271 0 -404.5 91.5t-133.5 295.5v24q0 199 148.5 313t421.5 114q280 0 423.5 -89t143.5 -280v-7q0 -297 -315 -297q-79 0 -123 14t-56.5 32.5t-17.5 50.5h-8q-24 -41 -66.5 -57.5t-109.5 -16.5h-13q-115 0 -162.5 49.5t-35.5 176.5l-2 -13q12 129 74.5 181
t182.5 52h9q57 0 97.5 -19.5t53.5 -52.5h7l8 64h250l-35 -281q-4 -33 2.5 -48t29.5 -15q44 0 73.5 46t29.5 127v7q0 139 -104 201.5t-340 62.5q-223 0 -331.5 -86t-108.5 -227v-22q0 -147 97.5 -213t320.5 -66q208 0 313 23v-109q-35 -9 -124.5 -17.5t-194.5 -8.5zM559 186
q52 0 72.5 14.5t26.5 59.5l2 15q4 28 -13 40.5t-64 12.5q-52 0 -72.5 -14.5t-26.5 -59.5l-2 -15q-4 -28 13 -40.5t64 -12.5z" />
    <glyph glyph-name="A" unicode="A" horiz-adv-x="1259" 
d="M859 700l400 -700h-345l-67 123h-452l-67 -123h-328l400 700h459zM626 525h-10l-120 -219h250z" />
    <glyph glyph-name="B" unicode="B" horiz-adv-x="1087" 
d="M1057 204v-7q0 -110 -74 -153.5t-265 -43.5h-666v700h646q186 0 262.5 -35.5t76.5 -131.5v-7q0 -81 -42.5 -118.5t-141.5 -44.5v-10q111 -5 157.5 -38.5t46.5 -110.5zM624 517h-272v-93h297q52 0 70 9t18 32v4q0 27 -22 37.5t-91 10.5zM616 281h-264v-98h264
q86 0 113.5 10t27.5 38v3q0 28 -26 37.5t-115 9.5z" />
    <glyph glyph-name="C" unicode="C" horiz-adv-x="1108" 
d="M606 -10h-100q-262 0 -368 73t-106 267v40q0 194 106 267t368 73h100q242 0 349 -61t123 -216h-306q-15 49 -55 64t-157 15h-8q-71 0 -113 -7.5t-64.5 -27t-29.5 -45.5t-7 -71v-23q0 -60 14 -89.5t60.5 -45t139.5 -15.5h8q117 0 157 15t55 64h306q-16 -155 -123 -216
t-349 -61z" />
    <glyph glyph-name="D" unicode="D" horiz-adv-x="1094" 
d="M1062 360v-20q0 -101 -21.5 -164.5t-76.5 -104t-141.5 -56t-224.5 -15.5h-546v700h533q271 0 374 -72t103 -268zM516 502h-164v-305h164q82 0 128 6t72 25t33 45t7 74v4q0 65 -16 94.5t-66 43t-158 13.5z" />
    <glyph glyph-name="E" unicode="E" horiz-adv-x="961" 
d="M913 183v-183h-861v700h861v-183h-561v-75h561v-183h-561v-76h561z" />
    <glyph glyph-name="F" unicode="F" horiz-adv-x="961" 
d="M352 259v-259h-300v700h861v-183h-561v-75h561v-183h-561z" />
    <glyph glyph-name="G" unicode="G" horiz-adv-x="1147" 
d="M630 -10h-104q-273 0 -383.5 73t-110.5 268v39q0 194 110.5 267t383.5 73h104q159 0 254 -21t149.5 -69.5t81.5 -136.5h-329q-30 19 -64.5 24t-138.5 5h-31q-71 0 -113 -7.5t-64.5 -27t-29.5 -45.5t-7 -71v-22q0 -45 7 -71t29.5 -45.5t64.5 -27t113 -7.5h31q108 0 166 11
q57 11 61 60h-281v173h586v-131q0 -95 -29.5 -156.5t-94 -95t-149 -46.5t-212.5 -13z" />
    <glyph glyph-name="H" unicode="H" horiz-adv-x="1151" 
d="M1099 700v-700h-300v244h-447v-244h-300v700h300v-243h447v243h300z" />
    <glyph glyph-name="I" unicode="I" horiz-adv-x="404" 
d="M352 700v-700h-300v700h300z" />
    <glyph glyph-name="J" unicode="J" horiz-adv-x="642" 
d="M188 0h-188v213h87q101 0 144.5 9.5t59 33.5t15.5 81v363h306v-360q0 -69 -6.5 -116.5t-24 -88t-47 -64.5t-78 -41t-113 -23.5t-155.5 -6.5z" />
    <glyph glyph-name="K" unicode="K" horiz-adv-x="1189" 
d="M352 171v-171h-300v700h300v-254h11l389 254h426l-436 -278l447 -422h-419l-270 260h-11z" />
    <glyph glyph-name="L" unicode="L" horiz-adv-x="889" 
d="M873 213v-213h-821v700h300v-487h521z" />
    <glyph glyph-name="M" unicode="M" horiz-adv-x="1509" 
d="M1457 700v-700h-300v511h-10l-248 -511h-289l-248 511h-10v-511h-300v700h533l183 -378h10l183 378h496z" />
    <glyph glyph-name="N" unicode="N" horiz-adv-x="1197" 
d="M1145 700v-700h-454l-349 456h-10v-456h-280v700h454l349 -457h10v457h280z" />
    <glyph glyph-name="O" unicode="O" horiz-adv-x="1156" 
d="M630 -10h-104q-273 0 -383.5 73t-110.5 267v40q0 194 110.5 267t383.5 73h104q273 0 383.5 -73t110.5 -267v-40q0 -194 -110.5 -267t-383.5 -73zM568 188h20q62 0 103 5.5t66.5 15.5t38.5 29.5t17.5 41.5t4.5 58v23q0 37 -4.5 59t-17 41.5t-38.5 29.5t-67 15.5t-103 5.5
h-20q-62 0 -103 -5.5t-67 -15.5t-38.5 -29.5t-17 -41.5t-4.5 -59v-23q0 -45 7 -70.5t31 -45t69.5 -27t122.5 -7.5z" />
    <glyph glyph-name="P" unicode="P" horiz-adv-x="1069" 
d="M352 186v-186h-300v700h636q205 0 287 -54t82 -196v-14q0 -133 -83.5 -191.5t-285.5 -58.5h-336zM646 517h-294v-148h294q67 0 89 14.5t22 55.5v8q0 41 -22 55.5t-89 14.5z" />
    <glyph glyph-name="Q" unicode="Q" horiz-adv-x="1156" 
d="M1140 213v-213h-614q-139 0 -228.5 14.5t-151.5 52t-88 101t-26 162.5v40q0 194 110.5 267t383.5 73h104q180 0 291 -36t157 -100.5t46 -163.5v-13q0 -150 -137 -174v-10h153zM568 198h20q62 0 103 5.5t66.5 15.5t38.5 29.5t17.5 41.5t4.5 58v13q0 45 -7 70.5t-31 45.5
t-69.5 27.5t-122.5 7.5h-20q-62 0 -103 -5.5t-67 -15.5t-38.5 -29.5t-17 -41.5t-4.5 -59v-13q0 -45 7 -70.5t31 -45t69.5 -27t122.5 -7.5z" />
    <glyph glyph-name="R" unicode="R" horiz-adv-x="1097" 
d="M352 206v-206h-300v700h666q187 0 263 -41t76 -138v-35q0 -84 -37.5 -119t-130.5 -44v-10q49 -6 76 -13.5t50.5 -25t32.5 -48.5t9 -80v-146h-300v136q0 28 -8 41.5t-38.5 21t-94.5 7.5h-264zM616 517h-264v-128h326q42 0 60.5 13t18.5 43v6q0 38 -28 52t-113 14z" />
    <glyph glyph-name="S" unicode="S" horiz-adv-x="1070" 
d="M579 -10h-87q-80 0 -139.5 4.5t-119.5 18t-100 37.5t-69.5 64.5t-39.5 96.5h322q11 -26 51 -34.5t157 -8.5q83 0 125 5.5t54.5 15t12.5 28.5v4q0 21 -14.5 29t-55.5 9l-302 10q-133 4 -204 24.5t-99 61t-28 113.5v10q0 135 102.5 183.5t366.5 48.5h59q80 0 139.5 -4.5
t120.5 -19t101.5 -39t69.5 -67t37 -101.5h-323q-9 30 -47.5 41.5t-142.5 11.5q-107 0 -142 -10.5t-35 -40.5v-2q0 -21 14.5 -29t55.5 -9l298 -10q134 -4 205 -23.5t98.5 -57.5t27.5 -108v-7q0 -143 -102.5 -194t-366.5 -51z" />
    <glyph glyph-name="T" unicode="T" horiz-adv-x="922" 
d="M611 487v-487h-300v487h-301v213h902v-213h-301z" />
    <glyph glyph-name="U" unicode="U" horiz-adv-x="1028" 
d="M574 -10h-120q-91 0 -155.5 6.5t-113 23.5t-78 41t-47 64.5t-24 88t-6.5 116.5v370h306v-362q0 -98 30.5 -124t139.5 -26h16q109 0 139.5 26t30.5 124v362h306v-370q0 -69 -6.5 -116.5t-24 -88t-47 -64.5t-78 -41t-113 -23.5t-155.5 -6.5z" />
    <glyph glyph-name="V" unicode="V" horiz-adv-x="1169" 
d="M1169 700l-400 -700h-369l-400 700h356l237 -443h10l239 443h327z" />
    <glyph glyph-name="W" unicode="W" horiz-adv-x="1567" 
d="M1567 700l-248 -700h-388l-138 407l-157 -407h-384l-252 700h333l138 -459h10l153 459h331l156 -459h10l133 459h303z" />
    <glyph glyph-name="X" unicode="X" horiz-adv-x="1217" 
d="M808 360l409 -360h-409l-205 200h-12l-214 -200h-377l412 363l-381 337h403l178 -176h11l186 176h385z" />
    <glyph glyph-name="Y" unicode="Y" horiz-adv-x="1092" 
d="M696 302v-302h-300v302l-396 398h367l194 -206h10l193 206h328z" />
    <glyph glyph-name="Z" unicode="Z" horiz-adv-x="1011" 
d="M981 203v-203h-951v183l493 314h-448v203h881v-183l-493 -314h518z" />
    <glyph glyph-name="bracketleft" unicode="[" horiz-adv-x="367" 
d="M338 23v-113h-272v790h272v-113h-127v-564h127z" />
    <glyph glyph-name="backslash" unicode="\" horiz-adv-x="564" 
d="M146 700l418 -800h-146l-418 800h146z" />
    <glyph glyph-name="bracketright" unicode="]" horiz-adv-x="367" 
d="M29 587v113h272v-790h-272v113h127v564h-127z" />
    <glyph glyph-name="asciicircum" unicode="^" horiz-adv-x="600" 
d="M355 700l211 -506h-163l-101 254h-4l-101 -254h-163l211 506h110z" />
    <glyph glyph-name="underscore" unicode="_" horiz-adv-x="780" 
d="M780 -150h-780v115h780v-115z" />
    <glyph glyph-name="grave" unicode="`" horiz-adv-x="500" 
d="M370 700l101 -120h-287l-156 120h342z" />
    <glyph glyph-name="a" unicode="a" horiz-adv-x="800" 
d="M780 311v-311h-271v88h-8q-38 -98 -235 -98q-137 0 -197.5 41.5t-60.5 130.5v9q0 75 48.5 107.5t140.5 35.5l312 10v13q0 35 -20 46q-20 12 -80 12q-48 0 -67 -7t-29 -23h-282q22 60 57 95.5t115 57.5t211 22h13q147 0 221 -20t103 -67.5t29 -141.5zM282 169v-4
q0 -24 17 -33t64 -9q71 0 108.5 23t37.5 62v4l-165 -5q-62 -1 -62 -38z" />
    <glyph glyph-name="b" unicode="b" horiz-adv-x="874" 
d="M291 0h-271v700h271v-252h8q21 48 79 70t163 22h6q160 0 234.5 -57.5t74.5 -202.5v-30q0 -145 -74.5 -202.5t-234.5 -57.5h-6q-105 0 -163 22t-79 70h-8v-82zM438 166q67 0 97.5 8t40 26t9.5 58v14q0 39 -9.5 56.5t-40.5 26.5t-97 9t-97 -9t-40.5 -26.5t-9.5 -56.5v-14
q0 -40 9.5 -58t40 -26t97.5 -8z" />
    <glyph glyph-name="c" unicode="c" horiz-adv-x="848" 
d="M446 -10h-50q-209 0 -293.5 56t-84.5 204v30q0 148 84.5 204t293.5 56h50q106 0 178 -13.5t115 -42.5t64 -66t29 -91h-274q-15 20 -40.5 28.5t-81.5 8.5q-66 0 -97 -9t-40.5 -26.5t-9.5 -56.5v-14q0 -40 9.5 -58t40 -26t97.5 -8q56 0 81.5 8.5t40.5 28.5h274
q-8 -54 -29 -91t-64 -66t-115 -42.5t-178 -13.5z" />
    <glyph glyph-name="d" unicode="d" horiz-adv-x="874" 
d="M854 700v-700h-271v82h-8q-21 -48 -79 -70t-163 -22h-6q-160 0 -234.5 57.5t-74.5 202.5v30q0 145 74.5 202.5t234.5 57.5h6q105 0 163 -22t79 -70h8v252h271zM436 166q67 0 97.5 8t40 26t9.5 58v14q0 39 -9.5 56.5t-40.5 26.5t-97 9t-97 -9t-40.5 -26.5t-9.5 -56.5v-14
q0 -40 9.5 -58t40 -26t97.5 -8z" />
    <glyph glyph-name="e" unicode="e" horiz-adv-x="812" 
d="M519 177h271q-17 -74 -52.5 -112.5t-112.5 -56.5t-219 -18h-10q-209 0 -293.5 56t-84.5 204v30q0 148 84.5 204t293.5 56h10q210 0 299 -56.5t89 -203.5v-51h-505q1 -53 21.5 -67t95.5 -14q57 0 78.5 5.5t34.5 23.5zM406 396q-68 0 -90.5 -12t-25.5 -55h233v4
q0 37 -24 50t-93 13z" />
    <glyph glyph-name="f" unicode="f" horiz-adv-x="574" 
d="M138 352h-118v178h119q7 98 74.5 134t198.5 36h154v-130h-89q-41 0 -54.5 -7.5t-13.5 -28.5v-4h157v-178h-157v-352h-271v352z" />
    <glyph glyph-name="g" unicode="g" horiz-adv-x="864" 
d="M445 -170h-33q-172 0 -269 33q-96 33 -125 125h271q18 -16 135 -16q68 0 99.5 10.5t40.5 29.5t9 61v48h-8q-25 -46 -77 -66t-156 -20h-5q-160 0 -234.5 53.5t-74.5 189.5v19q0 136 74.5 189.5t234.5 53.5h5q104 0 157 -20.5t76 -67.5h8v78h271v-447q0 -145 -90 -199
t-309 -54zM431 199q68 0 96.5 7.5t37 23.5t8.5 55v5q0 39 -8.5 55t-37 23t-96.5 7t-96.5 -7t-37 -23t-8.5 -55v-5q0 -39 8.5 -55t37 -23.5t96.5 -7.5z" />
    <glyph glyph-name="h" unicode="h" horiz-adv-x="776" 
d="M756 310v-310h-271v272q0 60 -16.5 76t-72.5 16q-59 0 -82 -25.5t-23 -86.5v-252h-271v700h271v-252h8q47 92 198 92q51 0 86.5 -4.5t70.5 -18.5t56 -39t33.5 -67t12.5 -101z" />
    <glyph glyph-name="i" unicode="i" horiz-adv-x="311" 
d="M20 700h271v-130h-271v130zM20 530h271v-530h-271v530z" />
    <glyph glyph-name="j" unicode="j" horiz-adv-x="311" 
d="M20 700h271v-130h-271v130zM20 530h271v-366q0 -145 -11.5 -198t-67.5 -136h-265q47 71 60 117t13 137v446z" />
    <glyph glyph-name="k" unicode="k" horiz-adv-x="869" 
d="M291 82v-82h-271v700h271v-379h8l231 209h311l-250 -209l278 -321h-339l-131 166h-9z" />
    <glyph glyph-name="l" unicode="l" horiz-adv-x="311" 
d="M291 700v-700h-271v700h271z" />
    <glyph glyph-name="m" unicode="m" horiz-adv-x="1201" 
d="M1181 310v-310h-271v272q0 59 -15 75.5t-65 16.5q-53 0 -73.5 -25.5t-20.5 -86.5v-252h-271v272q0 59 -15 75.5t-65 16.5q-53 0 -73.5 -25.5t-20.5 -86.5v-252h-271v530h271v-83h8q44 93 189 93q85 0 139.5 -19.5t82.5 -73.5h8q52 93 204 93q51 0 86.5 -4.5t70.5 -18.5
t56 -39t33.5 -67t12.5 -101z" />
    <glyph glyph-name="n" unicode="n" horiz-adv-x="776" 
d="M756 310v-310h-271v272q0 60 -16.5 76t-72.5 16q-59 0 -82 -25.5t-23 -86.5v-252h-271v530h271v-82h8q47 92 198 92q51 0 86.5 -4.5t70.5 -18.5t56 -39t33.5 -67t12.5 -101z" />
    <glyph glyph-name="o" unicode="o" horiz-adv-x="872" 
d="M471 -10h-70q-207 0 -295 56.5t-88 203.5v30q0 147 88 203.5t295 56.5h70q208 0 295.5 -56.5t87.5 -203.5v-30q0 -147 -87.5 -203.5t-295.5 -56.5zM436 166q67 0 97.5 8t40 26t9.5 58v14q0 39 -9.5 56.5t-40.5 26.5t-97 9t-97 -9t-40.5 -26.5t-9.5 -56.5v-14
q0 -40 9.5 -58t40 -26t97.5 -8z" />
    <glyph glyph-name="p" unicode="p" horiz-adv-x="874" 
d="M20 -170v700h271v-82h8q21 48 79 70t163 22h6q160 0 234.5 -57.5t74.5 -202.5v-30q0 -145 -74.5 -202.5t-234.5 -57.5h-6q-105 0 -163 22t-79 70h-8v-252h-271zM438 364q-67 0 -97.5 -8t-40 -26t-9.5 -58v-14q0 -39 9.5 -56.5t40.5 -26.5t97 -9t97 9t40.5 26.5t9.5 56.5
v14q0 40 -9.5 58t-40 26t-97.5 8z" />
    <glyph glyph-name="q" unicode="q" horiz-adv-x="874" 
d="M583 530h271v-700h-271v252h-8q-21 -48 -79 -70t-163 -22h-6q-160 0 -234.5 57.5t-74.5 202.5v30q0 145 74.5 202.5t234.5 57.5h6q105 0 163 -22t79 -70h8v82zM436 364q-67 0 -97.5 -8t-40 -26t-9.5 -58v-14q0 -39 9.5 -56.5t40.5 -26.5t97 -9t97 9t40.5 26.5t9.5 56.5
v14q0 40 -9.5 58t-40 26t-97.5 8z" />
    <glyph glyph-name="r" unicode="r" horiz-adv-x="533" 
d="M517 530h8v-196h-87q-65 0 -97 -12t-41 -33.5t-9 -66.5v-222h-271v530h271v-83h8q24 47 75.5 65t142.5 18z" />
    <glyph glyph-name="s" unicode="s" horiz-adv-x="852" 
d="M448 -10h-45q-86 0 -148 6.5t-115 24t-83 50t-39 81.5h294q15 -16 41 -22.5t81 -6.5q68 0 87 9q20 9 20 29v4q0 15 -10 21.5t-37 7.5l-249 9q-121 4 -165.5 37.5t-44.5 113.5v8q0 101 86.5 139.5t303.5 38.5h16q67 0 115.5 -3t97 -13t81 -28t56.5 -47.5t35 -70.5h-294
q-18 18 -36.5 23.5t-65.5 5.5q-57 0 -78.5 -8.5t-21.5 -27.5v-4q0 -15 10 -21.5t37 -7.5l249 -9q121 -4 165.5 -37.5t44.5 -113.5v-9q0 -101 -86.5 -140t-301.5 -39z" />
    <glyph glyph-name="t" unicode="t" horiz-adv-x="566" 
d="M118 352h-98v178h98v170h271v-170h157v-178h-157v-94q0 -60 19.5 -76t91.5 -16h46v-166h-148q-160 0 -220 47.5t-60 166.5v138z" />
    <glyph glyph-name="u" unicode="u" horiz-adv-x="776" 
d="M20 220v310h271v-272q0 -60 16.5 -76t72.5 -16q59 0 82 25.5t23 86.5v252h271v-530h-271v82h-8q-47 -92 -198 -92q-51 0 -86.5 4.5t-70.5 18.5t-56 39t-33.5 67t-12.5 101z" />
    <glyph glyph-name="v" unicode="v" horiz-adv-x="799" 
d="M819 530l-243 -530h-353l-243 530h308l121 -314h8l122 314h280z" />
    <glyph glyph-name="w" unicode="w" horiz-adv-x="1315" 
d="M1315 530l-192 -530h-344l-111 291l-111 -291h-362l-195 530h306l100 -314h8l115 314h292l115 -314h8l100 314h271z" />
    <glyph glyph-name="x" unicode="x" horiz-adv-x="982" 
d="M673 271l309 -271h-362l-130 135h-8l-144 -135h-338l303 269l-284 261h362l114 -117h8l122 117h339z" />
    <glyph glyph-name="y" unicode="y" horiz-adv-x="760" 
d="M780 530l-355 -700h-285l98 165l-258 535h291l114 -275h8l110 275h277z" />
    <glyph glyph-name="z" unicode="z" horiz-adv-x="761" 
d="M741 178v-178h-721v168l330 184h-300v178h661v-168l-330 -184h360z" />
    <glyph glyph-name="braceleft" unicode="{" horiz-adv-x="367" 
d="M338 23v-113h-62q-113 0 -148.5 41.5t-35.5 151.5v33q0 61 -13 78t-69 20v142q56 3 69 20t13 78v33q0 110 35.5 151.5t148.5 41.5h62v-113h-30q-45 0 -58 -24t-13 -106v-26q0 -66 -18.5 -88t-91.5 -34v-8q73 -12 91.5 -34t18.5 -88v-26q0 -82 13 -106t58 -24h30z" />
    <glyph glyph-name="bar" unicode="|" horiz-adv-x="320" 
d="M220 -100h-120v800h120v-800z" />
    <glyph glyph-name="braceright" unicode="}" horiz-adv-x="367" 
d="M91 -90h-62v113h30q46 0 58.5 24t12.5 106v26q0 66 18.5 88t91.5 34v8q-73 12 -91.5 34t-18.5 88v26q0 82 -12.5 106t-58.5 24h-30v113h62q113 0 148.5 -41.5t35.5 -151.5v-33q0 -61 13 -78t69 -20v-142q-56 -3 -69 -20t-13 -78v-33q0 -110 -35.5 -151.5t-148.5 -41.5z
" />
    <glyph glyph-name="asciitilde" unicode="~" horiz-adv-x="600" 
d="M423 222q-49 0 -132.5 33t-118.5 33q-65 0 -114 -61v153q40 56 119 56q49 0 132.5 -33t118.5 -33q65 0 114 61v-154q-15 -21 -45.5 -38t-73.5 -17z" />
    <glyph glyph-name="exclamdown" unicode="&#xa1;" horiz-adv-x="391" 
d="M50 530h291v-205h-291v205zM371 123v-293h-351v293l73 143h206z" />
    <glyph glyph-name="cent" unicode="&#xa2;" horiz-adv-x="872" 
d="M496 -10v-95h-120v95q-197 3 -277.5 59t-80.5 201v30q0 145 80.5 201t277.5 59v95h120v-95q129 -2 205.5 -29.5t108 -70.5t42.5 -113h-274q-16 21 -43.5 29t-98.5 8q-66 0 -97 -9t-40.5 -26.5t-9.5 -56.5v-14q0 -40 9.5 -58t40 -26t97.5 -8q71 0 98.5 8t43.5 29h274
q-11 -70 -42.5 -113t-108 -70.5t-205.5 -29.5z" />
    <glyph glyph-name="sterling" unicode="&#xa3;" 
d="M882 395v-90h-478v-116h583v-189h-953v189h90v116h-90v90h90q6 169 97.5 242t312.5 73h48q384 0 415 -220h-292q-11 20 -40 26.5t-107 6.5q-94 0 -124 -24t-30 -86v-18h478z" />
    <glyph glyph-name="currency" unicode="&#xa4;" horiz-adv-x="600" 
d="M300 146q-40 0 -71 6l-88 -88l-105 105l78 78q-11 38 -11 82t11 82l-78 78l105 105l88 -88q31 6 71 6q39 0 71 -6l88 88l105 -105l-78 -78q11 -38 11 -82t-11 -82l78 -78l-105 -105l-88 88q-32 -6 -71 -6zM300 259q40 0 55 14.5t15 55.5t-15 55.5t-55 14.5t-55 -14.5
t-15 -55.5t15 -55.5t55 -14.5z" />
    <glyph glyph-name="yen" unicode="&#xa5;" 
d="M368 331v38h-288v90h189l-269 241h359l165 -170h10l165 170h321l-267 -241h189v-90h-288v-38h288v-90h-288v-241h-286v241h-288v90h288z" />
    <glyph glyph-name="brokenbar" unicode="&#xa6;" horiz-adv-x="320" 
d="M220 410h-120v290h120v-290zM220 -100h-120v290h120v-290z" />
    <glyph glyph-name="section" unicode="&#xa7;" horiz-adv-x="920" 
d="M474 -170h-16q-77 0 -132 4t-108.5 17t-87 35t-55.5 59t-26 88h231q6 -47 47 -63t138 -16q100 0 133 10.5t33 43.5v4q0 20 -18 27.5t-68 9.5l-201 9q-128 6 -193.5 22.5t-90 48t-24.5 91.5v5q0 56 31.5 87.5t102.5 40.5v8q-72 14 -99.5 45t-27.5 90v15q0 113 91.5 156
t311.5 43h15q94 0 159.5 -7.5t125 -28t91 -62.5t34.5 -105h-231q-5 47 -45.5 63t-139.5 16q-101 0 -134 -10.5t-33 -43.5v-4q0 -20 18.5 -27.5t68.5 -9.5l200 -9q129 -6 194.5 -22.5t89.5 -48t24 -91.5v-5q0 -56 -31 -87.5t-102 -40.5v-8q72 -14 99.5 -45t27.5 -90v-15
q0 -112 -92.5 -155.5t-310.5 -43.5zM461 217q102 0 132 8.5t30 41.5v5q0 34 -30 42.5t-132 8.5t-132 -8.5t-30 -42.5v-5q0 -33 30 -41.5t132 -8.5z" />
    <glyph glyph-name="dieresis" unicode="&#xa8;" horiz-adv-x="500" 
d="M17 700h213v-130h-213v130zM270 700h213v-130h-213v130z" />
    <glyph glyph-name="copyright" unicode="&#xa9;" horiz-adv-x="994" 
d="M557 -10h-120q-215 0 -310 75t-95 229v112q0 154 95 229t310 75h120q215 0 310 -75t95 -229v-112q0 -154 -95 -229t-310 -75zM454 25h86q115 0 191 18t117.5 57.5t58 91t16.5 127.5v62q0 76 -16.5 127.5t-58 91t-117.5 57.5t-191 18h-86q-115 0 -190.5 -18t-117.5 -57.5
t-58 -91t-16 -127.5v-62q0 -76 16 -127.5t58 -91t117.5 -57.5t190.5 -18zM534 134h-59q-162 0 -226.5 43t-64.5 162v22q0 119 64.5 162t226.5 43h59q150 0 213 -34t76 -131l2 -14h-208l-1 4q-9 32 -26.5 38.5t-82.5 6.5h-4q-76 0 -93.5 -12t-17.5 -67v-14q0 -55 17.5 -67
t93.5 -12h4q65 0 82.5 6.5t26.5 38.5l1 4h208l-2 -14q-13 -97 -76 -131t-213 -34z" />
    <glyph glyph-name="ordfeminine" unicode="&#xaa;" horiz-adv-x="658" 
d="M638 525v-245h-241v78h-4q-23 -86 -181 -86q-111 0 -157.5 32t-46.5 105v7q0 110 150 113l239 8v11q0 23 -10.5 29.5t-51.5 6.5q-49 0 -59 -17h-251q15 37 33.5 60t52.5 43t90 29t139 9h7q124 0 185 -16.5t83.5 -53.5t22.5 -113zM251 422v-4q0 -15 10 -21t38 -6
q49 0 73.5 15.5t24.5 41.5v2l-105 -4q-24 -1 -32.5 -5.5t-8.5 -18.5z" />
    <glyph glyph-name="guillemotleft" unicode="&#xab;" horiz-adv-x="548" 
d="M36 289v6l84 219h164l-89 -222l89 -222h-164zM257 289v6l84 219h164l-89 -222l89 -222h-164z" />
    <glyph glyph-name="logicalnot" unicode="&#xac;" horiz-adv-x="600" 
d="M569 403v-353h-148v205h-371v148h519z" />
    <glyph glyph-name="registered" unicode="&#xae;" horiz-adv-x="994" 
d="M557 -10h-120q-215 0 -310 75t-95 229v112q0 154 95 229t310 75h120q215 0 310 -75t95 -229v-112q0 -154 -95 -229t-310 -75zM454 25h86q115 0 191 18t117.5 57.5t58 91t16.5 127.5v62q0 76 -16.5 127.5t-58 91t-117.5 57.5t-191 18h-86q-115 0 -190.5 -18t-117.5 -57.5
t-58 -91t-16 -127.5v-62q0 -76 16 -127.5t58 -91t117.5 -57.5t190.5 -18zM428 256v-116h-204v420h368q118 0 164 -25q47 -26 47 -83v-21q0 -54 -27 -76t-96 -24v-4q73 -6 98 -25t25 -77v-85h-203v79q0 22 -12.5 29.5t-64.5 7.5h-95zM523 441h-95v-66h138q34 0 34 28v3
q0 21 -15 28t-62 7z" />
    <glyph glyph-name="overscore" unicode="&#xaf;" horiz-adv-x="500" 
d="M500 680v-90h-500v90h500z" />
    <glyph glyph-name="degree" unicode="&#xb0;" horiz-adv-x="428" 
d="M214 384q-69 0 -118 46t-49 117t49 117t118 46t118 -46t49 -117t-49 -117t-118 -46zM214 479q28 0 47 19t19 49t-19 49t-47 19t-47 -19t-19 -49t19 -49t47 -19z" />
    <glyph glyph-name="plusminus" unicode="&#xb1;" horiz-adv-x="600" 
d="M226 375h-148v148h148v110h148v-110h148v-148h-148v-110h-148v110zM522 61h-444v148h444v-148z" />
    <glyph glyph-name="twosuperior" unicode="&#xb2;" horiz-adv-x="651" 
d="M637 507v-127h-622v99q0 79 49 112q49 32 164 43l132 11q33 1 33 20v4q0 12 -12 17t-48 5q-58 0 -73 -32h-243q9 81 85.5 114t221.5 33h11q163 0 232 -31.5t69 -98.5v-6q0 -66 -38 -96t-135 -37l-193 -16q-18 -1 -18 -10v-4h385z" />
    <glyph glyph-name="threesuperior" unicode="&#xb3;" horiz-adv-x="651" 
d="M352 374h-38q-47 0 -83.5 2.5t-72 8t-61 16t-46.5 26t-32.5 39t-14.5 53.5h244q9 -17 25.5 -23.5t54.5 -6.5q41 0 53.5 6t12.5 19v4q0 9 -6 13.5t-25 4.5h-111v110h95q28 0 28 19v4q0 22 -49 22q-50 0 -60 -28h-245q6 50 31.5 80t86.5 46.5t164 16.5h29q163 0 229 -26
t66 -82v-4q0 -38 -24.5 -55t-82.5 -22v-8q58 -5 91 -22q34 -16 34 -71v-4q0 -75 -68 -107q-66 -31 -225 -31z" />
    <glyph glyph-name="acute" unicode="&#xb4;" horiz-adv-x="500" 
d="M471 700l-156 -120h-287l101 120h342z" />
    <glyph glyph-name="mu" unicode="&#xb5;" horiz-adv-x="776" 
d="M756 530v-530h-271v82h-8q-21 -42 -66 -67t-106 -25q-43 0 -57 12h-4l27 -164v-8h-251v700h271v-272q0 -60 18 -76t79 -16t79 16t18 76v272h271z" />
    <glyph glyph-name="paragraph" unicode="&#xb6;" horiz-adv-x="718" 
d="M658 700v-800h-130v670h-90v-670h-130v430h-19q-144 0 -210.5 40.5t-66.5 139.5v10q0 104 64.5 142t212.5 38h369z" />
    <glyph glyph-name="middot" unicode="&#xb7;" horiz-adv-x="391" 
d="M341 189h-291v205h291v-205z" />
    <glyph glyph-name="cedilla" unicode="&#xb8;" horiz-adv-x="500" 
d="M86 -140l72 140h253l-49 -140h-276z" />
    <glyph glyph-name="onesuperior" unicode="&#xb9;" horiz-adv-x="474" 
d="M438 800v-420h-241v270h-7l-158 -79v186l117 43h289z" />
    <glyph glyph-name="ordmasculine" unicode="&#xba;" horiz-adv-x="716" 
d="M387 272h-57q-172 0 -242 45t-70 163v20q0 118 70 163t242 45h57q170 0 240.5 -45t70.5 -163v-20q0 -118 -70.5 -163t-240.5 -45zM358 423q69 0 85 9.5t16 53.5v8q0 44 -16 53.5t-85 9.5t-85 -9.5t-16 -53.5v-8q0 -44 16 -53.5t85 -9.5z" />
    <glyph glyph-name="guillemotright" unicode="&#xbb;" horiz-adv-x="548" 
d="M291 295v-6l-84 -219h-164l89 222l-89 222h164zM512 295v-6l-84 -219h-164l89 222l-89 222h164z" />
    <glyph glyph-name="onequarter" unicode="&#xbc;" horiz-adv-x="1386" 
d="M438 700v-420h-241v270h-7l-158 -79v186l117 43h289zM935 700l-428 -700h-156l428 700h156zM1328 76v-76h-241v76h-342v193l242 151h341v-216h41v-128h-41zM922 211v-7h165v104h-8z" />
    <glyph glyph-name="onehalf" unicode="&#xbd;" horiz-adv-x="1436" 
d="M438 700v-420h-241v270h-7l-158 -79v186l117 43h289zM935 700l-428 -700h-156l428 700h156zM1422 127v-127h-622v99q0 79 49 112q49 32 164 43l132 11q33 1 33 20v4q0 12 -12 17t-48 5q-58 0 -73 -32h-243q9 81 85.5 114t221.5 33h11q163 0 232 -31.5t69 -98.5v-6
q0 -66 -37.5 -96t-135.5 -37l-193 -16q-18 -1 -18 -10v-4h385z" />
    <glyph glyph-name="threequarters" unicode="&#xbe;" horiz-adv-x="1536" 
d="M352 274h-38q-47 0 -83.5 2.5t-72 8t-61 16t-46.5 26t-32.5 39t-14.5 53.5h244q9 -17 25.5 -23.5t54.5 -6.5q41 0 53.5 6t12.5 19v4q0 9 -6 13.5t-25 4.5h-111v110h95q28 0 28 19v4q0 22 -49 22q-50 0 -60 -28h-245q6 50 31.5 80t86.5 46.5t164 16.5h29q163 0 229 -26
t66 -82v-4q0 -38 -24.5 -55t-82.5 -22v-8q58 -5 91 -22q34 -16 34 -71v-4q0 -75 -68 -107q-66 -31 -225 -31zM1085 700l-428 -700h-156l428 700h156zM1478 76v-76h-241v76h-342v193l242 151h341v-216h41v-128h-41zM1072 211v-7h165v104h-8z" />
    <glyph glyph-name="questiondown" unicode="&#xbf;" horiz-adv-x="858" 
d="M301 530h291v-205h-291v205zM281 273h321v-17q0 -53 -35 -78t-144 -52q-78 -20 -98 -33.5t-20 -38.5v-2q1 -25 26.5 -35t85.5 -10q76 0 102.5 16.5t32.5 73.5h288q-4 -151 -108.5 -214t-310.5 -63h-17q-388 0 -388 206v22q0 80 42.5 126t158.5 73q47 10 64 26z" />
    <glyph glyph-name="Agrave" unicode="&#xc0;" horiz-adv-x="1259" 
d="M672 860l101 -120h-287l-156 120h342zM859 700l400 -700h-345l-67 123h-452l-67 -123h-328l400 700h459zM626 525h-10l-120 -219h250z" />
    <glyph glyph-name="Aacute" unicode="&#xc1;" horiz-adv-x="1259" 
d="M929 860l-156 -120h-287l101 120h342zM859 700l400 -700h-345l-67 123h-452l-67 -123h-328l400 700h459zM626 525h-10l-120 -219h250z" />
    <glyph glyph-name="Acircumflex" unicode="&#xc2;" horiz-adv-x="1259" 
d="M832 860l131 -120h-227l-107 61l-106 -61h-227l131 120h405zM859 700l400 -700h-345l-67 123h-452l-67 -123h-328l400 700h459zM626 525h-10l-120 -219h250z" />
    <glyph glyph-name="Atilde" unicode="&#xc3;" horiz-adv-x="1259" 
d="M727 730q-47 0 -106 16t-70 16q-14 0 -19 -4t-8 -18h-179q11 74 53.5 102t122.5 28q47 0 106 -16t70 -16q14 0 19 4t8 18h189q-11 -73 -57.5 -101.5t-128.5 -28.5zM859 700l400 -700h-345l-67 123h-452l-67 -123h-328l400 700h459zM626 525h-10l-120 -219h250z" />
    <glyph glyph-name="Adieresis" unicode="&#xc4;" horiz-adv-x="1259" 
d="M396 870h213v-130h-213v130zM649 870h213v-130h-213v130zM859 700l400 -700h-345l-67 123h-452l-67 -123h-328l400 700h459zM626 525h-10l-120 -219h250z" />
    <glyph glyph-name="Aring" unicode="&#xc5;" horiz-adv-x="1259" 
d="M629 716q-123 0 -176 23.5t-53 90.5t53 90.5t176 23.5t176 -23.5t53 -90.5t-53 -90.5t-176 -23.5zM629 792q62 0 62 38t-62 38t-62 -38t62 -38zM859 700l400 -700h-345l-67 123h-452l-67 -123h-328l400 700h459zM626 525h-10l-120 -219h250z" />
    <glyph glyph-name="AE" unicode="&#xc6;" horiz-adv-x="1648" 
d="M1600 183v-183h-861v123h-300l-88 -123h-351l551 700h1049v-183h-561v-75h561v-183h-561v-76h561zM739 525h-11l-157 -219h168v219z" />
    <glyph glyph-name="Ccedilla" unicode="&#xc7;" horiz-adv-x="1108" 
d="M772 267h306q-15 -144 -106.5 -206t-291.5 -70l-46 -131h-276l68 132q-215 9 -304.5 84.5t-89.5 253.5v40q0 194 106 267t368 73h100q242 0 349 -61t123 -216h-306q-15 49 -55 64t-157 15h-8q-71 0 -113 -7.5t-64.5 -27t-29.5 -45.5t-7 -71v-23q0 -60 14 -89.5t60.5 -45
t139.5 -15.5h8q117 0 157 15t55 64z" />
    <glyph glyph-name="Egrave" unicode="&#xc8;" horiz-adv-x="961" 
d="M527 860l101 -120h-287l-156 120h342zM913 183v-183h-861v700h861v-183h-561v-75h561v-183h-561v-76h561z" />
    <glyph glyph-name="Eacute" unicode="&#xc9;" horiz-adv-x="961" 
d="M784 860l-156 -120h-287l101 120h342zM913 183v-183h-861v700h861v-183h-561v-75h561v-183h-561v-76h561z" />
    <glyph glyph-name="Ecircumflex" unicode="&#xca;" horiz-adv-x="961" 
d="M687 860l131 -120h-227l-107 61l-106 -61h-227l131 120h405zM913 183v-183h-861v700h861v-183h-561v-75h561v-183h-561v-76h561z" />
    <glyph glyph-name="Edieresis" unicode="&#xcb;" horiz-adv-x="961" 
d="M251 870h213v-130h-213v130zM504 870h213v-130h-213v130zM913 183v-183h-861v700h861v-183h-561v-75h561v-183h-561v-76h561z" />
    <glyph glyph-name="Igrave" unicode="&#xcc;" horiz-adv-x="404" 
d="M245 860l101 -120h-287l-156 120h342zM352 700v-700h-300v700h300z" />
    <glyph glyph-name="Iacute" unicode="&#xcd;" horiz-adv-x="404" 
d="M502 860l-156 -120h-287l101 120h342zM352 700v-700h-300v700h300z" />
    <glyph glyph-name="Icircumflex" unicode="&#xce;" horiz-adv-x="404" 
d="M405 860l131 -120h-227l-107 61l-106 -61h-227l131 120h405zM352 700v-700h-300v700h300z" />
    <glyph glyph-name="Idieresis" unicode="&#xcf;" horiz-adv-x="404" 
d="M-31 870h213v-130h-213v130zM222 870h213v-130h-213v130zM352 700v-700h-300v700h300z" />
    <glyph glyph-name="Eth" unicode="&#xd0;" horiz-adv-x="1094" 
d="M52 270h-52v160h52v270h533q271 0 374 -72t103 -268v-20q0 -101 -21.5 -164.5t-76.5 -104t-141.5 -56t-224.5 -15.5h-546v270zM550 430v-160h-198v-73h164q82 0 128 6t72 25t33 45t7 74v4q0 65 -16 94.5t-66 43t-158 13.5h-164v-72h198z" />
    <glyph glyph-name="Ntilde" unicode="&#xd1;" horiz-adv-x="1197" 
d="M697 730q-47 0 -106 16t-70 16q-14 0 -19 -4t-8 -18h-179q11 74 53.5 102t122.5 28q47 0 106 -16t70 -16q14 0 19 4t8 18h189q-11 -73 -57.5 -101.5t-128.5 -28.5zM1145 700v-700h-454l-349 456h-10v-456h-280v700h454l349 -457h10v457h280z" />
    <glyph glyph-name="Ograve" unicode="&#xd2;" horiz-adv-x="1156" 
d="M621 860l101 -120h-287l-156 120h342zM630 -10h-104q-273 0 -383.5 73t-110.5 267v40q0 194 110.5 267t383.5 73h104q273 0 383.5 -73t110.5 -267v-40q0 -194 -110.5 -267t-383.5 -73zM568 188h20q62 0 103 5.5t66.5 15.5t38.5 29.5t17.5 41.5t4.5 58v23q0 37 -4.5 59
t-17 41.5t-38.5 29.5t-67 15.5t-103 5.5h-20q-62 0 -103 -5.5t-67 -15.5t-38.5 -29.5t-17 -41.5t-4.5 -59v-23q0 -45 7 -70.5t31 -45t69.5 -27t122.5 -7.5z" />
    <glyph glyph-name="Oacute" unicode="&#xd3;" horiz-adv-x="1156" 
d="M878 860l-156 -120h-287l101 120h342zM630 -10h-104q-273 0 -383.5 73t-110.5 267v40q0 194 110.5 267t383.5 73h104q273 0 383.5 -73t110.5 -267v-40q0 -194 -110.5 -267t-383.5 -73zM568 188h20q62 0 103 5.5t66.5 15.5t38.5 29.5t17.5 41.5t4.5 58v23q0 37 -4.5 59
t-17 41.5t-38.5 29.5t-67 15.5t-103 5.5h-20q-62 0 -103 -5.5t-67 -15.5t-38.5 -29.5t-17 -41.5t-4.5 -59v-23q0 -45 7 -70.5t31 -45t69.5 -27t122.5 -7.5z" />
    <glyph glyph-name="Ocircumflex" unicode="&#xd4;" horiz-adv-x="1156" 
d="M781 860l131 -120h-227l-107 61l-106 -61h-227l131 120h405zM630 -10h-104q-273 0 -383.5 73t-110.5 267v40q0 194 110.5 267t383.5 73h104q273 0 383.5 -73t110.5 -267v-40q0 -194 -110.5 -267t-383.5 -73zM568 188h20q62 0 103 5.5t66.5 15.5t38.5 29.5t17.5 41.5
t4.5 58v23q0 37 -4.5 59t-17 41.5t-38.5 29.5t-67 15.5t-103 5.5h-20q-62 0 -103 -5.5t-67 -15.5t-38.5 -29.5t-17 -41.5t-4.5 -59v-23q0 -45 7 -70.5t31 -45t69.5 -27t122.5 -7.5z" />
    <glyph glyph-name="Otilde" unicode="&#xd5;" horiz-adv-x="1156" 
d="M676 730q-47 0 -106 16t-70 16q-14 0 -19 -4t-8 -18h-179q11 74 53.5 102t122.5 28q47 0 106 -16t70 -16q14 0 19 4t8 18h189q-11 -73 -57.5 -101.5t-128.5 -28.5zM630 -10h-104q-273 0 -383.5 73t-110.5 267v40q0 194 110.5 267t383.5 73h104q273 0 383.5 -73
t110.5 -267v-40q0 -194 -110.5 -267t-383.5 -73zM568 188h20q62 0 103 5.5t66.5 15.5t38.5 29.5t17.5 41.5t4.5 58v23q0 37 -4.5 59t-17 41.5t-38.5 29.5t-67 15.5t-103 5.5h-20q-62 0 -103 -5.5t-67 -15.5t-38.5 -29.5t-17 -41.5t-4.5 -59v-23q0 -45 7 -70.5t31 -45
t69.5 -27t122.5 -7.5z" />
    <glyph glyph-name="Odieresis" unicode="&#xd6;" horiz-adv-x="1156" 
d="M345 870h213v-130h-213v130zM598 870h213v-130h-213v130zM630 -10h-104q-273 0 -383.5 73t-110.5 267v40q0 194 110.5 267t383.5 73h104q273 0 383.5 -73t110.5 -267v-40q0 -194 -110.5 -267t-383.5 -73zM568 188h20q62 0 103 5.5t66.5 15.5t38.5 29.5t17.5 41.5t4.5 58
v23q0 37 -4.5 59t-17 41.5t-38.5 29.5t-67 15.5t-103 5.5h-20q-62 0 -103 -5.5t-67 -15.5t-38.5 -29.5t-17 -41.5t-4.5 -59v-23q0 -45 7 -70.5t31 -45t69.5 -27t122.5 -7.5z" />
    <glyph glyph-name="multiply" unicode="&#xd7;" horiz-adv-x="600" 
d="M195 329l-154 154l105 105l154 -154l154 154l105 -105l-154 -154l154 -154l-105 -105l-154 154l-154 -154l-105 105z" />
    <glyph glyph-name="Oslash" unicode="&#xd8;" horiz-adv-x="1156" 
d="M277 -40h-245l111 103q-111 75 -111 267v40q0 194 110.5 267t383.5 73h104q117 0 204 -12l46 42h244l-111 -103q111 -75 111 -267v-40q0 -194 -110.5 -267t-383.5 -73h-104q-116 0 -203 12zM338 361v-23q0 -52 13 -85l280 258q-13 1 -43 1h-20q-62 0 -103 -5.5t-67 -15.5
t-38.5 -29.5t-17 -41.5t-4.5 -59zM568 188h20q62 0 103 5.5t66.5 15.5t38.5 29.5t17.5 41.5t4.5 58v23q0 53 -13 86l-280 -258q15 -1 43 -1z" />
    <glyph glyph-name="Ugrave" unicode="&#xd9;" horiz-adv-x="1028" 
d="M558 860l101 -120h-287l-156 120h342zM574 -10h-120q-91 0 -155.5 6.5t-113 23.5t-78 41t-47 64.5t-24 88t-6.5 116.5v370h306v-362q0 -98 30.5 -124t139.5 -26h16q109 0 139.5 26t30.5 124v362h306v-370q0 -69 -6.5 -116.5t-24 -88t-47 -64.5t-78 -41t-113 -23.5
t-155.5 -6.5z" />
    <glyph glyph-name="Uacute" unicode="&#xda;" horiz-adv-x="1028" 
d="M815 860l-156 -120h-287l101 120h342zM574 -10h-120q-91 0 -155.5 6.5t-113 23.5t-78 41t-47 64.5t-24 88t-6.5 116.5v370h306v-362q0 -98 30.5 -124t139.5 -26h16q109 0 139.5 26t30.5 124v362h306v-370q0 -69 -6.5 -116.5t-24 -88t-47 -64.5t-78 -41t-113 -23.5
t-155.5 -6.5z" />
    <glyph glyph-name="Ucircumflex" unicode="&#xdb;" horiz-adv-x="1028" 
d="M718 860l131 -120h-227l-107 61l-106 -61h-227l131 120h405zM574 -10h-120q-91 0 -155.5 6.5t-113 23.5t-78 41t-47 64.5t-24 88t-6.5 116.5v370h306v-362q0 -98 30.5 -124t139.5 -26h16q109 0 139.5 26t30.5 124v362h306v-370q0 -69 -6.5 -116.5t-24 -88t-47 -64.5
t-78 -41t-113 -23.5t-155.5 -6.5z" />
    <glyph glyph-name="Udieresis" unicode="&#xdc;" horiz-adv-x="1028" 
d="M282 870h213v-130h-213v130zM535 870h213v-130h-213v130zM574 -10h-120q-91 0 -155.5 6.5t-113 23.5t-78 41t-47 64.5t-24 88t-6.5 116.5v370h306v-362q0 -98 30.5 -124t139.5 -26h16q109 0 139.5 26t30.5 124v362h306v-370q0 -69 -6.5 -116.5t-24 -88t-47 -64.5t-78 -41
t-113 -23.5t-155.5 -6.5z" />
    <glyph glyph-name="Yacute" unicode="&#xdd;" horiz-adv-x="1092" 
d="M847 860l-156 -120h-287l101 120h342zM696 302v-302h-300v302l-396 398h367l194 -206h10l193 206h328z" />
    <glyph glyph-name="Thorn" unicode="&#xde;" horiz-adv-x="1069" 
d="M352 103v-103h-300v700h300v-103h336q197 0 283 -50.5t86 -189.5v-14q0 -131 -89 -185.5t-280 -54.5h-336zM646 414h-294v-128h296q72 0 90.5 14t18.5 48v6q0 35 -20.5 47.5t-90.5 12.5z" />
    <glyph glyph-name="germandbls" unicode="&#xdf;" horiz-adv-x="949" 
d="M291 488v-488h-271v491q0 54 16.5 93.5t43.5 63t69 38t85 19.5t99 5h171q187 0 264.5 -35.5t77.5 -127.5v-18q0 -52 -28.5 -78t-90.5 -34v-8q107 -7 157.5 -46t50.5 -141v-15q0 -114 -74.5 -160.5t-252.5 -46.5h-277v158h209q57 0 78.5 11t21.5 40v10q0 29 -21.5 40
t-78.5 11h-209v158h140q45 0 62.5 13t17.5 43v3q0 36 -20.5 50.5t-79.5 14.5h-60q-62 0 -81 -13t-19 -51z" />
    <glyph glyph-name="agrave" unicode="&#xe0;" horiz-adv-x="800" 
d="M459 700l101 -120h-287l-156 120h342zM780 311v-311h-271v88h-8q-38 -98 -235 -98q-137 0 -197.5 41.5t-60.5 130.5v9q0 75 48.5 107.5t140.5 35.5l312 10v13q0 35 -20 46q-20 12 -80 12q-48 0 -67 -7t-29 -23h-282q22 60 57 95.5t115 57.5t211 22h13q147 0 221 -20
t103 -67.5t29 -141.5zM282 169v-4q0 -24 17 -33t64 -9q71 0 108.5 23t37.5 62v4l-165 -5q-62 -1 -62 -38z" />
    <glyph glyph-name="aacute" unicode="&#xe1;" horiz-adv-x="800" 
d="M716 700l-156 -120h-287l101 120h342zM780 311v-311h-271v88h-8q-38 -98 -235 -98q-137 0 -197.5 41.5t-60.5 130.5v9q0 75 48.5 107.5t140.5 35.5l312 10v13q0 35 -20 46q-20 12 -80 12q-48 0 -67 -7t-29 -23h-282q22 60 57 95.5t115 57.5t211 22h13q147 0 221 -20
t103 -67.5t29 -141.5zM282 169v-4q0 -24 17 -33t64 -9q71 0 108.5 23t37.5 62v4l-165 -5q-62 -1 -62 -38z" />
    <glyph glyph-name="acircumflex" unicode="&#xe2;" horiz-adv-x="800" 
d="M619 700l131 -120h-227l-107 61l-106 -61h-227l131 120h405zM780 311v-311h-271v88h-8q-38 -98 -235 -98q-137 0 -197.5 41.5t-60.5 130.5v9q0 75 48.5 107.5t140.5 35.5l312 10v13q0 35 -20 46q-20 12 -80 12q-48 0 -67 -7t-29 -23h-282q22 60 57 95.5t115 57.5t211 22
h13q147 0 221 -20t103 -67.5t29 -141.5zM282 169v-4q0 -24 17 -33t64 -9q71 0 108.5 23t37.5 62v4l-165 -5q-62 -1 -62 -38z" />
    <glyph glyph-name="atilde" unicode="&#xe3;" horiz-adv-x="800" 
d="M514 570q-47 0 -106 16t-70 16q-14 0 -19 -4t-8 -18h-179q11 74 53.5 102t122.5 28q47 0 106 -16t70 -16q14 0 19 4t8 18h189q-11 -73 -57.5 -101.5t-128.5 -28.5zM780 311v-311h-271v88h-8q-38 -98 -235 -98q-137 0 -197.5 41.5t-60.5 130.5v9q0 75 48.5 107.5
t140.5 35.5l312 10v13q0 35 -20 46q-20 12 -80 12q-48 0 -67 -7t-29 -23h-282q22 60 57 95.5t115 57.5t211 22h13q147 0 221 -20t103 -67.5t29 -141.5zM282 169v-4q0 -24 17 -33t64 -9q71 0 108.5 23t37.5 62v4l-165 -5q-62 -1 -62 -38z" />
    <glyph glyph-name="adieresis" unicode="&#xe4;" horiz-adv-x="800" 
d="M183 700h213v-130h-213v130zM436 700h213v-130h-213v130zM780 311v-311h-271v88h-8q-38 -98 -235 -98q-137 0 -197.5 41.5t-60.5 130.5v9q0 75 48.5 107.5t140.5 35.5l312 10v13q0 35 -20 46q-20 12 -80 12q-48 0 -67 -7t-29 -23h-282q22 60 57 95.5t115 57.5t211 22h13
q147 0 221 -20t103 -67.5t29 -141.5zM282 169v-4q0 -24 17 -33t64 -9q71 0 108.5 23t37.5 62v4l-165 -5q-62 -1 -62 -38z" />
    <glyph glyph-name="aring" unicode="&#xe5;" horiz-adv-x="800" 
d="M416 556q-123 0 -176 23.5t-53 90.5t53 90.5t176 23.5t176 -23.5t53 -90.5t-53 -90.5t-176 -23.5zM416 632q62 0 62 38t-62 38t-62 -38t62 -38zM780 311v-311h-271v88h-8q-38 -98 -235 -98q-137 0 -197.5 41.5t-60.5 130.5v9q0 75 48.5 107.5t140.5 35.5l312 10v13
q0 35 -20 46q-20 12 -80 12q-48 0 -67 -7t-29 -23h-282q22 60 57 95.5t115 57.5t211 22h13q147 0 221 -20t103 -67.5t29 -141.5zM282 169v-4q0 -24 17 -33t64 -9q71 0 108.5 23t37.5 62v4l-165 -5q-62 -1 -62 -38z" />
    <glyph glyph-name="ae" unicode="&#xe6;" horiz-adv-x="1303" 
d="M897 -10h-10q-140 0 -220 23t-118 80h-8q-69 -103 -258 -103q-145 0 -210 41.5t-65 130.5v9q0 75 48.5 107.5t140.5 35.5l312 10v13q0 35 -20 46q-20 12 -80 12q-48 0 -67 -7t-29 -23h-282q22 60 57 95.5t115 57.5t211 22h12q106 0 157.5 -12t75.5 -36h8q43 48 220 48h10
q211 0 299.5 -56.5t88.5 -203.5v-51h-505q1 -53 21.5 -67t95.5 -14q57 0 78.5 5.5t34.5 23.5h271q-17 -74 -52.5 -112.5t-112.5 -56.5t-219 -18zM897 396q-69 0 -91 -12t-25 -55h233v4q0 37 -24 50t-93 13zM282 169v-4q0 -24 17 -33t64 -9q71 0 108.5 23t37.5 62v4l-165 -5
q-62 -1 -62 -38z" />
    <glyph glyph-name="ccedilla" unicode="&#xe7;" horiz-adv-x="848" 
d="M558 203h274q-10 -62 -35.5 -102.5t-85 -68.5t-155.5 -37l-47 -135h-276l68 133q-154 11 -218.5 68.5t-64.5 188.5v30q0 148 84.5 204t293.5 56h50q106 0 178 -13.5t115 -42.5t64 -66t29 -91h-274q-15 20 -40.5 28.5t-81.5 8.5q-66 0 -97 -9t-40.5 -26.5t-9.5 -56.5v-14
q0 -40 9.5 -58t40 -26t97.5 -8q56 0 81.5 8.5t40.5 28.5z" />
    <glyph glyph-name="egrave" unicode="&#xe8;" horiz-adv-x="812" 
d="M444 700l101 -120h-287l-156 120h342zM519 177h271q-17 -74 -52.5 -112.5t-112.5 -56.5t-219 -18h-10q-209 0 -293.5 56t-84.5 204v30q0 148 84.5 204t293.5 56h10q210 0 299 -56.5t89 -203.5v-51h-505q1 -53 21.5 -67t95.5 -14q57 0 78.5 5.5t34.5 23.5zM406 396
q-68 0 -90.5 -12t-25.5 -55h233v4q0 37 -24 50t-93 13z" />
    <glyph glyph-name="eacute" unicode="&#xe9;" horiz-adv-x="812" 
d="M701 700l-156 -120h-287l101 120h342zM519 177h271q-17 -74 -52.5 -112.5t-112.5 -56.5t-219 -18h-10q-209 0 -293.5 56t-84.5 204v30q0 148 84.5 204t293.5 56h10q210 0 299 -56.5t89 -203.5v-51h-505q1 -53 21.5 -67t95.5 -14q57 0 78.5 5.5t34.5 23.5zM406 396
q-68 0 -90.5 -12t-25.5 -55h233v4q0 37 -24 50t-93 13z" />
    <glyph glyph-name="ecircumflex" unicode="&#xea;" horiz-adv-x="812" 
d="M604 700l131 -120h-227l-107 61l-106 -61h-227l131 120h405zM519 177h271q-17 -74 -52.5 -112.5t-112.5 -56.5t-219 -18h-10q-209 0 -293.5 56t-84.5 204v30q0 148 84.5 204t293.5 56h10q210 0 299 -56.5t89 -203.5v-51h-505q1 -53 21.5 -67t95.5 -14q57 0 78.5 5.5
t34.5 23.5zM406 396q-68 0 -90.5 -12t-25.5 -55h233v4q0 37 -24 50t-93 13z" />
    <glyph glyph-name="edieresis" unicode="&#xeb;" horiz-adv-x="812" 
d="M168 700h213v-130h-213v130zM421 700h213v-130h-213v130zM519 177h271q-17 -74 -52.5 -112.5t-112.5 -56.5t-219 -18h-10q-209 0 -293.5 56t-84.5 204v30q0 148 84.5 204t293.5 56h10q210 0 299 -56.5t89 -203.5v-51h-505q1 -53 21.5 -67t95.5 -14q57 0 78.5 5.5
t34.5 23.5zM406 396q-68 0 -90.5 -12t-25.5 -55h233v4q0 37 -24 50t-93 13z" />
    <glyph glyph-name="igrave" unicode="&#xec;" horiz-adv-x="311" 
d="M198 700l101 -120h-287l-156 120h342zM20 530h271v-530h-271v530z" />
    <glyph glyph-name="iacute" unicode="&#xed;" horiz-adv-x="311" 
d="M455 700l-156 -120h-287l101 120h342zM20 530h271v-530h-271v530z" />
    <glyph glyph-name="icircumflex" unicode="&#xee;" horiz-adv-x="311" 
d="M358 700l131 -120h-227l-107 61l-106 -61h-227l131 120h405zM20 530h271v-530h-271v530z" />
    <glyph glyph-name="idieresis" unicode="&#xef;" horiz-adv-x="311" 
d="M-78 700h213v-130h-213v130zM175 700h213v-130h-213v130zM20 530h271v-530h-271v530z" />
    <glyph glyph-name="eth" unicode="&#xf0;" horiz-adv-x="872" 
d="M471 -10h-70q-207 0 -295 56.5t-88 203.5v4q0 131 71 189t213 58q95 0 165 -43l5 6q-50 55 -66 70l-260 -25v127l121 12q-34 24 -85 52h391q8 -4 28 -20l157 15v-127l-36 -3q132 -159 132 -301v-14q0 -147 -87.5 -203.5t-295.5 -56.5zM436 166q97 0 122 15.5t25 71.5v4
q0 38 -9.5 55t-40 24.5t-97.5 7.5t-97.5 -7.5t-40 -24.5t-9.5 -55v-4q0 -56 25 -71.5t122 -15.5z" />
    <glyph glyph-name="ntilde" unicode="&#xf1;" horiz-adv-x="776" 
d="M513 570q-47 0 -106 16t-70 16q-14 0 -19 -4t-8 -18h-179q11 74 53.5 102t122.5 28q47 0 106 -16t70 -16q14 0 19 4t8 18h189q-11 -73 -57.5 -101.5t-128.5 -28.5zM756 310v-310h-271v272q0 60 -16.5 76t-72.5 16q-59 0 -82 -25.5t-23 -86.5v-252h-271v530h271v-82h8
q47 92 198 92q51 0 86.5 -4.5t70.5 -18.5t56 -39t33.5 -67t12.5 -101z" />
    <glyph glyph-name="ograve" unicode="&#xf2;" horiz-adv-x="872" 
d="M479 700l101 -120h-287l-156 120h342zM471 -10h-70q-207 0 -295 56.5t-88 203.5v30q0 147 88 203.5t295 56.5h70q208 0 295.5 -56.5t87.5 -203.5v-30q0 -147 -87.5 -203.5t-295.5 -56.5zM436 166q67 0 97.5 8t40 26t9.5 58v14q0 39 -9.5 56.5t-40.5 26.5t-97 9t-97 -9
t-40.5 -26.5t-9.5 -56.5v-14q0 -40 9.5 -58t40 -26t97.5 -8z" />
    <glyph glyph-name="oacute" unicode="&#xf3;" horiz-adv-x="872" 
d="M736 700l-156 -120h-287l101 120h342zM471 -10h-70q-207 0 -295 56.5t-88 203.5v30q0 147 88 203.5t295 56.5h70q208 0 295.5 -56.5t87.5 -203.5v-30q0 -147 -87.5 -203.5t-295.5 -56.5zM436 166q67 0 97.5 8t40 26t9.5 58v14q0 39 -9.5 56.5t-40.5 26.5t-97 9t-97 -9
t-40.5 -26.5t-9.5 -56.5v-14q0 -40 9.5 -58t40 -26t97.5 -8z" />
    <glyph glyph-name="ocircumflex" unicode="&#xf4;" horiz-adv-x="872" 
d="M639 700l131 -120h-227l-107 61l-106 -61h-227l131 120h405zM471 -10h-70q-207 0 -295 56.5t-88 203.5v30q0 147 88 203.5t295 56.5h70q208 0 295.5 -56.5t87.5 -203.5v-30q0 -147 -87.5 -203.5t-295.5 -56.5zM436 166q67 0 97.5 8t40 26t9.5 58v14q0 39 -9.5 56.5
t-40.5 26.5t-97 9t-97 -9t-40.5 -26.5t-9.5 -56.5v-14q0 -40 9.5 -58t40 -26t97.5 -8z" />
    <glyph glyph-name="otilde" unicode="&#xf5;" horiz-adv-x="872" 
d="M534 570q-47 0 -106 16t-70 16q-14 0 -19 -4t-8 -18h-179q11 74 53.5 102t122.5 28q47 0 106 -16t70 -16q14 0 19 4t8 18h189q-11 -73 -57.5 -101.5t-128.5 -28.5zM471 -10h-70q-207 0 -295 56.5t-88 203.5v30q0 147 88 203.5t295 56.5h70q208 0 295.5 -56.5t87.5 -203.5
v-30q0 -147 -87.5 -203.5t-295.5 -56.5zM436 166q67 0 97.5 8t40 26t9.5 58v14q0 39 -9.5 56.5t-40.5 26.5t-97 9t-97 -9t-40.5 -26.5t-9.5 -56.5v-14q0 -40 9.5 -58t40 -26t97.5 -8z" />
    <glyph glyph-name="odieresis" unicode="&#xf6;" horiz-adv-x="872" 
d="M203 700h213v-130h-213v130zM456 700h213v-130h-213v130zM471 -10h-70q-207 0 -295 56.5t-88 203.5v30q0 147 88 203.5t295 56.5h70q208 0 295.5 -56.5t87.5 -203.5v-30q0 -147 -87.5 -203.5t-295.5 -56.5zM436 166q67 0 97.5 8t40 26t9.5 58v14q0 39 -9.5 56.5
t-40.5 26.5t-97 9t-97 -9t-40.5 -26.5t-9.5 -56.5v-14q0 -40 9.5 -58t40 -26t97.5 -8z" />
    <glyph glyph-name="divide" unicode="&#xf7;" horiz-adv-x="600" 
d="M373 601v-135h-146v135h146zM522 403v-148h-444v148h444zM373 191v-135h-146v135h146z" />
    <glyph glyph-name="oslash" unicode="&#xf8;" horiz-adv-x="872" 
d="M225 -40h-207l89 86q-89 59 -89 204v30q0 147 88 203.5t295 56.5h70q82 0 139 -7l38 37h206l-89 -86q89 -58 89 -204v-30q0 -147 -87.5 -203.5t-295.5 -56.5h-70q-81 0 -138 7zM289 272v-14q0 -24 3 -41l152 147h-8q-66 0 -97 -9t-40.5 -26.5t-9.5 -56.5zM426 166h10
q67 0 97.5 8t40 26t9.5 58v14q0 29 -4 42z" />
    <glyph glyph-name="ugrave" unicode="&#xf9;" horiz-adv-x="776" 
d="M431 700l101 -120h-287l-156 120h342zM20 220v310h271v-272q0 -60 16.5 -76t72.5 -16q59 0 82 25.5t23 86.5v252h271v-530h-271v82h-8q-47 -92 -198 -92q-51 0 -86.5 4.5t-70.5 18.5t-56 39t-33.5 67t-12.5 101z" />
    <glyph glyph-name="uacute" unicode="&#xfa;" horiz-adv-x="776" 
d="M688 700l-156 -120h-287l101 120h342zM20 220v310h271v-272q0 -60 16.5 -76t72.5 -16q59 0 82 25.5t23 86.5v252h271v-530h-271v82h-8q-47 -92 -198 -92q-51 0 -86.5 4.5t-70.5 18.5t-56 39t-33.5 67t-12.5 101z" />
    <glyph glyph-name="ucircumflex" unicode="&#xfb;" horiz-adv-x="776" 
d="M591 700l131 -120h-227l-107 61l-106 -61h-227l131 120h405zM20 220v310h271v-272q0 -60 16.5 -76t72.5 -16q59 0 82 25.5t23 86.5v252h271v-530h-271v82h-8q-47 -92 -198 -92q-51 0 -86.5 4.5t-70.5 18.5t-56 39t-33.5 67t-12.5 101z" />
    <glyph glyph-name="udieresis" unicode="&#xfc;" horiz-adv-x="776" 
d="M155 700h213v-130h-213v130zM408 700h213v-130h-213v130zM20 220v310h271v-272q0 -60 16.5 -76t72.5 -16q59 0 82 25.5t23 86.5v252h271v-530h-271v82h-8q-47 -92 -198 -92q-51 0 -86.5 4.5t-70.5 18.5t-56 39t-33.5 67t-12.5 101z" />
    <glyph glyph-name="yacute" unicode="&#xfd;" horiz-adv-x="760" 
d="M690 700l-156 -120h-287l101 120h342zM780 530l-355 -700h-285l98 165l-258 535h291l114 -275h8l110 275h277z" />
    <glyph glyph-name="thorn" unicode="&#xfe;" horiz-adv-x="874" 
d="M291 82v-252h-271v870h271v-252h8q21 48 79 70t163 22h6q160 0 234.5 -57.5t74.5 -202.5v-30q0 -145 -74.5 -202.5t-234.5 -57.5h-6q-105 0 -163 22t-79 70h-8zM438 166q66 0 97 9t40.5 26.5t9.5 56.5v14q0 40 -9.5 58t-40 26t-97.5 8t-97.5 -8t-40 -26t-9.5 -58v-14
q0 -39 9.5 -56.5t40.5 -26.5t97 -9z" />
    <glyph glyph-name="ydieresis" unicode="&#xff;" horiz-adv-x="760" 
d="M157 700h213v-130h-213v130zM410 700h213v-130h-213v130zM780 530l-355 -700h-285l98 165l-258 535h291l114 -275h8l110 275h277z" />
    <glyph glyph-name="Amacron" unicode="&#x100;" horiz-adv-x="1259" 
d="M879 850v-90h-500v90h500zM859 700l400 -700h-345l-67 123h-452l-67 -123h-328l400 700h459zM626 525h-10l-120 -219h250z" />
    <glyph glyph-name="amacron" unicode="&#x101;" horiz-adv-x="800" 
d="M666 680v-90h-500v90h500zM780 311v-311h-271v88h-8q-38 -98 -235 -98q-137 0 -197.5 41.5t-60.5 130.5v9q0 75 48.5 107.5t140.5 35.5l312 10v13q0 35 -20 46q-20 12 -80 12q-48 0 -67 -7t-29 -23h-282q22 60 57 95.5t115 57.5t211 22h13q147 0 221 -20t103 -67.5
t29 -141.5zM282 169v-4q0 -24 17 -33t64 -9q71 0 108.5 23t37.5 62v4l-165 -5q-62 -1 -62 -38z" />
    <glyph glyph-name="Abreve" unicode="&#x102;" horiz-adv-x="1259" 
d="M629 730q-106 0 -166 14.5t-86 41t-37 74.5h217q6 -19 20.5 -26.5t51.5 -7.5t51.5 7.5t20.5 26.5h217q-11 -48 -37 -74.5t-86 -41t-166 -14.5zM859 700l400 -700h-345l-67 123h-452l-67 -123h-328l400 700h459zM626 525h-10l-120 -219h250z" />
    <glyph glyph-name="abreve" unicode="&#x103;" horiz-adv-x="800" 
d="M416 570q-106 0 -166 14.5t-86 41t-37 74.5h217q6 -19 20.5 -26.5t51.5 -7.5t51.5 7.5t20.5 26.5h217q-11 -48 -37 -74.5t-86 -41t-166 -14.5zM780 311v-311h-271v88h-8q-38 -98 -235 -98q-137 0 -197.5 41.5t-60.5 130.5v9q0 75 48.5 107.5t140.5 35.5l312 10v13
q0 35 -20 46q-20 12 -80 12q-48 0 -67 -7t-29 -23h-282q22 60 57 95.5t115 57.5t211 22h13q147 0 221 -20t103 -67.5t29 -141.5zM282 169v-4q0 -24 17 -33t64 -9q71 0 108.5 23t37.5 62v4l-165 -5q-62 -1 -62 -38z" />
    <glyph glyph-name="Aogonek" unicode="&#x104;" horiz-adv-x="1259" 
d="M1173 -54v-86h-223q-70 0 -101 16.5t-31 56.5q0 32 16.5 51t70.5 33l-58 106h-452l-67 -123h-328l400 700h459l400 -700h-86q-75 -9 -92.5 -15t-17.5 -21q0 -18 32 -18h78zM626 525h-10l-120 -219h250z" />
    <glyph glyph-name="aogonek" unicode="&#x105;" horiz-adv-x="800" 
d="M780 -54v-86h-223q-70 0 -101 16.5t-31 56.5q0 33 15.5 51t68.5 32v72h-8q-38 -98 -235 -98q-137 0 -197.5 41.5t-60.5 130.5v9q0 75 48.5 107.5t140.5 35.5l312 10v13q0 35 -20 46q-20 12 -80 12q-48 0 -67 -7t-29 -23h-282q22 60 57 95.5t115 57.5t211 22h13
q147 0 221 -20t103 -67.5t29 -141.5v-311q-75 -9 -92.5 -15t-17.5 -21q0 -18 32 -18h78zM282 169v-4q0 -24 17 -33t64 -9q71 0 108.5 23t37.5 62v4l-165 -5q-62 -1 -62 -38z" />
    <glyph glyph-name="Cacute" unicode="&#x106;" horiz-adv-x="1108" 
d="M856 860l-156 -120h-287l101 120h342zM606 -10h-100q-262 0 -368 73t-106 267v40q0 194 106 267t368 73h100q242 0 349 -61t123 -216h-306q-15 49 -55 64t-157 15h-8q-71 0 -113 -7.5t-64.5 -27t-29.5 -45.5t-7 -71v-23q0 -60 14 -89.5t60.5 -45t139.5 -15.5h8
q117 0 157 15t55 64h306q-16 -155 -123 -216t-349 -61z" />
    <glyph glyph-name="cacute" unicode="&#x107;" horiz-adv-x="848" 
d="M721 700l-156 -120h-287l101 120h342zM446 -10h-50q-209 0 -293.5 56t-84.5 204v30q0 148 84.5 204t293.5 56h50q106 0 178 -13.5t115 -42.5t64 -66t29 -91h-274q-15 20 -40.5 28.5t-81.5 8.5q-66 0 -97 -9t-40.5 -26.5t-9.5 -56.5v-14q0 -40 9.5 -58t40 -26t97.5 -8
q56 0 81.5 8.5t40.5 28.5h274q-8 -54 -29 -91t-64 -66t-115 -42.5t-178 -13.5z" />
    <glyph glyph-name="Ccircumflex" unicode="&#x108;" horiz-adv-x="1108" 
d="M759 860l131 -120h-227l-107 61l-106 -61h-227l131 120h405zM606 -10h-100q-262 0 -368 73t-106 267v40q0 194 106 267t368 73h100q242 0 349 -61t123 -216h-306q-15 49 -55 64t-157 15h-8q-71 0 -113 -7.5t-64.5 -27t-29.5 -45.5t-7 -71v-23q0 -60 14 -89.5t60.5 -45
t139.5 -15.5h8q117 0 157 15t55 64h306q-16 -155 -123 -216t-349 -61z" />
    <glyph glyph-name="ccircumflex" unicode="&#x109;" horiz-adv-x="848" 
d="M624 700l131 -120h-227l-107 61l-106 -61h-227l131 120h405zM446 -10h-50q-209 0 -293.5 56t-84.5 204v30q0 148 84.5 204t293.5 56h50q106 0 178 -13.5t115 -42.5t64 -66t29 -91h-274q-15 20 -40.5 28.5t-81.5 8.5q-66 0 -97 -9t-40.5 -26.5t-9.5 -56.5v-14
q0 -40 9.5 -58t40 -26t97.5 -8q56 0 81.5 8.5t40.5 28.5h274q-8 -54 -29 -91t-64 -66t-115 -42.5t-178 -13.5z" />
    <glyph glyph-name="Cdotaccent" unicode="&#x10a;" horiz-adv-x="1108" 
d="M421 870h271v-130h-271v130zM606 -10h-100q-262 0 -368 73t-106 267v40q0 194 106 267t368 73h100q242 0 349 -61t123 -216h-306q-15 49 -55 64t-157 15h-8q-71 0 -113 -7.5t-64.5 -27t-29.5 -45.5t-7 -71v-23q0 -60 14 -89.5t60.5 -45t139.5 -15.5h8q117 0 157 15t55 64
h306q-16 -155 -123 -216t-349 -61z" />
    <glyph glyph-name="cdotaccent" unicode="&#x10b;" horiz-adv-x="848" 
d="M286 700h271v-130h-271v130zM446 -10h-50q-209 0 -293.5 56t-84.5 204v30q0 148 84.5 204t293.5 56h50q106 0 178 -13.5t115 -42.5t64 -66t29 -91h-274q-15 20 -40.5 28.5t-81.5 8.5q-66 0 -97 -9t-40.5 -26.5t-9.5 -56.5v-14q0 -40 9.5 -58t40 -26t97.5 -8
q56 0 81.5 8.5t40.5 28.5h274q-8 -54 -29 -91t-64 -66t-115 -42.5t-178 -13.5z" />
    <glyph glyph-name="Ccaron" unicode="&#x10c;" horiz-adv-x="1108" 
d="M557 799l106 61h227l-131 -120h-405l-131 120h227zM606 -10h-100q-262 0 -368 73t-106 267v40q0 194 106 267t368 73h100q242 0 349 -61t123 -216h-306q-15 49 -55 64t-157 15h-8q-71 0 -113 -7.5t-64.5 -27t-29.5 -45.5t-7 -71v-23q0 -60 14 -89.5t60.5 -45t139.5 -15.5
h8q117 0 157 15t55 64h306q-16 -155 -123 -216t-349 -61z" />
    <glyph glyph-name="ccaron" unicode="&#x10d;" horiz-adv-x="848" 
d="M422 639l106 61h227l-131 -120h-405l-131 120h227zM446 -10h-50q-209 0 -293.5 56t-84.5 204v30q0 148 84.5 204t293.5 56h50q106 0 178 -13.5t115 -42.5t64 -66t29 -91h-274q-15 20 -40.5 28.5t-81.5 8.5q-66 0 -97 -9t-40.5 -26.5t-9.5 -56.5v-14q0 -40 9.5 -58t40 -26
t97.5 -8q56 0 81.5 8.5t40.5 28.5h274q-8 -54 -29 -91t-64 -66t-115 -42.5t-178 -13.5z" />
    <glyph glyph-name="Dcaron" unicode="&#x10e;" horiz-adv-x="1094" 
d="M528 799l106 61h227l-131 -120h-405l-131 120h227zM1062 360v-20q0 -101 -21.5 -164.5t-76.5 -104t-141.5 -56t-224.5 -15.5h-546v700h533q271 0 374 -72t103 -268zM516 502h-164v-305h164q82 0 128 6t72 25t33 45t7 74v4q0 65 -16 94.5t-66 43t-158 13.5z" />
    <glyph glyph-name="dcaron" unicode="&#x10f;" horiz-adv-x="1213" 
d="M854 700v-700h-271v82h-8q-21 -48 -79 -70t-163 -22h-6q-160 0 -234.5 57.5t-74.5 202.5v30q0 145 74.5 202.5t234.5 57.5h6q105 0 163 -22t79 -70h8v252h271zM1207 700l-111 -234h-215l36 234h290zM436 166q67 0 97.5 8t40 26t9.5 58v14q0 39 -9.5 56.5t-40.5 26.5
t-97 9t-97 -9t-40.5 -26.5t-9.5 -56.5v-14q0 -40 9.5 -58t40 -26t97.5 -8z" />
    <glyph glyph-name="Dcroat" unicode="&#x110;" horiz-adv-x="1094" 
d="M52 270h-52v160h52v270h533q271 0 374 -72t103 -268v-20q0 -101 -21.5 -164.5t-76.5 -104t-141.5 -56t-224.5 -15.5h-546v270zM550 430v-160h-198v-73h164q82 0 128 6t72 25t33 45t7 74v4q0 65 -16 94.5t-66 43t-158 13.5h-164v-72h198z" />
    <glyph glyph-name="dslash" unicode="&#x111;" horiz-adv-x="874" 
d="M583 549h-219v130h219v21h271v-21h40v-130h-40v-549h-271v82h-8q-21 -48 -79 -70t-163 -22h-6q-160 0 -234.5 57.5t-74.5 202.5v30q0 145 74.5 202.5t234.5 57.5h6q105 0 163 -22t79 -70h8v101zM436 166q67 0 97.5 8t40 26t9.5 58v14q0 39 -9.5 56.5t-40.5 26.5t-97 9
t-97 -9t-40.5 -26.5t-9.5 -56.5v-14q0 -40 9.5 -58t40 -26t97.5 -8z" />
    <glyph glyph-name="Emacron" unicode="&#x112;" horiz-adv-x="961" 
d="M734 850v-90h-500v90h500zM913 183v-183h-861v700h861v-183h-561v-75h561v-183h-561v-76h561z" />
    <glyph glyph-name="emacron" unicode="&#x113;" horiz-adv-x="812" 
d="M651 680v-90h-500v90h500zM519 177h271q-17 -74 -52.5 -112.5t-112.5 -56.5t-219 -18h-10q-209 0 -293.5 56t-84.5 204v30q0 148 84.5 204t293.5 56h10q210 0 299 -56.5t89 -203.5v-51h-505q1 -53 21.5 -67t95.5 -14q57 0 78.5 5.5t34.5 23.5zM406 396q-68 0 -90.5 -12
t-25.5 -55h233v4q0 37 -24 50t-93 13z" />
    <glyph glyph-name="Ebreve" unicode="&#x114;" horiz-adv-x="961" 
d="M484 730q-106 0 -166 14.5t-86 41t-37 74.5h217q6 -19 20.5 -26.5t51.5 -7.5t51.5 7.5t20.5 26.5h217q-11 -48 -37 -74.5t-86 -41t-166 -14.5zM913 183v-183h-861v700h861v-183h-561v-75h561v-183h-561v-76h561z" />
    <glyph glyph-name="ebreve" unicode="&#x115;" horiz-adv-x="812" 
d="M401 570q-106 0 -166 14.5t-86 41t-37 74.5h217q6 -19 20.5 -26.5t51.5 -7.5t51.5 7.5t20.5 26.5h217q-11 -48 -37 -74.5t-86 -41t-166 -14.5zM519 177h271q-17 -74 -52.5 -112.5t-112.5 -56.5t-219 -18h-10q-209 0 -293.5 56t-84.5 204v30q0 148 84.5 204t293.5 56h10
q210 0 299 -56.5t89 -203.5v-51h-505q1 -53 21.5 -67t95.5 -14q57 0 78.5 5.5t34.5 23.5zM406 396q-68 0 -90.5 -12t-25.5 -55h233v4q0 37 -24 50t-93 13z" />
    <glyph glyph-name="Edotaccent" unicode="&#x116;" horiz-adv-x="961" 
d="M349 870h271v-130h-271v130zM913 183v-183h-861v700h861v-183h-561v-75h561v-183h-561v-76h561z" />
    <glyph glyph-name="edotaccent" unicode="&#x117;" horiz-adv-x="812" 
d="M266 700h271v-130h-271v130zM519 177h271q-17 -74 -52.5 -112.5t-112.5 -56.5t-219 -18h-10q-209 0 -293.5 56t-84.5 204v30q0 148 84.5 204t293.5 56h10q210 0 299 -56.5t89 -203.5v-51h-505q1 -53 21.5 -67t95.5 -14q57 0 78.5 5.5t34.5 23.5zM406 396q-68 0 -90.5 -12
t-25.5 -55h233v4q0 37 -24 50t-93 13z" />
    <glyph glyph-name="Eogonek" unicode="&#x118;" horiz-adv-x="961" 
d="M913 -54v-86h-223q-70 0 -101 16.5t-31 56.5q0 24 7.5 39.5t31.5 27.5h-545v700h861v-183h-561v-75h561v-183h-561v-76h561v-183q-75 -9 -92.5 -15t-17.5 -21q0 -18 32 -18h78z" />
    <glyph glyph-name="eogonek" unicode="&#x119;" horiz-adv-x="812" 
d="M730 -44v-96h-223q-75 0 -103.5 11.5t-28.5 51.5q0 19 9 33t36 28v8q-19 -1 -52 -1q-180 0 -265 63t-85 196v30q0 148 84.5 204t293.5 56h10q210 0 299 -56.5t89 -203.5v-51h-505q1 -53 21.5 -67t95.5 -14q57 0 78.5 5.5t34.5 23.5h271q-15 -111 -114 -153
q-34 -14 -45 -23t-11 -22q0 -23 32 -23h78zM406 396q-68 0 -90.5 -12t-25.5 -55h233v4q0 37 -24 50t-93 13z" />
    <glyph glyph-name="Ecaron" unicode="&#x11a;" horiz-adv-x="961" 
d="M485 799l106 61h227l-131 -120h-405l-131 120h227zM913 183v-183h-861v700h861v-183h-561v-75h561v-183h-561v-76h561z" />
    <glyph glyph-name="ecaron" unicode="&#x11b;" horiz-adv-x="812" 
d="M402 639l106 61h227l-131 -120h-405l-131 120h227zM519 177h271q-17 -74 -52.5 -112.5t-112.5 -56.5t-219 -18h-10q-209 0 -293.5 56t-84.5 204v30q0 148 84.5 204t293.5 56h10q210 0 299 -56.5t89 -203.5v-51h-505q1 -53 21.5 -67t95.5 -14q57 0 78.5 5.5t34.5 23.5z
M406 396q-68 0 -90.5 -12t-25.5 -55h233v4q0 37 -24 50t-93 13z" />
    <glyph glyph-name="Gcircumflex" unicode="&#x11c;" horiz-adv-x="1147" 
d="M781 860l131 -120h-227l-107 61l-106 -61h-227l131 120h405zM630 -10h-104q-273 0 -383.5 73t-110.5 268v39q0 194 110.5 267t383.5 73h104q159 0 254 -21t149.5 -69.5t81.5 -136.5h-329q-30 19 -64.5 24t-138.5 5h-31q-71 0 -113 -7.5t-64.5 -27t-29.5 -45.5t-7 -71v-22
q0 -45 7 -71t29.5 -45.5t64.5 -27t113 -7.5h31q108 0 166 11q57 11 61 60h-281v173h586v-131q0 -95 -29.5 -156.5t-94 -95t-149 -46.5t-212.5 -13z" />
    <glyph glyph-name="gcircumflex" unicode="&#x11d;" horiz-adv-x="864" 
d="M602 700l131 -120h-227l-107 61l-106 -61h-227l131 120h405zM445 -170h-33q-172 0 -269 33q-96 33 -125 125h271q18 -16 135 -16q68 0 99.5 10.5t40.5 29.5t9 61v48h-8q-25 -46 -77 -66t-156 -20h-5q-160 0 -234.5 53.5t-74.5 189.5v19q0 136 74.5 189.5t234.5 53.5h5
q104 0 157 -20.5t76 -67.5h8v78h271v-447q0 -145 -90 -199t-309 -54zM431 199q68 0 96.5 7.5t37 23.5t8.5 55v5q0 39 -8.5 55t-37 23t-96.5 7t-96.5 -7t-37 -23t-8.5 -55v-5q0 -39 8.5 -55t37 -23.5t96.5 -7.5z" />
    <glyph glyph-name="Gbreve" unicode="&#x11e;" horiz-adv-x="1147" 
d="M578 730q-106 0 -166 14.5t-86 41t-37 74.5h217q6 -19 20.5 -26.5t51.5 -7.5t51.5 7.5t20.5 26.5h217q-11 -48 -37 -74.5t-86 -41t-166 -14.5zM630 -10h-104q-273 0 -383.5 73t-110.5 268v39q0 194 110.5 267t383.5 73h104q159 0 254 -21t149.5 -69.5t81.5 -136.5h-329
q-30 19 -64.5 24t-138.5 5h-31q-71 0 -113 -7.5t-64.5 -27t-29.5 -45.5t-7 -71v-22q0 -45 7 -71t29.5 -45.5t64.5 -27t113 -7.5h31q108 0 166 11q57 11 61 60h-281v173h586v-131q0 -95 -29.5 -156.5t-94 -95t-149 -46.5t-212.5 -13z" />
    <glyph glyph-name="gbreve" unicode="&#x11f;" horiz-adv-x="864" 
d="M399 570q-106 0 -166 14.5t-86 41t-37 74.5h217q6 -19 20.5 -26.5t51.5 -7.5t51.5 7.5t20.5 26.5h217q-11 -48 -37 -74.5t-86 -41t-166 -14.5zM445 -170h-33q-172 0 -269 33q-96 33 -125 125h271q18 -16 135 -16q68 0 99.5 10.5t40.5 29.5t9 61v48h-8q-25 -46 -77 -66
t-156 -20h-5q-160 0 -234.5 53.5t-74.5 189.5v19q0 136 74.5 189.5t234.5 53.5h5q104 0 157 -20.5t76 -67.5h8v78h271v-447q0 -145 -90 -199t-309 -54zM431 199q68 0 96.5 7.5t37 23.5t8.5 55v5q0 39 -8.5 55t-37 23t-96.5 7t-96.5 -7t-37 -23t-8.5 -55v-5q0 -39 8.5 -55
t37 -23.5t96.5 -7.5z" />
    <glyph glyph-name="Gdotaccent" unicode="&#x120;" horiz-adv-x="1147" 
d="M443 870h271v-130h-271v130zM630 -10h-104q-273 0 -383.5 73t-110.5 268v39q0 194 110.5 267t383.5 73h104q159 0 254 -21t149.5 -69.5t81.5 -136.5h-329q-30 19 -64.5 24t-138.5 5h-31q-71 0 -113 -7.5t-64.5 -27t-29.5 -45.5t-7 -71v-22q0 -45 7 -71t29.5 -45.5
t64.5 -27t113 -7.5h31q108 0 166 11q57 11 61 60h-281v173h586v-131q0 -95 -29.5 -156.5t-94 -95t-149 -46.5t-212.5 -13z" />
    <glyph glyph-name="gdotaccent" unicode="&#x121;" horiz-adv-x="864" 
d="M264 700h271v-130h-271v130zM445 -170h-33q-172 0 -269 33q-96 33 -125 125h271q18 -16 135 -16q68 0 99.5 10.5t40.5 29.5t9 61v48h-8q-25 -46 -77 -66t-156 -20h-5q-160 0 -234.5 53.5t-74.5 189.5v19q0 136 74.5 189.5t234.5 53.5h5q104 0 157 -20.5t76 -67.5h8v78
h271v-447q0 -145 -90 -199t-309 -54zM431 199q68 0 96.5 7.5t37 23.5t8.5 55v5q0 39 -8.5 55t-37 23t-96.5 7t-96.5 -7t-37 -23t-8.5 -55v-5q0 -39 8.5 -55t37 -23.5t96.5 -7.5z" />
    <glyph glyph-name="Gcommaaccent" unicode="&#x122;" horiz-adv-x="1147" 
d="M630 -10h-104q-273 0 -383.5 73t-110.5 268v39q0 194 110.5 267t383.5 73h104q159 0 254 -21t149.5 -69.5t81.5 -136.5h-329q-30 19 -64.5 24t-138.5 5h-31q-71 0 -113 -7.5t-64.5 -27t-29.5 -45.5t-7 -71v-22q0 -45 7 -71t29.5 -45.5t64.5 -27t113 -7.5h31q108 0 166 11
q57 11 61 60h-281v173h586v-131q0 -95 -29.5 -156.5t-94 -95t-149 -46.5t-212.5 -13zM644 -154l-23 -16h-149l63 47v10h-97v87h271v-24q0 -37 -13 -56.5t-52 -47.5z" />
    <glyph glyph-name="gcommaaccent" unicode="&#x123;" horiz-adv-x="864" 
d="M329 698l23 16h149l-63 -47v-10h97v-87h-271v24q0 37 13 56.5t52 47.5zM445 -170h-33q-172 0 -269 33q-96 33 -125 125h271q18 -16 135 -16q68 0 99.5 10.5t40.5 29.5t9 61v48h-8q-25 -46 -77 -66t-156 -20h-5q-160 0 -234.5 53.5t-74.5 189.5v19q0 136 74.5 189.5
t234.5 53.5h5q104 0 157 -20.5t76 -67.5h8v78h271v-447q0 -145 -90 -199t-309 -54zM431 199q68 0 96.5 7.5t37 23.5t8.5 55v5q0 39 -8.5 55t-37 23t-96.5 7t-96.5 -7t-37 -23t-8.5 -55v-5q0 -39 8.5 -55t37 -23.5t96.5 -7.5z" />
    <glyph glyph-name="Hcircumflex" unicode="&#x124;" horiz-adv-x="1151" 
d="M778 860l131 -120h-227l-107 61l-106 -61h-227l131 120h405zM1099 700v-700h-300v244h-447v-244h-300v700h300v-243h447v243h300z" />
    <glyph glyph-name="hcircumflex" unicode="&#x125;" horiz-adv-x="776" 
d="M358 870l131 -120h-227l-107 61l-106 -61h-227l131 120h405zM756 310v-310h-271v272q0 60 -16.5 76t-72.5 16q-59 0 -82 -25.5t-23 -86.5v-252h-271v700h271v-252h8q47 92 198 92q51 0 86.5 -4.5t70.5 -18.5t56 -39t33.5 -67t12.5 -101z" />
    <glyph glyph-name="Hbar" unicode="&#x126;" horiz-adv-x="1151" 
d="M52 505h-52v140h52v55h300v-55h447v55h300v-55h52v-140h-52v-505h-300v244h-447v-244h-300v505zM352 505v-48h447v48h-447z" />
    <glyph glyph-name="hbar" unicode="&#x127;" horiz-adv-x="776" 
d="M20 549h-40v130h40v21h271v-21h219v-130h-219v-101h8q47 92 198 92q51 0 86.5 -4.5t70.5 -18.5t56 -39t33.5 -67t12.5 -101v-310h-271v272q0 60 -16.5 76t-72.5 16q-59 0 -82 -25.5t-23 -86.5v-252h-271v549z" />
    <glyph glyph-name="Itilde" unicode="&#x128;" horiz-adv-x="404" 
d="M300 730q-47 0 -106 16t-70 16q-14 0 -19 -4t-8 -18h-179q11 74 53.5 102t122.5 28q47 0 106 -16t70 -16q14 0 19 4t8 18h189q-11 -73 -57.5 -101.5t-128.5 -28.5zM352 700v-700h-300v700h300z" />
    <glyph glyph-name="itilde" unicode="&#x129;" horiz-adv-x="311" 
d="M253 570q-47 0 -106 16t-70 16q-14 0 -19 -4t-8 -18h-179q11 74 53.5 102t122.5 28q47 0 106 -16t70 -16q14 0 19 4t8 18h189q-11 -73 -57.5 -101.5t-128.5 -28.5zM20 530h271v-530h-271v530z" />
    <glyph glyph-name="Imacron" unicode="&#x12a;" horiz-adv-x="404" 
d="M452 850v-90h-500v90h500zM352 700v-700h-300v700h300z" />
    <glyph glyph-name="imacron" unicode="&#x12b;" horiz-adv-x="311" 
d="M405 680v-90h-500v90h500zM20 530h271v-530h-271v530z" />
    <glyph glyph-name="Ibreve" unicode="&#x12c;" horiz-adv-x="404" 
d="M202 730q-106 0 -166 14.5t-86 41t-37 74.5h217q6 -19 20.5 -26.5t51.5 -7.5t51.5 7.5t20.5 26.5h217q-11 -48 -37 -74.5t-86 -41t-166 -14.5zM352 700v-700h-300v700h300z" />
    <glyph glyph-name="ibreve" unicode="&#x12d;" horiz-adv-x="311" 
d="M155 570q-106 0 -166 14.5t-86 41t-37 74.5h217q6 -19 20.5 -26.5t51.5 -7.5t51.5 7.5t20.5 26.5h217q-11 -48 -37 -74.5t-86 -41t-166 -14.5zM20 530h271v-530h-271v530z" />
    <glyph glyph-name="Iogonek" unicode="&#x12e;" horiz-adv-x="404" 
d="M352 -54v-86h-223q-70 0 -101 16.5t-31 56.5q0 28 10.5 45t44.5 29v693h300v-700q-75 -9 -92.5 -15t-17.5 -21q0 -18 32 -18h78z" />
    <glyph glyph-name="iogonek" unicode="&#x12f;" horiz-adv-x="311" 
d="M20 700h271v-130h-271v130zM291 -54v-86h-223q-70 0 -101 16.5t-31 56.5q0 33 15.5 51t68.5 32v514h271v-530q-75 -9 -92.5 -15t-17.5 -21q0 -18 32 -18h78z" />
    <glyph glyph-name="Idot" unicode="&#x130;" horiz-adv-x="404" 
d="M67 870h271v-130h-271v130zM352 700v-700h-300v700h300z" />
    <glyph glyph-name="dotlessi" unicode="&#x131;" horiz-adv-x="311" 
d="M20 530h271v-530h-271v530z" />
    <glyph glyph-name="IJ" unicode="&#x132;" horiz-adv-x="1046" 
d="M352 700v-700h-300v700h300zM592 0h-188v213h87q101 0 144.5 9.5t59 33.5t15.5 81v363h306v-360q0 -69 -6.5 -116.5t-24 -88t-47 -64.5t-78 -41t-113 -23.5t-155.5 -6.5z" />
    <glyph glyph-name="ij" unicode="&#x133;" horiz-adv-x="622" 
d="M20 700h271v-130h-271v130zM331 700h271v-130h-271v130zM20 530h271v-530h-271v530zM331 530h271v-366q0 -145 -11.5 -198t-67.5 -136h-265q47 71 60 117t13 137v446z" />
    <glyph glyph-name="Jcircumflex" unicode="&#x134;" horiz-adv-x="642" 
d="M662 860l131 -120h-227l-107 61l-106 -61h-227l131 120h405zM188 0h-188v213h87q101 0 144.5 9.5t59 33.5t15.5 81v363h306v-360q0 -69 -6.5 -116.5t-24 -88t-47 -64.5t-78 -41t-113 -23.5t-155.5 -6.5z" />
    <glyph glyph-name="jcircumflex" unicode="&#x135;" horiz-adv-x="311" 
d="M358 700l131 -120h-227l-107 61l-106 -61h-227l131 120h405zM20 530h271v-366q0 -145 -11.5 -198t-67.5 -136h-265q47 71 60 117t13 137v446z" />
    <glyph glyph-name="Kcommaaccent" unicode="&#x136;" horiz-adv-x="1189" 
d="M352 171v-171h-300v700h300v-254h11l389 254h426l-436 -278l447 -422h-419l-270 260h-11zM622 -154l-23 -16h-149l63 47v10h-97v87h271v-24q0 -37 -13 -56.5t-52 -47.5z" />
    <glyph glyph-name="kcommaaccent" unicode="&#x137;" horiz-adv-x="869" 
d="M291 82v-82h-271v700h271v-379h8l231 209h311l-250 -209l278 -321h-339l-131 166h-9zM484 -154l-23 -16h-149l63 47v10h-97v87h271v-24q0 -37 -13 -56.5t-52 -47.5z" />
    <glyph glyph-name="Lacute" unicode="&#x139;" horiz-adv-x="889" 
d="M503 860l-156 -120h-287l101 120h342zM873 213v-213h-821v700h300v-487h521z" />
    <glyph glyph-name="lacute" unicode="&#x13a;" horiz-adv-x="311" 
d="M455 860l-156 -120h-287l101 120h342zM291 700v-700h-271v700h271z" />
    <glyph glyph-name="Lcommaaccent" unicode="&#x13b;" horiz-adv-x="889" 
d="M873 213v-213h-821v700h300v-487h521zM533 -154l-23 -16h-149l63 47v10h-97v87h271v-24q0 -37 -13 -56.5t-52 -47.5z" />
    <glyph glyph-name="lcommaaccent" unicode="&#x13c;" horiz-adv-x="311" 
d="M291 700v-700h-271v700h271zM226 -154l-23 -16h-149l63 47v10h-97v87h271v-24q0 -37 -13 -56.5t-52 -47.5z" />
    <glyph glyph-name="Lcaron" unicode="&#x13d;" horiz-adv-x="889" 
d="M810 701l-111 -234h-215l36 234h290zM873 213v-213h-821v700h300v-487h521z" />
    <glyph glyph-name="lcaron" unicode="&#x13e;" horiz-adv-x="650" 
d="M291 700v-700h-271v700h271zM644 700l-111 -234h-215l36 234h290z" />
    <glyph glyph-name="Ldot" unicode="&#x13f;" horiz-adv-x="889" 
d="M873 213v-213h-821v700h300v-487h521zM513 525h271v-130h-271v130z" />
    <glyph glyph-name="ldot" unicode="&#x140;" horiz-adv-x="622" 
d="M291 700v-700h-271v700h271zM330 342h271v-130h-271v130z" />
    <glyph glyph-name="Lslash" unicode="&#x141;" horiz-adv-x="889" 
d="M52 265l-52 -10v163l52 10v272h300v-212l263 53v-163l-263 -53v-112h521v-213h-821v265z" />
    <glyph glyph-name="lslash" unicode="&#x142;" horiz-adv-x="368" 
d="M40 229l-40 -20v145l40 20v326h271v-190l57 29v-145l-57 -29v-365h-271v229z" />
    <glyph glyph-name="Nacute" unicode="&#x143;" horiz-adv-x="1197" 
d="M899 860l-156 -120h-287l101 120h342zM1145 700v-700h-454l-349 456h-10v-456h-280v700h454l349 -457h10v457h280z" />
    <glyph glyph-name="nacute" unicode="&#x144;" horiz-adv-x="776" 
d="M715 700l-156 -120h-287l101 120h342zM756 310v-310h-271v272q0 60 -16.5 76t-72.5 16q-59 0 -82 -25.5t-23 -86.5v-252h-271v530h271v-82h8q47 92 198 92q51 0 86.5 -4.5t70.5 -18.5t56 -39t33.5 -67t12.5 -101z" />
    <glyph glyph-name="Ncommaaccent" unicode="&#x145;" horiz-adv-x="1197" 
d="M1145 700v-700h-454l-349 456h-10v-456h-280v700h454l349 -457h10v457h280zM670 -154l-23 -16h-149l63 47v10h-97v87h271v-24q0 -37 -13 -56.5t-52 -47.5z" />
    <glyph glyph-name="ncommaaccent" unicode="&#x146;" horiz-adv-x="776" 
d="M756 310v-310h-271v272q0 60 -16.5 76t-72.5 16q-59 0 -82 -25.5t-23 -86.5v-252h-271v530h271v-82h8q47 92 198 92q51 0 86.5 -4.5t70.5 -18.5t56 -39t33.5 -67t12.5 -101zM459 -154l-23 -16h-149l63 47v10h-97v87h271v-24q0 -37 -13 -56.5t-52 -47.5z" />
    <glyph glyph-name="Ncaron" unicode="&#x147;" horiz-adv-x="1197" 
d="M600 799l106 61h227l-131 -120h-405l-131 120h227zM1145 700v-700h-454l-349 456h-10v-456h-280v700h454l349 -457h10v457h280z" />
    <glyph glyph-name="ncaron" unicode="&#x148;" horiz-adv-x="776" 
d="M416 639l106 61h227l-131 -120h-405l-131 120h227zM756 310v-310h-271v272q0 60 -16.5 76t-72.5 16q-59 0 -82 -25.5t-23 -86.5v-252h-271v530h271v-82h8q47 92 198 92q51 0 86.5 -4.5t70.5 -18.5t56 -39t33.5 -67t12.5 -101z" />
    <glyph glyph-name="Eng" unicode="&#x14a;" horiz-adv-x="1197" 
d="M721 -169h-241v198h168q17 0 17 5l-323 422h-10v-456h-280v700h454l349 -457h10v457h280v-529q0 -69 -6.5 -116.5t-24 -88t-47 -64.5t-78 -41t-113 -23.5t-155.5 -6.5z" />
    <glyph glyph-name="eng" unicode="&#x14b;" horiz-adv-x="776" 
d="M291 252v-252h-271v530h271v-82h8q47 92 198 92q51 0 86.5 -4.5t70.5 -18.5t56 -39t33.5 -67t12.5 -101v-266q0 -119 -60 -166.5t-220 -47.5h-108v166h6q72 0 91.5 16t19.5 76v184q0 60 -16.5 76t-72.5 16q-59 0 -82 -25.5t-23 -86.5z" />
    <glyph glyph-name="Omacron" unicode="&#x14c;" horiz-adv-x="1156" 
d="M828 850v-90h-500v90h500zM630 -10h-104q-273 0 -383.5 73t-110.5 267v40q0 194 110.5 267t383.5 73h104q273 0 383.5 -73t110.5 -267v-40q0 -194 -110.5 -267t-383.5 -73zM568 188h20q62 0 103 5.5t66.5 15.5t38.5 29.5t17.5 41.5t4.5 58v23q0 37 -4.5 59t-17 41.5
t-38.5 29.5t-67 15.5t-103 5.5h-20q-62 0 -103 -5.5t-67 -15.5t-38.5 -29.5t-17 -41.5t-4.5 -59v-23q0 -45 7 -70.5t31 -45t69.5 -27t122.5 -7.5z" />
    <glyph glyph-name="omacron" unicode="&#x14d;" horiz-adv-x="872" 
d="M686 680v-90h-500v90h500zM471 -10h-70q-207 0 -295 56.5t-88 203.5v30q0 147 88 203.5t295 56.5h70q208 0 295.5 -56.5t87.5 -203.5v-30q0 -147 -87.5 -203.5t-295.5 -56.5zM436 166q67 0 97.5 8t40 26t9.5 58v14q0 39 -9.5 56.5t-40.5 26.5t-97 9t-97 -9t-40.5 -26.5
t-9.5 -56.5v-14q0 -40 9.5 -58t40 -26t97.5 -8z" />
    <glyph glyph-name="Obreve" unicode="&#x14e;" horiz-adv-x="1156" 
d="M578 730q-106 0 -166 14.5t-86 41t-37 74.5h217q6 -19 20.5 -26.5t51.5 -7.5t51.5 7.5t20.5 26.5h217q-11 -48 -37 -74.5t-86 -41t-166 -14.5zM630 -10h-104q-273 0 -383.5 73t-110.5 267v40q0 194 110.5 267t383.5 73h104q273 0 383.5 -73t110.5 -267v-40
q0 -194 -110.5 -267t-383.5 -73zM568 188h20q62 0 103 5.5t66.5 15.5t38.5 29.5t17.5 41.5t4.5 58v23q0 37 -4.5 59t-17 41.5t-38.5 29.5t-67 15.5t-103 5.5h-20q-62 0 -103 -5.5t-67 -15.5t-38.5 -29.5t-17 -41.5t-4.5 -59v-23q0 -45 7 -70.5t31 -45t69.5 -27t122.5 -7.5z
" />
    <glyph glyph-name="obreve" unicode="&#x14f;" horiz-adv-x="872" 
d="M436 570q-106 0 -166 14.5t-86 41t-37 74.5h217q6 -19 20.5 -26.5t51.5 -7.5t51.5 7.5t20.5 26.5h217q-11 -48 -37 -74.5t-86 -41t-166 -14.5zM471 -10h-70q-207 0 -295 56.5t-88 203.5v30q0 147 88 203.5t295 56.5h70q208 0 295.5 -56.5t87.5 -203.5v-30
q0 -147 -87.5 -203.5t-295.5 -56.5zM436 166q67 0 97.5 8t40 26t9.5 58v14q0 39 -9.5 56.5t-40.5 26.5t-97 9t-97 -9t-40.5 -26.5t-9.5 -56.5v-14q0 -40 9.5 -58t40 -26t97.5 -8z" />
    <glyph glyph-name="Ohungarumlaut" unicode="&#x150;" horiz-adv-x="1156" 
d="M694 860l-156 -120h-287l101 120h342zM1061 860l-156 -120h-287l101 120h342zM630 -10h-104q-273 0 -383.5 73t-110.5 267v40q0 194 110.5 267t383.5 73h104q273 0 383.5 -73t110.5 -267v-40q0 -194 -110.5 -267t-383.5 -73zM568 188h20q62 0 103 5.5t66.5 15.5
t38.5 29.5t17.5 41.5t4.5 58v23q0 37 -4.5 59t-17 41.5t-38.5 29.5t-67 15.5t-103 5.5h-20q-62 0 -103 -5.5t-67 -15.5t-38.5 -29.5t-17 -41.5t-4.5 -59v-23q0 -45 7 -70.5t31 -45t69.5 -27t122.5 -7.5z" />
    <glyph glyph-name="ohungarumlaut" unicode="&#x151;" horiz-adv-x="872" 
d="M552 700l-156 -120h-287l101 120h342zM919 700l-156 -120h-287l101 120h342zM471 -10h-70q-207 0 -295 56.5t-88 203.5v30q0 147 88 203.5t295 56.5h70q208 0 295.5 -56.5t87.5 -203.5v-30q0 -147 -87.5 -203.5t-295.5 -56.5zM436 166q67 0 97.5 8t40 26t9.5 58v14
q0 39 -9.5 56.5t-40.5 26.5t-97 9t-97 -9t-40.5 -26.5t-9.5 -56.5v-14q0 -40 9.5 -58t40 -26t97.5 -8z" />
    <glyph glyph-name="OE" unicode="&#x152;" horiz-adv-x="1651" 
d="M1603 183v-183h-1094q-271 0 -374 72t-103 268v20q0 101 21.5 164.5t76.5 104t141.5 56t224.5 15.5h1107v-183h-561v-75h561v-183h-561v-76h561zM578 198h164v305h-164q-82 0 -128 -6t-72 -25t-33 -45t-7 -74v-4q0 -65 16 -94.5t66 -43t158 -13.5z" />
    <glyph glyph-name="oe" unicode="&#x153;" horiz-adv-x="1377" 
d="M471 -10h-70q-207 0 -295 56.5t-88 203.5v30q0 147 88 203.5t295 56.5h70q176 0 239 -55h8q30 33 86 44t157 11h10q211 0 299.5 -56.5t88.5 -203.5v-51h-505q1 -53 21.5 -67t95.5 -14q57 0 78.5 5.5t34.5 23.5h271q-17 -74 -52.5 -112.5t-112.5 -56.5t-219 -18h-10
q-95 0 -154 11.5t-89 42.5h-8q-30 -32 -85.5 -43t-153.5 -11zM971 396q-69 0 -91 -12t-25 -55h233v4q0 37 -24 50t-93 13zM436 166q67 0 97.5 8t40 26t9.5 58v14q0 39 -9.5 56.5t-40.5 26.5t-97 9t-97 -9t-40.5 -26.5t-9.5 -56.5v-14q0 -40 9.5 -58t40 -26t97.5 -8z" />
    <glyph glyph-name="Racute" unicode="&#x154;" horiz-adv-x="1097" 
d="M847 860l-156 -120h-287l101 120h342zM352 206v-206h-300v700h666q187 0 263 -41t76 -138v-35q0 -84 -37.5 -119t-130.5 -44v-10q49 -6 76 -13.5t50.5 -25t32.5 -48.5t9 -80v-146h-300v136q0 28 -8 41.5t-38.5 21t-94.5 7.5h-264zM616 517h-264v-128h326q42 0 60.5 13
t18.5 43v6q0 38 -28 52t-113 14z" />
    <glyph glyph-name="racute" unicode="&#x155;" horiz-adv-x="533" 
d="M598 700l-156 -120h-287l101 120h342zM517 530h8v-196h-87q-65 0 -97 -12t-41 -33.5t-9 -66.5v-222h-271v530h271v-83h8q24 47 75.5 65t142.5 18z" />
    <glyph glyph-name="Rcommaaccent" unicode="&#x156;" horiz-adv-x="1097" 
d="M352 206v-206h-300v700h666q187 0 263 -41t76 -138v-35q0 -84 -37.5 -119t-130.5 -44v-10q49 -6 76 -13.5t50.5 -25t32.5 -48.5t9 -80v-146h-300v136q0 28 -8 41.5t-38.5 21t-94.5 7.5h-264zM616 517h-264v-128h326q42 0 60.5 13t18.5 43v6q0 38 -28 52t-113 14z
M618 -154l-23 -16h-149l63 47v10h-97v87h271v-24q0 -37 -13 -56.5t-52 -47.5z" />
    <glyph glyph-name="rcommaaccent" unicode="&#x157;" horiz-adv-x="533" 
d="M517 530h8v-196h-87q-65 0 -97 -12t-41 -33.5t-9 -66.5v-222h-271v530h271v-83h8q24 47 75.5 65t142.5 18zM226 -154l-23 -16h-149l63 47v10h-97v87h271v-24q0 -37 -13 -56.5t-52 -47.5z" />
    <glyph glyph-name="Rcaron" unicode="&#x158;" horiz-adv-x="1097" 
d="M548 799l106 61h227l-131 -120h-405l-131 120h227zM352 206v-206h-300v700h666q187 0 263 -41t76 -138v-35q0 -84 -37.5 -119t-130.5 -44v-10q49 -6 76 -13.5t50.5 -25t32.5 -48.5t9 -80v-146h-300v136q0 28 -8 41.5t-38.5 21t-94.5 7.5h-264zM616 517h-264v-128h326
q42 0 60.5 13t18.5 43v6q0 38 -28 52t-113 14z" />
    <glyph glyph-name="rcaron" unicode="&#x159;" horiz-adv-x="533" 
d="M299 639l106 61h227l-131 -120h-405l-131 120h227zM517 530h8v-196h-87q-65 0 -97 -12t-41 -33.5t-9 -66.5v-222h-271v530h271v-83h8q24 47 75.5 65t142.5 18z" />
    <glyph glyph-name="Sacute" unicode="&#x15a;" horiz-adv-x="1070" 
d="M841 860l-156 -120h-287l101 120h342zM579 -10h-87q-80 0 -139.5 4.5t-119.5 18t-100 37.5t-69.5 64.5t-39.5 96.5h322q11 -26 51 -34.5t157 -8.5q83 0 125 5.5t54.5 15t12.5 28.5v4q0 21 -14.5 29t-55.5 9l-302 10q-133 4 -204 24.5t-99 61t-28 113.5v10
q0 135 102.5 183.5t366.5 48.5h59q80 0 139.5 -4.5t120.5 -19t101.5 -39t69.5 -67t37 -101.5h-323q-9 30 -47.5 41.5t-142.5 11.5q-107 0 -142 -10.5t-35 -40.5v-2q0 -21 14.5 -29t55.5 -9l298 -10q134 -4 205 -23.5t98.5 -57.5t27.5 -108v-7q0 -143 -102.5 -194t-366.5 -51
z" />
    <glyph glyph-name="sacute" unicode="&#x15b;" horiz-adv-x="852" 
d="M733 700l-156 -120h-287l101 120h342zM448 -10h-45q-86 0 -148 6.5t-115 24t-83 50t-39 81.5h294q15 -16 41 -22.5t81 -6.5q68 0 87 9q20 9 20 29v4q0 15 -10 21.5t-37 7.5l-249 9q-121 4 -165.5 37.5t-44.5 113.5v8q0 101 86.5 139.5t303.5 38.5h16q67 0 115.5 -3
t97 -13t81 -28t56.5 -47.5t35 -70.5h-294q-18 18 -36.5 23.5t-65.5 5.5q-57 0 -78.5 -8.5t-21.5 -27.5v-4q0 -15 10 -21.5t37 -7.5l249 -9q121 -4 165.5 -37.5t44.5 -113.5v-9q0 -101 -86.5 -140t-301.5 -39z" />
    <glyph glyph-name="Scircumflex" unicode="&#x15c;" horiz-adv-x="1070" 
d="M744 860l131 -120h-227l-107 61l-106 -61h-227l131 120h405zM579 -10h-87q-80 0 -139.5 4.5t-119.5 18t-100 37.5t-69.5 64.5t-39.5 96.5h322q11 -26 51 -34.5t157 -8.5q83 0 125 5.5t54.5 15t12.5 28.5v4q0 21 -14.5 29t-55.5 9l-302 10q-133 4 -204 24.5t-99 61
t-28 113.5v10q0 135 102.5 183.5t366.5 48.5h59q80 0 139.5 -4.5t120.5 -19t101.5 -39t69.5 -67t37 -101.5h-323q-9 30 -47.5 41.5t-142.5 11.5q-107 0 -142 -10.5t-35 -40.5v-2q0 -21 14.5 -29t55.5 -9l298 -10q134 -4 205 -23.5t98.5 -57.5t27.5 -108v-7
q0 -143 -102.5 -194t-366.5 -51z" />
    <glyph glyph-name="scircumflex" unicode="&#x15d;" horiz-adv-x="852" 
d="M636 700l131 -120h-227l-107 61l-106 -61h-227l131 120h405zM448 -10h-45q-86 0 -148 6.5t-115 24t-83 50t-39 81.5h294q15 -16 41 -22.5t81 -6.5q68 0 87 9q20 9 20 29v4q0 15 -10 21.5t-37 7.5l-249 9q-121 4 -165.5 37.5t-44.5 113.5v8q0 101 86.5 139.5t303.5 38.5
h16q67 0 115.5 -3t97 -13t81 -28t56.5 -47.5t35 -70.5h-294q-18 18 -36.5 23.5t-65.5 5.5q-57 0 -78.5 -8.5t-21.5 -27.5v-4q0 -15 10 -21.5t37 -7.5l249 -9q121 -4 165.5 -37.5t44.5 -113.5v-9q0 -101 -86.5 -140t-301.5 -39z" />
    <glyph glyph-name="Scedilla" unicode="&#x15e;" horiz-adv-x="1070" 
d="M1048 242v-7q0 -132 -84 -184t-294 -60l-46 -131h-276l67 131q-82 2 -144 13t-116 35t-87 67t-44 105h322q11 -26 51 -34.5t157 -8.5q83 0 125 5.5t54.5 15t12.5 28.5v4q0 21 -14.5 29t-55.5 9l-302 10q-133 4 -204 24.5t-99 61t-28 113.5v10q0 135 102.5 183.5
t366.5 48.5h59q80 0 139.5 -4.5t120.5 -19t101.5 -39t69.5 -67t37 -101.5h-323q-9 30 -47.5 41.5t-142.5 11.5q-107 0 -142 -10.5t-35 -40.5v-2q0 -21 14.5 -29t55.5 -9l298 -10q134 -4 205 -23.5t98.5 -57.5t27.5 -108z" />
    <glyph glyph-name="scedilla" unicode="&#x15f;" horiz-adv-x="852" 
d="M836 178v-9q0 -89 -64.5 -128.5t-220.5 -48.5l-46 -132h-276l68 133q-126 8 -195.5 43.5t-83.5 115.5h294q15 -16 41 -22.5t81 -6.5q68 0 87 9q20 9 20 29v4q0 15 -10 21.5t-37 7.5l-249 9q-121 4 -165.5 37.5t-44.5 113.5v8q0 101 86.5 139.5t303.5 38.5h16
q67 0 115.5 -3t97 -13t81 -28t56.5 -47.5t35 -70.5h-294q-18 18 -36.5 23.5t-65.5 5.5q-57 0 -78.5 -8.5t-21.5 -27.5v-4q0 -15 10 -21.5t37 -7.5l249 -9q121 -4 165.5 -37.5t44.5 -113.5z" />
    <glyph glyph-name="Scaron" unicode="&#x160;" horiz-adv-x="1070" 
d="M542 799l106 61h227l-131 -120h-405l-131 120h227zM579 -10h-87q-80 0 -139.5 4.5t-119.5 18t-100 37.5t-69.5 64.5t-39.5 96.5h322q11 -26 51 -34.5t157 -8.5q83 0 125 5.5t54.5 15t12.5 28.5v4q0 21 -14.5 29t-55.5 9l-302 10q-133 4 -204 24.5t-99 61t-28 113.5v10
q0 135 102.5 183.5t366.5 48.5h59q80 0 139.5 -4.5t120.5 -19t101.5 -39t69.5 -67t37 -101.5h-323q-9 30 -47.5 41.5t-142.5 11.5q-107 0 -142 -10.5t-35 -40.5v-2q0 -21 14.5 -29t55.5 -9l298 -10q134 -4 205 -23.5t98.5 -57.5t27.5 -108v-7q0 -143 -102.5 -194t-366.5 -51
z" />
    <glyph glyph-name="scaron" unicode="&#x161;" horiz-adv-x="852" 
d="M434 639l106 61h227l-131 -120h-405l-131 120h227zM448 -10h-45q-86 0 -148 6.5t-115 24t-83 50t-39 81.5h294q15 -16 41 -22.5t81 -6.5q68 0 87 9q20 9 20 29v4q0 15 -10 21.5t-37 7.5l-249 9q-121 4 -165.5 37.5t-44.5 113.5v8q0 101 86.5 139.5t303.5 38.5h16
q67 0 115.5 -3t97 -13t81 -28t56.5 -47.5t35 -70.5h-294q-18 18 -36.5 23.5t-65.5 5.5q-57 0 -78.5 -8.5t-21.5 -27.5v-4q0 -15 10 -21.5t37 -7.5l249 -9q121 -4 165.5 -37.5t44.5 -113.5v-9q0 -101 -86.5 -140t-301.5 -39z" />
    <glyph glyph-name="Tcaron" unicode="&#x164;" horiz-adv-x="922" 
d="M462 799l106 61h227l-131 -120h-405l-131 120h227zM611 487v-487h-300v487h-301v213h902v-213h-301z" />
    <glyph glyph-name="tcaron" unicode="&#x165;" horiz-adv-x="566" 
d="M745 794l-111 -234h-215l36 234h290zM118 352h-98v178h98v170h271v-170h157v-178h-157v-94q0 -60 19.5 -76t91.5 -16h46v-166h-148q-160 0 -220 47.5t-60 166.5v138z" />
    <glyph glyph-name="Tbar" unicode="&#x166;" horiz-adv-x="922" 
d="M311 235h-217v160h217v92h-301v213h902v-213h-301v-92h217v-160h-217v-235h-300v235z" />
    <glyph glyph-name="tbar" unicode="&#x167;" horiz-adv-x="566" 
d="M118 203h-75v120h75v29h-98v178h98v170h271v-170h157v-178h-157v-29h124v-120h-118q6 -23 28.5 -30t76.5 -7h46v-166h-148q-157 0 -217 45.5t-63 157.5z" />
    <glyph glyph-name="Utilde" unicode="&#x168;" horiz-adv-x="1028" 
d="M613 730q-47 0 -106 16t-70 16q-14 0 -19 -4t-8 -18h-179q11 74 53.5 102t122.5 28q47 0 106 -16t70 -16q14 0 19 4t8 18h189q-11 -73 -57.5 -101.5t-128.5 -28.5zM574 -10h-120q-91 0 -155.5 6.5t-113 23.5t-78 41t-47 64.5t-24 88t-6.5 116.5v370h306v-362
q0 -98 30.5 -124t139.5 -26h16q109 0 139.5 26t30.5 124v362h306v-370q0 -69 -6.5 -116.5t-24 -88t-47 -64.5t-78 -41t-113 -23.5t-155.5 -6.5z" />
    <glyph glyph-name="utilde" unicode="&#x169;" horiz-adv-x="776" 
d="M486 570q-47 0 -106 16t-70 16q-14 0 -19 -4t-8 -18h-179q11 74 53.5 102t122.5 28q47 0 106 -16t70 -16q14 0 19 4t8 18h189q-11 -73 -57.5 -101.5t-128.5 -28.5zM20 220v310h271v-272q0 -60 16.5 -76t72.5 -16q59 0 82 25.5t23 86.5v252h271v-530h-271v82h-8
q-47 -92 -198 -92q-51 0 -86.5 4.5t-70.5 18.5t-56 39t-33.5 67t-12.5 101z" />
    <glyph glyph-name="Umacron" unicode="&#x16a;" horiz-adv-x="1028" 
d="M765 850v-90h-500v90h500zM574 -10h-120q-91 0 -155.5 6.5t-113 23.5t-78 41t-47 64.5t-24 88t-6.5 116.5v370h306v-362q0 -98 30.5 -124t139.5 -26h16q109 0 139.5 26t30.5 124v362h306v-370q0 -69 -6.5 -116.5t-24 -88t-47 -64.5t-78 -41t-113 -23.5t-155.5 -6.5z" />
    <glyph glyph-name="umacron" unicode="&#x16b;" horiz-adv-x="776" 
d="M638 680v-90h-500v90h500zM20 220v310h271v-272q0 -60 16.5 -76t72.5 -16q59 0 82 25.5t23 86.5v252h271v-530h-271v82h-8q-47 -92 -198 -92q-51 0 -86.5 4.5t-70.5 18.5t-56 39t-33.5 67t-12.5 101z" />
    <glyph glyph-name="Ubreve" unicode="&#x16c;" horiz-adv-x="1028" 
d="M515 730q-106 0 -166 14.5t-86 41t-37 74.5h217q6 -19 20.5 -26.5t51.5 -7.5t51.5 7.5t20.5 26.5h217q-11 -48 -37 -74.5t-86 -41t-166 -14.5zM574 -10h-120q-91 0 -155.5 6.5t-113 23.5t-78 41t-47 64.5t-24 88t-6.5 116.5v370h306v-362q0 -98 30.5 -124t139.5 -26h16
q109 0 139.5 26t30.5 124v362h306v-370q0 -69 -6.5 -116.5t-24 -88t-47 -64.5t-78 -41t-113 -23.5t-155.5 -6.5z" />
    <glyph glyph-name="ubreve" unicode="&#x16d;" horiz-adv-x="776" 
d="M388 570q-106 0 -166 14.5t-86 41t-37 74.5h217q6 -19 20.5 -26.5t51.5 -7.5t51.5 7.5t20.5 26.5h217q-11 -48 -37 -74.5t-86 -41t-166 -14.5zM20 220v310h271v-272q0 -60 16.5 -76t72.5 -16q59 0 82 25.5t23 86.5v252h271v-530h-271v82h-8q-47 -92 -198 -92
q-51 0 -86.5 4.5t-70.5 18.5t-56 39t-33.5 67t-12.5 101z" />
    <glyph glyph-name="Uring" unicode="&#x16e;" horiz-adv-x="1028" 
d="M515 716q-123 0 -176 23.5t-53 90.5t53 90.5t176 23.5t176 -23.5t53 -90.5t-53 -90.5t-176 -23.5zM515 792q62 0 62 38t-62 38t-62 -38t62 -38zM574 -10h-120q-91 0 -155.5 6.5t-113 23.5t-78 41t-47 64.5t-24 88t-6.5 116.5v370h306v-362q0 -98 30.5 -124t139.5 -26h16
q109 0 139.5 26t30.5 124v362h306v-370q0 -69 -6.5 -116.5t-24 -88t-47 -64.5t-78 -41t-113 -23.5t-155.5 -6.5z" />
    <glyph glyph-name="uring" unicode="&#x16f;" horiz-adv-x="776" 
d="M388 556q-123 0 -176 23.5t-53 90.5t53 90.5t176 23.5t176 -23.5t53 -90.5t-53 -90.5t-176 -23.5zM388 632q62 0 62 38t-62 38t-62 -38t62 -38zM20 220v310h271v-272q0 -60 16.5 -76t72.5 -16q59 0 82 25.5t23 86.5v252h271v-530h-271v82h-8q-47 -92 -198 -92
q-51 0 -86.5 4.5t-70.5 18.5t-56 39t-33.5 67t-12.5 101z" />
    <glyph glyph-name="Uhungarumlaut" unicode="&#x170;" horiz-adv-x="1028" 
d="M631 860l-156 -120h-287l101 120h342zM998 860l-156 -120h-287l101 120h342zM574 -10h-120q-91 0 -155.5 6.5t-113 23.5t-78 41t-47 64.5t-24 88t-6.5 116.5v370h306v-362q0 -98 30.5 -124t139.5 -26h16q109 0 139.5 26t30.5 124v362h306v-370q0 -69 -6.5 -116.5t-24 -88
t-47 -64.5t-78 -41t-113 -23.5t-155.5 -6.5z" />
    <glyph glyph-name="uhungarumlaut" unicode="&#x171;" horiz-adv-x="776" 
d="M504 700l-156 -120h-287l101 120h342zM871 700l-156 -120h-287l101 120h342zM20 220v310h271v-272q0 -60 16.5 -76t72.5 -16q59 0 82 25.5t23 86.5v252h271v-530h-271v82h-8q-47 -92 -198 -92q-51 0 -86.5 4.5t-70.5 18.5t-56 39t-33.5 67t-12.5 101z" />
    <glyph glyph-name="Uogonek" unicode="&#x172;" horiz-adv-x="1028" 
d="M704 -54v-86h-223q-70 0 -101 16.5t-31 56.5q0 36 43 55v8h-22q-103 0 -169 17.5t-104 60t-52.5 102.5t-14.5 154v370h306v-362q0 -98 30.5 -124t139.5 -26h16q109 0 139.5 26t30.5 124v362h306v-370q0 -96 -12.5 -153t-49.5 -98t-99 -60t-167 -28q-48 -5 -62 -10.5
t-14 -17.5q0 -17 32 -17h78z" />
    <glyph glyph-name="uogonek" unicode="&#x173;" horiz-adv-x="776" 
d="M20 220v310h271v-272q0 -60 16.5 -76t72.5 -16q59 0 82 25.5t23 86.5v252h271v-530q-75 -9 -92.5 -15t-17.5 -21q0 -18 32 -18h78v-86h-223q-70 0 -101 16.5t-31 56.5q0 33 15.5 51t68.5 32v66h-8q-47 -92 -198 -92q-51 0 -86.5 4.5t-70.5 18.5t-56 39t-33.5 67
t-12.5 101z" />
    <glyph glyph-name="Wcircumflex" unicode="&#x174;" horiz-adv-x="1567" 
d="M1002 860l131 -120h-227l-107 61l-106 -61h-227l131 120h405zM1567 700l-248 -700h-388l-138 407l-157 -407h-384l-252 700h333l138 -459h10l153 459h331l156 -459h10l133 459h303z" />
    <glyph glyph-name="wcircumflex" unicode="&#x175;" horiz-adv-x="1315" 
d="M878 700l131 -120h-227l-107 61l-106 -61h-227l131 120h405zM1315 530l-192 -530h-344l-111 291l-111 -291h-362l-195 530h306l100 -314h8l115 314h292l115 -314h8l100 314h271z" />
    <glyph glyph-name="Ycircumflex" unicode="&#x176;" horiz-adv-x="1092" 
d="M750 860l131 -120h-227l-107 61l-106 -61h-227l131 120h405zM696 302v-302h-300v302l-396 398h367l194 -206h10l193 206h328z" />
    <glyph glyph-name="ycircumflex" unicode="&#x177;" horiz-adv-x="760" 
d="M593 700l131 -120h-227l-107 61l-106 -61h-227l131 120h405zM780 530l-355 -700h-285l98 165l-258 535h291l114 -275h8l110 275h277z" />
    <glyph glyph-name="Ydieresis" unicode="&#x178;" horiz-adv-x="1092" 
d="M314 870h213v-130h-213v130zM567 870h213v-130h-213v130zM696 302v-302h-300v302l-396 398h367l194 -206h10l193 206h328z" />
    <glyph glyph-name="Zacute" unicode="&#x179;" horiz-adv-x="1011" 
d="M815 860l-156 -120h-287l101 120h342zM981 203v-203h-951v183l493 314h-448v203h881v-183l-493 -314h518z" />
    <glyph glyph-name="zacute" unicode="&#x17a;" horiz-adv-x="761" 
d="M680 700l-156 -120h-287l101 120h342zM741 178v-178h-721v168l330 184h-300v178h661v-168l-330 -184h360z" />
    <glyph glyph-name="Zdotaccent" unicode="&#x17b;" horiz-adv-x="1011" 
d="M380 870h271v-130h-271v130zM981 203v-203h-951v183l493 314h-448v203h881v-183l-493 -314h518z" />
    <glyph glyph-name="zdotaccent" unicode="&#x17c;" horiz-adv-x="761" 
d="M245 700h271v-130h-271v130zM741 178v-178h-721v168l330 184h-300v178h661v-168l-330 -184h360z" />
    <glyph glyph-name="Zcaron" unicode="&#x17d;" horiz-adv-x="1011" 
d="M516 799l106 61h227l-131 -120h-405l-131 120h227zM981 203v-203h-951v183l493 314h-448v203h881v-183l-493 -314h518z" />
    <glyph glyph-name="zcaron" unicode="&#x17e;" horiz-adv-x="761" 
d="M381 639l106 61h227l-131 -120h-405l-131 120h227zM741 178v-178h-721v168l330 184h-300v178h661v-168l-330 -184h360z" />
    <glyph glyph-name="florin" unicode="&#x192;" 
d="M592 305v-410h-280v410h-292v90h293q8 163 97 234t296 71h255v-197h-199q-101 0 -135.5 -24.5t-34.5 -83.5h369v-90h-369z" />
    <glyph glyph-name="Aringacute" unicode="&#x1fa;" horiz-adv-x="1259" 
d="M929 1080l-156 -120h-287l101 120h342zM629 716q-123 0 -176 23.5t-53 90.5t53 90.5t176 23.5t176 -23.5t53 -90.5t-53 -90.5t-176 -23.5zM629 792q62 0 62 38t-62 38t-62 -38t62 -38zM859 700l400 -700h-345l-67 123h-452l-67 -123h-328l400 700h459zM626 525h-10
l-120 -219h250z" />
    <glyph glyph-name="aringacute" unicode="&#x1fb;" horiz-adv-x="800" 
d="M716 920l-156 -120h-287l101 120h342zM416 556q-123 0 -176 23.5t-53 90.5t53 90.5t176 23.5t176 -23.5t53 -90.5t-53 -90.5t-176 -23.5zM416 632q62 0 62 38t-62 38t-62 -38t62 -38zM780 311v-311h-271v88h-8q-38 -98 -235 -98q-137 0 -197.5 41.5t-60.5 130.5v9
q0 75 48.5 107.5t140.5 35.5l312 10v13q0 35 -20 46q-20 12 -80 12q-48 0 -67 -7t-29 -23h-282q22 60 57 95.5t115 57.5t211 22h13q147 0 221 -20t103 -67.5t29 -141.5zM282 169v-4q0 -24 17 -33t64 -9q71 0 108.5 23t37.5 62v4l-165 -5q-62 -1 -62 -38z" />
    <glyph glyph-name="AEacute" unicode="&#x1fc;" horiz-adv-x="1648" 
d="M1189 860l-156 -120h-287l101 120h342zM1600 183v-183h-861v123h-300l-88 -123h-351l551 700h1049v-183h-561v-75h561v-183h-561v-76h561zM739 525h-11l-157 -219h168v219z" />
    <glyph glyph-name="aeacute" unicode="&#x1fd;" horiz-adv-x="1303" 
d="M944 700l-156 -120h-287l101 120h342zM897 -10h-10q-140 0 -220 23t-118 80h-8q-69 -103 -258 -103q-145 0 -210 41.5t-65 130.5v9q0 75 48.5 107.5t140.5 35.5l312 10v13q0 35 -20 46q-20 12 -80 12q-48 0 -67 -7t-29 -23h-282q22 60 57 95.5t115 57.5t211 22h12
q106 0 157.5 -12t75.5 -36h8q43 48 220 48h10q211 0 299.5 -56.5t88.5 -203.5v-51h-505q1 -53 21.5 -67t95.5 -14q57 0 78.5 5.5t34.5 23.5h271q-17 -74 -52.5 -112.5t-112.5 -56.5t-219 -18zM897 396q-69 0 -91 -12t-25 -55h233v4q0 37 -24 50t-93 13zM282 169v-4
q0 -24 17 -33t64 -9q71 0 108.5 23t37.5 62v4l-165 -5q-62 -1 -62 -38z" />
    <glyph glyph-name="Oslashacute" unicode="&#x1fe;" horiz-adv-x="1156" 
d="M878 860l-156 -120h-287l101 120h342zM277 -40h-245l111 103q-111 75 -111 267v40q0 194 110.5 267t383.5 73h104q117 0 204 -12l46 42h244l-111 -103q111 -75 111 -267v-40q0 -194 -110.5 -267t-383.5 -73h-104q-116 0 -203 12zM338 361v-23q0 -52 13 -85l280 258
q-13 1 -43 1h-20q-62 0 -103 -5.5t-67 -15.5t-38.5 -29.5t-17 -41.5t-4.5 -59zM568 188h20q62 0 103 5.5t66.5 15.5t38.5 29.5t17.5 41.5t4.5 58v23q0 53 -13 86l-280 -258q15 -1 43 -1z" />
    <glyph glyph-name="oslashacute" unicode="&#x1ff;" horiz-adv-x="872" 
d="M736 700l-156 -120h-287l101 120h342zM225 -40h-207l89 86q-89 59 -89 204v30q0 147 88 203.5t295 56.5h70q82 0 139 -7l38 37h206l-89 -86q89 -58 89 -204v-30q0 -147 -87.5 -203.5t-295.5 -56.5h-70q-81 0 -138 7zM289 272v-14q0 -24 3 -41l152 147h-8q-66 0 -97 -9
t-40.5 -26.5t-9.5 -56.5zM426 166h10q67 0 97.5 8t40 26t9.5 58v14q0 29 -4 42z" />
    <glyph glyph-name="Scommaaccent" unicode="&#x218;" horiz-adv-x="1070" 
d="M579 -10h-87q-80 0 -139.5 4.5t-119.5 18t-100 37.5t-69.5 64.5t-39.5 96.5h322q11 -26 51 -34.5t157 -8.5q83 0 125 5.5t54.5 15t12.5 28.5v4q0 21 -14.5 29t-55.5 9l-302 10q-133 4 -204 24.5t-99 61t-28 113.5v10q0 135 102.5 183.5t366.5 48.5h59q80 0 139.5 -4.5
t120.5 -19t101.5 -39t69.5 -67t37 -101.5h-323q-9 30 -47.5 41.5t-142.5 11.5q-107 0 -142 -10.5t-35 -40.5v-2q0 -21 14.5 -29t55.5 -9l298 -10q134 -4 205 -23.5t98.5 -57.5t27.5 -108v-7q0 -143 -102.5 -194t-366.5 -51zM617 -154l-23 -16h-149l63 47v10h-97v87h271v-24
q0 -37 -13 -56.5t-52 -47.5z" />
    <glyph glyph-name="scommaaccent" unicode="&#x219;" horiz-adv-x="852" 
d="M448 -10h-45q-86 0 -148 6.5t-115 24t-83 50t-39 81.5h294q15 -16 41 -22.5t81 -6.5q68 0 87 9q20 9 20 29v4q0 15 -10 21.5t-37 7.5l-249 9q-121 4 -165.5 37.5t-44.5 113.5v8q0 101 86.5 139.5t303.5 38.5h16q67 0 115.5 -3t97 -13t81 -28t56.5 -47.5t35 -70.5h-294
q-18 18 -36.5 23.5t-65.5 5.5q-57 0 -78.5 -8.5t-21.5 -27.5v-4q0 -15 10 -21.5t37 -7.5l249 -9q121 -4 165.5 -37.5t44.5 -113.5v-9q0 -101 -86.5 -140t-301.5 -39zM498 -154l-23 -16h-149l63 47v10h-97v87h271v-24q0 -37 -13 -56.5t-52 -47.5z" />
    <glyph glyph-name="Tcommaaccent" unicode="&#x21a;" horiz-adv-x="922" 
d="M611 487v-487h-300v487h-301v213h902v-213h-301zM532 -154l-23 -16h-149l63 47v10h-97v87h271v-24q0 -37 -13 -56.5t-52 -47.5z" />
    <glyph glyph-name="tcommaaccent" unicode="&#x21b;" horiz-adv-x="566" 
d="M118 352h-98v178h98v170h271v-170h157v-178h-157v-94q0 -60 19.5 -76t91.5 -16h46v-166h-148q-160 0 -220 47.5t-60 166.5v138zM415 -154l-23 -16h-149l63 47v10h-97v87h271v-24q0 -37 -13 -56.5t-52 -47.5z" />
    <glyph glyph-name="circumflex" unicode="&#x2c6;" horiz-adv-x="500" 
d="M453 700l131 -120h-227l-107 61l-106 -61h-227l131 120h405z" />
    <glyph glyph-name="caron" unicode="&#x2c7;" horiz-adv-x="500" 
d="M251 639l106 61h227l-131 -120h-405l-131 120h227z" />
    <glyph glyph-name="breve" unicode="&#x2d8;" horiz-adv-x="500" 
d="M250 570q-106 0 -166 14.5t-86 41t-37 74.5h217q6 -19 20.5 -26.5t51.5 -7.5t51.5 7.5t20.5 26.5h217q-11 -48 -37 -74.5t-86 -41t-166 -14.5z" />
    <glyph glyph-name="dotaccent" unicode="&#x2d9;" horiz-adv-x="500" 
d="M113 700h271v-130h-271v130z" />
    <glyph glyph-name="ring" unicode="&#x2da;" horiz-adv-x="500" 
d="M250 556q-123 0 -176 23.5t-53 90.5t53 90.5t176 23.5t176 -23.5t53 -90.5t-53 -90.5t-176 -23.5zM250 632q62 0 62 38t-62 38t-62 -38t62 -38z" />
    <glyph glyph-name="ogonek" unicode="&#x2db;" horiz-adv-x="500" 
d="M413 -54v-86h-223q-70 0 -101 16.5t-31 56.5q0 27 9 42t43 31t107 26.5t196 18.5v-51q-75 -9 -92.5 -15t-17.5 -21q0 -18 32 -18h78z" />
    <glyph glyph-name="tilde" unicode="&#x2dc;" horiz-adv-x="500" 
d="M348 570q-47 0 -106 16t-70 16q-14 0 -19 -4t-8 -18h-179q11 74 53.5 102t122.5 28q47 0 106 -16t70 -16q14 0 19 4t8 18h189q-11 -73 -57.5 -101.5t-128.5 -28.5z" />
    <glyph glyph-name="hungarumlaut" unicode="&#x2dd;" horiz-adv-x="500" 
d="M288 700l-156 -120h-287l101 120h342zM655 700l-156 -120h-287l101 120h342z" />
    <glyph glyph-name="commaaccent" unicode="&#x326;" horiz-adv-x="500" 
d="M326 -154l-23 -16h-149l63 47v10h-97v87h271v-24q0 -37 -13 -56.5t-52 -47.5z" />
    <glyph glyph-name="pi" unicode="&#x3c0;" horiz-adv-x="963" 
d="M933 166v-166h-118q-160 0 -220 47.5t-60 166.5v138h-134v-352h-271v352h-90v178h893v-178h-127v-94q0 -60 19.5 -76t91.5 -16h16z" />
    <glyph glyph-name="Wgrave" unicode="&#x1e80;" horiz-adv-x="1567" 
d="M842 860l101 -120h-287l-156 120h342zM1567 700l-248 -700h-388l-138 407l-157 -407h-384l-252 700h333l138 -459h10l153 459h331l156 -459h10l133 459h303z" />
    <glyph glyph-name="wgrave" unicode="&#x1e81;" horiz-adv-x="1315" 
d="M718 700l101 -120h-287l-156 120h342zM1315 530l-192 -530h-344l-111 291l-111 -291h-362l-195 530h306l100 -314h8l115 314h292l115 -314h8l100 314h271z" />
    <glyph glyph-name="Wacute" unicode="&#x1e82;" horiz-adv-x="1567" 
d="M1099 860l-156 -120h-287l101 120h342zM1567 700l-248 -700h-388l-138 407l-157 -407h-384l-252 700h333l138 -459h10l153 459h331l156 -459h10l133 459h303z" />
    <glyph glyph-name="wacute" unicode="&#x1e83;" horiz-adv-x="1315" 
d="M975 700l-156 -120h-287l101 120h342zM1315 530l-192 -530h-344l-111 291l-111 -291h-362l-195 530h306l100 -314h8l115 314h292l115 -314h8l100 314h271z" />
    <glyph glyph-name="Wdieresis" unicode="&#x1e84;" horiz-adv-x="1567" 
d="M566 870h213v-130h-213v130zM819 870h213v-130h-213v130zM1567 700l-248 -700h-388l-138 407l-157 -407h-384l-252 700h333l138 -459h10l153 459h331l156 -459h10l133 459h303z" />
    <glyph glyph-name="wdieresis" unicode="&#x1e85;" horiz-adv-x="1315" 
d="M442 700h213v-130h-213v130zM695 700h213v-130h-213v130zM1315 530l-192 -530h-344l-111 291l-111 -291h-362l-195 530h306l100 -314h8l115 314h292l115 -314h8l100 314h271z" />
    <glyph glyph-name="Ygrave" unicode="&#x1ef2;" horiz-adv-x="1092" 
d="M590 860l101 -120h-287l-156 120h342zM696 302v-302h-300v302l-396 398h367l194 -206h10l193 206h328z" />
    <glyph glyph-name="ygrave" unicode="&#x1ef3;" horiz-adv-x="760" 
d="M433 700l101 -120h-287l-156 120h342zM780 530l-355 -700h-285l98 165l-258 535h291l114 -275h8l110 275h277z" />
    <glyph glyph-name="endash" unicode="&#x2013;" horiz-adv-x="780" 
d="M760 235h-740v115h740v-115z" />
    <glyph glyph-name="emdash" unicode="&#x2014;" horiz-adv-x="1170" 
d="M1150 235h-1130v115h1130v-115z" />
    <glyph glyph-name="quoteleft" unicode="&#x2018;" horiz-adv-x="391" 
d="M131 678l17 22h184l-92 -130v-10h101v-205h-291v128q0 89 81 195z" />
    <glyph glyph-name="quoteright" unicode="&#x2019;" horiz-adv-x="391" 
d="M260 377l-17 -22h-184l92 130v10h-101v205h291v-128q0 -49 -19 -94t-62 -101z" />
    <glyph glyph-name="quotesinglbase" unicode="&#x201a;" horiz-adv-x="391" 
d="M260 -118l-17 -22h-184l92 130v10h-101v205h291v-128q0 -89 -81 -195z" />
    <glyph glyph-name="quotedblleft" unicode="&#x201c;" horiz-adv-x="732" 
d="M131 678l17 22h184l-92 -130v-10h101v-205h-291v128q0 89 81 195zM472 678l17 22h184l-92 -130v-10h101v-205h-291v128q0 89 81 195z" />
    <glyph glyph-name="quotedblright" unicode="&#x201d;" horiz-adv-x="732" 
d="M260 377l-17 -22h-184l92 130v10h-101v205h291v-128q0 -49 -19 -94t-62 -101zM601 377l-17 -22h-184l92 130v10h-101v205h291v-128q0 -49 -19 -94t-62 -101z" />
    <glyph glyph-name="quotedblbase" unicode="&#x201e;" horiz-adv-x="732" 
d="M260 -118l-17 -22h-184l92 130v10h-101v205h291v-128q0 -89 -81 -195zM601 -118l-17 -22h-184l92 130v10h-101v205h291v-128q0 -89 -81 -195z" />
    <glyph glyph-name="dagger" unicode="&#x2020;" horiz-adv-x="460" 
d="M165 440h-135v90h135v170h130v-170h135v-90h-135v-540h-130v540z" />
    <glyph glyph-name="daggerdbl" unicode="&#x2021;" horiz-adv-x="460" 
d="M295 70v-170h-130v170h-135v90h135v280h-135v90h135v170h130v-170h135v-90h-135v-280h135v-90h-135z" />
    <glyph glyph-name="bullet" unicode="&#x2022;" horiz-adv-x="490" 
d="M245 187q-69 0 -118 46t-49 117t49 117t118 46t118 -46t49 -117t-49 -117t-118 -46z" />
    <glyph glyph-name="ellipsis" unicode="&#x2026;" horiz-adv-x="1173" 
d="M341 0h-291v205h291v-205zM732 0h-291v205h291v-205zM1123 0h-291v205h291v-205z" />
    <glyph glyph-name="perthousand" unicode="&#x2030;" horiz-adv-x="1474" 
d="M272 320h-16q-132 0 -184 40t-52 144v21q0 103 52.5 144t183.5 41h16q131 0 183.5 -41t52.5 -144v-21q0 -104 -52 -144t-184 -40zM864 700l-428 -700h-156l428 700h156zM264 440q53 0 70.5 13.5t17.5 57.5v9q0 41 -18 54.5t-70 13.5t-70 -13.5t-18 -54.5v-9
q0 -44 17.5 -57.5t70.5 -13.5zM1218 -10h-16q-124 0 -154 38h-8q-30 -38 -154 -38h-16q-132 0 -184 40t-52 144v21q0 103 52.5 144t183.5 41h16q124 0 154 -38h8q30 38 154 38h16q131 0 183.5 -41t52.5 -144v-21q0 -104 -52 -144t-184 -40zM878 110q53 0 70.5 13.5
t17.5 57.5v9q0 41 -18 54.5t-70 13.5t-70 -13.5t-18 -54.5v-9q0 -44 17.5 -57.5t70.5 -13.5zM1210 110q53 0 70.5 13.5t17.5 57.5v9q0 41 -18 54.5t-70 13.5t-70 -13.5t-18 -54.5v-9q0 -44 17.5 -57.5t70.5 -13.5z" />
    <glyph glyph-name="guilsinglleft" unicode="&#x2039;" horiz-adv-x="327" 
d="M36 289v6l84 219h164l-89 -222l89 -222h-164z" />
    <glyph glyph-name="guilsinglright" unicode="&#x203a;" horiz-adv-x="327" 
d="M291 295v-6l-84 -219h-164l89 222l-89 222h164z" />
    <glyph glyph-name="fraction" unicode="&#x2044;" horiz-adv-x="284" 
d="M434 700l-428 -700h-156l428 700h156z" />
    <glyph glyph-name="zerosuperior" unicode="&#x2070;" horiz-adv-x="651" 
d="M331 374h-11q-124 0 -189.5 19.5t-91.5 62t-26 122.5v24q0 80 26 122.5t91.5 62t189.5 19.5h11q181 0 244 -43.5t63 -161.5v-24q0 -118 -63 -160.5t-244 -42.5zM326 521q47 0 58 10.5t11 55.5v5q0 45 -10.5 55.5t-58.5 10.5t-58.5 -10.5t-10.5 -55.5v-5q0 -45 11 -55.5
t58 -10.5z" />
    <glyph glyph-name="foursuperior" unicode="&#x2074;" horiz-adv-x="651" 
d="M593 456v-76h-241v76h-342v193l242 151h341v-216h41v-128h-41zM187 591v-7h165v104h-8z" />
    <glyph glyph-name="fivesuperior" unicode="&#x2075;" horiz-adv-x="651" 
d="M351 374h-42q-71 0 -118.5 5t-90.5 19.5t-66.5 44.5t-29.5 77h244q8 -18 24.5 -24.5t53.5 -6.5q42 0 55 7.5t13 21.5v4q0 10 -4.5 15.5t-23.5 9.5t-56 4q-65 0 -79 -11h-221l31 260h569v-122h-351l-6 -57h8q29 37 156 37q94 0 144.5 -15t67 -41.5t16.5 -72.5v-4
q0 -82 -70 -116.5t-224 -34.5z" />
    <glyph glyph-name="sixsuperior" unicode="&#x2076;" horiz-adv-x="651" 
d="M353 374h-42q-173 0 -238.5 49.5t-65.5 157.5v21q0 107 66.5 155.5t240.5 48.5h34q279 0 294 -138h-245q-12 18 -66 18q-50 0 -67 -11t-17 -41v-18h8q21 28 157 28q99 0 150.5 -13.5t67.5 -38.5t16 -71v-4q0 -79 -64 -111t-229 -32zM323 491q52 0 66 5.5t14 20.5v8
q0 15 -14 20.5t-66 5.5t-66 -5.5t-14 -20.5v-8q0 -15 14 -20.5t66 -5.5z" />
    <glyph glyph-name="sevensuperior" unicode="&#x2077;" horiz-adv-x="651" 
d="M647 661l-324 -281h-287l309 255v8h-338v157h640v-139z" />
    <glyph glyph-name="eightsuperior" unicode="&#x2078;" horiz-adv-x="651" 
d="M353 373h-55q-149 0 -221 31.5t-72 105.5v4q0 49 31 71.5t93 25.5v8q-106 12 -106 81v3q1 36 27 58t89.5 33.5t172.5 11.5h26q109 0 172.5 -11.5t89.5 -33.5t27 -58v-3q0 -69 -106 -81v-8q62 -3 93 -25.5t31 -71.5v-4q0 -74 -72 -105.5t-220 -31.5zM313 635h22
q32 0 42 5.5t10 17.5v3q0 13 -12.5 18t-50.5 5q-39 0 -51 -5t-12 -18v-3q0 -12 10 -17.5t42 -5.5zM324 495q48 0 61.5 6t13.5 22v2q0 18 -12 23t-55 5h-16q-43 0 -55 -5t-12 -23v-2q0 -16 13.5 -22t61.5 -6z" />
    <glyph glyph-name="ninesuperior" unicode="&#x2079;" horiz-adv-x="651" 
d="M298 806h42q173 0 238.5 -49.5t65.5 -157.5v-21q0 -107 -66 -155.5t-241 -48.5h-34q-279 0 -294 138h245q12 -18 66 -18q50 0 67 11t17 41v18h-8q-18 -28 -157 -28q-99 0 -150.5 13.5t-67.5 38.5t-16 71v4q0 79 64 111t229 32zM328 689q-52 0 -66 -5.5t-14 -20.5v-8
q0 -15 14 -20.5t66 -5.5q53 0 66.5 5t13.5 21v8q0 15 -14 20.5t-66 5.5z" />
    <glyph glyph-name="plussuperior" unicode="&#x207a;" horiz-adv-x="360" 
d="M130 541h-111v99h111v117h100v-117h111v-99h-111v-117h-100v117z" />
    <glyph glyph-name="minussuperior" unicode="&#x207b;" horiz-adv-x="360" 
d="M317 541h-274v99h274v-99z" />
    <glyph glyph-name="equalsuperior" unicode="&#x207c;" horiz-adv-x="360" 
d="M329 617h-298v99h298v-99zM329 464h-298v99h298v-99z" />
    <glyph glyph-name="parenleftsuperior" unicode="&#x207d;" horiz-adv-x="217" 
d="M203 443v-90q-90 5 -131 53.5t-41 164.5v38q0 116 41 164.5t131 53.5v-90q-30 -4 -50 -31q-18 -26 -18 -96v-40q0 -70 18 -96q20 -27 50 -31z" />
    <glyph glyph-name="parenrightsuperior" unicode="&#x207e;" horiz-adv-x="217" 
d="M14 737v90q90 -5 131 -53.5t41 -164.5v-38q0 -116 -41 -164.5t-131 -53.5v90q30 4 49 31q19 25 19 96v40q0 71 -19 96q-19 27 -49 31z" />
    <glyph glyph-name="zeroinferior" unicode="&#x2080;" horiz-adv-x="651" 
d="M331 -106h-11q-124 0 -189.5 19.5t-91.5 62t-26 122.5v24q0 80 26 122.5t91.5 62t189.5 19.5h11q181 0 244 -43.5t63 -161.5v-24q0 -118 -63 -160.5t-244 -42.5zM326 41q47 0 58 10.5t11 55.5v5q0 45 -10.5 55.5t-58.5 10.5t-58.5 -10.5t-10.5 -55.5v-5q0 -45 11 -55.5
t58 -10.5z" />
    <glyph glyph-name="oneinferior" unicode="&#x2081;" horiz-adv-x="474" 
d="M438 320v-420h-241v270h-7l-158 -79v186l117 43h289z" />
    <glyph glyph-name="twoinferior" unicode="&#x2082;" horiz-adv-x="651" 
d="M637 27v-127h-622v99q0 79 49 112q49 32 164 43l132 11q33 1 33 20v4q0 12 -12 17t-48 5q-58 0 -73 -32h-243q9 81 85.5 114t221.5 33h11q163 0 232 -31.5t69 -98.5v-6q0 -66 -38 -96t-135 -37l-193 -16q-18 -1 -18 -10v-4h385z" />
    <glyph glyph-name="threeinferior" unicode="&#x2083;" horiz-adv-x="651" 
d="M352 -106h-38q-47 0 -83.5 2.5t-72 8t-61 16t-46.5 26t-32.5 39t-14.5 53.5h244q9 -17 25.5 -23.5t54.5 -6.5q41 0 53.5 6t12.5 19v4q0 9 -6 13.5t-25 4.5h-111v110h95q28 0 28 19v4q0 22 -49 22q-50 0 -60 -28h-245q6 50 31.5 80t86.5 46.5t164 16.5h29q163 0 229 -26
t66 -82v-4q0 -38 -24.5 -55t-82.5 -22v-8q58 -5 91 -22q34 -16 34 -71v-4q0 -75 -68 -107q-66 -31 -225 -31z" />
    <glyph glyph-name="fourinferior" unicode="&#x2084;" horiz-adv-x="651" 
d="M593 -24v-76h-241v76h-342v193l242 151h341v-216h41v-128h-41zM187 111v-7h165v104h-8z" />
    <glyph glyph-name="fiveinferior" unicode="&#x2085;" horiz-adv-x="651" 
d="M351 -106h-42q-71 0 -118.5 5t-90.5 19.5t-66.5 44.5t-29.5 77h244q8 -18 24.5 -24.5t53.5 -6.5q42 0 55 7.5t13 21.5v4q0 10 -4.5 15.5t-23.5 9.5t-56 4q-65 0 -79 -11h-221l31 260h569v-122h-351l-6 -57h8q29 37 156 37q94 0 144.5 -15t67 -41.5t16.5 -72.5v-4
q0 -82 -70 -116.5t-224 -34.5z" />
    <glyph glyph-name="sixinferior" unicode="&#x2086;" horiz-adv-x="651" 
d="M353 -106h-42q-173 0 -238.5 49.5t-65.5 157.5v21q0 107 66.5 155.5t240.5 48.5h34q279 0 294 -138h-245q-12 18 -66 18q-50 0 -67 -11t-17 -41v-18h8q21 28 157 28q99 0 150.5 -13.5t67.5 -38.5t16 -71v-4q0 -79 -64 -111t-229 -32zM323 11q52 0 66 5.5t14 20.5v8
q0 15 -14 20.5t-66 5.5t-66 -5.5t-14 -20.5v-8q0 -15 14 -20.5t66 -5.5z" />
    <glyph glyph-name="seveninferior" unicode="&#x2087;" horiz-adv-x="651" 
d="M647 181l-324 -281h-287l309 255v8h-338v157h640v-139z" />
    <glyph glyph-name="eightinferior" unicode="&#x2088;" horiz-adv-x="651" 
d="M353 -107h-55q-149 0 -221 31.5t-72 105.5v4q0 49 31 71.5t93 25.5v8q-106 12 -106 81v3q1 36 27 58t89.5 33.5t172.5 11.5h26q109 0 172.5 -11.5t89.5 -33.5t27 -58v-3q0 -69 -106 -81v-8q62 -3 93 -25.5t31 -71.5v-4q0 -74 -72 -105.5t-220 -31.5zM313 155h22
q32 0 42 5.5t10 17.5v3q0 13 -12.5 18t-50.5 5q-39 0 -51 -5t-12 -18v-3q0 -12 10 -17.5t42 -5.5zM324 15q48 0 61.5 6t13.5 22v2q0 18 -12 23t-55 5h-16q-43 0 -55 -5t-12 -23v-2q0 -16 13.5 -22t61.5 -6z" />
    <glyph glyph-name="nineinferior" unicode="&#x2089;" horiz-adv-x="651" 
d="M298 326h42q173 0 238.5 -49.5t65.5 -157.5v-21q0 -107 -66 -155.5t-241 -48.5h-34q-279 0 -294 138h245q12 -18 66 -18q50 0 67 11t17 41v18h-8q-18 -28 -157 -28q-99 0 -150.5 13.5t-67.5 38.5t-16 71v4q0 79 64 111t229 32zM328 209q-52 0 -66 -5.5t-14 -20.5v-8
q0 -15 14 -20.5t66 -5.5q53 0 66.5 5t13.5 21v8q0 15 -14 20.5t-66 5.5z" />
    <glyph glyph-name="plusinferior" unicode="&#x208a;" horiz-adv-x="360" 
d="M130 160v117h100v-117h111v-99h-111v-117h-100v117h-111v99h111z" />
    <glyph glyph-name="minusinferior" unicode="&#x208b;" horiz-adv-x="360" 
d="M317 61h-274v99h274v-99z" />
    <glyph glyph-name="equalinferior" unicode="&#x208c;" horiz-adv-x="360" 
d="M329 137h-298v99h298v-99zM329 -16h-298v99h298v-99z" />
    <glyph glyph-name="parenleftinferior" unicode="&#x208d;" horiz-adv-x="217" 
d="M203 -37v-90q-90 5 -131 53.5t-41 164.5v38q0 116 41 164.5t131 53.5v-90q-30 -4 -50 -31q-18 -26 -18 -96v-40q0 -70 18 -96q20 -27 50 -31z" />
    <glyph glyph-name="parenrightinferior" unicode="&#x208e;" horiz-adv-x="217" 
d="M14 257v90q90 -5 131 -53.5t41 -164.5v-38q0 -116 -41 -164.5t-131 -53.5v90q30 4 49 31q19 25 19 96v40q0 71 -19 96q-19 27 -49 31z" />
    <glyph glyph-name="Euro" unicode="&#x20ac;" 
d="M576 -10h-52q-197 0 -302 63t-129 188h-93v90h85v38h-85v90h93q24 125 129 188t302 63h52q212 0 308.5 -54t110.5 -166h-292q-17 33 -153 33q-81 0 -119.5 -14.5t-51.5 -49.5h503v-90h-512v-38h512v-90h-503q13 -35 51.5 -49.5t119.5 -14.5q136 0 153 33h292
q-14 -112 -110.5 -166t-308.5 -54z" />
    <glyph glyph-name="litre" unicode="&#x2113;" horiz-adv-x="525" 
d="M276 -15q-81 0 -126.5 36.5t-59.5 112.5l-21 -11l-63 115l76 41v129q0 122 22 187.5t66 90t126 24.5q108 0 150.5 -46.5t42.5 -125.5q0 -94 -53 -162t-160 -136v-61q0 -24 8.5 -35.5t33.5 -11.5q40 0 85 40l74 -110q-87 -77 -201 -77zM276 472v-72q31 27 42.5 56t11.5 74
q0 36 -22 36q-18 0 -25 -18t-7 -76z" />
    <glyph glyph-name="numero" unicode="&#x2116;" horiz-adv-x="1913" 
d="M1584 272h-57q-171 0 -241.5 45t-70.5 163v20q0 118 70.5 163t241.5 45h57q170 0 240.5 -45t70.5 -163v-20q0 -118 -70.5 -163t-240.5 -45zM1145 700v-700h-454l-349 456h-10v-456h-280v700h454l349 -457h10v457h280zM1555 423q69 0 85 9.5t16 53.5v8q0 44 -16 53.5
t-85 9.5t-85 -9.5t-16 -53.5v-8q0 -44 16 -53.5t85 -9.5z" />
    <glyph glyph-name="published" unicode="&#x2117;" horiz-adv-x="994" 
d="M557 -10h-120q-215 0 -310 75t-95 229v112q0 154 95 229t310 75h120q215 0 310 -75t95 -229v-112q0 -154 -95 -229t-310 -75zM454 25h86q115 0 191 18t117.5 57.5t58 91t16.5 127.5v62q0 76 -16.5 127.5t-58 91t-117.5 57.5t-191 18h-86q-115 0 -190.5 -18t-117.5 -57.5
t-58 -91t-16 -127.5v-62q0 -76 16 -127.5t58 -91t117.5 -57.5t190.5 -18zM441 257v-117h-203v420h346q124 0 178.5 -31t54.5 -117v-7q0 -82 -57 -115t-176 -33h-143zM557 441h-116v-65h117q20 0 32 2t16.5 7.5t5.5 9.5t1 13v3q0 17 -10 23.5t-46 6.5z" />
    <glyph glyph-name="trademark" unicode="&#x2122;" horiz-adv-x="1323" 
d="M335 580v-230h-176v230h-139v120h455v-120h-140zM1293 700v-350h-176v244h-6l-105 -244h-203l-105 244h-6v-244h-176v350h322l75 -182h5l75 182h300z" />
    <glyph glyph-name="Omega" unicode="&#x2126;" horiz-adv-x="1208" 
d="M1172 183v-183h-535v277q138 2 183 23.5t45 91.5v5q0 72 -47 93.5t-194 21.5h-40q-147 0 -194 -21.5t-47 -93.5v-5q0 -70 45 -91.5t183 -23.5v-277h-535v183h269v10q-140 12 -204.5 67.5t-64.5 170.5v9q0 67 21 114t60 77.5t105 48t143.5 24t188.5 6.5h100
q111 0 188.5 -6.5t143.5 -24t105 -48t60 -77.5t21 -114v-9q0 -115 -64.5 -170.5t-204.5 -67.5v-10h269z" />
    <glyph glyph-name="estimated" unicode="&#x212e;" horiz-adv-x="841" 
d="M419 -15q-163 0 -278.5 107t-115.5 258q0 152 115 258.5t279 106.5t279.5 -106.5t115.5 -258.5q0 -29 -1 -33h-564v-193q70 -55 170 -55q78 0 143.5 32.5t105.5 88.5h105q-47 -94 -142.5 -149.5t-211.5 -55.5zM249 581v-175h340v175q-27 23 -74.5 36.5t-95.5 13.5
t-95.5 -13.5t-74.5 -36.5z" />
    <glyph glyph-name="arrowleft" unicode="&#x2190;" horiz-adv-x="897" 
d="M351 437h522v-174h-522v-7l260 -256h-249l-346 348v4l346 348h249l-260 -256v-7z" />
    <glyph glyph-name="arrowup" unicode="&#x2191;" horiz-adv-x="896" 
d="M535 444v-522h-174v522h-7l-256 -260v249l348 346h4l348 -346v-249l-256 260h-7z" />
    <glyph glyph-name="arrowright" unicode="&#x2192;" horiz-adv-x="897" 
d="M546 263h-522v174h522v7l-260 256h249l346 -348v-4l-346 -348h-249l260 256v7z" />
    <glyph glyph-name="arrowdown" unicode="&#x2193;" horiz-adv-x="897" 
d="M361 778h174v-522h7l256 260v-249l-348 -346h-4l-348 346v249l256 -260h7v522z" />
    <glyph glyph-name="arrowupleft" unicode="&#x2196;" horiz-adv-x="896" 
d="M413 522l369 -369l-123 -124l-370 369l-5 -5l4 -365l-176 177v492l2 3h493l176 -177l-366 4z" />
    <glyph glyph-name="arrowupright" unicode="&#x2197;" horiz-adv-x="897" 
d="M238 29l-123 124l369 369l-4 5l-366 -4l176 177h493l2 -3v-492l-176 -177l4 365l-5 5z" />
    <glyph glyph-name="arrowdownright" unicode="&#x2198;" horiz-adv-x="897" 
d="M484 178l-369 369l123 124l370 -369l5 5l-4 365l176 -177v-492l-2 -3h-493l-176 177l366 -4z" />
    <glyph glyph-name="arrowdownleft" unicode="&#x2199;" horiz-adv-x="897" 
d="M659 671l123 -124l-369 -369l4 -5l366 4l-176 -177h-493l-2 3v492l176 177l-4 -365l5 -5z" />
    <glyph glyph-name="partialdiff" unicode="&#x2202;" horiz-adv-x="940" 
d="M496 -10h-63q-76 0 -136.5 6.5t-112.5 23t-86 42.5t-53.5 65.5t-19.5 91.5v4q0 62 13.5 101.5t50.5 70.5t107 44.5t180 13.5q222 0 252 -62h9v19q0 42 -20.5 65.5t-75.5 35.5t-157 12q-187 0 -267 -24v193q99 18 282 18h28q186 0 294 -36.5t154.5 -113t46.5 -207.5v-24
q0 -177 -98.5 -258t-327.5 -81zM483 171q99 0 128.5 11t29.5 44v14q0 33 -29.5 44t-128.5 11t-128.5 -11t-29.5 -44v-14q0 -33 29.5 -44t128.5 -11z" />
    <glyph glyph-name="increment" unicode="&#x2206;" horiz-adv-x="1259" 
d="M859 700l400 -700h-1259l400 700h459zM626 525h-10l-177 -322h364z" />
    <glyph glyph-name="product" unicode="&#x220f;" horiz-adv-x="1091" 
d="M1039 700v-870h-300v667h-387v-667h-300v870h987z" />
    <glyph glyph-name="summation" unicode="&#x2211;" horiz-adv-x="961" 
d="M913 33v-203h-861v203l382 223v4l-382 237v203h861v-203h-412v-4l203 -126v-206l-213 -124v-4h422z" />
    <glyph glyph-name="minus" unicode="&#x2212;" horiz-adv-x="600" 
d="M522 255h-444v148h444v-148z" />
    <glyph glyph-name="radical" unicode="&#x221a;" horiz-adv-x="616" 
d="M618 803l-226 -906h-150l-128 350l-63 -19l-51 178l234 64l70 -225h4l131 558h179z" />
    <glyph glyph-name="infinity" unicode="&#x221e;" horiz-adv-x="951" 
d="M685 105q-116 0 -209 109q-93 -109 -210 -109q-98 0 -161.5 62t-63.5 162t63.5 162t161.5 62q117 0 210 -109q93 109 209 109q99 0 162 -62t63 -162t-63 -162t-162 -62zM188 329q0 -42 26 -63t58 -21q54 0 117 84q-63 84 -117 84q-32 0 -58 -21t-26 -63zM679 245
q33 0 59 21t26 63t-26 63t-59 21q-32 0 -59 -21t-58 -63q31 -42 58 -63t59 -21z" />
    <glyph glyph-name="integral" unicode="&#x222b;" horiz-adv-x="495" 
d="M84 -170h-54v170h39q42 0 55 12t13 54v488q0 59 18.5 98.5t56 60.5t84.5 29t115 8h54v-170h-39q-42 0 -55 -12t-13 -54v-488q0 -113 -68 -154.5t-206 -41.5z" />
    <glyph glyph-name="approxequal" unicode="&#x2248;" horiz-adv-x="600" 
d="M423 353q-49 0 -132.5 33t-118.5 33q-65 0 -114 -61v153q14 22 44.5 39t74.5 17q49 0 132.5 -33t118.5 -33q65 0 114 61v-154q-15 -21 -45.5 -38t-73.5 -17zM423 91q-49 0 -132.5 33t-118.5 33q-65 0 -114 -61v153q14 22 44.5 39t74.5 17q49 0 132.5 -33t118.5 -33
q65 0 114 61v-154q-15 -21 -45.5 -38t-73.5 -17z" />
    <glyph glyph-name="notequal" unicode="&#x2260;" horiz-adv-x="600" 
d="M142 129h-84v148h144l42 103h-186v148h246l53 130h154l-53 -130h84v-148h-144l-42 -103h186v-148h-246l-53 -129h-154z" />
    <glyph glyph-name="lessequal" unicode="&#x2264;" horiz-adv-x="600" 
d="M530 332v-153l-457 151v149l457 151v-153l-244 -70v-6zM530 17h-460v148h460v-148z" />
    <glyph glyph-name="greaterequal" unicode="&#x2265;" horiz-adv-x="600" 
d="M527 330l-457 -151v153l244 69v6l-244 70v153l457 -151v-149zM530 165v-148h-460v148h460z" />
    <glyph glyph-name="lozenge" unicode="&#x25ca;" horiz-adv-x="579" 
d="M388 678l167 -349l-167 -349h-198l-166 349l166 349h198zM289 111l105 218l-105 218l-103 -218z" />
    <glyph glyph-name="germandbls.cap" horiz-adv-x="2140" 
d="M579 -10h-87q-80 0 -139.5 4.5t-119.5 18t-100 37.5t-69.5 64.5t-39.5 96.5h322q11 -26 51 -34.5t157 -8.5q83 0 125 5.5t54.5 15t12.5 28.5v4q0 21 -14.5 29t-55.5 9l-302 10q-133 4 -204 24.5t-99 61t-28 113.5v10q0 135 102.5 183.5t366.5 48.5h59q80 0 139.5 -4.5
t120.5 -19t101.5 -39t69.5 -67t37 -101.5h-323q-9 30 -47.5 41.5t-142.5 11.5q-107 0 -142 -10.5t-35 -40.5v-2q0 -21 14.5 -29t55.5 -9l298 -10q134 -4 205 -23.5t98.5 -57.5t27.5 -108v-7q0 -143 -102.5 -194t-366.5 -51zM1649 -10h-87q-80 0 -139.5 4.5t-119.5 18
t-100 37.5t-69.5 64.5t-39.5 96.5h322q11 -26 51 -34.5t157 -8.5q83 0 125 5.5t54.5 15t12.5 28.5v4q0 21 -14.5 29t-55.5 9l-302 10q-133 4 -204 24.5t-99 61t-28 113.5v10q0 135 102.5 183.5t366.5 48.5h59q80 0 139.5 -4.5t120.5 -19t101.5 -39t69.5 -67t37 -101.5h-323
q-9 30 -47.5 41.5t-142.5 11.5q-106 0 -141.5 -10.5t-35.5 -40.5v-2q0 -21 14.5 -29t55.5 -9l298 -10q134 -4 205 -23.5t98.5 -57.5t27.5 -108v-7q0 -143 -102.5 -194t-366.5 -51z" />
    <glyph glyph-name="i.TRK" horiz-adv-x="311" 
d="M20 700h271v-130h-271v130zM20 530h271v-530h-271v530z" />
    <glyph glyph-name="a.superior" horiz-adv-x="658" 
d="M638 525v-245h-241v78h-4q-23 -86 -181 -86q-111 0 -157.5 32t-46.5 105v7q0 110 150 113l239 8v11q0 23 -10.5 29.5t-51.5 6.5q-49 0 -59 -17h-251q15 37 33.5 60t52.5 43t90 29t139 9h7q124 0 185 -16.5t83.5 -53.5t22.5 -113zM251 422v-4q0 -15 10 -21t38 -6
q49 0 73.5 15.5t24.5 41.5v2l-105 -4q-24 -1 -32.5 -5.5t-8.5 -18.5z" />
    <glyph glyph-name="b.superior" horiz-adv-x="719" 
d="M261 280h-241v554h241v-204h4q19 42 64 60t127 18h1q129 0 186.5 -45.5t57.5 -162.5v-20q0 -117 -57.5 -162.5t-186.5 -45.5h-1q-83 0 -127.5 18t-63.5 60h-4v-70zM361 423q67 0 84 10.5t17 52.5v8q0 42 -17 52.5t-84 10.5t-83.5 -10.5t-16.5 -52.5v-8q0 -42 16 -52.5
t84 -10.5z" />
    <glyph glyph-name="c.superior" horiz-adv-x="719" 
d="M384 272h-59q-174 0 -240.5 44t-66.5 164v20q0 120 66.5 164t240.5 44h59q89 0 149 -11.5t94.5 -35.5t50.5 -54.5t22 -75.5h-240q-8 14 -27.5 20t-73.5 6q-68 0 -85 -10.5t-17 -52.5v-8q0 -42 16.5 -52.5t85.5 -10.5q54 0 73.5 6t27.5 20h240q-6 -45 -22 -75.5
t-50.5 -54.5t-94.5 -35.5t-149 -11.5z" />
    <glyph glyph-name="d.superior" horiz-adv-x="719" 
d="M699 834v-554h-241v70h-4q-19 -42 -63.5 -60t-127.5 -18h-1q-129 0 -186.5 45.5t-57.5 162.5v20q0 117 57.5 162.5t186.5 45.5h1q82 0 127 -18t64 -60h4v204h241zM358 423q68 0 84 10.5t16 52.5v8q0 42 -16 52.5t-84 10.5t-84.5 -10.5t-16.5 -52.5v-8q0 -42 16.5 -52.5
t84.5 -10.5z" />
    <glyph glyph-name="e.superior" horiz-adv-x="664" 
d="M403 427h240q-10 -62 -37.5 -93.5t-91.5 -46.5t-184 -15h-5q-174 0 -240.5 44t-66.5 164v20q0 120 66.5 164t240.5 44h5q174 0 245 -44.5t71 -163.5v-39h-389q1 -37 13.5 -45.5t61.5 -8.5q40 0 53 3.5t18 16.5zM332 585q-47 0 -60 -7q-14 -6 -15 -37h149v4q0 23 -12 31
q-12 9 -62 9z" />
    <glyph glyph-name="f.superior" horiz-adv-x="479" 
d="M106 545h-86v155h87q7 77 62 105.5t161 28.5h129v-106h-71q-26 0 -33.5 -5.5t-7.5 -20.5v-2h112v-155h-112v-265h-241v265z" />
    <glyph glyph-name="g.superior" horiz-adv-x="715" 
d="M386 145h-42q-153 0 -231 29t-95 102h240q9 -11 24.5 -13.5t68.5 -2.5q69 0 86 15t17 71v33h-4q-19 -39 -60 -55t-124 -16h-4q-128 0 -186 42t-58 151v13q0 110 58 152t187 42h3q83 0 124 -16t60 -56h4v64h241v-351q0 -117 -70 -160.5t-239 -43.5zM357 448q68 0 82.5 9.5
t14.5 48.5v4q0 39 -14.5 48t-82.5 9t-83.5 -9.5t-15.5 -47.5v-4q0 -39 15.5 -48.5t83.5 -9.5z" />
    <glyph glyph-name="h.superior" horiz-adv-x="642" 
d="M622 524v-244h-240v211q0 45 -8.5 55.5t-47.5 10.5q-40 0 -53 -18t-13 -63v-196h-240v554h240v-205h4q36 79 155 79q40 0 68 -3.5t55.5 -14.5t43.5 -30.5t26 -53.5t10 -82z" />
    <glyph glyph-name="i.superior" horiz-adv-x="280" 
d="M20 834h240v-108h-240v108zM20 700h240v-420h-240v420z" />
    <glyph glyph-name="j.superior" horiz-adv-x="280" 
d="M20 834h240v-108h-240v108zM20 700h240v-317q0 -94 -10.5 -137.5t-48.5 -100.5h-239q39 57 48.5 99.5t9.5 121.5v334z" />
    <glyph glyph-name="k.superior" horiz-adv-x="718" 
d="M260 318v-38h-240v554h240v-301h4l165 167h268l-184 -161l205 -259h-294l-76 111h-4z" />
    <glyph glyph-name="l.superior" horiz-adv-x="280" 
d="M260 834v-554h-240v554h240z" />
    <glyph glyph-name="m.superior" horiz-adv-x="976" 
d="M956 524v-244h-240v211q0 44 -8 55t-42 11q-35 0 -46.5 -18t-11.5 -63v-196h-240v211q0 44 -8 55t-42 11q-35 0 -46.5 -18t-11.5 -63v-196h-240v420h240v-71h4q37 79 149 79q69 0 112.5 -16t64.5 -62h5q33 78 156 78q40 0 68 -3.5t56 -14.5t44.5 -30.5t26.5 -53.5t10 -82
z" />
    <glyph glyph-name="n.superior" horiz-adv-x="642" 
d="M622 524v-244h-240v211q0 45 -8.5 55.5t-47.5 10.5q-40 0 -53 -18t-13 -63v-196h-240v420h240v-71h4q36 79 155 79q40 0 68 -3.5t55.5 -14.5t43.5 -30.5t26 -53.5t10 -82z" />
    <glyph glyph-name="o.superior" horiz-adv-x="716" 
d="M387 272h-57q-172 0 -242 45t-70 163v20q0 118 70 163t242 45h57q170 0 240.5 -45t70.5 -163v-20q0 -118 -70.5 -163t-240.5 -45zM358 423q69 0 85 9.5t16 53.5v8q0 44 -16 53.5t-85 9.5t-85 -9.5t-16 -53.5v-8q0 -44 16 -53.5t85 -9.5z" />
    <glyph glyph-name="p.superior" horiz-adv-x="719" 
d="M20 146v554h241v-70h4q19 42 63.5 60t127.5 18h1q129 0 186.5 -45.5t57.5 -162.5v-20q0 -117 -57.5 -162.5t-186.5 -45.5h-1q-82 0 -127 18t-64 60h-4v-204h-241zM361 557q-68 0 -84 -10.5t-16 -52.5v-8q0 -42 16.5 -52.5t83.5 -10.5t84 10.5t17 52.5v8q0 42 -17 52.5
t-84 10.5z" />
    <glyph glyph-name="q.superior" horiz-adv-x="719" 
d="M458 700h241v-554h-241v204h-4q-19 -42 -64 -60t-127 -18h-1q-129 0 -186.5 45.5t-57.5 162.5v20q0 117 57.5 162.5t186.5 45.5h1q83 0 127.5 -18t63.5 -60h4v70zM358 557q-68 0 -84.5 -10.5t-16.5 -52.5v-8q0 -42 16.5 -52.5t84.5 -10.5t84 10.5t16 52.5v8
q0 42 -16 52.5t-84 10.5z" />
    <glyph glyph-name="r.superior" horiz-adv-x="452" 
d="M432 700h4v-155h-70q-39 0 -61 -4t-32 -16.5t-11.5 -24t-1.5 -38.5v-182h-240v420h240v-70h4q16 36 51 53q37 17 117 17z" />
    <glyph glyph-name="s.superior" horiz-adv-x="715" 
d="M377 272h-39q-147 0 -225.5 32.5t-90.5 111.5h261q6 -21 22 -27.5t60 -6.5q40 0 53 5.5t13 20.5v3q0 11 -8.5 15t-30.5 5l-141 9q-110 7 -161.5 31t-51.5 86v6q0 82 70.5 113.5t251.5 31.5h13q158 0 230 -34.5t86 -109.5h-260q-5 20 -20 27t-46 7q-36 0 -49.5 -6
t-13.5 -20v-3q0 -20 35 -21l146 -7q110 -5 161 -28t51 -85v-7q0 -81 -69.5 -115t-246.5 -34z" />
    <glyph glyph-name="t.superior" horiz-adv-x="465" 
d="M445 423v-143h-128q-131 0 -180 38.5t-49 132.5v94h-68v155h68v134h241v-134h116v-155h-116v-54q0 -46 12.5 -57t67.5 -11h36z" />
    <glyph glyph-name="u.superior" horiz-adv-x="642" 
d="M20 456v244h240v-211q0 -45 8.5 -55.5t47.5 -10.5q40 0 53 18t13 63v196h240v-420h-240v71h-4q-36 -79 -155 -79q-40 0 -68 3.5t-55.5 14.5t-43.5 30.5t-26 53.5t-10 82z" />
    <glyph glyph-name="v.superior" horiz-adv-x="683" 
d="M683 700l-185 -420h-312l-186 420h273l79 -231h4l80 231h247z" />
    <glyph glyph-name="w.superior" horiz-adv-x="1070" 
d="M1070 700l-150 -420h-304l-71 210l-72 -210h-319l-154 420h272l69 -238h4l77 238h258l77 -238h4l69 238h240z" />
    <glyph glyph-name="x.superior" horiz-adv-x="811" 
d="M566 495l245 -215h-321l-87 101h-4l-98 -101h-301l239 213l-223 207h320l75 -86h4l80 86h301z" />
    <glyph glyph-name="y.superior" horiz-adv-x="642" 
d="M645 700l-276 -555h-253l77 130l-197 425h258l71 -196h6l69 196h245z" />
    <glyph glyph-name="z.superior" horiz-adv-x="623" 
d="M603 434v-154h-583v146l240 119h-215v155h532v-146l-239 -120h265z" />
    <glyph glyph-name="grave.cap" horiz-adv-x="500" 
d="M370 860l101 -120h-287l-156 120h342z" />
    <glyph glyph-name="acute.cap" horiz-adv-x="500" 
d="M471 860l-156 -120h-287l101 120h342z" />
    <glyph glyph-name="circumflex.cap" horiz-adv-x="500" 
d="M453 860l131 -120h-227l-107 61l-106 -61h-227l131 120h405z" />
    <glyph glyph-name="caron.cap" horiz-adv-x="500" 
d="M251 799l106 61h227l-131 -120h-405l-131 120h227z" />
    <glyph glyph-name="caronSlovak" horiz-adv-x="500" 
d="M413 700l-111 -234h-215l36 234h290z" />
    <glyph glyph-name="tilde.cap" horiz-adv-x="500" 
d="M348 730q-47 0 -106 16t-70 16q-14 0 -19 -4t-8 -18h-179q11 74 53.5 102t122.5 28q47 0 106 -16t70 -16q14 0 19 4t8 18h189q-11 -73 -57.5 -101.5t-128.5 -28.5z" />
    <glyph glyph-name="dieresis.cap" horiz-adv-x="500" 
d="M17 870h213v-130h-213v130zM270 870h213v-130h-213v130z" />
    <glyph glyph-name="macron.cap" horiz-adv-x="500" 
d="M500 850v-90h-500v90h500z" />
    <glyph glyph-name="breve.cap" horiz-adv-x="500" 
d="M250 730q-106 0 -166 14.5t-86 41t-37 74.5h217q6 -19 20.5 -26.5t51.5 -7.5t51.5 7.5t20.5 26.5h217q-11 -48 -37 -74.5t-86 -41t-166 -14.5z" />
    <glyph glyph-name="ring.cap" horiz-adv-x="500" 
d="M250 716q-123 0 -176 23.5t-53 90.5t53 90.5t176 23.5t176 -23.5t53 -90.5t-53 -90.5t-176 -23.5zM250 792q62 0 62 38t-62 38t-62 -38t62 -38z" />
    <glyph glyph-name="hungarumlaut.cap" horiz-adv-x="500" 
d="M288 860l-156 -120h-287l101 120h342zM655 860l-156 -120h-287l101 120h342z" />
    <glyph glyph-name="dotaccent.cap" horiz-adv-x="500" 
d="M113 870h271v-130h-271v130z" />
    <glyph glyph-name="commaaccent.alt" horiz-adv-x="500" 
d="M185 698l23 16h149l-63 -47v-10h97v-87h-271v24q0 37 13 56.5t52 47.5z" />
    <glyph glyph-name="hyphen.cap" horiz-adv-x="390" 
d="M370 257h-350v185h350v-185z" />
    <glyph glyph-name="exclamdown.cap" horiz-adv-x="391" 
d="M50 700h291v-205h-291v205zM371 293v-293h-351v293l73 143h206z" />
    <glyph glyph-name="questiondown.cap" horiz-adv-x="858" 
d="M301 700h291v-205h-291v205zM281 443h321v-17q0 -53 -35 -78t-144 -52q-78 -20 -98 -33.5t-20 -38.5v-2q1 -25 26.5 -35t85.5 -10q76 0 102.5 16.5t32.5 73.5h288q-4 -151 -108.5 -214t-310.5 -63h-17q-388 0 -388 206v22q0 80 42.5 126t158.5 73q47 10 64 26z" />
    <glyph glyph-name="guilsinglleft.cap" horiz-adv-x="327" 
d="M36 347v6l84 219h164l-89 -222l89 -222h-164z" />
    <glyph glyph-name="guilsinglright.cap" horiz-adv-x="327" 
d="M291 353v-6l-84 -219h-164l89 222l-89 222h164z" />
    <glyph glyph-name="guillemotleft.cap" horiz-adv-x="548" 
d="M36 347v6l84 219h164l-89 -222l89 -222h-164zM257 347v6l84 219h164l-89 -222l89 -222h-164z" />
    <glyph glyph-name="guillemotright.cap" horiz-adv-x="548" 
d="M291 353v-6l-84 -219h-164l89 222l-89 222h164zM512 353v-6l-84 -219h-164l89 222l-89 222h164z" />
    <glyph glyph-name="endash.cap" horiz-adv-x="780" 
d="M760 292h-740v115h740v-115z" />
    <glyph glyph-name="emdash.cap" horiz-adv-x="1170" 
d="M1150 292h-1130v115h1130v-115z" />
    <glyph glyph-name="periodcentered.cap" horiz-adv-x="391" 
d="M341 247h-291v205h291v-205z" />
    <glyph glyph-name="parenleft.cap" horiz-adv-x="367" 
d="M338 84v-129q-142 11 -210 94t-68 271v60q0 188 68 271t210 94v-129q-68 -13 -97.5 -63t-29.5 -169v-68q0 -119 30 -169t97 -63z" />
    <glyph glyph-name="parenright.cap" horiz-adv-x="367" 
d="M29 616v129q142 -11 210 -94t68 -271v-60q0 -188 -68 -271t-210 -94v129q67 13 97 63t30 169v68q0 119 -29.5 169t-97.5 63z" />
    <glyph glyph-name="bracketleft.cap" horiz-adv-x="367" 
d="M338 67v-113h-272v790h272v-113h-127v-564h127z" />
    <glyph glyph-name="bracketright.cap" horiz-adv-x="367" 
d="M29 632v113h272v-790h-272v113h127v564h-127z" />
    <glyph glyph-name="braceleft.cap" horiz-adv-x="367" 
d="M338 68v-113h-62q-113 0 -148.5 41.5t-35.5 151.5v33q0 62 -12.5 78t-69.5 20v142q57 4 69.5 20t12.5 78v33q0 110 35.5 151.5t148.5 41.5h62v-113h-30q-45 0 -58 -24t-13 -106v-26q0 -66 -18.5 -88t-91.5 -34v-8q73 -12 91.5 -34t18.5 -88v-26q0 -82 13 -106t58 -24h30z
" />
    <glyph glyph-name="braceright.cap" horiz-adv-x="367" 
d="M91 -45h-62v113h30q46 0 58.5 24t12.5 106v26q0 66 18.5 88t91.5 34v8q-73 12 -91.5 34t-18.5 88v26q0 82 -12.5 106t-58.5 24h-30v113h62q113 0 148.5 -41.5t35.5 -151.5v-33q0 -62 12.5 -78t69.5 -20v-142q-57 -4 -69.5 -20t-12.5 -78v-33q0 -110 -35.5 -151.5
t-148.5 -41.5z" />
    <glyph glyph-name="at.cap" horiz-adv-x="1231" 
d="M569 -69q-272 0 -405 91.5t-133 295.5v24q0 199 148 313t422 114q279 0 423 -89t144 -280v-7q0 -297 -315 -297q-79 0 -123 14t-56.5 32.5t-17.5 50.5h-8q-24 -41 -66.5 -57.5t-109.5 -16.5h-13q-114 0 -162.5 50t-35.5 176l-2 -13q13 130 75 181.5t182 51.5h9
q57 0 97 -19.5t54 -52.5h7l8 64h250l-35 -281q-4 -34 2 -48.5t30 -14.5q44 0 73.5 47t29.5 126v7q0 139 -104.5 201.5t-339.5 62.5q-222 0 -331 -86t-109 -227v-22q0 -148 97.5 -213.5t320.5 -65.5q208 0 313 23v-109q-33 -9 -123 -17.5t-196 -8.5zM572 271q53 0 73 14
t26 60l2 15q4 28 -12.5 40.5t-64.5 12.5q-53 0 -73 -14t-26 -60l-2 -15q-4 -28 12.5 -40.5t64.5 -12.5z" />
    <glyph glyph-name="zero.slash" horiz-adv-x="1120" 
d="M614 -11h-108q-262 0 -368 73t-106 267v41q0 194 106 267t368 73h108q262 0 368 -73t106 -267v-41q0 -194 -106 -267t-368 -73zM321 356v-13q0 -74 16 -104l347 272q-48 6 -124 6q-109 0 -158 -13.5t-65 -45t-16 -102.5zM560 182q83 0 128 5.5t71 25.5t32.5 48t6.5 82v13
q0 79 -18 108l-352 -275q46 -7 132 -7z" />
    <glyph glyph-name="numbersign.LT" 
d="M728 0h-191l18 141h-144l-18 -141h-191l18 141h-167v150h186l14 118h-167v150h187l18 141h191l-18 -141h144l18 141h191l-18 -141h168v-150h-188l-14 -118h169v-150h-188zM600 418h-164l-18 -136h164z" />
    <glyph glyph-name="Euro.LT" 
d="M576 -10h-52q-197 0 -302 63t-129 188h-93v90h85v38h-85v90h93q24 125 129 188t302 63h52q212 0 308.5 -54t110.5 -166h-292q-17 33 -153 33q-81 0 -119.5 -14.5t-51.5 -49.5h503v-90h-512v-38h512v-90h-503q13 -35 51.5 -49.5t119.5 -14.5q136 0 153 33h292
q-14 -112 -110.5 -166t-308.5 -54z" />
    <glyph glyph-name="dollar.LT" 
d="M575 10v-115h-120v115q-77 1 -135 6.5t-113 19t-92 35.5t-62 57.5t-33 83.5h309q8 -28 43.5 -37.5t146.5 -9.5q74 0 113 7t49.5 17t10.5 28v4q0 20 -12 28.5t-46 9.5l-300 10q-165 4 -230 46.5t-65 142.5v7q0 115 93 167.5t323 56.5v116h120v-115q200 -5 301.5 -50
t117.5 -152h-308q-9 28 -42 37.5t-131 9.5q-99 0 -131.5 -9.5t-32.5 -33.5v-4q0 -19 12 -27.5t46 -10.5l300 -10q166 -6 230.5 -47t64.5 -142v-6q0 -121 -95.5 -176t-331.5 -59z" />
    <glyph glyph-name="cent.LT" 
d="M584 -10v-95h-120v95q-197 3 -277.5 59t-80.5 201v30q0 145 80.5 201t277.5 59v95h120v-95q129 -2 205.5 -29.5t108 -70.5t42.5 -113h-274q-16 21 -43.5 29t-98.5 8q-66 0 -97 -9t-40.5 -26.5t-9.5 -56.5v-14q0 -40 9.5 -58t40 -26t97.5 -8q71 0 98.5 8t43.5 29h274
q-11 -70 -42.5 -113t-108 -70.5t-205.5 -29.5z" />
    <glyph glyph-name="sterling.LT" 
d="M882 395v-90h-478v-116h583v-189h-953v189h90v116h-90v90h90q6 169 97.5 242t312.5 73h48q384 0 415 -220h-292q-11 20 -40 26.5t-107 6.5q-94 0 -124 -24t-30 -86v-18h478z" />
    <glyph glyph-name="florin.LT" 
d="M592 305v-410h-280v410h-292v90h293q8 163 97 234t296 71h255v-197h-199q-101 0 -135.5 -24.5t-34.5 -83.5h369v-90h-369z" />
    <glyph glyph-name="yen.LT" 
d="M368 331v38h-288v90h189l-269 241h359l165 -170h10l165 170h321l-267 -241h189v-90h-288v-38h288v-90h-288v-241h-286v241h-288v90h288z" />
    <glyph glyph-name="zero.slash.LT" 
d="M534 -11h-48q-251 0 -352.5 73t-101.5 267v41q0 194 101.5 267t352.5 73h48q251 0 352.5 -73t101.5 -267v-41q0 -194 -101.5 -267t-352.5 -73zM321 356v-13q0 -57 7 -86l290 252q-31 8 -108 8q-86 0 -124.5 -13t-51.5 -44.5t-13 -103.5zM510 182q86 0 124 13t51 44.5
t13 103.5v13q0 57 -7 86l-290 -252q43 -8 109 -8z" />
    <glyph glyph-name="zero.LT" 
d="M534 -11h-48q-251 0 -352.5 73t-101.5 267v41q0 194 101.5 267t352.5 73h48q251 0 352.5 -73t101.5 -267v-41q0 -194 -101.5 -267t-352.5 -73zM510 182q86 0 124 13t51 44.5t13 103.5v13q0 72 -13 103.5t-51 44.5t-124 13t-124.5 -13t-51.5 -44.5t-13 -103.5v-13
q0 -72 13 -103.5t51.5 -44.5t124.5 -13z" />
    <glyph glyph-name="one.LT" 
d="M980 189v-189h-940v189h327v307h-10l-317 -143v247l255 100h358v-511h327z" />
    <glyph glyph-name="two.LT" 
d="M987 189v-189h-953v148q0 131 71.5 189.5t251.5 71.5l262 21q45 4 61.5 14.5t16.5 31.5v1q0 19 -9.5 27.5t-46 13.5t-112.5 5q-109 0 -143.5 -6.5t-51.5 -30.5h-288q20 124 121 174t303 50h97q156 0 248.5 -23.5t131.5 -69t39 -120.5v-10q0 -109 -61 -162t-214 -65
l-359 -29q-22 -2 -30 -9t-8 -23v-10h673z" />
    <glyph glyph-name="three.LT" 
d="M592 -10h-143q-58 0 -101.5 2.5t-93.5 10.5t-85.5 24t-67.5 40.5t-51.5 62.5t-26.5 89h290q10 -26 47 -34t142 -8q68 0 105 1.5t59 7t28 13t6 22.5v4q0 21 -17 29.5t-58 8.5h-284v176h274q38 0 51.5 7.5t13.5 27.5v5q0 15 -11 24t-47 14.5t-103 5.5q-94 0 -126.5 -6.5
t-43.5 -25.5h-298q18 76 58 122.5t120.5 71.5t209.5 25h133q214 0 311 -43.5t97 -130.5v-4q0 -66 -35.5 -99t-125.5 -41v-10q106 -6 143.5 -46.5t37.5 -129.5v-4q0 -76 -36 -121t-125.5 -68t-246.5 -23z" />
    <glyph glyph-name="four.LT" 
d="M928 138v-138h-286v138h-614v313l484 249h416v-373h82v-189h-82zM249 337v-10h393v207h-10z" />
    <glyph glyph-name="five.LT" 
d="M592 -10h-143q-71 0 -123.5 4t-108 17.5t-92 37t-64 64t-35.5 96.5h290q19 -20 52.5 -26t133.5 -6q89 0 130 5t54.5 15.5t13.5 33.5v15q0 23 -14 34t-57.5 16t-135.5 5q-113 0 -150.5 -5.5t-49.5 -22.5h-258l49 427h860v-189h-606l-14 -104h10q23 32 89 49t221 17
q109 0 179 -14t109 -44.5t53.5 -70.5t14.5 -101v-7q0 -134 -99.5 -190t-308.5 -56z" />
    <glyph glyph-name="six.LT" 
d="M602 -10h-151q-229 0 -324 80.5t-95 258.5v41q0 181 97.5 260.5t324.5 79.5h109q143 0 235.5 -27t135.5 -71t61 -112h-302q-13 15 -47 21t-126 6q-90 0 -135.5 -13.5t-60 -39t-14.5 -74.5v-14h10q41 57 291 57q101 0 169.5 -8.5t111 -23.5t65.5 -42.5t30.5 -58t7.5 -77.5
v-4q0 -128 -98 -183.5t-295 -55.5zM508 171q88 0 130 5t55.5 16t13.5 34v14q0 23 -13.5 34t-55.5 16t-130 5t-130 -5t-55.5 -16t-13.5 -34v-14q0 -23 13.5 -34t55.5 -16t130 -5z" />
    <glyph glyph-name="seven.LT" 
d="M1002 495l-514 -495h-385l547 501v10h-630v189h982v-205z" />
    <glyph glyph-name="eight.LT" 
d="M592 -10h-164q-98 0 -168 9.5t-126.5 34t-85 70t-28.5 112.5v5q2 80 44.5 117.5t139.5 45.5v10q-82 10 -123 42t-41 95v4q0 87 95 131t314 44h122q219 0 314 -44t95 -131v-4q0 -63 -41 -95t-123 -42v-10q97 -8 139.5 -45.5t44.5 -117.5v-5q0 -67 -28.5 -112.5t-85 -70
t-126.5 -34t-168 -9.5zM435 431h150q62 0 78 13q17 14 17 36v5q0 18 -11.5 28t-49 15.5t-109.5 5.5t-109.5 -5.5t-49 -15.5t-11.5 -28v-5q0 -22 17 -36q16 -13 78 -13zM510 166q84 0 125.5 7t53 18t11.5 34v4q0 32 -24.5 45.5t-98.5 13.5h-134q-74 0 -98.5 -13.5
t-24.5 -45.5v-4q0 -23 11.5 -34t53 -18t125.5 -7z" />
    <glyph glyph-name="nine.LT" 
d="M418 710h151q229 0 324 -80.5t95 -258.5v-41q0 -181 -97.5 -260.5t-324.5 -79.5h-109q-143 0 -235.5 27t-135.5 71t-61 112h302q13 -15 47 -21t126 -6q89 0 134.5 13.5t60.5 39t15 74.5v14h-10q-41 -57 -291 -57q-101 0 -169.5 8.5t-111 23.5t-65.5 42.5t-30.5 58
t-7.5 77.5v4q0 128 98 183.5t295 55.5zM512 529q-88 0 -130 -5t-55.5 -16t-13.5 -34v-14q0 -23 13.5 -34t55.5 -16t130 -5t130 5t55.5 16t13.5 34v14q0 23 -13.5 34t-55.5 16t-130 5z" />
    <glyph glyph-name="numbersign.OP" 
d="M736 0h-191l13 103h-147l-13 -103h-191l13 103h-167v150h186l11 94h-167v150h187l13 103h191l-13 -103h147l13 103h191l-13 -103h168v-150h-188l-11 -94h169v-150h-188zM600 356h-167l-15 -112h167z" />
    <glyph glyph-name="Euro.OP" 
d="M576 -10h-52q-199 0 -300.5 45.5t-127.5 155.5h-96v90h85v14v10v14h-85v90h96q26 110 127 155.5t301 45.5h52q210 0 307.5 -43.5t111.5 -126.5h-292q-13 13 -44.5 18t-108.5 5q-76 0 -113.5 -12t-52.5 -42h498v-90h-512v-38h512v-90h-498q15 -30 52.5 -42t113.5 -12
q77 0 108.5 5t44.5 18h292q-14 -83 -111.5 -126.5t-307.5 -43.5z" />
    <glyph glyph-name="dollar.OP" 
d="M575 10v-115h-120v115h-8q-95 0 -160 6.5t-123.5 24t-93.5 52.5t-49 89h308q16 -20 49.5 -25t145.5 -5q61 0 95 1.5t53.5 6t25 10.5t5.5 18v4q0 15 -12 21.5t-46 7.5l-336 11q-157 6 -213.5 42.5t-56.5 122.5v6q0 97 95.5 141.5t320.5 45.5v115h120v-115q73 0 127 -3.5
t108 -14.5t89 -29.5t60 -50t33 -75.5h-308q-15 23 -46 29t-130 6q-110 0 -139.5 -5.5t-29.5 -27.5v-3q0 -15 12 -21.5t47 -8.5l333 -11q106 -3 166 -21.5t82.5 -51.5t22.5 -89v-9q0 -103 -97.5 -148.5t-329.5 -45.5z" />
    <glyph glyph-name="cent.OP" horiz-adv-x="872" 
d="M496 -10v-95h-120v95q-197 3 -277.5 59t-80.5 201v30q0 145 80.5 201t277.5 59v95h120v-95q129 -2 205.5 -29.5t108 -70.5t42.5 -113h-274q-16 21 -43.5 29t-98.5 8q-66 0 -97 -9t-40.5 -26.5t-9.5 -56.5v-14q0 -40 9.5 -58t40 -26t97.5 -8q71 0 98.5 8t43.5 29h274
q-11 -70 -42.5 -113t-108 -70.5t-205.5 -29.5z" />
    <glyph glyph-name="sterling.OP" 
d="M882 344v-90h-478v-65h583v-189h-953v189h90v65h-90v90h92q12 148 102.5 207t305.5 59h48q384 0 415 -220h-292q-11 20 -40 26.5t-107 6.5q-94 0 -123.5 -14.5t-30.5 -64.5h478z" />
    <glyph glyph-name="florin.OP" 
d="M592 255v-360h-280v360h-292v90h297q18 135 108 195t281 60h255v-197h-199q-76 0 -113 -13.5t-49 -44.5h361v-90h-369z" />
    <glyph glyph-name="yen.OP" 
d="M654 191v-191h-286v191h-288v90h276l-43 38h-233v90h133l-213 191h359l165 -170h10l165 170h321l-212 -191h134v-90h-234l-42 -38h276v-90h-288z" />
    <glyph glyph-name="zero.slash.OP" horiz-adv-x="1120" 
d="M614 -10h-108q-130 0 -214.5 13t-145.5 46.5t-87.5 91.5t-26.5 147v24q0 89 26.5 147t87.5 91.5t145.5 46.5t214.5 13h108q130 0 214.5 -13t145.5 -46.5t87.5 -91.5t26.5 -147v-24q0 -89 -26.5 -147t-87.5 -91.5t-145.5 -46.5t-214.5 -13zM322 312v-24q0 -54 24 -74
l296 201q-48 2 -82 2q-106 0 -155.5 -9t-66 -30t-16.5 -66zM560 183q106 0 155.5 9t66 30t16.5 66v24q0 54 -24 74l-296 -201q46 -2 82 -2z" />
    <glyph glyph-name="zero.OP" horiz-adv-x="1120" 
d="M614 -10h-108q-130 0 -214.5 13t-145.5 46.5t-87.5 91.5t-26.5 147v24q0 89 26.5 147t87.5 91.5t145.5 46.5t214.5 13h108q130 0 214.5 -13t145.5 -46.5t87.5 -91.5t26.5 -147v-24q0 -89 -26.5 -147t-87.5 -91.5t-145.5 -46.5t-214.5 -13zM560 183q106 0 155.5 9t66 30
t16.5 66v24q0 45 -16.5 66t-66 30t-155.5 9t-155.5 -9t-66 -30t-16.5 -66v-24q0 -45 16.5 -66t66 -30t155.5 -9z" />
    <glyph glyph-name="one.OP" horiz-adv-x="707" 
d="M645 600v-600h-286v396h-10l-317 -143v247l255 100h358z" />
    <glyph glyph-name="two.OP" 
d="M987 178v-178h-953v126q0 109 58 167t191 67l381 28q20 2 26.5 6.5t6.5 15.5v4q0 9 -9 14t-47 8t-112 3q-107 0 -141.5 -7t-53.5 -30h-288q35 119 140.5 163.5t323.5 44.5h17q169 0 272.5 -22.5t145 -62.5t41.5 -101v-11q0 -89 -56.5 -131.5t-205.5 -52.5l-383 -28
q-27 -1 -27 -19v-4h673z" />
    <glyph glyph-name="three.OP" 
d="M592 -110h-143q-58 0 -101.5 2.5t-93.5 10.5t-85.5 24t-67.5 40.5t-51.5 62.5t-26.5 89h290q10 -26 47 -34t142 -8q68 0 105 1.5t59 7t28 13t6 22.5v4q0 21 -17 29.5t-58 8.5h-284v176h274q38 0 51.5 7.5t13.5 27.5v5q0 15 -11 24t-47 14.5t-103 5.5q-94 0 -126.5 -6.5
t-43.5 -25.5h-298q18 76 58 122.5t120.5 71.5t209.5 25h133q214 0 311 -43.5t97 -130.5v-4q0 -66 -35.5 -99t-125.5 -41v-10q106 -6 143.5 -46.5t37.5 -129.5v-4q0 -76 -36 -121t-125.5 -68t-246.5 -23z" />
    <glyph glyph-name="four.OP" 
d="M928 38v-138h-286v138h-614v313l484 249h416v-373h82v-189h-82zM249 237v-10h393v207h-10z" />
    <glyph glyph-name="five.OP" 
d="M592 -110h-143q-71 0 -123.5 4t-108 17.5t-92 37t-64 64t-35.5 96.5h290q19 -20 52.5 -26t133.5 -6q89 0 130 5t54.5 15.5t13.5 33.5v15q0 23 -14 34t-57.5 16t-135.5 5q-113 0 -150.5 -5.5t-49.5 -22.5h-258l49 427h860v-189h-606l-14 -104h10q23 32 89 49t221 17
q109 0 179 -14t109 -44.5t53.5 -70.5t14.5 -101v-7q0 -134 -99.5 -190t-308.5 -56z" />
    <glyph glyph-name="six.OP" 
d="M602 -10h-151q-229 0 -324 80.5t-95 258.5v41q0 181 97.5 260.5t324.5 79.5h109q143 0 235.5 -27t135.5 -71t61 -112h-302q-13 15 -47 21t-126 6q-90 0 -135.5 -13.5t-60 -39t-14.5 -74.5v-14h10q41 57 291 57q101 0 169.5 -8.5t111 -23.5t65.5 -42.5t30.5 -58t7.5 -77.5
v-4q0 -128 -98 -183.5t-295 -55.5zM508 171q88 0 130 5t55.5 16t13.5 34v14q0 23 -13.5 34t-55.5 16t-130 5t-130 -5t-55.5 -16t-13.5 -34v-14q0 -23 13.5 -34t55.5 -16t130 -5z" />
    <glyph glyph-name="seven.OP" 
d="M1002 395l-514 -495h-385l547 501v10h-630v189h982v-205z" />
    <glyph glyph-name="eight.OP" 
d="M592 -10h-164q-98 0 -168 9.5t-126.5 34t-85 70t-28.5 112.5v5q2 80 44.5 117.5t139.5 45.5v10q-82 10 -123 42t-41 95v4q0 87 95 131t314 44h122q219 0 314 -44t95 -131v-4q0 -63 -41 -95t-123 -42v-10q97 -8 139.5 -45.5t44.5 -117.5v-5q0 -67 -28.5 -112.5t-85 -70
t-126.5 -34t-168 -9.5zM435 431h150q62 0 78 13q17 14 17 36v5q0 18 -11.5 28t-49 15.5t-109.5 5.5t-109.5 -5.5t-49 -15.5t-11.5 -28v-5q0 -22 17 -36q16 -13 78 -13zM510 166q84 0 125.5 7t53 18t11.5 34v4q0 32 -24.5 45.5t-98.5 13.5h-134q-74 0 -98.5 -13.5
t-24.5 -45.5v-4q0 -23 11.5 -34t53 -18t125.5 -7z" />
    <glyph glyph-name="nine.OP" 
d="M418 610h151q229 0 324 -80.5t95 -258.5v-41q0 -181 -97.5 -260.5t-324.5 -79.5h-109q-143 0 -235.5 27t-135.5 71t-61 112h302q13 -15 47 -21t126 -6q89 0 134.5 13.5t60.5 39t15 74.5v14h-10q-41 -57 -291 -57q-101 0 -169.5 8.5t-111 23.5t-65.5 42.5t-30.5 58
t-7.5 77.5v4q0 128 98 183.5t295 55.5zM512 429q-88 0 -130 -5t-55.5 -16t-13.5 -34v-14q0 -23 13.5 -34t55.5 -16t130 -5t130 5t55.5 16t13.5 34v14q0 23 -13.5 34t-55.5 16t-130 5z" />
    <glyph glyph-name="numbersign.OT" 
d="M736 0h-191l13 103h-147l-13 -103h-191l13 103h-167v150h186l11 94h-167v150h187l13 103h191l-13 -103h147l13 103h191l-13 -103h168v-150h-188l-11 -94h169v-150h-188zM600 356h-167l-15 -112h167z" />
    <glyph glyph-name="Euro.OT" 
d="M576 -10h-52q-199 0 -300.5 45.5t-127.5 155.5h-96v90h85v14v10v14h-85v90h96q26 110 127 155.5t301 45.5h52q210 0 307.5 -43.5t111.5 -126.5h-292q-13 13 -44.5 18t-108.5 5q-76 0 -113.5 -12t-52.5 -42h498v-90h-512v-38h512v-90h-498q15 -30 52.5 -42t113.5 -12
q77 0 108.5 5t44.5 18h292q-14 -83 -111.5 -126.5t-307.5 -43.5z" />
    <glyph glyph-name="dollar.OT" 
d="M575 10v-115h-120v115h-8q-95 0 -160 6.5t-123.5 24t-93.5 52.5t-49 89h308q16 -20 49.5 -25t145.5 -5q61 0 95 1.5t53.5 6t25 10.5t5.5 18v4q0 15 -12 21.5t-46 7.5l-336 11q-157 6 -213.5 42.5t-56.5 122.5v6q0 97 95.5 141.5t320.5 45.5v115h120v-115q73 0 127 -3.5
t108 -14.5t89 -29.5t60 -50t33 -75.5h-308q-15 23 -46 29t-130 6q-110 0 -139.5 -5.5t-29.5 -27.5v-3q0 -15 12 -21.5t47 -8.5l333 -11q106 -3 166 -21.5t82.5 -51.5t22.5 -89v-9q0 -103 -97.5 -148.5t-329.5 -45.5z" />
    <glyph glyph-name="cent.OT" 
d="M584 -10v-95h-120v95q-197 3 -277.5 59t-80.5 201v30q0 145 80.5 201t277.5 59v95h120v-95q129 -2 205.5 -29.5t108 -70.5t42.5 -113h-274q-16 21 -43.5 29t-98.5 8q-66 0 -97 -9t-40.5 -26.5t-9.5 -56.5v-14q0 -40 9.5 -58t40 -26t97.5 -8q71 0 98.5 8t43.5 29h274
q-11 -70 -42.5 -113t-108 -70.5t-205.5 -29.5z" />
    <glyph glyph-name="sterling.OT" 
d="M882 344v-90h-478v-65h583v-189h-953v189h90v65h-90v90h92q12 148 102.5 207t305.5 59h48q384 0 415 -220h-292q-11 20 -40 26.5t-107 6.5q-94 0 -123.5 -14.5t-30.5 -64.5h478z" />
    <glyph glyph-name="florin.OT" 
d="M592 255v-360h-280v360h-292v90h297q18 135 108 195t281 60h255v-197h-199q-76 0 -113 -13.5t-49 -44.5h361v-90h-369z" />
    <glyph glyph-name="yen.OT" 
d="M654 191v-191h-286v191h-288v90h276l-43 38h-233v90h133l-213 191h359l165 -170h10l165 170h321l-212 -191h134v-90h-234l-42 -38h276v-90h-288z" />
    <glyph glyph-name="zero.slash.OT" 
d="M514 -10h-8q-130 0 -214.5 13t-145.5 46.5t-87.5 91.5t-26.5 147v24q0 89 26.5 147t87.5 91.5t145.5 46.5t214.5 13h8q130 0 214.5 -13t145.5 -46.5t87.5 -91.5t26.5 -147v-24q0 -89 -26.5 -147t-87.5 -91.5t-145.5 -46.5t-214.5 -13zM322 312v-24q0 -42 12 -62l252 189
q-42 2 -76 2q-118 0 -153 -20t-35 -85zM510 183q118 0 153 20t35 85v24q0 42 -12 62l-251 -189q42 -2 75 -2z" />
    <glyph glyph-name="zero.OT" 
d="M514 -10h-8q-130 0 -214.5 13t-145.5 46.5t-87.5 91.5t-26.5 147v24q0 89 26.5 147t87.5 91.5t145.5 46.5t214.5 13h8q130 0 214.5 -13t145.5 -46.5t87.5 -91.5t26.5 -147v-24q0 -89 -26.5 -147t-87.5 -91.5t-145.5 -46.5t-214.5 -13zM510 183q118 0 153 20t35 85v24
q0 65 -35 85t-153 20t-153 -20t-35 -85v-24q0 -65 35 -85t153 -20z" />
    <glyph glyph-name="one.OT" 
d="M980 189v-189h-940v189h327v207h-10l-317 -143v247l255 100h358v-411h327z" />
    <glyph glyph-name="two.OT" 
d="M987 178v-178h-953v126q0 109 58 167t191 67l381 28q20 2 26.5 6.5t6.5 15.5v4q0 9 -9 14t-47 8t-112 3q-107 0 -141.5 -7t-53.5 -30h-288q35 119 140.5 163.5t323.5 44.5h17q169 0 272.5 -22.5t145 -62.5t41.5 -101v-11q0 -89 -56.5 -131.5t-205.5 -52.5l-383 -28
q-27 -1 -27 -19v-4h673z" />
    <glyph glyph-name="three.OT" 
d="M592 -110h-143q-58 0 -101.5 2.5t-93.5 10.5t-85.5 24t-67.5 40.5t-51.5 62.5t-26.5 89h290q10 -26 47 -34t142 -8q68 0 105 1.5t59 7t28 13t6 22.5v4q0 21 -17 29.5t-58 8.5h-284v176h274q38 0 51.5 7.5t13.5 27.5v5q0 15 -11 24t-47 14.5t-103 5.5q-94 0 -126.5 -6.5
t-43.5 -25.5h-298q18 76 58 122.5t120.5 71.5t209.5 25h133q214 0 311 -43.5t97 -130.5v-4q0 -66 -35.5 -99t-125.5 -41v-10q106 -6 143.5 -46.5t37.5 -129.5v-4q0 -76 -36 -121t-125.5 -68t-246.5 -23z" />
    <glyph glyph-name="four.OT" 
d="M928 38v-138h-286v138h-614v313l484 249h416v-373h82v-189h-82zM249 237v-10h393v207h-10z" />
    <glyph glyph-name="five.OT" 
d="M592 -110h-143q-71 0 -123.5 4t-108 17.5t-92 37t-64 64t-35.5 96.5h290q19 -20 52.5 -26t133.5 -6q89 0 130 5t54.5 15.5t13.5 33.5v15q0 23 -14 34t-57.5 16t-135.5 5q-113 0 -150.5 -5.5t-49.5 -22.5h-258l49 427h860v-189h-606l-14 -104h10q23 32 89 49t221 17
q109 0 179 -14t109 -44.5t53.5 -70.5t14.5 -101v-7q0 -134 -99.5 -190t-308.5 -56z" />
    <glyph glyph-name="six.OT" 
d="M602 -10h-151q-229 0 -324 80.5t-95 258.5v41q0 181 97.5 260.5t324.5 79.5h109q143 0 235.5 -27t135.5 -71t61 -112h-302q-13 15 -47 21t-126 6q-90 0 -135.5 -13.5t-60 -39t-14.5 -74.5v-14h10q41 57 291 57q101 0 169.5 -8.5t111 -23.5t65.5 -42.5t30.5 -58t7.5 -77.5
v-4q0 -128 -98 -183.5t-295 -55.5zM508 171q88 0 130 5t55.5 16t13.5 34v14q0 23 -13.5 34t-55.5 16t-130 5t-130 -5t-55.5 -16t-13.5 -34v-14q0 -23 13.5 -34t55.5 -16t130 -5z" />
    <glyph glyph-name="seven.OT" 
d="M1002 395l-514 -495h-385l547 501v10h-630v189h982v-205z" />
    <glyph glyph-name="eight.OT" 
d="M592 -10h-164q-98 0 -168 9.5t-126.5 34t-85 70t-28.5 112.5v5q2 80 44.5 117.5t139.5 45.5v10q-82 10 -123 42t-41 95v4q0 87 95 131t314 44h122q219 0 314 -44t95 -131v-4q0 -63 -41 -95t-123 -42v-10q97 -8 139.5 -45.5t44.5 -117.5v-5q0 -67 -28.5 -112.5t-85 -70
t-126.5 -34t-168 -9.5zM435 431h150q62 0 78 13q17 14 17 36v5q0 18 -11.5 28t-49 15.5t-109.5 5.5t-109.5 -5.5t-49 -15.5t-11.5 -28v-5q0 -22 17 -36q16 -13 78 -13zM510 166q84 0 125.5 7t53 18t11.5 34v4q0 32 -24.5 45.5t-98.5 13.5h-134q-74 0 -98.5 -13.5
t-24.5 -45.5v-4q0 -23 11.5 -34t53 -18t125.5 -7z" />
    <glyph glyph-name="nine.OT" 
d="M418 610h151q229 0 324 -80.5t95 -258.5v-41q0 -181 -97.5 -260.5t-324.5 -79.5h-109q-143 0 -235.5 27t-135.5 71t-61 112h302q13 -15 47 -21t126 -6q89 0 134.5 13.5t60.5 39t15 74.5v14h-10q-41 -57 -291 -57q-101 0 -169.5 8.5t-111 23.5t-65.5 42.5t-30.5 58
t-7.5 77.5v4q0 128 98 183.5t295 55.5zM512 429q-88 0 -130 -5t-55.5 -16t-13.5 -34v-14q0 -23 13.5 -34t55.5 -16t130 -5t130 5t55.5 16t13.5 34v14q0 23 -13.5 34t-55.5 16t-130 5z" />
    <glyph glyph-name="zero.numr" horiz-adv-x="651" 
d="M331 274h-11q-124 0 -189.5 19.5t-91.5 62t-26 122.5v24q0 80 26 122.5t91.5 62t189.5 19.5h11q181 0 244 -43.5t63 -161.5v-24q0 -118 -63 -160.5t-244 -42.5zM326 421q47 0 58 10.5t11 55.5v5q0 45 -10.5 55.5t-58.5 10.5t-58.5 -10.5t-10.5 -55.5v-5q0 -45 11 -55.5
t58 -10.5z" />
    <glyph glyph-name="one.numr" horiz-adv-x="474" 
d="M438 700v-420h-241v270h-7l-158 -79v186l117 43h289z" />
    <glyph glyph-name="two.numr" horiz-adv-x="651" 
d="M637 407v-127h-622v99q0 79 49 112q49 32 164 43l132 11q33 1 33 20v4q0 12 -12 17t-48 5q-58 0 -73 -32h-243q9 81 85.5 114t221.5 33h11q163 0 232 -31.5t69 -98.5v-6q0 -66 -38 -96t-135 -37l-193 -16q-18 -1 -18 -10v-4h385z" />
    <glyph glyph-name="three.numr" horiz-adv-x="651" 
d="M352 274h-38q-47 0 -83.5 2.5t-72 8t-61 16t-46.5 26t-32.5 39t-14.5 53.5h244q9 -17 25.5 -23.5t54.5 -6.5q41 0 53.5 6t12.5 19v4q0 9 -6 13.5t-25 4.5h-111v110h95q28 0 28 19v4q0 22 -49 22q-50 0 -60 -28h-245q6 50 31.5 80t86.5 46.5t164 16.5h29q163 0 229 -26
t66 -82v-4q0 -38 -24.5 -55t-82.5 -22v-8q58 -5 91 -22q34 -16 34 -71v-4q0 -75 -68 -107q-66 -31 -225 -31z" />
    <glyph glyph-name="four.numr" horiz-adv-x="651" 
d="M593 356v-76h-241v76h-342v193l242 151h341v-216h41v-128h-41zM187 491v-7h165v104h-8z" />
    <glyph glyph-name="five.numr" horiz-adv-x="651" 
d="M351 274h-42q-71 0 -118.5 5t-90.5 19.5t-66.5 44.5t-29.5 77h244q8 -18 24.5 -24.5t53.5 -6.5q42 0 55 7.5t13 21.5v4q0 10 -4.5 15.5t-23.5 9.5t-56 4q-65 0 -79 -11h-221l31 260h569v-122h-351l-6 -57h8q29 37 156 37q94 0 144.5 -15t67 -41.5t16.5 -72.5v-4
q0 -82 -70 -116.5t-224 -34.5z" />
    <glyph glyph-name="six.numr" horiz-adv-x="651" 
d="M353 274h-42q-173 0 -238.5 49.5t-65.5 157.5v21q0 107 66.5 155.5t240.5 48.5h34q279 0 294 -138h-245q-12 18 -66 18q-50 0 -67 -11t-17 -41v-18h8q21 28 157 28q99 0 150.5 -13.5t67.5 -38.5t16 -71v-4q0 -79 -64 -111t-229 -32zM323 391q52 0 66 5.5t14 20.5v8
q0 15 -14 20.5t-66 5.5t-66 -5.5t-14 -20.5v-8q0 -15 14 -20.5t66 -5.5z" />
    <glyph glyph-name="seven.numr" horiz-adv-x="651" 
d="M647 561l-324 -281h-287l309 255v8h-338v157h640v-139z" />
    <glyph glyph-name="eight.numr" horiz-adv-x="651" 
d="M353 273h-55q-149 0 -221 31.5t-72 105.5v4q0 49 31 71.5t93 25.5v8q-106 12 -106 81v3q1 36 27 58t89.5 33.5t172.5 11.5h26q109 0 172.5 -11.5t89.5 -33.5t27 -58v-3q0 -69 -106 -81v-8q62 -3 93 -25.5t31 -71.5v-4q0 -74 -72 -105.5t-220 -31.5zM313 535h22
q32 0 42 5.5t10 17.5v3q0 13 -12.5 18t-50.5 5q-39 0 -51 -5t-12 -18v-3q0 -12 10 -17.5t42 -5.5zM324 395q48 0 61.5 6t13.5 22v2q0 18 -12 23t-55 5h-16q-43 0 -55 -5t-12 -23v-2q0 -16 13.5 -22t61.5 -6z" />
    <glyph glyph-name="nine.numr" horiz-adv-x="651" 
d="M298 706h42q173 0 238.5 -49.5t65.5 -157.5v-21q0 -107 -66 -155.5t-241 -48.5h-34q-279 0 -294 138h245q12 -18 66 -18q50 0 67 11t17 41v18h-8q-18 -28 -157 -28q-99 0 -150.5 13.5t-67.5 38.5t-16 71v4q0 79 64 111t229 32zM328 589q-52 0 -66 -5.5t-14 -20.5v-8
q0 -15 14 -20.5t66 -5.5q53 0 66.5 5t13.5 21v8q0 15 -14 20.5t-66 5.5z" />
    <glyph glyph-name="zero.dnom" horiz-adv-x="651" 
d="M331 -6h-11q-124 0 -189.5 19.5t-91.5 62t-26 122.5v24q0 80 26 122.5t91.5 62t189.5 19.5h11q181 0 244 -43.5t63 -161.5v-24q0 -118 -63 -160.5t-244 -42.5zM326 141q47 0 58 10.5t11 55.5v5q0 45 -10.5 55.5t-58.5 10.5t-58.5 -10.5t-10.5 -55.5v-5q0 -45 11 -55.5
t58 -10.5z" />
    <glyph glyph-name="one.dnom" horiz-adv-x="474" 
d="M438 420v-420h-241v270h-7l-158 -79v186l117 43h289z" />
    <glyph glyph-name="two.dnom" horiz-adv-x="651" 
d="M637 127v-127h-622v99q0 79 49 112q49 32 164 43l132 11q33 1 33 20v4q0 12 -12 17t-48 5q-58 0 -73 -32h-243q9 81 85.5 114t221.5 33h11q163 0 232 -31.5t69 -98.5v-6q0 -66 -38 -96t-135 -37l-193 -16q-18 -1 -18 -10v-4h385z" />
    <glyph glyph-name="three.dnom" horiz-adv-x="651" 
d="M352 -6h-38q-47 0 -83.5 2.5t-72 8t-61 16t-46.5 26t-32.5 39t-14.5 53.5h244q9 -17 25.5 -23.5t54.5 -6.5q41 0 53.5 6t12.5 19v4q0 9 -6 13.5t-25 4.5h-111v110h95q28 0 28 19v4q0 22 -49 22q-50 0 -60 -28h-245q6 50 31.5 80t86.5 46.5t164 16.5h29q163 0 229 -26
t66 -82v-4q0 -38 -24.5 -55t-82.5 -22v-8q58 -5 91 -22q34 -16 34 -71v-4q0 -75 -68 -107q-66 -31 -225 -31z" />
    <glyph glyph-name="four.dnom" horiz-adv-x="651" 
d="M593 76v-76h-241v76h-342v193l242 151h341v-216h41v-128h-41zM187 211v-7h165v104h-8z" />
    <glyph glyph-name="five.dnom" horiz-adv-x="651" 
d="M351 -6h-42q-71 0 -118.5 5t-90.5 19.5t-66.5 44.5t-29.5 77h244q8 -18 24.5 -24.5t53.5 -6.5q42 0 55 7.5t13 21.5v4q0 10 -4.5 15.5t-23.5 9.5t-56 4q-65 0 -79 -11h-221l31 260h569v-122h-351l-6 -57h8q29 37 156 37q94 0 144.5 -15t67 -41.5t16.5 -72.5v-4
q0 -82 -70 -116.5t-224 -34.5z" />
    <glyph glyph-name="six.dnom" horiz-adv-x="651" 
d="M353 -6h-42q-173 0 -238.5 49.5t-65.5 157.5v21q0 107 66.5 155.5t240.5 48.5h34q279 0 294 -138h-245q-12 18 -66 18q-50 0 -67 -11t-17 -41v-18h8q21 28 157 28q99 0 150.5 -13.5t67.5 -38.5t16 -71v-4q0 -79 -64 -111t-229 -32zM323 111q52 0 66 5.5t14 20.5v8
q0 15 -14 20.5t-66 5.5t-66 -5.5t-14 -20.5v-8q0 -15 14 -20.5t66 -5.5z" />
    <glyph glyph-name="seven.dnom" horiz-adv-x="651" 
d="M647 281l-324 -281h-287l309 255v8h-338v157h640v-139z" />
    <glyph glyph-name="eight.dnom" horiz-adv-x="651" 
d="M353 -7h-55q-149 0 -221 31.5t-72 105.5v4q0 49 31 71.5t93 25.5v8q-106 12 -106 81v3q1 36 27 58t89.5 33.5t172.5 11.5h26q109 0 172.5 -11.5t89.5 -33.5t27 -58v-3q0 -69 -106 -81v-8q62 -3 93 -25.5t31 -71.5v-4q0 -74 -72 -105.5t-220 -31.5zM313 255h22
q32 0 42 5.5t10 17.5v3q0 13 -12.5 18t-50.5 5q-39 0 -51 -5t-12 -18v-3q0 -12 10 -17.5t42 -5.5zM324 115q48 0 61.5 6t13.5 22v2q0 18 -12 23t-55 5h-16q-43 0 -55 -5t-12 -23v-2q0 -16 13.5 -22t61.5 -6z" />
    <glyph glyph-name="nine.dnom" horiz-adv-x="651" 
d="M298 426h42q173 0 238.5 -49.5t65.5 -157.5v-21q0 -107 -66 -155.5t-241 -48.5h-34q-279 0 -294 138h245q12 -18 66 -18q50 0 67 11t17 41v18h-8q-18 -28 -157 -28q-99 0 -150.5 13.5t-67.5 38.5t-16 71v4q0 79 64 111t229 32zM328 309q-52 0 -66 -5.5t-14 -20.5v-8
q0 -15 14 -20.5t66 -5.5q53 0 66.5 5t13.5 21v8q0 15 -14 20.5t-66 5.5z" />
    <glyph glyph-name="G.alt" horiz-adv-x="1167" 
d="M1115 432v-432h-261v85h-10q-45 -95 -302 -95h-16q-273 0 -383.5 73.5t-110.5 267.5v39q0 194 110.5 267t383.5 73h104q159 0 254 -21t149.5 -69.5t81.5 -136.5h-329q-30 19 -64.5 24t-138.5 5h-31q-71 0 -113 -7.5t-64.5 -27t-29.5 -45.5t-7 -71v-22q0 -45 7 -71
t29.5 -45.5t64.5 -27t113 -7.5h31q124 0 172.5 12.5t54.5 58.5h-281v173h586z" />
    <glyph glyph-name="Gcircumflex.alt" horiz-adv-x="1167" 
d="M781 860l131 -120h-227l-107 61l-106 -61h-227l131 120h405zM1115 432v-432h-261v85h-10q-45 -95 -302 -95h-16q-273 0 -383.5 73.5t-110.5 267.5v39q0 194 110.5 267t383.5 73h104q159 0 254 -21t149.5 -69.5t81.5 -136.5h-329q-30 19 -64.5 24t-138.5 5h-31
q-71 0 -113 -7.5t-64.5 -27t-29.5 -45.5t-7 -71v-22q0 -45 7 -71t29.5 -45.5t64.5 -27t113 -7.5h31q124 0 172.5 12.5t54.5 58.5h-281v173h586z" />
    <glyph glyph-name="Gbreve.alt" horiz-adv-x="1167" 
d="M578 730q-106 0 -166 14.5t-86 41t-37 74.5h217q6 -19 20.5 -26.5t51.5 -7.5t51.5 7.5t20.5 26.5h217q-11 -48 -37 -74.5t-86 -41t-166 -14.5zM1115 432v-432h-261v85h-10q-45 -95 -302 -95h-16q-273 0 -383.5 73.5t-110.5 267.5v39q0 194 110.5 267t383.5 73h104
q159 0 254 -21t149.5 -69.5t81.5 -136.5h-329q-30 19 -64.5 24t-138.5 5h-31q-71 0 -113 -7.5t-64.5 -27t-29.5 -45.5t-7 -71v-22q0 -45 7 -71t29.5 -45.5t64.5 -27t113 -7.5h31q124 0 172.5 12.5t54.5 58.5h-281v173h586z" />
    <glyph glyph-name="Gdotaccent.alt" horiz-adv-x="1167" 
d="M443 870h271v-130h-271v130zM1115 432v-432h-261v85h-10q-45 -95 -302 -95h-16q-273 0 -383.5 73.5t-110.5 267.5v39q0 194 110.5 267t383.5 73h104q159 0 254 -21t149.5 -69.5t81.5 -136.5h-329q-30 19 -64.5 24t-138.5 5h-31q-71 0 -113 -7.5t-64.5 -27t-29.5 -45.5
t-7 -71v-22q0 -45 7 -71t29.5 -45.5t64.5 -27t113 -7.5h31q124 0 172.5 12.5t54.5 58.5h-281v173h586z" />
    <glyph glyph-name="Gcommaaccent.alt" horiz-adv-x="1167" 
d="M1115 432v-432h-261v85h-10q-45 -95 -302 -95h-16q-273 0 -383.5 73.5t-110.5 267.5v39q0 194 110.5 267t383.5 73h104q159 0 254 -21t149.5 -69.5t81.5 -136.5h-329q-30 19 -64.5 24t-138.5 5h-31q-71 0 -113 -7.5t-64.5 -27t-29.5 -45.5t-7 -71v-22q0 -45 7 -71
t29.5 -45.5t64.5 -27t113 -7.5h31q124 0 172.5 12.5t54.5 58.5h-281v173h586zM605 -154l-23 -16h-149l63 47v10h-97v87h271v-24q0 -37 -13 -56.5t-52 -47.5z" />
    <glyph glyph-name="J.alt" horiz-adv-x="898" 
d="M444 -10h-20q-163 0 -252.5 26.5t-125.5 78.5t-44 149l-2 23h306v-4q0 -42 28 -58.5t92 -16.5h16q65 0 92.5 17.5t27.5 66.5v428h306v-390q0 -101 -19.5 -161.5t-71 -97t-128.5 -49t-205 -12.5z" />
    <glyph glyph-name="Jcircumflex.alt" horiz-adv-x="898" 
d="M917 860l131 -120h-227l-107 61l-106 -61h-227l131 120h405zM444 -10h-20q-163 0 -252.5 26.5t-125.5 78.5t-44 149l-2 23h306v-4q0 -42 28 -58.5t92 -16.5h16q65 0 92.5 17.5t27.5 66.5v428h306v-390q0 -101 -19.5 -161.5t-71 -97t-128.5 -49t-205 -12.5z" />
    <glyph glyph-name="K.alt" horiz-adv-x="1235" 
d="M352 700v-700h-300v700h300zM745 366l490 -366h-427l-446 350l455 350h389z" />
    <glyph glyph-name="Kcommaaccent.alt" horiz-adv-x="1235" 
d="M352 700v-700h-300v700h300zM745 366l490 -366h-427l-446 350l455 350h389zM647 -154l-23 -16h-149l63 47v10h-97v87h271v-24q0 -37 -13 -56.5t-52 -47.5z" />
    <glyph glyph-name="Q.alt" horiz-adv-x="1156" 
d="M906 17l172 -187h-356l-137 160h-59q-273 0 -383.5 73t-110.5 267v40q0 194 110.5 267t383.5 73h104q273 0 383.5 -73t110.5 -267v-40q0 -135 -51 -209t-167 -104zM568 188h20q62 0 103 5.5t66.5 15.5t38.5 29.5t17.5 41.5t4.5 58v23q0 37 -4.5 59t-17 41.5t-38.5 29.5
t-67 15.5t-103 5.5h-20q-62 0 -103 -5.5t-67 -15.5t-38.5 -29.5t-17 -41.5t-4.5 -59v-23q0 -45 7 -70.5t31 -45t69.5 -27t122.5 -7.5z" />
    <glyph glyph-name="R.alt" horiz-adv-x="1086" 
d="M352 224v-224h-300v700h656q189 0 264 -46.5t75 -162.5v-48q0 -94 -49 -141.5t-163 -61.5l261 -240h-373l-240 224h-131zM629 517h-277v-120h277q66 0 92 12.5t26 47.5v4q0 34 -25 45t-93 11z" />
    <glyph glyph-name="Racute.alt" horiz-adv-x="1086" 
d="M837 860l-156 -120h-287l101 120h342zM352 224v-224h-300v700h656q189 0 264 -46.5t75 -162.5v-48q0 -94 -49 -141.5t-163 -61.5l261 -240h-373l-240 224h-131zM629 517h-277v-120h277q66 0 92 12.5t26 47.5v4q0 34 -25 45t-93 11z" />
    <glyph glyph-name="Rcaron.alt" horiz-adv-x="1086" 
d="M538 799l106 61h227l-131 -120h-405l-131 120h227zM352 224v-224h-300v700h656q189 0 264 -46.5t75 -162.5v-48q0 -94 -49 -141.5t-163 -61.5l261 -240h-373l-240 224h-131zM629 517h-277v-120h277q66 0 92 12.5t26 47.5v4q0 34 -25 45t-93 11z" />
    <glyph glyph-name="Rcommaaccent.alt" horiz-adv-x="1086" 
d="M352 224v-224h-300v700h656q189 0 264 -46.5t75 -162.5v-48q0 -94 -49 -141.5t-163 -61.5l261 -240h-373l-240 224h-131zM629 517h-277v-120h277q66 0 92 12.5t26 47.5v4q0 34 -25 45t-93 11zM601 -154l-23 -16h-149l63 47v10h-97v87h271v-24q0 -37 -13 -56.5t-52 -47.5z
" />
    <glyph glyph-name="a.alt" horiz-adv-x="874" 
d="M854 530v-530h-271v82h-8q-21 -48 -79 -70t-163 -22h-6q-160 0 -234.5 57.5t-74.5 202.5v30q0 145 74.5 202.5t234.5 57.5h6q105 0 163 -22t79 -70h8v82h271zM436 166q67 0 97.5 8t40 26t9.5 58v14q0 39 -9.5 56.5t-40.5 26.5t-97 9t-97 -9t-40.5 -26.5t-9.5 -56.5v-14
q0 -40 9.5 -58t40 -26t97.5 -8z" />
    <glyph glyph-name="agrave.alt" horiz-adv-x="874" 
d="M452 700l101 -120h-287l-156 120h342zM854 530v-530h-271v82h-8q-21 -48 -79 -70t-163 -22h-6q-160 0 -234.5 57.5t-74.5 202.5v30q0 145 74.5 202.5t234.5 57.5h6q105 0 163 -22t79 -70h8v82h271zM436 166q67 0 97.5 8t40 26t9.5 58v14q0 39 -9.5 56.5t-40.5 26.5t-97 9
t-97 -9t-40.5 -26.5t-9.5 -56.5v-14q0 -40 9.5 -58t40 -26t97.5 -8z" />
    <glyph glyph-name="aacute.alt" horiz-adv-x="874" 
d="M709 700l-156 -120h-287l101 120h342zM854 530v-530h-271v82h-8q-21 -48 -79 -70t-163 -22h-6q-160 0 -234.5 57.5t-74.5 202.5v30q0 145 74.5 202.5t234.5 57.5h6q105 0 163 -22t79 -70h8v82h271zM436 166q67 0 97.5 8t40 26t9.5 58v14q0 39 -9.5 56.5t-40.5 26.5t-97 9
t-97 -9t-40.5 -26.5t-9.5 -56.5v-14q0 -40 9.5 -58t40 -26t97.5 -8z" />
    <glyph glyph-name="acircumflex.alt" horiz-adv-x="874" 
d="M612 700l131 -120h-227l-107 61l-106 -61h-227l131 120h405zM854 530v-530h-271v82h-8q-21 -48 -79 -70t-163 -22h-6q-160 0 -234.5 57.5t-74.5 202.5v30q0 145 74.5 202.5t234.5 57.5h6q105 0 163 -22t79 -70h8v82h271zM436 166q67 0 97.5 8t40 26t9.5 58v14
q0 39 -9.5 56.5t-40.5 26.5t-97 9t-97 -9t-40.5 -26.5t-9.5 -56.5v-14q0 -40 9.5 -58t40 -26t97.5 -8z" />
    <glyph glyph-name="atilde.alt" horiz-adv-x="874" 
d="M507 570q-47 0 -106 16t-70 16q-14 0 -19 -4t-8 -18h-179q11 74 53.5 102t122.5 28q47 0 106 -16t70 -16q14 0 19 4t8 18h189q-11 -73 -57.5 -101.5t-128.5 -28.5zM854 530v-530h-271v82h-8q-21 -48 -79 -70t-163 -22h-6q-160 0 -234.5 57.5t-74.5 202.5v30
q0 145 74.5 202.5t234.5 57.5h6q105 0 163 -22t79 -70h8v82h271zM436 166q67 0 97.5 8t40 26t9.5 58v14q0 39 -9.5 56.5t-40.5 26.5t-97 9t-97 -9t-40.5 -26.5t-9.5 -56.5v-14q0 -40 9.5 -58t40 -26t97.5 -8z" />
    <glyph glyph-name="adieresis.alt" horiz-adv-x="874" 
d="M176 700h213v-130h-213v130zM429 700h213v-130h-213v130zM854 530v-530h-271v82h-8q-21 -48 -79 -70t-163 -22h-6q-160 0 -234.5 57.5t-74.5 202.5v30q0 145 74.5 202.5t234.5 57.5h6q105 0 163 -22t79 -70h8v82h271zM436 166q67 0 97.5 8t40 26t9.5 58v14
q0 39 -9.5 56.5t-40.5 26.5t-97 9t-97 -9t-40.5 -26.5t-9.5 -56.5v-14q0 -40 9.5 -58t40 -26t97.5 -8z" />
    <glyph glyph-name="amacron.alt" horiz-adv-x="874" 
d="M659 680v-90h-500v90h500zM854 530v-530h-271v82h-8q-21 -48 -79 -70t-163 -22h-6q-160 0 -234.5 57.5t-74.5 202.5v30q0 145 74.5 202.5t234.5 57.5h6q105 0 163 -22t79 -70h8v82h271zM436 166q67 0 97.5 8t40 26t9.5 58v14q0 39 -9.5 56.5t-40.5 26.5t-97 9t-97 -9
t-40.5 -26.5t-9.5 -56.5v-14q0 -40 9.5 -58t40 -26t97.5 -8z" />
    <glyph glyph-name="abreve.alt" horiz-adv-x="874" 
d="M409 570q-106 0 -166 14.5t-86 41t-37 74.5h217q6 -19 20.5 -26.5t51.5 -7.5t51.5 7.5t20.5 26.5h217q-11 -48 -37 -74.5t-86 -41t-166 -14.5zM854 530v-530h-271v82h-8q-21 -48 -79 -70t-163 -22h-6q-160 0 -234.5 57.5t-74.5 202.5v30q0 145 74.5 202.5t234.5 57.5h6
q105 0 163 -22t79 -70h8v82h271zM436 166q67 0 97.5 8t40 26t9.5 58v14q0 39 -9.5 56.5t-40.5 26.5t-97 9t-97 -9t-40.5 -26.5t-9.5 -56.5v-14q0 -40 9.5 -58t40 -26t97.5 -8z" />
    <glyph glyph-name="aring.alt" horiz-adv-x="874" 
d="M409 556q-123 0 -176 23.5t-53 90.5t53 90.5t176 23.5t176 -23.5t53 -90.5t-53 -90.5t-176 -23.5zM409 632q62 0 62 38t-62 38t-62 -38t62 -38zM854 530v-530h-271v82h-8q-21 -48 -79 -70t-163 -22h-6q-160 0 -234.5 57.5t-74.5 202.5v30q0 145 74.5 202.5t234.5 57.5h6
q105 0 163 -22t79 -70h8v82h271zM436 166q67 0 97.5 8t40 26t9.5 58v14q0 39 -9.5 56.5t-40.5 26.5t-97 9t-97 -9t-40.5 -26.5t-9.5 -56.5v-14q0 -40 9.5 -58t40 -26t97.5 -8z" />
    <glyph glyph-name="aringacute.alt" horiz-adv-x="874" 
d="M709 920l-156 -120h-287l101 120h342zM409 556q-123 0 -176 23.5t-53 90.5t53 90.5t176 23.5t176 -23.5t53 -90.5t-53 -90.5t-176 -23.5zM409 632q62 0 62 38t-62 38t-62 -38t62 -38zM854 530v-530h-271v82h-8q-21 -48 -79 -70t-163 -22h-6q-160 0 -234.5 57.5
t-74.5 202.5v30q0 145 74.5 202.5t234.5 57.5h6q105 0 163 -22t79 -70h8v82h271zM436 166q67 0 97.5 8t40 26t9.5 58v14q0 39 -9.5 56.5t-40.5 26.5t-97 9t-97 -9t-40.5 -26.5t-9.5 -56.5v-14q0 -40 9.5 -58t40 -26t97.5 -8z" />
    <glyph glyph-name="aogonek.alt" horiz-adv-x="874" 
d="M854 -54v-86h-223q-70 0 -101 16.5t-31 56.5q0 33 15.5 51t68.5 32v66h-8q-21 -48 -79 -70t-163 -22h-6q-160 0 -234.5 57.5t-74.5 202.5v30q0 145 74.5 202.5t234.5 57.5h6q105 0 163 -22t79 -70h8v82h271v-530q-75 -9 -92.5 -15t-17.5 -21q0 -18 32 -18h78zM436 166
q67 0 97.5 8t40 26t9.5 58v14q0 39 -9.5 56.5t-40.5 26.5t-97 9t-97 -9t-40.5 -26.5t-9.5 -56.5v-14q0 -40 9.5 -58t40 -26t97.5 -8z" />
    <glyph glyph-name="a.superior.alt" horiz-adv-x="719" 
d="M699 700v-420h-241v70h-4q-19 -42 -63.5 -60t-127.5 -18h-1q-129 0 -186.5 45.5t-57.5 162.5v20q0 117 57.5 162.5t186.5 45.5h1q82 0 127 -18t64 -60h4v70h241zM358 423q68 0 84 10.5t16 52.5v8q0 42 -16 52.5t-84 10.5t-84.5 -10.5t-16.5 -52.5v-8q0 -42 16.5 -52.5
t84.5 -10.5z" />
    <glyph glyph-name="k.alt" horiz-adv-x="869" 
d="M291 700v-700h-271v700h271zM613 305l256 -305h-339l-231 299l231 231h311z" />
    <glyph glyph-name="kcommaaccent.alt" horiz-adv-x="869" 
d="M291 700v-700h-271v700h271zM613 305l256 -305h-339l-231 299l231 231h311zM484 -154l-23 -16h-149l63 47v10h-97v87h271v-24q0 -37 -13 -56.5t-52 -47.5z" />
    <glyph glyph-name="k.superior.alt" horiz-adv-x="718" 
d="M260 834v-554h-240v554h240zM718 280h-294l-160 244l165 176h263l-175 -167z" />
    <glyph glyph-name="ampersand.alt" horiz-adv-x="1075" 
d="M919 255v-255h-589q-154 0 -229 46t-75 151v4q0 73 51 117.5t143 46.5v4q-89 10 -126.5 45.5t-37.5 102.5v9q0 85 75 129.5t256 44.5h419v-173h-342q-64 0 -86 -8.5t-22 -30.5v-5q0 -23 21 -31t87 -8h169v44h286v-44h156v-189h-156zM425 163h208v92h-208q-57 0 -78 -9
t-21 -35v-4q0 -26 21 -35t78 -9z" />
    <glyph glyph-name="registered.alt" horiz-adv-x="994" 
d="M557 -10h-120q-215 0 -310 75t-95 229v112q0 154 95 229t310 75h120q215 0 310 -75t95 -229v-112q0 -154 -95 -229t-310 -75zM454 25h86q115 0 191 18t117.5 57.5t58 91t16.5 127.5v62q0 76 -16.5 127.5t-58 91t-117.5 57.5t-191 18h-86q-115 0 -190.5 -18t-117.5 -57.5
t-58 -91t-16 -127.5v-62q0 -76 16 -127.5t58 -91t117.5 -57.5t190.5 -18zM430 300v-160h-204v420h354q121 0 168 -27t47 -100v-9q0 -56 -29.5 -84t-99.5 -36l153 -164h-251l-130 160h-8zM526 441h-96v-52h96q35 0 46.5 5.5t11.5 18.5v4q0 14 -11 19t-47 5z" />
    <glyph glyph-name="NULL" horiz-adv-x="0" 
 />
    <glyph glyph-name="CR" horiz-adv-x="260" 
 />
    </font>
</defs>
</svg>
