<svg xmlns="http://www.w3.org/2000/svg">
<defs>
<font id="PilatExtended-Book" horiz-adv-x="978" >
  <font-face 
    font-family="Pilat Extended Book"
    font-weight="450"
    font-stretch="expanded"
    units-per-em="1000"
    panose-1="2 11 6 7 3 0 0 0 0 4"
    ascent="750"
    descent="-250"
    x-height="530"
    cap-height="700"
    bbox="-150 -205 1992 1080"
    underline-thickness="65"
    underline-position="-220"
    unicode-range="U+0020-FB00"
  />
<missing-glyph horiz-adv-x="700" 
d="M369 -80q-113 0 -190 78.5t-77 187.5v18l-19 31q-15 25 -9 53q6 29 31 44l7 4q18 13 43 11q-7 24 0.5 46t28.5 35l7 4q20 12 41 11l-76 120q-12 21 -12 39q0 30 21.5 52.5t51.5 22.5q42 0 65 -35l139 -221v224q0 31 21.5 53t52.5 22t52.5 -22t21.5 -53v-286
q30 -15 48 -43t18 -63v-62q0 -65 -30 -126t-92.5 -103t-143.5 -42zM451 645v-274h66q8 0 22 -2v276q0 18 -13 31t-31 13t-31 -13t-13 -31zM182 579l127 -203l24 -37q13 32 50 32h33l-160 255q-12 20 -37 20q-18 0 -31 -13t-13 -31q0 -12 7 -23zM313 220l8 5q13 9 17 24.5
t-5 30.5l-72 114q-9 14 -25 17.5t-29 -4.5l-8 -5q-13 -9 -17 -25.5t5 -29.5l72 -114q9 -14 25 -17.5t29 4.5zM359 138q0 25 12.5 50t29.5 33q-16 1 -34 15q-7 -25 -29 -37l-7 -4q-18 -11 -43 -11q8 -23 -0.5 -45.5t-28.5 -35.5l-8 -5q-24 -15 -51.5 -8.5t-44.5 31.5l-20 30
q10 -85 78.5 -143t154.5 -58q99 0 168 71.5t69 169.5v62q0 36 -26 62t-62 26h-134q-10 0 -17 -7.5t-7 -19.5q0 -27 19 -47.5t48 -20.5h42q6 0 10.5 -4.5t4.5 -10.5t-4.5 -10.5t-10.5 -4.5q-34 0 -55.5 -23.5t-21.5 -54.5q0 -6 -5 -10.5t-11 -4.5t-11 4.5t-5 10.5zM235 124
l8 5q13 9 17 24.5t-5 30.5l-72 114q-9 14 -25 17.5t-29 -4.5l-8 -5q-13 -9 -17 -25.5t5 -29.5l72 -114q9 -14 25 -17.5t29 4.5z" />
    <glyph glyph-name="f_f" unicode="ff" horiz-adv-x="983" 
d="M183 446h-164v84h165q4 96 59 133t174 37h108v-84h-88q-77 0 -111 -17t-34 -69h331q4 96 59 133t174 37h108v-84h-88q-76 0 -110.5 -17.5t-34.5 -68.5h233v-84h-233v-446h-109v446h-330v-446h-109v446z" />
    <glyph glyph-name=".notdef" horiz-adv-x="700" 
d="M369 -80q-113 0 -190 78.5t-77 187.5v18l-19 31q-15 25 -9 53q6 29 31 44l7 4q18 13 43 11q-7 24 0.5 46t28.5 35l7 4q20 12 41 11l-76 120q-12 21 -12 39q0 30 21.5 52.5t51.5 22.5q42 0 65 -35l139 -221v224q0 31 21.5 53t52.5 22t52.5 -22t21.5 -53v-286
q30 -15 48 -43t18 -63v-62q0 -65 -30 -126t-92.5 -103t-143.5 -42zM451 645v-274h66q8 0 22 -2v276q0 18 -13 31t-31 13t-31 -13t-13 -31zM182 579l127 -203l24 -37q13 32 50 32h33l-160 255q-12 20 -37 20q-18 0 -31 -13t-13 -31q0 -12 7 -23zM313 220l8 5q13 9 17 24.5
t-5 30.5l-72 114q-9 14 -25 17.5t-29 -4.5l-8 -5q-13 -9 -17 -25.5t5 -29.5l72 -114q9 -14 25 -17.5t29 4.5zM359 138q0 25 12.5 50t29.5 33q-16 1 -34 15q-7 -25 -29 -37l-7 -4q-18 -11 -43 -11q8 -23 -0.5 -45.5t-28.5 -35.5l-8 -5q-24 -15 -51.5 -8.5t-44.5 31.5l-20 30
q10 -85 78.5 -143t154.5 -58q99 0 168 71.5t69 169.5v62q0 36 -26 62t-62 26h-134q-10 0 -17 -7.5t-7 -19.5q0 -27 19 -47.5t48 -20.5h42q6 0 10.5 -4.5t4.5 -10.5t-4.5 -10.5t-10.5 -4.5q-34 0 -55.5 -23.5t-21.5 -54.5q0 -6 -5 -10.5t-11 -4.5t-11 4.5t-5 10.5zM235 124
l8 5q13 9 17 24.5t-5 30.5l-72 114q-9 14 -25 17.5t-29 -4.5l-8 -5q-13 -9 -17 -25.5t5 -29.5l72 -114q9 -14 25 -17.5t29 4.5z" />
    <glyph glyph-name=".null" horiz-adv-x="0" 
 />
    <glyph glyph-name="nonmarkingreturn" horiz-adv-x="333" 
 />
    <glyph glyph-name="space" unicode=" " horiz-adv-x="304" 
 />
    <glyph glyph-name="exclam" unicode="!" horiz-adv-x="319" 
d="M93 407v293h133v-293l-27 -172h-79zM231 0h-144v128h144v-128z" />
    <glyph glyph-name="quotedbl" unicode="&#x22;" horiz-adv-x="448" 
d="M165 700v-259h-90v259h90zM373 700v-259h-90v259h90z" />
    <glyph glyph-name="numbersign" unicode="#" 
d="M633 0h-87l26 184h-210l-25 -184h-88l27 184h-202v79h211l25 175h-201v79h210l26 183h88l-27 -183h210l26 183h87l-26 -183h201v-79h-211l-25 -175h201v-79h-210zM610 441h-215l-27 -182h215z" />
    <glyph glyph-name="dollar" unicode="$" 
d="M548 10v-115h-82v115q-356 0 -421 165h130q54 -77 317 -77q170 0 246 22q79 22 79 93v6q0 49 -38 65.5t-152 19.5l-290 10q-156 6 -213 42.5t-57 124.5v16q0 101 94 146t287 47v115h82v-116q167 -5 261 -44.5t121 -119.5h-129q-26 43 -99.5 60t-209.5 17
q-149 0 -216.5 -23.5t-69.5 -77.5v-6q0 -50 37 -65.5t154 -20.5l290 -10q153 -4 211 -42.5t58 -124.5v-14q0 -57 -26 -97.5t-78 -64t-121.5 -34t-164.5 -12.5z" />
    <glyph glyph-name="percent" unicode="%" horiz-adv-x="1071" 
d="M273 342h-13q-120 0 -171.5 39.5t-51.5 134.5v19q0 95 51.5 135t171.5 40h13q120 0 171.5 -40t51.5 -135v-19q0 -95 -51.5 -134.5t-171.5 -39.5zM789 700l-428 -700h-80l428 700h80zM266 418q75 0 105 22.5t30 79.5v12q0 57 -30 79t-105 22t-104.5 -22t-29.5 -79v-12
q0 -57 29.5 -79.5t104.5 -22.5zM810 -10h-13q-120 0 -171 39.5t-51 134.5v19q0 95 51 135t171 40h13q120 0 171.5 -40t51.5 -135v-19q0 -95 -51.5 -134.5t-171.5 -39.5zM804 66q75 0 105 22.5t30 79.5v12q0 57 -30 79t-105 22t-105 -22t-30 -79v-12q0 -57 30 -79.5
t105 -22.5z" />
    <glyph glyph-name="ampersand" unicode="&#x26;" horiz-adv-x="1120" 
d="M1102 93v-93h-26q-73 0 -136 31l-78 40q-53 -45 -136.5 -63t-228.5 -18h-82q-89 0 -153 10t-113.5 34t-74 67t-24.5 106v4q0 82 43 132t150 67v4q-64 37 -64 115v5q0 90 73.5 133t246.5 43h24q167 0 246 -43.5t92 -145.5h-116q-17 95 -221 95h-20q-113 0 -157.5 -21.5
t-44.5 -63.5v-6q0 -29 23 -51t82 -53l437 -225l143 220h118l-173 -264l75 -39q40 -20 82 -20h13zM427 83h77q101 0 159.5 8.5t98.5 31.5l-429 221q-92 -11 -131.5 -41t-39.5 -85v-8q0 -69 62 -98t203 -29z" />
    <glyph glyph-name="quotesingle" unicode="'" horiz-adv-x="240" 
d="M165 700v-259h-90v259h90z" />
    <glyph glyph-name="parenleft" unicode="(" horiz-adv-x="388" 
d="M330 -26v-64q-113 19 -178 111.5t-65 260.5v46q0 169 65 261t178 111v-64q-170 -44 -170 -313v-36q0 -269 170 -313z" />
    <glyph glyph-name="parenright" unicode=")" horiz-adv-x="388" 
d="M51 636v64q112 -19 177.5 -111t65.5 -261v-46q0 -168 -65.5 -260.5t-177.5 -111.5v64q170 44 170 313v36q0 269 -170 313z" />
    <glyph glyph-name="asterisk" unicode="*" horiz-adv-x="412" 
d="M344 389l-60 -45l-76 114h-4l-76 -114l-60 45l83 107l-1 4l-130 42l25 71l129 -50l4 4l-6 133h68l-6 -133l4 -4l129 50l25 -71l-131 -42l-1 -4z" />
    <glyph glyph-name="plus" unicode="+" horiz-adv-x="600" 
d="M263 292h-202v75h202v211h75v-211h201v-75h-201v-212h-75v212z" />
    <glyph glyph-name="comma" unicode="," horiz-adv-x="317" 
d="M172 -112l-19 -28h-80l88 132v8h-75v128h151v-76q0 -42 -12.5 -73.5t-52.5 -90.5z" />
    <glyph glyph-name="hyphen" unicode="-" horiz-adv-x="375" 
d="M355 246h-336v93h336v-93z" />
    <glyph glyph-name="period" unicode="." horiz-adv-x="317" 
d="M230 0h-143v128h143v-128z" />
    <glyph glyph-name="slash" unicode="/" horiz-adv-x="495" 
d="M77 -100h-77l418 800h77z" />
    <glyph glyph-name="zero" unicode="0" horiz-adv-x="1076" 
d="M581 -11h-86q-229 0 -328.5 75.5t-99.5 242.5v85q0 167 99.5 242.5t328.5 75.5h86q229 0 328.5 -75t99.5 -242v-85q0 -167 -99.5 -243t-328.5 -76zM538 83q110 0 180 14t109 46t53 75.5t14 111.5v39q0 68 -14 111t-52.5 76t-109 47t-180.5 14q-111 0 -181 -14t-109 -47
t-53 -76t-14 -111v-39q0 -68 14 -111.5t53 -75.5t109 -46t181 -14z" />
    <glyph glyph-name="one" unicode="1" horiz-adv-x="609" 
d="M505 700v-700h-114v610h-6l-354 -149v112l316 127h158z" />
    <glyph glyph-name="two" unicode="2" 
d="M911 91v-91h-843v116q0 125 57.5 180t205.5 70l294 29q101 11 136 32t35 73v10q0 58 -64.5 82.5t-220.5 24.5q-154 0 -216 -25.5t-84 -89.5h-119q26 119 121.5 163.5t273.5 44.5h41q184 0 283 -42q100 -42 100 -148v-21q0 -88 -52.5 -134t-192.5 -60l-315 -31
q-96 -9 -132.5 -37.5t-36.5 -96.5v-49h729z" />
    <glyph glyph-name="three" unicode="3" 
d="M525 -10h-51q-204 0 -300 49t-114 162h117q20 -67 90.5 -92.5t236.5 -25.5q174 0 242.5 27.5t68.5 96.5v15q0 95 -157 95h-367v91h370q69 0 101.5 21t32.5 67v12q0 60 -64.5 84.5t-225.5 24.5q-143 0 -208.5 -25t-84.5 -88h-118q28 112 117.5 159t271.5 47h32
q212 0 304 -41.5t92 -137.5v-13q0 -118 -117 -137v-7q73 -12 104.5 -48t31.5 -107v-17q0 -115 -92.5 -163.5t-312.5 -48.5z" />
    <glyph glyph-name="four" unicode="4" 
d="M800 181v-181h-114v181h-617v154l551 365h180v-429h127v-90h-127zM159 277v-6h527v352h-6z" />
    <glyph glyph-name="five" unicode="5" 
d="M542 -10h-65q-184 0 -275.5 45t-113.5 146h118q15 -53 84.5 -75.5t216.5 -22.5q164 0 231.5 31t67.5 106v19q0 78 -62.5 107.5t-232.5 29.5q-131 0 -201 -17t-101 -57h-107l45 398h720v-91h-617l-28 -213h6q56 74 323 74q199 0 284.5 -53t85.5 -177v-20q0 -122 -89 -176
t-290 -54z" />
    <glyph glyph-name="six" unicode="6" 
d="M531 -10h-66q-212 0 -305 65.5t-93 233.5v87q0 180 90 257t302 77h51q190 0 280 -42.5t109 -141.5h-119q-14 52 -76.5 71.5t-215.5 19.5q-184 0 -247 -50t-63 -196v-19h7q23 54 99 77.5t235 23.5q207 0 296 -45.5t89 -166.5v-29q0 -124 -93 -173q-92 -49 -280 -49z
M490 80q166 0 233 28.5t67 100.5v24q0 72 -67.5 101t-232.5 29q-166 0 -233.5 -29t-67.5 -101v-24q0 -72 67.5 -100.5t233.5 -28.5z" />
    <glyph glyph-name="seven" unicode="7" 
d="M914 609l-528 -609h-148l532 603v7h-715v90h859v-91z" />
    <glyph glyph-name="eight" unicode="8" 
d="M533 -10h-89q-74 0 -127.5 4.5t-103 18t-80 36t-48.5 60t-18 89.5v17q0 72 34 111.5t108 50.5v6q-118 23 -118 138v12q0 100 90.5 138.5t281.5 38.5h50q191 0 282 -38.5t91 -138.5v-12q0 -115 -118 -138v-6q143 -21 143 -161v-18q0 -52 -18 -89.5t-48.5 -60t-80.5 -36
t-103.5 -18t-127.5 -4.5zM349 410h279q75 0 108.5 22.5t33.5 71.5v10q0 62 -59.5 83.5t-222.5 21.5t-222 -21.5t-59 -83.5v-10q0 -49 33 -71.5t109 -22.5zM488 81q176 0 242 25t66 93v15q0 54 -40 81t-131 27h-274q-90 0 -130 -27t-40 -81v-15q0 -68 65.5 -93t241.5 -25z
" />
    <glyph glyph-name="nine" unicode="9" 
d="M447 710h66q212 0 305 -65.5t93 -233.5v-87q0 -180 -90 -257t-302 -77h-51q-189 0 -279 43t-110 141h119q14 -52 76.5 -71.5t215.5 -19.5q184 0 247 50t63 196v19h-7q-23 -54 -99 -77.5t-235 -23.5q-207 0 -296 45.5t-89 166.5v29q0 124 93 173q92 49 280 49zM488 620
q-166 0 -233 -28.5t-67 -100.5v-24q0 -72 67.5 -101t232.5 -29q166 0 233.5 29t67.5 101v24q0 72 -67.5 100.5t-233.5 28.5z" />
    <glyph glyph-name="colon" unicode=":" horiz-adv-x="317" 
d="M230 402h-143v128h143v-128zM230 0h-143v128h143v-128z" />
    <glyph glyph-name="semicolon" unicode=";" horiz-adv-x="317" 
d="M234 402h-143v128h143v-128zM172 -112l-19 -28h-80l88 132v8h-75v128h151v-76q0 -42 -12.5 -73.5t-52.5 -90.5z" />
    <glyph glyph-name="less" unicode="&#x3c;" horiz-adv-x="600" 
d="M530 192v-82l-457 182v73l457 182v-82l-349 -134v-4z" />
    <glyph glyph-name="equal" unicode="=" horiz-adv-x="600" 
d="M519 408h-438v76h438v-76zM519 174h-438v76h438v-76z" />
    <glyph glyph-name="greater" unicode="&#x3e;" horiz-adv-x="600" 
d="M73 465v82l457 -182v-73l-457 -182v82l349 134v4z" />
    <glyph glyph-name="question" unicode="?" horiz-adv-x="760" 
d="M419 232h-115v10q0 38 31.5 62.5t110.5 51.5q106 35 136.5 63t30.5 82v7q0 58 -51 84.5t-165 26.5q-120 0 -176.5 -30.5t-64.5 -111.5h-110q6 129 96.5 181t246.5 52h17q318 0 318 -193v-17q0 -83 -44 -127t-165 -83q-50 -16 -72 -28.5t-24 -29.5zM433 0h-144v125h144
v-125z" />
    <glyph glyph-name="at" unicode="@" horiz-adv-x="1173" 
d="M570 -154q-266 0 -398.5 88.5t-132.5 291.5v24q0 209 141 321.5t415 112.5q273 0 406 -88.5t133 -273.5v-7q0 -296 -240 -296q-74 0 -104 24.5t-32 72.5h-5q-29 -42 -77 -62t-139 -20h-19q-116 0 -178 49.5t-48 161.5l2 23q14 116 80 164t183 48h29q162 0 194 -82h4l8 74
h104l-36 -309q-6 -49 9.5 -66.5t57.5 -17.5q49 0 81.5 33.5t46 83t13.5 112.5v7q0 168 -116.5 239.5t-360.5 71.5q-235 0 -360.5 -96.5t-125.5 -283.5v-16q0 -94 32.5 -159t97 -101t146.5 -51t194 -15q167 0 282 35v-58q-114 -35 -287 -35zM565 107q91 0 141.5 29t60.5 106
l3 26q11 84 -34 111t-140 27q-92 0 -141.5 -28.5t-59.5 -106.5l-4 -25q-6 -44 4.5 -73t37 -42.5t56.5 -18.5t76 -5z" />
    <glyph glyph-name="A" unicode="A" horiz-adv-x="1088" 
d="M635 700l432 -700h-133l-121 194h-537l-121 -194h-134l432 700h182zM548 625h-6l-207 -333h419z" />
    <glyph glyph-name="B" unicode="B" horiz-adv-x="1042" 
d="M969 207v-23q0 -98 -63 -141t-218 -43h-593v700h570q159 0 221.5 -39t64.5 -132v-15q0 -132 -119 -151v-4q134 -14 137 -152zM655 603h-442v-194h442q102 0 140 18t38 72v8q0 54 -39 75t-139 21zM657 311h-444v-214h449q107 0 148 22t41 85v5q0 62 -41.5 82t-152.5 20z
" />
    <glyph glyph-name="C" unicode="C" horiz-adv-x="1085" 
d="M606 -10h-114q-230 0 -327.5 75t-97.5 247v76q0 172 97.5 247t327.5 75h114q196 0 294 -52.5t122 -176.5h-123q-22 70 -92 101t-226 31h-63q-82 0 -139.5 -9t-95 -26.5t-58.5 -48t-29.5 -68t-8.5 -92.5v-39q0 -91 25.5 -141t98 -76t207.5 -26h63q156 0 226 31t92 101h123
q-24 -124 -122 -176.5t-294 -52.5z" />
    <glyph glyph-name="D" unicode="D" horiz-adv-x="1079" 
d="M1012 378v-56q0 -173 -94.5 -247.5t-324.5 -74.5h-498v700h494q231 0 327 -74.5t96 -247.5zM552 603h-339v-506h339q140 0 214 26t100 76t26 141v19q0 69 -13.5 112t-51 74.5t-103.5 44.5t-172 13z" />
    <glyph glyph-name="E" unicode="E" horiz-adv-x="953" 
d="M876 97v-97h-781v700h781v-97h-663v-204h663v-97h-663v-205h663z" />
    <glyph glyph-name="F" unicode="F" horiz-adv-x="935" 
d="M213 299v-299h-118v700h781v-97h-663v-206h663v-98h-663z" />
    <glyph glyph-name="G" unicode="G" horiz-adv-x="1110" 
d="M614 -10h-116q-233 0 -332 74.5t-99 243.5v84q0 169 99 243.5t332 74.5h116q191 0 291.5 -51t128.5 -163h-131q-22 64 -94.5 90.5t-220.5 26.5h-64q-138 0 -211.5 -25.5t-99.5 -74.5t-26 -140v-46q0 -68 13.5 -110t50.5 -73t102.5 -43.5t170.5 -12.5h64q128 0 201 21.5
t103 64.5t31 117h-395v97h515v-92q0 -158 -102 -232q-101 -74 -327 -74z" />
    <glyph glyph-name="H" unicode="H" horiz-adv-x="1077" 
d="M982 700v-700h-118v301h-651v-301h-118v700h118v-301h651v301h118z" />
    <glyph glyph-name="I" unicode="I" horiz-adv-x="309" 
d="M213 700v-700h-118v700h118z" />
    <glyph glyph-name="J" unicode="J" horiz-adv-x="612" 
d="M188 0h-168v97h123q154 0 214 44t60 140v419h118v-419q0 -146 -79 -213.5t-268 -67.5z" />
    <glyph glyph-name="K" unicode="K" horiz-adv-x="1070" 
d="M213 250v-250h-118v700h118v-342h5l634 342h192l-527 -286l539 -414h-179l-464 356h-5z" />
    <glyph glyph-name="L" unicode="L" horiz-adv-x="860" 
d="M821 103v-103h-726v700h118v-597h608z" />
    <glyph glyph-name="M" unicode="M" horiz-adv-x="1330" 
d="M1234 700v-700h-118v606h-5l-384 -606h-130l-377 606h-7v-606h-118v700h210l360 -577h6l367 577h196z" />
    <glyph glyph-name="N" unicode="N" horiz-adv-x="1113" 
d="M1017 700v-700h-180l-617 594h-7v-594h-118v700h181l617 -595h6v595h118z" />
    <glyph glyph-name="O" unicode="O" horiz-adv-x="1113" 
d="M614 -10h-116q-233 0 -332 75t-99 247v76q0 172 99 247t332 75h116q233 0 332.5 -75t99.5 -247v-76q0 -172 -99.5 -247t-332.5 -75zM523 87h66q104 0 170 13.5t103 44.5t50.5 74t13.5 111v39q0 68 -13.5 111t-50.5 74.5t-103 45t-170 13.5h-66q-105 0 -170.5 -13.5
t-102.5 -45t-50 -74t-13 -111.5v-39q0 -54 8 -91t29.5 -68t59.5 -48.5t96.5 -26.5t142.5 -9z" />
    <glyph glyph-name="P" unicode="P" horiz-adv-x="1003" 
d="M213 247v-247h-118v700h580q154 0 222 -51t68 -170v-18q0 -112 -68 -163t-222 -51h-462zM646 603h-433v-259h434q117 0 158.5 27t41.5 96v12q0 70 -42.5 97t-158.5 27z" />
    <glyph glyph-name="Q" unicode="Q" horiz-adv-x="1113" 
d="M1083 103v-103h-585q-234 0 -332.5 73t-98.5 245v70q0 172 99 247t332 75h116q231 0 331.5 -76t100.5 -230v-60q0 -99 -37 -154.5t-116 -79.5v-7h190zM523 97h66q138 0 212 26.5t99.5 76t25.5 140.5v29q0 54 -8.5 91.5t-30 68t-59.5 48.5t-96.5 27t-142.5 9h-66
q-105 0 -170.5 -13.5t-102.5 -45t-50 -74t-13 -111.5v-29q0 -54 8 -91t29.5 -68t59.5 -48.5t96.5 -26.5t142.5 -9z" />
    <glyph glyph-name="R" unicode="R" horiz-adv-x="1045" 
d="M213 279v-279h-118v700h589q153 0 217 -42t64 -134v-29q0 -74 -35.5 -111.5t-109.5 -45.5v-4q76 -10 110.5 -43.5t34.5 -114.5v-176h-118v156q0 75 -41 99t-169 24h-424zM637 603h-424v-227h443q109 0 150 23t41 85v10q0 64 -43.5 86.5t-166.5 22.5z" />
    <glyph glyph-name="S" unicode="S" horiz-adv-x="1023" 
d="M531 -10h-30q-84 0 -151 8t-130 27t-104 57t-57 93h125q30 -53 114.5 -73t227.5 -20q165 0 244 27t79 95v9q0 49 -36 69t-134 23l-314 11q-147 6 -208 46.5t-61 129.5v7q0 115 99.5 163t297.5 48h28q82 0 145.5 -8t123.5 -27.5t99.5 -58t55.5 -95.5h-125q-24 55 -104 76
t-213 21q-158 0 -222.5 -26t-64.5 -85v-2q0 -50 36 -70t134 -23l314 -10q148 -6 208.5 -46.5t60.5 -129.5v-8q0 -67 -30 -112.5t-90.5 -70.5t-136 -35t-181.5 -10z" />
    <glyph glyph-name="T" unicode="T" horiz-adv-x="920" 
d="M519 597v-597h-118v597h-375v103h868v-103h-375z" />
    <glyph glyph-name="U" unicode="U" horiz-adv-x="1031" 
d="M577 -10h-123q-203 0 -289.5 70t-86.5 220v420h119v-409q0 -107 63.5 -155.5t225.5 -48.5h59q162 0 225 48.5t63 155.5v409h120v-420q0 -150 -86.5 -220t-289.5 -70z" />
    <glyph glyph-name="V" unicode="V" horiz-adv-x="1061" 
d="M1040 700l-432 -700h-155l-432 700h139l371 -604h6l372 604h131z" />
    <glyph glyph-name="W" unicode="W" horiz-adv-x="1470" 
d="M1443 700l-267 -700h-154l-282 587l-280 -587h-168l-265 700h130l224 -592h6l282 592h142l283 -592h6l224 592h119z" />
    <glyph glyph-name="X" unicode="X" horiz-adv-x="1086" 
d="M628 357l437 -357h-167l-356 295h-4l-355 -295h-162l436 358l-419 342h167l339 -279h4l339 279h162z" />
    <glyph glyph-name="Y" unicode="Y" horiz-adv-x="1000" 
d="M559 312v-312h-118v311l-420 389h153l330 -305h5l331 305h139z" />
    <glyph glyph-name="Z" unicode="Z" horiz-adv-x="1003" 
d="M929 97v-97h-855v86l655 517h-629v97h809v-86l-655 -517h675z" />
    <glyph glyph-name="bracketleft" unicode="[" horiz-adv-x="388" 
d="M331 -27v-63h-233v790h233v-63h-162v-664h162z" />
    <glyph glyph-name="backslash" unicode="\" horiz-adv-x="495" 
d="M77 700l418 -800h-77l-418 800h77z" />
    <glyph glyph-name="bracketright" unicode="]" horiz-adv-x="388" 
d="M57 637v63h233v-790h-233v63h162v664h-162z" />
    <glyph glyph-name="asciicircum" unicode="^" horiz-adv-x="600" 
d="M329 700l211 -506h-84l-154 379h-4l-154 -379h-84l211 506h58z" />
    <glyph glyph-name="underscore" unicode="_" horiz-adv-x="750" 
d="M750 -125h-750v65h750v-65z" />
    <glyph glyph-name="grave" unicode="`" horiz-adv-x="500" 
d="M265 700l109 -120h-113l-135 120h139z" />
    <glyph glyph-name="a" unicode="a" horiz-adv-x="767" 
d="M706 326v-326h-109v111h-4q-46 -121 -282 -121q-262 0 -262 167v7q0 144 186 150l362 12v5q0 77 -48.5 104.5t-158.5 27.5q-88 0 -133.5 -18.5t-66.5 -66.5h-114q23 84 94.5 123t216.5 39h25q154 0 224 -49.5t70 -164.5zM159 165v-4q0 -52 45 -74t137 -22q117 0 186.5 43
t69.5 124v23l-321 -11q-61 -2 -89 -20.5t-28 -58.5z" />
    <glyph glyph-name="b" unicode="b" horiz-adv-x="835" 
d="M180 0h-109v700h109v-270h4q51 110 263 110h34q151 0 228 -59t77 -192v-49q0 -136 -80 -193t-225 -57h-34q-212 0 -263 110h-4v-100zM428 79q132 0 190.5 36t58.5 135v30q0 99 -58.5 135t-190.5 36q-131 0 -189.5 -36t-58.5 -135v-39q0 -93 58.5 -127.5t189.5 -34.5z" />
    <glyph glyph-name="c" unicode="c" horiz-adv-x="774" 
d="M415 -10h-40q-165 0 -245.5 58.5t-80.5 191.5v49q0 134 80 192.5t246 58.5h40q282 0 320 -171h-113q-24 46 -76 64t-146 18q-128 0 -185 -36t-57 -135v-30q0 -99 57 -135t185 -36q94 0 146 18t76 64h113q-38 -171 -320 -171z" />
    <glyph glyph-name="d" unicode="d" horiz-adv-x="835" 
d="M764 700v-700h-109v100h-4q-51 -110 -263 -110h-34q-151 0 -228 59t-77 191v49q0 137 79 194t226 57h34q212 0 263 -110h4v270h109zM407 79q131 0 189.5 34.5t58.5 127.5v39q0 99 -58 135t-190 36t-190.5 -36t-58.5 -135v-30q0 -99 58.5 -135t190.5 -36z" />
    <glyph glyph-name="e" unicode="e" horiz-adv-x="779" 
d="M613 152h113q-23 -84 -100 -123t-220 -39h-31q-165 0 -245.5 58.5t-80.5 191.5v49q0 134 80 192.5t246 58.5h28q166 0 248 -58.5t82 -192.5v-47h-575q0 -99 54.5 -133.5t178.5 -34.5q101 0 150 16.5t72 61.5zM391 463q-116 0 -171 -32t-61 -118h465v4q0 79 -58 112.5
t-175 33.5z" />
    <glyph glyph-name="f" unicode="f" horiz-adv-x="544" 
d="M183 446h-164v84h165q4 96 59 133t174 37h108v-84h-88q-77 0 -111 -17t-34 -69h233v-84h-233v-446h-109v446z" />
    <glyph glyph-name="g" unicode="g" horiz-adv-x="828" 
d="M436 -170h-50q-122 0 -202 32.5t-115 113.5h125q26 -39 75.5 -53.5t136.5 -14.5q126 0 183 33.5t57 123.5v77h-4q-27 -56 -85.5 -82t-167.5 -26h-14q-147 0 -226.5 55t-79.5 181v35q0 126 79.5 180.5t226.5 54.5h14q109 -1 167.5 -26.5t85.5 -80.5h4v97h110v-477
q0 -121 -81.5 -172t-238.5 -51zM413 118q46 0 78 3t63 13t50 27t30.5 46.5t11.5 70.5v18q0 50 -16 82t-49.5 48.5t-72 22.5t-95.5 6q-58 0 -97 -6t-72.5 -22.5t-49.5 -48.5t-16 -82v-18q0 -95 58.5 -127.5t176.5 -32.5z" />
    <glyph glyph-name="h" unicode="h" horiz-adv-x="748" 
d="M686 328v-328h-109v309q0 82 -49 112t-133 30q-103 0 -159 -39t-56 -129v-283h-109v700h109v-270h6q52 110 240 110q121 0 190.5 -47.5t69.5 -164.5z" />
    <glyph glyph-name="i" unicode="i" horiz-adv-x="252" 
d="M71 700h109v-87h-109v87zM71 530h109v-530h-109v530z" />
    <glyph glyph-name="j" unicode="j" horiz-adv-x="252" 
d="M71 700h109v-87h-109v87zM71 530h109v-423q0 -107 -19.5 -158.5t-81.5 -118.5h-118q67 70 88.5 120t21.5 132v448z" />
    <glyph glyph-name="k" unicode="k" horiz-adv-x="767" 
d="M180 156v-156h-109v700h109v-434h4l386 264h156l-327 -224l354 -306h-156l-282 246h-4z" />
    <glyph glyph-name="l" unicode="l" horiz-adv-x="252" 
d="M180 700v-700h-109v700h109z" />
    <glyph glyph-name="m" unicode="m" horiz-adv-x="1191" 
d="M1131 328v-328h-110v309q0 43 -13.5 72.5t-38.5 44t-52.5 20t-62.5 5.5q-95 0 -147 -39.5t-52 -133.5v-278h-109v309q0 82 -45.5 112t-122.5 30q-95 0 -146.5 -39.5t-51.5 -133.5v-278h-109v530h109v-97h6q53 107 224 107q182 0 228 -112h6q56 112 237 112q120 0 185 -47
t65 -165z" />
    <glyph glyph-name="n" unicode="n" horiz-adv-x="748" 
d="M686 328v-328h-109v309q0 82 -49 112t-133 30q-103 0 -159 -39t-56 -129v-283h-109v530h109v-100h6q52 110 240 110q121 0 190.5 -47.5t69.5 -164.5z" />
    <glyph glyph-name="o" unicode="o" horiz-adv-x="812" 
d="M436 -10h-60q-164 0 -245.5 59t-81.5 191v49q0 134 81 192.5t246 58.5h60q165 0 246.5 -58.5t81.5 -192.5v-49q0 -132 -81.5 -191t-246.5 -59zM406 79q132 0 190.5 36t58.5 135v30q0 99 -58.5 135t-190.5 36t-190 -36t-58 -135v-30q0 -99 58 -135t190 -36z" />
    <glyph glyph-name="p" unicode="p" horiz-adv-x="835" 
d="M71 -170v700h109v-100h4q51 110 263 110h34q145 0 225 -57t80 -193v-49q0 -133 -77 -192t-228 -59h-34q-212 0 -263 110h-4v-270h-109zM428 451q-131 0 -189.5 -34.5t-58.5 -127.5v-39q0 -99 58.5 -135t189.5 -36q132 0 190.5 36t58.5 135v30q0 99 -58.5 135t-190.5 36z
" />
    <glyph glyph-name="q" unicode="q" horiz-adv-x="835" 
d="M655 530h109v-700h-109v270h-4q-51 -110 -263 -110h-34q-147 0 -226 57t-79 194v49q0 132 77 191t228 59h34q212 0 263 -110h4v100zM407 451q-132 0 -190.5 -36t-58.5 -135v-30q0 -99 58.5 -135t190.5 -36t190 36t58 135v39q0 93 -58.5 127.5t-189.5 34.5z" />
    <glyph glyph-name="r" unicode="r" horiz-adv-x="494" 
d="M418 530h58v-88h-81q-100 0 -157.5 -33.5t-57.5 -119.5v-289h-109v530h109v-98h4q45 98 234 98z" />
    <glyph glyph-name="s" unicode="s" horiz-adv-x="770" 
d="M399 -10h-17q-153 0 -234 32.5t-101 113.5h117q19 -38 76 -52t153 -14q122 0 172.5 18.5t51.5 66.5v4q0 35 -31.5 48.5t-117.5 17.5l-191 7q-113 4 -161 36t-48 102v11q0 87 77 123t230 36h12q143 0 219 -35t101 -111h-118q-34 66 -213 66q-111 0 -155 -16t-44 -60v-4
q0 -36 31 -49t117 -16l191 -7q113 -4 161.5 -36.5t48.5 -102.5v-11q0 -94 -81.5 -131t-245.5 -37z" />
    <glyph glyph-name="t" unicode="t" horiz-adv-x="529" 
d="M177 446h-158v84h158v170h109v-170h205v-84h-205v-237q0 -78 34.5 -101.5t123.5 -23.5h47v-84h-79q-131 0 -183 42.5t-52 155.5v248z" />
    <glyph glyph-name="u" unicode="u" horiz-adv-x="748" 
d="M62 202v328h109v-309q0 -82 49 -112t133 -30q103 0 159 39t56 129v283h109v-530h-109v100h-6q-52 -110 -240 -110q-57 0 -101.5 10t-81.5 33t-57 65.5t-20 103.5z" />
    <glyph glyph-name="v" unicode="v" horiz-adv-x="715" 
d="M717 530l-285 -530h-150l-284 530h124l236 -445h7l236 445h116z" />
    <glyph glyph-name="w" unicode="w" horiz-adv-x="1157" 
d="M1146 530l-205 -530h-147l-212 432l-211 -432h-156l-204 530h121l169 -434h6l212 434h131l212 -434h6l169 434h109z" />
    <glyph glyph-name="x" unicode="x" horiz-adv-x="828" 
d="M495 272l307 -272h-155l-233 214h-4l-237 -214h-146l309 272l-289 258h155l217 -198h4l221 198h140z" />
    <glyph glyph-name="y" unicode="y" horiz-adv-x="703" 
d="M705 530l-393 -700h-116l103 172l-301 528h119l239 -419h5l229 419h115z" />
    <glyph glyph-name="z" unicode="z" horiz-adv-x="743" 
d="M695 84v-84h-644v77l471 369h-453v84h610v-77l-472 -369h488z" />
    <glyph glyph-name="braceleft" unicode="{" horiz-adv-x="367" 
d="M328 -27v-63h-52q-89 0 -122.5 43t-33.5 150v45q0 68 -16.5 89t-82.5 28v80q66 7 82.5 28t16.5 89v45q0 107 33.5 150t122.5 43h52v-63h-30q-62 0 -84 -28t-22 -119v-47q0 -72 -19 -99t-91 -37v-4q72 -10 91 -37t19 -99v-47q0 -91 22 -119t84 -28h30z" />
    <glyph glyph-name="bar" unicode="|" horiz-adv-x="270" 
d="M170 -100h-70v800h70v-800z" />
    <glyph glyph-name="braceright" unicode="}" horiz-adv-x="367" 
d="M84 -90h-52v63h30q62 0 84 28t22 119v47q0 72 19 99t91 37v4q-72 10 -91 37t-19 99v47q0 91 -22 119t-84 28h-30v63h52q89 0 122.5 -43t33.5 -150v-45q0 -68 16.5 -89t82.5 -28v-80q-66 -7 -82.5 -28t-16.5 -89v-45q0 -107 -33.5 -150t-122.5 -43z" />
    <glyph glyph-name="asciitilde" unicode="~" horiz-adv-x="600" 
d="M408 259q-45 0 -113 33t-106 33q-66 0 -108 -61v81q15 21 43.5 38t67.5 17q45 0 113 -33t106 -33q66 0 108 61v-82q-38 -54 -111 -54z" />
    <glyph glyph-name="exclamdown" unicode="&#xa1;" horiz-adv-x="319" 
d="M88 530h144v-128h-144v128zM226 123v-293h-133v293l27 172h79z" />
    <glyph glyph-name="cent" unicode="&#xa2;" horiz-adv-x="788" 
d="M446 -10v-95h-82v95q-157 3 -233.5 62t-76.5 188v49q0 130 76.5 189t233.5 62v95h82v-95q263 -6 300 -171h-113q-23 46 -76 64t-152 18q-129 0 -185.5 -36t-56.5 -135v-30q0 -99 56.5 -135t185.5 -36q99 0 152 18t76 64h113q-37 -165 -300 -171z" />
    <glyph glyph-name="sterling" unicode="&#xa3;" 
d="M819 384v-68h-489v-226h589v-90h-880v90h178v226h-178v68h178v27q0 87 25.5 147t74.5 92.5t108 46t137 13.5h34q138 0 226 -49.5t113 -135.5h-125q-24 48 -77.5 70t-152.5 22q-127 0 -188.5 -43.5t-61.5 -152.5v-37h489z" />
    <glyph glyph-name="currency" unicode="&#xa4;" horiz-adv-x="600" 
d="M300 177q-52 0 -82 16l-103 -103l-54 54l99 98q-19 36 -19 87q0 50 19 86l-99 99l54 54l103 -103q30 16 82 16q50 0 81 -16l103 103l54 -54l-100 -99q19 -33 19 -86q0 -54 -19 -87l100 -98l-54 -54l-103 103q-31 -16 -81 -16zM300 238q47 0 68.5 21t21.5 70t-21.5 70
t-68.5 21t-69 -21t-22 -70t22 -70t69 -21z" />
    <glyph glyph-name="yen" unicode="&#xa5;" 
d="M547 250v-250h-114v250h-323v62h323v50l-31 26h-292v62h217l-302 250h161l309 -258h5l308 258h144l-300 -250h218v-62h-293l-30 -25v-51h323v-62h-323z" />
    <glyph glyph-name="brokenbar" unicode="&#xa6;" horiz-adv-x="270" 
d="M170 410h-70v290h70v-290zM170 -100h-70v290h70v-290z" />
    <glyph glyph-name="section" unicode="&#xa7;" horiz-adv-x="858" 
d="M471 -170h-13q-74 0 -128 6t-111.5 24t-89.5 58t-34 101h99q2 -37 23.5 -61.5t61.5 -36.5t82 -16t102 -4q138 0 189.5 19t51.5 72v6q0 43 -33.5 59t-127.5 19l-131 5q-138 4 -209 20.5t-100.5 52t-29.5 102.5v5q0 61 34 94t101 45v4q-63 12 -88 43t-25 85v12
q0 50 22 83.5t68 51t103.5 24.5t142.5 7h13q78 0 136.5 -7.5t112.5 -27t83.5 -58.5t30.5 -96h-98q-4 70 -77 94q-70 24 -193 24q-138 0 -189.5 -19t-51.5 -72v-6q0 -44 33 -59.5t128 -18.5l131 -5q138 -4 209 -20.5t100.5 -52t29.5 -102.5v-5q0 -61 -34 -94t-101 -45v-4
q63 -12 88 -43t25 -85v-12q0 -50 -22 -83.5t-68 -51t-104 -24.5t-142 -7zM451 166q161 0 218.5 19t57.5 80v10q0 61 -57 80t-219 19q-161 0 -218.5 -19t-57.5 -80v-10q0 -61 57 -80t219 -19z" />
    <glyph glyph-name="dieresis" unicode="&#xa8;" horiz-adv-x="500" 
d="M87 681h92v-87h-92v87zM321 681h92v-87h-92v87z" />
    <glyph glyph-name="copyright" unicode="&#xa9;" horiz-adv-x="994" 
d="M557 -10h-120q-215 0 -310 75t-95 229v112q0 154 95 229t310 75h120q215 0 310 -75t95 -229v-112q0 -154 -95 -229t-310 -75zM454 25h86q115 0 191 18t117.5 57.5t58 91t16.5 127.5v62q0 76 -16.5 127.5t-58 91t-117.5 57.5t-191 18h-86q-115 0 -190.5 -18t-117.5 -57.5
t-58 -91t-16 -127.5v-62q0 -76 16 -127.5t58 -91t117.5 -57.5t190.5 -18zM542 134h-66q-144 0 -203.5 44.5t-59.5 151.5v40q0 107 59.5 151.5t203.5 44.5h66q122 0 182 -31.5t74 -101.5l2 -12h-104l-3 8q-14 34 -50 48t-120 14h-29q-108 0 -143.5 -28t-35.5 -102v-22
q0 -74 35.5 -102t143.5 -28h29q84 0 120 14t50 48l3 8h104l-2 -13q-14 -69 -74 -100.5t-182 -31.5z" />
    <glyph glyph-name="ordfeminine" unicode="&#xaa;" horiz-adv-x="611" 
d="M566 537v-257h-100v85h-4q-40 -93 -219 -93q-208 0 -208 133v6q0 114 157 118l274 10v4q0 57 -36 77.5t-119 20.5q-67 0 -101 -13.5t-49 -49.5h-105q21 72 82 101t170 29h20q127 0 182.5 -38.5t55.5 -132.5zM136 413v-4q0 -70 135 -70q87 0 141 32.5t54 92.5v18l-242 -10
q-88 -3 -88 -59z" />
    <glyph glyph-name="guillemotleft" unicode="&#xab;" horiz-adv-x="427" 
d="M48 289v6l84 219h78l-86 -222l86 -222h-78zM214 289v6l84 219h78l-86 -222l86 -222h-78z" />
    <glyph glyph-name="logicalnot" unicode="&#xac;" horiz-adv-x="600" 
d="M532 367v-280h-75v205h-407v75h482z" />
    <glyph glyph-name="registered" unicode="&#xae;" horiz-adv-x="994" 
d="M557 -10h-120q-215 0 -310 75t-95 229v112q0 154 95 229t310 75h120q215 0 310 -75t95 -229v-112q0 -154 -95 -229t-310 -75zM454 25h86q115 0 191 18t117.5 57.5t58 91t16.5 127.5v62q0 76 -16.5 127.5t-58 91t-117.5 57.5t-191 18h-86q-115 0 -190.5 -18t-117.5 -57.5
t-58 -91t-16 -127.5v-62q0 -76 16 -127.5t58 -91t117.5 -57.5t190.5 -18zM354 297v-157h-101v420h351q96 0 135.5 -23.5t39.5 -81.5v-23q0 -45 -23 -66.5t-72 -24.5v-4q52 -7 73.5 -25.5t21.5 -69.5v-102h-101v91q0 40 -21 53t-90 13h-213zM567 490h-213v-124h231
q53 0 73 12.5t20 45.5v4q0 36 -22.5 49t-88.5 13z" />
    <glyph glyph-name="overscore" unicode="&#xaf;" horiz-adv-x="500" 
d="M442 666v-56h-384v56h384z" />
    <glyph glyph-name="degree" unicode="&#xb0;" horiz-adv-x="407" 
d="M203 423q-59 0 -101.5 41.5t-42.5 101.5q0 61 42.5 102.5t101.5 41.5q60 0 102.5 -41.5t42.5 -102.5q0 -60 -42.5 -101.5t-102.5 -41.5zM203 478q37 0 63 25t26 63t-26 63.5t-63 25.5t-62.5 -25.5t-25.5 -63.5t25.5 -63t62.5 -25z" />
    <glyph glyph-name="plusminus" unicode="&#xb1;" horiz-adv-x="600" 
d="M263 412h-162v75h162v139h75v-139h161v-75h-161v-139h-75v139zM499 98h-398v75h398v-75z" />
    <glyph glyph-name="twosuperior" unicode="&#xb2;" horiz-adv-x="547" 
d="M517 454v-74h-484v74q0 78 35.5 110t131.5 43l132 16q45 5 61 16.5t16 35.5v4q0 28 -27 39.5t-96 11.5q-63 0 -93 -10t-41 -43h-108q14 76 71.5 102.5t161.5 26.5h10q120 0 175 -28.5t55 -91.5v-9q0 -54 -32 -83t-118 -39l-161 -20q-40 -5 -54.5 -17.5t-14.5 -42.5v-21
h380z" />
    <glyph glyph-name="threesuperior" unicode="&#xb3;" horiz-adv-x="547" 
d="M295 374h-29q-102 0 -160 27t-72 104h106q11 -33 41.5 -44.5t92.5 -11.5q77 0 106 12.5t29 45.5v6q0 24 -16.5 35t-55.5 11h-150v72h143q63 0 63 42v6q0 28 -25.5 39.5t-90.5 11.5q-57 0 -83.5 -10.5t-35.5 -40.5h-109q15 70 64.5 98.5t147.5 28.5h20q113 0 167.5 -24.5
t54.5 -80.5v-6q0 -39 -17 -59t-60 -25v-5q51 -4 72.5 -26.5t21.5 -69.5v-7q0 -70 -53.5 -99.5t-171.5 -29.5z" />
    <glyph glyph-name="acute" unicode="&#xb4;" horiz-adv-x="500" 
d="M373 700l-136 -120h-112l109 120h139z" />
    <glyph glyph-name="mu" unicode="&#xb5;" horiz-adv-x="758" 
d="M686 530v-530h-109v91h-4q-45 -101 -220 -101q-145 0 -186 63h-4l11 -203v-20h-103v700h109v-308q0 -43 14.5 -72t43 -44t62 -21t79.5 -6q43 0 75 5.5t61.5 20t45.5 44t16 73.5v308h109z" />
    <glyph glyph-name="paragraph" unicode="&#xb6;" horiz-adv-x="688" 
d="M588 700v-800h-67v735h-155v-735h-67v527h-66q-100 0 -147 30t-47 103v7q0 77 45 105t149 28h355z" />
    <glyph glyph-name="middot" unicode="&#xb7;" horiz-adv-x="370" 
d="M256 228h-143v128h143v-128z" />
    <glyph glyph-name="cedilla" unicode="&#xb8;" horiz-adv-x="500" 
d="M174 -140l61 140h99l-50 -140h-110z" />
    <glyph glyph-name="onesuperior" unicode="&#xb9;" horiz-adv-x="386" 
d="M319 800v-420h-101v343h-4l-183 -83v95l156 65h132z" />
    <glyph glyph-name="ordmasculine" unicode="&#xba;" horiz-adv-x="650" 
d="M350 272h-49q-132 0 -198 44t-66 149v50q0 105 66 149t198 44h49q130 0 196.5 -44t66.5 -149v-50q0 -105 -66.5 -149t-196.5 -44zM326 350q37 0 63 2.5t51 10t40 20.5t24 35.5t9 53.5v35q0 74 -45.5 98.5t-141.5 24.5q-97 0 -143 -24.5t-46 -98.5v-35q0 -31 9 -53.5
t24 -35.5t40.5 -20.5t52 -10t63.5 -2.5z" />
    <glyph glyph-name="guillemotright" unicode="&#xbb;" horiz-adv-x="427" 
d="M212 295v-6l-84 -219h-78l86 222l-86 222h78zM378 295v-6l-84 -219h-78l86 222l-86 222h78z" />
    <glyph glyph-name="onequarter" unicode="&#xbc;" horiz-adv-x="1106" 
d="M319 700v-420h-101v343h-4l-183 -83v95l156 65h132zM755 700l-428 -700h-80l428 700h80zM1002 99v-99h-106v99h-327v120l274 201h159v-246h66v-75h-66zM654 179v-5h242v180h-5z" />
    <glyph glyph-name="onehalf" unicode="&#xbd;" horiz-adv-x="1170" 
d="M319 700v-420h-101v343h-4l-183 -83v95l156 65h132zM755 700l-428 -700h-80l428 700h80zM1119 74v-74h-484v74q0 78 35.5 110t131.5 43l132 16q45 5 61 16.5t16 35.5v4q0 28 -27 39.5t-96 11.5q-63 0 -93 -10t-41 -43h-108q14 76 71.5 102.5t161.5 26.5h10
q120 0 175 -28.5t55 -91.5v-9q0 -54 -32 -83t-118 -39l-161 -20q-40 -5 -54.5 -17.5t-14.5 -42.5v-21h380z" />
    <glyph glyph-name="threequarters" unicode="&#xbe;" horiz-adv-x="1277" 
d="M295 274h-29q-102 0 -160 27t-72 104h106q11 -33 41.5 -44.5t92.5 -11.5q77 0 106 12.5t29 45.5v6q0 24 -16.5 35t-55.5 11h-150v72h143q63 0 63 42v6q0 28 -25.5 39.5t-90.5 11.5q-57 0 -83.5 -10.5t-35.5 -40.5h-109q15 70 64.5 98.5t147.5 28.5h20q113 0 167.5 -24.5
t54.5 -80.5v-6q0 -39 -17 -59t-60 -25v-5q51 -4 72.5 -26.5t21.5 -69.5v-7q0 -70 -53.5 -99.5t-171.5 -29.5zM926 700l-428 -700h-80l428 700h80zM1173 99v-99h-106v99h-327v120l274 201h159v-246h66v-75h-66zM825 179v-5h242v180h-5z" />
    <glyph glyph-name="questiondown" unicode="&#xbf;" horiz-adv-x="760" 
d="M327 530h144v-125h-144v125zM341 298h115v-10q0 -38 -31.5 -62.5t-110.5 -51.5q-106 -35 -136.5 -63t-30.5 -82v-7q0 -58 51 -84.5t165 -26.5q120 0 176.5 30.5t64.5 111.5h110q-6 -129 -96.5 -181t-246.5 -52h-17q-318 0 -318 193v17q0 83 44 127t165 83q50 16 72 28.5
t24 29.5z" />
    <glyph glyph-name="Agrave" unicode="&#xc0;" horiz-adv-x="1088" 
d="M491 860l109 -120h-113l-135 120h139zM635 700l432 -700h-133l-121 194h-537l-121 -194h-134l432 700h182zM548 625h-6l-207 -333h419z" />
    <glyph glyph-name="Aacute" unicode="&#xc1;" horiz-adv-x="1088" 
d="M736 860l-136 -120h-112l109 120h139zM635 700l432 -700h-133l-121 194h-537l-121 -194h-134l432 700h182zM548 625h-6l-207 -333h419z" />
    <glyph glyph-name="Acircumflex" unicode="&#xc2;" horiz-adv-x="1088" 
d="M624 860l149 -120h-109l-120 87l-120 -87h-109l149 120h160zM635 700l432 -700h-133l-121 194h-537l-121 -194h-134l432 700h182zM548 625h-6l-207 -333h419z" />
    <glyph glyph-name="Atilde" unicode="&#xc3;" horiz-adv-x="1088" 
d="M631 749q-36 0 -95 21t-77 21q-38 0 -49 -37h-70q10 52 37.5 75t76.5 23q35 0 94 -21.5t77 -21.5q38 0 51 38h72q-18 -98 -117 -98zM635 700l432 -700h-133l-121 194h-537l-121 -194h-134l432 700h182zM548 625h-6l-207 -333h419z" />
    <glyph glyph-name="Adieresis" unicode="&#xc4;" horiz-adv-x="1088" 
d="M381 846h92v-87h-92v87zM615 846h92v-87h-92v87zM635 700l432 -700h-133l-121 194h-537l-121 -194h-134l432 700h182zM548 625h-6l-207 -333h419z" />
    <glyph glyph-name="Aring" unicode="&#xc5;" horiz-adv-x="1088" 
d="M544 727q-83 0 -121.5 24.5t-38.5 78.5t38.5 78.5t121.5 24.5t121 -24.5t38 -78.5t-38 -78.5t-121 -24.5zM544 777q47 0 67 12.5t20 40.5t-20 40.5t-67 12.5t-67 -12.5t-20 -40.5t20 -40.5t67 -12.5zM635 700l432 -700h-133l-121 194h-537l-121 -194h-134l432 700h182z
M548 625h-6l-207 -333h419z" />
    <glyph glyph-name="AE" unicode="&#xc6;" horiz-adv-x="1525" 
d="M1448 97v-97h-780v194h-364l-162 -194h-141l585 700h862v-97h-662v-204h662v-97h-662v-205h662zM668 612h-14l-268 -320h282v320z" />
    <glyph glyph-name="Ccedilla" unicode="&#xc7;" horiz-adv-x="1085" 
d="M606 -10h-11l-46 -130h-110l57 130h-4q-230 0 -327.5 75t-97.5 247v76q0 172 97.5 247t327.5 75h114q196 0 294 -52.5t122 -176.5h-123q-22 70 -92 101t-226 31h-63q-82 0 -139.5 -9t-95 -26.5t-58.5 -48t-29.5 -68t-8.5 -92.5v-39q0 -91 25.5 -141t98 -76t207.5 -26h63
q156 0 226 31t92 101h123q-24 -124 -122 -176.5t-294 -52.5z" />
    <glyph glyph-name="Egrave" unicode="&#xc8;" horiz-adv-x="953" 
d="M431 860l109 -120h-113l-135 120h139zM876 97v-97h-781v700h781v-97h-663v-204h663v-97h-663v-205h663z" />
    <glyph glyph-name="Eacute" unicode="&#xc9;" horiz-adv-x="953" 
d="M679 860l-136 -120h-112l109 120h139zM876 97v-97h-781v700h781v-97h-663v-204h663v-97h-663v-205h663z" />
    <glyph glyph-name="Ecircumflex" unicode="&#xca;" horiz-adv-x="953" 
d="M565 860l149 -120h-109l-120 87l-120 -87h-109l149 120h160zM876 97v-97h-781v700h781v-97h-663v-204h663v-97h-663v-205h663z" />
    <glyph glyph-name="Edieresis" unicode="&#xcb;" horiz-adv-x="953" 
d="M322 846h92v-87h-92v87zM556 846h92v-87h-92v87zM876 97v-97h-781v700h781v-97h-663v-204h663v-97h-663v-205h663z" />
    <glyph glyph-name="Igrave" unicode="&#xcc;" horiz-adv-x="309" 
d="M101 860l109 -120h-113l-135 120h139zM213 700v-700h-118v700h118z" />
    <glyph glyph-name="Iacute" unicode="&#xcd;" horiz-adv-x="309" 
d="M347 860l-136 -120h-112l109 120h139zM213 700v-700h-118v700h118z" />
    <glyph glyph-name="Icircumflex" unicode="&#xce;" horiz-adv-x="309" 
d="M234 860l149 -120h-109l-120 87l-120 -87h-109l149 120h160zM213 700v-700h-118v700h118z" />
    <glyph glyph-name="Idieresis" unicode="&#xcf;" horiz-adv-x="309" 
d="M-9 846h92v-87h-92v87zM225 846h92v-87h-92v87zM213 700v-700h-118v700h118z" />
    <glyph glyph-name="Eth" unicode="&#xd0;" horiz-adv-x="1079" 
d="M95 310h-95v80h95v310h494q231 0 327 -74.5t96 -247.5v-56q0 -173 -94.5 -247.5t-324.5 -74.5h-498v310zM525 390v-80h-312v-213h339q140 0 214 26t100 76t26 141v19q0 69 -13.5 112t-51 74.5t-103.5 44.5t-172 13h-339v-213h312z" />
    <glyph glyph-name="Ntilde" unicode="&#xd1;" horiz-adv-x="1113" 
d="M663 749q-36 0 -95 21t-77 21q-38 0 -49 -37h-70q10 52 37.5 75t76.5 23q35 0 94 -21.5t77 -21.5q38 0 51 38h72q-18 -98 -117 -98zM1017 700v-700h-180l-617 594h-7v-594h-118v700h181l617 -595h6v595h118z" />
    <glyph glyph-name="Ograve" unicode="&#xd2;" horiz-adv-x="1113" 
d="M503 860l109 -120h-113l-135 120h139zM614 -10h-116q-233 0 -332 75t-99 247v76q0 172 99 247t332 75h116q233 0 332.5 -75t99.5 -247v-76q0 -172 -99.5 -247t-332.5 -75zM523 87h66q104 0 170 13.5t103 44.5t50.5 74t13.5 111v39q0 68 -13.5 111t-50.5 74.5t-103 45
t-170 13.5h-66q-105 0 -170.5 -13.5t-102.5 -45t-50 -74t-13 -111.5v-39q0 -54 8 -91t29.5 -68t59.5 -48.5t96.5 -26.5t142.5 -9z" />
    <glyph glyph-name="Oacute" unicode="&#xd3;" horiz-adv-x="1113" 
d="M748 860l-136 -120h-112l109 120h139zM614 -10h-116q-233 0 -332 75t-99 247v76q0 172 99 247t332 75h116q233 0 332.5 -75t99.5 -247v-76q0 -172 -99.5 -247t-332.5 -75zM523 87h66q104 0 170 13.5t103 44.5t50.5 74t13.5 111v39q0 68 -13.5 111t-50.5 74.5t-103 45
t-170 13.5h-66q-105 0 -170.5 -13.5t-102.5 -45t-50 -74t-13 -111.5v-39q0 -54 8 -91t29.5 -68t59.5 -48.5t96.5 -26.5t142.5 -9z" />
    <glyph glyph-name="Ocircumflex" unicode="&#xd4;" horiz-adv-x="1113" 
d="M636 860l149 -120h-109l-120 87l-120 -87h-109l149 120h160zM614 -10h-116q-233 0 -332 75t-99 247v76q0 172 99 247t332 75h116q233 0 332.5 -75t99.5 -247v-76q0 -172 -99.5 -247t-332.5 -75zM523 87h66q104 0 170 13.5t103 44.5t50.5 74t13.5 111v39q0 68 -13.5 111
t-50.5 74.5t-103 45t-170 13.5h-66q-105 0 -170.5 -13.5t-102.5 -45t-50 -74t-13 -111.5v-39q0 -54 8 -91t29.5 -68t59.5 -48.5t96.5 -26.5t142.5 -9z" />
    <glyph glyph-name="Otilde" unicode="&#xd5;" horiz-adv-x="1113" 
d="M643 749q-36 0 -95 21t-77 21q-38 0 -49 -37h-70q10 52 37.5 75t76.5 23q35 0 94 -21.5t77 -21.5q38 0 51 38h72q-18 -98 -117 -98zM614 -10h-116q-233 0 -332 75t-99 247v76q0 172 99 247t332 75h116q233 0 332.5 -75t99.5 -247v-76q0 -172 -99.5 -247t-332.5 -75z
M523 87h66q104 0 170 13.5t103 44.5t50.5 74t13.5 111v39q0 68 -13.5 111t-50.5 74.5t-103 45t-170 13.5h-66q-105 0 -170.5 -13.5t-102.5 -45t-50 -74t-13 -111.5v-39q0 -54 8 -91t29.5 -68t59.5 -48.5t96.5 -26.5t142.5 -9z" />
    <glyph glyph-name="Odieresis" unicode="&#xd6;" horiz-adv-x="1113" 
d="M393 846h92v-87h-92v87zM627 846h92v-87h-92v87zM614 -10h-116q-233 0 -332 75t-99 247v76q0 172 99 247t332 75h116q233 0 332.5 -75t99.5 -247v-76q0 -172 -99.5 -247t-332.5 -75zM523 87h66q104 0 170 13.5t103 44.5t50.5 74t13.5 111v39q0 68 -13.5 111t-50.5 74.5
t-103 45t-170 13.5h-66q-105 0 -170.5 -13.5t-102.5 -45t-50 -74t-13 -111.5v-39q0 -54 8 -91t29.5 -68t59.5 -48.5t96.5 -26.5t142.5 -9z" />
    <glyph glyph-name="multiply" unicode="&#xd7;" horiz-adv-x="600" 
d="M247 330l-164 163l54 53l163 -163l167 167l54 -54l-167 -167l163 -163l-53 -54l-163 164l-168 -168l-54 54z" />
    <glyph glyph-name="Oslash" unicode="&#xd8;" horiz-adv-x="1113" 
d="M190 -40h-123l108 99q-108 72 -108 253v76q0 172 99 247t332 75h116q148 0 242 -30l66 60h124l-108 -99q108 -75 108 -253v-76q0 -172 -99.5 -247t-332.5 -75h-116q-148 0 -242 30zM187 369v-39q0 -72 16.5 -118.5t57.5 -74.5l504 460q-63 16 -176 16h-66
q-105 0 -170.5 -13.5t-102.5 -45t-50 -74t-13 -111.5zM523 87h66q104 0 170 13.5t103 44.5t50.5 74t13.5 111v39q0 143 -75 194l-504 -460q63 -16 176 -16z" />
    <glyph glyph-name="Ugrave" unicode="&#xd9;" horiz-adv-x="1031" 
d="M463 860l109 -120h-113l-135 120h139zM577 -10h-123q-203 0 -289.5 70t-86.5 220v420h119v-409q0 -107 63.5 -155.5t225.5 -48.5h59q162 0 225 48.5t63 155.5v409h120v-420q0 -150 -86.5 -220t-289.5 -70z" />
    <glyph glyph-name="Uacute" unicode="&#xda;" horiz-adv-x="1031" 
d="M708 860l-136 -120h-112l109 120h139zM577 -10h-123q-203 0 -289.5 70t-86.5 220v420h119v-409q0 -107 63.5 -155.5t225.5 -48.5h59q162 0 225 48.5t63 155.5v409h120v-420q0 -150 -86.5 -220t-289.5 -70z" />
    <glyph glyph-name="Ucircumflex" unicode="&#xdb;" horiz-adv-x="1031" 
d="M596 860l149 -120h-109l-120 87l-120 -87h-109l149 120h160zM577 -10h-123q-203 0 -289.5 70t-86.5 220v420h119v-409q0 -107 63.5 -155.5t225.5 -48.5h59q162 0 225 48.5t63 155.5v409h120v-420q0 -150 -86.5 -220t-289.5 -70z" />
    <glyph glyph-name="Udieresis" unicode="&#xdc;" horiz-adv-x="1031" 
d="M353 846h92v-87h-92v87zM587 846h92v-87h-92v87zM577 -10h-123q-203 0 -289.5 70t-86.5 220v420h119v-409q0 -107 63.5 -155.5t225.5 -48.5h59q162 0 225 48.5t63 155.5v409h120v-420q0 -150 -86.5 -220t-289.5 -70z" />
    <glyph glyph-name="Yacute" unicode="&#xdd;" horiz-adv-x="1000" 
d="M693 860l-136 -120h-112l109 120h139zM559 312v-312h-118v311l-420 389h153l330 -305h5l331 305h139z" />
    <glyph glyph-name="Thorn" unicode="&#xde;" horiz-adv-x="1003" 
d="M213 132v-132h-118v700h118v-131h470q149 0 215.5 -47.5t66.5 -160.5v-31q0 -100 -65 -149t-217 -49h-470zM654 471h-441v-242h442q115 0 153.5 25.5t38.5 90.5v10q0 65 -39.5 90.5t-153.5 25.5z" />
    <glyph glyph-name="germandbls" unicode="&#xdf;" horiz-adv-x="877" 
d="M179 486v-486h-109v500q0 116 74 163t216 47h88q141 0 210.5 -39t69.5 -127v-11q0 -102 -96 -122v-4q99 -5 149 -47t50 -139v-17q0 -110 -70.5 -157t-221.5 -47h-237v82h221q106 0 151 29t45 96v11q-1 43 -16.5 67t-57.5 36.5t-120 12.5h-223v82h169q77 0 111.5 24
t34.5 76v5q-1 59 -44.5 83t-137.5 24h-49q-111 0 -159 -29.5t-48 -112.5z" />
    <glyph glyph-name="agrave" unicode="&#xe0;" horiz-adv-x="767" 
d="M340 700l109 -120h-113l-135 120h139zM706 326v-326h-109v111h-4q-46 -121 -282 -121q-262 0 -262 167v7q0 144 186 150l362 12v5q0 77 -48.5 104.5t-158.5 27.5q-88 0 -133.5 -18.5t-66.5 -66.5h-114q23 84 94.5 123t216.5 39h25q154 0 224 -49.5t70 -164.5zM159 165v-4
q0 -52 45 -74t137 -22q117 0 186.5 43t69.5 124v23l-321 -11q-61 -2 -89 -20.5t-28 -58.5z" />
    <glyph glyph-name="aacute" unicode="&#xe1;" horiz-adv-x="767" 
d="M585 700l-136 -120h-112l109 120h139zM706 326v-326h-109v111h-4q-46 -121 -282 -121q-262 0 -262 167v7q0 144 186 150l362 12v5q0 77 -48.5 104.5t-158.5 27.5q-88 0 -133.5 -18.5t-66.5 -66.5h-114q23 84 94.5 123t216.5 39h25q154 0 224 -49.5t70 -164.5zM159 165v-4
q0 -52 45 -74t137 -22q117 0 186.5 43t69.5 124v23l-321 -11q-61 -2 -89 -20.5t-28 -58.5z" />
    <glyph glyph-name="acircumflex" unicode="&#xe2;" horiz-adv-x="767" 
d="M472 700l149 -120h-109l-120 87l-120 -87h-109l149 120h160zM706 326v-326h-109v111h-4q-46 -121 -282 -121q-262 0 -262 167v7q0 144 186 150l362 12v5q0 77 -48.5 104.5t-158.5 27.5q-88 0 -133.5 -18.5t-66.5 -66.5h-114q23 84 94.5 123t216.5 39h25q154 0 224 -49.5
t70 -164.5zM159 165v-4q0 -52 45 -74t137 -22q117 0 186.5 43t69.5 124v23l-321 -11q-61 -2 -89 -20.5t-28 -58.5z" />
    <glyph glyph-name="atilde" unicode="&#xe3;" horiz-adv-x="767" 
d="M479 589q-36 0 -95 21t-77 21q-38 0 -49 -37h-70q10 52 37.5 75t76.5 23q35 0 94 -21.5t77 -21.5q38 0 51 38h72q-18 -98 -117 -98zM706 326v-326h-109v111h-4q-46 -121 -282 -121q-262 0 -262 167v7q0 144 186 150l362 12v5q0 77 -48.5 104.5t-158.5 27.5
q-88 0 -133.5 -18.5t-66.5 -66.5h-114q23 84 94.5 123t216.5 39h25q154 0 224 -49.5t70 -164.5zM159 165v-4q0 -52 45 -74t137 -22q117 0 186.5 43t69.5 124v23l-321 -11q-61 -2 -89 -20.5t-28 -58.5z" />
    <glyph glyph-name="adieresis" unicode="&#xe4;" horiz-adv-x="767" 
d="M229 681h92v-87h-92v87zM463 681h92v-87h-92v87zM706 326v-326h-109v111h-4q-46 -121 -282 -121q-262 0 -262 167v7q0 144 186 150l362 12v5q0 77 -48.5 104.5t-158.5 27.5q-88 0 -133.5 -18.5t-66.5 -66.5h-114q23 84 94.5 123t216.5 39h25q154 0 224 -49.5t70 -164.5z
M159 165v-4q0 -52 45 -74t137 -22q117 0 186.5 43t69.5 124v23l-321 -11q-61 -2 -89 -20.5t-28 -58.5z" />
    <glyph glyph-name="aring" unicode="&#xe5;" horiz-adv-x="767" 
d="M392 567q-83 0 -121.5 24.5t-38.5 78.5t38.5 78.5t121.5 24.5t121 -24.5t38 -78.5t-38 -78.5t-121 -24.5zM392 617q47 0 67 12.5t20 40.5t-20 40.5t-67 12.5t-67 -12.5t-20 -40.5t20 -40.5t67 -12.5zM706 326v-326h-109v111h-4q-46 -121 -282 -121q-262 0 -262 167v7
q0 144 186 150l362 12v5q0 77 -48.5 104.5t-158.5 27.5q-88 0 -133.5 -18.5t-66.5 -66.5h-114q23 84 94.5 123t216.5 39h25q154 0 224 -49.5t70 -164.5zM159 165v-4q0 -52 45 -74t137 -22q117 0 186.5 43t69.5 124v23l-321 -11q-61 -2 -89 -20.5t-28 -58.5z" />
    <glyph glyph-name="ae" unicode="&#xe6;" horiz-adv-x="1327" 
d="M955 -10h-32q-118 0 -193.5 29.5t-107.5 98.5h-4q-65 -128 -301 -128q-268 0 -268 167v7q0 144 186 150l362 12v5q0 77 -48.5 104.5t-158.5 27.5q-88 0 -133.5 -18.5t-66.5 -66.5h-114q23 84 94.5 123t216.5 39h25q104 0 164 -21.5t83 -73.5h4q56 95 260 95h29
q165 0 247 -59t82 -192v-47h-575q0 -99 54.5 -133.5t178.5 -34.5q101 0 150 16.5t72 61.5h113q-22 -83 -99 -122.5t-220 -39.5zM939 463q-116 0 -171 -32t-61 -118h465v4q0 79 -58 112.5t-175 33.5zM159 165v-4q0 -52 45 -74t137 -22q117 0 186.5 42t69.5 123v25l-321 -11
q-61 -2 -89 -20.5t-28 -58.5z" />
    <glyph glyph-name="ccedilla" unicode="&#xe7;" horiz-adv-x="774" 
d="M622 161h113q-38 -164 -293 -171l-47 -130h-110l57 131q-148 5 -220.5 64t-72.5 185v49q0 134 80 192.5t246 58.5h40q282 0 320 -171h-113q-24 46 -76 64t-146 18q-128 0 -185 -36t-57 -135v-30q0 -99 57 -135t185 -36q94 0 146 18t76 64z" />
    <glyph glyph-name="egrave" unicode="&#xe8;" horiz-adv-x="779" 
d="M336 700l109 -120h-113l-135 120h139zM613 152h113q-23 -84 -100 -123t-220 -39h-31q-165 0 -245.5 58.5t-80.5 191.5v49q0 134 80 192.5t246 58.5h28q166 0 248 -58.5t82 -192.5v-47h-575q0 -99 54.5 -133.5t178.5 -34.5q101 0 150 16.5t72 61.5zM391 463
q-116 0 -171 -32t-61 -118h465v4q0 79 -58 112.5t-175 33.5z" />
    <glyph glyph-name="eacute" unicode="&#xe9;" horiz-adv-x="779" 
d="M582 700l-136 -120h-112l109 120h139zM613 152h113q-23 -84 -100 -123t-220 -39h-31q-165 0 -245.5 58.5t-80.5 191.5v49q0 134 80 192.5t246 58.5h28q166 0 248 -58.5t82 -192.5v-47h-575q0 -99 54.5 -133.5t178.5 -34.5q101 0 150 16.5t72 61.5zM391 463
q-116 0 -171 -32t-61 -118h465v4q0 79 -58 112.5t-175 33.5z" />
    <glyph glyph-name="ecircumflex" unicode="&#xea;" horiz-adv-x="779" 
d="M470 700l149 -120h-109l-120 87l-120 -87h-109l149 120h160zM613 152h113q-23 -84 -100 -123t-220 -39h-31q-165 0 -245.5 58.5t-80.5 191.5v49q0 134 80 192.5t246 58.5h28q166 0 248 -58.5t82 -192.5v-47h-575q0 -99 54.5 -133.5t178.5 -34.5q101 0 150 16.5t72 61.5z
M391 463q-116 0 -171 -32t-61 -118h465v4q0 79 -58 112.5t-175 33.5z" />
    <glyph glyph-name="edieresis" unicode="&#xeb;" horiz-adv-x="779" 
d="M227 681h92v-87h-92v87zM461 681h92v-87h-92v87zM613 152h113q-23 -84 -100 -123t-220 -39h-31q-165 0 -245.5 58.5t-80.5 191.5v49q0 134 80 192.5t246 58.5h28q166 0 248 -58.5t82 -192.5v-47h-575q0 -99 54.5 -133.5t178.5 -34.5q101 0 150 16.5t72 61.5zM391 463
q-116 0 -171 -32t-61 -118h465v4q0 79 -58 112.5t-175 33.5z" />
    <glyph glyph-name="igrave" unicode="&#xec;" horiz-adv-x="263" 
d="M79 700l109 -120h-113l-135 120h139zM76 530h110v-530h-110v530z" />
    <glyph glyph-name="iacute" unicode="&#xed;" horiz-adv-x="263" 
d="M324 700l-136 -120h-112l109 120h139zM76 530h110v-530h-110v530z" />
    <glyph glyph-name="icircumflex" unicode="&#xee;" horiz-adv-x="263" 
d="M211 700l149 -120h-109l-120 87l-120 -87h-109l149 120h160zM76 530h110v-530h-110v530z" />
    <glyph glyph-name="idieresis" unicode="&#xef;" horiz-adv-x="263" 
d="M-32 681h92v-87h-92v87zM202 681h92v-87h-92v87zM76 530h110v-530h-110v530z" />
    <glyph glyph-name="eth" unicode="&#xf0;" horiz-adv-x="799" 
d="M429 -10h-59q-153 0 -236 55q-83 56 -83 187v23q0 123 76 180t231 57q125 0 192 -43l2 3q-29 48 -103 113l-284 -32v69l210 24q-57 44 -114 74h170q38 -22 84 -58l190 21v-69l-122 -14q76 -77 120.5 -162.5t44.5 -163.5v-22q0 -128 -80 -185t-239 -57zM400 79
q121 0 180 33t59 126v12q0 41 -11.5 70.5t-30.5 46.5t-51 27t-65.5 13t-80.5 3q-122 0 -181 -33t-59 -127v-12q0 -93 59 -126t181 -33z" />
    <glyph glyph-name="ntilde" unicode="&#xf1;" horiz-adv-x="748" 
d="M474 589q-35 0 -94.5 21t-77.5 21q-38 0 -49 -37h-70q10 52 37.5 75t76.5 23q35 0 94 -21.5t77 -21.5q40 0 51 38h72q-18 -98 -117 -98zM686 328v-328h-109v309q0 82 -49 112t-133 30q-103 0 -159 -39t-56 -129v-283h-109v530h109v-100h6q52 110 240 110
q121 0 190.5 -47.5t69.5 -164.5z" />
    <glyph glyph-name="ograve" unicode="&#xf2;" horiz-adv-x="812" 
d="M353 700l109 -120h-113l-135 120h139zM436 -10h-60q-164 0 -245.5 59t-81.5 191v49q0 134 81 192.5t246 58.5h60q165 0 246.5 -58.5t81.5 -192.5v-49q0 -132 -81.5 -191t-246.5 -59zM406 79q132 0 190.5 36t58.5 135v30q0 99 -58.5 135t-190.5 36t-190 -36t-58 -135v-30
q0 -99 58 -135t190 -36z" />
    <glyph glyph-name="oacute" unicode="&#xf3;" horiz-adv-x="812" 
d="M599 700l-136 -120h-112l109 120h139zM436 -10h-60q-164 0 -245.5 59t-81.5 191v49q0 134 81 192.5t246 58.5h60q165 0 246.5 -58.5t81.5 -192.5v-49q0 -132 -81.5 -191t-246.5 -59zM406 79q132 0 190.5 36t58.5 135v30q0 99 -58.5 135t-190.5 36t-190 -36t-58 -135v-30
q0 -99 58 -135t190 -36z" />
    <glyph glyph-name="ocircumflex" unicode="&#xf4;" horiz-adv-x="812" 
d="M486 700l149 -120h-109l-120 87l-120 -87h-109l149 120h160zM436 -10h-60q-164 0 -245.5 59t-81.5 191v49q0 134 81 192.5t246 58.5h60q165 0 246.5 -58.5t81.5 -192.5v-49q0 -132 -81.5 -191t-246.5 -59zM406 79q132 0 190.5 36t58.5 135v30q0 99 -58.5 135t-190.5 36
t-190 -36t-58 -135v-30q0 -99 58 -135t190 -36z" />
    <glyph glyph-name="otilde" unicode="&#xf5;" horiz-adv-x="812" 
d="M493 589q-36 0 -95 21t-77 21q-38 0 -49 -37h-70q10 52 37.5 75t76.5 23q35 0 94 -21.5t77 -21.5q38 0 51 38h72q-18 -98 -117 -98zM436 -10h-60q-164 0 -245.5 59t-81.5 191v49q0 134 81 192.5t246 58.5h60q165 0 246.5 -58.5t81.5 -192.5v-49q0 -132 -81.5 -191
t-246.5 -59zM406 79q132 0 190.5 36t58.5 135v30q0 99 -58.5 135t-190.5 36t-190 -36t-58 -135v-30q0 -99 58 -135t190 -36z" />
    <glyph glyph-name="odieresis" unicode="&#xf6;" horiz-adv-x="812" 
d="M243 681h92v-87h-92v87zM477 681h92v-87h-92v87zM436 -10h-60q-164 0 -245.5 59t-81.5 191v49q0 134 81 192.5t246 58.5h60q165 0 246.5 -58.5t81.5 -192.5v-49q0 -132 -81.5 -191t-246.5 -59zM406 79q132 0 190.5 36t58.5 135v30q0 99 -58.5 135t-190.5 36t-190 -36
t-58 -135v-30q0 -99 58 -135t190 -36z" />
    <glyph glyph-name="divide" unicode="&#xf7;" horiz-adv-x="600" 
d="M338 577v-87h-76v87h76zM499 367v-75h-398v75h398zM338 167v-87h-76v87h76z" />
    <glyph glyph-name="oslash" unicode="&#xf8;" horiz-adv-x="812" 
d="M158 -40h-109l86 85q-86 60 -86 195v49q0 134 81 192.5t246 58.5h60q103 0 172 -22l46 46h109l-82 -82q83 -60 83 -193v-49q0 -132 -81.5 -191t-246.5 -59h-60q-101 0 -167 21zM158 280v-30q0 -91 52 -130l321 321q-50 10 -125 10q-132 0 -190 -36t-58 -135zM406 79
q132 0 190.5 36t58.5 135v30q0 88 -49 128l-320 -320q51 -9 120 -9z" />
    <glyph glyph-name="ugrave" unicode="&#xf9;" horiz-adv-x="748" 
d="M316 700l109 -120h-113l-135 120h139zM62 202v328h109v-309q0 -82 49 -112t133 -30q103 0 159 39t56 129v283h109v-530h-109v100h-6q-52 -110 -240 -110q-57 0 -101.5 10t-81.5 33t-57 65.5t-20 103.5z" />
    <glyph glyph-name="uacute" unicode="&#xfa;" horiz-adv-x="748" 
d="M561 700l-136 -120h-112l109 120h139zM62 202v328h109v-309q0 -82 49 -112t133 -30q103 0 159 39t56 129v283h109v-530h-109v100h-6q-52 -110 -240 -110q-57 0 -101.5 10t-81.5 33t-57 65.5t-20 103.5z" />
    <glyph glyph-name="ucircumflex" unicode="&#xfb;" horiz-adv-x="748" 
d="M449 700l149 -120h-109l-120 87l-120 -87h-109l149 120h160zM62 202v328h109v-309q0 -82 49 -112t133 -30q103 0 159 39t56 129v283h109v-530h-109v100h-6q-52 -110 -240 -110q-57 0 -101.5 10t-81.5 33t-57 65.5t-20 103.5z" />
    <glyph glyph-name="udieresis" unicode="&#xfc;" horiz-adv-x="748" 
d="M206 681h92v-87h-92v87zM440 681h92v-87h-92v87zM62 202v328h109v-309q0 -82 49 -112t133 -30q103 0 159 39t56 129v283h109v-530h-109v100h-6q-52 -110 -240 -110q-57 0 -101.5 10t-81.5 33t-57 65.5t-20 103.5z" />
    <glyph glyph-name="yacute" unicode="&#xfd;" horiz-adv-x="703" 
d="M547 700l-136 -120h-112l109 120h139zM705 530l-393 -700h-116l103 172l-301 528h119l239 -419h5l229 419h115z" />
    <glyph glyph-name="thorn" unicode="&#xfe;" horiz-adv-x="835" 
d="M180 100v-270h-109v870h109v-270h4q51 110 263 110h33q151 0 228.5 -59t77.5 -191v-49q0 -137 -80 -194t-226 -57h-33q-212 0 -263 110h-4zM428 79q132 0 190.5 36t58.5 135v30q0 99 -58.5 135t-190.5 36q-131 0 -189.5 -34.5t-58.5 -127.5v-39q0 -99 58.5 -135
t189.5 -36z" />
    <glyph glyph-name="ydieresis" unicode="&#xff;" horiz-adv-x="703" 
d="M192 681h92v-87h-92v87zM426 681h92v-87h-92v87zM705 530l-393 -700h-116l103 172l-301 528h119l239 -419h5l229 419h115z" />
    <glyph glyph-name="Amacron" unicode="&#x100;" horiz-adv-x="1088" 
d="M736 830v-56h-384v56h384zM635 700l432 -700h-133l-121 194h-537l-121 -194h-134l432 700h182zM548 625h-6l-207 -333h419z" />
    <glyph glyph-name="amacron" unicode="&#x101;" horiz-adv-x="767" 
d="M584 666v-56h-384v56h384zM706 326v-326h-109v111h-4q-46 -121 -282 -121q-262 0 -262 167v7q0 144 186 150l362 12v5q0 77 -48.5 104.5t-158.5 27.5q-88 0 -133.5 -18.5t-66.5 -66.5h-114q23 84 94.5 123t216.5 39h25q154 0 224 -49.5t70 -164.5zM159 165v-4
q0 -52 45 -74t137 -22q117 0 186.5 43t69.5 124v23l-321 -11q-61 -2 -89 -20.5t-28 -58.5z" />
    <glyph glyph-name="Abreve" unicode="&#x102;" horiz-adv-x="1088" 
d="M544 732q-103 0 -150.5 31t-51.5 97h87q1 -69 115 -69q112 0 115 69h87q-4 -66 -52 -97t-150 -31zM635 700l432 -700h-133l-121 194h-537l-121 -194h-134l432 700h182zM548 625h-6l-207 -333h419z" />
    <glyph glyph-name="abreve" unicode="&#x103;" horiz-adv-x="767" 
d="M392 572q-102 0 -150 31.5t-52 96.5h87q1 -69 115 -69q112 0 115 69h87q-4 -65 -52.5 -96.5t-149.5 -31.5zM706 326v-326h-109v111h-4q-46 -121 -282 -121q-262 0 -262 167v7q0 144 186 150l362 12v5q0 77 -48.5 104.5t-158.5 27.5q-88 0 -133.5 -18.5t-66.5 -66.5h-114
q23 84 94.5 123t216.5 39h25q154 0 224 -49.5t70 -164.5zM159 165v-4q0 -52 45 -74t137 -22q117 0 186.5 43t69.5 124v23l-321 -11q-61 -2 -89 -20.5t-28 -58.5z" />
    <glyph glyph-name="Aogonek" unicode="&#x104;" horiz-adv-x="1088" 
d="M1027 -85v-55h-91q-60 0 -88 16.5t-28 52.5q0 31 19.5 50.5t82.5 39.5l-109 175h-537l-121 -194h-134l432 700h182l432 -700h-40q-68 -17 -86.5 -28t-18.5 -30q0 -15 10 -21t36 -6h59zM548 625h-6l-207 -333h419z" />
    <glyph glyph-name="aogonek" unicode="&#x105;" horiz-adv-x="767" 
d="M706 -85v-55h-91q-60 0 -88 16.5t-28 52.5q0 32 18.5 51t79.5 37v94h-4q-46 -121 -282 -121q-262 0 -262 167v7q0 144 186 150l362 12v5q0 77 -48.5 104.5t-158.5 27.5q-88 0 -133.5 -18.5t-66.5 -66.5h-114q23 84 94.5 123t216.5 39h25q154 0 224 -49.5t70 -164.5v-326
q-69 -17 -87 -28t-18 -30q0 -15 10 -21t36 -6h59zM159 165v-4q0 -52 45 -74t137 -22q117 0 186.5 43t69.5 124v23l-321 -11q-61 -2 -89 -20.5t-28 -58.5z" />
    <glyph glyph-name="Cacute" unicode="&#x106;" horiz-adv-x="1085" 
d="M742 860l-136 -120h-112l109 120h139zM606 -10h-114q-230 0 -327.5 75t-97.5 247v76q0 172 97.5 247t327.5 75h114q196 0 294 -52.5t122 -176.5h-123q-22 70 -92 101t-226 31h-63q-82 0 -139.5 -9t-95 -26.5t-58.5 -48t-29.5 -68t-8.5 -92.5v-39q0 -91 25.5 -141t98 -76
t207.5 -26h63q156 0 226 31t92 101h123q-24 -124 -122 -176.5t-294 -52.5z" />
    <glyph glyph-name="cacute" unicode="&#x107;" horiz-adv-x="774" 
d="M560 700l-136 -120h-112l109 120h139zM415 -10h-40q-165 0 -245.5 58.5t-80.5 191.5v49q0 134 80 192.5t246 58.5h40q282 0 320 -171h-113q-24 46 -76 64t-146 18q-128 0 -185 -36t-57 -135v-30q0 -99 57 -135t185 -36q94 0 146 18t76 64h113q-38 -171 -320 -171z" />
    <glyph glyph-name="Ccircumflex" unicode="&#x108;" horiz-adv-x="1085" 
d="M629 860l149 -120h-109l-120 87l-120 -87h-109l149 120h160zM606 -10h-114q-230 0 -327.5 75t-97.5 247v76q0 172 97.5 247t327.5 75h114q196 0 294 -52.5t122 -176.5h-123q-22 70 -92 101t-226 31h-63q-82 0 -139.5 -9t-95 -26.5t-58.5 -48t-29.5 -68t-8.5 -92.5v-39
q0 -91 25.5 -141t98 -76t207.5 -26h63q156 0 226 31t92 101h123q-24 -124 -122 -176.5t-294 -52.5z" />
    <glyph glyph-name="ccircumflex" unicode="&#x109;" horiz-adv-x="774" 
d="M472 700l149 -120h-109l-120 87l-120 -87h-109l149 120h160zM415 -10h-40q-165 0 -245.5 58.5t-80.5 191.5v49q0 134 80 192.5t246 58.5h40q282 0 320 -171h-113q-24 46 -76 64t-146 18q-128 0 -185 -36t-57 -135v-30q0 -99 57 -135t185 -36q94 0 146 18t76 64h113
q-38 -171 -320 -171z" />
    <glyph glyph-name="Cdotaccent" unicode="&#x10a;" horiz-adv-x="1085" 
d="M495 846h109v-87h-109v87zM606 -10h-114q-230 0 -327.5 75t-97.5 247v76q0 172 97.5 247t327.5 75h114q196 0 294 -52.5t122 -176.5h-123q-22 70 -92 101t-226 31h-63q-82 0 -139.5 -9t-95 -26.5t-58.5 -48t-29.5 -68t-8.5 -92.5v-39q0 -91 25.5 -141t98 -76t207.5 -26
h63q156 0 226 31t92 101h123q-24 -124 -122 -176.5t-294 -52.5z" />
    <glyph glyph-name="cdotaccent" unicode="&#x10b;" horiz-adv-x="774" 
d="M338 681h109v-87h-109v87zM415 -10h-40q-165 0 -245.5 58.5t-80.5 191.5v49q0 134 80 192.5t246 58.5h40q282 0 320 -171h-113q-24 46 -76 64t-146 18q-128 0 -185 -36t-57 -135v-30q0 -99 57 -135t185 -36q94 0 146 18t76 64h113q-38 -171 -320 -171z" />
    <glyph glyph-name="Ccaron" unicode="&#x10c;" horiz-adv-x="1085" 
d="M549 773l120 87h109l-149 -120h-160l-149 120h109zM606 -10h-114q-230 0 -327.5 75t-97.5 247v76q0 172 97.5 247t327.5 75h114q196 0 294 -52.5t122 -176.5h-123q-22 70 -92 101t-226 31h-63q-82 0 -139.5 -9t-95 -26.5t-58.5 -48t-29.5 -68t-8.5 -92.5v-39
q0 -91 25.5 -141t98 -76t207.5 -26h63q156 0 226 31t92 101h123q-24 -124 -122 -176.5t-294 -52.5z" />
    <glyph glyph-name="ccaron" unicode="&#x10d;" horiz-adv-x="774" 
d="M392 613l120 87h109l-149 -120h-160l-149 120h109zM415 -10h-40q-165 0 -245.5 58.5t-80.5 191.5v49q0 134 80 192.5t246 58.5h40q282 0 320 -171h-113q-24 46 -76 64t-146 18q-128 0 -185 -36t-57 -135v-30q0 -99 57 -135t185 -36q94 0 146 18t76 64h113
q-38 -171 -320 -171z" />
    <glyph glyph-name="Dcaron" unicode="&#x10e;" horiz-adv-x="1079" 
d="M534 773l120 87h109l-149 -120h-160l-149 120h109zM1012 378v-56q0 -173 -94.5 -247.5t-324.5 -74.5h-498v700h494q231 0 327 -74.5t96 -247.5zM552 603h-339v-506h339q140 0 214 26t100 76t26 141v19q0 69 -13.5 112t-51 74.5t-103.5 44.5t-172 13z" />
    <glyph glyph-name="dcaron" unicode="&#x10f;" horiz-adv-x="985" 
d="M764 700v-700h-109v100h-4q-51 -110 -263 -110h-34q-151 0 -228 59t-77 191v49q0 137 79 194t226 57h34q212 0 263 -110h4v270h109zM1002 700l-59 -206h-88l34 206h113zM407 79q131 0 189.5 34.5t58.5 127.5v39q0 99 -58 135t-190 36t-190.5 -36t-58.5 -135v-30
q0 -99 58.5 -135t190.5 -36z" />
    <glyph glyph-name="Dcroat" unicode="&#x110;" horiz-adv-x="1079" 
d="M95 310h-95v80h95v310h494q231 0 327 -74.5t96 -247.5v-56q0 -173 -94.5 -247.5t-324.5 -74.5h-498v310zM525 390v-80h-312v-213h339q140 0 214 26t100 76t26 141v19q0 69 -13.5 112t-51 74.5t-103.5 44.5t-172 13h-339v-213h312z" />
    <glyph glyph-name="dslash" unicode="&#x111;" horiz-adv-x="835" 
d="M655 573h-236v76h236v51h109v-51h66v-76h-66v-573h-109v100h-4q-51 -110 -263 -110h-34q-151 0 -228 59t-77 191v49q0 137 79 194t226 57h34q212 0 263 -110h4v143zM407 79q131 0 189.5 34.5t58.5 127.5v39q0 99 -58 135t-190 36t-190.5 -36t-58.5 -135v-30
q0 -99 58.5 -135t190.5 -36z" />
    <glyph glyph-name="Emacron" unicode="&#x112;" horiz-adv-x="953" 
d="M677 830v-56h-384v56h384zM876 97v-97h-781v700h781v-97h-663v-204h663v-97h-663v-205h663z" />
    <glyph glyph-name="emacron" unicode="&#x113;" horiz-adv-x="779" 
d="M582 666v-56h-384v56h384zM613 152h113q-23 -84 -100 -123t-220 -39h-31q-165 0 -245.5 58.5t-80.5 191.5v49q0 134 80 192.5t246 58.5h28q166 0 248 -58.5t82 -192.5v-47h-575q0 -99 54.5 -133.5t178.5 -34.5q101 0 150 16.5t72 61.5zM391 463q-116 0 -171 -32t-61 -118
h465v4q0 79 -58 112.5t-175 33.5z" />
    <glyph glyph-name="Ebreve" unicode="&#x114;" horiz-adv-x="953" 
d="M485 732q-101 0 -149 31t-53 97h87q2 -69 115 -69q112 0 115 69h87q-5 -66 -53 -97t-149 -31zM876 97v-97h-781v700h781v-97h-663v-204h663v-97h-663v-205h663z" />
    <glyph glyph-name="ebreve" unicode="&#x115;" horiz-adv-x="779" 
d="M390 572q-102 0 -150 31.5t-52 96.5h87q1 -69 115 -69q112 0 115 69h87q-4 -65 -52.5 -96.5t-149.5 -31.5zM613 152h113q-23 -84 -100 -123t-220 -39h-31q-165 0 -245.5 58.5t-80.5 191.5v49q0 134 80 192.5t246 58.5h28q166 0 248 -58.5t82 -192.5v-47h-575
q0 -99 54.5 -133.5t178.5 -34.5q101 0 150 16.5t72 61.5zM391 463q-116 0 -171 -32t-61 -118h465v4q0 79 -58 112.5t-175 33.5z" />
    <glyph glyph-name="Edotaccent" unicode="&#x116;" horiz-adv-x="953" 
d="M431 846h109v-87h-109v87zM876 97v-97h-781v700h781v-97h-663v-204h663v-97h-663v-205h663z" />
    <glyph glyph-name="edotaccent" unicode="&#x117;" horiz-adv-x="779" 
d="M335 681h109v-87h-109v87zM613 152h113q-23 -84 -100 -123t-220 -39h-31q-165 0 -245.5 58.5t-80.5 191.5v49q0 134 80 192.5t246 58.5h28q166 0 248 -58.5t82 -192.5v-47h-575q0 -99 54.5 -133.5t178.5 -34.5q101 0 150 16.5t72 61.5zM391 463q-116 0 -171 -32t-61 -118
h465v4q0 79 -58 112.5t-175 33.5z" />
    <glyph glyph-name="Eogonek" unicode="&#x118;" horiz-adv-x="953" 
d="M876 -85v-55h-91q-60 0 -88 16.5t-28 52.5q0 25 10 40.5t42 30.5h-626v700h781v-97h-663v-204h663v-97h-663v-205h663v-97q-69 -17 -87 -28t-18 -30q0 -15 10 -21t36 -6h59z" />
    <glyph glyph-name="eogonek" unicode="&#x119;" horiz-adv-x="779" 
d="M645 -85v-55h-108q-98 0 -98 66q0 41 34 63v4q-44 -4 -92 -4q-173 0 -252.5 60.5t-79.5 190.5v49q0 134 80 192.5t246 58.5h28q166 0 248 -58.5t82 -192.5v-47h-575q0 -99 54.5 -133.5t178.5 -34.5q101 0 150 16.5t72 61.5h113q-12 -45 -39 -75.5t-81 -59.5
q-37 -19 -51.5 -34t-14.5 -35q0 -18 10 -25.5t36 -7.5h59zM391 463q-116 0 -171 -32t-61 -118h465v4q0 79 -58 112.5t-175 33.5z" />
    <glyph glyph-name="Ecaron" unicode="&#x11a;" horiz-adv-x="953" 
d="M485 773l120 87h109l-149 -120h-160l-149 120h109zM876 97v-97h-781v700h781v-97h-663v-204h663v-97h-663v-205h663z" />
    <glyph glyph-name="ecaron" unicode="&#x11b;" horiz-adv-x="779" 
d="M390 613l120 87h109l-149 -120h-160l-149 120h109zM613 152h113q-23 -84 -100 -123t-220 -39h-31q-165 0 -245.5 58.5t-80.5 191.5v49q0 134 80 192.5t246 58.5h28q166 0 248 -58.5t82 -192.5v-47h-575q0 -99 54.5 -133.5t178.5 -34.5q101 0 150 16.5t72 61.5zM391 463
q-116 0 -171 -32t-61 -118h465v4q0 79 -58 112.5t-175 33.5z" />
    <glyph glyph-name="Gcircumflex" unicode="&#x11c;" horiz-adv-x="1110" 
d="M636 860l149 -120h-109l-120 87l-120 -87h-109l149 120h160zM614 -10h-116q-233 0 -332 74.5t-99 243.5v84q0 169 99 243.5t332 74.5h116q191 0 291.5 -51t128.5 -163h-131q-22 64 -94.5 90.5t-220.5 26.5h-64q-138 0 -211.5 -25.5t-99.5 -74.5t-26 -140v-46
q0 -68 13.5 -110t50.5 -73t102.5 -43.5t170.5 -12.5h64q128 0 201 21.5t103 64.5t31 117h-395v97h515v-92q0 -158 -102 -232q-101 -74 -327 -74z" />
    <glyph glyph-name="gcircumflex" unicode="&#x11d;" horiz-adv-x="828" 
d="M483 700l149 -120h-109l-120 87l-120 -87h-109l149 120h160zM436 -170h-50q-122 0 -202 32.5t-115 113.5h125q26 -39 75.5 -53.5t136.5 -14.5q126 0 183 33.5t57 123.5v77h-4q-27 -56 -85.5 -82t-167.5 -26h-14q-147 0 -226.5 55t-79.5 181v35q0 126 79.5 180.5
t226.5 54.5h14q109 -1 167.5 -26.5t85.5 -80.5h4v97h110v-477q0 -121 -81.5 -172t-238.5 -51zM413 118q46 0 78 3t63 13t50 27t30.5 46.5t11.5 70.5v18q0 50 -16 82t-49.5 48.5t-72 22.5t-95.5 6q-58 0 -97 -6t-72.5 -22.5t-49.5 -48.5t-16 -82v-18q0 -95 58.5 -127.5
t176.5 -32.5z" />
    <glyph glyph-name="Gbreve" unicode="&#x11e;" horiz-adv-x="1110" 
d="M556 732q-103 0 -150.5 31t-51.5 97h87q1 -69 115 -69q112 0 115 69h87q-4 -66 -52 -97t-150 -31zM614 -10h-116q-233 0 -332 74.5t-99 243.5v84q0 169 99 243.5t332 74.5h116q191 0 291.5 -51t128.5 -163h-131q-22 64 -94.5 90.5t-220.5 26.5h-64q-138 0 -211.5 -25.5
t-99.5 -74.5t-26 -140v-46q0 -68 13.5 -110t50.5 -73t102.5 -43.5t170.5 -12.5h64q128 0 201 21.5t103 64.5t31 117h-395v97h515v-92q0 -158 -102 -232q-101 -74 -327 -74z" />
    <glyph glyph-name="gbreve" unicode="&#x11f;" horiz-adv-x="828" 
d="M403 572q-101 0 -149 31.5t-53 96.5h87q2 -69 115 -69q112 0 115 69h87q-5 -65 -53 -96.5t-149 -31.5zM436 -170h-50q-122 0 -202 32.5t-115 113.5h125q26 -39 75.5 -53.5t136.5 -14.5q126 0 183 33.5t57 123.5v77h-4q-27 -56 -85.5 -82t-167.5 -26h-14q-147 0 -226.5 55
t-79.5 181v35q0 126 79.5 180.5t226.5 54.5h14q109 -1 167.5 -26.5t85.5 -80.5h4v97h110v-477q0 -121 -81.5 -172t-238.5 -51zM413 118q46 0 78 3t63 13t50 27t30.5 46.5t11.5 70.5v18q0 50 -16 82t-49.5 48.5t-72 22.5t-95.5 6q-58 0 -97 -6t-72.5 -22.5t-49.5 -48.5
t-16 -82v-18q0 -95 58.5 -127.5t176.5 -32.5z" />
    <glyph glyph-name="Gdotaccent" unicode="&#x120;" horiz-adv-x="1110" 
d="M502 846h109v-87h-109v87zM614 -10h-116q-233 0 -332 74.5t-99 243.5v84q0 169 99 243.5t332 74.5h116q191 0 291.5 -51t128.5 -163h-131q-22 64 -94.5 90.5t-220.5 26.5h-64q-138 0 -211.5 -25.5t-99.5 -74.5t-26 -140v-46q0 -68 13.5 -110t50.5 -73t102.5 -43.5
t170.5 -12.5h64q128 0 201 21.5t103 64.5t31 117h-395v97h515v-92q0 -158 -102 -232q-101 -74 -327 -74z" />
    <glyph glyph-name="gdotaccent" unicode="&#x121;" horiz-adv-x="828" 
d="M349 681h109v-87h-109v87zM436 -170h-50q-122 0 -202 32.5t-115 113.5h125q26 -39 75.5 -53.5t136.5 -14.5q126 0 183 33.5t57 123.5v77h-4q-27 -56 -85.5 -82t-167.5 -26h-14q-147 0 -226.5 55t-79.5 181v35q0 126 79.5 180.5t226.5 54.5h14q109 -1 167.5 -26.5
t85.5 -80.5h4v97h110v-477q0 -121 -81.5 -172t-238.5 -51zM413 118q46 0 78 3t63 13t50 27t30.5 46.5t11.5 70.5v18q0 50 -16 82t-49.5 48.5t-72 22.5t-95.5 6q-58 0 -97 -6t-72.5 -22.5t-49.5 -48.5t-16 -82v-18q0 -95 58.5 -127.5t176.5 -32.5z" />
    <glyph glyph-name="Gcommaaccent" unicode="&#x122;" horiz-adv-x="1110" 
d="M614 -10h-116q-233 0 -332 74.5t-99 243.5v84q0 169 99 243.5t332 74.5h116q191 0 291.5 -51t128.5 -163h-131q-22 64 -94.5 90.5t-220.5 26.5h-64q-138 0 -211.5 -25.5t-99.5 -74.5t-26 -140v-46q0 -68 13.5 -110t50.5 -73t102.5 -43.5t170.5 -12.5h64q128 0 201 21.5
t103 64.5t31 117h-395v97h515v-92q0 -158 -102 -232q-101 -74 -327 -74zM589 -149l-18 -21h-69l50 59v7h-68v58h144v-14q0 -28 -8 -46t-31 -43z" />
    <glyph glyph-name="gcommaaccent" unicode="&#x123;" horiz-adv-x="828" 
d="M371 693l18 21h68l-50 -59v-7h68v-58h-144v14q0 28 8.5 46t31.5 43zM436 -170h-50q-122 0 -202 32.5t-115 113.5h125q26 -39 75.5 -53.5t136.5 -14.5q126 0 183 33.5t57 123.5v77h-4q-27 -56 -85.5 -82t-167.5 -26h-14q-147 0 -226.5 55t-79.5 181v35q0 126 79.5 180.5
t226.5 54.5h14q109 -1 167.5 -26.5t85.5 -80.5h4v97h110v-477q0 -121 -81.5 -172t-238.5 -51zM413 118q46 0 78 3t63 13t50 27t30.5 46.5t11.5 70.5v18q0 50 -16 82t-49.5 48.5t-72 22.5t-95.5 6q-58 0 -97 -6t-72.5 -22.5t-49.5 -48.5t-16 -82v-18q0 -95 58.5 -127.5
t176.5 -32.5z" />
    <glyph glyph-name="Hcircumflex" unicode="&#x124;" horiz-adv-x="1077" 
d="M619 860l149 -120h-109l-120 87l-120 -87h-109l149 120h160zM982 700v-700h-118v301h-651v-301h-118v700h118v-301h651v301h118z" />
    <glyph glyph-name="hcircumflex" unicode="&#x125;" horiz-adv-x="748" 
d="M206 870l149 -120h-109l-120 87l-120 -87h-109l149 120h160zM686 328v-328h-109v309q0 82 -49 112t-133 30q-103 0 -159 -39t-56 -129v-283h-109v700h109v-270h6q52 110 240 110q121 0 190.5 -47.5t69.5 -164.5z" />
    <glyph glyph-name="Hbar" unicode="&#x126;" horiz-adv-x="1077" 
d="M95 506h-95v80h95v114h118v-114h651v114h118v-114h95v-80h-95v-506h-118v301h-651v-301h-118v506zM213 506v-107h651v107h-651z" />
    <glyph glyph-name="hbar" unicode="&#x127;" horiz-adv-x="748" 
d="M71 573h-67v76h67v51h109v-51h236v-76h-236v-143h6q52 110 240 110q121 0 190.5 -47.5t69.5 -164.5v-328h-109v309q0 82 -49 112t-133 30q-103 0 -159 -39t-56 -129v-283h-109v573z" />
    <glyph glyph-name="Itilde" unicode="&#x128;" horiz-adv-x="309" 
d="M241 749q-36 0 -95 21t-77 21q-38 0 -49 -37h-70q10 52 37.5 75t76.5 23q35 0 94 -21.5t77 -21.5q38 0 51 38h72q-18 -98 -117 -98zM213 700v-700h-118v700h118z" />
    <glyph glyph-name="itilde" unicode="&#x129;" horiz-adv-x="263" 
d="M218 589q-35 0 -94.5 21t-77.5 21q-38 0 -49 -37h-70q10 52 37.5 75t76.5 23q35 0 94 -21.5t77 -21.5q40 0 51 38h72q-18 -98 -117 -98zM76 530h110v-530h-110v530z" />
    <glyph glyph-name="Imacron" unicode="&#x12a;" horiz-adv-x="309" 
d="M346 830v-56h-384v56h384zM213 700v-700h-118v700h118z" />
    <glyph glyph-name="imacron" unicode="&#x12b;" horiz-adv-x="263" 
d="M323 666v-56h-384v56h384zM76 530h110v-530h-110v530z" />
    <glyph glyph-name="Ibreve" unicode="&#x12c;" horiz-adv-x="309" 
d="M154 732q-103 0 -150.5 31t-51.5 97h87q1 -69 115 -69q112 0 115 69h87q-4 -66 -52 -97t-150 -31zM213 700v-700h-118v700h118z" />
    <glyph glyph-name="ibreve" unicode="&#x12d;" horiz-adv-x="263" 
d="M131 572q-101 0 -149 31.5t-53 96.5h87q2 -69 115 -69q112 0 115 69h87q-5 -65 -53 -96.5t-149 -31.5zM76 530h110v-530h-110v530z" />
    <glyph glyph-name="Iogonek" unicode="&#x12e;" horiz-adv-x="309" 
d="M214 -85v-55h-91q-60 0 -88 16.5t-28 52.5q0 30 16.5 48.5t71.5 36.5v686h118v-655h1v-45q-69 -17 -87 -28t-18 -30q0 -15 10 -21t36 -6h59z" />
    <glyph glyph-name="iogonek" unicode="&#x12f;" horiz-adv-x="263" 
d="M76 700h109v-87h-109v87zM186 -85v-55h-91q-60 0 -88 16.5t-28 52.5q0 32 18.5 51t78.5 37v513h109v-485h1v-45q-69 -17 -87 -28t-18 -30q0 -15 10 -21t36 -6h59z" />
    <glyph glyph-name="Idot" unicode="&#x130;" horiz-adv-x="309" 
d="M100 846h109v-87h-109v87zM213 700v-700h-118v700h118z" />
    <glyph glyph-name="dotlessi" unicode="&#x131;" horiz-adv-x="263" 
d="M76 530h110v-530h-110v530z" />
    <glyph glyph-name="IJ" unicode="&#x132;" horiz-adv-x="921" 
d="M213 700v-700h-118v700h118zM497 0h-168v97h123q154 0 214 44t60 140v419h118v-419q0 -146 -79 -213.5t-268 -67.5z" />
    <glyph glyph-name="ij" unicode="&#x133;" horiz-adv-x="540" 
d="M76 700h109v-87h-109v87zM354 700h109v-87h-109v87zM76 530h109v-530h-109v530zM354 530h109v-423q0 -107 -19.5 -158.5t-81.5 -118.5h-118q67 71 88.5 121t21.5 131v448z" />
    <glyph glyph-name="Jcircumflex" unicode="&#x134;" horiz-adv-x="612" 
d="M556 860l149 -120h-109l-120 87l-120 -87h-109l149 120h160zM188 0h-168v97h123q154 0 214 44t60 140v419h118v-419q0 -146 -79 -213.5t-268 -67.5z" />
    <glyph glyph-name="jcircumflex" unicode="&#x135;" horiz-adv-x="277" 
d="M218 700l149 -120h-109l-120 87l-120 -87h-109l149 120h160zM83 530h110v-423q0 -104 -19 -153.5t-82 -123.5h-118q66 71 87.5 120.5t21.5 131.5v448z" />
    <glyph glyph-name="Kcommaaccent" unicode="&#x136;" horiz-adv-x="1070" 
d="M213 250v-250h-118v700h118v-342h5l634 342h192l-527 -286l539 -414h-179l-464 356h-5zM540 -149l-18 -21h-69l50 59v7h-68v58h144v-14q0 -28 -8 -46t-31 -43z" />
    <glyph glyph-name="kcommaaccent" unicode="&#x137;" horiz-adv-x="792" 
d="M193 156v-156h-109v700h109v-434h4l386 264h156l-327 -224l354 -306h-156l-282 246h-4zM411 -149l-18 -21h-69l50 59v7h-68v58h144v-14q0 -28 -8 -46t-31 -43z" />
    <glyph glyph-name="Lacute" unicode="&#x139;" horiz-adv-x="860" 
d="M347 860l-136 -120h-112l109 120h139zM821 103v-103h-726v700h118v-597h608z" />
    <glyph glyph-name="lacute" unicode="&#x13a;" horiz-adv-x="263" 
d="M324 860l-136 -120h-112l109 120h139zM185 700v-700h-109v700h109z" />
    <glyph glyph-name="Lcommaaccent" unicode="&#x13b;" horiz-adv-x="860" 
d="M821 103v-103h-726v700h118v-597h608zM490 -149l-18 -21h-69l50 59v7h-68v58h144v-14q0 -28 -8 -46t-31 -43z" />
    <glyph glyph-name="lcommaaccent" unicode="&#x13c;" horiz-adv-x="263" 
d="M185 700v-700h-109v700h109zM164 -149l-18 -21h-69l50 59v7h-68v58h144v-14q0 -28 -8 -46t-31 -43z" />
    <glyph glyph-name="Lcaron" unicode="&#x13d;" horiz-adv-x="860" 
d="M649 701l-59 -206h-88l34 206h113zM821 103v-103h-726v700h118v-597h608z" />
    <glyph glyph-name="lcaron" unicode="&#x13e;" horiz-adv-x="436" 
d="M185 700v-700h-109v700h109zM424 700l-59 -206h-88l34 206h113z" />
    <glyph glyph-name="Ldot" unicode="&#x13f;" horiz-adv-x="860" 
d="M821 103v-103h-726v700h118v-597h608zM528 466h109v-87h-109v87z" />
    <glyph glyph-name="ldot" unicode="&#x140;" horiz-adv-x="503" 
d="M185 700v-700h-109v700h109zM328 316h109v-87h-109v87z" />
    <glyph glyph-name="Lslash" unicode="&#x141;" horiz-adv-x="860" 
d="M95 279l-95 -19v81l95 19v340h118v-316l335 67v-81l-335 -67v-200h608v-103h-726v279z" />
    <glyph glyph-name="lslash" unicode="&#x142;" horiz-adv-x="280" 
d="M186 395v-395h-109v319l-76 -53v79l76 53v302h109v-226l94 66v-80z" />
    <glyph glyph-name="Nacute" unicode="&#x143;" horiz-adv-x="1113" 
d="M768 860l-136 -120h-112l109 120h139zM1017 700v-700h-180l-617 594h-7v-594h-118v700h181l617 -595h6v595h118z" />
    <glyph glyph-name="nacute" unicode="&#x144;" horiz-adv-x="748" 
d="M580 700l-136 -120h-112l109 120h139zM686 328v-328h-109v309q0 82 -49 112t-133 30q-103 0 -159 -39t-56 -129v-283h-109v530h109v-100h6q52 110 240 110q121 0 190.5 -47.5t69.5 -164.5z" />
    <glyph glyph-name="Ncommaaccent" unicode="&#x145;" horiz-adv-x="1113" 
d="M1017 700v-700h-180l-617 594h-7v-594h-118v700h181l617 -595h6v595h118zM569 -149l-18 -21h-69l50 59v7h-68v58h144v-14q0 -28 -8 -46t-31 -43z" />
    <glyph glyph-name="ncommaaccent" unicode="&#x146;" horiz-adv-x="748" 
d="M686 328v-328h-109v309q0 82 -49 112t-133 30q-103 0 -159 -39t-56 -129v-283h-109v530h109v-100h6q52 110 240 110q121 0 190.5 -47.5t69.5 -164.5zM412 -149l-18 -21h-69l50 59v7h-68v58h144v-14q0 -28 -8 -46t-31 -43z" />
    <glyph glyph-name="Ncaron" unicode="&#x147;" horiz-adv-x="1113" 
d="M576 773l120 87h109l-149 -120h-160l-149 120h109zM1017 700v-700h-180l-617 594h-7v-594h-118v700h181l617 -595h6v595h118z" />
    <glyph glyph-name="ncaron" unicode="&#x148;" horiz-adv-x="748" 
d="M387 613l120 87h109l-149 -120h-160l-149 120h109zM686 328v-328h-109v309q0 82 -49 112t-133 30q-103 0 -159 -39t-56 -129v-283h-109v530h109v-100h6q52 110 240 110q121 0 190.5 -47.5t69.5 -164.5z" />
    <glyph glyph-name="Eng" unicode="&#x14a;" horiz-adv-x="1113" 
d="M671 -169h-136v97h110q165 0 202 60l-627 606h-7v-594h-118v700h181l617 -595h6v595h118v-589q0 -146 -78 -213t-268 -67z" />
    <glyph glyph-name="eng" unicode="&#x14b;" horiz-adv-x="748" 
d="M180 294v-294h-109v530h109v-97h4q48 107 236 107q125 0 195.5 -47.5t70.5 -166.5v-289q1 -110 -72.5 -158.5t-216.5 -48.5h-46v85h7q111 0 165 31t54 116v244q0 43 -14.5 73t-42.5 45t-59.5 21t-73.5 6q-99 0 -153 -34.5t-54 -122.5z" />
    <glyph glyph-name="Omacron" unicode="&#x14c;" horiz-adv-x="1113" 
d="M748 830v-56h-384v56h384zM614 -10h-116q-233 0 -332 75t-99 247v76q0 172 99 247t332 75h116q233 0 332.5 -75t99.5 -247v-76q0 -172 -99.5 -247t-332.5 -75zM523 87h66q104 0 170 13.5t103 44.5t50.5 74t13.5 111v39q0 68 -13.5 111t-50.5 74.5t-103 45t-170 13.5h-66
q-105 0 -170.5 -13.5t-102.5 -45t-50 -74t-13 -111.5v-39q0 -54 8 -91t29.5 -68t59.5 -48.5t96.5 -26.5t142.5 -9z" />
    <glyph glyph-name="omacron" unicode="&#x14d;" horiz-adv-x="812" 
d="M598 666v-56h-384v56h384zM436 -10h-60q-164 0 -245.5 59t-81.5 191v49q0 134 81 192.5t246 58.5h60q165 0 246.5 -58.5t81.5 -192.5v-49q0 -132 -81.5 -191t-246.5 -59zM406 79q132 0 190.5 36t58.5 135v30q0 99 -58.5 135t-190.5 36t-190 -36t-58 -135v-30
q0 -99 58 -135t190 -36z" />
    <glyph glyph-name="Obreve" unicode="&#x14e;" horiz-adv-x="1113" 
d="M556 732q-103 0 -150.5 31t-51.5 97h87q1 -69 115 -69q112 0 115 69h87q-4 -66 -52 -97t-150 -31zM614 -10h-116q-233 0 -332 75t-99 247v76q0 172 99 247t332 75h116q233 0 332.5 -75t99.5 -247v-76q0 -172 -99.5 -247t-332.5 -75zM523 87h66q104 0 170 13.5t103 44.5
t50.5 74t13.5 111v39q0 68 -13.5 111t-50.5 74.5t-103 45t-170 13.5h-66q-105 0 -170.5 -13.5t-102.5 -45t-50 -74t-13 -111.5v-39q0 -54 8 -91t29.5 -68t59.5 -48.5t96.5 -26.5t142.5 -9z" />
    <glyph glyph-name="obreve" unicode="&#x14f;" horiz-adv-x="812" 
d="M406 572q-102 0 -150 31.5t-52 96.5h87q1 -69 115 -69q112 0 115 69h87q-4 -65 -52.5 -96.5t-149.5 -31.5zM436 -10h-60q-164 0 -245.5 59t-81.5 191v49q0 134 81 192.5t246 58.5h60q165 0 246.5 -58.5t81.5 -192.5v-49q0 -132 -81.5 -191t-246.5 -59zM406 79
q132 0 190.5 36t58.5 135v30q0 99 -58.5 135t-190.5 36t-190 -36t-58 -135v-30q0 -99 58 -135t190 -36z" />
    <glyph glyph-name="Ohungarumlaut" unicode="&#x150;" horiz-adv-x="1113" 
d="M637 860l-136 -120h-112l109 120h139zM860 860l-136 -120h-112l109 120h139zM614 -10h-116q-233 0 -332 75t-99 247v76q0 172 99 247t332 75h116q233 0 332.5 -75t99.5 -247v-76q0 -172 -99.5 -247t-332.5 -75zM523 87h66q104 0 170 13.5t103 44.5t50.5 74t13.5 111v39
q0 68 -13.5 111t-50.5 74.5t-103 45t-170 13.5h-66q-105 0 -170.5 -13.5t-102.5 -45t-50 -74t-13 -111.5v-39q0 -54 8 -91t29.5 -68t59.5 -48.5t96.5 -26.5t142.5 -9z" />
    <glyph glyph-name="ohungarumlaut" unicode="&#x151;" horiz-adv-x="812" 
d="M487 700l-136 -120h-112l109 120h139zM710 700l-136 -120h-112l109 120h139zM436 -10h-60q-164 0 -245.5 59t-81.5 191v49q0 134 81 192.5t246 58.5h60q165 0 246.5 -58.5t81.5 -192.5v-49q0 -132 -81.5 -191t-246.5 -59zM406 79q132 0 190.5 36t58.5 135v30
q0 99 -58.5 135t-190.5 36t-190 -36t-58 -135v-30q0 -99 58 -135t190 -36z" />
    <glyph glyph-name="OE" unicode="&#x152;" horiz-adv-x="1723" 
d="M1646 97v-97h-1156q-231 0 -327 74.5t-96 247.5v56q0 173 94.5 247.5t324.5 74.5h1160v-97h-662v-204h662v-97h-662v-205h662zM527 97h338v506h-338q-140 0 -214 -26t-100 -76t-26 -141v-19q0 -69 13.5 -112t51 -74.5t103.5 -44.5t172 -13z" />
    <glyph glyph-name="oe" unicode="&#x153;" horiz-adv-x="1392" 
d="M436 -10h-60q-164 0 -245.5 59t-81.5 191v49q0 134 81 192.5t246 58.5h60q207 0 273 -106h4q63 106 275 106h29q166 0 247.5 -58.5t81.5 -192.5v-47h-575q0 -99 54.5 -133.5t178.5 -34.5q101 0 151 16.5t71 61.5h113q-23 -83 -100 -122.5t-219 -39.5h-32q-209 0 -274 106
h-4q-68 -106 -274 -106zM1004 463q-115 0 -170.5 -32t-61.5 -118h465v4q0 78 -58.5 112t-174.5 34zM406 79q132 0 190.5 36t58.5 135v30q0 99 -58.5 135t-190.5 36t-190 -36t-58 -135v-30q0 -99 58 -135t190 -36z" />
    <glyph glyph-name="Racute" unicode="&#x154;" horiz-adv-x="1045" 
d="M708 860l-136 -120h-112l109 120h139zM213 279v-279h-118v700h589q153 0 217 -42t64 -134v-29q0 -74 -35.5 -111.5t-109.5 -45.5v-4q76 -10 110.5 -43.5t34.5 -114.5v-176h-118v156q0 75 -41 99t-169 24h-424zM637 603h-424v-227h443q109 0 150 23t41 85v10
q0 64 -43.5 86.5t-166.5 22.5z" />
    <glyph glyph-name="racute" unicode="&#x155;" horiz-adv-x="494" 
d="M500 700l-136 -120h-112l109 120h139zM418 530h58v-88h-81q-100 0 -157.5 -33.5t-57.5 -119.5v-289h-109v530h109v-98h4q45 98 234 98z" />
    <glyph glyph-name="Rcommaaccent" unicode="&#x156;" horiz-adv-x="1045" 
d="M213 279v-279h-118v700h589q153 0 217 -42t64 -134v-29q0 -74 -35.5 -111.5t-109.5 -45.5v-4q76 -10 110.5 -43.5t34.5 -114.5v-176h-118v156q0 75 -41 99t-169 24h-424zM637 603h-424v-227h443q109 0 150 23t41 85v10q0 64 -43.5 86.5t-166.5 22.5zM560 -149l-18 -21
h-69l50 59v7h-68v58h144v-14q0 -28 -8 -46t-31 -43z" />
    <glyph glyph-name="rcommaaccent" unicode="&#x157;" horiz-adv-x="494" 
d="M418 530h58v-88h-81q-100 0 -157.5 -33.5t-57.5 -119.5v-289h-109v530h109v-98h4q45 98 234 98zM159 -149l-18 -21h-69l50 59v7h-68v58h144v-14q0 -28 -8 -46t-31 -43z" />
    <glyph glyph-name="Rcaron" unicode="&#x158;" horiz-adv-x="1045" 
d="M515 773l120 87h109l-149 -120h-160l-149 120h109zM213 279v-279h-118v700h589q153 0 217 -42t64 -134v-29q0 -74 -35.5 -111.5t-109.5 -45.5v-4q76 -10 110.5 -43.5t34.5 -114.5v-176h-118v156q0 75 -41 99t-169 24h-424zM637 603h-424v-227h443q109 0 150 23t41 85v10
q0 64 -43.5 86.5t-166.5 22.5z" />
    <glyph glyph-name="rcaron" unicode="&#x159;" horiz-adv-x="494" 
d="M302 613l120 87h109l-149 -120h-160l-149 120h109zM418 530h58v-88h-81q-100 0 -157.5 -33.5t-57.5 -119.5v-289h-109v530h109v-98h4q45 98 234 98z" />
    <glyph glyph-name="Sacute" unicode="&#x15a;" horiz-adv-x="1023" 
d="M707 860l-136 -120h-112l109 120h139zM531 -10h-30q-84 0 -151 8t-130 27t-104 57t-57 93h125q30 -53 114.5 -73t227.5 -20q165 0 244 27t79 95v9q0 49 -36 69t-134 23l-314 11q-147 6 -208 46.5t-61 129.5v7q0 115 99.5 163t297.5 48h28q82 0 145.5 -8t123.5 -27.5
t99.5 -58t55.5 -95.5h-125q-24 55 -104 76t-213 21q-158 0 -222.5 -26t-64.5 -85v-2q0 -50 36 -70t134 -23l314 -10q148 -6 208.5 -46.5t60.5 -129.5v-8q0 -67 -30 -112.5t-90.5 -70.5t-136 -35t-181.5 -10z" />
    <glyph glyph-name="sacute" unicode="&#x15b;" horiz-adv-x="770" 
d="M573 700l-136 -120h-112l109 120h139zM399 -10h-17q-153 0 -234 32.5t-101 113.5h117q19 -38 76 -52t153 -14q122 0 172.5 18.5t51.5 66.5v4q0 35 -31.5 48.5t-117.5 17.5l-191 7q-113 4 -161 36t-48 102v11q0 87 77 123t230 36h12q143 0 219 -35t101 -111h-118
q-34 66 -213 66q-111 0 -155 -16t-44 -60v-4q0 -36 31 -49t117 -16l191 -7q113 -4 161.5 -36.5t48.5 -102.5v-11q0 -94 -81.5 -131t-245.5 -37z" />
    <glyph glyph-name="Scircumflex" unicode="&#x15c;" horiz-adv-x="1023" 
d="M589 860l149 -120h-109l-120 87l-120 -87h-109l149 120h160zM531 -10h-30q-84 0 -151 8t-130 27t-104 57t-57 93h125q30 -53 114.5 -73t227.5 -20q165 0 244 27t79 95v9q0 49 -36 69t-134 23l-314 11q-147 6 -208 46.5t-61 129.5v7q0 115 99.5 163t297.5 48h28
q82 0 145.5 -8t123.5 -27.5t99.5 -58t55.5 -95.5h-125q-24 55 -104 76t-213 21q-158 0 -222.5 -26t-64.5 -85v-2q0 -50 36 -70t134 -23l314 -10q148 -6 208.5 -46.5t60.5 -129.5v-8q0 -67 -30 -112.5t-90.5 -70.5t-136 -35t-181.5 -10z" />
    <glyph glyph-name="scircumflex" unicode="&#x15d;" horiz-adv-x="770" 
d="M461 700l149 -120h-109l-120 87l-120 -87h-109l149 120h160zM399 -10h-17q-153 0 -234 32.5t-101 113.5h117q19 -38 76 -52t153 -14q122 0 172.5 18.5t51.5 66.5v4q0 35 -31.5 48.5t-117.5 17.5l-191 7q-113 4 -161 36t-48 102v11q0 87 77 123t230 36h12q143 0 219 -35
t101 -111h-118q-34 66 -213 66q-111 0 -155 -16t-44 -60v-4q0 -36 31 -49t117 -16l191 -7q113 -4 161.5 -36.5t48.5 -102.5v-11q0 -94 -81.5 -131t-245.5 -37z" />
    <glyph glyph-name="Scedilla" unicode="&#x15e;" horiz-adv-x="1023" 
d="M969 226v-8q0 -64 -27.5 -108.5t-83 -70t-126 -36.5t-167.5 -13l-47 -130h-110l57 130q-78 2 -140 11t-119 29t-95 56.5t-52 88.5h125q30 -53 114.5 -73t227.5 -20q165 0 244 27t79 95v9q0 49 -36 69t-134 23l-314 11q-147 6 -208 46.5t-61 129.5v7q0 115 99.5 163
t297.5 48h28q82 0 145.5 -8t123.5 -27.5t99.5 -58t55.5 -95.5h-125q-24 55 -104 76t-213 21q-158 0 -222.5 -26t-64.5 -85v-2q0 -50 36 -70t134 -23l314 -10q148 -6 208.5 -46.5t60.5 -129.5z" />
    <glyph glyph-name="scedilla" unicode="&#x15f;" horiz-adv-x="770" 
d="M726 169v-11q0 -89 -72.5 -127t-215.5 -41l-47 -130h-110l57 131q-131 4 -202 37t-89 108h117q19 -38 76 -52t153 -14q122 0 172.5 18.5t51.5 66.5v4q0 35 -31.5 48.5t-117.5 17.5l-191 7q-113 4 -161 36t-48 102v11q0 87 77 123t230 36h12q143 0 219 -35t101 -111h-118
q-34 66 -213 66q-111 0 -155 -16t-44 -60v-4q0 -36 31 -49t117 -16l191 -7q113 -4 161.5 -36.5t48.5 -102.5z" />
    <glyph glyph-name="Scaron" unicode="&#x160;" horiz-adv-x="1023" 
d="M509 773l120 87h109l-149 -120h-160l-149 120h109zM531 -10h-30q-84 0 -151 8t-130 27t-104 57t-57 93h125q30 -53 114.5 -73t227.5 -20q165 0 244 27t79 95v9q0 49 -36 69t-134 23l-314 11q-147 6 -208 46.5t-61 129.5v7q0 115 99.5 163t297.5 48h28q82 0 145.5 -8
t123.5 -27.5t99.5 -58t55.5 -95.5h-125q-24 55 -104 76t-213 21q-158 0 -222.5 -26t-64.5 -85v-2q0 -50 36 -70t134 -23l314 -10q148 -6 208.5 -46.5t60.5 -129.5v-8q0 -67 -30 -112.5t-90.5 -70.5t-136 -35t-181.5 -10z" />
    <glyph glyph-name="scaron" unicode="&#x161;" horiz-adv-x="770" 
d="M381 613l120 87h109l-149 -120h-160l-149 120h109zM399 -10h-17q-153 0 -234 32.5t-101 113.5h117q19 -38 76 -52t153 -14q122 0 172.5 18.5t51.5 66.5v4q0 35 -31.5 48.5t-117.5 17.5l-191 7q-113 4 -161 36t-48 102v11q0 87 77 123t230 36h12q143 0 219 -35t101 -111
h-118q-34 66 -213 66q-111 0 -155 -16t-44 -60v-4q0 -36 31 -49t117 -16l191 -7q113 -4 161.5 -36.5t48.5 -102.5v-11q0 -94 -81.5 -131t-245.5 -37z" />
    <glyph glyph-name="Tcaron" unicode="&#x164;" horiz-adv-x="920" 
d="M460 773l120 87h109l-149 -120h-160l-149 120h109zM519 597v-597h-118v597h-375v103h868v-103h-375z" />
    <glyph glyph-name="tcaron" unicode="&#x165;" horiz-adv-x="529" 
d="M500 794l-59 -206h-88l34 206h113zM177 446h-158v84h158v170h109v-170h205v-84h-205v-237q0 -78 34.5 -101.5t123.5 -23.5h47v-84h-79q-131 0 -183 42.5t-52 155.5v248z" />
    <glyph glyph-name="Tbar" unicode="&#x166;" horiz-adv-x="920" 
d="M401 297h-273v80h273v220h-375v103h868v-103h-375v-220h273v-80h-273v-297h-118v297z" />
    <glyph glyph-name="tbar" unicode="&#x167;" horiz-adv-x="529" 
d="M177 255h-141v75h141v116h-158v84h158v170h109v-170h205v-84h-205v-116h187v-75h-187v-46q0 -78 34.5 -101.5t123.5 -23.5h47v-84h-79q-131 0 -183 42.5t-52 155.5v57z" />
    <glyph glyph-name="Utilde" unicode="&#x168;" horiz-adv-x="1031" 
d="M603 749q-36 0 -95 21t-77 21q-38 0 -49 -37h-70q10 52 37.5 75t76.5 23q35 0 94 -21.5t77 -21.5q38 0 51 38h72q-18 -98 -117 -98zM577 -10h-123q-203 0 -289.5 70t-86.5 220v420h119v-409q0 -107 63.5 -155.5t225.5 -48.5h59q162 0 225 48.5t63 155.5v409h120v-420
q0 -150 -86.5 -220t-289.5 -70z" />
    <glyph glyph-name="utilde" unicode="&#x169;" horiz-adv-x="748" 
d="M456 589q-35 0 -94.5 21t-77.5 21q-38 0 -49 -37h-70q10 52 37.5 75t76.5 23q35 0 94 -21.5t77 -21.5q40 0 51 38h72q-18 -98 -117 -98zM62 202v328h109v-309q0 -82 49 -112t133 -30q103 0 159 39t56 129v283h109v-530h-109v100h-6q-52 -110 -240 -110q-57 0 -101.5 10
t-81.5 33t-57 65.5t-20 103.5z" />
    <glyph glyph-name="Umacron" unicode="&#x16a;" horiz-adv-x="1031" 
d="M708 830v-56h-384v56h384zM577 -10h-123q-203 0 -289.5 70t-86.5 220v420h119v-409q0 -107 63.5 -155.5t225.5 -48.5h59q162 0 225 48.5t63 155.5v409h120v-420q0 -150 -86.5 -220t-289.5 -70z" />
    <glyph glyph-name="umacron" unicode="&#x16b;" horiz-adv-x="748" 
d="M561 666v-56h-384v56h384zM62 202v328h109v-309q0 -82 49 -112t133 -30q103 0 159 39t56 129v283h109v-530h-109v100h-6q-52 -110 -240 -110q-57 0 -101.5 10t-81.5 33t-57 65.5t-20 103.5z" />
    <glyph glyph-name="Ubreve" unicode="&#x16c;" horiz-adv-x="1031" 
d="M516 732q-103 0 -150.5 31t-51.5 97h87q1 -69 115 -69q112 0 115 69h87q-4 -66 -52 -97t-150 -31zM577 -10h-123q-203 0 -289.5 70t-86.5 220v420h119v-409q0 -107 63.5 -155.5t225.5 -48.5h59q162 0 225 48.5t63 155.5v409h120v-420q0 -150 -86.5 -220t-289.5 -70z" />
    <glyph glyph-name="ubreve" unicode="&#x16d;" horiz-adv-x="748" 
d="M369 572q-101 0 -149 31.5t-53 96.5h87q2 -69 115 -69q112 0 115 69h87q-5 -65 -53 -96.5t-149 -31.5zM62 202v328h109v-309q0 -82 49 -112t133 -30q103 0 159 39t56 129v283h109v-530h-109v100h-6q-52 -110 -240 -110q-57 0 -101.5 10t-81.5 33t-57 65.5t-20 103.5z" />
    <glyph glyph-name="Uring" unicode="&#x16e;" horiz-adv-x="1031" 
d="M516 727q-83 0 -121.5 24.5t-38.5 78.5t38.5 78.5t121.5 24.5t121 -24.5t38 -78.5t-38 -78.5t-121 -24.5zM516 777q47 0 67 12.5t20 40.5t-20 40.5t-67 12.5t-67 -12.5t-20 -40.5t20 -40.5t67 -12.5zM577 -10h-123q-203 0 -289.5 70t-86.5 220v420h119v-409
q0 -107 63.5 -155.5t225.5 -48.5h59q162 0 225 48.5t63 155.5v409h120v-420q0 -150 -86.5 -220t-289.5 -70z" />
    <glyph glyph-name="uring" unicode="&#x16f;" horiz-adv-x="748" 
d="M369 567q-83 0 -121.5 24.5t-38.5 78.5t38.5 78.5t121.5 24.5t121 -24.5t38 -78.5t-38 -78.5t-121 -24.5zM369 617q47 0 67 12.5t20 40.5t-20 40.5t-67 12.5t-67 -12.5t-20 -40.5t20 -40.5t67 -12.5zM62 202v328h109v-309q0 -82 49 -112t133 -30q103 0 159 39t56 129v283
h109v-530h-109v100h-6q-52 -110 -240 -110q-57 0 -101.5 10t-81.5 33t-57 65.5t-20 103.5z" />
    <glyph glyph-name="Uhungarumlaut" unicode="&#x170;" horiz-adv-x="1031" 
d="M597 860l-136 -120h-112l109 120h139zM820 860l-136 -120h-112l109 120h139zM577 -10h-123q-203 0 -289.5 70t-86.5 220v420h119v-409q0 -107 63.5 -155.5t225.5 -48.5h59q162 0 225 48.5t63 155.5v409h120v-420q0 -150 -86.5 -220t-289.5 -70z" />
    <glyph glyph-name="uhungarumlaut" unicode="&#x171;" horiz-adv-x="748" 
d="M458 700l-136 -120h-112l109 120h139zM681 700l-136 -120h-112l109 120h139zM62 202v328h109v-309q0 -82 49 -112t133 -30q103 0 159 39t56 129v283h109v-530h-109v100h-6q-52 -110 -240 -110q-57 0 -101.5 10t-81.5 33t-57 65.5t-20 103.5z" />
    <glyph glyph-name="Uogonek" unicode="&#x172;" horiz-adv-x="1031" 
d="M632 -85v-55h-108q-50 0 -74.5 15t-24.5 52q0 41 37 60v4h-24q-192 0 -276 70t-84 219v420h119v-409q0 -107 63.5 -155.5t225.5 -48.5h59q162 0 225 48.5t63 155.5v409h120v-420q0 -146 -74.5 -210t-254.5 -82q-57 -5 -77 -15.5t-20 -30.5q0 -15 10 -21t36 -6h59z" />
    <glyph glyph-name="uogonek" unicode="&#x173;" horiz-adv-x="748" 
d="M62 202v328h109v-309q0 -82 49 -112t133 -30q103 0 159 39t56 129v283h109v-530q-68 -17 -86.5 -28t-18.5 -30q0 -15 10 -21t36 -6h59v-55h-91q-60 0 -88 16.5t-28 52.5q0 32 18.5 51t79.5 37v83h-6q-52 -110 -240 -110q-57 0 -101.5 10t-81.5 33t-57 65.5t-20 103.5z
" />
    <glyph glyph-name="Wcircumflex" unicode="&#x174;" horiz-adv-x="1470" 
d="M820 860l149 -120h-109l-120 87l-120 -87h-109l149 120h160zM1443 700l-267 -700h-154l-282 587l-280 -587h-168l-265 700h130l224 -592h6l282 592h142l283 -592h6l224 592h119z" />
    <glyph glyph-name="wcircumflex" unicode="&#x175;" horiz-adv-x="1157" 
d="M664 700l149 -120h-109l-120 87l-120 -87h-109l149 120h160zM1146 530l-205 -530h-147l-212 432l-211 -432h-156l-204 530h121l169 -434h6l212 434h131l212 -434h6l169 434h109z" />
    <glyph glyph-name="Ycircumflex" unicode="&#x176;" horiz-adv-x="1000" 
d="M581 860l149 -120h-109l-120 87l-120 -87h-109l149 120h160zM559 312v-312h-118v311l-420 389h153l330 -305h5l331 305h139z" />
    <glyph glyph-name="ycircumflex" unicode="&#x177;" horiz-adv-x="703" 
d="M435 700l149 -120h-109l-120 87l-120 -87h-109l149 120h160zM705 530l-393 -700h-116l103 172l-301 528h119l239 -419h5l229 419h115z" />
    <glyph glyph-name="Ydieresis" unicode="&#x178;" horiz-adv-x="1000" 
d="M338 846h92v-87h-92v87zM572 846h92v-87h-92v87zM559 312v-312h-118v311l-420 389h153l330 -305h5l331 305h139z" />
    <glyph glyph-name="Zacute" unicode="&#x179;" horiz-adv-x="1003" 
d="M696 860l-136 -120h-112l109 120h139zM929 97v-97h-855v86l655 517h-629v97h809v-86l-655 -517h675z" />
    <glyph glyph-name="zacute" unicode="&#x17a;" horiz-adv-x="743" 
d="M566 700l-136 -120h-112l109 120h139zM695 84v-84h-644v77l471 369h-453v84h610v-77l-472 -369h488z" />
    <glyph glyph-name="Zdotaccent" unicode="&#x17b;" horiz-adv-x="1003" 
d="M450 846h109v-87h-109v87zM929 97v-97h-855v86l655 517h-629v97h809v-86l-655 -517h675z" />
    <glyph glyph-name="zdotaccent" unicode="&#x17c;" horiz-adv-x="743" 
d="M319 681h109v-87h-109v87zM695 84v-84h-644v77l471 369h-453v84h610v-77l-472 -369h488z" />
    <glyph glyph-name="Zcaron" unicode="&#x17d;" horiz-adv-x="1003" 
d="M504 773l120 87h109l-149 -120h-160l-149 120h109zM929 97v-97h-855v86l655 517h-629v97h809v-86l-655 -517h675z" />
    <glyph glyph-name="zcaron" unicode="&#x17e;" horiz-adv-x="743" 
d="M373 613l120 87h109l-149 -120h-160l-149 120h109zM695 84v-84h-644v77l471 369h-453v84h610v-77l-472 -369h488z" />
    <glyph glyph-name="florin" unicode="&#x192;" 
d="M472 316v-421h-112v421h-326v68h326v17q0 87 25.5 147t74 92.5t106 46t133.5 13.5h219v-94h-191q-129 0 -192 -44t-63 -156v-22h446v-68h-446z" />
    <glyph glyph-name="Aringacute" unicode="&#x1fa;" horiz-adv-x="1088" 
d="M736 1080l-136 -120h-112l109 120h139zM544 727q-83 0 -121.5 24.5t-38.5 78.5t38.5 78.5t121.5 24.5t121 -24.5t38 -78.5t-38 -78.5t-121 -24.5zM544 777q47 0 67 12.5t20 40.5t-20 40.5t-67 12.5t-67 -12.5t-20 -40.5t20 -40.5t67 -12.5zM635 700l432 -700h-133
l-121 194h-537l-121 -194h-134l432 700h182zM548 625h-6l-207 -333h419z" />
    <glyph glyph-name="aringacute" unicode="&#x1fb;" horiz-adv-x="767" 
d="M585 920l-136 -120h-112l109 120h139zM392 565q-83 0 -121.5 24.5t-38.5 78.5t38.5 78.5t121.5 24.5t121 -24.5t38 -78.5t-38 -78.5t-121 -24.5zM392 615q47 0 67 12.5t20 40.5t-20 40.5t-67 12.5t-67 -12.5t-20 -40.5t20 -40.5t67 -12.5zM706 326v-326h-109v111h-4
q-46 -121 -282 -121q-262 0 -262 167v7q0 144 186 150l362 12v5q0 77 -48.5 104.5t-158.5 27.5q-88 0 -133.5 -18.5t-66.5 -66.5h-114q23 84 94.5 123t216.5 39h25q154 0 224 -49.5t70 -164.5zM159 165v-4q0 -52 45 -74t137 -22q117 0 186.5 43t69.5 124v23l-321 -11
q-61 -2 -89 -20.5t-28 -58.5z" />
    <glyph glyph-name="AEacute" unicode="&#x1fc;" horiz-adv-x="1525" 
d="M919 860l-136 -120h-112l109 120h139zM1448 97v-97h-780v194h-364l-162 -194h-141l585 700h862v-97h-662v-204h662v-97h-662v-205h662zM668 612h-14l-268 -320h282v320z" />
    <glyph glyph-name="aeacute" unicode="&#x1fd;" horiz-adv-x="1331" 
d="M843 700l-136 -120h-112l109 120h139zM955 -10h-32q-118 0 -193.5 29.5t-107.5 98.5h-4q-65 -128 -301 -128q-268 0 -268 167v7q0 144 186 150l362 12v5q0 77 -48.5 104.5t-158.5 27.5q-88 0 -133.5 -18.5t-66.5 -66.5h-114q23 84 94.5 123t216.5 39h25q104 0 164 -21.5
t83 -73.5h4q56 95 260 95h29q165 0 247 -59t82 -192v-47h-575q0 -99 54.5 -133.5t178.5 -34.5q101 0 150 16.5t72 61.5h113q-22 -83 -99 -122.5t-220 -39.5zM939 463q-116 0 -171 -32t-61 -118h465v4q0 79 -58 112.5t-175 33.5zM159 165v-4q0 -52 45 -74t137 -22
q117 0 186.5 42t69.5 123v25l-321 -11q-61 -2 -89 -20.5t-28 -58.5z" />
    <glyph glyph-name="Oslashacute" unicode="&#x1fe;" horiz-adv-x="1113" 
d="M748 860l-136 -120h-112l109 120h139zM190 -40h-123l108 99q-108 72 -108 253v76q0 172 99 247t332 75h116q148 0 242 -30l66 60h124l-108 -99q108 -75 108 -253v-76q0 -172 -99.5 -247t-332.5 -75h-116q-148 0 -242 30zM187 369v-39q0 -72 16.5 -118.5t57.5 -74.5
l504 460q-63 16 -176 16h-66q-105 0 -170.5 -13.5t-102.5 -45t-50 -74t-13 -111.5zM523 87h66q104 0 170 13.5t103 44.5t50.5 74t13.5 111v39q0 143 -75 194l-504 -460q63 -16 176 -16z" />
    <glyph glyph-name="oslashacute" unicode="&#x1ff;" horiz-adv-x="812" 
d="M599 700l-136 -120h-112l109 120h139zM158 -40h-109l86 85q-86 60 -86 195v49q0 134 81 192.5t246 58.5h60q103 0 172 -22l46 46h109l-82 -82q83 -60 83 -193v-49q0 -132 -81.5 -191t-246.5 -59h-60q-101 0 -167 21zM158 280v-30q0 -91 52 -130l321 321q-50 10 -125 10
q-132 0 -190 -36t-58 -135zM406 79q132 0 190.5 36t58.5 135v30q0 88 -49 128l-320 -320q51 -9 120 -9z" />
    <glyph glyph-name="Scommaaccent" unicode="&#x218;" horiz-adv-x="1023" 
d="M531 -10h-30q-84 0 -151 8t-130 27t-104 57t-57 93h125q30 -53 114.5 -73t227.5 -20q165 0 244 27t79 95v9q0 49 -36 69t-134 23l-314 11q-147 6 -208 46.5t-61 129.5v7q0 115 99.5 163t297.5 48h28q82 0 145.5 -8t123.5 -27.5t99.5 -58t55.5 -95.5h-125q-24 55 -104 76
t-213 21q-158 0 -222.5 -26t-64.5 -85v-2q0 -50 36 -70t134 -23l314 -10q148 -6 208.5 -46.5t60.5 -129.5v-8q0 -67 -30 -112.5t-90.5 -70.5t-136 -35t-181.5 -10zM551 -149l-18 -21h-69l50 59v7h-68v58h144v-14q0 -28 -8 -46t-31 -43z" />
    <glyph glyph-name="scommaaccent" unicode="&#x219;" horiz-adv-x="770" 
d="M399 -10h-17q-153 0 -234 32.5t-101 113.5h117q19 -38 76 -52t153 -14q122 0 172.5 18.5t51.5 66.5v4q0 35 -31.5 48.5t-117.5 17.5l-191 7q-113 4 -161 36t-48 102v11q0 87 77 123t230 36h12q143 0 219 -35t101 -111h-118q-34 66 -213 66q-111 0 -155 -16t-44 -60v-4
q0 -36 31 -49t117 -16l191 -7q113 -4 161.5 -36.5t48.5 -102.5v-11q0 -94 -81.5 -131t-245.5 -37zM425 -149l-18 -21h-69l50 59v7h-68v58h144v-14q0 -28 -8 -46t-31 -43z" />
    <glyph glyph-name="Tcommaaccent" unicode="&#x21a;" horiz-adv-x="920" 
d="M519 597v-597h-118v597h-375v103h868v-103h-375zM493 -149l-18 -21h-69l50 59v7h-68v58h144v-14q0 -28 -8 -46t-31 -43z" />
    <glyph glyph-name="tcommaaccent" unicode="&#x21b;" horiz-adv-x="529" 
d="M177 446h-158v84h158v170h109v-170h205v-84h-205v-237q0 -78 34.5 -101.5t123.5 -23.5h47v-84h-79q-131 0 -183 42.5t-52 155.5v248zM392 -149l-18 -21h-69l50 59v7h-68v58h144v-14q0 -28 -8 -46t-31 -43z" />
    <glyph glyph-name="circumflex" unicode="&#x2c6;" horiz-adv-x="500" 
d="M330 700l149 -120h-109l-120 87l-120 -87h-109l149 120h160z" />
    <glyph glyph-name="caron" unicode="&#x2c7;" horiz-adv-x="500" 
d="M250 613l120 87h109l-149 -120h-160l-149 120h109z" />
    <glyph glyph-name="breve" unicode="&#x2d8;" horiz-adv-x="500" 
d="M250 572q-102 0 -150 31.5t-52 96.5h87q1 -69 115 -69q112 0 115 69h87q-4 -65 -52.5 -96.5t-149.5 -31.5z" />
    <glyph glyph-name="dotaccent" unicode="&#x2d9;" horiz-adv-x="500" 
d="M195 681h109v-87h-109v87z" />
    <glyph glyph-name="ring" unicode="&#x2da;" horiz-adv-x="500" 
d="M250 567q-83 0 -121.5 24.5t-38.5 78.5t38.5 78.5t121.5 24.5t121 -24.5t38 -78.5t-38 -78.5t-121 -24.5zM250 617q47 0 67 12.5t20 40.5t-20 40.5t-67 12.5t-67 -12.5t-20 -40.5t20 -40.5t67 -12.5z" />
    <glyph glyph-name="ogonek" unicode="&#x2db;" horiz-adv-x="500" 
d="M339 -85v-55h-91q-60 0 -88 16.5t-28 52.5q0 27 12 43.5t58 34.5t137 38v-45q-68 -17 -86.5 -28t-18.5 -30q0 -15 10 -21t36 -6h59z" />
    <glyph glyph-name="tilde" unicode="&#x2dc;" horiz-adv-x="500" 
d="M337 589q-36 0 -95 21t-77 21q-38 0 -49 -37h-70q10 52 37.5 75t76.5 23q35 0 94 -21.5t77 -21.5q38 0 51 38h72q-18 -98 -117 -98z" />
    <glyph glyph-name="hungarumlaut" unicode="&#x2dd;" horiz-adv-x="500" 
d="M262 700l-136 -120h-112l109 120h139zM485 700l-136 -120h-112l109 120h139z" />
    <glyph glyph-name="commaaccent" unicode="&#x326;" horiz-adv-x="500" 
d="M288 -149l-18 -21h-69l50 59v7h-68v58h144v-14q0 -28 -8 -46t-31 -43z" />
    <glyph glyph-name="pi" unicode="&#x3c0;" horiz-adv-x="839" 
d="M816 85v-85h-49q-124 0 -173 43.5t-49 153.5v243h-285v-440h-110v440h-124v90h790v-90h-161v-230q0 -78 31 -101.5t112 -23.5h18z" />
    <glyph glyph-name="Wgrave" unicode="&#x1e80;" horiz-adv-x="1470" 
d="M688 860l109 -120h-113l-135 120h139zM1443 700l-267 -700h-154l-282 587l-280 -587h-168l-265 700h130l224 -592h6l282 592h142l283 -592h6l224 592h119z" />
    <glyph glyph-name="wgrave" unicode="&#x1e81;" horiz-adv-x="1157" 
d="M532 700l109 -120h-113l-135 120h139zM1146 530l-205 -530h-147l-212 432l-211 -432h-156l-204 530h121l169 -434h6l212 434h131l212 -434h6l169 434h109z" />
    <glyph glyph-name="Wacute" unicode="&#x1e82;" horiz-adv-x="1470" 
d="M933 860l-136 -120h-112l109 120h139zM1443 700l-267 -700h-154l-282 587l-280 -587h-168l-265 700h130l224 -592h6l282 592h142l283 -592h6l224 592h119z" />
    <glyph glyph-name="wacute" unicode="&#x1e83;" horiz-adv-x="1157" 
d="M777 700l-136 -120h-112l109 120h139zM1146 530l-205 -530h-147l-212 432l-211 -432h-156l-204 530h121l169 -434h6l212 434h131l212 -434h6l169 434h109z" />
    <glyph glyph-name="Wdieresis" unicode="&#x1e84;" horiz-adv-x="1470" 
d="M577 846h92v-87h-92v87zM811 846h92v-87h-92v87zM1443 700l-267 -700h-154l-282 587l-280 -587h-168l-265 700h130l224 -592h6l282 592h142l283 -592h6l224 592h119z" />
    <glyph glyph-name="wdieresis" unicode="&#x1e85;" horiz-adv-x="1157" 
d="M421 681h92v-87h-92v87zM655 681h92v-87h-92v87zM1146 530l-205 -530h-147l-212 432l-211 -432h-156l-204 530h121l169 -434h6l212 434h131l212 -434h6l169 434h109z" />
    <glyph glyph-name="Ygrave" unicode="&#x1ef2;" horiz-adv-x="1000" 
d="M448 860l109 -120h-113l-135 120h139zM559 312v-312h-118v311l-420 389h153l330 -305h5l331 305h139z" />
    <glyph glyph-name="ygrave" unicode="&#x1ef3;" horiz-adv-x="703" 
d="M302 700l109 -120h-113l-135 120h139zM705 530l-393 -700h-116l103 172l-301 528h119l239 -419h5l229 419h115z" />
    <glyph glyph-name="endash" unicode="&#x2013;" horiz-adv-x="750" 
d="M730 260h-710v65h710v-65z" />
    <glyph glyph-name="emdash" unicode="&#x2014;" horiz-adv-x="1124" 
d="M1104 260h-1084v65h1084v-65z" />
    <glyph glyph-name="quoteleft" unicode="&#x2018;" horiz-adv-x="317" 
d="M145 672l19 28h80l-88 -132v-8h75v-128h-151v76q0 43 12.5 75.5t52.5 88.5z" />
    <glyph glyph-name="quoteright" unicode="&#x2019;" horiz-adv-x="317" 
d="M172 460l-19 -28h-80l88 132v8h-75v128h151v-76q0 -42 -12.5 -73.5t-52.5 -90.5z" />
    <glyph glyph-name="quotesinglbase" unicode="&#x201a;" horiz-adv-x="317" 
d="M172 -112l-19 -28h-80l88 132v8h-75v128h151v-76q0 -42 -12.5 -73.5t-52.5 -90.5z" />
    <glyph glyph-name="quotedblleft" unicode="&#x201c;" horiz-adv-x="543" 
d="M155 672l19 28h80l-88 -132v-8h75v-128h-151v76q0 43 12.5 75.5t52.5 88.5zM361 672l19 28h80l-88 -132v-8h75v-128h-151v76q0 43 12.5 75.5t52.5 88.5z" />
    <glyph glyph-name="quotedblright" unicode="&#x201d;" horiz-adv-x="543" 
d="M182 460l-19 -28h-80l88 132v8h-75v128h151v-76q0 -42 -12.5 -73.5t-52.5 -90.5zM388 460l-19 -28h-80l88 132v8h-75v128h151v-76q0 -42 -12.5 -73.5t-52.5 -90.5z" />
    <glyph glyph-name="quotedblbase" unicode="&#x201e;" horiz-adv-x="543" 
d="M182 -112l-19 -28h-80l88 132v8h-75v128h151v-76q0 -42 -12.5 -73.5t-52.5 -90.5zM388 -112l-19 -28h-80l88 132v8h-75v128h151v-76q0 -42 -12.5 -73.5t-52.5 -90.5z" />
    <glyph glyph-name="dagger" unicode="&#x2020;" horiz-adv-x="412" 
d="M172 478h-135v52h135v170h67v-170h135v-52h-135v-578h-67v578z" />
    <glyph glyph-name="daggerdbl" unicode="&#x2021;" horiz-adv-x="412" 
d="M239 70v-170h-67v170h-135v51h135v357h-135v52h135v170h67v-170h135v-52h-135v-357h135v-51h-135z" />
    <glyph glyph-name="bullet" unicode="&#x2022;" horiz-adv-x="490" 
d="M245 187q-69 0 -118 46t-49 117t49 117t118 46t118 -46t49 -117t-49 -117t-118 -46z" />
    <glyph glyph-name="ellipsis" unicode="&#x2026;" horiz-adv-x="952" 
d="M230 0h-143v128h143v-128zM548 0h-144v128h144v-128zM865 0h-144v128h144v-128z" />
    <glyph glyph-name="perthousand" unicode="&#x2030;" horiz-adv-x="1435" 
d="M273 342h-13q-120 0 -171.5 39.5t-51.5 134.5v19q0 95 51.5 135t171.5 40h13q120 0 171.5 -40t51.5 -135v-19q0 -95 -51.5 -134.5t-171.5 -39.5zM789 700l-428 -700h-80l428 700h80zM266 418q75 0 105 22.5t30 79.5v12q0 57 -30 79t-105 22t-104.5 -22t-29.5 -79v-12
q0 -57 29.5 -79.5t104.5 -22.5zM1175 -10h-13q-136 0 -174 56h-4q-35 -56 -173 -56h-13q-120 0 -171.5 39.5t-51.5 134.5v19q0 95 51.5 135t171.5 40h13q134 0 173 -56h4q39 56 174 56h13q120 0 171 -40t51 -135v-19q0 -95 -51 -134.5t-171 -39.5zM804 66q75 0 105 22.5
t30 79.5v12q0 57 -30 79t-105 22t-105 -22t-30 -79v-12q0 -57 30 -79.5t105 -22.5zM1168 66q75 0 105 22.5t30 79.5v12q0 57 -30 79t-105 22t-105 -22t-30 -79v-12q0 -57 30 -79.5t105 -22.5z" />
    <glyph glyph-name="guilsinglleft" unicode="&#x2039;" horiz-adv-x="260" 
d="M48 289v6l84 219h78l-86 -222l86 -222h-78z" />
    <glyph glyph-name="guilsinglright" unicode="&#x203a;" horiz-adv-x="260" 
d="M212 295v-6l-84 -219h-78l86 222l-86 222h78z" />
    <glyph glyph-name="fraction" unicode="&#x2044;" horiz-adv-x="208" 
d="M358 700l-428 -700h-80l428 700h80z" />
    <glyph glyph-name="zerosuperior" unicode="&#x2070;" horiz-adv-x="547" 
d="M281 374h-14q-56 0 -95.5 8t-72.5 29.5t-49.5 62t-16.5 100.5v32q0 60 16.5 100.5t49.5 62t72.5 29.5t95.5 8h14q115 0 174 -42t59 -159v-31q0 -116 -59 -158t-174 -42zM273 448q75 0 106.5 24t31.5 109v17q0 85 -31.5 109t-106.5 24q-36 0 -58 -4t-42 -16.5t-28.5 -40
t-8.5 -72.5v-17q0 -45 8.5 -72.5t28.5 -40t42 -16.5t58 -4z" />
    <glyph glyph-name="foursuperior" unicode="&#x2074;" horiz-adv-x="547" 
d="M464 479v-99h-106v99h-327v120l274 201h159v-246h66v-75h-66zM116 559v-5h242v180h-5z" />
    <glyph glyph-name="fivesuperior" unicode="&#x2075;" horiz-adv-x="547" 
d="M298 374h-29q-101 0 -158 27.5t-74 99.5h108q9 -29 37.5 -40.5t94.5 -11.5q77 0 106.5 14t29.5 50v13q0 36 -30 50t-108 14q-104 0 -133 -35h-97l27 245h420v-76h-325l-13 -104h4q33 42 155 42q116 0 163 -32t47 -106v-8q0 -76 -55 -109t-170 -33z" />
    <glyph glyph-name="sixsuperior" unicode="&#x2076;" horiz-adv-x="547" 
d="M297 374h-30q-121 0 -177.5 42t-56.5 147v43q0 107 55 153.5t178 46.5h18q109 0 160.5 -27t70.5 -85h-111q-11 20 -39.5 28.5t-86.5 8.5q-81 0 -112 -25q-30 -24 -30 -92v-13h5q26 50 170 50q118 0 163 -30.5t45 -103.5v-5q0 -73 -55.5 -105.5t-166.5 -32.5zM276 447
q76 0 106 14.5t30 48.5v11q0 34 -30 48t-106 14q-77 0 -107 -14t-30 -48v-11q0 -34 30.5 -48.5t106.5 -14.5z" />
    <glyph glyph-name="sevensuperior" unicode="&#x2077;" horiz-adv-x="547" 
d="M520 723l-288 -343h-133l300 342v4h-374v74h495v-77z" />
    <glyph glyph-name="eightsuperior" unicode="&#x2078;" horiz-adv-x="547" 
d="M294 373h-39q-111 0 -168 27.5t-57 102.5v7q2 45 24.5 68t70.5 29v4q-78 13 -78 83v3q1 59 54 84t165 25h17q112 0 165 -25t54 -84v-3q0 -70 -78 -83v-4q49 -6 71.5 -29.5t23.5 -67.5v-7q0 -75 -57.5 -102.5t-167.5 -27.5zM233 629h83q45 0 63 11.5t18 36.5v4
q0 31 -26 42t-96 11q-71 0 -96.5 -11t-25.5 -42v-4q0 -25 17.5 -36.5t62.5 -11.5zM275 446q79 0 108.5 12.5t29.5 47.5v6q0 28 -20.5 42t-75.5 14h-85q-55 0 -75.5 -14t-20.5 -42v-6q0 -35 29.5 -47.5t109.5 -12.5z" />
    <glyph glyph-name="ninesuperior" unicode="&#x2079;" horiz-adv-x="547" 
d="M250 805h30q122 0 178 -42t56 -147v-43q0 -107 -55.5 -153.5t-177.5 -46.5h-18q-109 0 -160.5 27t-70.5 85h111q11 -20 39.5 -28.5t86.5 -8.5q82 0 111 25q31 25 31 92v13h-5q-26 -50 -170 -50q-118 0 -163 30t-45 104v5q0 73 55.5 105.5t166.5 32.5zM271 732
q-77 0 -106.5 -14t-29.5 -49v-11q0 -34 30 -48t106 -14q77 0 107 14t30 48v11q0 35 -30 49t-107 14z" />
    <glyph glyph-name="plussuperior" unicode="&#x207a;" horiz-adv-x="360" 
d="M150 559h-120v62h120v124h60v-124h120v-62h-120v-125h-60v125z" />
    <glyph glyph-name="minussuperior" unicode="&#x207b;" horiz-adv-x="360" 
d="M306 559h-252v62h252v-62z" />
    <glyph glyph-name="equalsuperior" unicode="&#x207c;" horiz-adv-x="360" 
d="M318 631h-276v62h276v-62zM318 486h-276v62h276v-62z" />
    <glyph glyph-name="parenleftsuperior" unicode="&#x207d;" horiz-adv-x="227" 
d="M200 409v-56q-154 18 -154 222v30q0 204 154 222v-56q-91 -21 -91 -168v-26q0 -147 91 -168z" />
    <glyph glyph-name="parenrightsuperior" unicode="&#x207e;" horiz-adv-x="227" 
d="M25 771v56q154 -18 154 -222v-30q0 -204 -154 -222v56q91 21 91 168v26q0 147 -91 168z" />
    <glyph glyph-name="zeroinferior" unicode="&#x2080;" horiz-adv-x="547" 
d="M281 -106h-14q-56 0 -95.5 8t-72.5 29.5t-49.5 62t-16.5 100.5v32q0 60 16.5 100.5t49.5 62t72.5 29.5t95.5 8h14q115 0 174 -42t59 -159v-31q0 -116 -59 -158t-174 -42zM273 -32q75 0 106.5 24t31.5 109v17q0 85 -31.5 109t-106.5 24q-36 0 -58 -4t-42 -16.5t-28.5 -40
t-8.5 -72.5v-17q0 -45 8.5 -72.5t28.5 -40t42 -16.5t58 -4z" />
    <glyph glyph-name="oneinferior" unicode="&#x2081;" horiz-adv-x="386" 
d="M319 320v-420h-101v343h-4l-183 -83v95l156 65h132z" />
    <glyph glyph-name="twoinferior" unicode="&#x2082;" horiz-adv-x="547" 
d="M517 -26v-74h-484v74q0 78 35.5 110t131.5 43l132 16q45 5 61 16.5t16 35.5v4q0 28 -27 39.5t-96 11.5q-63 0 -93 -10t-41 -43h-108q14 76 71.5 102.5t161.5 26.5h10q120 0 175 -28.5t55 -91.5v-9q0 -54 -32 -83t-118 -39l-161 -20q-40 -5 -54.5 -17.5t-14.5 -42.5v-21
h380z" />
    <glyph glyph-name="threeinferior" unicode="&#x2083;" horiz-adv-x="547" 
d="M295 -106h-29q-102 0 -160 27t-72 104h106q11 -33 41.5 -44.5t92.5 -11.5q77 0 106 12.5t29 45.5v6q0 24 -16.5 35t-55.5 11h-150v72h143q63 0 63 42v6q0 28 -25.5 39.5t-90.5 11.5q-57 0 -83.5 -10.5t-35.5 -40.5h-109q15 70 64.5 98.5t147.5 28.5h20q113 0 167.5 -24.5
t54.5 -80.5v-6q0 -39 -17 -59t-60 -25v-5q51 -4 72.5 -26.5t21.5 -69.5v-7q0 -70 -53.5 -99.5t-171.5 -29.5z" />
    <glyph glyph-name="fourinferior" unicode="&#x2084;" horiz-adv-x="547" 
d="M464 -1v-99h-106v99h-327v120l274 201h159v-246h66v-75h-66zM116 79v-5h242v180h-5z" />
    <glyph glyph-name="fiveinferior" unicode="&#x2085;" horiz-adv-x="547" 
d="M298 -106h-29q-101 0 -158 27.5t-74 99.5h108q9 -29 37.5 -40.5t94.5 -11.5q77 0 106.5 14t29.5 50v13q0 36 -30 50t-108 14q-104 0 -133 -35h-97l27 245h420v-76h-325l-13 -104h4q33 42 155 42q116 0 163 -32t47 -106v-8q0 -76 -55 -109t-170 -33z" />
    <glyph glyph-name="sixinferior" unicode="&#x2086;" horiz-adv-x="547" 
d="M297 -106h-30q-121 0 -177.5 42t-56.5 147v43q0 107 55 153.5t178 46.5h18q109 0 160.5 -27t70.5 -85h-111q-11 20 -39.5 28.5t-86.5 8.5q-81 0 -112 -25q-30 -24 -30 -92v-13h5q26 50 170 50q118 0 163 -30.5t45 -103.5v-5q0 -73 -55.5 -105.5t-166.5 -32.5zM276 -33
q76 0 106 14.5t30 48.5v11q0 34 -30 48t-106 14q-77 0 -107 -14t-30 -48v-11q0 -34 30.5 -48.5t106.5 -14.5z" />
    <glyph glyph-name="seveninferior" unicode="&#x2087;" horiz-adv-x="547" 
d="M520 243l-288 -343h-133l300 342v4h-374v74h495v-77z" />
    <glyph glyph-name="eightinferior" unicode="&#x2088;" horiz-adv-x="547" 
d="M294 -107h-39q-111 0 -168 27.5t-57 102.5v7q2 45 24.5 68t70.5 29v4q-78 13 -78 83v3q1 59 54 84t165 25h17q112 0 165 -25t54 -84v-3q0 -70 -78 -83v-4q49 -6 71.5 -29.5t23.5 -67.5v-7q0 -75 -57.5 -102.5t-167.5 -27.5zM233 149h83q45 0 63 11.5t18 36.5v4
q0 31 -26 42t-96 11q-71 0 -96.5 -11t-25.5 -42v-4q0 -25 17.5 -36.5t62.5 -11.5zM275 -34q79 0 108.5 12.5t29.5 47.5v6q0 28 -20.5 42t-75.5 14h-85q-55 0 -75.5 -14t-20.5 -42v-6q0 -35 29.5 -47.5t109.5 -12.5z" />
    <glyph glyph-name="nineinferior" unicode="&#x2089;" horiz-adv-x="547" 
d="M250 325h30q122 0 178 -42t56 -147v-43q0 -107 -55.5 -153.5t-177.5 -46.5h-18q-109 0 -160.5 27t-70.5 85h111q11 -20 39.5 -28.5t86.5 -8.5q82 0 111 25q31 25 31 92v13h-5q-26 -50 -170 -50q-118 0 -163 30t-45 104v5q0 73 55.5 105.5t166.5 32.5zM271 252
q-77 0 -106.5 -14t-29.5 -49v-11q0 -34 30 -48t106 -14q77 0 107 14t30 48v11q0 35 -30 49t-107 14z" />
    <glyph glyph-name="plusinferior" unicode="&#x208a;" horiz-adv-x="360" 
d="M150 141v124h60v-124h120v-62h-120v-125h-60v125h-120v62h120z" />
    <glyph glyph-name="minusinferior" unicode="&#x208b;" horiz-adv-x="360" 
d="M306 79h-252v62h252v-62z" />
    <glyph glyph-name="equalinferior" unicode="&#x208c;" horiz-adv-x="360" 
d="M318 151h-276v62h276v-62zM318 6h-276v62h276v-62z" />
    <glyph glyph-name="parenleftinferior" unicode="&#x208d;" horiz-adv-x="227" 
d="M200 -71v-56q-154 18 -154 222v30q0 204 154 222v-56q-91 -21 -91 -168v-26q0 -147 91 -168z" />
    <glyph glyph-name="parenrightinferior" unicode="&#x208e;" horiz-adv-x="227" 
d="M25 291v56q154 -18 154 -222v-30q0 -204 -154 -222v56q91 21 91 168v26q0 147 -91 168z" />
    <glyph glyph-name="Euro" unicode="&#x20ac;" 
d="M550 -10h-34q-352 0 -392 260h-117v62h112v6v64v6h-112v62h117q40 260 392 260h34q162 0 254 -42.5t130 -142.5h-120q-31 49 -93.5 70.5t-186.5 21.5q-62 0 -106 -6t-86.5 -23t-69 -51.5t-35.5 -86.5h574v-62h-579v-1v-75h579v-62h-574q9 -52 35.5 -86.5t69 -51.5t87 -23
t105.5 -6q124 0 186.5 21.5t93.5 70.5h120q-38 -100 -130 -142.5t-254 -42.5z" />
    <glyph glyph-name="litre" unicode="&#x2113;" horiz-adv-x="451" 
d="M254 -15q-151 0 -151 186l-48 -26l-29 55q62 33 77 43v226q0 122 36 181.5t123 59.5q150 0 150 -173q0 -97 -49 -167.5t-173 -147.5v-63q0 -105 80 -105q47 0 91 38l35 -52q-58 -55 -142 -55zM190 497v-201q88 60 117.5 110.5t29.5 128.5q0 107 -70 107q-35 0 -56 -30
t-21 -115z" />
    <glyph glyph-name="numero" unicode="&#x2116;" horiz-adv-x="1751" 
d="M1451 272h-49q-132 0 -198 44t-66 149v50q0 105 66 149t198 44h49q131 0 197 -44t66 -149v-50q0 -105 -66 -149t-197 -44zM1011 700v-700h-180l-617 594h-7v-594h-118v700h181l617 -595h6v595h118zM1427 350q96 0 141.5 24t45.5 98v35q0 74 -45.5 98.5t-141.5 24.5
q-97 0 -143 -24.5t-46 -98.5v-35q0 -31 9 -53.5t24 -35.5t40.5 -20.5t52 -10t63.5 -2.5z" />
    <glyph glyph-name="published" unicode="&#x2117;" horiz-adv-x="994" 
d="M557 -10h-120q-215 0 -310 75t-95 229v112q0 154 95 229t310 75h120q215 0 310 -75t95 -229v-112q0 -154 -95 -229t-310 -75zM454 25h86q115 0 191 18t117.5 57.5t58 91t16.5 127.5v62q0 76 -16.5 127.5t-58 91t-117.5 57.5t-191 18h-86q-115 0 -190.5 -18t-117.5 -57.5
t-58 -91t-16 -127.5v-62q0 -76 16 -127.5t58 -91t117.5 -57.5t190.5 -18zM362 291v-151h-100v420h343q98 0 140.5 -28t42.5 -99v-17q0 -64 -43.5 -94.5t-139.5 -30.5h-243zM585 490h-223v-129h224q61 0 81 14t20 49v4q0 34 -20.5 48t-81.5 14z" />
    <glyph glyph-name="trademark" unicode="&#x2122;" horiz-adv-x="1184" 
d="M285 630v-280h-90v280h-175v70h440v-70h-175zM1154 700v-350h-91v287h-4l-169 -287h-107l-166 287h-5v-287h-90v350h164l154 -264h5l156 264h153z" />
    <glyph glyph-name="Omega" unicode="&#x2126;" horiz-adv-x="1137" 
d="M1064 97v-97h-428v147q179 4 243.5 54t64.5 171v15q0 82 -27.5 129t-102.5 72t-211 25h-70q-136 0 -211 -25t-102.5 -72t-27.5 -129v-15q0 -120 65 -170.5t244 -54.5v-147h-429v97h252v6q-134 14 -193 73.5t-59 188.5v48q0 158 103 227.5t336 69.5h114q233 0 336 -69.5
t103 -227.5v-48q0 -129 -59 -188.5t-193 -73.5v-6h252z" />
    <glyph glyph-name="estimated" unicode="&#x212e;" horiz-adv-x="836" 
d="M425 -15q-163 0 -278.5 107t-115.5 258q0 152 115 258.5t279 106.5t279.5 -106.5t115.5 -258.5q0 -18 -1 -19h-616v-214q95 -83 222 -83q95 0 175.5 44t123.5 114h56q-49 -94 -143.5 -150.5t-211.5 -56.5zM203 588v-205h438v211q-84 71 -216 71q-69 0 -127 -21t-95 -56z
" />
    <glyph glyph-name="arrowleft" unicode="&#x2190;" horiz-adv-x="897" 
d="M174 390h690v-81h-690v-6l305 -304h-117l-346 348v4l346 348h117l-305 -303v-6z" />
    <glyph glyph-name="arrowup" unicode="&#x2191;" horiz-adv-x="896" 
d="M496 616v-691h-81v691h-6l-304 -305v116l348 346h5l347 -346v-116l-303 305h-6z" />
    <glyph glyph-name="arrowright" unicode="&#x2192;" horiz-adv-x="897" 
d="M723 309h-690v81h690v6l-305 304h117l346 -348v-4l-346 -348h-117l305 303v6z" />
    <glyph glyph-name="arrowdown" unicode="&#x2193;" horiz-adv-x="897" 
d="M415 774h81v-691h6l303 305v-116l-347 -346h-5l-348 346v116l304 -305h6v691z" />
    <glyph glyph-name="arrowupleft" unicode="&#x2196;" horiz-adv-x="896" 
d="M285 615l489 -489l-57 -57l-489 488l-5 -4l2 -431l-82 83v492l4 3h491l82 -82l-431 1z" />
    <glyph glyph-name="arrowupright" unicode="&#x2197;" horiz-adv-x="897" 
d="M180 69l-57 57l489 489l-4 4l-431 -1l82 82h491l4 -3v-492l-82 -83l2 431l-5 4z" />
    <glyph glyph-name="arrowdownright" unicode="&#x2198;" horiz-adv-x="897" 
d="M612 85l-489 489l57 57l489 -488l5 4l-2 431l82 -83v-492l-4 -3h-491l-82 82l431 -1z" />
    <glyph glyph-name="arrowdownleft" unicode="&#x2199;" horiz-adv-x="897" 
d="M717 631l57 -57l-489 -489l4 -4l431 1l-82 -82h-491l-4 3v492l82 83l-2 -431l5 -4z" />
    <glyph glyph-name="partialdiff" unicode="&#x2202;" horiz-adv-x="899" 
d="M469 -10h-37q-173 0 -265.5 51.5t-92.5 171.5v14q0 65 25 110t73 70t109 35.5t143 10.5q146 0 213 -25.5t88 -77.5h5v34q0 60 -16 102t-43.5 67.5t-73.5 39.5t-95.5 19t-121.5 5q-146 0 -243 -29v99q50 11 114 17q68 6 133 6h12q89 0 154.5 -8t123 -30t93.5 -59.5
t56.5 -96.5t20.5 -141v-82q0 -72 -18.5 -125.5t-50 -87t-80 -54t-102.5 -28.5t-124 -8zM458 81q145 0 205 29t60 99v25q0 70 -60.5 99t-204.5 29q-143 0 -206 -29q-60 -29 -60 -99v-25q0 -71 60 -99q63 -29 206 -29z" />
    <glyph glyph-name="increment" unicode="&#x2206;" horiz-adv-x="1088" 
d="M635 700l432 -700h-1046l432 700h182zM548 625h-6l-328 -528h661z" />
    <glyph glyph-name="product" unicode="&#x220f;" horiz-adv-x="1017" 
d="M922 700v-870h-118v779h-591v-779h-118v870h827z" />
    <glyph glyph-name="summation" unicode="&#x2211;" horiz-adv-x="901" 
d="M834 -79v-91h-739v100l423 325v5l-423 340v100h739v-91h-581v-4l375 -304v-88l-371 -288v-4h577z" />
    <glyph glyph-name="minus" unicode="&#x2212;" horiz-adv-x="600" 
d="M499 292h-398v75h398v-75z" />
    <glyph glyph-name="radical" unicode="&#x221a;" horiz-adv-x="544" 
d="M542 803l-223 -906h-74l-153 421l-59 -17l-22 77l136 38l128 -364h4l181 751h82z" />
    <glyph glyph-name="infinity" unicode="&#x221e;" horiz-adv-x="825" 
d="M605 140q-62 0 -106 33t-87 93q-41 -60 -85 -93t-107 -33q-83 0 -134 54t-51 135t51 135t134 54q63 0 107 -33t85 -93q43 60 87 93t106 33q84 0 134.5 -54t50.5 -135t-50.5 -135t-134.5 -54zM110 329q0 -53 33 -85.5t80 -32.5t82 35q30 31 65 83q-36 53 -65 82
q-35 36 -82 36t-80 -32.5t-33 -85.5zM602 211q47 0 80 32.5t33 85.5t-33 85.5t-80 32.5q-48 0 -83 -36q-32 -34 -65 -82q31 -46 65 -83q35 -35 83 -35z" />
    <glyph glyph-name="integral" unicode="&#x222b;" horiz-adv-x="493" 
d="M73 -170h-36v75h31q72 0 101.5 23.5t29.5 98.5v534q0 107 51 148t169 41h37v-76h-31q-72 0 -101.5 -23t-29.5 -98v-534q0 -107 -51.5 -148t-169.5 -41z" />
    <glyph glyph-name="approxequal" unicode="&#x2248;" horiz-adv-x="600" 
d="M408 371q-45 0 -113 33t-106 33q-66 0 -108 -61v81q15 21 43.5 38t67.5 17q45 0 113 -33t106 -33q66 0 108 61v-82q-38 -54 -111 -54zM408 147q-45 0 -113 33t-106 33q-66 0 -108 -61v81q15 21 43.5 38t67.5 17q45 0 113 -33t106 -33q66 0 108 61v-82q-38 -54 -111 -54z
" />
    <glyph glyph-name="notequal" unicode="&#x2260;" horiz-adv-x="600" 
d="M198 174h-117v76h148l64 158h-212v76h243l71 174h78l-71 -174h117v-76h-148l-64 -158h212v-76h-243l-71 -174h-78z" />
    <glyph glyph-name="lessequal" unicode="&#x2264;" horiz-adv-x="600" 
d="M530 279v-79l-457 168v73l457 168v-78l-343 -124v-4zM530 54h-460v75h460v-75z" />
    <glyph glyph-name="greaterequal" unicode="&#x2265;" horiz-adv-x="600" 
d="M527 368l-457 -168v79l343 124v4l-343 124v78l457 -168v-73zM530 129v-75h-460v75h460z" />
    <glyph glyph-name="lozenge" unicode="&#x25ca;" horiz-adv-x="510" 
d="M304 678l179 -349l-179 -349h-98l-179 349l179 349h98zM254 48l146 281l-146 281l-143 -281z" />
    <glyph glyph-name="germandbls.cap" horiz-adv-x="2046" 
d="M531 -10h-30q-84 0 -151 8t-130 27t-104 57t-57 93h125q30 -53 114.5 -73t227.5 -20q165 0 244 27t79 95v9q0 49 -36 69t-134 23l-314 11q-147 6 -208 46.5t-61 129.5v7q0 115 99.5 163t297.5 48h28q82 0 145.5 -8t123.5 -27.5t99.5 -58t55.5 -95.5h-125q-24 55 -104 76
t-213 21q-158 0 -222.5 -26t-64.5 -85v-2q0 -50 36 -70t134 -23l314 -10q148 -6 208.5 -46.5t60.5 -129.5v-8q0 -67 -30 -112.5t-90.5 -70.5t-136 -35t-181.5 -10zM1554 -10h-30q-84 0 -151 8t-130 27t-104 57t-57 93h125q30 -53 114.5 -73t227.5 -20q165 0 244 27t79 95v9
q0 49 -36 69t-134 23l-314 11q-148 6 -208.5 46.5t-60.5 129.5v7q0 115 99 163t298 48h28q82 0 145.5 -8t123.5 -27.5t99.5 -58t55.5 -95.5h-125q-24 55 -104 76t-213 21q-157 0 -222 -26t-65 -85v-2q0 -50 36 -70t134 -23l314 -10q147 -6 208 -46.5t61 -129.5v-8
q0 -67 -30 -112.5t-90.5 -70.5t-136 -35t-181.5 -10z" />
    <glyph glyph-name="i.TRK" horiz-adv-x="263" 
d="M76 700h110v-87h-110v87zM76 530h110v-530h-110v530z" />
    <glyph glyph-name="a.superior" horiz-adv-x="611" 
d="M566 537v-257h-100v85h-4q-40 -93 -219 -93q-208 0 -208 133v6q0 114 157 118l274 10v4q0 57 -36 77.5t-119 20.5q-67 0 -101 -13.5t-49 -49.5h-105q21 72 82 101t170 29h20q127 0 182.5 -38.5t55.5 -132.5zM136 413v-4q0 -70 135 -70q87 0 141 32.5t54 92.5v18l-242 -10
q-88 -3 -88 -59z" />
    <glyph glyph-name="b.superior" horiz-adv-x="665" 
d="M152 280h-100v554h100v-212h4q39 86 206 86h24q118 0 180 -44.5t62 -148.5v-50q0 -104 -62 -148.5t-180 -44.5h-24q-167 0 -206 86h-4v-78zM339 350q37 0 63.5 2.5t52 10t40.5 20.5t24 35.5t9 53.5v35q0 74 -46 98.5t-143 24.5q-96 0 -141.5 -24.5t-45.5 -98.5v-35
q0 -74 45.5 -98t141.5 -24z" />
    <glyph glyph-name="c.superior" horiz-adv-x="634" 
d="M339 272h-39q-135 0 -199 46.5t-64 152.5v37q0 108 64 154t199 46h39q233 0 258 -140h-103q-18 34 -58 48t-115 14q-100 0 -142 -27t-42 -102v-22q0 -76 42 -102.5t142 -26.5q75 0 115 14t58 48h103q-25 -140 -258 -140z" />
    <glyph glyph-name="d.superior" horiz-adv-x="665" 
d="M613 834v-554h-100v78h-4q-39 -86 -206 -86h-24q-117 0 -179.5 44.5t-62.5 148.5v50q0 104 62.5 148.5t179.5 44.5h24q167 0 206 -86h4v212h100zM326 350q37 0 63 2.5t51 10t40 20.5t24 35.5t9 53.5v35q0 74 -45.5 98.5t-141.5 24.5q-97 0 -143 -24.5t-46 -98.5v-35
q0 -31 9 -53.5t24 -35.5t40.5 -20.5t52 -10t63.5 -2.5z" />
    <glyph glyph-name="e.superior" horiz-adv-x="624" 
d="M482 416h100q-14 -79 -76.5 -111.5t-184.5 -32.5h-21q-126 0 -195 42q-68 42 -68 151v50q0 109 68 151q69 42 195 42h21q132 0 199 -44t67 -149v-45h-450v-4q0 -75 42 -99t133 -24q75 0 116 14.5t54 58.5zM312 641q-87 0 -129 -22t-46 -90h349v6q0 63 -43.5 84.5
t-130.5 21.5z" />
    <glyph glyph-name="f.superior" horiz-adv-x="441" 
d="M141 625h-126v75h127q4 76 48.5 105t139.5 29h90v-70h-70q-58 0 -83.5 -13t-25.5 -51h179v-75h-179v-345h-100v345z" />
    <glyph glyph-name="g.superior" horiz-adv-x="659" 
d="M346 145h-42q-98 0 -161 26t-93 91h112q19 -29 57.5 -39t103.5 -10q91 0 137 23q45 22 45 96v59h-4q-19 -44 -65.5 -64t-132.5 -20h-10q-118 0 -180.5 43.5t-62.5 143.5v27q0 101 62.5 144t180.5 43h10q87 -1 133 -21t65 -63h4v76h101v-376q0 -98 -65.5 -138.5
t-194.5 -40.5zM329 381q91 0 133.5 23.5t42.5 96.5v13q0 73 -42.5 96.5t-133.5 23.5q-92 0 -135.5 -24t-43.5 -96v-13q0 -72 43.5 -96t135.5 -24z" />
    <glyph glyph-name="h.superior" horiz-adv-x="595" 
d="M549 538v-258h-100v241q0 63 -36 86t-100 23q-161 0 -161 -129v-221h-100v554h100v-212h5q43 86 186 86q96 0 151 -38t55 -132z" />
    <glyph glyph-name="i.superior" horiz-adv-x="204" 
d="M52 834h100v-72h-100v72zM52 700h100v-420h-100v420z" />
    <glyph glyph-name="j.superior" horiz-adv-x="204" 
d="M52 834h100v-72h-100v72zM52 700h100v-331q0 -86 -14.5 -127.5t-63.5 -96.5h-107q52 57 68.5 96.5t16.5 104.5v354z" />
    <glyph glyph-name="k.superior" horiz-adv-x="616" 
d="M152 395v-115h-100v554h100v-338h4l292 204h137l-252 -177l273 -243h-139l-208 188h-4z" />
    <glyph glyph-name="l.superior" horiz-adv-x="204" 
d="M152 834v-554h-100v554h100z" />
    <glyph glyph-name="m.superior" horiz-adv-x="944" 
d="M900 538v-258h-101v242q0 63 -33 85.5t-92 22.5q-72 0 -110 -30t-38 -102v-218h-100v242q0 63 -33.5 85.5t-92.5 22.5q-71 0 -109.5 -30.5t-38.5 -101.5v-218h-100v420h100v-76h5q40 84 174 84q145 0 181 -88h5q42 88 185 88q95 0 146.5 -37.5t51.5 -132.5z" />
    <glyph glyph-name="n.superior" horiz-adv-x="595" 
d="M549 538v-258h-100v241q0 63 -36 86t-100 23q-161 0 -161 -129v-221h-100v420h100v-78h5q43 86 186 86q96 0 151 -38t55 -132z" />
    <glyph glyph-name="o.superior" horiz-adv-x="650" 
d="M350 272h-49q-132 0 -198 44t-66 149v50q0 105 66 149t198 44h49q130 0 196.5 -44t66.5 -149v-50q0 -105 -66.5 -149t-196.5 -44zM326 350q37 0 63 2.5t51 10t40 20.5t24 35.5t9 53.5v35q0 74 -45.5 98.5t-141.5 24.5q-97 0 -143 -24.5t-46 -98.5v-35q0 -31 9 -53.5
t24 -35.5t40.5 -20.5t52 -10t63.5 -2.5z" />
    <glyph glyph-name="p.superior" horiz-adv-x="665" 
d="M52 146v554h100v-78h4q39 86 206 86h24q118 0 180 -44.5t62 -148.5v-50q0 -104 -62 -148.5t-180 -44.5h-24q-167 0 -206 86h-4v-212h-100zM339 630q-96 0 -141.5 -24t-45.5 -98v-35q0 -74 45.5 -98.5t141.5 -24.5q97 0 143 24.5t46 98.5v35q0 31 -9 53.5t-24 35.5
t-40.5 20.5t-52 10t-63.5 2.5z" />
    <glyph glyph-name="q.superior" horiz-adv-x="665" 
d="M513 700h100v-554h-100v212h-4q-39 -86 -206 -86h-24q-117 0 -179.5 44.5t-62.5 148.5v50q0 104 62.5 148.5t179.5 44.5h24q167 0 206 -86h4v78zM326 630q-37 0 -63.5 -2.5t-52 -10t-40.5 -20.5t-24 -35.5t-9 -53.5v-35q0 -74 46 -98.5t143 -24.5q96 0 141.5 24.5
t45.5 98.5v35q0 31 -9 53.5t-24 35.5t-40 20.5t-51 10t-63 2.5z" />
    <glyph glyph-name="r.superior" horiz-adv-x="404" 
d="M340 700h42v-75h-66q-80 0 -122 -25t-42 -92v-228h-100v420h100v-77h4q33 77 184 77z" />
    <glyph glyph-name="s.superior" horiz-adv-x="631" 
d="M325 272h-16q-123 0 -191.5 31t-80.5 102h107q8 -39 54 -52.5t121 -13.5q88 0 127.5 14t40.5 51v2q0 28 -23 37.5t-81 12.5l-151 6q-94 4 -135 28.5t-41 80.5v9q0 71 61 99.5t189 28.5h10q126 0 188.5 -31t76.5 -101h-107q-9 37 -49.5 50.5t-114.5 13.5
q-78 0 -112.5 -12.5t-34.5 -44.5v-3q0 -28 22 -37t81 -12l153 -7q92 -5 133.5 -30t41.5 -79v-8q0 -76 -66.5 -105.5t-202.5 -29.5z" />
    <glyph glyph-name="t.superior" horiz-adv-x="420" 
d="M394 353v-73h-68q-108 0 -149.5 34t-41.5 125v186h-120v75h120v134h100v-134h159v-75h-159v-175q0 -61 26.5 -79t95.5 -18h37z" />
    <glyph glyph-name="u.superior" horiz-adv-x="595" 
d="M45 442v258h100v-241q0 -63 36.5 -86t99.5 -23q161 0 161 129v221h100v-420h-100v78h-5q-43 -86 -186 -86q-96 0 -151 38t-55 132z" />
    <glyph glyph-name="v.superior" horiz-adv-x="605" 
d="M592 700l-222 -420h-136l-221 420h114l176 -341h7l177 341h105z" />
    <glyph glyph-name="w.superior" horiz-adv-x="948" 
d="M931 700l-161 -420h-133l-159 331l-159 -331h-142l-160 420h112l128 -334h5l160 334h116l160 -334h5l128 334h100z" />
    <glyph glyph-name="x.superior" horiz-adv-x="667" 
d="M402 495l246 -215h-137l-178 163h-4l-181 -163h-129l243 213l-231 207h137l165 -152h4l170 152h128z" />
    <glyph glyph-name="y.superior" horiz-adv-x="593" 
d="M581 700l-308 -555h-107l82 136l-235 419h109l178 -320h5l171 320h105z" />
    <glyph glyph-name="z.superior" horiz-adv-x="590" 
d="M554 354v-74h-516v69l360 276h-345v75h487v-69l-361 -277h375z" />
    <glyph glyph-name="grave.cap" horiz-adv-x="500" 
d="M265 860l109 -120h-113l-135 120h139z" />
    <glyph glyph-name="acute.cap" horiz-adv-x="500" 
d="M373 860l-136 -120h-112l109 120h139z" />
    <glyph glyph-name="circumflex.cap" horiz-adv-x="500" 
d="M330 860l149 -120h-109l-120 87l-120 -87h-109l149 120h160z" />
    <glyph glyph-name="caron.cap" horiz-adv-x="500" 
d="M250 773l120 87h109l-149 -120h-160l-149 120h109z" />
    <glyph glyph-name="caronSlovak" horiz-adv-x="500" 
d="M326 700l-59 -206h-88l34 206h113z" />
    <glyph glyph-name="tilde.cap" horiz-adv-x="500" 
d="M337 749q-36 0 -95 21t-77 21q-38 0 -49 -37h-70q10 52 37.5 75t76.5 23q35 0 94 -21.5t77 -21.5q38 0 51 38h72q-18 -98 -117 -98z" />
    <glyph glyph-name="dieresis.cap" horiz-adv-x="500" 
d="M87 846h92v-87h-92v87zM321 846h92v-87h-92v87z" />
    <glyph glyph-name="macron.cap" horiz-adv-x="500" 
d="M442 830v-56h-384v56h384z" />
    <glyph glyph-name="breve.cap" horiz-adv-x="500" 
d="M250 732q-103 0 -150.5 31t-51.5 97h87q1 -69 115 -69q112 0 115 69h87q-4 -66 -52 -97t-150 -31z" />
    <glyph glyph-name="ring.cap" horiz-adv-x="500" 
d="M250 727q-83 0 -121.5 24.5t-38.5 78.5t38.5 78.5t121.5 24.5t121 -24.5t38 -78.5t-38 -78.5t-121 -24.5zM250 777q47 0 67 12.5t20 40.5t-20 40.5t-67 12.5t-67 -12.5t-20 -40.5t20 -40.5t67 -12.5z" />
    <glyph glyph-name="hungarumlaut.cap" horiz-adv-x="500" 
d="M262 860l-136 -120h-112l109 120h139zM485 860l-136 -120h-112l109 120h139z" />
    <glyph glyph-name="dotaccent.cap" horiz-adv-x="500" 
d="M195 846h109v-87h-109v87z" />
    <glyph glyph-name="commaaccent.alt" horiz-adv-x="500" 
d="M223 693l18 21h68l-50 -59v-7h68v-58h-144v14q0 28 8.5 46t31.5 43z" />
    <glyph glyph-name="hyphen.cap" horiz-adv-x="375" 
d="M355 304h-336v93h336v-93z" />
    <glyph glyph-name="exclamdown.cap" horiz-adv-x="319" 
d="M88 700h144v-128h-144v128zM226 293v-293h-133v293l27 172h79z" />
    <glyph glyph-name="questiondown.cap" horiz-adv-x="760" 
d="M327 706h144v-125h-144v125zM341 474h115v-10q0 -38 -31.5 -62.5t-110.5 -51.5q-106 -35 -136.5 -63t-30.5 -82v-7q0 -58 51 -84.5t165 -26.5q120 0 176.5 30.5t64.5 111.5h110q-6 -129 -96.5 -181t-246.5 -52h-17q-318 0 -318 193v17q0 83 44 127t165 83q50 16 72 28.5
t24 29.5z" />
    <glyph glyph-name="guilsinglleft.cap" horiz-adv-x="260" 
d="M48 346v6l84 219h78l-86 -222l86 -222h-78z" />
    <glyph glyph-name="guilsinglright.cap" horiz-adv-x="260" 
d="M212 353v-6l-84 -219h-78l86 222l-86 222h78z" />
    <glyph glyph-name="guillemotleft.cap" horiz-adv-x="427" 
d="M48 347v6l84 219h78l-86 -222l86 -222h-78zM214 347v6l84 219h78l-86 -222l86 -222h-78z" />
    <glyph glyph-name="guillemotright.cap" horiz-adv-x="427" 
d="M212 353v-6l-84 -219h-78l86 222l-86 222h78zM378 353v-6l-84 -219h-78l86 222l-86 222h78z" />
    <glyph glyph-name="endash.cap" horiz-adv-x="780" 
d="M730 317h-710v65h710v-65z" />
    <glyph glyph-name="emdash.cap" horiz-adv-x="1170" 
d="M1104 317h-1084v65h1084v-65z" />
    <glyph glyph-name="periodcentered.cap" horiz-adv-x="370" 
d="M256 286h-143v128h143v-128z" />
    <glyph glyph-name="parenleft.cap" horiz-adv-x="388" 
d="M330 19v-64q-113 19 -178 111.5t-65 260.5v46q0 168 65 260.5t178 111.5v-64q-170 -44 -170 -313v-36q0 -269 170 -313z" />
    <glyph glyph-name="parenright.cap" horiz-adv-x="388" 
d="M51 681v64q112 -19 177.5 -111.5t65.5 -260.5v-46q0 -168 -65.5 -260.5t-177.5 -111.5v64q170 44 170 313v36q0 269 -170 313z" />
    <glyph glyph-name="bracketleft.cap" horiz-adv-x="388" 
d="M331 18v-63h-233v790h233v-63h-162v-664h162z" />
    <glyph glyph-name="bracketright.cap" horiz-adv-x="388" 
d="M57 682v63h233v-790h-233v63h162v664h-162z" />
    <glyph glyph-name="braceleft.cap" horiz-adv-x="367" 
d="M328 18v-63h-52q-89 0 -122.5 43t-33.5 150v45q0 68 -16.5 88t-82.5 29v80q66 9 82.5 29t16.5 88v45q0 107 33.5 150t122.5 43h52v-63h-30q-62 0 -84 -28t-22 -119v-47q0 -71 -19 -98.5t-91 -37.5v-4q72 -10 91 -37.5t19 -98.5v-47q0 -91 22 -119t84 -28h30z" />
    <glyph glyph-name="braceright.cap" horiz-adv-x="367" 
d="M84 -45h-52v63h30q62 0 84 28t22 119v47q0 71 19 98.5t91 37.5v4q-72 10 -91 37.5t-19 98.5v47q0 91 -22 119t-84 28h-30v63h52q89 0 122.5 -43t33.5 -150v-45q0 -68 16.5 -88t82.5 -29v-80q-66 -9 -82.5 -29t-16.5 -88v-45q0 -107 -33.5 -150t-122.5 -43z" />
    <glyph glyph-name="at.cap" horiz-adv-x="1173" 
d="M570 -69q-266 0 -398.5 88.5t-132.5 291.5v24q0 209 141 321.5t415 112.5q273 0 406 -88.5t133 -273.5v-7q0 -296 -240 -296q-78 0 -106 27q-29 27 -30 70h-5q-28 -43 -76.5 -62.5t-139.5 -19.5h-19q-116 0 -178 49.5t-48 161.5l2 23q14 116 80 164t183 48h29
q79 0 128.5 -22t65.5 -60h4l8 74h104l-36 -309q-6 -49 9.5 -66.5t57.5 -17.5q49 0 81.5 33.5t46 83t13.5 112.5v7q0 168 -116.5 239.5t-360.5 71.5q-235 0 -360.5 -97t-125.5 -283v-16q0 -94 32.5 -159t97 -101t146.5 -51t194 -15q58 0 141.5 9.5t140.5 25.5v-58
q-114 -35 -287 -35zM565 192q91 0 141.5 29t60.5 106l3 26q11 84 -34 111t-140 27q-92 0 -141.5 -28t-59.5 -107l-4 -25q-6 -44 4.5 -73t37 -42.5t56.5 -18.5t76 -5z" />
    <glyph glyph-name="zero.slash" horiz-adv-x="1076" 
d="M581 -11h-86q-229 0 -328.5 75.5t-99.5 242.5v85q0 167 99.5 242.5t328.5 75.5h86q229 0 328.5 -75t99.5 -242v-85q0 -167 -99.5 -243t-328.5 -76zM181 369v-39q0 -133 63 -184l524 443q-78 28 -230 28q-111 0 -181 -14t-109 -47t-53 -76t-14 -111zM538 83q110 0 180 14
t109 46t53 75.5t14 111.5v39q0 130 -61 183l-521 -442q75 -27 226 -27z" />
    <glyph glyph-name="numbersign.LT" 
d="M633 0h-87l26 184h-210l-25 -184h-88l27 184h-202v79h211l25 175h-201v79h210l26 183h88l-27 -183h210l26 183h87l-26 -183h201v-79h-211l-25 -175h201v-79h-210zM610 441h-215l-27 -182h215z" />
    <glyph glyph-name="Euro.LT" 
d="M550 -10h-34q-352 0 -392 260h-117v62h112v6v64v6h-112v62h117q40 260 392 260h34q162 0 254 -42.5t130 -142.5h-120q-31 49 -93.5 70.5t-186.5 21.5q-62 0 -106 -6t-86.5 -23t-69 -51.5t-35.5 -86.5h574v-62h-579v-1v-75h579v-62h-574q9 -52 35.5 -86.5t69 -51.5t87 -23
t105.5 -6q124 0 186.5 21.5t93.5 70.5h120q-38 -100 -130 -142.5t-254 -42.5z" />
    <glyph glyph-name="dollar.LT" 
d="M548 10v-115h-82v115q-356 0 -421 165h130q54 -77 317 -77q170 0 246 22q79 22 79 93v6q0 49 -38 65.5t-152 19.5l-290 10q-156 6 -213 42.5t-57 124.5v16q0 101 94 146t287 47v115h82v-116q167 -5 261 -44.5t121 -119.5h-129q-26 43 -99.5 60t-209.5 17
q-149 0 -216.5 -23.5t-69.5 -77.5v-6q0 -50 37 -65.5t154 -20.5l290 -10q153 -4 211 -42.5t58 -124.5v-14q0 -57 -26 -97.5t-78 -64t-121.5 -34t-164.5 -12.5z" />
    <glyph glyph-name="cent.LT" 
d="M538 -10v-95h-82v95q-157 3 -233.5 62t-76.5 188v49q0 130 76.5 189t233.5 62v95h82v-95q263 -6 300 -171h-113q-23 46 -76 64t-152 18q-129 0 -185.5 -36t-56.5 -135v-30q0 -99 56.5 -135t185.5 -36q99 0 152 18t76 64h113q-37 -165 -300 -171z" />
    <glyph glyph-name="sterling.LT" 
d="M818 384v-68h-489v-226h589v-90h-880v90h178v226h-178v68h178v27q0 87 25.5 147t74.5 92.5t108 46t137 13.5h34q138 0 226 -49.5t113 -135.5h-125q-24 48 -77.5 70t-152.5 22q-127 0 -188.5 -43.5t-61.5 -152.5v-37h489z" />
    <glyph glyph-name="florin.LT" 
d="M472 316v-421h-112v421h-326v68h326v17q0 87 25.5 147t74 92.5t106 46t133.5 13.5h219v-94h-191q-129 0 -192 -44t-63 -156v-22h446v-68h-446z" />
    <glyph glyph-name="yen.LT" 
d="M546 250v-250h-114v250h-323v62h323v50l-31 26h-292v62h217l-302 250h161l309 -258h5l308 258h144l-300 -250h218v-62h-293l-30 -25v-51h323v-62h-323z" />
    <glyph glyph-name="zero.slash.LT" 
d="M507 -11h-36q-67 0 -120 7t-107.5 28.5t-91 57t-59.5 97t-23 144.5v53q0 83 23 144.5t59 97t91 57t108 28.5t120 7h36q67 0 120 -7t108 -28.5t91 -57t59 -97t23 -144.5v-53q0 -83 -23 -144.5t-59.5 -97t-91 -57t-107.5 -28.5t-120 -7zM184 365v-30q0 -116 49 -178
l452 431q-62 30 -196 30q-59 0 -99 -4.5t-82 -19.5t-67 -41.5t-41 -73.5t-16 -114zM489 81q58 0 98.5 4.5t82.5 19.5t66.5 42t40.5 74t16 114v30q0 116 -49 178l-452 -432q62 -30 197 -30z" />
    <glyph glyph-name="zero.LT" 
d="M507 -11h-36q-67 0 -120 7t-107.5 28.5t-91 57t-59.5 97t-23 144.5v53q0 83 23 144.5t59 97t91 57t108 28.5t120 7h36q67 0 120 -7t108 -28.5t91 -57t59 -97t23 -144.5v-53q0 -83 -23 -144.5t-59.5 -97t-91 -57t-107.5 -28.5t-120 -7zM489 81q58 0 98.5 4.5t82.5 19.5
t66.5 42t40.5 74t16 114v30q0 67 -16 114t-40.5 74t-66.5 41.5t-82 19t-99 4.5t-99 -4.5t-82 -19.5t-67 -41.5t-41 -73.5t-16 -114v-30q0 -82 22 -135t67.5 -78t93.5 -33t122 -8z" />
    <glyph glyph-name="one.LT" 
d="M906 90v-90h-835v90h388v520h-6l-354 -149v112l316 127h158v-610h333z" />
    <glyph glyph-name="two.LT" 
d="M911 91v-91h-843v116q0 125 57.5 180t205.5 70l294 29q101 11 136 32t35 73v10q0 58 -64.5 82.5t-220.5 24.5q-154 0 -216 -25.5t-84 -89.5h-119q26 119 121.5 163.5t273.5 44.5h41q184 0 283 -42q100 -42 100 -148v-21q0 -88 -52.5 -134t-192.5 -60l-315 -31
q-96 -9 -132.5 -37.5t-36.5 -96.5v-49h729z" />
    <glyph glyph-name="three.LT" 
d="M525 -10h-51q-204 0 -300 49t-114 162h117q20 -67 90.5 -92.5t236.5 -25.5q174 0 242.5 27.5t68.5 96.5v15q0 95 -157 95h-367v91h370q69 0 101.5 21t32.5 67v12q0 60 -64.5 84.5t-225.5 24.5q-143 0 -208.5 -25t-84.5 -88h-118q28 112 117.5 159t271.5 47h32
q212 0 304 -41.5t92 -137.5v-13q0 -118 -117 -137v-7q73 -12 104.5 -48t31.5 -107v-17q0 -115 -92.5 -163.5t-312.5 -48.5z" />
    <glyph glyph-name="four.LT" 
d="M800 181v-181h-114v181h-617v154l551 365h180v-429h127v-90h-127zM159 277v-6h527v352h-6z" />
    <glyph glyph-name="five.LT" 
d="M542 -10h-65q-184 0 -275.5 45t-113.5 146h118q15 -53 84.5 -75.5t216.5 -22.5q164 0 231.5 31t67.5 106v19q0 78 -62.5 107.5t-232.5 29.5q-131 0 -201 -17t-101 -57h-107l45 398h720v-91h-617l-28 -213h6q56 74 323 74q199 0 284.5 -53t85.5 -177v-20q0 -122 -89 -176
t-290 -54z" />
    <glyph glyph-name="six.LT" 
d="M531 -10h-66q-212 0 -305 65.5t-93 233.5v87q0 180 90 257t302 77h51q190 0 280 -42.5t109 -141.5h-119q-14 52 -76.5 71.5t-215.5 19.5q-184 0 -247 -50t-63 -196v-19h7q23 54 99 77.5t235 23.5q207 0 296 -45.5t89 -166.5v-29q0 -124 -93 -173q-92 -49 -280 -49z
M490 80q166 0 233 28.5t67 100.5v24q0 72 -67.5 101t-232.5 29q-166 0 -233.5 -29t-67.5 -101v-24q0 -72 67.5 -100.5t233.5 -28.5z" />
    <glyph glyph-name="seven.LT" 
d="M914 609l-528 -609h-148l532 603v7h-715v90h859v-91z" />
    <glyph glyph-name="eight.LT" 
d="M533 -10h-89q-74 0 -127.5 4.5t-103 18t-80 36t-48.5 60t-18 89.5v17q0 72 34 111.5t108 50.5v6q-118 23 -118 138v12q0 100 90.5 138.5t281.5 38.5h50q191 0 282 -38.5t91 -138.5v-12q0 -115 -118 -138v-6q143 -21 143 -161v-18q0 -52 -18 -89.5t-48.5 -60t-80.5 -36
t-103.5 -18t-127.5 -4.5zM349 410h279q75 0 108.5 22.5t33.5 71.5v10q0 62 -59.5 83.5t-222.5 21.5t-222 -21.5t-59 -83.5v-10q0 -49 33 -71.5t109 -22.5zM488 81q176 0 242 25t66 93v15q0 54 -40 81t-131 27h-274q-90 0 -130 -27t-40 -81v-15q0 -68 65.5 -93t241.5 -25z
" />
    <glyph glyph-name="nine.LT" 
d="M447 710h66q212 0 305 -65.5t93 -233.5v-87q0 -180 -90 -257t-302 -77h-51q-189 0 -279 43t-110 141h119q14 -52 76.5 -71.5t215.5 -19.5q184 0 247 50t63 196v19h-7q-23 -54 -99 -77.5t-235 -23.5q-207 0 -296 45.5t-89 166.5v29q0 124 93 173q92 49 280 49zM488 620
q-166 0 -233 -28.5t-67 -100.5v-24q0 -72 67.5 -101t232.5 -29q166 0 233.5 29t67.5 101v24q0 72 -67.5 100.5t-233.5 28.5z" />
    <glyph glyph-name="numbersign.OP" 
d="M640 0h-87l21 150h-209l-21 -150h-88l22 150h-204v79h213l21 141h-204v79h213l21 151h87l-21 -151h209l21 151h88l-22 -151h204v-79h-213l-20 -141h203v-79h-212zM608 374h-216l-22 -148h216z" />
    <glyph glyph-name="Euro.OP" 
d="M550 -10h-34q-72 0 -128.5 8.5t-112 30t-93 64.5t-52.5 107h-123v62h113q-1 11 -1 34v8q0 23 1 34h-113v62h123q15 64 52.5 107t93 64.5t112 30t128.5 8.5h34q163 0 254.5 -36t129.5 -123h-120q-33 41 -93 57t-187 16q-125 0 -195 -25.5t-94 -98.5h566v-62h-578
q-1 -9 -1 -27v-22q0 -19 1 -27h578v-62h-566q24 -73 94 -98.5t195 -25.5q127 0 187 16t93 57h120q-38 -87 -129.5 -123t-254.5 -36z" />
    <glyph glyph-name="dollar.OP" 
d="M548 10v-115h-82v115q-160 0 -270 34t-151 124h130q53 -73 323 -73q127 0 195 8t96 26.5t28 51.5v7q0 39 -35.5 51t-153.5 17l-295 11q-151 4 -206.5 39t-55.5 107v10q0 84 91.5 125t285.5 42v115h82v-115q167 -3 262 -39t123 -119h-129q-28 43 -96.5 58.5t-204.5 15.5
q-162 0 -227.5 -19.5t-65.5 -58.5v-4q0 -39 36 -52t153 -18l295 -10q152 -6 207 -39.5t55 -106.5v-13q0 -92 -92 -132t-298 -43z" />
    <glyph glyph-name="cent.OP" horiz-adv-x="788" 
d="M446 -10v-95h-82v95q-157 3 -233.5 62t-76.5 188v49q0 130 76.5 189t233.5 62v95h82v-95q263 -6 300 -171h-113q-23 46 -76 64t-152 18q-129 0 -185.5 -36t-56.5 -135v-30q0 -99 56.5 -135t185.5 -36q99 0 152 18t76 64h113q-37 -165 -300 -171z" />
    <glyph glyph-name="sterling.OP" 
d="M819 334v-68h-489v-176h589v-90h-880v90h178v176h-178v68h178q2 82 28 138t75 85.5t106.5 41t135.5 11.5h34q287 0 339 -168h-125q-24 41 -74 58t-156 17q-129 0 -189.5 -39t-60.5 -144h489z" />
    <glyph glyph-name="florin.OP" 
d="M472 266v-471h-112v471h-326v68h327q5 77 32 130.5t74.5 82.5t103.5 41t128 12h219v-94h-191q-122 0 -184.5 -38t-69.5 -134h445v-68h-446z" />
    <glyph glyph-name="yen.OP" 
d="M547 200v-200h-114v200h-323v62h323l-92 76h-231v62h156l-241 200h161l309 -258h5l308 258h144l-240 -200h158v-62h-233l-90 -75v-1h323v-62h-323z" />
    <glyph glyph-name="zero.slash.OP" horiz-adv-x="1062" 
d="M572 -10h-83q-220 0 -316 66.5t-96 226.5v34q0 160 96 226.5t316 66.5h83q220 0 316 -66.5t96 -226.5v-34q0 -160 -96 -226.5t-316 -66.5zM192 316v-31q0 -106 63 -150l475 363q-70 19 -199 19q-134 0 -208 -21.5t-102.5 -63.5t-28.5 -116zM531 84q133 0 207.5 21.5
t102.5 63.5t28 116v31q0 107 -62 149l-475 -363q73 -18 199 -18z" />
    <glyph glyph-name="zero.OP" horiz-adv-x="1062" 
d="M572 -10h-83q-220 0 -316 66.5t-96 226.5v34q0 160 96 226.5t316 66.5h83q220 0 316 -66.5t96 -226.5v-34q0 -160 -96 -226.5t-316 -66.5zM531 84q133 0 207.5 21.5t102.5 63.5t28 116v31q0 74 -28 116t-102 63.5t-208 21.5t-208 -21.5t-102.5 -63.5t-28.5 -116v-31
q0 -74 28 -116t102.5 -63.5t208.5 -21.5z" />
    <glyph glyph-name="one.OP" horiz-adv-x="599" 
d="M505 600v-600h-114v510h-6l-354 -149v112l316 127h158z" />
    <glyph glyph-name="two.OP" 
d="M911 91v-91h-843v93q0 108 54 158.5t189 62.5l329 28q94 8 125.5 24.5t31.5 58.5v7q0 46 -65 65.5t-219 19.5q-142 0 -208 -24.5t-88 -85.5h-125q26 107 122.5 155t283.5 48h17q203 0 299.5 -41t96.5 -127v-16q0 -82 -54.5 -121.5t-187.5 -49.5l-324 -28q-97 -8 -130 -29
t-33 -78v-29h729z" />
    <glyph glyph-name="three.OP" 
d="M525 -110h-51q-204 0 -300 49t-114 162h117q20 -67 90.5 -92.5t236.5 -25.5q174 0 242.5 27.5t68.5 96.5v15q0 95 -157 95h-367v91h370q69 0 101.5 21t32.5 67v12q0 60 -64.5 84.5t-225.5 24.5q-143 0 -208.5 -25t-84.5 -88h-118q28 112 117.5 159t271.5 47h32
q212 0 304 -41.5t92 -137.5v-13q0 -118 -117 -137v-7q73 -12 104.5 -48t31.5 -107v-17q0 -115 -92.5 -163.5t-312.5 -48.5z" />
    <glyph glyph-name="four.OP" 
d="M800 81v-181h-114v181h-617v154l551 365h180v-429h127v-90h-127zM159 177v-6h527v352h-6z" />
    <glyph glyph-name="five.OP" 
d="M542 -110h-65q-184 0 -275.5 45t-113.5 146h118q15 -53 84.5 -75.5t216.5 -22.5q164 0 231.5 31t67.5 106v19q0 78 -62.5 107.5t-232.5 29.5q-131 0 -201 -17t-101 -57h-107l45 398h720v-91h-617l-28 -213h6q56 74 323 74q199 0 284.5 -53t85.5 -177v-20q0 -122 -89 -176
t-290 -54z" />
    <glyph glyph-name="six.OP" 
d="M531 -10h-66q-212 0 -305 65.5t-93 233.5v87q0 180 90 257t302 77h51q190 0 280 -42.5t109 -141.5h-119q-14 52 -76.5 71.5t-215.5 19.5q-184 0 -247 -50t-63 -196v-19h7q23 54 99 77.5t235 23.5q207 0 296 -45.5t89 -166.5v-29q0 -124 -93 -173q-92 -49 -280 -49z
M490 80q166 0 233 28.5t67 100.5v24q0 72 -67.5 101t-232.5 29q-166 0 -233.5 -29t-67.5 -101v-24q0 -72 67.5 -100.5t233.5 -28.5z" />
    <glyph glyph-name="seven.OP" 
d="M914 509l-528 -609h-148l532 603v7h-715v90h859v-91z" />
    <glyph glyph-name="eight.OP" 
d="M533 -10h-89q-74 0 -127.5 4.5t-103 18t-80 36t-48.5 60t-18 89.5v17q0 72 34 111.5t108 50.5v6q-118 23 -118 138v12q0 100 90.5 138.5t281.5 38.5h50q191 0 282 -38.5t91 -138.5v-12q0 -115 -118 -138v-6q143 -21 143 -161v-18q0 -52 -18 -89.5t-48.5 -60t-80.5 -36
t-103.5 -18t-127.5 -4.5zM349 410h279q75 0 108.5 22.5t33.5 71.5v10q0 62 -59.5 83.5t-222.5 21.5t-222 -21.5t-59 -83.5v-10q0 -49 33 -71.5t109 -22.5zM488 81q176 0 242 25t66 93v15q0 54 -40 81t-131 27h-274q-90 0 -130 -27t-40 -81v-15q0 -68 65.5 -93t241.5 -25z
" />
    <glyph glyph-name="nine.OP" 
d="M447 610h66q212 0 305 -65.5t93 -233.5v-87q0 -181 -90 -257.5t-302 -76.5h-51q-190 0 -280 42.5t-109 141.5h119q14 -52 76.5 -71.5t215.5 -19.5q184 0 247 50t63 196v19h-7q-23 -54 -99 -77.5t-235 -23.5q-207 0 -296 45.5t-89 166.5v29q0 123 93 173q92 49 280 49z
M488 520q-165 0 -232.5 -29t-67.5 -100v-24q0 -72 67.5 -101t232.5 -29q166 0 233.5 29t67.5 101v24q0 71 -68 100t-233 29z" />
    <glyph glyph-name="numbersign.OT" 
d="M640 0h-87l21 150h-209l-21 -150h-88l22 150h-204v79h213l21 141h-204v79h213l21 151h87l-21 -151h209l21 151h88l-22 -151h204v-79h-213l-20 -141h203v-79h-212zM608 374h-216l-22 -148h216z" />
    <glyph glyph-name="Euro.OT" 
d="M550 -10h-34q-72 0 -128.5 8.5t-112 30t-93 64.5t-52.5 107h-123v62h113q-1 11 -1 34v8q0 23 1 34h-113v62h123q15 64 52.5 107t93 64.5t112 30t128.5 8.5h34q163 0 254.5 -36t129.5 -123h-120q-33 41 -93 57t-187 16q-125 0 -195 -25.5t-94 -98.5h566v-62h-578
q-1 -9 -1 -27v-22q0 -19 1 -27h578v-62h-566q24 -73 94 -98.5t195 -25.5q127 0 187 16t93 57h120q-38 -87 -129.5 -123t-254.5 -36z" />
    <glyph glyph-name="dollar.OT" 
d="M548 10v-115h-82v115q-160 0 -270 34t-151 124h130q53 -73 323 -73q127 0 195 8t96 26.5t28 51.5v7q0 39 -35.5 51t-153.5 17l-295 11q-151 4 -206.5 39t-55.5 107v10q0 84 91.5 125t285.5 42v115h82v-115q167 -3 262 -39t123 -119h-129q-28 43 -96.5 58.5t-204.5 15.5
q-162 0 -227.5 -19.5t-65.5 -58.5v-4q0 -39 36 -52t153 -18l295 -10q152 -6 207 -39.5t55 -106.5v-13q0 -92 -92 -132t-298 -43z" />
    <glyph glyph-name="cent.OT" 
d="M538 -10v-95h-82v95q-157 3 -233.5 62t-76.5 188v49q0 130 76.5 189t233.5 62v95h82v-95q263 -6 300 -171h-113q-23 46 -76 64t-152 18q-129 0 -185.5 -36t-56.5 -135v-30q0 -99 56.5 -135t185.5 -36q99 0 152 18t76 64h113q-37 -165 -300 -171z" />
    <glyph glyph-name="sterling.OT" 
d="M819 334v-68h-489v-176h589v-90h-880v90h178v176h-178v68h178q2 82 28 138t75 85.5t106.5 41t135.5 11.5h34q287 0 339 -168h-125q-24 41 -74 58t-156 17q-129 0 -189.5 -39t-60.5 -144h489z" />
    <glyph glyph-name="florin.OT" 
d="M472 266v-471h-112v471h-326v68h327q5 77 32 130.5t74.5 82.5t103.5 41t128 12h219v-94h-191q-122 0 -184.5 -38t-69.5 -134h445v-68h-446z" />
    <glyph glyph-name="yen.OT" 
d="M547 200v-200h-114v200h-323v62h323l-92 76h-231v62h156l-241 200h161l309 -258h5l308 258h144l-240 -200h158v-62h-233l-90 -75v-1h323v-62h-323z" />
    <glyph glyph-name="zero.slash.OT" 
d="M504 -10h-30q-216 0 -308.5 64t-92.5 232v28q0 168 92.5 232t308.5 64h30q215 0 308 -64t93 -232v-28q0 -168 -93 -232t-308 -64zM188 309v-17q0 -109 46 -151l438 358q-62 18 -183 18q-123 0 -187.5 -20t-89 -63t-24.5 -125zM489 84q123 0 187.5 20.5t89 63.5t24.5 124
v17q0 112 -49 154l-439 -360q64 -19 187 -19z" />
    <glyph glyph-name="zero.OT" 
d="M504 -10h-30q-216 0 -308.5 64t-92.5 232v28q0 168 92.5 232t308.5 64h30q215 0 308 -64t93 -232v-28q0 -168 -93 -232t-308 -64zM489 84q123 0 187.5 20.5t89 63.5t24.5 124v17q0 82 -24.5 125t-89 63t-187.5 20t-187.5 -20t-89 -63t-24.5 -125v-17q0 -81 24.5 -124
t89 -63.5t187.5 -20.5z" />
    <glyph glyph-name="one.OT" 
d="M906 90v-90h-835v90h388v420h-6l-354 -149v112l316 127h158v-510h333z" />
    <glyph glyph-name="two.OT" 
d="M911 91v-91h-843v93q0 108 54 158.5t189 62.5l329 28q94 8 125.5 24.5t31.5 58.5v7q0 46 -65 65.5t-219 19.5q-142 0 -208 -24.5t-88 -85.5h-125q26 107 122.5 155t283.5 48h17q203 0 299.5 -41t96.5 -127v-16q0 -82 -54.5 -121.5t-187.5 -49.5l-324 -28q-97 -8 -130 -29
t-33 -78v-29h729z" />
    <glyph glyph-name="three.OT" 
d="M525 -110h-51q-204 0 -300 49t-114 162h117q20 -67 90.5 -92.5t236.5 -25.5q174 0 242.5 27.5t68.5 96.5v15q0 95 -157 95h-367v91h370q69 0 101.5 21t32.5 67v12q0 60 -64.5 84.5t-225.5 24.5q-143 0 -208.5 -25t-84.5 -88h-118q28 112 117.5 159t271.5 47h32
q212 0 304 -41.5t92 -137.5v-13q0 -118 -117 -137v-7q73 -12 104.5 -48t31.5 -107v-17q0 -115 -92.5 -163.5t-312.5 -48.5z" />
    <glyph glyph-name="four.OT" 
d="M800 81v-181h-114v181h-617v154l551 365h180v-429h127v-90h-127zM159 177v-6h527v352h-6z" />
    <glyph glyph-name="five.OT" 
d="M542 -110h-65q-184 0 -275.5 45t-113.5 146h118q15 -53 84.5 -75.5t216.5 -22.5q164 0 231.5 31t67.5 106v19q0 78 -62.5 107.5t-232.5 29.5q-131 0 -201 -17t-101 -57h-107l45 398h720v-91h-617l-28 -213h6q56 74 323 74q199 0 284.5 -53t85.5 -177v-20q0 -122 -89 -176
t-290 -54z" />
    <glyph glyph-name="six.OT" 
d="M531 -10h-66q-212 0 -305 65.5t-93 233.5v87q0 180 90 257t302 77h51q190 0 280 -42.5t109 -141.5h-119q-14 52 -76.5 71.5t-215.5 19.5q-184 0 -247 -50t-63 -196v-19h7q23 54 99 77.5t235 23.5q207 0 296 -45.5t89 -166.5v-29q0 -124 -93 -173q-92 -49 -280 -49z
M490 80q166 0 233 28.5t67 100.5v24q0 72 -67.5 101t-232.5 29q-166 0 -233.5 -29t-67.5 -101v-24q0 -72 67.5 -100.5t233.5 -28.5z" />
    <glyph glyph-name="seven.OT" 
d="M914 509l-528 -609h-148l532 603v7h-715v90h859v-91z" />
    <glyph glyph-name="eight.OT" 
d="M533 -10h-89q-74 0 -127.5 4.5t-103 18t-80 36t-48.5 60t-18 89.5v17q0 72 34 111.5t108 50.5v6q-118 23 -118 138v12q0 100 90.5 138.5t281.5 38.5h50q191 0 282 -38.5t91 -138.5v-12q0 -115 -118 -138v-6q143 -21 143 -161v-18q0 -52 -18 -89.5t-48.5 -60t-80.5 -36
t-103.5 -18t-127.5 -4.5zM349 410h279q75 0 108.5 22.5t33.5 71.5v10q0 62 -59.5 83.5t-222.5 21.5t-222 -21.5t-59 -83.5v-10q0 -49 33 -71.5t109 -22.5zM488 81q176 0 242 25t66 93v15q0 54 -40 81t-131 27h-274q-90 0 -130 -27t-40 -81v-15q0 -68 65.5 -93t241.5 -25z
" />
    <glyph glyph-name="nine.OT" 
d="M447 610h66q212 0 305 -65.5t93 -233.5v-87q0 -181 -90 -257.5t-302 -76.5h-51q-190 0 -280 42.5t-109 141.5h119q14 -52 76.5 -71.5t215.5 -19.5q184 0 247 50t63 196v19h-7q-23 -54 -99 -77.5t-235 -23.5q-207 0 -296 45.5t-89 166.5v29q0 123 93 173q92 49 280 49z
M488 520q-165 0 -232.5 -29t-67.5 -100v-24q0 -72 67.5 -101t232.5 -29q166 0 233.5 29t67.5 101v24q0 71 -68 100t-233 29z" />
    <glyph glyph-name="zero.numr" horiz-adv-x="547" 
d="M281 274h-14q-56 0 -95.5 8t-72.5 29.5t-49.5 62t-16.5 100.5v32q0 60 16.5 100.5t49.5 62t72.5 29.5t95.5 8h14q115 0 174 -42t59 -159v-31q0 -116 -59 -158t-174 -42zM273 348q75 0 106.5 24t31.5 109v17q0 85 -31.5 109t-106.5 24q-36 0 -58 -4t-42 -16.5t-28.5 -40
t-8.5 -72.5v-17q0 -45 8.5 -72.5t28.5 -40t42 -16.5t58 -4z" />
    <glyph glyph-name="one.numr" horiz-adv-x="386" 
d="M319 700v-420h-101v343h-4l-183 -83v95l156 65h132z" />
    <glyph glyph-name="two.numr" horiz-adv-x="547" 
d="M517 354v-74h-484v74q0 78 35.5 110t131.5 43l132 16q45 5 61 16.5t16 35.5v4q0 28 -27 39.5t-96 11.5q-63 0 -93 -10t-41 -43h-108q14 76 71.5 102.5t161.5 26.5h10q120 0 175 -28.5t55 -91.5v-9q0 -54 -32 -83t-118 -39l-161 -20q-40 -5 -54.5 -17.5t-14.5 -42.5v-21
h380z" />
    <glyph glyph-name="three.numr" horiz-adv-x="547" 
d="M295 274h-29q-102 0 -160 27t-72 104h106q11 -33 41.5 -44.5t92.5 -11.5q77 0 106 12.5t29 45.5v6q0 24 -16.5 35t-55.5 11h-150v72h143q63 0 63 42v6q0 28 -25.5 39.5t-90.5 11.5q-57 0 -83.5 -10.5t-35.5 -40.5h-109q15 70 64.5 98.5t147.5 28.5h20q113 0 167.5 -24.5
t54.5 -80.5v-6q0 -39 -17 -59t-60 -25v-5q51 -4 72.5 -26.5t21.5 -69.5v-7q0 -70 -53.5 -99.5t-171.5 -29.5z" />
    <glyph glyph-name="four.numr" horiz-adv-x="547" 
d="M464 379v-99h-106v99h-327v120l274 201h159v-246h66v-75h-66zM116 459v-5h242v180h-5z" />
    <glyph glyph-name="five.numr" horiz-adv-x="547" 
d="M298 274h-29q-101 0 -158 27.5t-74 99.5h108q9 -29 37.5 -40.5t94.5 -11.5q77 0 106.5 14t29.5 50v13q0 36 -30 50t-108 14q-104 0 -133 -35h-97l27 245h420v-76h-325l-13 -104h4q33 42 155 42q116 0 163 -32t47 -106v-8q0 -76 -55 -109t-170 -33z" />
    <glyph glyph-name="six.numr" horiz-adv-x="547" 
d="M297 274h-30q-121 0 -177.5 42t-56.5 147v43q0 107 55 153.5t178 46.5h18q109 0 160.5 -27t70.5 -85h-111q-11 20 -39.5 28.5t-86.5 8.5q-81 0 -112 -25q-30 -24 -30 -92v-13h5q26 50 170 50q118 0 163 -30.5t45 -103.5v-5q0 -73 -55.5 -105.5t-166.5 -32.5zM276 347
q76 0 106 14.5t30 48.5v11q0 34 -30 48t-106 14q-77 0 -107 -14t-30 -48v-11q0 -34 30.5 -48.5t106.5 -14.5z" />
    <glyph glyph-name="seven.numr" horiz-adv-x="547" 
d="M520 623l-288 -343h-133l300 342v4h-374v74h495v-77z" />
    <glyph glyph-name="eight.numr" horiz-adv-x="547" 
d="M294 273h-39q-111 0 -168 27.5t-57 102.5v7q2 45 24.5 68t70.5 29v4q-78 13 -78 83v3q1 59 54 84t165 25h17q112 0 165 -25t54 -84v-3q0 -70 -78 -83v-4q49 -6 71.5 -29.5t23.5 -67.5v-7q0 -75 -57.5 -102.5t-167.5 -27.5zM233 529h83q45 0 63 11.5t18 36.5v4
q0 31 -26 42t-96 11q-71 0 -96.5 -11t-25.5 -42v-4q0 -25 17.5 -36.5t62.5 -11.5zM275 346q79 0 108.5 12.5t29.5 47.5v6q0 28 -20.5 42t-75.5 14h-85q-55 0 -75.5 -14t-20.5 -42v-6q0 -35 29.5 -47.5t109.5 -12.5z" />
    <glyph glyph-name="nine.numr" horiz-adv-x="547" 
d="M250 705h30q122 0 178 -42t56 -147v-43q0 -107 -55.5 -153.5t-177.5 -46.5h-18q-109 0 -160.5 27t-70.5 85h111q11 -20 39.5 -28.5t86.5 -8.5q82 0 111 25q31 25 31 92v13h-5q-26 -50 -170 -50q-118 0 -163 30t-45 104v5q0 73 55.5 105.5t166.5 32.5zM271 632
q-77 0 -106.5 -14t-29.5 -49v-11q0 -34 30 -48t106 -14q77 0 107 14t30 48v11q0 35 -30 49t-107 14z" />
    <glyph glyph-name="zero.dnom" horiz-adv-x="547" 
d="M281 -6h-14q-56 0 -95.5 8t-72.5 29.5t-49.5 62t-16.5 100.5v32q0 60 16.5 100.5t49.5 62t72.5 29.5t95.5 8h14q115 0 174 -42t59 -159v-31q0 -116 -59 -158t-174 -42zM273 68q75 0 106.5 24t31.5 109v17q0 85 -31.5 109t-106.5 24q-36 0 -58 -4t-42 -16.5t-28.5 -40
t-8.5 -72.5v-17q0 -45 8.5 -72.5t28.5 -40t42 -16.5t58 -4z" />
    <glyph glyph-name="one.dnom" horiz-adv-x="386" 
d="M319 420v-420h-101v343h-4l-183 -83v95l156 65h132z" />
    <glyph glyph-name="two.dnom" horiz-adv-x="547" 
d="M517 74v-74h-484v74q0 78 35.5 110t131.5 43l132 16q45 5 61 16.5t16 35.5v4q0 28 -27 39.5t-96 11.5q-63 0 -93 -10t-41 -43h-108q14 76 71.5 102.5t161.5 26.5h10q120 0 175 -28.5t55 -91.5v-9q0 -54 -32 -83t-118 -39l-161 -20q-40 -5 -54.5 -17.5t-14.5 -42.5v-21
h380z" />
    <glyph glyph-name="three.dnom" horiz-adv-x="547" 
d="M295 -6h-29q-102 0 -160 27t-72 104h106q11 -33 41.5 -44.5t92.5 -11.5q77 0 106 12.5t29 45.5v6q0 24 -16.5 35t-55.5 11h-150v72h143q63 0 63 42v6q0 28 -25.5 39.5t-90.5 11.5q-57 0 -83.5 -10.5t-35.5 -40.5h-109q15 70 64.5 98.5t147.5 28.5h20q113 0 167.5 -24.5
t54.5 -80.5v-6q0 -39 -17 -59t-60 -25v-5q51 -4 72.5 -26.5t21.5 -69.5v-7q0 -70 -53.5 -99.5t-171.5 -29.5z" />
    <glyph glyph-name="four.dnom" horiz-adv-x="547" 
d="M464 99v-99h-106v99h-327v120l274 201h159v-246h66v-75h-66zM116 179v-5h242v180h-5z" />
    <glyph glyph-name="five.dnom" horiz-adv-x="547" 
d="M298 -6h-29q-101 0 -158 27.5t-74 99.5h108q9 -29 37.5 -40.5t94.5 -11.5q77 0 106.5 14t29.5 50v13q0 36 -30 50t-108 14q-104 0 -133 -35h-97l27 245h420v-76h-325l-13 -104h4q33 42 155 42q116 0 163 -32t47 -106v-8q0 -76 -55 -109t-170 -33z" />
    <glyph glyph-name="six.dnom" horiz-adv-x="547" 
d="M297 -6h-30q-121 0 -177.5 42t-56.5 147v43q0 107 55 153.5t178 46.5h18q109 0 160.5 -27t70.5 -85h-111q-11 20 -39.5 28.5t-86.5 8.5q-81 0 -112 -25q-30 -24 -30 -92v-13h5q26 50 170 50q118 0 163 -30.5t45 -103.5v-5q0 -73 -55.5 -105.5t-166.5 -32.5zM276 67
q76 0 106 14.5t30 48.5v11q0 34 -30 48t-106 14q-77 0 -107 -14t-30 -48v-11q0 -34 30.5 -48.5t106.5 -14.5z" />
    <glyph glyph-name="seven.dnom" horiz-adv-x="547" 
d="M520 343l-288 -343h-133l300 342v4h-374v74h495v-77z" />
    <glyph glyph-name="eight.dnom" horiz-adv-x="547" 
d="M294 -7h-39q-111 0 -168 27.5t-57 102.5v7q2 45 24.5 68t70.5 29v4q-78 14 -78 83v3q1 59 54 84t165 25h17q112 0 165 -25t54 -84v-3q0 -69 -78 -83v-4q49 -6 71.5 -29.5t23.5 -67.5v-7q0 -75 -57.5 -102.5t-167.5 -27.5zM233 249h83q45 0 63 11.5t18 36.5v4q0 31 -26 42
t-96 11q-71 0 -96.5 -11t-25.5 -42v-4q0 -25 17.5 -36.5t62.5 -11.5zM275 66q79 0 108.5 12.5t29.5 47.5v6q0 28 -20.5 42t-75.5 14h-85q-55 0 -75.5 -14t-20.5 -42v-6q0 -35 29.5 -47.5t109.5 -12.5z" />
    <glyph glyph-name="nine.dnom" horiz-adv-x="547" 
d="M250 425h30q122 0 178 -42t56 -147v-43q0 -107 -55.5 -153.5t-177.5 -46.5h-18q-109 0 -160.5 27t-70.5 85h111q11 -20 39.5 -28.5t86.5 -8.5q82 0 111 25q31 25 31 92v13h-5q-26 -50 -170 -50q-118 0 -163 30t-45 104v5q0 73 55.5 105.5t166.5 32.5zM271 352
q-77 0 -106.5 -14t-29.5 -49v-11q0 -34 30 -48t106 -14q77 0 107 14t30 48v11q0 35 -30 49t-107 14z" />
    <glyph glyph-name="G.alt" horiz-adv-x="1124" 
d="M1036 388v-388h-106v121h-6q-51 -131 -337 -131h-89q-233 0 -332 75.5t-99 246.5v76q0 172 99 247t332 75h116q191 0 291.5 -51t128.5 -163h-131q-22 64 -94.5 90.5t-220.5 26.5h-64q-105 0 -170.5 -13t-102.5 -44.5t-50.5 -74.5t-13.5 -112v-38q0 -69 13.5 -112
t50.5 -74.5t102.5 -44.5t170.5 -13h63q183 0 254.5 45t74.5 159h-396v97h516z" />
    <glyph glyph-name="Gcircumflex.alt" horiz-adv-x="1124" 
d="M636 860l149 -120h-109l-120 87l-120 -87h-109l149 120h160zM1036 388v-388h-106v121h-6q-51 -131 -337 -131h-89q-233 0 -332 75.5t-99 246.5v76q0 172 99 247t332 75h116q191 0 291.5 -51t128.5 -163h-131q-22 64 -94.5 90.5t-220.5 26.5h-64q-105 0 -170.5 -13
t-102.5 -44.5t-50.5 -74.5t-13.5 -112v-38q0 -69 13.5 -112t50.5 -74.5t102.5 -44.5t170.5 -13h63q183 0 254.5 45t74.5 159h-396v97h516z" />
    <glyph glyph-name="Gbreve.alt" horiz-adv-x="1124" 
d="M556 732q-103 0 -150.5 31t-51.5 97h87q1 -69 115 -69q112 0 115 69h87q-4 -66 -52 -97t-150 -31zM1036 388v-388h-106v121h-6q-51 -131 -337 -131h-89q-233 0 -332 75.5t-99 246.5v76q0 172 99 247t332 75h116q191 0 291.5 -51t128.5 -163h-131q-22 64 -94.5 90.5
t-220.5 26.5h-64q-105 0 -170.5 -13t-102.5 -44.5t-50.5 -74.5t-13.5 -112v-38q0 -69 13.5 -112t50.5 -74.5t102.5 -44.5t170.5 -13h63q183 0 254.5 45t74.5 159h-396v97h516z" />
    <glyph glyph-name="Gdotaccent.alt" horiz-adv-x="1124" 
d="M502 846h109v-87h-109v87zM1036 388v-388h-106v121h-6q-51 -131 -337 -131h-89q-233 0 -332 75.5t-99 246.5v76q0 172 99 247t332 75h116q191 0 291.5 -51t128.5 -163h-131q-22 64 -94.5 90.5t-220.5 26.5h-64q-105 0 -170.5 -13t-102.5 -44.5t-50.5 -74.5t-13.5 -112
v-38q0 -69 13.5 -112t50.5 -74.5t102.5 -44.5t170.5 -13h63q183 0 254.5 45t74.5 159h-396v97h516z" />
    <glyph glyph-name="Gcommaaccent.alt" horiz-adv-x="1124" 
d="M1036 388v-388h-106v121h-6q-51 -131 -337 -131h-89q-233 0 -332 75.5t-99 246.5v76q0 172 99 247t332 75h116q191 0 291.5 -51t128.5 -163h-131q-22 64 -94.5 90.5t-220.5 26.5h-64q-105 0 -170.5 -13t-102.5 -44.5t-50.5 -74.5t-13.5 -112v-38q0 -69 13.5 -112
t50.5 -74.5t102.5 -44.5t170.5 -13h63q183 0 254.5 45t74.5 159h-396v97h516zM576 -149l-18 -21h-69l50 59v7h-68v58h144v-14q0 -28 -8 -46t-31 -43z" />
    <glyph glyph-name="J.alt" horiz-adv-x="872" 
d="M437 -10h-41q-165 0 -248 47.5t-106 166.5l-3 15h120l3 -10q21 -64 74 -93t177 -29h8q99 0 156 22t77.5 59t20.5 97v435h120v-428q0 -151 -79.5 -216.5t-278.5 -65.5z" />
    <glyph glyph-name="Jcircumflex.alt" horiz-adv-x="872" 
d="M815 860l149 -120h-109l-120 87l-120 -87h-109l149 120h160zM437 -10h-41q-165 0 -248 47.5t-106 166.5l-3 15h120l3 -10q21 -64 74 -93t177 -29h8q99 0 156 22t77.5 59t20.5 97v435h120v-428q0 -151 -79.5 -216.5t-278.5 -65.5z" />
    <glyph glyph-name="K.alt" horiz-adv-x="1091" 
d="M213 700v-700h-118v700h118zM424 354l646 -354h-208l-634 350l637 350h192z" />
    <glyph glyph-name="Kcommaaccent.alt" horiz-adv-x="1091" 
d="M213 700v-700h-118v700h118zM424 354l646 -354h-208l-634 350l637 350h192zM555 -149l-18 -21h-69l50 59v7h-68v58h144v-14q0 -28 -8 -46t-31 -43z" />
    <glyph glyph-name="Q.alt" horiz-adv-x="1113" 
d="M632 -10h-18h-116q-233 0 -332 75t-99 247v76q0 172 99 247t332 75h116q233 0 332.5 -75t99.5 -247v-76q0 -139 -64 -213.5t-207 -97.5l218 -171h-164zM523 87h66q104 0 170 13.5t103 44.5t50.5 74t13.5 111v39q0 68 -13.5 111t-50.5 74.5t-103 45t-170 13.5h-66
q-105 0 -170.5 -13.5t-102.5 -45t-50 -74t-13 -111.5v-39q0 -54 8 -91t29.5 -68t59.5 -48.5t96.5 -26.5t142.5 -9z" />
    <glyph glyph-name="R.alt" horiz-adv-x="1028" 
d="M213 293v-293h-118v700h590q148 0 210 -42t62 -143v-37q0 -101 -62 -143t-210 -42h-15l306 -293h-154l-300 293h-309zM645 608h-432v-223h432q115 0 154.5 22t39.5 85v9q0 63 -39.5 85t-154.5 22z" />
    <glyph glyph-name="Racute.alt" horiz-adv-x="1028" 
d="M724 860l-136 -120h-112l109 120h139zM213 293v-293h-118v700h590q148 0 210 -42t62 -143v-37q0 -101 -62 -143t-210 -42h-15l306 -293h-154l-300 293h-309zM645 608h-432v-223h432q115 0 154.5 22t39.5 85v9q0 63 -39.5 85t-154.5 22z" />
    <glyph glyph-name="Rcaron.alt" horiz-adv-x="1028" 
d="M526 773l120 87h109l-149 -120h-160l-149 120h109zM213 293v-293h-118v700h590q148 0 210 -42t62 -143v-37q0 -101 -62 -143t-210 -42h-15l306 -293h-154l-300 293h-309zM645 608h-432v-223h432q115 0 154.5 22t39.5 85v9q0 63 -39.5 85t-154.5 22z" />
    <glyph glyph-name="Rcommaaccent.alt" horiz-adv-x="1028" 
d="M213 293v-293h-118v700h590q148 0 210 -42t62 -143v-37q0 -101 -62 -143t-210 -42h-15l306 -293h-154l-300 293h-309zM645 608h-432v-223h432q115 0 154.5 22t39.5 85v9q0 63 -39.5 85t-154.5 22zM528 -149l-18 -21h-69l50 59v7h-68v58h144v-14q0 -28 -8 -46t-31 -43z
" />
    <glyph glyph-name="a.alt" horiz-adv-x="835" 
d="M764 530v-530h-109v100h-4q-51 -110 -263 -110h-34q-151 0 -228 59t-77 191v49q0 137 79 194t226 57h34q212 0 263 -110h4v100h109zM407 79q131 0 189.5 34.5t58.5 127.5v39q0 99 -58 135t-190 36t-190.5 -36t-58.5 -135v-30q0 -99 58.5 -135t190.5 -36z" />
    <glyph glyph-name="agrave.alt" horiz-adv-x="835" 
d="M346 700l109 -120h-113l-135 120h139zM764 530v-530h-109v100h-4q-51 -110 -263 -110h-34q-151 0 -228 59t-77 191v49q0 137 79 194t226 57h34q212 0 263 -110h4v100h109zM407 79q131 0 189.5 34.5t58.5 127.5v39q0 99 -58 135t-190 36t-190.5 -36t-58.5 -135v-30
q0 -99 58.5 -135t190.5 -36z" />
    <glyph glyph-name="aacute.alt" horiz-adv-x="835" 
d="M591 700l-136 -120h-112l109 120h139zM764 530v-530h-109v100h-4q-51 -110 -263 -110h-34q-151 0 -228 59t-77 191v49q0 137 79 194t226 57h34q212 0 263 -110h4v100h109zM407 79q131 0 189.5 34.5t58.5 127.5v39q0 99 -58 135t-190 36t-190.5 -36t-58.5 -135v-30
q0 -99 58.5 -135t190.5 -36z" />
    <glyph glyph-name="acircumflex.alt" horiz-adv-x="835" 
d="M478 700l149 -120h-109l-120 87l-120 -87h-109l149 120h160zM764 530v-530h-109v100h-4q-51 -110 -263 -110h-34q-151 0 -228 59t-77 191v49q0 137 79 194t226 57h34q212 0 263 -110h4v100h109zM407 79q131 0 189.5 34.5t58.5 127.5v39q0 99 -58 135t-190 36t-190.5 -36
t-58.5 -135v-30q0 -99 58.5 -135t190.5 -36z" />
    <glyph glyph-name="atilde.alt" horiz-adv-x="835" 
d="M485 589q-36 0 -95 21t-77 21q-38 0 -49 -37h-70q10 52 37.5 75t76.5 23q35 0 94 -21.5t77 -21.5q38 0 51 38h72q-18 -98 -117 -98zM764 530v-530h-109v100h-4q-51 -110 -263 -110h-34q-151 0 -228 59t-77 191v49q0 137 79 194t226 57h34q212 0 263 -110h4v100h109z
M407 79q131 0 189.5 34.5t58.5 127.5v39q0 99 -58 135t-190 36t-190.5 -36t-58.5 -135v-30q0 -99 58.5 -135t190.5 -36z" />
    <glyph glyph-name="adieresis.alt" horiz-adv-x="835" 
d="M235 681h92v-87h-92v87zM469 681h92v-87h-92v87zM764 530v-530h-109v100h-4q-51 -110 -263 -110h-34q-151 0 -228 59t-77 191v49q0 137 79 194t226 57h34q212 0 263 -110h4v100h109zM407 79q131 0 189.5 34.5t58.5 127.5v39q0 99 -58 135t-190 36t-190.5 -36t-58.5 -135
v-30q0 -99 58.5 -135t190.5 -36z" />
    <glyph glyph-name="amacron.alt" horiz-adv-x="835" 
d="M590 666v-56h-384v56h384zM764 530v-530h-109v100h-4q-51 -110 -263 -110h-34q-151 0 -228 59t-77 191v49q0 137 79 194t226 57h34q212 0 263 -110h4v100h109zM407 79q131 0 189.5 34.5t58.5 127.5v39q0 99 -58 135t-190 36t-190.5 -36t-58.5 -135v-30q0 -99 58.5 -135
t190.5 -36z" />
    <glyph glyph-name="abreve.alt" horiz-adv-x="835" 
d="M398 572q-102 0 -150 31.5t-52 96.5h87q1 -69 115 -69q112 0 115 69h87q-4 -65 -52.5 -96.5t-149.5 -31.5zM764 530v-530h-109v100h-4q-51 -110 -263 -110h-34q-151 0 -228 59t-77 191v49q0 137 79 194t226 57h34q212 0 263 -110h4v100h109zM407 79q131 0 189.5 34.5
t58.5 127.5v39q0 99 -58 135t-190 36t-190.5 -36t-58.5 -135v-30q0 -99 58.5 -135t190.5 -36z" />
    <glyph glyph-name="aring.alt" horiz-adv-x="835" 
d="M398 567q-83 0 -121.5 24.5t-38.5 78.5t38.5 78.5t121.5 24.5t121 -24.5t38 -78.5t-38 -78.5t-121 -24.5zM398 617q47 0 67 12.5t20 40.5t-20 40.5t-67 12.5t-67 -12.5t-20 -40.5t20 -40.5t67 -12.5zM764 530v-530h-109v100h-4q-51 -110 -263 -110h-34q-151 0 -228 59
t-77 191v49q0 137 79 194t226 57h34q212 0 263 -110h4v100h109zM407 79q131 0 189.5 34.5t58.5 127.5v39q0 99 -58 135t-190 36t-190.5 -36t-58.5 -135v-30q0 -99 58.5 -135t190.5 -36z" />
    <glyph glyph-name="aringacute.alt" horiz-adv-x="835" 
d="M591 920l-136 -120h-112l109 120h139zM399 561q-83 0 -121.5 24.5t-38.5 78.5t38.5 78.5t121.5 24.5t121 -24.5t38 -78.5t-38 -78.5t-121 -24.5zM399 611q47 0 67 12.5t20 40.5t-20 40.5t-67 12.5t-67 -12.5t-20 -40.5t20 -40.5t67 -12.5zM764 530v-530h-109v100h-4
q-51 -110 -263 -110h-34q-151 0 -228 59t-77 191v49q0 137 79 194t226 57h34q212 0 263 -110h4v100h109zM407 79q131 0 189.5 34.5t58.5 127.5v39q0 99 -58 135t-190 36t-190.5 -36t-58.5 -135v-30q0 -99 58.5 -135t190.5 -36z" />
    <glyph glyph-name="aogonek.alt" horiz-adv-x="835" 
d="M764 -85v-55h-91q-60 0 -88 16.5t-28 52.5q0 32 18.5 51t79.5 37v83h-4q-51 -110 -263 -110h-34q-151 0 -228 59t-77 191v49q0 137 79 194t226 57h34q212 0 263 -110h4v100h109v-530q-69 -17 -87 -28t-18 -30q0 -15 10 -21t36 -6h59zM407 79q131 0 189.5 34.5t58.5 127.5
v39q0 99 -58 135t-190 36t-190.5 -36t-58.5 -135v-30q0 -99 58.5 -135t190.5 -36z" />
    <glyph glyph-name="a.superior.alt" horiz-adv-x="665" 
d="M613 700v-420h-100v78h-4q-39 -86 -206 -86h-24q-117 0 -179.5 44.5t-62.5 148.5v50q0 104 62.5 148.5t179.5 44.5h24q167 0 206 -86h4v78h100zM326 350q37 0 63 2.5t51 10t40 20.5t24 35.5t9 53.5v35q0 74 -45.5 98.5t-141.5 24.5q-97 0 -143 -24.5t-46 -98.5v-35
q0 -31 9 -53.5t24 -35.5t40.5 -20.5t52 -10t63.5 -2.5z" />
    <glyph glyph-name="k.alt" horiz-adv-x="767" 
d="M180 700v-700h-109v700h109zM353 286l400 -286h-162l-395 284l372 246h157z" />
    <glyph glyph-name="kcommaaccent.alt" horiz-adv-x="781" 
d="M187 700v-700h-109v700h109zM360 286l400 -286h-162l-395 284l372 246h157zM406 -149l-18 -21h-69l50 59v7h-68v58h144v-14q0 -28 -8 -46t-31 -43z" />
    <glyph glyph-name="k.superior.alt" horiz-adv-x="606" 
d="M152 834v-554h-100v554h100zM595 280h-142l-293 232l278 188h136l-277 -186z" />
    <glyph glyph-name="ampersand.alt" horiz-adv-x="1137" 
d="M878 320v-320h-513q-145 0 -211 46.5t-66 154.5v8q0 83 34.5 121.5t95.5 46.5v4q-51 7 -80.5 42.5t-29.5 96.5v6q0 93 60.5 133.5t201.5 40.5h456v-94h-440q-89 0 -124.5 -20.5t-35.5 -71.5v-6q0 -53 38 -73.5t142 -20.5h359v91h113v-91h259v-94h-259zM396 94h369v226
h-366q-117 0 -155 -19t-38 -86v-4q0 -69 43 -93t147 -24z" />
    <glyph glyph-name="registered.alt" horiz-adv-x="994" 
d="M557 -10h-120q-215 0 -310 75t-95 229v112q0 154 95 229t310 75h120q215 0 310 -75t95 -229v-112q0 -154 -95 -229t-310 -75zM454 25h86q115 0 191 18t117.5 57.5t58 91t16.5 127.5v62q0 76 -16.5 127.5t-58 91t-117.5 57.5t-191 18h-86q-115 0 -190.5 -18t-117.5 -57.5
t-58 -91t-16 -127.5v-62q0 -76 16 -127.5t58 -91t117.5 -57.5t190.5 -18zM357 311v-171h-101v420h347q96 0 135.5 -25.5t39.5 -87.5v-22q0 -61 -37 -86t-128 -27l181 -172h-131l-174 171h-132zM573 490h-216v-115h216q61 0 82.5 11.5t21.5 43.5v5q0 32 -21.5 43.5
t-82.5 11.5z" />
    <glyph glyph-name="NULL" horiz-adv-x="0" 
 />
    <glyph glyph-name="CR" horiz-adv-x="304" 
 />
    </font>
</defs>
</svg>
