<svg xmlns="http://www.w3.org/2000/svg">
<defs>
<font id="PilatExtended-Bold" horiz-adv-x="996" >
  <font-face 
    font-family="Pilat Extended"
    font-weight="700"
    font-stretch="expanded"
    units-per-em="1000"
    panose-1="2 11 8 7 3 0 0 0 0 4"
    ascent="750"
    descent="-250"
    x-height="530"
    cap-height="700"
    bbox="-150 -185 2045 1080"
    underline-thickness="91"
    underline-position="-272"
    unicode-range="U+0020-FB00"
  />
<missing-glyph horiz-adv-x="700" 
d="M369 -80q-113 0 -190 78.5t-77 187.5v18l-19 31q-15 25 -9 53q6 29 31 44l7 4q18 13 43 11q-7 24 0.5 46t28.5 35l7 4q20 12 41 11l-76 120q-12 21 -12 39q0 30 21.5 52.5t51.5 22.5q42 0 65 -35l139 -221v224q0 31 21.5 53t52.5 22t52.5 -22t21.5 -53v-286
q30 -15 48 -43t18 -63v-62q0 -65 -30 -126t-92.5 -103t-143.5 -42zM451 645v-274h66q8 0 22 -2v276q0 18 -13 31t-31 13t-31 -13t-13 -31zM182 579l127 -203l24 -37q13 32 50 32h33l-160 255q-12 20 -37 20q-18 0 -31 -13t-13 -31q0 -12 7 -23zM313 220l8 5q13 9 17 24.5
t-5 30.5l-72 114q-9 14 -25 17.5t-29 -4.5l-8 -5q-13 -9 -17 -25.5t5 -29.5l72 -114q9 -14 25 -17.5t29 4.5zM359 138q0 25 12.5 50t29.5 33q-16 1 -34 15q-7 -25 -29 -37l-7 -4q-18 -11 -43 -11q8 -23 -0.5 -45.5t-28.5 -35.5l-8 -5q-24 -15 -51.5 -8.5t-44.5 31.5l-20 30
q10 -85 78.5 -143t154.5 -58q99 0 168 71.5t69 169.5v62q0 36 -26 62t-62 26h-134q-10 0 -17 -7.5t-7 -19.5q0 -27 19 -47.5t48 -20.5h42q6 0 10.5 -4.5t4.5 -10.5t-4.5 -10.5t-10.5 -4.5q-34 0 -55.5 -23.5t-21.5 -54.5q0 -6 -5 -10.5t-11 -4.5t-11 4.5t-5 10.5zM235 124
l8 5q13 9 17 24.5t-5 30.5l-72 114q-9 14 -25 17.5t-29 -4.5l-8 -5q-13 -9 -17 -25.5t5 -29.5l72 -114q9 -14 25 -17.5t29 4.5z" />
    <glyph glyph-name="f_f" unicode="ff" horiz-adv-x="1014" 
d="M164 402h-145v128h146q7 97 66.5 133.5t182.5 36.5h129v-119h-89q-60 0 -86 -10t-26 -35v-6h273q7 97 66.5 133.5t182.5 36.5h129v-119h-89q-60 0 -86 -10t-26 -35v-6h201v-128h-201v-402h-178v402h-272v-402h-178v402z" />
    <glyph glyph-name=".notdef" horiz-adv-x="700" 
d="M369 -80q-113 0 -190 78.5t-77 187.5v18l-19 31q-15 25 -9 53q6 29 31 44l7 4q18 13 43 11q-7 24 0.5 46t28.5 35l7 4q20 12 41 11l-76 120q-12 21 -12 39q0 30 21.5 52.5t51.5 22.5q42 0 65 -35l139 -221v224q0 31 21.5 53t52.5 22t52.5 -22t21.5 -53v-286
q30 -15 48 -43t18 -63v-62q0 -65 -30 -126t-92.5 -103t-143.5 -42zM451 645v-274h66q8 0 22 -2v276q0 18 -13 31t-31 13t-31 -13t-13 -31zM182 579l127 -203l24 -37q13 32 50 32h33l-160 255q-12 20 -37 20q-18 0 -31 -13t-13 -31q0 -12 7 -23zM313 220l8 5q13 9 17 24.5
t-5 30.5l-72 114q-9 14 -25 17.5t-29 -4.5l-8 -5q-13 -9 -17 -25.5t5 -29.5l72 -114q9 -14 25 -17.5t29 4.5zM359 138q0 25 12.5 50t29.5 33q-16 1 -34 15q-7 -25 -29 -37l-7 -4q-18 -11 -43 -11q8 -23 -0.5 -45.5t-28.5 -35.5l-8 -5q-24 -15 -51.5 -8.5t-44.5 31.5l-20 30
q10 -85 78.5 -143t154.5 -58q99 0 168 71.5t69 169.5v62q0 36 -26 62t-62 26h-134q-10 0 -17 -7.5t-7 -19.5q0 -27 19 -47.5t48 -20.5h42q6 0 10.5 -4.5t4.5 -10.5t-4.5 -10.5t-10.5 -4.5q-34 0 -55.5 -23.5t-21.5 -54.5q0 -6 -5 -10.5t-11 -4.5t-11 4.5t-5 10.5zM235 124
l8 5q13 9 17 24.5t-5 30.5l-72 114q-9 14 -25 17.5t-29 -4.5l-8 -5q-13 -9 -17 -25.5t5 -29.5l72 -114q9 -14 25 -17.5t29 4.5z" />
    <glyph glyph-name=".null" horiz-adv-x="0" 
 />
    <glyph glyph-name="nonmarkingreturn" horiz-adv-x="333" 
 />
    <glyph glyph-name="space" unicode=" " horiz-adv-x="276" 
 />
    <glyph glyph-name="exclam" unicode="!" horiz-adv-x="349" 
d="M62 407v293h226v-293l-47 -157h-133zM278 0h-207v169h207v-169z" />
    <glyph glyph-name="quotedbl" unicode="&#x22;" horiz-adv-x="519" 
d="M215 700v-296h-140v296h140zM444 700v-296h-140v296h140z" />
    <glyph glyph-name="numbersign" unicode="#" 
d="M674 0h-133l23 161h-179l-23 -161h-133l23 161h-187v116h200l21 146h-187v117h200l23 160h133l-23 -160h179l23 160h133l-23 -160h187v-117h-202l-19 -146h187v-116h-201zM605 429h-191l-23 -158h191z" />
    <glyph glyph-name="dollar" unicode="$" 
d="M566 11v-116h-112v115q-66 1 -118 5.5t-105 16.5t-90.5 31t-66 51.5t-40.5 75.5h209q18 -27 80 -38.5t181 -11.5q147 0 203 16t56 61v5q0 30 -26.5 42t-106.5 15l-294 10q-159 4 -220 45t-61 135v12q0 107 92.5 156t296.5 53v115h112v-116q180 -5 273.5 -46.5
t117.5 -132.5h-210q-17 28 -69 39t-177 11q-130 0 -182 -14t-52 -52v-4q0 -31 26 -42.5t108 -14.5l294 -10q158 -4 219 -46t61 -136v-10q0 -114 -95 -164.5t-304 -55.5z" />
    <glyph glyph-name="percent" unicode="%" horiz-adv-x="1119" 
d="M274 327h-15q-127 0 -179 40t-52 141v20q0 101 52 141.5t179 40.5h15q127 0 179.5 -40.5t52.5 -141.5v-20q0 -101 -52.5 -141t-179.5 -40zM831 700l-428 -700h-116l428 700h116zM266 434q60 0 82 16t22 64v9q0 47 -22 63t-82 16q-59 0 -80.5 -16t-21.5 -63v-9
q0 -48 21.5 -64t80.5 -16zM859 -10h-15q-128 0 -179.5 40t-51.5 141v20q0 100 52 141t179 41h15q127 0 179.5 -41t52.5 -141v-20q0 -101 -52 -141t-180 -40zM852 96q59 0 81 16.5t22 64.5v9q0 45 -22.5 61.5t-80.5 16.5t-80.5 -16.5t-22.5 -61.5v-9q0 -48 22 -64.5t81 -16.5
z" />
    <glyph glyph-name="ampersand" unicode="&#x26;" horiz-adv-x="1134" 
d="M1122 143v-143h-49q-94 0 -169 39l-48 24q-55 -39 -137.5 -56t-218.5 -17h-99q-185 0 -278 50.5t-93 170.5v5q0 85 43.5 132.5t148.5 67.5v4q-64 34 -64 108v7q0 58 32 95.5t110.5 58.5t207.5 21h32q134 0 211 -23t109 -64.5t43 -113.5h-192q-7 34 -46.5 48t-119.5 14
h-27q-83 0 -117.5 -12t-34.5 -37v-4q0 -18 19 -33t65 -38l381 -191l109 176h190l-158 -247l39 -20q48 -22 92 -22h19zM419 130h74q134 0 195 18l-339 171q-74 -9 -104.5 -30t-30.5 -61v-4q0 -50 47 -72t158 -22z" />
    <glyph glyph-name="quotesingle" unicode="'" horiz-adv-x="290" 
d="M215 700v-296h-140v296h140z" />
    <glyph glyph-name="parenleft" unicode="(" horiz-adv-x="379" 
d="M336 1v-91q-258 29 -258 368v54q0 339 258 368v-91q-152 -29 -152 -276v-56q0 -247 152 -276z" />
    <glyph glyph-name="parenright" unicode=")" horiz-adv-x="379" 
d="M43 609v91q258 -29 258 -368v-54q0 -339 -258 -368v91q152 29 152 276v56q0 247 -152 276z" />
    <glyph glyph-name="asterisk" unicode="*" horiz-adv-x="432" 
d="M373 382l-87 -64l-67 105h-6l-67 -105l-87 64l78 97l-1 4l-120 38l36 101l117 -47l5 4l-8 121h100l-8 -121l5 -4l117 47l36 -101l-120 -38l-1 -4z" />
    <glyph glyph-name="plus" unicode="+" horiz-adv-x="600" 
d="M244 273h-195v112h195v205h112v-205h195v-112h-195v-205h-112v205z" />
    <glyph glyph-name="comma" unicode="," horiz-adv-x="349" 
d="M210 -116l-18 -24h-125l90 131v9h-86v169h211v-103q0 -45 -16 -84.5t-56 -97.5z" />
    <glyph glyph-name="hyphen" unicode="-" horiz-adv-x="381" 
d="M361 222h-342v141h342v-141z" />
    <glyph glyph-name="period" unicode="." horiz-adv-x="349" 
d="M278 0h-207v169h207v-169z" />
    <glyph glyph-name="slash" unicode="/" horiz-adv-x="528" 
d="M110 -100h-110l418 800h110z" />
    <glyph glyph-name="zero" unicode="0" horiz-adv-x="1094" 
d="M595 -11h-95q-244 0 -346 74t-102 255v63q0 181 102 255t346 74h95q243 0 345 -74.5t102 -253.5v-63q0 -181 -102 -255.5t-345 -74.5zM547 133q99 0 158.5 10t92.5 36t44 61.5t11 96.5v25q0 61 -11 96.5t-44 61.5t-92.5 36t-158.5 10t-158.5 -10t-92.5 -36t-44 -61.5
t-11 -96.5v-25q0 -61 11 -96.5t44 -61.5t92.5 -36t158.5 -10z" />
    <glyph glyph-name="one" unicode="1" horiz-adv-x="635" 
d="M549 700v-700h-188v555h-7l-339 -146v177l290 114h244z" />
    <glyph glyph-name="two" unicode="2" 
d="M944 140v-140h-892v132q0 128 64.5 187t225.5 72l280 25q78 7 105 21t27 50v5q0 42 -49 58.5t-186 16.5q-136 0 -185 -12t-70 -53h-196q29 120 126 164t286 44h65q208 0 303 -47.5t95 -154.5v-15q0 -100 -55 -149.5t-202 -63.5l-335 -30q-63 -6 -87.5 -25t-24.5 -61v-24
h705z" />
    <glyph glyph-name="three" unicode="3" 
d="M547 -10h-80q-205 0 -306.5 48t-120.5 167h193q16 -42 74 -57t198 -15q155 0 210 17.5t55 66.5v4q0 35 -29 51t-93 16h-338v137h335q55 0 80 14t25 47v6q0 42 -51 58.5t-185 16.5q-122 0 -174.5 -13.5t-71.5 -48.5h-195q29 109 121.5 157t280.5 48h59q215 0 311.5 -42.5
t96.5 -133.5v-9q0 -64 -32.5 -97.5t-103.5 -41.5v-8q85 -8 120.5 -46.5t35.5 -119.5v-10q0 -115 -93.5 -163.5t-321.5 -48.5z" />
    <glyph glyph-name="four" unicode="4" 
d="M854 161v-161h-187v161h-616v239l515 300h288v-399h109v-140h-109zM198 309v-8h469v278h-8z" />
    <glyph glyph-name="five" unicode="5" 
d="M563 -10h-98q-187 0 -282 46t-123 159h195q17 -35 72 -48.5t179 -13.5q146 0 201.5 20.5t55.5 73.5v16q0 56 -51 75t-207 19q-121 0 -179.5 -11.5t-79.5 -38.5h-173l45 413h782v-140h-613l-21 -149h7q26 35 98.5 50.5t217.5 15.5q201 0 283 -54.5t82 -181.5v-13
q0 -127 -92.5 -182.5t-298.5 -55.5z" />
    <glyph glyph-name="six" unicode="6" 
d="M561 -10h-102q-220 0 -313.5 74t-93.5 245v64q0 181 94 259t310 78h77q196 0 289.5 -46.5t117.5 -150.5h-197q-14 32 -63 43.5t-178 11.5q-161 0 -214 -37t-53 -145v-6h7q22 42 95.5 60.5t217.5 18.5q151 0 235 -21t118.5 -65.5t34.5 -124.5v-28q0 -121 -91.5 -175.5
t-290.5 -54.5zM498 128q149 0 202.5 19t53.5 73v14q0 53 -54 73t-202 20q-149 0 -203.5 -20t-54.5 -73v-14q0 -54 54 -73t204 -19z" />
    <glyph glyph-name="seven" unicode="7" 
d="M952 552l-522 -552h-250l539 552v9h-679v139h912v-148z" />
    <glyph glyph-name="eight" unicode="8" 
d="M558 -10h-121q-95 0 -161.5 9t-121 32t-81.5 66.5t-27 109.5v11q1 76 38.5 114.5t121.5 48.5v7q-69 11 -103 44.5t-34 93.5v8q0 93 93.5 134.5t294.5 41.5h80q202 0 295.5 -41.5t93.5 -134.5v-8q0 -60 -34.5 -93.5t-103.5 -44.5v-7q84 -10 122 -48.5t39 -113.5v-12
q0 -66 -27 -109.5t-81.5 -66.5t-121 -32t-161.5 -9zM385 426h224q68 0 96 16t28 52v5q0 43 -47.5 58t-188.5 15t-188 -15t-47 -58v-5q0 -36 28 -52t95 -16zM497 128q105 0 160.5 8t78 26t22.5 52v4q0 43 -35.5 62t-118.5 19h-214q-82 0 -117 -19t-35 -62v-4q0 -34 22 -52
t77.5 -26t159.5 -8z" />
    <glyph glyph-name="nine" unicode="9" 
d="M435 710h102q220 0 313.5 -74t93.5 -245v-64q0 -181 -94 -259t-310 -78h-77q-196 0 -289.5 46.5t-117.5 150.5h197q14 -32 63 -43.5t178 -11.5q161 0 214 37t53 145v6h-7q-22 -42 -95.5 -60.5t-217.5 -18.5q-151 0 -235 21t-118.5 65.5t-34.5 124.5v28q0 121 91.5 175.5
t290.5 54.5zM498 572q-149 0 -202.5 -19t-53.5 -73v-14q0 -53 54 -73t202 -20q149 0 203.5 20t54.5 73v14q0 54 -54 73t-204 19z" />
    <glyph glyph-name="colon" unicode=":" horiz-adv-x="349" 
d="M278 361h-207v169h207v-169zM278 0h-207v169h207v-169z" />
    <glyph glyph-name="semicolon" unicode=";" horiz-adv-x="349" 
d="M280 361h-207v169h207v-169zM210 -116l-18 -24h-125l90 131v9h-86v169h211v-103q0 -45 -16 -84.5t-56 -97.5z" />
    <glyph glyph-name="less" unicode="&#x3c;" horiz-adv-x="600" 
d="M530 213v-122l-457 182v111l457 182v-122l-304 -113v-5z" />
    <glyph glyph-name="equal" unicode="=" horiz-adv-x="600" 
d="M531 394h-462v112h462v-112zM531 151h-462v112h462v-112z" />
    <glyph glyph-name="greater" unicode="&#x3e;" horiz-adv-x="600" 
d="M73 444v122l457 -182v-111l-457 -182v122l304 113v5z" />
    <glyph glyph-name="question" unicode="?" horiz-adv-x="788" 
d="M477 245h-199v13q0 46 32.5 71t122.5 53q93 28 118.5 48t25.5 59v4q0 42 -39.5 59t-129.5 17q-97 0 -140.5 -21.5t-51.5 -89.5h-183q4 72 32 122t79 78t113.5 40t144.5 12h17q341 0 341 -201v-15q0 -84 -42.5 -129.5t-158.5 -77.5q-74 -22 -82 -42zM480 0h-207v165h207
v-165z" />
    <glyph glyph-name="at" unicode="@" horiz-adv-x="1173" 
d="M564 -154q-269 0 -401.5 90t-132.5 293v24q0 205 144 318t418 113q276 0 413.5 -89t137.5 -276v-7q0 -296 -273 -296q-88 0 -120 24t-37 72h-6q-27 -42 -70.5 -60t-123.5 -18h-18q-117 0 -174.5 50t-44.5 167v8q14 122 77.5 171.5t181.5 49.5h20q71 0 117.5 -20.5
t60.5 -57.5h5l8 70h167l-36 -297q-5 -43 5 -59t44 -16q60 0 92 57.5t32 147.5v7q0 156 -110.5 223t-351.5 67q-229 0 -347.5 -92t-118.5 -258v-19q0 -167 110.5 -236.5t336.5 -69.5q179 0 296 30v-80q-103 -31 -301 -31zM565 144q76 0 113.5 21.5t44.5 84.5l3 21
q8 60 -24.5 79.5t-108.5 19.5q-75 0 -112 -21.5t-45 -84.5l-3 -21q-7 -60 25 -79.5t107 -19.5z" />
    <glyph glyph-name="A" unicode="A" horiz-adv-x="1161" 
d="M731 700l418 -700h-221l-92 154h-513l-92 -154h-219l418 700h301zM584 579h-8l-166 -277h338z" />
    <glyph glyph-name="B" unicode="B" horiz-adv-x="1061" 
d="M1007 206v-15q0 -106 -67.5 -148.5t-234.5 -42.5h-628v700h607q166 0 234.5 -36.5t68.5 -131.5v-10q0 -76 -33 -113t-97 -46v-5q72 -6 110.5 -41t39.5 -111zM663 552h-390v-124h395q70 0 96.5 12.5t26.5 46.5v4q0 35 -27 48t-101 13zM662 288h-389v-140h389
q88 0 118.5 13.5t30.5 54.5v4q0 42 -30.5 55t-118.5 13z" />
    <glyph glyph-name="C" unicode="C" horiz-adv-x="1094" 
d="M606 -10h-108q-244 0 -345 74.5t-101 260.5v50q0 186 101 260.5t345 74.5h108q216 0 318 -57t121 -196h-201q-12 38 -39.5 59.5t-83 32t-149.5 10.5h-39q-119 0 -179.5 -19.5t-81 -59.5t-20.5 -119v-23q0 -78 20.5 -118t81 -59.5t179.5 -19.5h39q94 0 149.5 10.5t83 32
t39.5 59.5h201q-19 -139 -121 -196t-318 -57z" />
    <glyph glyph-name="D" unicode="D" horiz-adv-x="1085" 
d="M1033 365v-30q0 -127 -41.5 -198.5t-137.5 -104t-266 -32.5h-511v700h503q254 0 353.5 -74t99.5 -261zM537 549h-264v-398h264q127 0 190.5 19t85 58t21.5 119v4q0 80 -21.5 120t-85 59t-190.5 19z" />
    <glyph glyph-name="E" unicode="E" horiz-adv-x="956" 
d="M891 148v-148h-814v700h814v-148h-618v-128h618v-147h-618v-129h618z" />
    <glyph glyph-name="F" unicode="F" horiz-adv-x="943" 
d="M273 273v-273h-196v700h814v-148h-618v-131h618v-148h-618z" />
    <glyph glyph-name="G" unicode="G" horiz-adv-x="1125" 
d="M620 -10h-110q-251 0 -354.5 74t-103.5 257v59q0 183 103.5 256.5t354.5 73.5h110q208 0 311.5 -50t136.5 -164h-217q-26 37 -80.5 50t-185.5 13h-44q-124 0 -185.5 -18.5t-82.5 -57t-21 -116.5v-34q0 -77 21 -115.5t83 -57t185 -18.5h44q155 0 219 26.5t70 96.5h-346
v146h545v-112q0 -167 -107.5 -238t-345.5 -71z" />
    <glyph glyph-name="H" unicode="H" horiz-adv-x="1109" 
d="M1032 700v-700h-196v274h-563v-274h-196v700h196v-273h563v273h196z" />
    <glyph glyph-name="I" unicode="I" horiz-adv-x="350" 
d="M273 700v-700h-196v700h196z" />
    <glyph glyph-name="J" unicode="J" horiz-adv-x="624" 
d="M188 0h-177v154h108q150 0 200 32.5t50 121.5v392h197v-386q0 -89 -16.5 -146t-59.5 -96t-115.5 -55.5t-186.5 -16.5z" />
    <glyph glyph-name="K" unicode="K" horiz-adv-x="1118" 
d="M273 220v-220h-196v700h196v-307h5l519 307h299l-491 -288l505 -412h-290l-382 313h-6z" />
    <glyph glyph-name="L" unicode="L" horiz-adv-x="872" 
d="M843 162v-162h-766v700h196v-538h570z" />
    <glyph glyph-name="M" unicode="M" horiz-adv-x="1407" 
d="M1330 700v-700h-196v556h-8l-325 -556h-198l-323 556h-7v-556h-196v700h348l284 -489h7l287 489h327z" />
    <glyph glyph-name="N" unicode="N" horiz-adv-x="1158" 
d="M1081 700v-700h-293l-512 526h-7v-526h-192v700h293l511 -527h8v527h192z" />
    <glyph glyph-name="O" unicode="O" horiz-adv-x="1131" 
d="M620 -10h-110q-251 0 -354.5 74.5t-103.5 260.5v50q0 186 103.5 260.5t354.5 74.5h110q251 0 355 -74.5t104 -260.5v-50q0 -186 -104 -260.5t-355 -74.5zM542 141h47q123 0 185.5 19.5t84 59.5t21.5 118v23q0 79 -21.5 119t-84 59.5t-185.5 19.5h-47q-124 0 -186 -19.5
t-83 -59.5t-21 -119v-23q0 -79 21 -118.5t83 -59t186 -19.5z" />
    <glyph glyph-name="P" unicode="P" horiz-adv-x="1031" 
d="M273 212v-212h-196v700h608q170 0 244.5 -53.5t74.5 -187.5v-15q0 -124 -73.5 -178t-245.5 -54h-412zM651 552h-378v-192h379q95 0 125.5 19.5t30.5 71.5v10q0 53 -31 72t-126 19z" />
    <glyph glyph-name="Q" unicode="Q" horiz-adv-x="1131" 
d="M1107 162v-162h-597q-252 0 -355 72t-103 256v47q0 186 103.5 260.5t354.5 74.5h110q247 0 353 -76t106 -230v-29q0 -93 -32.5 -138.5t-100.5 -66.5v-8h161zM542 151h47q123 0 185.5 19.5t84 59.5t21.5 118v13q0 79 -21.5 119t-84 59.5t-185.5 19.5h-47
q-124 0 -186 -19.5t-83 -59.5t-21 -119v-13q0 -79 21 -118.5t83 -59t186 -19.5z" />
    <glyph glyph-name="R" unicode="R" horiz-adv-x="1067" 
d="M273 238v-238h-196v700h626q165 0 233 -40.5t68 -136.5v-35q0 -80 -38 -116.5t-123 -42.5v-5q87 -10 124 -42.5t37 -121.5v-160h-196v142q0 58 -32.5 77t-142.5 19h-360zM633 552h-360v-166h397q80 0 108 16q30 16 30 63v5q0 51 -33.5 66.5t-141.5 15.5z" />
    <glyph glyph-name="S" unicode="S" horiz-adv-x="1043" 
d="M550 -10h-53q-61 0 -109.5 3t-99 11t-89 23t-71 36.5t-54 54.5t-30.5 75h209q22 -38 84.5 -50.5t202.5 -12.5q144 0 203.5 17t60.5 64v6q0 30 -22 44.5t-83 15.5l-344 12q-156 4 -219 48t-63 140v8q0 125 101.5 175t326.5 50h40q90 0 156 -8t129.5 -29t103.5 -64.5
t56 -108.5h-209q-17 41 -79.5 55.5t-185.5 14.5q-141 0 -190 -16.5t-49 -56.5v-2q0 -30 22 -44.5t82 -16.5l344 -12q157 -6 219 -48t62 -137v-8q0 -136 -107.5 -187.5t-344.5 -51.5z" />
    <glyph glyph-name="T" unicode="T" horiz-adv-x="925" 
d="M561 538v-538h-196v538h-344v162h883v-162h-343z" />
    <glyph glyph-name="U" unicode="U" horiz-adv-x="1030" 
d="M576 -10h-122q-156 0 -242 32t-120.5 99t-34.5 188v391h200v-382q0 -103 48.5 -140t189.5 -37h41q140 0 188.5 37t48.5 140v382h199v-391q0 -120 -34.5 -187.5t-120 -99.5t-241.5 -32z" />
    <glyph glyph-name="V" unicode="V" horiz-adv-x="1107" 
d="M1095 700l-418 -700h-247l-418 700h232l314 -535h7l315 535h215z" />
    <glyph glyph-name="W" unicode="W" horiz-adv-x="1512" 
d="M1496 700l-259 -700h-250l-223 505l-225 -505h-265l-259 700h217l188 -521h7l227 521h223l229 -521h7l185 521h198z" />
    <glyph glyph-name="X" unicode="X" horiz-adv-x="1151" 
d="M714 358l425 -358h-273l-293 257h-6l-296 -257h-259l426 361l-403 339h270l273 -237h6l276 237h261z" />
    <glyph glyph-name="Y" unicode="Y" horiz-adv-x="1039" 
d="M618 307v-307h-196v305l-410 395h245l271 -266h8l271 266h220z" />
    <glyph glyph-name="Z" unicode="Z" horiz-adv-x="1006" 
d="M951 152v-152h-896v137l581 411h-547v152h840v-137l-581 -411h603z" />
    <glyph glyph-name="bracketleft" unicode="[" horiz-adv-x="379" 
d="M336 -2v-88h-249v790h249v-88h-147v-614h147z" />
    <glyph glyph-name="backslash" unicode="\" horiz-adv-x="528" 
d="M110 700l418 -800h-110l-418 800h110z" />
    <glyph glyph-name="bracketright" unicode="]" horiz-adv-x="379" 
d="M43 612v88h249v-790h-249v88h147v614h-147z" />
    <glyph glyph-name="asciicircum" unicode="^" horiz-adv-x="600" 
d="M342 700l211 -506h-124l-127 316h-4l-127 -316h-124l211 506h84z" />
    <glyph glyph-name="underscore" unicode="_" horiz-adv-x="762" 
d="M762 -138h-762v91h762v-91z" />
    <glyph glyph-name="grave" unicode="`" horiz-adv-x="500" 
d="M310 700l106 -120h-188l-144 120h226z" />
    <glyph glyph-name="a" unicode="a" horiz-adv-x="781" 
d="M738 317v-317h-179v100h-4q-45 -110 -263 -110q-261 0 -261 170v8q1 144 188 150l340 11v4q0 55 -36 74.5t-125 19.5q-73 0 -107 -12.5t-49 -43.5h-186q25 89 101 129t243 40h25q174 0 243.5 -49.5t69.5 -173.5zM212 170v-4q0 -37 32.5 -52.5t105.5 -15.5q95 0 152 32.5
t57 91.5v9l-254 -9q-49 -2 -71 -14t-22 -38z" />
    <glyph glyph-name="b" unicode="b" horiz-adv-x="852" 
d="M227 0h-178v700h178v-264h5q25 54 86 79t169 25h22q152 0 229.5 -57t77.5 -197v-42q0 -140 -77.5 -197t-229.5 -57h-22q-108 0 -169 25t-86 79h-5v-94zM432 125q113 0 159 24.5t46 102.5v26q0 78 -46 102.5t-159 24.5q-112 0 -158.5 -25t-46.5 -102v-26q0 -78 46 -102.5
t159 -24.5z" />
    <glyph glyph-name="c" unicode="c" horiz-adv-x="806" 
d="M429 -10h-44q-182 0 -265.5 56t-83.5 198v42q0 142 83.5 198t265.5 56h44q170 0 252 -49t96 -143h-183q-22 31 -60 44t-118 13q-112 0 -156.5 -24.5t-44.5 -102.5v-26q0 -78 44.5 -102.5t156.5 -24.5q80 0 118 13t60 44h183q-14 -94 -96 -143t-252 -49z" />
    <glyph glyph-name="d" unicode="d" horiz-adv-x="852" 
d="M803 700v-700h-178v94h-5q-25 -54 -86 -79t-169 -25h-22q-152 0 -229.5 57t-77.5 197v42q0 140 77.5 197t229.5 57h22q108 0 169 -25t86 -79h5v264h178zM420 125q113 0 159 24.5t46 102.5v26q0 77 -46.5 102t-158.5 25q-113 0 -159 -24.5t-46 -102.5v-26q0 -78 46 -102.5
t159 -24.5z" />
    <glyph glyph-name="e" unicode="e" horiz-adv-x="796" 
d="M574 164h182q-22 -93 -98.5 -133.5t-248.5 -40.5h-24q-182 0 -265.5 56t-83.5 198v42q0 142 83.5 198t265.5 56h20q183 0 269 -56.5t86 -197.5v-56h-545q3 -73 43.5 -94.5t139.5 -21.5q88 0 123.5 11t52.5 39zM398 427q-91 0 -133 -19.5t-49 -80.5h365v4q0 56 -44.5 76
t-138.5 20z" />
    <glyph glyph-name="f" unicode="f" horiz-adv-x="564" 
d="M164 402h-145v128h146q7 97 66.5 133.5t182.5 36.5h129v-119h-89q-60 0 -86 -10t-26 -35v-6h201v-128h-201v-402h-178v402z" />
    <glyph glyph-name="g" unicode="g" horiz-adv-x="843" 
d="M444 -170h-53q-143 0 -226.5 34t-117.5 118h196q15 -21 54.5 -29.5t116.5 -8.5q114 0 157.5 27.5t43.5 105.5v58h-5q-25 -52 -81 -76q-55 -24 -164 -24h-11q-153 0 -230 54.5t-77 186.5v23q0 132 77 186.5t230 54.5h11q110 -2 164 -25q55 -23 81 -75h5v90h179v-460
q0 -134 -84.5 -187t-265.5 -53zM421 161q108 0 151 23.5t43 99.5v7q0 74 -43.5 98t-150.5 24q-109 0 -152 -24t-43 -98v-7q0 -75 43 -99t152 -24z" />
    <glyph glyph-name="h" unicode="h" horiz-adv-x="760" 
d="M716 319v-319h-178v290q0 70 -35 92.5t-108 22.5q-84 0 -125.5 -31.5t-41.5 -106.5v-267h-179v700h179v-264h6q53 104 222 104q61 0 104.5 -9t80.5 -32t56 -68t19 -112z" />
    <glyph glyph-name="i" unicode="i" horiz-adv-x="277" 
d="M49 700h179v-110h-179v110zM49 530h179v-530h-179v530z" />
    <glyph glyph-name="j" unicode="j" horiz-adv-x="277" 
d="M49 700h179v-110h-179v110zM49 530h179v-392q0 -125 -16.5 -181t-75.5 -127h-183q59 73 77.5 123.5t18.5 136.5v440z" />
    <glyph glyph-name="k" unicode="k" horiz-adv-x="811" 
d="M228 135v-135h-179v700h179v-396h5l305 226h235l-305 -222l335 -308h-243l-225 209h-5z" />
    <glyph glyph-name="l" unicode="l" horiz-adv-x="277" 
d="M228 700v-700h-179v700h179z" />
    <glyph glyph-name="m" unicode="m" horiz-adv-x="1195" 
d="M1152 319v-319h-179v290q0 70 -31.5 92.5t-97.5 22.5q-78 0 -116 -32t-38 -108v-265h-179v290q0 70 -32 92.5t-98 22.5q-76 0 -114.5 -32t-38.5 -108v-265h-179v530h179v-92h6q47 102 209 102q86 0 142.5 -22.5t83.5 -80.5h7q52 103 223 103q60 0 102.5 -9t78.5 -32
t54 -68t18 -112z" />
    <glyph glyph-name="n" unicode="n" horiz-adv-x="760" 
d="M716 319v-319h-178v290q0 70 -35 92.5t-108 22.5q-84 0 -125.5 -31.5t-41.5 -106.5v-267h-179v530h179v-94h6q53 104 222 104q61 0 104.5 -9t80.5 -32t56 -68t19 -112z" />
    <glyph glyph-name="o" unicode="o" horiz-adv-x="839" 
d="M452 -10h-65q-181 0 -266 56.5t-85 197.5v42q0 141 85 197.5t266 56.5h65q182 0 266.5 -56.5t84.5 -197.5v-42q0 -141 -84.5 -197.5t-266.5 -56.5zM420 125q113 0 159 24.5t46 102.5v26q0 77 -46.5 102t-158.5 25q-113 0 -159 -24.5t-46 -102.5v-26q0 -78 46 -102.5
t159 -24.5z" />
    <glyph glyph-name="p" unicode="p" horiz-adv-x="852" 
d="M49 -170v700h178v-94h5q25 54 86 79t169 25h22q152 0 229.5 -57t77.5 -197v-42q0 -140 -77.5 -197t-229.5 -57h-22q-108 0 -169 25t-86 79h-5v-264h-178zM432 405q-113 0 -159 -24.5t-46 -102.5v-26q0 -77 46.5 -102t158.5 -25q113 0 159 24.5t46 102.5v26
q0 78 -46 102.5t-159 24.5z" />
    <glyph glyph-name="q" unicode="q" horiz-adv-x="852" 
d="M625 530h178v-700h-178v264h-5q-25 -54 -86 -79t-169 -25h-22q-152 0 -229.5 57t-77.5 197v42q0 140 77.5 197t229.5 57h22q108 0 169 -25t86 -79h5v94zM420 405q-113 0 -159 -24.5t-46 -102.5v-26q0 -78 46 -102.5t159 -24.5q112 0 158.5 25t46.5 102v26q0 78 -46 102.5
t-159 24.5z" />
    <glyph glyph-name="r" unicode="r" horiz-adv-x="511" 
d="M460 530h37v-138h-84q-97 0 -141 -29t-44 -104v-259h-179v530h179v-93h5q23 50 78 71.5t149 21.5z" />
    <glyph glyph-name="s" unicode="s" horiz-adv-x="799" 
d="M420 -10h-29q-170 0 -252 34t-104 120h192q18 -23 58.5 -31t125.5 -8q100 0 136.5 12t36.5 42v3q0 22 -22.5 31t-88.5 11l-204 8q-118 4 -167 38.5t-49 110.5v10q0 97 84 133t259 36h14q157 0 234.5 -36t109.5 -118h-194q-32 39 -164 39q-93 0 -126.5 -11t-33.5 -37v-4
q0 -22 23 -31t88 -11l205 -8q118 -5 166.5 -39t48.5 -110v-9q0 -98 -81 -136.5t-266 -38.5z" />
    <glyph glyph-name="t" unicode="t" horiz-adv-x="543" 
d="M152 402h-133v128h133v170h178v-170h185v-128h-185v-167q0 -69 28.5 -89t109.5 -20h47v-126h-109q-143 0 -198.5 46.5t-55.5 161.5v194z" />
    <glyph glyph-name="u" unicode="u" horiz-adv-x="760" 
d="M44 211v319h178v-290q0 -70 35 -92.5t108 -22.5q84 0 125.5 31.5t41.5 106.5v267h179v-530h-179v94h-6q-53 -104 -222 -104q-61 0 -104.5 9t-80.5 32t-56 68t-19 112z" />
    <glyph glyph-name="v" unicode="v" horiz-adv-x="751" 
d="M761 530l-267 -530h-237l-267 530h203l186 -388h9l186 388h187z" />
    <glyph glyph-name="w" unicode="w" horiz-adv-x="1225" 
d="M1218 530l-199 -530h-231l-169 366l-168 -366h-245l-200 530h201l139 -372h7l170 372h200l171 -372h7l139 372h178z" />
    <glyph glyph-name="x" unicode="x" horiz-adv-x="896" 
d="M575 273l306 -273h-246l-187 181h-5l-195 -181h-233l309 272l-286 258h249l170 -163h4l177 163h224z" />
    <glyph glyph-name="y" unicode="y" horiz-adv-x="727" 
d="M737 530l-376 -700h-187l101 169l-285 531h193l185 -356h7l178 356h184z" />
    <glyph glyph-name="z" unicode="z" horiz-adv-x="751" 
d="M715 128v-128h-677v123l407 279h-385v128h633v-123l-409 -279h431z" />
    <glyph glyph-name="braceleft" unicode="{" horiz-adv-x="367" 
d="M324 -2v-88h-56q-100 0 -134 42t-34 151v39q0 65 -15.5 84t-76.5 23v112q61 4 76.5 23t15.5 84v39q0 109 34 151t134 42h56v-88h-30q-54 0 -72.5 -26.5t-18.5 -111.5v-37q0 -69 -19 -94t-91 -36v-4q72 -11 91 -36t19 -94v-37q0 -85 18.5 -111.5t72.5 -26.5h30z" />
    <glyph glyph-name="bar" unicode="|" horiz-adv-x="296" 
d="M196 -100h-96v800h96v-800z" />
    <glyph glyph-name="braceright" unicode="}" horiz-adv-x="367" 
d="M89 -90h-56v88h30q54 0 72.5 26.5t18.5 111.5v37q0 69 19 94t91 36v4q-72 11 -91 36t-19 94v37q0 85 -18.5 111.5t-72.5 26.5h-30v88h56q100 0 134 -42t34 -151v-39q0 -65 15.5 -84t76.5 -23v-112q-61 -4 -76.5 -23t-15.5 -84v-39q0 -109 -34 -151t-134 -42z" />
    <glyph glyph-name="asciitilde" unicode="~" horiz-adv-x="600" 
d="M416 240q-48 0 -124 33t-111 33q-66 0 -112 -61v117q39 56 115 56q47 0 123.5 -33t111.5 -33q64 0 112 61v-118q-42 -55 -115 -55z" />
    <glyph glyph-name="exclamdown" unicode="&#xa1;" horiz-adv-x="349" 
d="M71 530h207v-169h-207v169zM287 123v-293h-226v293l47 157h133z" />
    <glyph glyph-name="cent" unicode="&#xa2;" horiz-adv-x="818" 
d="M472 -10v-95h-112v95q-168 3 -246 60.5t-78 193.5v42q0 136 78 193.5t246 60.5v95h112v-95q155 -6 229 -54t88 -138h-183q-22 31 -62 44t-128 13q-112 0 -156.5 -24.5t-44.5 -102.5v-26q0 -78 44.5 -102.5t156.5 -24.5q88 0 128 13t62 44h183q-14 -90 -88 -138t-229 -54z
" />
    <glyph glyph-name="sterling" unicode="&#xa3;" 
d="M846 395v-90h-484v-166h587v-139h-912v139h141v166h-141v90h141q1 171 92.5 243t279.5 72h40q161 0 256 -53t116 -147h-199q-19 30 -60 43q-42 14 -132 14q-112 0 -160.5 -34t-48.5 -116v-22h484z" />
    <glyph glyph-name="currency" unicode="&#xa4;" horiz-adv-x="600" 
d="M300 161q-46 0 -77 12l-95 -96l-79 79l88 89q-15 38 -15 84t15 84l-88 89l79 79l95 -96q31 12 77 12q45 0 76 -12l96 96l79 -79l-89 -89q15 -38 15 -84t-15 -84l89 -89l-79 -79l-96 96q-31 -12 -76 -12zM300 249q43 0 61.5 18t18.5 62t-18.5 62t-61.5 18q-44 0 -62 -17.5
t-18 -62.5t18 -62.5t62 -17.5z" />
    <glyph glyph-name="yen" unicode="&#xa5;" 
d="M593 240v-240h-187v240h-308v82h308v44l-14 12h-294v82h198l-282 240h253l242 -214h7l241 214h225l-280 -240h199v-82h-295l-13 -11v-45h308v-82h-308z" />
    <glyph glyph-name="brokenbar" unicode="&#xa6;" horiz-adv-x="296" 
d="M196 410h-96v290h96v-290zM196 -100h-96v290h96v-290z" />
    <glyph glyph-name="section" unicode="&#xa7;" horiz-adv-x="883" 
d="M473 -170h-14q-83 0 -141 6.5t-117 25.5t-91 60.5t-35 104.5h157q6 -58 61 -77t171 -19q86 0 132 7.5t61.5 22t15.5 41.5v6q0 28 -25.5 40t-103.5 15l-161 5q-143 5 -214 25.5t-91 52.5t-20 96v5q0 59 30 90t96 41v5q-63 12 -87 44.5t-24 87.5v12q0 105 86 144t279 39h14
q85 0 147.5 -7.5t118.5 -28t86 -61t32 -100.5h-157q-5 55 -60.5 75.5t-171.5 20.5q-86 0 -132 -7.5t-61.5 -22t-15.5 -41.5v-6q0 -28 25 -40t104 -15l161 -5q143 -5 214 -25.5t91 -52.5t20 -96v-5q0 -59 -30 -90t-96 -41v-5q63 -12 87.5 -44.5t24.5 -87.5v-12
q0 -105 -86.5 -144t-279.5 -39zM455 195q103 0 149 5.5t64 19.5t18 45v9q0 31 -17 45.5t-63.5 20t-149.5 5.5q-102 0 -149 -5.5t-64.5 -20t-17.5 -45.5v-9q0 -19 5.5 -30.5t18.5 -20t41 -12.5t65.5 -5.5t99.5 -1.5z" />
    <glyph glyph-name="dieresis" unicode="&#xa8;" horiz-adv-x="500" 
d="M57 691h143v-110h-143v110zM299 691h144v-110h-144v110z" />
    <glyph glyph-name="copyright" unicode="&#xa9;" horiz-adv-x="994" 
d="M557 -10h-120q-215 0 -310 75t-95 229v112q0 154 95 229t310 75h120q215 0 310 -75t95 -229v-112q0 -154 -95 -229t-310 -75zM454 25h86q115 0 191 18t117.5 57.5t58 91t16.5 127.5v62q0 76 -16.5 127.5t-58 91t-117.5 57.5t-191 18h-86q-115 0 -190.5 -18t-117.5 -57.5
t-58 -91t-16 -127.5v-62q0 -76 16 -127.5t58 -91t117.5 -57.5t190.5 -18zM539 134h-62q-154 0 -216 44t-62 159v26q0 115 62 159t216 44h62q137 0 198.5 -33.5t74.5 -117.5l1 -10h-157l-2 5q-9 29 -37 39t-103 10h-13q-92 0 -118.5 -20t-26.5 -82v-14q0 -62 26.5 -82
t118.5 -20h13q75 0 103 10t37 39l2 5h157l-1 -11q-13 -83 -74.5 -116.5t-198.5 -33.5z" />
    <glyph glyph-name="ordfeminine" unicode="&#xaa;" horiz-adv-x="627" 
d="M595 530v-250h-160v80h-4q-30 -88 -204 -88q-205 0 -205 135v7q0 59 39.5 87t120.5 31l253 9v4q0 40 -25 53t-91 13q-54 0 -77 -8t-34 -30h-168q25 78 93 107q66 28 189 28h17q145 0 200.5 -39t55.5 -139zM184 418v-4q0 -25 22.5 -35.5t74.5 -10.5q71 0 112.5 24t41.5 66
v6l-184 -8q-36 -1 -51.5 -9.5t-15.5 -28.5z" />
    <glyph glyph-name="guillemotleft" unicode="&#xab;" horiz-adv-x="483" 
d="M42 289v6l84 219h118l-87 -222l87 -222h-118zM233 289v6l84 219h118l-87 -222l87 -222h-118z" />
    <glyph glyph-name="logicalnot" unicode="&#xac;" horiz-adv-x="600" 
d="M551 385v-317h-112v205h-389v112h501z" />
    <glyph glyph-name="registered" unicode="&#xae;" horiz-adv-x="994" 
d="M557 -10h-120q-215 0 -310 75t-95 229v112q0 154 95 229t310 75h120q215 0 310 -75t95 -229v-112q0 -154 -95 -229t-310 -75zM454 25h86q115 0 191 18t117.5 57.5t58 91t16.5 127.5v62q0 76 -16.5 127.5t-58 91t-117.5 57.5t-191 18h-86q-115 0 -190.5 -18t-117.5 -57.5
t-58 -91t-16 -127.5v-62q0 -76 16 -127.5t58 -91t117.5 -57.5t190.5 -18zM390 273v-133h-153v420h359q107 0 150.5 -24.5t43.5 -82.5v-21q0 -50 -25 -72.5t-84 -24.5v-4q62 -6 85.5 -25t23.5 -75v-91h-153v84q0 29 -17 39t-77 10h-153zM543 461h-153v-90h184q34 0 48.5 9
t14.5 32v3q0 27 -18.5 36.5t-75.5 9.5z" />
    <glyph glyph-name="overscore" unicode="&#xaf;" horiz-adv-x="500" 
d="M466 674v-74h-433v74h433z" />
    <glyph glyph-name="degree" unicode="&#xb0;" horiz-adv-x="417" 
d="M208 405q-64 0 -109.5 43.5t-45.5 108.5q0 66 45.5 109.5t109.5 43.5t109.5 -43.5t45.5 -109.5t-45.5 -109t-109.5 -43zM208 478q33 0 55.5 22.5t22.5 56.5q0 35 -22.5 57.5t-55.5 22.5t-55.5 -22.5t-22.5 -57.5q0 -34 22.5 -56.5t55.5 -22.5z" />
    <glyph glyph-name="plusminus" unicode="&#xb1;" horiz-adv-x="600" 
d="M244 393h-155v112h155v125h112v-125h155v-112h-155v-124h-112v124zM511 79h-422v112h422v-112z" />
    <glyph glyph-name="twosuperior" unicode="&#xb2;" horiz-adv-x="576" 
d="M555 485v-105h-532v88q0 78 41 111t149 45l120 12q30 4 41 11t11 20v2q0 18 -17.5 25t-68.5 7q-49 0 -69 -5.5t-30 -23.5h-171q15 79 77.5 106.5t182.5 27.5h10q139 0 197.5 -30.5t58.5 -96.5v-7q0 -63 -35.5 -91.5t-126.5 -38.5l-172 -19q-20 -3 -26.5 -9t-6.5 -19v-10
h367z" />
    <glyph glyph-name="threesuperior" unicode="&#xb3;" horiz-adv-x="576" 
d="M314 374h-36q-59 0 -99.5 5t-77 19t-57 42t-26.5 70h170q8 -18 30 -24.5t69 -6.5q62 0 81 6.5t19 26.5v3q0 27 -50 27h-127v99h116q43 0 43 26v3q0 16 -16.5 23.5t-59.5 7.5q-73 0 -85 -26h-173q16 69 68.5 100t167.5 31h25q131 0 190 -25.5t59 -79.5v-4q0 -40 -20 -58.5
t-71 -23.5v-6q60 -4 84.5 -26.5t24.5 -73.5v-3q0 -70 -57 -102q-56 -30 -192 -30z" />
    <glyph glyph-name="acute" unicode="&#xb4;" horiz-adv-x="500" 
d="M415 700l-145 -120h-187l106 120h226z" />
    <glyph glyph-name="mu" unicode="&#xb5;" horiz-adv-x="766" 
d="M716 530v-530h-178v89h-5q-21 -46 -74 -72.5t-127 -26.5q-102 0 -130 36h-4l18 -182v-14h-167v700h179v-289q0 -69 37 -92.5t117 -23.5t118 23t38 93v289h178z" />
    <glyph glyph-name="paragraph" unicode="&#xb6;" horiz-adv-x="704" 
d="M620 700v-800h-94v706h-130v-706h-94v476h-45q-119 0 -174.5 35t-55.5 122v9q0 92 53.5 125t176.5 33h363z" />
    <glyph glyph-name="middot" unicode="&#xb7;" horiz-adv-x="390" 
d="M299 207h-207v169h207v-169z" />
    <glyph glyph-name="cedilla" unicode="&#xb8;" horiz-adv-x="500" 
d="M136 -140l66 140h165l-50 -140h-181z" />
    <glyph glyph-name="onesuperior" unicode="&#xb9;" horiz-adv-x="422" 
d="M368 800v-420h-161v304h-6l-170 -78v141l136 53h201z" />
    <glyph glyph-name="ordmasculine" unicode="&#xba;" horiz-adv-x="674" 
d="M364 272h-52q-149 0 -217 45t-68 157v32q0 112 68 157t217 45h52q148 0 216 -45t68 -157v-32q0 -112 -68 -157t-216 -45zM338 388q86 0 118 17t32 76v18q0 59 -32 76t-118 17q-87 0 -119 -17t-32 -76v-18q0 -59 32 -76t119 -17z" />
    <glyph glyph-name="guillemotright" unicode="&#xbb;" horiz-adv-x="483" 
d="M249 295v-6l-84 -219h-118l87 222l-87 222h118zM440 295v-6l-84 -219h-118l87 222l-87 222h118z" />
    <glyph glyph-name="onequarter" unicode="&#xbc;" horiz-adv-x="1226" 
d="M368 700v-420h-161v304h-6l-170 -78v141l136 53h201zM836 700l-428 -700h-116l428 700h116zM1136 86v-86h-168v86h-326v170l247 164h247v-227h52v-107h-52zM771 199v-6h197v132h-6z" />
    <glyph glyph-name="onehalf" unicode="&#xbd;" horiz-adv-x="1284" 
d="M368 700v-420h-161v304h-6l-170 -78v141l136 53h201zM836 700l-428 -700h-116l428 700h116zM1235 105v-105h-532v88q0 78 41 111t149 45l120 12q30 4 41 11t11 20v2q0 18 -17.5 25t-68.5 7q-49 0 -69 -5.5t-30 -23.5h-171q15 79 77.5 106.5t182.5 27.5h10
q139 0 197.5 -30.5t58.5 -96.5v-7q0 -63 -35.5 -91.5t-126.5 -38.5l-172 -19q-20 -3 -26.5 -9t-6.5 -19v-10h367z" />
    <glyph glyph-name="threequarters" unicode="&#xbe;" horiz-adv-x="1388" 
d="M314 274h-36q-59 0 -99.5 5t-77 19t-57 42t-26.5 70h170q8 -18 30 -24.5t69 -6.5q62 0 81 6.5t19 26.5v3q0 27 -50 27h-127v99h116q43 0 43 26v3q0 16 -16.5 23.5t-59.5 7.5q-73 0 -85 -26h-173q16 69 68.5 100t167.5 31h25q131 0 190 -25.5t59 -79.5v-4q0 -40 -20 -58.5
t-71 -23.5v-6q60 -4 84.5 -26.5t24.5 -73.5v-3q0 -70 -57 -102q-56 -30 -192 -30zM998 700l-428 -700h-116l428 700h116zM1298 86v-86h-168v86h-326v170l247 164h247v-227h52v-107h-52zM933 199v-6h197v132h-6z" />
    <glyph glyph-name="questiondown" unicode="&#xbf;" horiz-adv-x="788" 
d="M308 530h207v-165h-207v165zM311 285h199v-13q0 -46 -32.5 -71t-122.5 -53q-93 -28 -118.5 -48t-25.5 -59v-4q0 -42 39.5 -59t129.5 -17q96 0 140 21.5t52 89.5h183q-4 -72 -32 -122t-79 -78t-113.5 -40t-144.5 -12h-17q-341 0 -341 201v15q0 84 42.5 129.5t158.5 77.5
q74 22 82 42z" />
    <glyph glyph-name="Agrave" unicode="&#xc0;" horiz-adv-x="1161" 
d="M569 860l106 -120h-188l-144 120h226zM731 700l418 -700h-221l-92 154h-513l-92 -154h-219l418 700h301zM584 579h-8l-166 -277h338z" />
    <glyph glyph-name="Aacute" unicode="&#xc1;" horiz-adv-x="1161" 
d="M819 860l-145 -120h-187l106 120h226zM731 700l418 -700h-221l-92 154h-513l-92 -154h-219l418 700h301zM584 579h-8l-166 -277h338z" />
    <glyph glyph-name="Acircumflex" unicode="&#xc2;" horiz-adv-x="1161" 
d="M708 860l146 -120h-168l-106 72l-106 -72h-168l146 120h256zM731 700l418 -700h-221l-92 154h-513l-92 -154h-219l418 700h301zM584 579h-8l-166 -277h338z" />
    <glyph glyph-name="Atilde" unicode="&#xc3;" horiz-adv-x="1161" 
d="M672 739q-40 0 -102.5 18.5t-76.5 18.5q-16 0 -25 -6t-15 -24h-111q9 64 43.5 90t96.5 26q40 0 102 -19t76 -19q17 0 26 6t15 24h117q-9 -63 -46 -89t-100 -26zM731 700l418 -700h-221l-92 154h-513l-92 -154h-219l418 700h301zM584 579h-8l-166 -277h338z" />
    <glyph glyph-name="Adieresis" unicode="&#xc4;" horiz-adv-x="1161" 
d="M387 859h143v-110h-143v110zM629 859h144v-110h-144v110zM731 700l418 -700h-221l-92 154h-513l-92 -154h-219l418 700h301zM584 579h-8l-166 -277h338z" />
    <glyph glyph-name="Aring" unicode="&#xc5;" horiz-adv-x="1161" 
d="M580 722q-101 0 -145.5 23.5t-44.5 84.5t44.5 84.5t145.5 23.5q100 0 144.5 -24t44.5 -84t-44.5 -84t-144.5 -24zM580 787q42 0 59 10.5t17 32.5t-17 32.5t-59 10.5t-59 -10.5t-17 -32.5t17 -32.5t59 -10.5zM731 700l418 -700h-221l-92 154h-513l-92 -154h-219l418 700
h301zM584 579h-8l-166 -277h338z" />
    <glyph glyph-name="AE" unicode="&#xc6;" horiz-adv-x="1578" 
d="M1513 148v-148h-815v154h-342l-124 -154h-231l570 700h942v-148h-619v-128h619v-147h-619v-129h619zM698 566h-12l-212 -264h224v264z" />
    <glyph glyph-name="Ccedilla" unicode="&#xc7;" horiz-adv-x="1094" 
d="M844 243h201q-19 -135 -115.5 -192.5t-298.5 -60.5l-46 -130h-181l61 130q-225 5 -319 80.5t-94 254.5v50q0 186 101 260.5t345 74.5h108q216 0 318 -57t121 -196h-201q-12 38 -39.5 59.5t-83 32t-149.5 10.5h-39q-119 0 -179.5 -19.5t-81 -59.5t-20.5 -119v-23
q0 -78 20.5 -118t81 -59.5t179.5 -19.5h39q94 0 149.5 10.5t83 32t39.5 59.5z" />
    <glyph glyph-name="Egrave" unicode="&#xc8;" horiz-adv-x="956" 
d="M473 860l106 -120h-188l-144 120h226zM891 148v-148h-814v700h814v-148h-618v-128h618v-147h-618v-129h618z" />
    <glyph glyph-name="Eacute" unicode="&#xc9;" horiz-adv-x="956" 
d="M722 860l-145 -120h-187l106 120h226zM891 148v-148h-814v700h814v-148h-618v-128h618v-147h-618v-129h618z" />
    <glyph glyph-name="Ecircumflex" unicode="&#xca;" horiz-adv-x="956" 
d="M612 860l146 -120h-168l-106 72l-106 -72h-168l146 120h256zM891 148v-148h-814v700h814v-148h-618v-128h618v-147h-618v-129h618z" />
    <glyph glyph-name="Edieresis" unicode="&#xcb;" horiz-adv-x="956" 
d="M291 859h143v-110h-143v110zM533 859h144v-110h-144v110zM891 148v-148h-814v700h814v-148h-618v-128h618v-147h-618v-129h618z" />
    <glyph glyph-name="Igrave" unicode="&#xcc;" horiz-adv-x="350" 
d="M163 860l106 -120h-188l-144 120h226zM273 700v-700h-196v700h196z" />
    <glyph glyph-name="Iacute" unicode="&#xcd;" horiz-adv-x="350" 
d="M413 860l-145 -120h-187l106 120h226zM273 700v-700h-196v700h196z" />
    <glyph glyph-name="Icircumflex" unicode="&#xce;" horiz-adv-x="350" 
d="M303 860l146 -120h-168l-106 72l-106 -72h-168l146 120h256zM273 700v-700h-196v700h196z" />
    <glyph glyph-name="Idieresis" unicode="&#xcf;" horiz-adv-x="350" 
d="M-18 859h143v-110h-143v110zM224 859h144v-110h-144v110zM273 700v-700h-196v700h196z" />
    <glyph glyph-name="Eth" unicode="&#xd0;" horiz-adv-x="1085" 
d="M77 290h-77v120h77v290h503q254 0 353.5 -74t99.5 -261v-30q0 -127 -41.5 -198.5t-137.5 -104t-266 -32.5h-511v290zM536 410v-120h-263v-139h264q127 0 190.5 19t85 58t21.5 119v4q0 80 -21.5 120t-85 59t-190.5 19h-264v-139h263z" />
    <glyph glyph-name="Ntilde" unicode="&#xd1;" horiz-adv-x="1158" 
d="M682 739q-40 0 -102.5 18.5t-76.5 18.5q-16 0 -25 -6t-15 -24h-111q9 64 43.5 90t96.5 26q40 0 102 -19t76 -19q17 0 26 6t15 24h117q-9 -63 -46 -89t-100 -26zM1081 700v-700h-293l-512 526h-7v-526h-192v700h293l511 -527h8v527h192z" />
    <glyph glyph-name="Ograve" unicode="&#xd2;" horiz-adv-x="1131" 
d="M554 860l106 -120h-188l-144 120h226zM620 -10h-110q-251 0 -354.5 74.5t-103.5 260.5v50q0 186 103.5 260.5t354.5 74.5h110q251 0 355 -74.5t104 -260.5v-50q0 -186 -104 -260.5t-355 -74.5zM542 141h47q123 0 185.5 19.5t84 59.5t21.5 118v23q0 79 -21.5 119t-84 59.5
t-185.5 19.5h-47q-124 0 -186 -19.5t-83 -59.5t-21 -119v-23q0 -79 21 -118.5t83 -59t186 -19.5z" />
    <glyph glyph-name="Oacute" unicode="&#xd3;" horiz-adv-x="1131" 
d="M804 860l-145 -120h-187l106 120h226zM620 -10h-110q-251 0 -354.5 74.5t-103.5 260.5v50q0 186 103.5 260.5t354.5 74.5h110q251 0 355 -74.5t104 -260.5v-50q0 -186 -104 -260.5t-355 -74.5zM542 141h47q123 0 185.5 19.5t84 59.5t21.5 118v23q0 79 -21.5 119t-84 59.5
t-185.5 19.5h-47q-124 0 -186 -19.5t-83 -59.5t-21 -119v-23q0 -79 21 -118.5t83 -59t186 -19.5z" />
    <glyph glyph-name="Ocircumflex" unicode="&#xd4;" horiz-adv-x="1131" 
d="M693 860l146 -120h-168l-106 72l-106 -72h-168l146 120h256zM620 -10h-110q-251 0 -354.5 74.5t-103.5 260.5v50q0 186 103.5 260.5t354.5 74.5h110q251 0 355 -74.5t104 -260.5v-50q0 -186 -104 -260.5t-355 -74.5zM542 141h47q123 0 185.5 19.5t84 59.5t21.5 118v23
q0 79 -21.5 119t-84 59.5t-185.5 19.5h-47q-124 0 -186 -19.5t-83 -59.5t-21 -119v-23q0 -79 21 -118.5t83 -59t186 -19.5z" />
    <glyph glyph-name="Otilde" unicode="&#xd5;" horiz-adv-x="1131" 
d="M657 739q-41 0 -102.5 18.5t-76.5 18.5q-16 0 -25 -6t-15 -24h-111q11 64 44.5 90t95.5 26q42 0 102.5 -19t75.5 -19q17 0 26 6t15 24h117q-11 -63 -47 -89t-99 -26zM620 -10h-110q-251 0 -354.5 74.5t-103.5 260.5v50q0 186 103.5 260.5t354.5 74.5h110q251 0 355 -74.5
t104 -260.5v-50q0 -186 -104 -260.5t-355 -74.5zM542 141h47q123 0 185.5 19.5t84 59.5t21.5 118v23q0 79 -21.5 119t-84 59.5t-185.5 19.5h-47q-124 0 -186 -19.5t-83 -59.5t-21 -119v-23q0 -79 21 -118.5t83 -59t186 -19.5z" />
    <glyph glyph-name="Odieresis" unicode="&#xd6;" horiz-adv-x="1131" 
d="M372 859h143v-110h-143v110zM614 859h144v-110h-144v110zM620 -10h-110q-251 0 -354.5 74.5t-103.5 260.5v50q0 186 103.5 260.5t354.5 74.5h110q251 0 355 -74.5t104 -260.5v-50q0 -186 -104 -260.5t-355 -74.5zM542 141h47q123 0 185.5 19.5t84 59.5t21.5 118v23
q0 79 -21.5 119t-84 59.5t-185.5 19.5h-47q-124 0 -186 -19.5t-83 -59.5t-21 -119v-23q0 -79 21 -118.5t83 -59t186 -19.5z" />
    <glyph glyph-name="multiply" unicode="&#xd7;" horiz-adv-x="600" 
d="M221 330l-159 158l79 79l159 -158l160 160l80 -80l-160 -160l158 -159l-79 -79l-158 159l-161 -161l-80 80z" />
    <glyph glyph-name="Oslash" unicode="&#xd8;" horiz-adv-x="1131" 
d="M236 -40h-184l109 101q-109 76 -109 264v50q0 186 103.5 260.5t354.5 74.5h110q136 0 222 -19l53 49h184l-109 -101q109 -76 109 -264v-50q0 -186 -104 -260.5t-355 -74.5h-110q-135 0 -221 19zM252 361v-23q0 -110 47 -149l395 365q-48 5 -105 5h-47q-124 0 -186 -19.5
t-83 -59.5t-21 -119zM542 141h47q123 0 185.5 19.5t84 59.5t21.5 118v23q0 110 -48 150l-396 -366q5 0 43.5 -2t62.5 -2z" />
    <glyph glyph-name="Ugrave" unicode="&#xd9;" horiz-adv-x="1030" 
d="M504 860l106 -120h-188l-144 120h226zM576 -10h-122q-156 0 -242 32t-120.5 99t-34.5 188v391h200v-382q0 -103 48.5 -140t189.5 -37h41q140 0 188.5 37t48.5 140v382h199v-391q0 -120 -34.5 -187.5t-120 -99.5t-241.5 -32z" />
    <glyph glyph-name="Uacute" unicode="&#xda;" horiz-adv-x="1030" 
d="M754 860l-145 -120h-187l106 120h226zM576 -10h-122q-156 0 -242 32t-120.5 99t-34.5 188v391h200v-382q0 -103 48.5 -140t189.5 -37h41q140 0 188.5 37t48.5 140v382h199v-391q0 -120 -34.5 -187.5t-120 -99.5t-241.5 -32z" />
    <glyph glyph-name="Ucircumflex" unicode="&#xdb;" horiz-adv-x="1030" 
d="M644 860l146 -120h-168l-106 72l-106 -72h-168l146 120h256zM576 -10h-122q-156 0 -242 32t-120.5 99t-34.5 188v391h200v-382q0 -103 48.5 -140t189.5 -37h41q140 0 188.5 37t48.5 140v382h199v-391q0 -120 -34.5 -187.5t-120 -99.5t-241.5 -32z" />
    <glyph glyph-name="Udieresis" unicode="&#xdc;" horiz-adv-x="1030" 
d="M323 859h143v-110h-143v110zM565 859h144v-110h-144v110zM576 -10h-122q-156 0 -242 32t-120.5 99t-34.5 188v391h200v-382q0 -103 48.5 -140t189.5 -37h41q140 0 188.5 37t48.5 140v382h199v-391q0 -120 -34.5 -187.5t-120 -99.5t-241.5 -32z" />
    <glyph glyph-name="Yacute" unicode="&#xdd;" horiz-adv-x="1039" 
d="M759 860l-145 -120h-187l106 120h226zM618 307v-307h-196v305l-410 395h245l271 -266h8l271 266h220z" />
    <glyph glyph-name="Thorn" unicode="&#xde;" horiz-adv-x="1031" 
d="M273 113v-113h-196v700h196v-114h412q169 0 244 -51.5t75 -179.5v-20q0 -117 -75.5 -169.5t-243.5 -52.5h-412zM651 438h-378v-177h379q66 0 100.5 9.5t45 26.5t10.5 49v6q0 49 -31 67.5t-126 18.5z" />
    <glyph glyph-name="germandbls" unicode="&#xdf;" horiz-adv-x="905" 
d="M227 486v-486h-178v494q0 64 21.5 107.5t63.5 66.5t93 32.5t121 9.5h120q160 0 233.5 -39.5t73.5 -130.5v-9q0 -101 -108 -118v-5q103 -5 154 -46t51 -142v-13q0 -114 -74 -161q-73 -46 -233 -46h-251v123h216q86 0 120.5 19.5t34.5 66.5v8q0 47 -32 65t-122 18h-217v122
h157q64 0 91 18.5t27 58.5v4q-1 47 -34.5 65.5t-113.5 18.5h-53q-90 0 -125.5 -20.5t-35.5 -80.5z" />
    <glyph glyph-name="agrave" unicode="&#xe0;" horiz-adv-x="781" 
d="M391 700l106 -120h-188l-144 120h226zM738 317v-317h-179v100h-4q-45 -110 -263 -110q-261 0 -261 170v8q1 144 188 150l340 11v4q0 55 -36 74.5t-125 19.5q-73 0 -107 -12.5t-49 -43.5h-186q25 89 101 129t243 40h25q174 0 243.5 -49.5t69.5 -173.5zM212 170v-4
q0 -37 32.5 -52.5t105.5 -15.5q95 0 152 32.5t57 91.5v9l-254 -9q-49 -2 -71 -14t-22 -38z" />
    <glyph glyph-name="aacute" unicode="&#xe1;" horiz-adv-x="781" 
d="M641 700l-145 -120h-187l106 120h226zM738 317v-317h-179v100h-4q-45 -110 -263 -110q-261 0 -261 170v8q1 144 188 150l340 11v4q0 55 -36 74.5t-125 19.5q-73 0 -107 -12.5t-49 -43.5h-186q25 89 101 129t243 40h25q174 0 243.5 -49.5t69.5 -173.5zM212 170v-4
q0 -37 32.5 -52.5t105.5 -15.5q95 0 152 32.5t57 91.5v9l-254 -9q-49 -2 -71 -14t-22 -38z" />
    <glyph glyph-name="acircumflex" unicode="&#xe2;" horiz-adv-x="781" 
d="M530 700l146 -120h-168l-106 72l-106 -72h-168l146 120h256zM738 317v-317h-179v100h-4q-45 -110 -263 -110q-261 0 -261 170v8q1 144 188 150l340 11v4q0 55 -36 74.5t-125 19.5q-73 0 -107 -12.5t-49 -43.5h-186q25 89 101 129t243 40h25q174 0 243.5 -49.5
t69.5 -173.5zM212 170v-4q0 -37 32.5 -52.5t105.5 -15.5q95 0 152 32.5t57 91.5v9l-254 -9q-49 -2 -71 -14t-22 -38z" />
    <glyph glyph-name="atilde" unicode="&#xe3;" horiz-adv-x="781" 
d="M494 579q-40 0 -102.5 18.5t-76.5 18.5q-16 0 -25 -6t-15 -24h-111q9 64 43.5 90t96.5 26q40 0 102 -19t76 -19q17 0 26 6t15 24h117q-9 -63 -46 -89t-100 -26zM738 317v-317h-179v100h-4q-45 -110 -263 -110q-261 0 -261 170v8q1 144 188 150l340 11v4q0 55 -36 74.5
t-125 19.5q-73 0 -107 -12.5t-49 -43.5h-186q25 89 101 129t243 40h25q174 0 243.5 -49.5t69.5 -173.5zM212 170v-4q0 -37 32.5 -52.5t105.5 -15.5q95 0 152 32.5t57 91.5v9l-254 -9q-49 -2 -71 -14t-22 -38z" />
    <glyph glyph-name="adieresis" unicode="&#xe4;" horiz-adv-x="781" 
d="M209 691h143v-110h-143v110zM451 691h144v-110h-144v110zM738 317v-317h-179v100h-4q-45 -110 -263 -110q-261 0 -261 170v8q1 144 188 150l340 11v4q0 55 -36 74.5t-125 19.5q-73 0 -107 -12.5t-49 -43.5h-186q25 89 101 129t243 40h25q174 0 243.5 -49.5t69.5 -173.5z
M212 170v-4q0 -37 32.5 -52.5t105.5 -15.5q95 0 152 32.5t57 91.5v9l-254 -9q-49 -2 -71 -14t-22 -38z" />
    <glyph glyph-name="aring" unicode="&#xe5;" horiz-adv-x="781" 
d="M402 562q-101 0 -145.5 23.5t-44.5 84.5t44.5 84.5t145.5 23.5q100 0 144.5 -24t44.5 -84t-44.5 -84t-144.5 -24zM402 627q42 0 59 10.5t17 32.5t-17 32.5t-59 10.5t-59 -10.5t-17 -32.5t17 -32.5t59 -10.5zM738 317v-317h-179v100h-4q-45 -110 -263 -110
q-261 0 -261 170v8q1 144 188 150l340 11v4q0 55 -36 74.5t-125 19.5q-73 0 -107 -12.5t-49 -43.5h-186q25 89 101 129t243 40h25q174 0 243.5 -49.5t69.5 -173.5zM212 170v-4q0 -37 32.5 -52.5t105.5 -15.5q95 0 152 32.5t57 91.5v9l-254 -9q-49 -2 -71 -14t-22 -38z" />
    <glyph glyph-name="ae" unicode="&#xe6;" horiz-adv-x="1319" 
d="M932 -10h-24q-126 0 -203 25t-113 88h-5q-68 -113 -285 -113q-271 0 -271 170v8q1 144 188 150l340 11v4q0 55 -36 74.5t-125 19.5q-73 0 -107 -12.5t-49 -43.5h-186q25 89 101 129t243 40h24q101 0 156 -17t79 -53h5q51 70 244 70h20q183 0 269 -56.5t86 -197.5v-56
h-545q3 -73 44 -94.5t139 -21.5q88 0 123.5 11t52.5 39h182q-20 -92 -97.5 -133t-249.5 -41zM921 427q-91 0 -133 -19.5t-49 -80.5h365v4q0 56 -44.5 76t-138.5 20zM212 170v-4q0 -37 32.5 -52.5t105.5 -15.5q95 0 152 32t57 91v10l-254 -9q-49 -2 -71 -14t-22 -38z" />
    <glyph glyph-name="ccedilla" unicode="&#xe7;" horiz-adv-x="806" 
d="M594 182h183q-14 -86 -81.5 -133.5t-206.5 -56.5l-47 -132h-181l62 132q-148 8 -217.5 65.5t-69.5 186.5v42q0 142 83.5 198t265.5 56h44q170 0 252 -49t96 -143h-183q-22 31 -60 44t-118 13q-112 0 -156.5 -24.5t-44.5 -102.5v-26q0 -78 44.5 -102.5t156.5 -24.5
q80 0 118 13t60 44z" />
    <glyph glyph-name="egrave" unicode="&#xe8;" horiz-adv-x="796" 
d="M383 700l106 -120h-188l-144 120h226zM574 164h182q-22 -93 -98.5 -133.5t-248.5 -40.5h-24q-182 0 -265.5 56t-83.5 198v42q0 142 83.5 198t265.5 56h20q183 0 269 -56.5t86 -197.5v-56h-545q3 -73 43.5 -94.5t139.5 -21.5q88 0 123.5 11t52.5 39zM398 427
q-91 0 -133 -19.5t-49 -80.5h365v4q0 56 -44.5 76t-138.5 20z" />
    <glyph glyph-name="eacute" unicode="&#xe9;" horiz-adv-x="796" 
d="M634 700l-145 -120h-187l106 120h226zM574 164h182q-22 -93 -98.5 -133.5t-248.5 -40.5h-24q-182 0 -265.5 56t-83.5 198v42q0 142 83.5 198t265.5 56h20q183 0 269 -56.5t86 -197.5v-56h-545q3 -73 43.5 -94.5t139.5 -21.5q88 0 123.5 11t52.5 39zM398 427
q-91 0 -133 -19.5t-49 -80.5h365v4q0 56 -44.5 76t-138.5 20z" />
    <glyph glyph-name="ecircumflex" unicode="&#xea;" horiz-adv-x="796" 
d="M523 700l146 -120h-168l-106 72l-106 -72h-168l146 120h256zM574 164h182q-22 -93 -98.5 -133.5t-248.5 -40.5h-24q-182 0 -265.5 56t-83.5 198v42q0 142 83.5 198t265.5 56h20q183 0 269 -56.5t86 -197.5v-56h-545q3 -73 43.5 -94.5t139.5 -21.5q88 0 123.5 11t52.5 39z
M398 427q-91 0 -133 -19.5t-49 -80.5h365v4q0 56 -44.5 76t-138.5 20z" />
    <glyph glyph-name="edieresis" unicode="&#xeb;" horiz-adv-x="796" 
d="M202 691h143v-110h-143v110zM444 691h144v-110h-144v110zM574 164h182q-22 -93 -98.5 -133.5t-248.5 -40.5h-24q-182 0 -265.5 56t-83.5 198v42q0 142 83.5 198t265.5 56h20q183 0 269 -56.5t86 -197.5v-56h-545q3 -73 43.5 -94.5t139.5 -21.5q88 0 123.5 11t52.5 39z
M398 427q-91 0 -133 -19.5t-49 -80.5h365v4q0 56 -44.5 76t-138.5 20z" />
    <glyph glyph-name="igrave" unicode="&#xec;" horiz-adv-x="292" 
d="M134 700l106 -120h-188l-144 120h226zM56 530h179v-530h-179v530z" />
    <glyph glyph-name="iacute" unicode="&#xed;" horiz-adv-x="292" 
d="M384 700l-145 -120h-187l106 120h226zM56 530h179v-530h-179v530z" />
    <glyph glyph-name="icircumflex" unicode="&#xee;" horiz-adv-x="292" 
d="M273 700l146 -120h-168l-106 72l-106 -72h-168l146 120h256zM56 530h179v-530h-179v530z" />
    <glyph glyph-name="idieresis" unicode="&#xef;" horiz-adv-x="292" 
d="M-48 691h143v-110h-143v110zM194 691h144v-110h-144v110zM56 530h179v-530h-179v530z" />
    <glyph glyph-name="eth" unicode="&#xf0;" horiz-adv-x="830" 
d="M447 -10h-64q-180 0 -263.5 57t-83.5 197v8q0 128 74 186.5t222 58.5q106 0 177 -42l2 3q-20 35 -83 92l-272 -29v98l164 17q-50 36 -105 64h272q39 -23 60 -40l181 19v-98l-83 -9q66 -72 106 -155q42 -83 42 -162v-11q0 -140 -83.5 -197t-262.5 -57zM415 125
q112 0 156 24t44 99v4q0 77 -44 100t-156 23q-111 0 -155.5 -24.5t-44.5 -98.5v-4q0 -75 44 -99t156 -24z" />
    <glyph glyph-name="ntilde" unicode="&#xf1;" horiz-adv-x="760" 
d="M491 579q-41 0 -102.5 18.5t-76.5 18.5q-16 0 -25 -6t-15 -24h-111q11 64 44.5 90t95.5 26q41 0 102 -19t76 -19q17 0 26 6t15 24h117q-11 -63 -47 -89t-99 -26zM716 319v-319h-178v290q0 70 -35 92.5t-108 22.5q-84 0 -125.5 -31.5t-41.5 -106.5v-267h-179v530h179v-94
h6q53 104 222 104q61 0 104.5 -9t80.5 -32t56 -68t19 -112z" />
    <glyph glyph-name="ograve" unicode="&#xf2;" horiz-adv-x="839" 
d="M408 700l106 -120h-188l-144 120h226zM452 -10h-65q-181 0 -266 56.5t-85 197.5v42q0 141 85 197.5t266 56.5h65q182 0 266.5 -56.5t84.5 -197.5v-42q0 -141 -84.5 -197.5t-266.5 -56.5zM420 125q113 0 159 24.5t46 102.5v26q0 77 -46.5 102t-158.5 25q-113 0 -159 -24.5
t-46 -102.5v-26q0 -78 46 -102.5t159 -24.5z" />
    <glyph glyph-name="oacute" unicode="&#xf3;" horiz-adv-x="839" 
d="M658 700l-145 -120h-187l106 120h226zM452 -10h-65q-181 0 -266 56.5t-85 197.5v42q0 141 85 197.5t266 56.5h65q182 0 266.5 -56.5t84.5 -197.5v-42q0 -141 -84.5 -197.5t-266.5 -56.5zM420 125q113 0 159 24.5t46 102.5v26q0 77 -46.5 102t-158.5 25q-113 0 -159 -24.5
t-46 -102.5v-26q0 -78 46 -102.5t159 -24.5z" />
    <glyph glyph-name="ocircumflex" unicode="&#xf4;" horiz-adv-x="839" 
d="M548 700l146 -120h-168l-106 72l-106 -72h-168l146 120h256zM452 -10h-65q-181 0 -266 56.5t-85 197.5v42q0 141 85 197.5t266 56.5h65q182 0 266.5 -56.5t84.5 -197.5v-42q0 -141 -84.5 -197.5t-266.5 -56.5zM420 125q113 0 159 24.5t46 102.5v26q0 77 -46.5 102
t-158.5 25q-113 0 -159 -24.5t-46 -102.5v-26q0 -78 46 -102.5t159 -24.5z" />
    <glyph glyph-name="otilde" unicode="&#xf5;" horiz-adv-x="839" 
d="M512 579q-40 0 -102.5 18.5t-76.5 18.5q-16 0 -25 -6t-15 -24h-111q9 64 43.5 90t96.5 26q40 0 102 -19t76 -19q17 0 26 6t15 24h117q-9 -63 -46 -89t-100 -26zM452 -10h-65q-181 0 -266 56.5t-85 197.5v42q0 141 85 197.5t266 56.5h65q182 0 266.5 -56.5t84.5 -197.5
v-42q0 -141 -84.5 -197.5t-266.5 -56.5zM420 125q113 0 159 24.5t46 102.5v26q0 77 -46.5 102t-158.5 25q-113 0 -159 -24.5t-46 -102.5v-26q0 -78 46 -102.5t159 -24.5z" />
    <glyph glyph-name="odieresis" unicode="&#xf6;" horiz-adv-x="839" 
d="M227 691h143v-110h-143v110zM469 691h144v-110h-144v110zM452 -10h-65q-181 0 -266 56.5t-85 197.5v42q0 141 85 197.5t266 56.5h65q182 0 266.5 -56.5t84.5 -197.5v-42q0 -141 -84.5 -197.5t-266.5 -56.5zM420 125q113 0 159 24.5t46 102.5v26q0 77 -46.5 102t-158.5 25
q-113 0 -159 -24.5t-46 -102.5v-26q0 -78 46 -102.5t159 -24.5z" />
    <glyph glyph-name="divide" unicode="&#xf7;" horiz-adv-x="600" 
d="M355 589v-111h-110v111h110zM511 385v-112h-422v112h422zM355 179v-111h-110v111h110z" />
    <glyph glyph-name="oslash" unicode="&#xf8;" horiz-adv-x="839" 
d="M195 -40h-159l87 86q-87 60 -87 198v42q0 141 85 197.5t266 56.5h65q92 0 157 -13l36 35h158l-82 -81q82 -60 82 -195v-42q0 -141 -84.5 -197.5t-266.5 -56.5h-65q-84 0 -150 12zM215 278v-26q0 -60 29 -89l242 240q-40 2 -66 2q-113 0 -159 -24.5t-46 -102.5zM420 125
q113 0 159 24.5t46 102.5v26q0 57 -25 85l-239 -237q17 -1 59 -1z" />
    <glyph glyph-name="ugrave" unicode="&#xf9;" horiz-adv-x="760" 
d="M365 700l106 -120h-188l-144 120h226zM44 211v319h178v-290q0 -70 35 -92.5t108 -22.5q84 0 125.5 31.5t41.5 106.5v267h179v-530h-179v94h-6q-53 -104 -222 -104q-61 0 -104.5 9t-80.5 32t-56 68t-19 112z" />
    <glyph glyph-name="uacute" unicode="&#xfa;" horiz-adv-x="760" 
d="M615 700l-145 -120h-187l106 120h226zM44 211v319h178v-290q0 -70 35 -92.5t108 -22.5q84 0 125.5 31.5t41.5 106.5v267h179v-530h-179v94h-6q-53 -104 -222 -104q-61 0 -104.5 9t-80.5 32t-56 68t-19 112z" />
    <glyph glyph-name="ucircumflex" unicode="&#xfb;" horiz-adv-x="760" 
d="M505 700l146 -120h-168l-106 72l-106 -72h-168l146 120h256zM44 211v319h178v-290q0 -70 35 -92.5t108 -22.5q84 0 125.5 31.5t41.5 106.5v267h179v-530h-179v94h-6q-53 -104 -222 -104q-61 0 -104.5 9t-80.5 32t-56 68t-19 112z" />
    <glyph glyph-name="udieresis" unicode="&#xfc;" horiz-adv-x="760" 
d="M184 691h143v-110h-143v110zM426 691h144v-110h-144v110zM44 211v319h178v-290q0 -70 35 -92.5t108 -22.5q84 0 125.5 31.5t41.5 106.5v267h179v-530h-179v94h-6q-53 -104 -222 -104q-61 0 -104.5 9t-80.5 32t-56 68t-19 112z" />
    <glyph glyph-name="yacute" unicode="&#xfd;" horiz-adv-x="727" 
d="M608 700l-145 -120h-187l106 120h226zM737 530l-376 -700h-187l101 169l-285 531h193l185 -356h7l178 356h184z" />
    <glyph glyph-name="thorn" unicode="&#xfe;" horiz-adv-x="852" 
d="M228 94v-264h-179v870h179v-264h5q24 54 85.5 79t168.5 25h22q152 0 229.5 -57t77.5 -197v-42q0 -140 -77.5 -197t-229.5 -57h-22q-107 0 -168.5 25t-85.5 79h-5zM432 125q112 0 158.5 25t46.5 102v26q0 78 -46 102.5t-159 24.5t-158.5 -24.5t-45.5 -102.5v-26
q0 -78 45.5 -102.5t158.5 -24.5z" />
    <glyph glyph-name="ydieresis" unicode="&#xff;" horiz-adv-x="727" 
d="M177 691h143v-110h-143v110zM419 691h144v-110h-144v110zM737 530l-376 -700h-187l101 169l-285 531h193l185 -356h7l178 356h184z" />
    <glyph glyph-name="Amacron" unicode="&#x100;" horiz-adv-x="1161" 
d="M796 840v-74h-433v74h433zM731 700l418 -700h-221l-92 154h-513l-92 -154h-219l418 700h301zM584 579h-8l-166 -277h338z" />
    <glyph glyph-name="amacron" unicode="&#x101;" horiz-adv-x="781" 
d="M618 674v-74h-433v74h433zM738 317v-317h-179v100h-4q-45 -110 -263 -110q-261 0 -261 170v8q1 144 188 150l340 11v4q0 55 -36 74.5t-125 19.5q-73 0 -107 -12.5t-49 -43.5h-186q25 89 101 129t243 40h25q174 0 243.5 -49.5t69.5 -173.5zM212 170v-4q0 -37 32.5 -52.5
t105.5 -15.5q95 0 152 32.5t57 91.5v9l-254 -9q-49 -2 -71 -14t-22 -38z" />
    <glyph glyph-name="Abreve" unicode="&#x102;" horiz-adv-x="1161" 
d="M580 731q-125 0 -176.5 30t-62.5 99h142q3 -26 25.5 -37t71.5 -11q48 0 70.5 11t26.5 37h142q-11 -69 -63 -99t-176 -30zM731 700l418 -700h-221l-92 154h-513l-92 -154h-219l418 700h301zM584 579h-8l-166 -277h338z" />
    <glyph glyph-name="abreve" unicode="&#x103;" horiz-adv-x="781" 
d="M402 571q-125 0 -176.5 30t-62.5 99h142q3 -26 25.5 -37t71.5 -11q48 0 70.5 11t26.5 37h142q-11 -69 -63 -99t-176 -30zM738 317v-317h-179v100h-4q-45 -110 -263 -110q-261 0 -261 170v8q1 144 188 150l340 11v4q0 55 -36 74.5t-125 19.5q-73 0 -107 -12.5t-49 -43.5
h-186q25 89 101 129t243 40h25q174 0 243.5 -49.5t69.5 -173.5zM212 170v-4q0 -37 32.5 -52.5t105.5 -15.5q95 0 152 32.5t57 91.5v9l-254 -9q-49 -2 -71 -14t-22 -38z" />
    <glyph glyph-name="Aogonek" unicode="&#x104;" horiz-adv-x="1161" 
d="M1089 -68v-72h-140q-68 0 -99.5 16.5t-31.5 54.5q0 32 18.5 52t79.5 38l-80 133h-513l-92 -154h-219l418 700h301l418 -700h-60q-72 -15 -89.5 -22.5t-17.5 -23.5q0 -12 8 -17t27 -5h72zM584 579h-8l-166 -277h338z" />
    <glyph glyph-name="aogonek" unicode="&#x105;" horiz-adv-x="781" 
d="M738 -68v-72h-140q-69 0 -100 16.5t-31 54.5q0 32 17.5 51.5t74.5 36.5v81h-4q-45 -110 -263 -110q-261 0 -261 170v8q1 144 188 150l340 11v4q0 55 -36 74.5t-125 19.5q-73 0 -107 -12.5t-49 -43.5h-186q25 89 101 129t243 40h25q174 0 243.5 -49.5t69.5 -173.5v-317
q-72 -14 -89.5 -22t-17.5 -24q0 -13 7.5 -17.5t27.5 -4.5h72zM212 170v-4q0 -37 32.5 -52.5t105.5 -15.5q95 0 152 32.5t57 91.5v9l-254 -9q-49 -2 -71 -14t-22 -38z" />
    <glyph glyph-name="Cacute" unicode="&#x106;" horiz-adv-x="1094" 
d="M790 860l-145 -120h-187l106 120h226zM606 -10h-108q-244 0 -345 74.5t-101 260.5v50q0 186 101 260.5t345 74.5h108q216 0 318 -57t121 -196h-201q-12 38 -39.5 59.5t-83 32t-149.5 10.5h-39q-119 0 -179.5 -19.5t-81 -59.5t-20.5 -119v-23q0 -78 20.5 -118t81 -59.5
t179.5 -19.5h39q94 0 149.5 10.5t83 32t39.5 59.5h201q-19 -139 -121 -196t-318 -57z" />
    <glyph glyph-name="cacute" unicode="&#x107;" horiz-adv-x="806" 
d="M645 700l-145 -120h-187l106 120h226zM429 -10h-44q-182 0 -265.5 56t-83.5 198v42q0 142 83.5 198t265.5 56h44q170 0 252 -49t96 -143h-183q-22 31 -60 44t-118 13q-112 0 -156.5 -24.5t-44.5 -102.5v-26q0 -78 44.5 -102.5t156.5 -24.5q80 0 118 13t60 44h183
q-14 -94 -96 -143t-252 -49z" />
    <glyph glyph-name="Ccircumflex" unicode="&#x108;" horiz-adv-x="1094" 
d="M680 860l146 -120h-168l-106 72l-106 -72h-168l146 120h256zM606 -10h-108q-244 0 -345 74.5t-101 260.5v50q0 186 101 260.5t345 74.5h108q216 0 318 -57t121 -196h-201q-12 38 -39.5 59.5t-83 32t-149.5 10.5h-39q-119 0 -179.5 -19.5t-81 -59.5t-20.5 -119v-23
q0 -78 20.5 -118t81 -59.5t179.5 -19.5h39q94 0 149.5 10.5t83 32t39.5 59.5h201q-19 -139 -121 -196t-318 -57z" />
    <glyph glyph-name="ccircumflex" unicode="&#x109;" horiz-adv-x="806" 
d="M535 700l146 -120h-168l-106 72l-106 -72h-168l146 120h256zM429 -10h-44q-182 0 -265.5 56t-83.5 198v42q0 142 83.5 198t265.5 56h44q170 0 252 -49t96 -143h-183q-22 31 -60 44t-118 13q-112 0 -156.5 -24.5t-44.5 -102.5v-26q0 -78 44.5 -102.5t156.5 -24.5
q80 0 118 13t60 44h183q-14 -94 -96 -143t-252 -49z" />
    <glyph glyph-name="Cdotaccent" unicode="&#x10a;" horiz-adv-x="1094" 
d="M462 859h179v-110h-179v110zM606 -10h-108q-244 0 -345 74.5t-101 260.5v50q0 186 101 260.5t345 74.5h108q216 0 318 -57t121 -196h-201q-12 38 -39.5 59.5t-83 32t-149.5 10.5h-39q-119 0 -179.5 -19.5t-81 -59.5t-20.5 -119v-23q0 -78 20.5 -118t81 -59.5t179.5 -19.5
h39q94 0 149.5 10.5t83 32t39.5 59.5h201q-19 -139 -121 -196t-318 -57z" />
    <glyph glyph-name="cdotaccent" unicode="&#x10b;" horiz-adv-x="806" 
d="M318 691h179v-110h-179v110zM429 -10h-44q-182 0 -265.5 56t-83.5 198v42q0 142 83.5 198t265.5 56h44q170 0 252 -49t96 -143h-183q-22 31 -60 44t-118 13q-112 0 -156.5 -24.5t-44.5 -102.5v-26q0 -78 44.5 -102.5t156.5 -24.5q80 0 118 13t60 44h183q-14 -94 -96 -143
t-252 -49z" />
    <glyph glyph-name="Ccaron" unicode="&#x10c;" horiz-adv-x="1094" 
d="M552 788l106 72h168l-146 -120h-256l-146 120h168zM606 -10h-108q-244 0 -345 74.5t-101 260.5v50q0 186 101 260.5t345 74.5h108q216 0 318 -57t121 -196h-201q-12 38 -39.5 59.5t-83 32t-149.5 10.5h-39q-119 0 -179.5 -19.5t-81 -59.5t-20.5 -119v-23q0 -78 20.5 -118
t81 -59.5t179.5 -19.5h39q94 0 149.5 10.5t83 32t39.5 59.5h201q-19 -139 -121 -196t-318 -57z" />
    <glyph glyph-name="ccaron" unicode="&#x10d;" horiz-adv-x="806" 
d="M407 628l106 72h168l-146 -120h-256l-146 120h168zM429 -10h-44q-182 0 -265.5 56t-83.5 198v42q0 142 83.5 198t265.5 56h44q170 0 252 -49t96 -143h-183q-22 31 -60 44t-118 13q-112 0 -156.5 -24.5t-44.5 -102.5v-26q0 -78 44.5 -102.5t156.5 -24.5q80 0 118 13t60 44
h183q-14 -94 -96 -143t-252 -49z" />
    <glyph glyph-name="Dcaron" unicode="&#x10e;" horiz-adv-x="1085" 
d="M531 788l106 72h168l-146 -120h-256l-146 120h168zM1033 365v-30q0 -127 -41.5 -198.5t-137.5 -104t-266 -32.5h-511v700h503q254 0 353.5 -74t99.5 -261zM537 549h-264v-398h264q127 0 190.5 19t85 58t21.5 119v4q0 80 -21.5 120t-85 59t-190.5 19z" />
    <glyph glyph-name="dcaron" unicode="&#x10f;" horiz-adv-x="1059" 
d="M803 700v-700h-178v94h-5q-25 -54 -86 -79t-169 -25h-22q-152 0 -229.5 57t-77.5 197v42q0 140 77.5 197t229.5 57h22q108 0 169 -25t86 -79h5v264h178zM1090 700l-81 -218h-142l34 218h189zM420 125q113 0 159 24.5t46 102.5v26q0 77 -46.5 102t-158.5 25
q-113 0 -159 -24.5t-46 -102.5v-26q0 -78 46 -102.5t159 -24.5z" />
    <glyph glyph-name="Dcroat" unicode="&#x110;" horiz-adv-x="1085" 
d="M77 290h-77v120h77v290h503q254 0 353.5 -74t99.5 -261v-30q0 -127 -41.5 -198.5t-137.5 -104t-266 -32.5h-511v290zM536 410v-120h-263v-139h264q127 0 190.5 19t85 58t21.5 119v4q0 80 -21.5 120t-85 59t-190.5 19h-264v-139h263z" />
    <glyph glyph-name="dslash" unicode="&#x111;" horiz-adv-x="852" 
d="M625 559h-229v107h229v34h178v-34h55v-107h-55v-559h-178v94h-5q-25 -54 -86 -79t-169 -25h-22q-152 0 -229.5 57t-77.5 197v42q0 140 77.5 197t229.5 57h22q108 0 169 -25t86 -79h5v123zM420 125q113 0 159 24.5t46 102.5v26q0 77 -46.5 102t-158.5 25
q-113 0 -159 -24.5t-46 -102.5v-26q0 -78 46 -102.5t159 -24.5z" />
    <glyph glyph-name="Emacron" unicode="&#x112;" horiz-adv-x="956" 
d="M700 840v-74h-433v74h433zM891 148v-148h-814v700h814v-148h-618v-128h618v-147h-618v-129h618z" />
    <glyph glyph-name="emacron" unicode="&#x113;" horiz-adv-x="796" 
d="M611 674v-74h-433v74h433zM574 164h182q-22 -93 -98.5 -133.5t-248.5 -40.5h-24q-182 0 -265.5 56t-83.5 198v42q0 142 83.5 198t265.5 56h20q183 0 269 -56.5t86 -197.5v-56h-545q3 -73 43.5 -94.5t139.5 -21.5q88 0 123.5 11t52.5 39zM398 427q-91 0 -133 -19.5
t-49 -80.5h365v4q0 56 -44.5 76t-138.5 20z" />
    <glyph glyph-name="Ebreve" unicode="&#x114;" horiz-adv-x="956" 
d="M484 731q-125 0 -176.5 30t-62.5 99h142q3 -26 25.5 -37t71.5 -11q48 0 70.5 11t26.5 37h142q-11 -69 -63 -99t-176 -30zM891 148v-148h-814v700h814v-148h-618v-128h618v-147h-618v-129h618z" />
    <glyph glyph-name="ebreve" unicode="&#x115;" horiz-adv-x="796" 
d="M395 571q-124 0 -177 30t-62 99h142q3 -26 25.5 -37t71.5 -11q48 0 70.5 11t26.5 37h142q-9 -69 -62 -99t-177 -30zM574 164h182q-22 -93 -98.5 -133.5t-248.5 -40.5h-24q-182 0 -265.5 56t-83.5 198v42q0 142 83.5 198t265.5 56h20q183 0 269 -56.5t86 -197.5v-56h-545
q3 -73 43.5 -94.5t139.5 -21.5q88 0 123.5 11t52.5 39zM398 427q-91 0 -133 -19.5t-49 -80.5h365v4q0 56 -44.5 76t-138.5 20z" />
    <glyph glyph-name="Edotaccent" unicode="&#x116;" horiz-adv-x="956" 
d="M395 859h179v-110h-179v110zM891 148v-148h-814v700h814v-148h-618v-128h618v-147h-618v-129h618z" />
    <glyph glyph-name="edotaccent" unicode="&#x117;" horiz-adv-x="796" 
d="M306 691h179v-110h-179v110zM574 164h182q-22 -93 -98.5 -133.5t-248.5 -40.5h-24q-182 0 -265.5 56t-83.5 198v42q0 142 83.5 198t265.5 56h20q183 0 269 -56.5t86 -197.5v-56h-545q3 -73 43.5 -94.5t139.5 -21.5q88 0 123.5 11t52.5 39zM398 427q-91 0 -133 -19.5
t-49 -80.5h365v4q0 56 -44.5 76t-138.5 20z" />
    <glyph glyph-name="Eogonek" unicode="&#x118;" horiz-adv-x="956" 
d="M892 -68v-72h-140q-69 0 -100 16.5t-31 54.5q0 47 42 69h-586v700h814v-148h-618v-128h618v-147h-618v-129h618v-93h1v-55q-72 -14 -89.5 -22t-17.5 -24q0 -13 7.5 -17.5t27.5 -4.5h72z" />
    <glyph glyph-name="eogonek" unicode="&#x119;" horiz-adv-x="796" 
d="M687 -66v-74h-162q-57 0 -82.5 14t-25.5 49q0 45 39 64v5q-42 -3 -79 -3q-179 0 -260 61t-81 194v42q0 142 83.5 198t265.5 56h20q183 0 269 -56.5t86 -197.5v-56h-545q3 -73 43.5 -94.5t139.5 -21.5q88 0 123.5 11t52.5 39h182q-10 -50 -36 -82.5t-81 -61.5
q-35 -18 -47 -30t-12 -29q0 -16 8 -21.5t27 -5.5h72zM398 427q-91 0 -133 -19.5t-49 -80.5h365v4q0 56 -44.5 76t-138.5 20z" />
    <glyph glyph-name="Ecaron" unicode="&#x11a;" horiz-adv-x="956" 
d="M484 788l106 72h168l-146 -120h-256l-146 120h168zM891 148v-148h-814v700h814v-148h-618v-128h618v-147h-618v-129h618z" />
    <glyph glyph-name="ecaron" unicode="&#x11b;" horiz-adv-x="796" 
d="M395 628l106 72h168l-146 -120h-256l-146 120h168zM574 164h182q-22 -93 -98.5 -133.5t-248.5 -40.5h-24q-182 0 -265.5 56t-83.5 198v42q0 142 83.5 198t265.5 56h20q183 0 269 -56.5t86 -197.5v-56h-545q3 -73 43.5 -94.5t139.5 -21.5q88 0 123.5 11t52.5 39zM398 427
q-91 0 -133 -19.5t-49 -80.5h365v4q0 56 -44.5 76t-138.5 20z" />
    <glyph glyph-name="Gcircumflex" unicode="&#x11c;" horiz-adv-x="1125" 
d="M693 860l146 -120h-168l-106 72l-106 -72h-168l146 120h256zM620 -10h-110q-251 0 -354.5 74t-103.5 257v59q0 183 103.5 256.5t354.5 73.5h110q208 0 311.5 -50t136.5 -164h-217q-26 37 -80.5 50t-185.5 13h-44q-124 0 -185.5 -18.5t-82.5 -57t-21 -116.5v-34
q0 -77 21 -115.5t83 -57t185 -18.5h44q155 0 219 26.5t70 96.5h-346v146h545v-112q0 -167 -107.5 -238t-345.5 -71z" />
    <glyph glyph-name="gcircumflex" unicode="&#x11d;" horiz-adv-x="843" 
d="M529 700l146 -120h-168l-106 72l-106 -72h-168l146 120h256zM444 -170h-53q-143 0 -226.5 34t-117.5 118h196q15 -21 54.5 -29.5t116.5 -8.5q114 0 157.5 27.5t43.5 105.5v58h-5q-25 -52 -81 -76q-55 -24 -164 -24h-11q-153 0 -230 54.5t-77 186.5v23q0 132 77 186.5
t230 54.5h11q110 -2 164 -25q55 -23 81 -75h5v90h179v-460q0 -134 -84.5 -187t-265.5 -53zM421 161q108 0 151 23.5t43 99.5v7q0 74 -43.5 98t-150.5 24q-109 0 -152 -24t-43 -98v-7q0 -75 43 -99t152 -24z" />
    <glyph glyph-name="Gbreve" unicode="&#x11e;" horiz-adv-x="1125" 
d="M565 731q-124 0 -177 30t-62 99h142q3 -26 25.5 -37t71.5 -11q48 0 70.5 11t26.5 37h142q-9 -69 -62 -99t-177 -30zM620 -10h-110q-251 0 -354.5 74t-103.5 257v59q0 183 103.5 256.5t354.5 73.5h110q208 0 311.5 -50t136.5 -164h-217q-26 37 -80.5 50t-185.5 13h-44
q-124 0 -185.5 -18.5t-82.5 -57t-21 -116.5v-34q0 -77 21 -115.5t83 -57t185 -18.5h44q155 0 219 26.5t70 96.5h-346v146h545v-112q0 -167 -107.5 -238t-345.5 -71z" />
    <glyph glyph-name="gbreve" unicode="&#x11f;" horiz-adv-x="843" 
d="M401 571q-124 0 -177 30t-62 99h142q3 -26 25.5 -37t71.5 -11q48 0 70.5 11t26.5 37h142q-9 -69 -62 -99t-177 -30zM444 -170h-53q-143 0 -226.5 34t-117.5 118h196q15 -21 54.5 -29.5t116.5 -8.5q114 0 157.5 27.5t43.5 105.5v58h-5q-25 -52 -81 -76q-55 -24 -164 -24
h-11q-153 0 -230 54.5t-77 186.5v23q0 132 77 186.5t230 54.5h11q110 -2 164 -25q55 -23 81 -75h5v90h179v-460q0 -134 -84.5 -187t-265.5 -53zM421 161q108 0 151 23.5t43 99.5v7q0 74 -43.5 98t-150.5 24q-109 0 -152 -24t-43 -98v-7q0 -75 43 -99t152 -24z" />
    <glyph glyph-name="Gdotaccent" unicode="&#x120;" horiz-adv-x="1125" 
d="M476 859h179v-110h-179v110zM620 -10h-110q-251 0 -354.5 74t-103.5 257v59q0 183 103.5 256.5t354.5 73.5h110q208 0 311.5 -50t136.5 -164h-217q-26 37 -80.5 50t-185.5 13h-44q-124 0 -185.5 -18.5t-82.5 -57t-21 -116.5v-34q0 -77 21 -115.5t83 -57t185 -18.5h44
q155 0 219 26.5t70 96.5h-346v146h545v-112q0 -167 -107.5 -238t-345.5 -71z" />
    <glyph glyph-name="gdotaccent" unicode="&#x121;" horiz-adv-x="843" 
d="M312 691h179v-110h-179v110zM444 -170h-53q-143 0 -226.5 34t-117.5 118h196q15 -21 54.5 -29.5t116.5 -8.5q114 0 157.5 27.5t43.5 105.5v58h-5q-25 -52 -81 -76q-55 -24 -164 -24h-11q-153 0 -230 54.5t-77 186.5v23q0 132 77 186.5t230 54.5h11q110 -2 164 -25
q55 -23 81 -75h5v90h179v-460q0 -134 -84.5 -187t-265.5 -53zM421 161q108 0 151 23.5t43 99.5v7q0 74 -43.5 98t-150.5 24q-109 0 -152 -24t-43 -98v-7q0 -75 43 -99t152 -24z" />
    <glyph glyph-name="Gcommaaccent" unicode="&#x122;" horiz-adv-x="1125" 
d="M620 -10h-110q-251 0 -354.5 74t-103.5 257v59q0 183 103.5 256.5t354.5 73.5h110q208 0 311.5 -50t136.5 -164h-217q-26 37 -80.5 50t-185.5 13h-44q-124 0 -185.5 -18.5t-82.5 -57t-21 -116.5v-34q0 -77 21 -115.5t83 -57t185 -18.5h44q155 0 219 26.5t70 96.5h-346
v146h545v-112q0 -167 -107.5 -238t-345.5 -71zM613 -152l-20 -18h-104l56 53v8h-80v73h198v-19q0 -32 -10.5 -50.5t-39.5 -46.5z" />
    <glyph glyph-name="gcommaaccent" unicode="&#x123;" horiz-adv-x="843" 
d="M353 696l19 18h104l-56 -53v-8h80v-73h-198v19q0 32 10.5 51t40.5 46zM444 -170h-53q-143 0 -226.5 34t-117.5 118h196q15 -21 54.5 -29.5t116.5 -8.5q114 0 157.5 27.5t43.5 105.5v58h-5q-25 -52 -81 -76q-55 -24 -164 -24h-11q-153 0 -230 54.5t-77 186.5v23
q0 132 77 186.5t230 54.5h11q110 -2 164 -25q55 -23 81 -75h5v90h179v-460q0 -134 -84.5 -187t-265.5 -53zM421 161q108 0 151 23.5t43 99.5v7q0 74 -43.5 98t-150.5 24q-109 0 -152 -24t-43 -98v-7q0 -75 43 -99t152 -24z" />
    <glyph glyph-name="Hcircumflex" unicode="&#x124;" horiz-adv-x="1109" 
d="M682 860l146 -120h-168l-106 72l-106 -72h-168l146 120h256zM1032 700v-700h-196v274h-563v-274h-196v700h196v-273h563v273h196z" />
    <glyph glyph-name="hcircumflex" unicode="&#x125;" horiz-adv-x="760" 
d="M266 870l146 -120h-168l-106 72l-106 -72h-168l146 120h256zM716 319v-319h-178v290q0 70 -35 92.5t-108 22.5q-84 0 -125.5 -31.5t-41.5 -106.5v-267h-179v700h179v-264h6q53 104 222 104q61 0 104.5 -9t80.5 -32t56 -68t19 -112z" />
    <glyph glyph-name="Hbar" unicode="&#x126;" horiz-adv-x="1109" 
d="M77 502h-77v116h77v82h196v-82h563v82h196v-82h77v-116h-77v-502h-196v274h-563v-274h-196v502zM273 502v-75h563v75h-563z" />
    <glyph glyph-name="hbar" unicode="&#x127;" horiz-adv-x="760" 
d="M49 559h-55v107h55v34h179v-34h228v-107h-228v-123h6q53 104 222 104q61 0 104.5 -9t80.5 -32t56 -68t19 -112v-319h-178v290q0 70 -35 92.5t-108 22.5q-84 0 -125.5 -31.5t-41.5 -106.5v-267h-179v559z" />
    <glyph glyph-name="Itilde" unicode="&#x128;" horiz-adv-x="350" 
d="M267 739q-41 0 -102.5 18.5t-76.5 18.5q-16 0 -25 -6t-15 -24h-111q11 64 44.5 90t95.5 26q41 0 102 -19t76 -19q17 0 26 6t15 24h117q-11 -63 -47 -89t-99 -26zM273 700v-700h-196v700h196z" />
    <glyph glyph-name="itilde" unicode="&#x129;" horiz-adv-x="292" 
d="M237 579q-41 0 -102.5 18.5t-76.5 18.5q-16 0 -25 -6t-15 -24h-111q11 64 44.5 90t95.5 26q41 0 102 -19t76 -19q17 0 26 6t15 24h117q-11 -63 -47 -89t-99 -26zM56 530h179v-530h-179v530z" />
    <glyph glyph-name="Imacron" unicode="&#x12a;" horiz-adv-x="350" 
d="M391 840v-74h-433v74h433zM273 700v-700h-196v700h196z" />
    <glyph glyph-name="imacron" unicode="&#x12b;" horiz-adv-x="292" 
d="M361 674v-74h-433v74h433zM56 530h179v-530h-179v530z" />
    <glyph glyph-name="Ibreve" unicode="&#x12c;" horiz-adv-x="350" 
d="M175 731q-124 0 -177 30t-62 99h142q3 -26 25.5 -37t71.5 -11q48 0 70.5 11t26.5 37h142q-9 -69 -62 -99t-177 -30zM273 700v-700h-196v700h196z" />
    <glyph glyph-name="ibreve" unicode="&#x12d;" horiz-adv-x="292" 
d="M145 571q-124 0 -177 30t-62 99h142q3 -26 25.5 -37t71.5 -11q48 0 70.5 11t26.5 37h142q-9 -69 -62 -99t-177 -30zM56 530h179v-530h-179v530z" />
    <glyph glyph-name="Iogonek" unicode="&#x12e;" horiz-adv-x="350" 
d="M273 -68v-72h-140q-68 0 -99.5 16.5t-31.5 54.5q0 29 15 48t60 35v686h196v-700q-72 -15 -89.5 -22.5t-17.5 -23.5q0 -12 8 -17t27 -5h72z" />
    <glyph glyph-name="iogonek" unicode="&#x12f;" horiz-adv-x="292" 
d="M56 700h179v-110h-179v110zM235 -68v-72h-140q-68 0 -99.5 16.5t-31.5 54.5q0 32 17.5 51.5t74.5 36.5v511h179v-530q-72 -15 -89.5 -22.5t-17.5 -23.5q0 -12 8 -17t27 -5h72z" />
    <glyph glyph-name="Idot" unicode="&#x130;" horiz-adv-x="350" 
d="M85 859h179v-110h-179v110zM273 700v-700h-196v700h196z" />
    <glyph glyph-name="dotlessi" unicode="&#x131;" horiz-adv-x="292" 
d="M56 530h179v-530h-179v530z" />
    <glyph glyph-name="IJ" unicode="&#x132;" horiz-adv-x="973" 
d="M273 700v-700h-196v700h196zM538 0h-177v154h108q150 0 200 32.5t50 121.5v392h197v-386q0 -89 -16.5 -146t-59.5 -96t-115.5 -55.5t-186.5 -16.5z" />
    <glyph glyph-name="ij" unicode="&#x133;" horiz-adv-x="584" 
d="M56 700h179v-110h-179v110zM348 700h179v-110h-179v110zM56 530h179v-530h-179v530zM348 530h179v-392q0 -125 -16.5 -181t-75.5 -127h-183q59 73 77.5 123.5t18.5 136.5v440z" />
    <glyph glyph-name="Jcircumflex" unicode="&#x134;" horiz-adv-x="624" 
d="M597 860l146 -120h-168l-106 72l-106 -72h-168l146 120h256zM188 0h-177v154h108q150 0 200 32.5t50 121.5v392h197v-386q0 -89 -16.5 -146t-59.5 -96t-115.5 -55.5t-186.5 -16.5z" />
    <glyph glyph-name="jcircumflex" unicode="&#x135;" horiz-adv-x="292" 
d="M273 700l146 -120h-168l-106 72l-106 -72h-168l146 120h256zM56 530h179v-392q0 -125 -15.5 -177t-76.5 -131h-182q60 73 77.5 123t17.5 137v440z" />
    <glyph glyph-name="Kcommaaccent" unicode="&#x136;" horiz-adv-x="1118" 
d="M273 220v-220h-196v700h196v-307h5l519 307h299l-491 -288l505 -412h-290l-382 313h-6zM572 -152l-20 -18h-104l56 53v8h-80v73h198v-19q0 -32 -10.5 -50.5t-39.5 -46.5z" />
    <glyph glyph-name="kcommaaccent" unicode="&#x137;" horiz-adv-x="825" 
d="M235 135v-135h-179v700h179v-396h5l305 226h235l-305 -222l335 -308h-243l-225 209h-5zM442 -152l-20 -18h-104l56 53v8h-80v73h198v-19q0 -32 -10.5 -50.5t-39.5 -46.5z" />
    <glyph glyph-name="Lacute" unicode="&#x139;" horiz-adv-x="872" 
d="M413 860l-145 -120h-187l106 120h226zM843 162v-162h-766v700h196v-538h570z" />
    <glyph glyph-name="lacute" unicode="&#x13a;" horiz-adv-x="292" 
d="M384 860l-145 -120h-187l106 120h226zM235 700v-700h-179v700h179z" />
    <glyph glyph-name="Lcommaaccent" unicode="&#x13b;" horiz-adv-x="872" 
d="M843 162v-162h-766v700h196v-538h570zM508 -152l-20 -18h-104l56 53v8h-80v73h198v-19q0 -32 -10.5 -50.5t-39.5 -46.5z" />
    <glyph glyph-name="lcommaaccent" unicode="&#x13c;" horiz-adv-x="292" 
d="M235 700v-700h-179v700h179zM194 -152l-20 -18h-104l56 53v8h-80v73h198v-19q0 -32 -10.5 -50.5t-39.5 -46.5z" />
    <glyph glyph-name="Lcaron" unicode="&#x13d;" horiz-adv-x="872" 
d="M718 701l-81 -218h-142l34 218h189zM843 162v-162h-766v700h196v-538h570z" />
    <glyph glyph-name="lcaron" unicode="&#x13e;" horiz-adv-x="528" 
d="M235 700v-700h-179v700h179zM522 700l-81 -218h-142l34 218h189z" />
    <glyph glyph-name="Ldot" unicode="&#x13f;" horiz-adv-x="872" 
d="M843 162v-162h-766v700h196v-538h570zM521 497h179v-110h-179v110z" />
    <glyph glyph-name="ldot" unicode="&#x140;" horiz-adv-x="556" 
d="M235 700v-700h-179v700h179zM332 330h179v-110h-179v110z" />
    <glyph glyph-name="Lslash" unicode="&#x141;" horiz-adv-x="872" 
d="M77 271l-77 -15v122l77 15v307h196v-267l306 61v-122l-306 -61v-149h570v-162h-766v271z" />
    <glyph glyph-name="lslash" unicode="&#x142;" horiz-adv-x="318" 
d="M61 274l-60 -36v112l60 36v314h179v-207l78 47v-112l-78 -47v-381h-179v274z" />
    <glyph glyph-name="Nacute" unicode="&#x143;" horiz-adv-x="1158" 
d="M829 860l-145 -120h-187l106 120h226zM1081 700v-700h-293l-512 526h-7v-526h-192v700h293l511 -527h8v527h192z" />
    <glyph glyph-name="nacute" unicode="&#x144;" horiz-adv-x="760" 
d="M637 700l-145 -120h-187l106 120h226zM716 319v-319h-178v290q0 70 -35 92.5t-108 22.5q-84 0 -125.5 -31.5t-41.5 -106.5v-267h-179v530h179v-94h6q53 104 222 104q61 0 104.5 -9t80.5 -32t56 -68t19 -112z" />
    <glyph glyph-name="Ncommaaccent" unicode="&#x145;" horiz-adv-x="1158" 
d="M1081 700v-700h-293l-512 526h-7v-526h-192v700h293l511 -527h8v527h192zM617 -152l-20 -18h-104l56 53v8h-80v73h198v-19q0 -32 -10.5 -50.5t-39.5 -46.5z" />
    <glyph glyph-name="ncommaaccent" unicode="&#x146;" horiz-adv-x="760" 
d="M716 319v-319h-178v290q0 70 -35 92.5t-108 22.5q-84 0 -125.5 -31.5t-41.5 -106.5v-267h-179v530h179v-94h6q53 104 222 104q61 0 104.5 -9t80.5 -32t56 -68t19 -112zM431 -152l-20 -18h-104l56 53v8h-80v73h198v-19q0 -32 -10.5 -50.5t-39.5 -46.5z" />
    <glyph glyph-name="Ncaron" unicode="&#x147;" horiz-adv-x="1158" 
d="M590 788l106 72h168l-146 -120h-256l-146 120h168zM1081 700v-700h-293l-512 526h-7v-526h-192v700h293l511 -527h8v527h192z" />
    <glyph glyph-name="ncaron" unicode="&#x148;" horiz-adv-x="760" 
d="M399 628l106 72h168l-146 -120h-256l-146 120h168zM716 319v-319h-178v290q0 70 -35 92.5t-108 22.5q-84 0 -125.5 -31.5t-41.5 -106.5v-267h-179v530h179v-94h6q53 104 222 104q61 0 104.5 -9t80.5 -32t56 -68t19 -112z" />
    <glyph glyph-name="Eng" unicode="&#x14a;" horiz-adv-x="1158" 
d="M703 -169h-187v151h149q107 0 125 18l-514 526h-7v-526h-192v700h293l511 -527h8v527h192v-555q0 -119 -31.5 -184.5t-113.5 -97.5t-233 -32z" />
    <glyph glyph-name="eng" unicode="&#x14b;" horiz-adv-x="760" 
d="M228 282v-282h-179v530h179v-91h5q44 101 215 101q64 0 108.5 -9t83 -32t57.5 -69t19 -114v-274q0 -115 -68 -163.5t-218 -48.5h-72v128h6q96 0 135 24t39 96v208q0 71 -36.5 95t-117.5 24q-78 0 -117 -25.5t-39 -97.5z" />
    <glyph glyph-name="Omacron" unicode="&#x14c;" horiz-adv-x="1131" 
d="M781 840v-74h-433v74h433zM620 -10h-110q-251 0 -354.5 74.5t-103.5 260.5v50q0 186 103.5 260.5t354.5 74.5h110q251 0 355 -74.5t104 -260.5v-50q0 -186 -104 -260.5t-355 -74.5zM542 141h47q123 0 185.5 19.5t84 59.5t21.5 118v23q0 79 -21.5 119t-84 59.5
t-185.5 19.5h-47q-124 0 -186 -19.5t-83 -59.5t-21 -119v-23q0 -79 21 -118.5t83 -59t186 -19.5z" />
    <glyph glyph-name="omacron" unicode="&#x14d;" horiz-adv-x="839" 
d="M636 674v-74h-433v74h433zM452 -10h-65q-181 0 -266 56.5t-85 197.5v42q0 141 85 197.5t266 56.5h65q182 0 266.5 -56.5t84.5 -197.5v-42q0 -141 -84.5 -197.5t-266.5 -56.5zM420 125q113 0 159 24.5t46 102.5v26q0 77 -46.5 102t-158.5 25q-113 0 -159 -24.5t-46 -102.5
v-26q0 -78 46 -102.5t159 -24.5z" />
    <glyph glyph-name="Obreve" unicode="&#x14e;" horiz-adv-x="1131" 
d="M565 731q-124 0 -177 30t-62 99h142q3 -26 25.5 -37t71.5 -11q48 0 70.5 11t26.5 37h142q-9 -69 -62 -99t-177 -30zM620 -10h-110q-251 0 -354.5 74.5t-103.5 260.5v50q0 186 103.5 260.5t354.5 74.5h110q251 0 355 -74.5t104 -260.5v-50q0 -186 -104 -260.5t-355 -74.5z
M542 141h47q123 0 185.5 19.5t84 59.5t21.5 118v23q0 79 -21.5 119t-84 59.5t-185.5 19.5h-47q-124 0 -186 -19.5t-83 -59.5t-21 -119v-23q0 -79 21 -118.5t83 -59t186 -19.5z" />
    <glyph glyph-name="obreve" unicode="&#x14f;" horiz-adv-x="839" 
d="M420 571q-125 0 -176.5 30t-62.5 99h142q3 -26 25.5 -37t71.5 -11q48 0 70.5 11t26.5 37h142q-11 -69 -63 -99t-176 -30zM452 -10h-65q-181 0 -266 56.5t-85 197.5v42q0 141 85 197.5t266 56.5h65q182 0 266.5 -56.5t84.5 -197.5v-42q0 -141 -84.5 -197.5t-266.5 -56.5z
M420 125q113 0 159 24.5t46 102.5v26q0 77 -46.5 102t-158.5 25q-113 0 -159 -24.5t-46 -102.5v-26q0 -78 46 -102.5t159 -24.5z" />
    <glyph glyph-name="Ohungarumlaut" unicode="&#x150;" horiz-adv-x="1131" 
d="M663 860l-144 -120h-187l105 120h226zM946 860l-145 -120h-187l106 120h226zM620 -10h-110q-251 0 -354.5 74.5t-103.5 260.5v50q0 186 103.5 260.5t354.5 74.5h110q251 0 355 -74.5t104 -260.5v-50q0 -186 -104 -260.5t-355 -74.5zM542 141h47q123 0 185.5 19.5t84 59.5
t21.5 118v23q0 79 -21.5 119t-84 59.5t-185.5 19.5h-47q-124 0 -186 -19.5t-83 -59.5t-21 -119v-23q0 -79 21 -118.5t83 -59t186 -19.5z" />
    <glyph glyph-name="ohungarumlaut" unicode="&#x151;" horiz-adv-x="839" 
d="M517 700l-144 -120h-187l105 120h226zM800 700l-145 -120h-187l106 120h226zM452 -10h-65q-181 0 -266 56.5t-85 197.5v42q0 141 85 197.5t266 56.5h65q182 0 266.5 -56.5t84.5 -197.5v-42q0 -141 -84.5 -197.5t-266.5 -56.5zM420 125q113 0 159 24.5t46 102.5v26
q0 77 -46.5 102t-158.5 25q-113 0 -159 -24.5t-46 -102.5v-26q0 -78 46 -102.5t159 -24.5z" />
    <glyph glyph-name="OE" unicode="&#x152;" horiz-adv-x="1692" 
d="M1627 148v-148h-1122q-254 0 -353.5 74t-99.5 261v30q0 127 41.5 198.5t137.5 104t266 32.5h1130v-148h-618v-128h618v-147h-618v-129h618zM548 151h264v398h-264q-96 0 -153 -9t-90 -33.5t-43.5 -59t-10.5 -94.5v-4q0 -80 22 -120t85 -59t190 -19z" />
    <glyph glyph-name="oe" unicode="&#x153;" horiz-adv-x="1394" 
d="M452 -10h-65q-181 0 -266 56.5t-85 197.5v42q0 141 85 197.5t266 56.5h65q97 0 161 -17t101 -62h5q66 79 264 79h20q184 0 269 -56.5t85 -197.5v-56h-545q3 -73 44 -94.5t140 -21.5q86 0 122.5 11t53.5 39h182q-22 -91 -99 -132.5t-248 -41.5h-24q-97 0 -162 17t-102 62
h-5q-37 -45 -100 -62t-162 -17zM996 427q-92 0 -134 -19.5t-49 -80.5h366v4q0 56 -44.5 76t-138.5 20zM420 125q113 0 159 24.5t46 102.5v26q0 77 -46.5 102t-158.5 25q-113 0 -159 -24.5t-46 -102.5v-26q0 -78 46 -102.5t159 -24.5z" />
    <glyph glyph-name="Racute" unicode="&#x154;" horiz-adv-x="1067" 
d="M768 860l-145 -120h-187l106 120h226zM273 238v-238h-196v700h626q165 0 233 -40.5t68 -136.5v-35q0 -80 -38 -116.5t-123 -42.5v-5q87 -10 124 -42.5t37 -121.5v-160h-196v142q0 58 -32.5 77t-142.5 19h-360zM633 552h-360v-166h397q80 0 108 16q30 16 30 63v5
q0 51 -33.5 66.5t-141.5 15.5z" />
    <glyph glyph-name="racute" unicode="&#x155;" horiz-adv-x="511" 
d="M552 700l-145 -120h-187l106 120h226zM460 530h37v-138h-84q-97 0 -141 -29t-44 -104v-259h-179v530h179v-93h5q23 50 78 71.5t149 21.5z" />
    <glyph glyph-name="Rcommaaccent" unicode="&#x156;" horiz-adv-x="1067" 
d="M273 238v-238h-196v700h626q165 0 233 -40.5t68 -136.5v-35q0 -80 -38 -116.5t-123 -42.5v-5q87 -10 124 -42.5t37 -121.5v-160h-196v142q0 58 -32.5 77t-142.5 19h-360zM633 552h-360v-166h397q80 0 108 16q30 16 30 63v5q0 51 -33.5 66.5t-141.5 15.5zM585 -152
l-20 -18h-104l56 53v8h-80v73h198v-19q0 -32 -10.5 -50.5t-39.5 -46.5z" />
    <glyph glyph-name="rcommaaccent" unicode="&#x157;" horiz-adv-x="511" 
d="M460 530h37v-138h-84q-97 0 -141 -29t-44 -104v-259h-179v530h179v-93h5q23 50 78 71.5t149 21.5zM187 -152l-20 -18h-104l56 53v8h-80v73h198v-19q0 -32 -10.5 -50.5t-39.5 -46.5z" />
    <glyph glyph-name="Rcaron" unicode="&#x158;" horiz-adv-x="1067" 
d="M529 788l106 72h168l-146 -120h-256l-146 120h168zM273 238v-238h-196v700h626q165 0 233 -40.5t68 -136.5v-35q0 -80 -38 -116.5t-123 -42.5v-5q87 -10 124 -42.5t37 -121.5v-160h-196v142q0 58 -32.5 77t-142.5 19h-360zM633 552h-360v-166h397q80 0 108 16
q30 16 30 63v5q0 51 -33.5 66.5t-141.5 15.5z" />
    <glyph glyph-name="rcaron" unicode="&#x159;" horiz-adv-x="511" 
d="M308 628l106 72h168l-146 -120h-256l-146 120h168zM460 530h37v-138h-84q-97 0 -141 -29t-44 -104v-259h-179v530h179v-93h5q23 50 78 71.5t149 21.5z" />
    <glyph glyph-name="Sacute" unicode="&#x15a;" horiz-adv-x="1043" 
d="M768 860l-145 -120h-187l106 120h226zM550 -10h-53q-61 0 -109.5 3t-99 11t-89 23t-71 36.5t-54 54.5t-30.5 75h209q22 -38 84.5 -50.5t202.5 -12.5q144 0 203.5 17t60.5 64v6q0 30 -22 44.5t-83 15.5l-344 12q-156 4 -219 48t-63 140v8q0 125 101.5 175t326.5 50h40
q90 0 156 -8t129.5 -29t103.5 -64.5t56 -108.5h-209q-17 41 -79.5 55.5t-185.5 14.5q-141 0 -190 -16.5t-49 -56.5v-2q0 -30 22 -44.5t82 -16.5l344 -12q157 -6 219 -48t62 -137v-8q0 -136 -107.5 -187.5t-344.5 -51.5z" />
    <glyph glyph-name="sacute" unicode="&#x15b;" horiz-adv-x="799" 
d="M642 700l-145 -120h-187l106 120h226zM420 -10h-29q-170 0 -252 34t-104 120h192q18 -23 58.5 -31t125.5 -8q100 0 136.5 12t36.5 42v3q0 22 -22.5 31t-88.5 11l-204 8q-118 4 -167 38.5t-49 110.5v10q0 97 84 133t259 36h14q157 0 234.5 -36t109.5 -118h-194
q-32 39 -164 39q-93 0 -126.5 -11t-33.5 -37v-4q0 -22 23 -31t88 -11l205 -8q118 -5 166.5 -39t48.5 -110v-9q0 -98 -81 -136.5t-266 -38.5z" />
    <glyph glyph-name="Scircumflex" unicode="&#x15c;" horiz-adv-x="1043" 
d="M652 860l146 -120h-168l-106 72l-106 -72h-168l146 120h256zM550 -10h-53q-61 0 -109.5 3t-99 11t-89 23t-71 36.5t-54 54.5t-30.5 75h209q22 -38 84.5 -50.5t202.5 -12.5q144 0 203.5 17t60.5 64v6q0 30 -22 44.5t-83 15.5l-344 12q-156 4 -219 48t-63 140v8
q0 125 101.5 175t326.5 50h40q90 0 156 -8t129.5 -29t103.5 -64.5t56 -108.5h-209q-17 41 -79.5 55.5t-185.5 14.5q-141 0 -190 -16.5t-49 -56.5v-2q0 -30 22 -44.5t82 -16.5l344 -12q157 -6 219 -48t62 -137v-8q0 -136 -107.5 -187.5t-344.5 -51.5z" />
    <glyph glyph-name="scircumflex" unicode="&#x15d;" horiz-adv-x="799" 
d="M531 700l146 -120h-168l-106 72l-106 -72h-168l146 120h256zM420 -10h-29q-170 0 -252 34t-104 120h192q18 -23 58.5 -31t125.5 -8q100 0 136.5 12t36.5 42v3q0 22 -22.5 31t-88.5 11l-204 8q-118 4 -167 38.5t-49 110.5v10q0 97 84 133t259 36h14q157 0 234.5 -36
t109.5 -118h-194q-32 39 -164 39q-93 0 -126.5 -11t-33.5 -37v-4q0 -22 23 -31t88 -11l205 -8q118 -5 166.5 -39t48.5 -110v-9q0 -98 -81 -136.5t-266 -38.5z" />
    <glyph glyph-name="Scedilla" unicode="&#x15e;" horiz-adv-x="1043" 
d="M1002 237v-8q0 -128 -94.5 -180.5t-299.5 -57.5l-47 -131h-181l62 131q-82 2 -143.5 11.5t-117.5 31t-90.5 61.5t-46.5 98h209q22 -38 84.5 -50.5t202.5 -12.5q144 0 203.5 17t60.5 64v6q0 30 -22 44.5t-83 15.5l-344 12q-156 4 -219 48t-63 140v8q0 125 101.5 175
t326.5 50h40q90 0 156 -8t129.5 -29t103.5 -64.5t56 -108.5h-209q-17 41 -79.5 55.5t-185.5 14.5q-141 0 -190 -16.5t-49 -56.5v-2q0 -30 22 -44.5t82 -16.5l344 -12q157 -6 219 -48t62 -137z" />
    <glyph glyph-name="scedilla" unicode="&#x15f;" horiz-adv-x="799" 
d="M767 174v-9q0 -89 -66.5 -128.5t-214.5 -45.5l-47 -131h-181l62 131q-132 6 -198.5 41t-86.5 112h192q18 -23 58.5 -31t125.5 -8q100 0 136.5 12t36.5 42v3q0 22 -22.5 31t-88.5 11l-204 8q-118 4 -167 38.5t-49 110.5v10q0 97 84 133t259 36h14q157 0 234.5 -36
t109.5 -118h-194q-32 39 -164 39q-93 0 -126.5 -11t-33.5 -37v-4q0 -22 23 -31t88 -11l205 -8q118 -5 166.5 -39t48.5 -110z" />
    <glyph glyph-name="Scaron" unicode="&#x160;" horiz-adv-x="1043" 
d="M524 788l106 72h168l-146 -120h-256l-146 120h168zM550 -10h-53q-61 0 -109.5 3t-99 11t-89 23t-71 36.5t-54 54.5t-30.5 75h209q22 -38 84.5 -50.5t202.5 -12.5q144 0 203.5 17t60.5 64v6q0 30 -22 44.5t-83 15.5l-344 12q-156 4 -219 48t-63 140v8q0 125 101.5 175
t326.5 50h40q90 0 156 -8t129.5 -29t103.5 -64.5t56 -108.5h-209q-17 41 -79.5 55.5t-185.5 14.5q-141 0 -190 -16.5t-49 -56.5v-2q0 -30 22 -44.5t82 -16.5l344 -12q157 -6 219 -48t62 -137v-8q0 -136 -107.5 -187.5t-344.5 -51.5z" />
    <glyph glyph-name="scaron" unicode="&#x161;" horiz-adv-x="799" 
d="M403 628l106 72h168l-146 -120h-256l-146 120h168zM420 -10h-29q-170 0 -252 34t-104 120h192q18 -23 58.5 -31t125.5 -8q100 0 136.5 12t36.5 42v3q0 22 -22.5 31t-88.5 11l-204 8q-118 4 -167 38.5t-49 110.5v10q0 97 84 133t259 36h14q157 0 234.5 -36t109.5 -118
h-194q-32 39 -164 39q-93 0 -126.5 -11t-33.5 -37v-4q0 -22 23 -31t88 -11l205 -8q118 -5 166.5 -39t48.5 -110v-9q0 -98 -81 -136.5t-266 -38.5z" />
    <glyph glyph-name="Tcaron" unicode="&#x164;" horiz-adv-x="925" 
d="M463 788l106 72h168l-146 -120h-256l-146 120h168zM561 538v-538h-196v538h-344v162h883v-162h-343z" />
    <glyph glyph-name="tcaron" unicode="&#x165;" horiz-adv-x="543" 
d="M600 794l-81 -218h-142l34 218h189zM152 402h-133v128h133v170h178v-170h185v-128h-185v-167q0 -69 28.5 -89t109.5 -20h47v-126h-109q-143 0 -198.5 46.5t-55.5 161.5v194z" />
    <glyph glyph-name="Tbar" unicode="&#x166;" horiz-adv-x="925" 
d="M365 266h-249v120h249v152h-344v162h883v-162h-343v-152h249v-120h-249v-266h-196v266z" />
    <glyph glyph-name="tbar" unicode="&#x167;" horiz-adv-x="543" 
d="M152 225h-113v106h113v71h-133v128h133v170h178v-170h185v-128h-185v-71h160v-106h-160q3 -62 32 -80.5t106 -18.5h47v-126h-109q-143 0 -198.5 46.5t-55.5 161.5v17z" />
    <glyph glyph-name="Utilde" unicode="&#x168;" horiz-adv-x="1030" 
d="M608 739q-40 0 -102.5 18.5t-76.5 18.5q-16 0 -25 -6t-15 -24h-111q9 64 43.5 90t96.5 26q40 0 102 -19t76 -19q17 0 26 6t15 24h117q-9 -63 -46 -89t-100 -26zM576 -10h-122q-156 0 -242 32t-120.5 99t-34.5 188v391h200v-382q0 -103 48.5 -140t189.5 -37h41
q140 0 188.5 37t48.5 140v382h199v-391q0 -120 -34.5 -187.5t-120 -99.5t-241.5 -32z" />
    <glyph glyph-name="utilde" unicode="&#x169;" horiz-adv-x="760" 
d="M469 579q-41 0 -102.5 18.5t-76.5 18.5q-16 0 -25 -6t-15 -24h-111q11 64 44.5 90t95.5 26q41 0 102 -19t76 -19q17 0 26 6t15 24h117q-11 -63 -47 -89t-99 -26zM44 211v319h178v-290q0 -70 35 -92.5t108 -22.5q84 0 125.5 31.5t41.5 106.5v267h179v-530h-179v94h-6
q-53 -104 -222 -104q-61 0 -104.5 9t-80.5 32t-56 68t-19 112z" />
    <glyph glyph-name="Umacron" unicode="&#x16a;" horiz-adv-x="1030" 
d="M732 840v-74h-433v74h433zM576 -10h-122q-156 0 -242 32t-120.5 99t-34.5 188v391h200v-382q0 -103 48.5 -140t189.5 -37h41q140 0 188.5 37t48.5 140v382h199v-391q0 -120 -34.5 -187.5t-120 -99.5t-241.5 -32z" />
    <glyph glyph-name="umacron" unicode="&#x16b;" horiz-adv-x="760" 
d="M593 674v-74h-433v74h433zM44 211v319h178v-290q0 -70 35 -92.5t108 -22.5q84 0 125.5 31.5t41.5 106.5v267h179v-530h-179v94h-6q-53 -104 -222 -104q-61 0 -104.5 9t-80.5 32t-56 68t-19 112z" />
    <glyph glyph-name="Ubreve" unicode="&#x16c;" horiz-adv-x="1030" 
d="M516 731q-125 0 -176.5 30t-62.5 99h142q3 -26 25.5 -37t71.5 -11q48 0 70.5 11t26.5 37h142q-11 -69 -63 -99t-176 -30zM576 -10h-122q-156 0 -242 32t-120.5 99t-34.5 188v391h200v-382q0 -103 48.5 -140t189.5 -37h41q140 0 188.5 37t48.5 140v382h199v-391
q0 -120 -34.5 -187.5t-120 -99.5t-241.5 -32z" />
    <glyph glyph-name="ubreve" unicode="&#x16d;" horiz-adv-x="760" 
d="M377 571q-124 0 -177 30t-62 99h142q3 -26 25.5 -37t71.5 -11q48 0 70.5 11t26.5 37h142q-9 -69 -62 -99t-177 -30zM44 211v319h178v-290q0 -70 35 -92.5t108 -22.5q84 0 125.5 31.5t41.5 106.5v267h179v-530h-179v94h-6q-53 -104 -222 -104q-61 0 -104.5 9t-80.5 32
t-56 68t-19 112z" />
    <glyph glyph-name="Uring" unicode="&#x16e;" horiz-adv-x="1030" 
d="M516 722q-101 0 -145.5 23.5t-44.5 84.5t44.5 84.5t145.5 23.5q100 0 144.5 -24t44.5 -84t-44.5 -84t-144.5 -24zM516 787q42 0 59 10.5t17 32.5t-17 32.5t-59 10.5t-59 -10.5t-17 -32.5t17 -32.5t59 -10.5zM576 -10h-122q-156 0 -242 32t-120.5 99t-34.5 188v391h200
v-382q0 -103 48.5 -140t189.5 -37h41q140 0 188.5 37t48.5 140v382h199v-391q0 -120 -34.5 -187.5t-120 -99.5t-241.5 -32z" />
    <glyph glyph-name="uring" unicode="&#x16f;" horiz-adv-x="760" 
d="M377 562q-100 0 -145 24t-45 84t45 84t145 24t144.5 -24t44.5 -84t-44.5 -84t-144.5 -24zM377 627q76 0 76 43t-76 43t-76 -43t76 -43zM44 211v319h178v-290q0 -70 35 -92.5t108 -22.5q84 0 125.5 31.5t41.5 106.5v267h179v-530h-179v94h-6q-53 -104 -222 -104
q-61 0 -104.5 9t-80.5 32t-56 68t-19 112z" />
    <glyph glyph-name="Uhungarumlaut" unicode="&#x170;" horiz-adv-x="1030" 
d="M613 860l-144 -120h-187l105 120h226zM896 860l-145 -120h-187l106 120h226zM576 -10h-122q-156 0 -242 32t-120.5 99t-34.5 188v391h200v-382q0 -103 48.5 -140t189.5 -37h41q140 0 188.5 37t48.5 140v382h199v-391q0 -120 -34.5 -187.5t-120 -99.5t-241.5 -32z" />
    <glyph glyph-name="uhungarumlaut" unicode="&#x171;" horiz-adv-x="760" 
d="M485 700l-144 -120h-187l105 120h226zM768 700l-145 -120h-187l106 120h226zM44 211v319h178v-290q0 -70 35 -92.5t108 -22.5q84 0 125.5 31.5t41.5 106.5v267h179v-530h-179v94h-6q-53 -104 -222 -104q-61 0 -104.5 9t-80.5 32t-56 68t-19 112z" />
    <glyph glyph-name="Uogonek" unicode="&#x172;" horiz-adv-x="1030" 
d="M662 -68v-72h-162q-54 0 -81 15.5t-27 53.5t38 59v5h-14q-201 0 -280 71.5t-79 244.5v391h200v-382q0 -103 48.5 -140t189.5 -37h41q140 0 188.5 37t48.5 140v382h199v-391q0 -88 -16 -143.5t-57 -93t-103 -55.5t-163 -29q-50 -6 -63.5 -13.5t-13.5 -23.5q0 -19 35 -19
h71z" />
    <glyph glyph-name="uogonek" unicode="&#x173;" horiz-adv-x="760" 
d="M44 211v319h178v-290q0 -70 35 -92.5t108 -22.5q84 0 125.5 31.5t41.5 106.5v267h179v-475h1v-55q-72 -14 -89.5 -22t-17.5 -24q0 -13 7.5 -17.5t27.5 -4.5h72v-72h-140q-69 0 -100 16.5t-31 54.5q0 32 17.5 51.5t73.5 36.5v75h-6q-53 -104 -222 -104q-61 0 -104.5 9
t-80.5 32t-56 68t-19 112z" />
    <glyph glyph-name="Wcircumflex" unicode="&#x174;" horiz-adv-x="1512" 
d="M893 860l146 -120h-168l-106 72l-106 -72h-168l146 120h256zM1496 700l-259 -700h-250l-223 505l-225 -505h-265l-259 700h217l188 -521h7l227 521h223l229 -521h7l185 521h198z" />
    <glyph glyph-name="wcircumflex" unicode="&#x175;" horiz-adv-x="1225" 
d="M751 700l146 -120h-168l-106 72l-106 -72h-168l146 120h256zM1218 530l-199 -530h-231l-169 366l-168 -366h-245l-200 530h201l139 -372h7l170 372h200l171 -372h7l139 372h178z" />
    <glyph glyph-name="Ycircumflex" unicode="&#x176;" horiz-adv-x="1039" 
d="M649 860l146 -120h-168l-106 72l-106 -72h-168l146 120h256zM618 307v-307h-196v305l-410 395h245l271 -266h8l271 266h220z" />
    <glyph glyph-name="ycircumflex" unicode="&#x177;" horiz-adv-x="727" 
d="M498 700l146 -120h-168l-106 72l-106 -72h-168l146 120h256zM737 530l-376 -700h-187l101 169l-285 531h193l185 -356h7l178 356h184z" />
    <glyph glyph-name="Ydieresis" unicode="&#x178;" horiz-adv-x="1039" 
d="M328 859h143v-110h-143v110zM570 859h144v-110h-144v110zM618 307v-307h-196v305l-410 395h245l271 -266h8l271 266h220z" />
    <glyph glyph-name="Zacute" unicode="&#x179;" horiz-adv-x="1006" 
d="M747 860l-145 -120h-187l106 120h226zM951 152v-152h-896v137l581 411h-547v152h840v-137l-581 -411h603z" />
    <glyph glyph-name="zacute" unicode="&#x17a;" horiz-adv-x="751" 
d="M614 700l-145 -120h-187l106 120h226zM715 128v-128h-677v123l407 279h-385v128h633v-123l-409 -279h431z" />
    <glyph glyph-name="Zdotaccent" unicode="&#x17b;" horiz-adv-x="1006" 
d="M419 859h179v-110h-179v110zM951 152v-152h-896v137l581 411h-547v152h840v-137l-581 -411h603z" />
    <glyph glyph-name="zdotaccent" unicode="&#x17c;" horiz-adv-x="751" 
d="M286 691h179v-110h-179v110zM715 128v-128h-677v123l407 279h-385v128h633v-123l-409 -279h431z" />
    <glyph glyph-name="Zcaron" unicode="&#x17d;" horiz-adv-x="1006" 
d="M509 788l106 72h168l-146 -120h-256l-146 120h168zM951 152v-152h-896v137l581 411h-547v152h840v-137l-581 -411h603z" />
    <glyph glyph-name="zcaron" unicode="&#x17e;" horiz-adv-x="751" 
d="M376 628l106 72h168l-146 -120h-256l-146 120h168zM715 128v-128h-677v123l407 279h-385v128h633v-123l-409 -279h431z" />
    <glyph glyph-name="florin" unicode="&#x192;" 
d="M523 305v-410h-184v410h-311v90h311q4 165 94 235t269 70h234v-147h-194q-118 0 -168.5 -34.5t-50.5 -120.5v-3h413v-90h-413z" />
    <glyph glyph-name="Aringacute" unicode="&#x1fa;" horiz-adv-x="1161" 
d="M819 1080l-145 -120h-187l106 120h226zM580 722q-101 0 -145.5 23.5t-44.5 84.5t44.5 84.5t145.5 23.5q100 0 144.5 -24t44.5 -84t-44.5 -84t-144.5 -24zM580 787q42 0 59 10.5t17 32.5t-17 32.5t-59 10.5t-59 -10.5t-17 -32.5t17 -32.5t59 -10.5zM731 700l418 -700h-221
l-92 154h-513l-92 -154h-219l418 700h301zM584 579h-8l-166 -277h338z" />
    <glyph glyph-name="aringacute" unicode="&#x1fb;" horiz-adv-x="781" 
d="M641 920l-145 -120h-187l106 120h226zM402 559q-101 0 -145.5 23.5t-44.5 84.5t44.5 84.5t145.5 23.5q100 0 144.5 -24t44.5 -84t-44.5 -84t-144.5 -24zM402 624q42 0 59 10.5t17 32.5t-17 32.5t-59 10.5t-59 -10.5t-17 -32.5t17 -32.5t59 -10.5zM738 317v-317h-179v100
h-4q-45 -110 -263 -110q-261 0 -261 170v8q1 144 188 150l340 11v4q0 55 -36 74.5t-125 19.5q-73 0 -107 -12.5t-49 -43.5h-186q25 89 101 129t243 40h25q174 0 243.5 -49.5t69.5 -173.5zM212 170v-4q0 -37 32.5 -52.5t105.5 -15.5q95 0 152 32.5t57 91.5v9l-254 -9
q-49 -2 -71 -14t-22 -38z" />
    <glyph glyph-name="AEacute" unicode="&#x1fc;" horiz-adv-x="1578" 
d="M1035 860l-145 -120h-187l106 120h226zM1513 148v-148h-815v154h-342l-124 -154h-231l570 700h942v-148h-619v-128h619v-147h-619v-129h619zM698 566h-12l-212 -264h224v264z" />
    <glyph glyph-name="aeacute" unicode="&#x1fd;" horiz-adv-x="1319" 
d="M886 700l-145 -120h-187l106 120h226zM932 -10h-24q-126 0 -203 25t-113 88h-5q-68 -113 -285 -113q-271 0 -271 170v8q1 144 188 150l340 11v4q0 55 -36 74.5t-125 19.5q-73 0 -107 -12.5t-49 -43.5h-186q25 89 101 129t243 40h24q101 0 156 -17t79 -53h5q51 70 244 70
h20q183 0 269 -56.5t86 -197.5v-56h-545q3 -73 44 -94.5t139 -21.5q88 0 123.5 11t52.5 39h182q-20 -92 -97.5 -133t-249.5 -41zM921 427q-91 0 -133 -19.5t-49 -80.5h365v4q0 56 -44.5 76t-138.5 20zM212 170v-4q0 -37 32.5 -52.5t105.5 -15.5q95 0 152 32t57 91v10
l-254 -9q-49 -2 -71 -14t-22 -38z" />
    <glyph glyph-name="Oslashacute" unicode="&#x1fe;" horiz-adv-x="1131" 
d="M804 860l-145 -120h-187l106 120h226zM236 -40h-184l109 101q-109 76 -109 264v50q0 186 103.5 260.5t354.5 74.5h110q136 0 222 -19l53 49h184l-109 -101q109 -76 109 -264v-50q0 -186 -104 -260.5t-355 -74.5h-110q-135 0 -221 19zM252 361v-23q0 -110 47 -149l395 365
q-48 5 -105 5h-47q-124 0 -186 -19.5t-83 -59.5t-21 -119zM542 141h47q123 0 185.5 19.5t84 59.5t21.5 118v23q0 110 -48 150l-396 -366q5 0 43.5 -2t62.5 -2z" />
    <glyph glyph-name="oslashacute" unicode="&#x1ff;" horiz-adv-x="839" 
d="M658 700l-145 -120h-187l106 120h226zM195 -40h-159l87 86q-87 60 -87 198v42q0 141 85 197.5t266 56.5h65q92 0 157 -13l36 35h158l-82 -81q82 -60 82 -195v-42q0 -141 -84.5 -197.5t-266.5 -56.5h-65q-84 0 -150 12zM215 278v-26q0 -60 29 -89l242 240q-40 2 -66 2
q-113 0 -159 -24.5t-46 -102.5zM420 125q113 0 159 24.5t46 102.5v26q0 57 -25 85l-239 -237q17 -1 59 -1z" />
    <glyph glyph-name="Scommaaccent" unicode="&#x218;" horiz-adv-x="1043" 
d="M550 -10h-53q-61 0 -109.5 3t-99 11t-89 23t-71 36.5t-54 54.5t-30.5 75h209q22 -38 84.5 -50.5t202.5 -12.5q144 0 203.5 17t60.5 64v6q0 30 -22 44.5t-83 15.5l-344 12q-156 4 -219 48t-63 140v8q0 125 101.5 175t326.5 50h40q90 0 156 -8t129.5 -29t103.5 -64.5
t56 -108.5h-209q-17 41 -79.5 55.5t-185.5 14.5q-141 0 -190 -16.5t-49 -56.5v-2q0 -30 22 -44.5t82 -16.5l344 -12q157 -6 219 -48t62 -137v-8q0 -136 -107.5 -187.5t-344.5 -51.5zM577 -152l-20 -18h-104l56 53v8h-80v73h198v-19q0 -32 -10.5 -50.5t-39.5 -46.5z" />
    <glyph glyph-name="scommaaccent" unicode="&#x219;" horiz-adv-x="799" 
d="M420 -10h-29q-170 0 -252 34t-104 120h192q18 -23 58.5 -31t125.5 -8q100 0 136.5 12t36.5 42v3q0 22 -22.5 31t-88.5 11l-204 8q-118 4 -167 38.5t-49 110.5v10q0 97 84 133t259 36h14q157 0 234.5 -36t109.5 -118h-194q-32 39 -164 39q-93 0 -126.5 -11t-33.5 -37v-4
q0 -22 23 -31t88 -11l205 -8q118 -5 166.5 -39t48.5 -110v-9q0 -98 -81 -136.5t-266 -38.5zM456 -152l-20 -18h-104l56 53v8h-80v73h198v-19q0 -32 -10.5 -50.5t-39.5 -46.5z" />
    <glyph glyph-name="Tcommaaccent" unicode="&#x21a;" horiz-adv-x="925" 
d="M561 538v-538h-196v538h-344v162h883v-162h-343zM512 -152l-20 -18h-104l56 53v8h-80v73h198v-19q0 -32 -10.5 -50.5t-39.5 -46.5z" />
    <glyph glyph-name="tcommaaccent" unicode="&#x21b;" horiz-adv-x="543" 
d="M152 402h-133v128h133v170h178v-170h185v-128h-185v-167q0 -69 28.5 -89t109.5 -20h47v-126h-109q-143 0 -198.5 46.5t-55.5 161.5v194zM406 -152l-20 -18h-104l56 53v8h-80v73h198v-19q0 -32 -10.5 -50.5t-39.5 -46.5z" />
    <glyph glyph-name="circumflex" unicode="&#x2c6;" horiz-adv-x="500" 
d="M378 700l146 -120h-168l-106 72l-106 -72h-168l146 120h256z" />
    <glyph glyph-name="caron" unicode="&#x2c7;" horiz-adv-x="500" 
d="M250 628l106 72h168l-146 -120h-256l-146 120h168z" />
    <glyph glyph-name="breve" unicode="&#x2d8;" horiz-adv-x="500" 
d="M250 571q-125 0 -176.5 30t-62.5 99h142q3 -26 25.5 -37t71.5 -11q48 0 70.5 11t26.5 37h142q-11 -69 -63 -99t-176 -30z" />
    <glyph glyph-name="dotaccent" unicode="&#x2d9;" horiz-adv-x="500" 
d="M159 691h179v-110h-179v110z" />
    <glyph glyph-name="ring" unicode="&#x2da;" horiz-adv-x="500" 
d="M250 562q-101 0 -145.5 23.5t-44.5 84.5t44.5 84.5t145.5 23.5q100 0 144.5 -24t44.5 -84t-44.5 -84t-144.5 -24zM250 627q42 0 59 10.5t17 32.5t-17 32.5t-59 10.5t-59 -10.5t-17 -32.5t17 -32.5t59 -10.5z" />
    <glyph glyph-name="ogonek" unicode="&#x2db;" horiz-adv-x="500" 
d="M371 -68v-72h-140q-68 0 -99.5 16.5t-31.5 54.5q0 32 15 50t75.5 37t180.5 37v-55q-72 -15 -89.5 -22.5t-17.5 -23.5q0 -12 8 -17t27 -5h72z" />
    <glyph glyph-name="tilde" unicode="&#x2dc;" horiz-adv-x="500" 
d="M342 579q-40 0 -102.5 18.5t-76.5 18.5q-16 0 -25 -6t-15 -24h-111q9 64 43.5 90t96.5 26q40 0 102 -19t76 -19q17 0 26 6t15 24h117q-9 -63 -46 -89t-100 -26z" />
    <glyph glyph-name="hungarumlaut" unicode="&#x2dd;" horiz-adv-x="500" 
d="M274 700l-144 -120h-187l105 120h226zM557 700l-145 -120h-187l106 120h226z" />
    <glyph glyph-name="commaaccent" unicode="&#x326;" horiz-adv-x="500" 
d="M304 -152l-20 -18h-104l56 53v8h-80v73h198v-19q0 -32 -10.5 -50.5t-39.5 -46.5z" />
    <glyph glyph-name="pi" unicode="&#x3c0;" horiz-adv-x="892" 
d="M866 128v-128h-78q-140 0 -193.5 45.5t-53.5 160.5v187h-221v-393h-179v393h-109v137h834v-137h-146v-157q0 -69 26 -88.5t103 -19.5h17z" />
    <glyph glyph-name="Wgrave" unicode="&#x1e80;" horiz-adv-x="1512" 
d="M754 860l106 -120h-188l-144 120h226zM1496 700l-259 -700h-250l-223 505l-225 -505h-265l-259 700h217l188 -521h7l227 521h223l229 -521h7l185 521h198z" />
    <glyph glyph-name="wgrave" unicode="&#x1e81;" horiz-adv-x="1225" 
d="M612 700l106 -120h-188l-144 120h226zM1218 530l-199 -530h-231l-169 366l-168 -366h-245l-200 530h201l139 -372h7l170 372h200l171 -372h7l139 372h178z" />
    <glyph glyph-name="Wacute" unicode="&#x1e82;" horiz-adv-x="1512" 
d="M1004 860l-145 -120h-187l106 120h226zM1496 700l-259 -700h-250l-223 505l-225 -505h-265l-259 700h217l188 -521h7l227 521h223l229 -521h7l185 521h198z" />
    <glyph glyph-name="wacute" unicode="&#x1e83;" horiz-adv-x="1225" 
d="M862 700l-145 -120h-187l106 120h226zM1218 530l-199 -530h-231l-169 366l-168 -366h-245l-200 530h201l139 -372h7l170 372h200l171 -372h7l139 372h178z" />
    <glyph glyph-name="Wdieresis" unicode="&#x1e84;" horiz-adv-x="1512" 
d="M572 859h143v-110h-143v110zM814 859h144v-110h-144v110zM1496 700l-259 -700h-250l-223 505l-225 -505h-265l-259 700h217l188 -521h7l227 521h223l229 -521h7l185 521h198z" />
    <glyph glyph-name="wdieresis" unicode="&#x1e85;" horiz-adv-x="1225" 
d="M430 691h143v-110h-143v110zM672 691h144v-110h-144v110zM1218 530l-199 -530h-231l-169 366l-168 -366h-245l-200 530h201l139 -372h7l170 372h200l171 -372h7l139 372h178z" />
    <glyph glyph-name="Ygrave" unicode="&#x1ef2;" horiz-adv-x="1039" 
d="M508 860l106 -120h-188l-144 120h226zM618 307v-307h-196v305l-410 395h245l271 -266h8l271 266h220z" />
    <glyph glyph-name="ygrave" unicode="&#x1ef3;" horiz-adv-x="727" 
d="M358 700l106 -120h-188l-144 120h226zM737 530l-376 -700h-187l101 169l-285 531h193l185 -356h7l178 356h184z" />
    <glyph glyph-name="endash" unicode="&#x2013;" horiz-adv-x="762" 
d="M742 247h-722v91h722v-91z" />
    <glyph glyph-name="emdash" unicode="&#x2014;" horiz-adv-x="1144" 
d="M1124 247h-1104v91h1104v-91z" />
    <glyph glyph-name="quoteleft" unicode="&#x2018;" horiz-adv-x="349" 
d="M139 676l18 24h125l-90 -131v-9h86v-169h-211v103q0 46 15 85q16 39 57 97z" />
    <glyph glyph-name="quoteright" unicode="&#x2019;" horiz-adv-x="349" 
d="M210 415l-18 -24h-125l90 131v9h-86v169h211v-103q0 -45 -16 -84.5t-56 -97.5z" />
    <glyph glyph-name="quotesinglbase" unicode="&#x201a;" horiz-adv-x="349" 
d="M210 -116l-18 -24h-125l90 131v9h-86v169h211v-103q0 -45 -16 -84.5t-56 -97.5z" />
    <glyph glyph-name="quotedblleft" unicode="&#x201c;" horiz-adv-x="624" 
d="M144 676l18 24h125l-90 -131v-9h86v-169h-211v103q0 45 16 84.5t56 97.5zM408 676l18 24h125l-90 -131v-9h86v-169h-211v103q0 45 16 84.5t56 97.5z" />
    <glyph glyph-name="quotedblright" unicode="&#x201d;" horiz-adv-x="624" 
d="M216 415l-18 -24h-125l90 131v9h-86v169h211v-103q0 -45 -16 -84.5t-56 -97.5zM480 415l-18 -24h-125l90 131v9h-86v169h211v-103q0 -45 -16 -84.5t-56 -97.5z" />
    <glyph glyph-name="quotedblbase" unicode="&#x201e;" horiz-adv-x="624" 
d="M216 -116l-18 -24h-125l90 131v9h-86v169h211v-103q0 -45 -16 -84.5t-56 -97.5zM480 -116l-18 -24h-125l90 131v9h-86v169h211v-103q0 -45 -16 -84.5t-56 -97.5z" />
    <glyph glyph-name="dagger" unicode="&#x2020;" horiz-adv-x="432" 
d="M169 462h-135v68h135v170h94v-170h135v-68h-135v-562h-94v562z" />
    <glyph glyph-name="daggerdbl" unicode="&#x2021;" horiz-adv-x="432" 
d="M263 70v-170h-94v170h-135v68h135v324h-135v68h135v170h94v-170h135v-68h-135v-324h135v-68h-135z" />
    <glyph glyph-name="bullet" unicode="&#x2022;" horiz-adv-x="490" 
d="M245 187q-69 0 -118 46t-49 117t49 117t118 46t118 -46t49 -117t-49 -117t-118 -46z" />
    <glyph glyph-name="ellipsis" unicode="&#x2026;" horiz-adv-x="1046" 
d="M278 0h-207v169h207v-169zM626 0h-207v169h207v-169zM975 0h-207v169h207v-169z" />
    <glyph glyph-name="perthousand" unicode="&#x2030;" horiz-adv-x="1460" 
d="M274 327h-15q-127 0 -179 40t-52 141v20q0 101 52 141.5t179 40.5h15q127 0 179.5 -40.5t52.5 -141.5v-20q0 -101 -52.5 -141t-179.5 -40zM831 700l-428 -700h-116l428 700h116zM266 434q60 0 82 16t22 64v9q0 47 -22 63t-82 16q-59 0 -80.5 -16t-21.5 -63v-9
q0 -48 21.5 -64t80.5 -16zM1201 -10h-14q-128 0 -161 40h-5q-34 -40 -161 -40h-15q-128 0 -180 40t-52 141v20q0 100 52.5 141t179.5 41h15q126 0 161 -41h5q34 41 161 41h14q128 0 179.5 -41t51.5 -141v-20q0 -101 -51.5 -141t-179.5 -40zM852 96q59 0 81 16.5t22 64.5v9
q0 45 -22.5 61.5t-80.5 16.5t-80.5 -16.5t-22.5 -61.5v-9q0 -48 22 -64.5t81 -16.5zM1193 96q60 0 81.5 16.5t21.5 64.5v9q0 46 -21.5 62t-81.5 16q-59 0 -80.5 -16t-21.5 -62v-9q0 -48 21 -64.5t81 -16.5z" />
    <glyph glyph-name="guilsinglleft" unicode="&#x2039;" horiz-adv-x="291" 
d="M42 289v6l84 219h118l-87 -222l87 -222h-118z" />
    <glyph glyph-name="guilsinglright" unicode="&#x203a;" horiz-adv-x="291" 
d="M249 295v-6l-84 -219h-118l87 222l-87 222h118z" />
    <glyph glyph-name="fraction" unicode="&#x2044;" horiz-adv-x="244" 
d="M394 700l-428 -700h-116l428 700h116z" />
    <glyph glyph-name="zerosuperior" unicode="&#x2070;" horiz-adv-x="576" 
d="M294 374h-12q-141 0 -200 43.5t-59 160.5v24q0 117 59 160.5t200 43.5h12q139 0 199 -44t60 -161v-24q0 -116 -60 -159.5t-199 -43.5zM288 484q61 0 81 18t20 83v9q0 66 -20 83.5t-81 17.5t-81 -17.5t-20 -83.5v-9q0 -65 20 -83t81 -18z" />
    <glyph glyph-name="foursuperior" unicode="&#x2074;" horiz-adv-x="576" 
d="M514 466v-86h-168v86h-326v170l247 164h247v-227h52v-107h-52zM149 579v-6h197v132h-6z" />
    <glyph glyph-name="fivesuperior" unicode="&#x2075;" horiz-adv-x="576" 
d="M313 374h-36q-53 0 -91.5 4.5t-75.5 18t-59.5 40.5t-31.5 69h171q8 -15 28.5 -21t68.5 -6q60 0 80 8t20 30v9q0 22 -21 30.5t-86 8.5q-84 0 -103 -19h-152l30 254h474v-107h-324l-10 -69h5q29 39 147 39q124 0 170 -32t46 -105v-5q0 -80 -60.5 -113.5t-189.5 -33.5z" />
    <glyph glyph-name="sixsuperior" unicode="&#x2076;" horiz-adv-x="576" 
d="M317 374h-38q-139 0 -198.5 47.5t-59.5 153.5v27q0 110 60.5 157t198.5 47h22q121 0 178.5 -30t78.5 -91h-176q-16 15 -88 15q-63 0 -86.5 -16t-23.5 -60v-10h6q24 38 158 38q127 0 169.5 -29.5t42.5 -103.5v-2q0 -77 -60.5 -110t-183.5 -33zM289 477q62 0 83 8
q20 8 20 30v8q0 22 -20.5 30t-82.5 8q-64 0 -85 -8q-19 -7 -19 -30v-8q0 -23 19 -30q21 -8 85 -8z" />
    <glyph glyph-name="sevensuperior" unicode="&#x2077;" horiz-adv-x="576" 
d="M561 687l-293 -307h-207l305 304v5h-351v111h546v-113z" />
    <glyph glyph-name="eightsuperior" unicode="&#x2078;" horiz-adv-x="576" 
d="M312 373h-47q-123 0 -185.5 29.5t-62.5 105.5v4q1 47 27.5 70.5t83.5 27.5v5q-47 7 -70 25.5t-23 56.5v1q1 57 57.5 82.5t184.5 25.5h23q128 0 184.5 -25.5t57.5 -82.5v-1q0 -38 -23.5 -56.5t-69.5 -25.5v-5q57 -4 83.5 -27.5t27.5 -70.5v-4q0 -76 -62.5 -105.5
t-185.5 -29.5zM263 635h50q36 0 49.5 8t13.5 25v3q0 19 -17.5 26t-69.5 7q-53 0 -70 -7t-17 -26v-3q0 -17 13 -25t48 -8zM289 475q62 0 83 8q20 9 20 32v3q0 21 -16 30t-62 9h-51q-46 0 -62 -9t-16 -30v-3q0 -23 19 -32q21 -8 85 -8z" />
    <glyph glyph-name="ninesuperior" unicode="&#x2079;" horiz-adv-x="576" 
d="M259 805h38q139 0 198.5 -47.5t59.5 -153.5v-27q0 -109 -61 -156.5t-198 -47.5h-22q-121 0 -178.5 30t-78.5 91h176q16 -15 88 -15q62 0 86 16.5t24 59.5v10h-6q-24 -38 -158 -38q-127 0 -169.5 29.5t-42.5 103.5v2q0 78 60 110.5t184 32.5zM287 702q-63 0 -84 -8
q-19 -7 -19 -30v-8q0 -22 20.5 -30t82.5 -8q63 0 84 8q20 8 20 30v8q0 22 -20 30q-21 8 -84 8z" />
    <glyph glyph-name="plussuperior" unicode="&#x207a;" horiz-adv-x="360" 
d="M138 548h-114v85h114v119h84v-119h114v-85h-114v-119h-84v119z" />
    <glyph glyph-name="minussuperior" unicode="&#x207b;" horiz-adv-x="360" 
d="M312 548h-264v85h264v-85z" />
    <glyph glyph-name="equalsuperior" unicode="&#x207c;" horiz-adv-x="360" 
d="M324 623h-288v84h288v-84zM324 473h-288v84h288v-84z" />
    <glyph glyph-name="parenleftsuperior" unicode="&#x207d;" horiz-adv-x="222" 
d="M202 429v-76q-83 7 -123.5 58t-40.5 162v34q0 111 40.5 162t123.5 58v-76q-78 -16 -78 -143v-36q0 -127 78 -143z" />
    <glyph glyph-name="parenrightsuperior" unicode="&#x207e;" horiz-adv-x="222" 
d="M20 751v76q83 -7 123.5 -58t40.5 -162v-34q0 -111 -40.5 -162t-123.5 -58v76q78 16 78 143v36q0 127 -78 143z" />
    <glyph glyph-name="zeroinferior" unicode="&#x2080;" horiz-adv-x="576" 
d="M294 -106h-12q-141 0 -200 43.5t-59 160.5v24q0 117 59 160.5t200 43.5h12q139 0 199 -44t60 -161v-24q0 -116 -60 -159.5t-199 -43.5zM288 4q61 0 81 18t20 83v9q0 66 -20 83.5t-81 17.5t-81 -17.5t-20 -83.5v-9q0 -65 20 -83t81 -18z" />
    <glyph glyph-name="oneinferior" unicode="&#x2081;" horiz-adv-x="422" 
d="M368 320v-420h-161v304h-6l-170 -78v141l136 53h201z" />
    <glyph glyph-name="twoinferior" unicode="&#x2082;" horiz-adv-x="576" 
d="M555 5v-105h-532v88q0 78 41 111t149 45l120 12q30 4 41 11t11 20v2q0 18 -17.5 25t-68.5 7q-49 0 -69 -5.5t-30 -23.5h-171q15 79 77.5 106.5t182.5 27.5h10q139 0 197.5 -30.5t58.5 -96.5v-7q0 -63 -35.5 -91.5t-126.5 -38.5l-172 -19q-20 -3 -26.5 -9t-6.5 -19v-10
h367z" />
    <glyph glyph-name="threeinferior" unicode="&#x2083;" horiz-adv-x="576" 
d="M314 -106h-36q-59 0 -99.5 5t-77 19t-57 42t-26.5 70h170q8 -18 30 -24.5t69 -6.5q62 0 81 6.5t19 26.5v3q0 27 -50 27h-127v99h116q43 0 43 26v3q0 16 -16.5 23.5t-59.5 7.5q-73 0 -85 -26h-173q16 69 68.5 100t167.5 31h25q131 0 190 -25.5t59 -79.5v-4
q0 -40 -20 -58.5t-71 -23.5v-6q60 -4 84.5 -26.5t24.5 -73.5v-3q0 -71 -57 -101q-55 -31 -192 -31z" />
    <glyph glyph-name="fourinferior" unicode="&#x2084;" horiz-adv-x="576" 
d="M514 -14v-86h-168v86h-326v170l247 164h247v-227h52v-107h-52zM149 99v-6h197v132h-6z" />
    <glyph glyph-name="fiveinferior" unicode="&#x2085;" horiz-adv-x="576" 
d="M313 -106h-36q-53 0 -91.5 4.5t-75.5 18t-59.5 40.5t-31.5 69h171q8 -15 28.5 -21t68.5 -6q60 0 80 8t20 30v9q0 22 -21 30.5t-86 8.5q-84 0 -103 -19h-152l30 254h474v-107h-324l-10 -69h5q29 39 147 39q124 0 170 -32t46 -105v-5q0 -80 -60.5 -113.5t-189.5 -33.5z" />
    <glyph glyph-name="sixinferior" unicode="&#x2086;" horiz-adv-x="576" 
d="M317 -106h-38q-139 0 -198.5 47.5t-59.5 153.5v27q0 110 60.5 157t198.5 47h22q121 0 178.5 -30t78.5 -91h-176q-16 15 -88 15q-63 0 -86.5 -16t-23.5 -60v-10h6q24 38 158 38q127 0 169.5 -29.5t42.5 -103.5v-2q0 -77 -60.5 -110t-183.5 -33zM289 -3q62 0 83 8
q20 8 20 30v8q0 22 -20.5 30t-82.5 8q-64 0 -85 -8q-19 -7 -19 -30v-8q0 -23 19 -30q21 -8 85 -8z" />
    <glyph glyph-name="seveninferior" unicode="&#x2087;" horiz-adv-x="576" 
d="M561 207l-293 -307h-207l305 304v5h-351v111h546v-113z" />
    <glyph glyph-name="eightinferior" unicode="&#x2088;" horiz-adv-x="576" 
d="M312 -107h-47q-123 0 -185.5 29.5t-62.5 105.5v4q1 47 27.5 70.5t83.5 27.5v5q-47 7 -70 25.5t-23 56.5v1q1 57 57.5 82.5t184.5 25.5h23q128 0 184.5 -25.5t57.5 -82.5v-1q0 -38 -23.5 -56.5t-69.5 -25.5v-5q57 -4 83.5 -27.5t27.5 -70.5v-4q0 -76 -62.5 -105.5
t-185.5 -29.5zM263 155h50q36 0 49.5 8t13.5 25v3q0 19 -17.5 26t-69.5 7q-53 0 -70 -7t-17 -26v-3q0 -17 13 -25t48 -8zM289 -5q62 0 83 8q20 9 20 32v3q0 21 -16 30t-62 9h-51q-46 0 -62 -9t-16 -30v-3q0 -23 19 -32q21 -8 85 -8z" />
    <glyph glyph-name="nineinferior" unicode="&#x2089;" horiz-adv-x="576" 
d="M259 325h38q139 0 198.5 -47.5t59.5 -153.5v-27q0 -109 -61 -156.5t-198 -47.5h-22q-121 0 -178.5 30t-78.5 91h176q16 -15 88 -15q62 0 86 16.5t24 59.5v10h-6q-24 -38 -158 -38q-127 0 -169.5 29.5t-42.5 103.5v2q0 78 60 110.5t184 32.5zM287 222q-63 0 -84 -8
q-19 -7 -19 -30v-8q0 -22 20.5 -30t82.5 -8q63 0 84 8q20 8 20 30v8q0 22 -20 30q-21 8 -84 8z" />
    <glyph glyph-name="plusinferior" unicode="&#x208a;" horiz-adv-x="360" 
d="M138 153v119h84v-119h114v-85h-114v-119h-84v119h-114v85h114z" />
    <glyph glyph-name="minusinferior" unicode="&#x208b;" horiz-adv-x="360" 
d="M312 68h-264v85h264v-85z" />
    <glyph glyph-name="equalinferior" unicode="&#x208c;" horiz-adv-x="360" 
d="M324 143h-288v84h288v-84zM324 -7h-288v84h288v-84z" />
    <glyph glyph-name="parenleftinferior" unicode="&#x208d;" horiz-adv-x="222" 
d="M202 -51v-76q-83 7 -123.5 58t-40.5 162v34q0 111 40.5 162t123.5 58v-76q-78 -16 -78 -143v-36q0 -127 78 -143z" />
    <glyph glyph-name="parenrightinferior" unicode="&#x208e;" horiz-adv-x="222" 
d="M20 271v76q83 -7 123.5 -58t40.5 -162v-34q0 -111 -40.5 -162t-123.5 -58v76q78 16 78 143v36q0 127 -78 143z" />
    <glyph glyph-name="Euro" unicode="&#x20ac;" 
d="M561 -10h-42q-357 0 -407 250h-108v82h100v2v52v2h-100v82h108q50 250 407 250h42q184 0 277 -48q93 -46 122 -152h-194q-20 32 -68 44.5t-158 12.5q-106 0 -163 -22t-77 -85h541v-82h-550v-56h550v-82h-541q19 -62 76.5 -84.5t163.5 -22.5q110 0 158 12.5t68 44.5h194
q-29 -106 -122 -153q-94 -47 -277 -47z" />
    <glyph glyph-name="litre" unicode="&#x2113;" horiz-adv-x="483" 
d="M263 -15q-78 0 -118.5 41.5t-48.5 128.5q-20 -13 -35 -19l-44 80l77 42v180q0 147 39.5 209.5t141.5 62.5q91 0 130.5 -44t39.5 -129q0 -93 -50.5 -163t-168.5 -144v-62q0 -81 65 -81q45 0 88 39l52 -77q-70 -64 -168 -64zM226 486v-146q65 47 86.5 87.5t21.5 105.5
q0 76 -49 76q-30 0 -44.5 -26.5t-14.5 -96.5z" />
    <glyph glyph-name="numero" unicode="&#x2116;" horiz-adv-x="1816" 
d="M1506 272h-52q-149 0 -217 45t-68 157v32q0 112 68 157t217 45h52q148 0 216 -45t68 -157v-32q0 -112 -68 -157t-216 -45zM1073 700v-700h-293l-512 526h-7v-526h-192v700h293l511 -527h8v527h192zM1480 388q86 0 118 17t32 76v18q0 59 -32 76t-118 17q-87 0 -119 -17
t-32 -76v-18q0 -59 32 -76t119 -17z" />
    <glyph glyph-name="published" unicode="&#x2117;" horiz-adv-x="994" 
d="M557 -10h-120q-215 0 -310 75t-95 229v112q0 154 95 229t310 75h120q215 0 310 -75t95 -229v-112q0 -154 -95 -229t-310 -75zM454 25h86q115 0 191 18t117.5 57.5t58 91t16.5 127.5v62q0 76 -16.5 127.5t-58 91t-117.5 57.5t-191 18h-86q-115 0 -190.5 -18t-117.5 -57.5
t-58 -91t-16 -127.5v-62q0 -76 16 -127.5t58 -91t117.5 -57.5t190.5 -18zM400 271v-131h-153v420h344q111 0 160 -30t49 -110v-9q0 -76 -50 -108t-159 -32h-191zM568 461h-168v-91h169q49 0 63.5 10t14.5 34v4q0 24 -15.5 33.5t-63.5 9.5z" />
    <glyph glyph-name="trademark" unicode="&#x2122;" horiz-adv-x="1255" 
d="M311 601v-251h-134v251h-157v99h448v-99h-157zM1225 700v-350h-134v262h-5l-136 -262h-157l-135 262h-5v-262h-135v350h246l114 -220h4l114 220h229z" />
    <glyph glyph-name="Omega" unicode="&#x2126;" horiz-adv-x="1174" 
d="M1114 148v-148h-475v216q162 3 218 37.5t56 128.5v10q0 96 -60.5 131.5t-237.5 35.5h-57q-177 0 -237.5 -35.5t-60.5 -131.5v-10q0 -94 56.5 -128.5t217.5 -37.5v-216h-474v148h223v7q-117 14 -170 65t-53 175v27q0 159 111 223.5t361 64.5h108q251 0 362.5 -64.5
t111.5 -223.5v-27q0 -64 -14.5 -108t-44.5 -70.5t-68.5 -40.5t-95.5 -21v-7h223z" />
    <glyph glyph-name="estimated" unicode="&#x212e;" horiz-adv-x="838" 
d="M422 -15q-163 0 -278.5 107t-115.5 258q0 152 115 258.5t279 106.5t279.5 -106.5t115.5 -258.5q0 -24 -1 -25h-593v-205q79 -71 199 -71q89 0 163 39t115 103h77q-47 -93 -143 -149.5t-212 -56.5zM223 585v-193h396v196q-34 28 -87 45t-110 17q-60 0 -114 -18t-85 -47z
" />
    <glyph glyph-name="arrowleft" unicode="&#x2190;" horiz-adv-x="897" 
d="M256 411h612v-123h-612v-7l284 -282h-178l-346 348v4l346 348h178l-284 -281v-7z" />
    <glyph glyph-name="arrowup" unicode="&#x2191;" horiz-adv-x="896" 
d="M514 537v-613h-124v613h-6l-282 -285v178l348 346h4l348 -346v-178l-282 285h-6z" />
    <glyph glyph-name="arrowright" unicode="&#x2192;" horiz-adv-x="897" 
d="M641 288h-612v123h612v7l-284 282h178l346 -348v-4l-346 -348h-178l284 281v7z" />
    <glyph glyph-name="arrowdown" unicode="&#x2193;" horiz-adv-x="897" 
d="M390 775h124v-613h6l282 285v-178l-348 -346h-4l-348 346v178l282 -285h6v613z" />
    <glyph glyph-name="arrowupleft" unicode="&#x2196;" horiz-adv-x="896" 
d="M344 572l434 -433l-88 -88l-434 433l-5 -5l3 -401l-125 127v492l3 3h492l125 -126l-401 3z" />
    <glyph glyph-name="arrowupright" unicode="&#x2197;" horiz-adv-x="897" 
d="M207 51l-88 88l434 433l-4 5l-401 -3l125 126h492l3 -3v-492l-125 -127l3 401l-5 5z" />
    <glyph glyph-name="arrowdownright" unicode="&#x2198;" horiz-adv-x="897" 
d="M553 128l-434 433l88 88l434 -433l5 5l-3 401l125 -127v-492l-3 -3h-492l-125 126l401 -3z" />
    <glyph glyph-name="arrowdownleft" unicode="&#x2199;" horiz-adv-x="897" 
d="M690 649l88 -88l-434 -433l4 -5l401 3l-125 -126h-492l-3 3v492l125 127l-3 -401l5 -5z" />
    <glyph glyph-name="partialdiff" unicode="&#x2202;" horiz-adv-x="917" 
d="M481 -10h-49q-379 0 -379 228v9q0 126 88 180t262 54q134 0 198.5 -22t82.5 -65h6v24q0 99 -70.5 134t-237.5 35t-254 -26v149q96 20 262 20h19q247 0 357.5 -76.5t110.5 -270.5v-51q0 -173 -98 -247.5t-298 -74.5zM469 129q124 0 171 19.5t47 69.5v19q0 50 -47 69.5
t-171 19.5q-125 0 -172.5 -19.5t-47.5 -69.5v-19q0 -50 47.5 -69.5t172.5 -19.5z" />
    <glyph glyph-name="increment" unicode="&#x2206;" horiz-adv-x="1161" 
d="M731 700l418 -700h-1137l418 700h301zM584 579h-8l-255 -427h517z" />
    <glyph glyph-name="product" unicode="&#x220f;" horiz-adv-x="1049" 
d="M972 700v-870h-196v727h-503v-727h-196v870h895z" />
    <glyph glyph-name="summation" unicode="&#x2211;" horiz-adv-x="927" 
d="M867 -27v-143h-790v155l405 270v5l-405 285v155h790v-143h-521v-4l315 -224v-142l-312 -210v-4h518z" />
    <glyph glyph-name="minus" unicode="&#x2212;" horiz-adv-x="600" 
d="M511 273h-422v112h422v-112z" />
    <glyph glyph-name="radical" unicode="&#x221a;" horiz-adv-x="574" 
d="M575 803l-225 -906h-106l-143 391l-60 -18l-35 120l178 49l103 -304h4l160 668h124z" />
    <glyph glyph-name="infinity" unicode="&#x221e;" horiz-adv-x="888" 
d="M645 123q-113 0 -201 116q-88 -116 -201 -116q-90 0 -147.5 58t-57.5 148t57.5 148t147.5 58q113 0 201 -116q88 116 201 116q90 0 147.5 -58t57.5 -148t-57.5 -148t-147.5 -58zM149 329q0 -47 29.5 -74t68.5 -27q38 0 68.5 26t64.5 75q-34 49 -64.5 75t-68.5 26
q-39 0 -68.5 -27t-29.5 -74zM641 228q40 0 69 27t29 74t-29 74t-69 27q-38 0 -68.5 -26t-64.5 -75q34 -49 64.5 -75t68.5 -26z" />
    <glyph glyph-name="integral" unicode="&#x222b;" horiz-adv-x="493" 
d="M78 -170h-44v116h34q59 0 81.5 19t22.5 79v514q0 109 58.5 150.5t185.5 41.5h43v-116h-34q-59 0 -81.5 -19t-22.5 -79v-514q0 -110 -58 -151t-185 -41z" />
    <glyph glyph-name="approxequal" unicode="&#x2248;" horiz-adv-x="600" 
d="M416 361q-48 0 -124 33t-111 33q-66 0 -112 -61v117q39 56 115 56q47 0 123.5 -33t111.5 -33q64 0 112 61v-118q-42 -55 -115 -55zM416 119q-48 0 -124 33t-111 33q-66 0 -112 -61v117q39 56 115 56q47 0 123.5 -33t111.5 -33q64 0 112 61v-118q-42 -55 -115 -55z" />
    <glyph glyph-name="notequal" unicode="&#x2260;" horiz-adv-x="600" 
d="M170 151h-101v112h146l53 131h-199v112h245l62 152h116l-62 -152h101v-112h-147l-53 -131h200v-112h-245l-62 -151h-116z" />
    <glyph glyph-name="lessequal" unicode="&#x2264;" horiz-adv-x="600" 
d="M530 306v-117l-457 160v111l457 160v-116l-294 -97v-5zM530 35h-460v112h460v-112z" />
    <glyph glyph-name="greaterequal" unicode="&#x2265;" horiz-adv-x="600" 
d="M527 349l-457 -160v117l294 96v5l-294 97v116l457 -160v-111zM530 147v-112h-460v112h460z" />
    <glyph glyph-name="lozenge" unicode="&#x25ca;" horiz-adv-x="545" 
d="M346 678l173 -349l-173 -349h-148l-172 349l172 349h148zM271 80l126 249l-126 249l-123 -249z" />
    <glyph glyph-name="germandbls.cap" horiz-adv-x="2086" 
d="M550 -10h-53q-61 0 -109.5 3t-99 11t-89 23t-71 36.5t-54 54.5t-30.5 75h209q22 -38 84.5 -50.5t202.5 -12.5q144 0 203.5 17t60.5 64v6q0 30 -22 44.5t-83 15.5l-344 12q-156 4 -219 48t-63 140v8q0 125 101.5 175t326.5 50h40q90 0 156 -8t129.5 -29t103.5 -64.5
t56 -108.5h-209q-17 41 -79.5 55.5t-185.5 14.5q-141 0 -190 -16.5t-49 -56.5v-2q0 -30 22 -44.5t82 -16.5l344 -12q157 -6 219 -48t62 -137v-8q0 -136 -107.5 -187.5t-344.5 -51.5zM1593 -10h-53q-93 0 -161.5 8t-133.5 28.5t-105 62.5t-53 104h209q20 -38 83.5 -50.5
t203.5 -12.5q144 0 203.5 17t60.5 64v6q0 30 -22.5 44.5t-82.5 15.5l-344 12q-156 4 -219 48t-63 140v8q0 125 101 175t327 50h40q90 0 156 -8t129.5 -29t103.5 -64.5t56 -108.5h-209q-17 41 -79.5 55.5t-185.5 14.5q-141 0 -190 -16.5t-49 -56.5v-2q0 -30 22 -44.5
t82 -16.5l344 -12q157 -6 219 -48t62 -137v-8q0 -136 -107.5 -187.5t-344.5 -51.5z" />
    <glyph glyph-name="i.TRK" horiz-adv-x="292" 
d="M56 700h179v-110h-179v110zM56 530h179v-530h-179v530z" />
    <glyph glyph-name="a.superior" horiz-adv-x="627" 
d="M595 530v-250h-160v80h-4q-30 -88 -204 -88q-205 0 -205 135v7q0 59 39.5 87t120.5 31l253 9v4q0 40 -25 53t-91 13q-54 0 -77 -8t-34 -30h-168q25 78 93 107q66 28 189 28h17q145 0 200.5 -39t55.5 -139zM184 418v-4q0 -25 22.5 -35.5t74.5 -10.5q71 0 112.5 24t41.5 66
v6l-184 -8q-36 -1 -51.5 -9.5t-15.5 -28.5z" />
    <glyph glyph-name="b.superior" horiz-adv-x="684" 
d="M196 280h-160v554h160v-209h4q39 83 200 83h14q122 0 182.5 -45.5t60.5 -156.5v-32q0 -111 -60.5 -156.5t-182.5 -45.5h-14q-85 0 -132.5 19.5t-67.5 63.5h-4v-75zM346 388q86 0 118.5 17.5t32.5 75.5v18q0 58 -32.5 75.5t-118.5 17.5q-85 0 -117.5 -17.5t-32.5 -75.5
v-18q0 -58 32.5 -75.5t117.5 -17.5z" />
    <glyph glyph-name="c.superior" horiz-adv-x="669" 
d="M356 272h-47q-150 0 -216 44.5t-66 157.5v32q0 113 66 157.5t216 44.5h47q266 0 283 -157h-163q-17 22 -46 31.5t-95 9.5q-84 0 -116 -18t-32 -75v-18q0 -58 31.5 -75.5t116.5 -17.5q66 0 95 9.5t46 31.5h163q-16 -157 -283 -157z" />
    <glyph glyph-name="d.superior" horiz-adv-x="684" 
d="M648 834v-554h-160v75h-4q-20 -44 -67.5 -63.5t-132.5 -19.5h-14q-122 0 -182.5 45.5t-60.5 156.5v32q0 111 60.5 156.5t182.5 45.5h14q161 0 200 -83h4v209h160zM338 388q85 0 117.5 17.5t32.5 75.5v18q0 58 -32.5 75.5t-117.5 17.5q-86 0 -118.5 -17.5t-32.5 -75.5v-18
q0 -58 32.5 -75.5t118.5 -17.5z" />
    <glyph glyph-name="e.superior" horiz-adv-x="637" 
d="M446 421h160q-13 -83 -76 -116t-207 -33h-14q-150 0 -216 44.5t-66 157.5v32q0 113 66 157.5t216 44.5h14q149 0 218 -45t69 -157v-44h-423q1 -54 30 -69.5t101 -15.5q60 0 89.5 9t38.5 35zM318 612q-68 0 -96.5 -13.5t-33.5 -59.5h262v4q0 40 -31.5 54.5t-100.5 14.5z
" />
    <glyph glyph-name="f.superior" horiz-adv-x="455" 
d="M125 587h-109v113h110q6 77 54.5 105.5t147.5 28.5h108v-96h-70q-45 0 -63 -7t-18 -27v-4h151v-113h-151v-307h-160v307z" />
    <glyph glyph-name="g.superior" horiz-adv-x="677" 
d="M359 145h-42q-122 0 -190.5 27t-93.5 96h172q13 -17 41.5 -22t85.5 -5q87 0 117.5 19.5t30.5 81.5v43h-4q-19 -42 -62.5 -59.5t-129.5 -17.5h-7q-123 0 -183.5 42.5t-60.5 148.5v17q0 106 60.5 149t183.5 43h7q85 -1 129 -19.5t63 -58.5h4v70h161v-362
q0 -108 -67.5 -150.5t-214.5 -42.5zM338 416q83 0 112.5 16.5t29.5 72.5v5q0 55 -30 72t-112 17q-83 0 -113.5 -17t-30.5 -72v-5q0 -55 31 -72t113 -17z" />
    <glyph glyph-name="h.superior" horiz-adv-x="610" 
d="M577 531v-251h-160v226q0 54 -23 70t-78 16q-62 0 -91 -23.5t-29 -80.5v-208h-161v554h161v-208h5q40 82 172 82q100 0 152 -36.5t52 -140.5z" />
    <glyph glyph-name="i.superior" horiz-adv-x="231" 
d="M35 834h161v-91h-161v91zM35 700h161v-420h-161v420z" />
    <glyph glyph-name="j.superior" horiz-adv-x="231" 
d="M35 834h161v-91h-161v91zM35 700h161v-312q0 -97 -12.5 -140.5t-57.5 -102.5h-164q46 56 59.5 98t13.5 113v344z" />
    <glyph glyph-name="k.superior" horiz-adv-x="657" 
d="M196 372v-92h-161v554h161v-311h4l227 177h201l-230 -174l254 -246h-212l-157 155h-4z" />
    <glyph glyph-name="l.superior" horiz-adv-x="231" 
d="M196 834v-554h-161v554h161z" />
    <glyph glyph-name="m.superior" horiz-adv-x="952" 
d="M921 531v-251h-161v226q0 54 -21.5 70t-70.5 16q-57 0 -83.5 -23.5t-26.5 -81.5v-207h-160v226q0 54 -22 70t-71 16q-56 0 -82.5 -23.5t-26.5 -81.5v-207h-161v420h161v-73h5q36 81 162 81q67 0 111.5 -17.5t66.5 -63.5h6q41 81 173 81q100 0 150.5 -36.5t50.5 -140.5z
" />
    <glyph glyph-name="n.superior" horiz-adv-x="610" 
d="M577 531v-251h-160v226q0 54 -23 70t-78 16q-62 0 -91 -23.5t-29 -80.5v-208h-161v420h161v-74h5q40 82 172 82q100 0 152 -36.5t52 -140.5z" />
    <glyph glyph-name="o.superior" horiz-adv-x="674" 
d="M364 272h-52q-149 0 -217 45t-68 157v32q0 112 68 157t217 45h52q148 0 216 -45t68 -157v-32q0 -112 -68 -157t-216 -45zM338 388q86 0 118 17t32 76v18q0 59 -32 76t-118 17q-87 0 -119 -17t-32 -76v-18q0 -59 32 -76t119 -17z" />
    <glyph glyph-name="p.superior" horiz-adv-x="684" 
d="M36 146v554h160v-75h4q20 44 67.5 63.5t132.5 19.5h14q122 0 182.5 -45.5t60.5 -156.5v-32q0 -111 -60.5 -156.5t-182.5 -45.5h-14q-161 0 -200 83h-4v-209h-160zM346 592q-85 0 -117.5 -17.5t-32.5 -75.5v-18q0 -58 32.5 -75.5t117.5 -17.5q86 0 118.5 17.5t32.5 75.5
v18q0 58 -32.5 75.5t-118.5 17.5z" />
    <glyph glyph-name="q.superior" horiz-adv-x="684" 
d="M488 700h160v-554h-160v209h-4q-39 -83 -200 -83h-14q-122 0 -182.5 45.5t-60.5 156.5v32q0 111 60.5 156.5t182.5 45.5h14q85 0 132.5 -19.5t67.5 -63.5h4v75zM338 592q-86 0 -118.5 -17.5t-32.5 -75.5v-18q0 -58 32.5 -75.5t118.5 -17.5q85 0 117.5 17.5t32.5 75.5v18
q0 58 -32.5 75.5t-117.5 17.5z" />
    <glyph glyph-name="r.superior" horiz-adv-x="421" 
d="M378 700h24v-113h-67q-76 0 -107.5 -21.5t-31.5 -78.5v-207h-161v420h161v-74h3q18 40 60.5 57t118.5 17z" />
    <glyph glyph-name="s.superior" horiz-adv-x="662" 
d="M345 272h-26q-137 0 -206 33.5t-85 105.5h173q8 -26 40 -35.5t95 -9.5q67 0 95 9t29 31v3q0 17 -15 23t-57 8l-151 7q-100 6 -146 31.5t-46 85.5v8q0 76 65.5 106t215.5 30h12q139 0 204.5 -34t82.5 -104h-173q-8 25 -37.5 34t-84.5 9q-60 0 -85.5 -8t-25.5 -27v-4
q0 -16 15 -22t56 -8l153 -9q99 -6 145 -30.5t46 -84.5v-7q0 -78 -68 -109.5t-221 -31.5z" />
    <glyph glyph-name="t.superior" horiz-adv-x="437" 
d="M415 388v-108h-94q-116 0 -161.5 37.5t-45.5 128.5v141h-98v113h98v134h161v-134h140v-113h-140v-116q0 -53 20.5 -68t83.5 -15h36z" />
    <glyph glyph-name="u.superior" horiz-adv-x="610" 
d="M32 449v251h160v-226q0 -54 23 -70t78 -16q62 0 91 23.5t29 80.5v208h161v-420h-161v74h-5q-40 -82 -172 -82q-100 0 -152 36.5t-52 140.5z" />
    <glyph glyph-name="v.superior" horiz-adv-x="637" 
d="M631 700l-207 -420h-212l-205 420h182l133 -292h8l134 292h167z" />
    <glyph glyph-name="w.superior" horiz-adv-x="999" 
d="M989 700l-155 -420h-207l-121 275l-122 -275h-218l-157 420h181l101 -284h6l124 284h177l124 -284h5l102 284h160z" />
    <glyph glyph-name="x.superior" horiz-adv-x="727" 
d="M472 495l245 -215h-216l-139 136h-4l-146 -136h-202l241 213l-228 207h216l126 -124h4l132 124h202z" />
    <glyph glyph-name="y.superior" horiz-adv-x="614" 
d="M608 700l-293 -555h-169l80 133l-220 422h173l132 -266h6l126 266h165z" />
    <glyph glyph-name="z.superior" horiz-adv-x="600" 
d="M573 392v-112h-545v107l306 200h-287v113h507v-108l-307 -200h326z" />
    <glyph glyph-name="grave.cap" horiz-adv-x="500" 
d="M310 860l106 -120h-188l-144 120h226z" />
    <glyph glyph-name="acute.cap" horiz-adv-x="500" 
d="M415 860l-145 -120h-187l106 120h226z" />
    <glyph glyph-name="circumflex.cap" horiz-adv-x="500" 
d="M378 860l146 -120h-168l-106 72l-106 -72h-168l146 120h256z" />
    <glyph glyph-name="caron.cap" horiz-adv-x="500" 
d="M250 788l106 72h168l-146 -120h-256l-146 120h168z" />
    <glyph glyph-name="caronSlovak" horiz-adv-x="500" 
d="M363 700l-81 -218h-142l34 218h189z" />
    <glyph glyph-name="tilde.cap" horiz-adv-x="500" 
d="M342 739q-40 0 -102.5 18.5t-76.5 18.5q-16 0 -25 -6t-15 -24h-111q9 64 43.5 90t96.5 26q40 0 102 -19t76 -19q17 0 26 6t15 24h117q-9 -63 -46 -89t-100 -26z" />
    <glyph glyph-name="dieresis.cap" horiz-adv-x="500" 
d="M57 859h143v-110h-143v110zM299 859h144v-110h-144v110z" />
    <glyph glyph-name="macron.cap" horiz-adv-x="500" 
d="M466 840v-74h-433v74h433z" />
    <glyph glyph-name="breve.cap" horiz-adv-x="500" 
d="M250 731q-125 0 -176.5 30t-62.5 99h142q3 -26 25.5 -37t71.5 -11q48 0 70.5 11t26.5 37h142q-11 -69 -63 -99t-176 -30z" />
    <glyph glyph-name="ring.cap" horiz-adv-x="500" 
d="M250 722q-101 0 -145.5 23.5t-44.5 84.5t44.5 84.5t145.5 23.5q100 0 144.5 -24t44.5 -84t-44.5 -84t-144.5 -24zM250 787q42 0 59 10.5t17 32.5t-17 32.5t-59 10.5t-59 -10.5t-17 -32.5t17 -32.5t59 -10.5z" />
    <glyph glyph-name="hungarumlaut.cap" horiz-adv-x="500" 
d="M274 860l-144 -120h-187l105 120h226zM557 860l-145 -120h-187l106 120h226z" />
    <glyph glyph-name="dotaccent.cap" horiz-adv-x="500" 
d="M159 859h179v-110h-179v110z" />
    <glyph glyph-name="commaaccent.alt" horiz-adv-x="500" 
d="M207 696l19 18h104l-56 -53v-8h80v-73h-198v19q0 32 10.5 51t40.5 46z" />
    <glyph glyph-name="hyphen.cap" horiz-adv-x="381" 
d="M361 280h-342v141h342v-141z" />
    <glyph glyph-name="exclamdown.cap" horiz-adv-x="349" 
d="M71 700h207v-169h-207v169zM287 293v-293h-226v293l47 157h133z" />
    <glyph glyph-name="questiondown.cap" horiz-adv-x="788" 
d="M308 708h207v-165h-207v165zM311 463h199v-13q0 -46 -32.5 -71t-122.5 -53q-93 -28 -118.5 -48t-25.5 -59v-4q0 -42 39.5 -59t129.5 -17q97 0 140.5 21.5t51.5 89.5h183q-4 -72 -32 -122t-79 -78t-113.5 -40t-144.5 -12h-17q-341 0 -341 201v15q0 84 42.5 129.5
t158.5 77.5q74 22 82 42z" />
    <glyph glyph-name="guilsinglleft.cap" horiz-adv-x="291" 
d="M42 346v6l84 219h118l-87 -222l87 -222h-118z" />
    <glyph glyph-name="guilsinglright.cap" horiz-adv-x="291" 
d="M249 353v-6l-84 -219h-118l87 222l-87 222h118z" />
    <glyph glyph-name="guillemotleft.cap" horiz-adv-x="483" 
d="M42 347v6l84 219h118l-87 -222l87 -222h-118zM233 347v6l84 219h118l-87 -222l87 -222h-118z" />
    <glyph glyph-name="guillemotright.cap" horiz-adv-x="483" 
d="M249 353v-6l-84 -219h-118l87 222l-87 222h118zM440 353v-6l-84 -219h-118l87 222l-87 222h118z" />
    <glyph glyph-name="endash.cap" horiz-adv-x="780" 
d="M742 304h-722v91h722v-91z" />
    <glyph glyph-name="emdash.cap" horiz-adv-x="1170" 
d="M1124 304h-1104v91h1104v-91z" />
    <glyph glyph-name="periodcentered.cap" horiz-adv-x="390" 
d="M299 265h-207v169h207v-169z" />
    <glyph glyph-name="parenleft.cap" horiz-adv-x="379" 
d="M336 46v-91q-258 29 -258 368v54q0 339 258 368v-91q-74 -16 -113 -80t-39 -196v-56q0 -132 39 -196t113 -80z" />
    <glyph glyph-name="parenright.cap" horiz-adv-x="379" 
d="M43 654v91q258 -29 258 -368v-54q0 -339 -258 -368v91q75 16 113.5 80t38.5 196v56q0 132 -38.5 196t-113.5 80z" />
    <glyph glyph-name="bracketleft.cap" horiz-adv-x="379" 
d="M336 43v-88h-249v790h249v-88h-147v-614h147z" />
    <glyph glyph-name="bracketright.cap" horiz-adv-x="379" 
d="M43 657v88h249v-790h-249v88h147v614h-147z" />
    <glyph glyph-name="braceleft.cap" horiz-adv-x="367" 
d="M324 43v-88h-56q-100 0 -134 42t-34 151v39q0 65 -15 83t-77 24v112q62 6 77 24t15 83v39q0 109 34 151t134 42h56v-88h-30q-54 0 -72.5 -26.5t-18.5 -111.5v-37q0 -70 -18.5 -94t-91.5 -36v-4q73 -12 91.5 -36t18.5 -94v-37q0 -85 18.5 -111.5t72.5 -26.5h30z" />
    <glyph glyph-name="braceright.cap" horiz-adv-x="367" 
d="M89 -45h-56v88h30q54 0 72.5 26.5t18.5 111.5v37q0 70 18.5 94t91.5 36v4q-73 12 -91.5 36t-18.5 94v37q0 85 -18.5 111.5t-72.5 26.5h-30v88h56q100 0 134 -42t34 -151v-39q0 -65 15 -83t77 -24v-112q-62 -6 -77 -24t-15 -83v-39q0 -109 -34 -151t-134 -42z" />
    <glyph glyph-name="at.cap" horiz-adv-x="1185" 
d="M567 -69q-269 0 -401.5 90t-132.5 293v24q0 205 144 318t418 113q276 0 413.5 -89t137.5 -276v-7q0 -296 -273 -296q-88 0 -120 23.5t-37 72.5h-6q-27 -42 -70.5 -60t-123.5 -18h-18q-116 0 -174 50t-45 167v8q14 122 78 171.5t181 49.5h20q71 0 117.5 -20.5t60.5 -57.5
h5l8 70h167l-36 -297q-5 -44 5 -59.5t44 -15.5q60 0 92 57.5t32 147.5v7q0 156 -111 223t-351 67q-229 0 -347.5 -92t-118.5 -258v-19q0 -167 110.5 -236.5t336.5 -69.5q182 0 296 30v-80q-103 -31 -301 -31zM568 229q76 0 113 21t45 85l3 21q7 60 -25 79.5t-108 19.5
t-113 -21t-44 -85l-3 -21q-8 -60 24.5 -79.5t107.5 -19.5z" />
    <glyph glyph-name="zero.slash" horiz-adv-x="1094" 
d="M595 -11h-95q-244 0 -346 74t-102 255v63q0 181 102 255t346 74h95q243 0 345 -74.5t102 -253.5v-63q0 -181 -102 -255.5t-345 -74.5zM241 362v-25q0 -109 43 -148l434 364q-59 13 -171 13q-99 0 -158.5 -10t-92.5 -36t-44 -61.5t-11 -96.5zM547 133q99 0 158.5 10
t92.5 36t44 61.5t11 96.5v25q0 106 -41 147l-433 -364q65 -12 168 -12z" />
    <glyph glyph-name="numbersign.LT" 
d="M674 0h-133l23 161h-179l-23 -161h-133l23 161h-187v116h200l21 146h-187v117h200l23 160h133l-23 -160h179l23 160h133l-23 -160h187v-117h-202l-19 -146h187v-116h-201zM605 429h-191l-23 -158h191z" />
    <glyph glyph-name="Euro.LT" 
d="M561 -10h-42q-357 0 -407 250h-108v82h100v2v52v2h-100v82h108q50 250 407 250h42q184 0 277 -48q93 -46 122 -152h-194q-20 32 -68 44.5t-158 12.5q-106 0 -163 -22t-77 -85h541v-82h-550v-56h550v-82h-541q19 -62 76.5 -84.5t163.5 -22.5q110 0 158 12.5t68 44.5h194
q-29 -106 -122 -153q-94 -47 -277 -47z" />
    <glyph glyph-name="dollar.LT" 
d="M566 11v-116h-112v115q-66 1 -118 5.5t-105 16.5t-90.5 31t-66 51.5t-40.5 75.5h209q18 -27 80 -38.5t181 -11.5q147 0 203 16t56 61v5q0 30 -26.5 42t-106.5 15l-294 10q-159 4 -220 45t-61 135v12q0 107 92.5 156t296.5 53v115h112v-116q180 -5 273.5 -46.5
t117.5 -132.5h-210q-17 28 -69 39t-177 11q-130 0 -182 -14t-52 -52v-4q0 -31 26 -42.5t108 -14.5l294 -10q158 -4 219 -46t61 -136v-10q0 -114 -95 -164.5t-304 -55.5z" />
    <glyph glyph-name="cent.LT" 
d="M562 -10v-95h-112v95q-168 3 -246 60.5t-78 193.5v42q0 136 78 193.5t246 60.5v95h112v-95q155 -6 229 -54t88 -138h-183q-22 31 -62 44t-128 13q-112 0 -156.5 -24.5t-44.5 -102.5v-26q0 -78 44.5 -102.5t156.5 -24.5q88 0 128 13t62 44h183q-14 -90 -88 -138t-229 -54z
" />
    <glyph glyph-name="sterling.LT" 
d="M845 395v-90h-484v-166h587v-139h-912v139h141v166h-141v90h141q1 170 92.5 242.5t279.5 72.5h40q160 0 255.5 -53t116.5 -147h-199q-19 30 -60 43q-42 14 -132 14q-112 0 -160.5 -34t-48.5 -116v-22h484z" />
    <glyph glyph-name="florin.LT" 
d="M523 305v-410h-184v410h-311v90h311q4 165 94 235t269 70h234v-147h-194q-118 0 -168.5 -34.5t-50.5 -120.5v-3h413v-90h-413z" />
    <glyph glyph-name="yen.LT" 
d="M592 240v-240h-187v240h-308v82h308v44l-14 12h-294v82h198l-282 240h253l242 -214h7l241 214h225l-280 -240h199v-82h-295l-13 -11v-45h308v-82h-308z" />
    <glyph glyph-name="zero.slash.LT" 
d="M519 -11h-42q-81 0 -142.5 8.5t-116.5 31t-89.5 60t-54.5 97t-20 140.5v47q0 81 20 140.5t54.5 97t89.5 60t116.5 31t142.5 8.5h42q81 0 142.5 -8.5t116.5 -31t89.5 -60t54.5 -97t20 -140.5v-47q0 -81 -20 -140.5t-54.5 -97t-89.5 -60t-116.5 -31t-142.5 -8.5zM243 361
v-22q0 -88 29 -135l371 349q-50 14 -145 14q-70 0 -112.5 -7t-77.5 -28.5t-50 -62.5t-15 -108zM498 132q70 0 112.5 7t77 28.5t49.5 63t15 108.5v22q0 90 -29 134l-371 -348q49 -15 146 -15z" />
    <glyph glyph-name="zero.LT" 
d="M519 -11h-42q-81 0 -142.5 8.5t-116.5 31t-89.5 60t-54.5 97t-20 140.5v47q0 81 20 140.5t54.5 97t89.5 60t116.5 31t142.5 8.5h42q81 0 142.5 -8.5t116.5 -31t89.5 -60t54.5 -97t20 -140.5v-47q0 -81 -20 -140.5t-54.5 -97t-89.5 -60t-116.5 -31t-142.5 -8.5zM498 132
q70 0 112.5 7t77 28.5t49.5 63t15 108.5v22q0 67 -15 108t-49.5 62.5t-77 28.5t-112.5 7t-112.5 -7t-77.5 -28.5t-50 -62.5t-15 -108v-22q0 -67 15 -108.5t50 -63t77.5 -28.5t112.5 -7z" />
    <glyph glyph-name="one.LT" 
d="M938 139v-139h-880v139h345v416h-7l-339 -146v177l290 114h244v-561h347z" />
    <glyph glyph-name="two.LT" 
d="M944 140v-140h-892v132q0 128 64.5 187t225.5 72l280 25q78 7 105 21t27 50v5q0 42 -49 58.5t-186 16.5q-136 0 -185 -12t-70 -53h-196q29 120 126 164t286 44h65q208 0 303 -47.5t95 -154.5v-15q0 -100 -55 -149.5t-202 -63.5l-335 -30q-63 -6 -87.5 -25t-24.5 -61v-24
h705z" />
    <glyph glyph-name="three.LT" 
d="M547 -10h-80q-205 0 -306.5 48t-120.5 167h193q16 -42 74 -57t198 -15q155 0 210 17.5t55 66.5v4q0 35 -29 51t-93 16h-338v137h335q55 0 80 14t25 47v6q0 42 -51 58.5t-185 16.5q-122 0 -174.5 -13.5t-71.5 -48.5h-195q29 109 121.5 157t280.5 48h59q215 0 311.5 -42.5
t96.5 -133.5v-9q0 -64 -32.5 -97.5t-103.5 -41.5v-8q85 -8 120.5 -46.5t35.5 -119.5v-10q0 -115 -93.5 -163.5t-321.5 -48.5z" />
    <glyph glyph-name="four.LT" 
d="M854 161v-161h-187v161h-616v239l515 300h288v-399h109v-140h-109zM198 309v-8h469v278h-8z" />
    <glyph glyph-name="five.LT" 
d="M563 -10h-98q-187 0 -282 46t-123 159h195q17 -35 72 -48.5t179 -13.5q146 0 201.5 20.5t55.5 73.5v16q0 56 -51 75t-207 19q-121 0 -179.5 -11.5t-79.5 -38.5h-173l45 413h782v-140h-613l-21 -149h7q26 35 98.5 50.5t217.5 15.5q201 0 283 -54.5t82 -181.5v-13
q0 -127 -92.5 -182.5t-298.5 -55.5z" />
    <glyph glyph-name="six.LT" 
d="M561 -10h-102q-220 0 -313.5 74t-93.5 245v64q0 181 94 259t310 78h77q196 0 289.5 -46.5t117.5 -150.5h-197q-14 32 -63 43.5t-178 11.5q-161 0 -214 -37t-53 -145v-6h7q22 42 95.5 60.5t217.5 18.5q151 0 235 -21t118.5 -65.5t34.5 -124.5v-28q0 -121 -91.5 -175.5
t-290.5 -54.5zM498 128q149 0 202.5 19t53.5 73v14q0 53 -54 73t-202 20q-149 0 -203.5 -20t-54.5 -73v-14q0 -54 54 -73t204 -19z" />
    <glyph glyph-name="seven.LT" 
d="M952 552l-522 -552h-250l539 552v9h-679v139h912v-148z" />
    <glyph glyph-name="eight.LT" 
d="M558 -10h-121q-95 0 -161.5 9t-121 32t-81.5 66.5t-27 109.5v11q1 76 38.5 114.5t121.5 48.5v7q-69 11 -103 44.5t-34 93.5v8q0 93 93.5 134.5t294.5 41.5h80q202 0 295.5 -41.5t93.5 -134.5v-8q0 -60 -34.5 -93.5t-103.5 -44.5v-7q84 -10 122 -48.5t39 -113.5v-12
q0 -66 -27 -109.5t-81.5 -66.5t-121 -32t-161.5 -9zM385 426h224q68 0 96 16t28 52v5q0 43 -47.5 58t-188.5 15t-188 -15t-47 -58v-5q0 -36 28 -52t95 -16zM497 128q105 0 160.5 8t78 26t22.5 52v4q0 43 -35.5 62t-118.5 19h-214q-82 0 -117 -19t-35 -62v-4q0 -34 22 -52
t77.5 -26t159.5 -8z" />
    <glyph glyph-name="nine.LT" 
d="M435 710h102q220 0 313.5 -74t93.5 -245v-64q0 -181 -94 -259t-310 -78h-77q-196 0 -289.5 46.5t-117.5 150.5h197q14 -32 63 -43.5t178 -11.5q161 0 214 37t53 145v6h-7q-22 -42 -95.5 -60.5t-217.5 -18.5q-151 0 -235 21t-118.5 65.5t-34.5 124.5v28q0 121 91.5 175.5
t290.5 54.5zM498 572q-149 0 -202.5 -19t-53.5 -73v-14q0 -53 54 -73t202 -20q149 0 203.5 20t54.5 73v14q0 54 -54 73t-204 19z" />
    <glyph glyph-name="numbersign.OP" 
d="M681 0h-133l18 125h-180l-18 -125h-132l18 125h-189v116h202l17 116h-189v118h202l17 125h133l-17 -125h180l17 125h132l-17 -125h189v-118h-203l-16 -116h189v-116h-202zM603 364h-192l-19 -130h192z" />
    <glyph glyph-name="Euro.OP" 
d="M561 -10h-42q-168 0 -269.5 45t-132.5 155h-113v82h101q-1 8 -1 24v8q0 16 1 24h-101v82h113q16 57 51.5 97t89 62t116.5 31.5t145 9.5h42q181 0 276 -40t123 -124h-194q-25 23 -70 31t-156 8q-100 0 -154 -17t-77 -58h532v-82h-550v-9v-38v-9h550v-82h-532
q23 -41 77 -58t154 -17q111 0 156 8t70 31h194q-28 -84 -123 -124t-276 -40z" />
    <glyph glyph-name="dollar.OP" 
d="M566 10v-115h-112v115q-173 0 -278.5 35t-140.5 130h208q21 -24 74.5 -32.5t194.5 -8.5q83 0 128 1.5t75.5 7.5t40 16t9.5 27v5q0 25 -23 33t-107 11l-315 11q-105 4 -163.5 23.5t-80 51t-21.5 84.5v8q0 90 93 132.5t296 44.5v115h112v-115q85 -2 146.5 -9.5t114.5 -25.5
t85 -50.5t44 -80.5h-208q-21 27 -68 36t-172 9q-142 0 -192.5 -9.5t-50.5 -36.5v-4q0 -25 23 -33t108 -11l314 -11q105 -4 163.5 -23t80 -50.5t21.5 -84.5v-12q0 -97 -95 -139.5t-304 -44.5z" />
    <glyph glyph-name="cent.OP" horiz-adv-x="818" 
d="M472 -10v-95h-112v95q-168 3 -246 60.5t-78 193.5v42q0 136 78 193.5t246 60.5v95h112v-95q155 -6 229 -54t88 -138h-183q-22 31 -62 44t-128 13q-112 0 -156.5 -24.5t-44.5 -102.5v-26q0 -78 44.5 -102.5t156.5 -24.5q88 0 128 13t62 44h183q-14 -90 -88 -138t-229 -54z
" />
    <glyph glyph-name="sterling.OP" 
d="M846 345v-90h-484v-116h587v-139h-912v139h141v116h-141v90h142q10 147 100.5 206t270.5 59h40q335 0 372 -188h-199q-17 25 -56.5 35t-135.5 10q-111 0 -158 -25.5t-51 -96.5h484z" />
    <glyph glyph-name="florin.OP" 
d="M523 255v-440h-184v440h-311v90h314q16 137 105 196t255 59h234v-147h-194q-101 0 -152 -24.5t-63 -83.5h409v-90h-413z" />
    <glyph glyph-name="yen.OP" 
d="M593 190v-190h-187v190h-308v82h301l-66 56h-235v82h139l-223 190h253l242 -214h7l241 214h225l-222 -190h141v-82h-237l-65 -56h302v-82h-308z" />
    <glyph glyph-name="zero.slash.OP" horiz-adv-x="1086" 
d="M590 -10h-94q-237 0 -337.5 64.5t-100.5 231.5v28q0 167 100.5 231.5t337.5 64.5h94q237 0 338 -64.5t101 -231.5v-28q0 -167 -101 -231.5t-338 -64.5zM248 313v-25q0 -80 47 -113l382 285q-56 6 -134 6q-121 0 -184.5 -15t-87 -46.5t-23.5 -91.5zM543 135
q122 0 185.5 15.5t87 47t23.5 90.5v25q0 80 -46 112l-381 -284q54 -6 131 -6z" />
    <glyph glyph-name="zero.OP" horiz-adv-x="1086" 
d="M590 -10h-94q-237 0 -337.5 64.5t-100.5 231.5v28q0 167 100.5 231.5t337.5 64.5h94q237 0 338 -64.5t101 -231.5v-28q0 -167 -101 -231.5t-338 -64.5zM543 135q122 0 185.5 15.5t87 47t23.5 90.5v25q0 60 -23.5 91.5t-87 46.5t-185.5 15q-121 0 -184.5 -15t-87 -46.5
t-23.5 -91.5v-25q0 -59 23.5 -90.5t87 -47t184.5 -15.5z" />
    <glyph glyph-name="one.OP" horiz-adv-x="622" 
d="M549 600v-600h-188v455h-7l-339 -146v177l290 114h244z" />
    <glyph glyph-name="two.OP" 
d="M944 138v-138h-892v104q0 111 57 168t192 66l351 28q62 4 82.5 13.5t20.5 34.5v4q0 30 -49 41t-185 11q-118 0 -172 -13.5t-77 -48.5h-204q35 109 137 155q105 47 297 47h18q218 0 321 -44.5t103 -134.5v-11q0 -90 -56.5 -132.5t-194.5 -52.5l-352 -27q-63 -6 -82.5 -18
t-19.5 -48v-4h705z" />
    <glyph glyph-name="three.OP" 
d="M547 -110h-80q-205 0 -306.5 48.5t-120.5 166.5h193q16 -42 74 -57t198 -15q155 0 210 17.5t55 66.5v4q0 35 -29 51t-93 16h-338v137h335q55 0 80 14t25 47v6q0 42 -51 58.5t-185 16.5q-122 0 -174.5 -13.5t-71.5 -48.5h-195q29 109 121.5 157t280.5 48h59
q215 0 311.5 -42.5t96.5 -133.5v-9q0 -64 -32.5 -97.5t-103.5 -41.5v-8q85 -8 120.5 -46.5t35.5 -119.5v-10q0 -115 -93.5 -163.5t-321.5 -48.5z" />
    <glyph glyph-name="four.OP" 
d="M854 61v-161h-187v161h-616v239l515 300h288v-399h109v-140h-109zM198 209v-8h469v278h-8z" />
    <glyph glyph-name="five.OP" 
d="M563 -110h-98q-187 0 -282 46t-123 159h195q17 -35 72 -48.5t179 -13.5q146 0 201.5 20.5t55.5 73.5v16q0 56 -51 75t-207 19q-121 0 -179.5 -11.5t-79.5 -38.5h-173l45 413h782v-140h-613l-21 -149h7q26 35 98.5 50.5t217.5 15.5q201 0 283 -54.5t82 -181.5v-13
q0 -127 -92.5 -182.5t-298.5 -55.5z" />
    <glyph glyph-name="six.OP" 
d="M561 -10h-102q-220 0 -313.5 74t-93.5 245v64q0 181 94 259t310 78h77q196 0 289.5 -46.5t117.5 -150.5h-197q-14 32 -63 43.5t-178 11.5q-161 0 -214 -37t-53 -145v-6h7q22 42 95.5 60.5t217.5 18.5q151 0 235 -21t118.5 -65.5t34.5 -124.5v-28q0 -121 -91.5 -175.5
t-290.5 -54.5zM498 128q149 0 202.5 19t53.5 73v14q0 53 -54 73t-202 20q-149 0 -203.5 -20t-54.5 -73v-14q0 -54 54 -73t204 -19z" />
    <glyph glyph-name="seven.OP" 
d="M952 452l-522 -552h-250l539 552v9h-679v139h912v-148z" />
    <glyph glyph-name="eight.OP" 
d="M558 -10h-121q-95 0 -161.5 9t-121 32t-81.5 66.5t-27 109.5v11q1 76 38.5 114.5t121.5 48.5v7q-69 11 -103 44.5t-34 93.5v8q0 93 93.5 134.5t294.5 41.5h80q202 0 295.5 -41.5t93.5 -134.5v-8q0 -60 -34.5 -93.5t-103.5 -44.5v-7q84 -10 122 -48.5t39 -113.5v-12
q0 -66 -27 -109.5t-81.5 -66.5t-121 -32t-161.5 -9zM385 426h224q68 0 96 16t28 52v5q0 43 -47.5 58t-188.5 15t-188 -15t-47 -58v-5q0 -36 28 -52t95 -16zM497 128q105 0 160.5 8t78 26t22.5 52v4q0 43 -35.5 62t-118.5 19h-214q-82 0 -117 -19t-35 -62v-4q0 -34 22 -52
t77.5 -26t159.5 -8z" />
    <glyph glyph-name="nine.OP" 
d="M435 610h102q220 0 313.5 -74t93.5 -245v-64q0 -181 -94 -259t-310 -78h-77q-196 0 -289.5 46.5t-117.5 150.5h197q14 -32 63 -43.5t178 -11.5q161 0 214 37t53 145v6h-7q-22 -42 -95.5 -60.5t-217.5 -18.5q-151 0 -235 21t-118.5 65.5t-34.5 124.5v28q0 121 91.5 175.5
t290.5 54.5zM498 472q-149 0 -202.5 -19t-53.5 -73v-14q0 -53 54 -73t202 -20q149 0 203.5 20t54.5 73v14q0 54 -54 73t-204 19z" />
    <glyph glyph-name="numbersign.OT" 
d="M681 0h-133l18 125h-180l-18 -125h-132l18 125h-189v116h202l17 116h-189v118h202l17 125h133l-17 -125h180l17 125h132l-17 -125h189v-118h-203l-16 -116h189v-116h-202zM603 364h-192l-19 -130h192z" />
    <glyph glyph-name="Euro.OT" 
d="M561 -10h-42q-168 0 -269.5 45t-132.5 155h-113v82h101q-1 8 -1 24v8q0 16 1 24h-101v82h113q16 57 51.5 97t89 62t116.5 31.5t145 9.5h42q181 0 276 -40t123 -124h-194q-25 23 -70 31t-156 8q-100 0 -154 -17t-77 -58h532v-82h-550v-9v-38v-9h550v-82h-532
q23 -41 77 -58t154 -17q111 0 156 8t70 31h194q-28 -84 -123 -124t-276 -40z" />
    <glyph glyph-name="dollar.OT" 
d="M566 10v-115h-112v115q-173 0 -278.5 35t-140.5 130h208q21 -24 74.5 -32.5t194.5 -8.5q83 0 128 1.5t75.5 7.5t40 16t9.5 27v5q0 25 -23 33t-107 11l-315 11q-105 4 -163.5 23.5t-80 51t-21.5 84.5v8q0 90 93 132.5t296 44.5v115h112v-115q85 -2 146.5 -9.5t114.5 -25.5
t85 -50.5t44 -80.5h-208q-21 27 -68 36t-172 9q-142 0 -192.5 -9.5t-50.5 -36.5v-4q0 -25 23 -33t108 -11l314 -11q105 -4 163.5 -23t80 -50.5t21.5 -84.5v-12q0 -97 -95 -139.5t-304 -44.5z" />
    <glyph glyph-name="cent.OT" 
d="M562 -10v-95h-112v95q-168 3 -246 60.5t-78 193.5v42q0 136 78 193.5t246 60.5v95h112v-95q155 -6 229 -54t88 -138h-183q-22 31 -62 44t-128 13q-112 0 -156.5 -24.5t-44.5 -102.5v-26q0 -78 44.5 -102.5t156.5 -24.5q88 0 128 13t62 44h183q-14 -90 -88 -138t-229 -54z
" />
    <glyph glyph-name="sterling.OT" 
d="M846 345v-90h-484v-116h587v-139h-912v139h141v116h-141v90h142q10 147 100.5 206t270.5 59h40q335 0 372 -188h-199q-17 25 -56.5 35t-135.5 10q-111 0 -158 -25.5t-51 -96.5h484z" />
    <glyph glyph-name="florin.OT" 
d="M523 255v-440h-184v440h-311v90h314q16 137 105 196t255 59h234v-147h-194q-101 0 -152 -24.5t-63 -83.5h409v-90h-413z" />
    <glyph glyph-name="yen.OT" 
d="M593 190v-190h-187v190h-308v82h301l-66 56h-235v82h139l-223 190h253l242 -214h7l241 214h225l-222 -190h141v-82h-237l-65 -56h302v-82h-308z" />
    <glyph glyph-name="zero.slash.OT" 
d="M511 -10h-26q-234 0 -330.5 64t-96.5 232v28q0 168 96.5 232t330.5 64h26q234 0 330.5 -64t96.5 -232v-28q0 -168 -96.5 -232t-330.5 -64zM248 313v-25q0 -73 27 -104l342 276q-48 6 -119 6q-108 0 -161.5 -15.5t-71 -46t-17.5 -91.5zM498 135q107 0 161 15.5t71.5 46
t17.5 91.5v25q0 77 -30 107l-345 -278q46 -7 125 -7z" />
    <glyph glyph-name="zero.OT" 
d="M511 -10h-26q-234 0 -330.5 64t-96.5 232v28q0 168 96.5 232t330.5 64h26q234 0 330.5 -64t96.5 -232v-28q0 -168 -96.5 -232t-330.5 -64zM498 135q107 0 161 15.5t71.5 46t17.5 91.5v25q0 61 -17.5 91.5t-71 46t-161.5 15.5t-161.5 -15.5t-71 -46t-17.5 -91.5v-25
q0 -61 17.5 -91.5t71.5 -46t161 -15.5z" />
    <glyph glyph-name="one.OT" 
d="M938 139v-139h-880v139h345v316h-7l-339 -146v177l290 114h244v-461h347z" />
    <glyph glyph-name="two.OT" 
d="M944 138v-138h-892v104q0 111 57 168t192 66l351 28q62 4 82.5 13.5t20.5 34.5v4q0 30 -49 41t-185 11q-118 0 -172 -13.5t-77 -48.5h-204q35 109 137 155q105 47 297 47h18q218 0 321 -44.5t103 -134.5v-11q0 -90 -56.5 -132.5t-194.5 -52.5l-352 -27q-63 -6 -82.5 -18
t-19.5 -48v-4h705z" />
    <glyph glyph-name="three.OT" 
d="M547 -110h-80q-205 0 -306.5 48.5t-120.5 166.5h193q16 -42 74 -57t198 -15q155 0 210 17.5t55 66.5v4q0 35 -29 51t-93 16h-338v137h335q55 0 80 14t25 47v6q0 42 -51 58.5t-185 16.5q-122 0 -174.5 -13.5t-71.5 -48.5h-195q29 109 121.5 157t280.5 48h59
q215 0 311.5 -42.5t96.5 -133.5v-9q0 -64 -32.5 -97.5t-103.5 -41.5v-8q85 -8 120.5 -46.5t35.5 -119.5v-10q0 -115 -93.5 -163.5t-321.5 -48.5z" />
    <glyph glyph-name="four.OT" 
d="M854 61v-161h-187v161h-616v239l515 300h288v-399h109v-140h-109zM198 209v-8h469v278h-8z" />
    <glyph glyph-name="five.OT" 
d="M563 -110h-98q-187 0 -282 46t-123 159h195q17 -35 72 -48.5t179 -13.5q146 0 201.5 20.5t55.5 73.5v16q0 56 -51 75t-207 19q-121 0 -179.5 -11.5t-79.5 -38.5h-173l45 413h782v-140h-613l-21 -149h7q26 35 98.5 50.5t217.5 15.5q201 0 283 -54.5t82 -181.5v-13
q0 -127 -92.5 -182.5t-298.5 -55.5z" />
    <glyph glyph-name="six.OT" 
d="M561 -10h-102q-220 0 -313.5 74t-93.5 245v64q0 181 94 259t310 78h77q196 0 289.5 -46.5t117.5 -150.5h-197q-14 32 -63 43.5t-178 11.5q-161 0 -214 -37t-53 -145v-6h7q22 42 95.5 60.5t217.5 18.5q151 0 235 -21t118.5 -65.5t34.5 -124.5v-28q0 -121 -91.5 -175.5
t-290.5 -54.5zM498 128q149 0 202.5 19t53.5 73v14q0 53 -54 73t-202 20q-149 0 -203.5 -20t-54.5 -73v-14q0 -54 54 -73t204 -19z" />
    <glyph glyph-name="seven.OT" 
d="M952 452l-522 -552h-250l539 552v9h-679v139h912v-148z" />
    <glyph glyph-name="eight.OT" 
d="M558 -10h-121q-95 0 -161.5 9t-121 32t-81.5 66.5t-27 109.5v11q1 76 38.5 114.5t121.5 48.5v7q-69 11 -103 44.5t-34 93.5v8q0 93 93.5 134.5t294.5 41.5h80q202 0 295.5 -41.5t93.5 -134.5v-8q0 -60 -34.5 -93.5t-103.5 -44.5v-7q84 -10 122 -48.5t39 -113.5v-12
q0 -66 -27 -109.5t-81.5 -66.5t-121 -32t-161.5 -9zM385 426h224q68 0 96 16t28 52v5q0 43 -47.5 58t-188.5 15t-188 -15t-47 -58v-5q0 -36 28 -52t95 -16zM497 128q105 0 160.5 8t78 26t22.5 52v4q0 43 -35.5 62t-118.5 19h-214q-82 0 -117 -19t-35 -62v-4q0 -34 22 -52
t77.5 -26t159.5 -8z" />
    <glyph glyph-name="nine.OT" 
d="M435 610h102q220 0 313.5 -74t93.5 -245v-64q0 -181 -94 -259t-310 -78h-77q-196 0 -289.5 46.5t-117.5 150.5h197q14 -32 63 -43.5t178 -11.5q161 0 214 37t53 145v6h-7q-22 -42 -95.5 -60.5t-217.5 -18.5q-151 0 -235 21t-118.5 65.5t-34.5 124.5v28q0 121 91.5 175.5
t290.5 54.5zM498 472q-149 0 -202.5 -19t-53.5 -73v-14q0 -53 54 -73t202 -20q149 0 203.5 20t54.5 73v14q0 54 -54 73t-204 19z" />
    <glyph glyph-name="zero.numr" horiz-adv-x="576" 
d="M294 274h-12q-141 0 -200 43.5t-59 160.5v24q0 117 59 160.5t200 43.5h12q139 0 199 -44t60 -161v-24q0 -116 -60 -159.5t-199 -43.5zM288 384q61 0 81 18t20 83v9q0 66 -20 83.5t-81 17.5t-81 -17.5t-20 -83.5v-9q0 -65 20 -83t81 -18z" />
    <glyph glyph-name="one.numr" horiz-adv-x="422" 
d="M368 700v-420h-161v304h-6l-170 -78v141l136 53h201z" />
    <glyph glyph-name="two.numr" horiz-adv-x="576" 
d="M555 385v-105h-532v88q0 78 41 111t149 45l120 12q30 4 41 11t11 20v2q0 18 -17.5 25t-68.5 7q-49 0 -69 -5.5t-30 -23.5h-171q15 79 77.5 106.5t182.5 27.5h10q139 0 197.5 -30.5t58.5 -96.5v-7q0 -63 -35.5 -91.5t-126.5 -38.5l-172 -19q-20 -3 -26.5 -9t-6.5 -19v-10
h367z" />
    <glyph glyph-name="three.numr" horiz-adv-x="576" 
d="M314 274h-36q-59 0 -99.5 5t-77 19t-57 42t-26.5 70h170q8 -18 30 -24.5t69 -6.5q62 0 81 6.5t19 26.5v3q0 27 -50 27h-127v99h116q43 0 43 26v3q0 16 -16.5 23.5t-59.5 7.5q-73 0 -85 -26h-173q16 69 68.5 100t167.5 31h25q131 0 190 -25.5t59 -79.5v-4q0 -40 -20 -58.5
t-71 -23.5v-6q60 -4 84.5 -26.5t24.5 -73.5v-3q0 -70 -57 -102q-56 -30 -192 -30z" />
    <glyph glyph-name="four.numr" horiz-adv-x="576" 
d="M514 366v-86h-168v86h-326v170l247 164h247v-227h52v-107h-52zM149 479v-6h197v132h-6z" />
    <glyph glyph-name="five.numr" horiz-adv-x="576" 
d="M313 274h-36q-53 0 -91.5 4.5t-75.5 18t-59.5 40.5t-31.5 69h171q8 -15 28.5 -21t68.5 -6q60 0 80 8t20 30v9q0 22 -21 30.5t-86 8.5q-84 0 -103 -19h-152l30 254h474v-107h-324l-10 -69h5q29 39 147 39q124 0 170 -32t46 -105v-5q0 -80 -60.5 -113.5t-189.5 -33.5z" />
    <glyph glyph-name="six.numr" horiz-adv-x="576" 
d="M317 274h-38q-139 0 -198.5 47.5t-59.5 153.5v27q0 110 60.5 157t198.5 47h22q121 0 178.5 -30t78.5 -91h-176q-16 15 -88 15q-63 0 -86.5 -16t-23.5 -60v-10h6q24 38 158 38q127 0 169.5 -29.5t42.5 -103.5v-2q0 -77 -60.5 -110t-183.5 -33zM289 377q62 0 83 8
q20 8 20 30v8q0 22 -20.5 30t-82.5 8q-64 0 -85 -8q-19 -7 -19 -30v-8q0 -23 19 -30q21 -8 85 -8z" />
    <glyph glyph-name="seven.numr" horiz-adv-x="576" 
d="M561 587l-293 -307h-207l305 304v5h-351v111h546v-113z" />
    <glyph glyph-name="eight.numr" horiz-adv-x="576" 
d="M312 273h-47q-123 0 -185.5 29.5t-62.5 105.5v4q1 47 27.5 70.5t83.5 27.5v5q-47 7 -70 25.5t-23 56.5v1q1 57 57.5 82.5t184.5 25.5h23q128 0 184.5 -25.5t57.5 -82.5v-1q0 -38 -23.5 -56.5t-69.5 -25.5v-5q57 -4 83.5 -27.5t27.5 -70.5v-4q0 -76 -62.5 -105.5
t-185.5 -29.5zM263 535h50q36 0 49.5 8t13.5 25v3q0 19 -17.5 26t-69.5 7q-53 0 -70 -7t-17 -26v-3q0 -17 13 -25t48 -8zM289 375q62 0 83 8q20 9 20 32v3q0 21 -16 30t-62 9h-51q-46 0 -62 -9t-16 -30v-3q0 -23 19 -32q21 -8 85 -8z" />
    <glyph glyph-name="nine.numr" horiz-adv-x="576" 
d="M259 705h38q139 0 198.5 -47.5t59.5 -153.5v-27q0 -109 -61 -156.5t-198 -47.5h-22q-121 0 -178.5 30t-78.5 91h176q16 -15 88 -15q62 0 86 16.5t24 59.5v10h-6q-24 -38 -158 -38q-127 0 -169.5 29.5t-42.5 103.5v2q0 78 60 110.5t184 32.5zM287 602q-63 0 -84 -8
q-19 -7 -19 -30v-8q0 -22 20.5 -30t82.5 -8q63 0 84 8q20 8 20 30v8q0 22 -20 30q-21 8 -84 8z" />
    <glyph glyph-name="zero.dnom" horiz-adv-x="576" 
d="M294 -6h-12q-141 0 -200 43.5t-59 160.5v24q0 117 59 160.5t200 43.5h12q139 0 199 -44t60 -161v-24q0 -116 -60 -159.5t-199 -43.5zM288 104q61 0 81 18t20 83v9q0 66 -20 83.5t-81 17.5t-81 -17.5t-20 -83.5v-9q0 -65 20 -83t81 -18z" />
    <glyph glyph-name="one.dnom" horiz-adv-x="422" 
d="M368 420v-420h-161v304h-6l-170 -78v141l136 53h201z" />
    <glyph glyph-name="two.dnom" horiz-adv-x="576" 
d="M555 105v-105h-532v88q0 78 41 111t149 45l120 12q30 4 41 11t11 20v2q0 18 -17.5 25t-68.5 7q-49 0 -69 -5.5t-30 -23.5h-171q15 79 77.5 106.5t182.5 27.5h10q139 0 197.5 -30.5t58.5 -96.5v-7q0 -63 -35.5 -91.5t-126.5 -38.5l-172 -19q-20 -3 -26.5 -9t-6.5 -19v-10
h367z" />
    <glyph glyph-name="three.dnom" horiz-adv-x="576" 
d="M314 -6h-36q-59 0 -99.5 5t-77 19t-57 42t-26.5 70h170q8 -18 30 -24.5t69 -6.5q62 0 81 6.5t19 26.5v3q0 27 -50 27h-127v99h116q43 0 43 26v3q0 16 -16.5 23.5t-59.5 7.5q-73 0 -85 -26h-173q16 69 68.5 100t167.5 31h25q131 0 190 -25.5t59 -79.5v-4q0 -40 -20 -58.5
t-71 -23.5v-6q60 -4 84.5 -26.5t24.5 -73.5v-3q0 -70 -57 -102q-56 -30 -192 -30z" />
    <glyph glyph-name="four.dnom" horiz-adv-x="576" 
d="M514 86v-86h-168v86h-326v170l247 164h247v-227h52v-107h-52zM149 199v-6h197v132h-6z" />
    <glyph glyph-name="five.dnom" horiz-adv-x="576" 
d="M313 -6h-36q-53 0 -91.5 4.5t-75.5 18t-59.5 40.5t-31.5 69h171q8 -15 28.5 -21t68.5 -6q60 0 80 8t20 30v9q0 22 -21 30.5t-86 8.5q-84 0 -103 -19h-152l30 254h474v-107h-324l-10 -69h5q29 39 147 39q124 0 170 -32t46 -105v-5q0 -80 -60.5 -113.5t-189.5 -33.5z" />
    <glyph glyph-name="six.dnom" horiz-adv-x="576" 
d="M317 -6h-38q-139 0 -198.5 47.5t-59.5 153.5v27q0 110 60.5 157t198.5 47h22q121 0 178.5 -30t78.5 -91h-176q-16 15 -88 15q-63 0 -86.5 -16t-23.5 -60v-10h6q24 38 158 38q127 0 169.5 -29.5t42.5 -103.5v-2q0 -77 -60.5 -110t-183.5 -33zM289 97q62 0 83 8q20 8 20 30
v8q0 22 -20.5 30t-82.5 8q-64 0 -85 -8q-19 -7 -19 -30v-8q0 -23 19 -30q21 -8 85 -8z" />
    <glyph glyph-name="seven.dnom" horiz-adv-x="576" 
d="M561 307l-293 -307h-207l305 304v5h-351v111h546v-113z" />
    <glyph glyph-name="eight.dnom" horiz-adv-x="576" 
d="M312 -7h-47q-123 0 -185.5 29.5t-62.5 105.5v4q1 47 27.5 70.5t83.5 27.5v5q-47 7 -70 25.5t-23 56.5v1q1 57 57.5 82.5t184.5 25.5h23q128 0 184.5 -25.5t57.5 -82.5v-1q0 -38 -23.5 -56.5t-69.5 -25.5v-5q57 -4 83.5 -27.5t27.5 -70.5v-4q0 -76 -62.5 -105.5
t-185.5 -29.5zM263 255h50q36 0 49.5 8t13.5 25v3q0 19 -17.5 26t-69.5 7q-53 0 -70 -7t-17 -26v-3q0 -17 13 -25t48 -8zM289 95q62 0 83 8q20 9 20 32v3q0 21 -16 30t-62 9h-51q-46 0 -62 -9t-16 -30v-3q0 -23 19 -32q21 -8 85 -8z" />
    <glyph glyph-name="nine.dnom" horiz-adv-x="576" 
d="M259 425h38q139 0 198.5 -47.5t59.5 -153.5v-27q0 -109 -61 -156.5t-198 -47.5h-22q-121 0 -178.5 30t-78.5 91h176q16 -15 88 -15q62 0 86 16.5t24 59.5v10h-6q-24 -38 -158 -38q-127 0 -169.5 29.5t-42.5 103.5v2q0 78 60 110.5t184 32.5zM287 322q-63 0 -84 -8
q-19 -7 -19 -30v-8q0 -22 20.5 -30t82.5 -8q63 0 84 8q20 8 20 30v8q0 22 -20 30q-21 8 -84 8z" />
    <glyph glyph-name="G.alt" horiz-adv-x="1142" 
d="M1069 411v-411h-172v107h-7q-48 -117 -322 -117h-58q-250 0 -354 75.5t-104 259.5v50q0 186 103.5 260.5t354.5 74.5h110q208 0 311.5 -50t136.5 -164h-217q-26 37 -80.5 50t-185.5 13h-44q-123 0 -185 -19.5t-83 -59.5t-21 -119v-22q0 -79 21 -119t83 -59.5t185 -19.5
h44q151 0 215 26.5t70 97.5h-347v146h546z" />
    <glyph glyph-name="Gcircumflex.alt" horiz-adv-x="1142" 
d="M693 860l146 -120h-168l-106 72l-106 -72h-168l146 120h256zM1069 411v-411h-172v107h-7q-48 -117 -322 -117h-58q-250 0 -354 75.5t-104 259.5v50q0 186 103.5 260.5t354.5 74.5h110q208 0 311.5 -50t136.5 -164h-217q-26 37 -80.5 50t-185.5 13h-44q-123 0 -185 -19.5
t-83 -59.5t-21 -119v-22q0 -79 21 -119t83 -59.5t185 -19.5h44q151 0 215 26.5t70 97.5h-347v146h546z" />
    <glyph glyph-name="Gbreve.alt" horiz-adv-x="1142" 
d="M565 731q-124 0 -177 30t-62 99h142q3 -26 25.5 -37t71.5 -11q48 0 70.5 11t26.5 37h142q-9 -69 -62 -99t-177 -30zM1069 411v-411h-172v107h-7q-48 -117 -322 -117h-58q-250 0 -354 75.5t-104 259.5v50q0 186 103.5 260.5t354.5 74.5h110q208 0 311.5 -50t136.5 -164
h-217q-26 37 -80.5 50t-185.5 13h-44q-123 0 -185 -19.5t-83 -59.5t-21 -119v-22q0 -79 21 -119t83 -59.5t185 -19.5h44q151 0 215 26.5t70 97.5h-347v146h546z" />
    <glyph glyph-name="Gdotaccent.alt" horiz-adv-x="1142" 
d="M475 859h179v-110h-179v110zM1069 411v-411h-172v107h-7q-48 -117 -322 -117h-58q-250 0 -354 75.5t-104 259.5v50q0 186 103.5 260.5t354.5 74.5h110q208 0 311.5 -50t136.5 -164h-217q-26 37 -80.5 50t-185.5 13h-44q-123 0 -185 -19.5t-83 -59.5t-21 -119v-22
q0 -79 21 -119t83 -59.5t185 -19.5h44q151 0 215 26.5t70 97.5h-347v146h546z" />
    <glyph glyph-name="Gcommaaccent.alt" horiz-adv-x="1142" 
d="M1069 411v-411h-172v107h-7q-48 -117 -322 -117h-58q-250 0 -354 75.5t-104 259.5v50q0 186 103.5 260.5t354.5 74.5h110q208 0 311.5 -50t136.5 -164h-217q-26 37 -80.5 50t-185.5 13h-44q-123 0 -185 -19.5t-83 -59.5t-21 -119v-22q0 -79 21 -119t83 -59.5t185 -19.5
h44q151 0 215 26.5t70 97.5h-347v146h546zM588 -152l-20 -18h-104l56 53v8h-80v73h198v-19q0 -32 -10.5 -50.5t-39.5 -46.5z" />
    <glyph glyph-name="J.alt" horiz-adv-x="882" 
d="M438 -10h-32q-198 0 -280.5 52t-102.5 186l-2 15h199l1 -4q9 -48 49.5 -73t146.5 -25h11q111 0 154 30.5t43 99.5v429h200v-405q0 -175 -82.5 -240t-304.5 -65z" />
    <glyph glyph-name="Jcircumflex.alt" horiz-adv-x="882" 
d="M852 860l146 -120h-168l-106 72l-106 -72h-168l146 120h256zM438 -10h-32q-198 0 -280.5 52t-102.5 186l-2 15h199l1 -4q9 -48 49.5 -73t146.5 -25h11q111 0 154 30.5t43 99.5v429h200v-405q0 -175 -82.5 -240t-304.5 -65z" />
    <glyph glyph-name="K.alt" horiz-adv-x="1165" 
d="M273 700v-700h-196v700h196zM581 358l572 -358h-317l-551 350l557 350h291z" />
    <glyph glyph-name="Kcommaaccent.alt" horiz-adv-x="1165" 
d="M273 700v-700h-196v700h196zM581 358l572 -358h-317l-551 350l557 350h291zM591 -152l-20 -18h-104l56 53v8h-80v73h198v-19q0 -32 -10.5 -50.5t-39.5 -46.5z" />
    <glyph glyph-name="Q.alt" horiz-adv-x="1131" 
d="M838 9l191 -179h-250l-163 160h-106q-251 0 -354.5 74.5t-103.5 260.5v50q0 186 103.5 260.5t354.5 74.5h110q251 0 355 -74.5t104 -260.5v-50q0 -139 -56.5 -213.5t-184.5 -102.5zM542 141h47q123 0 185.5 19.5t84 59.5t21.5 118v23q0 79 -21.5 119t-84 59.5
t-185.5 19.5h-47q-124 0 -186 -19.5t-83 -59.5t-21 -119v-23q0 -79 21 -118.5t83 -59t186 -19.5z" />
    <glyph glyph-name="R.alt" horiz-adv-x="1052" 
d="M273 257v-257h-196v700h617q165 0 233.5 -45.5t68.5 -153.5v-43q0 -99 -56.5 -144.5t-190.5 -53.5l278 -260h-250l-267 257h-237zM638 559h-365v-164h365q94 0 128 16.5t34 62.5v8q0 45 -34 61t-128 16z" />
    <glyph glyph-name="Racute.alt" horiz-adv-x="1052" 
d="M782 860l-145 -120h-187l106 120h226zM273 257v-257h-196v700h617q165 0 233.5 -45.5t68.5 -153.5v-43q0 -99 -56.5 -144.5t-190.5 -53.5l278 -260h-250l-267 257h-237zM638 559h-365v-164h365q94 0 128 16.5t34 62.5v8q0 45 -34 61t-128 16z" />
    <glyph glyph-name="Rcaron.alt" horiz-adv-x="1052" 
d="M538 788l106 72h168l-146 -120h-256l-146 120h168zM273 257v-257h-196v700h617q165 0 233.5 -45.5t68.5 -153.5v-43q0 -99 -56.5 -144.5t-190.5 -53.5l278 -260h-250l-267 257h-237zM638 559h-365v-164h365q94 0 128 16.5t34 62.5v8q0 45 -34 61t-128 16z" />
    <glyph glyph-name="Rcommaaccent.alt" horiz-adv-x="1052" 
d="M273 257v-257h-196v700h617q165 0 233.5 -45.5t68.5 -153.5v-43q0 -99 -56.5 -144.5t-190.5 -53.5l278 -260h-250l-267 257h-237zM638 559h-365v-164h365q94 0 128 16.5t34 62.5v8q0 45 -34 61t-128 16zM560 -152l-20 -18h-104l56 53v8h-80v73h198v-19q0 -32 -10.5 -50.5
t-39.5 -46.5z" />
    <glyph glyph-name="a.alt" horiz-adv-x="852" 
d="M803 530v-530h-178v94h-5q-25 -54 -86 -79t-169 -25h-22q-152 0 -229.5 57t-77.5 197v42q0 140 77.5 197t229.5 57h22q108 0 169 -25t86 -79h5v94h178zM420 125q113 0 159 24.5t46 102.5v26q0 77 -46.5 102t-158.5 25q-113 0 -159 -24.5t-46 -102.5v-26q0 -78 46 -102.5
t159 -24.5z" />
    <glyph glyph-name="agrave.alt" horiz-adv-x="852" 
d="M392 700l106 -120h-188l-144 120h226zM803 530v-530h-178v94h-5q-25 -54 -86 -79t-169 -25h-22q-152 0 -229.5 57t-77.5 197v42q0 140 77.5 197t229.5 57h22q108 0 169 -25t86 -79h5v94h178zM420 125q113 0 159 24.5t46 102.5v26q0 77 -46.5 102t-158.5 25
q-113 0 -159 -24.5t-46 -102.5v-26q0 -78 46 -102.5t159 -24.5z" />
    <glyph glyph-name="aacute.alt" horiz-adv-x="852" 
d="M642 700l-145 -120h-187l106 120h226zM803 530v-530h-178v94h-5q-25 -54 -86 -79t-169 -25h-22q-152 0 -229.5 57t-77.5 197v42q0 140 77.5 197t229.5 57h22q108 0 169 -25t86 -79h5v94h178zM420 125q113 0 159 24.5t46 102.5v26q0 77 -46.5 102t-158.5 25
q-113 0 -159 -24.5t-46 -102.5v-26q0 -78 46 -102.5t159 -24.5z" />
    <glyph glyph-name="acircumflex.alt" horiz-adv-x="852" 
d="M531 700l146 -120h-168l-106 72l-106 -72h-168l146 120h256zM803 530v-530h-178v94h-5q-25 -54 -86 -79t-169 -25h-22q-152 0 -229.5 57t-77.5 197v42q0 140 77.5 197t229.5 57h22q108 0 169 -25t86 -79h5v94h178zM420 125q113 0 159 24.5t46 102.5v26q0 77 -46.5 102
t-158.5 25q-113 0 -159 -24.5t-46 -102.5v-26q0 -78 46 -102.5t159 -24.5z" />
    <glyph glyph-name="atilde.alt" horiz-adv-x="852" 
d="M495 579q-41 0 -102.5 18.5t-76.5 18.5q-16 0 -25 -6t-15 -24h-111q11 64 44.5 90t95.5 26q41 0 102.5 -19t75.5 -19q17 0 26 6t15 24h117q-11 -63 -47 -89t-99 -26zM803 530v-530h-178v94h-5q-25 -54 -86 -79t-169 -25h-22q-152 0 -229.5 57t-77.5 197v42
q0 140 77.5 197t229.5 57h22q108 0 169 -25t86 -79h5v94h178zM420 125q113 0 159 24.5t46 102.5v26q0 77 -46.5 102t-158.5 25q-113 0 -159 -24.5t-46 -102.5v-26q0 -78 46 -102.5t159 -24.5z" />
    <glyph glyph-name="adieresis.alt" horiz-adv-x="852" 
d="M210 691h143v-110h-143v110zM452 691h144v-110h-144v110zM803 530v-530h-178v94h-5q-25 -54 -86 -79t-169 -25h-22q-152 0 -229.5 57t-77.5 197v42q0 140 77.5 197t229.5 57h22q108 0 169 -25t86 -79h5v94h178zM420 125q113 0 159 24.5t46 102.5v26q0 77 -46.5 102
t-158.5 25q-113 0 -159 -24.5t-46 -102.5v-26q0 -78 46 -102.5t159 -24.5z" />
    <glyph glyph-name="amacron.alt" horiz-adv-x="852" 
d="M619 674v-74h-433v74h433zM803 530v-530h-178v94h-5q-25 -54 -86 -79t-169 -25h-22q-152 0 -229.5 57t-77.5 197v42q0 140 77.5 197t229.5 57h22q108 0 169 -25t86 -79h5v94h178zM420 125q113 0 159 24.5t46 102.5v26q0 77 -46.5 102t-158.5 25q-113 0 -159 -24.5
t-46 -102.5v-26q0 -78 46 -102.5t159 -24.5z" />
    <glyph glyph-name="abreve.alt" horiz-adv-x="852" 
d="M403 571q-124 0 -177 30t-62 99h142q3 -26 25.5 -37t71.5 -11q48 0 70.5 11t26.5 37h142q-9 -69 -62 -99t-177 -30zM803 530v-530h-178v94h-5q-25 -54 -86 -79t-169 -25h-22q-152 0 -229.5 57t-77.5 197v42q0 140 77.5 197t229.5 57h22q108 0 169 -25t86 -79h5v94h178z
M420 125q113 0 159 24.5t46 102.5v26q0 77 -46.5 102t-158.5 25q-113 0 -159 -24.5t-46 -102.5v-26q0 -78 46 -102.5t159 -24.5z" />
    <glyph glyph-name="aring.alt" horiz-adv-x="852" 
d="M403 562q-100 0 -145 24t-45 84t45 84t145 24t144.5 -24t44.5 -84t-44.5 -84t-144.5 -24zM403 627q76 0 76 43t-76 43t-76 -43t76 -43zM803 530v-530h-178v94h-5q-25 -54 -86 -79t-169 -25h-22q-152 0 -229.5 57t-77.5 197v42q0 140 77.5 197t229.5 57h22q108 0 169 -25
t86 -79h5v94h178zM420 125q113 0 159 24.5t46 102.5v26q0 77 -46.5 102t-158.5 25q-113 0 -159 -24.5t-46 -102.5v-26q0 -78 46 -102.5t159 -24.5z" />
    <glyph glyph-name="aringacute.alt" horiz-adv-x="852" 
d="M643 920l-145 -120h-187l106 120h226zM404 559q-101 0 -145.5 23.5t-44.5 84.5t44.5 84.5t145.5 23.5q100 0 144.5 -24t44.5 -84t-44.5 -84t-144.5 -24zM404 624q42 0 59 10.5t17 32.5t-17 32.5t-59 10.5t-59 -10.5t-17 -32.5t17 -32.5t59 -10.5zM803 530v-530h-178v94
h-5q-25 -54 -86 -79t-169 -25h-22q-152 0 -229.5 57t-77.5 197v42q0 140 77.5 197t229.5 57h22q108 0 169 -25t86 -79h5v94h178zM420 125q113 0 159 24.5t46 102.5v26q0 77 -46.5 102t-158.5 25q-113 0 -159 -24.5t-46 -102.5v-26q0 -78 46 -102.5t159 -24.5z" />
    <glyph glyph-name="aogonek.alt" horiz-adv-x="852" 
d="M803 -68v-72h-140q-68 0 -99.5 16.5t-31.5 54.5q0 32 17.5 52t75.5 37v74h-5q-25 -54 -86 -79t-169 -25h-22q-152 0 -229.5 57t-77.5 197v42q0 140 77.5 197t229.5 57h22q108 0 169 -25t86 -79h5v94h178v-530q-72 -15 -89.5 -22.5t-17.5 -23.5q0 -12 8 -17t27 -5h72z
M420 125q113 0 159 24.5t46 102.5v26q0 77 -46.5 102t-158.5 25q-113 0 -159 -24.5t-46 -102.5v-26q0 -78 46 -102.5t159 -24.5z" />
    <glyph glyph-name="a.superior.alt" horiz-adv-x="684" 
d="M648 700v-420h-160v75h-4q-20 -44 -67.5 -63.5t-132.5 -19.5h-14q-122 0 -182.5 45.5t-60.5 156.5v32q0 111 60.5 156.5t182.5 45.5h14q161 0 200 -83h4v75h160zM338 388q85 0 117.5 17.5t32.5 75.5v18q0 58 -32.5 75.5t-117.5 17.5q-86 0 -118.5 -17.5t-32.5 -75.5v-18
q0 -58 32.5 -75.5t118.5 -17.5z" />
    <glyph glyph-name="k.alt" horiz-adv-x="811" 
d="M228 700v-700h-179v700h179zM475 299l328 -299h-243l-319 297l289 233h237z" />
    <glyph glyph-name="kcommaaccent.alt" horiz-adv-x="811" 
d="M228 700v-700h-179v700h179zM475 299l328 -299h-243l-319 297l289 233h237zM435 -152l-20 -18h-104l56 53v8h-80v73h198v-19q0 -32 -10.5 -50.5t-39.5 -46.5z" />
    <glyph glyph-name="k.superior.alt" horiz-adv-x="657" 
d="M196 834v-554h-161v554h161zM652 280h-212l-240 242l227 178h200l-228 -175z" />
    <glyph glyph-name="ampersand.alt" horiz-adv-x="1110" 
d="M896 286v-286h-546q-149 0 -219 46.5t-70 152.5v8q0 152 140 168v4q-54 8 -84.5 43t-30.5 93v6q0 94 65.5 136.5t225.5 42.5h440v-142h-405q-75 0 -102.5 -12t-27.5 -47v-6q0 -35 30.5 -48.5t111.5 -13.5h284v60h188v-60h214v-145h-214zM406 140h302v146h-301
q-92 0 -121 -11.5t-29 -55.5v-4q0 -45 32.5 -60t116.5 -15z" />
    <glyph glyph-name="registered.alt" horiz-adv-x="994" 
d="M557 -10h-120q-215 0 -310 75t-95 229v112q0 154 95 229t310 75h120q215 0 310 -75t95 -229v-112q0 -154 -95 -229t-310 -75zM454 25h86q115 0 191 18t117.5 57.5t58 91t16.5 127.5v62q0 76 -16.5 127.5t-58 91t-117.5 57.5t-191 18h-86q-115 0 -190.5 -18t-117.5 -57.5
t-58 -91t-16 -127.5v-62q0 -76 16 -127.5t58 -91t117.5 -57.5t190.5 -18zM395 299v-159h-154v420h353q108 0 151.5 -27t43.5 -94v-20q0 -58 -33 -85.5t-113 -32.5l169 -161h-196l-156 159h-65zM552 461h-157v-78h157q48 0 65 7.5t17 29.5v4q0 22 -17 29.5t-65 7.5z" />
    <glyph glyph-name="NULL" horiz-adv-x="0" 
 />
    <glyph glyph-name="CR" horiz-adv-x="276" 
 />
    </font>
</defs>
</svg>
