<?xml version="1.0" standalone="no"?>
<!DOCTYPE svg PUBLIC "-//W3C//DTD SVG 1.1//EN" "http://www.w3.org/Graphics/SVG/1.1/DTD/svg11.dtd" >
<svg xmlns="http://www.w3.org/2000/svg" xmlns:xlink="http://www.w3.org/1999/xlink" version="1.1">
<metadata>
Created by FontForge 20170731 at Wed Jul 11 08:47:59 2018
 By Aleksey,,,
(c) 2018 Stephane Elbaz under exclusive license to General Type LLC. All rights reserved.
</metadata>
<defs>
<font id="Pilat-Light" horiz-adv-x="605" >
  <font-face 
    font-family="Pilat Light"
    font-weight="300"
    font-stretch="normal"
    units-per-em="1000"
    panose-1="2 11 4 3 3 0 0 0 0 4"
    ascent="750"
    descent="-250"
    x-height="530"
    cap-height="700"
    bbox="-134 -205 1184 1080"
    underline-thickness="43"
    underline-position="-176"
    unicode-range="U+0020-FB00"
  />
<missing-glyph horiz-adv-x="700" 
d="M369 -80q-113 0 -190 78.5t-77 187.5v18l-19 31q-15 25 -9 53q6 29 31 44l7 4q18 13 43 11q-7 24 0.5 46t28.5 35l7 4q20 12 41 11l-76 120q-12 21 -12 39q0 30 21.5 52.5t51.5 22.5q42 0 65 -35l139 -221v224q0 31 21.5 53t52.5 22t52.5 -22t21.5 -53v-286
q30 -15 48 -43t18 -63v-62q0 -65 -30 -126t-92.5 -103t-143.5 -42zM451 645v-274h66q8 0 22 -2v276q0 18 -13 31t-31 13t-31 -13t-13 -31zM182 579l127 -203l24 -37q13 32 50 32h33l-160 255q-12 20 -37 20q-18 0 -31 -13t-13 -31q0 -12 7 -23zM313 220l8 5q13 9 17 24.5
t-5 30.5l-72 114q-9 14 -25 17.5t-29 -4.5l-8 -5q-13 -9 -17 -25.5t5 -29.5l72 -114q9 -14 25 -17.5t29 4.5zM359 138q0 25 12.5 50t29.5 33q-16 1 -34 15q-7 -25 -29 -37l-7 -4q-18 -11 -43 -11q8 -23 -0.5 -45.5t-28.5 -35.5l-8 -5q-24 -15 -51.5 -8.5t-44.5 31.5l-20 30
q10 -85 78.5 -143t154.5 -58q99 0 168 71.5t69 169.5v62q0 36 -26 62t-62 26h-134q-10 0 -17 -7.5t-7 -19.5q0 -27 19 -47.5t48 -20.5h42q6 0 10.5 -4.5t4.5 -10.5t-4.5 -10.5t-10.5 -4.5q-34 0 -55.5 -23.5t-21.5 -54.5q0 -6 -5 -10.5t-11 -4.5t-11 4.5t-5 10.5zM235 124
l8 5q13 9 17 24.5t-5 30.5l-72 114q-9 14 -25 17.5t-29 -4.5l-8 -5q-13 -9 -17 -25.5t5 -29.5l72 -114q9 -14 25 -17.5t29 4.5z" />
    <glyph glyph-name="f_f" unicode="ff" horiz-adv-x="668" 
d="M125 482h-117v48h117q1 97 40 133q38 37 122 37h58v-47h-52q-60 0 -85.5 -24.5t-25.5 -98.5h254q2 95 40 132.5t122 37.5h58v-47h-52q-60 0 -85.5 -24.5t-25.5 -98.5h163v-48h-163v-482h-57v482h-254v-482h-57v482z" />
    <glyph glyph-name=".notdef" horiz-adv-x="700" 
d="M369 -80q-113 0 -190 78.5t-77 187.5v18l-19 31q-15 25 -9 53q6 29 31 44l7 4q18 13 43 11q-7 24 0.5 46t28.5 35l7 4q20 12 41 11l-76 120q-12 21 -12 39q0 30 21.5 52.5t51.5 22.5q42 0 65 -35l139 -221v224q0 31 21.5 53t52.5 22t52.5 -22t21.5 -53v-286
q30 -15 48 -43t18 -63v-62q0 -65 -30 -126t-92.5 -103t-143.5 -42zM451 645v-274h66q8 0 22 -2v276q0 18 -13 31t-31 13t-31 -13t-13 -31zM182 579l127 -203l24 -37q13 32 50 32h33l-160 255q-12 20 -37 20q-18 0 -31 -13t-13 -31q0 -12 7 -23zM313 220l8 5q13 9 17 24.5
t-5 30.5l-72 114q-9 14 -25 17.5t-29 -4.5l-8 -5q-13 -9 -17 -25.5t5 -29.5l72 -114q9 -14 25 -17.5t29 4.5zM359 138q0 25 12.5 50t29.5 33q-16 1 -34 15q-7 -25 -29 -37l-7 -4q-18 -11 -43 -11q8 -23 -0.5 -45.5t-28.5 -35.5l-8 -5q-24 -15 -51.5 -8.5t-44.5 31.5l-20 30
q10 -85 78.5 -143t154.5 -58q99 0 168 71.5t69 169.5v62q0 36 -26 62t-62 26h-134q-10 0 -17 -7.5t-7 -19.5q0 -27 19 -47.5t48 -20.5h42q6 0 10.5 -4.5t4.5 -10.5t-4.5 -10.5t-10.5 -4.5q-34 0 -55.5 -23.5t-21.5 -54.5q0 -6 -5 -10.5t-11 -4.5t-11 4.5t-5 10.5zM235 124
l8 5q13 9 17 24.5t-5 30.5l-72 114q-9 14 -25 17.5t-29 -4.5l-8 -5q-13 -9 -17 -25.5t5 -29.5l72 -114q9 -14 25 -17.5t29 4.5z" />
    <glyph glyph-name=".null" horiz-adv-x="0" 
 />
    <glyph glyph-name="nonmarkingreturn" horiz-adv-x="333" 
 />
    <glyph glyph-name="space" unicode=" " horiz-adv-x="219" 
 />
    <glyph glyph-name="exclam" unicode="!" horiz-adv-x="235" 
d="M87 406v294h61v-294l-12 -186h-36zM164 0h-93v93h93v-93z" />
    <glyph glyph-name="quotedbl" unicode="&#x22;" horiz-adv-x="321" 
d="M111 700v-234h-54v234h54zM263 700v-234h-54v234h54z" />
    <glyph glyph-name="numbersign" unicode="#" 
d="M382 0h-48l30 206h-161l-30 -206h-50l32 206h-119v48h125l24 193h-118v48h125l30 205h49l-31 -205h161l31 205h49l-31 -205h118v-48h-125l-24 -193h119v-48h-125zM396 448h-163l-25 -195h163z" />
    <glyph glyph-name="dollar" unicode="$" 
d="M334 10v-115h-49v116q-81 3 -137.5 39.5t-73.5 112.5h60q34 -105 176 -105q183 0 184 142v5q0 66 -33 92.5t-115 31.5l-98 6q-90 7 -130.5 49t-40.5 117v9q0 85 52 130.5t148 49.5v115h49v-115q179 -9 203 -153h-60q-26 105 -168 105q-166 0 -166 -129v-4q0 -64 33 -91
t115 -32l98 -6q91 -6 131 -48t40 -117v-10q0 -96 -59 -144t-159 -51z" />
    <glyph glyph-name="percent" unicode="%" horiz-adv-x="745" 
d="M188 357h-9q-143 0 -143 170v13q0 170 143 170h9q143 0 143 -170v-13q0 -170 -143 -170zM581 700l-369 -700h-49l369 700h49zM184 401q98 0 98 127v11q0 127 -98 127q-51 0 -75 -30.5t-24 -96.5v-11q0 -66 24 -96.5t75 -30.5zM566 -10h-9q-144 0 -144 170v13
q0 170 144 170h9q143 0 143 -170v-13q0 -170 -143 -170zM561 34q99 0 99 127v11q0 127 -99 127t-99 -127v-11q0 -127 99 -127z" />
    <glyph glyph-name="ampersand" unicode="&#x26;" horiz-adv-x="737" 
d="M710 51v-51h-11q-30 0 -46.5 6t-35.5 22l-78 63q-44 -61 -93 -81t-126 -20h-26q-117 0 -178 47.5t-61 167.5v3q0 76 27.5 120t90.5 68v4q-55 44 -55 132v4q0 174 204 174h6q95 0 150.5 -41t70.5 -137h-58q-27 127 -161 127h-4q-149 0 -149 -120v-4q0 -41 16.5 -71.5
t62.5 -67.5l273 -223l86 193h57l-102 -226l83 -68q26 -21 49 -21h8zM303 40h29q56 0 93 17t73 67l-288 233q-49 -15 -73.5 -48t-24.5 -94v-13q0 -85 47 -123.5t144 -38.5z" />
    <glyph glyph-name="quotesingle" unicode="'" horiz-adv-x="169" 
d="M111 700v-234h-54v234h54z" />
    <glyph glyph-name="parenleft" unicode="(" horiz-adv-x="314" 
d="M266 -44v-46q-203 45 -203 374v42q0 329 203 374v-46q-80 -24 -117.5 -105t-37.5 -234v-20q0 -153 37.5 -234t117.5 -105z" />
    <glyph glyph-name="parenright" unicode=")" horiz-adv-x="314" 
d="M39 654v46q203 -46 203 -374v-42q0 -328 -203 -374v46q80 24 117.5 105t37.5 234v20q0 153 -37.5 234t-117.5 105z" />
    <glyph glyph-name="asterisk" unicode="*" horiz-adv-x="398" 
d="M322 395l-38 -30l-83 122h-4l-83 -122l-38 30l90 117l-1 3l-140 43l15 47l138 -52l3 2l-6 145h48l-5 -145l3 -2l137 52l16 -47l-140 -43l-1 -3z" />
    <glyph glyph-name="plus" unicode="+" horiz-adv-x="584" 
d="M269 306h-202v46h202v216h46v-216h201v-46h-201v-216h-46v216z" />
    <glyph glyph-name="comma" unicode="," horiz-adv-x="224" 
d="M120 -123l-8 -17h-45l59 134v6h-64v93h103v-54q0 -76 -45 -162z" />
    <glyph glyph-name="hyphen" unicode="-" horiz-adv-x="265" 
d="M249 267h-234v51h234v-51z" />
    <glyph glyph-name="period" unicode="." horiz-adv-x="224" 
d="M159 0h-93v93h93v-93z" />
    <glyph glyph-name="slash" unicode="/" horiz-adv-x="391" 
d="M48 -100h-48l343 800h48z" />
    <glyph glyph-name="zero" unicode="0" horiz-adv-x="648" 
d="M337 -10h-27q-123 0 -183.5 68t-60.5 230v124q0 162 60.5 230t183.5 68h27q123 0 184 -68t61 -230v-124q0 -162 -61 -230t-184 -68zM323 42q111 0 156 57t45 202v98q0 145 -45 202t-156 57q-110 0 -154.5 -56.5t-44.5 -202.5v-98q0 -146 44.5 -202.5t154.5 -56.5z" />
    <glyph glyph-name="one" unicode="1" horiz-adv-x="386" 
d="M305 700v-700h-57v655h-6l-211 -139v67l182 117h92z" />
    <glyph glyph-name="two" unicode="2" 
d="M544 51v-51h-481v74q0 92 15 140t51.5 74.5t113.5 46.5l125 33q68 17 93 49.5t25 98.5v7q0 136 -173 136q-81 0 -125.5 -28.5t-53.5 -101.5h-58q15 181 230 181h12q226 0 226 -182v-13q0 -82 -31.5 -127.5t-115.5 -67.5l-130 -33q-64 -16 -92 -34t-41 -57t-13 -118v-27
h423z" />
    <glyph glyph-name="three" unicode="3" 
d="M319 -10h-16q-41 0 -77 9t-70.5 29.5t-58 59t-30.5 92.5h58q27 -139 185 -139q86 0 132 38.5t46 114.5v11q0 70 -32 103t-119 33h-124v52h123q81 0 110.5 29.5t29.5 92.5v11q0 133 -169 133q-65 0 -109 -27.5t-58 -101.5h-57q24 180 219 180h11q97 0 159 -42t62 -136v-9
q0 -120 -92 -147v-4q49 -11 76.5 -54t27.5 -112v-11q0 -104 -63 -154.5t-164 -50.5z" />
    <glyph glyph-name="four" unicode="4" 
d="M463 196v-196h-57v196h-359v76l322 428h94v-455h114v-49h-114zM97 250v-5h309v409h-5z" />
    <glyph glyph-name="five" unicode="5" 
d="M320 -10h-17q-98 0 -159.5 47t-71.5 133h58q28 -129 181 -129q85 0 131.5 46t46.5 133v12q0 178 -172 178q-136 0 -179 -95h-51l29 385h408v-51h-355l-22 -254h5q22 29 68 47t103 18q223 0 223 -226v-14q0 -107 -62 -169q-61 -61 -164 -61z" />
    <glyph glyph-name="six" unicode="6" 
d="M317 -10h-15q-54 0 -91.5 10t-72 39t-52 90t-17.5 154v133q0 75 12.5 129.5t32 86t51 49.5t62.5 23.5t74 5.5h14q95 0 150 -40t75 -133h-58q-17 67 -59 94.5t-114 27.5q-46 0 -75 -7.5t-55.5 -31.5t-39 -74.5t-12.5 -129.5v-63h5q23 45 63.5 66.5t124.5 21.5
q113 0 169.5 -51.5t56.5 -162.5v-10q0 -119 -63 -173t-166 -54zM310 41q95 0 136.5 41t41.5 129v11q0 88 -41.5 129t-136.5 41t-136.5 -41t-41.5 -129v-11q0 -88 41.5 -129t136.5 -41z" />
    <glyph glyph-name="seven" unicode="7" 
d="M560 655l-336 -655h-65l333 644v5h-445v51h513v-45z" />
    <glyph glyph-name="eight" unicode="8" 
d="M309 -10h-13q-233 0 -233 207v5q2 134 105 167v5q-94 26 -94 145v6q0 185 225 185h7q225 0 225 -185v-6q0 -120 -94 -145v-5q104 -35 104 -167v-5q0 -207 -232 -207zM259 394h87q61 0 94 30.5t33 89.5v8q0 73 -43 105t-128 32t-127.5 -32t-42.5 -105v-8q0 -59 33 -89.5
t94 -30.5zM302 41q92 0 137 34.5t45 116.5v12q0 65 -35 103.5t-103 38.5h-87q-68 0 -103 -38.5t-35 -103.5v-12q0 -82 45 -116.5t136 -34.5z" />
    <glyph glyph-name="nine" unicode="9" horiz-adv-x="606" 
d="M289 710h15q54 0 91.5 -10t72 -39t52 -90t17.5 -154v-133q0 -75 -12.5 -129.5t-32 -86t-51 -49.5t-62.5 -23.5t-74 -5.5h-14q-95 0 -150 40t-75 133h58q17 -67 59 -94.5t114 -27.5q46 0 75 7.5t55.5 31.5t39 74.5t12.5 129.5v63h-5q-23 -45 -63.5 -66.5t-124.5 -21.5
q-113 0 -169.5 51.5t-56.5 162.5v10q0 119 63 173t166 54zM296 659q-95 0 -136.5 -41t-41.5 -129v-11q0 -88 41.5 -129t136.5 -41t136.5 41t41.5 129v11q0 88 -41.5 129t-136.5 41z" />
    <glyph glyph-name="colon" unicode=":" horiz-adv-x="224" 
d="M159 437h-93v93h93v-93zM159 0h-93v93h93v-93z" />
    <glyph glyph-name="semicolon" unicode=";" horiz-adv-x="224" 
d="M160 437h-93v93h93v-93zM120 -123l-8 -17h-45l59 134v6h-64v93h103v-54q0 -76 -45 -162z" />
    <glyph glyph-name="less" unicode="&#x3c;" horiz-adv-x="584" 
d="M518 177v-50l-449 181v41l449 181v-50l-379 -150v-3z" />
    <glyph glyph-name="equal" unicode="=" horiz-adv-x="584" 
d="M498 420h-412v46h412v-46zM498 193h-412v45h412v-45z" />
    <glyph glyph-name="greater" unicode="&#x3e;" horiz-adv-x="584" 
d="M68 480v50l449 -181v-41l-449 -181v50l379 150v3z" />
    <glyph glyph-name="question" unicode="?" horiz-adv-x="502" 
d="M260 220h-54v13q0 37 20 63t73 66q64 46 85.5 79t21.5 86v5q0 61 -37.5 94t-109.5 33q-64 0 -103.5 -33.5t-53.5 -114.5h-57q26 199 209 199h10q90 0 144.5 -46t54.5 -130v-5q0 -68 -26 -109t-102 -96q-43 -32 -58.5 -52.5t-16.5 -51.5zM279 0h-93v93h93v-93z" />
    <glyph glyph-name="at" unicode="@" horiz-adv-x="911" 
d="M469 -154q-195 0 -305.5 91.5t-110.5 281.5v37q0 196 110.5 312t305.5 116q89 0 160.5 -20.5t126.5 -63t85 -113.5t30 -165v-17q0 -133 -46 -210.5t-142 -77.5q-111 0 -113 86h-4q-35 -69 -134 -69h-5q-82 0 -121 46t-28 161l3 33q18 206 186 206h4q110 0 126 -71h4l8 63
h55l-41 -306q-8 -61 5 -84t61 -23q136 0 136 251v19q0 314 -366 314q-177 0 -268.5 -108t-91.5 -280v-41q0 -327 376 -327q92 0 174 19v-39q-82 -21 -180 -21zM448 81q57 0 93 34t44 128l4 34q5 52 -2.5 85.5t-27.5 48t-38.5 18.5t-47.5 4q-57 0 -92.5 -33.5t-45.5 -128.5
l-3 -34q-5 -52 2.5 -85.5t27.5 -48t38.5 -18.5t47.5 -4z" />
    <glyph glyph-name="A" unicode="A" horiz-adv-x="687" 
d="M388 700l272 -700h-64l-87 225h-332l-87 -225h-63l271 700h90zM346 654h-4l-145 -377h293z" />
    <glyph glyph-name="B" unicode="B" horiz-adv-x="673" 
d="M603 214v-44q0 -92 -46.5 -131t-150.5 -39h-326v700h315q107 0 154 -37.5t47 -130.5v-25q0 -70 -23.5 -102t-69.5 -41v-4q50 -6 75 -39.5t25 -106.5zM383 649h-244v-265h245q91 0 122 23t31 98v12q0 76 -32.5 104t-121.5 28zM385 335h-246v-284h251q90 0 122 28t32 105
v17q0 83 -32.5 108.5t-126.5 25.5z" />
    <glyph glyph-name="C" unicode="C" horiz-adv-x="696" 
d="M377 -10h-39q-138 0 -203.5 77.5t-65.5 232.5v100q0 155 65.5 232.5t203.5 77.5h39q110 0 173.5 -50.5t85.5 -156.5h-62q-17 80 -67.5 117.5t-137.5 37.5h-23q-122 0 -170 -68.5t-48 -210.5v-58q0 -142 47.5 -210.5t170.5 -68.5h23q87 0 137.5 37.5t67.5 117.5h62
q-22 -106 -85.5 -156.5t-173.5 -50.5z" />
    <glyph glyph-name="D" unicode="D" horiz-adv-x="701" 
d="M631 390v-80q0 -154 -66.5 -232t-205.5 -78h-279v700h279q139 0 205.5 -78t66.5 -232zM352 649h-213v-598h213q123 0 171.5 68.5t48.5 211.5v38q0 142 -48.5 211t-171.5 69z" />
    <glyph glyph-name="E" unicode="E" horiz-adv-x="598" 
d="M541 51v-51h-461v700h461v-51h-402v-273h402v-51h-402v-274h402z" />
    <glyph glyph-name="F" unicode="F" horiz-adv-x="588" 
d="M139 325v-325h-59v700h461v-51h-402v-273h402v-51h-402z" />
    <glyph glyph-name="G" unicode="G" horiz-adv-x="716" 
d="M376 -10h-35q-139 0 -205.5 77.5t-66.5 232.5v100q0 155 66.5 232.5t205.5 77.5h35q218 0 258 -192h-62q-29 140 -202 140h-23q-122 0 -170.5 -69t-48.5 -210v-58q0 -142 48.5 -210.5t170.5 -68.5h24q121 0 169 66t48 206v4h-243v52h302v-70q0 -155 -66 -232.5
t-205 -77.5z" />
    <glyph glyph-name="H" unicode="H" horiz-adv-x="696" 
d="M616 700v-700h-59v324h-418v-324h-59v700h59v-325h418v325h59z" />
    <glyph glyph-name="I" unicode="I" horiz-adv-x="219" 
d="M139 700v-700h-59v700h59z" />
    <glyph glyph-name="J" unicode="J" horiz-adv-x="410" 
d="M110 0h-93v51h75q103 0 144 49.5t41 150.5v449h60v-456q0 -121 -54.5 -182.5t-172.5 -61.5z" />
    <glyph glyph-name="K" unicode="K" horiz-adv-x="663" 
d="M139 268v-268h-59v700h59v-356h4l413 356h79l-321 -277l329 -423h-73l-298 380h-4z" />
    <glyph glyph-name="L" unicode="L" horiz-adv-x="543" 
d="M509 51v-51h-429v700h59v-649h370z" />
    <glyph glyph-name="M" unicode="M" horiz-adv-x="867" 
d="M787 700v-700h-58v645h-6l-259 -645h-65l-256 645h-5v-645h-58v700h104l247 -621h5l250 621h101z" />
    <glyph glyph-name="N" unicode="N" horiz-adv-x="716" 
d="M636 700v-700h-97l-396 645h-4v-645h-59v700h98l395 -646h5v646h58z" />
    <glyph glyph-name="O" unicode="O" horiz-adv-x="717" 
d="M376 -10h-35q-139 0 -205.5 77.5t-66.5 232.5v100q0 155 66.5 232.5t205.5 77.5h35q139 0 205 -77.5t66 -232.5v-100q0 -155 -66 -232.5t-205 -77.5zM347 42h23q123 0 170.5 68.5t47.5 210.5v58q0 142 -48 210.5t-170 68.5h-23q-122 0 -170.5 -69t-48.5 -210v-58
q0 -142 48.5 -210.5t170.5 -68.5z" />
    <glyph glyph-name="P" unicode="P" horiz-adv-x="630" 
d="M139 276v-276h-59v700h322q100 0 150 -42q49 -42 49 -151v-42q0 -189 -199 -189h-263zM389 649h-250v-322h250q88 0 120.5 33.5t32.5 119.5v16q0 87 -32.5 120t-120.5 33z" />
    <glyph glyph-name="Q" unicode="Q" horiz-adv-x="717" 
d="M677 51v-51h-338q-139 0 -204.5 77.5t-65.5 232.5v90q0 155 65.5 232.5t204.5 77.5h39q138 0 203.5 -77.5t65.5 -232.5v-88q0 -99 -28.5 -167t-84.5 -89v-5h143zM347 52h30q122 0 166.5 67.5t44.5 211.5v48q0 142 -48 210.5t-170 68.5h-23q-122 0 -170.5 -69t-48.5 -210
v-48q0 -142 48.5 -210.5t170.5 -68.5z" />
    <glyph glyph-name="R" unicode="R" horiz-adv-x="672" 
d="M139 315v-315h-59v700h324q104 0 151 -39q46 -39 46 -139v-11q0 -77 -22 -115t-72 -49v-4q53 -9 73.5 -43t20.5 -114v-186h-59v166q0 92 -25.5 120.5t-112.5 28.5h-265zM388 649h-249v-282h266q83 0 110 32t27 110v5q0 78 -32.5 106.5t-121.5 28.5z" />
    <glyph glyph-name="S" unicode="S" horiz-adv-x="617" 
d="M317 -10h-9q-47 0 -85.5 7t-75.5 24.5t-61.5 53t-33.5 87.5h60q26 -121 200 -121q100 0 148 34t48 115v8q0 69 -32.5 98t-126.5 35l-98 6q-102 7 -143 51t-41 124v7q0 102 59 146.5t170 44.5h12q227 0 246 -173h-59q-13 73 -64 97q-50 25 -129 25q-91 0 -133.5 -31.5
t-42.5 -103.5v-4q0 -69 32.5 -98t126.5 -35l98 -5q103 -7 143.5 -51t40.5 -125v-11q0 -115 -66 -160t-184 -45z" />
    <glyph glyph-name="T" unicode="T" horiz-adv-x="579" 
d="M319 649v-649h-59v649h-242v51h543v-51h-242z" />
    <glyph glyph-name="U" unicode="U" horiz-adv-x="679" 
d="M367 -10h-53q-240 0 -240 258v452h59v-440q0 -108 43 -162.5t146 -54.5h36q103 0 146 54.5t43 162.5v440h60v-452q0 -258 -240 -258z" />
    <glyph glyph-name="V" unicode="V" horiz-adv-x="683" 
d="M656 700l-272 -700h-86l-271 700h64l248 -647h4l250 647h63z" />
    <glyph glyph-name="W" unicode="W" horiz-adv-x="979" 
d="M948 700l-174 -700h-86l-199 635l-198 -635h-89l-172 700h62l153 -648h5l202 648h76l202 -648h4l155 648h59z" />
    <glyph glyph-name="X" unicode="X" horiz-adv-x="651" 
d="M365 355l257 -355h-72l-225 314h-4l-222 -314h-70l256 356l-249 344h72l217 -304h4l217 304h69z" />
    <glyph glyph-name="Y" unicode="Y" horiz-adv-x="647" 
d="M352 314v-314h-59v314l-267 386h70l227 -329h4l227 329h66z" />
    <glyph glyph-name="Z" unicode="Z" horiz-adv-x="631" 
d="M578 51v-51h-522v45l436 604h-424v51h499v-45l-436 -604h447z" />
    <glyph glyph-name="bracketleft" unicode="[" horiz-adv-x="339" 
d="M290 -47v-43h-188v790h188v-43h-140v-704h140z" />
    <glyph glyph-name="backslash" unicode="\" horiz-adv-x="391" 
d="M48 700l343 -800h-48l-343 800h48z" />
    <glyph glyph-name="bracketright" unicode="]" horiz-adv-x="339" 
d="M49 657v43h188v-790h-188v43h140v704h-140z" />
    <glyph glyph-name="asciicircum" unicode="^" horiz-adv-x="585" 
d="M310 700l208 -499h-51l-174 423h-2l-174 -423h-51l208 499h36z" />
    <glyph glyph-name="underscore" unicode="_" horiz-adv-x="530" 
d="M530 -114h-530v43h530v-43z" />
    <glyph glyph-name="grave" unicode="`" horiz-adv-x="500" 
d="M243 700l79 -120h-50l-96 120h67z" />
    <glyph glyph-name="a" unicode="a" horiz-adv-x="515" 
d="M457 348v-348h-56v79h-4q-42 -90 -173 -90q-86 0 -135 39t-49 118v7q0 73 40 112t127 44l193 12v22q0 91 -35 120.5t-109 29.5q-61 0 -95 -25.5t-45 -83.5h-57q27 156 192 156h13q98 0 145.5 -42t47.5 -150zM97 154v-6q0 -56 36.5 -84.5t98.5 -28.5q85 0 126.5 42.5
t41.5 119.5v79l-190 -11q-59 -4 -86 -30.5t-27 -80.5z" />
    <glyph glyph-name="b" unicode="b" horiz-adv-x="555" 
d="M121 0h-56v700h56v-248h5q31 88 161 88h5q103 0 157.5 -56.5t54.5 -196.5v-44q0 -140 -54.5 -196.5t-157.5 -56.5h-5q-130 0 -161 88h-5v-78zM284 40q38 0 63.5 6.5t50.5 27.5t37 66t12 116v18q0 71 -12 116t-37 66t-50.5 27.5t-63.5 6.5t-63.5 -6.5t-50.5 -27.5t-37 -66
t-12 -116v-19q0 -57 9 -97t22.5 -63t36.5 -35.5t44 -16t51 -3.5z" />
    <glyph glyph-name="c" unicode="c" horiz-adv-x="498" 
d="M267 -10h-7q-102 0 -155.5 57t-53.5 197v43q0 139 53.5 196t155.5 57h7q160 0 192 -154h-57q-15 61 -50.5 82.5t-88.5 21.5q-28 0 -47.5 -3.5t-41 -16t-35 -35t-22.5 -63t-9 -97.5v-20q0 -57 9 -97.5t22.5 -63t35 -35t41 -16t47.5 -3.5q53 0 88.5 21.5t50.5 82.5h57
q-32 -154 -192 -154z" />
    <glyph glyph-name="d" unicode="d" horiz-adv-x="555" 
d="M490 700v-700h-56v78h-5q-34 -88 -161 -88h-5q-103 0 -157.5 56.5t-54.5 196.5v44q0 140 54.5 196.5t157.5 56.5h5q67 0 105.5 -21t55.5 -67h5v248h56zM271 40q30 0 51 3.5t44 16t36.5 35.5t22.5 63t9 97v19q0 71 -12 116t-37 66t-50.5 27.5t-63.5 6.5t-63.5 -6.5
t-50.5 -27.5t-37 -66t-12 -116v-18q0 -71 12 -116t37 -66t50.5 -27.5t63.5 -6.5z" />
    <glyph glyph-name="e" unicode="e" horiz-adv-x="531" 
d="M416 138h58q-20 -81 -70.5 -114.5t-134.5 -33.5h-6q-105 0 -158.5 57t-53.5 198v40q0 141 53.5 198t158.5 57h6q105 0 158 -56t53 -197v-32h-372q0 -70 12 -115.5t36.5 -66.5t48.5 -27.5t61 -6.5t61 5t50 28t39 66zM266 493q-35 0 -58.5 -6t-47.5 -24.5t-37 -59
t-15 -103.5h315v8q0 101 -39 143t-118 42z" />
    <glyph glyph-name="f" unicode="f" horiz-adv-x="357" 
d="M125 482h-117v48h117q1 97 40 133q38 37 122 37h58v-47h-52q-60 0 -85.5 -24.5t-25.5 -98.5h163v-48h-163v-482h-57v482z" />
    <glyph glyph-name="g" unicode="g" horiz-adv-x="541" 
d="M278 -170h-10q-89 0 -139 26.5t-66 98.5h57q15 -45 50 -61.5t104 -16.5q76 0 110 35.5t34 130.5v65h-4q-16 -40 -52.5 -59t-101.5 -19h-4q-104 0 -152 53t-48 192v19q0 140 48 193t152 53h4q65 0 101.5 -19t52.5 -59h4v68h57v-496q0 -111 -47.5 -157.5t-149.5 -46.5z
M266 79q30 0 50 3t41 14.5t33 32.5t20 58.5t8 90.5v13q0 53 -8 90.5t-20 58.5t-33 32.5t-41 14.5t-50 3q-38 0 -62 -6t-47 -25t-34 -60.5t-11 -107.5v-13q0 -66 10.5 -107.5t34 -60.5t47 -25t62.5 -6z" />
    <glyph glyph-name="h" unicode="h" horiz-adv-x="527" 
d="M468 344v-344h-56v331q0 91 -35 125t-102 34q-153 0 -153 -176v-314h-57v700h57v-250h4q39 90 162 90q180 0 180 -196z" />
    <glyph glyph-name="i" unicode="i" horiz-adv-x="188" 
d="M65 700h57v-69h-57v69zM65 530h57v-530h-57v530z" />
    <glyph glyph-name="j" unicode="j" horiz-adv-x="188" 
d="M65 700h57v-69h-57v69zM65 530h57v-459q0 -86 -13 -130.5t-52 -110.5h-63q42 67 56.5 113.5t14.5 124.5v462z" />
    <glyph glyph-name="k" unicode="k" horiz-adv-x="486" 
d="M122 178v-178h-57v700h57v-448h4l275 278h70l-219 -219l230 -311h-69l-198 268h-4z" />
    <glyph glyph-name="l" unicode="l" horiz-adv-x="188" 
d="M122 700v-700h-57v700h57z" />
    <glyph glyph-name="m" unicode="m" horiz-adv-x="843" 
d="M784 347v-347h-57v331q0 92 -33 125.5t-96 33.5q-145 0 -145 -176v-314h-57v331q0 92 -32 125.5t-97 33.5q-145 0 -145 -176v-314h-57v530h57v-80h4q36 90 149 90q131 0 166 -103h4q36 103 161 103q86 0 132 -45t46 -148z" />
    <glyph glyph-name="n" unicode="n" horiz-adv-x="527" 
d="M468 344v-344h-56v331q0 91 -35 125t-102 34q-153 0 -153 -176v-314h-57v530h57v-80h4q39 90 162 90q180 0 180 -196z" />
    <glyph glyph-name="o" unicode="o" horiz-adv-x="542" 
d="M275 -10h-9q-108 0 -161.5 57.5t-53.5 197.5v40q0 140 53.5 197.5t161.5 57.5h9q108 0 161.5 -57.5t53.5 -197.5v-40q0 -140 -53.5 -197.5t-161.5 -57.5zM271 40q38 0 63 6.5t50 27.5t37.5 66t12.5 116v18q0 71 -12.5 116t-37.5 66t-50 27.5t-63 6.5t-63.5 -6.5
t-50.5 -27.5t-37 -66t-12 -116v-18q0 -71 12 -116t37 -66t50.5 -27.5t63.5 -6.5z" />
    <glyph glyph-name="p" unicode="p" horiz-adv-x="555" 
d="M65 -170v700h56v-78h5q31 88 161 88h5q103 0 157.5 -56.5t54.5 -196.5v-44q0 -140 -54.5 -196.5t-157.5 -56.5h-5q-130 0 -161 88h-5v-248h-56zM284 490q-30 0 -51 -3.5t-44 -16t-36.5 -35.5t-22.5 -63t-9 -97v-19q0 -71 12 -116t37 -66t50.5 -27.5t63.5 -6.5t63.5 6.5
t50.5 27.5t37 66t12 116v18q0 71 -12 116t-37 66t-50.5 27.5t-63.5 6.5z" />
    <glyph glyph-name="q" unicode="q" horiz-adv-x="555" 
d="M434 530h56v-700h-56v248h-5q-17 -46 -55.5 -67t-105.5 -21h-5q-103 0 -157.5 56.5t-54.5 196.5v44q0 140 54.5 196.5t157.5 56.5h5q127 0 161 -88h5v78zM271 490q-38 0 -63.5 -6.5t-50.5 -27.5t-37 -66t-12 -116v-18q0 -71 12 -116t37 -66t50.5 -27.5t63.5 -6.5
t63.5 6.5t50.5 27.5t37 66t12 116v19q0 57 -9 97t-22.5 63t-36.5 35.5t-44 16t-51 3.5z" />
    <glyph glyph-name="r" unicode="r" horiz-adv-x="334" 
d="M281 530h41v-51h-44q-77 0 -116.5 -34t-39.5 -129v-316h-57v530h57v-79h4q31 79 155 79z" />
    <glyph glyph-name="s" unicode="s" horiz-adv-x="497" 
d="M252 -10h-7q-181 0 -202 141h57q6 -35 31 -57t54.5 -29.5t64.5 -7.5q73 0 109.5 24t36.5 87v7q0 46 -23 65.5t-83 23.5l-98 6q-77 6 -108 40t-31 91v11q0 73 49.5 110.5t135.5 37.5h9q82 0 131 -32.5t66 -107.5h-56q-17 53 -51 73t-93 20q-134 0 -134 -100v-5
q0 -46 23 -65.5t83 -23.5l98 -7q78 -6 108.5 -39.5t30.5 -92.5v-12q0 -158 -201 -158z" />
    <glyph glyph-name="t" unicode="t" horiz-adv-x="363" 
d="M326 48v-48h-61q-77 0 -108.5 34t-31.5 120v328h-117v48h117v170h56v-170h145v-48h-145v-313q0 -77 21.5 -99t86.5 -22h37z" />
    <glyph glyph-name="u" unicode="u" horiz-adv-x="527" 
d="M59 186v344h56v-331q0 -90 35 -124.5t102 -34.5q153 0 153 176v314h57v-530h-57v80h-4q-39 -90 -162 -90q-180 0 -180 196z" />
    <glyph glyph-name="v" unicode="v" horiz-adv-x="495" 
d="M486 530l-198 -530h-81l-198 530h61l177 -482h4l178 482h57z" />
    <glyph glyph-name="w" unicode="w" horiz-adv-x="728" 
d="M714 530l-136 -530l-81 1l-132 465l-132 -466h-84l-135 530h60l117 -478h4l134 478h72l134 -478h5l118 478h56z" />
    <glyph glyph-name="x" unicode="x" horiz-adv-x="497" 
d="M286 272l193 -272h-69l-160 235h-5l-162 -235h-66l192 270l-181 260h68l151 -220h4l152 220h66z" />
    <glyph glyph-name="y" unicode="y" horiz-adv-x="481" 
d="M481 530l-274 -700h-59l70 172l-212 528h61l178 -451h4l174 451h58z" />
    <glyph glyph-name="z" unicode="z" horiz-adv-x="455" 
d="M420 48v-48h-380v40l301 442h-293v48h364v-40l-301 -442h309z" />
    <glyph glyph-name="braceleft" unicode="{" horiz-adv-x="335" 
d="M306 -47v-43h-33q-77 0 -108 42.5t-31 147.5v54q0 68 -17.5 90.5t-79.5 32.5v56q62 10 79.5 32.5t17.5 90.5v54q0 105 31 147.5t108 42.5h33v-43h-20q-57 0 -80.5 -30t-23.5 -122v-60q0 -72 -18.5 -100.5t-81.5 -37.5v-4q63 -9 81.5 -37.5t18.5 -100.5v-60
q0 -92 23.5 -122t80.5 -30h20z" />
    <glyph glyph-name="bar" unicode="|" horiz-adv-x="246" 
d="M146 -100h-46v800h46v-800z" />
    <glyph glyph-name="braceright" unicode="}" horiz-adv-x="335" 
d="M62 -90h-33v43h20q57 0 80.5 30t23.5 122v60q0 72 18 100.5t82 37.5v4q-64 9 -82 37.5t-18 100.5v60q0 92 -23.5 122t-80.5 30h-20v43h33q76 0 107.5 -43t31.5 -147v-54q0 -68 17 -90.5t80 -32.5v-56q-63 -10 -80 -32.5t-17 -90.5v-54q0 -104 -31.5 -147t-107.5 -43z" />
    <glyph glyph-name="asciitilde" unicode="~" horiz-adv-x="584" 
d="M392 273q-43 0 -103.5 33t-98.5 33q-67 0 -104 -61v54q40 53 105 53q44 0 104.5 -33t97.5 -33q32 0 60 17.5t45 43.5v-53q-38 -54 -106 -54z" />
    <glyph glyph-name="exclamdown" unicode="&#xa1;" horiz-adv-x="235" 
d="M71 530h93v-93h-93v93zM148 124v-294h-61v294l12 186h36z" />
    <glyph glyph-name="cent" unicode="&#xa2;" horiz-adv-x="540" 
d="M296 -9v-96h-49v96q-91 5 -139 63t-48 190v43q0 131 48 189t139 63v96h49v-96q142 -8 172 -153h-57q-15 61 -50.5 82.5t-88.5 21.5q-28 0 -47.5 -3.5t-41 -16t-35 -35t-22.5 -63t-9 -97.5v-20q0 -57 9 -97.5t22.5 -63t35 -35t41 -16t47.5 -3.5q53 0 88.5 21.5t50.5 82.5
h57q-30 -145 -172 -153z" />
    <glyph glyph-name="sterling" unicode="&#xa3;" 
d="M552 51v-51h-525v51h110v278h-110v43h110v67q0 79 15 134t44 84t64.5 41t82.5 12h14q179 0 202 -173h-59q-9 63 -42 92.5t-107 29.5q-81 0 -119 -48.5t-38 -176.5v-62h277v-43h-277v-278h358z" />
    <glyph glyph-name="currency" unicode="&#xa4;" horiz-adv-x="584" 
d="M291 191q-53 0 -83 19l-108 -109l-33 32l106 108q-22 31 -22 88t22 88l-106 108l33 32l108 -109q30 19 83 19q51 0 83 -19l108 109l33 -32l-107 -108q23 -32 23 -88t-23 -88l107 -108l-33 -32l-108 109q-32 -19 -83 -19zM291 231q49 0 73 23t24 75t-24 75t-73 23t-73 -23
t-24 -75t24 -75t73 -23z" />
    <glyph glyph-name="yen" unicode="&#xa5;" 
d="M331 261v-261h-57v261h-204v43h204v47l-32 45h-172v44h141l-183 260h71l203 -296h4l203 296h67l-184 -260h144v-44h-175l-30 -43v-49h205v-43h-205z" />
    <glyph glyph-name="brokenbar" unicode="&#xa6;" horiz-adv-x="246" 
d="M146 410h-46v290h46v-290zM146 -100h-46v290h46v-290z" />
    <glyph glyph-name="section" unicode="&#xa7;" horiz-adv-x="559" 
d="M304 -170h-10q-94 0 -154.5 40t-63.5 128h54q12 -123 168 -123q154 0 154 116v6q0 49 -28 69.5t-93 23.5l-64 4q-113 6 -157.5 42.5t-44.5 125.5v5q0 125 95 146v5q-41 8 -62 42t-21 76v14q0 160 202 160h11q93 0 153.5 -40.5t64.5 -127.5h-54q-12 123 -168 123
q-80 0 -117 -28.5t-37 -87.5v-6q0 -49 27.5 -69.5t92.5 -23.5l64 -4q113 -6 158 -42.5t45 -125.5v-5q0 -125 -96 -146v-5q40 -8 61.5 -42t21.5 -76v-14q0 -160 -202 -160zM292 143q93 0 132.5 25t39.5 98v8q0 73 -39.5 98t-132.5 25t-132.5 -25t-39.5 -98v-8q0 -73 39.5 -98
t132.5 -25z" />
    <glyph glyph-name="dieresis" unicode="&#xa8;" horiz-adv-x="500" 
d="M142 674h53v-69h-53v69zM305 674h53v-69h-53v69z" />
    <glyph glyph-name="copyright" unicode="&#xa9;" horiz-adv-x="753" 
d="M415 -10h-76q-159 0 -236 83t-77 237v80q0 154 77 237t236 83h76q159 0 236 -83t77 -237v-80q0 -154 -77 -237t-236 -83zM350 25h53q162 0 224 77.5t62 231.5v32q0 154 -62 231.5t-224 77.5h-53q-83 0 -139.5 -21t-87.5 -63t-44 -96t-13 -129v-32q0 -75 13 -129t44 -96
t87.5 -63t139.5 -21zM393 134h-18q-87 0 -128.5 47t-41.5 143v52q0 96 41.5 143t128.5 47h18q71 0 110 -28.5t52 -89.5l4 -14h-55l-2 9q-20 77 -112 77h-12q-68 0 -94 -37.5t-26 -116.5v-32q0 -79 26 -116.5t94 -37.5h12q92 0 112 77l2 9h55l-4 -14q-13 -61 -52 -89.5
t-110 -28.5z" />
    <glyph glyph-name="ordfeminine" unicode="&#xaa;" horiz-adv-x="417" 
d="M372 554v-274h-54v61h-4q-31 -70 -133 -70q-68 0 -107.5 32t-39.5 94v5q0 117 134 124l150 9v17q0 67 -27 89.5t-83 22.5q-91 0 -107 -81h-54q23 125 157 125h10q80 0 119 -34t39 -120zM89 403v-6q0 -42 28 -62t73 -20q128 0 128 122v57l-144 -9q-45 -3 -65 -22.5
t-20 -59.5z" />
    <glyph glyph-name="guillemotleft" unicode="&#xab;" horiz-adv-x="350" 
d="M36 289v6l84 219h47l-85 -222l85 -222h-47zM183 289v6l84 219h47l-85 -222l85 -222h-47z" />
    <glyph glyph-name="logicalnot" unicode="&#xac;" horiz-adv-x="584" 
d="M505 352v-251h-46v205h-411v46h457z" />
    <glyph glyph-name="registered" unicode="&#xae;" horiz-adv-x="753" 
d="M415 -10h-76q-159 0 -236 83t-77 237v80q0 154 77 237t236 83h76q159 0 236 -83t77 -237v-80q0 -154 -77 -237t-236 -83zM350 25h53q162 0 224 77.5t62 231.5v32q0 154 -62 231.5t-224 77.5h-53q-83 0 -139.5 -21t-87.5 -63t-44 -96t-13 -129v-32q0 -75 13 -129t44 -96
t87.5 -63t139.5 -21zM280 319v-179h-52v420h202q67 0 96 -24.5t29 -83.5v-7q0 -47 -14.5 -70t-45.5 -28v-4q34 -5 47 -25.5t13 -69.5v-108h-52v98q0 49 -14.5 65t-63.5 16h-145zM416 516h-136v-153h147q45 0 60 17t15 59v5q0 40 -18 56t-68 16z" />
    <glyph glyph-name="overscore" unicode="&#xaf;" horiz-adv-x="500" 
d="M385 661v-42h-270v42h270z" />
    <glyph glyph-name="degree" unicode="&#xb0;" horiz-adv-x="369" 
d="M185 436q-57 0 -97 40t-40 97t40 97t97 40q56 0 96.5 -40t40.5 -97t-40.5 -97t-96.5 -40zM185 477q40 0 67.5 28t27.5 68t-27.5 68t-67.5 28q-41 0 -68.5 -28t-27.5 -68t27.5 -68t68.5 -28z" />
    <glyph glyph-name="plusminus" unicode="&#xb1;" horiz-adv-x="584" 
d="M269 426h-165v46h165v151h46v-151h164v-46h-164v-150h-46v150zM479 112h-375v46h375v-46z" />
    <glyph glyph-name="twosuperior" unicode="&#xb2;" horiz-adv-x="367" 
d="M335 426v-46h-301v53q0 78 21.5 109.5t88.5 49.5l74 19q38 10 50.5 26t12.5 52v3q0 68 -91 68q-90 0 -96 -68h-54q7 65 49 90q41 24 96 24h7q143 0 143 -112v-8q0 -48 -20 -75.5t-72 -41.5l-80 -20q-47 -11 -61.5 -30.5t-14.5 -76.5v-16h248z" />
    <glyph glyph-name="threesuperior" unicode="&#xb3;" horiz-adv-x="367" 
d="M193 374h-9q-134 0 -149 119h53q8 -43 34 -58t67 -15q93 0 93 79v6q0 37 -16.5 53.5t-63.5 16.5h-72v46h70q42 0 58.5 15.5t16.5 49.5v5q0 69 -88 69q-79 0 -90 -67h-54q15 113 140 113h7q65 0 102 -26.5t37 -79.5v-5q0 -71 -55 -87v-4q62 -14 62 -99v-6q0 -63 -38.5 -94
t-104.5 -31z" />
    <glyph glyph-name="acute" unicode="&#xb4;" horiz-adv-x="500" 
d="M322 700l-96 -120h-50l79 120h67z" />
    <glyph glyph-name="mu" unicode="&#xb5;" horiz-adv-x="533" 
d="M468 530v-530h-56v70h-4q-33 -80 -153 -80q-109 0 -138 69h-4l6 -203v-26h-54v700h57v-331q0 -92 37 -125.5t108 -33.5q68 0 106.5 33t38.5 126v331h56z" />
    <glyph glyph-name="paragraph" unicode="&#xb6;" horiz-adv-x="514" 
d="M434 700v-800h-48v754h-115v-754h-48v571h-49q-73 0 -103.5 24t-30.5 88v5q0 66 29.5 89t104.5 23h260z" />
    <glyph glyph-name="middot" unicode="&#xb7;" horiz-adv-x="313" 
d="M192 245h-93v93h93v-93z" />
    <glyph glyph-name="cedilla" unicode="&#xb8;" horiz-adv-x="500" 
d="M214 -140l47 140h48l-40 -140h-55z" />
    <glyph glyph-name="onesuperior" unicode="&#xb9;" horiz-adv-x="268" 
d="M189 800v-420h-54v376h-4l-118 -79v59l102 64h74z" />
    <glyph glyph-name="ordmasculine" unicode="&#xba;" horiz-adv-x="428" 
d="M218 272h-7q-84 0 -127.5 46.5t-43.5 157.5v28q0 111 43.5 157.5t127.5 46.5h7q84 0 127 -46t43 -158v-28q0 -112 -43 -158t-127 -46zM213 319q28 0 47 5.5t37 21t27 49.5t9 87v16q0 52 -9 86t-27 50t-37 21.5t-47 5.5q-27 0 -46 -5.5t-37 -21.5t-27 -50t-9 -86v-16
q0 -100 30.5 -131.5t88.5 -31.5z" />
    <glyph glyph-name="guillemotright" unicode="&#xbb;" horiz-adv-x="351" 
d="M167 295v-6l-84 -219h-47l85 222l-85 222h47zM315 295v-6l-84 -219h-47l85 222l-85 222h47z" />
    <glyph glyph-name="onequarter" unicode="&#xbc;" horiz-adv-x="731" 
d="M189 700v-420h-54v376h-4l-118 -79v59l102 64h74zM543 700l-369 -700h-49l369 700h49zM649 110v-110h-54v110h-211v69l185 241h80v-265h62v-45h-62zM430 160v-5h165v222h-4z" />
    <glyph glyph-name="onehalf" unicode="&#xbd;" horiz-adv-x="782" 
d="M189 700v-420h-54v376h-4l-118 -79v59l102 64h74zM543 700l-369 -700h-49l369 700h49zM745 46v-46h-301v53q0 78 21.5 109.5t88.5 49.5l74 19q38 10 50.5 26t12.5 52v3q0 68 -91 68q-90 0 -96 -68h-54q7 65 49 90q41 24 96 24h7q143 0 143 -112v-8q0 -48 -20 -75.5
t-72 -41.5l-80 -20q-47 -11 -61.5 -30.5t-14.5 -76.5v-16h248z" />
    <glyph glyph-name="threequarters" unicode="&#xbe;" horiz-adv-x="844" 
d="M193 274h-9q-134 0 -149 119h53q8 -43 34 -58t67 -15q93 0 93 79v6q0 37 -16.5 53.5t-63.5 16.5h-72v46h70q42 0 58.5 15.5t16.5 49.5v5q0 69 -88 69q-79 0 -90 -67h-54q15 113 140 113h7q65 0 102 -26.5t37 -79.5v-5q0 -71 -55 -87v-4q62 -14 62 -99v-6q0 -63 -38.5 -94
t-104.5 -31zM657 700l-369 -700h-49l369 700h49zM763 110v-110h-54v110h-211v69l185 241h80v-265h62v-45h-62zM544 160v-5h165v222h-4z" />
    <glyph glyph-name="questiondown" unicode="&#xbf;" horiz-adv-x="502" 
d="M223 530h93v-93h-93v93zM242 310h54v-13q0 -37 -20 -63t-73 -66q-64 -46 -85.5 -79t-21.5 -86v-5q0 -61 37.5 -94t109.5 -33q64 0 103.5 33.5t53.5 114.5h57q-26 -199 -209 -199h-10q-90 0 -144.5 46t-54.5 130v5q0 68 26 109t102 96q43 32 58.5 52.5t16.5 51.5z" />
    <glyph glyph-name="Agrave" unicode="&#xc0;" horiz-adv-x="687" 
d="M290 860l79 -120h-50l-96 120h67zM388 700l272 -700h-64l-87 225h-332l-87 -225h-63l271 700h90zM346 654h-4l-145 -377h293z" />
    <glyph glyph-name="Aacute" unicode="&#xc1;" horiz-adv-x="687" 
d="M465 860l-96 -120h-50l79 120h67zM388 700l272 -700h-64l-87 225h-332l-87 -225h-63l271 700h90zM346 654h-4l-145 -377h293z" />
    <glyph glyph-name="Acircumflex" unicode="&#xc2;" horiz-adv-x="687" 
d="M387 860l96 -120h-51l-88 99l-88 -99h-51l95 120h87zM388 700l272 -700h-64l-87 225h-332l-87 -225h-63l271 700h90zM346 654h-4l-145 -377h293z" />
    <glyph glyph-name="Atilde" unicode="&#xc3;" horiz-adv-x="687" 
d="M408 756q-28 0 -69 24.5t-56 24.5q-35 0 -41 -46h-40q10 85 78 85q28 0 69 -24t56 -24q35 0 41 46h40q-9 -86 -78 -86zM388 700l272 -700h-64l-87 225h-332l-87 -225h-63l271 700h90zM346 654h-4l-145 -377h293z" />
    <glyph glyph-name="Adieresis" unicode="&#xc4;" horiz-adv-x="687" 
d="M236 835h53v-69h-53v69zM399 835h53v-69h-53v69zM388 700l272 -700h-64l-87 225h-332l-87 -225h-63l271 700h90zM346 654h-4l-145 -377h293z" />
    <glyph glyph-name="Aring" unicode="&#xc5;" horiz-adv-x="687" 
d="M344 732q-47 0 -75 24.5t-28 73.5t28 73.5t75 24.5t75 -24.5t28 -73.5t-28 -73.5t-75 -24.5zM344 768q62 0 62 62t-62 62t-62 -62t62 -62zM388 700l272 -700h-64l-87 225h-332l-87 -225h-63l271 700h90zM346 654h-4l-145 -377h293z" />
    <glyph glyph-name="AE" unicode="&#xc6;" horiz-adv-x="951" 
d="M894 51v-51h-461v226h-236l-120 -226h-66l373 700h510v-51h-402v-273h402v-51h-402v-274h402zM433 649h-10l-198 -371h208v371z" />
    <glyph glyph-name="Ccedilla" unicode="&#xc7;" horiz-adv-x="696" 
d="M574 197h62q-42 -207 -256 -207l-37 -130h-55l44 130q-135 2 -199 79.5t-64 230.5v100q0 155 65.5 232.5t203.5 77.5h39q110 0 173.5 -50.5t85.5 -156.5h-62q-17 80 -67.5 117.5t-137.5 37.5h-23q-122 0 -170 -68.5t-48 -210.5v-58q0 -142 47.5 -210.5t170.5 -68.5h23
q87 0 137.5 37.5t67.5 117.5z" />
    <glyph glyph-name="Egrave" unicode="&#xc8;" horiz-adv-x="598" 
d="M256 860l79 -120h-50l-96 120h67zM541 51v-51h-461v700h461v-51h-402v-273h402v-51h-402v-274h402z" />
    <glyph glyph-name="Eacute" unicode="&#xc9;" horiz-adv-x="598" 
d="M432 860l-96 -120h-50l79 120h67zM541 51v-51h-461v700h461v-51h-402v-273h402v-51h-402v-274h402z" />
    <glyph glyph-name="Ecircumflex" unicode="&#xca;" horiz-adv-x="598" 
d="M353 860l96 -120h-51l-88 99l-88 -99h-51l95 120h87zM541 51v-51h-461v700h461v-51h-402v-273h402v-51h-402v-274h402z" />
    <glyph glyph-name="Edieresis" unicode="&#xcb;" horiz-adv-x="598" 
d="M202 835h53v-69h-53v69zM365 835h53v-69h-53v69zM541 51v-51h-461v700h461v-51h-402v-273h402v-51h-402v-274h402z" />
    <glyph glyph-name="Igrave" unicode="&#xcc;" horiz-adv-x="219" 
d="M55 860l79 -120h-50l-96 120h67zM139 700v-700h-59v700h59z" />
    <glyph glyph-name="Iacute" unicode="&#xcd;" horiz-adv-x="219" 
d="M230 860l-96 -120h-50l79 120h67zM139 700v-700h-59v700h59z" />
    <glyph glyph-name="Icircumflex" unicode="&#xce;" horiz-adv-x="219" 
d="M152 860l96 -120h-51l-88 99l-88 -99h-51l95 120h87zM139 700v-700h-59v700h59z" />
    <glyph glyph-name="Idieresis" unicode="&#xcf;" horiz-adv-x="219" 
d="M1 835h53v-69h-53v69zM164 835h53v-69h-53v69zM139 700v-700h-59v700h59z" />
    <glyph glyph-name="Eth" unicode="&#xd0;" horiz-adv-x="701" 
d="M80 326h-80v47h80v327h279q139 0 205.5 -78t66.5 -232v-80q0 -154 -66.5 -232t-205.5 -78h-279v326zM341 373v-47h-202v-275h213q123 0 171.5 68.5t48.5 211.5v38q0 142 -48.5 211t-171.5 69h-213v-276h202z" />
    <glyph glyph-name="Ntilde" unicode="&#xd1;" horiz-adv-x="715" 
d="M432 756q-28 0 -69 24.5t-56 24.5q-35 0 -41 -46h-40q10 85 78 85q28 0 69 -24t56 -24q35 0 41 46h40q-9 -86 -78 -86zM635 700v-700h-97l-396 645h-4v-645h-59v700h98l395 -646h5v646h58z" />
    <glyph glyph-name="Ograve" unicode="&#xd2;" horiz-adv-x="717" 
d="M304 860l79 -120h-50l-96 120h67zM376 -10h-35q-139 0 -205.5 77.5t-66.5 232.5v100q0 155 66.5 232.5t205.5 77.5h35q139 0 205 -77.5t66 -232.5v-100q0 -155 -66 -232.5t-205 -77.5zM347 42h23q123 0 170.5 68.5t47.5 210.5v58q0 142 -48 210.5t-170 68.5h-23
q-122 0 -170.5 -69t-48.5 -210v-58q0 -142 48.5 -210.5t170.5 -68.5z" />
    <glyph glyph-name="Oacute" unicode="&#xd3;" horiz-adv-x="717" 
d="M479 860l-96 -120h-50l79 120h67zM376 -10h-35q-139 0 -205.5 77.5t-66.5 232.5v100q0 155 66.5 232.5t205.5 77.5h35q139 0 205 -77.5t66 -232.5v-100q0 -155 -66 -232.5t-205 -77.5zM347 42h23q123 0 170.5 68.5t47.5 210.5v58q0 142 -48 210.5t-170 68.5h-23
q-122 0 -170.5 -69t-48.5 -210v-58q0 -142 48.5 -210.5t170.5 -68.5z" />
    <glyph glyph-name="Ocircumflex" unicode="&#xd4;" horiz-adv-x="717" 
d="M401 860l96 -120h-51l-88 99l-88 -99h-51l95 120h87zM376 -10h-35q-139 0 -205.5 77.5t-66.5 232.5v100q0 155 66.5 232.5t205.5 77.5h35q139 0 205 -77.5t66 -232.5v-100q0 -155 -66 -232.5t-205 -77.5zM347 42h23q123 0 170.5 68.5t47.5 210.5v58q0 142 -48 210.5
t-170 68.5h-23q-122 0 -170.5 -69t-48.5 -210v-58q0 -142 48.5 -210.5t170.5 -68.5z" />
    <glyph glyph-name="Otilde" unicode="&#xd5;" horiz-adv-x="717" 
d="M422 756q-28 0 -69 24.5t-56 24.5q-35 0 -41 -46h-40q10 85 78 85q28 0 69 -24t56 -24q35 0 41 46h40q-9 -86 -78 -86zM376 -10h-35q-139 0 -205.5 77.5t-66.5 232.5v100q0 155 66.5 232.5t205.5 77.5h35q139 0 205 -77.5t66 -232.5v-100q0 -155 -66 -232.5t-205 -77.5z
M347 42h23q123 0 170.5 68.5t47.5 210.5v58q0 142 -48 210.5t-170 68.5h-23q-122 0 -170.5 -69t-48.5 -210v-58q0 -142 48.5 -210.5t170.5 -68.5z" />
    <glyph glyph-name="Odieresis" unicode="&#xd6;" horiz-adv-x="717" 
d="M250 835h53v-69h-53v69zM413 835h53v-69h-53v69zM376 -10h-35q-139 0 -205.5 77.5t-66.5 232.5v100q0 155 66.5 232.5t205.5 77.5h35q139 0 205 -77.5t66 -232.5v-100q0 -155 -66 -232.5t-205 -77.5zM347 42h23q123 0 170.5 68.5t47.5 210.5v58q0 142 -48 210.5
t-170 68.5h-23q-122 0 -170.5 -69t-48.5 -210v-58q0 -142 48.5 -210.5t170.5 -68.5z" />
    <glyph glyph-name="multiply" unicode="&#xd7;" horiz-adv-x="584" 
d="M260 329l-165 168l34 32l164 -167l168 172l33 -33l-169 -172l164 -167l-33 -34l-164 167l-168 -172l-34 33z" />
    <glyph glyph-name="Oslash" unicode="&#xd8;" horiz-adv-x="717" 
d="M129 -40h-60l69 104q-69 76 -69 236v100q0 155 66.5 232.5t205.5 77.5h35q99 0 164 -41l47 71h60l-69 -104q69 -76 69 -236v-100q0 -155 -66 -232.5t-205 -77.5h-35q-100 0 -165 41zM128 379v-58q0 -141 45 -205l335 505q-51 37 -138 37h-23q-122 0 -170.5 -69
t-48.5 -210zM347 42h23q123 0 170.5 68.5t47.5 210.5v58q0 140 -44 205l-336 -505q51 -37 139 -37z" />
    <glyph glyph-name="Ugrave" unicode="&#xd9;" horiz-adv-x="681" 
d="M286 860l79 -120h-50l-96 120h67zM367 -10h-53q-240 0 -240 258v452h59v-440q0 -108 43 -162.5t146 -54.5h36q103 0 146 54.5t43 162.5v440h60v-452q0 -258 -240 -258z" />
    <glyph glyph-name="Uacute" unicode="&#xda;" horiz-adv-x="681" 
d="M461 860l-96 -120h-50l79 120h67zM367 -10h-53q-240 0 -240 258v452h59v-440q0 -108 43 -162.5t146 -54.5h36q103 0 146 54.5t43 162.5v440h60v-452q0 -258 -240 -258z" />
    <glyph glyph-name="Ucircumflex" unicode="&#xdb;" horiz-adv-x="681" 
d="M384 860l96 -120h-51l-88 99l-88 -99h-51l95 120h87zM367 -10h-53q-240 0 -240 258v452h59v-440q0 -108 43 -162.5t146 -54.5h36q103 0 146 54.5t43 162.5v440h60v-452q0 -258 -240 -258z" />
    <glyph glyph-name="Udieresis" unicode="&#xdc;" horiz-adv-x="681" 
d="M233 835h53v-69h-53v69zM396 835h53v-69h-53v69zM367 -10h-53q-240 0 -240 258v452h59v-440q0 -108 43 -162.5t146 -54.5h36q103 0 146 54.5t43 162.5v440h60v-452q0 -258 -240 -258z" />
    <glyph glyph-name="Yacute" unicode="&#xdd;" horiz-adv-x="647" 
d="M445 860l-96 -120h-50l79 120h67zM352 314v-314h-59v314l-267 386h70l227 -329h4l227 329h66z" />
    <glyph glyph-name="Thorn" unicode="&#xde;" horiz-adv-x="630" 
d="M139 149v-149h-59v700h59v-147h238q111 0 167.5 -47t56.5 -150v-9q0 -198 -224 -198h-238zM374 502h-235v-302h235q84 0 126 34t42 109v16q0 75 -42 109t-126 34z" />
    <glyph glyph-name="germandbls" unicode="&#xdf;" horiz-adv-x="521" 
d="M122 505v-505h-57v518q0 192 180 192h6q89 0 134.5 -42t45.5 -119v-11q0 -106 -67 -132v-4q129 -18 129 -178v-25q0 -106 -47.5 -152.5t-145.5 -46.5h-90v48h83q78 0 111 36.5t33 120.5v16q0 68 -31.5 104.5t-112.5 36.5h-83v49h48q63 0 89.5 27t26.5 90v10
q0 122 -124 122h-4q-65 0 -94.5 -34.5t-29.5 -120.5z" />
    <glyph glyph-name="agrave" unicode="&#xe0;" horiz-adv-x="515" 
d="M208 700l79 -120h-50l-96 120h67zM457 348v-348h-56v79h-4q-42 -90 -173 -90q-86 0 -135 39t-49 118v7q0 73 40 112t127 44l193 12v22q0 91 -35 120.5t-109 29.5q-61 0 -95 -25.5t-45 -83.5h-57q27 156 192 156h13q98 0 145.5 -42t47.5 -150zM97 154v-6q0 -56 36.5 -84.5
t98.5 -28.5q85 0 126.5 42.5t41.5 119.5v79l-190 -11q-59 -4 -86 -30.5t-27 -80.5z" />
    <glyph glyph-name="aacute" unicode="&#xe1;" horiz-adv-x="515" 
d="M384 700l-96 -120h-50l79 120h67zM457 348v-348h-56v79h-4q-42 -90 -173 -90q-86 0 -135 39t-49 118v7q0 73 40 112t127 44l193 12v22q0 91 -35 120.5t-109 29.5q-61 0 -95 -25.5t-45 -83.5h-57q27 156 192 156h13q98 0 145.5 -42t47.5 -150zM97 154v-6q0 -56 36.5 -84.5
t98.5 -28.5q85 0 126.5 42.5t41.5 119.5v79l-190 -11q-59 -4 -86 -30.5t-27 -80.5z" />
    <glyph glyph-name="acircumflex" unicode="&#xe2;" horiz-adv-x="515" 
d="M305 700l96 -120h-51l-88 99l-88 -99h-51l95 120h87zM457 348v-348h-56v79h-4q-42 -90 -173 -90q-86 0 -135 39t-49 118v7q0 73 40 112t127 44l193 12v22q0 91 -35 120.5t-109 29.5q-61 0 -95 -25.5t-45 -83.5h-57q27 156 192 156h13q98 0 145.5 -42t47.5 -150zM97 154
v-6q0 -56 36.5 -84.5t98.5 -28.5q85 0 126.5 42.5t41.5 119.5v79l-190 -11q-59 -4 -86 -30.5t-27 -80.5z" />
    <glyph glyph-name="atilde" unicode="&#xe3;" horiz-adv-x="515" 
d="M326 596q-28 0 -69 24.5t-56 24.5q-35 0 -41 -46h-40q10 85 78 85q28 0 69 -24t56 -24q35 0 41 46h40q-9 -86 -78 -86zM457 348v-348h-56v79h-4q-42 -90 -173 -90q-86 0 -135 39t-49 118v7q0 73 40 112t127 44l193 12v22q0 91 -35 120.5t-109 29.5q-61 0 -95 -25.5
t-45 -83.5h-57q27 156 192 156h13q98 0 145.5 -42t47.5 -150zM97 154v-6q0 -56 36.5 -84.5t98.5 -28.5q85 0 126.5 42.5t41.5 119.5v79l-190 -11q-59 -4 -86 -30.5t-27 -80.5z" />
    <glyph glyph-name="adieresis" unicode="&#xe4;" horiz-adv-x="515" 
d="M154 674h53v-69h-53v69zM317 674h53v-69h-53v69zM457 348v-348h-56v79h-4q-42 -90 -173 -90q-86 0 -135 39t-49 118v7q0 73 40 112t127 44l193 12v22q0 91 -35 120.5t-109 29.5q-61 0 -95 -25.5t-45 -83.5h-57q27 156 192 156h13q98 0 145.5 -42t47.5 -150zM97 154v-6
q0 -56 36.5 -84.5t98.5 -28.5q85 0 126.5 42.5t41.5 119.5v79l-190 -11q-59 -4 -86 -30.5t-27 -80.5z" />
    <glyph glyph-name="aring" unicode="&#xe5;" horiz-adv-x="515" 
d="M262 572q-103 0 -103 98t103 98t103 -98t-103 -98zM262 608q62 0 62 62t-62 62t-62 -62t62 -62zM457 348v-348h-56v79h-4q-42 -90 -173 -90q-86 0 -135 39t-49 118v7q0 73 40 112t127 44l193 12v22q0 91 -35 120.5t-109 29.5q-61 0 -95 -25.5t-45 -83.5h-57
q27 156 192 156h13q98 0 145.5 -42t47.5 -150zM97 154v-6q0 -56 36.5 -84.5t98.5 -28.5q85 0 126.5 42.5t41.5 119.5v79l-190 -11q-59 -4 -86 -30.5t-27 -80.5z" />
    <glyph glyph-name="ae" unicode="&#xe6;" horiz-adv-x="880" 
d="M618 -10h-6q-74 0 -120.5 26t-67.5 91h-4q-33 -118 -193 -118q-88 0 -137.5 39t-49.5 118v7q0 73 40 112t127 44l193 12v22q0 91 -35 120.5t-109 29.5q-61 0 -95 -25.5t-45 -83.5h-57q27 156 192 156h13q135 0 171 -86h4q44 86 173 86h7q105 0 157.5 -56t52.5 -197v-32
h-372v-12q1 -54 10 -92t22.5 -59.5t35.5 -33.5t42 -15.5t48 -3.5q37 0 61 5t50 28t39 66h58q-19 -81 -70 -114.5t-135 -33.5zM615 493q-35 0 -58.5 -6t-47.5 -24.5t-37 -59t-15 -103.5h315v8q0 101 -38.5 143t-118.5 42zM97 153v-6q0 -56 37 -84t100 -28q84 0 125 42.5
t41 119.5v79l-190 -11q-59 -4 -86 -31t-27 -81z" />
    <glyph glyph-name="ccedilla" unicode="&#xe7;" horiz-adv-x="498" 
d="M402 144h57q-30 -142 -171 -153l-37 -131h-55l44 131q-93 5 -141 63t-48 190v43q0 139 53.5 196t155.5 57h7q160 0 192 -154h-57q-15 61 -50.5 82.5t-88.5 21.5q-28 0 -47.5 -3.5t-41 -16t-35 -35t-22.5 -63t-9 -97.5v-20q0 -57 9 -97.5t22.5 -63t35 -35t41 -16
t47.5 -3.5q53 0 88.5 21.5t50.5 82.5z" />
    <glyph glyph-name="egrave" unicode="&#xe8;" horiz-adv-x="531" 
d="M216 700l79 -120h-50l-96 120h67zM416 138h58q-20 -81 -70.5 -114.5t-134.5 -33.5h-6q-105 0 -158.5 57t-53.5 198v40q0 141 53.5 198t158.5 57h6q105 0 158 -56t53 -197v-32h-372q0 -70 12 -115.5t36.5 -66.5t48.5 -27.5t61 -6.5t61 5t50 28t39 66zM266 493
q-35 0 -58.5 -6t-47.5 -24.5t-37 -59t-15 -103.5h315v8q0 101 -39 143t-118 42z" />
    <glyph glyph-name="eacute" unicode="&#xe9;" horiz-adv-x="531" 
d="M391 700l-96 -120h-50l79 120h67zM416 138h58q-20 -81 -70.5 -114.5t-134.5 -33.5h-6q-105 0 -158.5 57t-53.5 198v40q0 141 53.5 198t158.5 57h6q105 0 158 -56t53 -197v-32h-372q0 -70 12 -115.5t36.5 -66.5t48.5 -27.5t61 -6.5t61 5t50 28t39 66zM266 493
q-35 0 -58.5 -6t-47.5 -24.5t-37 -59t-15 -103.5h315v8q0 101 -39 143t-118 42z" />
    <glyph glyph-name="ecircumflex" unicode="&#xea;" horiz-adv-x="531" 
d="M313 700l96 -120h-51l-88 99l-88 -99h-51l95 120h87zM416 138h58q-20 -81 -70.5 -114.5t-134.5 -33.5h-6q-105 0 -158.5 57t-53.5 198v40q0 141 53.5 198t158.5 57h6q105 0 158 -56t53 -197v-32h-372q0 -70 12 -115.5t36.5 -66.5t48.5 -27.5t61 -6.5t61 5t50 28t39 66z
M266 493q-35 0 -58.5 -6t-47.5 -24.5t-37 -59t-15 -103.5h315v8q0 101 -39 143t-118 42z" />
    <glyph glyph-name="edieresis" unicode="&#xeb;" horiz-adv-x="531" 
d="M162 674h53v-69h-53v69zM325 674h53v-69h-53v69zM416 138h58q-20 -81 -70.5 -114.5t-134.5 -33.5h-6q-105 0 -158.5 57t-53.5 198v40q0 141 53.5 198t158.5 57h6q105 0 158 -56t53 -197v-32h-372q0 -70 12 -115.5t36.5 -66.5t48.5 -27.5t61 -6.5t61 5t50 28t39 66z
M266 493q-35 0 -58.5 -6t-47.5 -24.5t-37 -59t-15 -103.5h315v8q0 101 -39 143t-118 42z" />
    <glyph glyph-name="igrave" unicode="&#xec;" horiz-adv-x="188" 
d="M39 700l79 -120h-50l-96 120h67zM65 530h57v-530h-57v530z" />
    <glyph glyph-name="iacute" unicode="&#xed;" horiz-adv-x="188" 
d="M215 700l-96 -120h-50l79 120h67zM65 530h57v-530h-57v530z" />
    <glyph glyph-name="icircumflex" unicode="&#xee;" horiz-adv-x="188" 
d="M136 700l96 -120h-51l-88 99l-88 -99h-51l95 120h87zM65 530h57v-530h-57v530z" />
    <glyph glyph-name="idieresis" unicode="&#xef;" horiz-adv-x="188" 
d="M-15 674h53v-69h-53v69zM148 674h53v-69h-53v69zM65 530h57v-530h-57v530z" />
    <glyph glyph-name="eth" unicode="&#xf0;" horiz-adv-x="547" 
d="M288 -10h-27q-100 0 -155 56t-55 172v43q0 117 54 172t160 55q87 0 134 -43l3 3q-32 62 -83 125l-196 -32v47l160 26q-49 51 -89 86h77q51 -49 75 -76l143 23v-47l-110 -18q116 -152 116 -319v-42q0 -231 -207 -231zM273 40q83 0 124 39.5t41 147.5v24q0 59 -11 97.5
t-34.5 57.5t-51 26t-68.5 7q-83 0 -124 -39.5t-41 -148.5v-24q0 -108 41.5 -147.5t123.5 -39.5z" />
    <glyph glyph-name="ntilde" unicode="&#xf1;" horiz-adv-x="527" 
d="M331 596q-28 0 -69.5 24.5t-55.5 24.5q-17 0 -26.5 -10t-14.5 -36h-40q10 85 78 85q28 0 69.5 -24t55.5 -24q17 0 26.5 10t14.5 36h40q-9 -86 -78 -86zM468 344v-344h-56v331q0 91 -35 125t-102 34q-153 0 -153 -176v-314h-57v530h57v-80h4q39 90 162 90q180 0 180 -196z
" />
    <glyph glyph-name="ograve" unicode="&#xf2;" horiz-adv-x="542" 
d="M217 700l79 -120h-50l-96 120h67zM275 -10h-9q-108 0 -161.5 57.5t-53.5 197.5v40q0 140 53.5 197.5t161.5 57.5h9q108 0 161.5 -57.5t53.5 -197.5v-40q0 -140 -53.5 -197.5t-161.5 -57.5zM271 40q38 0 63 6.5t50 27.5t37.5 66t12.5 116v18q0 71 -12.5 116t-37.5 66
t-50 27.5t-63 6.5t-63.5 -6.5t-50.5 -27.5t-37 -66t-12 -116v-18q0 -71 12 -116t37 -66t50.5 -27.5t63.5 -6.5z" />
    <glyph glyph-name="oacute" unicode="&#xf3;" horiz-adv-x="542" 
d="M392 700l-96 -120h-50l79 120h67zM275 -10h-9q-108 0 -161.5 57.5t-53.5 197.5v40q0 140 53.5 197.5t161.5 57.5h9q108 0 161.5 -57.5t53.5 -197.5v-40q0 -140 -53.5 -197.5t-161.5 -57.5zM271 40q38 0 63 6.5t50 27.5t37.5 66t12.5 116v18q0 71 -12.5 116t-37.5 66
t-50 27.5t-63 6.5t-63.5 -6.5t-50.5 -27.5t-37 -66t-12 -116v-18q0 -71 12 -116t37 -66t50.5 -27.5t63.5 -6.5z" />
    <glyph glyph-name="ocircumflex" unicode="&#xf4;" horiz-adv-x="542" 
d="M314 700l96 -120h-51l-88 99l-88 -99h-51l95 120h87zM275 -10h-9q-108 0 -161.5 57.5t-53.5 197.5v40q0 140 53.5 197.5t161.5 57.5h9q108 0 161.5 -57.5t53.5 -197.5v-40q0 -140 -53.5 -197.5t-161.5 -57.5zM271 40q38 0 63 6.5t50 27.5t37.5 66t12.5 116v18
q0 71 -12.5 116t-37.5 66t-50 27.5t-63 6.5t-63.5 -6.5t-50.5 -27.5t-37 -66t-12 -116v-18q0 -71 12 -116t37 -66t50.5 -27.5t63.5 -6.5z" />
    <glyph glyph-name="otilde" unicode="&#xf5;" horiz-adv-x="542" 
d="M335 596q-28 0 -69.5 24.5t-55.5 24.5q-17 0 -26.5 -10t-14.5 -36h-40q10 85 78 85q28 0 69.5 -24t55.5 -24q17 0 26.5 10t14.5 36h40q-9 -86 -78 -86zM275 -10h-9q-108 0 -161.5 57.5t-53.5 197.5v40q0 140 53.5 197.5t161.5 57.5h9q108 0 161.5 -57.5t53.5 -197.5v-40
q0 -140 -53.5 -197.5t-161.5 -57.5zM271 40q38 0 63 6.5t50 27.5t37.5 66t12.5 116v18q0 71 -12.5 116t-37.5 66t-50 27.5t-63 6.5t-63.5 -6.5t-50.5 -27.5t-37 -66t-12 -116v-18q0 -71 12 -116t37 -66t50.5 -27.5t63.5 -6.5z" />
    <glyph glyph-name="odieresis" unicode="&#xf6;" horiz-adv-x="542" 
d="M163 674h53v-69h-53v69zM326 674h53v-69h-53v69zM275 -10h-9q-108 0 -161.5 57.5t-53.5 197.5v40q0 140 53.5 197.5t161.5 57.5h9q108 0 161.5 -57.5t53.5 -197.5v-40q0 -140 -53.5 -197.5t-161.5 -57.5zM271 40q38 0 63 6.5t50 27.5t37.5 66t12.5 116v18q0 71 -12.5 116
t-37.5 66t-50 27.5t-63 6.5t-63.5 -6.5t-50.5 -27.5t-37 -66t-12 -116v-18q0 -71 12 -116t37 -66t50.5 -27.5t63.5 -6.5z" />
    <glyph glyph-name="divide" unicode="&#xf7;" horiz-adv-x="584" 
d="M316 568v-68h-49v68h49zM479 352v-46h-375v46h375zM316 158v-68h-49v68h49z" />
    <glyph glyph-name="oslash" unicode="&#xf8;" horiz-adv-x="542" 
d="M106 -40h-55l55 87q-55 61 -55 198v40q0 140 53.5 197.5t161.5 57.5h9q77 0 122 -26l35 56h55l-53 -85q56 -62 56 -200v-40q0 -140 -53.5 -197.5t-161.5 -57.5h-9q-78 0 -124 28zM108 274v-18q0 -108 31 -158l229 371q-33 21 -97 21q-38 0 -63.5 -6.5t-50.5 -27.5
t-37 -66t-12 -116zM271 40q38 0 63 6.5t50 27.5t37.5 66t12.5 116v18q0 109 -32 160l-231 -371q34 -23 100 -23z" />
    <glyph glyph-name="ugrave" unicode="&#xf9;" horiz-adv-x="527" 
d="M206 700l79 -120h-50l-96 120h67zM59 186v344h56v-331q0 -90 35 -124.5t102 -34.5q153 0 153 176v314h57v-530h-57v80h-4q-39 -90 -162 -90q-180 0 -180 196z" />
    <glyph glyph-name="uacute" unicode="&#xfa;" horiz-adv-x="527" 
d="M382 700l-96 -120h-50l79 120h67zM59 186v344h56v-331q0 -90 35 -124.5t102 -34.5q153 0 153 176v314h57v-530h-57v80h-4q-39 -90 -162 -90q-180 0 -180 196z" />
    <glyph glyph-name="ucircumflex" unicode="&#xfb;" horiz-adv-x="527" 
d="M304 700l96 -120h-51l-88 99l-88 -99h-51l95 120h87zM59 186v344h56v-331q0 -90 35 -124.5t102 -34.5q153 0 153 176v314h57v-530h-57v80h-4q-39 -90 -162 -90q-180 0 -180 196z" />
    <glyph glyph-name="udieresis" unicode="&#xfc;" horiz-adv-x="527" 
d="M153 674h53v-69h-53v69zM316 674h53v-69h-53v69zM59 186v344h56v-331q0 -90 35 -124.5t102 -34.5q153 0 153 176v314h57v-530h-57v80h-4q-39 -90 -162 -90q-180 0 -180 196z" />
    <glyph glyph-name="yacute" unicode="&#xfd;" horiz-adv-x="481" 
d="M366 700l-96 -120h-50l79 120h67zM481 530l-274 -700h-59l70 172l-212 528h61l178 -451h4l174 451h58z" />
    <glyph glyph-name="thorn" unicode="&#xfe;" horiz-adv-x="555" 
d="M122 78v-248h-57v870h57v-248h4q31 88 161 88h5q104 0 157.5 -56t53.5 -197v-44q0 -141 -53.5 -197t-157.5 -56h-5q-130 0 -161 88h-4zM284 40q38 0 63.5 6.5t50.5 27.5t37 66t12 116v18q0 71 -12 116t-37 66t-50.5 27.5t-63.5 6.5t-63 -6.5t-50 -27t-37 -66t-12 -115.5
v-19q0 -71 12 -116t37 -66t50 -27.5t63 -6.5z" />
    <glyph glyph-name="ydieresis" unicode="&#xff;" horiz-adv-x="481" 
d="M137 674h53v-69h-53v69zM300 674h53v-69h-53v69zM481 530l-274 -700h-59l70 172l-212 528h61l178 -451h4l174 451h58z" />
    <glyph glyph-name="Amacron" unicode="&#x100;" horiz-adv-x="687" 
d="M479 821v-42h-270v42h270zM388 700l272 -700h-64l-87 225h-332l-87 -225h-63l271 700h90zM346 654h-4l-145 -377h293z" />
    <glyph glyph-name="amacron" unicode="&#x101;" horiz-adv-x="515" 
d="M397 661v-42h-270v42h270zM457 348v-348h-56v79h-4q-42 -90 -173 -90q-86 0 -135 39t-49 118v7q0 73 40 112t127 44l193 12v22q0 91 -35 120.5t-109 29.5q-61 0 -95 -25.5t-45 -83.5h-57q27 156 192 156h13q98 0 145.5 -42t47.5 -150zM97 154v-6q0 -56 36.5 -84.5
t98.5 -28.5q85 0 126.5 42.5t41.5 119.5v79l-190 -11q-59 -4 -86 -30.5t-27 -80.5z" />
    <glyph glyph-name="Abreve" unicode="&#x102;" horiz-adv-x="687" 
d="M344 734q-133 0 -134 126h44q0 -87 90 -87t90 87h44q-1 -126 -134 -126zM388 700l272 -700h-64l-87 225h-332l-87 -225h-63l271 700h90zM346 654h-4l-145 -377h293z" />
    <glyph glyph-name="abreve" unicode="&#x103;" horiz-adv-x="515" 
d="M262 574q-133 0 -134 126h44q0 -87 90 -87t90 87h44q-1 -126 -134 -126zM457 348v-348h-56v79h-4q-42 -90 -173 -90q-86 0 -135 39t-49 118v7q0 73 40 112t127 44l193 12v22q0 91 -35 120.5t-109 29.5q-61 0 -95 -25.5t-45 -83.5h-57q27 156 192 156h13q98 0 145.5 -42
t47.5 -150zM97 154v-6q0 -56 36.5 -84.5t98.5 -28.5q85 0 126.5 42.5t41.5 119.5v79l-190 -11q-59 -4 -86 -30.5t-27 -80.5z" />
    <glyph glyph-name="Aogonek" unicode="&#x104;" horiz-adv-x="687" 
d="M643 -99v-41h-36q-46 0 -67.5 16t-21.5 53q0 30 14.5 49t57.5 38l-81 209h-332l-87 -225h-63l271 700h90l272 -700h-17q-48 -20 -59 -31q-12 -13 -12 -34q0 -18 11.5 -26t39.5 -8h20zM346 654h-4l-145 -377h293z" />
    <glyph glyph-name="aogonek" unicode="&#x105;" horiz-adv-x="515" 
d="M457 -99v-41h-36q-46 0 -67.5 16t-21.5 53q0 29 14 47.5t55 37.5v65h-4q-42 -90 -173 -90q-86 0 -135 39t-49 118v7q0 73 40 112t127 44l193 12v22q0 91 -35 120.5t-109 29.5q-61 0 -95 -25.5t-45 -83.5h-57q27 156 192 156h13q98 0 145.5 -42t47.5 -150v-348
q-48 -20 -59 -31q-12 -13 -12 -34q0 -18 11.5 -26t39.5 -8h20zM97 154v-6q0 -56 36.5 -84.5t98.5 -28.5q85 0 126.5 42.5t41.5 119.5v79l-190 -11q-59 -4 -86 -30.5t-27 -80.5z" />
    <glyph glyph-name="Cacute" unicode="&#x106;" horiz-adv-x="696" 
d="M478 860l-96 -120h-50l79 120h67zM377 -10h-39q-138 0 -203.5 77.5t-65.5 232.5v100q0 155 65.5 232.5t203.5 77.5h39q110 0 173.5 -50.5t85.5 -156.5h-62q-17 80 -67.5 117.5t-137.5 37.5h-23q-122 0 -170 -68.5t-48 -210.5v-58q0 -142 47.5 -210.5t170.5 -68.5h23
q87 0 137.5 37.5t67.5 117.5h62q-22 -106 -85.5 -156.5t-173.5 -50.5z" />
    <glyph glyph-name="cacute" unicode="&#x107;" horiz-adv-x="498" 
d="M397 700l-96 -120h-50l79 120h67zM267 -10h-7q-102 0 -155.5 57t-53.5 197v43q0 139 53.5 196t155.5 57h7q160 0 192 -154h-57q-15 61 -50.5 82.5t-88.5 21.5q-28 0 -47.5 -3.5t-41 -16t-35 -35t-22.5 -63t-9 -97.5v-20q0 -57 9 -97.5t22.5 -63t35 -35t41 -16t47.5 -3.5
q53 0 88.5 21.5t50.5 82.5h57q-32 -154 -192 -154z" />
    <glyph glyph-name="Ccircumflex" unicode="&#x108;" horiz-adv-x="696" 
d="M400 860l96 -120h-51l-88 99l-88 -99h-51l95 120h87zM377 -10h-39q-138 0 -203.5 77.5t-65.5 232.5v100q0 155 65.5 232.5t203.5 77.5h39q110 0 173.5 -50.5t85.5 -156.5h-62q-17 80 -67.5 117.5t-137.5 37.5h-23q-122 0 -170 -68.5t-48 -210.5v-58q0 -142 47.5 -210.5
t170.5 -68.5h23q87 0 137.5 37.5t67.5 117.5h62q-22 -106 -85.5 -156.5t-173.5 -50.5z" />
    <glyph glyph-name="ccircumflex" unicode="&#x109;" horiz-adv-x="498" 
d="M307 700l96 -120h-51l-88 99l-88 -99h-51l95 120h87zM267 -10h-7q-102 0 -155.5 57t-53.5 197v43q0 139 53.5 196t155.5 57h7q160 0 192 -154h-57q-15 61 -50.5 82.5t-88.5 21.5q-28 0 -47.5 -3.5t-41 -16t-35 -35t-22.5 -63t-9 -97.5v-20q0 -57 9 -97.5t22.5 -63t35 -35
t41 -16t47.5 -3.5q53 0 88.5 21.5t50.5 82.5h57q-32 -154 -192 -154z" />
    <glyph glyph-name="Cdotaccent" unicode="&#x10a;" horiz-adv-x="696" 
d="M329 834h57v-69h-57v69zM377 -10h-39q-138 0 -203.5 77.5t-65.5 232.5v100q0 155 65.5 232.5t203.5 77.5h39q110 0 173.5 -50.5t85.5 -156.5h-62q-17 80 -67.5 117.5t-137.5 37.5h-23q-122 0 -170 -68.5t-48 -210.5v-58q0 -142 47.5 -210.5t170.5 -68.5h23
q87 0 137.5 37.5t67.5 117.5h62q-22 -106 -85.5 -156.5t-173.5 -50.5z" />
    <glyph glyph-name="cdotaccent" unicode="&#x10b;" horiz-adv-x="498" 
d="M235 674h57v-69h-57v69zM267 -10h-7q-102 0 -155.5 57t-53.5 197v43q0 139 53.5 196t155.5 57h7q160 0 192 -154h-57q-15 61 -50.5 82.5t-88.5 21.5q-28 0 -47.5 -3.5t-41 -16t-35 -35t-22.5 -63t-9 -97.5v-20q0 -57 9 -97.5t22.5 -63t35 -35t41 -16t47.5 -3.5
q53 0 88.5 21.5t50.5 82.5h57q-32 -154 -192 -154z" />
    <glyph glyph-name="Ccaron" unicode="&#x10c;" horiz-adv-x="696" 
d="M357 761l88 99h51l-96 -120h-87l-95 120h51zM377 -10h-39q-138 0 -203.5 77.5t-65.5 232.5v100q0 155 65.5 232.5t203.5 77.5h39q110 0 173.5 -50.5t85.5 -156.5h-62q-17 80 -67.5 117.5t-137.5 37.5h-23q-122 0 -170 -68.5t-48 -210.5v-58q0 -142 47.5 -210.5
t170.5 -68.5h23q87 0 137.5 37.5t67.5 117.5h62q-22 -106 -85.5 -156.5t-173.5 -50.5z" />
    <glyph glyph-name="ccaron" unicode="&#x10d;" horiz-adv-x="498" 
d="M264 601l88 99h51l-96 -120h-87l-95 120h51zM267 -10h-7q-102 0 -155.5 57t-53.5 197v43q0 139 53.5 196t155.5 57h7q160 0 192 -154h-57q-15 61 -50.5 82.5t-88.5 21.5q-28 0 -47.5 -3.5t-41 -16t-35 -35t-22.5 -63t-9 -97.5v-20q0 -57 9 -97.5t22.5 -63t35 -35t41 -16
t47.5 -3.5q53 0 88.5 21.5t50.5 82.5h57q-32 -154 -192 -154z" />
    <glyph glyph-name="Dcaron" unicode="&#x10e;" horiz-adv-x="701" 
d="M348 761l88 99h51l-96 -120h-87l-95 120h51zM631 390v-80q0 -154 -66.5 -232t-205.5 -78h-279v700h279q139 0 205.5 -78t66.5 -232zM352 649h-213v-598h213q123 0 171.5 68.5t48.5 211.5v38q0 142 -48.5 211t-171.5 69z" />
    <glyph glyph-name="dcaron" unicode="&#x10f;" horiz-adv-x="669" 
d="M497 700v-700h-56v78h-5q-31 -88 -161 -88h-5q-103 0 -157.5 56.5t-54.5 196.5v44q0 140 54.5 196.5t157.5 56.5h5q130 0 161 -88h5v248h56zM662 700l-43 -198h-45l33 198h55zM278 40q30 0 51 3.5t44 16t36.5 35.5t22.5 63t9 97v19q0 71 -12 116t-37 66t-50.5 27.5
t-63.5 6.5t-63.5 -6.5t-50.5 -27.5t-37 -66t-12 -116v-18q0 -71 12 -116t37 -66t50.5 -27.5t63.5 -6.5z" />
    <glyph glyph-name="Dcroat" unicode="&#x110;" horiz-adv-x="701" 
d="M80 326h-80v47h80v327h279q139 0 205.5 -78t66.5 -232v-80q0 -154 -66.5 -232t-205.5 -78h-279v326zM341 373v-47h-202v-275h213q123 0 171.5 68.5t48.5 211.5v38q0 142 -48.5 211t-171.5 69h-213v-276h202z" />
    <glyph glyph-name="dslash" unicode="&#x111;" horiz-adv-x="549" 
d="M483 587v-587h-56v78h-5q-31 -88 -161 -88h-5q-103 0 -157.5 56.5t-54.5 196.5v44q0 140 54.5 196.5t157.5 56.5h5q130 0 161 -88h5v135h-165v46h165v67h56v-67h60v-46h-60zM264 40q30 0 51 3.5t44 16t36.5 35.5t22.5 63t9 97v19q0 71 -12 116t-37 66t-50.5 27.5
t-63.5 6.5t-63.5 -6.5t-50.5 -27.5t-37 -66t-12 -116v-18q0 -71 12 -116t37 -66t50.5 -27.5t63.5 -6.5z" />
    <glyph glyph-name="Emacron" unicode="&#x112;" horiz-adv-x="598" 
d="M445 821v-42h-270v42h270zM541 51v-51h-461v700h461v-51h-402v-273h402v-51h-402v-274h402z" />
    <glyph glyph-name="emacron" unicode="&#x113;" horiz-adv-x="531" 
d="M405 661v-42h-270v42h270zM416 138h58q-20 -81 -70.5 -114.5t-134.5 -33.5h-6q-105 0 -158.5 57t-53.5 198v40q0 141 53.5 198t158.5 57h6q105 0 158 -56t53 -197v-32h-372q0 -70 12 -115.5t36.5 -66.5t48.5 -27.5t61 -6.5t61 5t50 28t39 66zM266 493q-35 0 -58.5 -6
t-47.5 -24.5t-37 -59t-15 -103.5h315v8q0 101 -39 143t-118 42z" />
    <glyph glyph-name="Ebreve" unicode="&#x114;" horiz-adv-x="598" 
d="M310 734q-133 0 -134 126h44q0 -87 90 -87t90 87h44q-1 -126 -134 -126zM541 51v-51h-461v700h461v-51h-402v-273h402v-51h-402v-274h402z" />
    <glyph glyph-name="ebreve" unicode="&#x115;" horiz-adv-x="531" 
d="M270 574q-133 0 -134 126h44q0 -87 90 -87t90 87h44q-1 -126 -134 -126zM416 138h58q-20 -81 -70.5 -114.5t-134.5 -33.5h-6q-105 0 -158.5 57t-53.5 198v40q0 141 53.5 198t158.5 57h6q105 0 158 -56t53 -197v-32h-372q0 -70 12 -115.5t36.5 -66.5t48.5 -27.5t61 -6.5
t61 5t50 28t39 66zM266 493q-35 0 -58.5 -6t-47.5 -24.5t-37 -59t-15 -103.5h315v8q0 101 -39 143t-118 42z" />
    <glyph glyph-name="Edotaccent" unicode="&#x116;" horiz-adv-x="598" 
d="M281 834h57v-69h-57v69zM541 51v-51h-461v700h461v-51h-402v-273h402v-51h-402v-274h402z" />
    <glyph glyph-name="edotaccent" unicode="&#x117;" horiz-adv-x="531" 
d="M242 674h57v-69h-57v69zM416 138h58q-20 -81 -70.5 -114.5t-134.5 -33.5h-6q-105 0 -158.5 57t-53.5 198v40q0 141 53.5 198t158.5 57h6q105 0 158 -56t53 -197v-32h-372q0 -70 12 -115.5t36.5 -66.5t48.5 -27.5t61 -6.5t61 5t50 28t39 66zM266 493q-35 0 -58.5 -6
t-47.5 -24.5t-37 -59t-15 -103.5h315v8q0 101 -39 143t-118 42z" />
    <glyph glyph-name="Eogonek" unicode="&#x118;" horiz-adv-x="598" 
d="M541 -99v-41h-36q-46 0 -67.5 16t-21.5 53q0 24 8.5 40t32.5 31h-377v700h461v-51h-402v-273h402v-51h-402v-274h402v-51q-48 -20 -59 -31q-12 -13 -12 -34q0 -18 11.5 -26t39.5 -8h20z" />
    <glyph glyph-name="eogonek" unicode="&#x119;" horiz-adv-x="530" 
d="M409 -99v-41h-39q-85 0 -85 68q0 39 24 60v4q-30 -2 -42 -2q-115 0 -165 61t-50 194v40q0 141 53.5 198t157.5 57h7q105 0 158 -56t53 -197v-32h-372q0 -70 12 -115.5t36.5 -66.5t49 -27.5t60.5 -6.5q37 0 61 5t50 28t39 66h57q-17 -83 -85 -125q-29 -18 -39.5 -34
t-10.5 -40q0 -21 10 -29.5t40 -8.5h20zM266 493q-35 0 -58.5 -6t-47.5 -24.5t-36.5 -59t-14.5 -103.5h315v8q0 101 -39 143t-119 42z" />
    <glyph glyph-name="Ecaron" unicode="&#x11a;" horiz-adv-x="598" 
d="M310 761l88 99h51l-96 -120h-87l-95 120h51zM541 51v-51h-461v700h461v-51h-402v-273h402v-51h-402v-274h402z" />
    <glyph glyph-name="ecaron" unicode="&#x11b;" horiz-adv-x="531" 
d="M270 601l88 99h51l-96 -120h-87l-95 120h51zM416 138h58q-20 -81 -70.5 -114.5t-134.5 -33.5h-6q-105 0 -158.5 57t-53.5 198v40q0 141 53.5 198t158.5 57h6q105 0 158 -56t53 -197v-32h-372q0 -70 12 -115.5t36.5 -66.5t48.5 -27.5t61 -6.5t61 5t50 28t39 66zM266 493
q-35 0 -58.5 -6t-47.5 -24.5t-37 -59t-15 -103.5h315v8q0 101 -39 143t-118 42z" />
    <glyph glyph-name="Gcircumflex" unicode="&#x11c;" horiz-adv-x="716" 
d="M401 860l96 -120h-51l-88 99l-88 -99h-51l95 120h87zM376 -10h-35q-139 0 -205.5 77.5t-66.5 232.5v100q0 155 66.5 232.5t205.5 77.5h35q218 0 258 -192h-62q-29 140 -202 140h-23q-122 0 -170.5 -69t-48.5 -210v-58q0 -142 48.5 -210.5t170.5 -68.5h24q121 0 169 66
t48 206v4h-243v52h302v-70q0 -155 -66 -232.5t-205 -77.5z" />
    <glyph glyph-name="gcircumflex" unicode="&#x11d;" horiz-adv-x="563" 
d="M324 700l96 -120h-51l-88 99l-88 -99h-51l95 120h87zM286 -170h-10q-89 0 -139 26.5t-66 98.5h57q15 -45 50 -61.5t104 -16.5q76 0 110 35.5t34 130.5v65h-4q-16 -40 -52.5 -59t-101.5 -19h-4q-104 0 -152 53t-48 192v19q0 140 48 193t152 53h4q65 0 101.5 -19t52.5 -59
h4v68h57v-496q0 -111 -47.5 -157.5t-149.5 -46.5zM274 79q30 0 50 3t41 14.5t33 32.5t20 58.5t8 90.5v13q0 53 -8 90.5t-20 58.5t-33 32.5t-41 14.5t-50 3q-38 0 -62 -6t-47 -25t-34 -60.5t-11 -107.5v-13q0 -66 10.5 -107.5t34 -60.5t47 -25t62.5 -6z" />
    <glyph glyph-name="Gbreve" unicode="&#x11e;" horiz-adv-x="716" 
d="M358 734q-133 0 -134 126h44q0 -87 90 -87t90 87h44q-1 -126 -134 -126zM376 -10h-35q-139 0 -205.5 77.5t-66.5 232.5v100q0 155 66.5 232.5t205.5 77.5h35q218 0 258 -192h-62q-29 140 -202 140h-23q-122 0 -170.5 -69t-48.5 -210v-58q0 -142 48.5 -210.5t170.5 -68.5
h24q121 0 169 66t48 206v4h-243v52h302v-70q0 -155 -66 -232.5t-205 -77.5z" />
    <glyph glyph-name="gbreve" unicode="&#x11f;" horiz-adv-x="563" 
d="M281 574q-133 0 -134 126h44q0 -87 90 -87t90 87h44q-1 -126 -134 -126zM286 -170h-10q-89 0 -139 26.5t-66 98.5h57q15 -45 50 -61.5t104 -16.5q76 0 110 35.5t34 130.5v65h-4q-16 -40 -52.5 -59t-101.5 -19h-4q-104 0 -152 53t-48 192v19q0 140 48 193t152 53h4
q65 0 101.5 -19t52.5 -59h4v68h57v-496q0 -111 -47.5 -157.5t-149.5 -46.5zM274 79q30 0 50 3t41 14.5t33 32.5t20 58.5t8 90.5v13q0 53 -8 90.5t-20 58.5t-33 32.5t-41 14.5t-50 3q-38 0 -62 -6t-47 -25t-34 -60.5t-11 -107.5v-13q0 -66 10.5 -107.5t34 -60.5t47 -25
t62.5 -6z" />
    <glyph glyph-name="Gdotaccent" unicode="&#x120;" horiz-adv-x="716" 
d="M329 834h57v-69h-57v69zM376 -10h-35q-139 0 -205.5 77.5t-66.5 232.5v100q0 155 66.5 232.5t205.5 77.5h35q218 0 258 -192h-62q-29 140 -202 140h-23q-122 0 -170.5 -69t-48.5 -210v-58q0 -142 48.5 -210.5t170.5 -68.5h24q121 0 169 66t48 206v4h-243v52h302v-70
q0 -155 -66 -232.5t-205 -77.5z" />
    <glyph glyph-name="gdotaccent" unicode="&#x121;" horiz-adv-x="563" 
d="M252 674h57v-69h-57v69zM286 -170h-10q-89 0 -139 26.5t-66 98.5h57q15 -45 50 -61.5t104 -16.5q76 0 110 35.5t34 130.5v65h-4q-16 -40 -52.5 -59t-101.5 -19h-4q-104 0 -152 53t-48 192v19q0 140 48 193t152 53h4q65 0 101.5 -19t52.5 -59h4v68h57v-496
q0 -111 -47.5 -157.5t-149.5 -46.5zM274 79q30 0 50 3t41 14.5t33 32.5t20 58.5t8 90.5v13q0 53 -8 90.5t-20 58.5t-33 32.5t-41 14.5t-50 3q-38 0 -62 -6t-47 -25t-34 -60.5t-11 -107.5v-13q0 -66 10.5 -107.5t34 -60.5t47 -25t62.5 -6z" />
    <glyph glyph-name="Gcommaaccent" unicode="&#x122;" horiz-adv-x="716" 
d="M376 -10h-35q-139 0 -205.5 77.5t-66.5 232.5v100q0 155 66.5 232.5t205.5 77.5h35q218 0 258 -192h-62q-29 140 -202 140h-23q-122 0 -170.5 -69t-48.5 -210v-58q0 -142 48.5 -210.5t170.5 -68.5h24q121 0 169 66t48 206v4h-243v52h302v-70q0 -155 -66 -232.5
t-205 -77.5zM381 -147l-14 -23h-40l36 64v6h-51v46h92v-11q0 -37 -23 -82z" />
    <glyph glyph-name="gcommaaccent" unicode="&#x123;" horiz-adv-x="563" 
d="M259 691l14 23h39l-36 -64v-6h51v-46h-92v11q0 35 24 82zM286 -170h-10q-89 0 -139 26.5t-66 98.5h57q15 -45 50 -61.5t104 -16.5q76 0 110 35.5t34 130.5v65h-4q-16 -40 -52.5 -59t-101.5 -19h-4q-104 0 -152 53t-48 192v19q0 140 48 193t152 53h4q65 0 101.5 -19
t52.5 -59h4v68h57v-496q0 -111 -47.5 -157.5t-149.5 -46.5zM274 79q30 0 50 3t41 14.5t33 32.5t20 58.5t8 90.5v13q0 53 -8 90.5t-20 58.5t-33 32.5t-41 14.5t-50 3q-38 0 -62 -6t-47 -25t-34 -60.5t-11 -107.5v-13q0 -66 10.5 -107.5t34 -60.5t47 -25t62.5 -6z" />
    <glyph glyph-name="Hcircumflex" unicode="&#x124;" horiz-adv-x="696" 
d="M390 860l96 -120h-51l-88 99l-88 -99h-51l95 120h87zM616 700v-700h-59v324h-418v-324h-59v700h59v-325h418v325h59z" />
    <glyph glyph-name="hcircumflex" unicode="&#x125;" horiz-adv-x="527" 
d="M136 870l96 -120h-51l-88 99l-88 -99h-51l95 120h87zM468 344v-344h-56v331q0 91 -35 125t-102 34q-153 0 -153 -176v-314h-57v700h57v-250h4q39 90 162 90q180 0 180 -196z" />
    <glyph glyph-name="Hbar" unicode="&#x126;" horiz-adv-x="696" 
d="M80 511h-80v48h80v141h59v-141h418v141h59v-141h80v-48h-80v-511h-59v324h-418v-324h-59v511zM139 511v-136h418v136h-418z" />
    <glyph glyph-name="hbar" unicode="&#x127;" horiz-adv-x="527" 
d="M468 344v-344h-56v331q0 91 -35 125t-102 34q-153 0 -153 -176v-314h-57v587h-60v46h60v67h57v-67h164v-46h-164v-137h4q39 90 162 90q180 0 180 -196z" />
    <glyph glyph-name="Itilde" unicode="&#x128;" horiz-adv-x="219" 
d="M173 756q-28 0 -69.5 24.5t-55.5 24.5q-17 0 -26.5 -10t-14.5 -36h-40q10 85 78 85q28 0 69.5 -24t55.5 -24q17 0 26.5 10t14.5 36h40q-9 -86 -78 -86zM139 700v-700h-59v700h59z" />
    <glyph glyph-name="itilde" unicode="&#x129;" horiz-adv-x="188" 
d="M157 596q-28 0 -69.5 24.5t-55.5 24.5q-17 0 -26.5 -10t-14.5 -36h-40q10 85 78 85q28 0 69.5 -24t55.5 -24q17 0 26.5 10t14.5 36h40q-9 -86 -78 -86zM65 530h57v-530h-57v530z" />
    <glyph glyph-name="Imacron" unicode="&#x12a;" horiz-adv-x="219" 
d="M244 821v-42h-270v42h270zM139 700v-700h-59v700h59z" />
    <glyph glyph-name="imacron" unicode="&#x12b;" horiz-adv-x="188" 
d="M228 661v-42h-270v42h270zM65 530h57v-530h-57v530z" />
    <glyph glyph-name="Ibreve" unicode="&#x12c;" horiz-adv-x="219" 
d="M109 734q-133 0 -134 126h44q0 -87 90 -87t90 87h44q-1 -126 -134 -126zM139 700v-700h-59v700h59z" />
    <glyph glyph-name="ibreve" unicode="&#x12d;" horiz-adv-x="188" 
d="M93 574q-133 0 -134 126h44q0 -87 90 -87t90 87h44q-1 -126 -134 -126zM65 530h57v-530h-57v530z" />
    <glyph glyph-name="Iogonek" unicode="&#x12e;" horiz-adv-x="219" 
d="M139 -99v-41h-36q-46 0 -67.5 16t-21.5 53q0 29 13 47.5t53 36.5v687h59v-700q-48 -20 -59 -31q-12 -14 -12 -34q0 -18 11.5 -26t39.5 -8h20z" />
    <glyph glyph-name="iogonek" unicode="&#x12f;" horiz-adv-x="188" 
d="M65 700h57v-69h-57v69zM122 -99v-41h-36q-46 0 -67.5 16t-21.5 53q0 29 13.5 47.5t54.5 37.5v516h57v-530q-46 -19 -59 -31q-12 -14 -12 -34q0 -18 11.5 -26t39.5 -8h20z" />
    <glyph glyph-name="Idot" unicode="&#x130;" horiz-adv-x="219" 
d="M81 834h57v-69h-57v69zM139 700v-700h-59v700h59z" />
    <glyph glyph-name="dotlessi" unicode="&#x131;" horiz-adv-x="188" 
d="M65 530h57v-530h-57v530z" />
    <glyph glyph-name="IJ" unicode="&#x132;" horiz-adv-x="629" 
d="M139 700v-700h-59v700h59zM329 0h-93v51h75q104 0 144.5 49.5t40.5 150.5v449h60v-456q0 -121 -54.5 -182.5t-172.5 -61.5z" />
    <glyph glyph-name="ij" unicode="&#x133;" horiz-adv-x="390" 
d="M65 700h57v-69h-57v69zM268 700h57v-69h-57v69zM65 530h57v-530h-57v530zM268 530h57v-459q0 -86 -13.5 -131.5t-51.5 -109.5h-63q42 67 56.5 113.5t14.5 124.5v462z" />
    <glyph glyph-name="Jcircumflex" unicode="&#x134;" horiz-adv-x="410" 
d="M350 860l96 -120h-51l-88 99l-88 -99h-51l95 120h87zM110 0h-93v51h75q103 0 144 49.5t41 150.5v449h60v-456q0 -121 -54.5 -182.5t-172.5 -61.5z" />
    <glyph glyph-name="jcircumflex" unicode="&#x135;" horiz-adv-x="203" 
d="M144 700l96 -120h-51l-88 99l-88 -99h-51l95 120h87zM73 530h56v-459q0 -86 -13 -130.5t-52 -110.5h-62q42 70 56.5 116t14.5 122v462z" />
    <glyph glyph-name="Kcommaaccent" unicode="&#x136;" horiz-adv-x="663" 
d="M139 268v-268h-59v700h59v-356h4l413 356h79l-321 -277l329 -423h-73l-298 380h-4zM357 -147l-14 -23h-40l36 64v6h-51v46h92v-11q0 -37 -23 -82z" />
    <glyph glyph-name="kcommaaccent" unicode="&#x137;" horiz-adv-x="486" 
d="M122 178v-178h-57v700h57v-448h4l275 278h70l-219 -219l230 -311h-69l-198 268h-4zM273 -147l-14 -23h-40l36 64v6h-51v46h92v-11q0 -37 -23 -82z" />
    <glyph glyph-name="Lacute" unicode="&#x139;" horiz-adv-x="543" 
d="M230 860l-96 -120h-50l79 120h67zM509 51v-51h-429v700h59v-649h370z" />
    <glyph glyph-name="lacute" unicode="&#x13a;" horiz-adv-x="188" 
d="M215 860l-96 -120h-50l79 120h67zM122 700v-700h-57v700h57z" />
    <glyph glyph-name="Lcommaaccent" unicode="&#x13b;" horiz-adv-x="543" 
d="M509 51v-51h-429v700h59v-649h370zM309 -147l-14 -23h-40l36 64v6h-51v46h92v-11q0 -37 -23 -82z" />
    <glyph glyph-name="lcommaaccent" unicode="&#x13c;" horiz-adv-x="188" 
d="M122 700v-700h-57v700h57zM116 -147l-14 -23h-40l36 64v6h-51v46h92v-11q0 -37 -23 -82z" />
    <glyph glyph-name="Lcaron" unicode="&#x13d;" horiz-adv-x="548" 
d="M509 51v-51h-429v700h59v-649h370zM424 700l-43 -198h-45l33 198h55z" />
    <glyph glyph-name="lcaron" unicode="&#x13e;" horiz-adv-x="293" 
d="M122 700v-700h-57v700h57zM286 700l-43 -198h-45l33 198h55z" />
    <glyph glyph-name="Ldot" unicode="&#x13f;" horiz-adv-x="547" 
d="M509 51v-51h-429v700h59v-649h370zM352 411h56v-69h-56v69z" />
    <glyph glyph-name="ldot" unicode="&#x140;" horiz-adv-x="349" 
d="M122 700v-700h-57v700h57zM239 305h56v-69h-56v69z" />
    <glyph glyph-name="Lslash" unicode="&#x141;" horiz-adv-x="543" 
d="M80 287l-79 -23v48l79 23v365h59v-348l214 62v-48l-214 -62v-253h370v-51h-429v287z" />
    <glyph glyph-name="lslash" unicode="&#x142;" horiz-adv-x="201" 
d="M123 400v-400h-57v341l-56 -57v60l56 57v299h57v-240l78 80v-60z" />
    <glyph glyph-name="Nacute" unicode="&#x143;" horiz-adv-x="715" 
d="M490 860l-96 -120h-50l79 120h67zM635 700v-700h-97l-396 645h-4v-645h-59v700h98l395 -646h5v646h58z" />
    <glyph glyph-name="nacute" unicode="&#x144;" horiz-adv-x="527" 
d="M389 700l-96 -120h-50l79 120h67zM468 344v-344h-56v331q0 91 -35 125t-102 34q-153 0 -153 -176v-314h-57v530h57v-80h4q39 90 162 90q180 0 180 -196z" />
    <glyph glyph-name="Ncommaaccent" unicode="&#x145;" horiz-adv-x="715" 
d="M635 700v-700h-97l-396 645h-4v-645h-59v700h98l395 -646h5v646h58zM368 -147l-14 -23h-40l36 64v6h-51v46h92v-11q0 -37 -23 -82z" />
    <glyph glyph-name="ncommaaccent" unicode="&#x146;" horiz-adv-x="527" 
d="M468 344v-344h-56v331q0 91 -35 125t-102 34q-153 0 -153 -176v-314h-57v530h57v-80h4q39 90 162 90q180 0 180 -196zM289 -147l-14 -23h-40l36 64v6h-51v46h92v-11q0 -37 -23 -82z" />
    <glyph glyph-name="Ncaron" unicode="&#x147;" horiz-adv-x="715" 
d="M368 761l88 99h51l-96 -120h-87l-95 120h51zM635 700v-700h-97l-396 645h-4v-645h-59v700h98l395 -646h5v646h58z" />
    <glyph glyph-name="ncaron" unicode="&#x148;" horiz-adv-x="527" 
d="M267 601l88 99h51l-96 -120h-87l-95 120h51zM468 344v-344h-56v331q0 91 -35 125t-102 34q-153 0 -153 -176v-314h-57v530h57v-80h4q39 90 162 90q180 0 180 -196z" />
    <glyph glyph-name="Eng" unicode="&#x14a;" horiz-adv-x="716" 
d="M410 -170h-93v51h80q126 0 161 86l-415 678h-4v-645h-59v700h98l395 -646h5v646h58v-626q0 -121 -54.5 -182.5t-171.5 -61.5z" />
    <glyph glyph-name="eng" unicode="&#x14b;" horiz-adv-x="527" 
d="M122 314v-314h-57v530h57v-80h4q39 90 162 90q180 0 180 -196v-315q0 -111 -50 -155t-142 -44h-28v48h13q77 0 114 34.5t37 125.5v293q0 91 -35 125t-102 34q-153 0 -153 -176z" />
    <glyph glyph-name="Omacron" unicode="&#x14c;" horiz-adv-x="717" 
d="M493 821v-42h-270v42h270zM376 -10h-35q-139 0 -205.5 77.5t-66.5 232.5v100q0 155 66.5 232.5t205.5 77.5h35q139 0 205 -77.5t66 -232.5v-100q0 -155 -66 -232.5t-205 -77.5zM347 42h23q123 0 170.5 68.5t47.5 210.5v58q0 142 -48 210.5t-170 68.5h-23
q-122 0 -170.5 -69t-48.5 -210v-58q0 -142 48.5 -210.5t170.5 -68.5z" />
    <glyph glyph-name="omacron" unicode="&#x14d;" horiz-adv-x="542" 
d="M406 661v-42h-270v42h270zM275 -10h-9q-108 0 -161.5 57.5t-53.5 197.5v40q0 140 53.5 197.5t161.5 57.5h9q108 0 161.5 -57.5t53.5 -197.5v-40q0 -140 -53.5 -197.5t-161.5 -57.5zM271 40q38 0 63 6.5t50 27.5t37.5 66t12.5 116v18q0 71 -12.5 116t-37.5 66t-50 27.5
t-63 6.5t-63.5 -6.5t-50.5 -27.5t-37 -66t-12 -116v-18q0 -71 12 -116t37 -66t50.5 -27.5t63.5 -6.5z" />
    <glyph glyph-name="Obreve" unicode="&#x14e;" horiz-adv-x="717" 
d="M358 734q-133 0 -134 126h44q0 -87 90 -87t90 87h44q-1 -126 -134 -126zM376 -10h-35q-139 0 -205.5 77.5t-66.5 232.5v100q0 155 66.5 232.5t205.5 77.5h35q139 0 205 -77.5t66 -232.5v-100q0 -155 -66 -232.5t-205 -77.5zM347 42h23q123 0 170.5 68.5t47.5 210.5v58
q0 142 -48 210.5t-170 68.5h-23q-122 0 -170.5 -69t-48.5 -210v-58q0 -142 48.5 -210.5t170.5 -68.5z" />
    <glyph glyph-name="obreve" unicode="&#x14f;" horiz-adv-x="542" 
d="M271 574q-133 0 -134 126h44q0 -87 90 -87t90 87h44q-1 -126 -134 -126zM275 -10h-9q-108 0 -161.5 57.5t-53.5 197.5v40q0 140 53.5 197.5t161.5 57.5h9q108 0 161.5 -57.5t53.5 -197.5v-40q0 -140 -53.5 -197.5t-161.5 -57.5zM271 40q38 0 63 6.5t50 27.5t37.5 66
t12.5 116v18q0 71 -12.5 116t-37.5 66t-50 27.5t-63 6.5t-63.5 -6.5t-50.5 -27.5t-37 -66t-12 -116v-18q0 -71 12 -116t37 -66t50.5 -27.5t63.5 -6.5z" />
    <glyph glyph-name="Ohungarumlaut" unicode="&#x150;" horiz-adv-x="717" 
d="M414 860l-96 -120h-50l79 120h67zM539 860l-95 -120h-51l80 120h66zM376 -10h-35q-139 0 -205.5 77.5t-66.5 232.5v100q0 155 66.5 232.5t205.5 77.5h35q139 0 205 -77.5t66 -232.5v-100q0 -155 -66 -232.5t-205 -77.5zM347 42h23q123 0 170.5 68.5t47.5 210.5v58
q0 142 -48 210.5t-170 68.5h-23q-122 0 -170.5 -69t-48.5 -210v-58q0 -142 48.5 -210.5t170.5 -68.5z" />
    <glyph glyph-name="ohungarumlaut" unicode="&#x151;" horiz-adv-x="542" 
d="M330 700l-96 -120h-50l79 120h67zM455 700l-95 -120h-51l80 120h66zM275 -10h-9q-108 0 -161.5 57.5t-53.5 197.5v40q0 140 53.5 197.5t161.5 57.5h9q108 0 161.5 -57.5t53.5 -197.5v-40q0 -140 -53.5 -197.5t-161.5 -57.5zM271 40q38 0 63 6.5t50 27.5t37.5 66t12.5 116
v18q0 71 -12.5 116t-37.5 66t-50 27.5t-63 6.5t-63.5 -6.5t-50.5 -27.5t-37 -66t-12 -116v-18q0 -71 12 -116t37 -66t50.5 -27.5t63.5 -6.5z" />
    <glyph glyph-name="OE" unicode="&#x152;" horiz-adv-x="1080" 
d="M1023 51v-51h-681q-139 0 -205.5 78t-66.5 232v80q0 154 66.5 232t205.5 78h681v-51h-402v-273h402v-51h-402v-274h402zM349 51h213v598h-213q-123 0 -171.5 -69t-48.5 -211v-38q0 -143 48.5 -211.5t171.5 -68.5z" />
    <glyph glyph-name="oe" unicode="&#x153;" horiz-adv-x="919" 
d="M275 -10h-9q-108 0 -161.5 57.5t-53.5 197.5v40q0 140 54 197.5t162 57.5h9q73 0 118 -26t66 -86h4q39 112 183 112h8q105 0 159 -56.5t54 -196.5v-32h-378q0 -70 12.5 -115.5t37 -66.5t49.5 -27.5t62 -6.5q59 0 96.5 19t57.5 80h57q-19 -85 -74 -117q-53 -31 -133 -31
h-8q-72 0 -117 26t-66 86h-4q-20 -61 -65.5 -86.5t-119.5 -25.5zM651 493q-36 0 -60 -6t-48.5 -24.5t-37.5 -59t-15 -103.5h321v8q0 101 -39.5 143t-120.5 42zM271 40q38 0 63 6.5t50 27.5t37.5 66t12.5 116v18q0 71 -12.5 116t-37.5 66t-50 27.5t-63 6.5t-63.5 -6.5
t-50.5 -27.5t-37 -66t-12 -116v-18q0 -71 12 -116t37 -66t50.5 -27.5t63.5 -6.5z" />
    <glyph glyph-name="Racute" unicode="&#x154;" horiz-adv-x="672" 
d="M454 860l-96 -120h-50l79 120h67zM139 315v-315h-59v700h324q104 0 151 -39q46 -39 46 -139v-11q0 -77 -22 -115t-72 -49v-4q53 -9 73.5 -43t20.5 -114v-186h-59v166q0 92 -25.5 120.5t-112.5 28.5h-265zM388 649h-249v-282h266q83 0 110 32t27 110v5q0 78 -32.5 106.5
t-121.5 28.5z" />
    <glyph glyph-name="racute" unicode="&#x155;" horiz-adv-x="334" 
d="M342 700l-96 -120h-50l79 120h67zM281 530h41v-51h-44q-77 0 -116.5 -34t-39.5 -129v-316h-57v530h57v-79h4q31 79 155 79z" />
    <glyph glyph-name="Rcommaaccent" unicode="&#x156;" horiz-adv-x="672" 
d="M139 315v-315h-59v700h324q104 0 151 -39q46 -39 46 -139v-11q0 -77 -22 -115t-72 -49v-4q53 -9 73.5 -43t20.5 -114v-186h-59v166q0 92 -25.5 120.5t-112.5 28.5h-265zM388 649h-249v-282h266q83 0 110 32t27 110v5q0 78 -32.5 106.5t-121.5 28.5zM363 -147l-14 -23h-40
l36 64v6h-51v46h92v-11q0 -37 -23 -82z" />
    <glyph glyph-name="rcommaaccent" unicode="&#x157;" horiz-adv-x="334" 
d="M281 530h41v-51h-44q-77 0 -116.5 -34t-39.5 -129v-316h-57v530h57v-79h4q31 79 155 79zM116 -147l-14 -23h-40l36 64v6h-51v46h92v-11q0 -37 -23 -82z" />
    <glyph glyph-name="Rcaron" unicode="&#x158;" horiz-adv-x="672" 
d="M332 761l88 99h51l-96 -120h-87l-95 120h51zM139 315v-315h-59v700h324q104 0 151 -39q46 -39 46 -139v-11q0 -77 -22 -115t-72 -49v-4q53 -9 73.5 -43t20.5 -114v-186h-59v166q0 92 -25.5 120.5t-112.5 28.5h-265zM388 649h-249v-282h266q83 0 110 32t27 110v5
q0 78 -32.5 106.5t-121.5 28.5z" />
    <glyph glyph-name="rcaron" unicode="&#x159;" horiz-adv-x="334" 
d="M206 601l88 99h51l-96 -120h-87l-95 120h51zM281 530h41v-51h-44q-77 0 -116.5 -34t-39.5 -129v-316h-57v530h57v-79h4q31 79 155 79z" />
    <glyph glyph-name="Sacute" unicode="&#x15a;" horiz-adv-x="617" 
d="M423 860l-96 -120h-50l79 120h67zM317 -10h-9q-47 0 -85.5 7t-75.5 24.5t-61.5 53t-33.5 87.5h60q26 -121 200 -121q100 0 148 34t48 115v8q0 69 -32.5 98t-126.5 35l-98 6q-102 7 -143 51t-41 124v7q0 102 59 146.5t170 44.5h12q227 0 246 -173h-59q-13 73 -64 97
q-50 25 -129 25q-91 0 -133.5 -31.5t-42.5 -103.5v-4q0 -69 32.5 -98t126.5 -35l98 -5q103 -7 143.5 -51t40.5 -125v-11q0 -115 -66 -160t-184 -45z" />
    <glyph glyph-name="sacute" unicode="&#x15b;" horiz-adv-x="497" 
d="M384 700l-96 -120h-50l79 120h67zM252 -10h-7q-181 0 -202 141h57q6 -35 31 -57t54.5 -29.5t64.5 -7.5q73 0 109.5 24t36.5 87v7q0 46 -23 65.5t-83 23.5l-98 6q-77 6 -108 40t-31 91v11q0 73 49.5 110.5t135.5 37.5h9q82 0 131 -32.5t66 -107.5h-56q-17 53 -51 73
t-93 20q-134 0 -134 -100v-5q0 -46 23 -65.5t83 -23.5l98 -7q78 -6 108.5 -39.5t30.5 -92.5v-12q0 -158 -201 -158z" />
    <glyph glyph-name="Scircumflex" unicode="&#x15c;" horiz-adv-x="617" 
d="M346 860l96 -120h-51l-88 99l-88 -99h-51l95 120h87zM317 -10h-9q-47 0 -85.5 7t-75.5 24.5t-61.5 53t-33.5 87.5h60q26 -121 200 -121q100 0 148 34t48 115v8q0 69 -32.5 98t-126.5 35l-98 6q-102 7 -143 51t-41 124v7q0 102 59 146.5t170 44.5h12q227 0 246 -173h-59
q-13 73 -64 97q-50 25 -129 25q-91 0 -133.5 -31.5t-42.5 -103.5v-4q0 -69 32.5 -98t126.5 -35l98 -5q103 -7 143.5 -51t40.5 -125v-11q0 -115 -66 -160t-184 -45z" />
    <glyph glyph-name="scircumflex" unicode="&#x15d;" horiz-adv-x="497" 
d="M287 700l96 -120h-51l-88 99l-88 -99h-51l95 120h87zM252 -10h-7q-181 0 -202 141h57q6 -35 31 -57t54.5 -29.5t64.5 -7.5q73 0 109.5 24t36.5 87v7q0 46 -23 65.5t-83 23.5l-98 6q-77 6 -108 40t-31 91v11q0 73 49.5 110.5t135.5 37.5h9q82 0 131 -32.5t66 -107.5h-56
q-17 53 -51 73t-93 20q-134 0 -134 -100v-5q0 -46 23 -65.5t83 -23.5l98 -7q78 -6 108.5 -39.5t30.5 -92.5v-12q0 -158 -201 -158z" />
    <glyph glyph-name="Scedilla" unicode="&#x15e;" horiz-adv-x="617" 
d="M567 206v-11q0 -110 -61.5 -156t-171.5 -49l-37 -130h-55l44 130q-210 8 -234 172h60q26 -121 200 -121q100 0 148 34t48 115v8q0 69 -32.5 98t-126.5 35l-98 6q-102 7 -143 51t-41 124v7q0 102 59 146.5t170 44.5h12q227 0 246 -173h-59q-13 73 -64 97q-50 25 -129 25
q-91 0 -133.5 -31.5t-42.5 -103.5v-4q0 -69 32.5 -98t126.5 -35l98 -5q103 -7 143.5 -51t40.5 -125z" />
    <glyph glyph-name="scedilla" unicode="&#x15f;" horiz-adv-x="497" 
d="M453 160v-12q0 -145 -171 -157l-37 -131h-55l44 130q-173 7 -191 141h57q6 -35 31 -57t54.5 -29.5t64.5 -7.5q73 0 109.5 24t36.5 87v7q0 46 -23 65.5t-83 23.5l-98 6q-77 6 -108 40t-31 91v11q0 73 49.5 110.5t135.5 37.5h9q82 0 131 -32.5t66 -107.5h-56q-17 53 -51 73
t-93 20q-134 0 -134 -100v-5q0 -46 23 -65.5t83 -23.5l98 -7q78 -6 108.5 -39.5t30.5 -92.5z" />
    <glyph glyph-name="Scaron" unicode="&#x160;" horiz-adv-x="617" 
d="M303 761l88 99h51l-96 -120h-87l-95 120h51zM317 -10h-9q-47 0 -85.5 7t-75.5 24.5t-61.5 53t-33.5 87.5h60q26 -121 200 -121q100 0 148 34t48 115v8q0 69 -32.5 98t-126.5 35l-98 6q-102 7 -143 51t-41 124v7q0 102 59 146.5t170 44.5h12q227 0 246 -173h-59
q-13 73 -64 97q-50 25 -129 25q-91 0 -133.5 -31.5t-42.5 -103.5v-4q0 -69 32.5 -98t126.5 -35l98 -5q103 -7 143.5 -51t40.5 -125v-11q0 -115 -66 -160t-184 -45z" />
    <glyph glyph-name="scaron" unicode="&#x161;" horiz-adv-x="497" 
d="M244 601l88 99h51l-96 -120h-87l-95 120h51zM252 -10h-7q-181 0 -202 141h57q6 -35 31 -57t54.5 -29.5t64.5 -7.5q73 0 109.5 24t36.5 87v7q0 46 -23 65.5t-83 23.5l-98 6q-77 6 -108 40t-31 91v11q0 73 49.5 110.5t135.5 37.5h9q82 0 131 -32.5t66 -107.5h-56
q-17 53 -51 73t-93 20q-134 0 -134 -100v-5q0 -46 23 -65.5t83 -23.5l98 -7q78 -6 108.5 -39.5t30.5 -92.5v-12q0 -158 -201 -158z" />
    <glyph glyph-name="Tcaron" unicode="&#x164;" horiz-adv-x="579" 
d="M289 761l88 99h51l-96 -120h-87l-95 120h51zM319 649v-649h-59v649h-242v51h543v-51h-242z" />
    <glyph glyph-name="tcaron" unicode="&#x165;" horiz-adv-x="363" 
d="M344 794l-43 -198h-45l33 198h55zM326 48v-48h-61q-77 0 -108.5 34t-31.5 120v328h-117v48h117v170h56v-170h145v-48h-145v-313q0 -77 21.5 -99t86.5 -22h37z" />
    <glyph glyph-name="Tbar" unicode="&#x166;" horiz-adv-x="579" 
d="M319 322v-322h-59v322h-180v47h180v280h-242v51h543v-51h-242v-280h180v-47h-180z" />
    <glyph glyph-name="tbar" unicode="&#x167;" horiz-adv-x="363" 
d="M125 280h-101v46h101v156h-117v48h117v170h56v-170h145v-48h-145v-156h133v-46h-133v-111q0 -77 21.5 -99t86.5 -22h37v-48h-61q-77 0 -108.5 34t-31.5 120v126z" />
    <glyph glyph-name="Utilde" unicode="&#x168;" horiz-adv-x="681" 
d="M405 756q-28 0 -69.5 24.5t-55.5 24.5q-17 0 -26.5 -10t-14.5 -36h-40q10 85 78 85q28 0 69.5 -24t55.5 -24q17 0 26.5 10t14.5 36h40q-9 -86 -78 -86zM367 -10h-53q-240 0 -240 258v452h59v-440q0 -108 43 -162.5t146 -54.5h36q103 0 146 54.5t43 162.5v440h60v-452
q0 -258 -240 -258z" />
    <glyph glyph-name="utilde" unicode="&#x169;" horiz-adv-x="527" 
d="M325 596q-28 0 -69.5 24.5t-55.5 24.5q-17 0 -26.5 -10t-14.5 -36h-40q10 85 78 85q28 0 69.5 -24t55.5 -24q17 0 26.5 10t14.5 36h40q-9 -86 -78 -86zM59 186v344h56v-331q0 -90 35 -124.5t102 -34.5q153 0 153 176v314h57v-530h-57v80h-4q-39 -90 -162 -90
q-180 0 -180 196z" />
    <glyph glyph-name="Umacron" unicode="&#x16a;" horiz-adv-x="681" 
d="M476 821v-42h-270v42h270zM367 -10h-53q-240 0 -240 258v452h59v-440q0 -108 43 -162.5t146 -54.5h36q103 0 146 54.5t43 162.5v440h60v-452q0 -258 -240 -258z" />
    <glyph glyph-name="umacron" unicode="&#x16b;" horiz-adv-x="527" 
d="M396 661v-42h-270v42h270zM59 186v344h56v-331q0 -90 35 -124.5t102 -34.5q153 0 153 176v314h57v-530h-57v80h-4q-39 -90 -162 -90q-180 0 -180 196z" />
    <glyph glyph-name="Ubreve" unicode="&#x16c;" horiz-adv-x="681" 
d="M341 734q-133 0 -134 126h44q0 -87 90 -87t90 87h44q-1 -126 -134 -126zM367 -10h-53q-240 0 -240 258v452h59v-440q0 -108 43 -162.5t146 -54.5h36q103 0 146 54.5t43 162.5v440h60v-452q0 -258 -240 -258z" />
    <glyph glyph-name="ubreve" unicode="&#x16d;" horiz-adv-x="527" 
d="M261 574q-133 0 -134 126h44q0 -87 90 -87t90 87h44q-1 -126 -134 -126zM59 186v344h56v-331q0 -90 35 -124.5t102 -34.5q153 0 153 176v314h57v-530h-57v80h-4q-39 -90 -162 -90q-180 0 -180 196z" />
    <glyph glyph-name="Uring" unicode="&#x16e;" horiz-adv-x="681" 
d="M341 732q-47 0 -75 24.5t-28 73.5t28 73.5t75 24.5q46 0 74.5 -24.5t28.5 -73.5t-28.5 -73.5t-74.5 -24.5zM341 768q62 0 62 62t-62 62t-62 -62t62 -62zM367 -10h-53q-240 0 -240 258v452h59v-440q0 -108 43 -162.5t146 -54.5h36q103 0 146 54.5t43 162.5v440h60v-452
q0 -258 -240 -258z" />
    <glyph glyph-name="uring" unicode="&#x16f;" horiz-adv-x="527" 
d="M261 572q-103 0 -103 98t103 98q46 0 74.5 -24t28.5 -74t-28.5 -74t-74.5 -24zM261 608q62 0 62 62t-62 62t-62 -62t62 -62zM59 186v344h56v-331q0 -90 35 -124.5t102 -34.5q153 0 153 176v314h57v-530h-57v80h-4q-39 -90 -162 -90q-180 0 -180 196z" />
    <glyph glyph-name="Uhungarumlaut" unicode="&#x170;" horiz-adv-x="681" 
d="M397 860l-96 -120h-50l79 120h67zM522 860l-95 -120h-51l80 120h66zM367 -10h-53q-240 0 -240 258v452h59v-440q0 -108 43 -162.5t146 -54.5h36q103 0 146 54.5t43 162.5v440h60v-452q0 -258 -240 -258z" />
    <glyph glyph-name="uhungarumlaut" unicode="&#x171;" horiz-adv-x="527" 
d="M318 700l-96 -120h-50l79 120h67zM443 700l-95 -120h-51l80 120h66zM59 186v344h56v-331q0 -90 35 -124.5t102 -34.5q153 0 153 176v314h57v-530h-57v80h-4q-39 -90 -162 -90q-180 0 -180 196z" />
    <glyph glyph-name="Uogonek" unicode="&#x172;" horiz-adv-x="681" 
d="M401 -99v-41h-39q-45 0 -65.5 15t-20.5 50q0 42 37 62v4h-9q-115 0 -172.5 66t-57.5 191v452h59v-440q0 -108 43 -162.5t146 -54.5h36q103 0 146 54.5t43 162.5v440h60v-452q0 -113 -43.5 -174t-143.5 -84q-55 -13 -72.5 -24.5t-17.5 -32.5q0 -18 10.5 -25t39.5 -7h21z
" />
    <glyph glyph-name="uogonek" unicode="&#x173;" horiz-adv-x="527" 
d="M463 -99v-41h-36q-46 0 -67.5 16t-21.5 53q0 29 13.5 47.5t53.5 36.5v67h-4q-39 -90 -162 -90q-180 0 -180 196v344h56v-331q0 -90 35 -124.5t102 -34.5q153 0 153 176v314h57v-494h1v-36q-48 -20 -59 -31q-12 -13 -12 -34q0 -18 11.5 -26t39.5 -8h20z" />
    <glyph glyph-name="Wcircumflex" unicode="&#x174;" horiz-adv-x="979" 
d="M533 860l96 -120h-51l-88 99l-88 -99h-51l95 120h87zM948 700l-174 -700h-86l-199 635l-198 -635h-89l-172 700h62l153 -648h5l202 648h76l202 -648h4l155 648h59z" />
    <glyph glyph-name="wcircumflex" unicode="&#x175;" horiz-adv-x="728" 
d="M407 700l96 -120h-51l-88 99l-88 -99h-51l95 120h87zM714 530l-136 -530l-81 1l-132 465l-132 -466h-84l-135 530h60l117 -478h4l134 478h72l134 -478h5l118 478h56z" />
    <glyph glyph-name="Ycircumflex" unicode="&#x176;" horiz-adv-x="647" 
d="M367 860l96 -120h-51l-88 99l-88 -99h-51l95 120h87zM352 314v-314h-59v314l-267 386h70l227 -329h4l227 329h66z" />
    <glyph glyph-name="ycircumflex" unicode="&#x177;" horiz-adv-x="481" 
d="M288 700l96 -120h-51l-88 99l-88 -99h-51l95 120h87zM481 530l-274 -700h-59l70 172l-212 528h61l178 -451h4l174 451h58z" />
    <glyph glyph-name="Ydieresis" unicode="&#x178;" horiz-adv-x="647" 
d="M216 835h53v-69h-53v69zM379 835h53v-69h-53v69zM352 314v-314h-59v314l-267 386h70l227 -329h4l227 329h66z" />
    <glyph glyph-name="Zacute" unicode="&#x179;" horiz-adv-x="631" 
d="M438 860l-96 -120h-50l79 120h67zM578 51v-51h-522v45l436 604h-424v51h499v-45l-436 -604h447z" />
    <glyph glyph-name="zacute" unicode="&#x17a;" horiz-adv-x="455" 
d="M350 700l-96 -120h-50l79 120h67zM420 48v-48h-380v40l301 442h-293v48h364v-40l-301 -442h309z" />
    <glyph glyph-name="Zdotaccent" unicode="&#x17b;" horiz-adv-x="631" 
d="M289 834h57v-69h-57v69zM578 51v-51h-522v45l436 604h-424v51h499v-45l-436 -604h447z" />
    <glyph glyph-name="zdotaccent" unicode="&#x17c;" horiz-adv-x="455" 
d="M201 674h57v-69h-57v69zM420 48v-48h-380v40l301 442h-293v48h364v-40l-301 -442h309z" />
    <glyph glyph-name="Zcaron" unicode="&#x17d;" horiz-adv-x="631" 
d="M317 761l88 99h51l-96 -120h-87l-95 120h51zM578 51v-51h-522v45l436 604h-424v51h499v-45l-436 -604h447z" />
    <glyph glyph-name="zcaron" unicode="&#x17e;" horiz-adv-x="455" 
d="M230 601l88 99h51l-96 -120h-87l-95 120h51zM420 48v-48h-380v40l301 442h-293v48h364v-40l-301 -442h309z" />
    <glyph glyph-name="florin" unicode="&#x192;" 
d="M291 329v-434h-58v434h-206v43h206v52q0 84 15 140t45 85t65.5 40t86.5 11h123v-51h-114q-86 0 -124.5 -49t-38.5 -180v-48h277v-43h-277z" />
    <glyph glyph-name="Aringacute" unicode="&#x1fa;" horiz-adv-x="687" 
d="M465 1080l-96 -120h-50l79 120h67zM344 732q-47 0 -75 24.5t-28 73.5t28 73.5t75 24.5t75 -24.5t28 -73.5t-28 -73.5t-75 -24.5zM344 768q62 0 62 62t-62 62t-62 -62t62 -62zM388 700l272 -700h-64l-87 225h-332l-87 -225h-63l271 700h90zM346 654h-4l-145 -377h293z" />
    <glyph glyph-name="aringacute" unicode="&#x1fb;" horiz-adv-x="515" 
d="M385 920l-96 -120h-50l79 120h67zM263 571q-103 0 -103 98t103 98q46 0 74.5 -24t28.5 -74t-28.5 -74t-74.5 -24zM263 607q62 0 62 62t-62 62t-62 -62t62 -62zM457 348v-348h-56v79h-4q-42 -90 -173 -90q-86 0 -135 39t-49 118v7q0 73 40 112t127 44l193 12v22
q0 91 -35 120.5t-109 29.5q-61 0 -95 -25.5t-45 -83.5h-57q27 156 192 156h13q98 0 145.5 -42t47.5 -150zM97 154v-6q0 -56 36.5 -84.5t98.5 -28.5q85 0 126.5 42.5t41.5 119.5v79l-190 -11q-59 -4 -86 -30.5t-27 -80.5z" />
    <glyph glyph-name="AEacute" unicode="&#x1fc;" horiz-adv-x="951" 
d="M583 860l-96 -120h-50l79 120h67zM894 51v-51h-461v226h-236l-120 -226h-66l373 700h510v-51h-402v-273h402v-51h-402v-274h402zM433 649h-10l-198 -371h208v371z" />
    <glyph glyph-name="aeacute" unicode="&#x1fd;" horiz-adv-x="888" 
d="M570 700l-96 -120h-50l79 120h67zM626 -10h-6q-74 0 -120.5 26t-67.5 91h-4q-33 -118 -193 -118q-88 0 -137.5 39t-49.5 118v7q0 73 40 112t127 44l193 12v22q0 91 -35 120.5t-109 29.5q-61 0 -95 -25.5t-45 -83.5h-57q27 156 192 156h13q135 0 171 -86h4q44 86 173 86h7
q105 0 157.5 -56t52.5 -197v-32h-372v-12q1 -54 10 -92t22.5 -59.5t35.5 -33.5t42 -15.5t48 -3.5q37 0 61 5t50 28t39 66h58q-19 -81 -70 -114.5t-135 -33.5zM623 493q-35 0 -58.5 -6t-47.5 -24.5t-37 -59t-15 -103.5h315v8q0 101 -38.5 143t-118.5 42zM105 153v-6
q0 -56 37 -84t100 -28q84 0 125 42.5t41 119.5v79l-190 -11q-59 -4 -86 -31t-27 -81z" />
    <glyph glyph-name="Oslashacute" unicode="&#x1fe;" horiz-adv-x="717" 
d="M479 860l-96 -120h-50l79 120h67zM129 -40h-60l69 104q-69 76 -69 236v100q0 155 66.5 232.5t205.5 77.5h35q99 0 164 -41l47 71h60l-69 -104q69 -76 69 -236v-100q0 -155 -66 -232.5t-205 -77.5h-35q-100 0 -165 41zM128 379v-58q0 -141 45 -205l335 505q-51 37 -138 37
h-23q-122 0 -170.5 -69t-48.5 -210zM347 42h23q123 0 170.5 68.5t47.5 210.5v58q0 140 -44 205l-336 -505q51 -37 139 -37z" />
    <glyph glyph-name="oslashacute" unicode="&#x1ff;" horiz-adv-x="542" 
d="M390 700l-96 -120h-50l79 120h67zM106 -40h-55l55 87q-55 61 -55 198v40q0 140 53.5 197.5t161.5 57.5h9q77 0 122 -26l35 56h55l-53 -85q56 -62 56 -200v-40q0 -140 -53.5 -197.5t-161.5 -57.5h-9q-78 0 -124 28zM108 274v-18q0 -108 31 -158l229 371q-33 21 -97 21
q-38 0 -63.5 -6.5t-50.5 -27.5t-37 -66t-12 -116zM271 40q38 0 63 6.5t50 27.5t37.5 66t12.5 116v18q0 109 -32 160l-231 -371q34 -23 100 -23z" />
    <glyph glyph-name="Scommaaccent" unicode="&#x218;" horiz-adv-x="617" 
d="M317 -10h-9q-47 0 -85.5 7t-75.5 24.5t-61.5 53t-33.5 87.5h60q26 -121 200 -121q100 0 148 34t48 115v8q0 69 -32.5 98t-126.5 35l-98 6q-102 7 -143 51t-41 124v7q0 102 59 146.5t170 44.5h12q227 0 246 -173h-59q-13 73 -64 97q-50 25 -129 25q-91 0 -133.5 -31.5
t-42.5 -103.5v-4q0 -69 32.5 -98t126.5 -35l98 -5q103 -7 143.5 -51t40.5 -125v-11q0 -115 -66 -160t-184 -45zM335 -147l-14 -23h-40l36 64v6h-51v46h92v-11q0 -37 -23 -82z" />
    <glyph glyph-name="scommaaccent" unicode="&#x219;" horiz-adv-x="497" 
d="M252 -10h-7q-181 0 -202 141h57q6 -35 31 -57t54.5 -29.5t64.5 -7.5q73 0 109.5 24t36.5 87v7q0 46 -23 65.5t-83 23.5l-98 6q-77 6 -108 40t-31 91v11q0 73 49.5 110.5t135.5 37.5h9q82 0 131 -32.5t66 -107.5h-56q-17 53 -51 73t-93 20q-134 0 -134 -100v-5
q0 -46 23 -65.5t83 -23.5l98 -7q78 -6 108.5 -39.5t30.5 -92.5v-12q0 -158 -201 -158zM272 -147l-14 -23h-40l36 64v6h-51v46h92v-11q0 -37 -23 -82z" />
    <glyph glyph-name="Tcommaaccent" unicode="&#x21a;" horiz-adv-x="579" 
d="M319 649v-649h-59v649h-242v51h543v-51h-242zM313 -147l-14 -23h-40l36 64v6h-51v46h92v-11q0 -37 -23 -82z" />
    <glyph glyph-name="tcommaaccent" unicode="&#x21b;" horiz-adv-x="363" 
d="M326 48v-48h-61q-77 0 -108.5 34t-31.5 120v328h-117v48h117v170h56v-170h145v-48h-145v-313q0 -77 21.5 -99t86.5 -22h37zM267 -147l-14 -23h-40l36 64v6h-51v46h92v-11q0 -37 -23 -82z" />
    <glyph glyph-name="circumflex" unicode="&#x2c6;" horiz-adv-x="500" 
d="M293 700l96 -120h-51l-88 99l-88 -99h-51l95 120h87z" />
    <glyph glyph-name="caron" unicode="&#x2c7;" horiz-adv-x="500" 
d="M250 601l88 99h51l-96 -120h-87l-95 120h51z" />
    <glyph glyph-name="breve" unicode="&#x2d8;" horiz-adv-x="500" 
d="M250 574q-133 0 -134 126h44q0 -87 90 -87t90 87h44q-1 -126 -134 -126z" />
    <glyph glyph-name="dotaccent" unicode="&#x2d9;" horiz-adv-x="500" 
d="M221 674h57v-69h-57v69z" />
    <glyph glyph-name="ring" unicode="&#x2da;" horiz-adv-x="500" 
d="M250 572q-103 0 -103 98t103 98t103 -98t-103 -98zM250 608q62 0 62 62t-62 62t-62 -62t62 -62z" />
    <glyph glyph-name="ogonek" unicode="&#x2db;" horiz-adv-x="500" 
d="M298 -99v-41h-36q-46 0 -67.5 16t-21.5 53t23.5 59t101.5 48v-36q-46 -19 -59 -31q-12 -13 -12 -34q0 -18 11.5 -26t39.5 -8h20z" />
    <glyph glyph-name="tilde" unicode="&#x2dc;" horiz-adv-x="500" 
d="M314 596q-28 0 -69 24.5t-56 24.5q-35 0 -41 -46h-40q10 85 78 85q28 0 69 -24t56 -24q35 0 41 46h40q-9 -86 -78 -86z" />
    <glyph glyph-name="hungarumlaut" unicode="&#x2dd;" horiz-adv-x="500" 
d="M260 700l-96 -120h-50l79 120h67zM385 700l-95 -120h-51l80 120h66z" />
    <glyph glyph-name="commaaccent" unicode="&#x326;" horiz-adv-x="500" 
d="M278 -147l-14 -23h-40l36 64v6h-51v46h92v-11q0 -37 -23 -82z" />
    <glyph glyph-name="pi" unicode="&#x3c0;" horiz-adv-x="578" 
d="M555 49v-49h-26q-79 0 -109.5 39.5t-30.5 142.5v298h-227v-480h-56v480h-83v50h532v-50h-110v-299q0 -82 20.5 -107t72.5 -25h17z" />
    <glyph glyph-name="Wgrave" unicode="&#x1e80;" horiz-adv-x="979" 
d="M435 860l79 -120h-50l-96 120h67zM948 700l-174 -700h-86l-199 635l-198 -635h-89l-172 700h62l153 -648h5l202 648h76l202 -648h4l155 648h59z" />
    <glyph glyph-name="wgrave" unicode="&#x1e81;" horiz-adv-x="728" 
d="M311 700l79 -120h-50l-96 120h67zM714 530l-136 -530l-81 1l-132 465l-132 -466h-84l-135 530h60l117 -478h4l134 478h72l134 -478h5l118 478h56z" />
    <glyph glyph-name="Wacute" unicode="&#x1e82;" horiz-adv-x="979" 
d="M611 860l-96 -120h-50l79 120h67zM948 700l-174 -700h-86l-199 635l-198 -635h-89l-172 700h62l153 -648h5l202 648h76l202 -648h4l155 648h59z" />
    <glyph glyph-name="wacute" unicode="&#x1e83;" horiz-adv-x="728" 
d="M486 700l-96 -120h-50l79 120h67zM714 530l-136 -530l-81 1l-132 465l-132 -466h-84l-135 530h60l117 -478h4l134 478h72l134 -478h5l118 478h56z" />
    <glyph glyph-name="Wdieresis" unicode="&#x1e84;" horiz-adv-x="979" 
d="M382 835h53v-69h-53v69zM545 835h53v-69h-53v69zM948 700l-174 -700h-86l-199 635l-198 -635h-89l-172 700h62l153 -648h5l202 648h76l202 -648h4l155 648h59z" />
    <glyph glyph-name="wdieresis" unicode="&#x1e85;" horiz-adv-x="728" 
d="M256 674h53v-69h-53v69zM419 674h53v-69h-53v69zM714 530l-136 -530l-81 1l-132 465l-132 -466h-84l-135 530h60l117 -478h4l134 478h72l134 -478h5l118 478h56z" />
    <glyph glyph-name="Ygrave" unicode="&#x1ef2;" horiz-adv-x="647" 
d="M269 860l79 -120h-50l-96 120h67zM352 314v-314h-59v314l-267 386h70l227 -329h4l227 329h66z" />
    <glyph glyph-name="ygrave" unicode="&#x1ef3;" horiz-adv-x="481" 
d="M190 700l79 -120h-50l-96 120h67zM481 530l-274 -700h-59l70 172l-212 528h61l178 -451h4l174 451h58z" />
    <glyph glyph-name="endash" unicode="&#x2013;" horiz-adv-x="530" 
d="M515 271h-499v43h499v-43z" />
    <glyph glyph-name="emdash" unicode="&#x2014;" horiz-adv-x="796" 
d="M780 271h-764v43h764v-43z" />
    <glyph glyph-name="quoteleft" unicode="&#x2018;" horiz-adv-x="220" 
d="M99 683l8 17h45l-59 -134v-6h64v-93h-103v54q0 80 45 162z" />
    <glyph glyph-name="quoteright" unicode="&#x2019;" horiz-adv-x="220" 
d="M120 484l-8 -17h-45l59 134v6h-64v93h103v-54q0 -76 -45 -162z" />
    <glyph glyph-name="quotesinglbase" unicode="&#x201a;" horiz-adv-x="224" 
d="M120 -123l-8 -17h-45l59 134v6h-64v93h103v-54q0 -76 -45 -162z" />
    <glyph glyph-name="quotedblleft" unicode="&#x201c;" horiz-adv-x="387" 
d="M99 683l8 17h45l-59 -134v-6h64v-93h-103v54q0 80 45 162zM266 683l8 17h45l-59 -134v-6h64v-93h-103v54q0 76 45 162z" />
    <glyph glyph-name="quotedblright" unicode="&#x201d;" horiz-adv-x="387" 
d="M121 484l-8 -17h-45l59 134v6h-64v93h103v-54q0 -42 -9 -77t-36 -85zM288 484l-8 -17h-45l59 134v6h-64v93h103v-54q0 -76 -45 -162z" />
    <glyph glyph-name="quotedblbase" unicode="&#x201e;" horiz-adv-x="387" 
d="M121 -123l-8 -17h-45l59 134v6h-64v93h103v-54q0 -80 -45 -162zM288 -123l-8 -17h-45l59 134v6h-64v93h103v-54q0 -76 -45 -162z" />
    <glyph glyph-name="dagger" unicode="&#x2020;" horiz-adv-x="336" 
d="M144 488h-113v42h113v170h48v-170h113v-42h-113v-588h-48v588z" />
    <glyph glyph-name="daggerdbl" unicode="&#x2021;" horiz-adv-x="336" 
d="M192 70v-170h-48v170h-113v42h113v376h-113v42h113v170h48v-170h113v-42h-113v-376h113v-42h-113z" />
    <glyph glyph-name="bullet" unicode="&#x2022;" horiz-adv-x="439" 
d="M219 199q-64 0 -109 42t-45 108t45.5 108.5t108.5 42.5q64 0 109 -42.5t45 -108.5q0 -67 -44.5 -108.5t-109.5 -41.5z" />
    <glyph glyph-name="ellipsis" unicode="&#x2026;" horiz-adv-x="674" 
d="M159 0h-93v93h93v-93zM383 0h-93v93h93v-93zM608 0h-93v93h93v-93z" />
    <glyph glyph-name="perthousand" unicode="&#x2030;" horiz-adv-x="991" 
d="M188 357h-9q-143 0 -143 170v13q0 170 143 170h9q143 0 143 -170v-13q0 -170 -143 -170zM581 700l-369 -700h-49l369 700h49zM184 401q98 0 98 127v11q0 127 -98 127q-51 0 -75 -30.5t-24 -96.5v-11q0 -66 24 -96.5t75 -30.5zM812 -10h-9q-93 0 -117 69h-4
q-24 -69 -117 -69h-8q-144 0 -144 170v13q0 170 144 170h8q93 0 117 -69h4q24 69 117 69h9q75 0 109.5 -41.5t34.5 -128.5v-13q0 -170 -144 -170zM561 34q99 0 99 127v11q0 127 -99 127t-99 -127v-11q0 -127 99 -127zM807 34q98 0 98 127v11q0 127 -98 127t-98 -127v-11
q0 -127 98 -127z" />
    <glyph glyph-name="guilsinglleft" unicode="&#x2039;" horiz-adv-x="203" 
d="M36 289v6l84 219h47l-85 -222l85 -222h-47z" />
    <glyph glyph-name="guilsinglright" unicode="&#x203a;" horiz-adv-x="203" 
d="M167 295v-6l-84 -219h-47l85 222l-85 222h47z" />
    <glyph glyph-name="fraction" unicode="&#x2044;" horiz-adv-x="150" 
d="M284 700l-369 -700h-49l369 700h49z" />
    <glyph glyph-name="zerosuperior" unicode="&#x2070;" horiz-adv-x="367" 
d="M187 374h-7q-72 0 -109.5 37t-37.5 146v66q0 109 37.5 146t109.5 37h7q73 0 110.5 -36.5t37.5 -146.5v-66q0 -58 -11 -95.5t-32.5 -56t-45.5 -25t-59 -6.5zM184 420q51 0 74 25.5t23 107.5v74q0 82 -23 107.5t-74 25.5q-50 0 -73.5 -26t-23.5 -107v-74q0 -81 23.5 -107
t73.5 -26z" />
    <glyph glyph-name="foursuperior" unicode="&#x2074;" horiz-adv-x="367" 
d="M292 490v-110h-54v110h-211v69l185 241h80v-265h62v-45h-62zM73 540v-5h165v222h-4z" />
    <glyph glyph-name="fivesuperior" unicode="&#x2075;" horiz-adv-x="367" 
d="M194 374h-10q-58 0 -100.5 27t-46.5 86h53q13 -67 98 -67q45 0 70 24.5t25 69.5v7q0 93 -96 93q-70 0 -95 -49h-47l18 235h259v-46h-211l-12 -130h4q29 35 99 35q64 0 99.5 -34.5t35.5 -101.5v-7q0 -69 -39.5 -105.5t-103.5 -36.5z" />
    <glyph glyph-name="sixsuperior" unicode="&#x2076;" horiz-adv-x="367" 
d="M190 374h-7q-35 0 -59.5 6.5t-46.5 25t-33 56t-11 95.5v66q0 110 37.5 146.5t110.5 36.5h7q61 0 96 -25t47 -82h-55q-8 34 -30 48t-61 14q-51 0 -74.5 -25.5t-23.5 -105.5v-32h4q13 24 36 36t70 12q137 0 137 -129v-5q0 -71 -39 -104.5t-105 -33.5zM185 418q51 0 73 22
t22 69v6q0 47 -22 68.5t-73 21.5t-73.5 -22t-22.5 -68v-6q0 -47 22 -69t74 -22z" />
    <glyph glyph-name="sevensuperior" unicode="&#x2077;" horiz-adv-x="367" 
d="M343 756l-196 -376h-64l198 370v4h-256v46h318v-44z" />
    <glyph glyph-name="eightsuperior" unicode="&#x2078;" horiz-adv-x="367" 
d="M187 374h-7q-147 0 -147 125v5q2 80 63 98v4q-57 15 -57 85v4q0 111 142 111h5q142 0 142 -111v-4q0 -70 -57 -85v-4q63 -19 63 -98v-5q0 -125 -147 -125zM162 622h43q69 0 69 63v5q0 71 -91 71q-90 0 -90 -71v-5q0 -63 69 -63zM183 419q49 0 73 18t24 62v7q0 74 -75 74
h-43q-75 0 -75 -74v-7q0 -44 23.5 -62t72.5 -18z" />
    <glyph glyph-name="ninesuperior" unicode="&#x2079;" horiz-adv-x="367" 
d="M176 805h7q35 0 59.5 -6.5t46.5 -24.5t33 -56t11 -96v-66q0 -58 -10.5 -96t-32.5 -56t-46 -24.5t-59 -6.5h-7q-61 0 -96 25t-47 82h55q15 -62 91 -62q51 0 74.5 26t23.5 105v32h-4q-13 -24 -36 -36t-70 -12q-137 0 -137 129v5q0 71 39 104.5t105 33.5zM181 761
q-51 0 -73 -22t-22 -69v-6q0 -47 22 -68.5t73 -21.5t73.5 22t22.5 68v6q0 47 -22 69t-74 22z" />
    <glyph glyph-name="plussuperior" unicode="&#x207a;" horiz-adv-x="359" 
d="M161 570h-125v39h125v130h37v-130h125v-39h-125v-132h-37v132z" />
    <glyph glyph-name="minussuperior" unicode="&#x207b;" horiz-adv-x="356" 
d="M298 570h-239v39h239v-39z" />
    <glyph glyph-name="equalsuperior" unicode="&#x207c;" horiz-adv-x="358" 
d="M310 639h-263v39h263v-39zM310 498h-263v40h263v-40z" />
    <glyph glyph-name="parenleftsuperior" unicode="&#x207d;" horiz-adv-x="230" 
d="M191 391v-38q-134 23 -134 223v28q0 200 134 223v-38q-92 -20 -92 -190v-18q0 -170 92 -190z" />
    <glyph glyph-name="parenrightsuperior" unicode="&#x207e;" horiz-adv-x="230" 
d="M37 789v38q134 -23 134 -223v-28q0 -200 -134 -223v38q92 20 92 190v18q0 170 -92 190z" />
    <glyph glyph-name="zeroinferior" unicode="&#x2080;" horiz-adv-x="367" 
d="M187 -106h-7q-72 0 -109.5 37t-37.5 146v66q0 109 37.5 146t109.5 37h7q73 0 110.5 -36.5t37.5 -146.5v-66q0 -58 -11 -95.5t-32.5 -56t-45.5 -25t-59 -6.5zM184 -60q51 0 74 25.5t23 107.5v74q0 82 -23 107.5t-74 25.5q-50 0 -73.5 -26t-23.5 -107v-74q0 -81 23.5 -107
t73.5 -26z" />
    <glyph glyph-name="oneinferior" unicode="&#x2081;" horiz-adv-x="268" 
d="M189 320v-420h-54v376h-4l-118 -79v59l102 64h74z" />
    <glyph glyph-name="twoinferior" unicode="&#x2082;" horiz-adv-x="367" 
d="M335 -54v-46h-301v53q0 78 21.5 109.5t88.5 49.5l74 19q38 10 50.5 26t12.5 52v3q0 68 -91 68q-90 0 -96 -68h-54q7 65 49 90q41 24 96 24h7q143 0 143 -112v-8q0 -48 -20 -75.5t-72 -41.5l-80 -20q-47 -11 -61.5 -30.5t-14.5 -76.5v-16h248z" />
    <glyph glyph-name="threeinferior" unicode="&#x2083;" horiz-adv-x="367" 
d="M193 -106h-9q-134 0 -149 119h53q8 -43 34 -58t67 -15q93 0 93 79v6q0 37 -16.5 53.5t-63.5 16.5h-72v46h70q42 0 58.5 15.5t16.5 49.5v5q0 69 -88 69q-79 0 -90 -67h-54q15 113 140 113h7q65 0 102 -26.5t37 -79.5v-5q0 -71 -55 -87v-4q62 -14 62 -99v-6
q0 -63 -38.5 -94t-104.5 -31z" />
    <glyph glyph-name="fourinferior" unicode="&#x2084;" horiz-adv-x="367" 
d="M292 10v-110h-54v110h-211v69l185 241h80v-265h62v-45h-62zM73 60v-5h165v222h-4z" />
    <glyph glyph-name="fiveinferior" unicode="&#x2085;" horiz-adv-x="367" 
d="M194 -106h-10q-58 0 -100.5 27t-46.5 86h53q13 -67 98 -67q45 0 70 24.5t25 69.5v7q0 93 -96 93q-70 0 -95 -49h-47l18 235h259v-46h-211l-12 -130h4q29 35 99 35q64 0 99.5 -34.5t35.5 -101.5v-7q0 -69 -39.5 -105.5t-103.5 -36.5z" />
    <glyph glyph-name="sixinferior" unicode="&#x2086;" horiz-adv-x="367" 
d="M190 -106h-7q-35 0 -59.5 6.5t-46.5 25t-33 56t-11 95.5v66q0 110 37.5 146.5t110.5 36.5h7q61 0 96 -25t47 -82h-55q-8 34 -30 48t-61 14q-51 0 -74.5 -25.5t-23.5 -105.5v-32h4q13 24 36 36t70 12q137 0 137 -129v-5q0 -71 -39 -104.5t-105 -33.5zM185 -62q51 0 73 22
t22 69v6q0 47 -22 68.5t-73 21.5t-73.5 -22t-22.5 -68v-6q0 -47 22 -69t74 -22z" />
    <glyph glyph-name="seveninferior" unicode="&#x2087;" horiz-adv-x="367" 
d="M343 276l-196 -376h-64l198 370v4h-256v46h318v-44z" />
    <glyph glyph-name="eightinferior" unicode="&#x2088;" horiz-adv-x="367" 
d="M187 -106h-7q-147 0 -147 125v5q2 80 63 98v4q-57 15 -57 85v4q0 111 142 111h5q142 0 142 -111v-4q0 -70 -57 -85v-4q63 -19 63 -98v-5q0 -125 -147 -125zM162 142h43q69 0 69 63v5q0 71 -91 71q-90 0 -90 -71v-5q0 -63 69 -63zM183 -61q49 0 73 18t24 62v7q0 74 -75 74
h-43q-75 0 -75 -74v-7q0 -44 23.5 -62t72.5 -18z" />
    <glyph glyph-name="nineinferior" unicode="&#x2089;" horiz-adv-x="367" 
d="M176 325h7q35 0 59.5 -6.5t46.5 -24.5t33 -56t11 -96v-66q0 -58 -10.5 -96t-32.5 -56t-46 -24.5t-59 -6.5h-7q-61 0 -96 25t-47 82h55q15 -62 91 -62q51 0 74.5 26t23.5 105v32h-4q-13 -24 -36 -36t-70 -12q-137 0 -137 129v5q0 71 39 104.5t105 33.5zM181 281
q-51 0 -73 -22t-22 -69v-6q0 -47 22 -68.5t73 -21.5t73.5 22t22.5 68v6q0 47 -22 69t-74 22z" />
    <glyph glyph-name="plusinferior" unicode="&#x208a;" horiz-adv-x="359" 
d="M161 129v130h37v-130h125v-39h-125v-132h-37v132h-125v39h125z" />
    <glyph glyph-name="minusinferior" unicode="&#x208b;" horiz-adv-x="356" 
d="M298 90h-239v39h239v-39z" />
    <glyph glyph-name="equalinferior" unicode="&#x208c;" horiz-adv-x="358" 
d="M310 159h-263v39h263v-39zM310 18h-263v40h263v-40z" />
    <glyph glyph-name="parenleftinferior" unicode="&#x208d;" horiz-adv-x="230" 
d="M191 -89v-38q-134 23 -134 223v28q0 200 134 223v-38q-92 -20 -92 -190v-18q0 -170 92 -190z" />
    <glyph glyph-name="parenrightinferior" unicode="&#x208e;" horiz-adv-x="230" 
d="M37 309v38q134 -23 134 -223v-28q0 -200 -134 -223v38q92 20 92 190v18q0 170 -92 190z" />
    <glyph glyph-name="Euro" unicode="&#x20ac;" 
d="M330 -10h-16q-37 0 -65 4.5t-59 21t-51 45t-35 79.5t-19 121h-76v43h75v3v86v3h-75v44h76q4 70 19 120t35 78.5t51 45t59 21.5t65 5h16q197 0 221 -173h-57q-10 63 -51.5 92.5t-120.5 29.5q-40 0 -68 -7.5t-54 -29.5t-40 -67t-17 -115h319v-44h-320v-92h320v-43h-319
q3 -69 17 -114t40 -67.5t54 -30.5t68 -8q79 0 120.5 29.5t51.5 92.5h57q-23 -173 -221 -173z" />
    <glyph glyph-name="litre" unicode="&#x2113;" horiz-adv-x="377" 
d="M230 -15q-131 0 -131 175v29q-13 -9 -58 -37l-19 37q33 19 77 50v261q0 104 27 157t91 53q59 0 88.5 -41t29.5 -132q0 -97 -40 -167t-144 -145v-71q0 -122 84 -122q39 0 68 36l18 -36q-40 -47 -91 -47zM151 506v-229q80 62 107.5 118t27.5 141q0 128 -67 128
q-36 0 -52 -35t-16 -123z" />
    <glyph glyph-name="numero" unicode="&#x2116;" horiz-adv-x="1132" 
d="M922 272h-7q-84 0 -127.5 46.5t-43.5 157.5v28q0 111 43.5 157.5t127.5 46.5h7q84 0 127 -46t43 -158v-28q0 -112 -43 -158t-127 -46zM636 700v-700h-97l-396 645h-4v-645h-59v700h98l395 -646h5v646h58zM917 319q28 0 47 5.5t37 21t27 49.5t9 87v16q0 52 -9 86t-27 50
t-37 21.5t-47 5.5q-27 0 -46 -5.5t-37 -21.5t-27 -50t-9 -86v-16q0 -100 30.5 -131.5t88.5 -31.5z" />
    <glyph glyph-name="published" unicode="&#x2117;" horiz-adv-x="753" 
d="M415 -10h-76q-159 0 -236 83t-77 237v80q0 154 77 237t236 83h76q159 0 236 -83t77 -237v-80q0 -154 -77 -237t-236 -83zM350 25h53q162 0 224 77.5t62 231.5v32q0 154 -62 231.5t-224 77.5h-53q-83 0 -139.5 -21t-87.5 -63t-44 -96t-13 -129v-32q0 -75 13 -129t44 -96
t87.5 -63t139.5 -21zM286 309v-169h-52v420h200q66 0 96.5 -26.5t30.5 -89.5v-23q0 -112 -127 -112h-148zM424 516h-138v-165h139q47 0 65 17.5t18 60.5v10q0 43 -17.5 60t-66.5 17z" />
    <glyph glyph-name="trademark" unicode="&#x2122;" horiz-adv-x="821" 
d="M195 656v-306h-50v306h-123v44h296v-44h-123zM779 700v-350h-49v308h-4l-126 -308h-52l-124 308h-4v-308h-50v350h88l116 -294h5l118 294h82z" />
    <glyph glyph-name="Omega" unicode="&#x2126;" horiz-adv-x="717" 
d="M657 51v-51h-252v87q103 6 143 69t40 198v35q0 135 -49 202t-169 67h-23q-121 0 -169.5 -67t-48.5 -202v-35q0 -136 39.5 -198.5t142.5 -68.5v-87h-251v51h183v5q-93 14 -133.5 84.5t-40.5 195.5v74q0 144 68 222t204 78h35q137 0 204 -78t67 -223v-73q0 -254 -173 -280
v-5h183z" />
    <glyph glyph-name="estimated" unicode="&#x212e;" horiz-adv-x="834" 
d="M427 -15q-163 0 -278.5 107.5t-115.5 258.5t115 257.5t279 106.5t279.5 -106.5t115.5 -257.5q0 -15 -1 -15h-633v-221q100 -90 239 -90q102 0 187.5 47t127.5 121h41q-47 -93 -144 -150.5t-212 -57.5zM188 590v-214h470v221q-91 78 -231 78q-74 0 -137 -23.5t-102 -61.5z
" />
    <glyph glyph-name="arrowleft" unicode="&#x2190;" horiz-adv-x="897" 
d="M112 374h749v-49h-749v-6l321 -320h-71l-346 348v5l346 347h71l-321 -319v-6z" />
    <glyph glyph-name="arrowup" unicode="&#x2191;" horiz-adv-x="896" 
d="M483 676v-750h-49v750h-6l-320 -321v71l348 346h5l347 -346v-71l-319 321h-6z" />
    <glyph glyph-name="arrowright" unicode="&#x2192;" horiz-adv-x="897" 
d="M785 325h-749v49h749v6l-321 320h71l346 -348v-5l-346 -347h-71l321 319v6z" />
    <glyph glyph-name="arrowdown" unicode="&#x2193;" horiz-adv-x="897" 
d="M433 772h49v-750h6l319 321v-71l-347 -346h-5l-348 346v71l320 -321h6v750z" />
    <glyph glyph-name="arrowupleft" unicode="&#x2196;" horiz-adv-x="896" 
d="M241 648l530 -531l-34 -34l-530 530l-5 -4l1 -454l-49 50v491l4 4h490l50 -49l-453 1z" />
    <glyph glyph-name="arrowupright" unicode="&#x2197;" horiz-adv-x="897" 
d="M160 83l-34 34l530 531l-4 4l-453 -1l50 49h490l4 -4v-491l-49 -50l1 454l-5 4z" />
    <glyph glyph-name="arrowdownright" unicode="&#x2198;" horiz-adv-x="897" 
d="M656 52l-530 531l34 34l530 -530l5 4l-1 454l49 -50v-491l-4 -4h-490l-50 49l453 -1z" />
    <glyph glyph-name="arrowdownleft" unicode="&#x2199;" horiz-adv-x="897" 
d="M737 617l34 -34l-530 -531l4 -4l453 1l-50 -49h-490l-4 4v491l49 50l-1 -454l5 -4z" />
    <glyph glyph-name="partialdiff" unicode="&#x2202;" horiz-adv-x="531" 
d="M273 -10h-17q-92 0 -148 54t-56 160v28q0 213 204 213q67 0 104.5 -19.5t58.5 -62.5h5v90q0 119 -48 162.5t-148 43.5q-86 0 -133 -29v56q50 24 130 24h10q122 0 183.5 -57t61.5 -198v-185q0 -88 -17.5 -146.5t-49.5 -86t-64.5 -37.5t-75.5 -10zM266 40q156 0 156 169v21
q0 167 -156 167q-157 0 -157 -167v-21q0 -169 157 -169z" />
    <glyph glyph-name="increment" unicode="&#x2206;" horiz-adv-x="687" 
d="M388 700l272 -700h-633l271 700h90zM346 654h-4l-232 -601h466z" />
    <glyph glyph-name="product" unicode="&#x220f;" horiz-adv-x="668" 
d="M588 700v-871h-59v818h-390v-818h-59v871h508z" />
    <glyph glyph-name="summation" unicode="&#x2211;" horiz-adv-x="615" 
d="M567 -117v-53h-505v53l313 371v7l-311 385v54h503v-53h-427v-4l291 -361v-47l-292 -348v-4h428z" />
    <glyph glyph-name="minus" unicode="&#x2212;" horiz-adv-x="584" 
d="M479 306h-375v46h375v-46z" />
    <glyph glyph-name="radical" unicode="&#x221a;" horiz-adv-x="449" 
d="M438 803l-172 -906h-50l-124 441l-58 -16l-9 50l106 28l103 -397h5l148 800h51z" />
    <glyph glyph-name="infinity" unicode="&#x221e;" horiz-adv-x="773" 
d="M572 154q-60 0 -103 36t-83 99q-40 -64 -82.5 -99.5t-102.5 -35.5q-77 0 -122.5 51t-45.5 124t45.5 124t122.5 51q60 0 102.5 -35.5t82.5 -99.5q40 63 83 99t103 36q77 0 122.5 -51t45.5 -124t-45.5 -124t-122.5 -51zM78 329q0 -57 35 -94.5t89 -37.5q49 0 85 34t74 98
q-38 64 -74 98t-85 34q-54 0 -89 -37.5t-35 -94.5zM571 197q54 0 88.5 37.5t34.5 94.5t-34.5 94.5t-88.5 37.5q-49 0 -84 -33t-76 -99q27 -43 45.5 -67t49.5 -44.5t65 -20.5z" />
    <glyph glyph-name="integral" unicode="&#x222b;" horiz-adv-x="395" 
d="M54 -170h-31v50h25q64 0 88 24.5t24 106.5v557q0 102 36 142t124 40h31v-50h-25q-64 0 -88 -24.5t-24 -106.5v-557q0 -103 -35.5 -142.5t-124.5 -39.5z" />
    <glyph glyph-name="approxequal" unicode="&#x2248;" horiz-adv-x="585" 
d="M392 378q-43 0 -103.5 33t-98.5 33q-65 0 -104 -61v54q14 21 42 37t63 16q44 0 104.5 -33t97.5 -33q32 0 60 17.5t45 43.5v-53q-38 -54 -106 -54zM392 168q-43 0 -103.5 33t-98.5 33q-65 0 -104 -61v54q14 21 42 37t63 16q44 0 104.5 -33t97.5 -33q32 0 60 17.5t45 43.5
v-53q-38 -54 -106 -54z" />
    <glyph glyph-name="notequal" unicode="&#x2260;" horiz-adv-x="584" 
d="M260 193l-78 -193h-48l79 193h-127v45h145l74 182h-219v46h238l78 192h47l-78 -192h127v-46h-146l-73 -182h219v-45h-238z" />
    <glyph glyph-name="lessequal" unicode="&#x2264;" horiz-adv-x="584" 
d="M517 259v-48l-448 173v41l448 174v-48l-374 -145v-3zM517 68h-451v46h451v-46z" />
    <glyph glyph-name="greaterequal" unicode="&#x2265;" horiz-adv-x="584" 
d="M515 384l-448 -173v48l374 144v3l-374 145v48l448 -174v-41zM518 114v-46h-451v46h451z" />
    <glyph glyph-name="lozenge" unicode="&#x25ca;" horiz-adv-x="473" 
d="M266 678l179 -349l-179 -349h-59l-179 349l179 349h59zM236 22l159 307l-159 307l-157 -307z" />
    <glyph glyph-name="germandbls.cap" horiz-adv-x="1233" 
d="M317 -10h-9q-47 0 -85.5 7t-75.5 24.5t-61.5 53t-33.5 87.5h60q26 -121 200 -121q100 0 148 34t48 115v8q0 69 -32.5 98t-126.5 35l-98 6q-102 7 -143 51t-41 124v7q0 102 59 146.5t170 44.5h12q227 0 246 -173h-59q-13 73 -64 97q-50 25 -129 25q-91 0 -133.5 -31.5
t-42.5 -103.5v-4q0 -69 32.5 -98t126.5 -35l98 -5q103 -7 143.5 -51t40.5 -125v-11q0 -115 -66 -160t-184 -45zM934 -10h-9q-47 0 -85.5 7t-75.5 24.5t-61.5 53t-33.5 87.5h60q26 -121 200 -121q100 0 148 34t48 115v8q0 69 -32.5 98t-126.5 35l-98 6q-102 7 -143 50.5
t-41 124.5v7q0 102 59.5 146.5t169.5 44.5h12q227 0 246 -173h-59q-13 73 -65 97q-49 25 -128 25q-91 0 -133.5 -31.5t-42.5 -103.5v-4q0 -69 32.5 -98t126.5 -35l98 -5q103 -7 143.5 -51t40.5 -125v-11q0 -115 -66 -160t-184 -45z" />
    <glyph glyph-name="i.TRK" horiz-adv-x="188" 
d="M65 700h57v-69h-57v69zM65 530h57v-530h-57v530z" />
    <glyph glyph-name="a.superior" horiz-adv-x="418" 
d="M371 554v-274h-54v61h-4q-31 -70 -133 -70q-68 0 -107.5 32t-39.5 94v5q0 117 134 124l150 9v17q0 67 -27 89.5t-83 22.5q-91 0 -107 -81h-54q23 125 157 125h10q80 0 119 -34t39 -120zM88 403v-6q0 -42 28 -62t73 -20q128 0 128 122v57l-144 -9q-45 -3 -65 -22.5
t-20 -59.5z" />
    <glyph glyph-name="b.superior" horiz-adv-x="450" 
d="M108 280h-55v554h55v-195h3q25 69 125 69h4q82 0 125.5 -44.5t43.5 -156.5v-34q0 -112 -43.5 -156.5t-125.5 -44.5h-4q-100 0 -125 69h-3v-61zM231 319q29 0 48.5 5.5t38 21t28 49.5t9.5 87v16q0 99 -32 131t-92 32q-29 0 -48.5 -5.5t-38 -21.5t-27.5 -50t-9 -86v-16
q0 -100 31 -131.5t92 -31.5z" />
    <glyph glyph-name="c.superior" horiz-adv-x="403" 
d="M215 272h-5q-83 0 -126 45.5t-43 157.5v30q0 112 43 157.5t126 45.5h5q66 0 104.5 -30t52.5 -95h-55q-20 78 -104 78q-56 0 -87 -32t-31 -131v-16q0 -99 31 -131t87 -32q84 0 104 78h55q-14 -65 -52.5 -95t-104.5 -30z" />
    <glyph glyph-name="d.superior" horiz-adv-x="450" 
d="M397 834v-554h-55v61h-3q-25 -69 -125 -69h-4q-82 0 -125.5 44.5t-43.5 156.5v34q0 112 43.5 156.5t125.5 44.5h4q100 0 125 -69h3v195h55zM219 319q61 0 92 31.5t31 131.5v16q0 52 -9 86t-27.5 50t-38 21.5t-48.5 5.5q-60 0 -92 -32t-32 -131v-16q0 -53 9.5 -87
t28 -49.5t38 -21t48.5 -5.5z" />
    <glyph glyph-name="e.superior" horiz-adv-x="429" 
d="M329 391h54q-14 -64 -55 -91.5t-109 -27.5h-7q-83 0 -127 46.5t-44 157.5v28q0 111 44 157.5t127 46.5h7q84 0 126.5 -45.5t42.5 -156.5v-26h-293q0 -52 9 -86t27 -49.5t37 -21t47 -5.5q43 0 71.5 14t42.5 59zM214 664q-55 0 -85 -28t-34 -116h238v7q0 75 -29.5 106
t-89.5 31z" />
    <glyph glyph-name="f.superior" horiz-adv-x="289" 
d="M98 654h-91v46h91q2 76 32 105t98 29h49v-44h-42q-43 0 -63 -16q-20 -17 -20 -74h125v-46h-125v-374h-54v374z" />
    <glyph glyph-name="g.superior" horiz-adv-x="440" 
d="M223 145h-8q-72 0 -114 22t-55 79h55q12 -34 39 -45.5t80 -11.5q59 0 85.5 26.5t26.5 97.5v52h-3q-26 -62 -123 -62h-4q-82 0 -121.5 42.5t-39.5 151.5v16q0 110 39 152.5t122 42.5h4q97 0 123 -62h3v54h55v-392q0 -90 -39.5 -126.5t-124.5 -36.5zM214 350q30 0 48.5 4.5
t36 19t25.5 45.5t8 80v12q0 50 -8 81t-25.5 45.5t-36 19t-48.5 4.5t-48.5 -4.5t-36 -19t-25.5 -45.5t-8 -81v-12q0 -49 8 -80t25.5 -45.5t36 -19t48.5 -4.5z" />
    <glyph glyph-name="h.superior" horiz-adv-x="429" 
d="M381 553v-273h-54v261q0 69 -26 94t-79 25q-115 0 -115 -132v-248h-55v554h55v-198h3q30 72 128 72q143 0 143 -155z" />
    <glyph glyph-name="i.superior" horiz-adv-x="159" 
d="M52 834h55v-59h-55v59zM52 700h55v-420h-55v420z" />
    <glyph glyph-name="j.superior" horiz-adv-x="159" 
d="M52 834h55v-59h-55v59zM52 700h55v-360q0 -69 -10.5 -106t-40.5 -89h-59q33 54 44 91t11 100v364z" />
    <glyph glyph-name="k.superior" horiz-adv-x="396" 
d="M107 416v-136h-55v554h55v-348h3l209 214h66l-171 -173l180 -247h-66l-150 205h-3z" />
    <glyph glyph-name="l.superior" horiz-adv-x="159" 
d="M107 834v-554h-55v554h55z" />
    <glyph glyph-name="m.superior" horiz-adv-x="678" 
d="M631 556v-276h-54v261q0 69 -24.5 94t-73.5 25q-110 0 -110 -132v-248h-54v261q0 69 -25 94t-74 25q-109 0 -109 -132v-248h-55v420h55v-64h3q27 72 118 72q105 0 131 -81h4q27 81 128 81q68 0 104 -35.5t36 -116.5z" />
    <glyph glyph-name="n.superior" horiz-adv-x="429" 
d="M381 553v-273h-54v261q0 69 -26 94t-79 25q-115 0 -115 -132v-248h-55v420h55v-64h3q30 72 128 72q143 0 143 -155z" />
    <glyph glyph-name="o.superior" horiz-adv-x="433" 
d="M220 272h-6q-85 0 -129 46.5t-44 157.5v28q0 111 44 157.5t129 46.5h6q85 0 128.5 -46t43.5 -158v-28q0 -112 -43.5 -158t-128.5 -46zM216 319q28 0 47 5.5t37.5 21t27.5 50t9 87.5v15q0 99 -31 131t-90 32q-28 0 -47 -5.5t-37.5 -21.5t-27.5 -50t-9 -86v-15
q0 -100 31 -132t90 -32z" />
    <glyph glyph-name="p.superior" horiz-adv-x="450" 
d="M53 146v554h55v-61h3q25 69 125 69h4q82 0 125.5 -44.5t43.5 -156.5v-34q0 -112 -43.5 -156.5t-125.5 -44.5h-4q-100 0 -125 69h-3v-195h-55zM231 661q-61 0 -92 -31.5t-31 -131.5v-16q0 -52 9 -86t27.5 -50t38 -21.5t48.5 -5.5q60 0 92 32t32 131v16q0 53 -9.5 87
t-28 49.5t-38 21t-48.5 5.5z" />
    <glyph glyph-name="q.superior" horiz-adv-x="450" 
d="M342 700h55v-554h-55v195h-3q-25 -69 -125 -69h-4q-82 0 -125.5 44.5t-43.5 156.5v34q0 112 43.5 156.5t125.5 44.5h4q100 0 125 -69h3v61zM219 661q-29 0 -48.5 -5.5t-38 -21t-28 -49.5t-9.5 -87v-16q0 -99 32 -131t92 -32q29 0 48.5 5.5t38 21.5t27.5 50t9 86v16
q0 100 -31 131.5t-92 31.5z" />
    <glyph glyph-name="r.superior" horiz-adv-x="273" 
d="M232 700h31v-48h-35q-59 0 -90 -27t-31 -100v-245h-55v420h55v-63h3q24 63 122 63z" />
    <glyph glyph-name="s.superior" horiz-adv-x="407" 
d="M207 272h-7q-145 0 -164 113h54q14 -69 115 -69q55 0 83 17.5t28 63.5v6q0 34 -18 49t-63 18l-79 4q-64 5 -88 32t-24 74v9q0 58 40 88.5t111 30.5h8q68 0 107.5 -26t53.5 -86h-55q-12 38 -38.5 53t-71.5 15q-101 0 -101 -74v-4q0 -34 18 -48.5t64 -18.5l77 -4
q64 -5 89 -32t25 -75v-9q0 -127 -164 -127z" />
    <glyph glyph-name="t.superior" horiz-adv-x="287" 
d="M262 326v-46h-50q-64 0 -90 27t-26 96v251h-89v46h89v134h54v-134h112v-46h-112v-237q0 -57 17 -74t66 -17h29z" />
    <glyph glyph-name="u.superior" horiz-adv-x="429" 
d="M48 427v273h54v-261q0 -69 26.5 -94t78.5 -25q115 0 115 132v248h55v-420h-55v64h-3q-30 -72 -128 -72q-143 0 -143 155z" />
    <glyph glyph-name="v.superior" horiz-adv-x="403" 
d="M394 700l-154 -420h-77l-154 420h59l134 -371h3l134 371h55z" />
    <glyph glyph-name="w.superior" horiz-adv-x="619" 
d="M606 700l-108 -420h-72l-115 361l-115 -361h-76l-107 420h57l90 -367h3l116 367h64l115 -367h3l91 367h54z" />
    <glyph glyph-name="x.superior" horiz-adv-x="410" 
d="M241 495l154 -215h-66l-123 180h-4l-124 -180h-63l153 214l-144 206h65l116 -168h3l115 168h63z" />
    <glyph glyph-name="y.superior" horiz-adv-x="395" 
d="M391 700l-215 -555h-57l56 137l-168 418h59l135 -348h5l130 348h55z" />
    <glyph glyph-name="z.superior" horiz-adv-x="368" 
d="M339 326v-46h-307v40l233 334h-226v46h294v-40l-234 -334h240z" />
    <glyph glyph-name="grave.cap" horiz-adv-x="500" 
d="M243 860l79 -120h-50l-96 120h67z" />
    <glyph glyph-name="acute.cap" horiz-adv-x="500" 
d="M322 860l-96 -120h-50l79 120h67z" />
    <glyph glyph-name="circumflex.cap" horiz-adv-x="500" 
d="M293 860l96 -120h-51l-88 99l-88 -99h-51l95 120h87z" />
    <glyph glyph-name="caron.cap" horiz-adv-x="500" 
d="M250 761l88 99h51l-96 -120h-87l-95 120h51z" />
    <glyph glyph-name="caronSlovak" horiz-adv-x="500" 
d="M297 700l-43 -198h-45l33 198h55z" />
    <glyph glyph-name="tilde.cap" horiz-adv-x="500" 
d="M314 756q-28 0 -69 24.5t-56 24.5q-35 0 -41 -46h-40q10 85 78 85q28 0 69 -24t56 -24q35 0 41 46h40q-9 -86 -78 -86z" />
    <glyph glyph-name="dieresis.cap" horiz-adv-x="500" 
d="M142 835h53v-69h-53v69zM305 835h53v-69h-53v69z" />
    <glyph glyph-name="macron.cap" horiz-adv-x="500" 
d="M385 822v-42h-270v42h270z" />
    <glyph glyph-name="breve.cap" horiz-adv-x="500" 
d="M250 734q-133 0 -134 126h44q0 -87 90 -87t90 87h44q-1 -126 -134 -126z" />
    <glyph glyph-name="ring.cap" horiz-adv-x="500" 
d="M250 732q-47 0 -75 24.5t-28 73.5t28 73.5t75 24.5t75 -24.5t28 -73.5t-28 -73.5t-75 -24.5zM250 768q62 0 62 62t-62 62t-62 -62t62 -62z" />
    <glyph glyph-name="hungarumlaut.cap" horiz-adv-x="500" 
d="M260 860l-96 -120h-50l79 120h67zM385 860l-95 -120h-51l80 120h66z" />
    <glyph glyph-name="dotaccent.cap" horiz-adv-x="500" 
d="M221 835h57v-69h-57v69z" />
    <glyph glyph-name="commaaccent.alt" horiz-adv-x="500" 
d="M233 691l14 23h39l-36 -64v-6h51v-46h-92v11q0 35 24 82z" />
    <glyph glyph-name="hyphen.cap" horiz-adv-x="265" 
d="M249 325h-234v51h234v-51z" />
    <glyph glyph-name="exclamdown.cap" horiz-adv-x="235" 
d="M71 700h93v-93h-93v93zM148 294v-294h-61v294l12 186h36z" />
    <glyph glyph-name="questiondown.cap" horiz-adv-x="502" 
d="M223 701h93v-93h-93v93zM242 481h54v-13q0 -37 -20 -63t-73 -66q-65 -48 -86 -79.5t-21 -85.5v-5q0 -61 37.5 -94t109.5 -33q64 0 103.5 33.5t53.5 114.5h57q-26 -199 -209 -199h-10q-90 0 -144.5 46t-54.5 130v5q0 68 26 109t102 96q43 32 58.5 53t16.5 51z" />
    <glyph glyph-name="guilsinglleft.cap" horiz-adv-x="203" 
d="M36 346v6l84 219h47l-85 -222l85 -222h-47z" />
    <glyph glyph-name="guilsinglright.cap" horiz-adv-x="203" 
d="M167 353v-6l-84 -219h-47l85 222l-85 222h47z" />
    <glyph glyph-name="guillemotleft.cap" horiz-adv-x="350" 
d="M36 347v6l84 219h47l-85 -222l85 -222h-47zM183 347v6l84 219h47l-85 -222l85 -222h-47z" />
    <glyph glyph-name="guillemotright.cap" horiz-adv-x="351" 
d="M167 353v-6l-84 -219h-47l85 222l-85 222h47zM315 353v-6l-84 -219h-47l85 222l-85 222h47z" />
    <glyph glyph-name="endash.cap" horiz-adv-x="549" 
d="M515 328h-499v43h499v-43z" />
    <glyph glyph-name="emdash.cap" horiz-adv-x="823" 
d="M780 328h-764v43h764v-43z" />
    <glyph glyph-name="periodcentered.cap" horiz-adv-x="313" 
d="M192 303h-93v93h93v-93z" />
    <glyph glyph-name="parenleft.cap" horiz-adv-x="314" 
d="M266 1v-46q-203 45 -203 374v42q0 329 203 374v-46q-80 -24 -117.5 -105.5t-37.5 -233.5v-20q0 -152 37.5 -233.5t117.5 -105.5z" />
    <glyph glyph-name="parenright.cap" horiz-adv-x="314" 
d="M39 699v46q203 -46 203 -374v-42q0 -328 -203 -374v46q80 24 117.5 105.5t37.5 233.5v20q0 152 -37.5 233.5t-117.5 105.5z" />
    <glyph glyph-name="bracketleft.cap" horiz-adv-x="339" 
d="M290 -2v-43h-188v790h188v-43h-140v-704h140z" />
    <glyph glyph-name="bracketright.cap" horiz-adv-x="339" 
d="M49 702v43h188v-790h-188v43h140v704h-140z" />
    <glyph glyph-name="braceleft.cap" horiz-adv-x="335" 
d="M306 -2v-43h-33q-77 0 -108 42.5t-31 147.5v54q0 68 -17 90.5t-80 32.5v56q63 10 80 32.5t17 90.5v54q0 105 31 147.5t108 42.5h33v-43h-20q-57 0 -80.5 -30t-23.5 -122v-60q0 -72 -18.5 -100.5t-81.5 -37.5v-4q63 -9 81.5 -37.5t18.5 -100.5v-60q0 -92 23.5 -122
t80.5 -30h20z" />
    <glyph glyph-name="braceright.cap" horiz-adv-x="335" 
d="M62 -45h-33v43h20q57 0 80.5 30t23.5 122v60q0 72 18 100.5t82 37.5v4q-64 9 -82 37.5t-18 100.5v60q0 92 -23.5 122t-80.5 30h-20v43h33q76 0 107.5 -43t31.5 -147v-54q0 -68 17 -90.5t80 -32.5v-56q-63 -10 -80 -32.5t-17 -90.5v-54q0 -104 -31.5 -147t-107.5 -43z" />
    <glyph glyph-name="at.cap" horiz-adv-x="911" 
d="M469 -69q-195 0 -305.5 91.5t-110.5 281.5v37q0 196 110.5 312t305.5 116q184 0 293 -88.5t109 -273.5v-17q0 -133 -46 -210.5t-142 -77.5q-111 0 -113 86h-4q-35 -69 -134 -69h-5q-82 0 -121 46t-28 161l3 33q10 111 58 158.5t128 47.5h4q110 0 126 -71h4l8 63h55
l-41 -306q-8 -61 5 -84t61 -23q136 0 136 251v19q0 314 -366 314q-177 0 -268.5 -108.5t-91.5 -279.5v-41q0 -327 376 -327q92 0 174 19v-39q-82 -21 -180 -21zM448 166q57 0 93 34t44 128l4 34q5 52 -2.5 85.5t-27.5 48t-38.5 18.5t-47.5 4q-56 0 -92 -34t-46 -128l-3 -34
q-5 -52 2.5 -85.5t27.5 -48t38.5 -18.5t47.5 -4z" />
    <glyph glyph-name="zero.slash" horiz-adv-x="648" 
d="M337 -10h-27q-123 0 -183.5 68t-60.5 230v124q0 162 60.5 230t183.5 68h27q123 0 184 -68t61 -230v-124q0 -162 -61 -230t-184 -68zM124 399v-98q0 -110 26 -170l323 477q-44 50 -150 50q-110 0 -154.5 -56.5t-44.5 -202.5zM323 42q111 0 156 57t45 202v98q0 109 -26 169
l-322 -478q43 -48 147 -48z" />
    <glyph glyph-name="numbersign.LT" 
d="M382 0h-48l30 206h-161l-30 -206h-50l32 206h-119v48h125l24 193h-118v48h125l30 205h49l-31 -205h161l31 205h49l-31 -205h118v-48h-125l-24 -193h119v-48h-125zM396 448h-163l-25 -195h163z" />
    <glyph glyph-name="Euro.LT" 
d="M330 -10h-16q-37 0 -65 4.5t-59 21t-51 45t-35 79.5t-19 121h-76v43h75v3v86v3h-75v44h76q4 70 19 120t35 78.5t51 45t59 21.5t65 5h16q197 0 221 -173h-57q-10 63 -51.5 92.5t-120.5 29.5q-40 0 -68 -7.5t-54 -29.5t-40 -67t-17 -115h319v-44h-320v-92h320v-43h-319
q3 -69 17 -114t40 -67.5t54 -30.5t68 -8q79 0 120.5 29.5t51.5 92.5h57q-23 -173 -221 -173z" />
    <glyph glyph-name="dollar.LT" 
d="M334 10v-115h-49v116q-81 3 -137.5 39.5t-73.5 112.5h60q34 -105 176 -105q183 0 184 142v5q0 66 -33 92.5t-115 31.5l-98 6q-90 7 -130.5 49t-40.5 117v9q0 85 52 130.5t148 49.5v115h49v-115q179 -9 203 -153h-60q-26 105 -168 105q-166 0 -166 -129v-4q0 -64 33 -91
t115 -32l98 -6q91 -6 131 -48t40 -117v-10q0 -96 -59 -144t-159 -51z" />
    <glyph glyph-name="cent.LT" 
d="M328 -9v-96h-49v96q-91 5 -139 63t-48 190v43q0 131 48 189t139 63v96h49v-96q142 -8 172 -153h-57q-15 61 -50.5 82.5t-88.5 21.5q-28 0 -47.5 -3.5t-41 -16t-35 -35t-22.5 -63t-9 -97.5v-20q0 -57 9 -97.5t22.5 -63t35 -35t41 -16t47.5 -3.5q53 0 88.5 21.5t50.5 82.5
h57q-30 -145 -172 -153z" />
    <glyph glyph-name="sterling.LT" 
d="M552 51v-51h-525v51h110v278h-110v43h110v67q0 79 15 134t44 84t64.5 41t82.5 12h14q179 0 202 -173h-59q-9 63 -42 92.5t-107 29.5q-81 0 -119 -48.5t-38 -176.5v-62h277v-43h-277v-278h358z" />
    <glyph glyph-name="florin.LT" 
d="M291 329v-434h-58v434h-206v43h206v52q0 84 15 140t45 85t65.5 40t86.5 11h123v-51h-114q-86 0 -124.5 -49t-38.5 -180v-48h277v-43h-277z" />
    <glyph glyph-name="yen.LT" 
d="M331 261v-261h-57v261h-204v43h204v47l-32 45h-172v44h141l-183 260h71l203 -296h4l203 296h67l-184 -260h144v-44h-175l-30 -43v-49h205v-43h-205z" />
    <glyph glyph-name="zero.slash.LT" 
d="M310 -10h-15q-42 0 -72.5 5.5t-62.5 23.5t-52 49t-32.5 85.5t-12.5 129.5v133q0 75 12.5 129.5t32.5 86t52 49.5t62.5 23.5t72.5 5.5h15q43 0 74 -5.5t62.5 -23.5t51 -49.5t32 -86t12.5 -129.5v-133q0 -75 -12.5 -129.5t-32.5 -85.5t-52 -49t-62.5 -23.5t-72.5 -5.5z
M121 415v-130q0 -96 21 -154l298 480q-38 47 -137 47q-46 0 -74.5 -7.5t-55.5 -31.5t-39.5 -74.5t-12.5 -129.5zM303 42q36 0 60.5 4t49.5 18.5t39 40.5t23 71t9 109v130q0 98 -20 152l-298 -479q39 -46 137 -46z" />
    <glyph glyph-name="zero.LT" 
d="M310 -10h-15q-42 0 -72.5 5.5t-62.5 23.5t-52 49t-32.5 85.5t-12.5 129.5v133q0 75 12.5 129.5t32.5 86t52 49.5t62.5 23.5t72.5 5.5h15q43 0 74 -5.5t62.5 -23.5t51 -49.5t32 -86t12.5 -129.5v-133q0 -75 -12.5 -129.5t-32.5 -85.5t-52 -49t-62.5 -23.5t-72.5 -5.5z
M303 42q36 0 60.5 4t49.5 18.5t39 40.5t23 71t9 109v130q0 64 -9 109t-23 71t-39 40.5t-49.5 18.5t-60.5 4q-46 0 -74.5 -7.5t-55.5 -31.5t-39.5 -74.5t-12.5 -129.5v-130q0 -79 12.5 -129.5t39.5 -74.5t55.5 -31.5t74.5 -7.5z" />
    <glyph glyph-name="one.LT" 
d="M548 51v-51h-490v51h217v604h-6l-211 -139v67l182 117h92v-649h216z" />
    <glyph glyph-name="two.LT" 
d="M544 51v-51h-481v74q0 92 15 140t51.5 74.5t113.5 46.5l125 33q68 17 93 49.5t25 98.5v7q0 136 -173 136q-81 0 -125.5 -28.5t-53.5 -101.5h-58q15 181 230 181h12q226 0 226 -182v-13q0 -82 -31.5 -127.5t-115.5 -67.5l-130 -33q-64 -16 -92 -34t-41 -57t-13 -118v-27
h423z" />
    <glyph glyph-name="three.LT" 
d="M319 -10h-16q-41 0 -77 9t-70.5 29.5t-58 59t-30.5 92.5h58q27 -139 185 -139q86 0 132 38.5t46 114.5v11q0 70 -32 103t-119 33h-124v52h123q81 0 110.5 29.5t29.5 92.5v11q0 133 -169 133q-65 0 -109 -27.5t-58 -101.5h-57q24 180 219 180h11q97 0 159 -42t62 -136v-9
q0 -120 -92 -147v-4q49 -11 76.5 -54t27.5 -112v-11q0 -104 -63 -154.5t-164 -50.5z" />
    <glyph glyph-name="four.LT" 
d="M463 196v-196h-57v196h-359v76l322 428h94v-455h114v-49h-114zM97 250v-5h309v409h-5z" />
    <glyph glyph-name="five.LT" 
d="M321 -10h-17q-98 0 -159 47t-72 133h58q25 -129 181 -129q86 0 132 46t46 133v12q0 178 -172 178q-133 0 -179 -95h-51l29 385h408v-51h-355l-22 -254h5q24 30 69.5 47.5t101.5 17.5q223 0 223 -226v-14q0 -107 -62 -169q-61 -61 -164 -61z" />
    <glyph glyph-name="six.LT" 
d="M317 -10h-15q-54 0 -91.5 10t-72 39t-52 90t-17.5 154v133q0 75 12.5 129.5t32 86t51 49.5t62.5 23.5t74 5.5h14q95 0 150 -40t75 -133h-58q-17 67 -59 94.5t-114 27.5q-46 0 -75 -7.5t-55.5 -31.5t-39 -74.5t-12.5 -129.5v-63h5q23 45 63.5 66.5t124.5 21.5
q113 0 169.5 -51.5t56.5 -162.5v-10q0 -119 -63 -173t-166 -54zM310 41q95 0 136.5 41t41.5 129v11q0 88 -41.5 129t-136.5 41t-136.5 -41t-41.5 -129v-11q0 -88 41.5 -129t136.5 -41z" />
    <glyph glyph-name="seven.LT" 
d="M560 655l-336 -655h-65l333 644v5h-445v51h513v-45z" />
    <glyph glyph-name="eight.LT" 
d="M309 -10h-13q-233 0 -233 207v5q2 134 105 167v5q-94 26 -94 145v6q0 185 225 185h7q225 0 225 -185v-6q0 -120 -94 -145v-5q104 -35 104 -167v-5q0 -207 -232 -207zM259 394h87q61 0 94 30.5t33 89.5v8q0 73 -43 105t-128 32t-127.5 -32t-42.5 -105v-8q0 -59 33 -89.5
t94 -30.5zM302 41q92 0 137 34.5t45 116.5v12q0 65 -35 103.5t-103 38.5h-87q-68 0 -103 -38.5t-35 -103.5v-12q0 -82 45 -116.5t136 -34.5z" />
    <glyph glyph-name="nine.LT" 
d="M288 710h15q54 0 91.5 -10t72 -39t52 -90t17.5 -154v-133q0 -75 -12.5 -129.5t-32 -86t-51 -49.5t-62.5 -23.5t-74 -5.5h-14q-95 0 -150 40t-75 133h58q17 -67 59 -94.5t114 -27.5q46 0 74.5 7.5t55.5 31.5t39.5 74.5t12.5 129.5v63h-5q-21 -44 -63 -66t-125 -22
q-226 0 -226 214v10q0 119 63 173t166 54zM295 659q-95 0 -136.5 -41t-41.5 -129v-11q0 -88 41.5 -129t136.5 -41t136.5 41t41.5 129v11q0 88 -41.5 129t-136.5 41z" />
    <glyph glyph-name="numbersign.OP" 
d="M389 0h-48l26 173h-162l-26 -173h-49l26 173h-120v47h126l21 161h-120v47h126l24 172h49l-24 -172h162l24 172h49l-25 -172h120v-47h-126l-21 -161h121v-47h-127zM394 381h-163l-21 -162h164z" />
    <glyph glyph-name="Euro.OP" 
d="M330 -10h-16q-40 0 -73 9t-66 31t-55 68t-31 113h-80v43h76q-1 12 -1 38v16q0 26 1 38h-76v43h80q9 67 31 113t55 68t66 31t73 9h16q189 0 221 -156h-57q-14 55 -54 80t-118 25q-71 0 -117 -37t-58 -133h315v-43h-319q-1 -11 -1 -36v-20q0 -25 1 -36h319v-43h-315
q12 -96 58 -133t117 -37q78 0 118 25t54 80h57q-32 -156 -221 -156z" />
    <glyph glyph-name="dollar.OP" 
d="M328 10v-115h-47v115q-185 7 -210 152h58q26 -103 176 -103q85 0 128 24.5t43 81.5v8q0 54 -27.5 77t-104.5 28l-101 5q-89 6 -125 43.5t-36 105.5v7q0 72 52.5 110.5t146.5 40.5v115h47v-116q81 -5 132 -38.5t64 -111.5h-59q-15 58 -55.5 80t-112.5 22q-156 0 -156 -100
v-4q0 -56 27.5 -78t105.5 -26l101 -6q90 -6 125 -43t35 -106v-10q0 -151 -207 -158z" />
    <glyph glyph-name="cent.OP" horiz-adv-x="540" 
d="M296 -9v-96h-49v96q-91 5 -139 63t-48 190v43q0 131 48 189t139 63v96h49v-96q142 -8 172 -153h-57q-15 61 -50.5 82.5t-88.5 21.5q-28 0 -47.5 -3.5t-41 -16t-35 -35t-22.5 -63t-9 -97.5v-20q0 -57 9 -97.5t22.5 -63t35 -35t41 -16t47.5 -3.5q53 0 88.5 21.5t50.5 82.5
h57q-30 -145 -172 -153z" />
    <glyph glyph-name="sterling.OP" 
d="M471 322v-43h-277v-228h358v-51h-525v51h110v228h-110v43h110v34q0 75 15 126.5t44.5 78.5t64 38t82.5 11h14q84 0 137 -38.5t65 -117.5h-59q-20 105 -149 105q-82 0 -119.5 -44.5t-37.5 -164.5v-28h277z" />
    <glyph glyph-name="florin.OP" 
d="M291 279v-484h-58v484h-206v43h206v2q0 84 15 140t45 85t65.5 40t86.5 11h123v-51h-114q-86 0 -124.5 -48.5t-38.5 -178.5h277v-43h-277z" />
    <glyph glyph-name="yen.OP" 
d="M331 211v-211h-57v211h-204v43h202l-65 92h-137v43h107l-149 211h71l203 -296h4l203 296h67l-149 -211h109v-43h-139l-65 -92h204v-43h-205z" />
    <glyph glyph-name="zero.slash.OP" horiz-adv-x="648" 
d="M337 -10h-27q-123 0 -183.5 66.5t-60.5 226.5v33q0 161 60.5 227.5t183.5 66.5h27q122 0 183.5 -67t61.5 -227v-33q0 -160 -61.5 -226.5t-183.5 -66.5zM124 312v-24q0 -114 31 -172l309 402q-46 40 -141 40q-109 0 -154 -54t-45 -192zM323 42q109 0 154.5 54t45.5 192v24
q0 115 -32 171l-308 -401q44 -40 140 -40z" />
    <glyph glyph-name="zero.OP" horiz-adv-x="648" 
d="M337 -10h-27q-123 0 -183.5 66.5t-60.5 226.5v33q0 161 60.5 227.5t183.5 66.5h27q122 0 183.5 -67t61.5 -227v-33q0 -160 -61.5 -226.5t-183.5 -66.5zM323 42q109 0 154.5 54t45.5 192v24q0 138 -45.5 192t-154.5 54t-154 -54t-45 -192v-24q0 -138 45 -192t154 -54z" />
    <glyph glyph-name="one.OP" horiz-adv-x="386" 
d="M305 600v-600h-57v555h-6l-211 -139v67l182 117h92z" />
    <glyph glyph-name="two.OP" 
d="M544 51v-51h-481v67q0 115 36.5 167t142.5 65l128 17q67 9 91.5 37t24.5 86v6q0 114 -173 114q-80 0 -122.5 -27.5t-56.5 -96.5h-58q14 95 72.5 135t157.5 40h12q108 0 167 -40t59 -120v-11q0 -76 -35 -119t-124 -54l-121 -16q-88 -12 -115.5 -48t-27.5 -133v-18h423z
" />
    <glyph glyph-name="three.OP" 
d="M319 -110h-16q-41 0 -77 9t-70.5 29.5t-58 59t-30.5 92.5h58q27 -139 185 -139q86 0 132 38.5t46 114.5v11q0 70 -32 103t-119 33h-124v52h123q81 0 110.5 29.5t29.5 92.5v11q0 133 -169 133q-65 0 -109 -27.5t-58 -101.5h-57q24 180 219 180h11q97 0 159 -42t62 -136v-9
q0 -120 -92 -147v-4q49 -11 76.5 -54t27.5 -112v-11q0 -104 -63 -154.5t-164 -50.5z" />
    <glyph glyph-name="four.OP" 
d="M463 96v-196h-57v196h-359v76l322 428h94v-455h114v-49h-114zM97 150v-5h309v409h-5z" />
    <glyph glyph-name="five.OP" 
d="M320 -110h-17q-98 0 -159.5 47t-71.5 133h58q28 -129 181 -129q85 0 131.5 46t46.5 133v12q0 178 -172 178q-136 0 -179 -95h-51l29 385h408v-51h-355l-22 -254h5q22 29 68 47t103 18q223 0 223 -226v-14q0 -106 -62 -168t-164 -62z" />
    <glyph glyph-name="six.OP" 
d="M317 -10h-15q-54 0 -91.5 10t-72 39t-52 90t-17.5 154v133q0 75 12.5 129.5t32 86t51 49.5t62.5 23.5t74 5.5h14q95 0 150 -40t75 -133h-58q-17 67 -59 94.5t-114 27.5q-46 0 -75 -7.5t-55.5 -31.5t-39 -74.5t-12.5 -129.5v-63h5q23 45 63.5 66.5t124.5 21.5
q113 0 169.5 -51.5t56.5 -162.5v-10q0 -119 -63 -173t-166 -54zM310 41q95 0 136.5 41t41.5 129v11q0 88 -41.5 129t-136.5 41t-136.5 -41t-41.5 -129v-11q0 -88 41.5 -129t136.5 -41z" />
    <glyph glyph-name="seven.OP" 
d="M560 555l-336 -655h-65l333 644v5h-445v51h513v-45z" />
    <glyph glyph-name="eight.OP" 
d="M309 -10h-13q-233 0 -233 207v5q2 134 105 167v5q-94 26 -94 145v6q0 185 225 185h7q225 0 225 -185v-6q0 -120 -94 -145v-5q104 -35 104 -167v-5q0 -207 -232 -207zM259 394h87q61 0 94 30.5t33 89.5v8q0 73 -43 105t-128 32t-127.5 -32t-42.5 -105v-8q0 -59 33 -89.5
t94 -30.5zM302 41q92 0 137 34.5t45 116.5v12q0 65 -35 103.5t-103 38.5h-87q-68 0 -103 -38.5t-35 -103.5v-12q0 -82 45 -116.5t136 -34.5z" />
    <glyph glyph-name="nine.OP" horiz-adv-x="606" 
d="M289 610h15q54 0 91.5 -10t72 -39t52 -90t17.5 -154v-133q0 -75 -12.5 -129.5t-32 -86t-51 -49.5t-62.5 -23.5t-74 -5.5h-14q-95 0 -150 40t-75 133h58q17 -67 59 -94.5t114 -27.5q46 0 75 7.5t55.5 31.5t39 74.5t12.5 129.5v63h-5q-23 -45 -63.5 -66.5t-124.5 -21.5
q-113 0 -169.5 51.5t-56.5 162.5v10q0 119 63 173t166 54zM296 559q-95 0 -136.5 -41t-41.5 -129v-11q0 -88 41.5 -129t136.5 -41t136.5 41t41.5 129v11q0 88 -41.5 129t-136.5 41z" />
    <glyph glyph-name="numbersign.OT" 
d="M389 0h-48l26 173h-162l-26 -173h-49l26 173h-120v47h126l21 161h-120v47h126l24 172h49l-24 -172h162l24 172h49l-25 -172h120v-47h-126l-21 -161h121v-47h-127zM394 381h-163l-21 -162h164z" />
    <glyph glyph-name="Euro.OT" 
d="M330 -10h-16q-40 0 -73 9t-66 31t-55 68t-31 113h-80v43h76q-1 12 -1 38v16q0 26 1 38h-76v43h80q9 67 31 113t55 68t66 31t73 9h16q189 0 221 -156h-57q-14 55 -54 80t-118 25q-71 0 -117 -37t-58 -133h315v-43h-319q-1 -11 -1 -36v-20q0 -25 1 -36h319v-43h-315
q12 -96 58 -133t117 -37q78 0 118 25t54 80h57q-32 -156 -221 -156z" />
    <glyph glyph-name="dollar.OT" 
d="M328 10v-115h-47v115q-185 7 -210 152h58q26 -103 176 -103q85 0 128 24.5t43 81.5v8q0 54 -27.5 77t-104.5 28l-101 5q-89 6 -125 43.5t-36 105.5v7q0 72 52.5 110.5t146.5 40.5v115h47v-116q81 -5 132 -38.5t64 -111.5h-59q-15 58 -55.5 80t-112.5 22q-156 0 -156 -100
v-4q0 -56 27.5 -78t105.5 -26l101 -6q90 -6 125 -43t35 -106v-10q0 -151 -207 -158z" />
    <glyph glyph-name="cent.OT" 
d="M328 -9v-96h-49v96q-91 5 -139 63t-48 190v43q0 131 48 189t139 63v96h49v-96q142 -8 172 -153h-57q-15 61 -50.5 82.5t-88.5 21.5q-28 0 -47.5 -3.5t-41 -16t-35 -35t-22.5 -63t-9 -97.5v-20q0 -57 9 -97.5t22.5 -63t35 -35t41 -16t47.5 -3.5q53 0 88.5 21.5t50.5 82.5
h57q-30 -145 -172 -153z" />
    <glyph glyph-name="sterling.OT" 
d="M471 322v-43h-277v-228h358v-51h-525v51h110v228h-110v43h110v34q0 75 15 126.5t44.5 78.5t64 38t82.5 11h14q84 0 137 -38.5t65 -117.5h-59q-20 105 -149 105q-82 0 -119.5 -44.5t-37.5 -164.5v-28h277z" />
    <glyph glyph-name="florin.OT" 
d="M291 279v-484h-58v484h-206v43h206v2q0 84 15 140t45 85t65.5 40t86.5 11h123v-51h-114q-86 0 -124.5 -48.5t-38.5 -178.5h277v-43h-277z" />
    <glyph glyph-name="yen.OT" 
d="M331 211v-211h-57v211h-204v43h202l-65 92h-137v43h107l-149 211h71l203 -296h4l203 296h67l-149 -211h109v-43h-139l-65 -92h204v-43h-205z" />
    <glyph glyph-name="zero.slash.OT" 
d="M310 -10h-15q-42 0 -73 5.5t-62.5 23.5t-51.5 48.5t-32.5 84t-12.5 126.5v44q0 73 12.5 126.5t32.5 84t51.5 48.5t62.5 23.5t73 5.5h15q54 0 91.5 -10t71.5 -39t51.5 -88.5t17.5 -150.5v-44q0 -73 -12.5 -126.5t-32.5 -84t-51.5 -48.5t-62.5 -23.5t-73 -5.5zM121 318v-36
q0 -109 26 -163l284 402q-37 37 -128 37q-46 0 -74.5 -7.5t-55.5 -31t-39.5 -73.5t-12.5 -128zM303 42q36 0 60.5 4t49.5 18t39 40t23 70.5t9 107.5v36q0 107 -25 163l-285 -401q38 -38 129 -38z" />
    <glyph glyph-name="zero.OT" 
d="M310 -10h-15q-42 0 -73 5.5t-62.5 23.5t-51.5 48.5t-32.5 84t-12.5 126.5v44q0 73 12.5 126.5t32.5 84t51.5 48.5t62.5 23.5t73 5.5h15q54 0 91.5 -10t71.5 -39t51.5 -88.5t17.5 -150.5v-44q0 -73 -12.5 -126.5t-32.5 -84t-51.5 -48.5t-62.5 -23.5t-73 -5.5zM303 42
q36 0 60.5 4t49.5 18t39 40t23 70.5t9 107.5v36q0 63 -9 107.5t-23 70.5t-39 40t-49.5 18t-60.5 4q-46 0 -74.5 -7.5t-55.5 -31t-39.5 -73.5t-12.5 -128v-36q0 -78 12.5 -128t39.5 -73.5t55.5 -31t74.5 -7.5z" />
    <glyph glyph-name="one.OT" 
d="M548 51v-51h-490v51h217v504h-6l-211 -139v67l182 117h92v-549h216z" />
    <glyph glyph-name="two.OT" 
d="M544 51v-51h-481v67q0 115 36.5 167t142.5 65l128 17q67 9 91.5 37t24.5 86v6q0 114 -173 114q-80 0 -122.5 -27.5t-56.5 -96.5h-58q14 95 72.5 135t157.5 40h12q108 0 167 -40t59 -120v-11q0 -76 -35 -119t-124 -54l-121 -16q-88 -12 -115.5 -48t-27.5 -133v-18h423z
" />
    <glyph glyph-name="three.OT" 
d="M319 -110h-16q-41 0 -77 9t-70.5 29.5t-58 59t-30.5 92.5h58q27 -139 185 -139q86 0 132 38.5t46 114.5v11q0 70 -32 103t-119 33h-124v52h123q81 0 110.5 29.5t29.5 92.5v11q0 133 -169 133q-65 0 -109 -27.5t-58 -101.5h-57q24 180 219 180h11q97 0 159 -42t62 -136v-9
q0 -120 -92 -147v-4q49 -11 76.5 -54t27.5 -112v-11q0 -104 -63 -154.5t-164 -50.5z" />
    <glyph glyph-name="four.OT" 
d="M463 96v-196h-57v196h-359v76l322 428h94v-455h114v-49h-114zM97 150v-5h309v409h-5z" />
    <glyph glyph-name="five.OT" 
d="M320 -110h-17q-98 0 -159.5 47t-71.5 133h58q28 -129 181 -129q85 0 131.5 46t46.5 133v12q0 178 -172 178q-136 0 -179 -95h-51l29 385h408v-51h-355l-22 -254h5q22 29 68 47t103 18q223 0 223 -226v-14q0 -106 -62 -168t-164 -62z" />
    <glyph glyph-name="six.OT" 
d="M317 -10h-15q-54 0 -91.5 10t-72 39t-52 90t-17.5 154v133q0 75 12.5 129.5t32 86t51 49.5t62.5 23.5t74 5.5h14q95 0 150 -40t75 -133h-58q-17 67 -59 94.5t-114 27.5q-46 0 -75 -7.5t-55.5 -31.5t-39 -74.5t-12.5 -129.5v-63h5q23 45 63.5 66.5t124.5 21.5
q113 0 169.5 -51.5t56.5 -162.5v-10q0 -119 -63 -173t-166 -54zM310 41q95 0 136.5 41t41.5 129v11q0 88 -41.5 129t-136.5 41t-136.5 -41t-41.5 -129v-11q0 -88 41.5 -129t136.5 -41z" />
    <glyph glyph-name="seven.OT" 
d="M560 555l-336 -655h-65l333 644v5h-445v51h513v-45z" />
    <glyph glyph-name="eight.OT" 
d="M309 -10h-13q-233 0 -233 207v5q2 134 105 167v5q-94 26 -94 145v6q0 185 225 185h7q225 0 225 -185v-6q0 -120 -94 -145v-5q104 -35 104 -167v-5q0 -207 -232 -207zM259 394h87q61 0 94 30.5t33 89.5v8q0 73 -43 105t-128 32t-127.5 -32t-42.5 -105v-8q0 -59 33 -89.5
t94 -30.5zM302 41q92 0 137 34.5t45 116.5v12q0 65 -35 103.5t-103 38.5h-87q-68 0 -103 -38.5t-35 -103.5v-12q0 -82 45 -116.5t136 -34.5z" />
    <glyph glyph-name="nine.OT" horiz-adv-x="606" 
d="M289 610h15q54 0 91.5 -10t72 -39t52 -90t17.5 -154v-133q0 -75 -12.5 -129.5t-32 -86t-51 -49.5t-62.5 -23.5t-74 -5.5h-14q-95 0 -150 40t-75 133h58q17 -67 59 -94.5t114 -27.5q46 0 75 7.5t55.5 31.5t39 74.5t12.5 129.5v63h-5q-23 -45 -63.5 -66.5t-124.5 -21.5
q-113 0 -169.5 51.5t-56.5 162.5v10q0 119 63 173t166 54zM296 559q-95 0 -136.5 -41t-41.5 -129v-11q0 -88 41.5 -129t136.5 -41t136.5 41t41.5 129v11q0 88 -41.5 129t-136.5 41z" />
    <glyph glyph-name="zero.numr" horiz-adv-x="367" 
d="M187 274h-7q-72 0 -109.5 37t-37.5 146v66q0 109 37.5 146t109.5 37h7q73 0 110.5 -36.5t37.5 -146.5v-66q0 -58 -11 -95.5t-32.5 -56t-45.5 -25t-59 -6.5zM184 320q51 0 74 25.5t23 107.5v74q0 82 -23 107.5t-74 25.5q-50 0 -73.5 -26t-23.5 -107v-74q0 -81 23.5 -107
t73.5 -26z" />
    <glyph glyph-name="one.numr" horiz-adv-x="268" 
d="M189 700v-420h-54v376h-4l-118 -79v59l102 64h74z" />
    <glyph glyph-name="two.numr" horiz-adv-x="367" 
d="M335 326v-46h-301v53q0 78 21.5 109.5t88.5 49.5l74 19q38 10 50.5 26t12.5 52v3q0 68 -91 68q-90 0 -96 -68h-54q7 65 49 90q41 24 96 24h7q143 0 143 -112v-8q0 -48 -20 -75.5t-72 -41.5l-80 -20q-47 -11 -61.5 -30.5t-14.5 -76.5v-16h248z" />
    <glyph glyph-name="three.numr" horiz-adv-x="367" 
d="M193 274h-9q-134 0 -149 119h53q8 -43 34 -58t67 -15q93 0 93 79v6q0 37 -16.5 53.5t-63.5 16.5h-72v46h70q42 0 58.5 15.5t16.5 49.5v5q0 69 -88 69q-79 0 -90 -67h-54q15 113 140 113h7q65 0 102 -26.5t37 -79.5v-5q0 -71 -55 -87v-4q62 -14 62 -99v-6q0 -63 -38.5 -94
t-104.5 -31z" />
    <glyph glyph-name="four.numr" horiz-adv-x="367" 
d="M292 390v-110h-54v110h-211v69l185 241h80v-265h62v-45h-62zM73 440v-5h165v222h-4z" />
    <glyph glyph-name="five.numr" horiz-adv-x="367" 
d="M194 274h-10q-58 0 -100.5 27t-46.5 86h53q13 -67 98 -67q45 0 70 24.5t25 69.5v7q0 93 -96 93q-70 0 -95 -49h-47l18 235h259v-46h-211l-12 -130h4q29 35 99 35q64 0 99.5 -34.5t35.5 -101.5v-7q0 -69 -39.5 -105.5t-103.5 -36.5z" />
    <glyph glyph-name="six.numr" horiz-adv-x="367" 
d="M190 274h-7q-35 0 -59.5 6.5t-46.5 25t-33 56t-11 95.5v66q0 110 37.5 146.5t110.5 36.5h7q61 0 96 -25t47 -82h-55q-8 34 -30 48t-61 14q-51 0 -74.5 -25.5t-23.5 -105.5v-32h4q13 24 36 36t70 12q137 0 137 -129v-5q0 -71 -39 -104.5t-105 -33.5zM185 318q51 0 73 22
t22 69v6q0 47 -22 68.5t-73 21.5t-73.5 -22t-22.5 -68v-6q0 -47 22 -69t74 -22z" />
    <glyph glyph-name="seven.numr" horiz-adv-x="367" 
d="M343 656l-196 -376h-64l198 370v4h-256v46h318v-44z" />
    <glyph glyph-name="eight.numr" horiz-adv-x="367" 
d="M187 274h-7q-147 0 -147 125v5q2 80 63 98v4q-57 15 -57 85v4q0 111 142 111h5q142 0 142 -111v-4q0 -70 -57 -85v-4q63 -19 63 -98v-5q0 -125 -147 -125zM162 522h43q69 0 69 63v5q0 71 -91 71q-90 0 -90 -71v-5q0 -63 69 -63zM183 319q49 0 73 18t24 62v7q0 74 -75 74
h-43q-75 0 -75 -74v-7q0 -44 23.5 -62t72.5 -18z" />
    <glyph glyph-name="nine.numr" horiz-adv-x="367" 
d="M176 705h7q35 0 59.5 -6.5t46.5 -24.5t33 -56t11 -96v-66q0 -58 -10.5 -96t-32.5 -56t-46 -24.5t-59 -6.5h-7q-61 0 -96 25t-47 82h55q15 -62 91 -62q51 0 74.5 26t23.5 105v32h-4q-13 -24 -36 -36t-70 -12q-137 0 -137 129v5q0 71 39 104.5t105 33.5zM181 661
q-51 0 -73 -22t-22 -69v-6q0 -47 22 -68.5t73 -21.5t73.5 22t22.5 68v6q0 47 -22 69t-74 22z" />
    <glyph glyph-name="zero.dnom" horiz-adv-x="367" 
d="M187 -6h-7q-72 0 -109.5 37t-37.5 146v66q0 109 37.5 146t109.5 37h7q73 0 110.5 -36.5t37.5 -146.5v-66q0 -58 -11 -95.5t-32.5 -56t-45.5 -25t-59 -6.5zM184 40q51 0 74 25.5t23 107.5v74q0 82 -23 107.5t-74 25.5q-50 0 -73.5 -26t-23.5 -107v-74q0 -81 23.5 -107
t73.5 -26z" />
    <glyph glyph-name="one.dnom" horiz-adv-x="268" 
d="M189 420v-420h-54v376h-4l-118 -79v59l102 64h74z" />
    <glyph glyph-name="two.dnom" horiz-adv-x="367" 
d="M335 46v-46h-301v53q0 78 21.5 109.5t88.5 49.5l74 19q38 10 50.5 26t12.5 52v3q0 68 -91 68q-90 0 -96 -68h-54q7 65 49 90q41 24 96 24h7q143 0 143 -112v-8q0 -48 -20 -75.5t-72 -41.5l-80 -20q-47 -11 -61.5 -30.5t-14.5 -76.5v-16h248z" />
    <glyph glyph-name="three.dnom" horiz-adv-x="367" 
d="M193 -6h-9q-134 0 -149 119h53q8 -43 34 -58t67 -15q93 0 93 79v6q0 37 -16.5 53.5t-63.5 16.5h-72v46h70q42 0 58.5 15.5t16.5 49.5v5q0 69 -88 69q-79 0 -90 -67h-54q15 113 140 113h7q65 0 102 -26.5t37 -79.5v-5q0 -71 -55 -87v-4q62 -14 62 -99v-6q0 -63 -38.5 -94
t-104.5 -31z" />
    <glyph glyph-name="four.dnom" horiz-adv-x="367" 
d="M292 110v-110h-54v110h-211v69l185 241h80v-265h62v-45h-62zM73 160v-5h165v222h-4z" />
    <glyph glyph-name="five.dnom" horiz-adv-x="367" 
d="M194 -6h-10q-58 0 -100.5 27t-46.5 86h53q13 -67 98 -67q45 0 70 24.5t25 69.5v7q0 93 -96 93q-70 0 -95 -49h-47l18 235h259v-46h-211l-12 -130h4q29 35 99 35q64 0 99.5 -34.5t35.5 -101.5v-7q0 -69 -39.5 -105.5t-103.5 -36.5z" />
    <glyph glyph-name="six.dnom" horiz-adv-x="367" 
d="M190 -6h-7q-35 0 -59.5 6.5t-46.5 25t-33 56t-11 95.5v66q0 110 37.5 146.5t110.5 36.5h7q61 0 96 -25t47 -82h-55q-8 34 -30 48t-61 14q-51 0 -74.5 -25.5t-23.5 -105.5v-32h4q13 24 36 36t70 12q137 0 137 -129v-5q0 -71 -39 -104.5t-105 -33.5zM185 38q51 0 73 22
t22 69v6q0 47 -22 68.5t-73 21.5t-73.5 -22t-22.5 -68v-6q0 -47 22 -69t74 -22z" />
    <glyph glyph-name="seven.dnom" horiz-adv-x="367" 
d="M343 376l-196 -376h-64l198 370v4h-256v46h318v-44z" />
    <glyph glyph-name="eight.dnom" horiz-adv-x="367" 
d="M187 -6h-7q-147 0 -147 125v5q2 80 63 98v4q-57 15 -57 85v4q0 111 142 111h5q142 0 142 -111v-4q0 -70 -57 -85v-4q63 -19 63 -98v-5q0 -125 -147 -125zM162 242h43q69 0 69 63v5q0 71 -91 71q-90 0 -90 -71v-5q0 -63 69 -63zM183 39q49 0 73 18t24 62v7q0 74 -75 74
h-43q-75 0 -75 -74v-7q0 -44 23.5 -62t72.5 -18z" />
    <glyph glyph-name="nine.dnom" horiz-adv-x="367" 
d="M176 425h7q35 0 59.5 -6.5t46.5 -24.5t33 -56t11 -96v-66q0 -58 -10.5 -96t-32.5 -56t-46 -24.5t-59 -6.5h-7q-61 0 -96 25t-47 82h55q15 -62 91 -62q51 0 74.5 25.5t23.5 105.5v32h-4q-13 -24 -36 -36t-70 -12q-137 0 -137 129v5q0 71 39 104.5t105 33.5zM181 381
q-51 0 -73 -22t-22 -69v-6q0 -47 22 -68.5t73 -21.5t73.5 22t22.5 68v6q0 47 -22 69t-74 22z" />
    <glyph glyph-name="G.alt" horiz-adv-x="712" 
d="M636 370v-370h-53v113h-4q-18 -60 -68.5 -91.5t-153.5 -31.5h-20q-268 0 -268 310v100q0 155 66.5 232.5t205.5 77.5h35q218 0 258 -192h-62q-29 140 -202 140h-23q-122 0 -170.5 -69t-48.5 -210v-58q0 -142 48.5 -210.5t170.5 -68.5h9q129 0 175 57.5t46 201.5v17h-236
v52h295z" />
    <glyph glyph-name="Gcircumflex.alt" horiz-adv-x="717" 
d="M401 860l96 -120h-51l-88 99l-88 -99h-51l95 120h87zM636 370v-370h-53v113h-4q-18 -60 -68.5 -91.5t-153.5 -31.5h-20q-268 0 -268 310v100q0 155 66.5 232.5t205.5 77.5h35q218 0 258 -192h-62q-29 140 -202 140h-23q-122 0 -170.5 -69t-48.5 -210v-58
q0 -142 48.5 -210.5t170.5 -68.5h9q129 0 175 57.5t46 201.5v17h-236v52h295z" />
    <glyph glyph-name="Gbreve.alt" horiz-adv-x="717" 
d="M358 734q-133 0 -134 126h44q0 -87 90 -87t90 87h44q-1 -126 -134 -126zM636 370v-370h-53v113h-4q-18 -60 -68.5 -91.5t-153.5 -31.5h-20q-268 0 -268 310v100q0 155 66.5 232.5t205.5 77.5h35q218 0 258 -192h-62q-29 140 -202 140h-23q-122 0 -170.5 -69t-48.5 -210
v-58q0 -142 48.5 -210.5t170.5 -68.5h9q129 0 175 57.5t46 201.5v17h-236v52h295z" />
    <glyph glyph-name="Gdotaccent.alt" horiz-adv-x="717" 
d="M329 834h57v-69h-57v69zM636 370v-370h-53v113h-4q-18 -60 -68.5 -91.5t-153.5 -31.5h-20q-268 0 -268 310v100q0 155 66.5 232.5t205.5 77.5h35q218 0 258 -192h-62q-29 140 -202 140h-23q-122 0 -170.5 -69t-48.5 -210v-58q0 -142 48.5 -210.5t170.5 -68.5h9
q129 0 175 57.5t46 201.5v17h-236v52h295z" />
    <glyph glyph-name="Gcommaaccent.alt" horiz-adv-x="717" 
d="M636 370v-370h-53v113h-4q-18 -60 -68.5 -91.5t-153.5 -31.5h-20q-268 0 -268 310v100q0 155 66.5 232.5t205.5 77.5h35q218 0 258 -192h-62q-29 140 -202 140h-23q-122 0 -170.5 -69t-48.5 -210v-58q0 -142 48.5 -210.5t170.5 -68.5h9q129 0 175 57.5t46 201.5v17h-236
v52h295zM379 -147l-14 -23h-40l36 64v6h-51v46h92v-11q0 -37 -23 -82z" />
    <glyph glyph-name="J.alt" horiz-adv-x="607" 
d="M308 -10h-23q-201 0 -224 195l-2 15h60l2 -15q10 -68 49 -105t124 -37h4q101 0 139 53t38 163v441h59v-452q0 -129 -53.5 -193.5t-172.5 -64.5z" />
    <glyph glyph-name="Jcircumflex.alt" horiz-adv-x="607" 
d="M547 860l96 -120h-51l-88 99l-88 -99h-51l95 120h87zM308 -10h-23q-201 0 -224 195l-2 15h60l2 -15q10 -68 49 -105t124 -37h4q101 0 139 53t38 163v441h59v-452q0 -129 -53.5 -193.5t-172.5 -64.5z" />
    <glyph glyph-name="K.alt" horiz-adv-x="610" 
d="M139 700v-700h-59v700h59zM226 355l374 -355h-82l-368 350l349 350h71z" />
    <glyph glyph-name="Kcommaaccent.alt" horiz-adv-x="610" 
d="M139 700v-700h-59v700h59zM226 355l374 -355h-82l-368 350l349 350h71zM336 -147l-14 -23h-40l36 64v6h-51v46h92v-11q0 -37 -23 -82z" />
    <glyph glyph-name="Q.alt" horiz-adv-x="717" 
d="M376 -10h-35q-139 0 -205.5 77.5t-66.5 232.5v100q0 155 66.5 232.5t205.5 77.5h35q139 0 205 -77.5t66 -232.5v-100q0 -256 -184 -301l146 -169h-78l-133 161q-7 -1 -22 -1zM347 42h23q123 0 170.5 68.5t47.5 210.5v58q0 142 -48 210.5t-170 68.5h-23q-122 0 -170.5 -69
t-48.5 -210v-58q0 -142 48.5 -210.5t170.5 -68.5z" />
    <glyph glyph-name="R.alt" horiz-adv-x="648" 
d="M139 323v-323h-59v700h317q105 0 153 -41.5t48 -141.5v-10q0 -96 -47 -138.5t-151 -42.5l211 -326h-71l-208 323h-193zM385 649h-246v-274h244q87 0 121.5 28.5t34.5 104.5v9q0 77 -35 104q-34 28 -119 28z" />
    <glyph glyph-name="Racute.alt" horiz-adv-x="648" 
d="M457 860l-96 -120h-50l79 120h67zM139 323v-323h-59v700h317q105 0 153 -41.5t48 -141.5v-10q0 -96 -47 -138.5t-151 -42.5l211 -326h-71l-208 323h-193zM385 649h-246v-274h244q87 0 121.5 28.5t34.5 104.5v9q0 77 -35 104q-34 28 -119 28z" />
    <glyph glyph-name="Rcaron.alt" horiz-adv-x="648" 
d="M335 761l88 99h51l-96 -120h-87l-95 120h51zM139 323v-323h-59v700h317q105 0 153 -41.5t48 -141.5v-10q0 -96 -47 -138.5t-151 -42.5l211 -326h-71l-208 323h-193zM385 649h-246v-274h244q87 0 121.5 28.5t34.5 104.5v9q0 77 -35 104q-34 28 -119 28z" />
    <glyph glyph-name="Rcommaaccent.alt" horiz-adv-x="648" 
d="M139 323v-323h-59v700h317q105 0 153 -41.5t48 -141.5v-10q0 -96 -47 -138.5t-151 -42.5l211 -326h-71l-208 323h-193zM385 649h-246v-274h244q87 0 121.5 28.5t34.5 104.5v9q0 77 -35 104q-34 28 -119 28zM345 -147l-14 -23h-40l36 64v6h-51v46h92v-11q0 -37 -23 -82z
" />
    <glyph glyph-name="a.alt" horiz-adv-x="555" 
d="M490 530v-530h-56v78h-5q-18 -46 -55.5 -67t-105.5 -21h-5q-108 0 -160 54.5t-52 195.5v50q0 141 52 195.5t160 54.5h5q68 0 105.5 -21t55.5 -67h5v78h56zM271 40q41 0 66.5 6.5t50 27.5t35.5 65.5t11 115.5v19q0 71 -11 116t-35.5 66t-50 27.5t-66.5 6.5t-66.5 -6.5
t-50 -27.5t-35.5 -66t-11 -116v-18q0 -71 11 -116t35.5 -66t50 -27.5t66.5 -6.5z" />
    <glyph glyph-name="agrave.alt" horiz-adv-x="555" 
d="M220 700l79 -120h-50l-96 120h67zM490 530v-530h-56v78h-5q-18 -46 -55.5 -67t-105.5 -21h-5q-108 0 -160 54.5t-52 195.5v50q0 141 52 195.5t160 54.5h5q68 0 105.5 -21t55.5 -67h5v78h56zM271 40q41 0 66.5 6.5t50 27.5t35.5 65.5t11 115.5v19q0 71 -11 116t-35.5 66
t-50 27.5t-66.5 6.5t-66.5 -6.5t-50 -27.5t-35.5 -66t-11 -116v-18q0 -71 11 -116t35.5 -66t50 -27.5t66.5 -6.5z" />
    <glyph glyph-name="aacute.alt" horiz-adv-x="555" 
d="M395 700l-96 -120h-50l79 120h67zM490 530v-530h-56v78h-5q-18 -46 -55.5 -67t-105.5 -21h-5q-108 0 -160 54.5t-52 195.5v50q0 141 52 195.5t160 54.5h5q68 0 105.5 -21t55.5 -67h5v78h56zM271 40q41 0 66.5 6.5t50 27.5t35.5 65.5t11 115.5v19q0 71 -11 116t-35.5 66
t-50 27.5t-66.5 6.5t-66.5 -6.5t-50 -27.5t-35.5 -66t-11 -116v-18q0 -71 11 -116t35.5 -66t50 -27.5t66.5 -6.5z" />
    <glyph glyph-name="acircumflex.alt" horiz-adv-x="555" 
d="M317 700l96 -120h-51l-88 99l-88 -99h-51l95 120h87zM490 530v-530h-56v78h-5q-18 -46 -55.5 -67t-105.5 -21h-5q-108 0 -160 54.5t-52 195.5v50q0 141 52 195.5t160 54.5h5q68 0 105.5 -21t55.5 -67h5v78h56zM271 40q41 0 66.5 6.5t50 27.5t35.5 65.5t11 115.5v19
q0 71 -11 116t-35.5 66t-50 27.5t-66.5 6.5t-66.5 -6.5t-50 -27.5t-35.5 -66t-11 -116v-18q0 -71 11 -116t35.5 -66t50 -27.5t66.5 -6.5z" />
    <glyph glyph-name="atilde.alt" horiz-adv-x="555" 
d="M338 596q-28 0 -69 24.5t-56 24.5q-35 0 -41 -46h-40q10 85 78 85q28 0 69 -24t56 -24q35 0 41 46h40q-9 -86 -78 -86zM490 530v-530h-56v78h-5q-18 -46 -55.5 -67t-105.5 -21h-5q-108 0 -160 54.5t-52 195.5v50q0 141 52 195.5t160 54.5h5q68 0 105.5 -21t55.5 -67h5v78
h56zM271 40q41 0 66.5 6.5t50 27.5t35.5 65.5t11 115.5v19q0 71 -11 116t-35.5 66t-50 27.5t-66.5 6.5t-66.5 -6.5t-50 -27.5t-35.5 -66t-11 -116v-18q0 -71 11 -116t35.5 -66t50 -27.5t66.5 -6.5z" />
    <glyph glyph-name="adieresis.alt" horiz-adv-x="555" 
d="M166 674h53v-69h-53v69zM329 674h53v-69h-53v69zM490 530v-530h-56v78h-5q-18 -46 -55.5 -67t-105.5 -21h-5q-108 0 -160 54.5t-52 195.5v50q0 141 52 195.5t160 54.5h5q68 0 105.5 -21t55.5 -67h5v78h56zM271 40q41 0 66.5 6.5t50 27.5t35.5 65.5t11 115.5v19
q0 71 -11 116t-35.5 66t-50 27.5t-66.5 6.5t-66.5 -6.5t-50 -27.5t-35.5 -66t-11 -116v-18q0 -71 11 -116t35.5 -66t50 -27.5t66.5 -6.5z" />
    <glyph glyph-name="amacron.alt" horiz-adv-x="555" 
d="M409 661v-42h-270v42h270zM490 530v-530h-56v78h-5q-18 -46 -55.5 -67t-105.5 -21h-5q-108 0 -160 54.5t-52 195.5v50q0 141 52 195.5t160 54.5h5q68 0 105.5 -21t55.5 -67h5v78h56zM271 40q41 0 66.5 6.5t50 27.5t35.5 65.5t11 115.5v19q0 71 -11 116t-35.5 66t-50 27.5
t-66.5 6.5t-66.5 -6.5t-50 -27.5t-35.5 -66t-11 -116v-18q0 -71 11 -116t35.5 -66t50 -27.5t66.5 -6.5z" />
    <glyph glyph-name="abreve.alt" horiz-adv-x="555" 
d="M274 574q-133 0 -134 126h44q0 -87 90 -87t90 87h44q-1 -126 -134 -126zM490 530v-530h-56v78h-5q-18 -46 -55.5 -67t-105.5 -21h-5q-108 0 -160 54.5t-52 195.5v50q0 141 52 195.5t160 54.5h5q68 0 105.5 -21t55.5 -67h5v78h56zM271 40q41 0 66.5 6.5t50 27.5t35.5 65.5
t11 115.5v19q0 71 -11 116t-35.5 66t-50 27.5t-66.5 6.5t-66.5 -6.5t-50 -27.5t-35.5 -66t-11 -116v-18q0 -71 11 -116t35.5 -66t50 -27.5t66.5 -6.5z" />
    <glyph glyph-name="aring.alt" horiz-adv-x="555" 
d="M274 572q-103 0 -103 98t103 98t103 -98t-103 -98zM274 608q62 0 62 62t-62 62t-62 -62t62 -62zM490 530v-530h-56v78h-5q-18 -46 -55.5 -67t-105.5 -21h-5q-108 0 -160 54.5t-52 195.5v50q0 141 52 195.5t160 54.5h5q68 0 105.5 -21t55.5 -67h5v78h56zM271 40
q41 0 66.5 6.5t50 27.5t35.5 65.5t11 115.5v19q0 71 -11 116t-35.5 66t-50 27.5t-66.5 6.5t-66.5 -6.5t-50 -27.5t-35.5 -66t-11 -116v-18q0 -71 11 -116t35.5 -66t50 -27.5t66.5 -6.5z" />
    <glyph glyph-name="aringacute.alt" horiz-adv-x="556" 
d="M395 920l-96 -120h-50l79 120h67zM274 571q-103 0 -103 98t103 98t103 -98t-103 -98zM274 607q62 0 62 62t-62 62t-62 -62t62 -62zM490 530v-530h-56v78h-5q-18 -46 -55.5 -67t-105.5 -21h-5q-108 0 -160 54.5t-52 195.5v50q0 141 52 195.5t160 54.5h5q68 0 105.5 -21
t55.5 -67h5v78h56zM271 40q41 0 66.5 6.5t50 27.5t35.5 65.5t11 115.5v19q0 71 -11 116t-35.5 66t-50 27.5t-66.5 6.5t-66.5 -6.5t-50 -27.5t-35.5 -66t-11 -116v-18q0 -71 11 -116t35.5 -66t50 -27.5t66.5 -6.5z" />
    <glyph glyph-name="aogonek.alt" horiz-adv-x="556" 
d="M490 -99v-41h-36q-46 0 -67.5 16t-21.5 53q0 29 13.5 47.5t55.5 37.5v64h-5q-18 -46 -55.5 -67t-105.5 -21h-5q-108 0 -160 54.5t-52 195.5v50q0 141 52 195.5t160 54.5h5q68 0 105.5 -21t55.5 -67h5v78h56v-530q-46 -19 -59 -31q-12 -13 -12 -34q0 -18 11.5 -26t39.5 -8
h20zM271 40q41 0 66.5 6.5t50 27.5t35.5 65.5t11 115.5v19q0 71 -11 116t-35.5 66t-50 27.5t-66.5 6.5t-66.5 -6.5t-50 -27.5t-35.5 -66t-11 -116v-18q0 -71 11 -116t35.5 -66t50 -27.5t66.5 -6.5z" />
    <glyph glyph-name="a.superior.alt" horiz-adv-x="450" 
d="M397 700v-420h-55v61h-3q-25 -69 -125 -69h-4q-82 0 -125.5 44.5t-43.5 156.5v34q0 112 43.5 156.5t125.5 44.5h4q100 0 125 -69h3v61h55zM219 319q61 0 92 31.5t31 131.5v16q0 52 -9 86t-27.5 50t-38 21.5t-48.5 5.5q-60 0 -92 -32t-32 -131v-16q0 -53 9.5 -87t28 -49.5
t38 -21t48.5 -5.5z" />
    <glyph glyph-name="k.alt" horiz-adv-x="470" 
d="M122 700v-700h-57v700h57zM204 282l254 -282h-73l-251 279l234 251h68z" />
    <glyph glyph-name="kcommaaccent.alt" horiz-adv-x="509" 
d="M122 700v-700h-57v700h57zM204 282l254 -282h-73l-251 279l234 251h68zM274 -147l-14 -23h-40l36 64v6h-51v46h92v-11q0 -37 -23 -82z" />
    <glyph glyph-name="k.superior.alt" horiz-adv-x="377" 
d="M106 834v-554h-54v554h54zM375 280h-66l-193 244l177 176h66l-179 -176z" />
    <glyph glyph-name="ampersand.alt" horiz-adv-x="726" 
d="M555 348v-348h-256q-109 0 -165.5 48t-56.5 155v5q0 145 107 169v4q-98 19 -98 146v5q0 168 197 168h244v-51h-245q-138 0 -138 -122v-7q0 -73 42 -97t124 -24h187v122h58v-122h171v-51h-171zM307 51h190v297h-191q-92 0 -131.5 -28t-39.5 -113v-4q0 -85 43 -118.5
t129 -33.5z" />
    <glyph glyph-name="registered.alt" horiz-adv-x="753" 
d="M415 -10h-76q-159 0 -236 83t-77 237v80q0 154 77 237t236 83h76q159 0 236 -83t77 -237v-80q0 -154 -77 -237t-236 -83zM350 25h53q162 0 224 77.5t62 231.5v32q0 154 -62 231.5t-224 77.5h-53q-83 0 -139.5 -21t-87.5 -63t-44 -96t-13 -129v-32q0 -75 13 -129t44 -96
t87.5 -63t139.5 -21zM282 326v-186h-51v420h196q67 0 96.5 -25.5t29.5 -89.5v-6q0 -55 -27 -81.5t-84 -28.5l121 -189h-62l-117 186h-102zM418 516h-136v-147h135q47 0 65.5 15t18.5 56v5q0 41 -18.5 56t-64.5 15z" />
    <glyph glyph-name="NULL" horiz-adv-x="0" 
 />
    <glyph glyph-name="CR" horiz-adv-x="219" 
 />
    </font>
</defs>
</svg>
