<?xml version="1.0" standalone="no"?>
<!DOCTYPE svg PUBLIC "-//W3C//DTD SVG 1.1//EN" "http://www.w3.org/Graphics/SVG/1.1/DTD/svg11.dtd" >
<svg xmlns="http://www.w3.org/2000/svg" xmlns:xlink="http://www.w3.org/1999/xlink" version="1.1">
<metadata>
Created by FontForge 20170731 at Wed Jul 11 08:47:56 2018
 By Aleksey,,,
(c) 2018 Stephane Elbaz under exclusive license to General Type LLC. All rights reserved.
</metadata>
<defs>
<font id="Pilat-Book" horiz-adv-x="617" >
  <font-face 
    font-family="Pilat Book"
    font-weight="450"
    font-stretch="normal"
    units-per-em="1000"
    panose-1="2 11 6 3 3 0 0 0 0 4"
    ascent="750"
    descent="-250"
    x-height="530"
    cap-height="700"
    bbox="-134 -205 1234 1080"
    underline-thickness="58"
    underline-position="-208"
    unicode-range="U+0020-FB00"
  />
<missing-glyph horiz-adv-x="700" 
d="M369 -80q-113 0 -190 78.5t-77 187.5v18l-19 31q-15 25 -9 53q6 29 31 44l7 4q18 13 43 11q-7 24 0.5 46t28.5 35l7 4q20 12 41 11l-76 120q-12 21 -12 39q0 30 21.5 52.5t51.5 22.5q42 0 65 -35l139 -221v224q0 31 21.5 53t52.5 22t52.5 -22t21.5 -53v-286
q30 -15 48 -43t18 -63v-62q0 -65 -30 -126t-92.5 -103t-143.5 -42zM451 645v-274h66q8 0 22 -2v276q0 18 -13 31t-31 13t-31 -13t-13 -31zM182 579l127 -203l24 -37q13 32 50 32h33l-160 255q-12 20 -37 20q-18 0 -31 -13t-13 -31q0 -12 7 -23zM313 220l8 5q13 9 17 24.5
t-5 30.5l-72 114q-9 14 -25 17.5t-29 -4.5l-8 -5q-13 -9 -17 -25.5t5 -29.5l72 -114q9 -14 25 -17.5t29 4.5zM359 138q0 25 12.5 50t29.5 33q-16 1 -34 15q-7 -25 -29 -37l-7 -4q-18 -11 -43 -11q8 -23 -0.5 -45.5t-28.5 -35.5l-8 -5q-24 -15 -51.5 -8.5t-44.5 31.5l-20 30
q10 -85 78.5 -143t154.5 -58q99 0 168 71.5t69 169.5v62q0 36 -26 62t-62 26h-134q-10 0 -17 -7.5t-7 -19.5q0 -27 19 -47.5t48 -20.5h42q6 0 10.5 -4.5t4.5 -10.5t-4.5 -10.5t-10.5 -4.5q-34 0 -55.5 -23.5t-21.5 -54.5q0 -6 -5 -10.5t-11 -4.5t-11 4.5t-5 10.5zM235 124
l8 5q13 9 17 24.5t-5 30.5l-72 114q-9 14 -25 17.5t-29 -4.5l-8 -5q-13 -9 -17 -25.5t5 -29.5l72 -114q9 -14 25 -17.5t29 4.5z" />
    <glyph glyph-name="f_f" unicode="ff" horiz-adv-x="686" 
d="M116 455h-108v75h108q2 98 44 134t130 36h67v-72h-56q-51 0 -73 -20t-22 -78h229q2 98 44 134t130 36h67v-72h-56q-52 0 -73.5 -20t-21.5 -78h151v-75h-151v-455h-90v455h-229v-455h-90v455z" />
    <glyph glyph-name=".notdef" horiz-adv-x="700" 
d="M369 -80q-113 0 -190 78.5t-77 187.5v18l-19 31q-15 25 -9 53q6 29 31 44l7 4q18 13 43 11q-7 24 0.5 46t28.5 35l7 4q20 12 41 11l-76 120q-12 21 -12 39q0 30 21.5 52.5t51.5 22.5q42 0 65 -35l139 -221v224q0 31 21.5 53t52.5 22t52.5 -22t21.5 -53v-286
q30 -15 48 -43t18 -63v-62q0 -65 -30 -126t-92.5 -103t-143.5 -42zM451 645v-274h66q8 0 22 -2v276q0 18 -13 31t-31 13t-31 -13t-13 -31zM182 579l127 -203l24 -37q13 32 50 32h33l-160 255q-12 20 -37 20q-18 0 -31 -13t-13 -31q0 -12 7 -23zM313 220l8 5q13 9 17 24.5
t-5 30.5l-72 114q-9 14 -25 17.5t-29 -4.5l-8 -5q-13 -9 -17 -25.5t5 -29.5l72 -114q9 -14 25 -17.5t29 4.5zM359 138q0 25 12.5 50t29.5 33q-16 1 -34 15q-7 -25 -29 -37l-7 -4q-18 -11 -43 -11q8 -23 -0.5 -45.5t-28.5 -35.5l-8 -5q-24 -15 -51.5 -8.5t-44.5 31.5l-20 30
q10 -85 78.5 -143t154.5 -58q99 0 168 71.5t69 169.5v62q0 36 -26 62t-62 26h-134q-10 0 -17 -7.5t-7 -19.5q0 -27 19 -47.5t48 -20.5h42q6 0 10.5 -4.5t4.5 -10.5t-4.5 -10.5t-10.5 -4.5q-34 0 -55.5 -23.5t-21.5 -54.5q0 -6 -5 -10.5t-11 -4.5t-11 4.5t-5 10.5zM235 124
l8 5q13 9 17 24.5t-5 30.5l-72 114q-9 14 -25 17.5t-29 -4.5l-8 -5q-13 -9 -17 -25.5t5 -29.5l72 -114q9 -14 25 -17.5t29 4.5z" />
    <glyph glyph-name=".null" horiz-adv-x="0" 
 />
    <glyph glyph-name="nonmarkingreturn" horiz-adv-x="333" 
 />
    <glyph glyph-name="space" unicode=" " horiz-adv-x="213" 
 />
    <glyph glyph-name="exclam" unicode="!" horiz-adv-x="247" 
d="M72 403v297h103v-297l-22 -174h-59zM183 0h-119v121h119v-121z" />
    <glyph glyph-name="quotedbl" unicode="&#x22;" horiz-adv-x="350" 
d="M132 700v-259h-83v259h83zM301 700v-259h-83v259h83z" />
    <glyph glyph-name="numbersign" unicode="#" 
d="M401 0h-68l28 192h-146l-28 -192h-69l30 192h-113v73h121l22 171h-112v73h121l29 191h69l-30 -191h146l29 191h69l-30 -191h112v-73h-121l-22 -171h113v-73h-122zM395 438h-151l-22 -176h150z" />
    <glyph glyph-name="dollar" unicode="$" 
d="M348 11v-116h-67v116q-185 11 -219 156h99q28 -84 155 -84q161 0 161 119v7q0 56 -29.5 77.5t-106.5 26.5l-93 6q-98 6 -140 49.5t-42 122.5v7q0 89 53 137.5t155 53.5v116h67v-116q188 -12 212 -156h-100q-24 84 -146 84q-146 0 -146 -108v-4q0 -56 29.5 -77.5
t106.5 -25.5l94 -6q97 -6 139.5 -49.5t42.5 -122.5v-11q0 -101 -63 -149q-62 -49 -162 -53z" />
    <glyph glyph-name="percent" unicode="%" horiz-adv-x="780" 
d="M194 347h-11q-152 0 -152 175v12q0 176 152 176h11q151 0 151 -176v-12q0 -175 -151 -175zM608 700l-371 -700h-65l370 700h66zM189 410q47 0 67 27t20 87v9q0 61 -20 87.5t-67 26.5t-68 -27t-21 -87v-9q0 -60 21 -87t68 -27zM597 -10h-10q-153 0 -153 176v12
q0 175 153 175h10q151 0 151 -175v-12q0 -176 -151 -176zM591 53q47 0 68 27t21 87v9q0 60 -21 87t-68 27t-67.5 -27t-20.5 -87v-9q0 -60 20.5 -87t67.5 -27z" />
    <glyph glyph-name="ampersand" unicode="&#x26;" horiz-adv-x="742" 
d="M721 84v-84h-18q-39 0 -57.5 7t-44.5 27l-61 48q-44 -54 -95 -73t-133 -19h-29q-121 0 -184 49.5t-63 164.5v4q0 76 29.5 121t91.5 67v4q-54 45 -54 126v4q0 87 56 133.5t166 46.5h6q105 0 165.5 -43.5t70.5 -143.5h-93q-23 103 -141 103h-4q-126 0 -126 -95v-4
q0 -32 14.5 -57.5t54.5 -57.5l256 -202l76 173h93l-103 -226l63 -50q28 -23 54 -23h10zM299 72h30q50 0 83 13t62 49l-259 203q-43 -12 -64 -39t-21 -79v-12q0 -71 41.5 -103t127.5 -32z" />
    <glyph glyph-name="quotesingle" unicode="'" horiz-adv-x="182" 
d="M132 700v-259h-83v259h83z" />
    <glyph glyph-name="parenleft" unicode="(" horiz-adv-x="313" 
d="M267 -28v-62q-103 18 -155 107.5t-52 262.5v50q0 173 52 262.5t155 107.5v-62q-73 -21 -107.5 -95.5t-34.5 -221.5v-32q0 -147 34.5 -221.5t107.5 -95.5z" />
    <glyph glyph-name="parenright" unicode=")" horiz-adv-x="313" 
d="M38 638v62q207 -37 207 -370v-50q0 -333 -207 -370v62q73 21 107.5 95.5t34.5 221.5v32q0 147 -34.5 221.5t-107.5 95.5z" />
    <glyph glyph-name="asterisk" unicode="*" horiz-adv-x="411" 
d="M341 390l-55 -44l-78 116h-5l-78 -116l-54 44l86 111l-1 3l-134 38l23 71l130 -52l3 2l-6 137h68l-7 -137l3 -2l131 52l22 -71l-134 -38l-1 -3z" />
    <glyph glyph-name="plus" unicode="+" horiz-adv-x="589" 
d="M261 295h-200v68h200v213h68v-213h199v-68h-199v-212h-68v212z" />
    <glyph glyph-name="comma" unicode="," horiz-adv-x="236" 
d="M137 -119l-11 -21h-64l61 133v7h-68v121h127v-72q0 -45 -9 -81t-36 -87z" />
    <glyph glyph-name="hyphen" unicode="-" horiz-adv-x="269" 
d="M253 251h-238v83h238v-83z" />
    <glyph glyph-name="period" unicode="." horiz-adv-x="236" 
d="M178 0h-120v121h120v-121z" />
    <glyph glyph-name="slash" unicode="/" horiz-adv-x="408" 
d="M64 -100h-64l345 800h63z" />
    <glyph glyph-name="zero" unicode="0" horiz-adv-x="662" 
d="M342 -10h-23q-134 0 -198.5 70.5t-64.5 241.5v96q0 171 64.5 241.5t198.5 70.5h23q135 0 199.5 -70.5t64.5 -241.5v-96q0 -171 -65 -241.5t-199 -70.5zM331 76q100 0 140 50t40 179v90q0 129 -40 179t-140 50q-101 0 -141 -49.5t-40 -179.5v-90q0 -130 40 -179.5
t141 -49.5z" />
    <glyph glyph-name="one" unicode="1" horiz-adv-x="410" 
d="M338 700v-700h-94v622h-5l-205 -138v110l170 106h134z" />
    <glyph glyph-name="two" unicode="2" 
d="M564 84v-84h-510v95q0 127 37.5 179.5t150.5 78.5l123 31q61 15 83 41.5t22 81.5v6q0 113 -151 113q-73 0 -112.5 -24.5t-47.5 -83.5h-94q18 192 245 192h12q242 0 242 -191v-11q0 -80 -33 -130q-32 -48 -124 -71l-133 -33q-78 -18 -102 -48.5t-24 -119.5v-22h416z" />
    <glyph glyph-name="three" unicode="3" 
d="M325 -10h-16q-45 0 -85.5 10.5t-77 32.5t-60.5 62t-30 95h94q14 -66 57.5 -91t109.5 -25q157 0 157 126v10q0 58 -28.5 84.5t-105.5 26.5h-122v86h118q70 0 97.5 24.5t27.5 75.5v9q0 110 -147 110q-130 0 -149 -106h-94q30 190 238 190h11q109 0 172 -45t63 -132v-7
q0 -121 -96 -146v-5q108 -26 108 -164v-10q0 -104 -65 -157.5t-177 -53.5z" />
    <glyph glyph-name="four" unicode="4" 
d="M492 184v-184h-94v184h-355v128l310 388h139v-437h104v-79h-104zM113 268v-5h285v357h-4z" />
    <glyph glyph-name="five" unicode="5" 
d="M326 -10h-16q-107 0 -173 48t-77 142h94q23 -106 163 -106q157 0 157 150v11q0 149 -157 149q-125 0 -160 -79h-84l30 395h440v-84h-355l-19 -210h5q50 58 163 58q231 0 231 -225v-12q0 -111 -66 -174t-176 -63z" />
    <glyph glyph-name="six" unicode="6" 
d="M323 -10h-13q-60 0 -101.5 11.5t-78.5 43.5t-55 96t-18 162v94q0 97 18.5 161.5t55 96.5t77 43.5t99.5 11.5h12q102 0 161.5 -42.5t79.5 -137.5h-94q-15 53 -51.5 74.5t-100.5 21.5q-41 0 -68 -7.5t-50 -29.5t-34 -65t-11 -111v-47h5q22 40 61.5 60t117.5 20
q230 0 230 -216v-9q0 -115 -66 -173t-176 -58zM313 72q83 0 120.5 35t37.5 108v11q0 73 -37 108t-121 35q-83 0 -120.5 -35t-37.5 -108v-11q0 -73 37 -108t121 -35z" />
    <glyph glyph-name="seven" unicode="7" 
d="M579 619l-331 -619h-112l335 610v6h-431v84h539v-81z" />
    <glyph glyph-name="eight" unicode="8" 
d="M314 -10h-11q-249 0 -249 211v6q2 133 103 164v5q-93 27 -93 142v5q0 93 62.5 140t178.5 47h7q116 0 178 -47t62 -140v-5q0 -115 -92 -142v-5q102 -32 102 -164v-6q0 -112 -67 -161.5t-181 -49.5zM273 407h70q115 0 115 100v8q0 61 -37 86.5t-113 25.5q-75 0 -112 -25.5
t-37 -86.5v-8q0 -100 114 -100zM308 72q82 0 121.5 28.5t39.5 98.5v11q0 58 -31.5 89t-93.5 31h-71q-63 0 -94 -31t-31 -89v-11q0 -70 39.5 -98.5t120.5 -28.5z" />
    <glyph glyph-name="nine" unicode="9" 
d="M294 710h13q60 0 101.5 -11.5t78.5 -43.5t55 -96t18 -162v-94q0 -97 -18.5 -161.5t-55 -96.5t-77 -43.5t-99.5 -11.5h-12q-102 0 -161.5 42.5t-79.5 137.5h94q17 -53 53 -74.5t99 -21.5q41 0 68 7.5t50 29.5t34 65t11 111v47h-5q-20 -40 -61 -60t-118 -20
q-230 0 -230 216v9q0 115 66 173t176 58zM304 628q-84 0 -121 -35t-37 -108v-11q0 -73 37 -108t121 -35t121 35t37 108v11q0 73 -37 108t-121 35z" />
    <glyph glyph-name="colon" unicode=":" horiz-adv-x="236" 
d="M178 409h-120v121h120v-121zM178 0h-120v121h120v-121z" />
    <glyph glyph-name="semicolon" unicode=";" horiz-adv-x="236" 
d="M179 409h-120v121h120v-121zM137 -119l-11 -21h-64l61 133v7h-68v121h127v-72q0 -45 -9 -81t-36 -87z" />
    <glyph glyph-name="less" unicode="&#x3c;" horiz-adv-x="589" 
d="M522 189v-74l-452 181v65l452 181v-74l-354 -137v-4z" />
    <glyph glyph-name="equal" unicode="=" horiz-adv-x="589" 
d="M509 411h-429v68h429v-68zM509 179h-429v67h429v-67z" />
    <glyph glyph-name="greater" unicode="&#x3e;" horiz-adv-x="589" 
d="M70 468v74l452 -181v-65l-452 -181v74l354 137v4z" />
    <glyph glyph-name="question" unicode="?" horiz-adv-x="526" 
d="M292 228h-93v14q0 40 21 67t78 65q59 39 80 68t21 74v4q0 51 -33 78.5t-96 27.5q-120 0 -140 -126h-93q12 106 73 158t156 52h8q102 0 160.5 -49t58.5 -132v-6q0 -71 -28 -113.5t-106 -92.5q-38 -27 -51.5 -44.5t-15.5 -44.5zM305 0h-120v121h120v-121z" />
    <glyph glyph-name="at" unicode="@" horiz-adv-x="916" 
d="M471 -154q-198 0 -310.5 92t-112.5 282v37q0 195 113.5 311t309.5 116q186 0 298 -89t112 -274v-17q0 -134 -49.5 -211t-155.5 -77q-115 0 -117 85h-4q-40 -67 -133 -67h-6q-83 0 -121.5 47t-27.5 164l3 26q11 114 58.5 161.5t129.5 47.5h6q104 0 122 -68h5l7 60h85
l-42 -309q-7 -54 4.5 -73.5t50.5 -19.5q59 0 93 58.5t34 179.5v18q0 305 -361 305q-88 0 -157 -29t-111.5 -80.5t-64.5 -118.5t-22 -147v-40q0 -317 370 -317q97 0 181 21v-52q-81 -22 -187 -22zM451 104q52 0 83 30.5t39 111.5l3 28q8 84 -18.5 110t-81.5 26
q-51 0 -82.5 -30t-39.5 -111l-2 -28q-8 -84 18.5 -110.5t80.5 -26.5z" />
    <glyph glyph-name="A" unicode="A" horiz-adv-x="720" 
d="M433 700l266 -700h-107l-75 198h-318l-74 -198h-104l265 700h147zM361 618h-5l-126 -336h257z" />
    <glyph glyph-name="B" unicode="B" horiz-adv-x="683" 
d="M624 211v-33q0 -95 -49.5 -136.5t-160.5 -41.5h-344v700h333q115 0 164 -38.5t49 -130.5v-20q0 -71 -24.5 -105t-75.5 -41v-5q55 -6 81.5 -41t26.5 -108zM383 616h-216v-218h219q78 0 105.5 19.5t27.5 80.5v8q0 63 -29 86.5t-107 23.5zM383 319h-216v-235h220
q80 0 110 24t30 88v12q0 69 -29.5 90t-114.5 21z" />
    <glyph glyph-name="C" unicode="C" horiz-adv-x="708" 
d="M379 -10h-33q-151 0 -219 77.5t-68 240.5v84q0 163 68 240.5t219 77.5h33q122 0 189 -52.5t90 -166.5h-100q-17 69 -62 100.5t-124 31.5h-19q-112 0 -154 -60.5t-42 -186.5v-52q0 -126 42 -186.5t154 -60.5h19q79 0 124 31.5t62 100.5h100q-23 -114 -90 -166.5
t-189 -52.5z" />
    <glyph glyph-name="D" unicode="D" horiz-adv-x="713" 
d="M653 381v-63q0 -162 -71.5 -240t-223.5 -78h-288v700h288q151 0 223 -78.5t72 -240.5zM354 616h-187v-532h187q112 0 156.5 62.5t44.5 187.5v32q0 125 -44.5 187.5t-156.5 62.5z" />
    <glyph glyph-name="E" unicode="E" horiz-adv-x="606" 
d="M555 85v-85h-485v700h485v-85h-388v-222h388v-85h-388v-223h388z" />
    <glyph glyph-name="F" unicode="F" horiz-adv-x="598" 
d="M167 308v-308h-97v700h485v-85h-388v-222h388v-85h-388z" />
    <glyph glyph-name="G" unicode="G" horiz-adv-x="729" 
d="M377 -10h-23q-152 0 -223.5 78t-71.5 240v83q0 163 71.5 241t223.5 78h23q240 0 283 -201h-102q-28 114 -182 114h-21q-112 0 -155 -60.5t-43 -186.5v-52q0 -126 43 -186.5t155 -60.5h23q110 1 152.5 54t42.5 170v1h-224v85h321v-79q0 -162 -71 -240t-222 -78z" />
    <glyph glyph-name="H" unicode="H" horiz-adv-x="715" 
d="M645 700v-700h-97v308h-381v-308h-97v700h97v-308h381v308h97z" />
    <glyph glyph-name="I" unicode="I" horiz-adv-x="237" 
d="M167 700v-700h-97v700h97z" />
    <glyph glyph-name="J" unicode="J" horiz-adv-x="421" 
d="M115 0h-101v85h73q101 0 137 39.5t36 135.5v440h98v-439q0 -139 -54.5 -200t-188.5 -61z" />
    <glyph glyph-name="K" unicode="K" horiz-adv-x="683" 
d="M167 246v-246h-97v700h97v-331h5l363 331h126l-305 -278l313 -422h-119l-263 352h-5z" />
    <glyph glyph-name="L" unicode="L" horiz-adv-x="551" 
d="M522 85v-85h-452v700h97v-615h355z" />
    <glyph glyph-name="M" unicode="M" horiz-adv-x="905" 
d="M835 700v-700h-95v606h-6l-236 -606h-94l-233 606h-5v-606h-96v700h168l215 -560h5l218 560h159z" />
    <glyph glyph-name="N" unicode="N" horiz-adv-x="742" 
d="M672 700v-700h-154l-346 600h-6v-600h-96v700h154l346 -601h6v601h96z" />
    <glyph glyph-name="O" unicode="O" horiz-adv-x="731" 
d="M377 -10h-23q-152 0 -223.5 78t-71.5 240v83q0 163 71.5 241t223.5 78h23q152 0 223.5 -78t71.5 -241v-83q0 -162 -71.5 -240t-223.5 -78zM355 77h21q112 1 155 61.5t43 185.5v52q0 126 -43.5 186.5t-154.5 60.5h-21q-112 0 -155 -60.5t-43 -186.5v-52q0 -126 43 -186.5
t155 -60.5z" />
    <glyph glyph-name="P" unicode="P" horiz-adv-x="648" 
d="M167 253v-253h-97v700h337q114 0 164.5 -46t50.5 -161v-37q0 -101 -51.5 -152t-163.5 -51h-240zM389 617h-222v-281h223q80 0 107 30q28 31 28 104v14q0 74 -29 103.5t-107 29.5z" />
    <glyph glyph-name="Q" unicode="Q" horiz-adv-x="731" 
d="M697 85v-85h-349q-151 0 -220 77.5t-69 240.5v73q0 164 69 241.5t220 77.5h35q150 0 219.5 -78t69.5 -241v-64q0 -93 -27.5 -155t-81.5 -82v-5h134zM355 87h27q59 1 97 17t58.5 49.5t28.5 75.5t8 105v42q0 126 -43.5 186.5t-154.5 60.5h-21q-112 0 -155 -60.5t-43 -186.5
v-42q0 -126 43 -186.5t155 -60.5z" />
    <glyph glyph-name="R" unicode="R" horiz-adv-x="684" 
d="M167 290v-290h-97v700h342q113 0 161.5 -40.5t48.5 -139.5v-16q0 -79 -23.5 -115.5t-75.5 -46.5v-5q55 -9 77 -42t22 -116v-179h-97v164q0 76 -25.5 101t-105.5 25h-227zM385 616h-218v-242h235q74 0 98 27q25 28 25 92v6q0 68 -29.5 92.5t-110.5 24.5z" />
    <glyph glyph-name="S" unicode="S" horiz-adv-x="638" 
d="M330 -10h-10q-251 0 -276 185h101q6 -32 24 -53.5t44.5 -31.5t52 -13.5t58.5 -3.5q89 0 131.5 28t42.5 94v9q0 56 -29 80t-112 28l-98 5q-106 6 -153.5 51t-47.5 131v7q0 204 249 204h13q111 0 183 -44.5t82 -144.5h-100q-12 60 -54.5 83t-119.5 23q-80 0 -117.5 -26.5
t-37.5 -86.5v-4q0 -56 29 -80.5t112 -28.5l98 -5q106 -5 153.5 -50t47.5 -131v-11q0 -116 -69.5 -165t-196.5 -49z" />
    <glyph glyph-name="T" unicode="T" horiz-adv-x="594" 
d="M345 615v-615h-97v615h-231v85h560v-85h-232z" />
    <glyph glyph-name="U" unicode="U" horiz-adv-x="688" 
d="M362 -10h-34q-140 0 -203 65t-63 206v439h98v-428q0 -101 38 -147t131 -46h30q97 0 133 47q36 48 36 146v428h99v-439q0 -141 -63.5 -206t-201.5 -65z" />
    <glyph glyph-name="V" unicode="V" horiz-adv-x="707" 
d="M686 700l-266 -700h-134l-265 700h108l223 -597h5l225 597h104z" />
    <glyph glyph-name="W" unicode="W" horiz-adv-x="1005" 
d="M981 700l-170 -700h-138l-170 568l-171 -568h-139l-169 700h102l138 -599h5l180 599h113l179 -599h5l138 599h97z" />
    <glyph glyph-name="X" unicode="X" horiz-adv-x="678" 
d="M405 356l250 -356h-118l-199 288h-4l-199 -288h-112l249 358l-240 342h117l191 -273h5l190 273h112z" />
    <glyph glyph-name="Y" unicode="Y" horiz-adv-x="669" 
d="M383 308v-308h-98v306l-264 394h114l201 -303h5l202 303h106z" />
    <glyph glyph-name="Z" unicode="Z" horiz-adv-x="641" 
d="M596 85v-85h-548v80l414 535h-399v85h521v-80l-414 -535h426z" />
    <glyph glyph-name="bracketleft" unicode="[" horiz-adv-x="337" 
d="M292 -30v-60h-198v790h198v-60h-134v-670h134z" />
    <glyph glyph-name="backslash" unicode="\" horiz-adv-x="408" 
d="M63 700l345 -800h-64l-344 800h63z" />
    <glyph glyph-name="bracketright" unicode="]" horiz-adv-x="337" 
d="M45 640v60h198v-790h-198v60h134v670h-134z" />
    <glyph glyph-name="asciicircum" unicode="^" horiz-adv-x="591" 
d="M321 700l210 -502h-76l-158 387h-3l-158 -387h-76l210 502h51z" />
    <glyph glyph-name="underscore" unicode="_" horiz-adv-x="539" 
d="M539 -122h-539v59h539v-59z" />
    <glyph glyph-name="grave" unicode="`" horiz-adv-x="500" 
d="M263 700l77 -120h-82l-100 120h105z" />
    <glyph glyph-name="a" unicode="a" horiz-adv-x="529" 
d="M480 341v-341h-89v73h-5q-39 -83 -167 -83q-87 0 -136.5 39t-49.5 120v6q0 75 40.5 114.5t130.5 44.5l186 10v20q0 75 -30.5 99.5t-96.5 24.5q-54 0 -83.5 -20.5t-39.5 -66.5h-89q31 159 209 159h11q108 0 158.5 -43t50.5 -156zM124 158v-6q0 -48 31.5 -71.5t85.5 -23.5
q149 0 149 139v63l-169 -9q-51 -3 -74 -25t-23 -67z" />
    <glyph glyph-name="b" unicode="b" horiz-adv-x="567" 
d="M145 0h-91v700h91v-245h4q17 42 51.5 63.5t99.5 21.5h5q104 0 161.5 -58t57.5 -199v-36q0 -141 -57.5 -199t-161.5 -58h-5q-117 0 -151 85h-4v-75zM289 70q74 0 109.5 37t35.5 150v16q0 113 -35.5 150t-109.5 37q-73 0 -108.5 -37t-35.5 -150v-16q0 -113 35.5 -150
t108.5 -37z" />
    <glyph glyph-name="c" unicode="c" horiz-adv-x="510" 
d="M273 -10h-8q-107 0 -164.5 60t-57.5 198v34q0 138 57.5 198t164.5 60h8q176 0 207 -167h-89q-14 51 -44.5 69t-77.5 18q-65 0 -100.5 -37.5t-35.5 -147.5v-20q0 -110 35.5 -147.5t100.5 -37.5q47 0 77.5 18t44.5 69h89q-33 -167 -207 -167z" />
    <glyph glyph-name="d" unicode="d" horiz-adv-x="567" 
d="M513 700v-700h-91v75h-4q-34 -85 -151 -85h-5q-104 0 -161.5 58t-57.5 199v36q0 141 57.5 199t161.5 58h5q117 0 151 -85h4v245h91zM278 70q73 0 108.5 37t35.5 150v16q0 113 -35.5 150t-108.5 37q-36 0 -60 -6.5t-45 -26t-30.5 -57.5t-9.5 -97v-16q0 -59 9.5 -97
t30.5 -57.5t45 -26t60 -6.5z" />
    <glyph glyph-name="e" unicode="e" horiz-adv-x="543" 
d="M404 144h90q-40 -154 -218 -154h-7q-110 0 -168 60t-58 201v27q0 141 58 201.5t168 60.5h8q110 0 166.5 -58t56.5 -199v-37h-367q1 -58 11.5 -95t31 -55t42.5 -24t55 -6q50 0 82.5 16t48.5 62zM271 469q-64 0 -97.5 -31t-39.5 -126h275v7q0 81 -35.5 115.5t-102.5 34.5z
" />
    <glyph glyph-name="f" unicode="f" horiz-adv-x="368" 
d="M116 455h-108v75h108q2 98 44 134t130 36h67v-72h-56q-51 0 -73 -20t-22 -78h151v-75h-151v-455h-90v455z" />
    <glyph glyph-name="g" unicode="g" horiz-adv-x="554" 
d="M284 -170h-8q-95 0 -152.5 29.5t-71.5 102.5h90q14 -35 45 -47t93 -12q68 0 98.5 29t30.5 106v64h-4q-33 -75 -149 -75h-5q-101 0 -153.5 55.5t-52.5 191.5v19q0 135 53 191t153 56h5q117 0 149 -75h4v65h90v-493q0 -114 -52.5 -160.5t-162.5 -46.5zM274 107q34 0 55.5 5
t41.5 21.5t29 51.5t9 90v15q0 56 -9 91t-29 51.5t-41.5 21.5t-55.5 5q-35 0 -56.5 -5t-42 -21.5t-30 -51.5t-10.5 -91v-15q0 -55 9.5 -90t30 -51.5t42.5 -21.5t57 -5z" />
    <glyph glyph-name="h" unicode="h" horiz-adv-x="540" 
d="M491 344v-344h-90v322q0 79 -30.5 108t-91.5 29q-64 0 -99 -34t-35 -121v-304h-91v700h91v-252h4q37 92 156 92q89 0 137.5 -46t48.5 -150z" />
    <glyph glyph-name="i" unicode="i" horiz-adv-x="199" 
d="M54 700h91v-86h-91v86zM54 530h91v-530h-91v530z" />
    <glyph glyph-name="j" unicode="j" horiz-adv-x="199" 
d="M54 700h91v-86h-91v86zM54 530h91v-445q0 -94 -12 -140.5t-51 -114.5h-96q40 66 54 114.5t14 129.5v456z" />
    <glyph glyph-name="k" unicode="k" horiz-adv-x="511" 
d="M145 162v-162h-91v700h91v-423h4l240 253h111l-211 -217l220 -313h-107l-172 246h-5z" />
    <glyph glyph-name="l" unicode="l" horiz-adv-x="199" 
d="M145 700v-700h-91v700h91z" />
    <glyph glyph-name="m" unicode="m" horiz-adv-x="858" 
d="M809 352v-352h-90v322q0 80 -28 108.5t-86 28.5q-61 0 -94.5 -34t-33.5 -121v-304h-90v322q0 79 -28.5 108t-86.5 29q-61 0 -94 -34t-33 -121v-304h-91v530h91v-82h4q33 92 147 92q133 0 168 -99h4q33 99 160 99q88 0 134.5 -44t46.5 -144z" />
    <glyph glyph-name="n" unicode="n" horiz-adv-x="540" 
d="M491 344v-344h-90v322q0 79 -30.5 108t-91.5 29q-64 0 -99 -34t-35 -121v-304h-91v530h91v-82h4q37 92 156 92q89 0 137.5 -46t48.5 -150z" />
    <glyph glyph-name="o" unicode="o" horiz-adv-x="556" 
d="M283 -10h-11q-115 0 -172 62t-57 200v27q0 137 57 199t172 62h12q115 0 172 -62t57 -200v-27q0 -137 -57 -199t-173 -62zM278 70q35 0 58.5 7t44.5 25.5t31 57t10 97.5v16q0 59 -10 97.5t-31 57t-44.5 25.5t-58.5 7q-72 0 -108.5 -37.5t-36.5 -149.5v-16
q0 -112 36.5 -149.5t108.5 -37.5z" />
    <glyph glyph-name="p" unicode="p" horiz-adv-x="567" 
d="M54 -170v700h91v-75h4q34 85 151 85h5q104 0 161.5 -58t57.5 -199v-36q0 -141 -57.5 -199t-161.5 -58h-5q-65 0 -99.5 21.5t-51.5 63.5h-4v-245h-91zM289 460q-73 0 -108.5 -37t-35.5 -150v-16q0 -113 35.5 -150t108.5 -37q74 0 109.5 37t35.5 150v16q0 113 -35.5 150
t-109.5 37z" />
    <glyph glyph-name="q" unicode="q" horiz-adv-x="567" 
d="M422 530h91v-700h-91v245h-4q-34 -85 -151 -85h-5q-104 0 -161.5 58t-57.5 199v36q0 141 57.5 199t161.5 58h5q117 0 151 -85h4v75zM278 460q-36 0 -60 -6.5t-45 -26t-30.5 -57.5t-9.5 -97v-16q0 -59 9.5 -97t30.5 -57.5t45 -26t60 -6.5q73 0 108.5 37t35.5 150v16
q0 113 -35.5 150t-108.5 37z" />
    <glyph glyph-name="r" unicode="r" horiz-adv-x="347" 
d="M303 530h33v-84h-44q-75 0 -111 -30.5t-36 -117.5v-298h-91v530h91v-81h4q29 81 154 81z" />
    <glyph glyph-name="s" unicode="s" horiz-adv-x="516" 
d="M260 -10h-6q-191 0 -217 146h90q17 -74 133 -74q66 0 97 18.5t31 69.5v6q0 38 -21.5 54.5t-76.5 19.5l-89 5q-88 4 -121 39.5t-33 100.5v9q0 77 53 116.5t149 39.5h9q91 0 143 -33t69 -113h-90q-14 43 -43.5 58.5t-81.5 15.5q-118 0 -118 -79v-5q0 -38 21.5 -54.5
t76.5 -19.5l89 -5q89 -4 121.5 -40t32.5 -101v-10q0 -164 -218 -164z" />
    <glyph glyph-name="t" unicode="t" horiz-adv-x="368" 
d="M336 75v-75h-67q-86 0 -120.5 35.5t-34.5 122.5v297h-105v75h105v170h90v-170h132v-75h-132v-274q0 -67 19.5 -86.5t78.5 -19.5h34z" />
    <glyph glyph-name="u" unicode="u" horiz-adv-x="540" 
d="M49 186v344h90v-322q0 -79 30.5 -108t91.5 -29q64 0 99 34t35 121v304h91v-530h-91v82h-4q-37 -92 -156 -92q-89 0 -137.5 46t-48.5 150z" />
    <glyph glyph-name="v" unicode="v" horiz-adv-x="517" 
d="M510 530l-191 -530h-121l-191 530h98l154 -440h5l155 440h91z" />
    <glyph glyph-name="w" unicode="w" horiz-adv-x="756" 
d="M745 530l-132 -530h-118l-115 413l-114 -413h-123l-132 530h97l100 -434h5l119 434h99l118 -434h5l101 434h90z" />
    <glyph glyph-name="x" unicode="x" horiz-adv-x="533" 
d="M327 272l193 -272h-109l-143 213h-5l-146 -213h-103l190 270l-180 260h109l133 -198h5l134 198h104z" />
    <glyph glyph-name="y" unicode="y" horiz-adv-x="502" 
d="M502 530l-270 -700h-95l71 172l-204 528h97l154 -410h4l151 410h92z" />
    <glyph glyph-name="z" unicode="z" horiz-adv-x="469" 
d="M438 75v-75h-404v70l284 385h-274v75h385v-70l-284 -385h293z" />
    <glyph glyph-name="braceleft" unicode="{" horiz-adv-x="334" 
d="M304 -30v-60h-33q-82 0 -115 43q-32 43 -32 146v51q0 66 -16 87t-77 28v80q61 7 77 28t16 87v51q0 103 32 146q33 43 115 43h33v-60h-19q-53 0 -75 -28t-22 -116v-54q0 -71 -18.5 -98t-82.5 -36v-6q64 -9 82.5 -36t18.5 -98v-54q0 -88 22 -116t75 -28h19z" />
    <glyph glyph-name="bar" unicode="|" horiz-adv-x="258" 
d="M158 -100h-58v800h58v-800z" />
    <glyph glyph-name="braceright" unicode="}" horiz-adv-x="334" 
d="M63 -90h-33v60h19q53 0 75 28t22 116v54q0 71 18.5 98t82.5 36v6q-64 9 -82.5 36t-18.5 98v54q0 88 -22 116t-75 28h-19v60h33q83 0 114 -43q33 -42 33 -146v-51q0 -66 16 -87t77 -28v-80q-61 -7 -77 -28t-16 -87v-51q0 -104 -33 -146q-31 -43 -114 -43z" />
    <glyph glyph-name="asciitilde" unicode="~" horiz-adv-x="589" 
d="M400 262q-45 0 -110 33t-103 33q-68 0 -107 -61v75q38 54 109 54q45 0 110 -33t103 -33q66 0 107 61v-75q-41 -54 -109 -54z" />
    <glyph glyph-name="exclamdown" unicode="&#xa1;" horiz-adv-x="247" 
d="M64 530h119v-121h-119v121zM175 127v-297h-103v297l22 174h59z" />
    <glyph glyph-name="cent" unicode="&#xa2;" horiz-adv-x="555" 
d="M313 -9v-96h-67v96q-189 16 -189 257v34q0 241 189 257v96h67v-96q151 -12 182 -166h-90q-14 51 -44.5 69t-77.5 18q-65 0 -100.5 -37.5t-35.5 -147.5v-20q0 -110 35.5 -147.5t100.5 -37.5q47 0 77.5 18t44.5 69h90q-31 -154 -182 -166z" />
    <glyph glyph-name="sterling" unicode="&#xa3;" 
d="M571 84v-84h-546v84h101v237h-101v59h101v56q0 147 56 210.5t165 63.5h12q193 0 219 -177h-94q-10 48 -38 70.5t-90 22.5q-72 0 -104.5 -41.5t-32.5 -147.5v-57h272v-59h-272v-237h352z" />
    <glyph glyph-name="currency" unicode="&#xa4;" horiz-adv-x="589" 
d="M294 181q-49 0 -81 16l-104 -104l-48 48l100 101q-20 35 -20 87q0 53 20 86l-100 102l48 48l104 -104q32 16 81 16q48 0 80 -16l104 104l49 -48l-101 -102q21 -32 21 -86q0 -53 -21 -87l101 -101l-49 -48l-104 104q-32 -16 -80 -16zM294 236q47 0 69 22t22 71t-22 70.5
t-69 21.5t-69.5 -21.5t-22.5 -70.5t22.5 -71t69.5 -22z" />
    <glyph glyph-name="yen" unicode="&#xa5;" 
d="M355 251v-251h-93v251h-198v60h198v39l-27 39h-171v60h130l-173 251h113l176 -273h5l176 273h104l-173 -251h132v-60h-173l-26 -38v-40h199v-60h-199z" />
    <glyph glyph-name="brokenbar" unicode="&#xa6;" horiz-adv-x="258" 
d="M158 410h-58v290h58v-290zM158 -100h-58v290h58v-290z" />
    <glyph glyph-name="section" unicode="&#xa7;" horiz-adv-x="573" 
d="M308 -170h-11q-102 0 -164.5 41t-65.5 132h80q12 -107 155 -107q74 0 107 24t33 74v6q0 43 -24.5 61t-82.5 21l-76 5q-115 8 -159 43t-44 120v7q0 121 96 140v5q-41 9 -63 44.5t-22 82.5v12q0 169 217 169h12q100 0 163.5 -42t66.5 -131h-81q-9 107 -154 107
q-74 0 -107.5 -24t-33.5 -74v-6q0 -43 24.5 -61t83.5 -21l76 -5q114 -7 158 -43t44 -120v-7q0 -120 -95 -140v-5q40 -9 62.5 -45t22.5 -82v-12q0 -169 -218 -169zM296 162q86 0 121 20.5t35 82.5v10q0 62 -35 82.5t-121 20.5t-120 -20.5t-34 -82.5v-10q0 -62 34 -82.5
t120 -20.5z" />
    <glyph glyph-name="dieresis" unicode="&#xa8;" horiz-adv-x="500" 
d="M123 681h80v-85h-80v85zM297 681h80v-85h-80v85z" />
    <glyph glyph-name="copyright" unicode="&#xa9;" horiz-adv-x="758" 
d="M417 -10h-77q-160 0 -237 82.5t-77 235.5v84q0 153 77 235.5t237 82.5h77q160 0 237.5 -83t77.5 -235v-84q0 -152 -77.5 -235t-237.5 -83zM352 25h54q162 0 224.5 77t62.5 231v34q0 154 -62.5 231t-224.5 77h-54q-162 0 -224 -77t-62 -231v-34q0 -154 62 -231t224 -77z
M394 134h-16q-94 0 -137 47.5t-43 148.5v40q0 100 43.5 148t136.5 48h16q79 0 120 -31t54 -95l2 -12h-78l-2 8q-19 63 -99 63h-10q-61 0 -84 -32.5t-23 -101.5v-30q0 -69 23 -101.5t84 -32.5h10q80 0 99 63l2 8h78l-2 -12q-13 -64 -54 -95t-120 -31z" />
    <glyph glyph-name="ordfeminine" unicode="&#xaa;" horiz-adv-x="440" 
d="M397 548v-268h-81v56h-4q-30 -64 -130 -64q-69 0 -108.5 31.5t-39.5 95.5v4q0 60 33 91.5t104 35.5l144 8v14q0 56 -22.5 74.5t-71.5 18.5q-40 0 -62.5 -15t-30.5 -50h-81q26 128 171 128h8q89 0 130 -34.5t41 -125.5zM118 406v-6q0 -68 86 -68q111 0 111 104v44l-125 -7
q-39 -1 -55.5 -17t-16.5 -50z" />
    <glyph glyph-name="guillemotleft" unicode="&#xab;" horiz-adv-x="379" 
d="M34 289v6l84 219h69l-87 -222l87 -222h-69zM192 289v6l84 219h69l-87 -222l87 -222h-69z" />
    <glyph glyph-name="logicalnot" unicode="&#xac;" horiz-adv-x="589" 
d="M520 363v-273h-69v205h-403v68h472z" />
    <glyph glyph-name="registered" unicode="&#xae;" horiz-adv-x="758" 
d="M417 -10h-77q-160 0 -237 82.5t-77 235.5v84q0 153 77 235.5t237 82.5h77q160 0 237.5 -83t77.5 -235v-84q0 -152 -77.5 -235t-237.5 -83zM352 25h54q162 0 224.5 77t62.5 231v34q0 154 -62.5 231t-224.5 77h-54q-162 0 -224 -77t-62 -231v-34q0 -154 62 -231t224 -77z
M294 305v-165h-76v420h215q72 0 103 -25.5t31 -84.5v-7q0 -48 -14.5 -71.5t-49.5 -27.5v-4q37 -6 50.5 -25.5t13.5 -71.5v-103h-75v96q0 41 -13 55t-59 14h-126zM413 497h-119v-130h132q38 0 51.5 14.5t13.5 49.5v5q0 35 -16 48t-62 13z" />
    <glyph glyph-name="overscore" unicode="&#xaf;" horiz-adv-x="500" 
d="M399 666v-55h-298v55h298z" />
    <glyph glyph-name="degree" unicode="&#xb0;" horiz-adv-x="377" 
d="M189 424q-59 0 -101 41.5t-42 101.5t42 101.5t101 41.5q58 0 100 -41.5t42 -101.5t-42 -101.5t-100 -41.5zM189 478q37 0 62.5 26t25.5 63t-25.5 63.5t-62.5 26.5q-38 0 -63.5 -26.5t-25.5 -63.5t25.5 -63t63.5 -26z" />
    <glyph glyph-name="plusminus" unicode="&#xb1;" horiz-adv-x="589" 
d="M261 415h-162v68h162v142h67v-142h162v-68h-162v-142h-67v142zM490 101h-391v68h391v-68z" />
    <glyph glyph-name="twosuperior" unicode="&#xb2;" horiz-adv-x="376" 
d="M350 448v-68h-324v59q0 78 23.5 113t93.5 51l73 18q31 7 42 20t11 41v2q0 54 -75 54q-37 0 -56.5 -11.5t-24.5 -42.5h-82q16 122 157 122h7q155 0 155 -119v-5q0 -52 -21.5 -80.5t-79.5 -42.5l-80 -20q-37 -9 -49 -23.5t-12 -55.5v-12h242z" />
    <glyph glyph-name="threesuperior" unicode="&#xb3;" horiz-adv-x="376" 
d="M198 374h-9q-146 0 -164 126h83q9 -58 86 -58t77 61v5q0 29 -14.5 42t-52.5 13h-70v67h66q34 0 48.5 12t14.5 38v4q0 54 -71 54q-66 0 -76 -52h-82q18 120 154 120h7q71 0 110.5 -26.5t39.5 -78.5v-5q0 -71 -59 -86v-4q66 -12 66 -98v-5q0 -129 -154 -129z" />
    <glyph glyph-name="acute" unicode="&#xb4;" horiz-adv-x="500" 
d="M340 700l-100 -120h-82l78 120h104z" />
    <glyph glyph-name="mu" unicode="&#xb5;" horiz-adv-x="545" 
d="M491 530v-530h-89v74h-4q-33 -83 -149 -83q-94 0 -117 53h-4l9 -193v-21h-83v700h90v-322q0 -79 32 -107.5t97 -28.5q62 0 95 27.5t33 108.5v322h90z" />
    <glyph glyph-name="paragraph" unicode="&#xb6;" horiz-adv-x="525" 
d="M454 700v-800h-64v733h-104v-733h-64v538h-42q-80 0 -113.5 27.5t-33.5 100.5v6q0 75 33 101.5t114 26.5h274z" />
    <glyph glyph-name="middot" unicode="&#xb7;" horiz-adv-x="321" 
d="M211 231h-120v121h120v-121z" />
    <glyph glyph-name="cedilla" unicode="&#xb8;" horiz-adv-x="500" 
d="M195 -140l50 140h77l-39 -140h-88z" />
    <glyph glyph-name="onesuperior" unicode="&#xb9;" horiz-adv-x="273" 
d="M214 800v-420h-82v353h-5l-114 -77v88l92 56h109z" />
    <glyph glyph-name="ordmasculine" unicode="&#xba;" horiz-adv-x="446" 
d="M228 272h-7q-89 0 -136 48t-47 160v19q0 113 47 161t136 48h7q88 0 134 -48t46 -161v-19q0 -112 -46 -160t-134 -48zM222 343q52 0 77.5 28t25.5 113v13q0 83 -25.5 111.5t-77.5 28.5q-51 0 -76.5 -28.5t-25.5 -111.5v-13q0 -85 25.5 -113t76.5 -28z" />
    <glyph glyph-name="guillemotright" unicode="&#xbb;" horiz-adv-x="379" 
d="M187 295v-6l-84 -219h-69l87 222l-87 222h69zM345 295v-6l-84 -219h-69l87 222l-87 222h69z" />
    <glyph glyph-name="onequarter" unicode="&#xbc;" horiz-adv-x="795" 
d="M214 700v-420h-82v353h-5l-114 -77v88l92 56h109zM584 700l-371 -700h-65l370 700h66zM712 101v-101h-81v101h-209v100l172 219h118v-252h55v-67h-55zM489 173v-5h142v185h-4z" />
    <glyph glyph-name="onehalf" unicode="&#xbd;" horiz-adv-x="844" 
d="M214 700v-420h-82v353h-5l-114 -77v88l92 56h109zM584 700l-371 -700h-65l370 700h66zM801 68v-68h-324v59q0 78 23.5 113t93.5 51l73 18q30 7 41.5 20.5t11.5 40.5v2q0 54 -75 54q-38 0 -57.5 -11.5t-23.5 -42.5h-82q16 122 157 122h7q155 0 155 -119v-5
q0 -52 -21.5 -80.5t-79.5 -42.5l-80 -20q-37 -9 -49 -23.5t-12 -55.5v-12h242z" />
    <glyph glyph-name="threequarters" unicode="&#xbe;" horiz-adv-x="905" 
d="M198 274h-9q-146 0 -164 126h83q9 -58 86 -58t77 61v5q0 29 -14.5 42t-52.5 13h-70v67h66q34 0 48.5 12t14.5 38v4q0 54 -71 54q-66 0 -76 -52h-82q18 120 154 120h7q71 0 110.5 -26.5t39.5 -78.5v-5q0 -71 -59 -86v-4q66 -12 66 -98v-5q0 -129 -154 -129zM696 700
l-371 -700h-65l370 700h66zM823 101v-101h-81v101h-209v100l172 219h118v-252h55v-67h-55zM600 173v-5h142v185h-4z" />
    <glyph glyph-name="questiondown" unicode="&#xbf;" horiz-adv-x="526" 
d="M221 530h120v-121h-120v121zM234 302h93v-14q0 -40 -21 -67t-78 -65q-59 -39 -80 -68t-21 -74v-4q0 -51 33 -78.5t96 -27.5q120 0 140 126h93q-12 -106 -73 -158t-156 -52h-8q-102 0 -160.5 49t-58.5 132v6q0 71 28 112.5t106 93.5q38 27 51.5 44.5t15.5 44.5z" />
    <glyph glyph-name="Agrave" unicode="&#xc0;" horiz-adv-x="720" 
d="M324 860l77 -120h-82l-100 120h105zM433 700l266 -700h-107l-75 198h-318l-74 -198h-104l265 700h147zM361 618h-5l-126 -336h257z" />
    <glyph glyph-name="Aacute" unicode="&#xc1;" horiz-adv-x="720" 
d="M502 860l-100 -120h-82l78 120h104zM433 700l266 -700h-107l-75 198h-318l-74 -198h-104l265 700h147zM361 618h-5l-126 -336h257z" />
    <glyph glyph-name="Acircumflex" unicode="&#xc2;" horiz-adv-x="720" 
d="M425 860l96 -120h-80l-80 89l-80 -89h-80l95 120h129zM433 700l266 -700h-107l-75 198h-318l-74 -198h-104l265 700h147zM361 618h-5l-126 -336h257z" />
    <glyph glyph-name="Atilde" unicode="&#xc3;" horiz-adv-x="720" 
d="M428 749q-28 0 -71 22t-57 22q-15 0 -23.5 -8t-13.5 -31h-58q5 52 26 74.5t62 22.5q28 0 70.5 -21.5t56.5 -21.5q16 0 24.5 8t12.5 31h60q-5 -51 -27 -74.5t-62 -23.5zM433 700l266 -700h-107l-75 198h-318l-74 -198h-104l265 700h147zM361 618h-5l-126 -336h257z" />
    <glyph glyph-name="Adieresis" unicode="&#xc4;" horiz-adv-x="720" 
d="M234 844h80v-85h-80v85zM408 844h80v-85h-80v85zM433 700l266 -700h-107l-75 198h-318l-74 -198h-104l265 700h147zM361 618h-5l-126 -336h257z" />
    <glyph glyph-name="Aring" unicode="&#xc5;" horiz-adv-x="720" 
d="M361 727q-55 0 -86.5 25.5t-31.5 77.5t31.5 77.5t86.5 25.5t86.5 -25.5t31.5 -77.5t-31.5 -77.5t-86.5 -25.5zM361 776q57 0 57 54t-57 54q-58 0 -58 -54t58 -54zM433 700l266 -700h-107l-75 198h-318l-74 -198h-104l265 700h147zM361 618h-5l-126 -336h257z" />
    <glyph glyph-name="AE" unicode="&#xc6;" horiz-adv-x="982" 
d="M931 85v-85h-485v200h-226l-104 -200h-107l362 700h560v-85h-389v-222h389v-85h-389v-223h389zM446 618h-9l-173 -334h182v334z" />
    <glyph glyph-name="Ccedilla" unicode="&#xc7;" horiz-adv-x="708" 
d="M558 209h100q-22 -109 -84 -162t-175 -57l-36 -130h-88l47 131q-137 6 -200 83.5t-63 233.5v84q0 163 68 240.5t219 77.5h33q122 0 189 -52.5t90 -166.5h-100q-17 69 -62 100.5t-124 31.5h-19q-112 0 -154 -60.5t-42 -186.5v-52q0 -126 42 -186.5t154 -60.5h19
q79 0 124 31.5t62 100.5z" />
    <glyph glyph-name="Egrave" unicode="&#xc8;" horiz-adv-x="606" 
d="M276 860l77 -120h-82l-100 120h105zM555 85v-85h-485v700h485v-85h-388v-222h388v-85h-388v-223h388z" />
    <glyph glyph-name="Eacute" unicode="&#xc9;" horiz-adv-x="606" 
d="M454 860l-100 -120h-82l78 120h104zM555 85v-85h-485v700h485v-85h-388v-222h388v-85h-388v-223h388z" />
    <glyph glyph-name="Ecircumflex" unicode="&#xca;" horiz-adv-x="606" 
d="M376 860l96 -120h-80l-80 89l-80 -89h-80l95 120h129zM555 85v-85h-485v700h485v-85h-388v-222h388v-85h-388v-223h388z" />
    <glyph glyph-name="Edieresis" unicode="&#xcb;" horiz-adv-x="606" 
d="M185 844h80v-85h-80v85zM359 844h80v-85h-80v85zM555 85v-85h-485v700h485v-85h-388v-222h388v-85h-388v-223h388z" />
    <glyph glyph-name="Igrave" unicode="&#xcc;" horiz-adv-x="237" 
d="M81 860l77 -120h-82l-100 120h105zM167 700v-700h-97v700h97z" />
    <glyph glyph-name="Iacute" unicode="&#xcd;" horiz-adv-x="237" 
d="M260 860l-100 -120h-82l78 120h104zM167 700v-700h-97v700h97z" />
    <glyph glyph-name="Icircumflex" unicode="&#xce;" horiz-adv-x="237" 
d="M183 860l96 -120h-80l-80 89l-80 -89h-80l95 120h129zM167 700v-700h-97v700h97z" />
    <glyph glyph-name="Idieresis" unicode="&#xcf;" horiz-adv-x="237" 
d="M-8 844h80v-85h-80v85zM166 844h80v-85h-80v85zM167 700v-700h-97v700h97z" />
    <glyph glyph-name="Eth" unicode="&#xd0;" horiz-adv-x="713" 
d="M70 313h-70v73h70v314h288q151 0 223 -78.5t72 -240.5v-63q0 -162 -71.5 -240t-223.5 -78h-288v313zM349 386v-73h-182v-229h187q112 0 156.5 62.5t44.5 187.5v32q0 125 -44.5 187.5t-156.5 62.5h-187v-230h182z" />
    <glyph glyph-name="Ntilde" unicode="&#xd1;" horiz-adv-x="737" 
d="M444 749q-28 0 -71 22t-57 22q-15 0 -23.5 -8t-13.5 -31h-58q5 52 26 74.5t62 22.5q28 0 70.5 -21.5t56.5 -21.5q16 0 24.5 8t12.5 31h60q-5 -51 -27 -74.5t-62 -23.5zM669 700v-700h-154l-346 600h-6v-600h-96v700h154l346 -601h6v601h96z" />
    <glyph glyph-name="Ograve" unicode="&#xd2;" horiz-adv-x="731" 
d="M329 860l77 -120h-82l-100 120h105zM377 -10h-23q-152 0 -223.5 78t-71.5 240v83q0 163 71.5 241t223.5 78h23q152 0 223.5 -78t71.5 -241v-83q0 -162 -71.5 -240t-223.5 -78zM355 77h21q112 1 155 61.5t43 185.5v52q0 126 -43.5 186.5t-154.5 60.5h-21
q-112 0 -155 -60.5t-43 -186.5v-52q0 -126 43 -186.5t155 -60.5z" />
    <glyph glyph-name="Oacute" unicode="&#xd3;" horiz-adv-x="731" 
d="M506 860l-100 -120h-82l78 120h104zM377 -10h-23q-152 0 -223.5 78t-71.5 240v83q0 163 71.5 241t223.5 78h23q152 0 223.5 -78t71.5 -241v-83q0 -162 -71.5 -240t-223.5 -78zM355 77h21q112 1 155 61.5t43 185.5v52q0 126 -43.5 186.5t-154.5 60.5h-21
q-112 0 -155 -60.5t-43 -186.5v-52q0 -126 43 -186.5t155 -60.5z" />
    <glyph glyph-name="Ocircumflex" unicode="&#xd4;" horiz-adv-x="731" 
d="M429 860l96 -120h-80l-80 89l-80 -89h-80l95 120h129zM377 -10h-23q-152 0 -223.5 78t-71.5 240v83q0 163 71.5 241t223.5 78h23q152 0 223.5 -78t71.5 -241v-83q0 -162 -71.5 -240t-223.5 -78zM355 77h21q112 1 155 61.5t43 185.5v52q0 126 -43.5 186.5t-154.5 60.5h-21
q-112 0 -155 -60.5t-43 -186.5v-52q0 -126 43 -186.5t155 -60.5z" />
    <glyph glyph-name="Otilde" unicode="&#xd5;" horiz-adv-x="731" 
d="M432 749q-28 0 -71 22t-57 22q-15 0 -23.5 -8t-13.5 -31h-58q5 52 26 74.5t62 22.5q28 0 70.5 -21.5t56.5 -21.5q16 0 24.5 8t12.5 31h60q-5 -51 -27 -74.5t-62 -23.5zM377 -10h-23q-152 0 -223.5 78t-71.5 240v83q0 163 71.5 241t223.5 78h23q152 0 223.5 -78t71.5 -241
v-83q0 -162 -71.5 -240t-223.5 -78zM355 77h21q112 1 155 61.5t43 185.5v52q0 126 -43.5 186.5t-154.5 60.5h-21q-112 0 -155 -60.5t-43 -186.5v-52q0 -126 43 -186.5t155 -60.5z" />
    <glyph glyph-name="Odieresis" unicode="&#xd6;" horiz-adv-x="731" 
d="M238 844h80v-85h-80v85zM412 844h80v-85h-80v85zM377 -10h-23q-152 0 -223.5 78t-71.5 240v83q0 163 71.5 241t223.5 78h23q152 0 223.5 -78t71.5 -241v-83q0 -162 -71.5 -240t-223.5 -78zM355 77h21q112 1 155 61.5t43 185.5v52q0 126 -43.5 186.5t-154.5 60.5h-21
q-112 0 -155 -60.5t-43 -186.5v-52q0 -126 43 -186.5t155 -60.5z" />
    <glyph glyph-name="multiply" unicode="&#xd7;" horiz-adv-x="589" 
d="M246 329l-162 165l49 48l162 -164l165 168l49 -49l-166 -168l162 -164l-49 -49l-161 164l-166 -168l-49 48z" />
    <glyph glyph-name="Oslash" unicode="&#xd8;" horiz-adv-x="731" 
d="M151 -40h-92l72 108q-72 76 -72 240v83q0 163 71.5 241t223.5 78h23q95 0 162 -32l41 62h92l-72 -108q72 -78 72 -241v-83q0 -162 -71.5 -240t-223.5 -78h-23q-95 0 -162 32zM157 376v-52q0 -114 32 -169l298 445q-44 23 -111 23h-21q-112 0 -155 -60.5t-43 -186.5z
M355 77h21q112 1 155 61.5t43 185.5v52q0 114 -32 169l-298 -445q44 -23 111 -23z" />
    <glyph glyph-name="Ugrave" unicode="&#xd9;" horiz-adv-x="690" 
d="M308 860l77 -120h-82l-100 120h105zM362 -10h-34q-140 0 -203 65t-63 206v439h98v-428q0 -101 38 -147t131 -46h30q97 0 133 47q36 48 36 146v428h99v-439q0 -141 -63.5 -206t-201.5 -65z" />
    <glyph glyph-name="Uacute" unicode="&#xda;" horiz-adv-x="690" 
d="M486 860l-100 -120h-82l78 120h104zM362 -10h-34q-140 0 -203 65t-63 206v439h98v-428q0 -101 38 -147t131 -46h30q97 0 133 47q36 48 36 146v428h99v-439q0 -141 -63.5 -206t-201.5 -65z" />
    <glyph glyph-name="Ucircumflex" unicode="&#xdb;" horiz-adv-x="690" 
d="M409 860l96 -120h-80l-80 89l-80 -89h-80l95 120h129zM362 -10h-34q-140 0 -203 65t-63 206v439h98v-428q0 -101 38 -147t131 -46h30q97 0 133 47q36 48 36 146v428h99v-439q0 -141 -63.5 -206t-201.5 -65z" />
    <glyph glyph-name="Udieresis" unicode="&#xdc;" horiz-adv-x="690" 
d="M218 844h80v-85h-80v85zM392 844h80v-85h-80v85zM362 -10h-34q-140 0 -203 65t-63 206v439h98v-428q0 -101 38 -147t131 -46h30q97 0 133 47q36 48 36 146v428h99v-439q0 -141 -63.5 -206t-201.5 -65z" />
    <glyph glyph-name="Yacute" unicode="&#xdd;" horiz-adv-x="670" 
d="M476 860l-100 -120h-82l78 120h104zM383 308v-308h-98v306l-264 394h114l201 -303h5l202 303h106z" />
    <glyph glyph-name="Thorn" unicode="&#xde;" horiz-adv-x="647" 
d="M167 137v-137h-97v700h97v-136h220q119 0 177 -49t58 -158v-11q0 -209 -235 -209h-220zM382 481h-215v-261h215q143 0 143 124v14q0 123 -143 123z" />
    <glyph glyph-name="germandbls" unicode="&#xdf;" horiz-adv-x="543" 
d="M145 491v-491h-91v502q0 110 51 159t153 49h6q97 0 146 -44t49 -120v-9q0 -105 -70 -129v-5q131 -14 131 -179v-22q0 -108 -50 -155t-155 -47h-95v76h81q71 0 100 30t29 100v13q0 59 -28 89.5t-101 30.5h-81v76h45q57 0 81 23.5t24 78.5v8q0 52 -25.5 78.5t-81.5 26.5h-4
q-59 0 -87 -28q-27 -28 -27 -111z" />
    <glyph glyph-name="agrave" unicode="&#xe0;" horiz-adv-x="529" 
d="M232 700l77 -120h-82l-100 120h105zM480 341v-341h-89v73h-5q-39 -83 -167 -83q-87 0 -136.5 39t-49.5 120v6q0 75 40.5 114.5t130.5 44.5l186 10v20q0 75 -30.5 99.5t-96.5 24.5q-54 0 -83.5 -20.5t-39.5 -66.5h-89q31 159 209 159h11q108 0 158.5 -43t50.5 -156z
M124 158v-6q0 -48 31.5 -71.5t85.5 -23.5q149 0 149 139v63l-169 -9q-51 -3 -74 -25t-23 -67z" />
    <glyph glyph-name="aacute" unicode="&#xe1;" horiz-adv-x="529" 
d="M410 700l-100 -120h-82l78 120h104zM480 341v-341h-89v73h-5q-39 -83 -167 -83q-87 0 -136.5 39t-49.5 120v6q0 75 40.5 114.5t130.5 44.5l186 10v20q0 75 -30.5 99.5t-96.5 24.5q-54 0 -83.5 -20.5t-39.5 -66.5h-89q31 159 209 159h11q108 0 158.5 -43t50.5 -156z
M124 158v-6q0 -48 31.5 -71.5t85.5 -23.5q149 0 149 139v63l-169 -9q-51 -3 -74 -25t-23 -67z" />
    <glyph glyph-name="acircumflex" unicode="&#xe2;" horiz-adv-x="529" 
d="M332 700l96 -120h-80l-80 89l-80 -89h-80l95 120h129zM480 341v-341h-89v73h-5q-39 -83 -167 -83q-87 0 -136.5 39t-49.5 120v6q0 75 40.5 114.5t130.5 44.5l186 10v20q0 75 -30.5 99.5t-96.5 24.5q-54 0 -83.5 -20.5t-39.5 -66.5h-89q31 159 209 159h11q108 0 158.5 -43
t50.5 -156zM124 158v-6q0 -48 31.5 -71.5t85.5 -23.5q149 0 149 139v63l-169 -9q-51 -3 -74 -25t-23 -67z" />
    <glyph glyph-name="atilde" unicode="&#xe3;" horiz-adv-x="529" 
d="M335 589q-29 0 -71.5 22t-56.5 22q-16 0 -24.5 -8t-12.5 -31h-58q5 51 26.5 74t61.5 23q28 0 70 -21.5t57 -21.5q16 0 24.5 8t12.5 31h60q-5 -51 -27 -74.5t-62 -23.5zM480 341v-341h-89v73h-5q-39 -83 -167 -83q-87 0 -136.5 39t-49.5 120v6q0 75 40.5 114.5t130.5 44.5
l186 10v20q0 75 -30.5 99.5t-96.5 24.5q-54 0 -83.5 -20.5t-39.5 -66.5h-89q31 159 209 159h11q108 0 158.5 -43t50.5 -156zM124 158v-6q0 -48 31.5 -71.5t85.5 -23.5q149 0 149 139v63l-169 -9q-51 -3 -74 -25t-23 -67z" />
    <glyph glyph-name="adieresis" unicode="&#xe4;" horiz-adv-x="529" 
d="M141 681h80v-85h-80v85zM315 681h80v-85h-80v85zM480 341v-341h-89v73h-5q-39 -83 -167 -83q-87 0 -136.5 39t-49.5 120v6q0 75 40.5 114.5t130.5 44.5l186 10v20q0 75 -30.5 99.5t-96.5 24.5q-54 0 -83.5 -20.5t-39.5 -66.5h-89q31 159 209 159h11q108 0 158.5 -43
t50.5 -156zM124 158v-6q0 -48 31.5 -71.5t85.5 -23.5q149 0 149 139v63l-169 -9q-51 -3 -74 -25t-23 -67z" />
    <glyph glyph-name="aring" unicode="&#xe5;" horiz-adv-x="529" 
d="M268 567q-118 0 -118 103t118 103t118 -103t-118 -103zM268 616q57 0 57 54t-57 54q-58 0 -58 -54t58 -54zM480 341v-341h-89v73h-5q-39 -83 -167 -83q-87 0 -136.5 39t-49.5 120v6q0 75 40.5 114.5t130.5 44.5l186 10v20q0 75 -30.5 99.5t-96.5 24.5q-54 0 -83.5 -20.5
t-39.5 -66.5h-89q31 159 209 159h11q108 0 158.5 -43t50.5 -156zM124 158v-6q0 -48 31.5 -71.5t85.5 -23.5q149 0 149 139v63l-169 -9q-51 -3 -74 -25t-23 -67z" />
    <glyph glyph-name="ae" unicode="&#xe6;" horiz-adv-x="889" 
d="M623 -10h-8q-147 0 -192 106h-4q-40 -106 -196 -106q-90 0 -140 39t-50 120v6q0 75 40.5 114.5t130.5 44.5l186 10v20q0 75 -30.5 99.5t-96.5 24.5q-54 0 -83.5 -20.5t-39.5 -66.5h-89q31 159 209 159h11q133 0 173 -70h4q48 70 167 70h9q109 0 165.5 -58t56.5 -199v-37
h-366q0 -56 10 -93.5t30.5 -55.5t43 -24.5t55.5 -6.5q50 0 82.5 16t48.5 62h91q-40 -154 -218 -154zM618 469q-64 0 -98.5 -31t-38.5 -126h275v7q0 81 -35.5 115.5t-102.5 34.5zM124 157v-6q0 -47 32 -70.5t87 -23.5q147 0 147 139v63l-169 -9q-51 -3 -74 -25.5t-23 -67.5z
" />
    <glyph glyph-name="ccedilla" unicode="&#xe7;" horiz-adv-x="510" 
d="M391 157h89q-29 -147 -167 -165l-37 -132h-88l47 131q-93 8 -142.5 68.5t-49.5 188.5v34q0 138 57.5 198t164.5 60h8q176 0 207 -167h-89q-14 51 -44.5 69t-77.5 18q-65 0 -100.5 -37.5t-35.5 -147.5v-20q0 -110 35.5 -147.5t100.5 -37.5q47 0 77.5 18t44.5 69z" />
    <glyph glyph-name="egrave" unicode="&#xe8;" horiz-adv-x="543" 
d="M237 700l77 -120h-82l-100 120h105zM404 144h90q-40 -154 -218 -154h-7q-110 0 -168 60t-58 201v27q0 141 58 201.5t168 60.5h8q110 0 166.5 -58t56.5 -199v-37h-367q1 -58 11.5 -95t31 -55t42.5 -24t55 -6q50 0 82.5 16t48.5 62zM271 469q-64 0 -97.5 -31t-39.5 -126
h275v7q0 81 -35.5 115.5t-102.5 34.5z" />
    <glyph glyph-name="eacute" unicode="&#xe9;" horiz-adv-x="543" 
d="M416 700l-100 -120h-82l78 120h104zM404 144h90q-40 -154 -218 -154h-7q-110 0 -168 60t-58 201v27q0 141 58 201.5t168 60.5h8q110 0 166.5 -58t56.5 -199v-37h-367q1 -58 11.5 -95t31 -55t42.5 -24t55 -6q50 0 82.5 16t48.5 62zM271 469q-64 0 -97.5 -31t-39.5 -126
h275v7q0 81 -35.5 115.5t-102.5 34.5z" />
    <glyph glyph-name="ecircumflex" unicode="&#xea;" horiz-adv-x="543" 
d="M338 700l96 -120h-80l-80 89l-80 -89h-80l95 120h129zM404 144h90q-40 -154 -218 -154h-7q-110 0 -168 60t-58 201v27q0 141 58 201.5t168 60.5h8q110 0 166.5 -58t56.5 -199v-37h-367q1 -58 11.5 -95t31 -55t42.5 -24t55 -6q50 0 82.5 16t48.5 62zM271 469
q-64 0 -97.5 -31t-39.5 -126h275v7q0 81 -35.5 115.5t-102.5 34.5z" />
    <glyph glyph-name="edieresis" unicode="&#xeb;" horiz-adv-x="543" 
d="M147 681h80v-85h-80v85zM321 681h80v-85h-80v85zM404 144h90q-40 -154 -218 -154h-7q-110 0 -168 60t-58 201v27q0 141 58 201.5t168 60.5h8q110 0 166.5 -58t56.5 -199v-37h-367q1 -58 11.5 -95t31 -55t42.5 -24t55 -6q50 0 82.5 16t48.5 62zM271 469q-64 0 -97.5 -31
t-39.5 -126h275v7q0 81 -35.5 115.5t-102.5 34.5z" />
    <glyph glyph-name="igrave" unicode="&#xec;" horiz-adv-x="199" 
d="M63 700l77 -120h-82l-100 120h105zM54 530h91v-530h-91v530z" />
    <glyph glyph-name="iacute" unicode="&#xed;" horiz-adv-x="199" 
d="M241 700l-100 -120h-82l78 120h104zM54 530h91v-530h-91v530z" />
    <glyph glyph-name="icircumflex" unicode="&#xee;" horiz-adv-x="199" 
d="M163 700l96 -120h-80l-80 89l-80 -89h-80l95 120h129zM54 530h91v-530h-91v530z" />
    <glyph glyph-name="idieresis" unicode="&#xef;" horiz-adv-x="199" 
d="M-28 681h80v-85h-80v85zM146 681h80v-85h-80v85zM54 530h91v-530h-91v530z" />
    <glyph glyph-name="eth" unicode="&#xf0;" horiz-adv-x="560" 
d="M291 -10h-19q-103 0 -167 56q-62 56 -62 184v25q0 236 217 236q76 0 128 -42l3 4q-30 55 -70 106l-195 -30v69l142 22q-33 35 -84 80h121q33 -29 63 -65l140 22v-69l-92 -14q101 -147 101 -308v-27q0 -249 -226 -249zM280 70q73 0 110 35.5t37 128.5v17q0 96 -36.5 130.5
t-110.5 34.5t-110.5 -35t-36.5 -130v-17q0 -93 37 -128.5t110 -35.5z" />
    <glyph glyph-name="ntilde" unicode="&#xf1;" horiz-adv-x="540" 
d="M340 589q-28 0 -71 22t-57 22q-15 0 -23.5 -8t-13.5 -31h-58q5 52 26 74.5t62 22.5q28 0 70.5 -21.5t56.5 -21.5q16 0 24.5 8t12.5 31h60q-5 -51 -27 -74.5t-62 -23.5zM491 344v-344h-90v322q0 79 -30.5 108t-91.5 29q-64 0 -99 -34t-35 -121v-304h-91v530h91v-82h4
q37 92 156 92q89 0 137.5 -46t48.5 -150z" />
    <glyph glyph-name="ograve" unicode="&#xf2;" horiz-adv-x="556" 
d="M242 700l77 -120h-82l-100 120h105zM283 -10h-11q-115 0 -172 62t-57 200v27q0 137 57 199t172 62h12q115 0 172 -62t57 -200v-27q0 -137 -57 -199t-173 -62zM278 70q35 0 58.5 7t44.5 25.5t31 57t10 97.5v16q0 59 -10 97.5t-31 57t-44.5 25.5t-58.5 7
q-72 0 -108.5 -37.5t-36.5 -149.5v-16q0 -112 36.5 -149.5t108.5 -37.5z" />
    <glyph glyph-name="oacute" unicode="&#xf3;" horiz-adv-x="556" 
d="M420 700l-100 -120h-82l78 120h104zM283 -10h-11q-115 0 -172 62t-57 200v27q0 137 57 199t172 62h12q115 0 172 -62t57 -200v-27q0 -137 -57 -199t-173 -62zM278 70q35 0 58.5 7t44.5 25.5t31 57t10 97.5v16q0 59 -10 97.5t-31 57t-44.5 25.5t-58.5 7
q-72 0 -108.5 -37.5t-36.5 -149.5v-16q0 -112 36.5 -149.5t108.5 -37.5z" />
    <glyph glyph-name="ocircumflex" unicode="&#xf4;" horiz-adv-x="556" 
d="M342 700l96 -120h-80l-80 89l-80 -89h-80l95 120h129zM283 -10h-11q-115 0 -172 62t-57 200v27q0 137 57 199t172 62h12q115 0 172 -62t57 -200v-27q0 -137 -57 -199t-173 -62zM278 70q35 0 58.5 7t44.5 25.5t31 57t10 97.5v16q0 59 -10 97.5t-31 57t-44.5 25.5t-58.5 7
q-72 0 -108.5 -37.5t-36.5 -149.5v-16q0 -112 36.5 -149.5t108.5 -37.5z" />
    <glyph glyph-name="otilde" unicode="&#xf5;" horiz-adv-x="556" 
d="M345 589q-29 0 -71.5 22t-56.5 22q-16 0 -24.5 -8t-12.5 -31h-58q5 51 26.5 74t61.5 23q28 0 70 -21.5t57 -21.5q16 0 24.5 8t12.5 31h60q-5 -51 -27 -74.5t-62 -23.5zM283 -10h-11q-115 0 -172 62t-57 200v27q0 137 57 199t172 62h12q115 0 172 -62t57 -200v-27
q0 -137 -57 -199t-173 -62zM278 70q35 0 58.5 7t44.5 25.5t31 57t10 97.5v16q0 59 -10 97.5t-31 57t-44.5 25.5t-58.5 7q-72 0 -108.5 -37.5t-36.5 -149.5v-16q0 -112 36.5 -149.5t108.5 -37.5z" />
    <glyph glyph-name="odieresis" unicode="&#xf6;" horiz-adv-x="556" 
d="M151 681h80v-85h-80v85zM325 681h80v-85h-80v85zM283 -10h-11q-115 0 -172 62t-57 200v27q0 137 57 199t172 62h12q115 0 172 -62t57 -200v-27q0 -137 -57 -199t-173 -62zM278 70q35 0 58.5 7t44.5 25.5t31 57t10 97.5v16q0 59 -10 97.5t-31 57t-44.5 25.5t-58.5 7
q-72 0 -108.5 -37.5t-36.5 -149.5v-16q0 -112 36.5 -149.5t108.5 -37.5z" />
    <glyph glyph-name="divide" unicode="&#xf7;" horiz-adv-x="589" 
d="M329 575v-82h-70v82h70zM490 363v-68h-391v68h391zM329 165v-82h-70v82h70z" />
    <glyph glyph-name="oslash" unicode="&#xf8;" horiz-adv-x="558" 
d="M123 -40h-80l58 91q-58 61 -58 201v27q0 137 57 199t172 62h12q67 0 115 -21l32 51h80l-57 -89q59 -65 59 -203v-27q0 -137 -57 -199t-173 -62h-11q-68 0 -116 21zM133 273v-16q0 -79 21 -124l199 314q-30 13 -75 13q-72 0 -108.5 -37.5t-36.5 -149.5zM278 70
q35 0 58.5 7t44.5 25.5t31 57t10 97.5v16q0 81 -21 125l-200 -315q33 -13 77 -13z" />
    <glyph glyph-name="ugrave" unicode="&#xf9;" horiz-adv-x="540" 
d="M233 700l77 -120h-82l-100 120h105zM49 186v344h90v-322q0 -79 30.5 -108t91.5 -29q64 0 99 34t35 121v304h91v-530h-91v82h-4q-37 -92 -156 -92q-89 0 -137.5 46t-48.5 150z" />
    <glyph glyph-name="uacute" unicode="&#xfa;" horiz-adv-x="540" 
d="M411 700l-100 -120h-82l78 120h104zM49 186v344h90v-322q0 -79 30.5 -108t91.5 -29q64 0 99 34t35 121v304h91v-530h-91v82h-4q-37 -92 -156 -92q-89 0 -137.5 46t-48.5 150z" />
    <glyph glyph-name="ucircumflex" unicode="&#xfb;" horiz-adv-x="540" 
d="M334 700l96 -120h-80l-80 89l-80 -89h-80l95 120h129zM49 186v344h90v-322q0 -79 30.5 -108t91.5 -29q64 0 99 34t35 121v304h91v-530h-91v82h-4q-37 -92 -156 -92q-89 0 -137.5 46t-48.5 150z" />
    <glyph glyph-name="udieresis" unicode="&#xfc;" horiz-adv-x="540" 
d="M143 681h80v-85h-80v85zM317 681h80v-85h-80v85zM49 186v344h90v-322q0 -79 30.5 -108t91.5 -29q64 0 99 34t35 121v304h91v-530h-91v82h-4q-37 -92 -156 -92q-89 0 -137.5 46t-48.5 150z" />
    <glyph glyph-name="yacute" unicode="&#xfd;" horiz-adv-x="502" 
d="M399 700l-100 -120h-82l78 120h104zM502 530l-270 -700h-95l71 172l-204 528h97l154 -410h4l151 410h92z" />
    <glyph glyph-name="thorn" unicode="&#xfe;" horiz-adv-x="567" 
d="M145 75v-245h-91v870h91v-245h4q16 42 51 63.5t100 21.5h4q104 0 161.5 -57.5t57.5 -199.5v-36q0 -142 -57.5 -199.5t-161.5 -57.5h-4q-65 0 -100 21.5t-51 63.5h-4zM289 70q73 0 108.5 37t35.5 150v16q0 113 -35.5 150t-108.5 37t-108.5 -37t-35.5 -150v-16
q0 -113 35.5 -150t108.5 -37z" />
    <glyph glyph-name="ydieresis" unicode="&#xff;" horiz-adv-x="502" 
d="M131 681h80v-85h-80v85zM305 681h80v-85h-80v85zM502 530l-270 -700h-95l71 172l-204 528h97l154 -410h4l151 410h92z" />
    <glyph glyph-name="Amacron" unicode="&#x100;" horiz-adv-x="720" 
d="M510 829v-54h-298v54h298zM433 700l266 -700h-107l-75 198h-318l-74 -198h-104l265 700h147zM361 618h-5l-126 -336h257z" />
    <glyph glyph-name="amacron" unicode="&#x101;" horiz-adv-x="529" 
d="M417 666v-55h-298v55h298zM480 341v-341h-89v73h-5q-39 -83 -167 -83q-87 0 -136.5 39t-49.5 120v6q0 75 40.5 114.5t130.5 44.5l186 10v20q0 75 -30.5 99.5t-96.5 24.5q-54 0 -83.5 -20.5t-39.5 -66.5h-89q31 159 209 159h11q108 0 158.5 -43t50.5 -156zM124 158v-6
q0 -48 31.5 -71.5t85.5 -23.5q149 0 149 139v63l-169 -9q-51 -3 -74 -25t-23 -67z" />
    <glyph glyph-name="Abreve" unicode="&#x102;" horiz-adv-x="720" 
d="M361 733q-77 0 -113.5 30.5t-38.5 96.5h69q0 -71 83 -71q81 0 83 71h69q-3 -66 -39 -96.5t-113 -30.5zM433 700l266 -700h-107l-75 198h-318l-74 -198h-104l265 700h147zM361 618h-5l-126 -336h257z" />
    <glyph glyph-name="abreve" unicode="&#x103;" horiz-adv-x="529" 
d="M268 573q-77 0 -113.5 31t-38.5 96h69q0 -71 83 -71q81 0 83 71h69q-3 -65 -39 -96t-113 -31zM480 341v-341h-89v73h-5q-39 -83 -167 -83q-87 0 -136.5 39t-49.5 120v6q0 75 40.5 114.5t130.5 44.5l186 10v20q0 75 -30.5 99.5t-96.5 24.5q-54 0 -83.5 -20.5t-39.5 -66.5
h-89q31 159 209 159h11q108 0 158.5 -43t50.5 -156zM124 158v-6q0 -48 31.5 -71.5t85.5 -23.5q149 0 149 139v63l-169 -9q-51 -3 -74 -25t-23 -67z" />
    <glyph glyph-name="Aogonek" unicode="&#x104;" horiz-adv-x="720" 
d="M673 -87v-53h-56q-50 0 -73.5 16t-23.5 55q0 29 13.5 47.5t53.5 35.5l-70 184h-318l-74 -198h-104l265 700h147l266 -700h-26q-45 -14 -58 -25.5t-13 -30.5q0 -16 10 -23.5t35 -7.5h26zM361 618h-5l-126 -336h257z" />
    <glyph glyph-name="aogonek" unicode="&#x105;" horiz-adv-x="529" 
d="M480 341v-341h-1q-45 -14 -58 -25.5t-13 -30.5q0 -16 10 -23.5t35 -7.5h26v-53h-56q-50 0 -73.5 16t-23.5 55q0 29 12.5 47t52.5 36v59h-5q-39 -83 -167 -83q-87 0 -136.5 39t-49.5 120v6q0 75 40.5 114.5t130.5 44.5l186 10v20q0 75 -30.5 99.5t-96.5 24.5
q-54 0 -83.5 -20.5t-39.5 -66.5h-89q31 159 209 159h11q108 0 158.5 -43t50.5 -156zM124 158v-6q0 -48 31.5 -71.5t85.5 -23.5q149 0 149 139v63l-169 -9q-51 -3 -74 -25t-23 -67z" />
    <glyph glyph-name="Cacute" unicode="&#x106;" horiz-adv-x="708" 
d="M504 860l-100 -120h-82l78 120h104zM379 -10h-33q-151 0 -219 77.5t-68 240.5v84q0 163 68 240.5t219 77.5h33q122 0 189 -52.5t90 -166.5h-100q-17 69 -62 100.5t-124 31.5h-19q-112 0 -154 -60.5t-42 -186.5v-52q0 -126 42 -186.5t154 -60.5h19q79 0 124 31.5t62 100.5
h100q-23 -114 -90 -166.5t-189 -52.5z" />
    <glyph glyph-name="cacute" unicode="&#x107;" horiz-adv-x="510" 
d="M409 700l-100 -120h-82l78 120h104zM273 -10h-8q-107 0 -164.5 60t-57.5 198v34q0 138 57.5 198t164.5 60h8q176 0 207 -167h-89q-14 51 -44.5 69t-77.5 18q-65 0 -100.5 -37.5t-35.5 -147.5v-20q0 -110 35.5 -147.5t100.5 -37.5q47 0 77.5 18t44.5 69h89
q-33 -167 -207 -167z" />
    <glyph glyph-name="Ccircumflex" unicode="&#x108;" horiz-adv-x="708" 
d="M426 860l96 -120h-80l-80 89l-80 -89h-80l95 120h129zM379 -10h-33q-151 0 -219 77.5t-68 240.5v84q0 163 68 240.5t219 77.5h33q122 0 189 -52.5t90 -166.5h-100q-17 69 -62 100.5t-124 31.5h-19q-112 0 -154 -60.5t-42 -186.5v-52q0 -126 42 -186.5t154 -60.5h19
q79 0 124 31.5t62 100.5h100q-23 -114 -90 -166.5t-189 -52.5z" />
    <glyph glyph-name="ccircumflex" unicode="&#x109;" horiz-adv-x="510" 
d="M333 700l96 -120h-80l-80 89l-80 -89h-80l95 120h129zM273 -10h-8q-107 0 -164.5 60t-57.5 198v34q0 138 57.5 198t164.5 60h8q176 0 207 -167h-89q-14 51 -44.5 69t-77.5 18q-65 0 -100.5 -37.5t-35.5 -147.5v-20q0 -110 35.5 -147.5t100.5 -37.5q47 0 77.5 18t44.5 69
h89q-33 -167 -207 -167z" />
    <glyph glyph-name="Cdotaccent" unicode="&#x10a;" horiz-adv-x="708" 
d="M317 844h90v-85h-90v85zM379 -10h-33q-151 0 -219 77.5t-68 240.5v84q0 163 68 240.5t219 77.5h33q122 0 189 -52.5t90 -166.5h-100q-17 69 -62 100.5t-124 31.5h-19q-112 0 -154 -60.5t-42 -186.5v-52q0 -126 42 -186.5t154 -60.5h19q79 0 124 31.5t62 100.5h100
q-23 -114 -90 -166.5t-189 -52.5z" />
    <glyph glyph-name="cdotaccent" unicode="&#x10b;" horiz-adv-x="510" 
d="M224 681h90v-85h-90v85zM273 -10h-8q-107 0 -164.5 60t-57.5 198v34q0 138 57.5 198t164.5 60h8q176 0 207 -167h-89q-14 51 -44.5 69t-77.5 18q-65 0 -100.5 -37.5t-35.5 -147.5v-20q0 -110 35.5 -147.5t100.5 -37.5q47 0 77.5 18t44.5 69h89q-33 -167 -207 -167z" />
    <glyph glyph-name="Ccaron" unicode="&#x10c;" horiz-adv-x="708" 
d="M362 771l80 89h80l-96 -120h-129l-95 120h80zM379 -10h-33q-151 0 -219 77.5t-68 240.5v84q0 163 68 240.5t219 77.5h33q122 0 189 -52.5t90 -166.5h-100q-17 69 -62 100.5t-124 31.5h-19q-112 0 -154 -60.5t-42 -186.5v-52q0 -126 42 -186.5t154 -60.5h19q79 0 124 31.5
t62 100.5h100q-23 -114 -90 -166.5t-189 -52.5z" />
    <glyph glyph-name="ccaron" unicode="&#x10d;" horiz-adv-x="510" 
d="M269 611l80 89h80l-96 -120h-129l-95 120h80zM273 -10h-8q-107 0 -164.5 60t-57.5 198v34q0 138 57.5 198t164.5 60h8q176 0 207 -167h-89q-14 51 -44.5 69t-77.5 18q-65 0 -100.5 -37.5t-35.5 -147.5v-20q0 -110 35.5 -147.5t100.5 -37.5q47 0 77.5 18t44.5 69h89
q-33 -167 -207 -167z" />
    <glyph glyph-name="Dcaron" unicode="&#x10e;" horiz-adv-x="713" 
d="M353 771l80 89h80l-96 -120h-129l-95 120h80zM653 381v-63q0 -162 -71.5 -240t-223.5 -78h-288v700h288q151 0 223 -78.5t72 -240.5zM354 616h-187v-532h187q112 0 156.5 62.5t44.5 187.5v32q0 125 -44.5 187.5t-156.5 62.5z" />
    <glyph glyph-name="dcaron" unicode="&#x10f;" horiz-adv-x="710" 
d="M517 700v-700h-91v75h-4q-34 -85 -151 -85h-5q-104 0 -161.5 58t-57.5 199v36q0 141 57.5 199t161.5 58h5q117 0 151 -85h4v245h91zM703 700l-54 -206h-70l34 206h90zM282 70q73 0 108.5 37t35.5 150v16q0 113 -35.5 150t-108.5 37q-36 0 -60 -6.5t-45 -26t-30.5 -57.5
t-9.5 -97v-16q0 -59 9.5 -97t30.5 -57.5t45 -26t60 -6.5z" />
    <glyph glyph-name="Dcroat" unicode="&#x110;" horiz-adv-x="713" 
d="M70 313h-70v74h70v313h288q151 0 223 -78.5t72 -240.5v-63q0 -162 -71.5 -240t-223.5 -78h-288v313zM349 387v-74h-182v-229h187q112 0 156.5 62.5t44.5 187.5v32q0 125 -44.5 187.5t-156.5 62.5h-187v-229h182z" />
    <glyph glyph-name="dslash" unicode="&#x111;" horiz-adv-x="564" 
d="M509 577v-577h-91v75h-4q-34 -85 -151 -85h-5q-104 0 -161.5 58t-57.5 199v36q0 141 57.5 199t161.5 58h5q117 0 151 -85h4v122h-161v68h161v55h91v-55h52v-68h-52zM274 70q73 0 108.5 37t35.5 150v16q0 113 -35.5 150t-108.5 37q-36 0 -60 -6.5t-45 -26t-30.5 -57.5
t-9.5 -97v-16q0 -59 9.5 -97t30.5 -57.5t45 -26t60 -6.5z" />
    <glyph glyph-name="Emacron" unicode="&#x112;" horiz-adv-x="606" 
d="M461 829v-54h-298v54h298zM555 85v-85h-485v700h485v-85h-388v-222h388v-85h-388v-223h388z" />
    <glyph glyph-name="emacron" unicode="&#x113;" horiz-adv-x="543" 
d="M423 666v-55h-298v55h298zM404 144h90q-40 -154 -218 -154h-7q-110 0 -168 60t-58 201v27q0 141 58 201.5t168 60.5h8q110 0 166.5 -58t56.5 -199v-37h-367q1 -58 11.5 -95t31 -55t42.5 -24t55 -6q50 0 82.5 16t48.5 62zM271 469q-64 0 -97.5 -31t-39.5 -126h275v7
q0 81 -35.5 115.5t-102.5 34.5z" />
    <glyph glyph-name="Ebreve" unicode="&#x114;" horiz-adv-x="606" 
d="M312 733q-77 0 -113.5 30.5t-38.5 96.5h69q0 -71 83 -71q81 0 83 71h69q-3 -66 -39 -96.5t-113 -30.5zM555 85v-85h-485v700h485v-85h-388v-222h388v-85h-388v-223h388z" />
    <glyph glyph-name="ebreve" unicode="&#x115;" horiz-adv-x="543" 
d="M274 573q-77 0 -113.5 31t-38.5 96h69q0 -71 83 -71q81 0 83 71h69q-3 -65 -39 -96t-113 -31zM404 144h90q-40 -154 -218 -154h-7q-110 0 -168 60t-58 201v27q0 141 58 201.5t168 60.5h8q110 0 166.5 -58t56.5 -199v-37h-367q1 -58 11.5 -95t31 -55t42.5 -24t55 -6
q50 0 82.5 16t48.5 62zM271 469q-64 0 -97.5 -31t-39.5 -126h275v7q0 81 -35.5 115.5t-102.5 34.5z" />
    <glyph glyph-name="Edotaccent" unicode="&#x116;" horiz-adv-x="606" 
d="M267 844h90v-85h-90v85zM555 85v-85h-485v700h485v-85h-388v-222h388v-85h-388v-223h388z" />
    <glyph glyph-name="edotaccent" unicode="&#x117;" horiz-adv-x="543" 
d="M229 681h90v-85h-90v85zM404 144h90q-40 -154 -218 -154h-7q-110 0 -168 60t-58 201v27q0 141 58 201.5t168 60.5h8q110 0 166.5 -58t56.5 -199v-37h-367q1 -58 11.5 -95t31 -55t42.5 -24t55 -6q50 0 82.5 16t48.5 62zM271 469q-64 0 -97.5 -31t-39.5 -126h275v7
q0 81 -35.5 115.5t-102.5 34.5z" />
    <glyph glyph-name="Eogonek" unicode="&#x118;" horiz-adv-x="606" 
d="M555 85v-85h-1q-45 -14 -58 -25.5t-13 -30.5q0 -16 10 -23.5t35 -7.5h26v-53h-56q-50 0 -73.5 16t-23.5 55q0 45 38 69h-369v700h485v-85h-388v-222h388v-85h-388v-223h388z" />
    <glyph glyph-name="eogonek" unicode="&#x119;" horiz-adv-x="542" 
d="M435 -87v-53h-66q-46 0 -67 16.5t-21 51.5q0 39 26 59v4q-12 -1 -35 -1q-119 0 -173.5 63.5t-54.5 197.5v27q0 141 57.5 201.5t167.5 60.5h8q110 0 166.5 -58t56.5 -199v-37h-366q1 -58 11 -95t30.5 -55t42.5 -24t55 -6q50 0 82.5 16t48.5 62h90q-18 -78 -83 -124
q-28 -21 -38 -35.5t-10 -35.5q0 -20 9 -28t36 -8h27zM271 469q-63 0 -97.5 -31t-38.5 -126h275v7q0 81 -36 115.5t-103 34.5z" />
    <glyph glyph-name="Ecaron" unicode="&#x11a;" horiz-adv-x="606" 
d="M312 771l80 89h80l-96 -120h-129l-95 120h80zM555 85v-85h-485v700h485v-85h-388v-222h388v-85h-388v-223h388z" />
    <glyph glyph-name="ecaron" unicode="&#x11b;" horiz-adv-x="543" 
d="M274 611l80 89h80l-96 -120h-129l-95 120h80zM404 144h90q-40 -154 -218 -154h-7q-110 0 -168 60t-58 201v27q0 141 58 201.5t168 60.5h8q110 0 166.5 -58t56.5 -199v-37h-367q1 -58 11.5 -95t31 -55t42.5 -24t55 -6q50 0 82.5 16t48.5 62zM271 469q-64 0 -97.5 -31
t-39.5 -126h275v7q0 81 -35.5 115.5t-102.5 34.5z" />
    <glyph glyph-name="Gcircumflex" unicode="&#x11c;" horiz-adv-x="730" 
d="M429 860l96 -120h-80l-80 89l-80 -89h-80l95 120h129zM377 -10h-23q-152 0 -223.5 78t-71.5 240v83q0 163 71.5 241t223.5 78h23q240 0 283 -201h-102q-28 114 -182 114h-21q-112 0 -155 -60.5t-43 -186.5v-52q0 -126 43 -186.5t155 -60.5h23q110 1 152.5 54t42.5 170v1
h-224v85h321v-79q0 -162 -71 -240t-222 -78z" />
    <glyph glyph-name="gcircumflex" unicode="&#x11d;" horiz-adv-x="566" 
d="M354 700l96 -120h-80l-80 89l-80 -89h-80l95 120h129zM288 -170h-8q-95 0 -152.5 29.5t-71.5 102.5h90q14 -35 45 -47t93 -12q68 0 98.5 29t30.5 106v64h-4q-33 -75 -149 -75h-5q-101 0 -153.5 55.5t-52.5 191.5v19q0 135 53 191t153 56h5q117 0 149 -75h4v65h90v-493
q0 -114 -52.5 -160.5t-162.5 -46.5zM278 107q34 0 55.5 5t41.5 21.5t29 51.5t9 90v15q0 56 -9 91t-29 51.5t-41.5 21.5t-55.5 5q-35 0 -56.5 -5t-42 -21.5t-30 -51.5t-10.5 -91v-15q0 -55 9.5 -90t30 -51.5t42.5 -21.5t57 -5z" />
    <glyph glyph-name="Gbreve" unicode="&#x11e;" horiz-adv-x="730" 
d="M365 733q-77 0 -113.5 30.5t-38.5 96.5h69q0 -71 83 -71q81 0 83 71h69q-3 -66 -39 -96.5t-113 -30.5zM377 -10h-23q-152 0 -223.5 78t-71.5 240v83q0 163 71.5 241t223.5 78h23q240 0 283 -201h-102q-28 114 -182 114h-21q-112 0 -155 -60.5t-43 -186.5v-52
q0 -126 43 -186.5t155 -60.5h23q110 1 152.5 54t42.5 170v1h-224v85h321v-79q0 -162 -71 -240t-222 -78z" />
    <glyph glyph-name="gbreve" unicode="&#x11f;" horiz-adv-x="566" 
d="M290 573q-77 0 -113.5 31t-38.5 96h69q0 -71 83 -71q81 0 83 71h69q-3 -65 -39 -96t-113 -31zM288 -170h-8q-95 0 -152.5 29.5t-71.5 102.5h90q14 -35 45 -47t93 -12q68 0 98.5 29t30.5 106v64h-4q-33 -75 -149 -75h-5q-101 0 -153.5 55.5t-52.5 191.5v19q0 135 53 191
t153 56h5q117 0 149 -75h4v65h90v-493q0 -114 -52.5 -160.5t-162.5 -46.5zM278 107q34 0 55.5 5t41.5 21.5t29 51.5t9 90v15q0 56 -9 91t-29 51.5t-41.5 21.5t-55.5 5q-35 0 -56.5 -5t-42 -21.5t-30 -51.5t-10.5 -91v-15q0 -55 9.5 -90t30 -51.5t42.5 -21.5t57 -5z" />
    <glyph glyph-name="Gdotaccent" unicode="&#x120;" horiz-adv-x="730" 
d="M320 844h90v-85h-90v85zM377 -10h-23q-152 0 -223.5 78t-71.5 240v83q0 163 71.5 241t223.5 78h23q240 0 283 -201h-102q-28 114 -182 114h-21q-112 0 -155 -60.5t-43 -186.5v-52q0 -126 43 -186.5t155 -60.5h23q110 1 152.5 54t42.5 170v1h-224v85h321v-79
q0 -162 -71 -240t-222 -78z" />
    <glyph glyph-name="gdotaccent" unicode="&#x121;" horiz-adv-x="566" 
d="M245 681h90v-85h-90v85zM288 -170h-8q-95 0 -152.5 29.5t-71.5 102.5h90q14 -35 45 -47t93 -12q68 0 98.5 29t30.5 106v64h-4q-33 -75 -149 -75h-5q-101 0 -153.5 55.5t-52.5 191.5v19q0 135 53 191t153 56h5q117 0 149 -75h4v65h90v-493q0 -114 -52.5 -160.5
t-162.5 -46.5zM278 107q34 0 55.5 5t41.5 21.5t29 51.5t9 90v15q0 56 -9 91t-29 51.5t-41.5 21.5t-55.5 5q-35 0 -56.5 -5t-42 -21.5t-30 -51.5t-10.5 -91v-15q0 -55 9.5 -90t30 -51.5t42.5 -21.5t57 -5z" />
    <glyph glyph-name="Gcommaaccent" unicode="&#x122;" horiz-adv-x="730" 
d="M377 -10h-23q-152 0 -223.5 78t-71.5 240v83q0 163 71.5 241t223.5 78h23q240 0 283 -201h-102q-28 114 -182 114h-21q-112 0 -155 -60.5t-43 -186.5v-52q0 -126 43 -186.5t155 -60.5h23q110 1 152.5 54t42.5 170v1h-224v85h321v-79q0 -162 -71 -240t-222 -78zM394 -149
l-14 -21h-56l39 59v8h-56v56h116v-14q0 -28 -6 -45t-23 -43z" />
    <glyph glyph-name="gcommaaccent" unicode="&#x123;" horiz-adv-x="566" 
d="M261 693l15 21h55l-39 -59v-8h56v-56h-116v14q0 42 29 88zM288 -170h-8q-95 0 -152.5 29.5t-71.5 102.5h90q14 -35 45 -47t93 -12q68 0 98.5 29t30.5 106v64h-4q-33 -75 -149 -75h-5q-101 0 -153.5 55.5t-52.5 191.5v19q0 135 53 191t153 56h5q117 0 149 -75h4v65h90
v-493q0 -114 -52.5 -160.5t-162.5 -46.5zM278 107q34 0 55.5 5t41.5 21.5t29 51.5t9 90v15q0 56 -9 91t-29 51.5t-41.5 21.5t-55.5 5q-35 0 -56.5 -5t-42 -21.5t-30 -51.5t-10.5 -91v-15q0 -55 9.5 -90t30 -51.5t42.5 -21.5t57 -5z" />
    <glyph glyph-name="Hcircumflex" unicode="&#x124;" horiz-adv-x="715" 
d="M421 860l96 -120h-80l-80 89l-80 -89h-80l95 120h129zM645 700v-700h-97v308h-381v-308h-97v700h97v-308h381v308h97z" />
    <glyph glyph-name="hcircumflex" unicode="&#x125;" horiz-adv-x="540" 
d="M163 870l96 -120h-80l-80 89l-80 -89h-80l95 120h129zM491 344v-344h-90v322q0 79 -30.5 108t-91.5 29q-64 0 -99 -34t-35 -121v-304h-91v700h91v-252h4q37 92 156 92q89 0 137.5 -46t48.5 -150z" />
    <glyph glyph-name="Hbar" unicode="&#x126;" horiz-adv-x="715" 
d="M70 508h-70v74h70v118h97v-118h381v118h97v-118h70v-74h-70v-508h-97v308h-381v-308h-97v508zM167 508v-116h381v116h-381z" />
    <glyph glyph-name="hbar" unicode="&#x127;" horiz-adv-x="540" 
d="M491 344v-344h-90v322q0 79 -30.5 108t-91.5 29q-64 0 -99 -34t-35 -121v-304h-91v577h-52v68h52v55h91v-55h161v-68h-161v-129h4q37 92 156 92q89 0 137.5 -46t48.5 -150z" />
    <glyph glyph-name="Itilde" unicode="&#x128;" horiz-adv-x="237" 
d="M186 749q-28 0 -71 22t-57 22q-15 0 -23.5 -8t-13.5 -31h-58q5 52 26 74.5t62 22.5q28 0 70.5 -21.5t56.5 -21.5q16 0 24.5 8t12.5 31h60q-5 -51 -27 -74.5t-62 -23.5zM167 700v-700h-97v700h97z" />
    <glyph glyph-name="itilde" unicode="&#x129;" horiz-adv-x="199" 
d="M166 589q-28 0 -71.5 22t-56.5 22q-15 0 -23.5 -8t-13.5 -31h-58q5 52 26 74.5t62 22.5q28 0 70.5 -21.5t56.5 -21.5q16 0 24.5 8t12.5 31h60q-5 -51 -27 -74.5t-62 -23.5zM54 530h91v-530h-91v530z" />
    <glyph glyph-name="Imacron" unicode="&#x12a;" horiz-adv-x="237" 
d="M268 829v-54h-298v54h298zM167 700v-700h-97v700h97z" />
    <glyph glyph-name="imacron" unicode="&#x12b;" horiz-adv-x="199" 
d="M248 666v-55h-298v55h298zM54 530h91v-530h-91v530z" />
    <glyph glyph-name="Ibreve" unicode="&#x12c;" horiz-adv-x="237" 
d="M119 733q-77 0 -113.5 30.5t-38.5 96.5h69q0 -71 83 -71q81 0 83 71h69q-3 -66 -39 -96.5t-113 -30.5zM167 700v-700h-97v700h97z" />
    <glyph glyph-name="ibreve" unicode="&#x12d;" horiz-adv-x="199" 
d="M99 573q-77 0 -113.5 31t-38.5 96h69q0 -71 83 -71q81 0 83 71h69q-3 -65 -39 -96t-113 -31zM54 530h91v-530h-91v530z" />
    <glyph glyph-name="Iogonek" unicode="&#x12e;" horiz-adv-x="237" 
d="M167 700v-700h-1q-45 -14 -58 -25.5t-13 -30.5q0 -16 10 -23.5t35 -7.5h26v-53h-56q-50 0 -73.5 16t-23.5 55q0 27 11.5 45t45.5 34v690h97z" />
    <glyph glyph-name="iogonek" unicode="&#x12f;" horiz-adv-x="199" 
d="M54 700h91v-86h-91v86zM144 -87v-53h-56q-50 0 -73.5 16t-23.5 55q0 28 12.5 46.5t50.5 35.5v517h91v-530h-1q-45 -14 -58 -25.5t-13 -30.5q0 -16 10 -23.5t35 -7.5h26z" />
    <glyph glyph-name="Idot" unicode="&#x130;" horiz-adv-x="237" 
d="M73 844h90v-85h-90v85zM167 700v-700h-97v700h97z" />
    <glyph glyph-name="dotlessi" unicode="&#x131;" horiz-adv-x="199" 
d="M54 530h91v-530h-91v530z" />
    <glyph glyph-name="IJ" unicode="&#x132;" horiz-adv-x="658" 
d="M167 700v-700h-97v700h97zM352 0h-101v85h73q100 0 136.5 39.5t36.5 135.5v440h98v-439q0 -138 -55 -199.5t-188 -61.5z" />
    <glyph glyph-name="ij" unicode="&#x133;" horiz-adv-x="411" 
d="M54 700h91v-86h-91v86zM265 700h91v-86h-91v86zM54 530h91v-530h-91v530zM265 530h91v-445q0 -93 -12.5 -140.5t-50.5 -114.5h-96q41 65 54.5 113.5t13.5 130.5v456z" />
    <glyph glyph-name="Jcircumflex" unicode="&#x134;" horiz-adv-x="421" 
d="M373 860l96 -120h-80l-80 89l-80 -89h-80l95 120h129zM115 0h-101v85h73q101 0 137 39.5t36 135.5v440h98v-439q0 -139 -54.5 -200t-188.5 -61z" />
    <glyph glyph-name="jcircumflex" unicode="&#x135;" horiz-adv-x="211" 
d="M169 700l96 -120h-80l-80 89l-80 -89h-80l95 120h129zM60 530h90v-445q0 -96 -12 -143t-51 -112h-94q40 67 53.5 115t13.5 129v456z" />
    <glyph glyph-name="Kcommaaccent" unicode="&#x136;" horiz-adv-x="683" 
d="M167 246v-246h-97v700h97v-331h5l363 331h126l-305 -278l313 -422h-119l-263 352h-5zM371 -149l-14 -21h-56l39 59v8h-56v56h116v-14q0 -28 -6 -45t-23 -43z" />
    <glyph glyph-name="kcommaaccent" unicode="&#x137;" horiz-adv-x="511" 
d="M145 162v-162h-91v700h91v-423h4l240 253h111l-211 -217l220 -313h-107l-172 246h-5zM286 -149l-14 -21h-56l39 59v8h-56v56h116v-14q0 -28 -6 -45t-23 -43z" />
    <glyph glyph-name="Lacute" unicode="&#x139;" horiz-adv-x="551" 
d="M260 860l-100 -120h-82l78 120h104zM522 85v-85h-452v700h97v-615h355z" />
    <glyph glyph-name="lacute" unicode="&#x13a;" horiz-adv-x="199" 
d="M241 860l-100 -120h-82l78 120h104zM145 700v-700h-91v700h91z" />
    <glyph glyph-name="Lcommaaccent" unicode="&#x13b;" horiz-adv-x="551" 
d="M522 85v-85h-452v700h97v-615h355zM318 -149l-14 -21h-56l39 59v8h-56v56h116v-14q0 -28 -6 -45t-23 -43z" />
    <glyph glyph-name="lcommaaccent" unicode="&#x13c;" horiz-adv-x="199" 
d="M145 700v-700h-91v700h91zM128 -149l-14 -21h-56l39 59v8h-56v56h116v-14q0 -28 -6 -45t-23 -43z" />
    <glyph glyph-name="Lcaron" unicode="&#x13d;" horiz-adv-x="566" 
d="M461 701l-54 -206h-70l34 206h90zM522 85v-85h-452v700h97v-615h355z" />
    <glyph glyph-name="lcaron" unicode="&#x13e;" horiz-adv-x="338" 
d="M145 700v-700h-91v700h91zM331 700l-54 -206h-70l34 206h90z" />
    <glyph glyph-name="Ldot" unicode="&#x13f;" horiz-adv-x="562" 
d="M522 85v-85h-452v700h97v-615h355zM353 434h88v-85h-88v85z" />
    <glyph glyph-name="ldot" unicode="&#x140;" horiz-adv-x="376" 
d="M145 700v-700h-91v700h91zM242 315h88v-85h-88v85z" />
    <glyph glyph-name="Lslash" unicode="&#x141;" horiz-adv-x="551" 
d="M70 280l-70 -19v76l70 19v344h97v-317l204 57v-76l-204 -57v-222h355v-85h-452v280z" />
    <glyph glyph-name="lslash" unicode="&#x142;" horiz-adv-x="219" 
d="M149 393v-393h-91v309l-50 -46v82l50 46v309h91v-225l70 65v-82z" />
    <glyph glyph-name="Nacute" unicode="&#x143;" horiz-adv-x="737" 
d="M519 860l-100 -120h-82l78 120h104zM669 700v-700h-154l-346 600h-6v-600h-96v700h154l346 -601h6v601h96z" />
    <glyph glyph-name="nacute" unicode="&#x144;" horiz-adv-x="540" 
d="M415 700l-100 -120h-82l78 120h104zM491 344v-344h-90v322q0 79 -30.5 108t-91.5 29q-64 0 -99 -34t-35 -121v-304h-91v530h91v-82h4q37 92 156 92q89 0 137.5 -46t48.5 -150z" />
    <glyph glyph-name="Ncommaaccent" unicode="&#x145;" horiz-adv-x="737" 
d="M669 700v-700h-154l-346 600h-6v-600h-96v700h154l346 -601h6v601h96zM388 -149l-14 -21h-56l39 59v8h-56v56h116v-14q0 -28 -6 -45t-23 -43z" />
    <glyph glyph-name="ncommaaccent" unicode="&#x146;" horiz-adv-x="540" 
d="M491 344v-344h-90v322q0 79 -30.5 108t-91.5 29q-64 0 -99 -34t-35 -121v-304h-91v530h91v-82h4q37 92 156 92q89 0 137.5 -46t48.5 -150zM299 -149l-14 -21h-56l39 59v8h-56v56h116v-14q0 -28 -6 -45t-23 -43z" />
    <glyph glyph-name="Ncaron" unicode="&#x147;" horiz-adv-x="737" 
d="M377 771l80 89h80l-96 -120h-129l-95 120h80zM669 700v-700h-154l-346 600h-6v-600h-96v700h154l346 -601h6v601h96z" />
    <glyph glyph-name="ncaron" unicode="&#x148;" horiz-adv-x="540" 
d="M273 611l80 89h80l-96 -120h-129l-95 120h80zM491 344v-344h-90v322q0 79 -30.5 108t-91.5 29q-64 0 -99 -34t-35 -121v-304h-91v530h91v-82h4q37 92 156 92q89 0 137.5 -46t48.5 -150z" />
    <glyph glyph-name="Eng" unicode="&#x14a;" horiz-adv-x="742" 
d="M429 -170h-101v85h86q98 0 123 51l-365 634h-6v-600h-96v700h154l346 -601h6v601h96v-609q0 -138 -54.5 -199.5t-188.5 -61.5z" />
    <glyph glyph-name="eng" unicode="&#x14b;" horiz-adv-x="540" 
d="M145 304v-304h-91v530h91v-82h4q37 92 156 92q89 0 137.5 -46t48.5 -150v-301q0 -118 -47 -165.5t-150 -47.5h-39v75h11q75 0 105 28.5t30 111.5v277q0 79 -30.5 108t-91.5 29q-64 0 -99 -34t-35 -121z" />
    <glyph glyph-name="Omacron" unicode="&#x14c;" horiz-adv-x="731" 
d="M514 829v-54h-298v54h298zM377 -10h-23q-152 0 -223.5 78t-71.5 240v83q0 163 71.5 241t223.5 78h23q152 0 223.5 -78t71.5 -241v-83q0 -162 -71.5 -240t-223.5 -78zM355 77h21q112 1 155 61.5t43 185.5v52q0 126 -43.5 186.5t-154.5 60.5h-21q-112 0 -155 -60.5
t-43 -186.5v-52q0 -126 43 -186.5t155 -60.5z" />
    <glyph glyph-name="omacron" unicode="&#x14d;" horiz-adv-x="556" 
d="M427 666v-55h-298v55h298zM283 -10h-11q-115 0 -172 62t-57 200v27q0 137 57 199t172 62h12q115 0 172 -62t57 -200v-27q0 -137 -57 -199t-173 -62zM278 70q35 0 58.5 7t44.5 25.5t31 57t10 97.5v16q0 59 -10 97.5t-31 57t-44.5 25.5t-58.5 7q-72 0 -108.5 -37.5
t-36.5 -149.5v-16q0 -112 36.5 -149.5t108.5 -37.5z" />
    <glyph glyph-name="Obreve" unicode="&#x14e;" horiz-adv-x="731" 
d="M365 733q-77 0 -113.5 30.5t-38.5 96.5h69q0 -71 83 -71q81 0 83 71h69q-3 -66 -39 -96.5t-113 -30.5zM377 -10h-23q-152 0 -223.5 78t-71.5 240v83q0 163 71.5 241t223.5 78h23q152 0 223.5 -78t71.5 -241v-83q0 -162 -71.5 -240t-223.5 -78zM355 77h21q112 1 155 61.5
t43 185.5v52q0 126 -43.5 186.5t-154.5 60.5h-21q-112 0 -155 -60.5t-43 -186.5v-52q0 -126 43 -186.5t155 -60.5z" />
    <glyph glyph-name="obreve" unicode="&#x14f;" horiz-adv-x="556" 
d="M278 573q-77 0 -113.5 31t-38.5 96h69q0 -71 83 -71q81 0 83 71h69q-3 -65 -39 -96t-113 -31zM283 -10h-11q-115 0 -172 62t-57 200v27q0 137 57 199t172 62h12q115 0 172 -62t57 -200v-27q0 -137 -57 -199t-173 -62zM278 70q35 0 58.5 7t44.5 25.5t31 57t10 97.5v16
q0 59 -10 97.5t-31 57t-44.5 25.5t-58.5 7q-72 0 -108.5 -37.5t-36.5 -149.5v-16q0 -112 36.5 -149.5t108.5 -37.5z" />
    <glyph glyph-name="Ohungarumlaut" unicode="&#x150;" horiz-adv-x="731" 
d="M422 860l-100 -120h-83l78 120h105zM580 860l-101 -120h-82l79 120h104zM377 -10h-23q-152 0 -223.5 78t-71.5 240v83q0 163 71.5 241t223.5 78h23q152 0 223.5 -78t71.5 -241v-83q0 -162 -71.5 -240t-223.5 -78zM355 77h21q112 1 155 61.5t43 185.5v52
q0 126 -43.5 186.5t-154.5 60.5h-21q-112 0 -155 -60.5t-43 -186.5v-52q0 -126 43 -186.5t155 -60.5z" />
    <glyph glyph-name="ohungarumlaut" unicode="&#x151;" horiz-adv-x="556" 
d="M341 700l-100 -120h-83l78 120h105zM499 700l-101 -120h-82l79 120h104zM283 -10h-11q-115 0 -172 62t-57 200v27q0 137 57 199t172 62h12q115 0 172 -62t57 -200v-27q0 -137 -57 -199t-173 -62zM278 70q35 0 58.5 7t44.5 25.5t31 57t10 97.5v16q0 59 -10 97.5t-31 57
t-44.5 25.5t-58.5 7q-72 0 -108.5 -37.5t-36.5 -149.5v-16q0 -112 36.5 -149.5t108.5 -37.5z" />
    <glyph glyph-name="OE" unicode="&#x152;" horiz-adv-x="1082" 
d="M1031 85v-85h-676q-150 0 -222.5 78.5t-72.5 240.5v63q0 162 72.5 240t222.5 78h676v-85h-388v-222h388v-85h-388v-223h388zM359 84h187v532h-187q-111 0 -156 -62.5t-45 -187.5v-32q0 -125 44 -187.5t157 -62.5z" />
    <glyph glyph-name="oe" unicode="&#x153;" horiz-adv-x="925" 
d="M284 -10h-12q-115 0 -172 62t-57 200v27q0 137 57 199t173 62h11q138 0 182 -89h4q49 89 180 89h8q111 0 167.5 -58.5t56.5 -198.5v-37h-370q1 -108 36.5 -144t105.5 -36q51 0 83.5 16t48.5 62h90q-40 -154 -218 -154h-8q-135 0 -179 90h-4q-44 -90 -183 -90zM652 469
q-65 0 -100 -31t-39 -126h279v7q0 81 -36 115.5t-104 34.5zM278 70q35 0 58.5 7t44.5 25.5t31 57t10 97.5v16q0 59 -10 97.5t-31 57t-44.5 25.5t-58.5 7q-72 0 -108.5 -37.5t-36.5 -149.5v-16q0 -112 36.5 -149.5t108.5 -37.5z" />
    <glyph glyph-name="Racute" unicode="&#x154;" horiz-adv-x="684" 
d="M480 860l-100 -120h-82l78 120h104zM167 290v-290h-97v700h342q113 0 161.5 -40.5t48.5 -139.5v-16q0 -79 -23.5 -115.5t-75.5 -46.5v-5q55 -9 77 -42t22 -116v-179h-97v164q0 76 -25.5 101t-105.5 25h-227zM385 616h-218v-242h235q74 0 98 27q25 28 25 92v6
q0 68 -29.5 92.5t-110.5 24.5z" />
    <glyph glyph-name="racute" unicode="&#x155;" horiz-adv-x="347" 
d="M362 700l-100 -120h-82l78 120h104zM303 530h33v-84h-44q-75 0 -111 -30.5t-36 -117.5v-298h-91v530h91v-81h4q29 81 154 81z" />
    <glyph glyph-name="Rcommaaccent" unicode="&#x156;" horiz-adv-x="684" 
d="M167 290v-290h-97v700h342q113 0 161.5 -40.5t48.5 -139.5v-16q0 -79 -23.5 -115.5t-75.5 -46.5v-5q55 -9 77 -42t22 -116v-179h-97v164q0 76 -25.5 101t-105.5 25h-227zM385 616h-218v-242h235q74 0 98 27q25 28 25 92v6q0 68 -29.5 92.5t-110.5 24.5zM374 -149l-14 -21
h-56l39 59v8h-56v56h116v-14q0 -28 -6 -45t-23 -43z" />
    <glyph glyph-name="rcommaaccent" unicode="&#x157;" horiz-adv-x="347" 
d="M303 530h33v-84h-44q-75 0 -111 -30.5t-36 -117.5v-298h-91v530h91v-81h4q29 81 154 81zM128 -149l-14 -21h-56l39 59v8h-56v56h116v-14q0 -28 -6 -45t-23 -43z" />
    <glyph glyph-name="Rcaron" unicode="&#x158;" horiz-adv-x="684" 
d="M339 771l80 89h80l-96 -120h-129l-95 120h80zM167 290v-290h-97v700h342q113 0 161.5 -40.5t48.5 -139.5v-16q0 -79 -23.5 -115.5t-75.5 -46.5v-5q55 -9 77 -42t22 -116v-179h-97v164q0 76 -25.5 101t-105.5 25h-227zM385 616h-218v-242h235q74 0 98 27q25 28 25 92v6
q0 68 -29.5 92.5t-110.5 24.5z" />
    <glyph glyph-name="rcaron" unicode="&#x159;" horiz-adv-x="347" 
d="M213 611l80 89h80l-96 -120h-129l-95 120h80zM303 530h33v-84h-44q-75 0 -111 -30.5t-36 -117.5v-298h-91v530h91v-81h4q29 81 154 81z" />
    <glyph glyph-name="Sacute" unicode="&#x15a;" horiz-adv-x="638" 
d="M456 860l-100 -120h-82l78 120h104zM330 -10h-10q-251 0 -276 185h101q6 -32 24 -53.5t44.5 -31.5t52 -13.5t58.5 -3.5q89 0 131.5 28t42.5 94v9q0 56 -29 80t-112 28l-98 5q-106 6 -153.5 51t-47.5 131v7q0 204 249 204h13q111 0 183 -44.5t82 -144.5h-100
q-12 60 -54.5 83t-119.5 23q-80 0 -117.5 -26.5t-37.5 -86.5v-4q0 -56 29 -80.5t112 -28.5l98 -5q106 -5 153.5 -50t47.5 -131v-11q0 -116 -69.5 -165t-196.5 -49z" />
    <glyph glyph-name="sacute" unicode="&#x15b;" horiz-adv-x="516" 
d="M418 700l-100 -120h-82l78 120h104zM260 -10h-6q-191 0 -217 146h90q17 -74 133 -74q66 0 97 18.5t31 69.5v6q0 38 -21.5 54.5t-76.5 19.5l-89 5q-88 4 -121 39.5t-33 100.5v9q0 77 53 116.5t149 39.5h9q91 0 143 -33t69 -113h-90q-14 43 -43.5 58.5t-81.5 15.5
q-118 0 -118 -79v-5q0 -38 21.5 -54.5t76.5 -19.5l89 -5q89 -4 121.5 -40t32.5 -101v-10q0 -164 -218 -164z" />
    <glyph glyph-name="Scircumflex" unicode="&#x15c;" horiz-adv-x="638" 
d="M379 860l96 -120h-80l-80 89l-80 -89h-80l95 120h129zM330 -10h-10q-251 0 -276 185h101q6 -32 24 -53.5t44.5 -31.5t52 -13.5t58.5 -3.5q89 0 131.5 28t42.5 94v9q0 56 -29 80t-112 28l-98 5q-106 6 -153.5 51t-47.5 131v7q0 204 249 204h13q111 0 183 -44.5t82 -144.5
h-100q-12 60 -54.5 83t-119.5 23q-80 0 -117.5 -26.5t-37.5 -86.5v-4q0 -56 29 -80.5t112 -28.5l98 -5q106 -5 153.5 -50t47.5 -131v-11q0 -116 -69.5 -165t-196.5 -49z" />
    <glyph glyph-name="scircumflex" unicode="&#x15d;" horiz-adv-x="516" 
d="M319 700l96 -120h-80l-80 89l-80 -89h-80l95 120h129zM260 -10h-6q-191 0 -217 146h90q17 -74 133 -74q66 0 97 18.5t31 69.5v6q0 38 -21.5 54.5t-76.5 19.5l-89 5q-88 4 -121 39.5t-33 100.5v9q0 77 53 116.5t149 39.5h9q91 0 143 -33t69 -113h-90q-14 43 -43.5 58.5
t-81.5 15.5q-118 0 -118 -79v-5q0 -38 21.5 -54.5t76.5 -19.5l89 -5q89 -4 121.5 -40t32.5 -101v-10q0 -164 -218 -164z" />
    <glyph glyph-name="Scedilla" unicode="&#x15e;" horiz-adv-x="638" 
d="M596 215v-11q0 -203 -238 -213l-36 -131h-88l47 131q-216 15 -237 184h101q6 -32 24 -53.5t44.5 -31.5t52 -13.5t58.5 -3.5q89 0 131.5 28t42.5 94v9q0 56 -29 80t-112 28l-98 5q-106 6 -153.5 51t-47.5 131v7q0 204 249 204h13q111 0 183 -44.5t82 -144.5h-100
q-12 60 -54.5 83t-119.5 23q-80 0 -117.5 -26.5t-37.5 -86.5v-4q0 -56 29 -80.5t112 -28.5l98 -5q106 -5 153.5 -50t47.5 -131z" />
    <glyph glyph-name="scedilla" unicode="&#x15f;" horiz-adv-x="516" 
d="M478 164v-10q0 -144 -169 -162l-37 -132h-88l47 131q-171 8 -194 145h90q17 -74 133 -74q66 0 97 18.5t31 69.5v6q0 38 -21.5 54.5t-76.5 19.5l-89 5q-88 4 -121 39.5t-33 100.5v9q0 77 53 116.5t149 39.5h9q91 0 143 -33t69 -113h-90q-14 43 -43.5 58.5t-81.5 15.5
q-118 0 -118 -79v-5q0 -38 21.5 -54.5t76.5 -19.5l89 -5q89 -4 121.5 -40t32.5 -101z" />
    <glyph glyph-name="Scaron" unicode="&#x160;" horiz-adv-x="638" 
d="M315 771l80 89h80l-96 -120h-129l-95 120h80zM330 -10h-10q-251 0 -276 185h101q6 -32 24 -53.5t44.5 -31.5t52 -13.5t58.5 -3.5q89 0 131.5 28t42.5 94v9q0 56 -29 80t-112 28l-98 5q-106 6 -153.5 51t-47.5 131v7q0 204 249 204h13q111 0 183 -44.5t82 -144.5h-100
q-12 60 -54.5 83t-119.5 23q-80 0 -117.5 -26.5t-37.5 -86.5v-4q0 -56 29 -80.5t112 -28.5l98 -5q106 -5 153.5 -50t47.5 -131v-11q0 -116 -69.5 -165t-196.5 -49z" />
    <glyph glyph-name="scaron" unicode="&#x161;" horiz-adv-x="516" 
d="M255 611l80 89h80l-96 -120h-129l-95 120h80zM260 -10h-6q-191 0 -217 146h90q17 -74 133 -74q66 0 97 18.5t31 69.5v6q0 38 -21.5 54.5t-76.5 19.5l-89 5q-88 4 -121 39.5t-33 100.5v9q0 77 53 116.5t149 39.5h9q91 0 143 -33t69 -113h-90q-14 43 -43.5 58.5t-81.5 15.5
q-118 0 -118 -79v-5q0 -38 21.5 -54.5t76.5 -19.5l89 -5q89 -4 121.5 -40t32.5 -101v-10q0 -164 -218 -164z" />
    <glyph glyph-name="Tcaron" unicode="&#x164;" horiz-adv-x="594" 
d="M296 771l80 89h80l-96 -120h-129l-95 120h80zM345 615v-615h-97v615h-231v85h560v-85h-232z" />
    <glyph glyph-name="tcaron" unicode="&#x165;" horiz-adv-x="368" 
d="M390 794l-54 -206h-70l34 206h90zM336 75v-75h-67q-86 0 -120.5 35.5t-34.5 122.5v297h-105v75h105v170h90v-170h132v-75h-132v-274q0 -67 19.5 -86.5t78.5 -19.5h34z" />
    <glyph glyph-name="Tbar" unicode="&#x166;" horiz-adv-x="594" 
d="M248 301h-171v73h171v241h-231v85h560v-85h-232v-241h171v-73h-171v-301h-97v301z" />
    <glyph glyph-name="tbar" unicode="&#x167;" horiz-adv-x="368" 
d="M114 260h-90v67h90v128h-105v75h105v170h90v-170h132v-75h-132v-128h122v-67h-122v-79q0 -67 19.5 -86.5t78.5 -19.5h34v-75h-67q-86 0 -120.5 35.5t-34.5 122.5v102z" />
    <glyph glyph-name="Utilde" unicode="&#x168;" horiz-adv-x="690" 
d="M412 749q-28 0 -71 22t-57 22q-15 0 -23.5 -8t-13.5 -31h-58q5 52 26 74.5t62 22.5q28 0 70.5 -21.5t56.5 -21.5q16 0 24.5 8t12.5 31h60q-5 -51 -27 -74.5t-62 -23.5zM362 -10h-34q-140 0 -203 65t-63 206v439h98v-428q0 -101 38 -147t131 -46h30q97 0 133 47
q36 48 36 146v428h99v-439q0 -141 -63.5 -206t-201.5 -65z" />
    <glyph glyph-name="utilde" unicode="&#x169;" horiz-adv-x="540" 
d="M337 589q-29 0 -71 22t-57 22q-16 0 -24.5 -8t-12.5 -31h-58q5 51 26.5 74t61.5 23q28 0 70 -21.5t57 -21.5q16 0 24.5 8t12.5 31h60q-5 -51 -27 -74.5t-62 -23.5zM49 186v344h90v-322q0 -79 30.5 -108t91.5 -29q64 0 99 34t35 121v304h91v-530h-91v82h-4
q-37 -92 -156 -92q-89 0 -137.5 46t-48.5 150z" />
    <glyph glyph-name="Umacron" unicode="&#x16a;" horiz-adv-x="690" 
d="M494 829v-54h-298v54h298zM362 -10h-34q-140 0 -203 65t-63 206v439h98v-428q0 -101 38 -147t131 -46h30q97 0 133 47q36 48 36 146v428h99v-439q0 -141 -63.5 -206t-201.5 -65z" />
    <glyph glyph-name="umacron" unicode="&#x16b;" horiz-adv-x="540" 
d="M419 666v-55h-298v55h298zM49 186v344h90v-322q0 -79 30.5 -108t91.5 -29q64 0 99 34t35 121v304h91v-530h-91v82h-4q-37 -92 -156 -92q-89 0 -137.5 46t-48.5 150z" />
    <glyph glyph-name="Ubreve" unicode="&#x16c;" horiz-adv-x="690" 
d="M345 733q-77 0 -113.5 30.5t-38.5 96.5h69q0 -71 83 -71q81 0 83 71h69q-3 -66 -39 -96.5t-113 -30.5zM362 -10h-34q-140 0 -203 65t-63 206v439h98v-428q0 -101 38 -147t131 -46h30q97 0 133 47q36 48 36 146v428h99v-439q0 -141 -63.5 -206t-201.5 -65z" />
    <glyph glyph-name="ubreve" unicode="&#x16d;" horiz-adv-x="540" 
d="M270 573q-77 0 -113.5 31t-38.5 96h69q0 -71 83 -71q81 0 83 71h69q-3 -65 -39 -96t-113 -31zM49 186v344h90v-322q0 -79 30.5 -108t91.5 -29q64 0 99 34t35 121v304h91v-530h-91v82h-4q-37 -92 -156 -92q-89 0 -137.5 46t-48.5 150z" />
    <glyph glyph-name="Uring" unicode="&#x16e;" horiz-adv-x="690" 
d="M345 727q-55 0 -86.5 25.5t-31.5 77.5t31.5 77.5t86.5 25.5t86.5 -25.5t31.5 -77.5t-31.5 -77.5t-86.5 -25.5zM345 776q57 0 57 54t-57 54q-58 0 -58 -54t58 -54zM362 -10h-34q-140 0 -203 65t-63 206v439h98v-428q0 -101 38 -147t131 -46h30q97 0 133 47q36 48 36 146
v428h99v-439q0 -141 -63.5 -206t-201.5 -65z" />
    <glyph glyph-name="uring" unicode="&#x16f;" horiz-adv-x="540" 
d="M270 567q-118 0 -118 103t118 103t118 -103t-118 -103zM270 616q57 0 57 54t-57 54q-58 0 -58 -54t58 -54zM49 186v344h90v-322q0 -79 30.5 -108t91.5 -29q64 0 99 34t35 121v304h91v-530h-91v82h-4q-37 -92 -156 -92q-89 0 -137.5 46t-48.5 150z" />
    <glyph glyph-name="Uhungarumlaut" unicode="&#x170;" horiz-adv-x="690" 
d="M401 860l-100 -120h-83l78 120h105zM559 860l-101 -120h-82l79 120h104zM362 -10h-34q-140 0 -203 65t-63 206v439h98v-428q0 -101 38 -147t131 -46h30q97 0 133 47q36 48 36 146v428h99v-439q0 -141 -63.5 -206t-201.5 -65z" />
    <glyph glyph-name="uhungarumlaut" unicode="&#x171;" horiz-adv-x="540" 
d="M327 700l-100 -120h-83l78 120h105zM485 700l-101 -120h-82l79 120h104zM49 186v344h90v-322q0 -79 30.5 -108t91.5 -29q64 0 99 34t35 121v304h91v-530h-91v82h-4q-37 -92 -156 -92q-89 0 -137.5 46t-48.5 150z" />
    <glyph glyph-name="Uogonek" unicode="&#x172;" horiz-adv-x="690" 
d="M421 -87v-53h-66q-46 0 -67 15.5t-21 51.5q0 40 37 62v4h-6q-236 0 -236 268v439h98v-428q0 -101 38 -147t131 -46h30q97 0 133 47q36 48 36 146v428h99v-439q0 -118 -42.5 -181t-139.5 -86q-61 -15 -78.5 -24.5t-17.5 -28.5q0 -15 9.5 -21.5t35.5 -6.5h27z" />
    <glyph glyph-name="uogonek" unicode="&#x173;" horiz-adv-x="540" 
d="M485 -87v-53h-56q-50 0 -73.5 16t-23.5 55q0 28 12.5 46.5t50.5 35.5v69h-4q-37 -92 -156 -92q-89 0 -137.5 46t-48.5 150v344h90v-322q0 -79 30.5 -108t91.5 -29q64 0 99 34t35 121v304h91v-530h-1q-45 -14 -58 -25.5t-13 -30.5q0 -16 10 -23.5t35 -7.5h26z" />
    <glyph glyph-name="Wcircumflex" unicode="&#x174;" horiz-adv-x="1005" 
d="M569 860l96 -120h-80l-80 89l-80 -89h-80l95 120h129zM981 700l-170 -700h-138l-170 568l-171 -568h-139l-169 700h102l138 -599h5l180 599h113l179 -599h5l138 599h97z" />
    <glyph glyph-name="wcircumflex" unicode="&#x175;" horiz-adv-x="756" 
d="M444 700l96 -120h-80l-80 89l-80 -89h-80l95 120h129zM745 530l-132 -530h-118l-115 413l-114 -413h-123l-132 530h97l100 -434h5l119 434h99l118 -434h5l101 434h90z" />
    <glyph glyph-name="Ycircumflex" unicode="&#x176;" horiz-adv-x="670" 
d="M399 860l96 -120h-80l-80 89l-80 -89h-80l95 120h129zM383 308v-308h-98v306l-264 394h114l201 -303h5l202 303h106z" />
    <glyph glyph-name="ycircumflex" unicode="&#x177;" horiz-adv-x="502" 
d="M322 700l96 -120h-80l-80 89l-80 -89h-80l95 120h129zM502 530l-270 -700h-95l71 172l-204 528h97l154 -410h4l151 410h92z" />
    <glyph glyph-name="Ydieresis" unicode="&#x178;" horiz-adv-x="670" 
d="M208 844h80v-85h-80v85zM382 844h80v-85h-80v85zM383 308v-308h-98v306l-264 394h114l201 -303h5l202 303h106z" />
    <glyph glyph-name="Zacute" unicode="&#x179;" horiz-adv-x="641" 
d="M465 860l-100 -120h-82l78 120h104zM596 85v-85h-548v80l414 535h-399v85h521v-80l-414 -535h426z" />
    <glyph glyph-name="zacute" unicode="&#x17a;" horiz-adv-x="469" 
d="M377 700l-100 -120h-82l78 120h104zM438 75v-75h-404v70l284 385h-274v75h385v-70l-284 -385h293z" />
    <glyph glyph-name="Zdotaccent" unicode="&#x17b;" horiz-adv-x="641" 
d="M279 844h90v-85h-90v85zM596 85v-85h-548v80l414 535h-399v85h521v-80l-414 -535h426z" />
    <glyph glyph-name="zdotaccent" unicode="&#x17c;" horiz-adv-x="469" 
d="M191 681h90v-85h-90v85zM438 75v-75h-404v70l284 385h-274v75h385v-70l-284 -385h293z" />
    <glyph glyph-name="Zcaron" unicode="&#x17d;" horiz-adv-x="641" 
d="M323 771l80 89h80l-96 -120h-129l-95 120h80zM596 85v-85h-548v80l414 535h-399v85h521v-80l-414 -535h426z" />
    <glyph glyph-name="zcaron" unicode="&#x17e;" horiz-adv-x="469" 
d="M236 611l80 89h80l-96 -120h-129l-95 120h80zM438 75v-75h-404v70l284 385h-274v75h385v-70l-284 -385h293z" />
    <glyph glyph-name="florin" unicode="&#x192;" 
d="M313 321v-426h-93v426h-197v59h197v35q0 84 15 140.5t46.5 88t73 44t102.5 12.5h123v-84h-113q-83 0 -118.5 -41.5t-35.5 -154.5v-40h267v-59h-267z" />
    <glyph glyph-name="Aringacute" unicode="&#x1fa;" horiz-adv-x="720" 
d="M502 1080l-100 -120h-82l78 120h104zM361 727q-55 0 -86.5 25.5t-31.5 77.5t31.5 77.5t86.5 25.5t86.5 -25.5t31.5 -77.5t-31.5 -77.5t-86.5 -25.5zM361 776q57 0 57 54t-57 54q-58 0 -58 -54t58 -54zM433 700l266 -700h-107l-75 198h-318l-74 -198h-104l265 700h147z
M361 618h-5l-126 -336h257z" />
    <glyph glyph-name="aringacute" unicode="&#x1fb;" horiz-adv-x="529" 
d="M412 920l-100 -120h-82l78 120h104zM271 565q-118 0 -118 103t118 103t118 -103t-118 -103zM271 614q57 0 57 54t-57 54q-58 0 -58 -54t58 -54zM480 341v-341h-89v73h-5q-39 -83 -167 -83q-87 0 -136.5 39t-49.5 120v6q0 75 40.5 114.5t130.5 44.5l186 10v20
q0 75 -30.5 99.5t-96.5 24.5q-54 0 -83.5 -20.5t-39.5 -66.5h-89q31 159 209 159h11q108 0 158.5 -43t50.5 -156zM124 158v-6q0 -48 31.5 -71.5t85.5 -23.5q149 0 149 139v63l-169 -9q-51 -3 -74 -25t-23 -67z" />
    <glyph glyph-name="AEacute" unicode="&#x1fc;" horiz-adv-x="982" 
d="M635 860l-100 -120h-82l78 120h104zM931 85v-85h-485v200h-226l-104 -200h-107l362 700h560v-85h-389v-222h389v-85h-389v-223h389zM446 618h-9l-173 -334h182v334z" />
    <glyph glyph-name="aeacute" unicode="&#x1fd;" horiz-adv-x="894" 
d="M586 700l-100 -120h-82l78 120h104zM627 -10h-8q-147 0 -192 106h-4q-40 -106 -196 -106q-90 0 -140 39t-50 120v6q0 75 40.5 114.5t130.5 44.5l186 10v20q0 75 -30.5 99.5t-96.5 24.5q-54 0 -83.5 -20.5t-39.5 -66.5h-89q31 159 209 159h11q133 0 173 -70h4
q48 70 167 70h9q109 0 165.5 -58t56.5 -199v-37h-366q0 -56 10 -93.5t30.5 -55.5t43 -24.5t55.5 -6.5q50 0 82.5 16t48.5 62h91q-40 -154 -218 -154zM622 469q-64 0 -98.5 -31t-38.5 -126h275v7q0 81 -35.5 115.5t-102.5 34.5zM128 157v-6q0 -47 32 -70.5t87 -23.5
q147 0 147 139v63l-169 -9q-51 -3 -74 -25.5t-23 -67.5z" />
    <glyph glyph-name="Oslashacute" unicode="&#x1fe;" horiz-adv-x="731" 
d="M506 860l-100 -120h-82l78 120h104zM151 -40h-92l72 108q-72 76 -72 240v83q0 163 71.5 241t223.5 78h23q95 0 162 -32l41 62h92l-72 -108q72 -78 72 -241v-83q0 -162 -71.5 -240t-223.5 -78h-23q-95 0 -162 32zM157 376v-52q0 -114 32 -169l298 445q-44 23 -111 23h-21
q-112 0 -155 -60.5t-43 -186.5zM355 77h21q112 1 155 61.5t43 185.5v52q0 114 -32 169l-298 -445q44 -23 111 -23z" />
    <glyph glyph-name="oslashacute" unicode="&#x1ff;" horiz-adv-x="558" 
d="M418 700l-100 -120h-82l78 120h104zM123 -40h-80l58 91q-58 61 -58 201v27q0 137 57 199t172 62h12q67 0 115 -21l32 51h80l-57 -89q59 -65 59 -203v-27q0 -137 -57 -199t-173 -62h-11q-68 0 -116 21zM133 273v-16q0 -79 21 -124l199 314q-30 13 -75 13
q-72 0 -108.5 -37.5t-36.5 -149.5zM278 70q35 0 58.5 7t44.5 25.5t31 57t10 97.5v16q0 81 -21 125l-200 -315q33 -13 77 -13z" />
    <glyph glyph-name="Scommaaccent" unicode="&#x218;" horiz-adv-x="638" 
d="M330 -10h-10q-251 0 -276 185h101q6 -32 24 -53.5t44.5 -31.5t52 -13.5t58.5 -3.5q89 0 131.5 28t42.5 94v9q0 56 -29 80t-112 28l-98 5q-106 6 -153.5 51t-47.5 131v7q0 204 249 204h13q111 0 183 -44.5t82 -144.5h-100q-12 60 -54.5 83t-119.5 23q-80 0 -117.5 -26.5
t-37.5 -86.5v-4q0 -56 29 -80.5t112 -28.5l98 -5q106 -5 153.5 -50t47.5 -131v-11q0 -116 -69.5 -165t-196.5 -49zM351 -149l-14 -21h-56l39 59v8h-56v56h116v-14q0 -28 -6 -45t-23 -43z" />
    <glyph glyph-name="scommaaccent" unicode="&#x219;" horiz-adv-x="516" 
d="M260 -10h-6q-191 0 -217 146h90q17 -74 133 -74q66 0 97 18.5t31 69.5v6q0 38 -21.5 54.5t-76.5 19.5l-89 5q-88 4 -121 39.5t-33 100.5v9q0 77 53 116.5t149 39.5h9q91 0 143 -33t69 -113h-90q-14 43 -43.5 58.5t-81.5 15.5q-118 0 -118 -79v-5q0 -38 21.5 -54.5
t76.5 -19.5l89 -5q89 -4 121.5 -40t32.5 -101v-10q0 -164 -218 -164zM287 -149l-14 -21h-56l39 59v8h-56v56h116v-14q0 -28 -6 -45t-23 -43z" />
    <glyph glyph-name="Tcommaaccent" unicode="&#x21a;" horiz-adv-x="594" 
d="M345 615v-615h-97v615h-231v85h560v-85h-232zM326 -149l-14 -21h-56l39 59v8h-56v56h116v-14q0 -28 -6 -45t-23 -43z" />
    <glyph glyph-name="tcommaaccent" unicode="&#x21b;" horiz-adv-x="368" 
d="M336 75v-75h-67q-86 0 -120.5 35.5t-34.5 122.5v297h-105v75h105v170h90v-170h132v-75h-132v-274q0 -67 19.5 -86.5t78.5 -19.5h34zM264 -149l-14 -21h-56l39 59v8h-56v56h116v-14q0 -28 -6 -45t-23 -43z" />
    <glyph glyph-name="circumflex" unicode="&#x2c6;" horiz-adv-x="500" 
d="M314 700l96 -120h-80l-80 89l-80 -89h-80l95 120h129z" />
    <glyph glyph-name="caron" unicode="&#x2c7;" horiz-adv-x="500" 
d="M250 611l80 89h80l-96 -120h-129l-95 120h80z" />
    <glyph glyph-name="breve" unicode="&#x2d8;" horiz-adv-x="500" 
d="M250 573q-77 0 -113.5 31t-38.5 96h69q0 -71 83 -71q81 0 83 71h69q-3 -65 -39 -96t-113 -31z" />
    <glyph glyph-name="dotaccent" unicode="&#x2d9;" horiz-adv-x="500" 
d="M204 681h90v-85h-90v85z" />
    <glyph glyph-name="ring" unicode="&#x2da;" horiz-adv-x="500" 
d="M250 567q-118 0 -118 103t118 103t118 -103t-118 -103zM250 616q57 0 57 54t-57 54q-58 0 -58 -54t58 -54z" />
    <glyph glyph-name="ogonek" unicode="&#x2db;" horiz-adv-x="500" 
d="M312 -87v-53h-56q-50 0 -73.5 16t-23.5 55q0 40 28 63t125 48v-42q-45 -14 -58 -25.5t-13 -30.5q0 -16 10 -23.5t35 -7.5h26z" />
    <glyph glyph-name="tilde" unicode="&#x2dc;" horiz-adv-x="500" 
d="M317 589q-29 0 -71 22t-57 22q-16 0 -24.5 -8t-12.5 -31h-58q5 51 26.5 74t61.5 23q28 0 70 -21.5t57 -21.5q16 0 24.5 8t12.5 31h60q-5 -51 -27 -74.5t-62 -23.5z" />
    <glyph glyph-name="hungarumlaut" unicode="&#x2dd;" horiz-adv-x="500" 
d="M262 700l-100 -120h-83l78 120h105zM420 700l-101 -120h-82l79 120h104z" />
    <glyph glyph-name="commaaccent" unicode="&#x326;" horiz-adv-x="500" 
d="M284 -149l-14 -21h-56l39 59v8h-56v56h116v-14q0 -28 -6 -45t-23 -43z" />
    <glyph glyph-name="pi" unicode="&#x3c0;" horiz-adv-x="600" 
d="M579 79v-79h-39q-89 0 -122.5 41t-33.5 147v261h-195v-449h-90v449h-77v81h557v-81h-105v-253q0 -73 19 -95t69 -22h17z" />
    <glyph glyph-name="Wgrave" unicode="&#x1e80;" horiz-adv-x="1005" 
d="M468 860l77 -120h-82l-100 120h105zM981 700l-170 -700h-138l-170 568l-171 -568h-139l-169 700h102l138 -599h5l180 599h113l179 -599h5l138 599h97z" />
    <glyph glyph-name="wgrave" unicode="&#x1e81;" horiz-adv-x="756" 
d="M344 700l77 -120h-82l-100 120h105zM745 530l-132 -530h-118l-115 413l-114 -413h-123l-132 530h97l100 -434h5l119 434h99l118 -434h5l101 434h90z" />
    <glyph glyph-name="Wacute" unicode="&#x1e82;" horiz-adv-x="1005" 
d="M646 860l-100 -120h-82l78 120h104zM981 700l-170 -700h-138l-170 568l-171 -568h-139l-169 700h102l138 -599h5l180 599h113l179 -599h5l138 599h97z" />
    <glyph glyph-name="wacute" unicode="&#x1e83;" horiz-adv-x="756" 
d="M522 700l-100 -120h-82l78 120h104zM745 530l-132 -530h-118l-115 413l-114 -413h-123l-132 530h97l100 -434h5l119 434h99l118 -434h5l101 434h90z" />
    <glyph glyph-name="Wdieresis" unicode="&#x1e84;" horiz-adv-x="1005" 
d="M378 844h80v-85h-80v85zM552 844h80v-85h-80v85zM981 700l-170 -700h-138l-170 568l-171 -568h-139l-169 700h102l138 -599h5l180 599h113l179 -599h5l138 599h97z" />
    <glyph glyph-name="wdieresis" unicode="&#x1e85;" horiz-adv-x="756" 
d="M253 681h80v-85h-80v85zM427 681h80v-85h-80v85zM745 530l-132 -530h-118l-115 413l-114 -413h-123l-132 530h97l100 -434h5l119 434h99l118 -434h5l101 434h90z" />
    <glyph glyph-name="Ygrave" unicode="&#x1ef2;" horiz-adv-x="670" 
d="M298 860l77 -120h-82l-100 120h105zM383 308v-308h-98v306l-264 394h114l201 -303h5l202 303h106z" />
    <glyph glyph-name="ygrave" unicode="&#x1ef3;" horiz-adv-x="502" 
d="M221 700l77 -120h-82l-100 120h105zM502 530l-270 -700h-95l71 172l-204 528h97l154 -410h4l151 410h92z" />
    <glyph glyph-name="endash" unicode="&#x2013;" horiz-adv-x="539" 
d="M523 263h-507v59h507v-59z" />
    <glyph glyph-name="emdash" unicode="&#x2014;" horiz-adv-x="808" 
d="M792 263h-776v59h776v-59z" />
    <glyph glyph-name="quoteleft" unicode="&#x2018;" horiz-adv-x="232" 
d="M94 679l11 21h64l-61 -133v-7h68v-121h-127v72q0 80 45 168z" />
    <glyph glyph-name="quoteright" unicode="&#x2019;" horiz-adv-x="232" 
d="M137 460l-11 -21h-64l61 133v7h-68v121h127v-72q0 -45 -9 -81t-36 -87z" />
    <glyph glyph-name="quotesinglbase" unicode="&#x201a;" horiz-adv-x="235" 
d="M137 -119l-11 -21h-64l61 133v7h-68v121h127v-72q0 -45 -9 -81t-36 -87z" />
    <glyph glyph-name="quotedblleft" unicode="&#x201c;" horiz-adv-x="418" 
d="M94 679l11 21h64l-61 -133v-7h68v-121h-127v72q0 80 45 168zM280 679l11 21h64l-61 -133v-7h68v-121h-127v72q0 80 45 168z" />
    <glyph glyph-name="quotedblright" unicode="&#x201d;" horiz-adv-x="418" 
d="M137 460l-11 -21h-64l61 133v7h-68v121h127v-72q0 -45 -9 -81t-36 -87zM323 460l-11 -21h-64l61 133v7h-68v121h127v-72q0 -45 -9 -81t-36 -87z" />
    <glyph glyph-name="quotedblbase" unicode="&#x201e;" horiz-adv-x="418" 
d="M137 -119l-11 -21h-64l61 133v7h-68v121h127v-72q0 -45 -9 -81t-36 -87zM323 -119l-11 -21h-64l61 133v7h-68v121h127v-72q0 -45 -9 -81t-36 -87z" />
    <glyph glyph-name="dagger" unicode="&#x2020;" horiz-adv-x="346" 
d="M141 475h-113v55h113v170h64v-170h112v-55h-112v-575h-64v575z" />
    <glyph glyph-name="daggerdbl" unicode="&#x2021;" horiz-adv-x="346" 
d="M205 70v-170h-64v170h-113v55h113v350h-113v55h113v170h64v-170h112v-55h-112v-350h112v-55h-112z" />
    <glyph glyph-name="bullet" unicode="&#x2022;" horiz-adv-x="440" 
d="M220 199q-64 0 -109.5 42t-45.5 108t45.5 108.5t109.5 42.5t109 -42.5t45 -108.5q0 -67 -44.5 -108.5t-109.5 -41.5z" />
    <glyph glyph-name="ellipsis" unicode="&#x2026;" horiz-adv-x="708" 
d="M178 0h-120v121h120v-121zM413 0h-119v121h119v-121zM650 0h-120v121h120v-121z" />
    <glyph glyph-name="perthousand" unicode="&#x2030;" horiz-adv-x="1024" 
d="M194 347h-11q-152 0 -152 175v12q0 176 152 176h11q151 0 151 -176v-12q0 -175 -151 -175zM608 700l-371 -700h-65l370 700h66zM189 410q47 0 67 27t20 87v9q0 61 -20 87.5t-67 26.5t-68 -27t-21 -87v-9q0 -60 21 -87t68 -27zM841 -10h-7q-91 0 -118 59h-4
q-29 -59 -118 -59h-7q-153 0 -153 176v12q0 175 153 175h7q91 0 118 -59h4q27 59 118 59h7q153 0 153 -175v-12q0 -176 -153 -176zM591 53q47 0 68 27t21 87v10q0 59 -21 86t-68 27t-67.5 -26.5t-20.5 -86.5v-10q0 -60 20.5 -87t67.5 -27zM836 53q46 0 67 27t21 87v10
q0 59 -21 86t-67 27t-67 -27t-21 -86v-10q0 -60 21 -87t67 -27z" />
    <glyph glyph-name="guilsinglleft" unicode="&#x2039;" horiz-adv-x="221" 
d="M34 289v6l84 219h69l-87 -222l87 -222h-69z" />
    <glyph glyph-name="guilsinglright" unicode="&#x203a;" horiz-adv-x="221" 
d="M187 295v-6l-84 -219h-69l87 222l-87 222h69z" />
    <glyph glyph-name="fraction" unicode="&#x2044;" horiz-adv-x="168" 
d="M302 700l-371 -700h-65l370 700h66z" />
    <glyph glyph-name="zerosuperior" unicode="&#x2070;" horiz-adv-x="376" 
d="M191 374h-6q-79 0 -119 39t-40 154v46q0 115 40 154t119 39h6q39 0 65 -7t49 -27t34 -59.5t11 -99.5v-46q0 -60 -11 -99.5t-34 -59.5t-49.5 -27t-64.5 -7zM188 443q44 0 62.5 22.5t18.5 92.5v64q0 71 -18.5 93t-62.5 22q-43 0 -61.5 -22.5t-18.5 -92.5v-64
q0 -69 18.5 -92t61.5 -23z" />
    <glyph glyph-name="foursuperior" unicode="&#x2074;" horiz-adv-x="376" 
d="M311 481v-101h-81v101h-209v100l172 219h118v-252h55v-67h-55zM88 553v-5h142v185h-4z" />
    <glyph glyph-name="fivesuperior" unicode="&#x2075;" horiz-adv-x="376" 
d="M198 374h-9q-149 0 -162 120h83q10 -52 83 -52q37 0 57.5 19.5t20.5 55.5v6q0 74 -82 74q-61 0 -82 -40h-73l18 243h285v-68h-211l-10 -105h4q25 34 98 34q67 0 101 -35t34 -100v-6q0 -71 -41 -108.5t-114 -37.5z" />
    <glyph glyph-name="sixsuperior" unicode="&#x2076;" horiz-adv-x="376" 
d="M197 374h-6q-81 0 -123 39t-42 154v46q0 115 40 154t122 39h6q130 0 155 -112h-83q-15 45 -75 45q-44 0 -63.5 -22t-19.5 -89v-22h4q24 43 98 43q73 0 106.5 -32.5t33.5 -96.5v-4q0 -72 -40.5 -107t-112.5 -35zM189 440q42 0 60.5 17.5t18.5 54.5v6q0 37 -18.5 54
t-60.5 17t-61 -17t-19 -54v-6q0 -37 19 -54.5t61 -17.5z" />
    <glyph glyph-name="sevensuperior" unicode="&#x2077;" horiz-adv-x="376" 
d="M358 730l-193 -350h-100l200 347v5h-246v68h339v-70z" />
    <glyph glyph-name="eightsuperior" unicode="&#x2078;" horiz-adv-x="376" 
d="M190 374h-4q-160 0 -160 128v5q0 82 64 97v5q-58 13 -58 84v3q0 110 154 110h4q154 0 154 -110v-3q0 -71 -58 -84v-5q64 -15 64 -97v-5q0 -128 -160 -128zM174 629h29q59 0 59 50v5q0 31 -18 43t-56 12q-39 0 -56.5 -12t-17.5 -43v-5q0 -50 60 -50zM188 440
q41 0 60.5 14.5t19.5 50.5v5q0 63 -65 63h-30q-65 0 -65 -63v-5q0 -36 19.5 -50.5t60.5 -14.5z" />
    <glyph glyph-name="ninesuperior" unicode="&#x2079;" horiz-adv-x="376" 
d="M179 806h6q81 0 123 -39t42 -154v-46q0 -115 -40 -154t-122 -39h-6q-130 0 -155 112h83q15 -45 75 -45q44 0 63.5 22t19.5 89v22h-4q-24 -43 -98 -43q-73 0 -106.5 32.5t-33.5 96.5v4q0 72 40.5 107t112.5 35zM187 740q-42 0 -60.5 -17.5t-18.5 -54.5v-6q0 -37 18.5 -54
t60.5 -17t61 17t19 54v6q0 37 -19 54.5t-61 17.5z" />
    <glyph glyph-name="plussuperior" unicode="&#x207a;" horiz-adv-x="357" 
d="M155 563h-123v53h123v127h47v-127h123v-53h-123v-128h-47v128z" />
    <glyph glyph-name="minussuperior" unicode="&#x207b;" horiz-adv-x="349" 
d="M297 563h-245v53h245v-53z" />
    <glyph glyph-name="equalsuperior" unicode="&#x207c;" horiz-adv-x="353" 
d="M311 634h-269v53h269v-53zM311 490h-269v54h269v-54z" />
    <glyph glyph-name="parenleftsuperior" unicode="&#x207d;" horiz-adv-x="224" 
d="M189 403v-50q-71 10 -104.5 62t-33.5 160v30q0 108 33.5 160t104.5 62v-50q-44 -9 -65.5 -49.5t-21.5 -125.5v-24q0 -85 21.5 -125.5t65.5 -49.5z" />
    <glyph glyph-name="parenrightsuperior" unicode="&#x207e;" horiz-adv-x="224" 
d="M33 777v50q71 -10 104.5 -62t33.5 -160v-30q0 -108 -33.5 -160t-104.5 -62v50q44 9 65.5 49.5t21.5 125.5v24q0 85 -21.5 125.5t-65.5 49.5z" />
    <glyph glyph-name="zeroinferior" unicode="&#x2080;" horiz-adv-x="376" 
d="M191 -106h-6q-79 0 -119 39t-40 154v46q0 115 40 154t119 39h6q39 0 65 -7t49 -27t34 -59.5t11 -99.5v-46q0 -60 -11 -99.5t-34 -59.5t-49.5 -27t-64.5 -7zM188 -37q44 0 62.5 22.5t18.5 92.5v64q0 71 -18.5 93t-62.5 22q-43 0 -61.5 -22.5t-18.5 -92.5v-64
q0 -69 18.5 -92t61.5 -23z" />
    <glyph glyph-name="oneinferior" unicode="&#x2081;" horiz-adv-x="273" 
d="M214 320v-420h-82v353h-5l-114 -77v88l92 56h109z" />
    <glyph glyph-name="twoinferior" unicode="&#x2082;" horiz-adv-x="376" 
d="M350 -32v-68h-324v59q0 78 23.5 113t93.5 51l73 18q31 7 42 20t11 41v2q0 54 -75 54q-37 0 -56.5 -11.5t-24.5 -42.5h-82q16 122 157 122h7q155 0 155 -119v-5q0 -52 -21.5 -80.5t-79.5 -42.5l-80 -20q-37 -9 -49 -23.5t-12 -55.5v-12h242z" />
    <glyph glyph-name="threeinferior" unicode="&#x2083;" horiz-adv-x="376" 
d="M198 -106h-9q-146 0 -164 126h83q9 -58 86 -58t77 61v5q0 29 -14.5 42t-52.5 13h-70v67h66q34 0 48.5 12t14.5 38v4q0 54 -71 54q-66 0 -76 -52h-82q18 120 154 120h7q71 0 110.5 -26.5t39.5 -78.5v-5q0 -71 -59 -86v-4q66 -12 66 -98v-5q0 -129 -154 -129z" />
    <glyph glyph-name="fourinferior" unicode="&#x2084;" horiz-adv-x="376" 
d="M311 1v-101h-81v101h-209v100l172 219h118v-252h55v-67h-55zM88 73v-5h142v185h-4z" />
    <glyph glyph-name="fiveinferior" unicode="&#x2085;" horiz-adv-x="376" 
d="M198 -106h-9q-149 0 -162 120h83q10 -52 83 -52q37 0 57.5 19.5t20.5 55.5v6q0 74 -82 74q-61 0 -82 -40h-73l18 243h285v-68h-211l-10 -105h4q25 34 98 34q67 0 101 -35t34 -100v-6q0 -71 -41 -108.5t-114 -37.5z" />
    <glyph glyph-name="sixinferior" unicode="&#x2086;" horiz-adv-x="376" 
d="M197 -106h-6q-81 0 -123 39t-42 154v46q0 115 40 154t122 39h6q130 0 155 -112h-83q-15 45 -75 45q-44 0 -63.5 -22t-19.5 -89v-22h4q24 43 98 43q73 0 106.5 -32.5t33.5 -96.5v-4q0 -72 -40.5 -107t-112.5 -35zM189 -40q42 0 60.5 17.5t18.5 54.5v6q0 37 -18.5 54
t-60.5 17t-61 -17t-19 -54v-6q0 -37 19 -54.5t61 -17.5z" />
    <glyph glyph-name="seveninferior" unicode="&#x2087;" horiz-adv-x="376" 
d="M358 250l-193 -350h-100l200 347v5h-246v68h339v-70z" />
    <glyph glyph-name="eightinferior" unicode="&#x2088;" horiz-adv-x="376" 
d="M190 -106h-4q-160 0 -160 128v5q0 82 64 97v5q-58 13 -58 84v3q0 110 154 110h4q154 0 154 -110v-3q0 -71 -58 -84v-5q64 -15 64 -97v-5q0 -128 -160 -128zM174 149h29q59 0 59 50v5q0 31 -18 43t-56 12q-39 0 -56.5 -12t-17.5 -43v-5q0 -50 60 -50zM188 -40
q41 0 60.5 14.5t19.5 50.5v5q0 63 -65 63h-30q-65 0 -65 -63v-5q0 -36 19.5 -50.5t60.5 -14.5z" />
    <glyph glyph-name="nineinferior" unicode="&#x2089;" horiz-adv-x="376" 
d="M179 326h6q81 0 123 -39t42 -154v-46q0 -115 -40 -154t-122 -39h-6q-130 0 -155 112h83q15 -45 75 -45q44 0 63.5 22t19.5 89v22h-4q-24 -43 -98 -43q-73 0 -106.5 32.5t-33.5 96.5v4q0 72 40.5 107t112.5 35zM187 260q-42 0 -60.5 -17.5t-18.5 -54.5v-6q0 -37 18.5 -54
t60.5 -17t61 17t19 54v6q0 37 -19 54.5t-61 17.5z" />
    <glyph glyph-name="plusinferior" unicode="&#x208a;" horiz-adv-x="357" 
d="M155 136v127h47v-127h123v-53h-123v-128h-47v128h-123v53h123z" />
    <glyph glyph-name="minusinferior" unicode="&#x208b;" horiz-adv-x="349" 
d="M297 83h-245v53h245v-53z" />
    <glyph glyph-name="equalinferior" unicode="&#x208c;" horiz-adv-x="353" 
d="M311 154h-269v53h269v-53zM311 10h-269v54h269v-54z" />
    <glyph glyph-name="parenleftinferior" unicode="&#x208d;" horiz-adv-x="224" 
d="M189 -77v-50q-71 10 -104.5 62t-33.5 160v30q0 108 33.5 160t104.5 62v-50q-44 -9 -65.5 -49.5t-21.5 -125.5v-24q0 -85 21.5 -125.5t65.5 -49.5z" />
    <glyph glyph-name="parenrightinferior" unicode="&#x208e;" horiz-adv-x="224" 
d="M33 297v50q71 -10 104.5 -62t33.5 -160v-30q0 -108 -33.5 -160t-104.5 -62v50q44 9 65.5 49.5t21.5 125.5v24q0 85 -21.5 125.5t-65.5 49.5z" />
    <glyph glyph-name="Euro" unicode="&#x20ac;" 
d="M337 -10h-12q-40 0 -70.5 5t-62.5 21.5t-54 44t-37.5 76t-20.5 114.5h-73v60h71v5v68v5h-71v60h73q5 66 20.5 114.5t37.5 76t54 44t62.5 21.5t70.5 5h12q99 0 158.5 -40.5t76.5 -136.5h-92q-15 50 -48.5 71.5t-100.5 21.5q-75 0 -112 -35t-44 -142h309v-60h-311v-78h311
v-60h-309q7 -105 45.5 -141t110.5 -36q67 0 100.5 21.5t48.5 71.5h92q-17 -96 -76.5 -136.5t-158.5 -40.5z" />
    <glyph glyph-name="litre" unicode="&#x2113;" horiz-adv-x="391" 
d="M234 -15q-140 0 -140 191q-34 -24 -50 -31l-26 55q35 21 76 48v235q0 118 30 172.5t101 54.5q66 0 97 -42.5t31 -129.5q0 -98 -41 -167.5t-144 -145.5v-64q0 -106 77 -106q39 0 67 36l27 -54q-45 -52 -105 -52zM168 498v-196q70 55 94 105.5t24 127.5q0 55 -13.5 80.5
t-44.5 25.5t-45.5 -31t-14.5 -112z" />
    <glyph glyph-name="numero" unicode="&#x2116;" horiz-adv-x="1189" 
d="M971 272h-7q-89 0 -136 48t-47 160v19q0 113 47 161t136 48h7q88 0 134 -48t46 -161v-19q0 -112 -46.5 -160t-133.5 -48zM672 700v-700h-154l-346 600h-6v-600h-96v700h154l346 -601h6v601h96zM965 343q52 0 77.5 28t25.5 113v13q0 83 -25.5 111.5t-77.5 28.5
q-51 0 -76.5 -28.5t-25.5 -111.5v-13q0 -85 25.5 -113t76.5 -28z" />
    <glyph glyph-name="published" unicode="&#x2117;" horiz-adv-x="758" 
d="M417 -10h-77q-160 0 -237 82.5t-77 235.5v84q0 153 77 235.5t237 82.5h77q160 0 237.5 -83t77.5 -235v-84q0 -152 -77.5 -235t-237.5 -83zM352 25h54q162 0 224.5 77t62.5 231v34q0 154 -62.5 231t-224.5 77h-54q-162 0 -224 -77t-62 -231v-34q0 -154 62 -231t224 -77z
M301 295v-155h-76v420h212q72 0 104.5 -28.5t32.5 -95.5v-20q0 -121 -137 -121h-136zM424 497h-123v-141h123q42 0 57.5 15.5t15.5 51.5v9q0 37 -15.5 51t-57.5 14z" />
    <glyph glyph-name="trademark" unicode="&#x2122;" horiz-adv-x="865" 
d="M210 637v-287h-72v287h-117v63h307v-63h-118zM827 700v-350h-70v291h-5l-113 -291h-76l-113 291h-4v-291h-71v350h125l102 -263h5l103 263h117z" />
    <glyph glyph-name="Omega" unicode="&#x2126;" horiz-adv-x="731" 
d="M680 84v-84h-272v131q91 5 128.5 61.5t37.5 168.5v27q0 116 -44 175.5t-155 59.5h-19q-111 0 -155 -59.5t-44 -175.5v-27q0 -113 37.5 -169t129.5 -61v-131h-272v84h173v6q-166 27 -166 266v47q0 144 73.5 225.5t221.5 81.5h23q148 0 221.5 -81.5t73.5 -225.5v-47
q0 -239 -166 -266v-6h174z" />
    <glyph glyph-name="estimated" unicode="&#x212e;" horiz-adv-x="835" 
d="M426 -15q-163 0 -278.5 107t-115.5 258q0 152 115 258.5t279 106.5t279.5 -106.5t115.5 -258.5q0 -17 -1 -18h-622v-215q94 -82 228 -82q100 0 180 44t124 113h51q-47 -93 -143 -150t-212 -57zM198 588v-205h449v210q-87 72 -221 72q-70 0 -130.5 -21.5t-97.5 -55.5z" />
    <glyph glyph-name="arrowleft" unicode="&#x2190;" horiz-adv-x="897" 
d="M163 387h701v-75h-701v-7l308 -306h-109l-346 348v4l346 348h109l-308 -305v-7z" />
    <glyph glyph-name="arrowup" unicode="&#x2191;" horiz-adv-x="896" 
d="M494 627v-702h-76v702h-6l-307 -309v109l348 346h5l347 -346v-109l-305 309h-6z" />
    <glyph glyph-name="arrowright" unicode="&#x2192;" horiz-adv-x="897" 
d="M734 312h-701v75h701v7l-308 306h109l346 -348v-4l-346 -348h-109l308 305v7z" />
    <glyph glyph-name="arrowdown" unicode="&#x2193;" horiz-adv-x="897" 
d="M418 773h76v-702h6l305 309v-109l-347 -346h-5l-348 346v109l307 -309h6v702z" />
    <glyph glyph-name="arrowupleft" unicode="&#x2196;" horiz-adv-x="896" 
d="M278 621l495 -497l-53 -53l-496 496l-4 -4l1 -435l-76 77v492l4 3h490l77 -76l-434 1z" />
    <glyph glyph-name="arrowupright" unicode="&#x2197;" horiz-adv-x="897" 
d="M177 71l-53 53l495 497l-4 4l-434 -1l77 76h490l4 -3v-492l-76 -77l1 435l-4 4z" />
    <glyph glyph-name="arrowdownright" unicode="&#x2198;" horiz-adv-x="897" 
d="M619 79l-495 497l53 53l496 -496l4 4l-1 435l76 -77v-492l-4 -3h-490l-77 76l434 -1z" />
    <glyph glyph-name="arrowdownleft" unicode="&#x2199;" horiz-adv-x="897" 
d="M720 629l53 -53l-495 -497l4 -4l434 1l-77 -76h-490l-4 3v492l76 77l-1 -435l4 -4z" />
    <glyph glyph-name="partialdiff" unicode="&#x2202;" horiz-adv-x="543" 
d="M277 -10h-15q-103 0 -160.5 55.5t-57.5 162.5v24q0 218 206 218q119 0 156 -73h5v69q0 105 -45 143t-141 38q-85 0 -134 -27v88q59 22 135 22h8q136 0 201 -63t65 -220v-142q0 -89 -18 -150t-51.5 -91.5t-70 -42t-83.5 -11.5zM271 70q68 0 103 34t35 112v17q0 76 -35 110
t-103 34q-137 0 -137 -144v-17q0 -146 137 -146z" />
    <glyph glyph-name="increment" unicode="&#x2206;" horiz-adv-x="720" 
d="M433 700l266 -700h-678l265 700h147zM361 618h-5l-198 -528h401z" />
    <glyph glyph-name="product" unicode="&#x220f;" horiz-adv-x="686" 
d="M616 700v-870h-97v780h-352v-780h-97v870h546z" />
    <glyph glyph-name="summation" unicode="&#x2211;" horiz-adv-x="628" 
d="M584 -80v-90h-528v90l302 335v5l-301 350v90h527v-90h-399v-4l263 -304v-84l-265 -294v-4h401z" />
    <glyph glyph-name="minus" unicode="&#x2212;" horiz-adv-x="589" 
d="M490 295h-391v68h391v-68z" />
    <glyph glyph-name="radical" unicode="&#x221a;" horiz-adv-x="469" 
d="M460 803l-174 -906h-74l-118 418l-58 -16l-15 81l128 35l93 -355h4l140 743h74z" />
    <glyph glyph-name="infinity" unicode="&#x221e;" horiz-adv-x="812" 
d="M597 143q-62 0 -106 34t-85 95q-41 -61 -85 -95t-106 -34q-81 0 -131 53.5t-50 132.5q0 78 50 132t131 54q62 0 106 -34t85 -95q41 61 85 95t106 34q80 0 130 -54t50 -132q0 -79 -49.5 -132.5t-130.5 -53.5zM102 329q0 -54 33 -88t83 -34q45 0 78 31t72 91q-39 60 -72 91
t-78 31q-50 0 -83 -34t-33 -88zM594 207q50 0 83 34t33 88t-33 88t-83 34q-45 0 -78.5 -31t-72.5 -91q39 -60 72.5 -91t78.5 -31z" />
    <glyph glyph-name="integral" unicode="&#x222b;" horiz-adv-x="395" 
d="M55 -170h-34v79h25q58 0 80 21.5t22 91.5v543q0 106 39 145.5t134 39.5h34v-79h-25q-58 0 -79.5 -21.5t-21.5 -91.5v-543q0 -106 -39 -145.5t-135 -39.5z" />
    <glyph glyph-name="approxequal" unicode="&#x2248;" horiz-adv-x="591" 
d="M400 372q-45 0 -110 33t-103 33q-68 0 -107 -61v75q38 54 109 54q45 0 110 -33t103 -33q66 0 107 61v-75q-41 -54 -109 -54zM400 152q-45 0 -110 33t-103 33q-68 0 -107 -61v75q38 54 109 54q45 0 110 -33t103 -33q66 0 107 61v-75q-41 -54 -109 -54z" />
    <glyph glyph-name="notequal" unicode="&#x2260;" horiz-adv-x="589" 
d="M269 179l-73 -179h-71l73 179h-118v67h145l67 165h-212v68h240l73 179h71l-73 -179h118v-68h-146l-67 -165h213v-67h-240z" />
    <glyph glyph-name="lessequal" unicode="&#x2264;" horiz-adv-x="589" 
d="M522 275v-72l-452 169v65l452 169v-71l-348 -128v-4zM522 57h-455v68h455v-68z" />
    <glyph glyph-name="greaterequal" unicode="&#x2265;" horiz-adv-x="589" 
d="M519 372l-452 -169v72l348 128v4l-348 128v71l452 -169v-65zM522 125v-68h-455v68h455z" />
    <glyph glyph-name="lozenge" unicode="&#x25ca;" horiz-adv-x="496" 
d="M293 678l177 -349l-177 -349h-89l-177 349l177 349h89zM248 42l147 287l-147 287l-146 -287z" />
    <glyph glyph-name="germandbls.cap" horiz-adv-x="1276" 
d="M330 -10h-10q-251 0 -276 185h101q6 -32 24 -53.5t44.5 -31.5t52 -13.5t58.5 -3.5q89 0 131.5 28t42.5 94v9q0 56 -29 80t-112 28l-98 5q-106 6 -153.5 51t-47.5 131v7q0 204 249 204h13q111 0 183 -44.5t82 -144.5h-100q-12 60 -54.5 83t-119.5 23q-80 0 -117.5 -26.5
t-37.5 -86.5v-4q0 -56 29 -80.5t112 -28.5l98 -5q106 -5 153.5 -50t47.5 -131v-11q0 -116 -69.5 -165t-196.5 -49zM968 -10h-10q-251 0 -276 185h101q6 -32 24 -53.5t44.5 -31.5t52 -13.5t58.5 -3.5q89 0 131.5 28t42.5 94v9q0 56 -29 80t-112 28l-98 5q-106 6 -153.5 51
t-47.5 131v7q0 204 249 204h13q111 0 183 -44.5t82 -144.5h-100q-12 60 -54.5 83t-119.5 23q-80 0 -117.5 -26.5t-37.5 -86.5v-4q0 -56 29 -80.5t112 -28.5l98 -5q106 -5 153.5 -50t47.5 -131v-11q0 -116 -69.5 -165t-196.5 -49z" />
    <glyph glyph-name="i.TRK" horiz-adv-x="199" 
d="M54 700h91v-86h-91v86zM54 530h91v-530h-91v530z" />
    <glyph glyph-name="a.superior" horiz-adv-x="438" 
d="M395 548v-268h-81v56h-4q-30 -64 -130 -64q-69 0 -108.5 31.5t-39.5 95.5v4q0 60 33 91.5t104 35.5l144 8v14q0 56 -22.5 74.5t-71.5 18.5q-40 0 -62.5 -15t-30.5 -50h-81q26 128 171 128h8q89 0 130 -34.5t41 -125.5zM116 406v-6q0 -68 86 -68q111 0 111 104v44l-125 -7
q-39 -1 -55.5 -17t-16.5 -50z" />
    <glyph glyph-name="b.superior" horiz-adv-x="469" 
d="M131 280h-84v554h84v-192h4q25 66 117 66h4q83 0 128.5 -46t45.5 -159v-26q0 -113 -45.5 -159t-128.5 -46h-4q-92 0 -117 66h-4v-58zM240 343q56 0 82 27.5t26 112.5v14q0 84 -26 112t-82 28t-82.5 -28t-26.5 -112v-14q0 -84 26.5 -112t82.5 -28z" />
    <glyph glyph-name="c.superior" horiz-adv-x="419" 
d="M224 272h-6q-87 0 -133.5 47.5t-46.5 159.5v23q0 111 46.5 158.5t133.5 47.5h6q143 0 170 -135h-83q-20 64 -90 64q-49 0 -75 -28.5t-26 -110.5v-16q0 -83 26 -111t75 -28q70 0 90 64h83q-27 -135 -170 -135z" />
    <glyph glyph-name="d.superior" horiz-adv-x="469" 
d="M421 834v-554h-84v58h-4q-25 -66 -117 -66h-4q-84 0 -129 46t-45 159v26q0 113 45 159t129 46h4q92 0 117 -66h4v192h84zM228 343q56 0 82.5 28t26.5 112v14q0 84 -26.5 112t-82.5 28t-82 -28t-26 -112v-14q0 -85 26 -112.5t82 -27.5z" />
    <glyph glyph-name="e.superior" horiz-adv-x="446" 
d="M321 397h83q-16 -64 -58.5 -94.5t-117.5 -30.5h-7q-89 0 -136 48t-47 160v19q0 113 47 161t136 48h7q89 0 134.5 -46t45.5 -159v-30h-288q1 -80 27 -107t77 -27q80 0 97 58zM222 645q-48 0 -72.5 -23t-28.5 -93h204v6q0 60 -26 85t-77 25z" />
    <glyph glyph-name="f.superior" horiz-adv-x="302" 
d="M91 632h-83v68h83q1 75 33.5 104.5t106.5 29.5h57v-62h-44q-40 0 -55 -14.5t-15 -57.5h114v-68h-114v-352h-83v352z" />
    <glyph glyph-name="g.superior" horiz-adv-x="459" 
d="M233 145h-6q-79 0 -126 23.5t-58 82.5h82q9 -25 33 -33.5t72 -8.5q51 0 74.5 21t23.5 79v51h-4q-22 -59 -117 -59h-4q-82 0 -123.5 44t-41.5 152v15q0 108 41.5 152t123.5 44h4q95 0 117 -59h4v51h83v-390q0 -90 -44 -127.5t-134 -37.5zM225 372q54 0 78.5 24t24.5 102
v12q0 79 -24.5 103t-78.5 24t-79.5 -24t-25.5 -103v-12q0 -78 25.5 -102t79.5 -24z" />
    <glyph glyph-name="h.superior" horiz-adv-x="448" 
d="M404 555v-275h-83v254q0 59 -22 80t-69 21q-48 0 -73.5 -25t-25.5 -90v-240h-83v554h83v-200h3q30 74 124 74q71 0 108.5 -35.5t37.5 -117.5z" />
    <glyph glyph-name="i.superior" horiz-adv-x="179" 
d="M48 834h83v-72h-83v72zM48 700h83v-420h-83v420z" />
    <glyph glyph-name="j.superior" horiz-adv-x="179" 
d="M48 834h83v-72h-83v72zM48 700h83v-349q0 -76 -10 -114.5t-40 -91.5h-86q32 52 42.5 91t10.5 104v360z" />
    <glyph glyph-name="k.superior" horiz-adv-x="422" 
d="M131 403v-123h-83v554h83v-328h3l180 194h99l-164 -171l172 -249h-99l-127 186h-4z" />
    <glyph glyph-name="l.superior" horiz-adv-x="179" 
d="M131 834v-554h-83v554h83z" />
    <glyph glyph-name="m.superior" horiz-adv-x="700" 
d="M656 560v-280h-82v254q0 59 -20.5 80t-64.5 21q-46 0 -71 -25t-25 -89v-241h-82v254q0 59 -20.5 80t-65.5 21t-69.5 -25t-24.5 -89v-241h-83v420h83v-66h3q25 74 117 74q106 0 132 -79h4q26 79 128 79q69 0 105 -34.5t36 -113.5z" />
    <glyph glyph-name="n.superior" horiz-adv-x="448" 
d="M404 555v-275h-83v254q0 59 -22 80t-69 21q-48 0 -73.5 -25t-25.5 -90v-240h-83v420h83v-66h3q30 74 124 74q71 0 108.5 -35.5t37.5 -117.5z" />
    <glyph glyph-name="o.superior" horiz-adv-x="456" 
d="M233 272h-7q-91 0 -139.5 48t-48.5 160v19q0 113 48 161t140 48h7q91 0 138.5 -48t47.5 -161v-19q0 -112 -47.5 -160t-138.5 -48zM228 343q54 0 80.5 28t26.5 113v13q0 84 -26.5 112t-80.5 28t-81 -28.5t-27 -111.5v-13q0 -85 27 -113t81 -28z" />
    <glyph glyph-name="p.superior" horiz-adv-x="469" 
d="M48 146v554h84v-58h4q25 66 117 66h4q83 0 128.5 -46t45.5 -159v-26q0 -113 -45.5 -159t-128.5 -46h-4q-92 0 -117 66h-4v-192h-84zM241 637q-56 0 -82.5 -28t-26.5 -112v-14q0 -84 27 -112t82 -28t81.5 28t26.5 112v14q0 84 -26.5 112t-81.5 28z" />
    <glyph glyph-name="q.superior" horiz-adv-x="469" 
d="M337 700h84v-554h-84v192h-4q-25 -66 -117 -66h-4q-84 0 -129 46t-45 159v26q0 113 45 159t129 46h4q92 0 117 -66h4v58zM228 637q-56 0 -82 -27.5t-26 -112.5v-14q0 -84 26 -112t82 -28t82.5 28t26.5 112v14q0 84 -26.5 112t-82.5 28z" />
    <glyph glyph-name="r.superior" horiz-adv-x="288" 
d="M255 700h25v-75h-36q-60 0 -86.5 -24t-26.5 -91v-230h-83v420h83v-65h3q23 65 121 65z" />
    <glyph glyph-name="s.superior" horiz-adv-x="433" 
d="M220 272h-7q-78 0 -122 27.5t-56 90.5h84q11 -55 99 -55q50 0 73.5 13.5t23.5 50.5v5q0 28 -16.5 40.5t-57.5 14.5l-74 4q-72 4 -98 32t-26 81v7q0 62 43.5 93.5t122.5 31.5h8q73 0 117 -26.5t59 -90.5h-84q-11 31 -33.5 42.5t-61.5 11.5q-87 0 -87 -59v-4
q0 -27 15.5 -39t57.5 -15l73 -4q73 -4 99.5 -32.5t26.5 -81.5v-7q0 -131 -179 -131z" />
    <glyph glyph-name="t.superior" horiz-adv-x="295" 
d="M270 348v-68h-54q-73 0 -101 28.5t-28 97.5v226h-79v68h79v134h83v-134h100v-68h-100v-204q0 -53 16 -66q17 -14 59 -14h25z" />
    <glyph glyph-name="u.superior" horiz-adv-x="448" 
d="M44 425v275h83v-254q0 -59 22 -80t69 -21q48 0 73.5 25t25.5 90v240h83v-420h-83v66h-3q-30 -74 -124 -74q-71 0 -108.5 35.5t-37.5 117.5z" />
    <glyph glyph-name="v.superior" horiz-adv-x="425" 
d="M416 700l-148 -420h-111l-148 420h90l114 -338h4l116 338h83z" />
    <glyph glyph-name="w.superior" horiz-adv-x="646" 
d="M634 700l-105 -420h-104l-99 322l-100 -322h-109l-105 420h88l78 -332h4l101 332h87l101 -332h3l79 332h81z" />
    <glyph glyph-name="x.superior" horiz-adv-x="449" 
d="M280 495l154 -215h-99l-110 162h-4l-111 -162h-95l152 214l-143 206h99l101 -150h4l103 150h94z" />
    <glyph glyph-name="y.superior" horiz-adv-x="421" 
d="M414 700l-211 -556h-87l58 138l-166 418h90l116 -317h5l112 317h83z" />
    <glyph glyph-name="z.superior" horiz-adv-x="385" 
d="M358 348v-68h-328v64l219 288h-210v68h311v-64l-218 -288h226z" />
    <glyph glyph-name="grave.cap" horiz-adv-x="500" 
d="M263 860l77 -120h-82l-100 120h105z" />
    <glyph glyph-name="acute.cap" horiz-adv-x="500" 
d="M340 860l-100 -120h-82l78 120h104z" />
    <glyph glyph-name="circumflex.cap" horiz-adv-x="500" 
d="M314 860l96 -120h-80l-80 89l-80 -89h-80l95 120h129z" />
    <glyph glyph-name="caron.cap" horiz-adv-x="500" 
d="M250 771l80 89h80l-96 -120h-129l-95 120h80z" />
    <glyph glyph-name="caronSlovak" horiz-adv-x="500" 
d="M314 700l-54 -206h-70l34 206h90z" />
    <glyph glyph-name="tilde.cap" horiz-adv-x="500" 
d="M317 749q-29 0 -71 22t-57 22q-16 0 -24.5 -8t-12.5 -31h-58q5 51 26.5 74t61.5 23q28 0 70 -21.5t57 -21.5q16 0 24.5 8t12.5 31h60q-5 -51 -27 -74.5t-62 -23.5z" />
    <glyph glyph-name="dieresis.cap" horiz-adv-x="500" 
d="M123 844h80v-85h-80v85zM297 844h80v-85h-80v85z" />
    <glyph glyph-name="macron.cap" horiz-adv-x="500" 
d="M399 829v-54h-298v54h298z" />
    <glyph glyph-name="breve.cap" horiz-adv-x="500" 
d="M250 733q-77 0 -113.5 30.5t-38.5 96.5h69q0 -71 83 -71q81 0 83 71h69q-3 -66 -39 -96.5t-113 -30.5z" />
    <glyph glyph-name="ring.cap" horiz-adv-x="500" 
d="M250 727q-55 0 -86.5 25.5t-31.5 77.5t31.5 77.5t86.5 25.5t86.5 -25.5t31.5 -77.5t-31.5 -77.5t-86.5 -25.5zM250 776q57 0 57 54t-57 54q-58 0 -58 -54t58 -54z" />
    <glyph glyph-name="hungarumlaut.cap" horiz-adv-x="500" 
d="M262 860l-100 -120h-83l78 120h105zM420 860l-101 -120h-82l79 120h104z" />
    <glyph glyph-name="dotaccent.cap" horiz-adv-x="500" 
d="M204 844h90v-85h-90v85z" />
    <glyph glyph-name="commaaccent.alt" horiz-adv-x="500" 
d="M226 693l15 21h55l-39 -59v-8h56v-56h-116v14q0 42 29 88z" />
    <glyph glyph-name="hyphen.cap" horiz-adv-x="269" 
d="M253 308h-238v83h238v-83z" />
    <glyph glyph-name="exclamdown.cap" horiz-adv-x="247" 
d="M64 700h119v-121h-119v121zM175 297v-297h-103v297l22 174h59z" />
    <glyph glyph-name="questiondown.cap" horiz-adv-x="526" 
d="M221 704h120v-121h-120v121zM234 476h93v-14q0 -40 -21 -67t-78 -65q-59 -39 -80 -68t-21 -74v-4q0 -51 33 -78.5t96 -27.5q120 0 140 126h93q-12 -106 -73 -158t-156 -52h-8q-102 0 -160.5 49t-58.5 132v6q0 71 28 112.5t106 93.5q38 27 51.5 44.5t15.5 44.5z" />
    <glyph glyph-name="guilsinglleft.cap" horiz-adv-x="221" 
d="M34 346v6l84 219h69l-87 -222l87 -222h-69z" />
    <glyph glyph-name="guilsinglright.cap" horiz-adv-x="221" 
d="M187 353v-6l-84 -219h-69l87 222l-87 222h69z" />
    <glyph glyph-name="guillemotleft.cap" horiz-adv-x="379" 
d="M34 347v6l84 219h69l-87 -222l87 -222h-69zM192 347v6l84 219h69l-87 -222l87 -222h-69z" />
    <glyph glyph-name="guillemotright.cap" horiz-adv-x="379" 
d="M187 353v-6l-84 -219h-69l87 222l-87 222h69zM345 353v-6l-84 -219h-69l87 222l-87 222h69z" />
    <glyph glyph-name="endash.cap" horiz-adv-x="553" 
d="M523 320h-507v59h507v-59z" />
    <glyph glyph-name="emdash.cap" horiz-adv-x="830" 
d="M792 320h-776v59h776v-59z" />
    <glyph glyph-name="periodcentered.cap" horiz-adv-x="321" 
d="M211 289h-120v121h120v-121z" />
    <glyph glyph-name="parenleft.cap" horiz-adv-x="313" 
d="M267 17v-62q-103 18 -155 108t-52 262v50q0 172 52 262t155 108v-62q-73 -21 -107.5 -95.5t-34.5 -221.5v-32q0 -147 34.5 -221.5t107.5 -95.5z" />
    <glyph glyph-name="parenright.cap" horiz-adv-x="313" 
d="M38 683v62q207 -37 207 -370v-50q0 -333 -207 -370v62q73 21 107.5 95.5t34.5 221.5v32q0 147 -34.5 221.5t-107.5 95.5z" />
    <glyph glyph-name="bracketleft.cap" horiz-adv-x="337" 
d="M292 14v-60h-198v790h198v-60h-134v-670h134z" />
    <glyph glyph-name="bracketright.cap" horiz-adv-x="337" 
d="M45 685v60h198v-790h-198v60h134v670h-134z" />
    <glyph glyph-name="braceleft.cap" horiz-adv-x="334" 
d="M304 15v-60h-33q-82 0 -115 43q-32 43 -32 146v51q0 66 -15.5 86t-77.5 29v80q62 9 77.5 29t15.5 86v51q0 103 32 146q33 43 115 43h33v-60h-19q-53 0 -75 -28t-22 -116v-54q0 -71 -18 -98t-83 -36v-6q64 -9 82.5 -36t18.5 -98v-54q0 -88 22 -116t75 -28h19z" />
    <glyph glyph-name="braceright.cap" horiz-adv-x="334" 
d="M63 -45h-33v60h19q53 0 75 28t22 116v54q0 71 18.5 98t82.5 36v6q-65 9 -83 36t-18 98v54q0 88 -22 116t-75 28h-19v60h33q83 0 114 -43q33 -42 33 -146v-51q0 -66 15.5 -86t77.5 -29v-80q-62 -9 -77.5 -29t-15.5 -86v-51q0 -104 -33 -146q-31 -43 -114 -43z" />
    <glyph glyph-name="at.cap" horiz-adv-x="916" 
d="M471 -69q-198 0 -310.5 92t-112.5 282v37q0 195 113.5 311t309.5 116q186 0 298 -89t112 -274v-17q0 -134 -49.5 -211t-155.5 -77q-115 0 -117 85h-4q-40 -67 -133 -67h-6q-83 0 -121.5 47t-27.5 164l3 26q11 114 58.5 161.5t129.5 47.5h6q104 0 122 -68h5l7 60h85
l-42 -309q-7 -54 4.5 -73.5t50.5 -19.5q59 0 93 58.5t34 179.5v18q0 305 -361 305q-88 0 -157 -29t-111.5 -80.5t-64.5 -118.5t-22 -147v-40q0 -317 370 -317q97 0 181 21v-52q-81 -22 -187 -22zM451 189q52 0 83 30.5t39 111.5l3 28q8 84 -18.5 110t-81.5 26
q-51 0 -82.5 -30t-39.5 -111l-2 -28q-8 -84 18 -110.5t81 -26.5z" />
    <glyph glyph-name="zero.slash" horiz-adv-x="662" 
d="M342 -10h-23q-134 0 -198.5 70.5t-64.5 241.5v96q0 171 64.5 241.5t198.5 70.5h23q135 0 199.5 -70.5t64.5 -241.5v-96q0 -171 -65 -241.5t-199 -70.5zM150 395v-90q0 -89 17 -136l294 416q-40 39 -130 39q-101 0 -141 -49.5t-40 -179.5zM331 76q100 0 140 50t40 179v90
q0 87 -16 134l-294 -415q41 -38 130 -38z" />
    <glyph glyph-name="numbersign.LT" 
d="M400 0h-68l28 192h-146l-28 -192h-69l30 192h-113v73h121l22 171h-112v73h121l29 191h69l-30 -191h146l29 191h69l-30 -191h112v-73h-121l-22 -171h113v-73h-122zM394 438h-151l-22 -176h150z" />
    <glyph glyph-name="Euro.LT" 
d="M337 -10h-12q-40 0 -70.5 5t-62.5 21.5t-54 44t-37.5 76t-20.5 114.5h-73v60h71v5v68v5h-71v60h73q5 66 20.5 114.5t37.5 76t54 44t62.5 21.5t70.5 5h12q99 0 158.5 -40.5t76.5 -136.5h-92q-15 50 -48.5 71.5t-100.5 21.5q-75 0 -112 -35t-44 -142h309v-60h-311v-78h311
v-60h-309q7 -105 45.5 -141t110.5 -36q67 0 100.5 21.5t48.5 71.5h92q-17 -96 -76.5 -136.5t-158.5 -40.5z" />
    <glyph glyph-name="dollar.LT" 
d="M348 11v-116h-67v116q-185 11 -219 156h99q28 -84 155 -84q161 0 161 119v7q0 56 -29.5 77.5t-106.5 26.5l-93 6q-98 6 -140 49.5t-42 122.5v7q0 89 53 137.5t155 53.5v116h67v-116q188 -12 212 -156h-100q-24 84 -146 84q-146 0 -146 -108v-4q0 -56 29.5 -77.5
t106.5 -25.5l94 -6q97 -6 139.5 -49.5t42.5 -122.5v-11q0 -101 -63 -149q-62 -49 -162 -53z" />
    <glyph glyph-name="cent.LT" 
d="M343 -9v-96h-67v96q-189 16 -189 257v34q0 241 189 257v96h67v-96q151 -12 182 -166h-90q-14 51 -44.5 69t-77.5 18q-65 0 -100.5 -37.5t-35.5 -147.5v-20q0 -110 35.5 -147.5t100.5 -37.5q47 0 77.5 18t44.5 69h90q-31 -154 -182 -166z" />
    <glyph glyph-name="sterling.LT" 
d="M571 84v-84h-546v84h101v237h-101v59h101v56q0 147 56 210.5t165 63.5h12q193 0 219 -177h-94q-10 48 -38 70.5t-90 22.5q-72 0 -104.5 -41.5t-32.5 -147.5v-57h272v-59h-272v-237h352z" />
    <glyph glyph-name="florin.LT" 
d="M313 321v-426h-93v426h-197v59h197v35q0 84 15 140.5t46.5 88t73 44t102.5 12.5h123v-84h-113q-83 0 -118.5 -41.5t-35.5 -154.5v-40h267v-59h-267z" />
    <glyph glyph-name="yen.LT" 
d="M355 251v-251h-93v251h-198v60h198v39l-27 39h-171v60h130l-173 251h113l176 -273h5l176 273h104l-173 -251h132v-60h-173l-26 -38v-40h199v-60h-199z" />
    <glyph glyph-name="zero.slash.LT" 
d="M315 -10h-12q-58 0 -99 11.5t-77 43.5t-54.5 96.5t-18.5 161.5v94q0 97 18.5 161.5t54.5 96.5t77 43.5t99 11.5h12q59 0 99.5 -11.5t76.5 -43.5t54 -96t18 -162v-94q0 -97 -18.5 -161.5t-55 -96.5t-77 -43.5t-97.5 -11.5zM148 408v-116q0 -71 13 -121l263 418
q-33 35 -115 35q-42 0 -68 -7.5t-49 -29t-33.5 -66t-10.5 -113.5zM309 76q41 0 67.5 7.5t49 29t33 66t10.5 113.5v116q0 78 -13 120l-263 -417q34 -35 116 -35z" />
    <glyph glyph-name="zero.LT" 
d="M315 -10h-12q-58 0 -99 11.5t-77 43.5t-54.5 96.5t-18.5 161.5v94q0 97 18.5 161.5t54.5 96.5t77 43.5t99 11.5h12q59 0 99.5 -11.5t76.5 -43.5t54 -96t18 -162v-94q0 -97 -18.5 -161.5t-55 -96.5t-77 -43.5t-97.5 -11.5zM309 76q41 0 67.5 7.5t49 29t33 66t10.5 113.5
v116q0 69 -10.5 113.5t-33 66t-49 29t-67.5 7.5q-42 0 -68 -7.5t-49 -29t-33.5 -66t-10.5 -113.5v-116q0 -69 10.5 -113.5t33.5 -66t49 -29t68 -7.5z" />
    <glyph glyph-name="one.LT" 
d="M566 84v-84h-514v84h210v538h-5l-205 -138v110l170 106h134v-616h210z" />
    <glyph glyph-name="two.LT" 
d="M564 84v-84h-510v95q0 127 37.5 179.5t150.5 78.5l123 31q61 15 83 41.5t22 81.5v6q0 113 -151 113q-73 0 -112.5 -24.5t-47.5 -83.5h-94q18 192 245 192h12q242 0 242 -191v-11q0 -80 -33 -130q-32 -48 -124 -71l-133 -33q-78 -18 -102 -48.5t-24 -119.5v-22h416z" />
    <glyph glyph-name="three.LT" 
d="M325 -10h-16q-45 0 -85.5 10.5t-77 32.5t-60.5 62t-30 95h94q14 -66 57.5 -91t109.5 -25q157 0 157 126v10q0 58 -28.5 84.5t-105.5 26.5h-122v86h118q70 0 97.5 24.5t27.5 75.5v9q0 110 -147 110q-130 0 -149 -106h-94q30 190 238 190h11q109 0 172 -45t63 -132v-7
q0 -121 -96 -146v-5q108 -26 108 -164v-10q0 -104 -65 -157.5t-177 -53.5z" />
    <glyph glyph-name="four.LT" 
d="M492 184v-184h-94v184h-355v128l310 388h139v-437h104v-79h-104zM113 268v-5h285v357h-4z" />
    <glyph glyph-name="five.LT" 
d="M326 -10h-16q-107 0 -173 48t-77 142h94q23 -106 163 -106q157 0 157 150v11q0 149 -157 149q-125 0 -160 -79h-84l30 395h440v-84h-355l-19 -210h5q50 58 163 58q231 0 231 -225v-12q0 -111 -66 -174t-176 -63z" />
    <glyph glyph-name="six.LT" 
d="M323 -10h-13q-60 0 -101.5 11.5t-78.5 43.5t-55 96t-18 162v94q0 97 18.5 161.5t55 96.5t77 43.5t99.5 11.5h12q102 0 161.5 -42.5t79.5 -137.5h-94q-15 53 -51.5 74.5t-100.5 21.5q-41 0 -68 -7.5t-50 -29.5t-34 -65t-11 -111v-47h5q22 40 61.5 60t117.5 20
q230 0 230 -216v-9q0 -115 -66 -173t-176 -58zM313 72q83 0 120.5 35t37.5 108v11q0 73 -37 108t-121 35q-83 0 -120.5 -35t-37.5 -108v-11q0 -73 37 -108t121 -35z" />
    <glyph glyph-name="seven.LT" 
d="M579 619l-331 -619h-112l335 610v6h-431v84h539v-81z" />
    <glyph glyph-name="eight.LT" 
d="M314 -10h-11q-249 0 -249 211v6q2 133 103 164v5q-93 27 -93 142v5q0 93 62.5 140t178.5 47h7q116 0 178 -47t62 -140v-5q0 -115 -92 -142v-5q102 -32 102 -164v-6q0 -112 -67 -161.5t-181 -49.5zM273 407h70q115 0 115 100v8q0 61 -37 86.5t-113 25.5q-75 0 -112 -25.5
t-37 -86.5v-8q0 -100 114 -100zM308 72q82 0 121.5 28.5t39.5 98.5v11q0 58 -31.5 89t-93.5 31h-71q-63 0 -94 -31t-31 -89v-11q0 -70 39.5 -98.5t120.5 -28.5z" />
    <glyph glyph-name="nine.LT" 
d="M294 710h13q60 0 101.5 -11.5t78.5 -43.5t55 -96t18 -162v-94q0 -97 -18.5 -161.5t-55 -96.5t-77 -43.5t-99.5 -11.5h-12q-102 0 -161.5 42.5t-79.5 137.5h94q17 -53 53 -74.5t99 -21.5q41 0 68 7.5t50 29.5t34 65t11 111v47h-5q-20 -40 -61 -60t-118 -20
q-230 0 -230 216v9q0 115 66 173t176 58zM304 628q-84 0 -121 -35t-37 -108v-11q0 -73 37 -108t121 -35t121 35t37 108v11q0 73 -37 108t-121 35z" />
    <glyph glyph-name="numbersign.OP" 
d="M408 0h-68l23 155h-147l-23 -155h-68l23 155h-113v73h122l19 145h-113v73h122l21 154h69l-22 -154h147l22 154h69l-23 -154h113v-73h-122l-19 -145h114v-73h-122zM394 375h-152l-20 -150h152z" />
    <glyph glyph-name="Euro.OP" 
d="M337 -10h-12q-45 0 -81 9t-69.5 31.5t-57 66t-33.5 105.5h-77v59h72q-1 9 -1 32v13q0 22 1 33h-72v59h77q10 62 33.5 105.5t57 66t69.5 31.5t81 9h12q197 0 235 -159h-92q-15 40 -48.5 57.5t-100.5 17.5q-63 0 -100.5 -27.5t-50.5 -100.5h304v-59h-310q-1 -9 -1 -27v-24
q0 -18 1 -27h310v-59h-304q13 -73 50.5 -100.5t100.5 -27.5q67 0 100.5 17.5t48.5 57.5h92q-38 -159 -235 -159z" />
    <glyph glyph-name="dollar.OP" 
d="M340 10v-115h-61v116q-93 5 -149.5 41.5t-70.5 118.5h97q24 -84 157 -84q150 0 150 84v8q0 43 -24 60q-23 17 -94 22l-101 5q-97 6 -135.5 44t-38.5 114v7q0 74 54.5 114.5t154.5 44.5v115h61v-116q190 -10 210 -159h-97q-13 48 -49 65.5t-100 17.5q-138 0 -138 -80v-4
q0 -47 25 -63q24 -15 95 -20l100 -6q98 -6 135.5 -42t37.5 -113v-9q0 -156 -219 -166z" />
    <glyph glyph-name="cent.OP" horiz-adv-x="555" 
d="M313 -9v-96h-67v96q-189 16 -189 257v34q0 241 189 257v96h67v-96q151 -12 182 -166h-90q-14 51 -44.5 69t-77.5 18q-65 0 -100.5 -37.5t-35.5 -147.5v-20q0 -110 35.5 -147.5t100.5 -37.5q47 0 77.5 18t44.5 69h90q-31 -154 -182 -166z" />
    <glyph glyph-name="sterling.OP" 
d="M491 331v-61h-272v-186h352v-84h-546v84h101v186h-101v61h101v18q0 142 56 201.5t165 59.5h12q192 0 219 -168h-94q-20 84 -128 84q-72 0 -104.5 -37.5t-32.5 -137.5v-20h272z" />
    <glyph glyph-name="florin.OP" 
d="M313 270v-475h-93v475h-197v61h197q3 154 60 211.5t177 57.5h123v-84h-113q-82 0 -117.5 -39.5t-36.5 -145.5h267v-61h-267z" />
    <glyph glyph-name="yen.OP" 
d="M355 202v-202h-93v202h-198v59h190l-53 78h-137v59h96l-139 202h113l176 -273h5l176 273h104l-139 -202h98v-59h-138l-54 -78h192v-59h-199z" />
    <glyph glyph-name="zero.slash.OP" horiz-adv-x="662" 
d="M343 -10h-24q-132 0 -197.5 67.5t-65.5 229.5v26q0 162 65.5 229.5t197.5 67.5h24q132 0 197.5 -67.5t65.5 -229.5v-26q0 -162 -65.5 -229.5t-197.5 -67.5zM150 310v-20q0 -95 24 -142l275 348q-39 28 -118 28q-100 0 -140.5 -46.5t-40.5 -167.5zM331 76q99 0 139.5 46.5
t40.5 167.5v20q0 96 -24 141l-276 -347q41 -28 120 -28z" />
    <glyph glyph-name="zero.OP" horiz-adv-x="662" 
d="M343 -10h-24q-132 0 -197.5 67.5t-65.5 229.5v26q0 162 65.5 229.5t197.5 67.5h24q132 0 197.5 -67.5t65.5 -229.5v-26q0 -162 -65.5 -229.5t-197.5 -67.5zM331 76q99 0 139.5 46.5t40.5 167.5v20q0 121 -40.5 167.5t-139.5 46.5q-100 0 -140.5 -46.5t-40.5 -167.5v-20
q0 -121 40.5 -167.5t140.5 -46.5z" />
    <glyph glyph-name="one.OP" horiz-adv-x="410" 
d="M338 600v-600h-94v522h-5l-205 -138v110l170 106h134z" />
    <glyph glyph-name="two.OP" 
d="M564 84v-84h-510v91q0 108 40.5 159.5t146.5 64.5l126 16q60 7 81.5 29t21.5 69v6q0 91 -151 91q-72 0 -110 -22t-50 -78h-94q17 100 78 142t167 42h12q117 0 179.5 -42.5t62.5 -125.5v-10q0 -81 -38.5 -126t-136.5 -56l-117 -15q-77 -9 -100.5 -37t-23.5 -103v-11h416z
" />
    <glyph glyph-name="three.OP" 
d="M325 -110h-16q-45 0 -85.5 10.5t-77 32.5t-60.5 62t-30 95h94q14 -66 57.5 -91t109.5 -25q157 0 157 126v10q0 58 -28.5 84.5t-105.5 26.5h-122v86h118q70 0 97.5 24.5t27.5 75.5v9q0 110 -147 110q-130 0 -149 -106h-94q30 190 238 190h11q109 0 172 -45t63 -132v-7
q0 -121 -96 -146v-5q108 -26 108 -164v-10q0 -104 -65 -157.5t-177 -53.5z" />
    <glyph glyph-name="four.OP" 
d="M492 84v-184h-94v184h-355v128l310 388h139v-437h104v-79h-104zM113 168v-5h285v357h-4z" />
    <glyph glyph-name="five.OP" 
d="M326 -110h-16q-107 0 -173 48t-77 142h94q23 -106 163 -106q157 0 157 150v11q0 149 -157 149q-125 0 -160 -79h-84l30 395h440v-84h-355l-19 -210h5q50 58 163 58q231 0 231 -225v-12q0 -111 -66 -174t-176 -63z" />
    <glyph glyph-name="six.OP" 
d="M323 -10h-13q-60 0 -101.5 11.5t-78.5 43.5t-55 96t-18 162v94q0 97 18.5 161.5t55 96.5t77 43.5t99.5 11.5h12q102 0 161.5 -42.5t79.5 -137.5h-94q-15 53 -51.5 74.5t-100.5 21.5q-41 0 -68 -7.5t-50 -29.5t-34 -65t-11 -111v-47h5q22 40 61.5 60t117.5 20
q230 0 230 -216v-9q0 -115 -66 -173t-176 -58zM313 72q83 0 120.5 35t37.5 108v11q0 73 -37 108t-121 35q-83 0 -120.5 -35t-37.5 -108v-11q0 -73 37 -108t121 -35z" />
    <glyph glyph-name="seven.OP" 
d="M579 519l-331 -619h-112l335 610v6h-431v84h539v-81z" />
    <glyph glyph-name="eight.OP" 
d="M314 -10h-11q-249 0 -249 211v6q2 133 103 164v5q-93 27 -93 142v5q0 93 62.5 140t178.5 47h7q116 0 178 -47t62 -140v-5q0 -115 -92 -142v-5q102 -32 102 -164v-6q0 -112 -67 -161.5t-181 -49.5zM273 407h70q115 0 115 100v8q0 61 -37 86.5t-113 25.5q-75 0 -112 -25.5
t-37 -86.5v-8q0 -100 114 -100zM308 72q82 0 121.5 28.5t39.5 98.5v11q0 58 -31.5 89t-93.5 31h-71q-63 0 -94 -31t-31 -89v-11q0 -70 39.5 -98.5t120.5 -28.5z" />
    <glyph glyph-name="nine.OP" horiz-adv-x="618" 
d="M295 610h13q60 0 101.5 -11.5t78.5 -43.5t55 -96t18 -162v-94q0 -97 -18.5 -161.5t-55 -96.5t-77 -43.5t-99.5 -11.5h-12q-102 0 -161.5 42.5t-79.5 137.5h94q15 -53 51.5 -74.5t100.5 -21.5q41 0 68 7.5t50 29.5t34 65t11 111v47h-5q-22 -40 -61.5 -60t-117.5 -20
q-230 0 -230 216v9q0 115 66 173t176 58zM305 528q-83 0 -120.5 -35t-37.5 -108v-11q0 -73 37 -108t121 -35q83 0 120.5 35t37.5 108v11q0 73 -37 108t-121 35z" />
    <glyph glyph-name="numbersign.OT" 
d="M408 0h-68l23 155h-147l-23 -155h-68l23 155h-113v73h122l19 145h-113v73h122l21 154h69l-22 -154h147l22 154h69l-23 -154h113v-73h-122l-19 -145h114v-73h-122zM394 375h-152l-20 -150h152z" />
    <glyph glyph-name="Euro.OT" 
d="M337 -10h-12q-45 0 -81 9t-69.5 31.5t-57 66t-33.5 105.5h-77v59h72q-1 9 -1 32v13q0 22 1 33h-72v59h77q10 62 33.5 105.5t57 66t69.5 31.5t81 9h12q197 0 235 -159h-92q-15 40 -48.5 57.5t-100.5 17.5q-63 0 -100.5 -27.5t-50.5 -100.5h304v-59h-310q-1 -9 -1 -27v-24
q0 -18 1 -27h310v-59h-304q13 -73 50.5 -100.5t100.5 -27.5q67 0 100.5 17.5t48.5 57.5h92q-38 -159 -235 -159z" />
    <glyph glyph-name="dollar.OT" 
d="M340 10v-115h-61v116q-93 5 -149.5 41.5t-70.5 118.5h97q24 -84 157 -84q150 0 150 84v8q0 43 -24 60q-23 17 -94 22l-101 5q-97 6 -135.5 44t-38.5 114v7q0 74 54.5 114.5t154.5 44.5v115h61v-116q190 -10 210 -159h-97q-13 48 -49 65.5t-100 17.5q-138 0 -138 -80v-4
q0 -47 25 -63q24 -15 95 -20l100 -6q98 -6 135.5 -42t37.5 -113v-9q0 -156 -219 -166z" />
    <glyph glyph-name="cent.OT" 
d="M343 -9v-96h-67v96q-189 16 -189 257v34q0 241 189 257v96h67v-96q151 -12 182 -166h-90q-14 51 -44.5 69t-77.5 18q-65 0 -100.5 -37.5t-35.5 -147.5v-20q0 -110 35.5 -147.5t100.5 -37.5q47 0 77.5 18t44.5 69h90q-31 -154 -182 -166z" />
    <glyph glyph-name="sterling.OT" 
d="M491 331v-61h-272v-186h352v-84h-546v84h101v186h-101v61h101v18q0 142 56 201.5t165 59.5h12q192 0 219 -168h-94q-20 84 -128 84q-72 0 -104.5 -37.5t-32.5 -137.5v-20h272z" />
    <glyph glyph-name="florin.OT" 
d="M313 270v-475h-93v475h-197v61h197q3 154 60 211.5t177 57.5h123v-84h-113q-82 0 -117.5 -39.5t-36.5 -145.5h267v-61h-267z" />
    <glyph glyph-name="yen.OT" 
d="M355 202v-202h-93v202h-198v59h190l-53 78h-137v59h96l-139 202h113l176 -273h5l176 273h104l-139 -202h98v-59h-138l-54 -78h192v-59h-199z" />
    <glyph glyph-name="zero.slash.OT" 
d="M315 -10h-12q-58 0 -99 11.5t-77 42t-54.5 91.5t-18.5 152v26q0 91 18.5 152t54.5 91.5t77 42t99 11.5h12q58 0 99.5 -11.5t77 -42.5t53.5 -91.5t18 -151.5v-26q0 -91 -18.5 -152t-54.5 -91.5t-77 -42t-98 -11.5zM148 318v-36q0 -84 18 -129l250 344q-32 27 -107 27
q-41 0 -67.5 -7t-49.5 -28t-33.5 -63t-10.5 -108zM309 76q41 0 67 7t49 28t33.5 63t10.5 108v36q0 84 -18 129l-250 -344q32 -27 108 -27z" />
    <glyph glyph-name="zero.OT" 
d="M315 -10h-12q-58 0 -99 11.5t-77 42t-54.5 91.5t-18.5 152v26q0 91 18.5 152t54.5 91.5t77 42t99 11.5h12q58 0 99.5 -11.5t77 -42.5t53.5 -91.5t18 -151.5v-26q0 -91 -18.5 -152t-54.5 -91.5t-77 -42t-98 -11.5zM309 76q41 0 67 7t49 28t33.5 63t10.5 108v36
q0 66 -10.5 108t-33.5 63t-49 28t-67 7t-67.5 -7t-49.5 -28t-33.5 -63t-10.5 -108v-36q0 -66 10.5 -108t33.5 -63t49.5 -28t67.5 -7z" />
    <glyph glyph-name="one.OT" 
d="M566 84v-84h-514v84h210v438h-5l-205 -138v110l170 106h134v-516h210z" />
    <glyph glyph-name="two.OT" 
d="M564 84v-84h-510v91q0 108 40.5 159.5t146.5 64.5l126 16q60 7 81.5 29t21.5 69v6q0 91 -151 91q-72 0 -110 -22t-50 -78h-94q17 100 78 142t167 42h12q117 0 179.5 -42.5t62.5 -125.5v-10q0 -81 -38.5 -126t-136.5 -56l-117 -15q-77 -9 -100.5 -37t-23.5 -103v-11h416z
" />
    <glyph glyph-name="three.OT" 
d="M325 -110h-16q-45 0 -85.5 10.5t-77 32.5t-60.5 62t-30 95h94q14 -66 57.5 -91t109.5 -25q157 0 157 126v10q0 58 -28.5 84.5t-105.5 26.5h-122v86h118q70 0 97.5 24.5t27.5 75.5v9q0 110 -147 110q-130 0 -149 -106h-94q30 190 238 190h11q109 0 172 -45t63 -132v-7
q0 -121 -96 -146v-5q108 -26 108 -164v-10q0 -104 -65 -157.5t-177 -53.5z" />
    <glyph glyph-name="four.OT" 
d="M492 84v-184h-94v184h-355v128l310 388h139v-437h104v-79h-104zM113 168v-5h285v357h-4z" />
    <glyph glyph-name="five.OT" 
d="M326 -110h-16q-107 0 -173 48t-77 142h94q23 -106 163 -106q157 0 157 150v11q0 149 -157 149q-125 0 -160 -79h-84l30 395h440v-84h-355l-19 -210h5q50 58 163 58q231 0 231 -225v-12q0 -111 -66 -174t-176 -63z" />
    <glyph glyph-name="six.OT" 
d="M323 -10h-13q-60 0 -101.5 11.5t-78.5 43.5t-55 96t-18 162v94q0 97 18.5 161.5t55 96.5t77 43.5t99.5 11.5h12q102 0 161.5 -42.5t79.5 -137.5h-94q-15 53 -51.5 74.5t-100.5 21.5q-41 0 -68 -7.5t-50 -29.5t-34 -65t-11 -111v-47h5q22 40 61.5 60t117.5 20
q230 0 230 -216v-9q0 -115 -66 -173t-176 -58zM313 72q83 0 120.5 35t37.5 108v11q0 73 -37 108t-121 35q-83 0 -120.5 -35t-37.5 -108v-11q0 -73 37 -108t121 -35z" />
    <glyph glyph-name="seven.OT" 
d="M579 519l-331 -619h-112l335 610v6h-431v84h539v-81z" />
    <glyph glyph-name="eight.OT" 
d="M314 -10h-11q-249 0 -249 211v6q2 133 103 164v5q-93 27 -93 142v5q0 93 62.5 140t178.5 47h7q116 0 178 -47t62 -140v-5q0 -115 -92 -142v-5q102 -32 102 -164v-6q0 -112 -67 -161.5t-181 -49.5zM273 407h70q115 0 115 100v8q0 61 -37 86.5t-113 25.5q-75 0 -112 -25.5
t-37 -86.5v-8q0 -100 114 -100zM308 72q82 0 121.5 28.5t39.5 98.5v11q0 58 -31.5 89t-93.5 31h-71q-63 0 -94 -31t-31 -89v-11q0 -70 39.5 -98.5t120.5 -28.5z" />
    <glyph glyph-name="nine.OT" horiz-adv-x="618" 
d="M295 610h13q60 0 101.5 -11.5t78.5 -43.5t55 -96t18 -162v-94q0 -97 -18.5 -161.5t-55 -96.5t-77 -43.5t-99.5 -11.5h-12q-102 0 -161.5 42.5t-79.5 137.5h94q15 -53 51.5 -74.5t100.5 -21.5q41 0 68 7.5t50 29.5t34 65t11 111v47h-5q-22 -40 -61.5 -60t-117.5 -20
q-230 0 -230 216v9q0 115 66 173t176 58zM305 528q-83 0 -120.5 -35t-37.5 -108v-11q0 -73 37 -108t121 -35q83 0 120.5 35t37.5 108v11q0 73 -37 108t-121 35z" />
    <glyph glyph-name="zero.numr" horiz-adv-x="376" 
d="M191 274h-6q-79 0 -119 39t-40 154v46q0 115 40 154t119 39h6q39 0 65 -7t49 -27t34 -59.5t11 -99.5v-46q0 -60 -11 -99.5t-34 -59.5t-49.5 -27t-64.5 -7zM188 343q44 0 62.5 22.5t18.5 92.5v64q0 71 -18.5 93t-62.5 22q-43 0 -61.5 -22.5t-18.5 -92.5v-64
q0 -69 18.5 -92t61.5 -23z" />
    <glyph glyph-name="one.numr" horiz-adv-x="273" 
d="M214 700v-420h-82v353h-5l-114 -77v88l92 56h109z" />
    <glyph glyph-name="two.numr" horiz-adv-x="376" 
d="M350 348v-68h-324v59q0 78 23.5 113t93.5 51l73 18q31 7 42 20t11 41v2q0 54 -75 54q-37 0 -56.5 -11.5t-24.5 -42.5h-82q16 122 157 122h7q155 0 155 -119v-5q0 -52 -21.5 -80.5t-79.5 -42.5l-80 -20q-37 -9 -49 -23.5t-12 -55.5v-12h242z" />
    <glyph glyph-name="three.numr" horiz-adv-x="376" 
d="M198 274h-9q-146 0 -164 126h83q9 -58 86 -58t77 61v5q0 29 -14.5 42t-52.5 13h-70v67h66q34 0 48.5 12t14.5 38v4q0 54 -71 54q-66 0 -76 -52h-82q18 120 154 120h7q71 0 110.5 -26.5t39.5 -78.5v-5q0 -71 -59 -86v-4q66 -12 66 -98v-5q0 -129 -154 -129z" />
    <glyph glyph-name="four.numr" horiz-adv-x="376" 
d="M311 381v-101h-81v101h-209v100l172 219h118v-252h55v-67h-55zM88 453v-5h142v185h-4z" />
    <glyph glyph-name="five.numr" horiz-adv-x="376" 
d="M198 274h-9q-149 0 -162 120h83q10 -52 83 -52q37 0 57.5 19.5t20.5 55.5v6q0 74 -82 74q-61 0 -82 -40h-73l18 243h285v-68h-211l-10 -105h4q25 34 98 34q67 0 101 -35t34 -100v-6q0 -71 -41 -108.5t-114 -37.5z" />
    <glyph glyph-name="six.numr" horiz-adv-x="376" 
d="M197 274h-6q-81 0 -123 39t-42 154v46q0 115 40 154t122 39h6q130 0 155 -112h-83q-15 45 -75 45q-44 0 -63.5 -22t-19.5 -89v-22h4q24 43 98 43q73 0 106.5 -32.5t33.5 -96.5v-4q0 -72 -40.5 -107t-112.5 -35zM189 340q42 0 60.5 17.5t18.5 54.5v6q0 37 -18.5 54
t-60.5 17t-61 -17t-19 -54v-6q0 -37 19 -54.5t61 -17.5z" />
    <glyph glyph-name="seven.numr" horiz-adv-x="376" 
d="M358 630l-193 -350h-100l200 347v5h-246v68h339v-70z" />
    <glyph glyph-name="eight.numr" horiz-adv-x="376" 
d="M190 274h-4q-160 0 -160 128v5q0 82 64 97v5q-58 13 -58 84v3q0 110 154 110h4q154 0 154 -110v-3q0 -71 -58 -84v-5q64 -15 64 -97v-5q0 -128 -160 -128zM174 529h29q59 0 59 50v5q0 31 -18 43t-56 12q-39 0 -56.5 -12t-17.5 -43v-5q0 -50 60 -50zM188 340
q41 0 60.5 14.5t19.5 50.5v5q0 63 -65 63h-30q-65 0 -65 -63v-5q0 -36 19.5 -50.5t60.5 -14.5z" />
    <glyph glyph-name="nine.numr" horiz-adv-x="376" 
d="M179 706h6q81 0 123 -39t42 -154v-46q0 -115 -40 -154t-122 -39h-6q-130 0 -155 112h83q15 -45 75 -45q44 0 63.5 22t19.5 89v22h-4q-24 -43 -98 -43q-73 0 -106.5 32.5t-33.5 96.5v4q0 72 40.5 107t112.5 35zM187 640q-42 0 -60.5 -17.5t-18.5 -54.5v-6q0 -37 18.5 -54
t60.5 -17t61 17t19 54v6q0 37 -19 54.5t-61 17.5z" />
    <glyph glyph-name="zero.dnom" horiz-adv-x="376" 
d="M191 -6h-6q-79 0 -119 39t-40 154v46q0 115 40 154t119 39h6q39 0 65 -7t49 -27t34 -59.5t11 -99.5v-46q0 -60 -11 -99.5t-34 -59.5t-49.5 -27t-64.5 -7zM188 63q44 0 62.5 22.5t18.5 92.5v64q0 71 -18.5 93t-62.5 22q-43 0 -61.5 -22.5t-18.5 -92.5v-64q0 -69 18.5 -92
t61.5 -23z" />
    <glyph glyph-name="one.dnom" horiz-adv-x="273" 
d="M214 420v-420h-82v353h-5l-114 -77v88l92 56h109z" />
    <glyph glyph-name="two.dnom" horiz-adv-x="376" 
d="M350 68v-68h-324v59q0 78 23.5 113t93.5 51l73 18q31 7 42 20t11 41v2q0 54 -75 54q-37 0 -56.5 -11.5t-24.5 -42.5h-82q16 122 157 122h7q155 0 155 -119v-5q0 -52 -21.5 -80.5t-79.5 -42.5l-80 -20q-37 -9 -49 -23.5t-12 -55.5v-12h242z" />
    <glyph glyph-name="three.dnom" horiz-adv-x="376" 
d="M198 -6h-9q-146 0 -164 126h83q9 -58 86 -58t77 61v5q0 29 -14.5 42t-52.5 13h-70v67h66q34 0 48.5 12t14.5 38v4q0 54 -71 54q-66 0 -76 -52h-82q18 120 154 120h7q71 0 110.5 -26.5t39.5 -78.5v-5q0 -71 -59 -86v-4q66 -12 66 -98v-5q0 -129 -154 -129z" />
    <glyph glyph-name="four.dnom" horiz-adv-x="376" 
d="M311 101v-101h-81v101h-209v100l172 219h118v-252h55v-67h-55zM88 173v-5h142v185h-4z" />
    <glyph glyph-name="five.dnom" horiz-adv-x="376" 
d="M198 -6h-9q-149 0 -162 120h83q10 -52 83 -52q37 0 57.5 19.5t20.5 55.5v6q0 74 -82 74q-61 0 -82 -40h-73l18 243h285v-68h-211l-10 -105h4q25 34 98 34q67 0 101 -35t34 -100v-6q0 -71 -41 -108.5t-114 -37.5z" />
    <glyph glyph-name="six.dnom" horiz-adv-x="376" 
d="M197 -6h-6q-81 0 -123 39t-42 154v46q0 115 40 154t122 39h6q130 0 155 -112h-83q-15 45 -75 45q-44 0 -63.5 -22t-19.5 -89v-22h4q24 43 98 43q73 0 106.5 -32.5t33.5 -96.5v-4q0 -72 -40.5 -107t-112.5 -35zM189 60q42 0 60.5 17.5t18.5 54.5v6q0 37 -18.5 54t-60.5 17
t-61 -17t-19 -54v-6q0 -37 19 -54.5t61 -17.5z" />
    <glyph glyph-name="seven.dnom" horiz-adv-x="376" 
d="M358 350l-193 -350h-100l200 347v5h-246v68h339v-70z" />
    <glyph glyph-name="eight.dnom" horiz-adv-x="376" 
d="M190 -6h-4q-160 0 -160 128v5q0 82 64 97v5q-58 13 -58 84v3q0 110 154 110h4q154 0 154 -110v-3q0 -71 -58 -84v-5q64 -15 64 -97v-5q0 -128 -160 -128zM174 249h29q59 0 59 50v5q0 31 -18 43t-56 12q-39 0 -56.5 -12t-17.5 -43v-5q0 -50 60 -50zM188 60q41 0 60.5 14.5
t19.5 50.5v5q0 63 -65 63h-30q-65 0 -65 -63v-5q0 -36 19.5 -50.5t60.5 -14.5z" />
    <glyph glyph-name="nine.dnom" horiz-adv-x="376" 
d="M179 426h6q81 0 123 -39t42 -154v-46q0 -115 -40 -154t-122 -39h-6q-130 0 -155 112h83q15 -45 75 -45q44 0 63.5 22t19.5 89v22h-4q-24 -43 -98 -43q-73 0 -106.5 32.5t-33.5 96.5v4q0 72 40.5 107t112.5 35zM187 360q-42 0 -60.5 -17.5t-18.5 -54.5v-6q0 -37 18.5 -54
t60.5 -17t61 17t19 54v6q0 37 -19 54.5t-61 17.5z" />
    <glyph glyph-name="G.alt" horiz-adv-x="729" 
d="M662 387v-387h-86v99h-5q-18 -50 -66 -80q-47 -29 -148 -29h-14q-284 0 -284 318v83q0 163 71.5 241t223.5 78h23q240 0 283 -201h-102q-28 114 -182 114h-21q-112 0 -155 -60.5t-43 -186.5v-52q0 -126 43 -186.5t155 -60.5h11q117 1 157.5 47.5t40.5 167.5v10h-218v85
h316z" />
    <glyph glyph-name="Gcircumflex.alt" horiz-adv-x="733" 
d="M429 860l96 -120h-80l-80 89l-80 -89h-80l95 120h129zM662 387v-387h-86v99h-5q-18 -50 -66 -80q-47 -29 -148 -29h-14q-284 0 -284 318v83q0 163 71.5 241t223.5 78h23q240 0 283 -201h-102q-28 114 -182 114h-21q-112 0 -155 -60.5t-43 -186.5v-52q0 -126 43 -186.5
t155 -60.5h11q117 1 157.5 47.5t40.5 167.5v10h-218v85h316z" />
    <glyph glyph-name="Gbreve.alt" horiz-adv-x="733" 
d="M365 733q-77 0 -113.5 30.5t-38.5 96.5h69q0 -71 83 -71q81 0 83 71h69q-3 -66 -39 -96.5t-113 -30.5zM662 387v-387h-86v99h-5q-18 -50 -66 -80q-47 -29 -148 -29h-14q-284 0 -284 318v83q0 163 71.5 241t223.5 78h23q240 0 283 -201h-102q-28 114 -182 114h-21
q-112 0 -155 -60.5t-43 -186.5v-52q0 -126 43 -186.5t155 -60.5h11q117 1 157.5 47.5t40.5 167.5v10h-218v85h316z" />
    <glyph glyph-name="Gdotaccent.alt" horiz-adv-x="733" 
d="M320 844h90v-85h-90v85zM662 387v-387h-86v99h-5q-18 -50 -66 -80q-47 -29 -148 -29h-14q-284 0 -284 318v83q0 163 71.5 241t223.5 78h23q240 0 283 -201h-102q-28 114 -182 114h-21q-112 0 -155 -60.5t-43 -186.5v-52q0 -126 43 -186.5t155 -60.5h11q117 1 157.5 47.5
t40.5 167.5v10h-218v85h316z" />
    <glyph glyph-name="Gcommaaccent.alt" horiz-adv-x="733" 
d="M662 387v-387h-86v99h-5q-18 -50 -66 -80q-47 -29 -148 -29h-14q-284 0 -284 318v83q0 163 71.5 241t223.5 78h23q240 0 283 -201h-102q-28 114 -182 114h-21q-112 0 -155 -60.5t-43 -186.5v-52q0 -126 43 -186.5t155 -60.5h11q117 1 157.5 47.5t40.5 167.5v10h-218v85
h316zM388 -149l-14 -21h-56l39 59v8h-56v56h116v-14q0 -28 -6 -45t-23 -43z" />
    <glyph glyph-name="J.alt" horiz-adv-x="618" 
d="M309 -10h-14q-222 0 -245 211l-2 17h99l3 -20q10 -58 44 -88.5t105 -30.5h5q88 0 120.5 45.5t32.5 147.5v428h99v-439q0 -141 -59 -206t-188 -65z" />
    <glyph glyph-name="Jcircumflex.alt" horiz-adv-x="618" 
d="M570 860l96 -120h-80l-80 89l-80 -89h-80l95 120h129zM309 -10h-14q-222 0 -245 211l-2 17h99l3 -20q10 -58 44 -88.5t105 -30.5h5q88 0 120.5 45.5t32.5 147.5v428h99v-439q0 -141 -59 -206t-188 -65z" />
    <glyph glyph-name="K.alt" horiz-adv-x="652" 
d="M167 700v-700h-97v700h97zM296 359l348 -359h-129l-338 350l322 350h114z" />
    <glyph glyph-name="Kcommaaccent.alt" horiz-adv-x="652" 
d="M167 700v-700h-97v700h97zM296 359l348 -359h-129l-338 350l322 350h114zM358 -149l-14 -21h-56l39 59v8h-56v56h116v-14q0 -28 -6 -45t-23 -43z" />
    <glyph glyph-name="Q.alt" horiz-adv-x="731" 
d="M398 -10h-21h-23q-152 0 -223.5 78t-71.5 240v83q0 163 71.5 241t223.5 78h23q152 0 223.5 -78t71.5 -241v-83q0 -248 -174 -302l138 -176h-119zM355 77h21q112 1 155 61.5t43 185.5v52q0 126 -43.5 186.5t-154.5 60.5h-21q-112 0 -155 -60.5t-43 -186.5v-52
q0 -126 43 -186.5t155 -60.5z" />
    <glyph glyph-name="R.alt" horiz-adv-x="664" 
d="M167 300v-300h-97v700h330q115 0 167 -44.5t52 -150.5v-9q0 -177 -182 -188l199 -308h-116l-191 300h-162zM389 616h-222v-232h221q72 0 103 24.5t31 88.5v8q0 63 -30.5 87t-102.5 24z" />
    <glyph glyph-name="Racute.alt" horiz-adv-x="664" 
d="M482 860l-100 -120h-82l78 120h104zM167 300v-300h-97v700h330q115 0 167 -44.5t52 -150.5v-9q0 -177 -182 -188l199 -308h-116l-191 300h-162zM389 616h-222v-232h221q72 0 103 24.5t31 88.5v8q0 63 -30.5 87t-102.5 24z" />
    <glyph glyph-name="Rcaron.alt" horiz-adv-x="664" 
d="M340 771l80 89h80l-96 -120h-129l-95 120h80zM167 300v-300h-97v700h330q115 0 167 -44.5t52 -150.5v-9q0 -177 -182 -188l199 -308h-116l-191 300h-162zM389 616h-222v-232h221q72 0 103 24.5t31 88.5v8q0 63 -30.5 87t-102.5 24z" />
    <glyph glyph-name="Rcommaaccent.alt" horiz-adv-x="664" 
d="M167 300v-300h-97v700h330q115 0 167 -44.5t52 -150.5v-9q0 -177 -182 -188l199 -308h-116l-191 300h-162zM389 616h-222v-232h221q72 0 103 24.5t31 88.5v8q0 63 -30.5 87t-102.5 24zM358 -149l-14 -21h-56l39 59v8h-56v56h116v-14q0 -28 -6 -45t-23 -43z" />
    <glyph glyph-name="a.alt" horiz-adv-x="567" 
d="M513 530v-530h-91v75h-4q-17 -42 -51.5 -63.5t-99.5 -21.5h-5q-106 0 -162.5 56.5t-56.5 198.5v40q0 142 56.5 198.5t162.5 56.5h5q65 0 99.5 -21.5t51.5 -63.5h4v75h91zM278 70q75 0 109.5 37t34.5 150v16q0 113 -34.5 150t-109.5 37q-50 0 -79 -12.5t-47.5 -54.5
t-18.5 -120v-16q0 -78 18.5 -120t47.5 -54.5t79 -12.5z" />
    <glyph glyph-name="agrave.alt" horiz-adv-x="567" 
d="M249 700l77 -120h-82l-100 120h105zM513 530v-530h-91v75h-4q-17 -42 -51.5 -63.5t-99.5 -21.5h-5q-106 0 -162.5 56.5t-56.5 198.5v40q0 142 56.5 198.5t162.5 56.5h5q65 0 99.5 -21.5t51.5 -63.5h4v75h91zM278 70q75 0 109.5 37t34.5 150v16q0 113 -34.5 150t-109.5 37
q-50 0 -79 -12.5t-47.5 -54.5t-18.5 -120v-16q0 -78 18.5 -120t47.5 -54.5t79 -12.5z" />
    <glyph glyph-name="aacute.alt" horiz-adv-x="567" 
d="M427 700l-100 -120h-82l78 120h104zM513 530v-530h-91v75h-4q-17 -42 -51.5 -63.5t-99.5 -21.5h-5q-106 0 -162.5 56.5t-56.5 198.5v40q0 142 56.5 198.5t162.5 56.5h5q65 0 99.5 -21.5t51.5 -63.5h4v75h91zM278 70q75 0 109.5 37t34.5 150v16q0 113 -34.5 150t-109.5 37
q-50 0 -79 -12.5t-47.5 -54.5t-18.5 -120v-16q0 -78 18.5 -120t47.5 -54.5t79 -12.5z" />
    <glyph glyph-name="acircumflex.alt" horiz-adv-x="567" 
d="M349 700l96 -120h-80l-80 89l-80 -89h-80l95 120h129zM513 530v-530h-91v75h-4q-17 -42 -51.5 -63.5t-99.5 -21.5h-5q-106 0 -162.5 56.5t-56.5 198.5v40q0 142 56.5 198.5t162.5 56.5h5q65 0 99.5 -21.5t51.5 -63.5h4v75h91zM278 70q75 0 109.5 37t34.5 150v16
q0 113 -34.5 150t-109.5 37q-50 0 -79 -12.5t-47.5 -54.5t-18.5 -120v-16q0 -78 18.5 -120t47.5 -54.5t79 -12.5z" />
    <glyph glyph-name="atilde.alt" horiz-adv-x="567" 
d="M352 589q-28 0 -71.5 22t-56.5 22q-15 0 -23.5 -8t-13.5 -31h-58q5 52 26 74.5t62 22.5q28 0 70.5 -21.5t56.5 -21.5q16 0 24.5 8t12.5 31h60q-5 -51 -27 -74.5t-62 -23.5zM513 530v-530h-91v75h-4q-17 -42 -51.5 -63.5t-99.5 -21.5h-5q-106 0 -162.5 56.5t-56.5 198.5
v40q0 142 56.5 198.5t162.5 56.5h5q65 0 99.5 -21.5t51.5 -63.5h4v75h91zM278 70q75 0 109.5 37t34.5 150v16q0 113 -34.5 150t-109.5 37q-50 0 -79 -12.5t-47.5 -54.5t-18.5 -120v-16q0 -78 18.5 -120t47.5 -54.5t79 -12.5z" />
    <glyph glyph-name="adieresis.alt" horiz-adv-x="567" 
d="M158 681h80v-85h-80v85zM332 681h80v-85h-80v85zM513 530v-530h-91v75h-4q-17 -42 -51.5 -63.5t-99.5 -21.5h-5q-106 0 -162.5 56.5t-56.5 198.5v40q0 142 56.5 198.5t162.5 56.5h5q65 0 99.5 -21.5t51.5 -63.5h4v75h91zM278 70q75 0 109.5 37t34.5 150v16
q0 113 -34.5 150t-109.5 37q-50 0 -79 -12.5t-47.5 -54.5t-18.5 -120v-16q0 -78 18.5 -120t47.5 -54.5t79 -12.5z" />
    <glyph glyph-name="amacron.alt" horiz-adv-x="567" 
d="M434 666v-55h-298v55h298zM513 530v-530h-91v75h-4q-17 -42 -51.5 -63.5t-99.5 -21.5h-5q-106 0 -162.5 56.5t-56.5 198.5v40q0 142 56.5 198.5t162.5 56.5h5q65 0 99.5 -21.5t51.5 -63.5h4v75h91zM278 70q75 0 109.5 37t34.5 150v16q0 113 -34.5 150t-109.5 37
q-50 0 -79 -12.5t-47.5 -54.5t-18.5 -120v-16q0 -78 18.5 -120t47.5 -54.5t79 -12.5z" />
    <glyph glyph-name="abreve.alt" horiz-adv-x="567" 
d="M285 573q-77 0 -113.5 31t-38.5 96h69q0 -71 83 -71q81 0 83 71h69q-3 -65 -39 -96t-113 -31zM513 530v-530h-91v75h-4q-17 -42 -51.5 -63.5t-99.5 -21.5h-5q-106 0 -162.5 56.5t-56.5 198.5v40q0 142 56.5 198.5t162.5 56.5h5q65 0 99.5 -21.5t51.5 -63.5h4v75h91z
M278 70q75 0 109.5 37t34.5 150v16q0 113 -34.5 150t-109.5 37q-50 0 -79 -12.5t-47.5 -54.5t-18.5 -120v-16q0 -78 18.5 -120t47.5 -54.5t79 -12.5z" />
    <glyph glyph-name="aring.alt" horiz-adv-x="567" 
d="M285 567q-118 0 -118 103t118 103t118 -103t-118 -103zM285 616q57 0 57 54t-57 54q-58 0 -58 -54t58 -54zM513 530v-530h-91v75h-4q-17 -42 -51.5 -63.5t-99.5 -21.5h-5q-106 0 -162.5 56.5t-56.5 198.5v40q0 142 56.5 198.5t162.5 56.5h5q65 0 99.5 -21.5t51.5 -63.5h4
v75h91zM278 70q75 0 109.5 37t34.5 150v16q0 113 -34.5 150t-109.5 37q-50 0 -79 -12.5t-47.5 -54.5t-18.5 -120v-16q0 -78 18.5 -120t47.5 -54.5t79 -12.5z" />
    <glyph glyph-name="aringacute.alt" horiz-adv-x="569" 
d="M428 920l-100 -120h-82l78 120h104zM286 564q-118 0 -118 103t118 103t118 -103t-118 -103zM286 613q57 0 57 54t-57 54q-58 0 -58 -54t58 -54zM513 530v-530h-91v75h-4q-17 -42 -51.5 -63.5t-99.5 -21.5h-5q-106 0 -162.5 56.5t-56.5 198.5v40q0 142 56.5 198.5
t162.5 56.5h5q65 0 99.5 -21.5t51.5 -63.5h4v75h91zM278 70q75 0 109.5 37t34.5 150v16q0 113 -34.5 150t-109.5 37q-50 0 -79 -12.5t-47.5 -54.5t-18.5 -120v-16q0 -78 18.5 -120t47.5 -54.5t79 -12.5z" />
    <glyph glyph-name="aogonek.alt" horiz-adv-x="569" 
d="M513 530v-530h-1q-45 -14 -58 -25.5t-13 -30.5q0 -16 10 -23.5t35 -7.5h26v-53h-56q-50 0 -73.5 16t-23.5 55q0 28 12.5 46.5t50.5 35.5v62h-4q-17 -42 -51.5 -63.5t-99.5 -21.5h-5q-106 0 -162.5 56.5t-56.5 198.5v40q0 142 56.5 198.5t162.5 56.5h5q65 0 99.5 -21.5
t51.5 -63.5h4v75h91zM278 70q75 0 109.5 37t34.5 150v16q0 113 -34.5 150t-109.5 37q-50 0 -79 -12.5t-47.5 -54.5t-18.5 -120v-16q0 -78 18.5 -120t47.5 -54.5t79 -12.5z" />
    <glyph glyph-name="a.superior.alt" horiz-adv-x="469" 
d="M421 700v-420h-84v58h-4q-25 -66 -117 -66h-4q-84 0 -129 46t-45 159v26q0 113 45 159t129 46h4q92 0 117 -66h4v58h84zM228 343q56 0 82.5 28t26.5 112v14q0 84 -26.5 112t-82.5 28t-82 -28t-26 -112v-14q0 -85 26 -112.5t82 -27.5z" />
    <glyph glyph-name="k.alt" horiz-adv-x="503" 
d="M145 700v-700h-91v700h91zM261 294l236 -294h-110l-231 288l216 242h106z" />
    <glyph glyph-name="kcommaaccent.alt" horiz-adv-x="523" 
d="M145 700v-700h-91v700h91zM261 294l236 -294h-110l-231 288l216 242h106zM290 -149l-14 -21h-56l39 59v8h-56v56h116v-14q0 -28 -6 -45t-23 -43z" />
    <glyph glyph-name="k.superior.alt" horiz-adv-x="413" 
d="M130 834v-554h-82v554h82zM412 280h-99l-175 246l162 174h100l-168 -173z" />
    <glyph glyph-name="ampersand.alt" horiz-adv-x="729" 
d="M575 326v-326h-276q-233 0 -233 204v7q0 71 27.5 114t76.5 55v4q-94 21 -94 139v4q0 173 218 173h240v-84h-240q-124 0 -124 -100v-6q0 -57 34.5 -78.5t109.5 -21.5h167v105h94v-105h154v-84h-154zM311 84h170v242h-171q-81 0 -116 -23.5t-35 -91.5v-5q0 -69 38 -95.5
t114 -26.5z" />
    <glyph glyph-name="registered.alt" horiz-adv-x="758" 
d="M417 -10h-77q-160 0 -237 82.5t-77 235.5v84q0 153 77 235.5t237 82.5h77q160 0 237.5 -83t77.5 -235v-84q0 -152 -77.5 -235t-237.5 -83zM352 25h54q162 0 224.5 77t62.5 231v34q0 154 -62.5 231t-224.5 77h-54q-162 0 -224 -77t-62 -231v-34q0 -154 62 -231t224 -77z
M299 315v-175h-76v420h204q73 0 105.5 -27.5t32.5 -94.5v-5q0 -103 -103 -113l115 -180h-92l-107 175h-79zM417 497h-118v-123h118q38 0 54.5 13.5t16.5 46.5v5q0 34 -16 46t-55 12z" />
    <glyph glyph-name="NULL" horiz-adv-x="0" 
 />
    <glyph glyph-name="CR" horiz-adv-x="213" 
 />
    </font>
</defs>
</svg>
