<?xml version="1.0" standalone="no"?>
<!DOCTYPE svg PUBLIC "-//W3C//DTD SVG 1.1//EN" "http://www.w3.org/Graphics/SVG/1.1/DTD/svg11.dtd" >
<svg xmlns="http://www.w3.org/2000/svg" xmlns:xlink="http://www.w3.org/1999/xlink" version="1.1">
<metadata>
Created by FontForge 20170731 at Wed Jul 25 23:41:03 2018
 By Aleksey,,,
Copyright (c) 2017 by Jacob Wise. All rights reserved.
</metadata>
<defs>
<font id="Monarch" horiz-adv-x="624" >
  <font-face 
    font-family="Monarch"
    font-weight="400"
    font-stretch="normal"
    units-per-em="1000"
    panose-1="2 0 0 0 0 0 0 0 0 0"
    ascent="750"
    descent="-250"
    x-height="520"
    cap-height="768"
    bbox="-230 -336 1273.86 1000"
    underline-thickness="50"
    underline-position="-250"
    unicode-range="U+000A-FB03"
  />
<missing-glyph horiz-adv-x="648" 
d="M100 -320v1088h601v-1088h-601zM425 224l221 -434v867zM399 173l-220 -429h439zM179 704l220 -429l219 429h-439zM372 224l-217 426v-852z" />
    <glyph glyph-name="lf" unicode="lf" horiz-adv-x="588" 
d="M453 520h115v-61h-115v-459h-80v459h-115v61h115v14.5v16.5v15.5t-1 16t-2 14t-3 13.5t-4.5 11t-6 9.5t-7.5 5.5l-45 22q-19 7 -17 28q-50 -25 -78.5 -47t-49 -60.5t-24.5 -92.5v-486h-80v479q0 14 0.5 20.5t3 25t10.5 33t21 33t35.5 35.5t53.5 32l221 98
q22 10 38.5 12.5t36.5 -6.5t31 -16t42 -28l-7 -11q-42 23 -72 10l-114 -51q-5 -2 -5 -7.5t5 -7.5l51 -25q21 -11 34 -33.5t13 -48.5v-24z" />
    <glyph glyph-name="lj" unicode="lj" horiz-adv-x="456" 
d="M296 -30v549h80v-561q-9 -112 -129 -170l-256 -108l-6 14q89 38 155 79q156 97 156 197zM242 701q-31 -16 -48 -31q-54 -52 -58 -142v-528h-80v521q0 121 127 182l146 62q8 3 16 0l61 -32q5 -3 5 -8.5t-5 -7.5l-65 -35q-4 -1 -8 0l-35 19q-29 14 -56 0z" />
    <glyph glyph-name="es" unicode="es" horiz-adv-x="1173" 
d="M584 173q5 9 9.5 13.5t9 5.5t8.5 0t8 -5.5t7.5 -9t7 -11t5.5 -11t5 -11t4 -8.5q40 -83 101.5 -120.5t159.5 -37.5q52 0 103 14.5t92 53t41 92.5q0 53 -22 87t-58 49t-78.5 22t-85.5 10t-79 9t-58 23t-22 48q0 42 26 76t71 48q137 37 229 -135l67 43q-35 50 -94 85.5
t-134 35.5q-11 0 -35 -2q-86 -7 -149 -45.5t-65 -106.5q-1 -19 3 -35t9.5 -28t17 -22t20.5 -16.5t26.5 -12.5t27 -8.5t31 -5.5t30 -4t31 -3t27.5 -2q181 -13 181 -109q0 -57 -46.5 -89t-105.5 -32q-102 0 -158 37.5t-101 128.5q-19 37 -41.5 38.5t-43.5 -34.5
q-42 -80 -92.5 -118.5t-117.5 -50.5q-78 -9 -133 39.5t-85 132.5l442 172q-28 80 -95 128.5t-169 48.5q-89 0 -154.5 -41.5t-95 -103.5t-29.5 -135t29.5 -135t95 -103.5t154.5 -41.5q42 0 69 10q117 29 199 183zM235 509q86 28 148 -13.5t100 -125.5l-351 -161
q-15 47 -18.5 90.5t5 86t38 75t78.5 48.5z" />
    <glyph glyph-name="ff" unicode="ff" horiz-adv-x="613" 
d="M478 520h115v-61h-115v-459h-80v459h-183v-459h-80v459h-115v61h115v14.5v16.5v15.5t-1 16t-2 14t-3 13.5t-4.5 11t-6 9.5t-7.5 5.5l-45 22q-19 7 -17 26q0 19 17 28l75 35q43 20 74 20q39 0 79 -25l42 -27l89 41q24 11 46 11q15 0 33.5 -8t28 -14t40.5 -27l-7 -11
q-29 15 -49 15q-10 0 -23 -5l-114 -51q-5 -3 -5 -8t5 -7l51 -25q45 -24 47 -82v-24zM215 544v-24h183v14.5v16.5v15.5t-1 16t-2 14t-3 13.5t-4.5 11t-6 9.5t-7.5 5.5l-45 22q-17 8 -17 25v2q0 26 -16 36.5t-40 2.5l-135 -60q-5 -3 -5 -8t5 -7l47 -23q45 -24 47 -82z" />
    <glyph glyph-name="fi" unicode="fi" horiz-adv-x="540" 
d="M215 0h-80v459h-115v61h115v14.5v16.5v15.5t-1 16t-2 14t-3 13.5t-4.5 11t-6 9.5t-7.5 5.5l-45 22q-17 8 -17.5 27t17.5 27l75 35q52 23 84.5 22.5t91.5 -25.5l173 -72q5 -3 5 -8.5t-5 -7.5l-60 -36q-4 -1 -8 0l-65 35q-5 2 -5 8t5 9q33 16 -15 38q-15 7 -32 11
q-36 8 -87 -11l-102 -46q-5 -2 -5 -7.5t5 -7.5l47 -23q21 -11 34 -33.5t13 -48.5v-24h252v-520h-80v459h-172v-459z" />
    <glyph glyph-name="ffi" unicode="ffi" horiz-adv-x="802" 
d="M580 744l173 -72q4 -3 4 -9t-4 -7l-60 -36q-1 -1 -4 -1t-4 1l-65 35q-5 2 -5 8t9 12.5t9 10.5q0 14 -32 25.5t-50 11.5q-35 0 -65 -13l-102 -46q-5 -3 -5 -8t5 -7l47 -23q45 -24 47 -82v-24h252v-520h-80v459h-172v-459h-80v459h-183v-459h-80v459h-115v61h115v14.5v16.5
v15.5t-1 16t-2 14t-3 13.5t-4.5 11t-6 9.5t-7.5 5.5l-45 22q-17 8 -17 24q0 21 17 30l75 35q43 20 74 20q39 0 79 -25l43 -28l67 33q47 22 81 22q36 0 95 -25zM215 520h183v14.5v16.5v15.5t-1 16t-2 14t-3 13.5t-4.5 11t-6 9.5t-7.5 5.5l-45 22q-17 8 -17 27q0 42 -37 42
q-9 0 -19 -3l-135 -60q-5 -3 -5 -8t5 -7l47 -23q20 -11 33.5 -34t13.5 -48v-24z" />
    <glyph glyph-name="li" unicode="li" horiz-adv-x="455" 
d="M295 519v-519h80v519h-80zM241 701q-31 -16 -48 -31q-54 -52 -58 -142v-528h-80v521q0 121 127 182l146 62q8 3 16 0l61 -32q5 -3 5 -8.5t-5 -7.5l-65 -35q-4 -1 -8 0l-35 19q-29 14 -56 0z" />
    <glyph glyph-name="ld" unicode="ld" horiz-adv-x="839" 
d="M471 754l189 -79q120 -58 129 -170v-505h-80v76q-43 -36 -97 -57t-108 -26t-105.5 9t-91 43.5t-63.5 83t-24 122.5t23.5 124t62.5 88t90 47t104.5 6t109 -40.5t99.5 -86.5v104q0 38 -22 75.5t-59 68t-70.5 52t-69.5 39.5q-55 29 -99.5 28.5t-100.5 -28.5q-49 -24 -75 -42
q-15 -9 -29.5 -24.5t-31 -52t-17.5 -81.5v-528h-80v521q0 121 127 182l118 50q84 37 171 1zM709 198v143q0 25 -22 47.5t-77 54.5q-88 46 -157 33.5t-110.5 -75t-39.5 -150.5q2 -68 24 -119.5t56 -78.5t77.5 -35t86.5 4.5t84 47t70 86.5q8 18 8 42z" />
    <glyph glyph-name="fj" unicode="fj" horiz-adv-x="540" 
d="M387 -30v489h-172v-459h-80v459h-115v61h115v14.5v16.5v15.5t-1 16t-2 14t-3 13.5t-4.5 11t-6 9.5t-7.5 5.5l-45 22q-17 8 -17.5 27t17.5 27l75 35q52 23 84.5 22.5t91.5 -25.5l173 -72q5 -3 5 -8.5t-5 -7.5l-60 -36q-4 -1 -8 0l-65 35q-5 2 -5 8t5 9q33 16 -15 38
q-15 7 -32 11q-36 8 -87 -11l-102 -46q-5 -2 -5 -7.5t5 -7.5l47 -23q21 -11 34 -33.5t13 -48.5v-24h252v-562q-9 -112 -129 -170l-256 -108l-6 14q89 38 155 79q156 97 156 197z" />
    <glyph glyph-name="fu" unicode="fu" horiz-adv-x="859" 
d="M730 520h79v-520h-79v101q-105 -71 -158 -95q-33 -16 -73 -16q-53 0 -92.5 34.5t-39.5 90.5v344h-152v-459h-80v459h-115v61h115v14.5v16.5v15.5t-1 16t-2 14t-3 13.5t-4.5 11t-6 9.5t-7.5 5.5l-45 22q-17 8 -17.5 27t17.5 27q30 12 46 21l50 23q22 10 38.5 12.5
t36.5 -6.5t31 -16t42 -28l-7 -11q-42 23 -72 10l-114 -51q-5 -2 -5 -7.5t5 -7.5l51 -25q21 -11 34 -33.5t13 -48.5v-24h231v-374q0 -60 35.5 -92t93.5 -15q51 16 135 68q20 13 20 35v378z" />
    <glyph glyph-name="ra" unicode="ra" horiz-adv-x="945" 
d="M935 0h-81l-25 64q-56 -49 -137.5 -70t-155 -11.5t-126 60t-52.5 132.5q0 64 34 113t86.5 72t122.5 15t135 -53l-21 52q-58 130 -192 95q-34 -9 -78.5 -33t-77 -37.5t-55.5 -5.5q-18 5 -52.5 44.5t-51.5 37.5q-24 -4 -53.5 -40t-29.5 -63v-372h-80v520h80v-99
q27 37 62 72t56 37q19 1 42 -18t46 -46t32 -34q14 -9 49 12q13 8 30.5 20t29 19.5t28 17.5t28 14.5t30.5 10t35 4.5t40 -3q53 -9 95 -41t59 -81zM433 175q0 -74 40.5 -120t97 -54t119.5 20t105 90q14 20 1 47l-47 122q-10 28 -38 40q-90 40 -152 29.5t-94 -56t-32 -118.5z
" />
    <glyph glyph-name="ft" unicode="ft" horiz-adv-x="736" 
d="M711 53l5 -13q-11 -5 -50.5 -21.5t-53.5 -22.5q-32 -16 -68 -16.5t-66 12t-50.5 40.5t-22.5 66q-1 12 -1 104v258h-189v-460h-80v460h-115v60h115v14.5v16.5v15.5t-1 16t-2 14t-3 13.5t-4.5 11t-6 9.5t-7.5 5.5l-45 22q-17 8 -17.5 27t17.5 27q30 12 46 21l50 23
q22 10 38.5 12.5t36.5 -6.5t31 -16t42 -28l-7 -11q-42 23 -72 10l-114 -51q-5 -2 -5 -7.5t5 -7.5l51 -25q21 -11 34 -33.5t13 -48.5v-24h189q0 13 2.5 28.5t12 47t36.5 60.5t68 47l148 63l6 -14q-20 -8 -38 -18q-50 -26 -85 -48q-25 -15 -49 -56.5t-24 -109.5h196v-60h-180
q-9 0 -15 -6t-6 -15v-310q0 -58 34.5 -91.5t92.5 -18.5q67 15 108 34z" />
    <glyph glyph-name="tt" unicode="tt" horiz-adv-x="770" 
d="M745 53l5 -13q-11 -5 -50.5 -21.5t-53.5 -22.5q-32 -16 -68 -16.5t-66 12t-50.5 40.5t-22.5 66q-1 12 -1 104v258h-242q-9 0 -15 -6t-6 -15v-310q0 -58 34.5 -91.5t92.5 -18.5q67 15 108 34l5 -13q-11 -5 -50.5 -21.5t-53.5 -22.5q-32 -16 -68 -16.5t-66 12t-50.5 40.5
t-22.5 66q-1 12 -1 104v258h-68v60h68q0 13 2.5 28.5t12 47t36.5 60.5t68 47l148 63l6 -14q-20 -8 -38 -18q-50 -26 -85 -48q-25 -15 -49 -56.5t-24 -109.5h258q0 13 2.5 28.5t12 47t36.5 60.5t68 47l148 63l6 -14q-20 -8 -38 -18q-50 -26 -85 -48q-25 -15 -49 -56.5
t-24 -109.5h196v-60h-180q-9 0 -15 -6t-6 -15v-310q0 -58 34.5 -91.5t92.5 -18.5q67 15 108 34z" />
    <glyph glyph-name="co" unicode="co" horiz-adv-x="1210" 
d="M898 540q-100 0 -170 -51q-56 -41 -85 -107q-5 -12 -27.5 -69t-33 -80t-34 -62t-49.5 -67q-56 -59 -151 -75q-150 -18 -221 181q-15 47 -18.5 90.5t5 85.5t38 74.5t78.5 48.5q78 25 136.5 -10t105.5 -121l67 43q-35 49 -94 84.5t-134 35.5q-89 0 -154.5 -41.5t-95 -103.5
t-29.5 -135t29.5 -135t95 -103.5t154.5 -41.5q42 0 69 10q50 14 88.5 41.5t66.5 68.5t45.5 76t37.5 88q-2 -115 72 -200t208 -85q89 0 155 41.5t95.5 103.5t29.5 135t-29.5 135t-95 103.5t-155.5 41.5zM982 12q-53 -15 -94.5 -7.5t-75.5 39t-56.5 69.5t-38.5 86t-20.5 93
t3.5 88.5t38 77.5t80 51q42 16 78.5 10.5t65 -21.5t52 -45.5t40 -61.5t29.5 -70q16 -49 21 -93.5t-2.5 -88t-37.5 -77t-82 -50.5z" />
    <glyph glyph-name="gg" unicode="gg" horiz-adv-x="1294" 
d="M1073 83q59 57 125 33q51 -18 69 -70q24 -70 -36 -132q-39 -41 -110 -69l-351 -165l-6 14q55 28 151 82q164 95 233 154q32 28 35 61.5t-17 53.5t-50 16q-27 -5 -57.5 -27t-59 -48.5t-60 -53t-70 -44t-78.5 -17.5q-90 0 -142 62q-39 -54 -125 -88l-351 -165l-6 14
q55 28 151 82q164 95 233 154q32 28 35 61.5t-17 53.5t-50 16q-27 -5 -57.5 -27t-59 -48.5t-60 -53t-70 -44t-78.5 -17.5q-52 0 -93.5 21.5t-60.5 57t-19 76.5t32 84t91 75q-48 45 -59 106.5t13 116.5t91 93.5t163 38.5q35 0 78 -9q26 -6 60 6q34 11 52 21l20 9l8 -11
l-68 -48l6 -3q48 -25 77 -64t36.5 -82t-6.5 -87t-46.5 -78.5t-89 -56.5t-127.5 -22q-99 0 -166 39q-19 10 -35.5 3.5t-27.5 -22.5q-32 -52 -22.5 -95t44 -70t75.5 -27q112 0 256 140q40 39 85 39t77 -29q31 54 103 92q-39 35 -55 82.5t-5 94.5t41.5 87.5t90 65.5t136.5 25
q35 0 78 -9q26 -6 60 6q34 11 52 21l20 9l8 -11l-68 -48l6 -3q48 -25 77 -64t36.5 -82t-6.5 -87t-46.5 -78.5t-89 -56.5t-127.5 -22q-99 0 -166 39q-19 10 -35.5 3.5t-27.5 -22.5q-32 -52 -22.5 -95t44 -70t75.5 -27q112 0 256 140zM949 515q-101 0 -146.5 -52.5
t-45.5 -133.5q0 -82 46 -136t146 -54q101 0 146 53.5t45 136.5q0 81 -45.5 133.5t-145.5 52.5zM352 515q-101 0 -146.5 -52.5t-45.5 -133.5q0 -82 46 -136t146 -54q101 0 146 53.5t45 136.5q0 81 -45.5 133.5t-145.5 52.5z" />
    <glyph glyph-name="cc" unicode="cc" horiz-adv-x="1211" 
d="M643 382l-25 -117q-20 -53 -37.5 -88t-45.5 -76t-66.5 -68.5t-88.5 -41.5q-27 -10 -69 -10q-89 0 -154.5 41.5t-95 103.5t-29.5 135t29.5 135t95 103.5t154.5 41.5q75 0 134 -35.5t94 -84.5l-67 -43q-47 86 -105.5 121t-136.5 10q-49 -16 -78.5 -48.5t-38 -74.5t-5 -85.5
t18.5 -90.5q71 -199 221 -181q95 16 151 75q26 28 49.5 67t34 62t33 80t27.5 69zM1126 421l-67 -43q-47 86 -105.5 121t-136.5 10q-49 -16 -78.5 -48.5t-38 -74.5t-5 -85.5t18.5 -90.5q71 -199 221 -181q168 32 232 176l19 -9q-87 -172 -219 -205q-27 -10 -69 -10
q-89 0 -154.5 41.5t-95 103.5t-29.5 135t29.5 135t95 103.5t154.5 41.5q75 0 134 -35.5t94 -84.5z" />
    <glyph glyph-name="ce" unicode="ce" horiz-adv-x="1210" 
d="M618 265l25 117q-5 -12 -27.5 -69t-33 -80t-34 -62t-49.5 -67q-56 -59 -151 -75q-150 -18 -221 181q-15 47 -18.5 90.5t5 85.5t38 74.5t78.5 48.5q78 25 136.5 -10t105.5 -121l67 43q-35 49 -94 84.5t-134 35.5q-89 0 -154.5 -41.5t-95 -103.5t-29.5 -135t29.5 -135
t95 -103.5t154.5 -41.5q42 0 69 10q50 14 88.5 41.5t66.5 68.5t45.5 76t37.5 88zM1185 195l-19 9q-36 -80 -97.5 -126t-131.5 -59q-78 -9 -133 39.5t-85 132.5l442 172q-28 80 -95 128.5t-169 48.5q-89 0 -154.5 -41.5t-95 -103.5t-29.5 -135t29.5 -135t95 -103.5
t154.5 -41.5q42 0 69 10q132 33 219 205zM816 509q86 28 148 -13.5t100 -125.5l-351 -161q-15 47 -18.5 90.5t5 86t38 75t78.5 48.5z" />
    <glyph glyph-name="eo" unicode="eo" horiz-adv-x="1210" 
d="M898 540q-100 0 -170 -51q-56 -41 -85 -107q-5 -12 -27.5 -69t-33 -80t-34 -62t-49.5 -67q-56 -59 -151 -75q-145 -18 -214 163l440 171q-28 80 -95 128.5t-169 48.5q-60 0 -110.5 -19t-82.5 -51.5t-55 -74.5t-28 -88.5t0 -92.5t28 -88t55.5 -74.5t83 -51.5t110.5 -19
q42 0 69 10q50 14 88.5 41.5t66.5 68.5t45.5 76t37.5 88q-2 -115 72 -200t208 -85q89 0 155 41.5t95.5 103.5t29.5 135t-29.5 135t-95 103.5t-155.5 41.5zM982 12q-53 -15 -94.5 -7.5t-75.5 39t-56.5 69.5t-38.5 86t-20.5 93t3.5 88.5t38 77.5t80 51q42 16 78.5 10.5
t65 -21.5t52 -45.5t40 -61.5t29.5 -70q16 -49 21 -93.5t-2.5 -88t-37.5 -77t-82 -50.5zM229 509q86 28 148 -13.5t100 -125.5l-350 -161v1q-15 47 -18.5 90.5t5 85.5t38 74.5t77.5 48.5z" />
    <glyph glyph-name="ec" unicode="ec" horiz-adv-x="1211" 
d="M618 265l110 224q-56 -41 -85 -107q-5 -12 -27.5 -69t-33 -80t-34 -62t-49.5 -67q-56 -59 -151 -75q-145 -18 -214 163l440 171q-28 80 -95 128.5t-169 48.5q-60 0 -110.5 -19t-82.5 -51.5t-55 -74.5t-28 -88.5t0 -92.5t28 -88t55.5 -74.5t83 -51.5t110.5 -19q42 0 69 10
q50 14 88.5 41.5t66.5 68.5t45.5 76t37.5 88zM229 509q86 28 148 -13.5t100 -125.5l-350 -161v1q-15 47 -18.5 90.5t5 85.5t38 74.5t77.5 48.5zM1059 378l67 43q-35 49 -94 84.5t-134 35.5q-89 0 -154.5 -41.5t-95 -103.5t-29.5 -135t29.5 -135t95 -103.5t154.5 -41.5
q42 0 69 10q132 33 219 205l-19 9q-64 -144 -232 -176q-150 -18 -221 181q-15 47 -18.5 90.5t5 85.5t38 74.5t78.5 48.5q78 25 136.5 -10t105.5 -121z" />
    <glyph glyph-name="ee" unicode="ee" horiz-adv-x="1210" 
d="M618 265l110 224q-56 -41 -85 -107q-5 -12 -27.5 -69t-33 -80t-34 -62t-49.5 -67q-56 -59 -151 -75q-145 -18 -214 163l440 171q-28 80 -95 128.5t-169 48.5q-60 0 -110.5 -19t-82.5 -51.5t-55 -74.5t-28 -88.5t0 -92.5t28 -88t55.5 -74.5t83 -51.5t110.5 -19q42 0 69 10
q50 14 88.5 41.5t66.5 68.5t45.5 76t37.5 88zM229 509q86 28 148 -13.5t100 -125.5l-350 -161v1q-15 47 -18.5 90.5t5 85.5t38 74.5t77.5 48.5zM1185 195l-19 9q-36 -80 -97.5 -126t-131.5 -59q-78 -9 -133 39.5t-85 132.5l442 172q-28 80 -95 128.5t-169 48.5
q-89 0 -154.5 -41.5t-95 -103.5t-29.5 -135t29.5 -135t95 -103.5t154.5 -41.5q42 0 69 10q132 33 219 205zM816 509q86 28 148 -13.5t100 -125.5l-351 -161q-15 47 -18.5 90.5t5 86t38 75t78.5 48.5z" />
    <glyph glyph-name=".notdef" horiz-adv-x="648" 
d="M100 -320v1088h601v-1088h-601zM425 224l221 -434v867zM399 173l-220 -429h439zM179 704l220 -429l219 429h-439zM372 224l-217 426v-852z" />
    <glyph glyph-name=".null" horiz-adv-x="0" 
 />
    <glyph glyph-name="nonmarkingreturn" horiz-adv-x="333" 
 />
    <glyph glyph-name="NULL" horiz-adv-x="0" 
 />
    <glyph glyph-name="NULL" horiz-adv-x="0" 
 />
    <glyph glyph-name="CR" unicode="&#xd;" horiz-adv-x="500" 
 />
    <glyph glyph-name="space" unicode=" " horiz-adv-x="390" 
 />
    <glyph glyph-name="exclam" unicode="!" horiz-adv-x="297" 
d="M203 47l-47 -47q-7 -9 -16 0l-47 47q-7 7 0 16l47 47q9 7 16 0l47 -47q9 -9 0 -16zM102 768h93q-22 -280 -32 -570h-28q-7 202 -33 570z" />
    <glyph glyph-name="quotedbl" unicode="&#x22;" horiz-adv-x="468" 
d="M156 809l47 -47q9 -9 0 -16q-11 -13 -17 -25q-19 -41 -27 -86h-22q-12 72 -41 108l-3 3q-7 7 0 16l47 47q9 7 16 0zM327 809l47 -47q9 -9 0 -16q-11 -13 -17 -25q-19 -41 -27 -86h-22q-12 72 -41 108l-3 3q-7 7 0 16l47 47q9 7 16 0z" />
    <glyph glyph-name="numbersign" unicode="#" horiz-adv-x="716" 
d="M626 525v-43h-100l-47 -197h147v-42h-157l-57 -243h-62l58 243h-179l-57 -243h-62l58 243h-78v42h88l47 197h-135v43h146l58 243h60l-58 -243h180l58 243h60l-58 -243h90zM239 285h179l47 197h-179z" />
    <glyph glyph-name="dollar" unicode="$" horiz-adv-x="630" 
d="M290 4v344q-43 6 -69.5 11.5t-62 18t-56 30.5t-36 49t-16.5 73q2 95 72.5 148t167.5 60v62h45v-60q71 -3 134.5 -47t109.5 -118l-64 -43q-71 158 -180 179v-300q43 -7 73 -14.5t66.5 -24t59 -39t38.5 -61.5t17 -89q0 -56 -24.5 -98.5t-64.5 -65.5t-81 -34t-84 -12v-60
h-45v62q-71 2 -138 47t-112 118l64 43q71 -158 186 -179zM513 184q-6 127 -178 157v-338q81 2 131.5 48t46.5 133zM117 542q3 -60 47 -85.5t126 -37.5v295q-69 -5 -123.5 -48.5t-49.5 -123.5z" />
    <glyph glyph-name="percent" unicode="%" horiz-adv-x="1056" 
d="M777 357q49 0 87.5 -19.5t58.5 -51t29 -69.5t-0.5 -76.5t-29 -70t-58 -51t-87.5 -19.5t-87.5 19.5t-58 51t-29 69.5t-0.5 76.5t29 70t58.5 51t87.5 19.5zM824 39q29 9 45 28t19.5 44.5t0.5 51t-12 52.5q-19 55 -57 89.5t-90 16.5q-37 -11 -53 -41.5t-14 -63t14 -69.5
q19 -58 56.5 -91.5t90.5 -16.5zM222 0l527 768h68l-528 -768h-67zM279 768q49 0 87.5 -19.5t58.5 -51t29 -69.5t-0.5 -76.5t-29 -70t-58 -51t-87.5 -19.5t-87.5 19.5t-58 51t-29 70t-0.5 76.5t29 69.5t58.5 51t87.5 19.5zM326 450q29 9 45 28t19.5 44.5t0.5 51t-12 52.5
q-19 55 -57 89.5t-90 16.5q-37 -11 -53 -41.5t-14 -63t14 -69.5q19 -58 56.5 -91.5t90.5 -16.5z" />
    <glyph glyph-name="ampersand" unicode="&#x26;" horiz-adv-x="1255" 
d="M558 968q205 0 356.5 -126t223.5 -338q23 -68 26.5 -141.5t-14 -141t-50 -121.5t-87 -86.5t-121.5 -32.5q-128 0 -270 122q-65 -65 -111.5 -94t-104.5 -29q-107 0 -169 60t-62 148q0 75 47 146t142 120q-25 85 -11 157t65 119.5t119 47.5q116 0 197 -129l-80 -51
q-6 69 -49.5 114.5t-91.5 45.5q-43 0 -78 -36t-37 -96q-6 -85 72 -215t180 -228q12 23 21.5 43.5t17 44t11.5 36.5t8.5 40.5t5.5 35t4.5 40.5t4.5 38h113q-13 -43 -67 -139t-98 -160q71 -65 136.5 -90.5t115 -13.5t89 49t62.5 93.5t30 124.5q9 91 -11.5 183.5t-68 171.5
t-114.5 139.5t-157 93t-188 26.5q-262 -14 -401 -291q-60 29 -94 44q87 135 217 205.5t271 70.5zM371 435q-138 -80 -138 -197q0 -75 55 -130t128 -55q36 0 61.5 3t62.5 18.5t63 45.5q-164 152 -232 315z" />
    <glyph glyph-name="quotesingle" unicode="'" horiz-adv-x="179" 
d="M41 612l39 48l-37 38q-6 6 0 13l50 50q7 7 12 0l51 -50q6 -7 0 -13l-100 -102z" />
    <glyph glyph-name="parenleft" unicode="(" horiz-adv-x="438" 
d="M350 832l8 -16q-109 -64 -171 -216t-62 -328q0 -178 62 -330t171 -216l-8 -16q-72 35 -129 98.5t-91 140t-52 158.5t-18 163q0 109 30 216.5t97.5 203t162.5 142.5z" />
    <glyph glyph-name="parenright" unicode=")" horiz-adv-x="438" 
d="M80 816l8 16q95 -47 162.5 -142.5t97.5 -203t30 -216.5q0 -81 -18 -163t-52 -158.5t-91 -140t-129 -98.5l-8 16q109 64 171 216t62 330q0 176 -62 328t-171 216z" />
    <glyph glyph-name="asterisk" unicode="*" horiz-adv-x="457" 
d="M318 616q-31 14 -78 1q28 -33 66 -44q23 -6 28.5 -31t-12.5 -38q-21 -17 -46.5 -5t-23.5 38q4 30 -23 71q-28 -37 -24 -74q0 -22 -21 -34.5t-42 -0.5q-25 14 -21 41t32 33q38 11 63 44q-46 13 -80 -2q-24 -8 -42 8.5t-12 39.5q6 26 34.5 30t42.5 -18q16 -28 62 -45
q-2 49 -26 73q-15 19 -4.5 40t34.5 25q27 2 40.5 -22t-4.5 -44q-23 -27 -25 -72q47 17 64 47q14 19 39 16.5t35 -24.5q10 -24 -10 -43.5t-46 -9.5z" />
    <glyph glyph-name="plus" unicode="+" horiz-adv-x="675" 
d="M313 139v220h-223v49h223v221h49v-221h223v-49h-223v-220h-49z" />
    <glyph glyph-name="comma" unicode="," horiz-adv-x="270" 
d="M28 -58l57 77l-32 34q-6 6 0 13l50 50q7 7 13 0l51 -50q6 -7 0 -13l-124 -127z" />
    <glyph glyph-name="hyphen" unicode="-" horiz-adv-x="514" 
d="M424 281h-334v73v0h334v-73z" />
    <glyph glyph-name="period" unicode="." horiz-adv-x="267" 
d="M163 49l-47 -47q-7 -9 -16 0l-47 47q-7 7 0 16l47 47q9 7 16 0l47 -47q9 -9 0 -16z" />
    <glyph glyph-name="slash" unicode="/" horiz-adv-x="461" 
d="M122 0h-62l291 768h60z" />
    <glyph glyph-name="zero" unicode="0" horiz-adv-x="744" 
d="M371 788q89 0 158.5 -44.5t105.5 -116t52.5 -157.5t-1 -172.5t-54 -158t-106.5 -116t-160 -44.5q-68 0 -124.5 27.5t-93.5 74.5t-62.5 107.5t-31 128t0.5 134.5t32 127.5t63 107.5t94.5 74.5t126.5 27.5zM371 768q-52 0 -95.5 -26.5t-71.5 -70.5t-47.5 -102t-24 -121.5
t-0.5 -127t23 -121.5t47 -102t71 -70.5t94 -26.5q68 0 121.5 42.5t81 110t40.5 149.5t0.5 164t-39.5 149.5t-80 110t-120 42.5z" />
    <glyph glyph-name="one" unicode="1" horiz-adv-x="378" 
d="M267 768h16l-1 -768h-67v635q-16 -11 -106 -65q-35 -18 -38 -20l-6 14q26 16 65 50q80 71 137 154z" />
    <glyph glyph-name="two" unicode="2" horiz-adv-x="705" 
d="M165 41q177 4 329 20q76 7 141 18v-79h-564q-3 64 19.5 118.5t62 94t88.5 74t100 65.5t95.5 61.5t76.5 69t41 81.5q14 69 -34 124.5t-106 55.5q-15 0 -30 -4t-33.5 -14.5t-32 -19t-38 -28t-36.5 -30t-42.5 -37t-42.5 -37.5l-67 43q89 72 165 111.5t113 39.5
q69 0 132 -35.5t97.5 -87.5t29.5 -101q-3 -27 -16.5 -51t-30.5 -40t-43.5 -32t-48 -25.5t-52.5 -23.5t-48 -22q-59 -26 -104 -66t-67 -77t-35.5 -76.5t-16 -59t-2.5 -30.5z" />
    <glyph glyph-name="three" unicode="3" horiz-adv-x="757" 
d="M352 397v46q159 33 193 123q24 63 -28 121.5t-112 58.5q-15 0 -30 -4t-33.5 -14.5t-32 -19t-38 -28t-36.5 -30t-42.5 -37t-42.5 -37.5l-67 43q89 72 165 111.5t113 39.5q68 0 136 -39.5t103.5 -92.5t19.5 -92q-6 -15 -13 -27t-20 -21.5t-19.5 -15t-27 -13t-27 -10
t-35.5 -10.5t-37 -10q101 29 168.5 -32t67.5 -157q0 -100 -88.5 -185t-225.5 -85q-100 0 -177 59t-111 149l13 6q37 -68 84 -106.5t87.5 -49t92.5 -10.5q58 0 111.5 24.5t91 78.5t37.5 126q0 19 -6 42t-21 51.5t-42 44t-69 20.5t-102 -18z" />
    <glyph glyph-name="four" unicode="4" horiz-adv-x="766" 
d="M706 322v-72h-178v-1v-249h-67v250v-1l-401 1l403 518h65v-468v-4q80 4 133 16q7 1 45 10zM461 727l-286 -415q149 -20 286 -18v433z" />
    <glyph glyph-name="five" unicode="5" horiz-adv-x="743" 
d="M270 730l-83 -222q72 22 140.5 26.5t128.5 -11t105.5 -49t72.5 -91t28 -133.5q2 -100 -87 -185t-227 -85q-100 0 -175.5 58.5t-112.5 149.5l13 6q37 -68 84.5 -106.5t87.5 -49t92 -10.5q93 0 169 61.5t74 167.5q-2 97 -56 155t-162 71t-269 -37l124 322l1 -1h415v-79
q-34 9 -91 19q-105 19 -272 23z" />
    <glyph glyph-name="six" unicode="6" horiz-adv-x="682" 
d="M491 788l3 -15q-89 -17 -160 -66.5t-115 -117.5t-67.5 -146.5t-23.5 -159.5q0 -55 11.5 -104t35.5 -91.5t68 -67.5t103 -24q95 2 147 79.5t52 180.5q0 116 -51.5 169t-134.5 53q-95 0 -178 -44l-6 12q126 70 218 70q36 0 74.5 -15t74 -44.5t58 -81.5t22.5 -117
q0 -125 -77.5 -201.5t-203.5 -76.5q-128 0 -209.5 78t-81.5 201q0 203 121 350t320 179z" />
    <glyph glyph-name="seven" unicode="7" horiz-adv-x="593" 
d="M562 768l1 -59q-147 -92 -245.5 -295t-98.5 -414h-95q17 137 64 266q114 298 335 444h-463v58h502z" />
    <glyph glyph-name="eight" unicode="8" horiz-adv-x="704" 
d="M421 458q223 -78 223 -245q0 -106 -82.5 -169.5t-205.5 -63.5q-125 0 -210.5 63.5t-85.5 168.5q0 84 64.5 147.5t158.5 89.5q-64 17 -107 60.5t-43 107.5q0 77 68.5 124t154.5 47q89 0 151.5 -48.5t62.5 -122.5q0 -56 -41 -96.5t-108 -62.5zM356 768q-76 0 -119.5 -47
t-32.5 -103q8 -48 60.5 -89t130.5 -57q54 11 79.5 52t25.5 94q0 69 -39 109.5t-105 40.5zM356 0q89 0 147 57.5t58 152.5q0 83 -68 139.5t-165 81.5q-85 -14 -135.5 -76.5t-50.5 -145.5q0 -88 60 -148.5t154 -60.5z" />
    <glyph glyph-name="nine" unicode="9" horiz-adv-x="683" 
d="M182 -20l-4 16q89 15 160.5 60.5t116 110.5t68 142t23.5 158q0 57 -10.5 108t-34 97.5t-68.5 73.5t-106 25q-66 -2 -113 -42q-81 -68 -86 -186q-2 -85 35 -138.5t94.5 -68t125 -2.5t128.5 50l7 -11q-297 -167 -420 18q-35 52 -41.5 109.5t14 107t57 90t89 64.5t110.5 25
q137 2 216.5 -88t79.5 -236q0 -198 -119 -324.5t-322 -158.5z" />
    <glyph glyph-name="colon" unicode=":" horiz-adv-x="270" 
d="M103 303l-50 51q-6 6 0 13l50 50q7 7 13 0l51 -50q6 -7 0 -13l-51 -51q-6 -6 -13 0zM103 2l-50 51q-6 6 0 13l50 50q7 7 13 0l51 -50q6 -7 0 -13l-51 -51q-6 -6 -13 0z" />
    <glyph glyph-name="semicolon" unicode=";" horiz-adv-x="272" 
d="M103 303l-50 51q-6 6 0 13l50 50q7 7 13 0l51 -50q6 -7 0 -13l-51 -51q-6 -6 -13 0zM28 -58l57 77l-32 34q-6 6 0 13l50 50q7 7 13 0l51 -50q6 -7 0 -13l-124 -127z" />
    <glyph glyph-name="less" unicode="&#x3c;" horiz-adv-x="562" 
d="M482 563l-359 -201l359 -201v-56l-422 235v44l422 235v-56z" />
    <glyph glyph-name="equal" unicode="=" horiz-adv-x="680" 
d="M590 468h-500v49v0h500v-49zM590 251h-500v49v0h500v-49z" />
    <glyph glyph-name="greater" unicode="&#x3e;" horiz-adv-x="562" 
d="M439 362l-359 201v56l422 -235v-44l-422 -235v56z" />
    <glyph glyph-name="question" unicode="?" horiz-adv-x="659" 
d="M565 571q-11 -43 -34.5 -77.5t-49.5 -55.5t-54 -45.5t-50.5 -47t-37 -60t-14.5 -85.5h-26q0 147 82 229q2 2 19 18.5t24 24t20 22.5t22 29t16 29q19 37 16 82.5t-18 85.5t-52 67t-86 27q-12 0 -21.5 -1t-20.5 -5t-18 -6t-20 -11t-19 -13t-22.5 -17.5t-23.5 -19.5
t-28.5 -25t-31.5 -28l-67 43q133 107 257 107q68 0 129 -43.5t91.5 -106t17.5 -117.5zM367 49l-47 -47q-7 -9 -16 0l-47 47q-7 7 0 16l47 47q9 7 16 0l47 -47q9 -9 0 -16z" />
    <glyph glyph-name="at" unicode="@" horiz-adv-x="948" 
d="M477 787q166 0 283.5 -118.5t117.5 -284.5q-6 -142 -76 -218q-32 -33 -72.5 -44.5t-79 5.5t-61.5 62q-91 -87 -197 -62q-84 17 -128 89t-21 195q13 75 55 130t95 74.5t116 -9.5t113 -110l13 93l75 -2l-41 -299q-6 -39 -2.5 -68.5t25.5 -38.5q21 -9 39.5 0.5t32 32
t21.5 42.5t14 42q23 85 13 172q-12 92 -67.5 166.5t-138.5 104.5q-131 46 -260 -24.5t-183 -221.5q-25 -70 -25.5 -140t21.5 -127t59.5 -105.5t90.5 -78t112 -42t126.5 0.5t131.5 51l14 -10q-100 -64 -220 -64q-165 0 -283.5 118t-118.5 283q0 170 118 288t288 118zM318 394
q-18 -87 10.5 -156t84.5 -81q59 -13 111.5 13.5t63.5 88.5l27 186q3 29 -13 51q-43 56 -90 71.5t-85 -5t-67.5 -65t-41.5 -103.5z" />
    <glyph glyph-name="A" unicode="A" horiz-adv-x="757" 
d="M638 0l-115 262q-5 11 -16 13q-20 4 -46 -3l-24 -8l-99 -47q-128 -66 -158 17q-8 -35 -21 -84.5t-21 -83t-13 -66.5h-90l337 768h12l338 -768h-84zM513 287l-160 367q-41 -86 -95 -213t-70 -186q-2 -8 7 -14.5t18 -5.5q5 1 8.5 1.5t10 3t12 5t19 9t26 12.5l37.5 18t49 23
q35 16 63.5 15t42 -9t32.5 -26z" />
    <glyph glyph-name="B" unicode="B" horiz-adv-x="660" 
d="M410 478q72 0 146 -71.5t74 -165.5q0 -106 -67 -173.5t-217 -67.5h-286v769h275q85 0 142 -38.5t57 -120.5q0 -16 -3 -30t-6.5 -24t-12.5 -19.5t-14 -14.5t-19.5 -13t-20 -10.5t-24.5 -10.5t-24 -10zM139 19l204 2q77 0 131.5 64.5t58.5 148.5q2 64 -40 120.5t-119.5 77
t-187.5 -34.5q-47 -26 -47 -71v-307zM450 610q0 58 -39 96.5t-104 38.5l-168 -1v-347q20 18 76 39t105.5 38.5t89.5 53t40 82.5z" />
    <glyph glyph-name="C" unicode="C" horiz-adv-x="791" 
d="M747 279l14 -9q-45 -131 -137 -210.5t-225 -79.5q-89 0 -161 34.5t-116.5 92t-68 128.5t-23.5 149q0 159 90 270.5t236 129.5q101 11 185 -20.5t183 -140.5l-79 -52q-35 59 -70.5 97.5t-80 62.5t-95 23t-115.5 -20q-67 -22 -111.5 -72.5t-61 -114.5t-13 -135t26.5 -138
q38 -103 122 -168t183 -65q83 0 176.5 64t140.5 174z" />
    <glyph glyph-name="D" unicode="D" horiz-adv-x="756" 
d="M726 384q0 -167 -109 -274.5t-278 -109.5h-279v768h279q169 0 278 -107t109 -277zM139 743v-724l163 2q150 0 247.5 105.5t97.5 255.5q0 65 -25.5 129.5t-70 116.5t-110 84t-139.5 32z" />
    <glyph glyph-name="E" unicode="E" horiz-adv-x="642" 
d="M139 334v-307q163 1 329 27q58 8 134 25v-79h-542v768h542v-79q-76 17 -134 25q-147 23 -329 27v-351q44 88 168 59q30 -7 68.5 -19.5t53 -15.5t36.5 2t46 24l11 -9q-86 -96 -176 -66q-8 2 -25 7t-23.5 7t-20 6t-20 5t-17 3.5t-16 3t-13.5 1t-14 -0.5l-12 -2
q-18 -5 -31 -21.5t-15 -35.5v-4z" />
    <glyph glyph-name="F" unicode="F" horiz-adv-x="580" 
d="M570 768v-79q-53 11 -118 18q-144 17 -313 21v-348q20 38 55.5 54.5t81.5 4.5q26 -7 57 -17t45 -14t33 -5.5t34.5 5t34.5 22.5l11 -9q-86 -96 -176 -66q-97 30 -132 24q-20 -4 -32 -19t-12 -36v-324h-79v768h510z" />
    <glyph glyph-name="G" unicode="G" horiz-adv-x="797" 
d="M355 288l194 120q33 20 70.5 16.5t66.5 -25t51 -54t23.5 -70.5t-15.5 -75q-1 -1 -1 -2q-54 -94 -143.5 -155.5t-196.5 -61.5q-89 0 -161 34.5t-116.5 92t-68 128.5t-23.5 149q0 160 90 272t236 130q101 11 185 -20.5t183 -140.5l-79 -52q-35 59 -70.5 97.5t-80 62.5
t-95 23t-115.5 -20q-67 -22 -111 -73t-60.5 -116t-13 -136t26.5 -138q38 -102 120.5 -165t183.5 -67q126 -6 221 93q43 44 43.5 106.5t-34.5 94.5q-28 33 -72.5 33t-126.5 -42l-105 -53z" />
    <glyph glyph-name="H" unicode="H" horiz-adv-x="682" 
d="M543 768h79v-768h-79v385q0 23 -24 28q-3 3 -16.5 0.5t-18 -2t-20.5 -5.5t-25 -9t-31.5 -12.5t-39.5 -17t-49.5 -21t-60.5 -25.5q-79 -36 -119 22v-343h-79v768h79v-385q0 -8 5.5 -14.5t13.5 -6.5q20 0 56.5 14.5t192.5 82.5q39 17 76.5 8t59.5 -39v340z" />
    <glyph glyph-name="I" unicode="I" horiz-adv-x="269" 
d="M174 768v-768h-79v768h79z" />
    <glyph glyph-name="J" unicode="J" horiz-adv-x="452" 
d="M312 768h80v-810q-9 -112 -129 -170l-256 -108l-6 14q89 38 155 79q156 97 156 197v682q-68 -43 -129 -67l-177 -75l-6 14q75 38 138 78q143 91 174 166z" />
    <glyph glyph-name="K" unicode="K" horiz-adv-x="720" 
d="M488 307q23 -31 55 -95.5t59 -118t82 -116.5t126 -105l-12 -15q-126 57 -201 133t-139 206q-24 51 -60.5 94.5t-77.5 64.5q-81 38 -131 -6l-50 -45v-304h-79v768h79v-1v-420q64 64 292 295q67 68 123 126h91l-400 -368q66 20 131.5 -6.5t111.5 -86.5z" />
    <glyph glyph-name="L" unicode="L" horiz-adv-x="637" 
d="M144 768v-728q145 1 324 21q70 7 129 18v-79h-532v768h79z" />
    <glyph glyph-name="M" unicode="M" horiz-adv-x="1014" 
d="M740 768l244 -768h-93l-216 713q-161 -622 -186 -713h-29l-215 713q-50 -194 -75.5 -328.5t-57.5 -384.5h-82l195 768h1h83l192 -611l155 611h84z" />
    <glyph glyph-name="N" unicode="N" horiz-adv-x="766" 
d="M706 18l-61 -28q-27 -11 -46 -11q-56 0 -113 75q-35 46 -71 138t-61.5 178t-63.5 176t-79 135q-17 19 -44 36t-44 17q-20 0 -20 -26q0 -333 25 -550q10 -92 25 -158h-93v745l67 32q24 11 45 11q29 0 64 -26q56 -43 104.5 -138t77.5 -189.5t66 -196t70 -147.5
q10 -15 40.5 -38.5t47.5 -23.5q20 0 20 30q0 303 -25 543q-10 99 -24 166h93v-750z" />
    <glyph glyph-name="O" unicode="O" horiz-adv-x="800" 
d="M399 788q-89 0 -161 -34.5t-116.5 -92t-68 -128.5t-23.5 -149t23.5 -149t68 -128.5t116.5 -92t161 -34.5q90 0 162 34.5t117 92t68.5 128.5t23.5 149t-23.5 149t-68.5 128.5t-117 92t-162 34.5zM519 35q-133 -45 -234 22.5t-161 226.5q-23 67 -26 136.5t14 132t62 112
t112 71.5q132 45 236 -31t151 -218q22 -67 26.5 -135t-10.5 -131t-58.5 -113t-111.5 -73z" />
    <glyph glyph-name="P" unicode="P" horiz-adv-x="645" 
d="M139 739v-360q0 -24 9.5 -33t31.5 -9q140 0 217.5 23t108.5 70t31 129q0 56 -25.5 94.5t-65.5 55t-89.5 26t-98.5 7.5t-91 -2q-19 -1 -28 -1zM610 559q0 -259 -424 -249h-47v-310h-79v769h79h121q32 0 55.5 -1t61.5 -5t65.5 -12t59.5 -23.5t53 -37.5t36.5 -55.5
t18.5 -75.5z" />
    <glyph glyph-name="Q" unicode="Q" horiz-adv-x="865" 
d="M676 111q89 113 89 273q0 78 -23.5 149t-68.5 128.5t-117 92t-162 34.5q-89 0 -161 -34.5t-116.5 -92t-68 -128.5t-23.5 -149t23.5 -149t68 -128.5t116.5 -92t161 -34.5q132 0 226 75q66 -79 137.5 -121t187.5 -73l10 17q-93 35 -158 93.5t-121 139.5zM279 736
q132 45 240 -33.5t156 -221.5q30 -83 25 -177t-46 -161q-55 81 -92 118q-36 33 -88 44.5t-87 7.5t-60 -13q-44 -15 -95 -47q-14 -8 -44 -31t-36 -27q-36 68 -50.5 149t-6 159t55.5 142t128 91zM182 145q-9 13 -7 29t13 27q55 53 129 72q19 4 37.5 4t33 -1.5t30.5 -9
t26.5 -12t25 -17.5t21.5 -19t21 -23t18.5 -22.5t18.5 -25t17 -22.5q16 -24 33 -45q-109 -81 -226.5 -61.5t-190.5 126.5z" />
    <glyph glyph-name="R" unicode="R" horiz-adv-x="714" 
d="M482 309q-39 51 -113 56q90 9 153.5 61.5t63.5 135.5q0 42 -12.5 75.5t-31 55t-49 36.5t-56 22.5t-63 12t-59.5 5t-55 0.5h-200v-769h79v354h48q107 -4 164 -35t101 -121q64 -130 139 -206t201 -133l12 15q-71 42 -126 105t-82 116.5t-59 118t-55 95.5zM180 379
q-22 0 -31.5 9t-9.5 33v318q13 0 41.5 1.5l47.5 2.5t48.5 1t50 -2.5t46.5 -8t44 -14t37 -22.5t30.5 -33t18.5 -45.5t7 -58.5q0 -31 -6 -54.5t-26.5 -49t-55 -41.5t-96.5 -26.5t-146 -9.5z" />
    <glyph glyph-name="S" unicode="S" horiz-adv-x="731" 
d="M691 208q0 -61 -29.5 -107.5t-77 -72t-97 -38t-97.5 -12.5q-116 0 -210 56.5t-140 169.5l19 10q24 -48 66 -86.5t92 -60.5t104.5 -33t104.5 -3t90.5 28.5t64.5 62t24 97.5q0 21 -4 38.5t-14 31t-19 24t-27.5 19t-30 14t-36.5 11.5t-37.5 8.5t-41 8t-40.5 7.5
q-11 2 -44 6.5t-53 8.5t-52.5 12t-52.5 20.5t-41 30.5t-31 44.5t-10 60.5q1 73 51 125.5t118 74.5t145 22q87 0 164.5 -46.5t131.5 -127.5l-74 -45q-92 192 -248 192q-81 0 -149 -47.5t-63 -134.5q3 -46 35 -73t80 -38t105.5 -17.5t114.5 -18.5t104 -33.5t76 -69t29 -119.5z
M691 208q0 -61 -29.5 -107.5t-77 -72t-97 -38t-97.5 -12.5q-116 0 -210 56.5t-140 169.5l19 10q24 -48 66 -86.5t92 -60.5t104.5 -33t104.5 -3t90.5 28.5t64.5 62t24 97.5q0 21 -4 38.5t-14 31t-19 24t-27.5 19t-30 14t-36.5 11.5t-37.5 8.5t-41 8t-40.5 7.5q-11 2 -44 6.5
t-53 8.5t-52.5 12t-52.5 20.5t-41 30.5t-31 44.5t-10 60.5q1 73 51 125.5t118 74.5t145 22q87 0 164.5 -46.5t131.5 -127.5l-74 -45q-92 192 -248 192q-81 0 -149 -47.5t-63 -134.5q3 -46 35 -73t80 -38t105.5 -17.5t114.5 -18.5t104 -33.5t76 -69t29 -119.5z" />
    <glyph glyph-name="T" unicode="T" horiz-adv-x="714" 
d="M400 0h-80v729q-138 -10 -225 -25q-25 -4 -80 -16v80h684v-80q-56 12 -79 16q-83 15 -220 25v-729z" />
    <glyph glyph-name="U" unicode="U" horiz-adv-x="751" 
d="M539 768h82q95 -441 95 -487q0 -142 -97.5 -221.5t-260.5 -79.5q-144 0 -233.5 78.5t-89.5 190.5q0 187 206 303q26 17 26 30q0 8 -4 12l-197 174h119l152 -138q12 -12 12 -24q0 -14 -19 -26l-74 -51q-138 -105 -138 -252q0 -109 72 -190.5t168 -81.5q105 0 192.5 71
t87.5 174q0 15 -99 518z" />
    <glyph glyph-name="V" unicode="V" horiz-adv-x="756" 
d="M648 768l68 -198q30 -91 -25 -169l-291 -401h-93l-272 768h97l234 -681q7 -17 26.5 -20t30.5 11l166 250q81 125 41 241l-69 199h87z" />
    <glyph glyph-name="W" unicode="W" horiz-adv-x="1016" 
d="M865 768l109 -306q35 -95 -25 -184l-194 -278h-68l-104 286l-200 -286h-75l-273 768h94l236 -688q5 -12 17 -13.5t18 9.5l163 266l-148 426h87l239 -688q5 -11 17 -12.5t18 9.5l93 159q61 106 25 209l-117 323h88z" />
    <glyph glyph-name="X" unicode="X" horiz-adv-x="767" 
d="M732 2h-100l-264 368q-2 -3 -19 -24.5t-27 -34t-29.5 -39.5t-35 -52.5t-35.5 -60t-40 -75t-39 -84.5h-108l316 396l-267 374h98l219 -306q112 164 173 306h108l-263 -330z" />
    <glyph glyph-name="Y" unicode="Y" horiz-adv-x="709" 
d="M577 769h102l-260 -366q-24 -33 -24 -59v-344h-40h-41v344q0 26 -24 59l-260 366h103q55 -128 115.5 -228t106.5 -153q46 53 106.5 153t115.5 228z" />
    <glyph glyph-name="Z" unicode="Z" horiz-adv-x="759" 
d="M439 412q-40 -22 -92 -63.5t-104 -93.5t-87.5 -112t-35.5 -109q217 7 426 27q114 10 183 19v-80h-699q0 69 27 128t75.5 103t95.5 76.5t107 70t90 62.5q85 67 143 148.5t58 144.5q-281 -12 -422 -26q-90 -9 -169 -18v80h685q0 -31 -5 -59.5t-11.5 -51t-21.5 -46
t-24.5 -39t-32 -35t-33.5 -29.5t-38.5 -28t-37 -24t-40 -23.5t-37.5 -21.5z" />
    <glyph glyph-name="bracketleft" unicode="[" horiz-adv-x="340" 
d="M90 -320v1088h200v-40h-132v-1009h132v-39h-200z" />
    <glyph glyph-name="backslash" unicode="\" horiz-adv-x="461" 
d="M401 0h-62l-289 768h60z" />
    <glyph glyph-name="bracketright" unicode="]" horiz-adv-x="340" 
d="M250 768v-1088h-200v39h132v1009h-132v40h200z" />
    <glyph glyph-name="asciicircum" unicode="^" horiz-adv-x="634" 
d="M518 499l-201 359l-201 -359h-56l257 461l257 -461h-56z" />
    <glyph glyph-name="underscore" unicode="_" horiz-adv-x="680" 
d="M640 -249h-600v49v0h600v-49z" />
    <glyph glyph-name="grave" unicode="`" horiz-adv-x="288" 
d="M238 839l-14 -15l-174 90l52 46q48 -47 96 -87q23 -18 40 -34z" />
    <glyph glyph-name="a" unicode="a" horiz-adv-x="617" 
d="M607 0h-81l-25 64q-56 -49 -137.5 -70t-155 -11.5t-126 60t-52.5 132.5q0 64 34 113t86.5 72t122.5 15t135 -53l-21 52q-59 131 -192 95q-80 -23 -154 -69l-7 13l132 88q77 49 170 18.5t123 -114.5zM105 175q0 -74 40.5 -120t97 -54t119.5 20t105 90q14 20 1 47l-47 122
q-10 28 -38 40q-90 40 -152 29.5t-94 -56t-32 -118.5z" />
    <glyph glyph-name="b" unicode="b" horiz-adv-x="658" 
d="M183 675l220 92l6 -14q-79 -34 -138 -73q-137 -89 -137 -187v-104q44 55 99 87.5t108.5 40t105 -6.5t90 -47t62.5 -88t24 -124t-24 -122.5t-63.5 -83t-91 -43.5t-105.5 -9t-108 26t-97 57v-76h-80v491v3v11q9 112 129 170zM134 341v-143q0 -24 8 -42q34 -63 85 -100.5
t103.5 -40.5t99 18.5t77.5 79t33 138.5q2 88 -39.5 150.5t-110.5 75t-157 -33.5q-55 -32 -77 -54.5t-22 -47.5z" />
    <glyph glyph-name="c" unicode="c" 
d="M539 421l-67 -43q-47 86 -105.5 121t-136.5 10q-49 -16 -78.5 -48.5t-38 -74.5t-5 -85.5t18.5 -90.5q71 -199 221 -181q168 32 232 176l19 -9q-87 -172 -219 -205q-27 -10 -69 -10q-89 0 -154.5 41.5t-95 103.5t-29.5 135t29.5 135t95 103.5t154.5 41.5q75 0 134 -35.5
t94 -84.5z" />
    <glyph glyph-name="d" unicode="d" horiz-adv-x="658" 
d="M255 767l220 -92q120 -58 129 -170v-11v-3v-491h-80v76q-43 -36 -97 -57t-108 -26t-105.5 9t-91 43.5t-63.5 83t-24 122.5t23.5 124t62.5 88t90 47t104.5 6t109 -40.5t99.5 -86.5v104q0 51 -39.5 99.5t-98.5 87.5q-61 40 -137 73zM516 156q8 18 8 42v143q0 25 -22 47.5
t-77 54.5q-88 46 -157 33.5t-110.5 -75t-39.5 -150.5q2 -68 24 -119.5t56 -78.5t77.5 -35t86.5 4.5t84 47t70 86.5z" />
    <glyph glyph-name="e" unicode="e" 
d="M599 195l-19 9q-36 -80 -97.5 -126t-131.5 -59q-78 -9 -133 39.5t-85 132.5l442 172q-28 80 -95 128.5t-169 48.5q-89 0 -154.5 -41.5t-95 -103.5t-29.5 -135t29.5 -135t95 -103.5t154.5 -41.5q42 0 69 10q132 33 219 205zM230 509q86 28 148 -13.5t100 -125.5l-351 -161
q-15 47 -18.5 90.5t5 86t38 75t78.5 48.5z" />
    <glyph glyph-name="f" unicode="f" horiz-adv-x="350" 
d="M215 520h115v-61h-115v-459h-80v459h-115v61h115v14.5v16.5v15.5t-1 16t-2 14t-3 13.5t-4.5 11t-6 9.5t-7.5 5.5l-45 22q-17 8 -17.5 27t17.5 27q30 12 46 21l50 23q22 10 38.5 12.5t36.5 -6.5t31 -16t42 -28l-7 -11q-42 23 -72 10l-114 -51q-5 -2 -5 -7.5t5 -7.5l51 -25
q21 -11 34 -33.5t13 -48.5v-24z" />
    <glyph glyph-name="g" unicode="g" horiz-adv-x="697" 
d="M476 83q59 57 125 33q51 -18 69 -70q24 -70 -36 -132q-39 -41 -110 -69l-351 -165l-6 14q55 28 151 82q164 95 233 154q32 28 35 61.5t-17 53.5t-50 16q-27 -5 -57.5 -27t-59 -48.5t-60 -53t-70 -44t-78.5 -17.5q-52 0 -93.5 21.5t-60.5 57t-19 76.5t32 84t91 75
q-48 45 -59 106.5t13 116.5t91 93.5t163 38.5q35 0 78 -9q26 -6 60 6q34 11 52 21l20 9l8 -11l-68 -48l6 -3q48 -25 77 -64t36.5 -82t-6.5 -87t-46.5 -78.5t-89 -56.5t-127.5 -22q-99 0 -166 39q-19 10 -35.5 3.5t-27.5 -22.5q-32 -52 -22.5 -95t44 -70t75.5 -27
q112 0 256 140zM352 515q-101 0 -146.5 -52.5t-45.5 -133.5q0 -82 46 -136t146 -54q101 0 146 53.5t45 136.5q0 81 -45.5 133.5t-145.5 52.5z" />
    <glyph glyph-name="h" unicode="h" horiz-adv-x="571" 
d="M530 405v-104v-301h-80v278v96q0 58 -34 87t-93 15q-60 -15 -169 -65q-22 -10 -24 -36v-375h-80v505q9 112 129 170l220 92l6 -14q-79 -34 -138 -73q-137 -89 -137 -187v-77q60 30 196 90q46 19 90.5 16t78 -35t35.5 -82z" />
    <glyph glyph-name="i" unicode="i" horiz-adv-x="238" 
d="M158 520v-520h-80v520h80zM188 717l-65 -35q-4 -1 -8 0l-65 35q-5 2 -5 7.5t5 8.5l65 34q4 1 8 0l65 -34q5 -3 5 -8.5t-5 -7.5z" />
    <glyph glyph-name="j" unicode="j" horiz-adv-x="240" 
d="M81 -30v550h80v-562q-9 -112 -129 -170l-256 -108l-6 14q89 38 155 79q156 97 156 197zM190 716l-65 -35q-4 -1 -8 0l-65 35q-5 2 -5 7.5t5 8.5l65 34q4 1 8 0l65 -34q5 -3 5 -8.5t-5 -7.5z" />
    <glyph glyph-name="k" unicode="k" horiz-adv-x="539" 
d="M275 312l254 -312h-98l-227 282l-70 -34v-248h-80v491v3v11q9 112 129 170l220 92l6 -14q-79 -34 -138 -73q-137 -89 -137 -187v-215l197 92q24 10 34.5 26.5t-3.5 41.5l-46 51q-24 24 -48 31h70q50 0 82 -38l28 -34q12 -14 8 -32.5t-21 -26.5z" />
    <glyph glyph-name="l" unicode="l" horiz-adv-x="241" 
d="M55 0v521q0 121 127 182l148 63l6 -14l-6 -3q-7 -3 -19.5 -9t-27 -13.5t-33.5 -18.5t-37 -22q-15 -9 -29.5 -24.5t-31 -52t-17.5 -81.5v-528h-80z" />
    <glyph glyph-name="m" unicode="m" horiz-adv-x="819" 
d="M773 405v-104v-301h-80v278v96q0 58 -35 88.5t-86 10.5q-44 -18 -104 -61q-21 -15 -21 -41q0 -12 -0.5 -35.5t-0.5 -34.5v-301h-80v278v96q0 58 -35 88.5t-86 10.5q-44 -18 -104 -61q-21 -15 -21 -41v-371h-80v520h80v-104q65 51 127 85q68 38 128 12.5t70 -97.5
q80 59 129 85q70 39 132.5 10.5t66.5 -106.5z" />
    <glyph glyph-name="n" unicode="n" horiz-adv-x="575" 
d="M530 405v-405h-80v374q0 48 -21 72t-51.5 26.5t-72 -8t-74 -24.5t-65.5 -29l-12 -6q-24 -11 -24 -38v-367h-80v520h80v-104q60 30 196 90q46 19 90.5 16t78 -35t35.5 -82z" />
    <glyph glyph-name="o" unicode="o" horiz-adv-x="623" 
d="M311 540q-89 0 -154.5 -41.5t-95 -103.5t-29.5 -135t29.5 -135t95 -103.5t154.5 -41.5t155 41.5t95.5 103.5t29.5 135t-29.5 135t-95 103.5t-155.5 41.5zM395 12q-53 -15 -94.5 -7.5t-75.5 39t-56.5 69.5t-38.5 86t-20.5 93t3.5 88.5t38 77.5t80 51q42 16 78.5 10.5
t65 -21.5t52 -45.5t40 -61.5t29.5 -70q16 -49 21 -93.5t-2.5 -88t-37.5 -77t-82 -50.5z" />
    <glyph glyph-name="p" unicode="p" horiz-adv-x="649" 
d="M125 76v-396h-80v840h80v-131q44 55 99 87.5t108.5 40t105 -6.5t90 -47t62.5 -88t24 -124t-24 -122.5t-63.5 -83t-91 -43.5t-105.5 -9t-108 26t-97 57zM125 346v-159q0 -26 15 -51q42 -69 108.5 -98.5t127.5 -17t106.5 73t48.5 157.5q2 88 -39.5 150.5t-110.5 75
t-157 -33.5q-53 -31 -75 -52.5t-24 -44.5z" />
    <glyph glyph-name="q" unicode="q" horiz-adv-x="770" 
d="M609 520v-660q0 -23 -15 -51q45 48 149 94l7 -17l-6 -3q-7 -3 -24 -13t-38 -24q-34 -26 -52 -44q-61 -57 -101 -122v396q-43 -36 -97 -57t-108 -26t-105.5 9t-91 43.5t-63.5 83t-24 122.5t23.5 124t62.5 88t90 47t104.5 6t109 -40.5t99.5 -86.5v131h80zM514 136
q15 25 15 51v159q-2 23 -24 44.5t-75 52.5q-88 46 -157 33.5t-110.5 -75t-39.5 -150.5q2 -65 23.5 -114.5t55 -77t76 -37.5t85 -0.5t83 39t68.5 75.5z" />
    <glyph glyph-name="r" unicode="r" horiz-adv-x="385" 
d="M299 406q-18 5 -46 38t-45 31q-24 -4 -53.5 -40t-29.5 -63v-372h-80v520h80v-99q27 37 62 72t56 37q20 1 38 -12t30 -29t29 -29.5t35 -13.5l10 2q-28 -23 -31 -25q-38 -24 -55 -17z" />
    <glyph glyph-name="s" unicode="s" horiz-adv-x="563" 
d="M132 388q0 -31 22 -48t58 -23t79 -9t85.5 -10t78.5 -22t58 -49t22 -87q0 -54 -41 -92.5t-92 -53t-103 -14.5q-91 0 -165 39t-109 118l17 9q23 -39 58 -66t73.5 -39t68.5 -16.5t58 -4.5q59 0 105.5 32t46.5 89q0 96 -181 109q-5 0 -27.5 2t-31 3t-30 4t-31 5.5t-27 8.5
t-26.5 12.5t-20.5 16.5t-17 22t-9.5 28t-3 35q2 68 65 106.5t149 45.5q24 2 35 2q75 0 134 -35.5t94 -85.5l-67 -43q-92 172 -229 135q-45 -14 -71 -48t-26 -76z" />
    <glyph glyph-name="t" unicode="t" horiz-adv-x="435" 
d="M410 53l5 -13q-11 -5 -50.5 -21.5t-53.5 -22.5q-32 -16 -68 -16.5t-66 12t-50.5 40.5t-22.5 66q-1 12 -1 104v258h-68v60h68q0 13 2.5 28.5t12 47t36.5 60.5t68 47l148 63l6 -14q-20 -8 -38 -18q-50 -26 -85 -48q-25 -15 -49 -56.5t-24 -109.5h196v-60h-180q-9 0 -15 -6
t-6 -15v-221v-89q0 -58 34.5 -91.5t92.5 -18.5q67 15 108 34z" />
    <glyph glyph-name="u" unicode="u" horiz-adv-x="537" 
d="M408 520h79v-520h-79v101q-105 -71 -158 -95q-33 -16 -73 -16q-53 0 -92.5 34.5t-39.5 90.5v405h79v-374q0 -60 35.5 -92t93.5 -15q51 16 135 68q20 13 20 35v378z" />
    <glyph glyph-name="v" unicode="v" horiz-adv-x="549" 
d="M474 520l35 -102q21 -60 -4 -112l-223 -306h-88l-185 520h92l152 -447q5 -12 19.5 -16t25.5 10l145 194q21 25 3 79l-64 180h92z" />
    <glyph glyph-name="w" unicode="w" horiz-adv-x="764" 
d="M647 520l68 -196q20 -54 -6 -110l-143 -214h-85l-60 169l-116 -169h-85l-185 520h89l153 -447q5 -12 18.5 -16t24.5 10l95 118l-119 335h89l153 -447q3 -12 18.5 -16t25.5 10l74 96q17 30 8 60l-106 297h89z" />
    <glyph glyph-name="x" unicode="x" horiz-adv-x="608" 
d="M573 0h-97l-154 193q-7 8 -18 8t-18 -8l-154 -193h-97l213 259q13 13 0 27l-188 234h89l139 -174q6 -8 16 -8t16 8l138 174h90l-188 -234q-13 -14 0 -27z" />
    <glyph glyph-name="y" unicode="y" horiz-adv-x="537" 
d="M487 520v-562q-9 -112 -129 -170l-256 -108l-6 14q89 38 155 79q156 97 156 197v132v-1q-70 -47 -157 -87q-46 -18 -90.5 -15t-78 34.5t-35.5 81.5v103v302h80v-278v-96q0 -59 34.5 -90t92.5 -14q60 19 135 65q19 12 19 35v378h80z" />
    <glyph glyph-name="z" unicode="z" horiz-adv-x="560" 
d="M323 279q-59 -33 -125.5 -111t-66.5 -138q120 6 272 29l116 21v-80h-479q0 51 19 93t52.5 72t66 51t74 45t62.5 41q53 43 84 94.5t31 92.5q-147 -10 -267 -29q-87 -15 -112 -20v80h470q0 -39 -9.5 -71t-22 -52t-36.5 -40t-39.5 -29t-46.5 -25.5t-43 -23.5z" />
    <glyph glyph-name="braceleft" unicode="{" horiz-adv-x="387" 
d="M50 223q0 12 11 14q98 22 98 118v241q0 81 40.5 122.5t123.5 63.5l4 -13q-55 -22 -77 -49t-22 -87v-255q0 -35 -15 -63.5t-39 -46.5t-44.5 -28.5t-41.5 -16.5q21 -6 41.5 -16.5t44.5 -28.5t39 -46.5t15 -63.5v-256q0 -59 22 -86t77 -49l-4 -13q-82 22 -123 63.5
t-41 122.5v241q0 96 -98 118q-11 2 -11 14z" />
    <glyph glyph-name="bar" unicode="|" horiz-adv-x="248" 
d="M158 768v-1088h-68v1088h68z" />
    <glyph glyph-name="braceright" unicode="}" horiz-adv-x="387" 
d="M337 223q0 -12 -11 -14q-98 -22 -98 -118v-241q0 -81 -41 -122.5t-123 -63.5l-4 13q55 22 77 49t22 86v256q0 35 15 63.5t39 46.5t44.5 28.5t41.5 16.5q-21 6 -41.5 16.5t-44.5 28.5t-39 46.5t-15 63.5v255q0 60 -22 87t-77 49l4 13q83 -22 123.5 -63.5t40.5 -122.5v-241
q0 -96 98 -118q11 -2 11 -14z" />
    <glyph glyph-name="asciitilde" unicode="~" horiz-adv-x="715" 
d="M433 248q-13 4 -74 29t-103 34q-91 18 -184 -58l-12 8q52 68 118 100t129 12q17 -5 80.5 -29t98.5 -32q34 -7 86 12.5t71 38.5l12 -9q-46 -59 -104.5 -88t-117.5 -18z" />
    <glyph glyph-name="exclamdown" unicode="&#xa1;" horiz-adv-x="297" 
d="M94 721l47 47q7 9 16 0l47 -47q7 -7 0 -16l-47 -47q-9 -7 -16 0l-47 47q-9 9 0 16zM195 0h-93q22 280 32 570h28q9 -266 33 -570z" />
    <glyph glyph-name="cent" unicode="&#xa2;" horiz-adv-x="623" 
d="M315 -86h-45v70q-77 9 -132.5 51t-81 100.5t-25.5 125.5t25 125.5t81 100.5t133 51v71h45v-68q73 -2 130.5 -37t92.5 -83l-67 -43q-67 124 -156 139v-490q25 0 32 2q168 32 232 176l19 -9q-87 -172 -219 -205q-33 -9 -64 -10v-67zM126 210q50 -143 144 -175v483
q-10 -1 -41 -9q-49 -16 -78.5 -48.5t-38 -74.5t-5 -85.5t18.5 -90.5z" />
    <glyph glyph-name="sterling" unicode="&#xa3;" horiz-adv-x="748" 
d="M234 351l-77 -311q142 1 339 21q77 7 145 18v-79h-571l84 351h-62v18l67 3l53 217q44 211 259 211q116 0 197 -129l-80 -51q-6 69 -49.5 114.5t-91.5 45.5q-111 0 -162 -201l-44 -202q27 3 90 8t87 8q64 8 66 8v-50h-250z" />
    <glyph glyph-name="currency" unicode="&#xa4;" horiz-adv-x="561" 
d="M496 327q0 -76 -50 -136l79 -79l-31 -34l-81 81q-58 -45 -132 -45q-73 0 -131 45l-80 -80l-34 31l81 81q-49 58 -49 136q0 73 44 132l-82 82l32 32l82 -81q60 50 137 50q79 0 137 -49l81 81l32 -32l-81 -81q46 -59 46 -134zM387 181q48 41 52.5 110.5t-32.5 126.5
q-44 65 -112.5 80.5t-127.5 -33.5q-44 -44 -46 -110.5t37 -122.5q39 -58 106.5 -76t122.5 25z" />
    <glyph glyph-name="yen" unicode="&#xa5;" horiz-adv-x="709" 
d="M154 333v45h151l-15 25l-260 366h103q55 -128 115.5 -228t106.5 -153q46 53 106.5 153t115.5 228h102l-260 -366q-10 -14 -15 -25h150v-45h-159v-89h159v-44h-159v-200h-81v200h-160v44h160v89h-160z" />
    <glyph glyph-name="brokenbar" unicode="&#xa6;" horiz-adv-x="248" 
d="M90 446v323h68v-323h-68zM90 0v323h68v-323h-68z" />
    <glyph glyph-name="section" unicode="&#xa7;" horiz-adv-x="615" 
d="M453 102q102 -56 102 -139q0 -54 -22.5 -95.5t-60 -65.5t-80.5 -35.5t-89 -11.5q-75 0 -157 56.5t-106 122.5l64 35q74 -188 221 -188q71 0 120.5 41.5t49.5 127.5q0 44 -41.5 72t-101 45t-119 37.5t-101 63.5t-41.5 109q0 61 70 165q-101 50 -101 138q0 54 22.5 95.5
t60 65.5t80.5 35.5t89 11.5q80 0 155 -54.5t108 -125.5l-64 -34q-77 188 -221 188q-71 0 -120 -41.5t-49 -127.5q0 -36 22 -61t58 -39.5t78.5 -26t85.5 -26t79 -34t58 -55.5t22 -86q0 -35 -17 -71.5t-54 -91.5zM180 432q-34 -65 -34 -127q0 -42 17 -70.5t49.5 -45.5
t65 -27.5t79.5 -23.5t78 -27q34 65 34 127q0 42 -17 70.5t-49 45t-65 26.5t-80 23.5t-78 28.5z" />
    <glyph glyph-name="dieresis" unicode="&#xa8;" horiz-adv-x="436" 
d="M153 894l-47 -47q-7 -9 -16 0l-47 47q-7 7 0 16l47 47q9 7 16 0l47 -47q9 -9 0 -16zM392 894l-47 -47q-7 -9 -16 0l-47 47q-7 7 0 16l47 47q9 7 16 0l47 -47q9 -9 0 -16z" />
    <glyph glyph-name="copyright" unicode="&#xa9;" horiz-adv-x="863" 
d="M431 782q167 0 284.5 -117.5t117.5 -283.5t-117.5 -283.5t-284.5 -117.5q-166 0 -283.5 117.5t-117.5 283.5t117.5 283.5t283.5 117.5zM594 48q88 41 139.5 128t51.5 188q0 85 -40 168h1q-49 100 -140 158t-192 58q-74 0 -144 -33v1q-89 -45 -140 -130.5t-51 -186.5
q0 -86 39 -170h-1q49 -100 139 -157.5t193 -57.5q76 0 145 34zM651 336l16 -11q-30 -83 -87.5 -133.5t-139.5 -50.5q-109 0 -170 74.5t-61 176.5q0 100 56 169t148 81q70 6 121.5 -19t111.5 -85l-58 -38q-42 71 -93.5 99t-123.5 2q-55 -19 -82.5 -66t-27.5 -109
q0 -47 17 -98q25 -61 74 -100.5t107 -39.5q50 0 106 39.5t86 108.5z" />
    <glyph glyph-name="ordfeminine" unicode="&#xaa;" horiz-adv-x="485" 
d="M445 397h-63l-17 42q-75 -56 -169 -56q-72 0 -119 35.5t-47 105.5q0 64 43.5 105t108.5 41q57 0 112 -34l-11 28q-31 71 -94 71q-17 0 -38 -6q-55 -16 -112 -51l-7 15l95 64q35 22 75 22q45 0 83 -25t55 -67zM89 524q0 -58 33 -89.5t81 -31.5q38 0 75 19.5t62 57.5
q8 9 0 31l-33 86q-7 19 -25 27q-51 22 -88 22q-51 0 -78 -33t-27 -89z" />
    <glyph glyph-name="guillemotleft" unicode="&#xab;" horiz-adv-x="470" 
d="M397 465l13 -8l-109 -170l109 -170l-13 -8l-64 71q-71 77 -106 107q35 30 106 107q19 20 64 71zM230 465l13 -8l-109 -170l109 -170l-13 -8l-64 71q-71 77 -106 107q35 30 106 107q19 20 64 71z" />
    <glyph glyph-name="logicalnot" unicode="&#xac;" horiz-adv-x="640" 
d="M520 200v165h-450v49h500v-214h-50z" />
    <glyph glyph-name="registered" unicode="&#xae;" horiz-adv-x="863" 
d="M431 782q167 0 284.5 -117.5t117.5 -283.5t-117.5 -283.5t-284.5 -117.5q-166 0 -283.5 117.5t-117.5 283.5t117.5 283.5t283.5 117.5zM475 381q12 0 22 -3t19.5 -11t15 -13t14 -19.5t11 -18.5t11 -22t9.5 -19q52 -110 108 -162q100 102 100 251q0 148 -109 266t-262 118
q-138 0 -236.5 -102.5t-98.5 -246.5q0 -97 47.5 -185t133.5 -144t189 -56q122 0 215 79q-53 31 -88 73.5t-66 109.5q-25 54 -57 72t-95 22h-24v-219h-57v484h124q29 0 48.5 -1t51 -8t50.5 -20t34 -39.5t15 -63.5q0 -47 -39 -82.5t-86 -39.5zM354 395q61 0 100.5 8.5t58 24.5
t25 32.5t6.5 40.5q0 63 -38.5 85.5t-104.5 22.5q-25 0 -67 -2v-191q0 -21 20 -21z" />
    <glyph glyph-name="overscore" unicode="&#xaf;" horiz-adv-x="386" 
d="M326 711h-266v55v0h266v-55z" />
    <glyph glyph-name="degree" unicode="&#xb0;" horiz-adv-x="280" 
d="M40 666q0 42 28.5 71.5t70.5 29.5q41 0 71 -30t30 -71q0 -42 -29.5 -70.5t-71.5 -28.5t-70.5 28.5t-28.5 70.5zM81 650q8 -28 30.5 -42.5t48.5 -6.5q24 7 36 31.5t4 51.5q-8 28 -31 43.5t-49 8.5q-25 -8 -36 -33t-3 -53z" />
    <glyph glyph-name="plusminus" unicode="&#xb1;" horiz-adv-x="700" 
d="M600 0h-500v49v0h500v-49zM324 105v170h-223v49h223v171h49v-171h223v-49h-223v-170h-49z" />
    <glyph glyph-name="twosuperior" unicode="&#xb2;" horiz-adv-x="436" 
d="M242 531q-40 -18 -67.5 -49.5t-36.5 -55t-11 -43.5q94 3 249 20v-57h-315q-1 37 10.5 67.5t36 55.5t44.5 39.5t54 35.5q96 61 111 108q6 37 -15 62.5t-51 25.5q-21 0 -48.5 -19.5t-87.5 -72.5l-48 33q108 85 160 85q55 0 100.5 -41.5t45.5 -85.5q-6 -32 -37 -55.5
t-94 -52.5z" />
    <glyph glyph-name="threesuperior" unicode="&#xb3;" horiz-adv-x="456" 
d="M208 555l2 42q31 4 60 19.5t40 40.5q10 34 -14 59.5t-53 25.5q-8 0 -16.5 -2t-18 -7.5t-15.5 -9t-17.5 -13.5t-15.5 -13.5t-17.5 -16.5t-15.5 -15h1l-15 -16l-15 9q-4 3 -17 10.5t-21 13.5q51 42 95 64t66 22q56 0 104.5 -45t39.5 -80q-19 -36 -51 -46q36 -8 59 -39.5
t23 -70.5q0 -56 -48.5 -103t-124.5 -47q-56 0 -98 33.5t-65 85.5q3 1 9 5l11 6q49 -90 136 -90q47 0 83 30t36 83q0 26 -16.5 51.5t-53.5 25.5q-21 0 -57 -12z" />
    <glyph glyph-name="acute" unicode="&#xb4;" horiz-adv-x="308" 
d="M74 824l-14 15q17 16 40 34q48 40 96 87l52 -46z" />
    <glyph glyph-name="mu" unicode="&#xb5;" horiz-adv-x="552" 
d="M60 -319v839h79v-374q0 -60 35.5 -92t93.5 -15q51 16 135 68q20 13 20 35v378h79v-520h-79v101q-105 -71 -158 -95q-33 -16 -73 -16q-27 0 -54 10v-319h-78z" />
    <glyph glyph-name="paragraph" unicode="&#xb6;" horiz-adv-x="701" 
d="M621 768v-45h-70v-1043h-45v1043h-124v-1043h-45v624l-55 -1q-97 0 -164.5 67.5t-67.5 164.5q0 96 68 164.5t164 68.5h339z" />
    <glyph glyph-name="middot" unicode="&#xb7;" horiz-adv-x="220" 
d="M103 244l-50 51q-6 6 0 13l50 50q7 7 13 0l51 -50q6 -7 0 -13l-51 -51q-6 -6 -13 0z" />
    <glyph glyph-name="cedilla" unicode="&#xb8;" horiz-adv-x="245" 
d="M102 -18h49q-3 -11 -10.5 -21.5t-14 -16.5t-14.5 -12l-7 -5q41 3 65.5 -16t24.5 -52q0 -32 -23 -51t-57 -19q-15 0 -36 7t-29 12l8 17q16 -8 53 -15q20 -2 34.5 12t14.5 37t-14.5 38t-37.5 15q-9 0 -16 -1q-2 -1 -7 1q-7 4 -2 13q14 23 19 57z" />
    <glyph glyph-name="onesuperior" unicode="&#xb9;" horiz-adv-x="252" 
d="M170 767h22v-420h-52v331l-69 -44q0 1 -1.5 3t-2.5 4q-6 8 -7 13q18 14 37 31q42 36 73 82z" />
    <glyph glyph-name="ordmasculine" unicode="&#xba;" horiz-adv-x="520" 
d="M260 781q94 0 147 -59t53 -140q0 -82 -53 -141t-147 -59t-147 59t-53 141q0 81 53 140t147 59zM317 410q87 28 87 122q0 44 -17 92q-47 136 -140 136q-22 0 -42 -7q-86 -31 -86 -124q0 -42 17 -90q48 -137 140 -137q17 0 41 8z" />
    <glyph glyph-name="guillemotright" unicode="&#xbb;" horiz-adv-x="470" 
d="M60 457l13 8q28 -33 64 -71q63 -70 106 -107q-43 -37 -106 -107q-55 -60 -64 -71l-13 8l109 170zM227 457l13 8q28 -33 64 -71q63 -70 106 -107q-43 -37 -106 -107q-54 -60 -64 -71l-13 8l109 170z" />
    <glyph glyph-name="onequarter" unicode="&#xbc;" horiz-adv-x="863" 
d="M90 0l526 767h63l-526 -767h-63zM203 767h22v-420h-52v331l-69 -44q0 1 -1.5 3t-2.5 4q-6 8 -7 13q18 14 37 31q42 36 73 82zM773 188v-56h-95v-132h-50v132h-220l225 288h45v-252q58 6 95 20zM628 367l-134 -193q87 -8 134 -7v200z" />
    <glyph glyph-name="onehalf" unicode="&#xbd;" horiz-adv-x="875" 
d="M203 767h22v-420h-52v331l-69 -44q0 1 -1.5 3t-2.5 4q-6 8 -7 13q18 12 38 31q42 37 72 82zM651 184q-40 -17 -67.5 -48.5t-36.5 -55.5t-11 -44q80 3 249 21v-57h-315q-1 37 10 67.5t37 55.5t44.5 38.5t53.5 35.5q96 60 111 109q7 37 -14.5 62.5t-51.5 25.5
q-21 0 -48.5 -19.5t-87.5 -72.5l-48 32q109 86 160 86q55 0 100.5 -41.5t45.5 -85.5q-5 -32 -35.5 -55t-95.5 -54zM90 0l526 767h63l-526 -767h-63z" />
    <glyph glyph-name="threequarters" unicode="&#xbe;" horiz-adv-x="968" 
d="M238 555l2 42q31 4 60 19.5t40 40.5q10 34 -14 59.5t-53 25.5q-8 0 -16.5 -2t-18 -7.5t-15.5 -9t-17.5 -13.5t-15.5 -13.5t-17.5 -16.5t-15.5 -15h1l-15 -16l-15 9q-4 3 -17 10.5t-21 13.5q51 42 95 64t66 22q56 0 104.5 -45t39.5 -80q-19 -36 -51 -46q36 -8 59 -39.5
t23 -70.5q0 -56 -48.5 -103t-124.5 -47q-56 0 -98 33.5t-65 85.5q3 1 9 5l11 6q49 -90 136 -90q47 0 83 30t36 83q0 26 -16.5 51.5t-53.5 25.5q-21 0 -57 -12zM195 0l526 767h63l-527 -767h-62zM878 188v-56h-95v-132h-50v132h-220l225 288h45v-252q58 7 95 20zM733 367
l-134 -193q87 -8 134 -7v200z" />
    <glyph glyph-name="questiondown" unicode="&#xbf;" horiz-adv-x="629" 
d="M44 247q12 50 41.5 89t62.5 64t64 51.5t51.5 68t20.5 98.5h26q0 -147 -82 -229q-2 -2 -19 -18.5t-24 -24t-20 -22.5t-22 -29t-16 -29q-19 -37 -16 -82.5t18 -85.5t52 -67t86 -27q26 0 44.5 4.5t47.5 25.5t44.5 34.5t68.5 61.5l67 -43q-133 -107 -257 -107
q-67 0 -129 43.5t-92.5 106.5t-16.5 117zM242 769l47 47q7 9 16 0l47 -47q7 -7 0 -16l-47 -47q-9 -7 -16 0l-47 47q-9 9 0 16z" />
    <glyph glyph-name="Agrave" unicode="&#xc0;" horiz-adv-x="757" 
d="M638 0l-115 262q-5 11 -16 13q-20 4 -46 -3l-24 -8l-99 -47q-128 -66 -158 17q-8 -35 -21 -84.5t-21 -83t-13 -66.5h-90l337 768h12l338 -768h-84zM513 287l-160 367q-41 -86 -95 -213t-70 -186q-2 -8 7 -14.5t18 -5.5q5 1 8.5 1.5t10 3t12 5t19 9t26 12.5l37.5 18t49 23
q35 16 63.5 15t42 -9t32.5 -26zM383 839l-14 -15l-174 90l52 46q48 -47 96 -87q23 -18 40 -34z" />
    <glyph glyph-name="Aacute" unicode="&#xc1;" horiz-adv-x="757" 
d="M638 0l-115 262q-5 11 -16 13q-20 4 -46 -3l-24 -8l-99 -47q-128 -66 -158 17q-8 -35 -21 -84.5t-21 -83t-13 -66.5h-90l337 768h12l338 -768h-84zM513 287l-160 367q-41 -86 -95 -213t-70 -186q-2 -8 7 -14.5t18 -5.5q5 1 8.5 1.5t10 3t12 5t19 9t26 12.5l37.5 18t49 23
q35 16 63.5 15t42 -9t32.5 -26zM377 824l-14 15q17 16 40 34q48 40 96 87l52 -46z" />
    <glyph glyph-name="Acircumflex" unicode="&#xc2;" horiz-adv-x="757" 
d="M216 822l-8 13q7 4 62 41q66 45 106 84q40 -39 106 -84q55 -37 62 -41l-8 -13l-160 80zM638 0l-115 262q-5 11 -16 13q-20 4 -46 -3l-24 -8l-99 -47q-128 -66 -158 17q-8 -35 -21 -84.5t-21 -83t-13 -66.5h-90l337 768h12l338 -768h-84zM513 287l-160 367
q-41 -86 -95 -213t-70 -186q-2 -8 7 -14.5t18 -5.5q5 1 8.5 1.5t10 3t12 5t19 9t26 12.5l37.5 18t49 23q35 16 63.5 15t42 -9t32.5 -26z" />
    <glyph glyph-name="Atilde" unicode="&#xc3;" horiz-adv-x="757" 
d="M428 875q-7 2 -41 12.5t-45.5 13t-40.5 7t-45.5 1t-40 -12.5t-43.5 -26l-12 8q44 54 89.5 71.5t112.5 -0.5q51 -15 70.5 -20t52.5 -9t54 4t40 27l12 -9q-76 -92 -163 -67zM638 0l-115 262q-5 11 -16 13q-20 4 -46 -3l-24 -8l-99 -47q-128 -66 -158 17q-8 -35 -21 -84.5
t-21 -83t-13 -66.5h-90l337 768h12l338 -768h-84zM513 287l-160 367q-41 -86 -95 -213t-70 -186q-2 -8 7 -14.5t18 -5.5q5 1 8.5 1.5t10 3t12 5t19 9t26 12.5l37.5 18t49 23q35 16 63.5 15t42 -9t32.5 -26z" />
    <glyph glyph-name="Adieresis" unicode="&#xc4;" horiz-adv-x="757" 
d="M638 0l-115 262q-5 11 -16 13q-20 4 -46 -3l-24 -8l-99 -47q-128 -66 -158 17q-8 -35 -21 -84.5t-21 -83t-13 -66.5h-90l337 768h12l338 -768h-84zM513 287l-160 367q-41 -86 -95 -213t-70 -186q-2 -8 7 -14.5t18 -5.5q5 1 8.5 1.5t10 3t12 5t19 9t26 12.5l37.5 18t49 23
q35 16 63.5 15t42 -9t32.5 -26zM316 894l-47 -47q-7 -9 -16 0l-47 47q-7 7 0 16l47 47q9 7 16 0l47 -47q9 -9 0 -16zM555 894l-47 -47q-7 -9 -16 0l-47 47q-7 7 0 16l47 47q9 7 16 0l47 -47q9 -9 0 -16z" />
    <glyph glyph-name="Aring" unicode="&#xc5;" horiz-adv-x="792" 
d="M638 0l-115 262q-5 11 -16 13q-20 4 -46 -3l-24 -8l-99 -47q-128 -66 -158 17q-8 -35 -21 -84.5t-21 -83t-13 -66.5h-90l337 768h12l338 -768h-84zM513 287l-160 367q-41 -86 -95 -213t-70 -186q-2 -8 7 -14.5t18 -5.5q5 1 8.5 1.5t10 3t12 5t19 9t26 12.5l37.5 18t49 23
q35 16 63.5 15t42 -9t32.5 -26zM311 893q0 28 20 48t47 20q28 0 48 -20t20 -48q0 -27 -20 -47t-48 -20q-27 0 -47 20t-20 47zM347 873q11 -17 28 -23t30 3q14 9 14.5 26.5t-11.5 34.5q-11 18 -27 23t-30 -4q-13 -8 -14 -25.5t10 -34.5z" />
    <glyph glyph-name="AE" unicode="&#xc6;" horiz-adv-x="1156" 
d="M1116 768v-79q-76 17 -134 25q-147 23 -329 27v-351q44 88 168 59q30 -7 68.5 -19.5t53 -15.5t36.5 2t46 24l11 -9q-86 -96 -176 -66q-8 2 -25 7t-23.5 7t-20 6t-20 5t-17 3.5t-16 3t-13.5 1t-14 -0.5l-12 -2q-18 -5 -31 -21.5t-15 -35.5v-4v-307q163 1 329 27
q58 8 134 25v-79h-542v245q0 53 -82 19l-96 -47q-124 -68 -155 19q-70 -129 -97 -236h-134l554 768h552zM432 307q84 40 142 -28v449q-12 -16 -73.5 -100.5t-90 -124.5t-74.5 -110.5t-79 -128.5q-6 -9 -1 -18.5t16 -10.5h2q4 1 8 1.5t10 3t11.5 5.5t18.5 9t25.5 12
t36.5 17.5t48 23.5z" />
    <glyph glyph-name="Ccedilla" unicode="&#xc7;" horiz-adv-x="791" 
d="M747 279l14 -9q-42 -123 -126.5 -201.5t-206.5 -87.5q-3 -10 -10.5 -20.5t-14.5 -16.5l-14 -12l-7 -5q41 3 65.5 -16t24.5 -52q0 -32 -23 -51t-57 -19q-15 0 -36 7t-29 12l8 17q16 -8 53 -15q20 -2 34.5 12t14.5 37t-14.5 38t-37.5 15q-9 0 -16 -1q-2 -1 -7 1q-7 4 -2 13
q14 23 19 56q-84 4 -152 39.5t-110 92.5t-64.5 126.5t-22.5 144.5q0 159 90 270.5t236 129.5q101 11 185 -20.5t183 -140.5l-79 -52q-35 59 -70.5 97.5t-80 62.5t-95 23t-115.5 -20q-67 -22 -111.5 -72.5t-61 -114.5t-13 -135t26.5 -138q38 -103 122 -168t183 -65
q83 0 176.5 64t140.5 174z" />
    <glyph glyph-name="Egrave" unicode="&#xc8;" horiz-adv-x="642" 
d="M139 334v-307q163 1 329 27q58 8 134 25v-79h-542v768h542v-79q-76 17 -134 25q-147 23 -329 27v-351q44 88 168 59q30 -7 68.5 -19.5t53 -15.5t36.5 2t46 24l11 -9q-86 -96 -176 -66q-8 2 -25 7t-23.5 7t-20 6t-20 5t-17 3.5t-16 3t-13.5 1t-14 -0.5l-12 -2
q-18 -5 -31 -21.5t-15 -35.5v-4zM408 839l-14 -15l-174 90l52 46q48 -47 96 -87q23 -18 40 -34z" />
    <glyph glyph-name="Eacute" unicode="&#xc9;" horiz-adv-x="642" 
d="M139 334v-307q163 1 329 27q58 8 134 25v-79h-542v768h542v-79q-76 17 -134 25q-147 23 -329 27v-351q44 88 168 59q30 -7 68.5 -19.5t53 -15.5t36.5 2t46 24l11 -9q-86 -96 -176 -66q-8 2 -25 7t-23.5 7t-20 6t-20 5t-17 3.5t-16 3t-13.5 1t-14 -0.5l-12 -2
q-18 -5 -31 -21.5t-15 -35.5v-4zM299 809l-14 15q17 16 40 34q48 40 96 87l52 -46z" />
    <glyph glyph-name="Ecircumflex" unicode="&#xca;" horiz-adv-x="642" 
d="M171 822l-8 13q7 4 62 41q66 45 106 84q40 -39 106 -84q55 -37 62 -41l-8 -13l-160 80zM139 334v-307q163 1 329 27q58 8 134 25v-79h-542v768h542v-79q-76 17 -134 25q-147 23 -329 27v-351q44 88 168 59q30 -7 68.5 -19.5t53 -15.5t36.5 2t46 24l11 -9
q-86 -96 -176 -66q-8 2 -25 7t-23.5 7t-20 6t-20 5t-17 3.5t-16 3t-13.5 1t-14 -0.5l-12 -2q-18 -5 -31 -21.5t-15 -35.5v-4z" />
    <glyph glyph-name="Edieresis" unicode="&#xcb;" horiz-adv-x="642" 
d="M270 894l-47 -47q-7 -9 -16 0l-47 47q-7 7 0 16l47 47q9 7 16 0l47 -47q9 -9 0 -16zM509 894l-47 -47q-7 -9 -16 0l-47 47q-7 7 0 16l47 47q9 7 16 0l47 -47q9 -9 0 -16zM139 334v-307q163 1 329 27q58 8 134 25v-79h-542v768h542v-79q-76 17 -134 25q-147 23 -329 27
v-351q44 88 168 59q30 -7 68.5 -19.5t53 -15.5t36.5 2t46 24l11 -9q-86 -96 -176 -66q-8 2 -25 7t-23.5 7t-20 6t-20 5t-17 3.5t-16 3t-13.5 1t-14 -0.5l-12 -2q-18 -5 -31 -21.5t-15 -35.5v-4z" />
    <glyph glyph-name="Igrave" unicode="&#xcc;" horiz-adv-x="282" 
d="M187 768v-768h-79v768h79zM163 839l-14 -15l-174 90l52 46q48 -47 96 -87q23 -18 40 -34z" />
    <glyph glyph-name="Iacute" unicode="&#xcd;" horiz-adv-x="268" 
d="M174 768v-768h-79v768h79zM139 824l-14 15q17 16 40 34q48 40 96 87l52 -46z" />
    <glyph glyph-name="Icircumflex" unicode="&#xce;" horiz-adv-x="266" 
d="M-27 844l-8 13q7 4 62 41q66 45 106 84q40 -39 106 -84q55 -37 62 -41l-8 -13l-160 80zM173 768v-768h-79v768h79z" />
    <glyph glyph-name="Idieresis" unicode="&#xcf;" horiz-adv-x="281" 
d="M108 894l-47 -47q-7 -9 -16 0l-47 47q-7 7 0 16l47 47q9 7 16 0l47 -47q9 -9 0 -16zM282 894l-47 -47q-7 -9 -16 0l-47 47q-7 7 0 16l47 47q9 7 16 0l47 -47q9 -9 0 -16zM176 768v-768h-79v768h79z" />
    <glyph glyph-name="Eth" unicode="&#xd0;" horiz-adv-x="797" 
d="M767 384q0 -167 -109 -274.5t-278 -109.5h-279v358h-101v67h101v343h279q169 0 278 -107t109 -277zM180 743v-318h154v-67h-154v-339l163 2q150 0 247.5 105.5t97.5 255.5q0 65 -25.5 129.5t-70 116.5t-110 84t-139.5 32z" />
    <glyph glyph-name="Ntilde" unicode="&#xd1;" horiz-adv-x="766" 
d="M447 875q-7 2 -41 12.5t-45.5 13t-40.5 7t-45.5 1t-40 -12.5t-43.5 -26l-12 8q44 54 89.5 71.5t112.5 -0.5q51 -15 70.5 -20t52.5 -9t54 4t40 27l12 -9q-76 -92 -163 -67zM706 18l-61 -28q-27 -11 -46 -11q-56 0 -113 75q-35 46 -71 138t-61.5 178t-63.5 176t-79 135
q-17 19 -44 36t-44 17q-20 0 -20 -26q0 -333 25 -550q10 -92 25 -158h-93v745l67 32q24 11 45 11q29 0 64 -26q56 -43 104.5 -138t77.5 -189.5t66 -196t70 -147.5q10 -15 40.5 -38.5t47.5 -23.5q20 0 20 30q0 303 -25 543q-10 99 -24 166h93v-750z" />
    <glyph glyph-name="Ograve" unicode="&#xd2;" horiz-adv-x="800" 
d="M399 788q90 0 162 -34.5t117 -92t68.5 -128.5t23.5 -149t-23.5 -149t-68.5 -128.5t-117 -92t-162 -34.5q-89 0 -161 34.5t-116.5 92t-68 128.5t-23.5 149t23.5 149t68 128.5t116.5 92t161 34.5zM519 35q68 23 111.5 73t58.5 113t10.5 131t-26.5 135q-47 142 -151 218
t-236 31q-67 -22 -112 -71.5t-62 -112t-14 -132t26 -136.5q60 -159 161 -226.5t234 -22.5zM423 839l-14 -15l-174 90l52 46q48 -47 96 -87q23 -18 40 -34z" />
    <glyph glyph-name="Oacute" unicode="&#xd3;" horiz-adv-x="800" 
d="M399 788q90 0 162 -34.5t117 -92t68.5 -128.5t23.5 -149t-23.5 -149t-68.5 -128.5t-117 -92t-162 -34.5q-89 0 -161 34.5t-116.5 92t-68 128.5t-23.5 149t23.5 149t68 128.5t116.5 92t161 34.5zM519 35q68 23 111.5 73t58.5 113t10.5 131t-26.5 135q-47 142 -151 218
t-236 31q-67 -22 -112 -71.5t-62 -112t-14 -132t26 -136.5q60 -159 161 -226.5t234 -22.5zM340 824l-14 15q17 16 40 34q48 40 96 87l52 -46z" />
    <glyph glyph-name="Ocircumflex" unicode="&#xd4;" horiz-adv-x="800" 
d="M220 844l-8 13q7 4 62 41q66 45 106 84q40 -39 106 -84q55 -37 62 -41l-8 -13l-160 80zM399 788q90 0 162 -34.5t117 -92t68.5 -128.5t23.5 -149t-23.5 -149t-68.5 -128.5t-117 -92t-162 -34.5q-89 0 -161 34.5t-116.5 92t-68 128.5t-23.5 149t23.5 149t68 128.5
t116.5 92t161 34.5zM519 35q68 23 111.5 73t58.5 113t10.5 131t-26.5 135q-47 142 -151 218t-236 31q-67 -22 -112 -71.5t-62 -112t-14 -132t26 -136.5q60 -159 161 -226.5t234 -22.5z" />
    <glyph glyph-name="Otilde" unicode="&#xd5;" horiz-adv-x="800" 
d="M435 875q-7 2 -41 12.5t-45.5 13t-40.5 7t-45.5 1t-40 -12.5t-43.5 -26l-12 8q44 54 89.5 71.5t112.5 -0.5q51 -15 70.5 -20t52.5 -9t54 4t40 27l12 -9q-76 -92 -163 -67zM399 788q90 0 162 -34.5t117 -92t68.5 -128.5t23.5 -149t-23.5 -149t-68.5 -128.5t-117 -92
t-162 -34.5q-89 0 -161 34.5t-116.5 92t-68 128.5t-23.5 149t23.5 149t68 128.5t116.5 92t161 34.5zM519 35q68 23 111.5 73t58.5 113t10.5 131t-26.5 135q-47 142 -151 218t-236 31q-67 -22 -112 -71.5t-62 -112t-14 -132t26 -136.5q60 -159 161 -226.5t234 -22.5z" />
    <glyph glyph-name="Odieresis" unicode="&#xd6;" horiz-adv-x="800" 
d="M331 894l-47 -47q-7 -9 -16 0l-47 47q-7 7 0 16l47 47q9 7 16 0l47 -47q9 -9 0 -16zM570 894l-47 -47q-7 -9 -16 0l-47 47q-7 7 0 16l47 47q9 7 16 0l47 -47q9 -9 0 -16zM399 788q90 0 162 -34.5t117 -92t68.5 -128.5t23.5 -149t-23.5 -149t-68.5 -128.5t-117 -92
t-162 -34.5q-89 0 -161 34.5t-116.5 92t-68 128.5t-23.5 149t23.5 149t68 128.5t116.5 92t161 34.5zM519 35q68 23 111.5 73t58.5 113t10.5 131t-26.5 135q-47 142 -151 218t-236 31q-67 -22 -112 -71.5t-62 -112t-14 -132t26 -136.5q60 -159 161 -226.5t234 -22.5z" />
    <glyph glyph-name="multiply" unicode="&#xd7;" horiz-adv-x="635" 
d="M92 192l191 191l-193 193l35 35l193 -193l191 191l34 -35l-191 -191l193 -193l-34 -35l-193 193l-191 -191z" />
    <glyph glyph-name="Oslash" unicode="&#xd8;" horiz-adv-x="800" 
d="M111 0h40l529 768h-38zM399 788q-89 0 -161 -34.5t-116.5 -92t-68 -128.5t-23.5 -149t23.5 -149t68 -128.5t116.5 -92t161 -34.5q90 0 162 34.5t117 92t68.5 128.5t23.5 149t-23.5 149t-68.5 128.5t-117 92t-162 34.5zM519 35q-133 -45 -234 22.5t-161 226.5
q-23 67 -26 136.5t14 132t62 112t112 71.5q132 45 236 -31t151 -218q22 -67 26.5 -135t-10.5 -131t-58.5 -113t-111.5 -73z" />
    <glyph glyph-name="Ugrave" unicode="&#xd9;" horiz-adv-x="751" 
d="M539 768h82q95 -441 95 -487q0 -142 -97.5 -221.5t-260.5 -79.5q-144 0 -233.5 78.5t-89.5 190.5q0 187 206 303q26 17 26 30q0 8 -4 12l-197 174h119l152 -138q12 -12 12 -24q0 -14 -19 -26l-74 -51q-138 -105 -138 -252q0 -109 72 -190.5t168 -81.5q105 0 192.5 71
t87.5 174q0 15 -99 518zM425 839l-14 -15l-174 90l52 46q48 -47 96 -87q23 -18 40 -34z" />
    <glyph glyph-name="Uacute" unicode="&#xda;" horiz-adv-x="751" 
d="M539 768h82q95 -441 95 -487q0 -142 -97.5 -221.5t-260.5 -79.5q-144 0 -233.5 78.5t-89.5 190.5q0 187 206 303q26 17 26 30q0 8 -4 12l-197 174h119l152 -138q12 -12 12 -24q0 -14 -19 -26l-74 -51q-138 -105 -138 -252q0 -109 72 -190.5t168 -81.5q105 0 192.5 71
t87.5 174q0 15 -99 518zM347 824l-14 15q17 16 40 34q48 40 96 87l52 -46z" />
    <glyph glyph-name="Ucircumflex" unicode="&#xdb;" horiz-adv-x="751" 
d="M211 844l-8 13q7 4 62 41q66 45 106 84q40 -39 106 -84q55 -37 62 -41l-8 -13l-160 80zM539 768h82q95 -441 95 -487q0 -142 -97.5 -221.5t-260.5 -79.5q-144 0 -233.5 78.5t-89.5 190.5q0 187 206 303q26 17 26 30q0 8 -4 12l-197 174h119l152 -138q12 -12 12 -24
q0 -14 -19 -26l-74 -51q-138 -105 -138 -252q0 -109 72 -190.5t168 -81.5q105 0 192.5 71t87.5 174q0 15 -99 518z" />
    <glyph glyph-name="Udieresis" unicode="&#xdc;" horiz-adv-x="751" 
d="M621 768q95 -441 95 -487q0 -142 -97.5 -221.5t-260.5 -79.5q-144 0 -233.5 78.5t-89.5 190.5q0 187 206 303q26 17 26 30q0 8 -4 12l-197 174h119l152 -138q12 -12 12 -24q0 -14 -19 -26l-74 -51q-138 -105 -138 -252q0 -109 72 -190.5t168 -81.5q105 0 192.5 71
t87.5 174q0 15 -99 518h82zM310 894l-47 -47q-7 -9 -16 0l-47 47q-7 7 0 16l47 47q9 7 16 0l47 -47q9 -9 0 -16zM549 894l-47 -47q-7 -9 -16 0l-47 47q-7 7 0 16l47 47q9 7 16 0l47 -47q9 -9 0 -16z" />
    <glyph glyph-name="Yacute" unicode="&#xdd;" horiz-adv-x="709" 
d="M577 769h102l-260 -366q-24 -33 -24 -59v-344h-40h-41v344q0 26 -24 59l-260 366h103q55 -128 115.5 -228t106.5 -153q46 53 106.5 153t115.5 228zM242 829l-8 13q43 27 79 52q91 64 134 106l52 -46z" />
    <glyph glyph-name="Thorn" unicode="&#xde;" horiz-adv-x="626" 
d="M140 768v-115h120q32 0 55 -1t59.5 -5t62.5 -12t56.5 -23.5t50 -37.5t34.5 -55.5t18 -75.5q0 -57 -18.5 -100.5t-54 -70t-76 -44t-97 -24.5t-103.5 -9t-107 -1v-194h-80v768h80zM523 443q0 31 -7.5 56t-19 42.5t-31.5 31.5t-38.5 22t-46.5 13.5t-48.5 8t-51.5 2.5
t-49.5 -0.5t-48.5 -2t-42 -1.5v-362q4 -27 40 -27q140 0 214 22t101.5 67t27.5 128z" />
    <glyph glyph-name="germandbls" unicode="&#xdf;" horiz-adv-x="583" 
d="M66 -176l-6 14l108 55q26 13 57.5 30t63.5 35t44 24q65 38 100 108t33 154q-5 151 -127 202q-46 19 -62.5 29.5t-16.5 24.5q0 16 14 33t30.5 32t30.5 45t14 69q0 37 -21 64.5t-63 27.5q-34 0 -58 -15.5t-36.5 -38.5t-19.5 -55t-9 -59.5t-3 -58.5v-10v-534h-79v581
q0 17 2.5 37t15.5 52t34.5 56.5t64.5 43t100 18.5q70 0 104 -40.5t34 -87.5q0 -33 -14.5 -64.5t-32 -50.5t-31.5 -36t-12 -24q2 -9 26 -20t56 -28t64.5 -42.5t54.5 -73t22 -109.5q0 -52 -14 -95t-32 -68.5t-46.5 -47.5t-45.5 -31t-41 -19q-15 -7 -77 -32.5t-96 -40.5z" />
    <glyph glyph-name="agrave" unicode="&#xe0;" horiz-adv-x="617" 
d="M607 0h-81l-25 64q-56 -49 -137.5 -70t-155 -11.5t-126 60t-52.5 132.5q0 64 34 113t86.5 72t122.5 15t135 -53l-21 52q-59 131 -192 95q-80 -23 -154 -69l-7 13l132 88q77 49 170 18.5t123 -114.5zM105 175q0 -74 40.5 -120t97 -54t119.5 20t105 90q14 20 1 47l-47 122
q-10 28 -38 40q-90 40 -152 29.5t-94 -56t-32 -118.5zM326 647l-14 -15l-174 90l52 46q48 -47 96 -87q23 -18 40 -34z" />
    <glyph glyph-name="aacute" unicode="&#xe1;" horiz-adv-x="617" 
d="M607 0h-81l-25 64q-56 -49 -137.5 -70t-155 -11.5t-126 60t-52.5 132.5q0 64 34 113t86.5 72t122.5 15t135 -53l-21 52q-59 131 -192 95q-80 -23 -154 -69l-7 13l132 88q77 49 170 18.5t123 -114.5zM105 175q0 -74 40.5 -120t97 -54t119.5 20t105 90q14 20 1 47l-47 122
q-10 28 -38 40q-90 40 -152 29.5t-94 -56t-32 -118.5zM247 632l-14 15q17 16 40 34q48 40 96 87l52 -46z" />
    <glyph glyph-name="acircumflex" unicode="&#xe2;" horiz-adv-x="617" 
d="M118 630l-8 13q7 4 62 41q66 45 106 84q40 -39 106 -84q55 -37 62 -41l-8 -13l-160 80zM607 0h-81l-25 64q-56 -49 -137.5 -70t-155 -11.5t-126 60t-52.5 132.5q0 64 34 113t86.5 72t122.5 15t135 -53l-21 52q-59 131 -192 95q-80 -23 -154 -69l-7 13l132 88
q77 49 170 18.5t123 -114.5zM105 175q0 -74 40.5 -120t97 -54t119.5 20t105 90q14 20 1 47l-47 122q-10 28 -38 40q-90 40 -152 29.5t-94 -56t-32 -118.5z" />
    <glyph glyph-name="atilde" unicode="&#xe3;" horiz-adv-x="617" 
d="M607 0h-81l-25 64q-56 -49 -137.5 -70t-155 -11.5t-126 60t-52.5 132.5q0 64 34 113t86.5 72t122.5 15t135 -53l-21 52q-59 131 -192 95q-80 -23 -154 -69l-7 13l132 88q77 49 170 18.5t123 -114.5zM105 175q0 -74 40.5 -120t97 -54t119.5 20t105 90q14 20 1 47l-47 122
q-10 28 -38 40q-90 40 -152 29.5t-94 -56t-32 -118.5zM336 624q-7 2 -41 12.5t-45.5 13t-40.5 7t-45.5 1t-40 -12.5t-43.5 -26l-12 8q44 54 89.5 71.5t112.5 -0.5q51 -15 70.5 -20t52.5 -9t54 4t40 27l12 -9q-76 -92 -163 -67z" />
    <glyph glyph-name="adieresis" unicode="&#xe4;" horiz-adv-x="617" 
d="M607 0h-81l-25 64q-56 -49 -137.5 -70t-155 -11.5t-126 60t-52.5 132.5q0 64 34 113t86.5 72t122.5 15t135 -53l-21 52q-59 131 -192 95q-80 -23 -154 -69l-7 13l132 88q77 49 170 18.5t123 -114.5zM105 175q0 -74 40.5 -120t97 -54t119.5 20t105 90q14 20 1 47l-47 122
q-10 28 -38 40q-90 40 -152 29.5t-94 -56t-32 -118.5zM237 678l-47 -47q-7 -9 -16 0l-47 47q-7 7 0 16l47 47q9 7 16 0l47 -47q9 -9 0 -16zM447 678l-47 -47q-7 -9 -16 0l-47 47q-7 7 0 16l47 47q9 7 16 0l47 -47q9 -9 0 -16z" />
    <glyph glyph-name="aring" unicode="&#xe5;" horiz-adv-x="617" 
d="M607 0h-81l-25 64q-56 -49 -137.5 -70t-155 -11.5t-126 60t-52.5 132.5q0 64 34 113t86.5 72t122.5 15t135 -53l-21 52q-59 131 -192 95q-80 -23 -154 -69l-7 13l132 88q77 49 170 18.5t123 -114.5zM105 175q0 -74 40.5 -120t97 -54t119.5 20t105 90q14 20 1 47l-47 122
q-10 28 -38 40q-90 40 -152 29.5t-94 -56t-32 -118.5zM209 700q0 28 20 48t47 20q28 0 48 -20t20 -48q0 -27 -20 -47t-48 -20q-27 0 -47 20t-20 47zM245 680q11 -17 28 -23t30 3q14 9 14.5 26.5t-11.5 34.5q-11 18 -27 23t-30 -4q-13 -8 -14 -25.5t10 -34.5z" />
    <glyph glyph-name="ae" unicode="&#xe6;" horiz-adv-x="1043" 
d="M999 204l19 -9q-87 -172 -219 -205q-27 -10 -69 -10q-75 0 -135 29q-51 28 -86 72l-8 -8q-45 -43 -107 -68.5t-124.5 -26t-117 19t-88.5 68t-34 118.5q0 64 34 113t86.5 72t122.5 15t135 -53l-21 52q-59 131 -192 95q-80 -23 -154 -69l-7 13l132 88q77 49 170 18.5
t123 -114.5l14 -37q30 73 96 118t161 45q102 0 169 -48.5t95 -128.5l-442 -172q30 -84 85 -132.5t133 -39.5q70 13 131.5 59t97.5 126zM649 509q-49 -16 -78.5 -48.5t-38 -75t-5 -86t18.5 -90.5l351 161q-38 84 -100 125.5t-148 13.5zM467 120q6 8 6 21l-18 60l-34 88
q-10 28 -38 40q-90 40 -152 29.5t-94 -56t-32 -118.5q0 -78 40.5 -126.5t97 -57t119.5 22.5t105 97z" />
    <glyph glyph-name="ccedilla" unicode="&#xe7;" 
d="M539 421l-67 -43q-47 86 -105.5 121t-136.5 10q-49 -16 -78.5 -48.5t-38 -74.5t-5 -85.5t18.5 -90.5q71 -199 221 -181q168 32 232 176l19 -9q-87 -172 -219 -205q-19 -6 -43 -9q-3 -11 -10.5 -21.5t-14 -16.5t-14.5 -12l-7 -5q41 3 65.5 -16t24.5 -52q0 -32 -23 -51
t-57 -19q-15 0 -36 7t-29 12l8 17q16 -8 53 -15q20 -2 34.5 12t14.5 37t-14.5 38t-37.5 15q-9 0 -16 -1q-2 -1 -7 1q-7 4 -2 13q14 23 19 57q-84 5 -144.5 48.5t-87 105.5t-24.5 133t32 131.5t95 100.5t152 40q75 0 134 -35.5t94 -84.5z" />
    <glyph glyph-name="egrave" unicode="&#xe8;" 
d="M580 204l19 -9q-87 -172 -219 -205q-27 -10 -69 -10q-89 0 -154.5 41.5t-95 103.5t-29.5 135t29.5 135t95 103.5t154.5 41.5q102 0 169 -48.5t95 -128.5l-442 -172q30 -84 85 -132.5t133 -39.5q70 13 131.5 59t97.5 126zM230 509q-49 -16 -78.5 -48.5t-38 -75t-5 -86
t18.5 -90.5l351 161q-38 84 -100 125.5t-148 13.5zM344 647l-14 -15l-174 90l52 46q48 -47 96 -87q23 -18 40 -34z" />
    <glyph glyph-name="eacute" unicode="&#xe9;" 
d="M580 204l19 -9q-87 -172 -219 -205q-27 -10 -69 -10q-89 0 -154.5 41.5t-95 103.5t-29.5 135t29.5 135t95 103.5t154.5 41.5q102 0 169 -48.5t95 -128.5l-442 -172q30 -84 85 -132.5t133 -39.5q70 13 131.5 59t97.5 126zM230 509q-49 -16 -78.5 -48.5t-38 -75t-5 -86
t18.5 -90.5l351 161q-38 84 -100 125.5t-148 13.5zM262 632l-14 15q17 16 40 34q48 40 96 87l52 -46z" />
    <glyph glyph-name="ecircumflex" unicode="&#xea;" 
d="M144 630l-8 13q7 4 62 41q66 45 106 84q40 -39 106 -84q55 -37 62 -41l-8 -13l-160 80zM580 204l19 -9q-87 -172 -219 -205q-27 -10 -69 -10q-89 0 -154.5 41.5t-95 103.5t-29.5 135t29.5 135t95 103.5t154.5 41.5q102 0 169 -48.5t95 -128.5l-442 -172q30 -84 85 -132.5
t133 -39.5q70 13 131.5 59t97.5 126zM230 509q-49 -16 -78.5 -48.5t-38 -75t-5 -86t18.5 -90.5l351 161q-38 84 -100 125.5t-148 13.5z" />
    <glyph glyph-name="edieresis" unicode="&#xeb;" 
d="M580 204l19 -9q-87 -172 -219 -205q-27 -10 -69 -10q-89 0 -154.5 41.5t-95 103.5t-29.5 135t29.5 135t95 103.5t154.5 41.5q102 0 169 -48.5t95 -128.5l-442 -172q30 -84 85 -132.5t133 -39.5q70 13 131.5 59t97.5 126zM230 509q-49 -16 -78.5 -48.5t-38 -75t-5 -86
t18.5 -90.5l351 161q-38 84 -100 125.5t-148 13.5zM232 678l-47 -47q-7 -9 -16 0l-47 47q-7 7 0 16l47 47q9 7 16 0l47 -47q9 -9 0 -16zM471 678l-47 -47q-7 -9 -16 0l-47 47q-7 7 0 16l47 47q9 7 16 0l47 -47q9 -9 0 -16z" />
    <glyph glyph-name="igrave" unicode="&#xec;" horiz-adv-x="228" 
d="M153 520v-520h-80v520h80zM133 647l-14 -15l-174 90l52 46q48 -47 96 -87q23 -18 40 -34z" />
    <glyph glyph-name="iacute" unicode="&#xed;" horiz-adv-x="229" 
d="M155 520v-520h-80v520h80zM110 632l-14 15q17 16 40 34q48 40 96 87l52 -46z" />
    <glyph glyph-name="icircumflex" unicode="&#xee;" horiz-adv-x="236" 
d="M-42 630l-8 13q7 4 62 41q66 45 106 84q40 -39 106 -84q55 -37 62 -41l-8 -13l-160 80zM161 520v-520h-80v520h80z" />
    <glyph glyph-name="idieresis" unicode="&#xef;" horiz-adv-x="211" 
d="M73 678l-47 -47q-7 -9 -16 0l-47 47q-7 7 0 16l47 47q9 7 16 0l47 -47q9 -9 0 -16zM247 678l-47 -47q-7 -9 -16 0l-47 47q-7 7 0 16l47 47q9 7 16 0l47 -47q9 -9 0 -16zM144 520v-520h-80v520h80z" />
    <glyph glyph-name="eth" unicode="&#xf0;" horiz-adv-x="623" 
d="M586 324q7 -48 4 -96.5t-25 -93t-54.5 -79t-84.5 -55t-115 -20.5q-89 0 -154.5 41.5t-95 103.5t-29.5 135t29.5 135t95 103.5t154.5 41.5q62 0 115 -21q-66 116 -155 171l-114 -65l-11 18l104 61q-38 21 -74 38l-31 14l6 14l124 -52l91 53l12 -19l-77 -45
q70 -29 126 -81.5t87.5 -111t48.5 -105.5t23 -85zM395 12q52 17 82 50.5t37.5 77t2.5 88t-21 93.5q-13 38 -29.5 70t-40 61.5t-52 45.5t-65 21.5t-78.5 -10.5q-50 -17 -80 -51t-38 -77.5t-3.5 -88.5t20.5 -93t38.5 -86t56.5 -69.5t75.5 -39t94.5 7.5z" />
    <glyph glyph-name="ntilde" unicode="&#xf1;" horiz-adv-x="575" 
d="M530 405v-405h-80v374q0 48 -21 72t-51.5 26.5t-72 -8t-74 -24.5t-65.5 -29l-12 -6q-24 -11 -24 -38v-367h-80v520h80v-104q60 30 196 90q46 19 90.5 16t78 -35t35.5 -82zM354 624q-7 2 -41 12.5t-45.5 13t-40.5 7t-45.5 1t-40 -12.5t-43.5 -26l-12 8q44 54 89.5 71.5
t112.5 -0.5q51 -15 70.5 -20t52.5 -9t54 4t40 27l12 -9q-76 -92 -163 -67z" />
    <glyph glyph-name="ograve" unicode="&#xf2;" horiz-adv-x="623" 
d="M311 540q90 0 155.5 -41.5t95 -103.5t29.5 -135t-29.5 -135t-95.5 -103.5t-155 -41.5t-154.5 41.5t-95 103.5t-29.5 135t29.5 135t95 103.5t154.5 41.5zM395 12q52 17 82 50.5t37.5 77t2.5 88t-21 93.5q-13 38 -29.5 70t-40 61.5t-52 45.5t-65 21.5t-78.5 -10.5
q-50 -17 -80 -51t-38 -77.5t-3.5 -88.5t20.5 -93t38.5 -86t56.5 -69.5t75.5 -39t94.5 7.5zM345 647l-14 -15l-174 90l52 46q48 -47 96 -87q23 -18 40 -34z" />
    <glyph glyph-name="oacute" unicode="&#xf3;" horiz-adv-x="623" 
d="M311 540q90 0 155.5 -41.5t95 -103.5t29.5 -135t-29.5 -135t-95.5 -103.5t-155 -41.5t-154.5 41.5t-95 103.5t-29.5 135t29.5 135t95 103.5t154.5 41.5zM395 12q52 17 82 50.5t37.5 77t2.5 88t-21 93.5q-13 38 -29.5 70t-40 61.5t-52 45.5t-65 21.5t-78.5 -10.5
q-50 -17 -80 -51t-38 -77.5t-3.5 -88.5t20.5 -93t38.5 -86t56.5 -69.5t75.5 -39t94.5 7.5zM240 632l-14 15q17 16 40 34q48 40 96 87l52 -46z" />
    <glyph glyph-name="ocircumflex" unicode="&#xf4;" horiz-adv-x="623" 
d="M142 630l-8 13q7 4 62 41q66 45 106 84q40 -39 106 -84q55 -37 62 -41l-8 -13l-160 80zM311 540q90 0 155.5 -41.5t95 -103.5t29.5 -135t-29.5 -135t-95.5 -103.5t-155 -41.5t-154.5 41.5t-95 103.5t-29.5 135t29.5 135t95 103.5t154.5 41.5zM395 12q52 17 82 50.5
t37.5 77t2.5 88t-21 93.5q-13 38 -29.5 70t-40 61.5t-52 45.5t-65 21.5t-78.5 -10.5q-50 -17 -80 -51t-38 -77.5t-3.5 -88.5t20.5 -93t38.5 -86t56.5 -69.5t75.5 -39t94.5 7.5z" />
    <glyph glyph-name="otilde" unicode="&#xf5;" horiz-adv-x="623" 
d="M370 624q-7 2 -41 12.5t-45.5 13t-40.5 7t-45.5 1t-40 -12.5t-43.5 -26l-12 8q44 54 89.5 71.5t112.5 -0.5q51 -15 70.5 -20t52.5 -9t54 4t40 27l12 -9q-76 -92 -163 -67zM311 540q90 0 155.5 -41.5t95 -103.5t29.5 -135t-29.5 -135t-95.5 -103.5t-155 -41.5t-154.5 41.5
t-95 103.5t-29.5 135t29.5 135t95 103.5t154.5 41.5zM395 12q52 17 82 50.5t37.5 77t2.5 88t-21 93.5q-13 38 -29.5 70t-40 61.5t-52 45.5t-65 21.5t-78.5 -10.5q-50 -17 -80 -51t-38 -77.5t-3.5 -88.5t20.5 -93t38.5 -86t56.5 -69.5t75.5 -39t94.5 7.5z" />
    <glyph glyph-name="odieresis" unicode="&#xf6;" horiz-adv-x="623" 
d="M241 678l-47 -47q-7 -9 -16 0l-47 47q-7 7 0 16l47 47q9 7 16 0l47 -47q9 -9 0 -16zM480 678l-47 -47q-7 -9 -16 0l-47 47q-7 7 0 16l47 47q9 7 16 0l47 -47q9 -9 0 -16zM311 540q90 0 155.5 -41.5t95 -103.5t29.5 -135t-29.5 -135t-95.5 -103.5t-155 -41.5t-154.5 41.5
t-95 103.5t-29.5 135t29.5 135t95 103.5t154.5 41.5zM395 12q52 17 82 50.5t37.5 77t2.5 88t-21 93.5q-13 38 -29.5 70t-40 61.5t-52 45.5t-65 21.5t-78.5 -10.5q-50 -17 -80 -51t-38 -77.5t-3.5 -88.5t20.5 -93t38.5 -86t56.5 -69.5t75.5 -39t94.5 7.5z" />
    <glyph glyph-name="divide" unicode="&#xf7;" horiz-adv-x="680" 
d="M590 360h-500v49h500v-49zM335 518l-50 51q-6 6 0 13l50 50q7 7 13 0l51 -50q6 -7 0 -13l-51 -51q-6 -6 -13 0zM335 138l-50 51q-6 6 0 13l50 50q7 7 13 0l51 -50q6 -7 0 -13l-51 -51q-6 -6 -13 0z" />
    <glyph glyph-name="oslash" unicode="&#xf8;" horiz-adv-x="623" 
d="M106 -22h40l388 563h-39zM311 540q-89 0 -154.5 -41.5t-95 -103.5t-29.5 -135t29.5 -135t95 -103.5t154.5 -41.5t155 41.5t95.5 103.5t29.5 135t-29.5 135t-95 103.5t-155.5 41.5zM395 12q-53 -15 -94.5 -7.5t-75.5 39t-56.5 69.5t-38.5 86t-20.5 93t3.5 88.5t38 77.5
t80 51q42 16 78.5 10.5t65 -21.5t52 -45.5t40 -61.5t29.5 -70q16 -49 21 -93.5t-2.5 -88t-37.5 -77t-82 -50.5z" />
    <glyph glyph-name="ugrave" unicode="&#xf9;" horiz-adv-x="537" 
d="M341 647l-14 -15l-174 90l52 46q48 -47 96 -87q23 -18 40 -34zM408 520h79v-520h-79v101q-105 -71 -158 -95q-33 -16 -73 -16q-53 0 -92.5 34.5t-39.5 90.5v405h79v-374q0 -60 35.5 -92t93.5 -15q51 16 135 68q20 13 20 35v378z" />
    <glyph glyph-name="uacute" unicode="&#xfa;" horiz-adv-x="537" 
d="M218 632l-14 15q17 16 40 34q48 40 96 87l52 -46zM408 520h79v-520h-79v101q-105 -71 -158 -95q-33 -16 -73 -16q-53 0 -92.5 34.5t-39.5 90.5v405h79v-374q0 -60 35.5 -92t93.5 -15q51 16 135 68q20 13 20 35v378z" />
    <glyph glyph-name="ucircumflex" unicode="&#xfb;" horiz-adv-x="537" 
d="M106 630l-8 13q7 4 62 41q66 45 106 84q40 -39 106 -84q55 -37 62 -41l-8 -13l-160 80zM408 520h79v-520h-79v101q-105 -71 -158 -95q-33 -16 -73 -16q-53 0 -92.5 34.5t-39.5 90.5v405h79v-374q0 -60 35.5 -92t93.5 -15q51 16 135 68q20 13 20 35v378z" />
    <glyph glyph-name="udieresis" unicode="&#xfc;" horiz-adv-x="537" 
d="M208 678l-47 -47q-7 -9 -16 0l-47 47q-7 7 0 16l47 47q9 7 16 0l47 -47q9 -9 0 -16zM447 678l-47 -47q-7 -9 -16 0l-47 47q-7 7 0 16l47 47q9 7 16 0l47 -47q9 -9 0 -16zM408 520h79v-520h-79v101q-105 -71 -158 -95q-33 -16 -73 -16q-53 0 -92.5 34.5t-39.5 90.5v405h79
v-374q0 -60 35.5 -92t93.5 -15q51 16 135 68q20 13 20 35v378z" />
    <glyph glyph-name="yacute" unicode="&#xfd;" horiz-adv-x="537" 
d="M487 520v-562q-9 -112 -129 -170l-256 -108l-6 14q89 38 155 79q156 97 156 197v132v-1q-70 -47 -157 -87q-46 -18 -90.5 -15t-78 34.5t-35.5 81.5v103v302h80v-278v-96q0 -59 34.5 -90t92.5 -14q60 19 135 65q19 12 19 35v378h80zM237 632l-14 15q17 16 40 34
q48 40 96 87l52 -46z" />
    <glyph glyph-name="thorn" unicode="&#xfe;" horiz-adv-x="644" 
d="M134 62v-382h-80v1088h80v-393q44 59 97.5 95t105.5 45.5t102 -4t87 -48.5t60 -93.5t23 -132.5q0 -101 -49.5 -165.5t-122 -82t-155 0.5t-148.5 72zM134 332v-159q0 -26 15 -51q34 -55 82.5 -87t97.5 -32t92.5 22.5t72.5 78t32 133.5q3 69 -16 120.5t-52 78t-76 34
t-87 -6t-87 -47.5t-74 -84z" />
    <glyph glyph-name="ydieresis" unicode="&#xff;" horiz-adv-x="537" 
d="M487 520v-562q-9 -112 -129 -170l-256 -108l-6 14q89 38 155 79q156 97 156 197v132v-1q-70 -47 -157 -87q-46 -18 -90.5 -15t-78 34.5t-35.5 81.5v103v302h80v-278v-96q0 -59 34.5 -90t92.5 -14q60 19 135 65q19 12 19 35v378h80zM209 678l-47 -47q-7 -9 -16 0l-47 47
q-7 7 0 16l47 47q9 7 16 0l47 -47q9 -9 0 -16zM448 678l-47 -47q-7 -9 -16 0l-47 47q-7 7 0 16l47 47q9 7 16 0l47 -47q9 -9 0 -16z" />
    <glyph glyph-name="Amacron" unicode="&#x100;" horiz-adv-x="757" 
d="M638 0l-115 262q-5 11 -16 13q-20 4 -46 -3l-24 -8l-99 -47q-128 -66 -158 17q-8 -35 -21 -84.5t-21 -83t-13 -66.5h-90l337 768h12l338 -768h-84zM513 287l-160 367q-41 -86 -95 -213t-70 -186q-2 -8 7 -14.5t18 -5.5q5 1 8.5 1.5t10 3t12 5t19 9t26 12.5l37.5 18t49 23
q35 16 63.5 15t42 -9t32.5 -26zM502 808h-266v55h266v-55z" />
    <glyph glyph-name="amacron" unicode="&#x101;" horiz-adv-x="617" 
d="M607 0h-81l-25 64q-56 -49 -137.5 -70t-155 -11.5t-126 60t-52.5 132.5q0 64 34 113t86.5 72t122.5 15t135 -53l-21 52q-59 131 -192 95q-80 -23 -154 -69l-7 13l132 88q77 49 170 18.5t123 -114.5zM105 175q0 -74 40.5 -120t97 -54t119.5 20t105 90q14 20 1 47l-47 122
q-10 28 -38 40q-90 40 -152 29.5t-94 -56t-32 -118.5zM400 675h-266v55h266v-55z" />
    <glyph glyph-name="Abreve" unicode="&#x102;" horiz-adv-x="757" 
d="M638 0l-115 262q-5 11 -16 13q-20 4 -46 -3l-24 -8l-99 -47q-128 -66 -158 17q-8 -35 -21 -84.5t-21 -83t-13 -66.5h-90l337 768h12l338 -768h-84zM513 287l-160 367q-41 -86 -95 -213t-70 -186q-2 -8 7 -14.5t18 -5.5q5 1 8.5 1.5t10 3t12 5t19 9t26 12.5l37.5 18t49 23
q35 16 63.5 15t42 -9t32.5 -26zM379 851q17 0 28.5 11.5t16.5 26t16.5 26t28.5 11.5q18 0 29 -10t11 -27q0 -18 -15 -31t-39.5 -18t-41.5 -6.5t-34 -1.5q-16 0 -33 1.5t-41.5 6.5t-39.5 18t-15 31q0 17 11 27t29 10q17 0 28.5 -11.5t17 -26t16.5 -26t27 -11.5z" />
    <glyph glyph-name="abreve" unicode="&#x103;" horiz-adv-x="617" 
d="M607 0h-81l-25 64q-56 -49 -137.5 -70t-155 -11.5t-126 60t-52.5 132.5q0 64 34 113t86.5 72t122.5 15t135 -53l-21 52q-59 131 -192 95q-80 -23 -154 -69l-7 13l132 88q77 49 170 18.5t123 -114.5zM105 175q0 -74 40.5 -120t97 -54t119.5 20t105 90q14 20 1 47l-47 122
q-10 28 -38 40q-90 40 -152 29.5t-94 -56t-32 -118.5zM289 655q17 0 28.5 11.5t16.5 26t16.5 26t28.5 11.5q18 0 29 -10t11 -27q0 -18 -15 -31t-39.5 -18t-41.5 -6.5t-34 -1.5q-16 0 -33 1.5t-41.5 6.5t-39.5 18t-15 31q0 17 11 27t29 10q17 0 28.5 -11.5t17 -26t16.5 -26
t27 -11.5z" />
    <glyph glyph-name="Aogonek" unicode="&#x104;" horiz-adv-x="757" 
d="M722 0h-84l-115 262q-5 11 -16 13q-20 4 -46 -3l-24 -8l-99 -47q-128 -66 -158 17q-8 -35 -21 -84.5t-21 -83t-13 -66.5h-90l337 768h12zM513 287l-160 367q-41 -86 -95 -213t-70 -186q-2 -8 7 -14.5t18 -5.5q5 1 8.5 1.5t10 3t12 5t19 9t26 12.5l37.5 18t49 23
q35 16 63.5 15t42 -9t32.5 -26zM638 0h29q-26 -22 -43 -60.5t-11 -66.5q4 -23 19 -30t57 2l7 -16q-46 -31 -86 -26t-51.5 36.5t6.5 75.5q21 41 73 85z" />
    <glyph glyph-name="aogonek" unicode="&#x105;" horiz-adv-x="617" 
d="M607 0h-81l-25 64q-56 -49 -137.5 -70t-155 -11.5t-126 60t-52.5 132.5q0 64 34 113t86.5 72t122.5 15t135 -53l-21 52q-59 131 -192 95q-80 -23 -154 -69l-7 13l132 88q77 49 170 18.5t123 -114.5zM105 175q0 -74 40.5 -120t97 -54t119.5 20t105 90q14 20 1 47l-47 122
q-10 28 -38 40q-90 40 -152 29.5t-94 -56t-32 -118.5zM526 0h29q-26 -22 -43 -60.5t-11 -66.5q4 -23 19 -30t57 2l7 -16q-46 -31 -86 -26t-51.5 36.5t6.5 75.5q21 41 73 85z" />
    <glyph glyph-name="Cacute" unicode="&#x106;" horiz-adv-x="791" 
d="M747 279l14 -9q-45 -131 -137 -210.5t-225 -79.5q-89 0 -161 34.5t-116.5 92t-68 128.5t-23.5 149q0 159 90 270.5t236 129.5q101 11 185 -20.5t183 -140.5l-79 -52q-35 59 -70.5 97.5t-80 62.5t-95 23t-115.5 -20q-67 -22 -111.5 -72.5t-61 -114.5t-13 -135t26.5 -138
q38 -103 122 -168t183 -65q83 0 176.5 64t140.5 174zM304 824l-14 15q17 16 40 34q48 40 96 87l52 -46z" />
    <glyph glyph-name="cacute" unicode="&#x107;" 
d="M240 632l-14 15q17 16 40 34q48 40 96 87l52 -46zM539 421l-67 -43q-47 86 -105.5 121t-136.5 10q-49 -16 -78.5 -48.5t-38 -74.5t-5 -85.5t18.5 -90.5q71 -199 221 -181q168 32 232 176l19 -9q-87 -172 -219 -205q-27 -10 -69 -10q-89 0 -154.5 41.5t-95 103.5
t-29.5 135t29.5 135t95 103.5t154.5 41.5q75 0 134 -35.5t94 -84.5z" />
    <glyph glyph-name="Ccircumflex" unicode="&#x108;" horiz-adv-x="791" 
d="M747 279l14 -9q-45 -131 -137 -210.5t-225 -79.5q-89 0 -161 34.5t-116.5 92t-68 128.5t-23.5 149q0 159 90 270.5t236 129.5q101 11 185 -20.5t183 -140.5l-79 -52q-35 59 -70.5 97.5t-80 62.5t-95 23t-115.5 -20q-67 -22 -111.5 -72.5t-61 -114.5t-13 -135t26.5 -138
q38 -103 122 -168t183 -65q83 0 176.5 64t140.5 174zM240 822l-8 13q7 4 62 41q66 45 106 84q40 -39 106 -84q55 -37 62 -41l-8 -13l-160 80z" />
    <glyph glyph-name="ccircumflex" unicode="&#x109;" 
d="M144 630l-8 13q7 4 62 41q66 45 106 84q40 -39 106 -84q55 -37 62 -41l-8 -13l-160 80zM539 421l-67 -43q-47 86 -105.5 121t-136.5 10q-49 -16 -78.5 -48.5t-38 -74.5t-5 -85.5t18.5 -90.5q71 -199 221 -181q168 32 232 176l19 -9q-87 -172 -219 -205q-27 -10 -69 -10
q-89 0 -154.5 41.5t-95 103.5t-29.5 135t29.5 135t95 103.5t154.5 41.5q75 0 134 -35.5t94 -84.5z" />
    <glyph glyph-name="Cdotaccent" unicode="&#x10a;" horiz-adv-x="791" 
d="M445 896l-47 -47q-7 -9 -16 0l-47 47q-7 7 0 16l47 47q9 7 16 0l47 -47q9 -9 0 -16zM747 279l14 -9q-45 -131 -137 -210.5t-225 -79.5q-89 0 -161 34.5t-116.5 92t-68 128.5t-23.5 149q0 159 90 270.5t236 129.5q101 11 185 -20.5t183 -140.5l-79 -52q-35 59 -70.5 97.5
t-80 62.5t-95 23t-115.5 -20q-67 -22 -111.5 -72.5t-61 -114.5t-13 -135t26.5 -138q38 -103 122 -168t183 -65q83 0 176.5 64t140.5 174z" />
    <glyph glyph-name="cdotaccent" unicode="&#x10b;" 
d="M356 667l-47 -47q-7 -9 -16 0l-47 47q-7 7 0 16l47 47q9 7 16 0l47 -47q9 -9 0 -16zM539 421l-67 -43q-47 86 -105.5 121t-136.5 10q-49 -16 -78.5 -48.5t-38 -74.5t-5 -85.5t18.5 -90.5q71 -199 221 -181q168 32 232 176l19 -9q-87 -172 -219 -205q-27 -10 -69 -10
q-89 0 -154.5 41.5t-95 103.5t-29.5 135t29.5 135t95 103.5t154.5 41.5q75 0 134 -35.5t94 -84.5z" />
    <glyph glyph-name="Ccaron" unicode="&#x10c;" horiz-adv-x="791" 
d="M248 969l8 13l160 -80l160 80l8 -13l-62 -42q-69 -47 -106 -83q-37 36 -106 83zM747 279l14 -9q-45 -131 -137 -210.5t-225 -79.5q-89 0 -161 34.5t-116.5 92t-68 128.5t-23.5 149q0 159 90 270.5t236 129.5q101 11 185 -20.5t183 -140.5l-79 -52q-35 59 -70.5 97.5
t-80 62.5t-95 23t-115.5 -20q-67 -22 -111.5 -72.5t-61 -114.5t-13 -135t26.5 -138q38 -103 122 -168t183 -65q83 0 176.5 64t140.5 174z" />
    <glyph glyph-name="ccaron" unicode="&#x10d;" 
d="M129 755l8 13l160 -80l160 80l8 -13l-62 -42q-69 -47 -106 -83q-37 36 -106 83zM539 421l-67 -43q-47 86 -105.5 121t-136.5 10q-49 -16 -78.5 -48.5t-38 -74.5t-5 -85.5t18.5 -90.5q71 -199 221 -181q168 32 232 176l19 -9q-87 -172 -219 -205q-27 -10 -69 -10
q-89 0 -154.5 41.5t-95 103.5t-29.5 135t29.5 135t95 103.5t154.5 41.5q75 0 134 -35.5t94 -84.5z" />
    <glyph glyph-name="Dcaron" unicode="&#x10e;" horiz-adv-x="756" 
d="M176 969l8 13l160 -80l160 80l8 -13l-62 -42q-69 -47 -106 -83q-37 36 -106 83zM726 384q0 -167 -109 -274.5t-278 -109.5h-279v768h279q169 0 278 -107t109 -277zM139 743v-724l163 2q150 0 247.5 105.5t97.5 255.5q0 65 -25.5 129.5t-70 116.5t-110 84t-139.5 32z" />
    <glyph glyph-name="dcaron" unicode="&#x10f;" horiz-adv-x="695" 
d="M475 675q120 -58 129 -170v-11v-3v-491h-80v76q-43 -36 -97 -57t-108 -26t-105.5 9t-91 43.5t-63.5 83t-24 122.5t23.5 124t62.5 88t90 47t104.5 6t109 -40.5t99.5 -86.5v104q0 51 -39.5 99.5t-98.5 87.5q-61 40 -137 73l6 14zM516 156q8 18 8 42v143q0 25 -22 47.5
t-77 54.5q-88 46 -157 33.5t-110.5 -75t-39.5 -150.5q2 -68 24 -119.5t56 -78.5t77.5 -35t86.5 4.5t84 47t70 86.5zM656 660l-39 -48l15 -16l100 102q6 6 0 13l-51 50q-5 7 -12 0l-50 -50q-6 -7 0 -13z" />
    <glyph glyph-name="Dcroat" unicode="&#x110;" horiz-adv-x="797" 
d="M767 384q0 -167 -109 -274.5t-278 -109.5h-279v358h-101v67h101v343h279q169 0 278 -107t109 -277zM180 743v-318h154v-67h-154v-339l163 2q150 0 247.5 105.5t97.5 255.5q0 65 -25.5 129.5t-70 116.5t-110 84t-139.5 32z" />
    <glyph glyph-name="dslash" unicode="&#x111;" horiz-adv-x="733" 
d="M255 767l220 -92q120 -58 129 -170v-11v-3v-491h-80v76q-43 -36 -97 -57t-108 -26t-105.5 9t-91 43.5t-63.5 83t-24 122.5t23.5 124t62.5 88t90 47t104.5 6t109 -40.5t99.5 -86.5v104q0 51 -39.5 99.5t-98.5 87.5q-61 40 -137 73zM516 156q8 18 8 42v143q0 25 -22 47.5
t-77 54.5q-88 46 -157 33.5t-110.5 -75t-39.5 -150.5q2 -68 24 -119.5t56 -78.5t77.5 -35t86.5 4.5t84 47t70 86.5zM399 233v67h334v-67h-334z" />
    <glyph glyph-name="Emacron" unicode="&#x112;" horiz-adv-x="642" 
d="M139 334v-307q163 1 329 27q58 8 134 25v-79h-542v768h542v-79q-76 17 -134 25q-147 23 -329 27v-351q44 88 168 59q30 -7 68.5 -19.5t53 -15.5t36.5 2t46 24l11 -9q-86 -96 -176 -66q-8 2 -25 7t-23.5 7t-20 6t-20 5t-17 3.5t-16 3t-13.5 1t-14 -0.5l-12 -2
q-18 -5 -31 -21.5t-15 -35.5v-4zM459 807h-266v55h266v-55z" />
    <glyph glyph-name="emacron" unicode="&#x113;" 
d="M428 675h-266v55h266v-55zM580 204l19 -9q-87 -172 -219 -205q-27 -10 -69 -10q-89 0 -154.5 41.5t-95 103.5t-29.5 135t29.5 135t95 103.5t154.5 41.5q102 0 169 -48.5t95 -128.5l-442 -172q30 -84 85 -132.5t133 -39.5q70 13 131.5 59t97.5 126zM230 509
q-49 -16 -78.5 -48.5t-38 -75t-5 -86t18.5 -90.5l351 161q-38 84 -100 125.5t-148 13.5z" />
    <glyph glyph-name="Ebreve" unicode="&#x114;" horiz-adv-x="642" 
d="M139 334v-307q163 1 329 27q58 8 134 25v-79h-542v768h542v-79q-76 17 -134 25q-147 23 -329 27v-351q44 88 168 59q30 -7 68.5 -19.5t53 -15.5t36.5 2t46 24l11 -9q-86 -96 -176 -66q-8 2 -25 7t-23.5 7t-20 6t-20 5t-17 3.5t-16 3t-13.5 1t-14 -0.5l-12 -2
q-18 -5 -31 -21.5t-15 -35.5v-4zM335 851q17 0 28.5 11.5t16.5 26t16.5 26t28.5 11.5q18 0 29 -10t11 -27q0 -18 -15 -31t-39.5 -18t-41.5 -6.5t-34 -1.5q-16 0 -33 1.5t-41.5 6.5t-39.5 18t-15 31q0 17 11 27t29 10q17 0 28.5 -11.5t17 -26t16.5 -26t27 -11.5z" />
    <glyph glyph-name="ebreve" unicode="&#x115;" 
d="M296 655q17 0 28.5 11.5t16.5 26t16.5 26t28.5 11.5q18 0 29 -10t11 -27q0 -18 -15 -31t-39.5 -18t-41.5 -6.5t-34 -1.5q-16 0 -33 1.5t-41.5 6.5t-39.5 18t-15 31q0 17 11 27t29 10q17 0 28.5 -11.5t17 -26t16.5 -26t27 -11.5zM580 204l19 -9q-87 -172 -219 -205
q-27 -10 -69 -10q-89 0 -154.5 41.5t-95 103.5t-29.5 135t29.5 135t95 103.5t154.5 41.5q102 0 169 -48.5t95 -128.5l-442 -172q30 -84 85 -132.5t133 -39.5q70 13 131.5 59t97.5 126zM230 509q-49 -16 -78.5 -48.5t-38 -75t-5 -86t18.5 -90.5l351 161q-38 84 -100 125.5
t-148 13.5z" />
    <glyph glyph-name="Edotaccent" unicode="&#x116;" horiz-adv-x="642" 
d="M380 896l-47 -47q-7 -9 -16 0l-47 47q-7 7 0 16l47 47q9 7 16 0l47 -47q9 -9 0 -16zM139 334v-307q163 1 329 27q58 8 134 25v-79h-542v768h542v-79q-76 17 -134 25q-147 23 -329 27v-351q44 88 168 59q30 -7 68.5 -19.5t53 -15.5t36.5 2t46 24l11 -9q-86 -96 -176 -66
q-8 2 -25 7t-23.5 7t-20 6t-20 5t-17 3.5t-16 3t-13.5 1t-14 -0.5l-12 -2q-18 -5 -31 -21.5t-15 -35.5v-4z" />
    <glyph glyph-name="edotaccent" unicode="&#x117;" 
d="M356 667l-47 -47q-7 -9 -16 0l-47 47q-7 7 0 16l47 47q9 7 16 0l47 -47q9 -9 0 -16zM580 204l19 -9q-87 -172 -219 -205q-27 -10 -69 -10q-89 0 -154.5 41.5t-95 103.5t-29.5 135t29.5 135t95 103.5t154.5 41.5q102 0 169 -48.5t95 -128.5l-442 -172q30 -84 85 -132.5
t133 -39.5q70 13 131.5 59t97.5 126zM230 509q-49 -16 -78.5 -48.5t-38 -75t-5 -86t18.5 -90.5l351 161q-38 84 -100 125.5t-148 13.5z" />
    <glyph glyph-name="Eogonek" unicode="&#x118;" horiz-adv-x="642" 
d="M500 0h29q-26 -22 -43 -60.5t-11 -66.5q4 -23 19 -30t57 2l7 -16q-46 -31 -86 -26t-51.5 36.5t6.5 75.5q21 41 73 85zM139 334v-307q163 1 329 27q58 8 134 25v-79h-542v768h542v-79q-76 17 -134 25q-147 23 -329 27v-351q44 88 168 59q30 -7 68.5 -19.5t53 -15.5t36.5 2
t46 24l11 -9q-86 -96 -176 -66q-8 2 -25 7t-23.5 7t-20 6t-20 5t-17 3.5t-16 3t-13.5 1t-14 -0.5l-12 -2q-18 -5 -31 -21.5t-15 -35.5v-4z" />
    <glyph glyph-name="eogonek" unicode="&#x119;" 
d="M320 0h29q-26 -22 -43 -60.5t-11 -66.5q4 -23 19 -30t57 2l7 -16q-46 -31 -86 -26t-51.5 36.5t6.5 75.5q21 41 73 85zM599 195l-19 9q-36 -80 -97.5 -126t-131.5 -59q-78 -9 -133 39.5t-85 132.5l442 172q-28 80 -95 128.5t-169 48.5q-89 0 -154.5 -41.5t-95 -103.5
t-29.5 -135t29.5 -135t95 -103.5t154.5 -41.5q42 0 69 10q132 33 219 205zM230 509q86 28 148 -13.5t100 -125.5l-351 -161q-15 47 -18.5 90.5t5 86t38 75t78.5 48.5z" />
    <glyph glyph-name="Ecaron" unicode="&#x11a;" horiz-adv-x="642" 
d="M165 969l8 13l160 -80l160 80l8 -13l-62 -42q-69 -47 -106 -83q-37 36 -106 83zM139 334v-307q163 1 329 27q58 8 134 25v-79h-542v768h542v-79q-76 17 -134 25q-147 23 -329 27v-351q44 88 168 59q30 -7 68.5 -19.5t53 -15.5t36.5 2t46 24l11 -9q-86 -96 -176 -66
q-8 2 -25 7t-23.5 7t-20 6t-20 5t-17 3.5t-16 3t-13.5 1t-14 -0.5l-12 -2q-18 -5 -31 -21.5t-15 -35.5v-4z" />
    <glyph glyph-name="ecaron" unicode="&#x11b;" 
d="M133 755l8 13l160 -80l160 80l8 -13l-62 -42q-69 -47 -106 -83q-37 36 -106 83zM580 204l19 -9q-87 -172 -219 -205q-27 -10 -69 -10q-89 0 -154.5 41.5t-95 103.5t-29.5 135t29.5 135t95 103.5t154.5 41.5q102 0 169 -48.5t95 -128.5l-442 -172q30 -84 85 -132.5
t133 -39.5q70 13 131.5 59t97.5 126zM230 509q-49 -16 -78.5 -48.5t-38 -75t-5 -86t18.5 -90.5l351 161q-38 84 -100 125.5t-148 13.5z" />
    <glyph glyph-name="Gcircumflex" unicode="&#x11c;" horiz-adv-x="797" 
d="M355 288l194 120q33 20 70.5 16.5t66.5 -25t51 -54t23.5 -70.5t-15.5 -75q-1 -1 -1 -2q-54 -94 -143.5 -155.5t-196.5 -61.5q-89 0 -161 34.5t-116.5 92t-68 128.5t-23.5 149q0 160 90 272t236 130q101 11 185 -20.5t183 -140.5l-79 -52q-35 59 -70.5 97.5t-80 62.5
t-95 23t-115.5 -20q-67 -22 -111 -73t-60.5 -116t-13 -136t26.5 -138q38 -102 120.5 -165t183.5 -67q126 -6 221 93q43 44 43.5 106.5t-34.5 94.5q-28 33 -72.5 33t-126.5 -42l-105 -53zM240 822l-8 13q7 4 62 41q66 45 106 84q40 -39 106 -84q55 -37 62 -41l-8 -13l-160 80
z" />
    <glyph glyph-name="gcircumflex" unicode="&#x11d;" horiz-adv-x="697" 
d="M476 83q59 57 125 33q51 -18 69 -70q24 -70 -36 -132q-39 -41 -110 -69l-351 -165l-6 14q55 28 151 82q164 95 233 154q32 28 35 61.5t-17 53.5t-50 16q-27 -5 -57.5 -27t-59 -48.5t-60 -53t-70 -44t-78.5 -17.5q-52 0 -93.5 21.5t-60.5 57t-19 76.5t32 84t91 75
q-48 45 -59 106.5t13 116.5t91 93.5t163 38.5q35 0 78 -9q26 -6 60 6q34 11 52 21l20 9l8 -11l-68 -48l6 -3q48 -25 77 -64t36.5 -82t-6.5 -87t-46.5 -78.5t-89 -56.5t-127.5 -22q-99 0 -166 39q-19 10 -35.5 3.5t-27.5 -22.5q-32 -52 -22.5 -95t44 -70t75.5 -27
q112 0 256 140zM352 515q-101 0 -146.5 -52.5t-45.5 -133.5q0 -82 46 -136t146 -54q101 0 146 53.5t45 136.5q0 81 -45.5 133.5t-145.5 52.5zM191 630l-8 13q7 4 62 41q66 45 106 84q40 -39 106 -84q55 -37 62 -41l-8 -13l-160 80z" />
    <glyph glyph-name="Gbreve" unicode="&#x11e;" horiz-adv-x="797" 
d="M404 851q17 0 28.5 11.5t16.5 26t16.5 26t28.5 11.5q18 0 29 -10t11 -27q0 -18 -15 -31t-39.5 -18t-41.5 -6.5t-34 -1.5q-16 0 -33 1.5t-41.5 6.5t-39.5 18t-15 31q0 17 11 27t29 10q17 0 28.5 -11.5t17 -26t16.5 -26t27 -11.5zM355 288l194 120q33 20 70.5 16.5
t66.5 -25t51 -54t23.5 -70.5t-15.5 -75q-1 -1 -1 -2q-54 -94 -143.5 -155.5t-196.5 -61.5q-89 0 -161 34.5t-116.5 92t-68 128.5t-23.5 149q0 160 90 272t236 130q101 11 185 -20.5t183 -140.5l-79 -52q-35 59 -70.5 97.5t-80 62.5t-95 23t-115.5 -20q-67 -22 -111 -73
t-60.5 -116t-13 -136t26.5 -138q38 -102 120.5 -165t183.5 -67q126 -6 221 93q43 44 43.5 106.5t-34.5 94.5q-28 33 -72.5 33t-126.5 -42l-105 -53z" />
    <glyph glyph-name="gbreve" unicode="&#x11f;" horiz-adv-x="697" 
d="M357 655q17 0 28.5 11.5t16.5 26t16.5 26t28.5 11.5q18 0 29 -10t11 -27q0 -18 -15 -31t-39.5 -18t-41.5 -6.5t-34 -1.5q-16 0 -33 1.5t-41.5 6.5t-39.5 18t-15 31q0 17 11 27t29 10q17 0 28.5 -11.5t17 -26t16.5 -26t27 -11.5zM476 83q59 57 125 33q51 -18 69 -70
q24 -70 -36 -132q-39 -41 -110 -69l-351 -165l-6 14q55 28 151 82q164 95 233 154q32 28 35 61.5t-17 53.5t-50 16q-27 -5 -57.5 -27t-59 -48.5t-60 -53t-70 -44t-78.5 -17.5q-52 0 -93.5 21.5t-60.5 57t-19 76.5t32 84t91 75q-48 45 -59 106.5t13 116.5t91 93.5t163 38.5
q35 0 78 -9q26 -6 60 6q34 11 52 21l20 9l8 -11l-68 -48l6 -3q48 -25 77 -64t36.5 -82t-6.5 -87t-46.5 -78.5t-89 -56.5t-127.5 -22q-99 0 -166 39q-19 10 -35.5 3.5t-27.5 -22.5q-32 -52 -22.5 -95t44 -70t75.5 -27q112 0 256 140zM352 515q-101 0 -146.5 -52.5
t-45.5 -133.5q0 -82 46 -136t146 -54q101 0 146 53.5t45 136.5q0 81 -45.5 133.5t-145.5 52.5z" />
    <glyph glyph-name="Gdotaccent" unicode="&#x120;" horiz-adv-x="797" 
d="M454 896l-47 -47q-7 -9 -16 0l-47 47q-7 7 0 16l47 47q9 7 16 0l47 -47q9 -9 0 -16zM549 408q33 20 70.5 16.5t66.5 -25t51 -54t23.5 -70.5t-15.5 -75q-1 -1 -1 -2q-54 -94 -143.5 -155.5t-196.5 -61.5q-89 0 -161 34.5t-116.5 92t-68 128.5t-23.5 149q0 160 90 272
t236 130q101 11 185 -20.5t183 -140.5l-79 -52q-35 59 -70.5 97.5t-80 62.5t-95 23t-115.5 -20q-67 -22 -111 -73t-60.5 -116t-13 -136t26.5 -138q38 -102 120.5 -165t183.5 -67q126 -6 221 93q43 44 43.5 106.5t-34.5 94.5q-28 33 -72.5 33t-126.5 -42l-105 -53l-6 14z" />
    <glyph glyph-name="gdotaccent" unicode="&#x121;" horiz-adv-x="697" 
d="M405 667l-47 -47q-7 -9 -16 0l-47 47q-7 7 0 16l47 47q9 7 16 0l47 -47q9 -9 0 -16zM476 83q59 57 125 33q51 -18 69 -70q24 -70 -36 -132q-39 -41 -110 -69l-351 -165l-6 14q55 28 151 82q164 95 233 154q32 28 35 61.5t-17 53.5t-50 16q-27 -5 -57.5 -27t-59 -48.5
t-60 -53t-70 -44t-78.5 -17.5q-52 0 -93.5 21.5t-60.5 57t-19 76.5t32 84t91 75q-48 45 -59 106.5t13 116.5t91 93.5t163 38.5q35 0 78 -9q26 -6 60 6q34 11 52 21l20 9l8 -11l-68 -48l6 -3q48 -25 77 -64t36.5 -82t-6.5 -87t-46.5 -78.5t-89 -56.5t-127.5 -22
q-99 0 -166 39q-19 10 -35.5 3.5t-27.5 -22.5q-32 -52 -22.5 -95t44 -70t75.5 -27q112 0 256 140zM352 515q-101 0 -146.5 -52.5t-45.5 -133.5q0 -82 46 -136t146 -54q101 0 146 53.5t45 136.5q0 81 -45.5 133.5t-145.5 52.5z" />
    <glyph glyph-name="uni0122" unicode="&#x122;" horiz-adv-x="797" 
d="M344 -195l39 48l-37 38q-6 6 0 13l50 50q8 8 12 0l51 -50q6 -7 0 -13l-100 -102zM355 288l194 120q33 20 70.5 16.5t66.5 -25t51 -54t23.5 -70.5t-15.5 -75q-1 -1 -1 -2q-54 -94 -143.5 -155.5t-196.5 -61.5q-89 0 -161 34.5t-116.5 92t-68 128.5t-23.5 149q0 160 90 272
t236 130q101 11 185 -20.5t183 -140.5l-79 -52q-35 59 -70.5 97.5t-80 62.5t-95 23t-115.5 -20q-67 -22 -111 -73t-60.5 -116t-13 -136t26.5 -138q38 -102 120.5 -165t183.5 -67q126 -6 221 93q43 44 43.5 106.5t-34.5 94.5q-28 33 -72.5 33t-126.5 -42l-105 -53z" />
    <glyph glyph-name="uni0123" unicode="&#x123;" horiz-adv-x="697" 
d="M406 778l-39 -48l37 -38q6 -6 0 -13l-50 -50q-8 -7 -12 0l-51 50q-6 7 0 13l100 102zM476 83q59 57 125 33q51 -18 69 -70q24 -70 -36 -132q-39 -41 -110 -69l-351 -165l-6 14q55 28 151 82q164 95 233 154q32 28 35 61.5t-17 53.5t-50 16q-27 -5 -57.5 -27t-59 -48.5
t-60 -53t-70 -44t-78.5 -17.5q-52 0 -93.5 21.5t-60.5 57t-19 76.5t32 84t91 75q-48 45 -59 106.5t13 116.5t91 93.5t163 38.5q35 0 78 -9q26 -6 60 6q34 11 52 21l20 9l8 -11l-68 -48l6 -3q48 -25 77 -64t36.5 -82t-6.5 -87t-46.5 -78.5t-89 -56.5t-127.5 -22
q-99 0 -166 39q-19 10 -35.5 3.5t-27.5 -22.5q-32 -52 -22.5 -95t44 -70t75.5 -27q112 0 256 140zM352 515q-101 0 -146.5 -52.5t-45.5 -133.5q0 -82 46 -136t146 -54q101 0 146 53.5t45 136.5q0 81 -45.5 133.5t-145.5 52.5z" />
    <glyph glyph-name="Hcircumflex" unicode="&#x124;" horiz-adv-x="682" 
d="M181 822l-8 13q7 4 62 41q66 45 106 84q40 -39 106 -84q55 -37 62 -41l-8 -13l-160 80zM543 768h79v-768h-79v385q0 23 -24 28q-3 3 -16.5 0.5t-18 -2t-20.5 -5.5t-25 -9t-31.5 -12.5t-39.5 -17t-49.5 -21t-60.5 -25.5q-79 -36 -119 22v-343h-79v768h79v-385
q0 -8 5.5 -14.5t13.5 -6.5q20 0 56.5 14.5t192.5 82.5q39 17 76.5 8t59.5 -39v340z" />
    <glyph glyph-name="hcircumflex" unicode="&#x125;" horiz-adv-x="571" 
d="M140 822l-8 13q7 4 62 41q66 45 106 84q40 -39 106 -84q55 -37 62 -41l-8 -13l-160 80zM530 405v-104v-301h-80v278v96q0 58 -34 87t-93 15q-60 -15 -169 -65q-22 -10 -24 -36v-375h-80v505q9 112 129 170l220 92l6 -14q-79 -34 -138 -73q-137 -89 -137 -187v-77
q60 30 196 90q46 19 90.5 16t78 -35t35.5 -82z" />
    <glyph glyph-name="Hbar" unicode="&#x126;" horiz-adv-x="681" 
d="M671 551h-661v49h661v-49zM542 768h79v-768h-79v385q0 23 -24 28q-3 3 -16.5 0.5t-18 -2t-20.5 -5.5t-25 -9t-31.5 -12.5t-39.5 -17t-49.5 -21t-60.5 -25.5q-79 -36 -119 22v-343h-79v768h79v-385q0 -8 5.5 -14.5t13.5 -6.5q20 0 56.5 14.5t192.5 82.5q39 17 76.5 8
t59.5 -39v340z" />
    <glyph glyph-name="hbar" unicode="&#x127;" horiz-adv-x="571" 
d="M397 590h-387v49h387v-49zM530 405v-104v-301h-80v278v96q0 58 -34 87t-93 15q-60 -15 -169 -65q-22 -10 -24 -36v-375h-80v505q9 112 129 170l220 92l6 -14q-79 -34 -138 -73q-137 -89 -137 -187v-77q60 30 196 90q46 19 90.5 16t78 -35t35.5 -82z" />
    <glyph glyph-name="Itilde" unicode="&#x128;" horiz-adv-x="291" 
d="M198 875q-7 2 -41 12.5t-45.5 13t-40.5 7t-45.5 1t-40 -12.5t-43.5 -26l-12 8q44 54 89.5 71.5t112.5 -0.5q51 -15 70.5 -20t52.5 -9t54 4t40 27l12 -9q-76 -92 -163 -67zM186 768v-768h-79v768h79z" />
    <glyph glyph-name="itilde" unicode="&#x129;" horiz-adv-x="275" 
d="M174 520v-520h-80v520h80zM181 624q-7 2 -29.5 10.5t-31.5 11.5t-29 8t-32 4t-29 -3.5t-31.5 -12t-28.5 -23.5l-10 8q35 53 74 71t92 0q51 -19 75 -25.5t53.5 -2t50.5 29.5l10 -9q-30 -42 -61.5 -62t-72.5 -5z" />
    <glyph glyph-name="Imacron" unicode="&#x12a;" horiz-adv-x="246" 
d="M256 808h-266v55v0h266v-55zM157 768v-768h-79v768h79z" />
    <glyph glyph-name="imacron" unicode="&#x12b;" horiz-adv-x="246" 
d="M256 683h-266v55v0h266v-55zM163 520v-520h-80v0v520h80z" />
    <glyph glyph-name="Iogonek" unicode="&#x12e;" horiz-adv-x="263" 
d="M145 0h29q-26 -22 -43 -60.5t-11 -66.5q4 -23 19 -30t57 2l7 -16q-46 -31 -86 -26t-51.5 36.5t6.5 75.5q21 41 73 85zM175 768v-768h-79v768h79z" />
    <glyph glyph-name="iogonek" unicode="&#x12f;" horiz-adv-x="249" 
d="M135 0h29q-26 -22 -43 -60.5t-11 -66.5q4 -23 19 -30t57 2l7 -16q-46 -31 -86 -26t-51.5 36.5t6.5 75.5q21 41 73 85zM164 520v-520h-80v520h80zM194 717l-65 -35q-4 -1 -8 0l-65 35q-5 2 -5 7.5t5 8.5l65 34q4 1 8 0l65 -34q5 -3 5 -8.5t-5 -7.5z" />
    <glyph glyph-name="Idot" unicode="&#x130;" horiz-adv-x="257" 
d="M167 768v-768h-79v768h79zM183 896l-47 -47q-7 -9 -16 0l-47 47q-7 7 0 16l47 47q9 7 16 0l47 -47q9 -9 0 -16z" />
    <glyph glyph-name="dotlessi" unicode="&#x131;" horiz-adv-x="260" 
d="M170 519v-519h-80v0v519h80z" />
    <glyph glyph-name="IJ" unicode="&#x132;" horiz-adv-x="664" 
d="M174 768v-768h-79v768h79zM524 768h80v-810q-9 -112 -129 -170l-256 -108l-6 14q89 38 155 79q156 97 156 197v682q-68 -43 -129 -67l-177 -75l-6 14q75 38 138 78q143 91 174 166z" />
    <glyph glyph-name="ij" unicode="&#x133;" horiz-adv-x="478" 
d="M158 520v-520h-80v520h80zM188 717l-65 -35q-4 -1 -8 0l-65 35q-5 2 -5 7.5t5 8.5l65 34q4 1 8 0l65 -34q5 -3 5 -8.5t-5 -7.5zM319 -30v550h80v-562q-9 -112 -129 -170l-256 -108l-6 14q89 38 155 79q156 97 156 197zM428 716l-65 -35q-4 -1 -8 0l-65 35q-5 2 -5 7.5
t5 8.5l65 34q4 1 8 0l65 -34q5 -3 5 -8.5t-5 -7.5z" />
    <glyph glyph-name="Jcircumflex" unicode="&#x134;" horiz-adv-x="452" 
d="M191 822l-8 13q7 4 62 41q66 45 106 84q40 -39 106 -84q55 -37 62 -41l-8 -13l-160 80zM312 768h80v-810q-9 -112 -129 -170l-256 -108l-6 14q89 38 155 79q156 97 156 197v682q-68 -43 -129 -67l-177 -75l-6 14q75 38 138 78q143 91 174 166z" />
    <glyph glyph-name="jcircumflex" unicode="&#x135;" horiz-adv-x="244" 
d="M81 -30v550h80v-562q-9 -112 -129 -170l-256 -108l-6 14q89 38 155 79q156 97 156 197zM-40 630l-8 13q7 4 62 41q66 45 106 84q40 -39 106 -84q55 -37 62 -41l-8 -13l-160 80z" />
    <glyph glyph-name="uni0136" unicode="&#x136;" horiz-adv-x="720" 
d="M488 307q23 -31 55 -95.5t59 -118t82 -116.5t126 -105l-12 -15q-126 57 -201 133t-139 206q-24 51 -60.5 94.5t-77.5 64.5q-81 38 -131 -6l-50 -45v-304h-79v768h79v-1v-420q64 64 292 295q67 68 123 126h91l-400 -368q66 20 131.5 -6.5t111.5 -86.5zM297 -195l39 48
l-37 38q-6 6 0 13l50 50q7 8 12 0l51 -50q6 -7 0 -13l-100 -102z" />
    <glyph glyph-name="uni0137" unicode="&#x137;" horiz-adv-x="539" 
d="M275 312l254 -312h-98l-227 282l-70 -34v-248h-80v491v3v11q9 112 129 170l220 92l6 -14q-79 -34 -138 -73q-137 -89 -137 -187v-215l197 92q24 10 34.5 26.5t-3.5 41.5l-46 51q-24 24 -48 31h70q50 0 82 -38l28 -34q12 -14 8 -32.5t-21 -26.5zM213 -195l39 48l-37 38
q-6 6 0 13l50 50q7 8 12 0l51 -50q6 -7 0 -13l-100 -102z" />
    <glyph glyph-name="kgreenlandic" unicode="&#x138;" horiz-adv-x="539" 
 />
    <glyph glyph-name="Lacute" unicode="&#x139;" horiz-adv-x="637" 
d="M110 824l-14 15q17 16 40 34q48 40 96 87l52 -46zM144 768v-728q145 1 324 21q70 7 129 18v-79h-532v768h79z" />
    <glyph glyph-name="lacute" unicode="&#x13a;" horiz-adv-x="241" 
d="M110 824l-14 15q17 16 40 34q48 40 96 87l52 -46zM55 0v521q0 121 127 182l148 63l6 -14l-6 -3q-7 -3 -19.5 -9t-27 -13.5t-33.5 -18.5t-37 -22q-15 -9 -29.5 -24.5t-31 -52t-17.5 -81.5v-528h-80z" />
    <glyph glyph-name="uni013B" unicode="&#x13b;" horiz-adv-x="637" 
d="M264 -195l39 48l-37 38q-6 6 0 13l50 50q8 8 12 0l51 -50q6 -7 0 -13l-100 -102zM144 768v-728q145 1 324 21q70 7 129 18v-79h-532v768h79z" />
    <glyph glyph-name="uni013C" unicode="&#x13c;" horiz-adv-x="241" 
d="M37 -195l39 48l-37 38q-6 6 0 13l50 50q7 8 12 0l51 -50q6 -7 0 -13l-100 -102zM55 0v521q0 121 127 182l148 63l6 -14l-6 -3q-7 -3 -19.5 -9t-27 -13.5t-33.5 -18.5t-37 -22q-15 -9 -29.5 -24.5t-31 -52t-17.5 -81.5v-528h-80z" />
    <glyph glyph-name="Lcaron" unicode="&#x13d;" horiz-adv-x="637" 
d="M85 969l8 13l160 -80l160 80l8 -13l-62 -42q-69 -47 -106 -83q-37 36 -106 83zM144 768v-728q145 1 324 21q70 7 129 18v-79h-532v768h79z" />
    <glyph glyph-name="lcaron" unicode="&#x13e;" horiz-adv-x="241" 
d="M-22 969l8 13l160 -80l160 80l8 -13l-62 -42q-69 -47 -106 -83q-37 36 -106 83zM55 0v521q0 121 127 182l148 63l6 -14l-6 -3q-7 -3 -19.5 -9t-27 -13.5t-33.5 -18.5t-37 -22q-15 -9 -29.5 -24.5t-31 -52t-17.5 -81.5v-528h-80z" />
    <glyph glyph-name="Ldot" unicode="&#x13f;" horiz-adv-x="637" 
d="M144 768v-728q145 1 324 21q70 7 129 18v-79h-532v768h79zM356 476l-50 51q-6 6 0 13l50 50q7 7 13 0l51 -50q6 -7 0 -13l-51 -51q-6 -6 -13 0z" />
    <glyph glyph-name="ldot" unicode="&#x140;" horiz-adv-x="241" 
d="M55 0v521q0 121 127 182l148 63l6 -14l-6 -3q-7 -3 -19.5 -9t-27 -13.5t-33.5 -18.5t-37 -22q-15 -9 -29.5 -24.5t-31 -52t-17.5 -81.5v-528h-80zM219 476l-50 51q-6 6 0 13l50 50q7 7 13 0l51 -50q6 -7 0 -13l-51 -51q-6 -6 -13 0z" />
    <glyph glyph-name="Lslash" unicode="&#x141;" horiz-adv-x="762" 
d="M269 768v-335l194 86l7 -14l-201 -98v-367q145 1 324 21q71 7 129 18v-79h-532v369l-72 -35q-59 -30 -31 -68l44 -46q24 -24 48 -31h-70q-50 0 -82 38l-28 34q-12 14 -8 32.5t21 26.5l178 78v370h79z" />
    <glyph glyph-name="lslash" unicode="&#x142;" horiz-adv-x="430" 
d="M463 519l7 -14l-201 -97v-53v-355h-80v355v14l-71 -35q-59 -30 -31 -68l44 -46q24 -24 48 -31h-70q-50 0 -82 38l-28 34q-12 14 -8 32.5t21 26.5l177 79v38v84q0 121 127 182l148 63l6 -14l-6 -3q-7 -3 -19.5 -9t-27 -13.5t-33.5 -18.5t-37 -22q-15 -9 -29.5 -24.5
t-31 -52t-17.5 -81.5v-91v-3z" />
    <glyph glyph-name="Nacute" unicode="&#x143;" horiz-adv-x="766" 
d="M364 824l-14 15q17 16 40 34q48 40 96 87l52 -46zM706 18l-61 -28q-27 -11 -46 -11q-56 0 -113 75q-35 46 -71 138t-61.5 178t-63.5 176t-79 135q-17 19 -44 36t-44 17q-20 0 -20 -26q0 -333 25 -550q10 -92 25 -158h-93v745l67 32q24 11 45 11q29 0 64 -26
q56 -43 104.5 -138t77.5 -189.5t66 -196t70 -147.5q10 -15 40.5 -38.5t47.5 -23.5q20 0 20 30q0 303 -25 543q-10 99 -24 166h93v-750z" />
    <glyph glyph-name="nacute" unicode="&#x144;" horiz-adv-x="575" 
d="M530 405v-405h-80v374q0 48 -21 72t-51.5 26.5t-72 -8t-74 -24.5t-65.5 -29l-12 -6q-24 -11 -24 -38v-367h-80v520h80v-104q60 30 196 90q46 19 90.5 16t78 -35t35.5 -82zM247 632l-14 15q17 16 40 34q48 40 96 87l52 -46z" />
    <glyph glyph-name="uni0145" unicode="&#x145;" horiz-adv-x="766" 
d="M316 -195l39 48l-37 38q-6 6 0 13l50 50q8 8 12 0l51 -50q6 -7 0 -13l-100 -102zM706 18l-61 -28q-27 -11 -46 -11q-56 0 -113 75q-35 46 -71 138t-61.5 178t-63.5 176t-79 135q-17 19 -44 36t-44 17q-20 0 -20 -26q0 -333 25 -550q10 -92 25 -158h-93v745l67 32
q24 11 45 11q29 0 64 -26q56 -43 104.5 -138t77.5 -189.5t66 -196t70 -147.5q10 -15 40.5 -38.5t47.5 -23.5q20 0 20 30q0 303 -25 543q-10 99 -24 166h93v-750z" />
    <glyph glyph-name="uni0146" unicode="&#x146;" horiz-adv-x="575" 
d="M530 405v-405h-80v374q0 48 -21 72t-51.5 26.5t-72 -8t-74 -24.5t-65.5 -29l-12 -6q-24 -11 -24 -38v-367h-80v520h80v-104q60 30 196 90q46 19 90.5 16t78 -35t35.5 -82zM229 -195l39 48l-37 38q-6 6 0 13l50 50q7 8 12 0l51 -50q6 -7 0 -13l-100 -102z" />
    <glyph glyph-name="Ncaron" unicode="&#x147;" horiz-adv-x="766" 
d="M232 969l8 13l160 -80l160 80l8 -13l-62 -42q-69 -47 -106 -83q-37 36 -106 83zM706 18l-61 -28q-27 -11 -46 -11q-56 0 -113 75q-35 46 -71 138t-61.5 178t-63.5 176t-79 135q-17 19 -44 36t-44 17q-20 0 -20 -26q0 -333 25 -550q10 -92 25 -158h-93v745l67 32
q24 11 45 11q29 0 64 -26q56 -43 104.5 -138t77.5 -189.5t66 -196t70 -147.5q10 -15 40.5 -38.5t47.5 -23.5q20 0 20 30q0 303 -25 543q-10 99 -24 166h93v-750z" />
    <glyph glyph-name="ncaron" unicode="&#x148;" horiz-adv-x="575" 
d="M530 405v-405h-80v374q0 48 -21 72t-51.5 26.5t-72 -8t-74 -24.5t-65.5 -29l-12 -6q-24 -11 -24 -38v-367h-80v520h80v-104q60 30 196 90q46 19 90.5 16t78 -35t35.5 -82zM118 755l8 13l160 -80l160 80l8 -13l-62 -42q-69 -47 -106 -83q-37 36 -106 83z" />
    <glyph glyph-name="napostrophe" unicode="&#x149;" horiz-adv-x="575" 
d="M530 405v-405h-80v374q0 48 -21 72t-51.5 26.5t-72 -8t-74 -24.5t-65.5 -29l-12 -6q-24 -11 -24 -38v-367h-80v520h80v-104q60 30 196 90q46 19 90.5 16t78 -35t35.5 -82zM-13 612l39 48l-37 38q-6 6 0 13l50 50q7 7 12 0l51 -50q6 -7 0 -13l-100 -102z" />
    <glyph glyph-name="Omacron" unicode="&#x14c;" horiz-adv-x="800" 
d="M518 808h-266v55h266v-55zM399 788q90 0 162 -34.5t117 -92t68.5 -128.5t23.5 -149t-23.5 -149t-68.5 -128.5t-117 -92t-162 -34.5q-89 0 -161 34.5t-116.5 92t-68 128.5t-23.5 149t23.5 149t68 128.5t116.5 92t161 34.5zM519 35q68 23 111.5 73t58.5 113t10.5 131
t-26.5 135q-47 142 -151 218t-236 31q-67 -22 -112 -71.5t-62 -112t-14 -132t26 -136.5q60 -159 161 -226.5t234 -22.5z" />
    <glyph glyph-name="omacron" unicode="&#x14d;" horiz-adv-x="623" 
d="M311 540q90 0 155.5 -41.5t95 -103.5t29.5 -135t-29.5 -135t-95.5 -103.5t-155 -41.5t-154.5 41.5t-95 103.5t-29.5 135t29.5 135t95 103.5t154.5 41.5zM395 12q52 17 82 50.5t37.5 77t2.5 88t-21 93.5q-13 38 -29.5 70t-40 61.5t-52 45.5t-65 21.5t-78.5 -10.5
q-50 -17 -80 -51t-38 -77.5t-3.5 -88.5t20.5 -93t38.5 -86t56.5 -69.5t75.5 -39t94.5 7.5zM428 675h-266v55h266v-55z" />
    <glyph glyph-name="Obreve" unicode="&#x14e;" horiz-adv-x="800" 
d="M390 851q17 0 28.5 11.5t16.5 26t16.5 26t28.5 11.5q18 0 29 -10t11 -27q0 -18 -15 -31t-39.5 -18t-41.5 -6.5t-34 -1.5q-16 0 -33 1.5t-41.5 6.5t-39.5 18t-15 31q0 17 11 27t29 10q17 0 28.5 -11.5t17 -26t16.5 -26t27 -11.5zM399 788q90 0 162 -34.5t117 -92
t68.5 -128.5t23.5 -149t-23.5 -149t-68.5 -128.5t-117 -92t-162 -34.5q-89 0 -161 34.5t-116.5 92t-68 128.5t-23.5 149t23.5 149t68 128.5t116.5 92t161 34.5zM519 35q68 23 111.5 73t58.5 113t10.5 131t-26.5 135q-47 142 -151 218t-236 31q-67 -22 -112 -71.5t-62 -112
t-14 -132t26 -136.5q60 -159 161 -226.5t234 -22.5z" />
    <glyph glyph-name="obreve" unicode="&#x14f;" horiz-adv-x="623" 
d="M311 540q90 0 155.5 -41.5t95 -103.5t29.5 -135t-29.5 -135t-95.5 -103.5t-155 -41.5t-154.5 41.5t-95 103.5t-29.5 135t29.5 135t95 103.5t154.5 41.5zM395 12q52 17 82 50.5t37.5 77t2.5 88t-21 93.5q-13 38 -29.5 70t-40 61.5t-52 45.5t-65 21.5t-78.5 -10.5
q-50 -17 -80 -51t-38 -77.5t-3.5 -88.5t20.5 -93t38.5 -86t56.5 -69.5t75.5 -39t94.5 7.5zM306 655q17 0 28.5 11.5t16.5 26t16.5 26t28.5 11.5q18 0 29 -10t11 -27q0 -18 -15 -31t-39.5 -18t-41.5 -6.5t-34 -1.5q-16 0 -33 1.5t-41.5 6.5t-39.5 18t-15 31q0 17 11 27t29 10
q17 0 28.5 -11.5t17 -26t16.5 -26t27 -11.5z" />
    <glyph glyph-name="Ohungarumlaut" unicode="&#x150;" horiz-adv-x="800" 
d="M399 788q90 0 162 -34.5t117 -92t68.5 -128.5t23.5 -149t-23.5 -149t-68.5 -128.5t-117 -92t-162 -34.5q-89 0 -161 34.5t-116.5 92t-68 128.5t-23.5 149t23.5 149t68 128.5t116.5 92t161 34.5zM519 35q68 23 111.5 73t58.5 113t10.5 131t-26.5 135q-47 142 -151 218
t-236 31q-67 -22 -112 -71.5t-62 -112t-14 -132t26 -136.5q60 -159 161 -226.5t234 -22.5zM272 824l-14 15q17 16 40 34q48 40 96 87l52 -46zM423 824l-14 15q17 16 40 34q48 40 96 87l52 -46z" />
    <glyph glyph-name="ohungarumlaut" unicode="&#x151;" horiz-adv-x="623" 
d="M176 632l-14 15q17 16 40 34q48 40 96 87l52 -46zM327 632l-14 15q17 16 40 34q48 40 96 87l52 -46zM311 540q90 0 155.5 -41.5t95 -103.5t29.5 -135t-29.5 -135t-95.5 -103.5t-155 -41.5t-154.5 41.5t-95 103.5t-29.5 135t29.5 135t95 103.5t154.5 41.5zM395 12
q52 17 82 50.5t37.5 77t2.5 88t-21 93.5q-13 38 -29.5 70t-40 61.5t-52 45.5t-65 21.5t-78.5 -10.5q-50 -17 -80 -51t-38 -77.5t-3.5 -88.5t20.5 -93t38.5 -86t56.5 -69.5t75.5 -39t94.5 7.5z" />
    <glyph glyph-name="OE" unicode="&#x152;" horiz-adv-x="1151" 
d="M648 694v-145v-159q14 30 40 45q33 21 77 20q23 0 51 -6q30 -7 68.5 -19.5t53 -15.5t36.5 2t46 24l11 -9q-86 -96 -176 -66q-19 6 -50 14.5t-35 9.5q-49 13 -74 6h-2q-18 -5 -31 -21.5t-15 -35.5v-4v-204v-55v-48q163 1 329 27q58 8 134 25v-79h-542v18q-76 -38 -170 -38
q-89 0 -161 34.5t-116.5 92t-68 128.5t-23.5 149t23.5 149t68 128.5t116.5 92t161 34.5q94 0 170 -38v18h542v-79q-76 17 -134 25q-147 23 -329 27v-47zM569 126v495q0 48 -39 78q-110 82 -244 37q-67 -22 -112 -71.5t-62 -112t-14 -132t26 -136.5q60 -159 161 -226.5
t234 -22.5h1q49 19 49 91z" />
    <glyph glyph-name="oe" unicode="&#x153;" horiz-adv-x="1109" 
d="M1084 196l-19 9q-36 -80 -97.5 -126t-131.5 -59q-78 -9 -133 39.5t-85 132.5l442 172q-28 80 -95 128.5t-169 48.5q-167 0 -242 -132q-35 61 -96.5 96.5t-146.5 35.5q-89 0 -154.5 -41.5t-95 -103.5t-29.5 -135t29.5 -135t95 -103.5t154.5 -41.5q167 0 243 133
q34 -61 95.5 -97t146.5 -36q42 0 69 10q132 33 219 205zM395 13q-53 -15 -94.5 -7.5t-75.5 39t-56.5 69.5t-38.5 86t-20.5 93t3.5 88.5t38 77.5t80 51q42 16 78.5 10.5t65 -21.5t52 -45.5t40 -61.5t29.5 -70q16 -46 21 -93q20 -170 -122 -216zM715 510q86 28 148 -13.5
t100 -125.5l-351 -161q-15 47 -18.5 90.5t5 86t38 75t78.5 48.5z" />
    <glyph glyph-name="Racute" unicode="&#x154;" horiz-adv-x="714" 
d="M482 309q23 -31 55 -95.5t59 -118t82 -116.5t126 -105l-12 -15q-126 57 -201 133t-139 206q-44 90 -101 121t-164 35h-48v-354h-79v769h200q33 0 55 -0.5t59.5 -5t63 -12t56 -22.5t49 -36.5t31 -55t12.5 -75.5q0 -83 -63.5 -135.5t-153.5 -61.5q74 -5 113 -56zM180 379
q84 -1 146 9.5t96.5 26.5t55 41.5t26.5 49t6 54.5q0 32 -7 58.5t-18.5 45.5t-30.5 33t-37 22.5t-44 14t-46.5 8t-50 2.5t-48.5 -1l-47.5 -2.5t-41.5 -1.5v-318q0 -24 9.5 -33t31.5 -9zM265 824l-14 15q17 16 40 34q48 40 96 87l52 -46z" />
    <glyph glyph-name="racute" unicode="&#x155;" horiz-adv-x="385" 
d="M100 632l-14 15q17 16 40 34q48 40 96 87l52 -46zM299 406q-18 5 -46 38t-45 31q-24 -4 -53.5 -40t-29.5 -63v-372h-80v520h80v-99q27 37 62 72t56 37q20 1 38 -12t30 -29t29 -29.5t35 -13.5l10 2q-28 -23 -31 -25q-38 -24 -55 -17z" />
    <glyph glyph-name="uni0156" unicode="&#x156;" horiz-adv-x="714" 
d="M336 -147l-39 -48l15 -16l100 102q6 6 0 13l-51 50q-5 8 -12 0l-50 -50q-6 -7 0 -13zM482 309q-39 51 -113 56q90 9 153.5 61.5t63.5 135.5q0 42 -12.5 75.5t-31 55t-49 36.5t-56 22.5t-63 12t-59.5 5t-55 0.5h-200v-769h79v354h48q107 -4 164 -35t101 -121
q64 -130 139 -206t201 -133l12 15q-71 42 -126 105t-82 116.5t-59 118t-55 95.5zM180 379q-22 0 -31.5 9t-9.5 33v318q13 0 41.5 1.5l47.5 2.5t48.5 1t50 -2.5t46.5 -8t44 -14t37 -22.5t30.5 -33t18.5 -45.5t7 -58.5q0 -31 -6 -54.5t-26.5 -49t-55 -41.5t-96.5 -26.5
t-146 -9.5z" />
    <glyph glyph-name="uni0157" unicode="&#x157;" horiz-adv-x="385" 
d="M27 -195l39 48l-37 38q-6 6 0 13l50 50q7 8 12 0l51 -50q6 -7 0 -13l-100 -102zM299 406q-18 5 -46 38t-45 31q-24 -4 -53.5 -40t-29.5 -63v-372h-80v520h80v-99q27 37 62 72t56 37q20 1 38 -12t30 -29t29 -29.5t35 -13.5l10 2q-28 -23 -31 -25q-38 -24 -55 -17z" />
    <glyph glyph-name="Rcaron" unicode="&#x158;" horiz-adv-x="714" 
d="M482 309q23 -31 55 -95.5t59 -118t82 -116.5t126 -105l-12 -15q-126 57 -201 133t-139 206q-44 90 -101 121t-164 35h-48v-354h-79v769h200q33 0 55 -0.5t59.5 -5t63 -12t56 -22.5t49 -36.5t31 -55t12.5 -75.5q0 -83 -63.5 -135.5t-153.5 -61.5q74 -5 113 -56zM180 379
q84 -1 146 9.5t96.5 26.5t55 41.5t26.5 49t6 54.5q0 32 -7 58.5t-18.5 45.5t-30.5 33t-37 22.5t-44 14t-46.5 8t-50 2.5t-48.5 -1l-47.5 -2.5t-41.5 -1.5v-318q0 -24 9.5 -33t31.5 -9zM131 969l8 13l160 -80l160 80l8 -13l-62 -42q-69 -47 -106 -83q-37 36 -106 83z" />
    <glyph glyph-name="rcaron" unicode="&#x159;" horiz-adv-x="385" 
d="M34 755l8 13l160 -80l160 80l8 -13l-62 -42q-69 -47 -106 -83q-37 36 -106 83zM299 406q-18 5 -46 38t-45 31q-24 -4 -53.5 -40t-29.5 -63v-372h-80v520h80v-99q27 37 62 72t56 37q20 1 38 -12t30 -29t29 -29.5t35 -13.5l10 2q-28 -23 -31 -25q-38 -24 -55 -17z" />
    <glyph glyph-name="Sacute" unicode="&#x15a;" horiz-adv-x="731" 
d="M691 208q0 -61 -29.5 -107.5t-77 -72t-97 -38t-97.5 -12.5q-116 0 -210 56.5t-140 169.5l19 10q24 -48 66 -86.5t92 -60.5t104.5 -33t104.5 -3t90.5 28.5t64.5 62t24 97.5q0 21 -4 38.5t-14 31t-19 24t-27.5 19t-30 14t-36.5 11.5t-37.5 8.5t-41 8t-40.5 7.5
q-11 2 -44 6.5t-53 8.5t-52.5 12t-52.5 20.5t-41 30.5t-31 44.5t-10 60.5q1 73 51 125.5t118 74.5t145 22q87 0 164.5 -46.5t131.5 -127.5l-74 -45q-92 192 -248 192q-81 0 -149 -47.5t-63 -134.5q3 -46 35 -73t80 -38t105.5 -17.5t114.5 -18.5t104 -33.5t76 -69t29 -119.5
q0 -61 -29.5 -107.5t-77 -72t-97 -38t-97.5 -12.5q-116 0 -210 56.5t-140 169.5l19 10q24 -48 66 -86.5t92 -60.5t104.5 -33t104.5 -3t90.5 28.5t64.5 62t24 97.5q0 21 -4 38.5t-14 31t-19 24t-27.5 19t-30 14t-36.5 11.5t-37.5 8.5t-41 8t-40.5 7.5q-11 2 -44 6.5t-53 8.5
t-52.5 12t-52.5 20.5t-41 30.5t-31 44.5t-10 60.5q1 73 51 125.5t118 74.5t145 22q87 0 164.5 -46.5t131.5 -127.5l-74 -45q-92 192 -248 192q-81 0 -149 -47.5t-63 -134.5q3 -46 35 -73t80 -38t105.5 -17.5t114.5 -18.5t104 -33.5t76 -69t29 -119.5zM333 827l-14 15
q17 16 40 34q48 40 96 87l52 -46z" />
    <glyph glyph-name="sacute" unicode="&#x15b;" horiz-adv-x="563" 
d="M237 632l-14 15q17 16 40 34q48 40 96 87l52 -46zM132 388q0 -31 22 -48t58 -23t79 -9t85.5 -10t78.5 -22t58 -49t22 -87q0 -54 -41 -92.5t-92 -53t-103 -14.5q-91 0 -165 39t-109 118l17 9q23 -39 58 -66t73.5 -39t68.5 -16.5t58 -4.5q59 0 105.5 32t46.5 89
q0 96 -181 109q-5 0 -27.5 2t-31 3t-30 4t-31 5.5t-27 8.5t-26.5 12.5t-20.5 16.5t-17 22t-9.5 28t-3 35q2 68 65 106.5t149 45.5q24 2 35 2q75 0 134 -35.5t94 -85.5l-67 -43q-92 172 -229 135q-45 -14 -71 -48t-26 -76z" />
    <glyph glyph-name="Scircumflex" unicode="&#x15c;" horiz-adv-x="731" 
d="M200 822l-8 13q7 4 62 41q66 45 106 84q40 -39 106 -84q55 -37 62 -41l-8 -13l-160 80zM691 208q0 -61 -29.5 -107.5t-77 -72t-97 -38t-97.5 -12.5q-116 0 -210 56.5t-140 169.5l19 10q24 -48 66 -86.5t92 -60.5t104.5 -33t104.5 -3t90.5 28.5t64.5 62t24 97.5
q0 21 -4 38.5t-14 31t-19 24t-27.5 19t-30 14t-36.5 11.5t-37.5 8.5t-41 8t-40.5 7.5q-11 2 -44 6.5t-53 8.5t-52.5 12t-52.5 20.5t-41 30.5t-31 44.5t-10 60.5q1 73 51 125.5t118 74.5t145 22q87 0 164.5 -46.5t131.5 -127.5l-74 -45q-92 192 -248 192q-81 0 -149 -47.5
t-63 -134.5q3 -46 35 -73t80 -38t105.5 -17.5t114.5 -18.5t104 -33.5t76 -69t29 -119.5q0 -61 -29.5 -107.5t-77 -72t-97 -38t-97.5 -12.5q-116 0 -210 56.5t-140 169.5l19 10q24 -48 66 -86.5t92 -60.5t104.5 -33t104.5 -3t90.5 28.5t64.5 62t24 97.5q0 21 -4 38.5t-14 31
t-19 24t-27.5 19t-30 14t-36.5 11.5t-37.5 8.5t-41 8t-40.5 7.5q-11 2 -44 6.5t-53 8.5t-52.5 12t-52.5 20.5t-41 30.5t-31 44.5t-10 60.5q1 73 51 125.5t118 74.5t145 22q87 0 164.5 -46.5t131.5 -127.5l-74 -45q-92 192 -248 192q-81 0 -149 -47.5t-63 -134.5
q3 -46 35 -73t80 -38t105.5 -17.5t114.5 -18.5t104 -33.5t76 -69t29 -119.5z" />
    <glyph glyph-name="scircumflex" unicode="&#x15d;" horiz-adv-x="563" 
d="M115 630l-8 13q7 4 62 41q66 45 106 84q40 -39 106 -84q55 -37 62 -41l-8 -13l-160 80zM132 388q0 -31 22 -48t58 -23t79 -9t85.5 -10t78.5 -22t58 -49t22 -87q0 -54 -41 -92.5t-92 -53t-103 -14.5q-91 0 -165 39t-109 118l17 9q23 -39 58 -66t73.5 -39t68.5 -16.5
t58 -4.5q59 0 105.5 32t46.5 89q0 96 -181 109q-5 0 -27.5 2t-31 3t-30 4t-31 5.5t-27 8.5t-26.5 12.5t-20.5 16.5t-17 22t-9.5 28t-3 35q2 68 65 106.5t149 45.5q24 2 35 2q75 0 134 -35.5t94 -85.5l-67 -43q-92 172 -229 135q-45 -14 -71 -48t-26 -76z" />
    <glyph glyph-name="Scedilla" unicode="&#x15e;" horiz-adv-x="731" 
d="M691 208q0 -61 -29.5 -107.5t-77 -72t-97 -38t-97.5 -12.5q-116 0 -210 56.5t-140 169.5l19 10q24 -48 66 -86.5t92 -60.5t104.5 -33t104.5 -3t90.5 28.5t64.5 62t24 97.5q0 21 -4 38.5t-14 31t-19 24t-27.5 19t-30 14t-36.5 11.5t-37.5 8.5t-41 8t-40.5 7.5
q-11 2 -44 6.5t-53 8.5t-52.5 12t-52.5 20.5t-41 30.5t-31 44.5t-10 60.5q1 73 51 125.5t118 74.5t145 22q87 0 164.5 -46.5t131.5 -127.5l-74 -45q-92 192 -248 192q-81 0 -149 -47.5t-63 -134.5q3 -46 35 -73t80 -38t105.5 -17.5t114.5 -18.5t104 -33.5t76 -69t29 -119.5
q0 -61 -29.5 -107.5t-77 -72t-97 -38t-97.5 -12.5q-116 0 -210 56.5t-140 169.5l19 10q24 -48 66 -86.5t92 -60.5t104.5 -33t104.5 -3t90.5 28.5t64.5 62t24 97.5q0 21 -4 38.5t-14 31t-19 24t-27.5 19t-30 14t-36.5 11.5t-37.5 8.5t-41 8t-40.5 7.5q-11 2 -44 6.5t-53 8.5
t-52.5 12t-52.5 20.5t-41 30.5t-31 44.5t-10 60.5q1 73 51 125.5t118 74.5t145 22q87 0 164.5 -46.5t131.5 -127.5l-74 -45q-92 192 -248 192q-81 0 -149 -47.5t-63 -134.5q3 -46 35 -73t80 -38t105.5 -17.5t114.5 -18.5t104 -33.5t76 -69t29 -119.5zM361 -18h49
q-3 -11 -10.5 -21.5t-14 -16.5t-13.5 -12l-8 -5q41 3 65.5 -16t24.5 -52q0 -32 -23 -51t-57 -19q-15 0 -36 7t-29 12l8 17q16 -8 53 -15q20 -2 34.5 12t14.5 37t-14.5 38t-37.5 15q-9 0 -16 -1q-2 -1 -7 1q-7 4 -2 13q14 23 19 57z" />
    <glyph glyph-name="scedilla" unicode="&#x15f;" horiz-adv-x="563" 
d="M132 388q0 -31 22 -48t58 -23t79 -9t85.5 -10t78.5 -22t58 -49t22 -87q0 -54 -41 -92.5t-92 -53t-103 -14.5q-91 0 -165 39t-109 118l17 9q23 -39 58 -66t73.5 -39t68.5 -16.5t58 -4.5q59 0 105.5 32t46.5 89q0 96 -181 109q-5 0 -27.5 2t-31 3t-30 4t-31 5.5t-27 8.5
t-26.5 12.5t-20.5 16.5t-17 22t-9.5 28t-3 35q2 68 65 106.5t149 45.5q24 2 35 2q75 0 134 -35.5t94 -85.5l-67 -43q-92 172 -229 135q-45 -14 -71 -48t-26 -76zM261 -18h49q-3 -11 -10.5 -21.5t-14 -16.5t-13.5 -12l-8 -5q41 3 65.5 -16t24.5 -52q0 -32 -23 -51t-57 -19
q-15 0 -36 7t-29 12l8 17q16 -8 53 -15q20 -2 34.5 12t14.5 37t-14.5 38t-37.5 15q-9 0 -16 -1q-2 -1 -7 1q-7 4 -2 13q14 23 19 57z" />
    <glyph glyph-name="Scaron" unicode="&#x160;" horiz-adv-x="731" 
d="M200 969l8 13l160 -80l160 80l8 -13l-62 -42q-69 -47 -106 -83q-37 36 -106 83zM691 208q0 -61 -29.5 -107.5t-77 -72t-97 -38t-97.5 -12.5q-116 0 -210 56.5t-140 169.5l19 10q24 -48 66 -86.5t92 -60.5t104.5 -33t104.5 -3t90.5 28.5t64.5 62t24 97.5q0 21 -4 38.5
t-14 31t-19 24t-27.5 19t-30 14t-36.5 11.5t-37.5 8.5t-41 8t-40.5 7.5q-11 2 -44 6.5t-53 8.5t-52.5 12t-52.5 20.5t-41 30.5t-31 44.5t-10 60.5q1 73 51 125.5t118 74.5t145 22q87 0 164.5 -46.5t131.5 -127.5l-74 -45q-92 192 -248 192q-81 0 -149 -47.5t-63 -134.5
q3 -46 35 -73t80 -38t105.5 -17.5t114.5 -18.5t104 -33.5t76 -69t29 -119.5z" />
    <glyph glyph-name="scaron" unicode="&#x161;" horiz-adv-x="563" 
d="M121 755l8 13l160 -80l160 80l8 -13l-62 -42q-69 -47 -106 -83q-37 36 -106 83zM132 388q0 -31 22 -48t58 -23t79 -9t85.5 -10t78.5 -22t58 -49t22 -87q0 -54 -41 -92.5t-92 -53t-103 -14.5q-91 0 -165 39t-109 118l17 9q23 -39 58 -66t73.5 -39t68.5 -16.5t58 -4.5
q59 0 105.5 32t46.5 89q0 96 -181 109q-5 0 -27.5 2t-31 3t-30 4t-31 5.5t-27 8.5t-26.5 12.5t-20.5 16.5t-17 22t-9.5 28t-3 35q2 68 65 106.5t149 45.5q24 2 35 2q75 0 134 -35.5t94 -85.5l-67 -43q-92 172 -229 135q-45 -14 -71 -48t-26 -76z" />
    <glyph glyph-name="uni0162" unicode="&#x162;" horiz-adv-x="714" 
d="M400 0h-80v729q-138 -10 -225 -25q-25 -4 -80 -16v80h684v-80q-56 12 -79 16q-83 15 -220 25v-729zM320 0h80q-4 -17 -15 -31.5t-22 -22t-21 -13.5l-10 -6q41 3 65.5 -16t24.5 -52q0 -32 -23 -51t-57 -19q-15 0 -36 7t-29 12l8 17q16 -8 53 -15q20 -2 34.5 12t14.5 37
t-14.5 38t-37.5 15q-9 0 -16 -1q-2 -1 -7 1q-7 4 -2 13l4 5q4 5 7.5 11.5t6 15.5t1 20.5t-8.5 22.5z" />
    <glyph glyph-name="uni0163" unicode="&#x163;" horiz-adv-x="435" 
d="M410 53l5 -13q-11 -5 -50.5 -21.5t-53.5 -22.5q-47 -21 -96 -15q-4 -10 -12 -18.5t-16 -14.5t-15 -10.5t-12 -7.5l-6 -3q41 3 65.5 -16t24.5 -52q0 -32 -23 -51t-57 -19q-15 0 -36 7t-29 12l8 17q16 -8 53 -15q20 -2 34.5 12t14.5 37t-14.5 38t-37.5 15q-9 0 -16 -1
q-2 -1 -7 1q-7 4 -2 13l6 5q5 5 9 12t7 17.5t-2.5 27t-18.5 36.5q-28 31 -29 75q-1 12 -1 104v258h-68v60h68q0 13 2.5 28.5t12 47t36.5 60.5t68 47l148 63l6 -14q-20 -8 -38 -18q-50 -26 -85 -48q-25 -15 -49 -56.5t-24 -109.5h196v-60h-180q-9 0 -15 -6t-6 -15v-310
q0 -58 34.5 -91.5t92.5 -18.5q67 15 108 34z" />
    <glyph glyph-name="Tcaron" unicode="&#x164;" horiz-adv-x="714" 
d="M194 969l8 13l160 -80l160 80l8 -13l-62 -42q-69 -47 -106 -83q-37 36 -106 83zM400 0h-80v729q-138 -10 -225 -25q-25 -4 -80 -16v80h684v-80q-56 12 -79 16q-83 15 -220 25v-729z" />
    <glyph glyph-name="tcaron" unicode="&#x165;" horiz-adv-x="468" 
d="M400 581l39 48l-37 38q-6 6 0 13l50 50q8 8 12 0l51 -50q6 -7 0 -13l-100 -102zM410 53l5 -13q-11 -5 -50.5 -21.5t-53.5 -22.5q-32 -16 -68 -16.5t-66 12t-50.5 40.5t-22.5 66q-1 12 -1 104v258h-68v60h68q0 13 2.5 28.5t12 47t36.5 60.5t68 47l148 63l6 -14
q-20 -8 -38 -18q-50 -26 -85 -48q-25 -15 -49 -56.5t-24 -109.5h196v-60h-180q-9 0 -15 -6t-6 -15v-221v-89q0 -58 34.5 -91.5t92.5 -18.5q67 15 108 34z" />
    <glyph glyph-name="Tbar" unicode="&#x166;" horiz-adv-x="714" 
d="M599 471h-482v50h482v-50zM400 0h-80v729q-138 -10 -225 -25q-25 -4 -80 -16v80h684v-80q-56 12 -79 16q-83 15 -220 25v-729z" />
    <glyph glyph-name="tbar" unicode="&#x167;" horiz-adv-x="435" 
d="M376 325h-341v50h341v-50zM410 53l5 -13q-11 -5 -50.5 -21.5t-53.5 -22.5q-32 -16 -68 -16.5t-66 12t-50.5 40.5t-22.5 66q-1 12 -1 104v258h-68v60h68q0 13 2.5 28.5t12 47t36.5 60.5t68 47l148 63l6 -14q-20 -8 -38 -18q-50 -26 -85 -48q-25 -15 -49 -56.5t-24 -109.5
h196v-60h-180q-9 0 -15 -6t-6 -15v-221v-89q0 -58 34.5 -91.5t92.5 -18.5q67 15 108 34z" />
    <glyph glyph-name="Utilde" unicode="&#x168;" horiz-adv-x="751" 
d="M413 875q-7 2 -41 12.5t-45.5 13t-40.5 7t-45.5 1t-40 -12.5t-43.5 -26l-12 8q44 54 89.5 71.5t112.5 -0.5q51 -15 70.5 -20t52.5 -9t54 4t40 27l12 -9q-76 -92 -163 -67zM539 768h82q95 -441 95 -487q0 -142 -97.5 -221.5t-260.5 -79.5q-144 0 -233.5 78.5t-89.5 190.5
q0 187 206 303q26 17 26 30q0 8 -4 12l-197 174h119l152 -138q12 -12 12 -24q0 -14 -19 -26l-74 -51q-138 -105 -138 -252q0 -109 72 -190.5t168 -81.5q105 0 192.5 71t87.5 174q0 15 -99 518z" />
    <glyph glyph-name="utilde" unicode="&#x169;" horiz-adv-x="538" 
d="M408 520h79v-520h-79v101q-105 -71 -158 -95q-33 -16 -73 -16q-53 0 -92.5 34.5t-39.5 90.5v405h79v-374q0 -60 35.5 -92t93.5 -15q51 16 135 68q20 13 20 35v378zM325 624q-7 2 -41 12.5t-45.5 13t-40.5 7t-45.5 1t-40 -12.5t-43.5 -26l-12 8q44 54 89.5 71.5
t112.5 -0.5q51 -15 70.5 -20t52.5 -9t54 4t40 27l12 -9q-76 -92 -163 -67z" />
    <glyph glyph-name="Umacron" unicode="&#x16a;" horiz-adv-x="751" 
d="M539 768h82q95 -441 95 -487q0 -142 -97.5 -221.5t-260.5 -79.5q-144 0 -233.5 78.5t-89.5 190.5q0 187 206 303q26 17 26 30q0 8 -4 12l-197 174h119l152 -138q12 -12 12 -24q0 -14 -19 -26l-74 -51q-138 -105 -138 -252q0 -109 72 -190.5t168 -81.5q105 0 192.5 71
t87.5 174q0 15 -99 518zM500 807h-266v55h266v-55z" />
    <glyph glyph-name="umacron" unicode="&#x16b;" horiz-adv-x="537" 
d="M400 683h-266v55h266v-55zM408 520h79v-520h-79v101q-105 -71 -158 -95q-33 -16 -73 -16q-53 0 -92.5 34.5t-39.5 90.5v405h79v-374q0 -60 35.5 -92t93.5 -15q51 16 135 68q20 13 20 35v378z" />
    <glyph glyph-name="Ubreve" unicode="&#x16c;" horiz-adv-x="751" 
d="M383 851q17 0 28.5 11.5t16.5 26t16.5 26t28.5 11.5q18 0 29 -10t11 -27q0 -18 -15 -31t-39.5 -18t-41.5 -6.5t-34 -1.5q-16 0 -33 1.5t-41.5 6.5t-39.5 18t-15 31q0 17 11 27t29 10q17 0 28.5 -11.5t17 -26t16.5 -26t27 -11.5zM539 768h82q95 -441 95 -487
q0 -142 -97.5 -221.5t-260.5 -79.5q-144 0 -233.5 78.5t-89.5 190.5q0 187 206 303q26 17 26 30q0 8 -4 12l-197 174h119l152 -138q12 -12 12 -24q0 -14 -19 -26l-74 -51q-138 -105 -138 -252q0 -109 72 -190.5t168 -81.5q105 0 192.5 71t87.5 174q0 15 -99 518z" />
    <glyph glyph-name="ubreve" unicode="&#x16d;" horiz-adv-x="537" 
d="M264 652q17 0 28.5 11.5t16.5 26t16.5 26t28.5 11.5q18 0 29 -10t11 -27q0 -18 -15 -31t-39.5 -18t-41.5 -6.5t-34 -1.5q-16 0 -33 1.5t-41.5 6.5t-39.5 18t-15 31q0 17 11 27t29 10q17 0 28.5 -11.5t17 -26t16.5 -26t27 -11.5zM408 520h79v-520h-79v101
q-105 -71 -158 -95q-33 -16 -73 -16q-53 0 -92.5 34.5t-39.5 90.5v405h79v-374q0 -60 35.5 -92t93.5 -15q51 16 135 68q20 13 20 35v378z" />
    <glyph glyph-name="Uring" unicode="&#x16e;" horiz-adv-x="751" 
d="M311 893q0 28 20 48t47 20q28 0 48 -20t20 -48q0 -27 -20 -47t-48 -20q-27 0 -47 20t-20 47zM347 873q11 -17 28 -23t30 3q14 9 14.5 26.5t-11.5 34.5q-11 18 -27 23t-30 -4q-13 -8 -14 -25.5t10 -34.5zM539 768h82q95 -441 95 -487q0 -142 -97.5 -221.5t-260.5 -79.5
q-144 0 -233.5 78.5t-89.5 190.5q0 187 206 303q26 17 26 30q0 8 -4 12l-197 174h119l152 -138q12 -12 12 -24q0 -14 -19 -26l-74 -51q-138 -105 -138 -252q0 -109 72 -190.5t168 -81.5q105 0 192.5 71t87.5 174q0 15 -99 518z" />
    <glyph glyph-name="uring" unicode="&#x16f;" horiz-adv-x="537" 
d="M202 700q0 28 20 48t47 20q28 0 48 -20t20 -48q0 -27 -20 -47t-48 -20q-27 0 -47 20t-20 47zM238 680q11 -17 28 -23t30 3q14 9 14.5 26.5t-11.5 34.5q-11 18 -27 23t-30 -4q-13 -8 -14 -25.5t10 -34.5zM408 520h79v-520h-79v101q-105 -71 -158 -95q-33 -16 -73 -16
q-53 0 -92.5 34.5t-39.5 90.5v405h79v-374q0 -60 35.5 -92t93.5 -15q51 16 135 68q20 13 20 35v378z" />
    <glyph glyph-name="Uhungarumlaut" unicode="&#x170;" horiz-adv-x="751" 
d="M270 824l-14 15q17 16 40 34q48 40 96 87l52 -46zM421 824l-14 15q17 16 40 34q48 40 96 87l52 -46zM539 768h82q95 -441 95 -487q0 -142 -97.5 -221.5t-260.5 -79.5q-144 0 -233.5 78.5t-89.5 190.5q0 187 206 303q26 17 26 30q0 8 -4 12l-197 174h119l152 -138
q12 -12 12 -24q0 -14 -19 -26l-74 -51q-138 -105 -138 -252q0 -109 72 -190.5t168 -81.5q105 0 192.5 71t87.5 174q0 15 -99 518z" />
    <glyph glyph-name="uhungarumlaut" unicode="&#x171;" horiz-adv-x="537" 
d="M153 632l-14 15q17 16 40 34q48 40 96 87l52 -46zM304 632l-14 15q17 16 40 34q48 40 96 87l52 -46zM408 520h79v-520h-79v101q-105 -71 -158 -95q-33 -16 -73 -16q-53 0 -92.5 34.5t-39.5 90.5v405h79v-374q0 -60 35.5 -92t93.5 -15q51 16 135 68q20 13 20 35v378z" />
    <glyph glyph-name="Uogonek" unicode="&#x172;" horiz-adv-x="751" 
d="M377 0h29q-26 -22 -43 -60.5t-11 -66.5q4 -23 19 -30t57 2l7 -16q-46 -31 -86 -26t-51.5 36.5t6.5 75.5q21 41 73 85zM539 768h82q95 -441 95 -487q0 -142 -97.5 -221.5t-260.5 -79.5q-144 0 -233.5 78.5t-89.5 190.5q0 187 206 303q26 17 26 30q0 8 -4 12l-197 174h119
l152 -138q12 -12 12 -24q0 -14 -19 -26l-74 -51q-138 -105 -138 -252q0 -109 72 -190.5t168 -81.5q105 0 192.5 71t87.5 174q0 15 -99 518z" />
    <glyph glyph-name="uogonek" unicode="&#x173;" horiz-adv-x="537" 
d="M408 0h29q-26 -22 -43 -60.5t-11 -66.5q4 -23 19 -30t57 2l7 -16q-46 -31 -86 -26t-51.5 36.5t6.5 75.5q21 41 73 85zM408 520h79v-520h-79v101q-105 -71 -158 -95q-33 -16 -73 -16q-53 0 -92.5 34.5t-39.5 90.5v405h79v-374q0 -60 35.5 -92t93.5 -15q51 16 135 68
q20 13 20 35v378z" />
    <glyph glyph-name="Wcircumflex" unicode="&#x174;" horiz-adv-x="1016" 
d="M329 844l-8 13q7 4 62 41q66 45 106 84q40 -39 106 -84q55 -37 62 -41l-8 -13l-160 80zM865 768l109 -306q35 -95 -25 -184l-194 -278h-68l-104 286l-200 -286h-75l-273 768h94l236 -688q5 -12 17 -13.5t18 9.5l163 266l-148 426h87l239 -688q5 -11 17 -12.5t18 9.5
l93 159q61 106 25 209l-117 323h88z" />
    <glyph glyph-name="wcircumflex" unicode="&#x175;" horiz-adv-x="764" 
d="M212 630l-8 13q7 4 62 41q66 45 106 84q40 -39 106 -84q55 -37 62 -41l-8 -13l-160 80zM647 520l68 -196q20 -54 -6 -110l-143 -214h-85l-60 169l-116 -169h-85l-185 520h89l153 -447q5 -12 18.5 -16t24.5 10l95 118l-119 335h89l153 -447q3 -12 18.5 -16t25.5 10l74 96
q17 30 8 60l-106 297h89z" />
    <glyph glyph-name="Ycircumflex" unicode="&#x176;" horiz-adv-x="709" 
d="M195 844l-8 13q7 4 62 41q66 45 106 84q40 -39 106 -84q55 -37 62 -41l-8 -13l-160 80zM577 769h102l-260 -366q-24 -33 -24 -59v-344h-40h-41v344q0 26 -24 59l-260 366h103q55 -128 115.5 -228t106.5 -153q46 53 106.5 153t115.5 228z" />
    <glyph glyph-name="ycircumflex" unicode="&#x177;" horiz-adv-x="537" 
d="M108 630l-8 13q7 4 62 41q66 45 106 84q40 -39 106 -84q55 -37 62 -41l-8 -13l-160 80zM487 520v-562q-9 -112 -129 -170l-256 -108l-6 14q89 38 155 79q156 97 156 197v132v-1q-70 -47 -157 -87q-46 -18 -90.5 -15t-78 34.5t-35.5 81.5v103v302h80v-278v-96
q0 -59 34.5 -90t92.5 -14q60 19 135 65q19 12 19 35v378h80z" />
    <glyph glyph-name="Ydieresis" unicode="&#x178;" horiz-adv-x="709" 
d="M288 894l-47 -47q-7 -9 -16 0l-47 47q-7 7 0 16l47 47q9 7 16 0l47 -47q9 -9 0 -16zM527 894l-47 -47q-7 -9 -16 0l-47 47q-7 7 0 16l47 47q9 7 16 0l47 -47q9 -9 0 -16zM577 769h102l-260 -366q-24 -33 -24 -59v-344h-40h-41v344q0 26 -24 59l-260 366h103
q55 -128 115.5 -228t106.5 -153q46 53 106.5 153t115.5 228z" />
    <glyph glyph-name="Zacute" unicode="&#x179;" horiz-adv-x="759" 
d="M326 824l-14 15q17 16 40 34q48 40 96 87l52 -46zM439 412q-40 -22 -92 -63.5t-104 -93.5t-87.5 -112t-35.5 -109q217 7 426 27q114 10 183 19v-80h-699q0 69 27 128t75.5 103t95.5 76.5t107 70t90 62.5q85 67 143 148.5t58 144.5q-281 -12 -422 -26q-90 -9 -169 -18v80
h685q0 -31 -5 -59.5t-11.5 -51t-21.5 -46t-24.5 -39t-32 -35t-33.5 -29.5t-38.5 -28t-37 -24t-40 -23.5t-37.5 -21.5z" />
    <glyph glyph-name="zacute" unicode="&#x17a;" horiz-adv-x="560" 
d="M247 632l-14 15q17 16 40 34q48 40 96 87l52 -46zM323 279q-59 -33 -125.5 -111t-66.5 -138q120 6 272 29l116 21v-80h-479q0 51 19 93t52.5 72t66 51t74 45t62.5 41q53 43 84 94.5t31 92.5q-147 -10 -267 -29q-87 -15 -112 -20v80h470q0 -39 -9.5 -71t-22 -52t-36.5 -40
t-39.5 -29t-46.5 -25.5t-43 -23.5z" />
    <glyph glyph-name="Zdotaccent" unicode="&#x17b;" horiz-adv-x="759" 
d="M439 412q-40 -22 -92 -63.5t-104 -93.5t-87.5 -112t-35.5 -109q217 7 426 27q114 10 183 19v-80h-699q0 69 27 128t75.5 103t95.5 76.5t107 70t90 62.5q85 67 143 148.5t58 144.5q-281 -12 -422 -26q-90 -9 -169 -18v80h685q0 -31 -5 -59.5t-11.5 -51t-21.5 -46
t-24.5 -39t-32 -35t-33.5 -29.5t-38.5 -28t-37 -24t-40 -23.5t-37.5 -21.5zM424 896l-47 -47q-7 -9 -16 0l-47 47q-7 7 0 16l47 47q9 7 16 0l47 -47q9 -9 0 -16z" />
    <glyph glyph-name="zdotaccent" unicode="&#x17c;" horiz-adv-x="560" 
d="M340 667l-47 -47q-7 -9 -16 0l-47 47q-7 7 0 16l47 47q9 7 16 0l47 -47q9 -9 0 -16zM323 279q-59 -33 -125.5 -111t-66.5 -138q120 6 272 29l116 21v-80h-479q0 51 19 93t52.5 72t66 51t74 45t62.5 41q53 43 84 94.5t31 92.5q-147 -10 -267 -29q-87 -15 -112 -20v80h470
q0 -39 -9.5 -71t-22 -52t-36.5 -40t-39.5 -29t-46.5 -25.5t-43 -23.5z" />
    <glyph glyph-name="Zcaron" unicode="&#x17d;" horiz-adv-x="759" 
d="M210 969l8 13l160 -80l160 80l8 -13l-62 -42q-69 -47 -106 -83q-37 36 -106 83zM439 412q-40 -22 -92 -63.5t-104 -93.5t-87.5 -112t-35.5 -109q217 7 426 27q114 10 183 19v-80h-699q0 69 27 128t75.5 103t95.5 76.5t107 70t90 62.5q85 67 143 148.5t58 144.5
q-281 -12 -422 -26q-90 -9 -169 -18v80h685q0 -31 -5 -59.5t-11.5 -51t-21.5 -46t-24.5 -39t-32 -35t-33.5 -29.5t-38.5 -28t-37 -24t-40 -23.5t-37.5 -21.5z" />
    <glyph glyph-name="zcaron" unicode="&#x17e;" horiz-adv-x="560" 
d="M128 755l8 13l160 -80l160 80l8 -13l-62 -42q-69 -47 -106 -83q-37 36 -106 83zM323 279q-59 -33 -125.5 -111t-66.5 -138q120 6 272 29l116 21v-80h-479q0 51 19 93t52.5 72t66 51t74 45t62.5 41q53 43 84 94.5t31 92.5q-147 -10 -267 -29q-87 -15 -112 -20v80h470
q0 -39 -9.5 -71t-22 -52t-36.5 -40t-39.5 -29t-46.5 -25.5t-43 -23.5z" />
    <glyph glyph-name="florin" unicode="&#x192;" horiz-adv-x="491" 
d="M421 461h-115v-245.5v-155.5t0.5 -80t0.5 -38.5v-11.5q0 -121 -64 -186t-173 -65v15q45 0 78 20.5t48.5 53.5t22.5 64t7 62v567h-115v61h115v14.5v16.5v15.5t-1 16t-2 14t-3 13.5t-4.5 11t-6 9.5t-7.5 5.5l-45 22q-19 7 -17 26q0 26 69.5 54.5t89.5 28.5q15 0 33.5 -8
t28 -14t40.5 -27l-7 -11q-28 15 -49 15q-10 0 -23 -5l-114 -51q-5 -3 -5 -8t5 -7l51 -25q45 -24 47 -82v-24h115v-61z" />
    <glyph glyph-name="uni0218" unicode="&#x218;" horiz-adv-x="731" 
d="M691 208q0 -61 -29.5 -107.5t-77 -72t-97 -38t-97.5 -12.5q-116 0 -210 56.5t-140 169.5l19 10q24 -48 66 -86.5t92 -60.5t104.5 -33t104.5 -3t90.5 28.5t64.5 62t24 97.5q0 21 -4 38.5t-14 31t-19 24t-27.5 19t-30 14t-36.5 11.5t-37.5 8.5t-41 8t-40.5 7.5
q-11 2 -44 6.5t-53 8.5t-52.5 12t-52.5 20.5t-41 30.5t-31 44.5t-10 60.5q1 73 51 125.5t118 74.5t145 22q87 0 164.5 -46.5t131.5 -127.5l-74 -45q-92 192 -248 192q-81 0 -149 -47.5t-63 -134.5q3 -46 35 -73t80 -38t105.5 -17.5t114.5 -18.5t104 -33.5t76 -69t29 -119.5
q0 -61 -29.5 -107.5t-77 -72t-97 -38t-97.5 -12.5q-116 0 -210 56.5t-140 169.5l19 10q24 -48 66 -86.5t92 -60.5t104.5 -33t104.5 -3t90.5 28.5t64.5 62t24 97.5q0 21 -4 38.5t-14 31t-19 24t-27.5 19t-30 14t-36.5 11.5t-37.5 8.5t-41 8t-40.5 7.5q-11 2 -44 6.5t-53 8.5
t-52.5 12t-52.5 20.5t-41 30.5t-31 44.5t-10 60.5q1 73 51 125.5t118 74.5t145 22q87 0 164.5 -46.5t131.5 -127.5l-74 -45q-92 192 -248 192q-81 0 -149 -47.5t-63 -134.5q3 -46 35 -73t80 -38t105.5 -17.5t114.5 -18.5t104 -33.5t76 -69t29 -119.5zM329 -195l39 48l-37 38
q-6 6 0 13l50 50q7 8 12 0l51 -50q6 -7 0 -13l-100 -102z" />
    <glyph glyph-name="uni0219" unicode="&#x219;" horiz-adv-x="563" 
d="M236 -195l39 48l-37 38q-6 6 0 13l50 50q8 8 12 0l51 -50q6 -7 0 -13l-100 -102zM132 388q0 -31 22 -48t58 -23t79 -9t85.5 -10t78.5 -22t58 -49t22 -87q0 -54 -41 -92.5t-92 -53t-103 -14.5q-91 0 -165 39t-109 118l17 9q23 -39 58 -66t73.5 -39t68.5 -16.5t58 -4.5
q59 0 105.5 32t46.5 89q0 96 -181 109q-5 0 -27.5 2t-31 3t-30 4t-31 5.5t-27 8.5t-26.5 12.5t-20.5 16.5t-17 22t-9.5 28t-3 35q2 68 65 106.5t149 45.5q24 2 35 2q75 0 134 -35.5t94 -85.5l-67 -43q-92 172 -229 135q-45 -14 -71 -48t-26 -76z" />
    <glyph glyph-name="uni021A" unicode="&#x21a;" horiz-adv-x="714" 
d="M400 0h-80v729q-138 -10 -225 -25q-25 -4 -80 -16v80h684v-80q-56 12 -79 16q-83 15 -220 25v-729zM301 -195l39 48l-37 38q-6 6 0 13l50 50q7 8 12 0l51 -50q6 -7 0 -13l-100 -102z" />
    <glyph glyph-name="uni021B" unicode="&#x21b;" horiz-adv-x="833" 
d="M126 -195l39 48l-37 38q-6 6 0 13l50 50q8 8 12 0l51 -50q6 -7 0 -13l-100 -102zM410 53l5 -13q-11 -5 -50.5 -21.5t-53.5 -22.5q-32 -16 -68 -16.5t-66 12t-50.5 40.5t-22.5 66q-1 12 -1 104v258h-68v60h68q0 13 2.5 28.5t12 47t36.5 60.5t68 47l148 63l6 -14
q-20 -8 -38 -18q-50 -26 -85 -48q-25 -15 -49 -56.5t-24 -109.5h196v-60h-180q-9 0 -15 -6t-6 -15v-221v-89q0 -58 34.5 -91.5t92.5 -18.5q67 15 108 34z" />
    <glyph glyph-name="circumflex" unicode="&#x2c6;" horiz-adv-x="456" 
d="M68 822l-8 13q7 4 62 41q66 45 106 84q40 -39 106 -84q55 -37 62 -41l-8 -13l-160 80z" />
    <glyph glyph-name="caron" unicode="&#x2c7;" horiz-adv-x="456" 
d="M60 969l8 13l160 -80l160 80l8 -13l-62 -42q-69 -47 -106 -83q-37 36 -106 83z" />
    <glyph glyph-name="breve" unicode="&#x2d8;" horiz-adv-x="339" 
d="M169 851q17 0 28.5 11.5t16.5 26t16.5 26t28.5 11.5q18 0 29 -10t11 -27q0 -18 -15 -31t-39.5 -18t-41.5 -6.5t-34 -1.5q-16 0 -33 1.5t-41.5 6.5t-39.5 18t-15 31q0 17 11 27t29 10q17 0 28.5 -11.5t17 -26t16.5 -26t27 -11.5z" />
    <glyph glyph-name="dotaccent" unicode="&#x2d9;" horiz-adv-x="220" 
d="M103 654l-50 51q-6 6 0 13l50 50q7 7 13 0l51 -50q6 -7 0 -13l-51 -51q-6 -6 -13 0z" />
    <glyph glyph-name="ring" unicode="&#x2da;" horiz-adv-x="235" 
d="M50 700q0 28 20 48t47 20q28 0 48 -20t20 -48q0 -27 -20 -47t-48 -20q-27 0 -47 20t-20 47zM86 680q11 -17 28 -23t30 3q14 9 14.5 26.5t-11.5 34.5q-11 18 -27 23t-30 -4q-13 -8 -14 -25.5t10 -34.5z" />
    <glyph glyph-name="ogonek" unicode="&#x2db;" horiz-adv-x="251" 
d="M193 -176l8 -17q-42 -25 -92 -18t-57 49q-12 69 90 141l31 1q-23 -17 -43.5 -43.5t-26.5 -47.5q-16 -50 11 -66.5t79 1.5z" />
    <glyph glyph-name="tilde" unicode="&#x2dc;" horiz-adv-x="571" 
d="M338 624q-7 2 -41 12.5t-45.5 13t-40.5 7t-45.5 1t-40 -12.5t-43.5 -26l-12 8q44 54 89.5 71.5t112.5 -0.5q51 -15 70.5 -20t52.5 -9t54 4t40 27l12 -9q-76 -92 -163 -67z" />
    <glyph glyph-name="hungarumlaut" unicode="&#x2dd;" horiz-adv-x="491" 
d="M69 670l-9 13q36 26 55 41q67 52 107 97l54 -43zM224 670l-9 13q36 26 55 41q67 52 107 97l54 -43z" />
    <glyph glyph-name="uni03BC" unicode="&#x3bc;" horiz-adv-x="542" 
d="M50 -319v839h79v-374q0 -60 35.5 -92t93.5 -15q51 16 135 68q20 13 20 35v378h79v-520h-79v101q-105 -71 -158 -95q-33 -16 -73 -16q-27 0 -54 10v-319h-78z" />
    <glyph glyph-name="Wgrave" unicode="&#x1e80;" horiz-adv-x="1016" 
d="M514 839l-14 -15l-174 90l52 46q48 -47 96 -87q23 -18 40 -34zM865 768l109 -306q35 -95 -25 -184l-194 -278h-68l-104 286l-200 -286h-75l-273 768h94l236 -688q5 -12 17 -13.5t18 9.5l163 266l-148 426h87l239 -688q5 -11 17 -12.5t18 9.5l93 159q61 106 25 209
l-117 323h88z" />
    <glyph glyph-name="wgrave" unicode="&#x1e81;" horiz-adv-x="764" 
d="M384 647l-14 -15l-174 90l52 46q48 -47 96 -87q23 -18 40 -34zM647 520l68 -196q20 -54 -6 -110l-143 -214h-85l-60 169l-116 -169h-85l-185 520h89l153 -447q5 -12 18.5 -16t24.5 10l95 118l-119 335h89l153 -447q3 -12 18.5 -16t25.5 10l74 96q17 30 8 60l-106 297h89z
" />
    <glyph glyph-name="Wacute" unicode="&#x1e82;" horiz-adv-x="1016" 
d="M438 824l-14 15q17 16 40 34q48 40 96 87l52 -46zM865 768l109 -306q35 -95 -25 -184l-194 -278h-68l-104 286l-200 -286h-75l-273 768h94l236 -688q5 -12 17 -13.5t18 9.5l163 266l-148 426h87l239 -688q5 -11 17 -12.5t18 9.5l93 159q61 106 25 209l-117 323h88z" />
    <glyph glyph-name="wacute" unicode="&#x1e83;" horiz-adv-x="764" 
d="M310 632l-14 15q17 16 40 34q48 40 96 87l52 -46zM647 520l68 -196q20 -54 -6 -110l-143 -214h-85l-60 169l-116 -169h-85l-185 520h89l153 -447q5 -12 18.5 -16t24.5 10l95 118l-119 335h89l153 -447q3 -12 18.5 -16t25.5 10l74 96q17 30 8 60l-106 297h89z" />
    <glyph glyph-name="Wdieresis" unicode="&#x1e84;" horiz-adv-x="1016" 
d="M423 894l-47 -47q-7 -9 -16 0l-47 47q-7 7 0 16l47 47q9 7 16 0l47 -47q9 -9 0 -16zM662 894l-47 -47q-7 -9 -16 0l-47 47q-7 7 0 16l47 47q9 7 16 0l47 -47q9 -9 0 -16zM865 768l109 -306q35 -95 -25 -184l-194 -278h-68l-104 286l-200 -286h-75l-273 768h94l236 -688
q5 -12 17 -13.5t18 9.5l163 266l-148 426h87l239 -688q5 -11 17 -12.5t18 9.5l93 159q61 106 25 209l-117 323h88z" />
    <glyph glyph-name="wdieresis" unicode="&#x1e85;" horiz-adv-x="764" 
d="M317 678l-47 -47q-7 -9 -16 0l-47 47q-7 7 0 16l47 47q9 7 16 0l47 -47q9 -9 0 -16zM527 678l-47 -47q-7 -9 -16 0l-47 47q-7 7 0 16l47 47q9 7 16 0l47 -47q9 -9 0 -16zM715 324q20 -54 -6 -110l-143 -214h-85l-60 169l-116 -169h-85l-185 520h89l153 -447
q5 -12 18.5 -16t24.5 10l95 118l-119 335h89l153 -447q3 -12 18.5 -16t25.5 10l74 96q17 30 8 60l-106 297h89z" />
    <glyph glyph-name="endash" unicode="&#x2013;" horiz-adv-x="620" 
d="M550 258h-480v63v0h480v-63z" />
    <glyph glyph-name="emdash" unicode="&#x2014;" horiz-adv-x="873" 
d="M803 258h-733v63v0h733v-63z" />
    <glyph glyph-name="quoteleft" unicode="&#x2018;" horiz-adv-x="299" 
d="M208 797l-39 -48l37 -38q6 -6 0 -13l-50 -50q-8 -8 -12 0l-51 50q-6 7 0 13l100 102z" />
    <glyph glyph-name="quoteright" unicode="&#x2019;" horiz-adv-x="299" 
d="M91 612l39 48l-37 38q-6 6 0 13l50 50q7 7 12 0l51 -50q6 -7 0 -13l-100 -102z" />
    <glyph glyph-name="quotesinglbase" unicode="&#x201a;" horiz-adv-x="260" 
d="M51 -33l39 48l-37 38q-6 6 0 13l50 50q7 8 12 0l51 -50q6 -7 0 -13l-100 -102z" />
    <glyph glyph-name="quotedblleft" unicode="&#x201c;" horiz-adv-x="466" 
d="M208 797l-39 -48l37 -38q6 -6 0 -13l-50 -50q-8 -8 -12 0l-51 50q-6 7 0 13l100 102zM375 797l-39 -48l37 -38q6 -6 0 -13l-50 -50q-7 -8 -12 0l-51 50q-6 7 0 13l100 102z" />
    <glyph glyph-name="quotedblright" unicode="&#x201d;" horiz-adv-x="470" 
d="M91 612l39 48l-37 38q-6 6 0 13l50 50q7 7 12 0l51 -50q6 -7 0 -13l-100 -102zM262 612l39 48l-37 38q-6 6 0 13l50 50q8 7 12 0l51 -50q6 -7 0 -13l-100 -102z" />
    <glyph glyph-name="quotedblbase" unicode="&#x201e;" horiz-adv-x="470" 
d="M91 -34l39 48l-37 38q-6 6 0 13l50 50q7 7 12 0l51 -50q6 -7 0 -13l-100 -102zM262 -34l39 48l-37 38q-6 6 0 13l50 50q8 7 12 0l51 -50q6 -7 0 -13l-100 -102z" />
    <glyph glyph-name="dagger" unicode="&#x2020;" horiz-adv-x="602" 
d="M301 -305q-6 197 -14 324.5t-15.5 178.5t-19.5 111q-3 11 2 27q32 93 38 177q-84 -6 -177 -38q-7 -3 -16 -3q-20 0 -34.5 14.5t-13.5 35.5q1 18 13.5 31t31.5 15q10 0 19 -3q92 -34 177 -38q-6 84 -38 176q-3 9 -3 17q0 20 14.5 34.5t35.5 13.5q21 1 35.5 -13.5
t14.5 -34.5q0 -8 -3 -17q-32 -92 -38 -176q85 4 177 38q9 3 19 3q19 -2 31.5 -15t13.5 -31q1 -21 -13.5 -35.5t-34.5 -14.5q-9 0 -16 3q-93 32 -177 38q6 -84 38 -177q5 -16 2 -27q-12 -60 -19.5 -111t-15.5 -178.5t-14 -324.5z" />
    <glyph glyph-name="daggerdbl" unicode="&#x2021;" horiz-adv-x="602" 
d="M503 -25q20 0 34.5 -14.5t13.5 -35.5q-1 -18 -13.5 -31t-31.5 -15q-10 0 -19 3q-92 34 -177 38q6 -84 38 -176q3 -9 3 -17q0 -20 -14.5 -34.5t-35.5 -13.5q-21 -1 -35.5 13.5t-14.5 34.5q0 8 3 17q32 92 38 176q-85 -4 -177 -38q-9 -3 -19 -3q-19 2 -31.5 15t-13.5 31
q-1 21 13.5 35.5t34.5 14.5q9 0 16 -3q93 -32 177 -38q-19 233 -38 290q19 60 38 289q-84 -6 -177 -38q-7 -3 -16 -3q-20 0 -34.5 14.5t-13.5 35.5q1 18 13.5 31t31.5 15q10 0 19 -3q92 -34 177 -38q-6 84 -38 176q-3 9 -3 17q0 20 14.5 34.5t35.5 13.5q21 1 35.5 -13.5
t14.5 -34.5q0 -8 -3 -17q-32 -92 -38 -176q85 4 177 38q9 3 19 3q19 -2 31.5 -15t13.5 -31q1 -21 -13.5 -35.5t-34.5 -14.5q-9 0 -16 3q-93 32 -177 38q11 -218 38 -289q-27 -71 -38 -290q84 6 177 38q7 3 16 3z" />
    <glyph glyph-name="bullet" unicode="&#x2022;" horiz-adv-x="384" 
d="M277 339l-81 -80q-13 -16 -27 0l-81 80q-12 12 0 28l81 81q14 13 27 0l81 -81q16 -16 0 -28z" />
    <glyph glyph-name="ellipsis" unicode="&#x2026;" horiz-adv-x="836" 
d="M173 49l-47 -47q-7 -9 -16 0l-47 47q-7 7 0 16l47 47q9 7 16 0l47 -47q9 -9 0 -16zM472 49l-47 -47q-7 -9 -16 0l-47 47q-7 7 0 16l47 47q9 7 16 0l47 -47q9 -9 0 -16zM772 49l-47 -47q-7 -9 -16 0l-47 47q-7 7 0 16l47 47q9 7 16 0l47 -47q9 -9 0 -16z" />
    <glyph glyph-name="perthousand" unicode="&#x2030;" horiz-adv-x="1318" 
d="M256 767q83 0 130 -65.5t47 -154.5q0 -90 -47.5 -154.5t-132.5 -64.5q-82 0 -127.5 64t-45.5 154q0 89 46.5 155t129.5 66zM256 735q-54 0 -84.5 -56.5t-30.5 -132.5q0 -75 30 -130.5t83 -55.5q56 0 86 55.5t30 131.5q0 77 -30 132.5t-84 55.5zM695 439q83 0 129.5 -65.5
t46.5 -153.5q0 -90 -47 -155t-132 -65q-82 0 -128 64.5t-46 153.5q0 90 46.5 155.5t130.5 65.5zM695 407q-55 0 -85 -55.5t-30 -133.5q0 -75 30 -130t83 -55q55 0 85.5 55.5t30.5 131.5t-30 131.5t-84 55.5zM1062 439q83 0 129.5 -65.5t46.5 -153.5q0 -90 -47 -155t-132 -65
q-82 0 -128 64.5t-46 153.5q0 90 46.5 155.5t130.5 65.5zM1062 407q-55 0 -85 -55.5t-30 -133.5q0 -75 30 -130t83 -55q55 0 85.5 55.5t30.5 131.5t-30 131.5t-84 55.5zM183 0l525 767h64l-527 -767h-62z" />
    <glyph glyph-name="guilsinglleft" unicode="&#x2039;" horiz-adv-x="283" 
d="M220 465l13 -8l-109 -170l109 -170l-13 -8l-64 71q-71 77 -106 107q35 30 106 107q19 20 64 71z" />
    <glyph glyph-name="guilsinglright" unicode="&#x203a;" horiz-adv-x="303" 
d="M60 457l13 8q28 -33 64 -71q63 -70 106 -107q-43 -37 -106 -107q-55 -60 -64 -71l-13 8l109 170z" />
    <glyph glyph-name="fraction" unicode="&#x2044;" horiz-adv-x="689" 
d="M50 0l526 767h63l-527 -767h-62z" />
    <glyph glyph-name="Euro" unicode="&#x20ac;" horiz-adv-x="792" 
d="M328 706q-160 -62 -169 -267q72 5 175 17q64 8 66 8v-49l-241 -1q0 -48 11 -100q25 2 167 16l63 7v-48l-223 -1q12 -44 34 -90t54 -89.5t77.5 -70.5t94.5 -26q72 2 135.5 52.5t95.5 123.5l74 -50q-82 -94 -154 -127.5t-152 -31.5q-142 0 -230 88t-110 221h-65l-1 17l63 3
q-4 27 -4 61q0 15 2 45h-60l-1 18l64 3q19 128 98.5 216t203.5 103q95 12 173.5 -19t172.5 -136l-74 -51q-67 117 -146 157.5t-194 0.5z" />
    <glyph glyph-name="trademark" unicode="&#x2122;" horiz-adv-x="977" 
d="M281 396h-47v344q-51 -3 -105 -12q-36 -7 -39 -8v48h333l-3 -45l-36 6q-70 9 -103 11v-344zM788 768l119 -372h-56l-97 322q-11 -41 -28.5 -110t-31 -121t-25.5 -91h-22l-97 324q-34 -133 -59 -324h-50l96 372h47l86 -274l70 274h48z" />
    <glyph glyph-name="arrowleft" unicode="&#x2190;" horiz-adv-x="722" 
d="M338 617l19 -12l-132 -222q126 0 279 5q53 1 168 5v-72q-59 1 -168 5q-153 5 -279 5l132 -223l-19 -11q-17 18 -103 104q-93 93 -165 156q72 63 165 156q86 85 103 104z" />
    <glyph glyph-name="arrowright" unicode="&#x2192;" horiz-adv-x="722" 
d="M365 605l19 12q18 -19 103 -104q93 -93 165 -156q-72 -63 -165 -156q-85 -86 -103 -104l-19 11l132 223q-124 0 -279 -5q-109 -4 -168 -5v72q115 -4 168 -5q155 -5 279 -5z" />
    <glyph glyph-name="minus" unicode="&#x2212;" horiz-adv-x="700" 
d="M600 365h-500v49v0h500v-49z" />
    <glyph glyph-name="_1" horiz-adv-x="0" 
 />
    <glyph glyph-name="_0024" horiz-adv-x="341" 
 />
    <glyph glyph-name="_0142" horiz-adv-x="0" 
 />
    <glyph glyph-name="b.alt" horiz-adv-x="658" 
d="M54 768h80v-379q44 55 99 87.5t108.5 40t105 -6.5t90 -47t62.5 -88t24 -124t-24 -122.5t-63.5 -83t-91 -43.5t-105.5 -9t-108 26t-97 57v-76h-80v768zM134 341v-143q0 -24 8 -42q34 -63 85 -100.5t103.5 -40.5t99 18.5t77.5 79t33 138.5q2 88 -39.5 150.5t-110.5 75
t-157 -33.5q-55 -32 -77 -54.5t-22 -47.5z" />
    <glyph glyph-name="d.alt" horiz-adv-x="658" 
d="M524 768h80v-768h-80v76q-43 -36 -97 -57t-108 -26t-105.5 9t-91 43.5t-63.5 83t-24 122.5t23.5 124t62.5 88t90 47t104.5 6t109 -40.5t99.5 -86.5v379zM516 156q8 18 8 42v143q0 25 -22 47.5t-77 54.5q-88 46 -157 33.5t-110.5 -75t-39.5 -150.5q2 -68 24 -119.5
t56 -78.5t77.5 -35t86.5 4.5t84 47t70 86.5z" />
    <glyph glyph-name="h.alt" horiz-adv-x="571" 
d="M530 405v-104v-301h-80v278v96q0 58 -34 87t-93 15q-60 -15 -169 -65q-22 -10 -24 -36v-375h-80v768h80v-352q60 30 196 90q46 19 90.5 16t78 -35t35.5 -82z" />
    <glyph glyph-name="k.alt" horiz-adv-x="539" 
d="M275 312l254 -312h-98l-227 282l-70 -34v-248h-80v768h80v-490l197 92q24 10 34.5 26.5t-3.5 41.5l-46 51q-24 24 -48 31h70q50 0 82 -38l28 -34q12 -14 8 -32.5t-21 -26.5z" />
    <glyph glyph-name="l.alt" horiz-adv-x="188" 
d="M54 0v768h80v-768h-80z" />
    <glyph glyph-name="t.alt" horiz-adv-x="435" 
d="M410 53l5 -13q-11 -5 -50.5 -21.5t-53.5 -22.5q-32 -16 -68 -16.5t-66 12t-50.5 40.5t-22.5 66q-1 12 -1 104v258h-68v60h68v80l77 33v-113h196v-60h-180q-9 0 -15 -6t-6 -15v-221v-89q0 -58 34.5 -91.5t92.5 -18.5q67 15 108 34z" />
    <glyph glyph-name="a.sc" horiz-adv-x="537" 
d="M432 0l-72 163q-8 17 -20 17.5t-30 -7.5q-39 -19 -57 -26q-60 -25 -73 -25q-23 0 -37 16l-13 -51q-7 -29 -18 -87h-82l228 520h20l229 -520h-75zM338 215l-87 198q-80 -187 -93 -227q-5 -16 3 -16q4 0 26 11l10 5t23.5 11.5t41.5 21.5q27 11 46 11q14 0 30 -15z" />
    <glyph glyph-name="b.sc" horiz-adv-x="470" 
d="M383 406q0 -18 -6.5 -33t-18.5 -24.5t-23 -15.5t-27 -12q49 -9 93 -54t44 -100q0 -73 -45.5 -120t-149.5 -47h-195v520h189q58 0 98.5 -28t40.5 -86zM125 32l123 1q47 0 80 38.5t35 90.5q2 45 -32 83t-90 38q-44 0 -91 -24q-25 -12 -25 -38v-189zM309 406q0 34 -23 56.5
t-61 22.5l-100 -1v-198q18 9 61 24q27 9 44.5 16t37.5 19t30.5 27t10.5 34z" />
    <glyph glyph-name="c.sc" horiz-adv-x="551" 
d="M502 200l24 -16q-32 -92 -94.5 -147.5t-152.5 -55.5q-120 0 -186 80.5t-66 192.5q0 106 62.5 181.5t159.5 89.5q12 3 41 3q54 0 103.5 -26.5t111.5 -93.5l-69 -45q-74 124 -161 124q-80 0 -132 -57t-52 -142q0 -93 57 -171t151 -78q53 0 111.5 43.5t91.5 117.5z" />
    <glyph glyph-name="d.sc" horiz-adv-x="532" 
d="M507 260q0 -113 -73.5 -185.5t-187.5 -74.5h-191v519h191q115 0 188 -72t73 -187zM125 483v-451q17 0 49 0.5t48 0.5q94 0 154.5 65.5t60.5 159.5q0 86 -61.5 156t-153.5 70z" />
    <glyph glyph-name="e.sc" horiz-adv-x="462" 
d="M125 227v-190q102 1 212 19q39 6 90 17v-73h-372v520h372v-66q-50 9 -88 14q-108 14 -214 15l-1 -199q14 20 25 26.5t33 6.5t68 -14.5t67 -14.5q15 0 42 21l20 -18q-70 -74 -131 -52q-76 21 -95 19q-6 -1 -12 -3q-13 -4 -16 -28z" />
    <glyph glyph-name="f.sc" horiz-adv-x="412" 
d="M407 520v-66q-188 29 -281 29v-206q16 31 44.5 32t68.5 -13.5t57 -14.5q16 0 44 21l20 -18q-67 -74 -131 -53q-13 4 -33 10.5t-26 7.5q-17 4 -30 -2.5t-14 -25.5v-221h-71v520h352z" />
    <glyph glyph-name="g.sc" horiz-adv-x="552" 
d="M237 195l132 81q46 33 99.5 -5.5t53.5 -96.5q0 -23 -12 -47q-36 -63 -97 -104t-134 -41q-118 0 -183.5 80t-65.5 192q0 111 74 192.5t187 81.5q53 0 103 -26.5t112 -93.5l-70 -45q-70 123 -159 123q-58 0 -99.5 -27t-59 -70.5t-21 -97t13.5 -106.5v1q25 -64 75.5 -103.5
t113.5 -42.5q79 -4 137 58q18 18 22.5 50t-9.5 59t-46 27q-25 0 -157 -65z" />
    <glyph glyph-name="h.sc" horiz-adv-x="496" 
d="M370 521h71v-521h-71v261q0 4 -1 7t-4 4t-5.5 1.5t-7 -0.5t-7.5 -2t-8 -2.5t-7 -2.5q-9 -3 -51 -21t-82 -34q-50 -24 -71 9v-220h-71v521h71v-261q0 -11 28 0q6 2 37 16t53 23q61 27 79 27q25 0 47 -22v217z" />
    <glyph glyph-name="i.sc" horiz-adv-x="250" 
d="M90 0v520h70v-520h-70z" />
    <glyph glyph-name="j.sc" horiz-adv-x="368" 
d="M243 520h70v-612q-2 -17 -4.5 -28.5t-12 -32t-31 -39.5t-54.5 -35l-200 -84l-10 29q63 24 119 58q119 71 119 141v505q-7 -12 -17 -20.5t-30.5 -18.5t-39 -18t-62 -25.5t-79.5 -33.5l-11 28q65 32 108 59q111 69 135 127z" />
    <glyph glyph-name="k.sc" horiz-adv-x="483" 
d="M352 216q23 -32 52 -95.5t65 -109.5t99 -82l-18 -25q-89 42 -140.5 93t-92.5 137q-36 74 -86 97q-47 22 -75 -1l-30 -26v-204h-71v520l71 -1v-260q39 40 101.5 103t79.5 80l77 78h86l-255 -235h7q77 0 130 -69z" />
    <glyph glyph-name="l.sc" horiz-adv-x="461" 
d="M131 520v-475q105 1 209 15q48 5 86 12v-72h-366v520h71z" />
    <glyph glyph-name="m.sc" horiz-adv-x="698" 
d="M508 520l165 -520h-82l-132 436l-114 -436h-35l-131 437q-46 -177 -79 -437h-75l132 520h70l117 -372l94 372h70z" />
    <glyph glyph-name="n.sc" horiz-adv-x="550" 
d="M495 16l-45 -21q-18 -8 -35 -8q-20 0 -38 9t-32.5 28t-26 36t-23 46.5t-17 44.5t-15 45.5t-11.5 35.5t-13.5 40.5t-18 53t-18 46.5t-24 49t-26.5 34q-8 8 -21 16q-1 1 -4 2l-6 2t-6.5 2t-6.5 1t-5 -1.5t-2 -4.5q0 -231 19 -362q6 -58 19 -110h-84v501l49 24q18 8 34 8
q21 0 47 -20q51 -39 84.5 -118.5t63 -175t60.5 -144.5q6 -13 29 -29q24 -18 24 2q0 194 -17 358q-7 61 -17 114h83v-504z" />
    <glyph glyph-name="o.sc" horiz-adv-x="554" 
d="M276 528q121 0 187 -81t66 -194q0 -112 -67 -193.5t-186 -81.5t-185 81t-66 194t66 194t185 81zM350 37q56 19 85 66t28 101.5t-18 112.5q-31 90 -93.5 135.5t-144.5 17.5q-55 -18 -85.5 -64.5t-31 -101.5t16.5 -113q37 -98 98.5 -140t144.5 -14z" />
    <glyph glyph-name="p.sc" horiz-adv-x="462" 
d="M125 482v-226q0 -17 17 -17q129 0 176.5 30t47.5 105q0 110 -180 110q-15 0 -61 -2zM432 375v-1q0 -58 -28 -95.5t-78.5 -53t-95.5 -20t-105 -3.5v-202h-70v520h139q32 0 55 -1.5t59 -9.5t59.5 -22.5t42.5 -43t22 -68.5z" />
    <glyph glyph-name="q.sc" horiz-adv-x="577" 
d="M276 528q121 0 187 -81t66 -194q0 -102 -52 -175q80 -110 185 -149l-17 -27q-133 33 -217 125q-62 -49 -152 -49q-119 0 -185 81t-66 194t66 194t185 81zM398 181q26 -26 47 -58q38 87 0 194q-31 90 -93.5 135.5t-144.5 17.5q-55 -18 -85.5 -64.5t-31 -101.5t16.5 -113
q3 -6 9 -21.5t10 -23.5q75 51 109 63q37 14 84.5 7.5t78.5 -35.5zM350 37q30 11 49 25q-48 62 -68 80q-44 36 -98 31q-38 -7 -79 -44q-11 -11 -6 -20q77 -115 202 -72z" />
    <glyph glyph-name="r.sc" horiz-adv-x="477" 
d="M349 219q7 -9 13.5 -21.5t14.5 -30t13 -27.5q16 -35 27 -55.5t32 -52t49.5 -56.5t63.5 -46l-17 -24q-87 39 -140 92t-94 138q-28 53 -63.5 72.5t-99.5 21.5h-22v-230h-71v521h140q33 0 54.5 -1t56.5 -9t56.5 -22t38 -43t16.5 -69q0 -48 -37 -82.5t-86 -43.5q32 -5 55 -32
zM142 266q65 -1 108.5 7.5t63.5 25.5t27 34.5t7 42.5q0 43 -22 68.5t-55 31t-72 7.5t-73 -2v-197q0 -11 3.5 -14.5t12.5 -3.5z" />
    <glyph glyph-name="s.sc" horiz-adv-x="525" 
d="M490 133q-2 -52 -36 -90.5t-79.5 -55.5t-94.5 -17q-87 0 -143.5 42.5t-101.5 122.5l29 14q25 -59 93 -95.5t137 -30.5q50 4 86.5 34t36.5 79q0 37 -26.5 59t-58 28.5t-79.5 13.5t-69 13q-60 18 -92.5 46.5t-32.5 81.5q4 50 41 85.5t83 50t94 14.5q61 0 109 -34.5
t100 -94.5l-64 -40q-63 131 -158 131q-52 0 -94 -28.5t-42 -75.5q0 -49 86 -76q23 -7 59 -13t62.5 -10.5t57 -15t50 -25.5t33 -44t14.5 -69z" />
    <glyph glyph-name="t.sc" horiz-adv-x="485" 
d="M281 0h-71v475q-79 -7 -144 -14l-56 -7v66h465v-66l-52 7q-57 7 -142 14v-475z" />
    <glyph glyph-name="u.sc" horiz-adv-x="529" 
d="M360 520h74q65 -295 65 -331q0 -98 -67.5 -153t-179.5 -55q-99 0 -160.5 54.5t-61.5 132.5q0 57 35 112t106 97q16 10 1 21l-139 122h110l103 -94q10 -10 10 -23q0 -14 -17 -25q-62 -39 -98.5 -83.5t-36.5 -107.5q0 -69 44.5 -120t103.5 -51q67 0 121.5 44t54.5 109
q0 20 -68 351z" />
    <glyph glyph-name="v.sc" horiz-adv-x="528" 
d="M450 520l46 -137q22 -57 -17 -118l-193 -265h-72l-184 520h84l154 -451q3 -8 9 -9t10 5l110 164q49 77 25 148l-48 143h76z" />
    <glyph glyph-name="w.sc" horiz-adv-x="698" 
d="M590 520l74 -206q9 -24 9 -46q0 -42 -26 -83l-130 -185h-56l-63 176q-12 -16 -56 -80t-67 -96h-60l-185 520h82l151 -445q2 -5 7 -6t7 3l99 163l-98 285h76l155 -446q5 -12 13 -2l57 97q37 68 16 127l-82 224h77z" />
    <glyph glyph-name="x.sc" horiz-adv-x="553" 
d="M523 0h-88l-169 234l-2 -3q-83 -105 -137 -231h-97l213 267q-34 47 -99 139.5t-80 113.5h88l136 -192q1 1 21.5 33t29 46.5t25.5 47.5t31 65h96l-178 -224z" />
    <glyph glyph-name="y.sc" horiz-adv-x="510" 
d="M394 520h91l-181 -252q-13 -20 -13 -34v-234h-72v234q0 12 -14 34l-180 252h92q67 -154 138 -243q71 87 139 243z" />
    <glyph glyph-name="z.sc" horiz-adv-x="525" 
d="M305 269q-65 -36 -131 -103t-71 -125q127 4 277 18q76 7 120 13v-72h-475q1 49 18.5 90t50.5 73.5t61.5 53.5t71.5 47.5t59 38.5q106 77 127 175q-151 -6 -273 -18l-112 -12v72h466q0 -42 -11.5 -77t-25.5 -57t-44.5 -46.5t-49 -36t-58.5 -34.5z" />
    <glyph glyph-name="dcaron.alt" horiz-adv-x="740" 
d="M701 660l-39 -48l15 -16l100 102q6 6 0 13l-51 50q-4 7 -12 0l-50 -50q-6 -7 0 -13zM524 768h80v-768h-80v76q-43 -36 -97 -57t-108 -26t-105.5 9t-91 43.5t-63.5 83t-24 122.5t23.5 124t62.5 88t90 47t104.5 6t109 -40.5t99.5 -86.5v379zM516 156q8 18 8 42v143
q0 25 -22 47.5t-77 54.5q-88 46 -157 33.5t-110.5 -75t-39.5 -150.5q2 -68 24 -119.5t56 -78.5t77.5 -35t86.5 4.5t84 47t70 86.5z" />
    <glyph glyph-name="dcroat.alt" horiz-adv-x="733" 
d="M399 535v67h334v-67h-334zM524 768h80v-768h-80v76q-43 -36 -97 -57t-108 -26t-105.5 9t-91 43.5t-63.5 83t-24 122.5t23.5 124t62.5 88t90 47t104.5 6t109 -40.5t99.5 -86.5v379zM516 156q8 18 8 42v143q0 25 -22 47.5t-77 54.5q-88 46 -157 33.5t-110.5 -75
t-39.5 -150.5q2 -68 24 -119.5t56 -78.5t77.5 -35t86.5 4.5t84 47t70 86.5z" />
    <glyph glyph-name="uni0163.alt" horiz-adv-x="435" 
d="M410 53l5 -13q-11 -5 -50.5 -21.5t-53.5 -22.5q-47 -21 -96 -15q-4 -10 -12 -18.5t-16 -14.5t-15 -10.5t-12 -7.5l-6 -3q41 3 65.5 -16t24.5 -52q0 -32 -23 -51t-57 -19q-15 0 -36 7t-29 12l8 17q16 -8 53 -15q20 -2 34.5 12t14.5 37t-14.5 38t-37.5 15q-9 0 -16 -1
q-2 -1 -7 1q-7 4 -2 13l6 5q5 5 9 12t7 17.5t-2.5 27t-18.5 36.5q-28 31 -29 75q-1 12 -1 104v258h-68v60h68v80l77 33v-113h196v-60h-180q-9 0 -15 -6t-6 -15v-310q0 -58 34.5 -91.5t92.5 -18.5q67 15 108 34z" />
    <glyph glyph-name="tcaron.alt" horiz-adv-x="435" 
d="M264 581l39 48l-37 38q-6 6 0 13l50 50q8 8 12 0l51 -50q6 -7 0 -13l-100 -102zM410 53l5 -13q-11 -5 -50.5 -21.5t-53.5 -22.5q-32 -16 -68 -16.5t-66 12t-50.5 40.5t-22.5 66q-1 12 -1 104v258h-68v60h68v80l77 33v-113h196v-60h-180q-9 0 -15 -6t-6 -15v-221v-89
q0 -58 34.5 -91.5t92.5 -18.5q67 15 108 34z" />
    <glyph glyph-name="uni021B.alt" horiz-adv-x="435" 
d="M126 -195l39 48l-37 38q-6 6 0 13l50 50q8 8 12 0l51 -50q6 -7 0 -13l-100 -102zM410 53l5 -13q-11 -5 -50.5 -21.5t-53.5 -22.5q-32 -16 -68 -16.5t-66 12t-50.5 40.5t-22.5 66q-1 12 -1 104v258h-68v60h68v80l77 33v-113h196v-60h-180q-9 0 -15 -6t-6 -15v-221v-89
q0 -58 34.5 -91.5t92.5 -18.5q67 15 108 34z" />
    <glyph glyph-name="hbar.alt" horiz-adv-x="571" 
d="M530 405v-104v-301h-80v278v96q0 58 -34 87t-93 15q-60 -15 -169 -65q-22 -10 -24 -36v-375h-80v768h80v-352q60 30 196 90q46 19 90.5 16t78 -35t35.5 -82zM397 590h-418v49h418v-49z" />
    </font>
</defs>
</svg>
