<svg xmlns="http://www.w3.org/2000/svg">
<defs>
<font id="PilatWide-Book" horiz-adv-x="783" >
  <font-face 
    font-family="Pilat Wide Book"
    font-weight="450"
    font-stretch="semi-expanded"
    units-per-em="1000"
    panose-1="2 11 6 5 3 0 0 0 0 4"
    ascent="750"
    descent="-250"
    x-height="530"
    cap-height="700"
    bbox="-142 -205 1585 1080"
    underline-thickness="62"
    underline-position="-216"
    unicode-range="U+0020-FB00"
  />
<missing-glyph horiz-adv-x="700" 
d="M369 -80q-113 0 -190 78.5t-77 187.5v18l-19 31q-15 25 -9 53q6 29 31 44l7 4q18 13 43 11q-7 24 0.5 46t28.5 35l7 4q20 12 41 11l-76 120q-12 21 -12 39q0 30 21.5 52.5t51.5 22.5q42 0 65 -35l139 -221v224q0 31 21.5 53t52.5 22t52.5 -22t21.5 -53v-286
q30 -15 48 -43t18 -63v-62q0 -65 -30 -126t-92.5 -103t-143.5 -42zM451 645v-274h66q8 0 22 -2v276q0 18 -13 31t-31 13t-31 -13t-13 -31zM182 579l127 -203l24 -37q13 32 50 32h33l-160 255q-12 20 -37 20q-18 0 -31 -13t-13 -31q0 -12 7 -23zM313 220l8 5q13 9 17 24.5
t-5 30.5l-72 114q-9 14 -25 17.5t-29 -4.5l-8 -5q-13 -9 -17 -25.5t5 -29.5l72 -114q9 -14 25 -17.5t29 4.5zM359 138q0 25 12.5 50t29.5 33q-16 1 -34 15q-7 -25 -29 -37l-7 -4q-18 -11 -43 -11q8 -23 -0.5 -45.5t-28.5 -35.5l-8 -5q-24 -15 -51.5 -8.5t-44.5 31.5l-20 30
q10 -85 78.5 -143t154.5 -58q99 0 168 71.5t69 169.5v62q0 36 -26 62t-62 26h-134q-10 0 -17 -7.5t-7 -19.5q0 -27 19 -47.5t48 -20.5h42q6 0 10.5 -4.5t4.5 -10.5t-4.5 -10.5t-10.5 -4.5q-34 0 -55.5 -23.5t-21.5 -54.5q0 -6 -5 -10.5t-11 -4.5t-11 4.5t-5 10.5zM235 124
l8 5q13 9 17 24.5t-5 30.5l-72 114q-9 14 -25 17.5t-29 -4.5l-8 -5q-13 -9 -17 -25.5t5 -29.5l72 -114q9 -14 25 -17.5t29 4.5z" />
    <glyph glyph-name="f_f" unicode="ff" horiz-adv-x="825" 
d="M147 451h-134v79h134q4 95 51.5 132.5t150.5 37.5h86v-77h-71q-63 0 -90.5 -19t-27.5 -74h276q4 95 51.5 132.5t150.5 37.5h86v-77h-71q-63 0 -90.5 -19t-27.5 -74h189v-79h-189v-451h-99v451h-276v-451h-99v451z" />
    <glyph glyph-name=".notdef" horiz-adv-x="700" 
d="M369 -80q-113 0 -190 78.5t-77 187.5v18l-19 31q-15 25 -9 53q6 29 31 44l7 4q18 13 43 11q-7 24 0.5 46t28.5 35l7 4q20 12 41 11l-76 120q-12 21 -12 39q0 30 21.5 52.5t51.5 22.5q42 0 65 -35l139 -221v224q0 31 21.5 53t52.5 22t52.5 -22t21.5 -53v-286
q30 -15 48 -43t18 -63v-62q0 -65 -30 -126t-92.5 -103t-143.5 -42zM451 645v-274h66q8 0 22 -2v276q0 18 -13 31t-31 13t-31 -13t-13 -31zM182 579l127 -203l24 -37q13 32 50 32h33l-160 255q-12 20 -37 20q-18 0 -31 -13t-13 -31q0 -12 7 -23zM313 220l8 5q13 9 17 24.5
t-5 30.5l-72 114q-9 14 -25 17.5t-29 -4.5l-8 -5q-13 -9 -17 -25.5t5 -29.5l72 -114q9 -14 25 -17.5t29 4.5zM359 138q0 25 12.5 50t29.5 33q-16 1 -34 15q-7 -25 -29 -37l-7 -4q-18 -11 -43 -11q8 -23 -0.5 -45.5t-28.5 -35.5l-8 -5q-24 -15 -51.5 -8.5t-44.5 31.5l-20 30
q10 -85 78.5 -143t154.5 -58q99 0 168 71.5t69 169.5v62q0 36 -26 62t-62 26h-134q-10 0 -17 -7.5t-7 -19.5q0 -27 19 -47.5t48 -20.5h42q6 0 10.5 -4.5t4.5 -10.5t-4.5 -10.5t-10.5 -4.5q-34 0 -55.5 -23.5t-21.5 -54.5q0 -6 -5 -10.5t-11 -4.5t-11 4.5t-5 10.5zM235 124
l8 5q13 9 17 24.5t-5 30.5l-72 114q-9 14 -25 17.5t-29 -4.5l-8 -5q-13 -9 -17 -25.5t5 -29.5l72 -114q9 -14 25 -17.5t29 4.5z" />
    <glyph glyph-name=".null" horiz-adv-x="0" 
 />
    <glyph glyph-name="nonmarkingreturn" horiz-adv-x="333" 
 />
    <glyph glyph-name="space" unicode=" " horiz-adv-x="256" 
 />
    <glyph glyph-name="exclam" unicode="!" horiz-adv-x="280" 
d="M82 405v295h117v-295l-25 -173h-68zM205 0h-130v124h130v-124z" />
    <glyph glyph-name="quotedbl" unicode="&#x22;" horiz-adv-x="396" 
d="M147 700v-259h-86v259h86zM334 700v-259h-86v259h86z" />
    <glyph glyph-name="numbersign" unicode="#" 
d="M508 0h-77l27 187h-175l-28 -187h-77l28 187h-153v76h162l24 174h-153v77h162l27 186h77l-27 -186h175l28 186h77l-28 -186h153v-77h-162l-24 -174h153v-76h-161zM494 440h-181l-24 -180h181z" />
    <glyph glyph-name="dollar" unicode="$" 
d="M440 11v-116h-74v115q-262 7 -311 160h113q40 -80 230 -80q121 0 178 27t58 91v6q0 53 -33 71.5t-129 23.5l-182 8q-123 4 -173 45t-50 124v11q0 185 287 193v115h74v-116q252 -11 290 -159h-114q-20 43 -72.5 61.5t-147.5 18.5q-209 0 -209 -105v-5q0 -53 33 -71.5
t129 -23.5l181 -7q123 -6 173 -47t50 -123v-12q0 -105 -77 -152.5t-224 -52.5z" />
    <glyph glyph-name="percent" unicode="%" horiz-adv-x="915" 
d="M230 345h-12q-95 0 -139.5 43t-44.5 133v13q0 90 44.5 133t139.5 43h12q96 0 140.5 -43t44.5 -133v-13q0 -91 -44.5 -133.5t-140.5 -42.5zM692 700l-397 -700h-73l398 700h72zM225 414q59 0 84.5 25t25.5 85v8q0 58 -25.5 83t-84.5 25q-60 0 -85.5 -25t-25.5 -83v-8
q0 -60 25.5 -85t85.5 -25zM696 -10h-11q-96 0 -141 43t-45 133v13q0 90 45 133t141 43h11q95 0 140 -43t45 -133v-13q0 -90 -44.5 -133t-140.5 -43zM690 59q60 0 85.5 25t25.5 85v8q0 59 -25.5 84t-85.5 25q-59 0 -84.5 -25t-25.5 -84v-8q0 -60 25.5 -85t84.5 -25z" />
    <glyph glyph-name="ampersand" unicode="&#x26;" horiz-adv-x="918" 
d="M898 89v-89h-22q-65 0 -118 33l-70 44q-50 -50 -115 -68.5t-176 -18.5h-53q-148 0 -225 49t-77 167v4q0 79 35.5 125.5t118.5 67.5v4q-58 40 -58 119v5q0 179 267 179h14q135 0 203 -43t82 -145h-105q-21 99 -178 99h-11q-87 0 -124 -22.5t-37 -68.5v-5q0 -30 18.5 -53
t67.5 -56l338 -213l107 193h105l-135 -241l69 -44q35 -22 68 -22h11zM359 77h51q73 0 118 11t79 40l-339 212q-64 -10 -94 -39t-30 -82v-9q0 -71 51.5 -102t163.5 -31z" />
    <glyph glyph-name="quotesingle" unicode="'" horiz-adv-x="208" 
d="M147 700v-259h-86v259h86z" />
    <glyph glyph-name="parenleft" unicode="(" horiz-adv-x="348" 
d="M297 -27v-63q-225 39 -225 371v48q0 332 225 371v-63q-156 -43 -156 -315v-34q0 -272 156 -315z" />
    <glyph glyph-name="parenright" unicode=")" horiz-adv-x="348" 
d="M44 637v63q225 -39 225 -371v-48q0 -332 -225 -371v63q77 21 116.5 96.5t39.5 218.5v34q0 143 -39.5 218.5t-116.5 96.5z" />
    <glyph glyph-name="asterisk" unicode="*" horiz-adv-x="412" 
d="M342 389l-57 -44l-76 115h-5l-77 -115l-57 44l85 110l-1 3l-133 40l24 71l130 -51l3 3l-6 135h68l-6 -135l4 -3l129 51l23 -71l-132 -40l-1 -3z" />
    <glyph glyph-name="plus" unicode="+" horiz-adv-x="600" 
d="M265 294h-203v71h203v212h71v-212h202v-71h-202v-213h-71v213z" />
    <glyph glyph-name="comma" unicode="," horiz-adv-x="274" 
d="M153 -117l-15 -23h-71l73 133v7h-70v124h138v-74q0 -43 -11 -77.5t-44 -89.5z" />
    <glyph glyph-name="hyphen" unicode="-" horiz-adv-x="318" 
d="M301 249h-284v87h284v-87z" />
    <glyph glyph-name="period" unicode="." horiz-adv-x="274" 
d="M202 0h-131v124h131v-124z" />
    <glyph glyph-name="slash" unicode="/" horiz-adv-x="449" 
d="M70 -100h-70l379 800h70z" />
    <glyph glyph-name="zero" unicode="0" horiz-adv-x="853" 
d="M452 -10h-51q-177 0 -258.5 73.5t-81.5 243.5v86q0 170 81.5 243.5t258.5 73.5h51q178 0 258.5 -73.5t80.5 -243.5v-86q0 -170 -80.5 -243.5t-258.5 -73.5zM426 80q153 0 207.5 52.5t54.5 186.5v62q0 134 -54.5 186.5t-207.5 52.5q-152 0 -206.5 -52.5t-54.5 -186.5v-62
q0 -134 54.5 -186.5t206.5 -52.5z" />
    <glyph glyph-name="one" unicode="1" horiz-adv-x="502" 
d="M415 700v-700h-103v616h-6l-273 -145v112l237 117h145z" />
    <glyph glyph-name="two" unicode="2" horiz-adv-x="784" 
d="M724 88v-88h-664v104q0 129 47 182.5t179 74.5l199 28q78 12 106.5 36t28.5 78v7q0 58 -50.5 85t-162.5 27q-109 0 -159.5 -25t-64.5 -86h-106q10 57 36 97t68.5 61.5t93 31t116.5 9.5h25q308 0 308 -192v-15q0 -87 -43 -134t-156 -64l-213 -30q-88 -14 -118.5 -44
t-30.5 -110v-33h561z" />
    <glyph glyph-name="three" unicode="3" horiz-adv-x="784" 
d="M417 -10h-32q-146 0 -229.5 48t-97.5 157h105q17 -66 73.5 -91.5t166.5 -25.5q120 0 174 30t54 96v11q0 53 -33.5 78.5t-112.5 25.5h-233v89h232q70 0 100.5 23t30.5 71v10q0 58 -50.5 84t-162.5 26q-98 0 -149 -23.5t-66 -85.5h-105q21 105 96 151t211 46h21
q309 0 309 -178v-10q0 -119 -107 -142v-5q62 -13 92 -52t30 -109v-12q0 -109 -78.5 -160.5t-238.5 -51.5z" />
    <glyph glyph-name="four" unicode="4" 
d="M633 182v-182h-103v182h-475v142l420 376h158v-433h116v-85h-116zM134 272v-5h396v355h-5z" />
    <glyph glyph-name="five" unicode="5" 
d="M425 -10h-37q-282 0 -315 191h105q14 -54 68.5 -78.5t157.5 -24.5q115 0 169 35.5t54 108.5v14q0 76 -51 110t-170 34q-179 0 -225 -77h-95l37 397h569v-88h-475l-23 -211h5q52 65 236 65q154 0 224.5 -55.5t70.5 -172.5v-14q0 -116 -77.5 -175t-227.5 -59z" />
    <glyph glyph-name="six" unicode="6" 
d="M418 -10h-36q-81 0 -136.5 13t-99 46t-64 95t-20.5 156v85q0 96 20 160t62 100t97.5 50.5t136.5 14.5h29q141 0 215 -42.5t94 -139.5h-105q-16 52 -65 73t-152 21q-130 0 -180 -45.5t-50 -184.5v-33h6q23 46 78.5 68t170.5 22q157 0 230 -50.5t73 -163.5v-18
q0 -121 -81 -174q-82 -53 -223 -53zM395 76q120 0 171.5 32.5t51.5 104.5v16q0 72 -51.5 104.5t-171.5 32.5t-172 -32.5t-52 -104.5v-16q0 -72 51.5 -104.5t172.5 -32.5z" />
    <glyph glyph-name="seven" unicode="7" 
d="M733 614l-421 -614h-129l426 606v6h-562v88h686v-86z" />
    <glyph glyph-name="eight" unicode="8" 
d="M414 -10h-45q-57 0 -102 6t-84.5 20.5t-66 38t-41.5 60t-15 85.5v11q0 137 121 162v6q-104 25 -104 140v8q0 96 76 139.5t225 43.5h26q149 0 225.5 -43.5t76.5 -139.5v-8q0 -116 -105 -140v-6q122 -26 122 -162v-11q0 -61 -22.5 -103t-65.5 -64.5t-96 -32.5t-125 -10z
M309 409h164q128 0 128 96v9q0 61 -47.5 85t-162.5 24t-162.5 -24t-47.5 -85v-9q0 -96 128 -96zM391 76q124 0 176 27t52 97v12q0 114 -147 114h-162q-147 0 -147 -114v-12q0 -70 52 -97t176 -27z" />
    <glyph glyph-name="nine" unicode="9" 
d="M365 710h36q81 0 136.5 -13t99 -46t64 -95t20.5 -156v-85q0 -96 -20 -160t-62 -100t-97.5 -50.5t-136.5 -14.5h-29q-142 0 -215.5 42.5t-93.5 139.5h105q16 -52 65 -73t152 -21q66 0 106.5 9t70 34t41.5 70t12 117v33h-6q-21 -46 -78 -68t-171 -22q-157 0 -230 50.5
t-73 163.5v18q0 227 304 227zM388 624q-121 0 -172 -32.5t-51 -104.5v-16q0 -72 51 -104.5t172 -32.5t172.5 32.5t51.5 104.5v16q0 72 -51.5 104.5t-172.5 32.5z" />
    <glyph glyph-name="colon" unicode=":" horiz-adv-x="274" 
d="M202 406h-131v124h131v-124zM202 0h-131v124h131v-124z" />
    <glyph glyph-name="semicolon" unicode=";" horiz-adv-x="274" 
d="M204 406h-131v124h131v-124zM153 -117l-15 -23h-71l73 133v7h-70v124h138v-74q0 -43 -11 -77.5t-44 -89.5z" />
    <glyph glyph-name="less" unicode="&#x3c;" horiz-adv-x="600" 
d="M530 190v-78l-457 182v69l457 182v-78l-354 -136v-4z" />
    <glyph glyph-name="equal" unicode="=" horiz-adv-x="600" 
d="M518 410h-436v71h436v-71zM518 177h-436v71h436v-71z" />
    <glyph glyph-name="greater" unicode="&#x3e;" horiz-adv-x="600" 
d="M73 467v78l457 -182v-69l-457 -182v78l354 136v4z" />
    <glyph glyph-name="question" unicode="?" horiz-adv-x="635" 
d="M351 230h-104v12q0 40 26 65.5t94 57.5q81 38 106 66t25 77v6q0 108 -169 108q-85 0 -131.5 -29.5t-55.5 -102.5h-101q19 220 282 220h12q126 0 195.5 -49t69.5 -138v-10q0 -76 -35.5 -120t-133.5 -89q-44 -22 -61.5 -37.5t-18.5 -36.5zM364 0h-130v123h130v-123z" />
    <glyph glyph-name="at" unicode="@" horiz-adv-x="1036" 
d="M518 -154q-474 0 -474 377v31q0 202 126 316t359 114q226 0 348.5 -89t122.5 -274v-12q0 -291 -222 -291q-66 0 -95 23t-31 67h-5q-48 -74 -171 -74h-11q-99 0 -147.5 48t-37.5 163l3 24q13 116 68.5 163.5t153.5 47.5h17q133 0 154 -75h5l8 67h93l-39 -308
q-7 -52 6.5 -71t54.5 -19q65 0 99.5 61.5t34.5 171.5v13q0 163 -105.5 235.5t-310.5 72.5q-202 0 -309 -101.5t-107 -274.5v-29q0 -172 108 -247t310 -75q126 0 227 28v-55q-101 -28 -233 -28zM505 106q70 0 110 29.5t48 109.5l3 25q5 45 -3 73.5t-29 42t-43.5 18t-57.5 4.5
q-69 0 -109 -29.5t-50 -109.5l-2 -25q-5 -45 2.5 -73.5t28.5 -42t44 -18t58 -4.5z" />
    <glyph glyph-name="A" unicode="A" horiz-adv-x="892" 
d="M527 700l344 -700h-120l-96 197h-420l-96 -197h-118l343 700h163zM448 622h-5l-164 -334h332z" />
    <glyph glyph-name="B" unicode="B" horiz-adv-x="850" 
d="M784 210v-30q0 -95 -55.5 -137.5t-186.5 -42.5h-460v700h443q136 0 191.5 -39t55.5 -131v-18q0 -69 -28 -104t-82 -44v-5q122 -13 122 -149zM509 609h-320v-206h322q90 0 122 18.5t32 76.5v8q0 59 -33.5 81t-122.5 22zM510 315h-321v-224h326q93 0 128 23t35 86v8
q0 65 -35.5 86t-132.5 21z" />
    <glyph glyph-name="C" unicode="C" horiz-adv-x="884" 
d="M485 -10h-69q-188 0 -270.5 77.5t-82.5 245.5v74q0 168 82.5 245.5t270.5 77.5h69q155 0 236.5 -53t106.5 -170h-111q-19 68 -76.5 99.5t-171.5 31.5h-38q-152 0 -206 -58.5t-54 -190.5v-39q0 -65 11 -108.5t39.5 -76.5t80 -48t129.5 -15h38q114 0 171.5 31.5t76.5 99.5
h111q-25 -117 -106.5 -170t-236.5 -53z" />
    <glyph glyph-name="D" unicode="D" horiz-adv-x="884" 
d="M821 377v-54q0 -169 -83 -246t-271 -77h-385v700h383q188 0 272 -78t84 -245zM446 609h-257v-518h257q80 0 132.5 15.5t81.5 48.5t40.5 76.5t11.5 108.5v19q0 66 -11.5 110t-40.5 77t-81.5 48t-132.5 15z" />
    <glyph glyph-name="E" unicode="E" horiz-adv-x="768" 
d="M704 91v-91h-622v700h622v-91h-515v-213h515v-91h-515v-214h515z" />
    <glyph glyph-name="F" unicode="F" horiz-adv-x="755" 
d="M189 304v-304h-107v700h622v-91h-515v-214h515v-91h-515z" />
    <glyph glyph-name="G" unicode="G" horiz-adv-x="907" 
d="M487 -10h-64q-190 0 -275 77.5t-85 243.5v78q0 166 85 243.5t275 77.5h64q153 0 238 -50t110 -157h-116q-18 59 -77 87t-167 28h-40q-80 0 -132 -15t-81 -47.5t-40 -76t-11 -108.5v-42q0 -65 11 -108t40 -75.5t81 -47.5t132 -15h41q145 0 202 50.5t59 163.5h-304v91h411
v-82q0 -161 -86 -238.5t-271 -77.5z" />
    <glyph glyph-name="H" unicode="H" horiz-adv-x="884" 
d="M802 700v-700h-107v305h-506v-305h-107v700h107v-305h506v305h107z" />
    <glyph glyph-name="I" unicode="I" horiz-adv-x="270" 
d="M189 700v-700h-107v700h107z" />
    <glyph glyph-name="J" unicode="J" horiz-adv-x="510" 
d="M149 0h-132v91h96q126 0 173 42t47 138v429h108v-428q0 -142 -66.5 -207t-225.5 -65z" />
    <glyph glyph-name="K" unicode="K" horiz-adv-x="863" 
d="M189 247v-247h-107v700h107v-336h4l489 336h157l-408 -282l418 -418h-147l-356 355h-5z" />
    <glyph glyph-name="L" unicode="L" horiz-adv-x="696" 
d="M662 93v-93h-580v700h107v-607h473z" />
    <glyph glyph-name="M" unicode="M" horiz-adv-x="1103" 
d="M1021 700v-700h-106v607h-5l-305 -607h-111l-300 607h-6v-607h-106v700h187l283 -569h6l286 569h177z" />
    <glyph glyph-name="N" unicode="N" horiz-adv-x="915" 
d="M833 700v-700h-167l-472 599h-5v-599h-107v700h167l472 -600h6v600h106z" />
    <glyph glyph-name="O" unicode="O" horiz-adv-x="910" 
d="M487 -10h-64q-190 0 -275 77.5t-85 245.5v74q0 167 85 245t275 78h64q190 0 275 -78t85 -245v-74q0 -168 -85 -245.5t-275 -77.5zM434 82h41q80 0 132 15t80.5 48t39.5 76.5t11 108.5v39q0 66 -11 109.5t-39.5 76.5t-80.5 48t-132 15h-41q-80 0 -132 -15t-80.5 -48
t-39.5 -76.5t-11 -109.5v-39q0 -65 11 -108.5t39.5 -76.5t80.5 -48t132 -15z" />
    <glyph glyph-name="P" unicode="P" horiz-adv-x="812" 
d="M189 250v-250h-107v700h450q132 0 191 -49t59 -164v-29q0 -105 -59 -156.5t-191 -51.5h-343zM509 610h-320v-270h321q96 0 130.5 28.5t34.5 100.5v12q0 72 -35.5 100.5t-130.5 28.5z" />
    <glyph glyph-name="Q" unicode="Q" horiz-adv-x="910" 
d="M878 93v-93h-459q-189 0 -272.5 76.5t-83.5 244.5v66q0 166 82 244q82 79 274 79h71q188 0 272.5 -78t84.5 -238v-57q0 -192 -130 -238v-6h161zM434 92h45q80 0 131 15t79 48t38.5 76t10.5 109v29q0 66 -11 109.5t-39.5 76.5t-80.5 48t-132 15h-41q-80 0 -132 -15
t-80.5 -48t-39.5 -76.5t-11 -109.5v-29q0 -65 11 -108.5t39.5 -76.5t80.5 -48t132 -15z" />
    <glyph glyph-name="R" unicode="R" horiz-adv-x="852" 
d="M189 284v-284h-107v700h457q133 0 188 -42q55 -40 55 -136v-22q0 -76 -29 -113.5t-91 -46.5v-5q64 -10 92 -43t28 -114v-178h-107v160q0 76 -32.5 100t-134.5 24h-319zM503 609h-314v-234h331q89 0 122 25.5t33 88.5v7q0 66 -36.5 89.5t-135.5 23.5z" />
    <glyph glyph-name="S" unicode="S" horiz-adv-x="816" 
d="M423 -10h-19q-316 0 -353 185h112q21 -57 85.5 -77t169.5 -20q123 0 183 27.5t60 94.5v8q0 53 -33 75t-124 26l-195 8q-125 5 -179.5 48t-54.5 131v6q0 110 80.5 159t237.5 49h20q300 0 338 -189h-111q-17 58 -77 79.5t-163 21.5q-116 0 -166 -26t-50 -85v-3
q0 -53 32.5 -75t123.5 -26l195 -8q126 -5 180 -48t54 -131v-9q0 -122 -89 -171.5t-257 -49.5z" />
    <glyph glyph-name="T" unicode="T" horiz-adv-x="746" 
d="M426 607v-607h-107v607h-298v93h704v-93h-299z" />
    <glyph glyph-name="U" unicode="U" horiz-adv-x="848" 
d="M462 -10h-75q-169 0 -243.5 67.5t-74.5 213.5v429h109v-418q0 -105 49.5 -152t175.5 -47h43q125 0 175 47.5t50 151.5v418h108v-429q0 -146 -74 -213.5t-243 -67.5z" />
    <glyph glyph-name="V" unicode="V" horiz-adv-x="872" 
d="M851 700l-343 -700h-144l-343 700h123l292 -600h5l294 600h116z" />
    <glyph glyph-name="W" unicode="W" horiz-adv-x="1222" 
d="M1196 700l-215 -700h-146l-222 577l-221 -577h-153l-214 700h115l179 -596h5l228 596h126l228 -596h5l178 596h107z" />
    <glyph glyph-name="X" unicode="X" horiz-adv-x="867" 
d="M508 357l337 -357h-141l-272 291h-4l-271 -291h-135l336 358l-323 342h140l259 -276h4l260 276h135z" />
    <glyph glyph-name="Y" unicode="Y" horiz-adv-x="824" 
d="M465 310v-310h-107v310l-337 390h132l261 -303h6l262 303h121z" />
    <glyph glyph-name="Z" unicode="Z" horiz-adv-x="810" 
d="M752 91v-91h-692v83l527 526h-507v91h656v-83l-527 -526h543z" />
    <glyph glyph-name="bracketleft" unicode="[" horiz-adv-x="362" 
d="M311 -28v-62h-215v790h215v-62h-148v-666h148z" />
    <glyph glyph-name="backslash" unicode="\" horiz-adv-x="449" 
d="M70 700l379 -800h-70l-379 800h70z" />
    <glyph glyph-name="bracketright" unicode="]" horiz-adv-x="362" 
d="M51 638v62h215v-790h-215v62h148v666h-148z" />
    <glyph glyph-name="asciicircum" unicode="^" horiz-adv-x="600" 
d="M327 700l211 -506h-79l-157 386h-4l-157 -386h-79l211 506h54z" />
    <glyph glyph-name="underscore" unicode="_" horiz-adv-x="637" 
d="M637 -123h-637v61h637v-61z" />
    <glyph glyph-name="grave" unicode="`" horiz-adv-x="500" 
d="M264 700l92 -120h-96l-117 120h121z" />
    <glyph glyph-name="a" unicode="a" horiz-adv-x="639" 
d="M585 333v-333h-98v90h-5q-42 -100 -220 -100q-222 0 -222 162v7q0 75 44 113t136 42l266 11v12q0 76 -39 102.5t-125 26.5q-69 0 -106.5 -19.5t-52.5 -66.5h-100q18 81 79 120.5t176 39.5h18q130 0 189.5 -46t59.5 -161zM140 161v-5q0 -95 148 -95q94 0 146 39.5
t52 111.5v45l-239 -10q-55 -2 -81 -23t-26 -63z" />
    <glyph glyph-name="b" unicode="b" horiz-adv-x="692" 
d="M162 0h-99v700h99v-257h4q42 97 202 97h18q126 0 193 -59t67 -198v-37q0 -137 -67 -196.5t-193 -59.5h-18q-160 0 -202 97h-4v-87zM354 75q102 0 147.5 36t45.5 145v19q0 57 -12 93t-38.5 55t-59 25.5t-83.5 6.5q-101 0 -146.5 -36t-45.5 -144v-24q0 -106 45.5 -141
t146.5 -35z" />
    <glyph glyph-name="c" unicode="c" horiz-adv-x="631" 
d="M338 -10h-22q-133 0 -201.5 60t-68.5 197v36q0 138 68 197.5t202 59.5h22q224 0 260 -169h-101q-18 49 -58.5 66.5t-109.5 17.5q-95 0 -139.5 -36.5t-44.5 -142.5v-22q0 -106 44.5 -142.5t139.5 -36.5q69 0 109.5 17.5t58.5 66.5h101q-36 -169 -260 -169z" />
    <glyph glyph-name="d" unicode="d" horiz-adv-x="692" 
d="M629 700v-700h-99v87h-4q-42 -97 -202 -97h-18q-126 0 -193 59.5t-67 196.5v37q0 139 67 198t193 59h18q160 0 202 -97h4v257h99zM338 75q101 0 146.5 35t45.5 141v24q0 108 -45.5 144t-146.5 36q-51 0 -83.5 -6.5t-59 -25.5t-38.5 -55t-12 -93v-19q0 -109 45.5 -145
t147.5 -36z" />
    <glyph glyph-name="e" unicode="e" horiz-adv-x="653" 
d="M501 148h101q-22 -81 -86.5 -119.5t-178.5 -38.5h-19q-135 0 -203.5 60t-68.5 198v33q0 138 68.5 198.5t203.5 60.5h18q135 0 203.5 -59t68.5 -198v-39h-463q1 -104 45.5 -139t137.5 -35q74 0 114 16t59 62zM327 466q-87 0 -131 -31.5t-50 -121.5h363v5q0 79 -46.5 113.5
t-135.5 34.5z" />
    <glyph glyph-name="f" unicode="f" horiz-adv-x="450" 
d="M147 451h-134v79h134q4 95 51.5 132.5t150.5 37.5h86v-77h-71q-63 0 -90.5 -19t-27.5 -74h189v-79h-189v-451h-99v451z" />
    <glyph glyph-name="g" unicode="g" horiz-adv-x="681" 
d="M354 -170h-26q-108 0 -176 31t-92 107h106q19 -36 59 -49t114 -13q94 0 137 30.5t43 113.5v71h-4q-41 -90 -197 -90h-9q-123 0 -188 55.5t-65 187.5v22q0 132 65 188t188 56h9q156 0 197 -90h4v80h99v-486q0 -116 -66.5 -165t-197.5 -49zM338 113q45 0 74 5.5t55.5 21.5
t39 50t12.5 88v13q0 53 -12.5 87.5t-39 51t-55.5 22t-74 5.5t-75 -5.5t-56.5 -22t-39 -51t-12.5 -87.5v-13q0 -100 45 -132.5t138 -32.5z" />
    <glyph glyph-name="h" unicode="h" horiz-adv-x="638" 
d="M582 335v-335h-98v314q0 81 -39.5 111t-111.5 30q-82 0 -127 -36.5t-45 -125.5v-293h-99v700h99v-261h5q46 101 195 101q105 0 163 -46.5t58 -158.5z" />
    <glyph glyph-name="i" unicode="i" horiz-adv-x="224" 
d="M62 700h99v-86h-99v86zM62 530h99v-530h-99v530z" />
    <glyph glyph-name="j" unicode="j" horiz-adv-x="224" 
d="M62 700h99v-86h-99v86zM62 530h99v-433q0 -99 -15.5 -149t-65.5 -118h-105q53 69 70 118t17 130v452z" />
    <glyph glyph-name="k" unicode="k" horiz-adv-x="629" 
d="M161 160v-160h-99v700h99v-428h5l307 258h132l-265 -220l282 -310h-130l-223 246h-4z" />
    <glyph glyph-name="l" unicode="l" horiz-adv-x="224" 
d="M161 700v-700h-99v700h99z" />
    <glyph glyph-name="m" unicode="m" horiz-adv-x="1014" 
d="M960 339v-339h-99v314q0 82 -36.5 111.5t-103.5 29.5q-77 0 -119 -37.5t-42 -127.5v-290h-99v314q0 82 -36 111.5t-103 29.5q-77 0 -119 -37.5t-42 -127.5v-290h-99v530h99v-90h5q42 100 183 100q154 0 196 -106h5q44 106 196 106q102 0 158 -46t56 -155z" />
    <glyph glyph-name="n" unicode="n" horiz-adv-x="638" 
d="M582 335v-335h-98v314q0 81 -39.5 111t-111.5 30q-82 0 -127 -36.5t-45 -125.5v-293h-99v530h99v-91h5q46 101 195 101q105 0 163 -46.5t58 -158.5z" />
    <glyph glyph-name="o" unicode="o" horiz-adv-x="675" 
d="M354 -10h-33q-138 0 -206.5 61.5t-68.5 197.5v32q0 136 68.5 197.5t206.5 61.5h33q138 0 206.5 -61.5t68.5 -197.5v-33q0 -136 -68.5 -197t-206.5 -61zM338 75q100 0 146 36t46 145v19q0 108 -46 144t-146 36t-146.5 -36t-46.5 -145v-19q0 -56 12.5 -92.5t39.5 -55.5
t59.5 -25.5t81.5 -6.5z" />
    <glyph glyph-name="p" unicode="p" horiz-adv-x="692" 
d="M63 -170v700h99v-87h4q42 97 202 97h18q126 0 193 -59.5t67 -196.5v-37q0 -139 -67 -198t-193 -59h-18q-160 0 -202 97h-4v-257h-99zM354 455q-101 0 -146.5 -35t-45.5 -141v-24q0 -108 45.5 -144t146.5 -36q51 0 83.5 6.5t59 25.5t38.5 55t12 93v19q0 109 -45.5 145
t-147.5 36z" />
    <glyph glyph-name="q" unicode="q" horiz-adv-x="692" 
d="M530 530h99v-700h-99v257h-4q-42 -97 -202 -97h-18q-126 0 -193 59t-67 198v37q0 137 67 196.5t193 59.5h18q160 0 202 -97h4v87zM338 455q-102 0 -147.5 -36t-45.5 -145v-19q0 -57 12 -93t38.5 -55t59 -25.5t83.5 -6.5q101 0 146.5 36t45.5 144v24q0 106 -45.5 141
t-146.5 35z" />
    <glyph glyph-name="r" unicode="r" horiz-adv-x="415" 
d="M356 530h46v-86h-62q-87 0 -133 -32.5t-46 -119.5v-292h-99v530h99v-89h5q35 89 190 89z" />
    <glyph glyph-name="s" unicode="s" horiz-adv-x="633" 
d="M324 -10h-11q-119 0 -186.5 33.5t-84.5 112.5h102q25 -70 178 -70q91 0 131 18.5t41 67.5v5q0 37 -27 52.5t-95 18.5l-135 5q-99 4 -140 38.5t-41 100.5v11q0 157 251 157h10q116 0 179 -33.5t84 -112.5h-103q-17 39 -55.5 54.5t-110.5 15.5q-81 0 -118.5 -18t-37.5 -60
v-4q0 -38 26.5 -52.5t95.5 -17.5l135 -6q99 -3 140 -38t41 -101v-11q0 -91 -68.5 -128.5t-200.5 -37.5z" />
    <glyph glyph-name="t" unicode="t" horiz-adv-x="443" 
d="M408 79v-79h-73q-107 0 -149.5 39t-42.5 137v275h-130v79h130v170h99v-170h166v-79h-166v-256q0 -73 26.5 -94.5t99.5 -21.5h40z" />
    <glyph glyph-name="u" unicode="u" horiz-adv-x="638" 
d="M56 195v335h98v-314q0 -81 39.5 -111t111.5 -30q82 0 127 36.5t45 125.5v293h99v-530h-99v91h-5q-46 -101 -195 -101q-105 0 -163 46.5t-58 158.5z" />
    <glyph glyph-name="v" unicode="v" horiz-adv-x="610" 
d="M607 530l-235 -530h-135l-234 530h110l193 -442h5l193 442h103z" />
    <glyph glyph-name="w" unicode="w" horiz-adv-x="940" 
d="M929 530l-166 -530h-131l-159 422l-158 -422h-139l-165 530h109l131 -434h6l161 434h114l160 -434h6l132 434h99z" />
    <glyph glyph-name="x" unicode="x" horiz-adv-x="670" 
d="M405 272l245 -272h-130l-185 213h-4l-188 -213h-123l245 270l-230 260h130l172 -198h4l175 198h120z" />
    <glyph glyph-name="y" unicode="y" horiz-adv-x="596" 
d="M597 530l-327 -700h-105l86 172l-249 528h107l193 -414h5l187 414h103z" />
    <glyph glyph-name="z" unicode="z" horiz-adv-x="596" 
d="M557 79v-79h-515v73l370 378h-356v79h488v-73l-370 -378h383z" />
    <glyph glyph-name="braceleft" unicode="{" horiz-adv-x="350" 
d="M316 -28v-62h-43q-85 0 -117.5 43t-32.5 148v47q0 68 -16 89t-80 28v80q64 7 80 28t16 89v47q0 105 32.5 148t117.5 43h43v-62h-25q-58 0 -79.5 -28t-21.5 -118v-49q0 -72 -18.5 -99t-86.5 -37v-4q68 -10 86.5 -37t18.5 -99v-49q0 -90 21.5 -118t79.5 -28h25z" />
    <glyph glyph-name="bar" unicode="|" horiz-adv-x="263" 
d="M163 -100h-63v800h63v-800z" />
    <glyph glyph-name="braceright" unicode="}" horiz-adv-x="350" 
d="M73 -90h-43v62h25q58 0 79.5 28t21.5 118v49q0 72 18.5 99t86.5 37v4q-68 10 -86.5 37t-18.5 99v49q0 90 -21.5 118t-79.5 28h-25v62h43q85 0 117.5 -43t32.5 -148v-47q0 -68 16 -89t80 -28v-80q-64 -7 -80 -28t-16 -89v-47q0 -105 -32.5 -148t-117.5 -43z" />
    <glyph glyph-name="asciitilde" unicode="~" horiz-adv-x="600" 
d="M408 261q-46 0 -113 33t-105 33q-66 0 -108 -61v78q41 54 110 54q46 0 113 -33t105 -33q67 0 108 61v-78q-38 -54 -110 -54z" />
    <glyph glyph-name="exclamdown" unicode="&#xa1;" horiz-adv-x="280" 
d="M75 530h130v-124h-130v124zM198 125v-295h-117v295l25 173h68z" />
    <glyph glyph-name="cent" unicode="&#xa2;" horiz-adv-x="664" 
d="M375 -10v-95h-74v96q-121 5 -183 65.5t-62 190.5v36q0 135 64 193t181 63v96h74v-95q202 -9 236 -169h-100q-18 49 -59 66.5t-112 17.5q-95 0 -140 -36.5t-45 -142.5v-22q0 -106 45 -142.5t140 -36.5q71 0 112 17.5t59 66.5h100q-34 -160 -236 -169z" />
    <glyph glyph-name="sterling" unicode="&#xa3;" 
d="M642 382v-63h-372v-232h461v-87h-700v87h137v232h-137v63h137v41q0 156 72.5 221.5t205.5 65.5h22q237 0 274 -180h-108q-16 47 -56 69.5t-119 22.5q-98 0 -143.5 -42.5t-45.5 -151.5v-46h372z" />
    <glyph glyph-name="currency" unicode="&#xa4;" horiz-adv-x="600" 
d="M300 178q-52 0 -83 17l-104 -103l-50 50l100 100q-20 35 -20 87q0 51 20 86l-100 101l50 50l104 -103q31 17 83 17q50 0 81 -17l105 103l50 -50l-101 -101q20 -32 20 -86q0 -52 -20 -87l101 -100l-50 -50l-105 103q-31 -17 -81 -17zM300 237q47 0 69 21.5t22 70.5
t-22 70.5t-69 21.5q-48 0 -70 -21.5t-22 -70.5t22 -70.5t70 -21.5z" />
    <glyph glyph-name="yen" unicode="&#xa5;" 
d="M444 251v-251h-103v251h-256v61h256v45l-29 31h-227v61h171l-233 251h135l237 -265h5l237 265h122l-231 -251h172v-61h-228l-28 -30v-46h256v-61h-256z" />
    <glyph glyph-name="brokenbar" unicode="&#xa6;" horiz-adv-x="263" 
d="M163 410h-63v290h63v-290zM163 -100h-63v290h63v-290z" />
    <glyph glyph-name="section" unicode="&#xa7;" horiz-adv-x="706" 
d="M384 -170h-12q-286 0 -292 180h89q6 -63 60 -87t148 -24q102 0 145 21.5t43 72.5v6q0 42 -29 59t-104 21l-102 4q-155 7 -210.5 43t-55.5 127v5q0 118 114 141v5q-98 21 -98 126v12q0 90 67.5 129t205.5 39h12q288 0 292 -180h-89q-4 64 -61 87q-55 24 -147 24
q-103 0 -145.5 -21.5t-42.5 -72.5v-6q0 -42 29 -59t104 -21l102 -4q155 -7 210.5 -43t55.5 -127v-5q0 -118 -115 -141v-5q99 -21 99 -126v-12q0 -90 -67.5 -129t-205.5 -39zM368 163q120 0 166 20t46 82v10q0 62 -45.5 82t-165.5 20q-121 0 -166.5 -20t-45.5 -82v-10
q0 -62 45.5 -82t165.5 -20z" />
    <glyph glyph-name="dieresis" unicode="&#xa8;" horiz-adv-x="500" 
d="M106 681h86v-86h-86v86zM308 681h86v-86h-86v86z" />
    <glyph glyph-name="copyright" unicode="&#xa9;" horiz-adv-x="868" 
d="M483 -10h-98q-185 0 -270.5 80t-85.5 233v94q0 153 85.5 233t270.5 80h98q185 0 270.5 -80t85.5 -233v-94q0 -153 -85.5 -233t-270.5 -80zM400 25h68q99 0 165 19.5t102 60.5t50.5 94t14.5 129v44q0 76 -14.5 129t-50.5 94t-102 60.5t-165 19.5h-68q-98 0 -164 -19.5
t-102 -60.5t-50.5 -94t-14.5 -129v-44q0 -76 14.5 -129t50.5 -94t102 -60.5t164 -19.5zM462 134h-37q-117 0 -168.5 46.5t-51.5 151.5v36q0 105 51.5 151.5t168.5 46.5h37q100 0 149.5 -31.5t62.5 -97.5l3 -12h-90l-3 8q-10 32 -40.5 47.5t-91.5 15.5h-18
q-83 0 -111.5 -31.5t-28.5 -103.5v-22q0 -72 28.5 -103.5t111.5 -31.5h18q61 0 91.5 15.5t40.5 47.5l3 8h90l-3 -12q-13 -66 -62.5 -97.5t-149.5 -31.5z" />
    <glyph glyph-name="ordfeminine" unicode="&#xaa;" horiz-adv-x="519" 
d="M475 542v-262h-90v69h-4q-34 -77 -171 -77q-175 0 -175 130v4q0 117 147 124l203 8v10q0 56 -29 75.5t-94 19.5q-51 0 -79 -14t-40 -49h-92q18 68 68 98t140 30h14q106 0 154 -36.5t48 -129.5zM126 409v-5q0 -69 110 -69q70 0 109.5 30t39.5 84v32l-179 -8
q-80 -4 -80 -64z" />
    <glyph glyph-name="guillemotleft" unicode="&#xab;" horiz-adv-x="402" 
d="M40 289v6l84 219h74l-87 -222l87 -222h-74zM203 289v6l84 219h74l-87 -222l87 -222h-74z" />
    <glyph glyph-name="logicalnot" unicode="&#xac;" horiz-adv-x="600" 
d="M530 365v-276h-71v205h-409v71h480z" />
    <glyph glyph-name="registered" unicode="&#xae;" horiz-adv-x="868" 
d="M483 -10h-98q-185 0 -270.5 80t-85.5 233v94q0 153 85.5 233t270.5 80h98q185 0 270.5 -80t85.5 -233v-94q0 -153 -85.5 -233t-270.5 -80zM400 25h68q99 0 165 19.5t102 60.5t50.5 94t14.5 129v44q0 76 -14.5 129t-50.5 94t-102 60.5t-165 19.5h-68q-98 0 -164 -19.5
t-102 -60.5t-50.5 -94t-14.5 -129v-44q0 -76 14.5 -129t50.5 -94t102 -60.5t164 -19.5zM322 301v-161h-87v420h278q83 0 118 -25t35 -83v-13q0 -47 -19 -70t-60 -27v-4q44 -5 61.5 -25t17.5 -71v-102h-87v93q0 41 -16.5 54.5t-73.5 13.5h-167zM485 494h-163v-127h179
q46 0 61.5 13.5t15.5 47.5v4q0 36 -19.5 49t-73.5 13z" />
    <glyph glyph-name="overscore" unicode="&#xaf;" horiz-adv-x="500" 
d="M419 666v-55h-338v55h338z" />
    <glyph glyph-name="degree" unicode="&#xb0;" horiz-adv-x="391" 
d="M196 423q-60 0 -102 41.5t-42 102.5q0 60 42 101.5t102 41.5t101.5 -41.5t41.5 -101.5q0 -61 -41.5 -102.5t-101.5 -41.5zM196 478q37 0 62.5 26t25.5 63t-25.5 63t-62.5 26q-38 0 -63.5 -26t-25.5 -63t25.5 -63t63.5 -26z" />
    <glyph glyph-name="plusminus" unicode="&#xb1;" horiz-adv-x="600" 
d="M265 414h-163v71h163v141h71v-141h162v-71h-162v-141h-71v141zM498 100h-396v71h396v-71z" />
    <glyph glyph-name="twosuperior" unicode="&#xb2;" horiz-adv-x="456" 
d="M428 451v-71h-399v66q0 78 30 112.5t112 47.5l99 16q38 6 51 17.5t13 38.5v3q0 28 -22 40.5t-75 12.5q-49 0 -74.5 -11t-31.5 -42h-94q10 70 59.5 97.5t132.5 27.5h9q97 0 143.5 -29t46.5 -91v-7q0 -53 -26 -82q-25 -28 -98 -41l-117 -18q-39 -7 -52.5 -21t-13.5 -50v-16
h307z" />
    <glyph glyph-name="threesuperior" unicode="&#xb3;" horiz-adv-x="456" 
d="M243 374h-18q-83 0 -134 28t-62 100h94q8 -33 34 -44.5t74 -11.5q55 0 79.5 14t24.5 45v5q0 27 -15.5 39t-54.5 12h-107v69h102q64 0 64 47v4q0 29 -22 41t-70 12q-43 0 -65.5 -11t-30.5 -40h-95q12 66 57 94.5t125 28.5h12q183 0 183 -106v-4q0 -74 -67 -85v-5
q79 -10 79 -97v-5q0 -68 -46.5 -99t-140.5 -31z" />
    <glyph glyph-name="acute" unicode="&#xb4;" horiz-adv-x="500" 
d="M355 700l-117 -120h-96l93 120h120z" />
    <glyph glyph-name="mu" unicode="&#xb5;" horiz-adv-x="645" 
d="M582 530v-530h-97v82h-5q-39 -92 -182 -92q-119 0 -150 59h-4l10 -198v-21h-92v700h99v-314q0 -82 41 -111.5t120 -29.5q36 0 62.5 5.5t50.5 19.5t36.5 43t12.5 73v314h98z" />
    <glyph glyph-name="paragraph" unicode="&#xb6;" horiz-adv-x="601" 
d="M516 700v-800h-65v734h-128v-734h-65v532h-53q-89 0 -129 29t-40 102v6q0 77 38 104t131 27h311z" />
    <glyph glyph-name="middot" unicode="&#xb7;" horiz-adv-x="344" 
d="M232 230h-131v124h131v-124z" />
    <glyph glyph-name="cedilla" unicode="&#xb8;" horiz-adv-x="500" 
d="M185 -140l55 140h88l-45 -140h-98z" />
    <glyph glyph-name="onesuperior" unicode="&#xb9;" horiz-adv-x="326" 
d="M262 800v-420h-91v348h-4l-146 -81v92l121 61h120z" />
    <glyph glyph-name="ordmasculine" unicode="&#xba;" horiz-adv-x="540" 
d="M284 272h-26q-108 0 -164.5 46.5t-56.5 156.5v30q0 110 56.5 156.5t164.5 46.5h26q108 0 163.5 -46.5t55.5 -156.5v-30q0 -110 -55.5 -156.5t-163.5 -46.5zM270 347q72 0 106.5 26t34.5 107v20q0 80 -34.5 106.5t-106.5 26.5t-107 -26.5t-35 -106.5v-20q0 -81 35 -107
t107 -26z" />
    <glyph glyph-name="guillemotright" unicode="&#xbb;" horiz-adv-x="402" 
d="M199 295v-6l-84 -219h-74l87 222l-87 222h74zM362 295v-6l-84 -219h-74l87 222l-87 222h74z" />
    <glyph glyph-name="onequarter" unicode="&#xbc;" horiz-adv-x="940" 
d="M262 700v-420h-91v348h-4l-146 -81v92l121 61h120zM664 700l-397 -700h-73l398 700h72zM846 100v-100h-93v100h-264v110l219 210h138v-249h60v-71h-60zM565 176v-5h188v183h-4z" />
    <glyph glyph-name="onehalf" unicode="&#xbd;" horiz-adv-x="996" 
d="M262 700v-420h-91v348h-4l-146 -81v92l121 61h120zM664 700l-397 -700h-73l398 700h72zM949 71v-71h-399v66q0 79 29.5 113t112.5 47l99 16q37 6 50.5 18t13.5 38v3q0 28 -22 40.5t-75 12.5q-49 0 -73.5 -11t-32.5 -42h-94q11 70 60 97.5t132 27.5h9q97 0 143.5 -29
t46.5 -91v-7q0 -53 -26 -82q-25 -28 -98 -41l-117 -18q-39 -7 -52.5 -21t-13.5 -50v-16h307z" />
    <glyph glyph-name="threequarters" unicode="&#xbe;" horiz-adv-x="1079" 
d="M243 274h-18q-83 0 -134 28t-62 100h94q8 -33 34 -44.5t74 -11.5q55 0 79.5 14t24.5 45v5q0 27 -15.5 39t-54.5 12h-107v69h102q64 0 64 47v4q0 29 -22 41t-70 12q-43 0 -65.5 -11t-30.5 -40h-95q12 66 57 94.5t125 28.5h12q183 0 183 -106v-4q0 -74 -67 -85v-5
q79 -10 79 -97v-5q0 -68 -46.5 -99t-140.5 -31zM803 700l-397 -700h-73l398 700h72zM986 100v-100h-93v100h-264v110l219 210h138v-249h60v-71h-60zM705 176v-5h188v183h-4z" />
    <glyph glyph-name="questiondown" unicode="&#xbf;" horiz-adv-x="635" 
d="M271 530h130v-123h-130v123zM284 300h104v-12q0 -40 -26.5 -65.5t-93.5 -57.5q-81 -39 -106 -67t-25 -76v-6q0 -108 169 -108q85 0 130.5 29.5t56.5 102.5h101q-21 -220 -282 -220h-12q-126 0 -195.5 49t-69.5 138v10q0 77 35.5 120.5t133.5 88.5q43 22 60.5 37.5
t19.5 36.5z" />
    <glyph glyph-name="Agrave" unicode="&#xc0;" horiz-adv-x="892" 
d="M402 860l92 -120h-96l-117 120h121zM527 700l344 -700h-120l-96 197h-420l-96 -197h-118l343 700h163zM448 622h-5l-164 -334h332z" />
    <glyph glyph-name="Aacute" unicode="&#xc1;" horiz-adv-x="892" 
d="M611 860l-117 -120h-96l93 120h120zM527 700l344 -700h-120l-96 197h-420l-96 -197h-118l343 700h163zM448 622h-5l-164 -334h332z" />
    <glyph glyph-name="Acircumflex" unicode="&#xc2;" horiz-adv-x="892" 
d="M518 860l121 -120h-94l-99 88l-99 -88h-94l121 120h144zM527 700l344 -700h-120l-96 197h-420l-96 -197h-118l343 700h163zM448 622h-5l-164 -334h332z" />
    <glyph glyph-name="Atilde" unicode="&#xc3;" horiz-adv-x="892" 
d="M522 749q-32 0 -82 21.5t-66 21.5q-34 0 -43 -38h-63q7 51 31 74.5t69 23.5q32 0 82 -22t65 -22q34 0 44 39h66q-12 -98 -103 -98zM527 700l344 -700h-120l-96 197h-420l-96 -197h-118l343 700h163zM448 622h-5l-164 -334h332z" />
    <glyph glyph-name="Adieresis" unicode="&#xc4;" horiz-adv-x="892" 
d="M302 845h86v-86h-86v86zM504 845h86v-86h-86v86zM527 700l344 -700h-120l-96 197h-420l-96 -197h-118l343 700h163zM448 622h-5l-164 -334h332z" />
    <glyph glyph-name="Aring" unicode="&#xc5;" horiz-adv-x="892" 
d="M446 727q-138 0 -138 103t138 103q137 0 137 -103t-137 -103zM446 777q71 0 71 53t-71 53q-72 0 -72 -53t72 -53zM527 700l344 -700h-120l-96 197h-420l-96 -197h-118l343 700h163zM448 622h-5l-164 -334h332z" />
    <glyph glyph-name="AE" unicode="&#xc6;" horiz-adv-x="1235" 
d="M1172 91v-91h-623v198h-288l-132 -198h-124l467 700h700v-91h-516v-213h516v-91h-516v-214h516zM549 615h-11l-217 -326h228v326z" />
    <glyph glyph-name="Ccedilla" unicode="&#xc7;" horiz-adv-x="884" 
d="M717 213h111q-25 -117 -105.5 -170t-230.5 -53l-42 -130h-98l51 130q-181 3 -261 81q-79 79 -79 242v74q0 168 82.5 245.5t270.5 77.5h69q155 0 236.5 -53t106.5 -170h-111q-19 68 -76.5 99.5t-171.5 31.5h-38q-152 0 -206 -58.5t-54 -190.5v-39q0 -65 11 -108.5
t39.5 -76.5t80 -48t129.5 -15h38q114 0 171.5 31.5t76.5 99.5z" />
    <glyph glyph-name="Egrave" unicode="&#xc8;" horiz-adv-x="768" 
d="M349 860l92 -120h-96l-117 120h121zM704 91v-91h-622v700h622v-91h-515v-213h515v-91h-515v-214h515z" />
    <glyph glyph-name="Eacute" unicode="&#xc9;" horiz-adv-x="768" 
d="M558 860l-117 -120h-96l93 120h120zM704 91v-91h-622v700h622v-91h-515v-213h515v-91h-515v-214h515z" />
    <glyph glyph-name="Ecircumflex" unicode="&#xca;" horiz-adv-x="768" 
d="M465 860l121 -120h-94l-99 88l-99 -88h-94l121 120h144zM704 91v-91h-622v700h622v-91h-515v-213h515v-91h-515v-214h515z" />
    <glyph glyph-name="Edieresis" unicode="&#xcb;" horiz-adv-x="768" 
d="M249 845h86v-86h-86v86zM451 845h86v-86h-86v86zM704 91v-91h-622v700h622v-91h-515v-213h515v-91h-515v-214h515z" />
    <glyph glyph-name="Igrave" unicode="&#xcc;" horiz-adv-x="270" 
d="M91 860l92 -120h-96l-117 120h121zM189 700v-700h-107v700h107z" />
    <glyph glyph-name="Iacute" unicode="&#xcd;" horiz-adv-x="270" 
d="M300 860l-117 -120h-96l93 120h120zM189 700v-700h-107v700h107z" />
    <glyph glyph-name="Icircumflex" unicode="&#xce;" horiz-adv-x="270" 
d="M207 860l121 -120h-94l-99 88l-99 -88h-94l121 120h144zM189 700v-700h-107v700h107z" />
    <glyph glyph-name="Idieresis" unicode="&#xcf;" horiz-adv-x="270" 
d="M-9 845h86v-86h-86v86zM193 845h86v-86h-86v86zM189 700v-700h-107v700h107z" />
    <glyph glyph-name="Eth" unicode="&#xd0;" horiz-adv-x="884" 
d="M82 311h-82v77h82v312h383q188 0 272 -78t84 -245v-54q0 -169 -83 -246t-271 -77h-385v311zM431 388v-77h-242v-220h257q80 0 132.5 15.5t81.5 48.5t40.5 76.5t11.5 108.5v19q0 66 -11.5 110t-40.5 77t-81.5 48t-132.5 15h-257v-221h242z" />
    <glyph glyph-name="Ntilde" unicode="&#xd1;" horiz-adv-x="912" 
d="M546 749q-32 0 -82 21.5t-66 21.5q-34 0 -43 -38h-63q7 51 31 74.5t69 23.5q32 0 82 -22t65 -22q34 0 44 39h66q-12 -98 -103 -98zM831 700v-700h-167l-472 599h-5v-599h-107v700h167l472 -600h6v600h106z" />
    <glyph glyph-name="Ograve" unicode="&#xd2;" horiz-adv-x="910" 
d="M411 860l92 -120h-96l-117 120h121zM487 -10h-64q-190 0 -275 77.5t-85 245.5v74q0 167 85 245t275 78h64q190 0 275 -78t85 -245v-74q0 -168 -85 -245.5t-275 -77.5zM434 82h41q80 0 132 15t80.5 48t39.5 76.5t11 108.5v39q0 66 -11 109.5t-39.5 76.5t-80.5 48t-132 15
h-41q-80 0 -132 -15t-80.5 -48t-39.5 -76.5t-11 -109.5v-39q0 -65 11 -108.5t39.5 -76.5t80.5 -48t132 -15z" />
    <glyph glyph-name="Oacute" unicode="&#xd3;" horiz-adv-x="910" 
d="M619 860l-117 -120h-96l93 120h120zM487 -10h-64q-190 0 -275 77.5t-85 245.5v74q0 167 85 245t275 78h64q190 0 275 -78t85 -245v-74q0 -168 -85 -245.5t-275 -77.5zM434 82h41q80 0 132 15t80.5 48t39.5 76.5t11 108.5v39q0 66 -11 109.5t-39.5 76.5t-80.5 48t-132 15
h-41q-80 0 -132 -15t-80.5 -48t-39.5 -76.5t-11 -109.5v-39q0 -65 11 -108.5t39.5 -76.5t80.5 -48t132 -15z" />
    <glyph glyph-name="Ocircumflex" unicode="&#xd4;" horiz-adv-x="910" 
d="M527 860l121 -120h-94l-99 88l-99 -88h-94l121 120h144zM487 -10h-64q-190 0 -275 77.5t-85 245.5v74q0 167 85 245t275 78h64q190 0 275 -78t85 -245v-74q0 -168 -85 -245.5t-275 -77.5zM434 82h41q80 0 132 15t80.5 48t39.5 76.5t11 108.5v39q0 66 -11 109.5
t-39.5 76.5t-80.5 48t-132 15h-41q-80 0 -132 -15t-80.5 -48t-39.5 -76.5t-11 -109.5v-39q0 -65 11 -108.5t39.5 -76.5t80.5 -48t132 -15z" />
    <glyph glyph-name="Otilde" unicode="&#xd5;" horiz-adv-x="910" 
d="M531 749q-32 0 -82 21.5t-66 21.5q-17 0 -27 -8t-16 -30h-63q13 98 100 98q32 0 82 -22t65 -22q34 0 44 39h66q-15 -98 -103 -98zM487 -10h-64q-190 0 -275 77.5t-85 245.5v74q0 167 85 245t275 78h64q190 0 275 -78t85 -245v-74q0 -168 -85 -245.5t-275 -77.5zM434 82
h41q80 0 132 15t80.5 48t39.5 76.5t11 108.5v39q0 66 -11 109.5t-39.5 76.5t-80.5 48t-132 15h-41q-80 0 -132 -15t-80.5 -48t-39.5 -76.5t-11 -109.5v-39q0 -65 11 -108.5t39.5 -76.5t80.5 -48t132 -15z" />
    <glyph glyph-name="Odieresis" unicode="&#xd6;" horiz-adv-x="910" 
d="M311 845h86v-86h-86v86zM513 845h86v-86h-86v86zM487 -10h-64q-190 0 -275 77.5t-85 245.5v74q0 167 85 245t275 78h64q190 0 275 -78t85 -245v-74q0 -168 -85 -245.5t-275 -77.5zM434 82h41q80 0 132 15t80.5 48t39.5 76.5t11 108.5v39q0 66 -11 109.5t-39.5 76.5
t-80.5 48t-132 15h-41q-80 0 -132 -15t-80.5 -48t-39.5 -76.5t-11 -109.5v-39q0 -65 11 -108.5t39.5 -76.5t80.5 -48t132 -15z" />
    <glyph glyph-name="multiply" unicode="&#xd7;" horiz-adv-x="600" 
d="M249 329l-164 164l51 51l164 -164l168 168l51 -52l-167 -167l163 -164l-51 -51l-163 164l-168 -168l-52 51z" />
    <glyph glyph-name="Oslash" unicode="&#xd8;" horiz-adv-x="910" 
d="M170 -40h-107l90 104q-90 74 -90 249v74q0 167 85 245t275 78h64q124 0 199 -31l53 61h108l-90 -104q90 -76 90 -249v-74q0 -168 -85 -245.5t-275 -77.5h-64q-123 0 -200 31zM171 369v-39q0 -130 52 -186l393 455q-57 19 -141 19h-41q-80 0 -132 -15t-80.5 -48
t-39.5 -76.5t-11 -109.5zM434 82h41q80 0 132 15t80.5 48t39.5 76.5t11 108.5v39q0 132 -51 186l-394 -454q57 -19 141 -19z" />
    <glyph glyph-name="Ugrave" unicode="&#xd9;" horiz-adv-x="849" 
d="M381 860l92 -120h-96l-117 120h121zM462 -10h-75q-169 0 -243.5 67.5t-74.5 213.5v429h109v-418q0 -105 49.5 -152t175.5 -47h43q125 0 175 47.5t50 151.5v418h108v-429q0 -146 -74 -213.5t-243 -67.5z" />
    <glyph glyph-name="Uacute" unicode="&#xda;" horiz-adv-x="849" 
d="M589 860l-117 -120h-96l93 120h120zM462 -10h-75q-169 0 -243.5 67.5t-74.5 213.5v429h109v-418q0 -105 49.5 -152t175.5 -47h43q125 0 175 47.5t50 151.5v418h108v-429q0 -146 -74 -213.5t-243 -67.5z" />
    <glyph glyph-name="Ucircumflex" unicode="&#xdb;" horiz-adv-x="849" 
d="M497 860l121 -120h-94l-99 88l-99 -88h-94l121 120h144zM462 -10h-75q-169 0 -243.5 67.5t-74.5 213.5v429h109v-418q0 -105 49.5 -152t175.5 -47h43q125 0 175 47.5t50 151.5v418h108v-429q0 -146 -74 -213.5t-243 -67.5z" />
    <glyph glyph-name="Udieresis" unicode="&#xdc;" horiz-adv-x="849" 
d="M281 845h86v-86h-86v86zM483 845h86v-86h-86v86zM462 -10h-75q-169 0 -243.5 67.5t-74.5 213.5v429h109v-418q0 -105 49.5 -152t175.5 -47h43q125 0 175 47.5t50 151.5v418h108v-429q0 -146 -74 -213.5t-243 -67.5z" />
    <glyph glyph-name="Yacute" unicode="&#xdd;" horiz-adv-x="824" 
d="M577 860l-117 -120h-96l93 120h120zM465 310v-310h-107v310l-337 390h132l261 -303h6l262 303h121z" />
    <glyph glyph-name="Thorn" unicode="&#xde;" horiz-adv-x="812" 
d="M189 135v-135h-107v700h107v-134h335q132 0 195 -49t63 -158v-20q0 -103 -62.5 -153.5t-195.5 -50.5h-335zM508 476h-319v-251h320q91 0 128.5 28t37.5 92v11q0 64 -38.5 92t-128.5 28z" />
    <glyph glyph-name="germandbls" unicode="&#xdf;" horiz-adv-x="696" 
d="M161 487v-487h-99v500q0 113 62 161.5t182 48.5h42q116 0 175 -42.5t59 -122.5v-9q0 -103 -82 -127v-4q80 -7 121.5 -50t41.5 -133v-19q0 -108 -60 -155.5t-186 -47.5h-159v79h144q87 0 124 30t37 97v12q-2 62 -35 90.5t-125 28.5h-145v79h101q67 0 95.5 23.5t28.5 77.5
v6q0 55 -34 80.5t-107 25.5h-24q-84 0 -120.5 -30t-36.5 -112z" />
    <glyph glyph-name="agrave" unicode="&#xe0;" horiz-adv-x="639" 
d="M282 700l92 -120h-96l-117 120h121zM585 333v-333h-98v90h-5q-42 -100 -220 -100q-222 0 -222 162v7q0 75 44 113t136 42l266 11v12q0 76 -39 102.5t-125 26.5q-69 0 -106.5 -19.5t-52.5 -66.5h-100q18 81 79 120.5t176 39.5h18q130 0 189.5 -46t59.5 -161zM140 161v-5
q0 -95 148 -95q94 0 146 39.5t52 111.5v45l-239 -10q-55 -2 -81 -23t-26 -63z" />
    <glyph glyph-name="aacute" unicode="&#xe1;" horiz-adv-x="639" 
d="M490 700l-117 -120h-96l93 120h120zM585 333v-333h-98v90h-5q-42 -100 -220 -100q-222 0 -222 162v7q0 75 44 113t136 42l266 11v12q0 76 -39 102.5t-125 26.5q-69 0 -106.5 -19.5t-52.5 -66.5h-100q18 81 79 120.5t176 39.5h18q130 0 189.5 -46t59.5 -161zM140 161v-5
q0 -95 148 -95q94 0 146 39.5t52 111.5v45l-239 -10q-55 -2 -81 -23t-26 -63z" />
    <glyph glyph-name="acircumflex" unicode="&#xe2;" horiz-adv-x="639" 
d="M397 700l121 -120h-94l-99 88l-99 -88h-94l121 120h144zM585 333v-333h-98v90h-5q-42 -100 -220 -100q-222 0 -222 162v7q0 75 44 113t136 42l266 11v12q0 76 -39 102.5t-125 26.5q-69 0 -106.5 -19.5t-52.5 -66.5h-100q18 81 79 120.5t176 39.5h18q130 0 189.5 -46
t59.5 -161zM140 161v-5q0 -95 148 -95q94 0 146 39.5t52 111.5v45l-239 -10q-55 -2 -81 -23t-26 -63z" />
    <glyph glyph-name="atilde" unicode="&#xe3;" horiz-adv-x="639" 
d="M401 589q-32 0 -82 21.5t-66 21.5q-17 0 -27 -8t-16 -30h-63q13 98 100 98q32 0 82 -22t65 -22q34 0 44 39h66q-15 -98 -103 -98zM585 333v-333h-98v90h-5q-42 -100 -220 -100q-222 0 -222 162v7q0 75 44 113t136 42l266 11v12q0 76 -39 102.5t-125 26.5
q-69 0 -106.5 -19.5t-52.5 -66.5h-100q18 81 79 120.5t176 39.5h18q130 0 189.5 -46t59.5 -161zM140 161v-5q0 -95 148 -95q94 0 146 39.5t52 111.5v45l-239 -10q-55 -2 -81 -23t-26 -63z" />
    <glyph glyph-name="adieresis" unicode="&#xe4;" horiz-adv-x="639" 
d="M181 681h86v-86h-86v86zM383 681h86v-86h-86v86zM585 333v-333h-98v90h-5q-42 -100 -220 -100q-222 0 -222 162v7q0 75 44 113t136 42l266 11v12q0 76 -39 102.5t-125 26.5q-69 0 -106.5 -19.5t-52.5 -66.5h-100q18 81 79 120.5t176 39.5h18q130 0 189.5 -46t59.5 -161z
M140 161v-5q0 -95 148 -95q94 0 146 39.5t52 111.5v45l-239 -10q-55 -2 -81 -23t-26 -63z" />
    <glyph glyph-name="aring" unicode="&#xe5;" horiz-adv-x="639" 
d="M325 567q-138 0 -138 103t138 103q137 0 137 -103t-137 -103zM325 617q71 0 71 53t-71 53q-72 0 -72 -53t72 -53zM585 333v-333h-98v90h-5q-42 -100 -220 -100q-222 0 -222 162v7q0 75 44 113t136 42l266 11v12q0 76 -39 102.5t-125 26.5q-69 0 -106.5 -19.5t-52.5 -66.5
h-100q18 81 79 120.5t176 39.5h18q130 0 189.5 -46t59.5 -161zM140 161v-5q0 -95 148 -95q94 0 146 39.5t52 111.5v45l-239 -10q-55 -2 -81 -23t-26 -63z" />
    <glyph glyph-name="ae" unicode="&#xe6;" horiz-adv-x="1093" 
d="M777 -10h-18q-191 0 -243 117h-4q-54 -117 -245 -117q-227 0 -227 162v7q0 75 44 113t136 42l266 11v12q0 76 -39 102.5t-125 26.5q-69 0 -106.5 -19.5t-52.5 -66.5h-100q18 81 79 120.5t176 39.5h18q165 0 208 -82h4q51 82 211 82h17q135 0 203.5 -59t68.5 -198v-39
h-463q1 -104 45.5 -139t137.5 -35q74 0 114 16t59 62h101q-22 -81 -86.5 -119.5t-178.5 -38.5zM767 466q-87 0 -131 -31.5t-50 -121.5h363v5q0 79 -46.5 113.5t-135.5 34.5zM140 161v-5q0 -95 148 -95q94 0 146 39.5t52 111.5v45l-239 -10q-55 -2 -81 -23t-26 -63z" />
    <glyph glyph-name="ccedilla" unicode="&#xe7;" horiz-adv-x="631" 
d="M497 159h101q-33 -156 -225 -168l-42 -131h-98l51 131q-113 6 -175 64q-63 59 -63 192v36q0 138 68 197.5t202 59.5h22q224 0 260 -169h-101q-18 49 -58.5 66.5t-109.5 17.5q-95 0 -139.5 -36.5t-44.5 -142.5v-22q0 -106 44.5 -142.5t139.5 -36.5q69 0 109.5 17.5
t58.5 66.5z" />
    <glyph glyph-name="egrave" unicode="&#xe8;" horiz-adv-x="653" 
d="M284 700l92 -120h-96l-117 120h121zM501 148h101q-22 -81 -86.5 -119.5t-178.5 -38.5h-19q-135 0 -203.5 60t-68.5 198v33q0 138 68.5 198.5t203.5 60.5h18q135 0 203.5 -59t68.5 -198v-39h-463q1 -104 45.5 -139t137.5 -35q74 0 114 16t59 62zM327 466q-87 0 -131 -31.5
t-50 -121.5h363v5q0 79 -46.5 113.5t-135.5 34.5z" />
    <glyph glyph-name="eacute" unicode="&#xe9;" horiz-adv-x="653" 
d="M493 700l-117 -120h-96l93 120h120zM501 148h101q-22 -81 -86.5 -119.5t-178.5 -38.5h-19q-135 0 -203.5 60t-68.5 198v33q0 138 68.5 198.5t203.5 60.5h18q135 0 203.5 -59t68.5 -198v-39h-463q1 -104 45.5 -139t137.5 -35q74 0 114 16t59 62zM327 466q-87 0 -131 -31.5
t-50 -121.5h363v5q0 79 -46.5 113.5t-135.5 34.5z" />
    <glyph glyph-name="ecircumflex" unicode="&#xea;" horiz-adv-x="653" 
d="M400 700l121 -120h-94l-99 88l-99 -88h-94l121 120h144zM501 148h101q-22 -81 -86.5 -119.5t-178.5 -38.5h-19q-135 0 -203.5 60t-68.5 198v33q0 138 68.5 198.5t203.5 60.5h18q135 0 203.5 -59t68.5 -198v-39h-463q1 -104 45.5 -139t137.5 -35q74 0 114 16t59 62z
M327 466q-87 0 -131 -31.5t-50 -121.5h363v5q0 79 -46.5 113.5t-135.5 34.5z" />
    <glyph glyph-name="edieresis" unicode="&#xeb;" horiz-adv-x="653" 
d="M184 681h86v-86h-86v86zM386 681h86v-86h-86v86zM501 148h101q-22 -81 -86.5 -119.5t-178.5 -38.5h-19q-135 0 -203.5 60t-68.5 198v33q0 138 68.5 198.5t203.5 60.5h18q135 0 203.5 -59t68.5 -198v-39h-463q1 -104 45.5 -139t137.5 -35q74 0 114 16t59 62zM327 466
q-87 0 -131 -31.5t-50 -121.5h363v5q0 79 -46.5 113.5t-135.5 34.5z" />
    <glyph glyph-name="igrave" unicode="&#xec;" horiz-adv-x="229" 
d="M70 700l92 -120h-96l-117 120h121zM64 530h100v-530h-100v530z" />
    <glyph glyph-name="iacute" unicode="&#xed;" horiz-adv-x="229" 
d="M279 700l-117 -120h-96l93 120h120zM64 530h100v-530h-100v530z" />
    <glyph glyph-name="icircumflex" unicode="&#xee;" horiz-adv-x="229" 
d="M186 700l121 -120h-94l-99 88l-99 -88h-94l121 120h144zM64 530h100v-530h-100v530z" />
    <glyph glyph-name="idieresis" unicode="&#xef;" horiz-adv-x="229" 
d="M-30 681h86v-86h-86v86zM172 681h86v-86h-86v86zM64 530h100v-530h-100v530z" />
    <glyph glyph-name="eth" unicode="&#xf0;" horiz-adv-x="672" 
d="M355 -10h-36q-126 0 -200 56q-72 56 -72 186v21q0 123 65.5 181t193.5 58q99 0 158 -43l3 3q-25 46 -85 110l-237 -31v69l174 23q-53 46 -98 77h144q46 -35 72 -61l164 22v-70l-106 -14q130 -156 130 -317v-22q0 -130 -69 -189t-201 -59zM336 75q95 0 142.5 34.5
t47.5 127.5v13q0 96 -47 129.5t-143 33.5q-95 0 -142.5 -34.5t-47.5 -128.5v-13q0 -93 47 -127.5t143 -34.5z" />
    <glyph glyph-name="ntilde" unicode="&#xf1;" horiz-adv-x="638" 
d="M402 589q-32 0 -82 21.5t-66 21.5q-34 0 -43 -38h-63q7 51 31 74.5t69 23.5q32 0 82 -22t65 -22q34 0 44 39h66q-12 -98 -103 -98zM582 335v-335h-98v314q0 81 -39.5 111t-111.5 30q-82 0 -127 -36.5t-45 -125.5v-293h-99v530h99v-91h5q46 101 195 101q105 0 163 -46.5
t58 -158.5z" />
    <glyph glyph-name="ograve" unicode="&#xf2;" horiz-adv-x="675" 
d="M294 700l92 -120h-96l-117 120h121zM354 -10h-33q-138 0 -206.5 61.5t-68.5 197.5v32q0 136 68.5 197.5t206.5 61.5h33q138 0 206.5 -61.5t68.5 -197.5v-33q0 -136 -68.5 -197t-206.5 -61zM338 75q100 0 146 36t46 145v19q0 108 -46 144t-146 36t-146.5 -36t-46.5 -145
v-19q0 -56 12.5 -92.5t39.5 -55.5t59.5 -25.5t81.5 -6.5z" />
    <glyph glyph-name="oacute" unicode="&#xf3;" horiz-adv-x="675" 
d="M503 700l-117 -120h-96l93 120h120zM354 -10h-33q-138 0 -206.5 61.5t-68.5 197.5v32q0 136 68.5 197.5t206.5 61.5h33q138 0 206.5 -61.5t68.5 -197.5v-33q0 -136 -68.5 -197t-206.5 -61zM338 75q100 0 146 36t46 145v19q0 108 -46 144t-146 36t-146.5 -36t-46.5 -145
v-19q0 -56 12.5 -92.5t39.5 -55.5t59.5 -25.5t81.5 -6.5z" />
    <glyph glyph-name="ocircumflex" unicode="&#xf4;" horiz-adv-x="675" 
d="M410 700l121 -120h-94l-99 88l-99 -88h-94l121 120h144zM354 -10h-33q-138 0 -206.5 61.5t-68.5 197.5v32q0 136 68.5 197.5t206.5 61.5h33q138 0 206.5 -61.5t68.5 -197.5v-33q0 -136 -68.5 -197t-206.5 -61zM338 75q100 0 146 36t46 145v19q0 108 -46 144t-146 36
t-146.5 -36t-46.5 -145v-19q0 -56 12.5 -92.5t39.5 -55.5t59.5 -25.5t81.5 -6.5z" />
    <glyph glyph-name="otilde" unicode="&#xf5;" horiz-adv-x="675" 
d="M414 589q-32 0 -82 21.5t-66 21.5q-34 0 -43 -38h-63q7 51 31 74.5t69 23.5q32 0 82 -22t65 -22q34 0 44 39h66q-12 -98 -103 -98zM354 -10h-33q-138 0 -206.5 61.5t-68.5 197.5v32q0 136 68.5 197.5t206.5 61.5h33q138 0 206.5 -61.5t68.5 -197.5v-33q0 -136 -68.5 -197
t-206.5 -61zM338 75q100 0 146 36t46 145v19q0 108 -46 144t-146 36t-146.5 -36t-46.5 -145v-19q0 -56 12.5 -92.5t39.5 -55.5t59.5 -25.5t81.5 -6.5z" />
    <glyph glyph-name="odieresis" unicode="&#xf6;" horiz-adv-x="675" 
d="M194 681h86v-86h-86v86zM396 681h86v-86h-86v86zM354 -10h-33q-138 0 -206.5 61.5t-68.5 197.5v32q0 136 68.5 197.5t206.5 61.5h33q138 0 206.5 -61.5t68.5 -197.5v-33q0 -136 -68.5 -197t-206.5 -61zM338 75q100 0 146 36t46 145v19q0 108 -46 144t-146 36t-146.5 -36
t-46.5 -145v-19q0 -56 12.5 -92.5t39.5 -55.5t59.5 -25.5t81.5 -6.5z" />
    <glyph glyph-name="divide" unicode="&#xf7;" horiz-adv-x="600" 
d="M337 576v-84h-74v84h74zM498 365v-71h-396v71h396zM337 166v-84h-74v84h74z" />
    <glyph glyph-name="oslash" unicode="&#xf8;" horiz-adv-x="676" 
d="M140 -40h-94l71 89q-71 62 -71 200v32q0 136 68.5 197.5t206.5 61.5h33q85 0 141 -22l40 49h93l-69 -87q70 -61 70 -199v-33q0 -136 -68.5 -197t-206.5 -61h-33q-81 0 -140 21zM145 274v-19q0 -88 33 -130l257 319q-39 11 -97 11q-100 0 -146.5 -36t-46.5 -145zM338 75
q100 0 146 36t46 145v19q0 89 -33 129l-255 -319q37 -10 96 -10z" />
    <glyph glyph-name="ugrave" unicode="&#xf9;" horiz-adv-x="638" 
d="M272 700l92 -120h-96l-117 120h121zM56 195v335h98v-314q0 -81 39.5 -111t111.5 -30q82 0 127 36.5t45 125.5v293h99v-530h-99v91h-5q-46 -101 -195 -101q-105 0 -163 46.5t-58 158.5z" />
    <glyph glyph-name="uacute" unicode="&#xfa;" horiz-adv-x="638" 
d="M481 700l-117 -120h-96l93 120h120zM56 195v335h98v-314q0 -81 39.5 -111t111.5 -30q82 0 127 36.5t45 125.5v293h99v-530h-99v91h-5q-46 -101 -195 -101q-105 0 -163 46.5t-58 158.5z" />
    <glyph glyph-name="ucircumflex" unicode="&#xfb;" horiz-adv-x="638" 
d="M388 700l121 -120h-94l-99 88l-99 -88h-94l121 120h144zM56 195v335h98v-314q0 -81 39.5 -111t111.5 -30q82 0 127 36.5t45 125.5v293h99v-530h-99v91h-5q-46 -101 -195 -101q-105 0 -163 46.5t-58 158.5z" />
    <glyph glyph-name="udieresis" unicode="&#xfc;" horiz-adv-x="638" 
d="M172 681h86v-86h-86v86zM374 681h86v-86h-86v86zM56 195v335h98v-314q0 -81 39.5 -111t111.5 -30q82 0 127 36.5t45 125.5v293h99v-530h-99v91h-5q-46 -101 -195 -101q-105 0 -163 46.5t-58 158.5z" />
    <glyph glyph-name="yacute" unicode="&#xfd;" horiz-adv-x="596" 
d="M468 700l-117 -120h-96l93 120h120zM597 530l-327 -700h-105l86 172l-249 528h107l193 -414h5l187 414h103z" />
    <glyph glyph-name="thorn" unicode="&#xfe;" horiz-adv-x="691" 
d="M161 87v-257h-99v870h99v-257h5q21 49 69 73t133 24h17q125 0 193 -59.5t68 -196.5v-37q0 -138 -67.5 -197.5t-193.5 -59.5h-17q-85 0 -133 24t-69 73h-5zM354 75q50 0 82.5 6.5t59 25.5t38.5 55t12 93v19q0 57 -12 93.5t-38.5 55.5t-59 25.5t-82.5 6.5
q-102 0 -147.5 -35t-45.5 -141v-24q0 -57 12 -93t38.5 -55t59 -25.5t83.5 -6.5z" />
    <glyph glyph-name="ydieresis" unicode="&#xff;" horiz-adv-x="596" 
d="M160 681h86v-86h-86v86zM362 681h86v-86h-86v86zM597 530l-327 -700h-105l86 172l-249 528h107l193 -414h5l187 414h103z" />
    <glyph glyph-name="Amacron" unicode="&#x100;" horiz-adv-x="892" 
d="M615 830v-56h-338v56h338zM527 700l344 -700h-120l-96 197h-420l-96 -197h-118l343 700h163zM448 622h-5l-164 -334h332z" />
    <glyph glyph-name="amacron" unicode="&#x101;" horiz-adv-x="639" 
d="M494 666v-55h-338v55h338zM585 333v-333h-98v90h-5q-42 -100 -220 -100q-222 0 -222 162v7q0 75 44 113t136 42l266 11v12q0 76 -39 102.5t-125 26.5q-69 0 -106.5 -19.5t-52.5 -66.5h-100q18 81 79 120.5t176 39.5h18q130 0 189.5 -46t59.5 -161zM140 161v-5
q0 -95 148 -95q94 0 146 39.5t52 111.5v45l-239 -10q-55 -2 -81 -23t-26 -63z" />
    <glyph glyph-name="Abreve" unicode="&#x102;" horiz-adv-x="892" 
d="M446 733q-89 0 -130.5 30.5t-44.5 96.5h77q1 -70 98 -70t98 70h77q-4 -66 -45.5 -96.5t-129.5 -30.5zM527 700l344 -700h-120l-96 197h-420l-96 -197h-118l343 700h163zM448 622h-5l-164 -334h332z" />
    <glyph glyph-name="abreve" unicode="&#x103;" horiz-adv-x="639" 
d="M325 573q-89 0 -130.5 31t-44.5 96h77q1 -70 98 -70t98 70h77q-4 -65 -45.5 -96t-129.5 -31zM585 333v-333h-98v90h-5q-42 -100 -220 -100q-222 0 -222 162v7q0 75 44 113t136 42l266 11v12q0 76 -39 102.5t-125 26.5q-69 0 -106.5 -19.5t-52.5 -66.5h-100
q18 81 79 120.5t176 39.5h18q130 0 189.5 -46t59.5 -161zM140 161v-5q0 -95 148 -95q94 0 146 39.5t52 111.5v45l-239 -10q-55 -2 -81 -23t-26 -63z" />
    <glyph glyph-name="Aogonek" unicode="&#x104;" horiz-adv-x="892" 
d="M838 -86v-54h-72q-54 0 -80 16.5t-26 53.5q0 31 16 50t67 36l-88 181h-420l-96 -197h-118l343 700h163l344 -700h-33q-57 -17 -71.5 -27t-14.5 -30q0 -16 9.5 -22.5t35.5 -6.5h41zM448 622h-5l-164 -334h332z" />
    <glyph glyph-name="aogonek" unicode="&#x105;" horiz-adv-x="639" 
d="M585 333v-333h-1q-57 -17 -71.5 -27t-14.5 -30q0 -16 9.5 -22.5t35.5 -6.5h41v-54h-72q-54 0 -80 16.5t-26 53.5q0 27 14 47q13 19 67 39v74h-5q-42 -100 -220 -100q-222 0 -222 162v7q0 75 44 113t136 42l266 11v12q0 76 -39 102.5t-125 26.5q-69 0 -106.5 -19.5
t-52.5 -66.5h-100q18 81 79 120.5t176 39.5h18q130 0 189.5 -46t59.5 -161zM140 161v-5q0 -95 148 -95q94 0 146 39.5t52 111.5v45l-239 -10q-55 -2 -81 -23t-26 -63z" />
    <glyph glyph-name="Cacute" unicode="&#x106;" horiz-adv-x="884" 
d="M615 860l-117 -120h-96l93 120h120zM485 -10h-69q-188 0 -270.5 77.5t-82.5 245.5v74q0 168 82.5 245.5t270.5 77.5h69q155 0 236.5 -53t106.5 -170h-111q-19 68 -76.5 99.5t-171.5 31.5h-38q-152 0 -206 -58.5t-54 -190.5v-39q0 -65 11 -108.5t39.5 -76.5t80 -48
t129.5 -15h38q114 0 171.5 31.5t76.5 99.5h111q-25 -117 -106.5 -170t-236.5 -53z" />
    <glyph glyph-name="cacute" unicode="&#x107;" horiz-adv-x="631" 
d="M480 700l-117 -120h-96l93 120h120zM338 -10h-22q-133 0 -201.5 60t-68.5 197v36q0 138 68 197.5t202 59.5h22q224 0 260 -169h-101q-18 49 -58.5 66.5t-109.5 17.5q-95 0 -139.5 -36.5t-44.5 -142.5v-22q0 -106 44.5 -142.5t139.5 -36.5q69 0 109.5 17.5t58.5 66.5h101
q-36 -169 -260 -169z" />
    <glyph glyph-name="Ccircumflex" unicode="&#x108;" horiz-adv-x="884" 
d="M522 860l121 -120h-94l-99 88l-99 -88h-94l121 120h144zM485 -10h-69q-188 0 -270.5 77.5t-82.5 245.5v74q0 168 82.5 245.5t270.5 77.5h69q155 0 236.5 -53t106.5 -170h-111q-19 68 -76.5 99.5t-171.5 31.5h-38q-152 0 -206 -58.5t-54 -190.5v-39q0 -65 11 -108.5
t39.5 -76.5t80 -48t129.5 -15h38q114 0 171.5 31.5t76.5 99.5h111q-25 -117 -106.5 -170t-236.5 -53z" />
    <glyph glyph-name="ccircumflex" unicode="&#x109;" horiz-adv-x="631" 
d="M398 700l121 -120h-94l-99 88l-99 -88h-94l121 120h144zM338 -10h-22q-133 0 -201.5 60t-68.5 197v36q0 138 68 197.5t202 59.5h22q224 0 260 -169h-101q-18 49 -58.5 66.5t-109.5 17.5q-95 0 -139.5 -36.5t-44.5 -142.5v-22q0 -106 44.5 -142.5t139.5 -36.5
q69 0 109.5 17.5t58.5 66.5h101q-36 -169 -260 -169z" />
    <glyph glyph-name="Cdotaccent" unicode="&#x10a;" horiz-adv-x="884" 
d="M401 845h99v-86h-99v86zM485 -10h-69q-188 0 -270.5 77.5t-82.5 245.5v74q0 168 82.5 245.5t270.5 77.5h69q155 0 236.5 -53t106.5 -170h-111q-19 68 -76.5 99.5t-171.5 31.5h-38q-152 0 -206 -58.5t-54 -190.5v-39q0 -65 11 -108.5t39.5 -76.5t80 -48t129.5 -15h38
q114 0 171.5 31.5t76.5 99.5h111q-25 -117 -106.5 -170t-236.5 -53z" />
    <glyph glyph-name="cdotaccent" unicode="&#x10b;" horiz-adv-x="631" 
d="M277 681h99v-86h-99v86zM338 -10h-22q-133 0 -201.5 60t-68.5 197v36q0 138 68 197.5t202 59.5h22q224 0 260 -169h-101q-18 49 -58.5 66.5t-109.5 17.5q-95 0 -139.5 -36.5t-44.5 -142.5v-22q0 -106 44.5 -142.5t139.5 -36.5q69 0 109.5 17.5t58.5 66.5h101
q-36 -169 -260 -169z" />
    <glyph glyph-name="Ccaron" unicode="&#x10c;" horiz-adv-x="884" 
d="M450 772l99 88h94l-121 -120h-144l-121 120h94zM485 -10h-69q-188 0 -270.5 77.5t-82.5 245.5v74q0 168 82.5 245.5t270.5 77.5h69q155 0 236.5 -53t106.5 -170h-111q-19 68 -76.5 99.5t-171.5 31.5h-38q-152 0 -206 -58.5t-54 -190.5v-39q0 -65 11 -108.5t39.5 -76.5
t80 -48t129.5 -15h38q114 0 171.5 31.5t76.5 99.5h111q-25 -117 -106.5 -170t-236.5 -53z" />
    <glyph glyph-name="ccaron" unicode="&#x10d;" horiz-adv-x="631" 
d="M326 612l99 88h94l-121 -120h-144l-121 120h94zM338 -10h-22q-133 0 -201.5 60t-68.5 197v36q0 138 68 197.5t202 59.5h22q224 0 260 -169h-101q-18 49 -58.5 66.5t-109.5 17.5q-95 0 -139.5 -36.5t-44.5 -142.5v-22q0 -106 44.5 -142.5t139.5 -36.5q69 0 109.5 17.5
t58.5 66.5h101q-36 -169 -260 -169z" />
    <glyph glyph-name="Dcaron" unicode="&#x10e;" horiz-adv-x="884" 
d="M438 772l99 88h94l-121 -120h-144l-121 120h94zM821 377v-54q0 -169 -83 -246t-271 -77h-385v700h383q188 0 272 -78t84 -245zM446 609h-257v-518h257q80 0 132.5 15.5t81.5 48.5t40.5 76.5t11.5 108.5v19q0 66 -11.5 110t-40.5 77t-81.5 48t-132.5 15z" />
    <glyph glyph-name="dcaron" unicode="&#x10f;" horiz-adv-x="839" 
d="M631 700v-700h-99v87h-4q-42 -97 -202 -97h-18q-126 0 -193 59.5t-67 196.5v37q0 139 67 198t193 59h18q160 0 202 -97h4v257h99zM843 700l-57 -206h-78l34 206h101zM340 75q101 0 146.5 35t45.5 141v24q0 108 -45.5 144t-146.5 36q-51 0 -83.5 -6.5t-59 -25.5t-38.5 -55
t-12 -93v-19q0 -109 45.5 -145t147.5 -36z" />
    <glyph glyph-name="Dcroat" unicode="&#x110;" horiz-adv-x="884" 
d="M82 311h-82v77h82v312h383q188 0 272 -78t84 -245v-54q0 -169 -83 -246t-271 -77h-385v311zM431 388v-77h-242v-220h257q80 0 132.5 15.5t81.5 48.5t40.5 76.5t11.5 108.5v19q0 66 -11.5 110t-40.5 77t-81.5 48t-132.5 15h-257v-221h242z" />
    <glyph glyph-name="dslash" unicode="&#x111;" horiz-adv-x="690" 
d="M627 575v-575h-99v87h-4q-42 -97 -202 -97h-18q-126 0 -193 59.5t-67 196.5v37q0 139 67 198t193 59h18q160 0 202 -97h4v132h-196v72h196v53h99v-53h59v-72h-59zM336 75q101 0 146.5 35t45.5 141v24q0 108 -45.5 144t-146.5 36q-51 0 -83.5 -6.5t-59 -25.5t-38.5 -55
t-12 -93v-19q0 -109 45.5 -145t147.5 -36z" />
    <glyph glyph-name="Emacron" unicode="&#x112;" horiz-adv-x="768" 
d="M562 830v-56h-338v56h338zM704 91v-91h-622v700h622v-91h-515v-213h515v-91h-515v-214h515z" />
    <glyph glyph-name="emacron" unicode="&#x113;" horiz-adv-x="653" 
d="M497 666v-55h-338v55h338zM501 148h101q-22 -81 -86.5 -119.5t-178.5 -38.5h-19q-135 0 -203.5 60t-68.5 198v33q0 138 68.5 198.5t203.5 60.5h18q135 0 203.5 -59t68.5 -198v-39h-463q1 -104 45.5 -139t137.5 -35q74 0 114 16t59 62zM327 466q-87 0 -131 -31.5
t-50 -121.5h363v5q0 79 -46.5 113.5t-135.5 34.5z" />
    <glyph glyph-name="Ebreve" unicode="&#x114;" horiz-adv-x="768" 
d="M393 733q-89 0 -130.5 30.5t-44.5 96.5h77q1 -70 98 -70t98 70h77q-4 -66 -45.5 -96.5t-129.5 -30.5zM704 91v-91h-622v700h622v-91h-515v-213h515v-91h-515v-214h515z" />
    <glyph glyph-name="ebreve" unicode="&#x115;" horiz-adv-x="653" 
d="M328 573q-89 0 -130.5 31t-44.5 96h77q1 -70 98 -70t98 70h77q-4 -65 -45.5 -96t-129.5 -31zM501 148h101q-22 -81 -86.5 -119.5t-178.5 -38.5h-19q-135 0 -203.5 60t-68.5 198v33q0 138 68.5 198.5t203.5 60.5h18q135 0 203.5 -59t68.5 -198v-39h-463q1 -104 45.5 -139
t137.5 -35q74 0 114 16t59 62zM327 466q-87 0 -131 -31.5t-50 -121.5h363v5q0 79 -46.5 113.5t-135.5 34.5z" />
    <glyph glyph-name="Edotaccent" unicode="&#x116;" horiz-adv-x="768" 
d="M344 845h99v-86h-99v86zM704 91v-91h-622v700h622v-91h-515v-213h515v-91h-515v-214h515z" />
    <glyph glyph-name="edotaccent" unicode="&#x117;" horiz-adv-x="653" 
d="M279 681h99v-86h-99v86zM501 148h101q-22 -81 -86.5 -119.5t-178.5 -38.5h-19q-135 0 -203.5 60t-68.5 198v33q0 138 68.5 198.5t203.5 60.5h18q135 0 203.5 -59t68.5 -198v-39h-463q1 -104 45.5 -139t137.5 -35q74 0 114 16t59 62zM327 466q-87 0 -131 -31.5t-50 -121.5
h363v5q0 79 -46.5 113.5t-135.5 34.5z" />
    <glyph glyph-name="Eogonek" unicode="&#x118;" horiz-adv-x="768" 
d="M704 -86v-54h-72q-54 0 -80 16.5t-26 53.5q0 24 9 40t35 30h-488v700h622v-91h-515v-213h515v-91h-515v-214h515v-91q-57 -17 -71.5 -27t-14.5 -30q0 -16 9.5 -22.5t35.5 -6.5h41z" />
    <glyph glyph-name="eogonek" unicode="&#x119;" horiz-adv-x="652" 
d="M532 -86v-54h-85q-93 0 -93 67q0 40 29 61v4q-14 -2 -60 -2q-144 0 -210.5 62.5t-66.5 195.5v33q0 138 68.5 198.5t204.5 60.5h17q135 0 203.5 -59t68.5 -198v-39h-463q1 -104 45.5 -139t137.5 -35q74 0 114 16t59 62h101q-21 -83 -101 -129q-31 -19 -43.5 -34t-12.5 -36
q0 -19 10 -27t36 -8h41zM327 466q-87 0 -131 -31.5t-50 -121.5h363v5q0 79 -46.5 113.5t-135.5 34.5z" />
    <glyph glyph-name="Ecaron" unicode="&#x11a;" horiz-adv-x="768" 
d="M393 772l99 88h94l-121 -120h-144l-121 120h94zM704 91v-91h-622v700h622v-91h-515v-213h515v-91h-515v-214h515z" />
    <glyph glyph-name="ecaron" unicode="&#x11b;" horiz-adv-x="653" 
d="M328 612l99 88h94l-121 -120h-144l-121 120h94zM501 148h101q-22 -81 -86.5 -119.5t-178.5 -38.5h-19q-135 0 -203.5 60t-68.5 198v33q0 138 68.5 198.5t203.5 60.5h18q135 0 203.5 -59t68.5 -198v-39h-463q1 -104 45.5 -139t137.5 -35q74 0 114 16t59 62zM327 466
q-87 0 -131 -31.5t-50 -121.5h363v5q0 79 -46.5 113.5t-135.5 34.5z" />
    <glyph glyph-name="Gcircumflex" unicode="&#x11c;" horiz-adv-x="908" 
d="M527 860l121 -120h-94l-99 88l-99 -88h-94l121 120h144zM487 -10h-64q-190 0 -275 77.5t-85 243.5v78q0 166 85 243.5t275 77.5h64q153 0 238 -50t110 -157h-116q-18 59 -77 87t-167 28h-40q-80 0 -132 -15t-81 -47.5t-40 -76t-11 -108.5v-42q0 -65 11 -108t40 -75.5
t81 -47.5t132 -15h41q145 0 202 50.5t59 163.5h-304v91h411v-82q0 -161 -86 -238.5t-271 -77.5z" />
    <glyph glyph-name="gcircumflex" unicode="&#x11d;" horiz-adv-x="687" 
d="M415 700l121 -120h-94l-99 88l-99 -88h-94l121 120h144zM356 -170h-26q-108 0 -176 31t-92 107h106q19 -36 59 -49t114 -13q94 0 137 30.5t43 113.5v71h-4q-41 -90 -197 -90h-9q-123 0 -188 55.5t-65 187.5v22q0 132 65 188t188 56h9q156 0 197 -90h4v80h99v-486
q0 -116 -66.5 -165t-197.5 -49zM340 113q45 0 74 5.5t55.5 21.5t39 50t12.5 88v13q0 53 -12.5 87.5t-39 51t-55.5 22t-74 5.5t-75 -5.5t-56.5 -22t-39 -51t-12.5 -87.5v-13q0 -100 45 -132.5t138 -32.5z" />
    <glyph glyph-name="Gbreve" unicode="&#x11e;" horiz-adv-x="908" 
d="M455 733q-89 0 -130.5 30.5t-44.5 96.5h77q1 -70 98 -70t98 70h77q-4 -66 -45.5 -96.5t-129.5 -30.5zM487 -10h-64q-190 0 -275 77.5t-85 243.5v78q0 166 85 243.5t275 77.5h64q153 0 238 -50t110 -157h-116q-18 59 -77 87t-167 28h-40q-80 0 -132 -15t-81 -47.5t-40 -76
t-11 -108.5v-42q0 -65 11 -108t40 -75.5t81 -47.5t132 -15h41q145 0 202 50.5t59 163.5h-304v91h411v-82q0 -161 -86 -238.5t-271 -77.5z" />
    <glyph glyph-name="gbreve" unicode="&#x11f;" horiz-adv-x="687" 
d="M343 573q-89 0 -130.5 31t-44.5 96h77q1 -70 98 -70t98 70h77q-4 -65 -45.5 -96t-129.5 -31zM356 -170h-26q-108 0 -176 31t-92 107h106q19 -36 59 -49t114 -13q94 0 137 30.5t43 113.5v71h-4q-41 -90 -197 -90h-9q-123 0 -188 55.5t-65 187.5v22q0 132 65 188t188 56h9
q156 0 197 -90h4v80h99v-486q0 -116 -66.5 -165t-197.5 -49zM340 113q45 0 74 5.5t55.5 21.5t39 50t12.5 88v13q0 53 -12.5 87.5t-39 51t-55.5 22t-74 5.5t-75 -5.5t-56.5 -22t-39 -51t-12.5 -87.5v-13q0 -100 45 -132.5t138 -32.5z" />
    <glyph glyph-name="Gdotaccent" unicode="&#x120;" horiz-adv-x="908" 
d="M405 845h99v-86h-99v86zM487 -10h-64q-190 0 -275 77.5t-85 243.5v78q0 166 85 243.5t275 77.5h64q153 0 238 -50t110 -157h-116q-18 59 -77 87t-167 28h-40q-80 0 -132 -15t-81 -47.5t-40 -76t-11 -108.5v-42q0 -65 11 -108t40 -75.5t81 -47.5t132 -15h41
q145 0 202 50.5t59 163.5h-304v91h411v-82q0 -161 -86 -238.5t-271 -77.5z" />
    <glyph glyph-name="gdotaccent" unicode="&#x121;" horiz-adv-x="687" 
d="M294 681h99v-86h-99v86zM356 -170h-26q-108 0 -176 31t-92 107h106q19 -36 59 -49t114 -13q94 0 137 30.5t43 113.5v71h-4q-41 -90 -197 -90h-9q-123 0 -188 55.5t-65 187.5v22q0 132 65 188t188 56h9q156 0 197 -90h4v80h99v-486q0 -116 -66.5 -165t-197.5 -49zM340 113
q45 0 74 5.5t55.5 21.5t39 50t12.5 88v13q0 53 -12.5 87.5t-39 51t-55.5 22t-74 5.5t-75 -5.5t-56.5 -22t-39 -51t-12.5 -87.5v-13q0 -100 45 -132.5t138 -32.5z" />
    <glyph glyph-name="Gcommaaccent" unicode="&#x122;" horiz-adv-x="908" 
d="M487 -10h-64q-190 0 -275 77.5t-85 243.5v78q0 166 85 243.5t275 77.5h64q153 0 238 -50t110 -157h-116q-18 59 -77 87t-167 28h-40q-80 0 -132 -15t-81 -47.5t-40 -76t-11 -108.5v-42q0 -65 11 -108t40 -75.5t81 -47.5t132 -15h41q145 0 202 50.5t59 163.5h-304v91h411
v-82q0 -161 -86 -238.5t-271 -77.5zM485 -149l-16 -21h-62l44 59v7h-61v58h128v-15q0 -28 -7 -45.5t-26 -42.5z" />
    <glyph glyph-name="gcommaaccent" unicode="&#x123;" horiz-adv-x="687" 
d="M312 693l17 21h61l-44 -59v-7h61v-58h-128v15q0 28 7 45t26 43zM356 -170h-26q-108 0 -176 31t-92 107h106q19 -36 59 -49t114 -13q94 0 137 30.5t43 113.5v71h-4q-41 -90 -197 -90h-9q-123 0 -188 55.5t-65 187.5v22q0 132 65 188t188 56h9q156 0 197 -90h4v80h99v-486
q0 -116 -66.5 -165t-197.5 -49zM340 113q45 0 74 5.5t55.5 21.5t39 50t12.5 88v13q0 53 -12.5 87.5t-39 51t-55.5 22t-74 5.5t-75 -5.5t-56.5 -22t-39 -51t-12.5 -87.5v-13q0 -100 45 -132.5t138 -32.5z" />
    <glyph glyph-name="Hcircumflex" unicode="&#x124;" horiz-adv-x="884" 
d="M514 860l121 -120h-94l-99 88l-99 -88h-94l121 120h144zM802 700v-700h-107v305h-506v-305h-107v700h107v-305h506v305h107z" />
    <glyph glyph-name="hcircumflex" unicode="&#x125;" horiz-adv-x="638" 
d="M183 870l121 -120h-94l-99 88l-99 -88h-94l121 120h144zM582 335v-335h-98v314q0 81 -39.5 111t-111.5 30q-82 0 -127 -36.5t-45 -125.5v-293h-99v700h99v-261h5q46 101 195 101q105 0 163 -46.5t58 -158.5z" />
    <glyph glyph-name="Hbar" unicode="&#x126;" horiz-adv-x="884" 
d="M82 507h-82v77h82v116h107v-116h506v116h107v-116h82v-77h-82v-507h-107v305h-506v-305h-107v507zM189 507v-112h506v112h-506z" />
    <glyph glyph-name="hbar" unicode="&#x127;" horiz-adv-x="638" 
d="M62 575h-59v72h59v53h99v-53h197v-72h-197v-136h5q46 101 195 101q105 0 163 -46.5t58 -158.5v-335h-98v314q0 81 -39.5 111t-111.5 30q-82 0 -127 -36.5t-45 -125.5v-293h-99v575z" />
    <glyph glyph-name="Itilde" unicode="&#x128;" horiz-adv-x="270" 
d="M211 749q-32 0 -82 21.5t-66 21.5q-17 0 -27 -8t-16 -30h-63q13 98 100 98q32 0 82 -22t65 -22q34 0 44 39h66q-15 -98 -103 -98zM189 700v-700h-107v700h107z" />
    <glyph glyph-name="itilde" unicode="&#x129;" horiz-adv-x="229" 
d="M190 589q-32 0 -82 21.5t-66 21.5q-34 0 -43 -38h-63q7 51 31 74.5t69 23.5q32 0 82 -22t65 -22q34 0 44 39h66q-12 -98 -103 -98zM64 530h100v-530h-100v530z" />
    <glyph glyph-name="Imacron" unicode="&#x12a;" horiz-adv-x="270" 
d="M304 830v-56h-338v56h338zM189 700v-700h-107v700h107z" />
    <glyph glyph-name="imacron" unicode="&#x12b;" horiz-adv-x="229" 
d="M283 666v-55h-338v55h338zM64 530h100v-530h-100v530z" />
    <glyph glyph-name="Ibreve" unicode="&#x12c;" horiz-adv-x="270" 
d="M135 733q-89 0 -130.5 30.5t-44.5 96.5h77q1 -70 98 -70t98 70h77q-4 -66 -45.5 -96.5t-129.5 -30.5zM189 700v-700h-107v700h107z" />
    <glyph glyph-name="ibreve" unicode="&#x12d;" horiz-adv-x="229" 
d="M114 573q-89 0 -130.5 31t-44.5 96h77q1 -70 98 -70t98 70h77q-4 -65 -45.5 -96t-129.5 -31zM64 530h100v-530h-100v530z" />
    <glyph glyph-name="Iogonek" unicode="&#x12e;" horiz-adv-x="270" 
d="M189 700v-700h-1q-57 -17 -71.5 -27t-14.5 -30q0 -16 9.5 -22.5t35.5 -6.5h41v-54h-72q-54 0 -80 16.5t-26 53.5q0 29 14 47t58 35v688h107z" />
    <glyph glyph-name="iogonek" unicode="&#x12f;" horiz-adv-x="229" 
d="M64 700h99v-86h-99v86zM163 -86v-54h-72q-54 0 -80 16.5t-26 53.5q0 27 14 47q13 19 65 38v515h99v-530q-57 -18 -71.5 -28t-14.5 -29q0 -16 9.5 -22.5t35.5 -6.5h41z" />
    <glyph glyph-name="Idot" unicode="&#x130;" horiz-adv-x="270" 
d="M86 845h99v-86h-99v86zM189 700v-700h-107v700h107z" />
    <glyph glyph-name="dotlessi" unicode="&#x131;" horiz-adv-x="229" 
d="M64 530h100v-530h-100v530z" />
    <glyph glyph-name="IJ" unicode="&#x132;" horiz-adv-x="781" 
d="M189 700v-700h-107v700h107zM419 0h-132v91h96q126 0 173 42t47 138v429h108v-428q0 -142 -66.5 -207t-225.5 -65z" />
    <glyph glyph-name="ij" unicode="&#x133;" horiz-adv-x="471" 
d="M64 700h99v-86h-99v86zM306 700h99v-86h-99v86zM64 530h99v-530h-99v530zM306 530h99v-433q0 -99 -15.5 -149t-65.5 -118h-105q53 69 70 118t17 130v452z" />
    <glyph glyph-name="Jcircumflex" unicode="&#x134;" horiz-adv-x="510" 
d="M459 860l121 -120h-94l-99 88l-99 -88h-94l121 120h144zM149 0h-132v91h96q126 0 173 42t47 138v429h108v-428q0 -142 -66.5 -207t-225.5 -65z" />
    <glyph glyph-name="jcircumflex" unicode="&#x135;" horiz-adv-x="242" 
d="M192 700l121 -120h-94l-99 88l-99 -88h-94l121 120h144zM71 530h99v-433q0 -100 -15.5 -149.5t-65.5 -117.5h-105q53 71 70 119t17 129v452z" />
    <glyph glyph-name="Kcommaaccent" unicode="&#x136;" horiz-adv-x="863" 
d="M189 247v-247h-107v700h107v-336h4l489 336h157l-408 -282l418 -418h-147l-356 355h-5zM450 -149l-16 -21h-62l44 59v7h-61v58h128v-15q0 -28 -7 -45.5t-26 -42.5z" />
    <glyph glyph-name="kcommaaccent" unicode="&#x137;" horiz-adv-x="640" 
d="M167 160v-160h-99v700h99v-428h5l307 258h132l-265 -220l282 -310h-130l-223 246h-4zM344 -149l-16 -21h-62l44 59v7h-61v58h128v-15q0 -28 -7 -45.5t-26 -42.5z" />
    <glyph glyph-name="Lacute" unicode="&#x139;" horiz-adv-x="696" 
d="M300 860l-117 -120h-96l93 120h120zM662 93v-93h-580v700h107v-607h473z" />
    <glyph glyph-name="lacute" unicode="&#x13a;" horiz-adv-x="229" 
d="M279 860l-117 -120h-96l93 120h120zM163 700v-700h-99v700h99z" />
    <glyph glyph-name="Lcommaaccent" unicode="&#x13b;" horiz-adv-x="696" 
d="M662 93v-93h-580v700h107v-607h473zM398 -149l-16 -21h-62l44 59v7h-61v58h128v-15q0 -28 -7 -45.5t-26 -42.5z" />
    <glyph glyph-name="lcommaaccent" unicode="&#x13c;" horiz-adv-x="229" 
d="M163 700v-700h-99v700h99zM145 -149l-16 -21h-62l44 59v7h-61v58h128v-15q0 -28 -7 -45.5t-26 -42.5z" />
    <glyph glyph-name="Lcaron" unicode="&#x13d;" horiz-adv-x="704" 
d="M550 701l-57 -206h-78l34 206h101zM662 93v-93h-580v700h107v-607h473z" />
    <glyph glyph-name="lcaron" unicode="&#x13e;" horiz-adv-x="384" 
d="M163 700v-700h-99v700h99zM375 700l-57 -206h-78l34 206h101z" />
    <glyph glyph-name="Ldot" unicode="&#x13f;" horiz-adv-x="702" 
d="M662 93v-93h-580v700h107v-607h473zM435 448h98v-86h-98v86z" />
    <glyph glyph-name="ldot" unicode="&#x140;" horiz-adv-x="435" 
d="M163 700v-700h-99v700h99zM282 315h98v-86h-98v86z" />
    <glyph glyph-name="Lslash" unicode="&#x141;" horiz-adv-x="696" 
d="M82 280l-82 -19v78l82 19v342h107v-316l264 62v-78l-264 -62v-213h473v-93h-580v280z" />
    <glyph glyph-name="lslash" unicode="&#x142;" horiz-adv-x="247" 
d="M166 394v-394h-99v314l-62 -50v81l62 50v305h99v-225l81 65v-81z" />
    <glyph glyph-name="Nacute" unicode="&#x143;" horiz-adv-x="912" 
d="M635 860l-117 -120h-96l93 120h120zM831 700v-700h-167l-472 599h-5v-599h-107v700h167l472 -600h6v600h106z" />
    <glyph glyph-name="nacute" unicode="&#x144;" horiz-adv-x="638" 
d="M492 700l-117 -120h-96l93 120h120zM582 335v-335h-98v314q0 81 -39.5 111t-111.5 30q-82 0 -127 -36.5t-45 -125.5v-293h-99v530h99v-91h5q46 101 195 101q105 0 163 -46.5t58 -158.5z" />
    <glyph glyph-name="Ncommaaccent" unicode="&#x145;" horiz-adv-x="912" 
d="M831 700v-700h-167l-472 599h-5v-599h-107v700h167l472 -600h6v600h106zM472 -149l-16 -21h-62l44 59v7h-61v58h128v-15q0 -28 -7 -45.5t-26 -42.5z" />
    <glyph glyph-name="ncommaaccent" unicode="&#x146;" horiz-adv-x="638" 
d="M582 335v-335h-98v314q0 81 -39.5 111t-111.5 30q-82 0 -127 -36.5t-45 -125.5v-293h-99v530h99v-91h5q46 101 195 101q105 0 163 -46.5t58 -158.5zM352 -149l-16 -21h-62l44 59v7h-61v58h128v-15q0 -28 -7 -45.5t-26 -42.5z" />
    <glyph glyph-name="Ncaron" unicode="&#x147;" horiz-adv-x="912" 
d="M470 772l99 88h94l-121 -120h-144l-121 120h94zM831 700v-700h-167l-472 599h-5v-599h-107v700h167l472 -600h6v600h106z" />
    <glyph glyph-name="ncaron" unicode="&#x148;" horiz-adv-x="638" 
d="M326 612l99 88h94l-121 -120h-144l-121 120h94zM582 335v-335h-98v314q0 81 -39.5 111t-111.5 30q-82 0 -127 -36.5t-45 -125.5v-293h-99v530h99v-91h5q46 101 195 101q105 0 163 -46.5t58 -158.5z" />
    <glyph glyph-name="Eng" unicode="&#x14a;" horiz-adv-x="915" 
d="M542 -170h-118v91h98q129 0 160 55l-488 623h-5v-599h-107v700h167l472 -600h6v600h106v-598q0 -142 -65.5 -207t-225.5 -65z" />
    <glyph glyph-name="eng" unicode="&#x14b;" horiz-adv-x="638" 
d="M161 298v-298h-99v530h99v-90h5q44 100 193 100q106 0 164.5 -47t58.5 -159v-291q0 -115 -59 -164t-181 -49h-42v80h9q92 0 133.5 30.5t41.5 114.5v258q0 82 -40 112t-115 30q-79 0 -123.5 -35t-44.5 -122z" />
    <glyph glyph-name="Omacron" unicode="&#x14c;" horiz-adv-x="910" 
d="M624 830v-56h-338v56h338zM487 -10h-64q-190 0 -275 77.5t-85 245.5v74q0 167 85 245t275 78h64q190 0 275 -78t85 -245v-74q0 -168 -85 -245.5t-275 -77.5zM434 82h41q80 0 132 15t80.5 48t39.5 76.5t11 108.5v39q0 66 -11 109.5t-39.5 76.5t-80.5 48t-132 15h-41
q-80 0 -132 -15t-80.5 -48t-39.5 -76.5t-11 -109.5v-39q0 -65 11 -108.5t39.5 -76.5t80.5 -48t132 -15z" />
    <glyph glyph-name="omacron" unicode="&#x14d;" horiz-adv-x="675" 
d="M507 666v-55h-338v55h338zM354 -10h-33q-138 0 -206.5 61.5t-68.5 197.5v32q0 136 68.5 197.5t206.5 61.5h33q138 0 206.5 -61.5t68.5 -197.5v-33q0 -136 -68.5 -197t-206.5 -61zM338 75q100 0 146 36t46 145v19q0 108 -46 144t-146 36t-146.5 -36t-46.5 -145v-19
q0 -56 12.5 -92.5t39.5 -55.5t59.5 -25.5t81.5 -6.5z" />
    <glyph glyph-name="Obreve" unicode="&#x14e;" horiz-adv-x="910" 
d="M455 733q-89 0 -130.5 30.5t-44.5 96.5h77q1 -70 98 -70t98 70h77q-4 -66 -45.5 -96.5t-129.5 -30.5zM487 -10h-64q-190 0 -275 77.5t-85 245.5v74q0 167 85 245t275 78h64q190 0 275 -78t85 -245v-74q0 -168 -85 -245.5t-275 -77.5zM434 82h41q80 0 132 15t80.5 48
t39.5 76.5t11 108.5v39q0 66 -11 109.5t-39.5 76.5t-80.5 48t-132 15h-41q-80 0 -132 -15t-80.5 -48t-39.5 -76.5t-11 -109.5v-39q0 -65 11 -108.5t39.5 -76.5t80.5 -48t132 -15z" />
    <glyph glyph-name="obreve" unicode="&#x14f;" horiz-adv-x="675" 
d="M338 573q-89 0 -130.5 31t-44.5 96h77q1 -70 98 -70t98 70h77q-4 -65 -45.5 -96t-129.5 -31zM354 -10h-33q-138 0 -206.5 61.5t-68.5 197.5v32q0 136 68.5 197.5t206.5 61.5h33q138 0 206.5 -61.5t68.5 -197.5v-33q0 -136 -68.5 -197t-206.5 -61zM338 75q100 0 146 36
t46 145v19q0 108 -46 144t-146 36t-146.5 -36t-46.5 -145v-19q0 -56 12.5 -92.5t39.5 -55.5t59.5 -25.5t81.5 -6.5z" />
    <glyph glyph-name="Ohungarumlaut" unicode="&#x150;" horiz-adv-x="910" 
d="M522 860l-117 -120h-96l93 120h120zM710 860l-117 -120h-96l93 120h120zM487 -10h-64q-190 0 -275 77.5t-85 245.5v74q0 167 85 245t275 78h64q190 0 275 -78t85 -245v-74q0 -168 -85 -245.5t-275 -77.5zM434 82h41q80 0 132 15t80.5 48t39.5 76.5t11 108.5v39
q0 66 -11 109.5t-39.5 76.5t-80.5 48t-132 15h-41q-80 0 -132 -15t-80.5 -48t-39.5 -76.5t-11 -109.5v-39q0 -65 11 -108.5t39.5 -76.5t80.5 -48t132 -15z" />
    <glyph glyph-name="ohungarumlaut" unicode="&#x151;" horiz-adv-x="675" 
d="M409 700l-117 -120h-96l93 120h120zM597 700l-117 -120h-96l93 120h120zM354 -10h-33q-138 0 -206.5 61.5t-68.5 197.5v32q0 136 68.5 197.5t206.5 61.5h33q138 0 206.5 -61.5t68.5 -197.5v-33q0 -136 -68.5 -197t-206.5 -61zM338 75q100 0 146 36t46 145v19
q0 108 -46 144t-146 36t-146.5 -36t-46.5 -145v-19q0 -56 12.5 -92.5t39.5 -55.5t59.5 -25.5t81.5 -6.5z" />
    <glyph glyph-name="OE" unicode="&#x152;" horiz-adv-x="1381" 
d="M1317 91v-91h-898q-188 0 -272 78t-84 245v54q0 169 83 246t271 77h900v-91h-515v-213h515v-91h-515v-214h515zM438 91h257v518h-257q-80 0 -132.5 -15.5t-81.5 -48.5t-40.5 -76.5t-11.5 -108.5v-19q0 -66 11.5 -110t40.5 -77t81.5 -48t132.5 -15z" />
    <glyph glyph-name="oe" unicode="&#x153;" horiz-adv-x="1142" 
d="M354 -10h-33q-138 0 -206.5 61.5t-68.5 197.5v32q0 136 68.5 197.5t206.5 61.5h33q170 0 225 -97h4q55 97 224 97h18q136 0 204 -59t68 -198v-39h-465q1 -104 45.5 -139t138.5 -35q74 0 114.5 16t59.5 62h101q-22 -80 -86.5 -119t-178.5 -39h-19q-170 0 -223 98h-4
q-56 -98 -226 -98zM815 466q-88 0 -132 -31.5t-50 -121.5h366v5q0 79 -47 113.5t-137 34.5zM338 75q100 0 146 36t46 145v19q0 108 -46 144t-146 36t-146.5 -36t-46.5 -145v-19q0 -56 12.5 -92.5t39.5 -55.5t59.5 -25.5t81.5 -6.5z" />
    <glyph glyph-name="Racute" unicode="&#x154;" horiz-adv-x="852" 
d="M586 860l-117 -120h-96l93 120h120zM189 284v-284h-107v700h457q133 0 188 -42q55 -40 55 -136v-22q0 -76 -29 -113.5t-91 -46.5v-5q64 -10 92 -43t28 -114v-178h-107v160q0 76 -32.5 100t-134.5 24h-319zM503 609h-314v-234h331q89 0 122 25.5t33 88.5v7
q0 66 -36.5 89.5t-135.5 23.5z" />
    <glyph glyph-name="racute" unicode="&#x155;" horiz-adv-x="415" 
d="M426 700l-117 -120h-96l93 120h120zM356 530h46v-86h-62q-87 0 -133 -32.5t-46 -119.5v-292h-99v530h99v-89h5q35 89 190 89z" />
    <glyph glyph-name="Rcommaaccent" unicode="&#x156;" horiz-adv-x="852" 
d="M189 284v-284h-107v700h457q133 0 188 -42q55 -40 55 -136v-22q0 -76 -29 -113.5t-91 -46.5v-5q64 -10 92 -43t28 -114v-178h-107v160q0 76 -32.5 100t-134.5 24h-319zM503 609h-314v-234h331q89 0 122 25.5t33 88.5v7q0 66 -36.5 89.5t-135.5 23.5zM461 -149l-16 -21
h-62l44 59v7h-61v58h128v-15q0 -28 -7 -45.5t-26 -42.5z" />
    <glyph glyph-name="rcommaaccent" unicode="&#x157;" horiz-adv-x="415" 
d="M356 530h46v-86h-62q-87 0 -133 -32.5t-46 -119.5v-292h-99v530h99v-89h5q35 89 190 89zM142 -149l-16 -21h-62l44 59v7h-61v58h128v-15q0 -28 -7 -45.5t-26 -42.5z" />
    <glyph glyph-name="Rcaron" unicode="&#x158;" horiz-adv-x="852" 
d="M421 772l99 88h94l-121 -120h-144l-121 120h94zM189 284v-284h-107v700h457q133 0 188 -42q55 -40 55 -136v-22q0 -76 -29 -113.5t-91 -46.5v-5q64 -10 92 -43t28 -114v-178h-107v160q0 76 -32.5 100t-134.5 24h-319zM503 609h-314v-234h331q89 0 122 25.5t33 88.5v7
q0 66 -36.5 89.5t-135.5 23.5z" />
    <glyph glyph-name="rcaron" unicode="&#x159;" horiz-adv-x="415" 
d="M255 612l99 88h94l-121 -120h-144l-121 120h94zM356 530h46v-86h-62q-87 0 -133 -32.5t-46 -119.5v-292h-99v530h99v-89h5q35 89 190 89z" />
    <glyph glyph-name="Sacute" unicode="&#x15a;" horiz-adv-x="816" 
d="M572 860l-117 -120h-96l93 120h120zM423 -10h-19q-316 0 -353 185h112q21 -57 85.5 -77t169.5 -20q123 0 183 27.5t60 94.5v8q0 53 -33 75t-124 26l-195 8q-125 5 -179.5 48t-54.5 131v6q0 110 80.5 159t237.5 49h20q300 0 338 -189h-111q-17 58 -77 79.5t-163 21.5
q-116 0 -166 -26t-50 -85v-3q0 -53 32.5 -75t123.5 -26l195 -8q126 -5 180 -48t54 -131v-9q0 -122 -89 -171.5t-257 -49.5z" />
    <glyph glyph-name="sacute" unicode="&#x15b;" horiz-adv-x="633" 
d="M490 700l-117 -120h-96l93 120h120zM324 -10h-11q-119 0 -186.5 33.5t-84.5 112.5h102q25 -70 178 -70q91 0 131 18.5t41 67.5v5q0 37 -27 52.5t-95 18.5l-135 5q-99 4 -140 38.5t-41 100.5v11q0 157 251 157h10q116 0 179 -33.5t84 -112.5h-103q-17 39 -55.5 54.5
t-110.5 15.5q-81 0 -118.5 -18t-37.5 -60v-4q0 -38 26.5 -52.5t95.5 -17.5l135 -6q99 -3 140 -38t41 -101v-11q0 -91 -68.5 -128.5t-200.5 -37.5z" />
    <glyph glyph-name="Scircumflex" unicode="&#x15c;" horiz-adv-x="816" 
d="M477 860l121 -120h-94l-99 88l-99 -88h-94l121 120h144zM423 -10h-19q-316 0 -353 185h112q21 -57 85.5 -77t169.5 -20q123 0 183 27.5t60 94.5v8q0 53 -33 75t-124 26l-195 8q-125 5 -179.5 48t-54.5 131v6q0 110 80.5 159t237.5 49h20q300 0 338 -189h-111
q-17 58 -77 79.5t-163 21.5q-116 0 -166 -26t-50 -85v-3q0 -53 32.5 -75t123.5 -26l195 -8q126 -5 180 -48t54 -131v-9q0 -122 -89 -171.5t-257 -49.5z" />
    <glyph glyph-name="scircumflex" unicode="&#x15d;" horiz-adv-x="633" 
d="M385 700l121 -120h-94l-99 88l-99 -88h-94l121 120h144zM324 -10h-11q-119 0 -186.5 33.5t-84.5 112.5h102q25 -70 178 -70q91 0 131 18.5t41 67.5v5q0 37 -27 52.5t-95 18.5l-135 5q-99 4 -140 38.5t-41 100.5v11q0 157 251 157h10q116 0 179 -33.5t84 -112.5h-103
q-17 39 -55.5 54.5t-110.5 15.5q-81 0 -118.5 -18t-37.5 -60v-4q0 -38 26.5 -52.5t95.5 -17.5l135 -6q99 -3 140 -38t41 -101v-11q0 -91 -68.5 -128.5t-200.5 -37.5z" />
    <glyph glyph-name="Scedilla" unicode="&#x15e;" horiz-adv-x="816" 
d="M769 220v-9q0 -60 -22 -103t-65 -68t-98.5 -36.5t-128.5 -13.5l-42 -130h-98l51 131q-280 11 -315 184h112q21 -57 85.5 -77t169.5 -20q123 0 183 27.5t60 94.5v8q0 53 -33 75t-124 26l-195 8q-125 5 -179.5 48t-54.5 131v6q0 110 80.5 159t237.5 49h20q300 0 338 -189
h-111q-17 58 -77 79.5t-163 21.5q-116 0 -166 -26t-50 -85v-3q0 -53 32.5 -75t123.5 -26l195 -8q126 -5 180 -48t54 -131z" />
    <glyph glyph-name="scedilla" unicode="&#x15f;" horiz-adv-x="633" 
d="M593 167v-11q0 -82 -57.5 -120.5t-166.5 -44.5l-42 -131h-98l51 131q-104 4 -163.5 38t-74.5 107h102q25 -70 178 -70q91 0 131 18.5t41 67.5v5q0 37 -27 52.5t-95 18.5l-135 5q-99 4 -140 38.5t-41 100.5v11q0 157 251 157h10q116 0 179 -33.5t84 -112.5h-103
q-17 39 -55.5 54.5t-110.5 15.5q-81 0 -118.5 -18t-37.5 -60v-4q0 -38 26.5 -52.5t95.5 -17.5l135 -6q99 -3 140 -38t41 -101z" />
    <glyph glyph-name="Scaron" unicode="&#x160;" horiz-adv-x="816" 
d="M405 772l99 88h94l-121 -120h-144l-121 120h94zM423 -10h-19q-316 0 -353 185h112q21 -57 85.5 -77t169.5 -20q123 0 183 27.5t60 94.5v8q0 53 -33 75t-124 26l-195 8q-125 5 -179.5 48t-54.5 131v6q0 110 80.5 159t237.5 49h20q300 0 338 -189h-111q-17 58 -77 79.5
t-163 21.5q-116 0 -166 -26t-50 -85v-3q0 -53 32.5 -75t123.5 -26l195 -8q126 -5 180 -48t54 -131v-9q0 -122 -89 -171.5t-257 -49.5z" />
    <glyph glyph-name="scaron" unicode="&#x161;" horiz-adv-x="633" 
d="M313 612l99 88h94l-121 -120h-144l-121 120h94zM324 -10h-11q-119 0 -186.5 33.5t-84.5 112.5h102q25 -70 178 -70q91 0 131 18.5t41 67.5v5q0 37 -27 52.5t-95 18.5l-135 5q-99 4 -140 38.5t-41 100.5v11q0 157 251 157h10q116 0 179 -33.5t84 -112.5h-103
q-17 39 -55.5 54.5t-110.5 15.5q-81 0 -118.5 -18t-37.5 -60v-4q0 -38 26.5 -52.5t95.5 -17.5l135 -6q99 -3 140 -38t41 -101v-11q0 -91 -68.5 -128.5t-200.5 -37.5z" />
    <glyph glyph-name="Tcaron" unicode="&#x164;" horiz-adv-x="746" 
d="M372 772l99 88h94l-121 -120h-144l-121 120h94zM426 607v-607h-107v607h-298v93h704v-93h-299z" />
    <glyph glyph-name="tcaron" unicode="&#x165;" horiz-adv-x="443" 
d="M442 794l-57 -206h-78l34 206h101zM408 79v-79h-73q-107 0 -149.5 39t-42.5 137v275h-130v79h130v170h99v-170h166v-79h-166v-256q0 -73 26.5 -94.5t99.5 -21.5h40z" />
    <glyph glyph-name="Tbar" unicode="&#x166;" horiz-adv-x="746" 
d="M319 299h-218v77h218v231h-298v93h704v-93h-299v-231h219v-77h-219v-299h-107v299z" />
    <glyph glyph-name="tbar" unicode="&#x167;" horiz-adv-x="443" 
d="M143 257h-113v71h113v123h-130v79h130v170h99v-170h166v-79h-166v-123h152v-71h-152v-62q0 -73 26.5 -94.5t99.5 -21.5h40v-79h-73q-107 0 -149.5 39t-42.5 137v81z" />
    <glyph glyph-name="Utilde" unicode="&#x168;" horiz-adv-x="849" 
d="M501 749q-32 0 -82 21.5t-66 21.5q-17 0 -27 -8t-16 -30h-63q13 98 100 98q32 0 82 -22t65 -22q34 0 44 39h66q-15 -98 -103 -98zM462 -10h-75q-169 0 -243.5 67.5t-74.5 213.5v429h109v-418q0 -105 49.5 -152t175.5 -47h43q125 0 175 47.5t50 151.5v418h108v-429
q0 -146 -74 -213.5t-243 -67.5z" />
    <glyph glyph-name="utilde" unicode="&#x169;" horiz-adv-x="638" 
d="M392 589q-32 0 -82 21.5t-66 21.5q-34 0 -43 -38h-63q7 51 31 74.5t69 23.5q32 0 82 -22t65 -22q34 0 44 39h66q-12 -98 -103 -98zM56 195v335h98v-314q0 -81 39.5 -111t111.5 -30q82 0 127 36.5t45 125.5v293h99v-530h-99v91h-5q-46 -101 -195 -101q-105 0 -163 46.5
t-58 158.5z" />
    <glyph glyph-name="Umacron" unicode="&#x16a;" horiz-adv-x="849" 
d="M594 830v-56h-338v56h338zM462 -10h-75q-169 0 -243.5 67.5t-74.5 213.5v429h109v-418q0 -105 49.5 -152t175.5 -47h43q125 0 175 47.5t50 151.5v418h108v-429q0 -146 -74 -213.5t-243 -67.5z" />
    <glyph glyph-name="umacron" unicode="&#x16b;" horiz-adv-x="638" 
d="M485 666v-55h-338v55h338zM56 195v335h98v-314q0 -81 39.5 -111t111.5 -30q82 0 127 36.5t45 125.5v293h99v-530h-99v91h-5q-46 -101 -195 -101q-105 0 -163 46.5t-58 158.5z" />
    <glyph glyph-name="Ubreve" unicode="&#x16c;" horiz-adv-x="849" 
d="M425 733q-89 0 -130.5 30.5t-44.5 96.5h77q1 -70 98 -70t98 70h77q-4 -66 -45.5 -96.5t-129.5 -30.5zM462 -10h-75q-169 0 -243.5 67.5t-74.5 213.5v429h109v-418q0 -105 49.5 -152t175.5 -47h43q125 0 175 47.5t50 151.5v418h108v-429q0 -146 -74 -213.5t-243 -67.5z
" />
    <glyph glyph-name="ubreve" unicode="&#x16d;" horiz-adv-x="638" 
d="M316 573q-89 0 -130.5 31t-44.5 96h77q1 -70 98 -70t98 70h77q-4 -65 -45.5 -96t-129.5 -31zM56 195v335h98v-314q0 -81 39.5 -111t111.5 -30q82 0 127 36.5t45 125.5v293h99v-530h-99v91h-5q-46 -101 -195 -101q-105 0 -163 46.5t-58 158.5z" />
    <glyph glyph-name="Uring" unicode="&#x16e;" horiz-adv-x="849" 
d="M425 727q-138 0 -138 103t138 103q137 0 137 -103t-137 -103zM425 777q71 0 71 53t-71 53q-72 0 -72 -53t72 -53zM462 -10h-75q-169 0 -243.5 67.5t-74.5 213.5v429h109v-418q0 -105 49.5 -152t175.5 -47h43q125 0 175 47.5t50 151.5v418h108v-429q0 -146 -74 -213.5
t-243 -67.5z" />
    <glyph glyph-name="uring" unicode="&#x16f;" horiz-adv-x="638" 
d="M316 567q-138 0 -138 103t138 103q137 0 137 -103t-137 -103zM316 617q71 0 71 53t-71 53q-72 0 -72 -53t72 -53zM56 195v335h98v-314q0 -81 39.5 -111t111.5 -30q82 0 127 36.5t45 125.5v293h99v-530h-99v91h-5q-46 -101 -195 -101q-105 0 -163 46.5t-58 158.5z" />
    <glyph glyph-name="Uhungarumlaut" unicode="&#x170;" horiz-adv-x="849" 
d="M492 860l-117 -120h-96l93 120h120zM680 860l-117 -120h-96l93 120h120zM462 -10h-75q-169 0 -243.5 67.5t-74.5 213.5v429h109v-418q0 -105 49.5 -152t175.5 -47h43q125 0 175 47.5t50 151.5v418h108v-429q0 -146 -74 -213.5t-243 -67.5z" />
    <glyph glyph-name="uhungarumlaut" unicode="&#x171;" horiz-adv-x="638" 
d="M388 700l-117 -120h-96l93 120h120zM576 700l-117 -120h-96l93 120h120zM56 195v335h98v-314q0 -81 39.5 -111t111.5 -30q82 0 127 36.5t45 125.5v293h99v-530h-99v91h-5q-46 -101 -195 -101q-105 0 -163 46.5t-58 158.5z" />
    <glyph glyph-name="Uogonek" unicode="&#x172;" horiz-adv-x="849" 
d="M519 -86v-54h-85q-47 0 -70 15.5t-23 51.5q0 41 37 61v4h-14q-152 0 -223.5 68.5t-71.5 210.5v429h109v-418q0 -105 49.5 -152t175.5 -47h43q125 0 175 47.5t50 151.5v418h108v-429q0 -131 -57 -194.5t-192 -84.5q-63 -12 -80.5 -21.5t-17.5 -29.5q0 -15 10 -21t36 -6h41
z" />
    <glyph glyph-name="uogonek" unicode="&#x173;" horiz-adv-x="638" 
d="M56 195v335h98v-314q0 -81 39.5 -111t111.5 -30q82 0 127 36.5t45 125.5v293h99v-530h-1q-57 -17 -71.5 -27t-14.5 -30q0 -16 9.5 -22.5t35.5 -6.5h41v-54h-72q-54 0 -80 16.5t-26 53.5q0 28 13 47q12 18 67 38v76h-5q-46 -101 -195 -101q-105 0 -163 46.5t-58 158.5z
" />
    <glyph glyph-name="Wcircumflex" unicode="&#x174;" horiz-adv-x="1222" 
d="M687 860l121 -120h-94l-99 88l-99 -88h-94l121 120h144zM1196 700l-215 -700h-146l-222 577l-221 -577h-153l-214 700h115l179 -596h5l228 596h126l228 -596h5l178 596h107z" />
    <glyph glyph-name="wcircumflex" unicode="&#x175;" horiz-adv-x="940" 
d="M546 700l121 -120h-94l-99 88l-99 -88h-94l121 120h144zM929 530l-166 -530h-131l-159 422l-158 -422h-139l-165 530h109l131 -434h6l161 434h114l160 -434h6l132 434h99z" />
    <glyph glyph-name="Ycircumflex" unicode="&#x176;" horiz-adv-x="824" 
d="M484 860l121 -120h-94l-99 88l-99 -88h-94l121 120h144zM465 310v-310h-107v310l-337 390h132l261 -303h6l262 303h121z" />
    <glyph glyph-name="ycircumflex" unicode="&#x177;" horiz-adv-x="596" 
d="M376 700l121 -120h-94l-99 88l-99 -88h-94l121 120h144zM597 530l-327 -700h-105l86 172l-249 528h107l193 -414h5l187 414h103z" />
    <glyph glyph-name="Ydieresis" unicode="&#x178;" horiz-adv-x="824" 
d="M268 845h86v-86h-86v86zM470 845h86v-86h-86v86zM465 310v-310h-107v310l-337 390h132l261 -303h6l262 303h121z" />
    <glyph glyph-name="Zacute" unicode="&#x179;" horiz-adv-x="810" 
d="M572 860l-117 -120h-96l93 120h120zM752 91v-91h-692v83l527 526h-507v91h656v-83l-527 -526h543z" />
    <glyph glyph-name="zacute" unicode="&#x17a;" horiz-adv-x="596" 
d="M464 700l-117 -120h-96l93 120h120zM557 79v-79h-515v73l370 378h-356v79h488v-73l-370 -378h383z" />
    <glyph glyph-name="Zdotaccent" unicode="&#x17b;" horiz-adv-x="810" 
d="M359 845h99v-86h-99v86zM752 91v-91h-692v83l527 526h-507v91h656v-83l-527 -526h543z" />
    <glyph glyph-name="zdotaccent" unicode="&#x17c;" horiz-adv-x="596" 
d="M250 681h99v-86h-99v86zM557 79v-79h-515v73l370 378h-356v79h488v-73l-370 -378h383z" />
    <glyph glyph-name="Zcaron" unicode="&#x17d;" horiz-adv-x="810" 
d="M408 772l99 88h94l-121 -120h-144l-121 120h94zM752 91v-91h-692v83l527 526h-507v91h656v-83l-527 -526h543z" />
    <glyph glyph-name="zcaron" unicode="&#x17e;" horiz-adv-x="596" 
d="M299 612l99 88h94l-121 -120h-144l-121 120h94zM557 79v-79h-515v73l370 378h-356v79h488v-73l-370 -378h383z" />
    <glyph glyph-name="florin" unicode="&#x192;" 
d="M386 319v-424h-102v424h-256v63h256v25q0 86 20 144.5t59 90.5t88.5 45t117.5 13h167v-89h-149q-106 0 -153.5 -43t-47.5 -156v-30h350v-63h-350z" />
    <glyph glyph-name="Aringacute" unicode="&#x1fa;" horiz-adv-x="892" 
d="M611 1080l-117 -120h-96l93 120h120zM446 727q-138 0 -138 103t138 103q137 0 137 -103t-137 -103zM446 777q71 0 71 53t-71 53q-72 0 -72 -53t72 -53zM527 700l344 -700h-120l-96 197h-420l-96 -197h-118l343 700h163zM448 622h-5l-164 -334h332z" />
    <glyph glyph-name="aringacute" unicode="&#x1fb;" horiz-adv-x="639" 
d="M492 920l-117 -120h-96l93 120h120zM327 565q-138 0 -138 103t138 103q137 0 137 -103t-137 -103zM327 615q71 0 71 53t-71 53q-72 0 -72 -53t72 -53zM585 333v-333h-98v90h-5q-42 -100 -220 -100q-222 0 -222 162v7q0 75 44 113t136 42l266 11v12q0 76 -39 102.5
t-125 26.5q-69 0 -106.5 -19.5t-52.5 -66.5h-100q18 81 79 120.5t176 39.5h18q130 0 189.5 -46t59.5 -161zM140 161v-5q0 -95 148 -95q94 0 146 39.5t52 111.5v45l-239 -10q-55 -2 -81 -23t-26 -63z" />
    <glyph glyph-name="AEacute" unicode="&#x1fc;" horiz-adv-x="1235" 
d="M767 860l-117 -120h-96l93 120h120zM1172 91v-91h-623v198h-288l-132 -198h-124l467 700h700v-91h-516v-213h516v-91h-516v-214h516zM549 615h-11l-217 -326h228v326z" />
    <glyph glyph-name="aeacute" unicode="&#x1fd;" horiz-adv-x="1097" 
d="M706 700l-117 -120h-96l93 120h120zM779 -10h-18q-191 0 -243 117h-4q-54 -117 -245 -117q-227 0 -227 162v7q0 75 44 113t136 42l266 11v12q0 76 -39 102.5t-125 26.5q-69 0 -106.5 -19.5t-52.5 -66.5h-100q18 81 79 120.5t176 39.5h18q165 0 208 -82h4q51 82 211 82h17
q135 0 203.5 -59t68.5 -198v-39h-463q1 -104 45.5 -139t137.5 -35q74 0 114 16t59 62h101q-22 -81 -86.5 -119.5t-178.5 -38.5zM769 466q-87 0 -131 -31.5t-50 -121.5h363v5q0 79 -46.5 113.5t-135.5 34.5zM142 161v-5q0 -95 148 -95q94 0 146 39.5t52 111.5v45l-239 -10
q-55 -2 -81 -23t-26 -63z" />
    <glyph glyph-name="Oslashacute" unicode="&#x1fe;" horiz-adv-x="910" 
d="M619 860l-117 -120h-96l93 120h120zM170 -40h-107l90 104q-90 74 -90 249v74q0 167 85 245t275 78h64q124 0 199 -31l53 61h108l-90 -104q90 -76 90 -249v-74q0 -168 -85 -245.5t-275 -77.5h-64q-123 0 -200 31zM171 369v-39q0 -130 52 -186l393 455q-57 19 -141 19h-41
q-80 0 -132 -15t-80.5 -48t-39.5 -76.5t-11 -109.5zM434 82h41q80 0 132 15t80.5 48t39.5 76.5t11 108.5v39q0 132 -51 186l-394 -454q57 -19 141 -19z" />
    <glyph glyph-name="oslashacute" unicode="&#x1ff;" horiz-adv-x="676" 
d="M502 700l-117 -120h-96l93 120h120zM140 -40h-94l71 89q-71 62 -71 200v32q0 136 68.5 197.5t206.5 61.5h33q85 0 141 -22l40 49h93l-69 -87q70 -61 70 -199v-33q0 -136 -68.5 -197t-206.5 -61h-33q-81 0 -140 21zM145 274v-19q0 -88 33 -130l257 319q-39 11 -97 11
q-100 0 -146.5 -36t-46.5 -145zM338 75q100 0 146 36t46 145v19q0 89 -33 129l-255 -319q37 -10 96 -10z" />
    <glyph glyph-name="Scommaaccent" unicode="&#x218;" horiz-adv-x="816" 
d="M423 -10h-19q-316 0 -353 185h112q21 -57 85.5 -77t169.5 -20q123 0 183 27.5t60 94.5v8q0 53 -33 75t-124 26l-195 8q-125 5 -179.5 48t-54.5 131v6q0 110 80.5 159t237.5 49h20q300 0 338 -189h-111q-17 58 -77 79.5t-163 21.5q-116 0 -166 -26t-50 -85v-3
q0 -53 32.5 -75t123.5 -26l195 -8q126 -5 180 -48t54 -131v-9q0 -122 -89 -171.5t-257 -49.5zM444 -149l-16 -21h-62l44 59v7h-61v58h128v-15q0 -28 -7 -45.5t-26 -42.5z" />
    <glyph glyph-name="scommaaccent" unicode="&#x219;" horiz-adv-x="633" 
d="M324 -10h-11q-119 0 -186.5 33.5t-84.5 112.5h102q25 -70 178 -70q91 0 131 18.5t41 67.5v5q0 37 -27 52.5t-95 18.5l-135 5q-99 4 -140 38.5t-41 100.5v11q0 157 251 157h10q116 0 179 -33.5t84 -112.5h-103q-17 39 -55.5 54.5t-110.5 15.5q-81 0 -118.5 -18t-37.5 -60
v-4q0 -38 26.5 -52.5t95.5 -17.5l135 -6q99 -3 140 -38t41 -101v-11q0 -91 -68.5 -128.5t-200.5 -37.5zM351 -149l-16 -21h-62l44 59v7h-61v58h128v-15q0 -28 -7 -45.5t-26 -42.5z" />
    <glyph glyph-name="Tcommaaccent" unicode="&#x21a;" horiz-adv-x="746" 
d="M426 607v-607h-107v607h-298v93h704v-93h-299zM404 -149l-16 -21h-62l44 59v7h-61v58h128v-15q0 -28 -7 -45.5t-26 -42.5z" />
    <glyph glyph-name="tcommaaccent" unicode="&#x21b;" horiz-adv-x="443" 
d="M408 79v-79h-73q-107 0 -149.5 39t-42.5 137v275h-130v79h130v170h99v-170h166v-79h-166v-256q0 -73 26.5 -94.5t99.5 -21.5h40zM323 -149l-16 -21h-62l44 59v7h-61v58h128v-15q0 -28 -7 -45.5t-26 -42.5z" />
    <glyph glyph-name="circumflex" unicode="&#x2c6;" horiz-adv-x="500" 
d="M322 700l121 -120h-94l-99 88l-99 -88h-94l121 120h144z" />
    <glyph glyph-name="caron" unicode="&#x2c7;" horiz-adv-x="500" 
d="M250 612l99 88h94l-121 -120h-144l-121 120h94z" />
    <glyph glyph-name="breve" unicode="&#x2d8;" horiz-adv-x="500" 
d="M250 573q-89 0 -130.5 31t-44.5 96h77q1 -70 98 -70t98 70h77q-4 -65 -45.5 -96t-129.5 -31z" />
    <glyph glyph-name="dotaccent" unicode="&#x2d9;" horiz-adv-x="500" 
d="M200 681h99v-86h-99v86z" />
    <glyph glyph-name="ring" unicode="&#x2da;" horiz-adv-x="500" 
d="M250 567q-138 0 -138 103t138 103q137 0 137 -103t-137 -103zM250 617q71 0 71 53t-71 53q-72 0 -72 -53t72 -53z" />
    <glyph glyph-name="ogonek" unicode="&#x2db;" horiz-adv-x="500" 
d="M324 -86v-54h-72q-54 0 -80 16.5t-26 53.5q0 27 10.5 43t50 34t117.5 36v-43q-57 -17 -71.5 -27t-14.5 -30q0 -16 9.5 -22.5t35.5 -6.5h41z" />
    <glyph glyph-name="tilde" unicode="&#x2dc;" horiz-adv-x="500" 
d="M326 589q-32 0 -82 21.5t-66 21.5q-34 0 -43 -38h-63q7 51 31 74.5t69 23.5q32 0 82 -22t65 -22q34 0 44 39h66q-12 -98 -103 -98z" />
    <glyph glyph-name="hungarumlaut" unicode="&#x2dd;" horiz-adv-x="500" 
d="M262 700l-117 -120h-96l93 120h120zM450 700l-117 -120h-96l93 120h120z" />
    <glyph glyph-name="commaaccent" unicode="&#x326;" horiz-adv-x="500" 
d="M286 -149l-16 -21h-62l44 59v7h-61v58h128v-15q0 -28 -7 -45.5t-26 -42.5z" />
    <glyph glyph-name="pi" unicode="&#x3c0;" horiz-adv-x="711" 
d="M689 82v-82h-43q-106 0 -146.5 42.5t-40.5 151.5v251h-237v-445h-99v445h-99v85h665v-85h-131v-240q0 -77 24.5 -100t89.5 -23h17z" />
    <glyph glyph-name="Wgrave" unicode="&#x1e80;" horiz-adv-x="1222" 
d="M571 860l92 -120h-96l-117 120h121zM1196 700l-215 -700h-146l-222 577l-221 -577h-153l-214 700h115l179 -596h5l228 596h126l228 -596h5l178 596h107z" />
    <glyph glyph-name="wgrave" unicode="&#x1e81;" horiz-adv-x="940" 
d="M430 700l92 -120h-96l-117 120h121zM929 530l-166 -530h-131l-159 422l-158 -422h-139l-165 530h109l131 -434h6l161 434h114l160 -434h6l132 434h99z" />
    <glyph glyph-name="Wacute" unicode="&#x1e82;" horiz-adv-x="1222" 
d="M780 860l-117 -120h-96l93 120h120zM1196 700l-215 -700h-146l-222 577l-221 -577h-153l-214 700h115l179 -596h5l228 596h126l228 -596h5l178 596h107z" />
    <glyph glyph-name="wacute" unicode="&#x1e83;" horiz-adv-x="940" 
d="M639 700l-117 -120h-96l93 120h120zM929 530l-166 -530h-131l-159 422l-158 -422h-139l-165 530h109l131 -434h6l161 434h114l160 -434h6l132 434h99z" />
    <glyph glyph-name="Wdieresis" unicode="&#x1e84;" horiz-adv-x="1222" 
d="M471 845h86v-86h-86v86zM673 845h86v-86h-86v86zM1196 700l-215 -700h-146l-222 577l-221 -577h-153l-214 700h115l179 -596h5l228 596h126l228 -596h5l178 596h107z" />
    <glyph glyph-name="wdieresis" unicode="&#x1e85;" horiz-adv-x="940" 
d="M330 681h86v-86h-86v86zM532 681h86v-86h-86v86zM929 530l-166 -530h-131l-159 422l-158 -422h-139l-165 530h109l131 -434h6l161 434h114l160 -434h6l132 434h99z" />
    <glyph glyph-name="Ygrave" unicode="&#x1ef2;" horiz-adv-x="824" 
d="M368 860l92 -120h-96l-117 120h121zM465 310v-310h-107v310l-337 390h132l261 -303h6l262 303h121z" />
    <glyph glyph-name="ygrave" unicode="&#x1ef3;" horiz-adv-x="596" 
d="M259 700l92 -120h-96l-117 120h121zM597 530l-327 -700h-105l86 172l-249 528h107l193 -414h5l187 414h103z" />
    <glyph glyph-name="endash" unicode="&#x2013;" horiz-adv-x="637" 
d="M619 262h-601v61h601v-61z" />
    <glyph glyph-name="emdash" unicode="&#x2014;" horiz-adv-x="955" 
d="M938 262h-920v61h920v-61z" />
    <glyph glyph-name="quoteleft" unicode="&#x2018;" horiz-adv-x="272" 
d="M118 677l15 23h71l-73 -133v-7h70v-124h-138v74q0 42 11 76t44 91z" />
    <glyph glyph-name="quoteright" unicode="&#x2019;" horiz-adv-x="272" 
d="M153 459l-15 -23h-71l73 133v7h-70v124h138v-74q0 -43 -11 -77.5t-44 -89.5z" />
    <glyph glyph-name="quotesinglbase" unicode="&#x201a;" horiz-adv-x="273" 
d="M153 -117l-15 -23h-71l73 133v7h-70v124h138v-74q0 -43 -11 -77.5t-44 -89.5z" />
    <glyph glyph-name="quotedblleft" unicode="&#x201c;" horiz-adv-x="476" 
d="M123 677l15 23h71l-73 -133v-7h70v-124h-138v74q0 43 11 77.5t44 89.5zM318 677l15 23h71l-73 -133v-7h70v-124h-138v74q0 42 11 76t44 91z" />
    <glyph glyph-name="quotedblright" unicode="&#x201d;" horiz-adv-x="476" 
d="M158 459l-15 -23h-71l73 133v7h-70v124h138v-74q0 -42 -11 -76t-44 -91zM353 459l-15 -23h-71l73 133v7h-70v124h138v-74q0 -43 -11 -77.5t-44 -89.5z" />
    <glyph glyph-name="quotedblbase" unicode="&#x201e;" horiz-adv-x="476" 
d="M158 -117l-15 -23h-71l73 133v7h-70v124h138v-74q0 -42 -11 -76t-44 -91zM353 -117l-15 -23h-71l73 133v7h-70v124h138v-74q0 -43 -11 -77.5t-44 -89.5z" />
    <glyph glyph-name="dagger" unicode="&#x2020;" horiz-adv-x="376" 
d="M156 477h-123v53h123v170h65v-170h123v-53h-123v-577h-65v577z" />
    <glyph glyph-name="daggerdbl" unicode="&#x2021;" horiz-adv-x="376" 
d="M221 70v-170h-65v170h-123v53h123v354h-123v53h123v170h65v-170h123v-53h-123v-354h123v-53h-123z" />
    <glyph glyph-name="bullet" unicode="&#x2022;" horiz-adv-x="463" 
d="M232 193q-68 0 -114.5 43.5t-46.5 112.5t47 113t114 44q66 0 113 -44t47 -113t-47 -112.5t-113 -43.5z" />
    <glyph glyph-name="ellipsis" unicode="&#x2026;" horiz-adv-x="822" 
d="M202 0h-131v124h131v-124zM476 0h-130v124h130v-124zM750 0h-131v124h131v-124z" />
    <glyph glyph-name="perthousand" unicode="&#x2030;" horiz-adv-x="1216" 
d="M230 345h-12q-95 0 -139.5 43t-44.5 133v13q0 90 44.5 133t139.5 43h12q96 0 140.5 -43t44.5 -133v-13q0 -91 -44.5 -133.5t-140.5 -42.5zM692 700l-397 -700h-73l398 700h72zM225 414q59 0 84.5 25t25.5 85v8q0 58 -25.5 83t-84.5 25q-60 0 -85.5 -25t-25.5 -83v-8
q0 -60 25.5 -85t85.5 -25zM997 -10h-10q-113 0 -144 58h-4q-33 -58 -144 -58h-10q-96 0 -141 43t-45 133v13q0 90 45 133t141 43h10q111 0 144 -58h4q31 58 144 58h10q96 0 140.5 -43t44.5 -133v-13q0 -90 -44.5 -133t-140.5 -43zM690 59q60 0 85.5 25t25.5 85v8
q0 59 -25.5 84t-85.5 25q-59 0 -84.5 -25t-25.5 -84v-8q0 -60 25.5 -85t84.5 -25zM991 59q59 0 84.5 25t25.5 85v8q0 59 -25.5 84t-84.5 25t-84.5 -25t-25.5 -84v-8q0 -60 25.5 -85t84.5 -25z" />
    <glyph glyph-name="guilsinglleft" unicode="&#x2039;" horiz-adv-x="239" 
d="M40 289v6l84 219h74l-87 -222l87 -222h-74z" />
    <glyph glyph-name="guilsinglright" unicode="&#x203a;" horiz-adv-x="239" 
d="M199 295v-6l-84 -219h-74l87 222l-87 222h74z" />
    <glyph glyph-name="fraction" unicode="&#x2044;" horiz-adv-x="186" 
d="M328 700l-397 -700h-73l398 700h72z" />
    <glyph glyph-name="zerosuperior" unicode="&#x2070;" horiz-adv-x="456" 
d="M233 374h-10q-96 0 -145 40.5t-49 157.5v36q0 117 49 157.5t145 40.5h10q47 0 79 -7.5t59.5 -28t41 -61t13.5 -101.5v-36q0 -61 -13.5 -101.5t-41 -61t-59.5 -28t-79 -7.5zM228 446q57 0 82 24t25 100v40q0 76 -25 100t-82 24t-82 -24t-25 -100v-40q0 -76 25 -100t82 -24
z" />
    <glyph glyph-name="foursuperior" unicode="&#x2074;" horiz-adv-x="456" 
d="M382 480v-100h-93v100h-264v110l219 210h138v-249h60v-71h-60zM101 556v-5h188v183h-4z" />
    <glyph glyph-name="fivesuperior" unicode="&#x2075;" horiz-adv-x="456" 
d="M244 374h-18q-173 0 -194 123h94q8 -29 33 -40t73 -11q56 0 80.5 16.5t24.5 52.5v8q0 37 -25.5 53.5t-82.5 16.5q-80 0 -105 -37h-85l23 244h347v-72h-264l-12 -104h5q29 37 124 37q89 0 129.5 -33.5t40.5 -103.5v-5q0 -145 -188 -145z" />
    <glyph glyph-name="sixsuperior" unicode="&#x2076;" horiz-adv-x="456" 
d="M243 374h-16q-100 0 -149 41t-49 152v41q0 114 47 156t148 42h11q86 0 130.5 -27t60.5 -85h-96q-17 41 -99 41q-61 0 -85.5 -23.5t-24.5 -90.5v-17h5q25 46 131 46q93 0 132 -31.5t39 -99.5v-5q0 -140 -185 -140zM229 443q58 0 82 16t24 52v8q0 36 -24 51.5t-82 15.5
t-82 -15.5t-24 -51.5v-8q0 -36 24 -52t82 -16z" />
    <glyph glyph-name="sevensuperior" unicode="&#x2077;" horiz-adv-x="456" 
d="M433 727l-237 -347h-115l246 344v5h-305v71h411v-73z" />
    <glyph glyph-name="eightsuperior" unicode="&#x2078;" horiz-adv-x="456" 
d="M238 374h-20q-91 0 -140.5 29t-49.5 100v5q2 85 78 98v4q-67 15 -67 83v3q0 110 184 110h10q184 0 185 -110v-3q0 -68 -68 -83v-4q78 -15 78 -97v-6q0 -71 -49.5 -100t-140.5 -29zM201 629h54q70 0 70 49v4q0 30 -22 42t-75 12t-74.5 -12t-21.5 -42v-4q0 -49 69 -49z
M228 443q59 0 83.5 14t24.5 49v5q0 59 -80 59h-55q-80 0 -80 -59v-5q0 -35 24 -49t83 -14z" />
    <glyph glyph-name="ninesuperior" unicode="&#x2079;" horiz-adv-x="456" 
d="M212 805h16q100 0 149 -41t49 -152v-41q0 -114 -47 -156t-148 -42h-11q-86 0 -130.5 27t-60.5 85h96q9 -23 31.5 -32t67.5 -9q60 0 85 23.5t25 90.5v17h-5q-25 -46 -131 -46q-92 0 -131.5 31.5t-39.5 99.5v5q0 140 185 140zM226 736q-58 0 -82 -16.5t-24 -51.5v-8
q0 -35 24 -51t82 -16q57 0 81.5 16.5t24.5 50.5v8q0 35 -24 51.5t-82 16.5z" />
    <glyph glyph-name="plussuperior" unicode="&#x207a;" horiz-adv-x="358" 
d="M153 561h-122v57h122v126h53v-126h121v-57h-121v-126h-53v126z" />
    <glyph glyph-name="minussuperior" unicode="&#x207b;" horiz-adv-x="354" 
d="M301 561h-248v57h248v-57z" />
    <glyph glyph-name="equalsuperior" unicode="&#x207c;" horiz-adv-x="356" 
d="M314 633h-272v57h272v-57zM314 488h-272v58h272v-58z" />
    <glyph glyph-name="parenleftsuperior" unicode="&#x207d;" horiz-adv-x="225" 
d="M194 406v-53q-72 9 -109 62t-37 160v30q0 107 37 160t109 62v-53q-89 -19 -89 -171v-26q0 -152 89 -171z" />
    <glyph glyph-name="parenrightsuperior" unicode="&#x207e;" horiz-adv-x="225" 
d="M29 774v53q72 -9 109 -62t37 -160v-30q0 -107 -37 -160t-109 -62v53q89 19 89 171v26q0 152 -89 171z" />
    <glyph glyph-name="zeroinferior" unicode="&#x2080;" horiz-adv-x="456" 
d="M233 -106h-10q-96 0 -145 40.5t-49 157.5v36q0 117 49 157.5t145 40.5h10q47 0 79 -7.5t59.5 -28t41 -61t13.5 -101.5v-36q0 -61 -13.5 -101.5t-41 -61t-59.5 -28t-79 -7.5zM228 -34q57 0 82 24t25 100v40q0 76 -25 100t-82 24t-82 -24t-25 -100v-40q0 -76 25 -100
t82 -24z" />
    <glyph glyph-name="oneinferior" unicode="&#x2081;" horiz-adv-x="326" 
d="M262 320v-420h-91v348h-4l-146 -81v92l121 61h120z" />
    <glyph glyph-name="twoinferior" unicode="&#x2082;" horiz-adv-x="456" 
d="M428 -29v-71h-399v66q0 78 30 112.5t112 47.5l99 16q38 6 51 17.5t13 38.5v3q0 28 -22 40.5t-75 12.5q-49 0 -74.5 -11t-31.5 -42h-94q10 70 59.5 97.5t132.5 27.5h9q97 0 143.5 -29t46.5 -91v-7q0 -53 -26 -82q-25 -28 -98 -41l-117 -18q-39 -7 -52.5 -21t-13.5 -50v-16
h307z" />
    <glyph glyph-name="threeinferior" unicode="&#x2083;" horiz-adv-x="456" 
d="M243 -106h-18q-176 0 -196 128h94q8 -33 34 -44.5t74 -11.5q55 0 79.5 14t24.5 45v5q0 27 -15.5 39t-54.5 12h-107v69h102q64 0 64 47v4q0 29 -22 41t-70 12q-43 0 -65.5 -11t-30.5 -40h-95q12 66 57 94.5t125 28.5h12q183 0 183 -106v-4q0 -74 -67 -85v-5q79 -10 79 -97
v-5q0 -68 -46.5 -99t-140.5 -31z" />
    <glyph glyph-name="fourinferior" unicode="&#x2084;" horiz-adv-x="456" 
d="M382 0v-100h-93v100h-264v110l219 210h138v-249h60v-71h-60zM101 76v-5h188v183h-4z" />
    <glyph glyph-name="fiveinferior" unicode="&#x2085;" horiz-adv-x="456" 
d="M244 -106h-18q-173 0 -194 123h94q8 -29 33 -40t73 -11q56 0 80.5 16.5t24.5 52.5v8q0 37 -25.5 53.5t-82.5 16.5q-80 0 -105 -37h-85l23 244h347v-72h-264l-12 -104h5q29 37 124 37q89 0 129.5 -33.5t40.5 -103.5v-5q0 -145 -188 -145z" />
    <glyph glyph-name="sixinferior" unicode="&#x2086;" horiz-adv-x="456" 
d="M243 -106h-16q-100 0 -149 41t-49 152v41q0 114 47 156t148 42h11q86 0 130.5 -27t60.5 -85h-96q-17 41 -99 41q-61 0 -85.5 -23.5t-24.5 -90.5v-17h5q25 46 131 46q93 0 132 -31.5t39 -99.5v-5q0 -140 -185 -140zM229 -37q58 0 82 16t24 52v8q0 36 -24 51.5t-82 15.5
t-82 -15.5t-24 -51.5v-8q0 -36 24 -52t82 -16z" />
    <glyph glyph-name="seveninferior" unicode="&#x2087;" horiz-adv-x="456" 
d="M433 247l-237 -347h-115l246 344v5h-305v71h411v-73z" />
    <glyph glyph-name="eightinferior" unicode="&#x2088;" horiz-adv-x="456" 
d="M238 -106h-20q-91 0 -140.5 29t-49.5 100v5q2 85 78 98v4q-67 15 -67 83v3q0 110 184 110h10q184 0 185 -110v-3q0 -68 -68 -83v-4q78 -15 78 -97v-6q0 -71 -49.5 -100t-140.5 -29zM201 149h54q70 0 70 49v4q0 30 -22 42t-75 12t-74.5 -12t-21.5 -42v-4q0 -49 69 -49z
M228 -37q59 0 83.5 14t24.5 49v5q0 59 -80 59h-55q-80 0 -80 -59v-5q0 -35 24 -49t83 -14z" />
    <glyph glyph-name="nineinferior" unicode="&#x2089;" horiz-adv-x="456" 
d="M212 325h16q100 0 149 -41t49 -152v-41q0 -114 -47 -156t-148 -42h-11q-86 0 -130.5 27t-60.5 85h96q9 -23 31.5 -32t67.5 -9q60 0 85 23.5t25 90.5v17h-5q-25 -46 -131 -46q-92 0 -131.5 31.5t-39.5 99.5v5q0 140 185 140zM226 256q-58 0 -82 -16.5t-24 -51.5v-8
q0 -35 24 -51t82 -16q57 0 81.5 16.5t24.5 50.5v8q0 35 -24 51.5t-82 16.5z" />
    <glyph glyph-name="plusinferior" unicode="&#x208a;" horiz-adv-x="358" 
d="M153 138v126h53v-126h121v-57h-121v-126h-53v126h-122v57h122z" />
    <glyph glyph-name="minusinferior" unicode="&#x208b;" horiz-adv-x="354" 
d="M301 81h-248v57h248v-57z" />
    <glyph glyph-name="equalinferior" unicode="&#x208c;" horiz-adv-x="356" 
d="M314 153h-272v57h272v-57zM314 8h-272v58h272v-58z" />
    <glyph glyph-name="parenleftinferior" unicode="&#x208d;" horiz-adv-x="225" 
d="M194 -74v-53q-72 9 -109 62t-37 160v30q0 107 37 160t109 62v-53q-89 -19 -89 -171v-26q0 -152 89 -171z" />
    <glyph glyph-name="parenrightinferior" unicode="&#x208e;" horiz-adv-x="225" 
d="M29 294v53q72 -9 109 -62t37 -160v-30q0 -107 -37 -160t-109 -62v53q89 19 89 171v26q0 152 -89 171z" />
    <glyph glyph-name="Euro" unicode="&#x20ac;" 
d="M435 -10h-22q-61 0 -109 10.5t-93 37.5t-73.5 80.5t-37.5 132.5h-93v61h90v8v60v8h-90v61h93q9 79 37.5 132.5t73.5 80.5t93 37.5t109 10.5h22q128 0 202.5 -41t100.5 -139h-104q-21 49 -68.5 70.5t-140.5 21.5q-37 0 -65.5 -3.5t-56.5 -14.5t-47 -30t-33.5 -50.5
t-19.5 -74.5h431v-61h-434v-76h434v-61h-431q5 -43 19.5 -74.5t33.5 -50.5t47 -30t56.5 -14.5t65.5 -3.5q93 0 140.5 21.5t68.5 70.5h104q-26 -98 -100.5 -139t-202.5 -41z" />
    <glyph glyph-name="litre" unicode="&#x2113;" horiz-adv-x="419" 
d="M243 -15q-145 0 -145 188q-5 -3 -22 -13t-27 -15l-27 56q14 8 39.5 23.5t36.5 21.5v229q0 121 32.5 178t111.5 57q139 0 139 -173q0 -96 -45 -165.5t-158 -147.5v-64q0 -105 79 -105q42 0 78 38l31 -54q-54 -54 -123 -54zM178 497v-197q79 58 105.5 108t26.5 127
q0 106 -63 106q-35 0 -52 -32t-17 -112z" />
    <glyph glyph-name="numero" unicode="&#x2116;" horiz-adv-x="1451" 
d="M1195 272h-26q-108 0 -164.5 46.5t-56.5 156.5v30q0 110 56.5 156.5t164.5 46.5h26q108 0 163.5 -46.5t55.5 -156.5v-30q0 -110 -55.5 -156.5t-163.5 -46.5zM830 700v-700h-167l-472 599h-5v-599h-107v700h167l472 -600h6v600h106zM1181 347q71 0 106 26t35 107v20
q0 80 -35 106.5t-106 26.5q-72 0 -107 -26.5t-35 -106.5v-20q0 -81 34.5 -107t107.5 -26z" />
    <glyph glyph-name="published" unicode="&#x2117;" horiz-adv-x="868" 
d="M483 -10h-98q-185 0 -270.5 80t-85.5 233v94q0 153 85.5 233t270.5 80h98q185 0 270.5 -80t85.5 -233v-94q0 -153 -85.5 -233t-270.5 -80zM400 25h68q99 0 165 19.5t102 60.5t50.5 94t14.5 129v44q0 76 -14.5 129t-50.5 94t-102 60.5t-165 19.5h-68q-98 0 -164 -19.5
t-102 -60.5t-50.5 -94t-14.5 -129v-44q0 -76 14.5 -129t50.5 -94t102 -60.5t164 -19.5zM329 293v-153h-87v420h273q85 0 121.5 -28t36.5 -97v-19q0 -62 -37.5 -92.5t-120.5 -30.5h-186zM499 494h-170v-135h171q50 0 68 15t18 50v6q0 35 -18 49.5t-69 14.5z" />
    <glyph glyph-name="trademark" unicode="&#x2122;" horiz-adv-x="1013" 
d="M245 633v-283h-80v283h-145v67h370v-67h-145zM979 700v-350h-79v289h-5l-139 -289h-90l-138 289h-5v-289h-79v350h142l127 -264h5l128 264h133z" />
    <glyph glyph-name="Omega" unicode="&#x2126;" horiz-adv-x="920" 
d="M859 90v-90h-345v139q131 4 181.5 58.5t50.5 171.5v16q0 120 -57.5 176.5t-207.5 56.5h-42q-150 0 -207.5 -56.5t-57.5 -176.5v-16q0 -117 50.5 -171.5t181.5 -58.5v-139h-345v90h211v6q-108 14 -157.5 80t-49.5 187v42q0 305 363 305h64q363 0 363 -305v-42
q0 -121 -49.5 -187t-157.5 -80v-6h211z" />
    <glyph glyph-name="estimated" unicode="&#x212e;" horiz-adv-x="835" 
d="M425 -15q-163 0 -278.5 107t-115.5 258q0 152 115 258.5t279 106.5t279.5 -106.5t115.5 -258.5q0 -18 -1 -19h-619v-214q94 -82 225 -82q97 0 178.5 43.5t123.5 113.5h54q-47 -94 -143.5 -150.5t-212.5 -56.5zM200 588v-205h444v210q-85 72 -219 72q-69 0 -128.5 -21.5
t-96.5 -55.5z" />
    <glyph glyph-name="arrowleft" unicode="&#x2190;" horiz-adv-x="897" 
d="M168 388h696v-77h-696v-7l307 -305h-113l-346 348v4l346 348h113l-307 -304v-7z" />
    <glyph glyph-name="arrowup" unicode="&#x2191;" horiz-adv-x="896" 
d="M495 622v-697h-78v697h-6l-306 -307v112l348 346h5l347 -346v-112l-304 307h-6z" />
    <glyph glyph-name="arrowright" unicode="&#x2192;" horiz-adv-x="897" 
d="M729 311h-696v77h696v7l-307 305h113l346 -348v-4l-346 -348h-113l307 304v7z" />
    <glyph glyph-name="arrowdown" unicode="&#x2193;" horiz-adv-x="897" 
d="M417 773h78v-697h6l304 307v-112l-347 -346h-5l-348 346v112l306 -307h6v697z" />
    <glyph glyph-name="arrowupleft" unicode="&#x2196;" horiz-adv-x="896" 
d="M281 618l493 -493l-56 -55l-492 492l-5 -4l2 -433l-79 80v492l4 3h491l79 -79l-433 1z" />
    <glyph glyph-name="arrowupright" unicode="&#x2197;" horiz-adv-x="897" 
d="M179 70l-56 55l493 493l-4 4l-433 -1l79 79h491l4 -3v-492l-79 -80l2 433l-5 4z" />
    <glyph glyph-name="arrowdownright" unicode="&#x2198;" horiz-adv-x="897" 
d="M616 82l-493 493l56 55l492 -492l5 4l-2 433l79 -80v-492l-4 -3h-491l-79 79l433 -1z" />
    <glyph glyph-name="arrowdownleft" unicode="&#x2199;" horiz-adv-x="897" 
d="M718 630l56 -55l-493 -493l4 -4l433 1l-79 -79h-491l-4 3v492l79 80l-2 -433l5 -4z" />
    <glyph glyph-name="partialdiff" unicode="&#x2202;" horiz-adv-x="706" 
d="M364 -10h-24q-135 0 -209 54t-74 167v16q0 223 272 223q106 0 154 -22q50 -23 69 -65h5v54q0 121 -63 163t-198 42q-113 0 -184 -28v93q72 23 186 23h10q87 0 148.5 -14t108.5 -48t69.5 -95t22.5 -151v-110q0 -73 -15.5 -127t-41 -87t-64 -53.5t-79.5 -27.5t-93 -7z
M356 75q101 0 148.5 32.5t47.5 105.5v19q0 73 -47 104.5t-149 31.5t-149 -31.5t-47 -104.5v-19q0 -73 47.5 -105.5t148.5 -32.5z" />
    <glyph glyph-name="increment" unicode="&#x2206;" horiz-adv-x="892" 
d="M527 700l344 -700h-850l343 700h163zM448 622h-5l-259 -528h522z" />
    <glyph glyph-name="product" unicode="&#x220f;" horiz-adv-x="841" 
d="M759 700v-870h-107v779h-463v-779h-107v870h677z" />
    <glyph glyph-name="summation" unicode="&#x2211;" horiz-adv-x="755" 
d="M700 -79v-91h-626v95l359 330v5l-358 345v95h625v-91h-483v-4l315 -303v-87l-314 -290v-4h482z" />
    <glyph glyph-name="minus" unicode="&#x2212;" horiz-adv-x="600" 
d="M498 294h-396v71h396v-71z" />
    <glyph glyph-name="radical" unicode="&#x221a;" horiz-adv-x="504" 
d="M499 803l-198 -906h-74l-134 419l-58 -16l-19 79l132 37l109 -360h4l160 747h78z" />
    <glyph glyph-name="infinity" unicode="&#x221e;" horiz-adv-x="818" 
d="M601 141q-62 0 -106 34t-86 94q-41 -60 -86 -94t-106 -34q-81 0 -131.5 54.5t-50.5 133.5t50.5 133.5t131.5 54.5q61 0 106 -34t86 -94q42 60 86 94t106 34q82 0 132 -54t50 -134t-50 -134t-132 -54zM105 329q0 -53 33.5 -86.5t81.5 -33.5q45 0 77.5 30.5t71.5 89.5
q-39 59 -71.5 89.5t-77.5 30.5q-48 0 -81.5 -33.5t-33.5 -86.5zM598 209q48 0 81 33t33 87t-33 87t-81 33q-31 0 -60 -19t-45.5 -39.5t-44.5 -61.5q28 -41 44.5 -61.5t45.5 -39.5t60 -19z" />
    <glyph glyph-name="integral" unicode="&#x222b;" horiz-adv-x="441" 
d="M64 -170h-35v78h27q65 0 90.5 22t25.5 96v536q0 107 44.5 147.5t150.5 40.5h35v-78h-28q-65 0 -90 -22t-25 -96v-536q0 -107 -45 -147.5t-150 -40.5z" />
    <glyph glyph-name="approxequal" unicode="&#x2248;" horiz-adv-x="600" 
d="M408 372q-46 0 -113 33t-105 33q-69 0 -108 -61v78q38 54 110 54q46 0 113 -33t105 -33q64 0 108 61v-78q-38 -54 -110 -54zM408 150q-46 0 -113 33t-105 33q-69 0 -108 -61v78q38 54 110 54q46 0 113 -33t105 -33q64 0 108 61v-78q-38 -54 -110 -54z" />
    <glyph glyph-name="notequal" unicode="&#x2260;" horiz-adv-x="600" 
d="M201 177h-119v71h148l66 162h-214v71h243l72 177h74l-72 -177h119v-71h-148l-66 -162h214v-71h-243l-72 -177h-74z" />
    <glyph glyph-name="lessequal" unicode="&#x2264;" horiz-adv-x="600" 
d="M530 276v-75l-457 169v69l457 169v-74l-348 -127v-4zM530 56h-460v71h460v-71z" />
    <glyph glyph-name="greaterequal" unicode="&#x2265;" horiz-adv-x="600" 
d="M527 370l-457 -169v75l348 127v4l-348 127v74l457 -169v-69zM530 127v-71h-460v71h460z" />
    <glyph glyph-name="lozenge" unicode="&#x25ca;" horiz-adv-x="506" 
d="M300 678l179 -349l-179 -349h-94l-179 349l179 349h94zM253 45l147 284l-147 284l-147 -284z" />
    <glyph glyph-name="germandbls.cap" horiz-adv-x="1633" 
d="M423 -10h-19q-316 0 -353 185h112q21 -57 85.5 -77t169.5 -20q123 0 183 27.5t60 94.5v8q0 53 -33 75t-124 26l-195 8q-125 5 -179.5 48t-54.5 131v6q0 110 80.5 159t237.5 49h20q300 0 338 -189h-111q-17 58 -77 79.5t-163 21.5q-116 0 -166 -26t-50 -85v-3
q0 -53 32.5 -75t123.5 -26l195 -8q126 -5 180 -48t54 -131v-9q0 -122 -89 -171.5t-257 -49.5zM1239 -10h-19q-316 0 -353 185h112q21 -57 85.5 -77t169.5 -20q123 0 183 27.5t60 94.5v8q0 53 -33 75t-124 26l-195 8q-125 5 -179.5 48t-54.5 131v6q0 110 80.5 159t237.5 49
h20q300 0 338 -189h-111q-17 58 -77 79.5t-163 21.5q-116 0 -166 -26t-50 -85v-3q0 -53 32.5 -75t123.5 -26l195 -8q126 -5 180 -48t54 -131v-9q0 -122 -89 -171.5t-257 -49.5z" />
    <glyph glyph-name="i.TRK" horiz-adv-x="229" 
d="M64 700h100v-86h-100v86zM64 530h100v-530h-100v530z" />
    <glyph glyph-name="a.superior" horiz-adv-x="518" 
d="M474 542v-262h-90v69h-4q-34 -77 -171 -77q-175 0 -175 130v4q0 60 35 90t112 34l203 8v10q0 56 -29 75.5t-94 19.5q-51 0 -79 -14t-40 -49h-92q18 67 68.5 97.5t139.5 30.5h14q106 0 154 -36.5t48 -129.5zM125 409v-5q0 -69 110 -69q70 0 109.5 30t39.5 84v32l-179 -8
q-80 -4 -80 -64z" />
    <glyph glyph-name="b.superior" horiz-adv-x="560" 
d="M142 280h-92v554h92v-202h3q18 38 54.5 57t103.5 19h13q100 0 153.5 -45.5t53.5 -155.5v-34q0 -110 -53.5 -155.5t-153.5 -45.5h-13q-122 0 -158 76h-3v-68zM287 347q75 0 110 26t35 107v20q0 80 -35.5 106.5t-109.5 26.5q-75 0 -110 -26.5t-35 -106.5v-20
q0 -82 34.5 -107.5t110.5 -25.5z" />
    <glyph glyph-name="c.superior" horiz-adv-x="517" 
d="M276 272h-20q-109 0 -164 47.5t-55 157.5v26q0 110 55 157.5t164 47.5h20q185 0 211 -137h-92q-14 35 -45 48.5t-83 13.5q-72 0 -105.5 -28t-33.5 -107v-16q0 -80 33.5 -107.5t105.5 -27.5q52 0 83 13.5t45 48.5h92q-26 -137 -211 -137z" />
    <glyph glyph-name="d.superior" horiz-adv-x="560" 
d="M510 834v-554h-92v68h-3q-36 -76 -158 -76h-13q-100 0 -153.5 45.5t-53.5 155.5v34q0 110 53.5 155.5t153.5 45.5h13q67 0 103.5 -19t54.5 -57h3v202h92zM273 347q76 0 110.5 25.5t34.5 107.5v20q0 80 -35 106.5t-110 26.5q-74 0 -109.5 -26.5t-35.5 -106.5v-20
q0 -81 35 -107t110 -26z" />
    <glyph glyph-name="e.superior" horiz-adv-x="528" 
d="M396 406h90q-16 -71 -67.5 -102.5t-147.5 -31.5h-13q-109 0 -165 46.5t-56 156.5v30q0 110 56 156.5t165 46.5h13q109 0 164.5 -45.5t55.5 -155.5v-35h-363q0 -78 34 -104.5t103 -26.5q45 0 81 11q37 11 50 54zM264 643q-64 0 -97.5 -23t-37.5 -91h270v6q0 60 -34.5 84
t-100.5 24z" />
    <glyph glyph-name="f.superior" horiz-adv-x="366" 
d="M114 629h-103v71h103q3 76 41 105t122 29h72v-66h-56q-48 0 -68 -14t-20 -54h144v-71h-144v-349h-91v349z" />
    <glyph glyph-name="g.superior" horiz-adv-x="551" 
d="M285 145h-22q-89 0 -143.5 24.5t-73.5 86.5h95q15 -26 46 -35.5t86 -9.5q72 0 104.5 23t32.5 85v55h-4q-31 -70 -154 -70h-7q-98 0 -150 44t-52 149v18q0 105 52 149t150 44h7q122 0 154 -71h4v63h91v-384q0 -96 -57 -134q-55 -37 -159 -37zM273 377q71 0 104 23.5
t33 99.5v11q0 76 -33 100t-104 24q-72 0 -105.5 -24t-33.5 -100v-11q0 -76 33.5 -99.5t105.5 -23.5z" />
    <glyph glyph-name="h.superior" horiz-adv-x="516" 
d="M472 546v-266h-91v247q0 62 -29 84t-83 22q-62 0 -95 -28t-33 -96v-229h-91v554h91v-206h4q35 80 153 80q174 0 174 -162z" />
    <glyph glyph-name="i.superior" horiz-adv-x="191" 
d="M50 834h91v-72h-91v72zM50 700h91v-420h-91v420z" />
    <glyph glyph-name="j.superior" horiz-adv-x="191" 
d="M50 834h91v-72h-91v72zM50 700h91v-339q0 -81 -12 -121t-51 -95h-96q42 55 55 94t13 105v356z" />
    <glyph glyph-name="k.superior" horiz-adv-x="511" 
d="M141 400v-120h-91v554h91v-332h4l231 198h116l-204 -174l218 -246h-117l-165 187h-3z" />
    <glyph glyph-name="l.superior" horiz-adv-x="191" 
d="M141 834v-554h-91v554h91z" />
    <glyph glyph-name="m.superior" horiz-adv-x="814" 
d="M770 549v-269h-91v247q0 62 -26.5 84t-77.5 22q-58 0 -89 -28t-31 -96v-229h-90v247q0 62 -27 84t-78 22q-58 0 -88.5 -28t-30.5 -96v-229h-91v420h91v-71h4q32 79 143 79q125 0 155 -83h4q37 83 155 83q81 0 124.5 -36t43.5 -123z" />
    <glyph glyph-name="n.superior" horiz-adv-x="516" 
d="M472 546v-266h-91v247q0 62 -29 84t-83 22q-62 0 -95 -28t-33 -96v-229h-91v420h91v-72h4q35 80 153 80q174 0 174 -162z" />
    <glyph glyph-name="o.superior" horiz-adv-x="546" 
d="M287 272h-26q-110 0 -167 46.5t-57 156.5v30q0 110 57 156.5t167 46.5h26q110 0 166 -46.5t56 -156.5v-30q0 -110 -56 -156.5t-166 -46.5zM273 347q74 0 109 26t35 107v20q0 80 -35.5 106.5t-108.5 26.5q-74 0 -109.5 -26.5t-35.5 -106.5v-20q0 -81 35.5 -107t109.5 -26z
" />
    <glyph glyph-name="p.superior" horiz-adv-x="560" 
d="M50 146v554h92v-68h3q36 76 158 76h13q100 0 153.5 -45.5t53.5 -155.5v-34q0 -110 -53.5 -155.5t-153.5 -45.5h-13q-67 0 -103.5 19t-54.5 57h-3v-202h-92zM287 633q-76 0 -110.5 -25.5t-34.5 -107.5v-20q0 -80 35 -106.5t110 -26.5q74 0 109.5 26.5t35.5 106.5v20
q0 81 -35 107t-110 26z" />
    <glyph glyph-name="q.superior" horiz-adv-x="560" 
d="M418 700h92v-554h-92v202h-3q-18 -38 -54.5 -57t-103.5 -19h-13q-100 0 -153.5 45.5t-53.5 155.5v34q0 110 53.5 155.5t153.5 45.5h13q122 0 158 -76h3v68zM273 633q-75 0 -110 -26t-35 -107v-20q0 -80 35.5 -106.5t109.5 -26.5q75 0 110 26.5t35 106.5v20
q0 82 -34.5 107.5t-110.5 25.5z" />
    <glyph glyph-name="r.superior" horiz-adv-x="342" 
d="M294 700h33v-75h-49q-70 0 -103.5 -24.5t-33.5 -92.5v-228h-91v420h91v-70h3q28 70 150 70z" />
    <glyph glyph-name="s.superior" horiz-adv-x="524" 
d="M269 272h-12q-98 0 -152.5 28.5t-68.5 95.5h94q14 -59 135 -59q66 0 97 14.5t32 49.5v4q0 28 -19.5 39t-68.5 13l-109 5q-81 4 -114.5 31t-33.5 80v8q0 127 204 127h9q97 0 149.5 -28.5t67.5 -95.5h-94q-11 34 -41.5 46.5t-85.5 12.5q-115 0 -115 -58v-4q0 -27 19.5 -38
t67.5 -13l110 -6q81 -4 114.5 -31t33.5 -80v-8q0 -72 -55.5 -102.5t-163.5 -30.5z" />
    <glyph glyph-name="t.superior" horiz-adv-x="353" 
d="M327 350v-70h-61q-88 0 -122.5 31.5t-34.5 109.5v208h-98v71h98v134h91v-134h127v-71h-127v-191q0 -55 20.5 -71.5t76.5 -16.5h30z" />
    <glyph glyph-name="u.superior" horiz-adv-x="516" 
d="M44 434v266h91v-247q0 -62 29 -84t83 -22q62 0 95 28t33 96v229h91v-420h-91v72h-4q-35 -80 -153 -80q-174 0 -174 162z" />
    <glyph glyph-name="v.superior" horiz-adv-x="507" 
d="M497 700l-182 -420h-122l-183 420h101l144 -339h5l143 339h94z" />
    <glyph glyph-name="w.superior" horiz-adv-x="785" 
d="M771 700l-132 -420h-117l-126 326l-127 -326h-124l-131 420h99l101 -333h4l129 333h100l128 -333h4l101 333h91z" />
    <glyph glyph-name="x.superior" horiz-adv-x="550" 
d="M336 495l197 -215h-117l-141 162h-4l-144 -162h-110l194 213l-184 207h117l130 -151h5l133 151h110z" />
    <glyph glyph-name="y.superior" horiz-adv-x="500" 
d="M491 700l-256 -555h-96l69 136l-198 419h98l146 -318h5l139 318h93z" />
    <glyph glyph-name="z.superior" horiz-adv-x="480" 
d="M448 351v-71h-414v66l283 283h-272v71h393v-66l-285 -283h295z" />
    <glyph glyph-name="grave.cap" horiz-adv-x="500" 
d="M264 860l92 -120h-96l-117 120h121z" />
    <glyph glyph-name="acute.cap" horiz-adv-x="500" 
d="M355 860l-117 -120h-96l93 120h120z" />
    <glyph glyph-name="circumflex.cap" horiz-adv-x="500" 
d="M322 860l121 -120h-94l-99 88l-99 -88h-94l121 120h144z" />
    <glyph glyph-name="caron.cap" horiz-adv-x="500" 
d="M250 772l99 88h94l-121 -120h-144l-121 120h94z" />
    <glyph glyph-name="caronSlovak" horiz-adv-x="500" 
d="M320 700l-57 -206h-78l34 206h101z" />
    <glyph glyph-name="tilde.cap" horiz-adv-x="500" 
d="M326 749q-32 0 -82 21.5t-66 21.5q-34 0 -43 -38h-63q7 51 31 74.5t69 23.5q32 0 82 -22t65 -22q34 0 44 39h66q-12 -98 -103 -98z" />
    <glyph glyph-name="dieresis.cap" horiz-adv-x="500" 
d="M106 845h86v-86h-86v86zM308 845h86v-86h-86v86z" />
    <glyph glyph-name="macron.cap" horiz-adv-x="500" 
d="M419 830v-56h-338v56h338z" />
    <glyph glyph-name="breve.cap" horiz-adv-x="500" 
d="M250 733q-89 0 -130.5 30.5t-44.5 96.5h77q1 -70 98 -70t98 70h77q-4 -66 -45.5 -96.5t-129.5 -30.5z" />
    <glyph glyph-name="ring.cap" horiz-adv-x="500" 
d="M250 727q-138 0 -138 103t138 103q137 0 137 -103t-137 -103zM250 777q71 0 71 53t-71 53q-72 0 -72 -53t72 -53z" />
    <glyph glyph-name="hungarumlaut.cap" horiz-adv-x="500" 
d="M262 860l-117 -120h-96l93 120h120zM450 860l-117 -120h-96l93 120h120z" />
    <glyph glyph-name="dotaccent.cap" horiz-adv-x="500" 
d="M200 845h99v-86h-99v86z" />
    <glyph glyph-name="commaaccent.alt" horiz-adv-x="500" 
d="M224 693l17 21h61l-44 -59v-7h61v-58h-128v15q0 28 7 45t26 43z" />
    <glyph glyph-name="hyphen.cap" horiz-adv-x="318" 
d="M301 307h-284v87h284v-87z" />
    <glyph glyph-name="exclamdown.cap" horiz-adv-x="280" 
d="M75 700h130v-124h-130v124zM198 295v-295h-117v295l25 173h68z" />
    <glyph glyph-name="questiondown.cap" horiz-adv-x="635" 
d="M271 705h130v-123h-130v123zM284 475h104v-12q0 -39 -26 -63.5t-94 -59.5q-80 -38 -105.5 -66.5t-25.5 -76.5v-6q0 -108 169 -108q85 0 130.5 29.5t56.5 102.5h101q-22 -220 -282 -220h-12q-126 0 -195.5 49t-69.5 138v10q0 77 35 119t134 90q44 22 61 37t19 37z" />
    <glyph glyph-name="guilsinglleft.cap" horiz-adv-x="239" 
d="M40 346v6l84 219h74l-87 -222l87 -222h-74z" />
    <glyph glyph-name="guilsinglright.cap" horiz-adv-x="239" 
d="M199 353v-6l-84 -219h-74l87 222l-87 222h74z" />
    <glyph glyph-name="guillemotleft.cap" horiz-adv-x="402" 
d="M40 347v6l84 219h74l-87 -222l87 -222h-74zM203 347v6l84 219h74l-87 -222l87 -222h-74z" />
    <glyph glyph-name="guillemotright.cap" horiz-adv-x="402" 
d="M199 353v-6l-84 -219h-74l87 222l-87 222h74zM362 353v-6l-84 -219h-74l87 222l-87 222h74z" />
    <glyph glyph-name="endash.cap" horiz-adv-x="659" 
d="M619 319h-601v61h601v-61z" />
    <glyph glyph-name="emdash.cap" horiz-adv-x="989" 
d="M938 319h-920v61h920v-61z" />
    <glyph glyph-name="periodcentered.cap" horiz-adv-x="344" 
d="M232 288h-131v124h131v-124z" />
    <glyph glyph-name="parenleft.cap" horiz-adv-x="348" 
d="M297 18v-63q-225 39 -225 371v48q0 332 225 371v-63q-156 -43 -156 -315v-34q0 -272 156 -315z" />
    <glyph glyph-name="parenright.cap" horiz-adv-x="348" 
d="M44 682v63q225 -39 225 -371v-48q0 -332 -225 -371v63q77 21 116.5 96t39.5 219v34q0 144 -39.5 219t-116.5 96z" />
    <glyph glyph-name="bracketleft.cap" horiz-adv-x="362" 
d="M311 17v-62h-215v790h215v-62h-148v-666h148z" />
    <glyph glyph-name="bracketright.cap" horiz-adv-x="362" 
d="M51 683v62h215v-790h-215v62h148v666h-148z" />
    <glyph glyph-name="braceleft.cap" horiz-adv-x="350" 
d="M316 17v-62h-43q-85 0 -117.5 42.5t-32.5 148.5v47q0 68 -16 88t-80 29v80q64 9 80 29t16 88v47q0 106 32.5 148.5t117.5 42.5h43v-62h-25q-58 0 -79.5 -28t-21.5 -118v-49q0 -72 -18.5 -99.5t-86.5 -36.5v-4q68 -9 86.5 -36.5t18.5 -99.5v-49q0 -90 21.5 -118t79.5 -28
h25z" />
    <glyph glyph-name="braceright.cap" horiz-adv-x="350" 
d="M73 -45h-43v62h25q58 0 79.5 28t21.5 118v49q0 72 18.5 99.5t86.5 36.5v4q-68 9 -86.5 36.5t-18.5 99.5v49q0 90 -21.5 118t-79.5 28h-25v62h43q85 0 117.5 -42.5t32.5 -148.5v-47q0 -68 16 -88t80 -29v-80q-64 -9 -80 -29t-16 -88v-47q0 -106 -32.5 -148.5t-117.5 -42.5
z" />
    <glyph glyph-name="at.cap" horiz-adv-x="1036" 
d="M518 -69q-474 0 -474 377v31q0 202 126.5 316t358.5 114q225 0 348 -89t123 -274v-12q0 -291 -222 -291q-66 0 -95 23t-31 67h-5q-23 -37 -62.5 -55.5t-108.5 -18.5h-11q-99 0 -147.5 48t-37.5 163l3 24q13 115 68.5 163t153.5 48h17q64 0 104 -20t50 -55h5l8 67h93
l-39 -308q-7 -52 6.5 -71t54.5 -19q65 0 99.5 61.5t34.5 171.5v13q0 164 -105.5 236t-310.5 72q-202 0 -309 -101.5t-107 -274.5v-29q0 -172 108 -247t310 -75q126 0 227 28v-55q-88 -28 -233 -28zM505 191q70 0 110 29.5t48 109.5l3 25q5 44 -3 73t-28.5 42.5t-43.5 18
t-58 4.5q-69 0 -109 -29.5t-50 -109.5l-2 -25q-5 -44 2.5 -73t28.5 -42.5t44 -18t58 -4.5z" />
    <glyph glyph-name="zero.slash" horiz-adv-x="853" 
d="M452 -10h-51q-177 0 -258.5 73.5t-81.5 243.5v86q0 170 81.5 243.5t258.5 73.5h51q178 0 258.5 -73.5t80.5 -243.5v-86q0 -170 -80.5 -243.5t-258.5 -73.5zM165 381v-62q0 -112 36 -165l403 434q-59 32 -178 32q-152 0 -206.5 -52.5t-54.5 -186.5zM426 80
q153 0 207.5 52.5t54.5 186.5v62q0 111 -35 163l-402 -434q57 -30 175 -30z" />
    <glyph glyph-name="numbersign.LT" 
d="M508 0h-77l27 187h-175l-28 -187h-77l28 187h-153v76h162l24 174h-153v77h162l27 186h77l-27 -186h175l28 186h77l-28 -186h153v-77h-162l-24 -174h153v-76h-161zM494 440h-181l-24 -180h181z" />
    <glyph glyph-name="Euro.LT" 
d="M435 -10h-22q-61 0 -109 10.5t-93 37.5t-73.5 80.5t-37.5 132.5h-93v61h90v8v60v8h-90v61h93q9 79 37.5 132.5t73.5 80.5t93 37.5t109 10.5h22q128 0 202.5 -41t100.5 -139h-104q-21 49 -68.5 70.5t-140.5 21.5q-37 0 -65.5 -3.5t-56.5 -14.5t-47 -30t-33.5 -50.5
t-19.5 -74.5h431v-61h-434v-76h434v-61h-431q5 -43 19.5 -74.5t33.5 -50.5t47 -30t56.5 -14.5t65.5 -3.5q93 0 140.5 21.5t68.5 70.5h104q-26 -98 -100.5 -139t-202.5 -41z" />
    <glyph glyph-name="dollar.LT" 
d="M440 11v-116h-74v115q-262 7 -311 160h113q40 -80 230 -80q121 0 178 27t58 91v6q0 53 -33 71.5t-129 23.5l-182 8q-123 4 -173 45t-50 124v11q0 185 287 193v115h74v-116q252 -11 290 -159h-114q-20 43 -72.5 61.5t-147.5 18.5q-209 0 -209 -105v-5q0 -53 33 -71.5
t129 -23.5l181 -7q123 -6 173 -47t50 -123v-12q0 -105 -77 -152.5t-224 -52.5z" />
    <glyph glyph-name="cent.LT" 
d="M433 -10v-95h-74v96q-121 5 -183 65.5t-62 190.5v36q0 135 64 193t181 63v96h74v-95q202 -9 236 -169h-100q-18 49 -59 66.5t-112 17.5q-95 0 -140 -36.5t-45 -142.5v-22q0 -106 45 -142.5t140 -36.5q71 0 112 17.5t59 66.5h100q-34 -160 -236 -169z" />
    <glyph glyph-name="sterling.LT" 
d="M642 382v-63h-372v-232h461v-87h-700v87h137v232h-137v63h137v41q0 156 72.5 221.5t205.5 65.5h22q237 0 274 -180h-108q-16 47 -56 69.5t-119 22.5q-98 0 -143.5 -42.5t-45.5 -151.5v-46h372z" />
    <glyph glyph-name="florin.LT" 
d="M386 319v-424h-102v424h-256v63h256v25q0 86 20 144.5t59 90.5t88.5 45t117.5 13h167v-89h-149q-106 0 -153.5 -43t-47.5 -156v-30h350v-63h-350z" />
    <glyph glyph-name="yen.LT" 
d="M444 251v-251h-103v251h-256v61h256v45l-29 31h-227v61h171l-233 251h135l237 -265h5l237 265h122l-231 -251h172v-61h-228l-28 -30v-46h256v-61h-256z" />
    <glyph glyph-name="zero.slash.LT" 
d="M403 -10h-23q-56 0 -98.5 6.5t-86 27.5t-71.5 55.5t-45.5 94t-17.5 140.5v71q0 81 17.5 140.5t45.5 94.5t71.5 55.5t86.5 27.5t98 7h23q56 0 99 -7t86 -27.5t71 -55.5t45.5 -94.5t17.5 -140.5v-71q0 -81 -17.5 -140.5t-45.5 -94.5t-71.5 -55.5t-86 -27t-98.5 -6.5z
M165 386v-72q0 -99 29 -152l351 427q-50 32 -153 32q-44 0 -75 -4.5t-62 -18.5t-49 -39t-29.5 -68.5t-11.5 -104.5zM392 79q56 0 92.5 7.5t69.5 31t48.5 72t15.5 124.5v72q0 101 -28 153l-351 -428q50 -32 153 -32z" />
    <glyph glyph-name="zero.LT" 
d="M403 -10h-23q-56 0 -98.5 6.5t-86 27.5t-71.5 55.5t-45.5 94t-17.5 140.5v71q0 81 17.5 140.5t45.5 94.5t71.5 55.5t86.5 27.5t98 7h23q56 0 99 -7t86 -27.5t71 -55.5t45.5 -94.5t17.5 -140.5v-71q0 -81 -17.5 -140.5t-45.5 -94.5t-71.5 -55.5t-86 -27t-98.5 -6.5z
M392 79q56 0 92.5 7.5t69.5 31t48.5 72t15.5 124.5v72q0 76 -15.5 124.5t-48.5 72t-69.5 31t-92.5 7.5q-44 0 -75 -4.5t-62 -18.5t-49 -39t-29.5 -68.5t-11.5 -104.5v-72q0 -61 11.5 -104.5t29.5 -68.5t49 -39t62 -18.5t75 -4.5z" />
    <glyph glyph-name="one.LT" 
d="M723 88v-88h-662v88h291v528h-6l-273 -145v112l237 117h145v-612h268z" />
    <glyph glyph-name="two.LT" 
d="M724 88v-88h-664v104q0 129 47 182.5t179 74.5l199 28q78 12 106.5 36t28.5 78v7q0 58 -50.5 85t-162.5 27q-109 0 -159.5 -25t-64.5 -86h-106q10 57 36 97t68.5 61.5t93 31t116.5 9.5h25q308 0 308 -192v-15q0 -87 -43 -134t-156 -64l-213 -30q-88 -14 -118.5 -44
t-30.5 -110v-33h561z" />
    <glyph glyph-name="three.LT" 
d="M417 -10h-32q-146 0 -229.5 48t-97.5 157h105q17 -66 73.5 -91.5t166.5 -25.5q120 0 174 30t54 96v11q0 53 -33.5 78.5t-112.5 25.5h-233v89h232q70 0 100.5 23t30.5 71v10q0 58 -50.5 84t-162.5 26q-98 0 -149 -23.5t-66 -85.5h-105q21 105 96 151t211 46h21
q309 0 309 -178v-10q0 -119 -107 -142v-5q62 -13 92 -52t30 -109v-12q0 -109 -78.5 -160.5t-238.5 -51.5z" />
    <glyph glyph-name="four.LT" 
d="M633 182v-182h-103v182h-475v142l420 376h158v-433h116v-85h-116zM134 272v-5h396v355h-5z" />
    <glyph glyph-name="five.LT" 
d="M425 -10h-37q-282 0 -315 191h105q14 -54 68.5 -78.5t157.5 -24.5q115 0 169 35.5t54 108.5v14q0 76 -51 110t-170 34q-179 0 -225 -77h-95l37 397h569v-88h-475l-23 -211h5q52 65 236 65q154 0 224.5 -55.5t70.5 -172.5v-14q0 -116 -77.5 -175t-227.5 -59z" />
    <glyph glyph-name="six.LT" 
d="M418 -10h-36q-81 0 -136.5 13t-99 46t-64 95t-20.5 156v85q0 96 20 160t62 100t97.5 50.5t136.5 14.5h29q141 0 215 -42.5t94 -139.5h-105q-16 52 -65 73t-152 21q-130 0 -180 -45.5t-50 -184.5v-33h6q23 46 78.5 68t170.5 22q157 0 230 -50.5t73 -163.5v-18
q0 -121 -81 -174q-82 -53 -223 -53zM395 76q120 0 171.5 32.5t51.5 104.5v16q0 72 -51.5 104.5t-171.5 32.5t-172 -32.5t-52 -104.5v-16q0 -72 51.5 -104.5t172.5 -32.5z" />
    <glyph glyph-name="seven.LT" 
d="M733 614l-421 -614h-129l426 606v6h-562v88h686v-86z" />
    <glyph glyph-name="eight.LT" 
d="M414 -10h-45q-57 0 -102 6t-84.5 20.5t-66 38t-41.5 60t-15 85.5v11q0 137 121 162v6q-104 25 -104 140v8q0 96 76 139.5t225 43.5h26q149 0 225.5 -43.5t76.5 -139.5v-8q0 -116 -105 -140v-6q122 -26 122 -162v-11q0 -61 -22.5 -103t-65.5 -64.5t-96 -32.5t-125 -10z
M309 409h164q128 0 128 96v9q0 61 -47.5 85t-162.5 24t-162.5 -24t-47.5 -85v-9q0 -96 128 -96zM391 76q124 0 176 27t52 97v12q0 114 -147 114h-162q-147 0 -147 -114v-12q0 -70 52 -97t176 -27z" />
    <glyph glyph-name="nine.LT" 
d="M365 710h36q81 0 136.5 -13t99 -46t64 -95t20.5 -156v-85q0 -96 -20 -160t-62 -100t-97.5 -50.5t-136.5 -14.5h-29q-142 0 -215.5 42.5t-93.5 139.5h105q16 -52 65 -73t152 -21q66 0 106.5 9t70 34t41.5 70t12 117v33h-6q-21 -46 -78 -68t-171 -22q-157 0 -230 50.5
t-73 163.5v18q0 227 304 227zM388 624q-121 0 -172 -32.5t-51 -104.5v-16q0 -72 51 -104.5t172 -32.5t172.5 32.5t51.5 104.5v16q0 72 -51.5 104.5t-172.5 32.5z" />
    <glyph glyph-name="numbersign.OP" 
d="M515 0h-76l22 152h-177l-22 -152h-77l23 152h-155v77h164l19 143h-154v76h163l21 152h78l-22 -152h177l21 152h77l-22 -152h155v-76h-164l-19 -143h154v-77h-163zM493 375h-182l-21 -150h182z" />
    <glyph glyph-name="Euro.OP" 
d="M435 -10h-22q-57 0 -102.5 9t-89 31t-73 65t-42.5 106h-99v61h91q-1 11 -1 35v6q0 24 1 35h-91v61h99q13 63 42.5 106t73 65t89 31t102.5 9h22q127 0 201.5 -37.5t101.5 -121.5h-104q-24 41 -69.5 57.5t-139.5 16.5q-91 0 -143 -26.5t-72 -99.5h424v-61h-433
q-1 -9 -1 -29v-18q0 -20 1 -29h433v-61h-424q20 -73 72 -99.5t143 -26.5q94 0 139.5 16.5t69.5 57.5h104q-27 -84 -101.5 -121.5t-201.5 -37.5z" />
    <glyph glyph-name="dollar.OP" 
d="M435 10v-115h-70v115q-264 4 -312 160h112q19 -44 76.5 -61.5t156.5 -17.5q124 0 175.5 19t51.5 66v7q0 41 -29.5 56.5t-120.5 19.5l-189 7q-121 6 -167.5 42.5t-46.5 110.5v8q0 159 285 163v115h70v-115q254 -7 291 -159h-112q-21 45 -72 61.5t-147 16.5
q-112 0 -160 -19.5t-48 -59.5v-4q0 -43 30 -58t121 -18l189 -8q123 -6 168.5 -41t45.5 -110v-11q0 -87 -74 -126.5t-224 -43.5z" />
    <glyph glyph-name="cent.OP" horiz-adv-x="664" 
d="M375 -10v-95h-74v96q-121 5 -183 65.5t-62 190.5v36q0 135 64 193t181 63v96h74v-95q202 -9 236 -169h-100q-18 49 -59 66.5t-112 17.5q-95 0 -140 -36.5t-45 -142.5v-22q0 -106 45 -142.5t140 -36.5q71 0 112 17.5t59 66.5h100q-34 -160 -236 -169z" />
    <glyph glyph-name="sterling.OP" 
d="M642 332v-63h-372v-182h461v-87h-700v87h137v182h-137v63h137v2q0 153 71.5 214.5t206.5 61.5h22q237 0 274 -168h-108q-16 40 -55.5 60t-119.5 20q-99 0 -144 -39t-45 -144v-7h372z" />
    <glyph glyph-name="florin.OP" 
d="M386 269v-474h-102v474h-256v63h256q6 150 78 209t207 59h167v-89h-149q-100 0 -148.5 -39t-52.5 -140h350v-63h-350z" />
    <glyph glyph-name="yen.OP" 
d="M444 201v-201h-103v201h-256v61h251l-70 76h-181v61h124l-186 201h135l237 -265h5l237 265h122l-185 -201h126v-61h-182l-70 -76h252v-61h-256z" />
    <glyph glyph-name="zero.slash.OP" horiz-adv-x="847" 
d="M448 -10h-50q-172 0 -252 68t-80 230v24q0 163 79.5 230.5t252.5 67.5h50q173 0 253 -68t80 -230v-24q0 -162 -80 -230t-253 -68zM169 310v-20q0 -105 42 -150l370 358q-54 22 -158 22q-144 0 -199 -46t-55 -164zM423 80q144 0 199 46t55 164v20q0 104 -41 151l-371 -358
q57 -23 158 -23z" />
    <glyph glyph-name="zero.OP" horiz-adv-x="847" 
d="M448 -10h-50q-172 0 -252 68t-80 230v24q0 163 79.5 230.5t252.5 67.5h50q173 0 253 -68t80 -230v-24q0 -162 -80 -230t-253 -68zM423 80q144 0 199 46t55 164v20q0 118 -55 164t-199 46t-199 -46t-55 -164v-20q0 -118 55 -164t199 -46z" />
    <glyph glyph-name="one.OP" horiz-adv-x="498" 
d="M415 600v-600h-103v516h-6l-273 -145v112l237 117h145z" />
    <glyph glyph-name="two.OP" 
d="M724 88v-88h-664v92q0 109 47.5 160.5t167.5 63.5l217 20q75 7 101.5 27t26.5 64v6q0 47 -50 68t-162 21q-103 0 -154.5 -23.5t-68.5 -80.5h-108q21 103 99 147.5t220 44.5h15q313 0 313 -169v-12q0 -82 -47 -125t-161 -53l-209 -19q-88 -9 -116 -33.5t-28 -92.5v-18h561
z" />
    <glyph glyph-name="three.OP" 
d="M417 -110h-32q-300 0 -327 205h105q17 -66 73.5 -91.5t166.5 -25.5q120 0 174 30t54 96v11q0 53 -33.5 78.5t-112.5 25.5h-233v89h232q70 0 100.5 23t30.5 71v10q0 58 -50.5 84t-162.5 26q-98 0 -149 -23.5t-66 -85.5h-105q21 105 96 151t211 46h21q309 0 309 -178v-10
q0 -119 -107 -142v-5q62 -13 92 -52t30 -109v-12q0 -109 -78.5 -160.5t-238.5 -51.5z" />
    <glyph glyph-name="four.OP" 
d="M633 82v-182h-103v182h-475v142l420 376h158v-433h116v-85h-116zM134 172v-5h396v355h-5z" />
    <glyph glyph-name="five.OP" 
d="M425 -110h-37q-282 0 -315 191h105q14 -54 68.5 -78.5t157.5 -24.5q115 0 169 35.5t54 108.5v14q0 76 -51 110t-170 34q-179 0 -225 -77h-95l37 397h569v-88h-475l-23 -211h5q52 65 236 65q154 0 224.5 -55.5t70.5 -172.5v-14q0 -116 -77.5 -175t-227.5 -59z" />
    <glyph glyph-name="six.OP" 
d="M418 -10h-36q-81 0 -136.5 13t-99 46t-64 95t-20.5 156v85q0 96 20 160t62 100t97.5 50.5t136.5 14.5h29q141 0 215 -42.5t94 -139.5h-105q-16 52 -65 73t-152 21q-130 0 -180 -45.5t-50 -184.5v-33h6q23 46 78.5 68t170.5 22q157 0 230 -50.5t73 -163.5v-18
q0 -121 -81 -174q-82 -53 -223 -53zM395 76q120 0 171.5 32.5t51.5 104.5v16q0 72 -51.5 104.5t-171.5 32.5t-172 -32.5t-52 -104.5v-16q0 -72 51.5 -104.5t172.5 -32.5z" />
    <glyph glyph-name="seven.OP" 
d="M733 514l-421 -614h-129l426 606v6h-562v88h686v-86z" />
    <glyph glyph-name="eight.OP" 
d="M414 -10h-45q-57 0 -102 6t-84.5 20.5t-66 38t-41.5 60t-15 85.5v11q0 137 121 162v6q-104 25 -104 140v8q0 96 76 139.5t225 43.5h26q149 0 225.5 -43.5t76.5 -139.5v-8q0 -116 -105 -140v-6q122 -26 122 -162v-11q0 -61 -22.5 -103t-65.5 -64.5t-96 -32.5t-125 -10z
M309 409h164q128 0 128 96v9q0 61 -47.5 85t-162.5 24t-162.5 -24t-47.5 -85v-9q0 -96 128 -96zM391 76q124 0 176 27t52 97v12q0 114 -147 114h-162q-147 0 -147 -114v-12q0 -70 52 -97t176 -27z" />
    <glyph glyph-name="nine.OP" horiz-adv-x="784" 
d="M366 610h36q81 0 136.5 -13t99 -46t64 -95t20.5 -156v-85q0 -96 -20 -160t-62 -100t-97.5 -50.5t-136.5 -14.5h-29q-141 0 -215 42.5t-94 139.5h105q16 -52 65 -73t152 -21q130 0 180 45.5t50 184.5v33h-6q-23 -46 -78.5 -68t-170.5 -22q-157 0 -230 50.5t-73 163.5v18
q0 121 81 174q82 53 223 53zM389 524q-120 0 -171.5 -32.5t-51.5 -104.5v-16q0 -72 51.5 -104.5t171.5 -32.5t172 32.5t52 104.5v16q0 72 -51.5 104.5t-172.5 32.5z" />
    <glyph glyph-name="numbersign.OT" 
d="M515 0h-76l22 152h-177l-22 -152h-77l23 152h-155v77h164l19 143h-154v76h163l21 152h78l-22 -152h177l21 152h77l-22 -152h155v-76h-164l-19 -143h154v-77h-163zM493 375h-182l-21 -150h182z" />
    <glyph glyph-name="Euro.OT" 
d="M435 -10h-22q-57 0 -102.5 9t-89 31t-73 65t-42.5 106h-99v61h91q-1 11 -1 35v6q0 24 1 35h-91v61h99q13 63 42.5 106t73 65t89 31t102.5 9h22q127 0 201.5 -37.5t101.5 -121.5h-104q-24 41 -69.5 57.5t-139.5 16.5q-91 0 -143 -26.5t-72 -99.5h424v-61h-433
q-1 -9 -1 -29v-18q0 -20 1 -29h433v-61h-424q20 -73 72 -99.5t143 -26.5q94 0 139.5 16.5t69.5 57.5h104q-27 -84 -101.5 -121.5t-201.5 -37.5z" />
    <glyph glyph-name="dollar.OT" 
d="M435 10v-115h-70v115q-264 4 -312 160h112q19 -44 76.5 -61.5t156.5 -17.5q124 0 175.5 19t51.5 66v7q0 41 -29.5 56.5t-120.5 19.5l-189 7q-121 6 -167.5 42.5t-46.5 110.5v8q0 159 285 163v115h70v-115q254 -7 291 -159h-112q-21 45 -72 61.5t-147 16.5
q-112 0 -160 -19.5t-48 -59.5v-4q0 -43 30 -58t121 -18l189 -8q123 -6 168.5 -41t45.5 -110v-11q0 -87 -74 -126.5t-224 -43.5z" />
    <glyph glyph-name="cent.OT" 
d="M433 -10v-95h-74v96q-121 5 -183 65.5t-62 190.5v36q0 135 64 193t181 63v96h74v-95q202 -9 236 -169h-100q-18 49 -59 66.5t-112 17.5q-95 0 -140 -36.5t-45 -142.5v-22q0 -106 45 -142.5t140 -36.5q71 0 112 17.5t59 66.5h100q-34 -160 -236 -169z" />
    <glyph glyph-name="sterling.OT" 
d="M642 332v-63h-372v-182h461v-87h-700v87h137v182h-137v63h137v2q0 153 71.5 214.5t206.5 61.5h22q237 0 274 -168h-108q-16 40 -55.5 60t-119.5 20q-99 0 -144 -39t-45 -144v-7h372z" />
    <glyph glyph-name="florin.OT" 
d="M386 269v-474h-102v474h-256v63h256q6 150 78 209t207 59h167v-89h-149q-100 0 -148.5 -39t-52.5 -140h350v-63h-350z" />
    <glyph glyph-name="yen.OT" 
d="M444 201v-201h-103v201h-256v61h251l-70 76h-181v61h124l-186 201h135l237 -265h5l237 265h122l-185 -201h126v-61h-182l-70 -76h252v-61h-256z" />
    <glyph glyph-name="zero.slash.OT" 
d="M402 -10h-20q-81 0 -136 12.5t-98.5 45t-64 92t-20.5 149.5v22q0 90 20.5 149.5t64 92t98.5 45t136 12.5h20q81 0 136.5 -12.5t98.5 -45t63.5 -92t20.5 -149.5v-22q0 -90 -21 -149.5t-64 -92t-98.5 -45t-135.5 -12.5zM167 312v-23q0 -97 30 -144l340 353q-45 22 -145 22
q-128 0 -176.5 -41.5t-48.5 -166.5zM392 80q127 0 176 42t49 167v23q0 99 -31 146l-341 -355q47 -23 147 -23z" />
    <glyph glyph-name="zero.OT" 
d="M402 -10h-20q-81 0 -136 12.5t-98.5 45t-64 92t-20.5 149.5v22q0 90 20.5 149.5t64 92t98.5 45t136 12.5h20q81 0 136.5 -12.5t98.5 -45t63.5 -92t20.5 -149.5v-22q0 -90 -21 -149.5t-64 -92t-98.5 -45t-135.5 -12.5zM392 80q127 0 176 42t49 167v23q0 125 -48.5 166.5
t-176.5 41.5t-176.5 -41.5t-48.5 -166.5v-23q0 -125 49 -167t176 -42z" />
    <glyph glyph-name="one.OT" 
d="M723 88v-88h-662v88h291v428h-6l-273 -145v112l237 117h145v-512h268z" />
    <glyph glyph-name="two.OT" 
d="M724 88v-88h-664v92q0 109 47.5 160.5t167.5 63.5l217 20q75 7 101.5 27t26.5 64v6q0 47 -50 68t-162 21q-103 0 -154.5 -23.5t-68.5 -80.5h-108q21 103 99 147.5t220 44.5h15q313 0 313 -169v-12q0 -82 -47 -125t-161 -53l-209 -19q-88 -9 -116 -33.5t-28 -92.5v-18h561
z" />
    <glyph glyph-name="three.OT" 
d="M417 -110h-32q-300 0 -327 205h105q17 -66 73.5 -91.5t166.5 -25.5q120 0 174 30t54 96v11q0 53 -33.5 78.5t-112.5 25.5h-233v89h232q70 0 100.5 23t30.5 71v10q0 58 -50.5 84t-162.5 26q-98 0 -149 -23.5t-66 -85.5h-105q21 105 96 151t211 46h21q309 0 309 -178v-10
q0 -119 -107 -142v-5q62 -13 92 -52t30 -109v-12q0 -109 -78.5 -160.5t-238.5 -51.5z" />
    <glyph glyph-name="four.OT" 
d="M633 82v-182h-103v182h-475v142l420 376h158v-433h116v-85h-116zM134 172v-5h396v355h-5z" />
    <glyph glyph-name="five.OT" 
d="M425 -110h-37q-282 0 -315 191h105q14 -54 68.5 -78.5t157.5 -24.5q115 0 169 35.5t54 108.5v14q0 76 -51 110t-170 34q-179 0 -225 -77h-95l37 397h569v-88h-475l-23 -211h5q52 65 236 65q154 0 224.5 -55.5t70.5 -172.5v-14q0 -116 -77.5 -175t-227.5 -59z" />
    <glyph glyph-name="six.OT" 
d="M418 -10h-36q-81 0 -136.5 13t-99 46t-64 95t-20.5 156v85q0 96 20 160t62 100t97.5 50.5t136.5 14.5h29q141 0 215 -42.5t94 -139.5h-105q-16 52 -65 73t-152 21q-130 0 -180 -45.5t-50 -184.5v-33h6q23 46 78.5 68t170.5 22q157 0 230 -50.5t73 -163.5v-18
q0 -121 -81 -174q-82 -53 -223 -53zM395 76q120 0 171.5 32.5t51.5 104.5v16q0 72 -51.5 104.5t-171.5 32.5t-172 -32.5t-52 -104.5v-16q0 -72 51.5 -104.5t172.5 -32.5z" />
    <glyph glyph-name="seven.OT" 
d="M733 514l-421 -614h-129l426 606v6h-562v88h686v-86z" />
    <glyph glyph-name="eight.OT" 
d="M414 -10h-45q-57 0 -102 6t-84.5 20.5t-66 38t-41.5 60t-15 85.5v11q0 137 121 162v6q-104 25 -104 140v8q0 96 76 139.5t225 43.5h26q149 0 225.5 -43.5t76.5 -139.5v-8q0 -116 -105 -140v-6q122 -26 122 -162v-11q0 -61 -22.5 -103t-65.5 -64.5t-96 -32.5t-125 -10z
M309 409h164q128 0 128 96v9q0 61 -47.5 85t-162.5 24t-162.5 -24t-47.5 -85v-9q0 -96 128 -96zM391 76q124 0 176 27t52 97v12q0 114 -147 114h-162q-147 0 -147 -114v-12q0 -70 52 -97t176 -27z" />
    <glyph glyph-name="nine.OT" horiz-adv-x="784" 
d="M366 610h36q81 0 136.5 -13t99 -46t64 -95t20.5 -156v-85q0 -96 -20 -160t-62 -100t-97.5 -50.5t-136.5 -14.5h-29q-141 0 -215 42.5t-94 139.5h105q16 -52 65 -73t152 -21q130 0 180 45.5t50 184.5v33h-6q-23 -46 -78.5 -68t-170.5 -22q-157 0 -230 50.5t-73 163.5v18
q0 121 81 174q82 53 223 53zM389 524q-120 0 -171.5 -32.5t-51.5 -104.5v-16q0 -72 51.5 -104.5t171.5 -32.5t172 32.5t52 104.5v16q0 72 -51.5 104.5t-172.5 32.5z" />
    <glyph glyph-name="zero.numr" horiz-adv-x="456" 
d="M233 274h-10q-96 0 -145 40.5t-49 157.5v36q0 117 49 157.5t145 40.5h10q47 0 79 -7.5t59.5 -28t41 -61t13.5 -101.5v-36q0 -61 -13.5 -101.5t-41 -61t-59.5 -28t-79 -7.5zM228 346q57 0 82 24t25 100v40q0 76 -25 100t-82 24t-82 -24t-25 -100v-40q0 -76 25 -100t82 -24
z" />
    <glyph glyph-name="one.numr" horiz-adv-x="326" 
d="M262 700v-420h-91v348h-4l-146 -81v92l121 61h120z" />
    <glyph glyph-name="two.numr" horiz-adv-x="456" 
d="M428 351v-71h-399v66q0 78 30 112.5t112 47.5l99 16q38 6 51 17.5t13 38.5v3q0 28 -22 40.5t-75 12.5q-49 0 -74.5 -11t-31.5 -42h-94q10 70 59.5 97.5t132.5 27.5h9q97 0 143.5 -29t46.5 -91v-7q0 -53 -26 -82q-25 -28 -98 -41l-117 -18q-39 -7 -52.5 -21t-13.5 -50v-16
h307z" />
    <glyph glyph-name="three.numr" horiz-adv-x="456" 
d="M243 274h-18q-83 0 -134 28t-62 100h94q8 -33 34 -44.5t74 -11.5q55 0 79.5 14t24.5 45v5q0 27 -15.5 39t-54.5 12h-107v69h102q64 0 64 47v4q0 29 -22 41t-70 12q-43 0 -65.5 -11t-30.5 -40h-95q12 66 57 94.5t125 28.5h12q183 0 183 -106v-4q0 -74 -67 -85v-5
q79 -10 79 -97v-5q0 -68 -46.5 -99t-140.5 -31z" />
    <glyph glyph-name="four.numr" horiz-adv-x="456" 
d="M382 380v-100h-93v100h-264v110l219 210h138v-249h60v-71h-60zM101 456v-5h188v183h-4z" />
    <glyph glyph-name="five.numr" horiz-adv-x="456" 
d="M244 274h-18q-173 0 -194 123h94q8 -29 33 -40t73 -11q56 0 80.5 16.5t24.5 52.5v8q0 37 -25.5 53.5t-82.5 16.5q-80 0 -105 -37h-85l23 244h347v-72h-264l-12 -104h5q29 37 124 37q89 0 129.5 -33.5t40.5 -103.5v-5q0 -145 -188 -145z" />
    <glyph glyph-name="six.numr" horiz-adv-x="456" 
d="M243 274h-16q-100 0 -149 41t-49 152v41q0 114 47 156t148 42h11q86 0 130.5 -27t60.5 -85h-96q-17 41 -99 41q-61 0 -85.5 -23.5t-24.5 -90.5v-17h5q25 46 131 46q93 0 132 -31.5t39 -99.5v-5q0 -140 -185 -140zM229 343q58 0 82 16t24 52v8q0 36 -24 51.5t-82 15.5
t-82 -15.5t-24 -51.5v-8q0 -36 24 -52t82 -16z" />
    <glyph glyph-name="seven.numr" horiz-adv-x="456" 
d="M433 627l-237 -347h-115l246 344v5h-305v71h411v-73z" />
    <glyph glyph-name="eight.numr" horiz-adv-x="456" 
d="M238 274h-20q-91 0 -140.5 29t-49.5 100v5q2 85 78 98v4q-67 15 -67 83v3q0 110 184 110h10q184 0 185 -110v-3q0 -68 -68 -83v-4q78 -15 78 -97v-6q0 -71 -49.5 -100t-140.5 -29zM201 529h54q70 0 70 49v4q0 30 -22 42t-75 12t-74.5 -12t-21.5 -42v-4q0 -49 69 -49z
M228 343q59 0 83.5 14t24.5 49v5q0 59 -80 59h-55q-80 0 -80 -59v-5q0 -35 24 -49t83 -14z" />
    <glyph glyph-name="nine.numr" horiz-adv-x="456" 
d="M212 705h16q100 0 149 -41t49 -152v-41q0 -114 -47 -156t-148 -42h-11q-86 0 -130.5 27t-60.5 85h96q9 -23 31.5 -32t67.5 -9q60 0 85 23.5t25 90.5v17h-5q-25 -46 -131 -46q-92 0 -131.5 31.5t-39.5 99.5v5q0 140 185 140zM226 636q-58 0 -82 -16.5t-24 -51.5v-8
q0 -35 24 -51t82 -16q57 0 81.5 16.5t24.5 50.5v8q0 35 -24 51.5t-82 16.5z" />
    <glyph glyph-name="zero.dnom" horiz-adv-x="456" 
d="M233 -6h-10q-96 0 -145 40.5t-49 157.5v36q0 117 49 157.5t145 40.5h10q47 0 79 -7.5t59.5 -28t41 -61t13.5 -101.5v-36q0 -61 -13.5 -101.5t-41 -61t-59.5 -28t-79 -7.5zM228 66q57 0 82 24t25 100v40q0 76 -25 100t-82 24t-82 -24t-25 -100v-40q0 -76 25 -100t82 -24z
" />
    <glyph glyph-name="one.dnom" horiz-adv-x="326" 
d="M262 420v-420h-91v348h-4l-146 -81v92l121 61h120z" />
    <glyph glyph-name="two.dnom" horiz-adv-x="456" 
d="M428 71v-71h-399v66q0 78 30 112.5t112 47.5l99 16q38 6 51 17.5t13 38.5v3q0 28 -22 40.5t-75 12.5q-49 0 -74.5 -11t-31.5 -42h-94q10 70 59.5 97.5t132.5 27.5h9q97 0 143.5 -29t46.5 -91v-7q0 -53 -26 -82q-25 -28 -98 -41l-117 -18q-39 -7 -52.5 -21t-13.5 -50v-16
h307z" />
    <glyph glyph-name="three.dnom" horiz-adv-x="456" 
d="M243 -6h-18q-176 0 -196 128h94q8 -33 34 -44.5t74 -11.5q55 0 79.5 14t24.5 45v5q0 27 -15.5 39t-54.5 12h-107v69h102q64 0 64 47v4q0 29 -22 41t-70 12q-43 0 -65.5 -11t-30.5 -40h-95q12 66 57 94.5t125 28.5h12q183 0 183 -106v-4q0 -74 -67 -85v-5q79 -10 79 -97
v-5q0 -68 -46.5 -99t-140.5 -31z" />
    <glyph glyph-name="four.dnom" horiz-adv-x="456" 
d="M382 100v-100h-93v100h-264v110l219 210h138v-249h60v-71h-60zM101 176v-5h188v183h-4z" />
    <glyph glyph-name="five.dnom" horiz-adv-x="456" 
d="M244 -6h-18q-173 0 -194 123h94q8 -29 33 -40t73 -11q56 0 80.5 16.5t24.5 52.5v8q0 37 -25.5 53.5t-82.5 16.5q-80 0 -105 -37h-85l23 244h347v-72h-264l-12 -104h5q29 37 124 37q89 0 129.5 -33.5t40.5 -103.5v-5q0 -145 -188 -145z" />
    <glyph glyph-name="six.dnom" horiz-adv-x="456" 
d="M243 -6h-16q-100 0 -149 41t-49 152v41q0 114 47 156t148 42h11q86 0 130.5 -27t60.5 -85h-96q-17 41 -99 41q-61 0 -85.5 -23.5t-24.5 -90.5v-17h5q25 46 131 46q93 0 132 -31.5t39 -99.5v-5q0 -140 -185 -140zM229 63q58 0 82 16t24 52v8q0 36 -24 51.5t-82 15.5
t-82 -15.5t-24 -51.5v-8q0 -36 24 -52t82 -16z" />
    <glyph glyph-name="seven.dnom" horiz-adv-x="456" 
d="M433 347l-237 -347h-115l246 344v5h-305v71h411v-73z" />
    <glyph glyph-name="eight.dnom" horiz-adv-x="456" 
d="M238 -6h-20q-91 0 -140.5 29t-49.5 100v5q2 85 78 98v4q-67 15 -67 83v3q0 110 184 110h10q184 0 185 -110v-3q0 -68 -68 -83v-4q78 -15 78 -97v-6q0 -71 -49.5 -100t-140.5 -29zM201 249h54q70 0 70 49v4q0 30 -22 42t-75 12t-74.5 -12t-21.5 -42v-4q0 -49 69 -49z
M228 63q59 0 83.5 14t24.5 49v5q0 59 -80 59h-55q-80 0 -80 -59v-5q0 -35 24 -49t83 -14z" />
    <glyph glyph-name="nine.dnom" horiz-adv-x="456" 
d="M212 425h16q100 0 149 -41t49 -152v-41q0 -114 -47 -156t-148 -42h-11q-86 0 -130.5 27t-60.5 85h96q9 -23 31.5 -32t67.5 -9q60 0 85 23.5t25 90.5v17h-5q-25 -46 -131 -46q-92 0 -131.5 31.5t-39.5 99.5v5q0 140 185 140zM226 356q-58 0 -82 -16.5t-24 -51.5v-8
q0 -35 24 -51t82 -16q57 0 81.5 16.5t24.5 50.5v8q0 35 -24 51.5t-82 16.5z" />
    <glyph glyph-name="G.alt" horiz-adv-x="913" 
d="M836 388v-388h-95v110h-6q-43 -120 -272 -120h-47q-183 0 -268 78.5t-85 244.5v74q0 167 85 245t275 78h64q153 0 238 -50t110 -157h-116q-18 59 -77 87t-167 28h-40q-80 0 -132 -15t-81 -48t-40 -76.5t-11 -109.5v-38q0 -66 11 -109.5t40 -76.5t81 -48t132 -15h34
q149 0 204.5 48t55.5 167h-302v91h409z" />
    <glyph glyph-name="Gcircumflex.alt" horiz-adv-x="915" 
d="M527 860l121 -120h-94l-99 88l-99 -88h-94l121 120h144zM836 388v-388h-95v110h-6q-43 -120 -272 -120h-47q-183 0 -268 78.5t-85 244.5v74q0 167 85 245t275 78h64q153 0 238 -50t110 -157h-116q-18 59 -77 87t-167 28h-40q-80 0 -132 -15t-81 -48t-40 -76.5t-11 -109.5
v-38q0 -66 11 -109.5t40 -76.5t81 -48t132 -15h34q149 0 204.5 48t55.5 167h-302v91h409z" />
    <glyph glyph-name="Gbreve.alt" horiz-adv-x="915" 
d="M455 733q-89 0 -130.5 30.5t-44.5 96.5h77q1 -70 98 -70t98 70h77q-4 -66 -45.5 -96.5t-129.5 -30.5zM836 388v-388h-95v110h-6q-43 -120 -272 -120h-47q-183 0 -268 78.5t-85 244.5v74q0 167 85 245t275 78h64q153 0 238 -50t110 -157h-116q-18 59 -77 87t-167 28h-40
q-80 0 -132 -15t-81 -48t-40 -76.5t-11 -109.5v-38q0 -66 11 -109.5t40 -76.5t81 -48t132 -15h34q149 0 204.5 48t55.5 167h-302v91h409z" />
    <glyph glyph-name="Gdotaccent.alt" horiz-adv-x="915" 
d="M405 845h99v-86h-99v86zM836 388v-388h-95v110h-6q-43 -120 -272 -120h-47q-183 0 -268 78.5t-85 244.5v74q0 167 85 245t275 78h64q153 0 238 -50t110 -157h-116q-18 59 -77 87t-167 28h-40q-80 0 -132 -15t-81 -48t-40 -76.5t-11 -109.5v-38q0 -66 11 -109.5t40 -76.5
t81 -48t132 -15h34q149 0 204.5 48t55.5 167h-302v91h409z" />
    <glyph glyph-name="Gcommaaccent.alt" horiz-adv-x="915" 
d="M836 388v-388h-95v110h-6q-43 -120 -272 -120h-47q-183 0 -268 78.5t-85 244.5v74q0 167 85 245t275 78h64q153 0 238 -50t110 -157h-116q-18 59 -77 87t-167 28h-40q-80 0 -132 -15t-81 -48t-40 -76.5t-11 -109.5v-38q0 -66 11 -109.5t40 -76.5t81 -48t132 -15h34
q149 0 204.5 48t55.5 167h-302v91h409zM476 -149l-16 -21h-62l44 59v7h-61v58h128v-15q0 -28 -7 -45.5t-26 -42.5z" />
    <glyph glyph-name="J.alt" horiz-adv-x="738" 
d="M370 -10h-27q-135 0 -206.5 51t-89.5 162l-2 16h109l3 -16q15 -60 58 -90t138 -30h7q115 0 157.5 45t42.5 143v429h108v-433q0 -146 -68.5 -211.5t-229.5 -65.5z" />
    <glyph glyph-name="Jcircumflex.alt" horiz-adv-x="738" 
d="M686 860l121 -120h-94l-99 88l-99 -88h-94l121 120h144zM370 -10h-27q-135 0 -206.5 51t-89.5 162l-2 16h109l3 -16q15 -60 58 -90t138 -30h7q115 0 157.5 45t42.5 143v429h108v-433q0 -146 -68.5 -211.5t-229.5 -65.5z" />
    <glyph glyph-name="K.alt" horiz-adv-x="853" 
d="M189 700v-700h-107v700h107zM355 357l485 -357h-165l-474 350l466 350h149z" />
    <glyph glyph-name="Kcommaaccent.alt" horiz-adv-x="853" 
d="M189 700v-700h-107v700h107zM355 357l485 -357h-165l-474 350l466 350h149zM449 -149l-16 -21h-62l44 59v7h-61v58h128v-15q0 -28 -7 -45.5t-26 -42.5z" />
    <glyph glyph-name="Q.alt" horiz-adv-x="910" 
d="M506 -10h-19h-64q-190 0 -275 77.5t-85 245.5v74q0 167 85 245t275 78h64q190 0 275 -78t85 -245v-74q0 -133 -53 -208.5t-167 -101.5l176 -173h-140zM434 82h41q80 0 132 15t80.5 48t39.5 76.5t11 108.5v39q0 66 -11 109.5t-39.5 76.5t-80.5 48t-132 15h-41
q-80 0 -132 -15t-80.5 -48t-39.5 -76.5t-11 -109.5v-39q0 -65 11 -108.5t39.5 -76.5t80.5 -48t132 -15z" />
    <glyph glyph-name="R.alt" horiz-adv-x="833" 
d="M189 296v-296h-107v700h450q130 0 187 -43.5t57 -147.5v-21q0 -97 -55 -141.5t-176 -46.5l249 -300h-134l-242 296h-229zM508 612h-319v-228h318q91 0 126.5 23.5t35.5 86.5v9q0 62 -35 85.5t-126 23.5z" />
    <glyph glyph-name="Racute.alt" horiz-adv-x="833" 
d="M594 860l-117 -120h-96l93 120h120zM189 296v-296h-107v700h450q130 0 187 -43.5t57 -147.5v-21q0 -97 -55 -141.5t-176 -46.5l249 -300h-134l-242 296h-229zM508 612h-319v-228h318q91 0 126.5 23.5t35.5 86.5v9q0 62 -35 85.5t-126 23.5z" />
    <glyph glyph-name="Rcaron.alt" horiz-adv-x="833" 
d="M426 772l99 88h94l-121 -120h-144l-121 120h94zM189 296v-296h-107v700h450q130 0 187 -43.5t57 -147.5v-21q0 -97 -55 -141.5t-176 -46.5l249 -300h-134l-242 296h-229zM508 612h-319v-228h318q91 0 126.5 23.5t35.5 86.5v9q0 62 -35 85.5t-126 23.5z" />
    <glyph glyph-name="Rcommaaccent.alt" horiz-adv-x="833" 
d="M189 296v-296h-107v700h450q130 0 187 -43.5t57 -147.5v-21q0 -97 -55 -141.5t-176 -46.5l249 -300h-134l-242 296h-229zM508 612h-319v-228h318q91 0 126.5 23.5t35.5 86.5v9q0 62 -35 85.5t-126 23.5zM437 -149l-16 -21h-62l44 59v7h-61v58h128v-15q0 -28 -7 -45.5
t-26 -42.5z" />
    <glyph glyph-name="a.alt" horiz-adv-x="692" 
d="M629 530v-530h-99v87h-4q-21 -49 -69 -73t-133 -24h-18q-128 0 -194 58t-66 197v39q0 139 66 197.5t194 58.5h18q85 0 133 -24t69 -73h4v87h99zM338 75q102 0 147 35t45 141v24q0 109 -45 144.5t-147 35.5q-103 0 -148 -35.5t-45 -144.5v-19q0 -57 12 -93.5t38 -55.5
t59 -25.5t84 -6.5z" />
    <glyph glyph-name="agrave.alt" horiz-adv-x="692" 
d="M295 700l92 -120h-96l-117 120h121zM629 530v-530h-99v87h-4q-21 -49 -69 -73t-133 -24h-18q-128 0 -194 58t-66 197v39q0 139 66 197.5t194 58.5h18q85 0 133 -24t69 -73h4v87h99zM338 75q102 0 147 35t45 141v24q0 109 -45 144.5t-147 35.5q-103 0 -148 -35.5
t-45 -144.5v-19q0 -57 12 -93.5t38 -55.5t59 -25.5t84 -6.5z" />
    <glyph glyph-name="aacute.alt" horiz-adv-x="692" 
d="M503 700l-117 -120h-96l93 120h120zM629 530v-530h-99v87h-4q-21 -49 -69 -73t-133 -24h-18q-128 0 -194 58t-66 197v39q0 139 66 197.5t194 58.5h18q85 0 133 -24t69 -73h4v87h99zM338 75q102 0 147 35t45 141v24q0 109 -45 144.5t-147 35.5q-103 0 -148 -35.5
t-45 -144.5v-19q0 -57 12 -93.5t38 -55.5t59 -25.5t84 -6.5z" />
    <glyph glyph-name="acircumflex.alt" horiz-adv-x="692" 
d="M410 700l121 -120h-94l-99 88l-99 -88h-94l121 120h144zM629 530v-530h-99v87h-4q-21 -49 -69 -73t-133 -24h-18q-128 0 -194 58t-66 197v39q0 139 66 197.5t194 58.5h18q85 0 133 -24t69 -73h4v87h99zM338 75q102 0 147 35t45 141v24q0 109 -45 144.5t-147 35.5
q-103 0 -148 -35.5t-45 -144.5v-19q0 -57 12 -93.5t38 -55.5t59 -25.5t84 -6.5z" />
    <glyph glyph-name="atilde.alt" horiz-adv-x="692" 
d="M414 589q-32 0 -82 21.5t-66 21.5q-34 0 -43 -38h-63q7 51 31 74.5t69 23.5q32 0 82 -22t65 -22q34 0 44 39h66q-12 -98 -103 -98zM629 530v-530h-99v87h-4q-21 -49 -69 -73t-133 -24h-18q-128 0 -194 58t-66 197v39q0 139 66 197.5t194 58.5h18q85 0 133 -24t69 -73h4
v87h99zM338 75q102 0 147 35t45 141v24q0 109 -45 144.5t-147 35.5q-103 0 -148 -35.5t-45 -144.5v-19q0 -57 12 -93.5t38 -55.5t59 -25.5t84 -6.5z" />
    <glyph glyph-name="adieresis.alt" horiz-adv-x="692" 
d="M194 681h86v-86h-86v86zM396 681h86v-86h-86v86zM629 530v-530h-99v87h-4q-21 -49 -69 -73t-133 -24h-18q-128 0 -194 58t-66 197v39q0 139 66 197.5t194 58.5h18q85 0 133 -24t69 -73h4v87h99zM338 75q102 0 147 35t45 141v24q0 109 -45 144.5t-147 35.5
q-103 0 -148 -35.5t-45 -144.5v-19q0 -57 12 -93.5t38 -55.5t59 -25.5t84 -6.5z" />
    <glyph glyph-name="amacron.alt" horiz-adv-x="692" 
d="M507 666v-55h-338v55h338zM629 530v-530h-99v87h-4q-21 -49 -69 -73t-133 -24h-18q-128 0 -194 58t-66 197v39q0 139 66 197.5t194 58.5h18q85 0 133 -24t69 -73h4v87h99zM338 75q102 0 147 35t45 141v24q0 109 -45 144.5t-147 35.5q-103 0 -148 -35.5t-45 -144.5v-19
q0 -57 12 -93.5t38 -55.5t59 -25.5t84 -6.5z" />
    <glyph glyph-name="abreve.alt" horiz-adv-x="692" 
d="M338 573q-89 0 -130.5 31t-44.5 96h77q1 -70 98 -70t98 70h77q-4 -65 -45.5 -96t-129.5 -31zM629 530v-530h-99v87h-4q-21 -49 -69 -73t-133 -24h-18q-128 0 -194 58t-66 197v39q0 139 66 197.5t194 58.5h18q85 0 133 -24t69 -73h4v87h99zM338 75q102 0 147 35t45 141v24
q0 109 -45 144.5t-147 35.5q-103 0 -148 -35.5t-45 -144.5v-19q0 -57 12 -93.5t38 -55.5t59 -25.5t84 -6.5z" />
    <glyph glyph-name="aring.alt" horiz-adv-x="692" 
d="M338 567q-138 0 -138 103t138 103q137 0 137 -103t-137 -103zM338 617q71 0 71 53t-71 53q-72 0 -72 -53t72 -53zM629 530v-530h-99v87h-4q-21 -49 -69 -73t-133 -24h-18q-128 0 -194 58t-66 197v39q0 139 66 197.5t194 58.5h18q85 0 133 -24t69 -73h4v87h99zM338 75
q102 0 147 35t45 141v24q0 109 -45 144.5t-147 35.5q-103 0 -148 -35.5t-45 -144.5v-19q0 -57 12 -93.5t38 -55.5t59 -25.5t84 -6.5z" />
    <glyph glyph-name="aringacute.alt" horiz-adv-x="693" 
d="M504 920l-117 -120h-96l93 120h120zM339 563q-138 0 -138 103t138 103q137 0 137 -103t-137 -103zM339 613q71 0 71 53t-71 53q-72 0 -72 -53t72 -53zM629 530v-530h-99v87h-4q-21 -49 -69 -73t-133 -24h-18q-128 0 -194 58t-66 197v39q0 139 66 197.5t194 58.5h18
q85 0 133 -24t69 -73h4v87h99zM338 75q102 0 147 35t45 141v24q0 109 -45 144.5t-147 35.5q-103 0 -148 -35.5t-45 -144.5v-19q0 -57 12 -93.5t38 -55.5t59 -25.5t84 -6.5z" />
    <glyph glyph-name="aogonek.alt" horiz-adv-x="693" 
d="M629 -86v-54h-72q-54 0 -80 16.5t-26 53.5q0 28 13 47q13 18 66 38v72h-4q-21 -49 -69 -73t-133 -24h-18q-128 0 -194 58t-66 197v39q0 139 66 197.5t194 58.5h18q85 0 133 -24t69 -73h4v87h99v-530q-57 -17 -71.5 -27t-14.5 -30q0 -16 9.5 -22.5t35.5 -6.5h41zM338 75
q102 0 147 35t45 141v24q0 109 -45 144.5t-147 35.5q-103 0 -148 -35.5t-45 -144.5v-19q0 -57 12 -93.5t38 -55.5t59 -25.5t84 -6.5z" />
    <glyph glyph-name="a.superior.alt" horiz-adv-x="560" 
d="M510 700v-420h-92v68h-3q-36 -76 -158 -76h-13q-100 0 -153.5 45.5t-53.5 155.5v34q0 110 53.5 155.5t153.5 45.5h13q67 0 103.5 -19t54.5 -57h3v68h92zM273 347q76 0 110.5 25.5t34.5 107.5v20q0 80 -35 106.5t-110 26.5q-74 0 -109.5 -26.5t-35.5 -106.5v-20
q0 -81 35 -107t110 -26z" />
    <glyph glyph-name="k.alt" horiz-adv-x="624" 
d="M161 700v-700h-99v700h99zM303 291l312 -291h-134l-306 287l287 243h129z" />
    <glyph glyph-name="kcommaaccent.alt" horiz-adv-x="642" 
d="M164 700v-700h-99v700h99zM306 291l312 -291h-134l-306 287l287 243h129zM344 -149l-16 -21h-62l44 59v7h-61v58h128v-15q0 -28 -7 -45.5t-26 -42.5z" />
    <glyph glyph-name="k.superior.alt" horiz-adv-x="501" 
d="M141 834v-554h-91v554h91zM496 280h-119l-228 240l214 180h117l-218 -178z" />
    <glyph glyph-name="ampersand.alt" horiz-adv-x="920" 
d="M716 323v-323h-384q-130 0 -193 49.5t-63 153.5v7q0 144 117 169v4q-102 19 -102 138v5q0 90 57 132t183 42h340v-89h-334q-73 0 -107 -23t-34 -74v-5q1 -55 37.5 -76t124.5 -21h255v98h103v-98h204v-89h-204zM352 89h261v234h-260q-97 0 -134.5 -21.5t-37.5 -88.5v-4
q0 -73 44 -97q44 -23 127 -23z" />
    <glyph glyph-name="registered.alt" horiz-adv-x="868" 
d="M483 -10h-98q-185 0 -270.5 80t-85.5 233v94q0 153 85.5 233t270.5 80h98q185 0 270.5 -80t85.5 -233v-94q0 -153 -85.5 -233t-270.5 -80zM400 25h68q99 0 165 19.5t102 60.5t50.5 94t14.5 129v44q0 76 -14.5 129t-50.5 94t-102 60.5t-165 19.5h-68q-98 0 -164 -19.5
t-102 -60.5t-50.5 -94t-14.5 -129v-44q0 -76 14.5 -129t50.5 -94t102 -60.5t164 -19.5zM326 313v-173h-87v420h270q84 0 119.5 -26.5t35.5 -91.5v-13q0 -55 -32 -82.5t-101 -30.5l147 -176h-110l-139 173h-103zM490 494h-164v-120h163q49 0 68 12.5t19 45.5v5q0 33 -19 45
t-67 12z" />
    <glyph glyph-name="NULL" horiz-adv-x="0" 
 />
    <glyph glyph-name="CR" horiz-adv-x="256" 
 />
    </font>
</defs>
</svg>
