<?xml version="1.0" standalone="no"?>
<!DOCTYPE svg PUBLIC "-//W3C//DTD SVG 1.1//EN" "http://www.w3.org/Graphics/SVG/1.1/DTD/svg11.dtd" >
<svg xmlns="http://www.w3.org/2000/svg" xmlns:xlink="http://www.w3.org/1999/xlink" version="1.1">
<metadata>
Created by FontForge 20170731 at Wed Jul 11 09:59:40 2018
 By Aleksey,,,
(c) 2018 Stephane Elbaz under exclusive license to General Type LLC. All rights reserved.
</metadata>
<defs>
<font id="PilatWide-Bold" horiz-adv-x="797" >
  <font-face 
    font-family="Pilat Wide"
    font-weight="700"
    font-stretch="semi-expanded"
    units-per-em="1000"
    panose-1="2 11 8 5 3 0 0 0 0 4"
    ascent="750"
    descent="-250"
    x-height="530"
    cap-height="700"
    bbox="-142 -196 1641 1080"
    underline-thickness="87"
    underline-position="-264"
    unicode-range="U+0020-FB00"
  />
<missing-glyph horiz-adv-x="700" 
d="M369 -80q-113 0 -190 78.5t-77 187.5v18l-19 31q-15 25 -9 53q6 29 31 44l7 4q18 13 43 11q-7 24 0.5 46t28.5 35l7 4q20 12 41 11l-76 120q-12 21 -12 39q0 30 21.5 52.5t51.5 22.5q42 0 65 -35l139 -221v224q0 31 21.5 53t52.5 22t52.5 -22t21.5 -53v-286
q30 -15 48 -43t18 -63v-62q0 -65 -30 -126t-92.5 -103t-143.5 -42zM451 645v-274h66q8 0 22 -2v276q0 18 -13 31t-31 13t-31 -13t-13 -31zM182 579l127 -203l24 -37q13 32 50 32h33l-160 255q-12 20 -37 20q-18 0 -31 -13t-13 -31q0 -12 7 -23zM313 220l8 5q13 9 17 24.5
t-5 30.5l-72 114q-9 14 -25 17.5t-29 -4.5l-8 -5q-13 -9 -17 -25.5t5 -29.5l72 -114q9 -14 25 -17.5t29 4.5zM359 138q0 25 12.5 50t29.5 33q-16 1 -34 15q-7 -25 -29 -37l-7 -4q-18 -11 -43 -11q8 -23 -0.5 -45.5t-28.5 -35.5l-8 -5q-24 -15 -51.5 -8.5t-44.5 31.5l-20 30
q10 -85 78.5 -143t154.5 -58q99 0 168 71.5t69 169.5v62q0 36 -26 62t-62 26h-134q-10 0 -17 -7.5t-7 -19.5q0 -27 19 -47.5t48 -20.5h42q6 0 10.5 -4.5t4.5 -10.5t-4.5 -10.5t-10.5 -4.5q-34 0 -55.5 -23.5t-21.5 -54.5q0 -6 -5 -10.5t-11 -4.5t-11 4.5t-5 10.5zM235 124
l8 5q13 9 17 24.5t-5 30.5l-72 114q-9 14 -25 17.5t-29 -4.5l-8 -5q-13 -9 -17 -25.5t5 -29.5l72 -114q9 -14 25 -17.5t29 4.5z" />
    <glyph glyph-name="f_f" unicode="ff" horiz-adv-x="850" 
d="M130 409h-117v121h117q4 96 56.5 133t161.5 37h102v-110h-72q-50 0 -70 -12t-20 -44v-4h226q4 96 56.5 133t161.5 37h102v-110h-72q-50 0 -70 -12t-20 -44v-4h162v-121h-162v-409h-158v409h-226v-409h-158v409z" />
    <glyph glyph-name=".notdef" horiz-adv-x="700" 
d="M369 -80q-113 0 -190 78.5t-77 187.5v18l-19 31q-15 25 -9 53q6 29 31 44l7 4q18 13 43 11q-7 24 0.5 46t28.5 35l7 4q20 12 41 11l-76 120q-12 21 -12 39q0 30 21.5 52.5t51.5 22.5q42 0 65 -35l139 -221v224q0 31 21.5 53t52.5 22t52.5 -22t21.5 -53v-286
q30 -15 48 -43t18 -63v-62q0 -65 -30 -126t-92.5 -103t-143.5 -42zM451 645v-274h66q8 0 22 -2v276q0 18 -13 31t-31 13t-31 -13t-13 -31zM182 579l127 -203l24 -37q13 32 50 32h33l-160 255q-12 20 -37 20q-18 0 -31 -13t-13 -31q0 -12 7 -23zM313 220l8 5q13 9 17 24.5
t-5 30.5l-72 114q-9 14 -25 17.5t-29 -4.5l-8 -5q-13 -9 -17 -25.5t5 -29.5l72 -114q9 -14 25 -17.5t29 4.5zM359 138q0 25 12.5 50t29.5 33q-16 1 -34 15q-7 -25 -29 -37l-7 -4q-18 -11 -43 -11q8 -23 -0.5 -45.5t-28.5 -35.5l-8 -5q-24 -15 -51.5 -8.5t-44.5 31.5l-20 30
q10 -85 78.5 -143t154.5 -58q99 0 168 71.5t69 169.5v62q0 36 -26 62t-62 26h-134q-10 0 -17 -7.5t-7 -19.5q0 -27 19 -47.5t48 -20.5h42q6 0 10.5 -4.5t4.5 -10.5t-4.5 -10.5t-10.5 -4.5q-34 0 -55.5 -23.5t-21.5 -54.5q0 -6 -5 -10.5t-11 -4.5t-11 4.5t-5 10.5zM235 124
l8 5q13 9 17 24.5t-5 30.5l-72 114q-9 14 -25 17.5t-29 -4.5l-8 -5q-13 -9 -17 -25.5t5 -29.5l72 -114q9 -14 25 -17.5t29 4.5z" />
    <glyph glyph-name=".null" horiz-adv-x="0" 
 />
    <glyph glyph-name="nonmarkingreturn" horiz-adv-x="333" 
 />
    <glyph glyph-name="space" unicode=" " horiz-adv-x="237" 
 />
    <glyph glyph-name="exclam" unicode="!" horiz-adv-x="303" 
d="M55 403v297h193v-297l-40 -157h-113zM242 0h-181v163h181v-163z" />
    <glyph glyph-name="quotedbl" unicode="&#x22;" horiz-adv-x="451" 
d="M187 700v-296h-133v296h133zM397 700v-296h-133v296h133z" />
    <glyph glyph-name="numbersign" unicode="#" 
d="M539 0h-114l25 167h-149l-24 -167h-113l24 167h-140v112h153l20 143h-141v112h154l24 166h114l-25 -166h148l25 166h114l-26 -166h141v-112h-154l-19 -143h142v-112h-155zM488 427h-158l-22 -154h159z" />
    <glyph glyph-name="dollar" unicode="$" 
d="M456 11v-116h-100v116q-135 5 -214 43.5t-102 127.5h180q27 -54 185 -54q100 0 143 19t43 64v6q0 38 -25 51.5t-100 16.5l-178 7q-131 6 -183.5 49t-52.5 133v8q0 100 72.5 151t224.5 56v116h100v-116q268 -11 301 -171h-182q-15 29 -53 41.5t-120 12.5
q-89 0 -128.5 -17.5t-39.5 -55.5v-4q0 -38 24.5 -51t101.5 -16l177 -7q131 -6 183.5 -50t52.5 -134v-10q0 -107 -77 -159t-233 -57z" />
    <glyph glyph-name="percent" unicode="%" horiz-adv-x="962" 
d="M234 331h-13q-103 0 -149 43.5t-46 138.5v14q0 94 46 138.5t149 44.5h13q103 0 148.5 -44.5t45.5 -138.5v-14q0 -95 -45.5 -138.5t-148.5 -43.5zM730 700l-397 -700h-103l398 700h102zM227 427q49 0 68 20t19 70v7q0 49 -19 68.5t-68 19.5q-48 0 -67 -19.5t-19 -68.5v-7
q0 -50 18.5 -70t67.5 -20zM740 -10h-13q-103 0 -149 43.5t-46 138.5v15q0 94 46 138t149 44h13q103 0 149 -44t46 -138v-15q0 -95 -46 -138.5t-149 -43.5zM733 86q49 0 68 20t19 70v8q0 48 -19 67.5t-68 19.5q-48 0 -67 -19.5t-19 -67.5v-8q0 -50 18.5 -70t67.5 -20z" />
    <glyph glyph-name="ampersand" unicode="&#x26;" horiz-adv-x="927" 
d="M915 136v-136h-38q-51 0 -80.5 8.5t-68.5 31.5l-43 26q-48 -42 -115.5 -59t-176.5 -17h-62q-153 0 -231.5 51.5t-78.5 165.5v5q0 80 37.5 126t119.5 66v4q-59 43 -59 116v5q0 88 69 134.5t225 46.5h18q154 0 224.5 -46t82.5 -153h-168q-9 36 -41.5 51t-93.5 15h-14
q-64 0 -91.5 -13.5t-27.5 -42.5v-4q0 -20 14.5 -36t52.5 -40l296 -183l82 158h166l-128 -233l38 -23q39 -24 76 -24h16zM354 121h50q102 0 150 26l-271 167q-51 -8 -74 -28.5t-23 -59.5v-6q0 -52 39.5 -75.5t128.5 -23.5z" />
    <glyph glyph-name="quotesingle" unicode="'" horiz-adv-x="241" 
d="M187 700v-296h-133v296h133z" />
    <glyph glyph-name="parenleft" unicode="(" horiz-adv-x="341" 
d="M300 -2v-88q-112 14 -174 99q-61 85 -61 267v58q0 181 61 266q62 87 174 100v-88q-69 -16 -103.5 -80.5t-34.5 -200.5v-52q0 -136 34.5 -200.5t103.5 -80.5z" />
    <glyph glyph-name="parenright" unicode=")" horiz-adv-x="341" 
d="M39 612v88q112 -13 174 -100q61 -85 61 -266v-58q0 -182 -61 -267t-174 -99v88q68 16 103 80.5t35 200.5v52q0 136 -35 200.5t-103 80.5z" />
    <glyph glyph-name="asterisk" unicode="*" horiz-adv-x="432" 
d="M371 383l-83 -64l-69 106h-6l-69 -106l-82 64l79 100l-1 3l-122 35l34 101l119 -48l3 3l-8 123h100l-8 -123l4 -3l118 48l34 -101l-122 -35l-1 -3z" />
    <glyph glyph-name="plus" unicode="+" horiz-adv-x="600" 
d="M248 277h-197v105h197v206h105v-206h196v-105h-196v-207h-105v207z" />
    <glyph glyph-name="comma" unicode="," horiz-adv-x="296" 
d="M183 -115l-16 -25h-107l75 131v9h-78v163h185v-99q0 -48 -12.5 -87t-46.5 -92z" />
    <glyph glyph-name="hyphen" unicode="-" horiz-adv-x="323" 
d="M305 226h-288v133h288v-133z" />
    <glyph glyph-name="period" unicode="." horiz-adv-x="296" 
d="M239 0h-182v163h182v-163z" />
    <glyph glyph-name="slash" unicode="/" horiz-adv-x="476" 
d="M98 -100h-98l379 800h97z" />
    <glyph glyph-name="zero" unicode="0" horiz-adv-x="868" 
d="M459 -10h-51q-191 0 -276.5 75t-85.5 256v58q0 181 85.5 256t276.5 75h51q194 0 278.5 -74.5t84.5 -256.5v-58q0 -181 -85.5 -256t-277.5 -75zM434 128q131 0 175.5 41t44.5 155v52q0 114 -44.5 155t-175.5 41q-133 0 -177 -41t-44 -155v-52q0 -114 44 -155t177 -41z" />
    <glyph glyph-name="one" unicode="1" horiz-adv-x="532" 
d="M461 700v-700h-166v566h-7l-260 -140v173l214 101h219z" />
    <glyph glyph-name="two" unicode="2" 
d="M752 135v-135h-706v124q0 127 51 183.5t191 77.5l191 26q62 9 83.5 26t21.5 54v5q0 43 -38.5 61t-132.5 18q-92 0 -132.5 -15.5t-53.5 -57.5h-170q21 115 104 161.5t229 46.5h36q165 0 245 -50t80 -153v-11q0 -94 -46.5 -144.5t-165.5 -67.5l-223 -30q-62 -11 -84 -31
q-21 -19 -21 -70v-18h541z" />
    <glyph glyph-name="three" unicode="3" 
d="M429 -10h-43q-155 0 -243 50t-104 165h170q12 -46 58 -63t140 -17q102 0 144.5 20.5t42.5 66.5v6q0 39 -26 56t-88 17h-216v134h210q56 0 79.5 15.5t23.5 51.5v5q0 43 -38.5 60.5t-129.5 17.5q-82 0 -123.5 -15t-53.5 -55h-169q23 108 102.5 156.5t223.5 48.5h33
q324 0 324 -176v-7q0 -63 -28.5 -97t-88.5 -44v-8q69 -10 101 -49t32 -114v-9q0 -111 -80.5 -163.5t-252.5 -52.5z" />
    <glyph glyph-name="four" unicode="4" 
d="M678 164v-164h-167v164h-469v220l390 316h246v-406h98v-130h-98zM165 302v-8h346v282h-6z" />
    <glyph glyph-name="five" unicode="5" 
d="M437 -10h-52q-149 0 -233 48t-102 157h170q12 -40 55.5 -55t131.5 -15q100 0 142 24.5t42 79.5v10q0 58 -41 81t-148 23q-82 0 -126.5 -12.5t-62.5 -41.5h-152l38 411h620v-135h-471l-17 -150h7q25 30 77 44t149 14q156 0 225.5 -56.5t69.5 -173.5v-10q0 -243 -322 -243z
" />
    <glyph glyph-name="six" unicode="6" 
d="M435 -10h-50q-88 0 -148 15t-104.5 52t-65.5 102t-21 161v52q0 191 80 264.5t255 73.5h38q149 0 228 -47t102 -146h-171q-13 32 -52 46q-36 13 -123 13q-112 0 -152.5 -36t-40.5 -142v-17h7q38 74 230 74q166 0 235 -51.5t69 -163.5v-16q0 -234 -316 -234zM399 121
q103 0 144 23t41 77v11q0 53 -41.5 77t-143.5 24t-143.5 -24t-41.5 -77v-11q0 -53 39 -77q41 -23 146 -23z" />
    <glyph glyph-name="seven" unicode="7" 
d="M762 560l-413 -560h-212l427 558v8h-530v134h728v-140z" />
    <glyph glyph-name="eight" unicode="8" 
d="M427 -10h-58q-157 0 -241.5 50t-84.5 167v8q1 139 129 161v8q-114 22 -114 137v6q0 183 321 183h38q320 0 320 -183v-6q0 -114 -113 -137v-8q129 -22 129 -160v-9q0 -117 -84.5 -167t-241.5 -50zM336 424h123q57 0 83 17t26 54v6q0 45 -37 61t-133 16t-133 -16t-37 -61
v-6q0 -37 26 -54t82 -17zM398 121q106 0 146.5 19.5t40.5 72.5v5q0 46 -30 67t-97 21h-120q-67 0 -97 -21t-30 -67v-5q0 -53 40.5 -72.5t146.5 -19.5z" />
    <glyph glyph-name="nine" unicode="9" 
d="M362 710h50q88 0 148 -15t104.5 -52t65.5 -102t21 -161v-52q0 -98 -20.5 -164t-64.5 -104t-104 -54t-146 -16h-38q-151 0 -229.5 47t-100.5 146h171q13 -32 51 -46q36 -13 124 -13q111 0 152 36t41 142v17h-7q-21 -38 -74.5 -56t-155.5 -18q-167 0 -235.5 51.5
t-68.5 163.5v16q0 234 316 234zM398 579q-103 0 -144 -23t-41 -77v-11q0 -53 41.5 -77t143.5 -24t143.5 24t41.5 77v11q0 54 -40 76q-39 24 -145 24z" />
    <glyph glyph-name="colon" unicode=":" horiz-adv-x="296" 
d="M239 367h-182v163h182v-163zM239 0h-182v163h182v-163z" />
    <glyph glyph-name="semicolon" unicode=";" horiz-adv-x="296" 
d="M241 367h-182v163h182v-163zM183 -115l-16 -25h-107l75 131v9h-78v163h185v-99q0 -48 -12.5 -87t-46.5 -92z" />
    <glyph glyph-name="less" unicode="&#x3c;" horiz-adv-x="600" 
d="M530 209v-114l-457 182v103l457 182v-114l-312 -117v-5z" />
    <glyph glyph-name="equal" unicode="=" horiz-adv-x="600" 
d="M529 397h-458v105h458v-105zM529 156h-458v105h458v-105z" />
    <glyph glyph-name="greater" unicode="&#x3e;" horiz-adv-x="600" 
d="M73 448v114l457 -182v-103l-457 -182v114l312 117v5z" />
    <glyph glyph-name="question" unicode="?" horiz-adv-x="664" 
d="M402 241h-173v15q0 46 26.5 71.5t102.5 58.5q72 30 94 51t22 58v4q0 77 -132 77q-69 0 -105 -22.5t-44 -80.5h-164q19 237 309 237h11q141 0 215.5 -52.5t74.5 -142.5v-11q0 -80 -35.5 -123.5t-132.5 -82.5q-36 -15 -50.5 -27t-18.5 -30zM405 0h-181v161h181v-161z" />
    <glyph glyph-name="at" unicode="@" horiz-adv-x="1036" 
d="M514 -154q-478 0 -478 379v31q0 200 129 314t362 114q228 0 354 -89.5t126 -275.5v-12q0 -292 -249 -292q-80 0 -108 24q-27 23 -32 65h-6q-46 -70 -158 -70h-13q-99 0 -145.5 48.5t-33.5 167.5l1 13q13 120 67 168.5t154 48.5h14q60 0 97 -19.5t47 -51.5h5l8 63h146
l-40 -305q-6 -45 3 -60t42 -15q54 0 85.5 59t31.5 154v12q0 153 -101 222t-301 69q-196 0 -298.5 -96.5t-102.5 -256.5v-30q0 -155 99 -229t301 -74q134 0 239 26v-75q-92 -27 -245 -27zM504 139q58 0 87.5 23.5t37.5 87.5l2 19q7 63 -17 84t-83 21q-58 0 -87.5 -23
t-37.5 -87l-2 -18q-8 -63 16.5 -85t83.5 -22z" />
    <glyph glyph-name="A" unicode="A" horiz-adv-x="947" 
d="M605 700l330 -700h-195l-72 158h-393l-73 -158h-190l329 700h264zM475 574h-7l-129 -278h264z" />
    <glyph glyph-name="B" unicode="B" horiz-adv-x="861" 
d="M813 207v-19q0 -100 -60 -144t-202 -44h-486v700h470q145 0 205 -38.5t60 -131.5v-12q0 -72 -29.5 -109t-91.5 -45v-6q67 -6 100.5 -42t33.5 -109zM509 562h-271v-142h277q65 0 88 13.5t23 53.5v4q0 41 -25 56t-92 15zM507 294h-269v-156h270q76 0 103.5 15.5t27.5 60.5
v5q0 46 -26.5 60.5t-105.5 14.5z" />
    <glyph glyph-name="C" unicode="C" horiz-adv-x="892" 
d="M483 -10h-61q-202 0 -288.5 77t-86.5 256v54q0 179 86.5 256t288.5 77h61q174 0 259.5 -57t108.5 -186h-178q-17 55 -63.5 77.5t-144.5 22.5h-25q-68 0 -110.5 -11.5t-66 -38t-32 -61.5t-8.5 -91v-31q0 -110 43.5 -155.5t173.5 -45.5h25q98 0 144.5 22.5t63.5 77.5h178
q-23 -129 -108.5 -186t-259.5 -57z" />
    <glyph glyph-name="D" unicode="D" horiz-adv-x="890" 
d="M842 367v-34q0 -180 -87 -256.5t-293 -76.5h-397v700h393q207 0 295.5 -77t88.5 -256zM438 560h-200v-420h200q70 0 115 12t70 38.5t34 62.5t9 91v11q0 55 -9 91t-34 63t-70 39t-115 12z" />
    <glyph glyph-name="E" unicode="E" horiz-adv-x="771" 
d="M718 138v-138h-653v700h653v-138h-480v-143h480v-137h-480v-144h480z" />
    <glyph glyph-name="F" unicode="F" horiz-adv-x="762" 
d="M238 280v-280h-173v700h653v-138h-480v-144h480v-138h-480z" />
    <glyph glyph-name="G" unicode="G" horiz-adv-x="919" 
d="M489 -10h-55q-207 0 -297 76t-90 255v58q0 177 90 254t297 77h55q169 0 259 -51t118 -163h-188q-19 39 -65 55t-138 16h-29q-91 0 -140.5 -22.5t-66 -63t-16.5 -113.5v-37q0 -54 9 -88.5t33 -61t68 -38t113 -11.5h32q120 0 168 31.5t51 110.5h-263v137h438v-100
q0 -172 -92 -247q-92 -74 -291 -74z" />
    <glyph glyph-name="H" unicode="H" horiz-adv-x="909" 
d="M844 700v-700h-174v279h-432v-279h-173v700h173v-278h432v278h174z" />
    <glyph glyph-name="I" unicode="I" horiz-adv-x="303" 
d="M238 700v-700h-173v700h173z" />
    <glyph glyph-name="J" unicode="J" horiz-adv-x="521" 
d="M152 0h-142v143h86q121 0 160 30t39 118v409h175v-401q0 -114 -27 -176.5t-95.5 -92.5t-195.5 -30z" />
    <glyph glyph-name="K" unicode="K" horiz-adv-x="897" 
d="M238 214v-214h-173v700h173v-302h6l394 302h242l-374 -283l384 -417h-234l-287 310h-6z" />
    <glyph glyph-name="L" unicode="L" horiz-adv-x="703" 
d="M678 147v-147h-613v700h173v-553h440z" />
    <glyph glyph-name="M" unicode="M" horiz-adv-x="1164" 
d="M1099 700v-700h-172v555h-7l-257 -555h-165l-254 555h-7v-555h-172v700h302l219 -480h7l221 480h285z" />
    <glyph glyph-name="N" unicode="N" horiz-adv-x="952" 
d="M887 700v-700h-264l-381 530h-7v-530h-170v700h264l381 -531h7v531h170z" />
    <glyph glyph-name="O" unicode="O" horiz-adv-x="924" 
d="M489 -10h-55q-207 0 -297 77t-90 256v54q0 179 90 256t297 77h55q207 0 297 -77t90 -256v-54q0 -179 -90 -256t-297 -77zM447 133h30q92 1 141 24t65.5 63.5t16.5 113.5v31q0 56 -9 91t-33 61.5t-68 38t-113 11.5h-30q-135 0 -179.5 -45.5t-44.5 -156.5v-31
q0 -55 8.5 -90t32.5 -61.5t68.5 -38t114.5 -11.5z" />
    <glyph glyph-name="P" unicode="P" horiz-adv-x="834" 
d="M238 217v-217h-173v700h471q148 0 212 -52t64 -181v-22q0 -119 -65 -173.5t-211 -54.5h-298zM507 563h-269v-209h270q78 0 104 22t26 78v9q0 57 -27 78.5t-104 21.5z" />
    <glyph glyph-name="Q" unicode="Q" horiz-adv-x="924" 
d="M899 147v-147h-470q-206 0 -294 75.5t-88 254.5v47q0 179 88 256t294 77h65q203 0 292.5 -77t89.5 -241v-30q0 -169 -115 -208v-7h138zM447 143h32q69 1 113 12.5t67.5 38t32 61t8.5 89.5v21q0 56 -9 91t-33 61.5t-68 38t-113 11.5h-30q-135 0 -179.5 -45.5t-44.5 -156.5
v-21q0 -55 8.5 -90t32.5 -61.5t68.5 -38t114.5 -11.5z" />
    <glyph glyph-name="R" unicode="R" horiz-adv-x="865" 
d="M238 247v-247h-173v700h480q146 0 206.5 -41.5t60.5 -139.5v-26q0 -78 -31 -115.5t-100 -45.5v-6q72 -10 101.5 -41.5t29.5 -119.5v-165h-174v151q0 58 -27.5 77t-116.5 19h-256zM495 562h-257v-178h283q66 0 91.5 18.5t25.5 66.5v5q0 53 -29 70.5t-114 17.5z" />
    <glyph glyph-name="S" unicode="S" horiz-adv-x="838" 
d="M439 -10h-29q-77 0 -137.5 9.5t-111.5 32t-83 63t-41 98.5h184q16 -43 65 -56.5t146 -13.5q103 0 149 18t46 64v8q0 35 -23.5 51t-86.5 19l-206 7q-134 4 -194 49.5t-60 140.5v7q0 118 84 170.5t263 52.5h24q328 0 363 -210h-184q-14 44 -61 60.5t-136 16.5
q-99 0 -137.5 -18t-38.5 -60v-3q0 -35 23 -51t87 -18l206 -8q135 -5 194 -49.5t59 -138.5v-9q0 -127 -90.5 -179.5t-273.5 -52.5z" />
    <glyph glyph-name="T" unicode="T" horiz-adv-x="755" 
d="M464 553v-553h-174v553h-272v147h719v-147h-273z" />
    <glyph glyph-name="U" unicode="U" horiz-adv-x="850" 
d="M456 -10h-62q-194 0 -269 67.5t-75 236.5v406h177v-397q0 -97 38 -133t145 -36h30q106 0 144 36t38 133v397h177v-406q0 -169 -75.5 -236.5t-267.5 -67.5z" />
    <glyph glyph-name="V" unicode="V" horiz-adv-x="908" 
d="M896 700l-329 -700h-226l-329 700h201l243 -531h7l245 531h188z" />
    <glyph glyph-name="W" unicode="W" horiz-adv-x="1256" 
d="M1241 700l-208 -700h-229l-172 490l-174 -490h-235l-209 700h189l147 -528h7l181 528h195l182 -528h6l145 528h175z" />
    <glyph glyph-name="X" unicode="X" horiz-adv-x="913" 
d="M577 358l323 -358h-226l-219 253h-6l-223 -253h-213l323 361l-306 339h225l204 -233h6l207 233h215z" />
    <glyph glyph-name="Y" unicode="Y" horiz-adv-x="855" 
d="M514 302v-302h-174v302l-328 398h209l213 -265h6l213 265h190z" />
    <glyph glyph-name="Z" unicode="Z" horiz-adv-x="814" 
d="M771 141v-141h-726v132l469 427h-443v141h683v-132l-469 -427h486z" />
    <glyph glyph-name="bracketleft" unicode="[" horiz-adv-x="354" 
d="M313 -5v-85h-229v790h229v-85h-134v-620h134z" />
    <glyph glyph-name="backslash" unicode="\" horiz-adv-x="476" 
d="M97 700l379 -800h-98l-378 800h97z" />
    <glyph glyph-name="bracketright" unicode="]" horiz-adv-x="354" 
d="M41 615v85h229v-790h-229v85h134v620h-134z" />
    <glyph glyph-name="asciicircum" unicode="^" horiz-adv-x="600" 
d="M340 700l211 -506h-117l-132 327h-4l-132 -327h-117l211 506h80z" />
    <glyph glyph-name="underscore" unicode="_" horiz-adv-x="646" 
d="M646 -136h-646v87h646v-87z" />
    <glyph glyph-name="grave" unicode="`" horiz-adv-x="500" 
d="M301 700l89 -120h-157l-124 120h192z" />
    <glyph glyph-name="a" unicode="a" horiz-adv-x="654" 
d="M615 324v-324h-156v80h-5q-40 -90 -207 -90q-221 0 -221 166v6q1 76 45.5 114t138.5 43l247 10v10q0 55 -29 73.5t-98 18.5q-57 0 -84.5 -13t-39.5 -44h-160q22 87 87 126.5t198 39.5h15q146 0 207.5 -47t61.5 -169zM186 166v-5q0 -69 113 -69q77 0 117.5 30t40.5 85v26
l-188 -7q-45 -2 -64 -16t-19 -44z" />
    <glyph glyph-name="b" unicode="b" horiz-adv-x="705" 
d="M202 0h-158v700h158v-251h5q40 91 190 91h12q128 0 195.5 -59t67.5 -201v-30q0 -142 -67.5 -201t-195.5 -59h-12q-150 0 -190 91h-5v-81zM358 118q86 0 121 27.5t35 111.5v17q0 83 -35 110.5t-121 27.5t-121 -27.5t-35 -110.5v-17q0 -84 35 -111.5t121 -27.5z" />
    <glyph glyph-name="c" unicode="c" horiz-adv-x="654" 
d="M348 -10h-25q-144 0 -217 60t-73 200v30q0 140 73 200t217 60h25q252 0 283 -188h-159q-16 33 -45.5 46.5t-87.5 13.5q-79 0 -113.5 -28t-34.5 -108v-22q0 -80 34.5 -108t113.5 -28q58 0 87.5 13.5t45.5 46.5h159q-31 -188 -283 -188z" />
    <glyph glyph-name="d" unicode="d" horiz-adv-x="705" 
d="M661 700v-700h-158v81h-5q-40 -91 -190 -91h-12q-129 0 -196 59t-67 201v30q0 142 67 201t196 59h12q150 0 190 -91h5v251h158zM347 118q86 0 121 27.5t35 111.5v17q0 83 -35 110.5t-121 27.5t-121 -27.5t-35 -110.5v-17q0 -84 35 -111.5t121 -27.5z" />
    <glyph glyph-name="e" unicode="e" horiz-adv-x="667" 
d="M470 159h159q-22 -85 -88 -127t-199 -42h-16q-146 0 -219.5 60t-73.5 203v24q0 143 73.5 203t219.5 60h15q146 0 219 -59t73 -201v-47h-442q3 -75 36 -99.5t108 -24.5q60 0 90.5 11t44.5 39zM333 432q-69 0 -102 -21.5t-39 -84.5h283v4q0 57 -36 79.5t-106 22.5z" />
    <glyph glyph-name="f" unicode="f" horiz-adv-x="466" 
d="M130 409h-117v121h117q4 96 56.5 133t161.5 37h102v-110h-72q-50 0 -70 -12t-20 -44v-4h162v-121h-162v-409h-158v409z" />
    <glyph glyph-name="g" unicode="g" horiz-adv-x="694" 
d="M361 -170h-27q-125 0 -198 33t-94 113h164q12 -21 44.5 -29t94.5 -8q81 0 114.5 23.5t33.5 89.5v60h-5q-40 -84 -186 -84h-8q-124 0 -190 57t-66 189v20q0 133 65 189.5t189 56.5h8q148 0 188 -84h5v74h158v-475q0 -124 -70.5 -174.5t-219.5 -50.5zM346 152
q82 0 114.5 24t32.5 102v11q0 78 -32.5 102t-114.5 24t-116 -24t-34 -102v-11q0 -76 34.5 -101t115.5 -25z" />
    <glyph glyph-name="h" unicode="h" horiz-adv-x="651" 
d="M612 334v-334h-158v301q0 66 -29 88t-90 22q-69 0 -101.5 -29t-32.5 -102v-280h-158v700h158v-259h6q39 99 183 99q107 0 164.5 -45.5t57.5 -160.5z" />
    <glyph glyph-name="i" unicode="i" horiz-adv-x="245" 
d="M43 700h158v-109h-158v109zM43 530h158v-530h-158v530z" />
    <glyph glyph-name="j" unicode="j" horiz-adv-x="245" 
d="M43 700h158v-109h-158v109zM43 530h158v-409q0 -115 -13.5 -168.5t-61.5 -122.5h-161q48 69 63 119.5t15 136.5v444z" />
    <glyph glyph-name="k" unicode="k" horiz-adv-x="668" 
d="M201 137v-137h-158v700h158v-392h5l241 222h199l-246 -217l264 -313h-202l-173 211h-5z" />
    <glyph glyph-name="l" unicode="l" horiz-adv-x="245" 
d="M201 700v-700h-158v700h158z" />
    <glyph glyph-name="m" unicode="m" horiz-adv-x="1024" 
d="M986 340v-340h-159v301q0 66 -26 88t-83 22q-65 0 -95 -29t-30 -102v-280h-158v301q0 66 -26 88t-83 22q-65 0 -95 -29t-30 -102v-280h-158v530h158v-88h6q39 98 175 98q153 0 194 -98h6q41 98 189 98q105 0 160 -44t55 -156z" />
    <glyph glyph-name="n" unicode="n" horiz-adv-x="651" 
d="M612 334v-334h-158v301q0 66 -29 88t-90 22q-69 0 -101.5 -29t-32.5 -102v-280h-158v530h158v-89h6q39 99 183 99q107 0 164.5 -45.5t57.5 -160.5z" />
    <glyph glyph-name="o" unicode="o" horiz-adv-x="695" 
d="M366 -10h-38q-150 0 -222.5 62t-72.5 201v24q0 139 72 201t224 62h37q150 0 222.5 -62t72.5 -201v-24q0 -139 -72.5 -201t-222.5 -62zM348 118q84 0 119.5 27.5t35.5 111.5v16q0 84 -35.5 111.5t-119.5 27.5q-85 0 -121 -27.5t-36 -111.5v-16q0 -84 36 -111.5t121 -27.5z
" />
    <glyph glyph-name="p" unicode="p" horiz-adv-x="705" 
d="M44 -170v700h158v-81h5q40 91 190 91h12q128 0 195.5 -59t67.5 -201v-30q0 -142 -67.5 -201t-195.5 -59h-12q-150 0 -190 91h-5v-251h-158zM358 412q-86 0 -121 -27.5t-35 -111.5v-17q0 -83 35 -110.5t121 -27.5t121 27.5t35 110.5v17q0 84 -35 111.5t-121 27.5z" />
    <glyph glyph-name="q" unicode="q" horiz-adv-x="705" 
d="M503 530h158v-700h-158v251h-5q-40 -91 -190 -91h-12q-129 0 -196 59t-67 201v30q0 142 67 201t196 59h12q150 0 190 -91h5v81zM347 412q-86 0 -121 -27.5t-35 -111.5v-17q0 -83 35 -110.5t121 -27.5t121 27.5t35 110.5v17q0 84 -35 111.5t-121 27.5z" />
    <glyph glyph-name="r" unicode="r" horiz-adv-x="431" 
d="M392 530h29v-134h-63q-84 0 -120.5 -28t-36.5 -102v-266h-158v530h158v-88h5q18 47 62.5 67.5t123.5 20.5z" />
    <glyph glyph-name="s" unicode="s" horiz-adv-x="659" 
d="M340 -10h-15q-137 0 -205.5 35t-88.5 119h165q24 -46 141 -46q75 0 103.5 12.5t28.5 44.5v5q0 25 -20 36t-76 13l-137 5q-107 3 -149 40t-42 110v9q0 89 69.5 128t210.5 39h10q128 0 194.5 -35t90.5 -119h-166q-14 26 -43 36t-84 10q-66 0 -94 -12t-28 -40v-4
q0 -26 20.5 -37t75.5 -12l137 -5q108 -4 149.5 -40.5t41.5 -110.5v-8q0 -94 -70.5 -133.5t-218.5 -39.5z" />
    <glyph glyph-name="t" unicode="t" horiz-adv-x="451" 
d="M122 409h-108v121h108v170h158v-170h145v-121h-145v-193q0 -61 22 -79t86 -18h37v-119h-90q-120 0 -166.5 41.5t-46.5 141.5v226z" />
    <glyph glyph-name="u" unicode="u" horiz-adv-x="651" 
d="M39 196v334h158v-301q0 -66 29 -88t90 -22q69 0 101.5 29t32.5 102v280h158v-530h-158v89h-6q-42 -99 -183 -99q-107 0 -164.5 45.5t-57.5 160.5z" />
    <glyph glyph-name="v" unicode="v" horiz-adv-x="642" 
d="M644 530l-220 -530h-207l-219 530h176l150 -385h7l150 385h163z" />
    <glyph glyph-name="w" unicode="w" horiz-adv-x="995" 
d="M988 530l-159 -530h-200l-126 354l-126 -354h-210l-161 530h175l105 -373h6l131 373h167l130 -373h6l106 373h156z" />
    <glyph glyph-name="x" unicode="x" horiz-adv-x="728" 
d="M474 272l243 -272h-205l-148 182h-5l-155 -182h-193l243 270l-226 260h205l135 -165h5l139 165h190z" />
    <glyph glyph-name="y" unicode="y" horiz-adv-x="622" 
d="M626 530l-315 -700h-166l86 171l-234 529h170l147 -353h7l143 353h162z" />
    <glyph glyph-name="z" unicode="z" horiz-adv-x="608" 
d="M579 121v-121h-548v117l325 292h-308v121h514v-117l-325 -292h342z" />
    <glyph glyph-name="braceleft" unicode="{" horiz-adv-x="348" 
d="M312 -5v-85h-44q-94 0 -128 41.5t-34 148.5v43q0 64 -15 82.5t-75 24.5v110q60 6 75 24.5t15 82.5v43q0 107 34 148.5t128 41.5h44v-85h-24q-51 0 -69 -26t-18 -111v-41q0 -69 -19 -94t-87 -35v-6q68 -10 87 -35t19 -94v-41q0 -85 18 -111t69 -26h24z" />
    <glyph glyph-name="bar" unicode="|" horiz-adv-x="285" 
d="M185 -100h-85v800h85v-800z" />
    <glyph glyph-name="braceright" unicode="}" horiz-adv-x="348" 
d="M76 -90h-44v85h24q51 0 69 26t18 111v41q0 69 19 94t87 35v6q-68 10 -87 35t-19 94v41q0 85 -18 111t-69 26h-24v85h44q94 0 128 -41.5t34 -148.5v-43q0 -64 15 -82.5t75 -24.5v-110q-60 -6 -75 -24.5t-15 -82.5v-43q0 -107 -34 -148.5t-128 -41.5z" />
    <glyph glyph-name="asciitilde" unicode="~" horiz-adv-x="600" 
d="M415 244q-47 0 -122 33t-111 33q-65 0 -111 -61v111q42 55 114 55q47 0 121.5 -33t111.5 -33q68 0 111 61v-112q-41 -54 -114 -54z" />
    <glyph glyph-name="exclamdown" unicode="&#xa1;" horiz-adv-x="303" 
d="M61 530h181v-163h-181v163zM248 127v-297h-193v297l40 157h113z" />
    <glyph glyph-name="cent" unicode="&#xa2;" horiz-adv-x="687" 
d="M398 -9v-96h-100v96q-127 8 -190 67.5t-63 191.5v30q0 132 63 191.5t190 67.5v96h100v-96q220 -11 250 -187h-159q-16 34 -46.5 47t-91.5 13q-79 0 -113.5 -28t-34.5 -108v-22q0 -80 34.5 -108t113.5 -28q61 0 91.5 13t46.5 47h159q-30 -176 -250 -187z" />
    <glyph glyph-name="sterling" unicode="&#xa3;" 
d="M666 392v-84h-362v-174h452v-134h-727v134h111v174h-111v84h111v21q0 157 74.5 227t227.5 70h22q265 0 302 -192h-170q-14 30 -44.5 43.5t-95.5 13.5q-82 0 -117 -32.5t-35 -112.5v-38h362z" />
    <glyph glyph-name="currency" unicode="&#xa4;" horiz-adv-x="600" 
d="M300 164q-47 0 -78 12l-96 -97l-75 75l90 90q-15 35 -15 85q0 49 15 84l-90 91l75 75l96 -97q31 12 78 12q48 0 76 -12l98 97l75 -75l-91 -91q16 -37 16 -84q0 -48 -16 -85l91 -90l-75 -75l-98 97q-28 -12 -76 -12zM300 246q45 0 63.5 18t18.5 65q0 46 -18.5 64t-63.5 18
t-64 -18t-19 -64t19 -64.5t64 -18.5z" />
    <glyph glyph-name="yen" unicode="&#xa5;" 
d="M482 241v-241h-166v241h-242v81h242v35l-19 21h-223v81h152l-213 241h210l183 -224h6l183 224h188l-212 -241h154v-81h-225l-18 -20v-36h243v-81h-243z" />
    <glyph glyph-name="brokenbar" unicode="&#xa6;" horiz-adv-x="285" 
d="M185 410h-85v290h85v-290zM185 -100h-85v290h85v-290z" />
    <glyph glyph-name="section" unicode="&#xa7;" horiz-adv-x="725" 
d="M386 -170h-13q-66 0 -117 8t-96 27.5t-70 57.5t-27 94h138q5 -52 48 -70.5t129 -18.5q92 0 126.5 17t34.5 55v6q0 31 -22.5 44.5t-84.5 16.5l-124 6q-108 5 -164 24t-75 50.5t-19 90.5v7q0 59 26 90t84 41v6q-99 23 -99 136v10q0 96 71 139t225 43h14q141 0 223.5 -42
t86.5 -145h-138q-5 51 -48 70t-130 19q-91 0 -125.5 -17t-34.5 -55v-6q0 -31 22.5 -44.5t84.5 -16.5l124 -6q108 -5 164 -24t75 -50.5t19 -90.5v-7q0 -59 -26.5 -90t-83.5 -41v-6q99 -23 99 -136v-10q0 -96 -71 -139t-226 -43zM372 191q108 0 141.5 13.5t33.5 60.5v10
q0 48 -33 61t-142 13q-108 0 -141 -13t-33 -61v-10q0 -48 33 -61t141 -13z" />
    <glyph glyph-name="dieresis" unicode="&#xa8;" horiz-adv-x="500" 
d="M77 691h131v-109h-131v109zM292 691h131v-109h-131v109z" />
    <glyph glyph-name="copyright" unicode="&#xa9;" horiz-adv-x="868" 
d="M483 -10h-98q-185 0 -270.5 79t-85.5 232v98q0 153 85.5 232t270.5 79h98q185 0 270.5 -79t85.5 -232v-98q0 -153 -85.5 -232t-270.5 -79zM400 25h68q99 0 165 19.5t102 60t50.5 93t14.5 128.5v48q0 76 -14.5 128.5t-50.5 93t-102 60t-165 19.5h-68q-98 0 -164 -19.5
t-102 -60t-50.5 -93t-14.5 -128.5v-48q0 -76 14.5 -128.5t50.5 -93t102 -60t164 -19.5zM461 134h-37q-125 0 -179 46.5t-54 157.5v24q0 111 54 157.5t179 46.5h37q110 0 162 -33.5t65 -108.5l2 -11h-133l-4 7q-8 25 -31 35.5t-75 10.5h-9q-70 0 -91.5 -23.5t-21.5 -83.5v-18
q0 -60 21.5 -83.5t91.5 -23.5h9q52 0 75 10.5t31 35.5l4 7h133l-2 -12q-13 -74 -65 -107.5t-162 -33.5z" />
    <glyph glyph-name="ordfeminine" unicode="&#xaa;" horiz-adv-x="538" 
d="M504 537v-257h-140v63h-4q-30 -71 -159 -71q-175 0 -175 132v5q0 61 36.5 91t114.5 33l186 8v8q0 40 -20 53t-70 13q-41 0 -60.5 -9t-27.5 -32h-144q20 73 74.5 103.5t158.5 30.5h10q120 0 170 -37.5t50 -133.5zM169 414v-5q0 -48 79 -48q56 0 85.5 22t29.5 62v18
l-135 -6q-32 -1 -45.5 -11t-13.5 -32z" />
    <glyph glyph-name="guillemotleft" unicode="&#xab;" horiz-adv-x="448" 
d="M36 289v6l84 219h108l-88 -222l88 -222h-108zM218 289v6l84 219h108l-88 -222l88 -222h-108z" />
    <glyph glyph-name="logicalnot" unicode="&#xac;" horiz-adv-x="600" 
d="M547 382v-310h-105v205h-392v105h497z" />
    <glyph glyph-name="registered" unicode="&#xae;" horiz-adv-x="868" 
d="M483 -10h-98q-185 0 -270.5 79t-85.5 232v98q0 153 85.5 232t270.5 79h98q185 0 270.5 -79t85.5 -232v-98q0 -153 -85.5 -232t-270.5 -79zM400 25h68q99 0 165 19.5t102 60t50.5 93t14.5 128.5v48q0 76 -14.5 128.5t-50.5 93t-102 60t-165 19.5h-68q-98 0 -164 -19.5
t-102 -60t-50.5 -93t-14.5 -128.5v-48q0 -76 14.5 -128.5t50.5 -93t102 -60t164 -19.5zM350 280v-140h-131v420h289q92 0 131 -26t39 -84v-13q0 -49 -20.5 -72.5t-68.5 -27.5v-4q51 -5 70 -24.5t19 -75.5v-93h-131v89q0 31 -13.5 41t-62.5 10h-121zM469 467h-119v-95h142
q32 0 43.5 9.5t11.5 34.5v4q0 27 -15.5 37t-62.5 10z" />
    <glyph glyph-name="overscore" unicode="&#xaf;" horiz-adv-x="500" 
d="M441 673v-73h-383v73h383z" />
    <glyph glyph-name="degree" unicode="&#xb0;" horiz-adv-x="401" 
d="M201 406q-63 0 -108 43.5t-45 108.5t45 108.5t108 43.5t107.5 -43.5t44.5 -108.5t-44.5 -108.5t-107.5 -43.5zM201 478q33 0 55.5 23t22.5 57t-22.5 57t-55.5 23q-34 0 -56.5 -23t-22.5 -57t22.5 -57t56.5 -23z" />
    <glyph glyph-name="plusminus" unicode="&#xb1;" horiz-adv-x="600" 
d="M248 397h-157v105h157v127h105v-127h156v-105h-156v-127h-105v127zM509 83h-418v105h418v-105z" />
    <glyph glyph-name="twosuperior" unicode="&#xb2;" horiz-adv-x="480" 
d="M461 481v-101h-441v77q0 79 33.5 114t122.5 49l95 15q27 5 36 12.5t9 23.5v1q0 19 -14.5 26.5t-53.5 7.5q-38 0 -54.5 -7t-23.5 -27h-146q12 75 65.5 104.5t149.5 29.5h9q111 0 162 -31.5t51 -95.5v-5q0 -58 -30 -87t-108 -43l-124 -19q-23 -5 -30 -12.5t-7 -24.5v-7h299
z" />
    <glyph glyph-name="threesuperior" unicode="&#xb3;" horiz-adv-x="480" 
d="M257 374h-20q-98 0 -154 30.5t-67 106.5h145q5 -22 24.5 -29.5t57.5 -7.5q43 0 59 8t16 28v4q0 31 -49 31h-94v96h85q26 0 36 7t10 22v3q0 18 -14.5 25.5t-47.5 7.5q-59 0 -69 -31h-147q14 69 61.5 100t142.5 31h15q206 0 206 -105v-4q0 -38 -18 -57.5t-59 -25.5v-5
q47 -5 68.5 -28.5t21.5 -70.5v-3q0 -69 -50 -101t-159 -32z" />
    <glyph glyph-name="acute" unicode="&#xb4;" horiz-adv-x="500" 
d="M389 700l-124 -120h-156l89 120h191z" />
    <glyph glyph-name="mu" unicode="&#xb5;" horiz-adv-x="655" 
d="M612 530v-530h-156v84h-5q-37 -93 -169 -93q-85 0 -106 34h-4l15 -181v-14h-144v700h158v-300q0 -67 29.5 -89t96.5 -22q66 0 96.5 21.5t30.5 89.5v300h158z" />
    <glyph glyph-name="paragraph" unicode="&#xb6;" horiz-adv-x="614" 
d="M545 700v-800h-91v705h-105v-705h-91v485h-38q-103 0 -149 34t-46 119v8q0 90 44 122t151 32h325z" />
    <glyph glyph-name="middot" unicode="&#xb7;" horiz-adv-x="358" 
d="M267 210h-182v163h182v-163z" />
    <glyph glyph-name="cedilla" unicode="&#xb8;" horiz-adv-x="500" 
d="M152 -140l60 140h142l-44 -140h-158z" />
    <glyph glyph-name="onesuperior" unicode="&#xb9;" horiz-adv-x="350" 
d="M306 800v-420h-141v312h-5l-140 -77v135l108 50h178z" />
    <glyph glyph-name="ordmasculine" unicode="&#xba;" horiz-adv-x="560" 
d="M296 272h-28q-120 0 -179.5 47.5t-59.5 161.5v18q0 114 59.5 161.5t179.5 47.5h28q119 0 177 -47.5t58 -161.5v-18q0 -114 -58 -161.5t-177 -47.5zM280 382q61 0 85 20t24 82v13q0 64 -26 82q-25 19 -83 19q-61 0 -85.5 -20t-24.5 -81v-13q0 -62 24.5 -82t85.5 -20z" />
    <glyph glyph-name="guillemotright" unicode="&#xbb;" horiz-adv-x="448" 
d="M230 295v-6l-84 -219h-108l88 222l-88 222h108zM412 295v-6l-84 -219h-108l88 222l-88 222h108z" />
    <glyph glyph-name="onequarter" unicode="&#xbc;" horiz-adv-x="1043" 
d="M306 700v-420h-141v312h-5l-140 -77v135l108 50h178zM732 700l-397 -700h-103l398 700h102zM960 88v-88h-144v88h-263v154l196 178h211v-231h49v-101h-49zM665 194v-5h151v136h-5z" />
    <glyph glyph-name="onehalf" unicode="&#xbd;" horiz-adv-x="1094" 
d="M306 700v-420h-141v312h-5l-140 -77v135l108 50h178zM732 700l-397 -700h-103l398 700h102zM1049 101v-101h-441v77q0 79 33.5 114t122.5 49l95 15q27 5 36 12.5t9 23.5v1q0 19 -14.5 26.5t-53.5 7.5q-38 0 -54.5 -7t-23.5 -27h-146q12 75 65.5 104.5t149.5 29.5h9
q111 0 162 -31.5t51 -95.5v-5q0 -58 -30 -87t-108 -43l-124 -19q-23 -5 -30 -12.5t-7 -24.5v-7h299z" />
    <glyph glyph-name="threequarters" unicode="&#xbe;" horiz-adv-x="1174" 
d="M257 274h-20q-98 0 -154 30.5t-67 106.5h145q5 -22 24.5 -29.5t57.5 -7.5q43 0 59 8t16 28v4q0 31 -49 31h-94v96h85q26 0 36 7t10 22v3q0 18 -14.5 25.5t-47.5 7.5q-59 0 -69 -31h-147q14 69 61.5 100t142.5 31h15q206 0 206 -105v-4q0 -38 -18 -57.5t-59 -25.5v-5
q47 -5 68.5 -28.5t21.5 -70.5v-3q0 -69 -50 -101t-159 -32zM864 700l-397 -700h-103l398 700h102zM1092 88v-88h-144v88h-263v154l196 178h211v-231h49v-101h-49zM797 194v-5h151v136h-5z" />
    <glyph glyph-name="questiondown" unicode="&#xbf;" horiz-adv-x="664" 
d="M259 530h181v-161h-181v161zM262 289h173v-15q0 -46 -26.5 -71.5t-102.5 -58.5q-72 -30 -94 -51t-22 -58v-4q0 -77 132 -77q69 0 105 22.5t44 80.5h164q-19 -237 -309 -237h-11q-141 0 -215.5 52.5t-74.5 142.5v11q0 80 35.5 123.5t132.5 82.5q36 15 50.5 27t18.5 30z
" />
    <glyph glyph-name="Agrave" unicode="&#xc0;" horiz-adv-x="947" 
d="M464 860l89 -120h-157l-124 120h192zM605 700l330 -700h-195l-72 158h-393l-73 -158h-190l329 700h264zM475 574h-7l-129 -278h264z" />
    <glyph glyph-name="Aacute" unicode="&#xc1;" horiz-adv-x="947" 
d="M676 860l-124 -120h-156l89 120h191zM605 700l330 -700h-195l-72 158h-393l-73 -158h-190l329 700h264zM475 574h-7l-129 -278h264z" />
    <glyph glyph-name="Acircumflex" unicode="&#xc2;" horiz-adv-x="947" 
d="M585 860l118 -120h-142l-87 73l-87 -73h-142l118 120h222zM605 700l330 -700h-195l-72 158h-393l-73 -158h-190l329 700h264zM475 574h-7l-129 -278h264z" />
    <glyph glyph-name="Atilde" unicode="&#xc3;" horiz-adv-x="947" 
d="M554 739q-36 0 -87 18.5t-65 18.5q-15 0 -22.5 -5.5t-12.5 -23.5h-99q8 63 36.5 88.5t84.5 25.5q35 0 87 -18.5t65 -18.5q15 0 23 6t12 24h104q-8 -63 -39 -89t-87 -26zM605 700l330 -700h-195l-72 158h-393l-73 -158h-190l329 700h264zM475 574h-7l-129 -278h264z" />
    <glyph glyph-name="Adieresis" unicode="&#xc4;" horiz-adv-x="947" 
d="M301 858h131v-109h-131v109zM516 858h131v-109h-131v109zM605 700l330 -700h-195l-72 158h-393l-73 -158h-190l329 700h264zM475 574h-7l-129 -278h264z" />
    <glyph glyph-name="Aring" unicode="&#xc5;" horiz-adv-x="947" 
d="M474 722q-83 0 -123 25.5t-40 82.5t40 82.5t123 25.5q82 0 122 -25.5t40 -82.5t-40 -82.5t-122 -25.5zM474 787q62 0 62 43t-62 43t-62 -43t62 -43zM605 700l330 -700h-195l-72 158h-393l-73 -158h-190l329 700h264zM475 574h-7l-129 -278h264z" />
    <glyph glyph-name="AE" unicode="&#xc6;" horiz-adv-x="1277" 
d="M1224 138v-138h-653v159h-269l-100 -159h-199l448 700h773v-138h-480v-143h480v-137h-480v-144h480zM571 571h-11l-172 -274h183v274z" />
    <glyph glyph-name="Ccedilla" unicode="&#xc7;" horiz-adv-x="892" 
d="M673 233h178q-23 -121 -99 -180q-77 -57 -232 -62l-41 -131h-158l56 131q-178 7 -254 84.5t-76 247.5v54q0 179 86.5 256t288.5 77h61q174 0 259.5 -57t108.5 -186h-178q-17 55 -63.5 77.5t-144.5 22.5h-25q-68 0 -110.5 -11.5t-66 -38t-32 -61.5t-8.5 -91v-31
q0 -110 43.5 -155.5t173.5 -45.5h25q98 0 144.5 22.5t63.5 77.5z" />
    <glyph glyph-name="Egrave" unicode="&#xc8;" horiz-adv-x="771" 
d="M381 860l89 -120h-157l-124 120h192zM718 138v-138h-653v700h653v-138h-480v-143h480v-137h-480v-144h480z" />
    <glyph glyph-name="Eacute" unicode="&#xc9;" horiz-adv-x="771" 
d="M593 860l-124 -120h-156l89 120h191zM718 138v-138h-653v700h653v-138h-480v-143h480v-137h-480v-144h480z" />
    <glyph glyph-name="Ecircumflex" unicode="&#xca;" horiz-adv-x="771" 
d="M502 860l118 -120h-142l-87 73l-87 -73h-142l118 120h222zM718 138v-138h-653v700h653v-138h-480v-143h480v-137h-480v-144h480z" />
    <glyph glyph-name="Edieresis" unicode="&#xcb;" horiz-adv-x="771" 
d="M218 858h131v-109h-131v109zM433 858h131v-109h-131v109zM718 138v-138h-653v700h653v-138h-480v-143h480v-137h-480v-144h480z" />
    <glyph glyph-name="Igrave" unicode="&#xcc;" horiz-adv-x="303" 
d="M141 860l89 -120h-157l-124 120h192zM238 700v-700h-173v700h173z" />
    <glyph glyph-name="Iacute" unicode="&#xcd;" horiz-adv-x="303" 
d="M354 860l-124 -120h-156l89 120h191zM238 700v-700h-173v700h173z" />
    <glyph glyph-name="Icircumflex" unicode="&#xce;" horiz-adv-x="303" 
d="M263 860l118 -120h-142l-87 73l-87 -73h-142l118 120h222zM238 700v-700h-173v700h173z" />
    <glyph glyph-name="Idieresis" unicode="&#xcf;" horiz-adv-x="303" 
d="M-21 858h131v-109h-131v109zM194 858h131v-109h-131v109zM238 700v-700h-173v700h173z" />
    <glyph glyph-name="Eth" unicode="&#xd0;" horiz-adv-x="890" 
d="M65 292h-65v116h65v292h393q207 0 295.5 -77t88.5 -256v-34q0 -180 -87 -256.5t-293 -76.5h-397v292zM440 408v-116h-202v-152h200q70 0 115 12t70 38.5t34 62.5t9 91v11q0 55 -9 91t-34 63t-70 39t-115 12h-200v-152h202z" />
    <glyph glyph-name="Ntilde" unicode="&#xd1;" horiz-adv-x="945" 
d="M561 739q-35 0 -87 18.5t-65 18.5q-16 0 -23.5 -5.5t-11.5 -23.5h-99q8 63 36.5 88.5t84.5 25.5q35 0 87 -18.5t65 -18.5q15 0 22.5 6t12.5 24h104q-8 -63 -39 -89t-87 -26zM883 700v-700h-264l-381 530h-7v-530h-170v700h264l381 -531h7v531h170z" />
    <glyph glyph-name="Ograve" unicode="&#xd2;" horiz-adv-x="924" 
d="M451 860l89 -120h-157l-124 120h192zM489 -10h-55q-207 0 -297 77t-90 256v54q0 179 90 256t297 77h55q207 0 297 -77t90 -256v-54q0 -179 -90 -256t-297 -77zM447 133h30q92 1 141 24t65.5 63.5t16.5 113.5v31q0 56 -9 91t-33 61.5t-68 38t-113 11.5h-30
q-135 0 -179.5 -45.5t-44.5 -156.5v-31q0 -55 8.5 -90t32.5 -61.5t68.5 -38t114.5 -11.5z" />
    <glyph glyph-name="Oacute" unicode="&#xd3;" horiz-adv-x="924" 
d="M663 860l-124 -120h-156l89 120h191zM489 -10h-55q-207 0 -297 77t-90 256v54q0 179 90 256t297 77h55q207 0 297 -77t90 -256v-54q0 -179 -90 -256t-297 -77zM447 133h30q92 1 141 24t65.5 63.5t16.5 113.5v31q0 56 -9 91t-33 61.5t-68 38t-113 11.5h-30
q-135 0 -179.5 -45.5t-44.5 -156.5v-31q0 -55 8.5 -90t32.5 -61.5t68.5 -38t114.5 -11.5z" />
    <glyph glyph-name="Ocircumflex" unicode="&#xd4;" horiz-adv-x="924" 
d="M572 860l118 -120h-142l-87 73l-87 -73h-142l118 120h222zM489 -10h-55q-207 0 -297 77t-90 256v54q0 179 90 256t297 77h55q207 0 297 -77t90 -256v-54q0 -179 -90 -256t-297 -77zM447 133h30q92 1 141 24t65.5 63.5t16.5 113.5v31q0 56 -9 91t-33 61.5t-68 38
t-113 11.5h-30q-135 0 -179.5 -45.5t-44.5 -156.5v-31q0 -55 8.5 -90t32.5 -61.5t68.5 -38t114.5 -11.5z" />
    <glyph glyph-name="Otilde" unicode="&#xd5;" horiz-adv-x="924" 
d="M541 739q-35 0 -87 18.5t-65 18.5q-16 0 -23.5 -5.5t-11.5 -23.5h-99q8 63 36.5 88.5t84.5 25.5q35 0 87 -18.5t65 -18.5q15 0 22.5 6t12.5 24h104q-8 -63 -39 -89t-87 -26zM489 -10h-55q-207 0 -297 77t-90 256v54q0 179 90 256t297 77h55q207 0 297 -77t90 -256v-54
q0 -179 -90 -256t-297 -77zM447 133h30q92 1 141 24t65.5 63.5t16.5 113.5v31q0 56 -9 91t-33 61.5t-68 38t-113 11.5h-30q-135 0 -179.5 -45.5t-44.5 -156.5v-31q0 -55 8.5 -90t32.5 -61.5t68.5 -38t114.5 -11.5z" />
    <glyph glyph-name="Odieresis" unicode="&#xd6;" horiz-adv-x="924" 
d="M288 858h131v-109h-131v109zM503 858h131v-109h-131v109zM489 -10h-55q-207 0 -297 77t-90 256v54q0 179 90 256t297 77h55q207 0 297 -77t90 -256v-54q0 -179 -90 -256t-297 -77zM447 133h30q92 1 141 24t65.5 63.5t16.5 113.5v31q0 56 -9 91t-33 61.5t-68 38t-113 11.5
h-30q-135 0 -179.5 -45.5t-44.5 -156.5v-31q0 -55 8.5 -90t32.5 -61.5t68.5 -38t114.5 -11.5z" />
    <glyph glyph-name="multiply" unicode="&#xd7;" horiz-adv-x="600" 
d="M226 329l-160 159l75 75l160 -159l161 161l74 -74l-161 -161l159 -160l-75 -75l-159 160l-162 -162l-74 74z" />
    <glyph glyph-name="Oslash" unicode="&#xd8;" horiz-adv-x="924" 
d="M206 -40h-159l91 106q-91 77 -91 257v54q0 179 90 256t297 77h55q109 0 184 -21l44 51h159l-91 -106q91 -77 91 -257v-54q0 -179 -90 -256t-297 -77h-55q-109 0 -184 21zM223 365v-31q0 -90 29 -136l311 363q-36 6 -86 6h-30q-135 0 -179.5 -45.5t-44.5 -156.5zM447 133
h30q92 1 141 24t65.5 63.5t16.5 113.5v31q0 95 -29 137l-311 -363q38 -6 87 -6z" />
    <glyph glyph-name="Ugrave" unicode="&#xd9;" horiz-adv-x="850" 
d="M415 860l89 -120h-157l-124 120h192zM456 -10h-62q-194 0 -269 67.5t-75 236.5v406h177v-397q0 -97 38 -133t145 -36h30q106 0 144 36t38 133v397h177v-406q0 -169 -75.5 -236.5t-267.5 -67.5z" />
    <glyph glyph-name="Uacute" unicode="&#xda;" horiz-adv-x="850" 
d="M628 860l-124 -120h-156l89 120h191zM456 -10h-62q-194 0 -269 67.5t-75 236.5v406h177v-397q0 -97 38 -133t145 -36h30q106 0 144 36t38 133v397h177v-406q0 -169 -75.5 -236.5t-267.5 -67.5z" />
    <glyph glyph-name="Ucircumflex" unicode="&#xdb;" horiz-adv-x="850" 
d="M537 860l118 -120h-142l-87 73l-87 -73h-142l118 120h222zM456 -10h-62q-194 0 -269 67.5t-75 236.5v406h177v-397q0 -97 38 -133t145 -36h30q106 0 144 36t38 133v397h177v-406q0 -169 -75.5 -236.5t-267.5 -67.5z" />
    <glyph glyph-name="Udieresis" unicode="&#xdc;" horiz-adv-x="850" 
d="M253 858h131v-109h-131v109zM468 858h131v-109h-131v109zM456 -10h-62q-194 0 -269 67.5t-75 236.5v406h177v-397q0 -97 38 -133t145 -36h30q106 0 144 36t38 133v397h177v-406q0 -169 -75.5 -236.5t-267.5 -67.5z" />
    <glyph glyph-name="Yacute" unicode="&#xdd;" horiz-adv-x="855" 
d="M630 860l-124 -120h-156l89 120h191zM514 302v-302h-174v302l-328 398h209l213 -265h6l213 265h190z" />
    <glyph glyph-name="Thorn" unicode="&#xde;" horiz-adv-x="834" 
d="M238 118v-118h-173v700h173v-118h291q144 0 214 -50q69 -50 69 -175v-17q0 -116 -68 -169t-215 -53h-291zM508 446h-270v-192h271q75 0 102 21t27 70v10q0 50 -28.5 70.5t-101.5 20.5z" />
    <glyph glyph-name="germandbls" unicode="&#xdf;" horiz-adv-x="724" 
d="M201 479v-479h-158v487q0 124 67 173.5t198 49.5h57q259 0 259 -169v-7q0 -102 -89 -122v-5q82 -7 123.5 -49t41.5 -135v-16q0 -111 -62 -159t-198 -48h-169v117h138q71 0 100 21.5t29 70.5v8q0 45 -27 66t-101 21h-139v117h91q56 0 79.5 18.5t23.5 61.5v5
q-1 43 -27 62.5t-86 19.5h-25q-67 0 -97 -21q-29 -21 -29 -88z" />
    <glyph glyph-name="agrave" unicode="&#xe0;" horiz-adv-x="654" 
d="M324 700l89 -120h-157l-124 120h192zM615 324v-324h-156v80h-5q-40 -90 -207 -90q-221 0 -221 166v6q1 76 45.5 114t138.5 43l247 10v10q0 55 -29 73.5t-98 18.5q-57 0 -84.5 -13t-39.5 -44h-160q22 87 87 126.5t198 39.5h15q146 0 207.5 -47t61.5 -169zM186 166v-5
q0 -69 113 -69q77 0 117.5 30t40.5 85v26l-188 -7q-45 -2 -64 -16t-19 -44z" />
    <glyph glyph-name="aacute" unicode="&#xe1;" horiz-adv-x="654" 
d="M537 700l-124 -120h-156l89 120h191zM615 324v-324h-156v80h-5q-40 -90 -207 -90q-221 0 -221 166v6q1 76 45.5 114t138.5 43l247 10v10q0 55 -29 73.5t-98 18.5q-57 0 -84.5 -13t-39.5 -44h-160q22 87 87 126.5t198 39.5h15q146 0 207.5 -47t61.5 -169zM186 166v-5
q0 -69 113 -69q77 0 117.5 30t40.5 85v26l-188 -7q-45 -2 -64 -16t-19 -44z" />
    <glyph glyph-name="acircumflex" unicode="&#xe2;" horiz-adv-x="654" 
d="M445 700l118 -120h-142l-87 73l-87 -73h-142l118 120h222zM615 324v-324h-156v80h-5q-40 -90 -207 -90q-221 0 -221 166v6q1 76 45.5 114t138.5 43l247 10v10q0 55 -29 73.5t-98 18.5q-57 0 -84.5 -13t-39.5 -44h-160q22 87 87 126.5t198 39.5h15q146 0 207.5 -47
t61.5 -169zM186 166v-5q0 -69 113 -69q77 0 117.5 30t40.5 85v26l-188 -7q-45 -2 -64 -16t-19 -44z" />
    <glyph glyph-name="atilde" unicode="&#xe3;" horiz-adv-x="654" 
d="M414 579q-35 0 -86.5 18.5t-65.5 18.5q-15 0 -22.5 -5.5t-12.5 -23.5h-99q8 63 36.5 88.5t84.5 25.5q35 0 87 -18.5t65 -18.5q15 0 23 6t12 24h104q-8 -63 -39 -89t-87 -26zM615 324v-324h-156v80h-5q-40 -90 -207 -90q-221 0 -221 166v6q1 76 45.5 114t138.5 43l247 10
v10q0 55 -29 73.5t-98 18.5q-57 0 -84.5 -13t-39.5 -44h-160q22 87 87 126.5t198 39.5h15q146 0 207.5 -47t61.5 -169zM186 166v-5q0 -69 113 -69q77 0 117.5 30t40.5 85v26l-188 -7q-45 -2 -64 -16t-19 -44z" />
    <glyph glyph-name="adieresis" unicode="&#xe4;" horiz-adv-x="654" 
d="M161 691h131v-109h-131v109zM376 691h131v-109h-131v109zM615 324v-324h-156v80h-5q-40 -90 -207 -90q-221 0 -221 166v6q1 76 45.5 114t138.5 43l247 10v10q0 55 -29 73.5t-98 18.5q-57 0 -84.5 -13t-39.5 -44h-160q22 87 87 126.5t198 39.5h15q146 0 207.5 -47
t61.5 -169zM186 166v-5q0 -69 113 -69q77 0 117.5 30t40.5 85v26l-188 -7q-45 -2 -64 -16t-19 -44z" />
    <glyph glyph-name="aring" unicode="&#xe5;" horiz-adv-x="654" 
d="M334 562q-83 0 -123 25t-40 83t40 83t123 25t122.5 -25t39.5 -83t-39.5 -83t-122.5 -25zM334 627q62 0 62 43t-62 43t-62 -43t62 -43zM615 324v-324h-156v80h-5q-40 -90 -207 -90q-221 0 -221 166v6q1 76 45.5 114t138.5 43l247 10v10q0 55 -29 73.5t-98 18.5
q-57 0 -84.5 -13t-39.5 -44h-160q22 87 87 126.5t198 39.5h15q146 0 207.5 -47t61.5 -169zM186 166v-5q0 -69 113 -69q77 0 117.5 30t40.5 85v26l-188 -7q-45 -2 -64 -16t-19 -44z" />
    <glyph glyph-name="ae" unicode="&#xe6;" horiz-adv-x="1091" 
d="M766 -10h-16q-193 0 -252 103h-5q-59 -103 -237 -103q-230 0 -230 166v6q1 76 45.5 114t138.5 43l247 10v10q0 55 -29 73.5t-98 18.5q-57 0 -84.5 -13t-39.5 -44h-160q22 87 87 126.5t198 39.5h15q156 0 202 -60h4q51 60 198 60h15q146 0 219 -59t73 -201v-47h-442
q3 -75 36 -99.5t108 -24.5q60 0 90.5 11t44.5 39h159q-22 -85 -88 -127t-199 -42zM757 432q-69 0 -102 -21.5t-39 -84.5h283v4q0 57 -36 79.5t-106 22.5zM186 166v-5q0 -69 113 -69q77 0 117.5 30t40.5 85v26l-188 -7q-45 -2 -64 -16t-19 -44z" />
    <glyph glyph-name="ccedilla" unicode="&#xe7;" horiz-adv-x="654" 
d="M473 178h159q-15 -81 -67.5 -127.5t-152.5 -57.5l-42 -133h-158l57 132q-116 10 -175.5 71t-59.5 187v30q0 141 73 200.5t217 59.5h25q252 0 283 -188h-159q-16 33 -45.5 46.5t-87.5 13.5q-79 0 -113.5 -28t-34.5 -108v-22q0 -80 34.5 -108t113.5 -28q58 0 87.5 13.5
t45.5 46.5z" />
    <glyph glyph-name="egrave" unicode="&#xe8;" horiz-adv-x="667" 
d="M322 700l89 -120h-157l-124 120h192zM470 159h159q-22 -85 -88 -127t-199 -42h-16q-146 0 -219.5 60t-73.5 203v24q0 143 73.5 203t219.5 60h15q146 0 219 -59t73 -201v-47h-442q3 -75 36 -99.5t108 -24.5q60 0 90.5 11t44.5 39zM333 432q-69 0 -102 -21.5t-39 -84.5h283
v4q0 57 -36 79.5t-106 22.5z" />
    <glyph glyph-name="eacute" unicode="&#xe9;" horiz-adv-x="667" 
d="M535 700l-124 -120h-156l89 120h191zM470 159h159q-22 -85 -88 -127t-199 -42h-16q-146 0 -219.5 60t-73.5 203v24q0 143 73.5 203t219.5 60h15q146 0 219 -59t73 -201v-47h-442q3 -75 36 -99.5t108 -24.5q60 0 90.5 11t44.5 39zM333 432q-69 0 -102 -21.5t-39 -84.5h283
v4q0 57 -36 79.5t-106 22.5z" />
    <glyph glyph-name="ecircumflex" unicode="&#xea;" horiz-adv-x="667" 
d="M443 700l118 -120h-142l-87 73l-87 -73h-142l118 120h222zM470 159h159q-22 -85 -88 -127t-199 -42h-16q-146 0 -219.5 60t-73.5 203v24q0 143 73.5 203t219.5 60h15q146 0 219 -59t73 -201v-47h-442q3 -75 36 -99.5t108 -24.5q60 0 90.5 11t44.5 39zM333 432
q-69 0 -102 -21.5t-39 -84.5h283v4q0 57 -36 79.5t-106 22.5z" />
    <glyph glyph-name="edieresis" unicode="&#xeb;" horiz-adv-x="667" 
d="M159 691h131v-109h-131v109zM374 691h131v-109h-131v109zM470 159h159q-22 -85 -88 -127t-199 -42h-16q-146 0 -219.5 60t-73.5 203v24q0 143 73.5 203t219.5 60h15q146 0 219 -59t73 -201v-47h-442q3 -75 36 -99.5t108 -24.5q60 0 90.5 11t44.5 39zM333 432
q-69 0 -102 -21.5t-39 -84.5h283v4q0 57 -36 79.5t-106 22.5z" />
    <glyph glyph-name="igrave" unicode="&#xec;" horiz-adv-x="251" 
d="M115 700l89 -120h-157l-124 120h192zM46 530h158v-530h-158v530z" />
    <glyph glyph-name="iacute" unicode="&#xed;" horiz-adv-x="251" 
d="M327 700l-124 -120h-156l89 120h191zM46 530h158v-530h-158v530z" />
    <glyph glyph-name="icircumflex" unicode="&#xee;" horiz-adv-x="251" 
d="M236 700l118 -120h-142l-87 73l-87 -73h-142l118 120h222zM46 530h158v-530h-158v530z" />
    <glyph glyph-name="idieresis" unicode="&#xef;" horiz-adv-x="251" 
d="M-48 691h131v-109h-131v109zM167 691h131v-109h-131v109zM46 530h158v-530h-158v530z" />
    <glyph glyph-name="eth" unicode="&#xf0;" horiz-adv-x="692" 
d="M364 -10h-33q-148 0 -223 59.5t-75 195.5v8q0 244 253 244q89 0 145 -42l4 4q-23 39 -67 87l-228 -28v98l137 17q-40 34 -90 67h225q28 -21 54 -45l155 19v-98l-75 -9q112 -149 112 -304v-10q0 -142 -73 -202.5t-221 -60.5zM346 118q82 0 118.5 27.5t36.5 100.5v6
q0 76 -38 102t-117 26q-82 0 -118 -27.5t-36 -100.5v-6q0 -73 36 -100.5t118 -27.5z" />
    <glyph glyph-name="ntilde" unicode="&#xf1;" horiz-adv-x="651" 
d="M415 579q-35 0 -87 18.5t-65 18.5q-16 0 -23.5 -5.5t-11.5 -23.5h-99q8 63 36.5 88.5t84.5 25.5q35 0 87 -18.5t65 -18.5q15 0 22.5 6t12.5 24h104q-8 -63 -39 -89t-87 -26zM612 334v-334h-158v301q0 66 -29 88t-90 22q-69 0 -101.5 -29t-32.5 -102v-280h-158v530h158
v-89h6q39 99 183 99q107 0 164.5 -45.5t57.5 -160.5z" />
    <glyph glyph-name="ograve" unicode="&#xf2;" horiz-adv-x="695" 
d="M337 700l89 -120h-157l-124 120h192zM366 -10h-38q-150 0 -222.5 62t-72.5 201v24q0 139 72 201t224 62h37q150 0 222.5 -62t72.5 -201v-24q0 -139 -72.5 -201t-222.5 -62zM348 118q84 0 119.5 27.5t35.5 111.5v16q0 84 -35.5 111.5t-119.5 27.5q-85 0 -121 -27.5
t-36 -111.5v-16q0 -84 36 -111.5t121 -27.5z" />
    <glyph glyph-name="oacute" unicode="&#xf3;" horiz-adv-x="695" 
d="M550 700l-124 -120h-156l89 120h191zM366 -10h-38q-150 0 -222.5 62t-72.5 201v24q0 139 72 201t224 62h37q150 0 222.5 -62t72.5 -201v-24q0 -139 -72.5 -201t-222.5 -62zM348 118q84 0 119.5 27.5t35.5 111.5v16q0 84 -35.5 111.5t-119.5 27.5q-85 0 -121 -27.5
t-36 -111.5v-16q0 -84 36 -111.5t121 -27.5z" />
    <glyph glyph-name="ocircumflex" unicode="&#xf4;" horiz-adv-x="695" 
d="M459 700l118 -120h-142l-87 73l-87 -73h-142l118 120h222zM366 -10h-38q-150 0 -222.5 62t-72.5 201v24q0 139 72 201t224 62h37q150 0 222.5 -62t72.5 -201v-24q0 -139 -72.5 -201t-222.5 -62zM348 118q84 0 119.5 27.5t35.5 111.5v16q0 84 -35.5 111.5t-119.5 27.5
q-85 0 -121 -27.5t-36 -111.5v-16q0 -84 36 -111.5t121 -27.5z" />
    <glyph glyph-name="otilde" unicode="&#xf5;" horiz-adv-x="695" 
d="M428 579q-36 0 -87 18.5t-65 18.5q-15 0 -22.5 -5.5t-12.5 -23.5h-99q8 63 36.5 88.5t84.5 25.5q35 0 87 -18.5t65 -18.5q15 0 23 6t12 24h104q-8 -63 -39 -89t-87 -26zM366 -10h-38q-150 0 -222.5 62t-72.5 201v24q0 139 72 201t224 62h37q150 0 222.5 -62t72.5 -201
v-24q0 -139 -72.5 -201t-222.5 -62zM348 118q84 0 119.5 27.5t35.5 111.5v16q0 84 -35.5 111.5t-119.5 27.5q-85 0 -121 -27.5t-36 -111.5v-16q0 -84 36 -111.5t121 -27.5z" />
    <glyph glyph-name="odieresis" unicode="&#xf6;" horiz-adv-x="695" 
d="M175 691h131v-109h-131v109zM390 691h131v-109h-131v109zM366 -10h-38q-150 0 -222.5 62t-72.5 201v24q0 139 72 201t224 62h37q150 0 222.5 -62t72.5 -201v-24q0 -139 -72.5 -201t-222.5 -62zM348 118q84 0 119.5 27.5t35.5 111.5v16q0 84 -35.5 111.5t-119.5 27.5
q-85 0 -121 -27.5t-36 -111.5v-16q0 -84 36 -111.5t121 -27.5z" />
    <glyph glyph-name="divide" unicode="&#xf7;" horiz-adv-x="600" 
d="M353 587v-107h-106v107h106zM509 382v-105h-418v105h418zM353 177v-107h-106v107h106z" />
    <glyph glyph-name="oslash" unicode="&#xf8;" horiz-adv-x="696" 
d="M169 -40h-136l73 91q-73 63 -73 202v24q0 139 72 201t224 62h37q81 0 127 -14l33 40h135l-71 -89q71 -65 71 -200v-24q0 -139 -72.5 -201t-222.5 -62h-38q-73 0 -124 13zM191 273v-16q0 -56 17 -87l194 239q-24 3 -54 3q-85 0 -121 -27.5t-36 -111.5zM348 118
q84 0 119.5 27.5t35.5 111.5v16q0 54 -15 84l-192 -236q24 -3 52 -3z" />
    <glyph glyph-name="ugrave" unicode="&#xf9;" horiz-adv-x="651" 
d="M316 700l89 -120h-157l-124 120h192zM39 196v334h158v-301q0 -66 29 -88t90 -22q69 0 101.5 29t32.5 102v280h158v-530h-158v89h-6q-42 -99 -183 -99q-107 0 -164.5 45.5t-57.5 160.5z" />
    <glyph glyph-name="uacute" unicode="&#xfa;" horiz-adv-x="651" 
d="M528 700l-124 -120h-156l89 120h191zM39 196v334h158v-301q0 -66 29 -88t90 -22q69 0 101.5 29t32.5 102v280h158v-530h-158v89h-6q-42 -99 -183 -99q-107 0 -164.5 45.5t-57.5 160.5z" />
    <glyph glyph-name="ucircumflex" unicode="&#xfb;" horiz-adv-x="651" 
d="M437 700l118 -120h-142l-87 73l-87 -73h-142l118 120h222zM39 196v334h158v-301q0 -66 29 -88t90 -22q69 0 101.5 29t32.5 102v280h158v-530h-158v89h-6q-42 -99 -183 -99q-107 0 -164.5 45.5t-57.5 160.5z" />
    <glyph glyph-name="udieresis" unicode="&#xfc;" horiz-adv-x="651" 
d="M153 691h131v-109h-131v109zM368 691h131v-109h-131v109zM39 196v334h158v-301q0 -66 29 -88t90 -22q69 0 101.5 29t32.5 102v280h158v-530h-158v89h-6q-42 -99 -183 -99q-107 0 -164.5 45.5t-57.5 160.5z" />
    <glyph glyph-name="yacute" unicode="&#xfd;" horiz-adv-x="622" 
d="M521 700l-124 -120h-156l89 120h191zM626 530l-315 -700h-166l86 171l-234 529h170l147 -353h7l143 353h162z" />
    <glyph glyph-name="thorn" unicode="&#xfe;" horiz-adv-x="705" 
d="M201 81v-251h-158v870h158v-251h5q43 91 191 91h12q127 0 194.5 -59t67.5 -201v-30q0 -142 -67.5 -201t-194.5 -59h-12q-148 0 -191 91h-5zM357 118q86 0 121 27.5t35 110.5v17q0 84 -35 111.5t-121 27.5q-85 0 -120.5 -27.5t-35.5 -111.5v-17q0 -83 35.5 -110.5
t120.5 -27.5z" />
    <glyph glyph-name="ydieresis" unicode="&#xff;" horiz-adv-x="622" 
d="M146 691h131v-109h-131v109zM361 691h131v-109h-131v109zM626 530l-315 -700h-166l86 171l-234 529h170l147 -353h7l143 353h162z" />
    <glyph glyph-name="Amacron" unicode="&#x100;" horiz-adv-x="947" 
d="M665 840v-73h-383v73h383zM605 700l330 -700h-195l-72 158h-393l-73 -158h-190l329 700h264zM475 574h-7l-129 -278h264z" />
    <glyph glyph-name="amacron" unicode="&#x101;" horiz-adv-x="654" 
d="M525 673v-73h-383v73h383zM615 324v-324h-156v80h-5q-40 -90 -207 -90q-221 0 -221 166v6q1 76 45.5 114t138.5 43l247 10v10q0 55 -29 73.5t-98 18.5q-57 0 -84.5 -13t-39.5 -44h-160q22 87 87 126.5t198 39.5h15q146 0 207.5 -47t61.5 -169zM186 166v-5q0 -69 113 -69
q77 0 117.5 30t40.5 85v26l-188 -7q-45 -2 -64 -16t-19 -44z" />
    <glyph glyph-name="Abreve" unicode="&#x102;" horiz-adv-x="947" 
d="M474 731q-107 0 -153.5 30.5t-53.5 98.5h124q4 -50 83 -50q41 0 60.5 12t22.5 38h124q-8 -68 -54.5 -98.5t-152.5 -30.5zM605 700l330 -700h-195l-72 158h-393l-73 -158h-190l329 700h264zM475 574h-7l-129 -278h264z" />
    <glyph glyph-name="abreve" unicode="&#x103;" horiz-adv-x="654" 
d="M334 571q-107 0 -153.5 30.5t-53.5 98.5h124q4 -50 83 -50q41 0 60.5 12t22.5 38h124q-8 -68 -54.5 -98.5t-152.5 -30.5zM615 324v-324h-156v80h-5q-40 -90 -207 -90q-221 0 -221 166v6q1 76 45.5 114t138.5 43l247 10v10q0 55 -29 73.5t-98 18.5q-57 0 -84.5 -13
t-39.5 -44h-160q22 87 87 126.5t198 39.5h15q146 0 207.5 -47t61.5 -169zM186 166v-5q0 -69 113 -69q77 0 117.5 30t40.5 85v26l-188 -7q-45 -2 -64 -16t-19 -44z" />
    <glyph glyph-name="Aogonek" unicode="&#x104;" horiz-adv-x="947" 
d="M884 -69v-71h-111q-63 0 -91.5 16.5t-28.5 55.5q0 30 15.5 49.5t63.5 35.5l-64 141h-393l-73 -158h-190l329 700h264l330 -700h-51q-57 -11 -72.5 -20t-15.5 -25q0 -24 35 -24h53zM475 574h-7l-129 -278h264z" />
    <glyph glyph-name="aogonek" unicode="&#x105;" horiz-adv-x="654" 
d="M615 -69v-71h-111q-63 0 -91.5 16.5t-28.5 55.5q0 30 15 49t60 35v64h-5q-40 -90 -207 -90q-221 0 -221 166v6q1 76 45.5 114t138.5 43l247 10v10q0 55 -29 73.5t-98 18.5q-57 0 -84.5 -13t-39.5 -44h-160q22 87 87 126.5t198 39.5h15q146 0 207.5 -47t61.5 -169v-324
q-58 -11 -73 -20t-15 -25q0 -13 7.5 -18.5t27.5 -5.5h53zM186 166v-5q0 -69 113 -69q77 0 117.5 30t40.5 85v26l-188 -7q-45 -2 -64 -16t-19 -44z" />
    <glyph glyph-name="Cacute" unicode="&#x106;" horiz-adv-x="892" 
d="M654 860l-124 -120h-156l89 120h191zM483 -10h-61q-202 0 -288.5 77t-86.5 256v54q0 179 86.5 256t288.5 77h61q174 0 259.5 -57t108.5 -186h-178q-17 55 -63.5 77.5t-144.5 22.5h-25q-68 0 -110.5 -11.5t-66 -38t-32 -61.5t-8.5 -91v-31q0 -110 43.5 -155.5t173.5 -45.5
h25q98 0 144.5 22.5t63.5 77.5h178q-23 -129 -108.5 -186t-259.5 -57z" />
    <glyph glyph-name="cacute" unicode="&#x107;" horiz-adv-x="654" 
d="M532 700l-124 -120h-156l89 120h191zM348 -10h-25q-144 0 -217 60t-73 200v30q0 140 73 200t217 60h25q252 0 283 -188h-159q-16 33 -45.5 46.5t-87.5 13.5q-79 0 -113.5 -28t-34.5 -108v-22q0 -80 34.5 -108t113.5 -28q58 0 87.5 13.5t45.5 46.5h159q-31 -188 -283 -188
z" />
    <glyph glyph-name="Ccircumflex" unicode="&#x108;" horiz-adv-x="892" 
d="M563 860l118 -120h-142l-87 73l-87 -73h-142l118 120h222zM483 -10h-61q-202 0 -288.5 77t-86.5 256v54q0 179 86.5 256t288.5 77h61q174 0 259.5 -57t108.5 -186h-178q-17 55 -63.5 77.5t-144.5 22.5h-25q-68 0 -110.5 -11.5t-66 -38t-32 -61.5t-8.5 -91v-31
q0 -110 43.5 -155.5t173.5 -45.5h25q98 0 144.5 22.5t63.5 77.5h178q-23 -129 -108.5 -186t-259.5 -57z" />
    <glyph glyph-name="ccircumflex" unicode="&#x109;" horiz-adv-x="654" 
d="M447 700l118 -120h-142l-87 73l-87 -73h-142l118 120h222zM348 -10h-25q-144 0 -217 60t-73 200v30q0 140 73 200t217 60h25q252 0 283 -188h-159q-16 33 -45.5 46.5t-87.5 13.5q-79 0 -113.5 -28t-34.5 -108v-22q0 -80 34.5 -108t113.5 -28q58 0 87.5 13.5t45.5 46.5
h159q-31 -188 -283 -188z" />
    <glyph glyph-name="Cdotaccent" unicode="&#x10a;" horiz-adv-x="892" 
d="M372 858h159v-109h-159v109zM483 -10h-61q-202 0 -288.5 77t-86.5 256v54q0 179 86.5 256t288.5 77h61q174 0 259.5 -57t108.5 -186h-178q-17 55 -63.5 77.5t-144.5 22.5h-25q-68 0 -110.5 -11.5t-66 -38t-32 -61.5t-8.5 -91v-31q0 -110 43.5 -155.5t173.5 -45.5h25
q98 0 144.5 22.5t63.5 77.5h178q-23 -129 -108.5 -186t-259.5 -57z" />
    <glyph glyph-name="cdotaccent" unicode="&#x10b;" horiz-adv-x="654" 
d="M257 691h159v-109h-159v109zM348 -10h-25q-144 0 -217 60t-73 200v30q0 140 73 200t217 60h25q252 0 283 -188h-159q-16 33 -45.5 46.5t-87.5 13.5q-79 0 -113.5 -28t-34.5 -108v-22q0 -80 34.5 -108t113.5 -28q58 0 87.5 13.5t45.5 46.5h159q-31 -188 -283 -188z" />
    <glyph glyph-name="Ccaron" unicode="&#x10c;" horiz-adv-x="892" 
d="M452 787l87 73h142l-118 -120h-222l-118 120h142zM483 -10h-61q-202 0 -288.5 77t-86.5 256v54q0 179 86.5 256t288.5 77h61q174 0 259.5 -57t108.5 -186h-178q-17 55 -63.5 77.5t-144.5 22.5h-25q-68 0 -110.5 -11.5t-66 -38t-32 -61.5t-8.5 -91v-31q0 -110 43.5 -155.5
t173.5 -45.5h25q98 0 144.5 22.5t63.5 77.5h178q-23 -129 -108.5 -186t-259.5 -57z" />
    <glyph glyph-name="ccaron" unicode="&#x10d;" horiz-adv-x="654" 
d="M336 627l87 73h142l-118 -120h-222l-118 120h142zM348 -10h-25q-144 0 -217 60t-73 200v30q0 140 73 200t217 60h25q252 0 283 -188h-159q-16 33 -45.5 46.5t-87.5 13.5q-79 0 -113.5 -28t-34.5 -108v-22q0 -80 34.5 -108t113.5 -28q58 0 87.5 13.5t45.5 46.5h159
q-31 -188 -283 -188z" />
    <glyph glyph-name="Dcaron" unicode="&#x10e;" horiz-adv-x="890" 
d="M437 787l87 73h142l-118 -120h-222l-118 120h142zM842 367v-34q0 -180 -87 -256.5t-293 -76.5h-397v700h393q207 0 295.5 -77t88.5 -256zM438 560h-200v-420h200q70 0 115 12t70 38.5t34 62.5t9 91v11q0 55 -9 91t-34 63t-70 39t-115 12z" />
    <glyph glyph-name="dcaron" unicode="&#x10f;" horiz-adv-x="902" 
d="M661 700v-700h-158v81h-5q-40 -91 -190 -91h-12q-129 0 -196 59t-67 201v30q0 142 67 201t196 59h12q150 0 190 -91h5v251h158zM913 700l-76 -218h-123l34 218h165zM347 118q86 0 121 27.5t35 111.5v17q0 83 -35 110.5t-121 27.5t-121 -27.5t-35 -110.5v-17
q0 -84 35 -111.5t121 -27.5z" />
    <glyph glyph-name="Dcroat" unicode="&#x110;" horiz-adv-x="890" 
d="M65 292h-65v116h65v292h393q207 0 295.5 -77t88.5 -256v-34q0 -180 -87 -256.5t-293 -76.5h-397v292zM440 408v-116h-202v-152h200q70 0 115 12t70 38.5t34 62.5t9 91v11q0 55 -9 91t-34 63t-70 39t-115 12h-200v-152h202z" />
    <glyph glyph-name="dslash" unicode="&#x111;" horiz-adv-x="705" 
d="M503 561h-189v102h189v37h158v-37h48v-102h-48v-561h-158v81h-5q-40 -91 -190 -91h-12q-129 0 -196 59t-67 201v30q0 142 67 201t196 59h12q150 0 190 -91h5v112zM347 118q86 0 121 27.5t35 111.5v17q0 83 -35 110.5t-121 27.5t-121 -27.5t-35 -110.5v-17
q0 -84 35 -111.5t121 -27.5z" />
    <glyph glyph-name="Emacron" unicode="&#x112;" horiz-adv-x="771" 
d="M582 840v-73h-383v73h383zM718 138v-138h-653v700h653v-138h-480v-143h480v-137h-480v-144h480z" />
    <glyph glyph-name="emacron" unicode="&#x113;" horiz-adv-x="667" 
d="M523 673v-73h-383v73h383zM470 159h159q-22 -85 -88 -127t-199 -42h-16q-146 0 -219.5 60t-73.5 203v24q0 143 73.5 203t219.5 60h15q146 0 219 -59t73 -201v-47h-442q3 -75 36 -99.5t108 -24.5q60 0 90.5 11t44.5 39zM333 432q-69 0 -102 -21.5t-39 -84.5h283v4
q0 57 -36 79.5t-106 22.5z" />
    <glyph glyph-name="Ebreve" unicode="&#x114;" horiz-adv-x="771" 
d="M391 731q-110 0 -154 31q-46 32 -53 98h124q4 -50 83 -50q41 0 60.5 12t22.5 38h124q-9 -69 -54.5 -99t-152.5 -30zM718 138v-138h-653v700h653v-138h-480v-143h480v-137h-480v-144h480z" />
    <glyph glyph-name="ebreve" unicode="&#x115;" horiz-adv-x="667" 
d="M332 571q-107 0 -153.5 30.5t-53.5 98.5h124q4 -50 83 -50q41 0 60.5 12t22.5 38h124q-8 -68 -54.5 -98.5t-152.5 -30.5zM470 159h159q-22 -85 -88 -127t-199 -42h-16q-146 0 -219.5 60t-73.5 203v24q0 143 73.5 203t219.5 60h15q146 0 219 -59t73 -201v-47h-442
q3 -75 36 -99.5t108 -24.5q60 0 90.5 11t44.5 39zM333 432q-69 0 -102 -21.5t-39 -84.5h283v4q0 57 -36 79.5t-106 22.5z" />
    <glyph glyph-name="Edotaccent" unicode="&#x116;" horiz-adv-x="771" 
d="M312 858h159v-109h-159v109zM718 138v-138h-653v700h653v-138h-480v-143h480v-137h-480v-144h480z" />
    <glyph glyph-name="edotaccent" unicode="&#x117;" horiz-adv-x="667" 
d="M253 691h159v-109h-159v109zM470 159h159q-22 -85 -88 -127t-199 -42h-16q-146 0 -219.5 60t-73.5 203v24q0 143 73.5 203t219.5 60h15q146 0 219 -59t73 -201v-47h-442q3 -75 36 -99.5t108 -24.5q60 0 90.5 11t44.5 39zM333 432q-69 0 -102 -21.5t-39 -84.5h283v4
q0 57 -36 79.5t-106 22.5z" />
    <glyph glyph-name="Eogonek" unicode="&#x118;" horiz-adv-x="771" 
d="M718 -69v-71h-111q-63 0 -91.5 16.5t-28.5 55.5q0 46 39 68h-461v700h653v-138h-480v-143h480v-137h-480v-144h480v-138q-57 -11 -72.5 -20t-15.5 -25q0 -24 35 -24h53z" />
    <glyph glyph-name="eogonek" unicode="&#x119;" horiz-adv-x="667" 
d="M566 -68v-72h-131q-52 0 -75.5 15t-23.5 50q0 40 34 62v4q-17 -1 -47 -1q-150 0 -220 63.5t-70 198.5v25q0 143 73.5 203t219.5 60h15q146 0 219 -59t73 -201v-47h-442q3 -75 36 -99.5t108 -24.5q60 0 90.5 11t44.5 39h159q-11 -46 -33.5 -76.5t-66.5 -59.5
q-30 -19 -40.5 -31.5t-10.5 -30.5q0 -17 8 -23t29 -6h51zM333 432q-69 0 -102 -21.5t-39 -84.5h283v4q0 57 -36 79.5t-106 22.5z" />
    <glyph glyph-name="Ecaron" unicode="&#x11a;" horiz-adv-x="771" 
d="M391 787l87 73h142l-118 -120h-222l-118 120h142zM718 138v-138h-653v700h653v-138h-480v-143h480v-137h-480v-144h480z" />
    <glyph glyph-name="ecaron" unicode="&#x11b;" horiz-adv-x="667" 
d="M332 627l87 73h142l-118 -120h-222l-118 120h142zM470 159h159q-22 -85 -88 -127t-199 -42h-16q-146 0 -219.5 60t-73.5 203v24q0 143 73.5 203t219.5 60h15q146 0 219 -59t73 -201v-47h-442q3 -75 36 -99.5t108 -24.5q60 0 90.5 11t44.5 39zM333 432q-69 0 -102 -21.5
t-39 -84.5h283v4q0 57 -36 79.5t-106 22.5z" />
    <glyph glyph-name="Gcircumflex" unicode="&#x11c;" horiz-adv-x="920" 
d="M572 860l118 -120h-142l-87 73l-87 -73h-142l118 120h222zM489 -10h-55q-207 0 -297 76t-90 255v58q0 177 90 254t297 77h55q169 0 259 -51t118 -163h-188q-19 39 -65 55t-138 16h-29q-91 0 -140.5 -22.5t-66 -63t-16.5 -113.5v-37q0 -54 9 -88.5t33 -61t68 -38
t113 -11.5h32q120 0 168 31.5t51 110.5h-263v137h438v-100q0 -172 -92 -247q-92 -74 -291 -74z" />
    <glyph glyph-name="gcircumflex" unicode="&#x11d;" horiz-adv-x="694" 
d="M458 700l118 -120h-142l-87 73l-87 -73h-142l118 120h222zM361 -170h-27q-125 0 -198 33t-94 113h164q12 -21 44.5 -29t94.5 -8q81 0 114.5 23.5t33.5 89.5v60h-5q-40 -84 -186 -84h-8q-124 0 -190 57t-66 189v20q0 133 65 189.5t189 56.5h8q148 0 188 -84h5v74h158v-475
q0 -124 -70.5 -174.5t-219.5 -50.5zM346 152q82 0 114.5 24t32.5 102v11q0 78 -32.5 102t-114.5 24t-116 -24t-34 -102v-11q0 -76 34.5 -101t115.5 -25z" />
    <glyph glyph-name="Gbreve" unicode="&#x11e;" horiz-adv-x="920" 
d="M461 731q-110 0 -154 31q-46 32 -53 98h124q4 -50 83 -50q41 0 60.5 12t22.5 38h124q-9 -69 -54.5 -99t-152.5 -30zM489 -10h-55q-207 0 -297 76t-90 255v58q0 177 90 254t297 77h55q169 0 259 -51t118 -163h-188q-19 39 -65 55t-138 16h-29q-91 0 -140.5 -22.5t-66 -63
t-16.5 -113.5v-37q0 -54 9 -88.5t33 -61t68 -38t113 -11.5h32q120 0 168 31.5t51 110.5h-263v137h438v-100q0 -172 -92 -247q-92 -74 -291 -74z" />
    <glyph glyph-name="gbreve" unicode="&#x11f;" horiz-adv-x="694" 
d="M347 571q-110 0 -154 31q-46 32 -53 98h124q4 -50 83 -50q41 0 60.5 12t22.5 38h124q-9 -69 -54.5 -99t-152.5 -30zM361 -170h-27q-125 0 -198 33t-94 113h164q12 -21 44.5 -29t94.5 -8q81 0 114.5 23.5t33.5 89.5v60h-5q-40 -84 -186 -84h-8q-124 0 -190 57t-66 189v20
q0 133 65 189.5t189 56.5h8q148 0 188 -84h5v74h158v-475q0 -124 -70.5 -174.5t-219.5 -50.5zM346 152q82 0 114.5 24t32.5 102v11q0 78 -32.5 102t-114.5 24t-116 -24t-34 -102v-11q0 -76 34.5 -101t115.5 -25z" />
    <glyph glyph-name="Gdotaccent" unicode="&#x120;" horiz-adv-x="920" 
d="M382 858h159v-109h-159v109zM489 -10h-55q-207 0 -297 76t-90 255v58q0 177 90 254t297 77h55q169 0 259 -51t118 -163h-188q-19 39 -65 55t-138 16h-29q-91 0 -140.5 -22.5t-66 -63t-16.5 -113.5v-37q0 -54 9 -88.5t33 -61t68 -38t113 -11.5h32q120 0 168 31.5t51 110.5
h-263v137h438v-100q0 -172 -92 -247q-92 -74 -291 -74z" />
    <glyph glyph-name="gdotaccent" unicode="&#x121;" horiz-adv-x="694" 
d="M268 691h159v-109h-159v109zM361 -170h-27q-125 0 -198 33t-94 113h164q12 -21 44.5 -29t94.5 -8q81 0 114.5 23.5t33.5 89.5v60h-5q-40 -84 -186 -84h-8q-124 0 -190 57t-66 189v20q0 133 65 189.5t189 56.5h8q148 0 188 -84h5v74h158v-475q0 -124 -70.5 -174.5
t-219.5 -50.5zM346 152q82 0 114.5 24t32.5 102v11q0 78 -32.5 102t-114.5 24t-116 -24t-34 -102v-11q0 -76 34.5 -101t115.5 -25z" />
    <glyph glyph-name="Gcommaaccent" unicode="&#x122;" horiz-adv-x="920" 
d="M489 -10h-55q-207 0 -297 76t-90 255v58q0 177 90 254t297 77h55q169 0 259 -51t118 -163h-188q-19 39 -65 55t-138 16h-29q-91 0 -140.5 -22.5t-66 -63t-16.5 -113.5v-37q0 -54 9 -88.5t33 -61t68 -38t113 -11.5h32q120 0 168 31.5t51 110.5h-263v137h438v-100
q0 -172 -92 -247q-92 -74 -291 -74zM504 -152l-18 -18h-91l49 53v8h-71v73h174v-19q0 -32 -9 -50.5t-34 -46.5z" />
    <glyph glyph-name="gcommaaccent" unicode="&#x123;" horiz-adv-x="694" 
d="M304 696l18 18h89l-48 -53v-8h71v-73h-174v19q0 31 9 50t35 47zM361 -170h-27q-125 0 -198 33t-94 113h164q12 -21 44.5 -29t94.5 -8q81 0 114.5 23.5t33.5 89.5v60h-5q-40 -84 -186 -84h-8q-124 0 -190 57t-66 189v20q0 133 65 189.5t189 56.5h8q148 0 188 -84h5v74h158
v-475q0 -124 -70.5 -174.5t-219.5 -50.5zM346 152q82 0 114.5 24t32.5 102v11q0 78 -32.5 102t-114.5 24t-116 -24t-34 -102v-11q0 -76 34.5 -101t115.5 -25z" />
    <glyph glyph-name="Hcircumflex" unicode="&#x124;" horiz-adv-x="909" 
d="M565 860l118 -120h-142l-87 73l-87 -73h-142l118 120h222zM844 700v-700h-174v279h-432v-279h-173v700h173v-278h432v278h174z" />
    <glyph glyph-name="hcircumflex" unicode="&#x125;" horiz-adv-x="651" 
d="M233 870l118 -120h-142l-87 73l-87 -73h-142l118 120h222zM612 334v-334h-158v301q0 66 -29 88t-90 22q-69 0 -101.5 -29t-32.5 -102v-280h-158v700h158v-259h6q39 99 183 99q107 0 164.5 -45.5t57.5 -160.5z" />
    <glyph glyph-name="Hbar" unicode="&#x126;" horiz-adv-x="909" 
d="M65 502h-65v114h65v84h173v-84h432v84h174v-84h65v-114h-65v-502h-174v279h-432v-279h-173v502zM238 502v-80h432v80h-432z" />
    <glyph glyph-name="hbar" unicode="&#x127;" horiz-adv-x="651" 
d="M43 561h-48v102h48v37h158v-37h190v-102h-190v-120h6q39 99 183 99q107 0 164.5 -45.5t57.5 -160.5v-334h-158v301q0 66 -29 88t-90 22q-69 0 -101.5 -29t-32.5 -102v-280h-158v561z" />
    <glyph glyph-name="Itilde" unicode="&#x128;" horiz-adv-x="303" 
d="M232 739q-36 0 -86.5 18.5t-65.5 18.5t-22.5 -5.5t-12.5 -23.5h-99q8 63 36.5 88.5t84.5 25.5q35 0 87 -18.5t65 -18.5q15 0 23 6t12 24h104q-8 -63 -39 -89t-87 -26zM238 700v-700h-173v700h173z" />
    <glyph glyph-name="itilde" unicode="&#x129;" horiz-adv-x="251" 
d="M205 579q-35 0 -87 18.5t-65 18.5q-16 0 -23.5 -5.5t-11.5 -23.5h-99q8 63 36.5 88.5t84.5 25.5q35 0 87 -18.5t65 -18.5q15 0 22.5 6t12.5 24h104q-8 -63 -39 -89t-87 -26zM46 530h158v-530h-158v530z" />
    <glyph glyph-name="Imacron" unicode="&#x12a;" horiz-adv-x="303" 
d="M343 840v-73h-383v73h383zM238 700v-700h-173v700h173z" />
    <glyph glyph-name="imacron" unicode="&#x12b;" horiz-adv-x="251" 
d="M316 673v-73h-383v73h383zM46 530h158v-530h-158v530z" />
    <glyph glyph-name="Ibreve" unicode="&#x12c;" horiz-adv-x="303" 
d="M152 731q-107 0 -153.5 30.5t-53.5 98.5h124q4 -50 83 -50q41 0 60.5 12t22.5 38h124q-8 -68 -54.5 -98.5t-152.5 -30.5zM238 700v-700h-173v700h173z" />
    <glyph glyph-name="ibreve" unicode="&#x12d;" horiz-adv-x="251" 
d="M125 571q-110 0 -154 31q-46 32 -53 98h124q4 -50 83 -50q41 0 60.5 12t22.5 38h124q-9 -69 -54.5 -99t-152.5 -30zM46 530h158v-530h-158v530z" />
    <glyph glyph-name="Iogonek" unicode="&#x12e;" horiz-adv-x="303" 
d="M238 700v-700h-1q-58 -11 -73 -20t-15 -25q0 -13 7.5 -18.5t27.5 -5.5h53v-71h-111q-63 0 -91.5 16.5t-28.5 55.5q0 27 12 45t47 33v690h173z" />
    <glyph glyph-name="iogonek" unicode="&#x12f;" horiz-adv-x="251" 
d="M46 700h158v-109h-158v109zM205 -69v-71h-111q-63 0 -91.5 16.5t-28.5 55.5q0 30 14 48.5t58 34.5v515h158v-479h1v-51q-58 -11 -73 -20t-15 -25q0 -13 7.5 -18.5t27.5 -5.5h53z" />
    <glyph glyph-name="Idot" unicode="&#x130;" horiz-adv-x="303" 
d="M72 858h159v-109h-159v109zM238 700v-700h-173v700h173z" />
    <glyph glyph-name="dotlessi" unicode="&#x131;" horiz-adv-x="251" 
d="M46 530h158v-530h-158v530z" />
    <glyph glyph-name="IJ" unicode="&#x132;" horiz-adv-x="824" 
d="M238 700v-700h-173v700h173zM455 0h-142v143h86q120 0 159.5 30.5t39.5 117.5v409h175v-401q0 -114 -27 -176.5t-95.5 -92.5t-195.5 -30z" />
    <glyph glyph-name="ij" unicode="&#x133;" horiz-adv-x="506" 
d="M46 700h158v-109h-158v109zM301 700h158v-109h-158v109zM46 530h158v-530h-158v530zM301 530h158v-409q0 -115 -13.5 -168.5t-61.5 -122.5h-161q48 69 63 119.5t15 136.5v444z" />
    <glyph glyph-name="Jcircumflex" unicode="&#x134;" horiz-adv-x="521" 
d="M494 860l118 -120h-142l-87 73l-87 -73h-142l118 120h222zM152 0h-142v143h86q121 0 160 30t39 118v409h175v-401q0 -114 -27 -176.5t-95.5 -92.5t-195.5 -30z" />
    <glyph glyph-name="jcircumflex" unicode="&#x135;" horiz-adv-x="255" 
d="M238 700l118 -120h-142l-87 73l-87 -73h-142l118 120h222zM48 530h158v-409q0 -115 -13 -167t-62 -124h-160q47 70 62 120.5t15 135.5v444z" />
    <glyph glyph-name="Kcommaaccent" unicode="&#x136;" horiz-adv-x="897" 
d="M238 214v-214h-173v700h173v-302h6l394 302h242l-374 -283l384 -417h-234l-287 310h-6zM475 -152l-18 -18h-91l49 53v8h-71v73h174v-19q0 -32 -9 -50.5t-34 -46.5z" />
    <glyph glyph-name="kcommaaccent" unicode="&#x137;" horiz-adv-x="674" 
d="M204 137v-137h-158v700h158v-392h5l241 222h199l-246 -217l264 -313h-202l-173 211h-5zM369 -152l-18 -18h-91l49 53v8h-71v73h174v-19q0 -32 -9 -50.5t-34 -46.5z" />
    <glyph glyph-name="Lacute" unicode="&#x139;" horiz-adv-x="703" 
d="M354 860l-124 -120h-156l89 120h191zM678 147v-147h-613v700h173v-553h440z" />
    <glyph glyph-name="lacute" unicode="&#x13a;" horiz-adv-x="251" 
d="M327 860l-124 -120h-156l89 120h191zM204 700v-700h-158v700h158z" />
    <glyph glyph-name="Lcommaaccent" unicode="&#x13b;" horiz-adv-x="703" 
d="M678 147v-147h-613v700h173v-553h440zM412 -152l-18 -18h-91l49 53v8h-71v73h174v-19q0 -32 -9 -50.5t-34 -46.5z" />
    <glyph glyph-name="lcommaaccent" unicode="&#x13c;" horiz-adv-x="251" 
d="M204 700v-700h-158v700h158zM169 -152l-18 -18h-91l49 53v8h-71v73h174v-19q0 -32 -9 -50.5t-34 -46.5z" />
    <glyph glyph-name="Lcaron" unicode="&#x13d;" horiz-adv-x="721" 
d="M609 701l-76 -218h-123l34 218h165zM678 147v-147h-613v700h173v-553h440z" />
    <glyph glyph-name="lcaron" unicode="&#x13e;" horiz-adv-x="462" 
d="M204 700v-700h-158v700h158zM456 700l-76 -218h-123l34 218h165z" />
    <glyph glyph-name="Ldot" unicode="&#x13f;" horiz-adv-x="715" 
d="M678 147v-147h-613v700h173v-553h440zM431 483h154v-109h-154v109z" />
    <glyph glyph-name="ldot" unicode="&#x140;" horiz-adv-x="479" 
d="M204 700v-700h-158v700h158zM286 329h154v-109h-154v109z" />
    <glyph glyph-name="Lslash" unicode="&#x141;" horiz-adv-x="703" 
d="M65 271l-65 -15v119l65 15v310h173v-271l242 55v-118l-242 -55v-164h440v-147h-613v271z" />
    <glyph glyph-name="lslash" unicode="&#x142;" horiz-adv-x="278" 
d="M210 380v-380h-158v270l-49 -34v112l49 34v318h158v-207l68 47v-113z" />
    <glyph glyph-name="Nacute" unicode="&#x143;" horiz-adv-x="945" 
d="M683 860l-124 -120h-156l89 120h191zM883 700v-700h-264l-381 530h-7v-530h-170v700h264l381 -531h7v531h170z" />
    <glyph glyph-name="nacute" unicode="&#x144;" horiz-adv-x="651" 
d="M538 700l-124 -120h-156l89 120h191zM612 334v-334h-158v301q0 66 -29 88t-90 22q-69 0 -101.5 -29t-32.5 -102v-280h-158v530h158v-89h6q39 99 183 99q107 0 164.5 -45.5t57.5 -160.5z" />
    <glyph glyph-name="Ncommaaccent" unicode="&#x145;" horiz-adv-x="945" 
d="M883 700v-700h-264l-381 530h-7v-530h-170v700h264l381 -531h7v531h170zM509 -152l-18 -18h-91l49 53v8h-71v73h174v-19q0 -32 -9 -50.5t-34 -46.5z" />
    <glyph glyph-name="ncommaaccent" unicode="&#x146;" horiz-adv-x="651" 
d="M612 334v-334h-158v301q0 66 -29 88t-90 22q-69 0 -101.5 -29t-32.5 -102v-280h-158v530h158v-89h6q39 99 183 99q107 0 164.5 -45.5t57.5 -160.5zM368 -152l-18 -18h-91l49 53v8h-71v73h174v-19q0 -32 -9 -50.5t-34 -46.5z" />
    <glyph glyph-name="Ncaron" unicode="&#x147;" horiz-adv-x="945" 
d="M481 787l87 73h142l-118 -120h-222l-118 120h142zM883 700v-700h-264l-381 530h-7v-530h-170v700h264l381 -531h7v531h170z" />
    <glyph glyph-name="ncaron" unicode="&#x148;" horiz-adv-x="651" 
d="M335 627l87 73h142l-118 -120h-222l-118 120h142zM612 334v-334h-158v301q0 66 -29 88t-90 22q-69 0 -101.5 -29t-32.5 -102v-280h-158v530h158v-89h6q39 99 183 99q107 0 164.5 -45.5t57.5 -160.5z" />
    <glyph glyph-name="Eng" unicode="&#x14a;" horiz-adv-x="950" 
d="M567 -169h-149v140h118q81 0 96 15l-391 544h-7v-530h-169v700h261l383 -531h7v531h169v-570q0 -114 -26.5 -176.5t-95.5 -92.5t-196 -30z" />
    <glyph glyph-name="eng" unicode="&#x14b;" horiz-adv-x="651" 
d="M201 287v-287h-158v530h158v-87h5q41 97 181 97q109 0 167 -45.5t58 -161.5v-284q0 -120 -55.5 -169.5t-185.5 -49.5h-63v120h7q80 0 109.5 23t29.5 93v233q0 67 -29.5 89.5t-94.5 22.5t-97 -26.5t-32 -97.5z" />
    <glyph glyph-name="Omacron" unicode="&#x14c;" horiz-adv-x="924" 
d="M652 840v-73h-383v73h383zM489 -10h-55q-207 0 -297 77t-90 256v54q0 179 90 256t297 77h55q207 0 297 -77t90 -256v-54q0 -179 -90 -256t-297 -77zM447 133h30q92 1 141 24t65.5 63.5t16.5 113.5v31q0 56 -9 91t-33 61.5t-68 38t-113 11.5h-30q-135 0 -179.5 -45.5
t-44.5 -156.5v-31q0 -55 8.5 -90t32.5 -61.5t68.5 -38t114.5 -11.5z" />
    <glyph glyph-name="omacron" unicode="&#x14d;" horiz-adv-x="695" 
d="M539 673v-73h-383v73h383zM366 -10h-38q-150 0 -222.5 62t-72.5 201v24q0 139 72 201t224 62h37q150 0 222.5 -62t72.5 -201v-24q0 -139 -72.5 -201t-222.5 -62zM348 118q84 0 119.5 27.5t35.5 111.5v16q0 84 -35.5 111.5t-119.5 27.5q-85 0 -121 -27.5t-36 -111.5v-16
q0 -84 36 -111.5t121 -27.5z" />
    <glyph glyph-name="Obreve" unicode="&#x14e;" horiz-adv-x="924" 
d="M461 731q-110 0 -154 31q-46 32 -53 98h124q4 -50 83 -50q41 0 60.5 12t22.5 38h124q-9 -69 -54.5 -99t-152.5 -30zM489 -10h-55q-207 0 -297 77t-90 256v54q0 179 90 256t297 77h55q207 0 297 -77t90 -256v-54q0 -179 -90 -256t-297 -77zM447 133h30q92 1 141 24
t65.5 63.5t16.5 113.5v31q0 56 -9 91t-33 61.5t-68 38t-113 11.5h-30q-135 0 -179.5 -45.5t-44.5 -156.5v-31q0 -55 8.5 -90t32.5 -61.5t68.5 -38t114.5 -11.5z" />
    <glyph glyph-name="obreve" unicode="&#x14f;" horiz-adv-x="695" 
d="M348 571q-107 0 -153.5 30.5t-53.5 98.5h124q4 -50 83 -50q41 0 60.5 12t22.5 38h124q-8 -68 -54.5 -98.5t-152.5 -30.5zM366 -10h-38q-150 0 -222.5 62t-72.5 201v24q0 139 72 201t224 62h37q150 0 222.5 -62t72.5 -201v-24q0 -139 -72.5 -201t-222.5 -62zM348 118
q84 0 119.5 27.5t35.5 111.5v16q0 84 -35.5 111.5t-119.5 27.5q-85 0 -121 -27.5t-36 -111.5v-16q0 -84 36 -111.5t121 -27.5z" />
    <glyph glyph-name="Ohungarumlaut" unicode="&#x150;" horiz-adv-x="924" 
d="M536 860l-124 -120h-156l89 120h191zM778 860l-125 -120h-156l90 120h191zM489 -10h-55q-207 0 -297 77t-90 256v54q0 179 90 256t297 77h55q207 0 297 -77t90 -256v-54q0 -179 -90 -256t-297 -77zM447 133h30q92 1 141 24t65.5 63.5t16.5 113.5v31q0 56 -9 91t-33 61.5
t-68 38t-113 11.5h-30q-135 0 -179.5 -45.5t-44.5 -156.5v-31q0 -55 8.5 -90t32.5 -61.5t68.5 -38t114.5 -11.5z" />
    <glyph glyph-name="ohungarumlaut" unicode="&#x151;" horiz-adv-x="695" 
d="M430 700l-124 -120h-156l89 120h191zM672 700l-125 -120h-156l90 120h191zM366 -10h-38q-150 0 -222.5 62t-72.5 201v24q0 139 72 201t224 62h37q150 0 222.5 -62t72.5 -201v-24q0 -139 -72.5 -201t-222.5 -62zM348 118q84 0 119.5 27.5t35.5 111.5v16q0 84 -35.5 111.5
t-119.5 27.5q-85 0 -121 -27.5t-36 -111.5v-16q0 -84 36 -111.5t121 -27.5z" />
    <glyph glyph-name="OE" unicode="&#x152;" horiz-adv-x="1358" 
d="M1305 138v-138h-873q-207 0 -295.5 77t-88.5 256v34q0 180 87 256.5t293 76.5h877v-138h-480v-143h480v-137h-480v-144h480zM452 140h200v420h-200q-70 0 -115 -12t-70 -38.5t-34 -62.5t-9 -91v-11q0 -55 9 -91t34 -63t70 -39t115 -12z" />
    <glyph glyph-name="oe" unicode="&#x153;" horiz-adv-x="1141" 
d="M366 -10h-37q-151 0 -223.5 62t-72.5 201v24q0 139 72.5 201t223.5 62h38q156 0 216 -69h4q60 69 214 69h15q147 0 219.5 -58.5t72.5 -201.5v-47h-442q3 -75 35.5 -99.5t107.5 -24.5q60 0 90.5 11t44.5 39h160q-22 -85 -88.5 -127t-198.5 -42h-16q-156 0 -214 70h-4
q-58 -70 -217 -70zM807 432q-68 0 -101 -22t-39 -84h283v4q0 57 -36.5 79.5t-106.5 22.5zM348 118q84 0 119.5 27.5t35.5 111.5v16q0 84 -35.5 111.5t-119.5 27.5q-85 0 -121 -27.5t-36 -111.5v-16q0 -84 36 -111.5t121 -27.5z" />
    <glyph glyph-name="Racute" unicode="&#x154;" horiz-adv-x="865" 
d="M632 860l-124 -120h-156l89 120h191zM238 247v-247h-173v700h480q146 0 206.5 -41.5t60.5 -139.5v-26q0 -78 -31 -115.5t-100 -45.5v-6q72 -10 101.5 -41.5t29.5 -119.5v-165h-174v151q0 58 -27.5 77t-116.5 19h-256zM495 562h-257v-178h283q66 0 91.5 18.5t25.5 66.5v5
q0 53 -29 70.5t-114 17.5z" />
    <glyph glyph-name="racute" unicode="&#x155;" horiz-adv-x="431" 
d="M463 700l-124 -120h-156l89 120h191zM392 530h29v-134h-63q-84 0 -120.5 -28t-36.5 -102v-266h-158v530h158v-88h5q18 47 62.5 67.5t123.5 20.5z" />
    <glyph glyph-name="Rcommaaccent" unicode="&#x156;" horiz-adv-x="865" 
d="M238 247v-247h-173v700h480q146 0 206.5 -41.5t60.5 -139.5v-26q0 -78 -31 -115.5t-100 -45.5v-6q72 -10 101.5 -41.5t29.5 -119.5v-165h-174v151q0 58 -27.5 77t-116.5 19h-256zM495 562h-257v-178h283q66 0 91.5 18.5t25.5 66.5v5q0 53 -29 70.5t-114 17.5zM478 -152
l-18 -18h-91l49 53v8h-71v73h174v-19q0 -32 -9 -50.5t-34 -46.5z" />
    <glyph glyph-name="rcommaaccent" unicode="&#x157;" horiz-adv-x="431" 
d="M392 530h29v-134h-63q-84 0 -120.5 -28t-36.5 -102v-266h-158v530h158v-88h5q18 47 62.5 67.5t123.5 20.5zM166 -152l-18 -18h-91l49 53v8h-71v73h174v-19q0 -32 -9 -50.5t-34 -46.5z" />
    <glyph glyph-name="Rcaron" unicode="&#x158;" horiz-adv-x="865" 
d="M430 787l87 73h142l-118 -120h-222l-118 120h142zM238 247v-247h-173v700h480q146 0 206.5 -41.5t60.5 -139.5v-26q0 -78 -31 -115.5t-100 -45.5v-6q72 -10 101.5 -41.5t29.5 -119.5v-165h-174v151q0 58 -27.5 77t-116.5 19h-256zM495 562h-257v-178h283q66 0 91.5 18.5
t25.5 66.5v5q0 53 -29 70.5t-114 17.5z" />
    <glyph glyph-name="rcaron" unicode="&#x159;" horiz-adv-x="431" 
d="M259 627l87 73h142l-118 -120h-222l-118 120h142zM392 530h29v-134h-63q-84 0 -120.5 -28t-36.5 -102v-266h-158v530h158v-88h5q18 47 62.5 67.5t123.5 20.5z" />
    <glyph glyph-name="Sacute" unicode="&#x15a;" horiz-adv-x="838" 
d="M624 860l-124 -120h-156l89 120h191zM439 -10h-29q-77 0 -137.5 9.5t-111.5 32t-83 63t-41 98.5h184q16 -43 65 -56.5t146 -13.5q103 0 149 18t46 64v8q0 35 -23.5 51t-86.5 19l-206 7q-134 4 -194 49.5t-60 140.5v7q0 118 84 170.5t263 52.5h24q328 0 363 -210h-184
q-14 44 -61 60.5t-136 16.5q-99 0 -137.5 -18t-38.5 -60v-3q0 -35 23 -51t87 -18l206 -8q135 -5 194 -49.5t59 -138.5v-9q0 -127 -90.5 -179.5t-273.5 -52.5z" />
    <glyph glyph-name="sacute" unicode="&#x15b;" horiz-adv-x="659" 
d="M544 700l-124 -120h-156l89 120h191zM340 -10h-15q-137 0 -205.5 35t-88.5 119h165q24 -46 141 -46q75 0 103.5 12.5t28.5 44.5v5q0 25 -20 36t-76 13l-137 5q-107 3 -149 40t-42 110v9q0 89 69.5 128t210.5 39h10q128 0 194.5 -35t90.5 -119h-166q-14 26 -43 36t-84 10
q-66 0 -94 -12t-28 -40v-4q0 -26 20.5 -37t75.5 -12l137 -5q108 -4 149.5 -40.5t41.5 -110.5v-8q0 -94 -70.5 -133.5t-218.5 -39.5z" />
    <glyph glyph-name="Scircumflex" unicode="&#x15c;" horiz-adv-x="838" 
d="M531 860l118 -120h-142l-87 73l-87 -73h-142l118 120h222zM439 -10h-29q-77 0 -137.5 9.5t-111.5 32t-83 63t-41 98.5h184q16 -43 65 -56.5t146 -13.5q103 0 149 18t46 64v8q0 35 -23.5 51t-86.5 19l-206 7q-134 4 -194 49.5t-60 140.5v7q0 118 84 170.5t263 52.5h24
q328 0 363 -210h-184q-14 44 -61 60.5t-136 16.5q-99 0 -137.5 -18t-38.5 -60v-3q0 -35 23 -51t87 -18l206 -8q135 -5 194 -49.5t59 -138.5v-9q0 -127 -90.5 -179.5t-273.5 -52.5z" />
    <glyph glyph-name="scircumflex" unicode="&#x15d;" horiz-adv-x="659" 
d="M442 700l118 -120h-142l-87 73l-87 -73h-142l118 120h222zM340 -10h-15q-137 0 -205.5 35t-88.5 119h165q24 -46 141 -46q75 0 103.5 12.5t28.5 44.5v5q0 25 -20 36t-76 13l-137 5q-107 3 -149 40t-42 110v9q0 89 69.5 128t210.5 39h10q128 0 194.5 -35t90.5 -119h-166
q-14 26 -43 36t-84 10q-66 0 -94 -12t-28 -40v-4q0 -26 20.5 -37t75.5 -12l137 -5q108 -4 149.5 -40.5t41.5 -110.5v-8q0 -94 -70.5 -133.5t-218.5 -39.5z" />
    <glyph glyph-name="Scedilla" unicode="&#x15e;" horiz-adv-x="838" 
d="M803 231v-9q0 -117 -77.5 -170t-233.5 -61l-41 -131h-158l56 132q-283 14 -312 201h184q16 -43 65 -56.5t146 -13.5q103 0 149 18t46 64v8q0 35 -23.5 51t-86.5 19l-206 7q-134 4 -194 49.5t-60 140.5v7q0 118 84 170.5t263 52.5h24q328 0 363 -210h-184q-14 44 -61 60.5
t-136 16.5q-99 0 -137.5 -18t-38.5 -60v-3q0 -35 23 -51t87 -18l206 -8q135 -5 194 -49.5t59 -138.5z" />
    <glyph glyph-name="scedilla" unicode="&#x15f;" horiz-adv-x="659" 
d="M629 171v-8q0 -82 -53.5 -122.5t-163.5 -48.5l-42 -132h-158l56 132q-106 6 -162.5 41.5t-74.5 110.5h165q24 -46 141 -46q75 0 103.5 12.5t28.5 44.5v5q0 25 -20 36t-76 13l-137 5q-107 3 -149 40t-42 110v9q0 89 69.5 128t210.5 39h10q128 0 194.5 -35t90.5 -119h-166
q-14 26 -43 36t-84 10q-66 0 -94 -12t-28 -40v-4q0 -26 20.5 -37t75.5 -12l137 -5q108 -4 149.5 -40.5t41.5 -110.5z" />
    <glyph glyph-name="Scaron" unicode="&#x160;" horiz-adv-x="838" 
d="M420 787l87 73h142l-118 -120h-222l-118 120h142zM439 -10h-29q-77 0 -137.5 9.5t-111.5 32t-83 63t-41 98.5h184q16 -43 65 -56.5t146 -13.5q103 0 149 18t46 64v8q0 35 -23.5 51t-86.5 19l-206 7q-134 4 -194 49.5t-60 140.5v7q0 118 84 170.5t263 52.5h24
q328 0 363 -210h-184q-14 44 -61 60.5t-136 16.5q-99 0 -137.5 -18t-38.5 -60v-3q0 -35 23 -51t87 -18l206 -8q135 -5 194 -49.5t59 -138.5v-9q0 -127 -90.5 -179.5t-273.5 -52.5z" />
    <glyph glyph-name="scaron" unicode="&#x161;" horiz-adv-x="659" 
d="M331 627l87 73h142l-118 -120h-222l-118 120h142zM340 -10h-15q-137 0 -205.5 35t-88.5 119h165q24 -46 141 -46q75 0 103.5 12.5t28.5 44.5v5q0 25 -20 36t-76 13l-137 5q-107 3 -149 40t-42 110v9q0 89 69.5 128t210.5 39h10q128 0 194.5 -35t90.5 -119h-166
q-14 26 -43 36t-84 10q-66 0 -94 -12t-28 -40v-4q0 -26 20.5 -37t75.5 -12l137 -5q108 -4 149.5 -40.5t41.5 -110.5v-8q0 -94 -70.5 -133.5t-218.5 -39.5z" />
    <glyph glyph-name="Tcaron" unicode="&#x164;" horiz-adv-x="755" 
d="M376 787l87 73h142l-118 -120h-222l-118 120h142zM464 553v-553h-174v553h-272v147h719v-147h-273z" />
    <glyph glyph-name="tcaron" unicode="&#x165;" horiz-adv-x="451" 
d="M525 794l-76 -218h-123l34 218h165zM122 409h-108v121h108v170h158v-170h145v-121h-145v-193q0 -61 22 -79t86 -18h37v-119h-90q-120 0 -166.5 41.5t-46.5 141.5v226z" />
    <glyph glyph-name="Tbar" unicode="&#x166;" horiz-adv-x="755" 
d="M290 268h-198v116h198v169h-272v147h719v-147h-273v-169h199v-116h-199v-268h-174v268z" />
    <glyph glyph-name="tbar" unicode="&#x167;" horiz-adv-x="451" 
d="M122 229h-91v101h91v79h-108v121h108v170h158v-170h145v-121h-145v-79h130v-101h-130v-13q0 -61 22 -79t86 -18h37v-119h-90q-120 0 -166.5 41.5t-46.5 141.5v46z" />
    <glyph glyph-name="Utilde" unicode="&#x168;" horiz-adv-x="850" 
d="M506 739q-36 0 -87 18.5t-65 18.5q-15 0 -22.5 -5.5t-12.5 -23.5h-99q8 63 36.5 88.5t84.5 25.5q35 0 87 -18.5t65 -18.5q15 0 23 6t12 24h104q-8 -63 -39 -89t-87 -26zM456 -10h-62q-194 0 -269 67.5t-75 236.5v406h177v-397q0 -97 38 -133t145 -36h30q106 0 144 36
t38 133v397h177v-406q0 -169 -75.5 -236.5t-267.5 -67.5z" />
    <glyph glyph-name="utilde" unicode="&#x169;" horiz-adv-x="651" 
d="M406 579q-36 0 -87 18.5t-65 18.5q-15 0 -22.5 -5.5t-12.5 -23.5h-99q8 63 36.5 88.5t84.5 25.5q35 0 87 -18.5t65 -18.5q15 0 23 6t12 24h104q-8 -63 -39 -89t-87 -26zM39 196v334h158v-301q0 -66 29 -88t90 -22q69 0 101.5 29t32.5 102v280h158v-530h-158v89h-6
q-42 -99 -183 -99q-107 0 -164.5 45.5t-57.5 160.5z" />
    <glyph glyph-name="Umacron" unicode="&#x16a;" horiz-adv-x="850" 
d="M617 840v-73h-383v73h383zM456 -10h-62q-194 0 -269 67.5t-75 236.5v406h177v-397q0 -97 38 -133t145 -36h30q106 0 144 36t38 133v397h177v-406q0 -169 -75.5 -236.5t-267.5 -67.5z" />
    <glyph glyph-name="umacron" unicode="&#x16b;" horiz-adv-x="651" 
d="M517 673v-73h-383v73h383zM39 196v334h158v-301q0 -66 29 -88t90 -22q69 0 101.5 29t32.5 102v280h158v-530h-158v89h-6q-42 -99 -183 -99q-107 0 -164.5 45.5t-57.5 160.5z" />
    <glyph glyph-name="Ubreve" unicode="&#x16c;" horiz-adv-x="850" 
d="M426 731q-107 0 -153.5 30.5t-53.5 98.5h124q4 -50 83 -50q41 0 60.5 12t22.5 38h124q-8 -68 -54.5 -98.5t-152.5 -30.5zM456 -10h-62q-194 0 -269 67.5t-75 236.5v406h177v-397q0 -97 38 -133t145 -36h30q106 0 144 36t38 133v397h177v-406q0 -169 -75.5 -236.5
t-267.5 -67.5z" />
    <glyph glyph-name="ubreve" unicode="&#x16d;" horiz-adv-x="651" 
d="M326 571q-107 0 -153.5 30.5t-53.5 98.5h124q4 -50 83 -50q41 0 60.5 12t22.5 38h124q-8 -68 -54.5 -98.5t-152.5 -30.5zM39 196v334h158v-301q0 -66 29 -88t90 -22q69 0 101.5 29t32.5 102v280h158v-530h-158v89h-6q-42 -99 -183 -99q-107 0 -164.5 45.5t-57.5 160.5z
" />
    <glyph glyph-name="Uring" unicode="&#x16e;" horiz-adv-x="850" 
d="M426 722q-83 0 -123 25.5t-40 82.5t40 82.5t123 25.5q82 0 122 -25.5t40 -82.5t-40 -82.5t-122 -25.5zM426 787q62 0 62 43t-62 43t-62 -43t62 -43zM456 -10h-62q-194 0 -269 67.5t-75 236.5v406h177v-397q0 -97 38 -133t145 -36h30q106 0 144 36t38 133v397h177v-406
q0 -169 -75.5 -236.5t-267.5 -67.5z" />
    <glyph glyph-name="uring" unicode="&#x16f;" horiz-adv-x="651" 
d="M326 562q-83 0 -123 25t-40 83t40 83t123 25t122.5 -25t39.5 -83t-39.5 -83t-122.5 -25zM326 627q62 0 62 43t-62 43t-62 -43t62 -43zM39 196v334h158v-301q0 -66 29 -88t90 -22q69 0 101.5 29t32.5 102v280h158v-530h-158v89h-6q-42 -99 -183 -99q-107 0 -164.5 45.5
t-57.5 160.5z" />
    <glyph glyph-name="Uhungarumlaut" unicode="&#x170;" horiz-adv-x="850" 
d="M500 860l-124 -120h-156l89 120h191zM742 860l-125 -120h-156l90 120h191zM456 -10h-62q-194 0 -269 67.5t-75 236.5v406h177v-397q0 -97 38 -133t145 -36h30q106 0 144 36t38 133v397h177v-406q0 -169 -75.5 -236.5t-267.5 -67.5z" />
    <glyph glyph-name="uhungarumlaut" unicode="&#x171;" horiz-adv-x="651" 
d="M406 700l-124 -120h-156l89 120h191zM648 700l-125 -120h-156l90 120h191zM39 196v334h158v-301q0 -66 29 -88t90 -22q69 0 101.5 29t32.5 102v280h158v-530h-158v89h-6q-42 -99 -183 -99q-107 0 -164.5 45.5t-57.5 160.5z" />
    <glyph glyph-name="Uogonek" unicode="&#x172;" horiz-adv-x="850" 
d="M546 -69v-71h-130q-52 0 -76 16t-24 53q0 40 37 61v5h-8q-157 0 -226 69t-69 230v406h177v-397q0 -97 38 -133t145 -36h30q106 0 144 36t38 133v397h177v-406q0 -149 -56 -213.5t-198 -87.5q-56 -10 -71.5 -18.5t-15.5 -23.5q0 -11 8 -15.5t28 -4.5h52z" />
    <glyph glyph-name="uogonek" unicode="&#x173;" horiz-adv-x="651" 
d="M39 196v334h158v-301q0 -66 29 -88t90 -22q69 0 101.5 29t32.5 102v280h158v-530q-57 -11 -72.5 -20t-15.5 -25q0 -24 35 -24h53v-71h-111q-63 0 -91.5 16.5t-28.5 55.5q0 30 14 48.5t59 34.5v74h-6q-42 -99 -183 -99q-107 0 -164.5 45.5t-57.5 160.5z" />
    <glyph glyph-name="Wcircumflex" unicode="&#x174;" horiz-adv-x="1256" 
d="M746 860l118 -120h-142l-87 73l-87 -73h-142l118 120h222zM1241 700l-208 -700h-229l-172 490l-174 -490h-235l-209 700h189l147 -528h7l181 528h195l182 -528h6l145 528h175z" />
    <glyph glyph-name="wcircumflex" unicode="&#x175;" horiz-adv-x="995" 
d="M616 700l118 -120h-142l-87 73l-87 -73h-142l118 120h222zM988 530l-159 -530h-200l-126 354l-126 -354h-210l-161 530h175l105 -373h6l131 373h167l130 -373h6l106 373h156z" />
    <glyph glyph-name="Ycircumflex" unicode="&#x176;" horiz-adv-x="855" 
d="M539 860l118 -120h-142l-87 73l-87 -73h-142l118 120h222zM514 302v-302h-174v302l-328 398h209l213 -265h6l213 265h190z" />
    <glyph glyph-name="ycircumflex" unicode="&#x177;" horiz-adv-x="622" 
d="M430 700l118 -120h-142l-87 73l-87 -73h-142l118 120h222zM626 530l-315 -700h-166l86 171l-234 529h170l147 -353h7l143 353h162z" />
    <glyph glyph-name="Ydieresis" unicode="&#x178;" horiz-adv-x="855" 
d="M255 858h131v-109h-131v109zM470 858h131v-109h-131v109zM514 302v-302h-174v302l-328 398h209l213 -265h6l213 265h190z" />
    <glyph glyph-name="Zacute" unicode="&#x179;" horiz-adv-x="814" 
d="M614 860l-124 -120h-156l89 120h191zM771 141v-141h-726v132l469 427h-443v141h683v-132l-469 -427h486z" />
    <glyph glyph-name="zacute" unicode="&#x17a;" horiz-adv-x="608" 
d="M507 700l-124 -120h-156l89 120h191zM579 121v-121h-548v117l325 292h-308v121h514v-117l-325 -292h342z" />
    <glyph glyph-name="Zdotaccent" unicode="&#x17b;" horiz-adv-x="814" 
d="M333 858h159v-109h-159v109zM771 141v-141h-726v132l469 427h-443v141h683v-132l-469 -427h486z" />
    <glyph glyph-name="zdotaccent" unicode="&#x17c;" horiz-adv-x="608" 
d="M225 691h159v-109h-159v109zM579 121v-121h-548v117l325 292h-308v121h514v-117l-325 -292h342z" />
    <glyph glyph-name="Zcaron" unicode="&#x17d;" horiz-adv-x="814" 
d="M412 787l87 73h142l-118 -120h-222l-118 120h142zM771 141v-141h-726v132l469 427h-443v141h683v-132l-469 -427h486z" />
    <glyph glyph-name="zcaron" unicode="&#x17e;" horiz-adv-x="608" 
d="M305 627l87 73h142l-118 -120h-222l-118 120h142zM579 121v-121h-548v117l325 292h-308v121h514v-117l-325 -292h342z" />
    <glyph glyph-name="florin" unicode="&#x192;" 
d="M426 308v-413h-163v413h-240v84h240q0 170 74.5 239t241.5 69h170v-137h-148q-96 0 -135.5 -33.5t-39.5 -119.5v-18h324v-84h-324z" />
    <glyph glyph-name="Aringacute" unicode="&#x1fa;" horiz-adv-x="947" 
d="M676 1080l-124 -120h-156l89 120h191zM474 722q-83 0 -123 25.5t-40 82.5t40 82.5t123 25.5q82 0 122 -25.5t40 -82.5t-40 -82.5t-122 -25.5zM474 787q62 0 62 43t-62 43t-62 -43t62 -43zM605 700l330 -700h-195l-72 158h-393l-73 -158h-190l329 700h264zM475 574h-7
l-129 -278h264z" />
    <glyph glyph-name="aringacute" unicode="&#x1fb;" horiz-adv-x="654" 
d="M539 920l-124 -120h-156l89 120h191zM337 559q-83 0 -123 25t-40 83t40 83t123 25t122.5 -25t39.5 -83t-39.5 -83t-122.5 -25zM337 624q34 0 48 10t14 33t-14 33t-48 10q-35 0 -48.5 -9.5t-13.5 -33.5t13.5 -33.5t48.5 -9.5zM615 324v-324h-156v80h-5q-40 -90 -207 -90
q-221 0 -221 166v6q1 76 45.5 114t138.5 43l247 10v10q0 55 -29 73.5t-98 18.5q-57 0 -84.5 -13t-39.5 -44h-160q22 87 87 126.5t198 39.5h15q146 0 207.5 -47t61.5 -169zM186 166v-5q0 -69 113 -69q77 0 117.5 30t40.5 85v26l-188 -7q-45 -2 -64 -16t-19 -44z" />
    <glyph glyph-name="AEacute" unicode="&#x1fc;" horiz-adv-x="1277" 
d="M860 860l-124 -120h-156l89 120h191zM1224 138v-138h-653v159h-269l-100 -159h-199l448 700h773v-138h-480v-143h480v-137h-480v-144h480zM571 571h-11l-172 -274h183v274z" />
    <glyph glyph-name="aeacute" unicode="&#x1fd;" horiz-adv-x="1090" 
d="M738 700l-124 -120h-156l89 120h191zM766 -10h-16q-193 0 -252 103h-5q-59 -103 -237 -103q-230 0 -230 166v6q1 76 45.5 114t138.5 43l247 10v10q0 55 -29 73.5t-98 18.5q-57 0 -84.5 -13t-39.5 -44h-160q22 87 87 126.5t198 39.5h15q156 0 202 -60h4q51 60 198 60h15
q146 0 219 -59t73 -201v-47h-442q3 -75 36 -99.5t108 -24.5q60 0 90.5 11t44.5 39h159q-22 -85 -88 -127t-199 -42zM757 432q-69 0 -102 -21.5t-39 -84.5h283v4q0 57 -36 79.5t-106 22.5zM186 166v-5q0 -69 113 -69q77 0 117.5 30t40.5 85v26l-188 -7q-45 -2 -64 -16
t-19 -44z" />
    <glyph glyph-name="Oslashacute" unicode="&#x1fe;" horiz-adv-x="924" 
d="M663 860l-124 -120h-156l89 120h191zM206 -40h-159l91 106q-91 77 -91 257v54q0 179 90 256t297 77h55q109 0 184 -21l44 51h159l-91 -106q91 -77 91 -257v-54q0 -179 -90 -256t-297 -77h-55q-109 0 -184 21zM223 365v-31q0 -90 29 -136l311 363q-36 6 -86 6h-30
q-135 0 -179.5 -45.5t-44.5 -156.5zM447 133h30q92 1 141 24t65.5 63.5t16.5 113.5v31q0 95 -29 137l-311 -363q38 -6 87 -6z" />
    <glyph glyph-name="oslashacute" unicode="&#x1ff;" horiz-adv-x="696" 
d="M550 700l-124 -120h-156l89 120h191zM169 -40h-136l73 91q-73 63 -73 202v24q0 139 72 201t224 62h37q81 0 127 -14l33 40h135l-71 -89q71 -65 71 -200v-24q0 -139 -72.5 -201t-222.5 -62h-38q-73 0 -124 13zM191 273v-16q0 -56 17 -87l194 239q-24 3 -54 3
q-85 0 -121 -27.5t-36 -111.5zM348 118q84 0 119.5 27.5t35.5 111.5v16q0 54 -15 84l-192 -236q24 -3 52 -3z" />
    <glyph glyph-name="Scommaaccent" unicode="&#x218;" horiz-adv-x="838" 
d="M439 -10h-29q-77 0 -137.5 9.5t-111.5 32t-83 63t-41 98.5h184q16 -43 65 -56.5t146 -13.5q103 0 149 18t46 64v8q0 35 -23.5 51t-86.5 19l-206 7q-134 4 -194 49.5t-60 140.5v7q0 118 84 170.5t263 52.5h24q328 0 363 -210h-184q-14 44 -61 60.5t-136 16.5
q-99 0 -137.5 -18t-38.5 -60v-3q0 -35 23 -51t87 -18l206 -8q135 -5 194 -49.5t59 -138.5v-9q0 -127 -90.5 -179.5t-273.5 -52.5zM467 -152l-18 -18h-91l49 53v8h-71v73h174v-19q0 -32 -9 -50.5t-34 -46.5z" />
    <glyph glyph-name="scommaaccent" unicode="&#x219;" horiz-adv-x="659" 
d="M340 -10h-15q-137 0 -205.5 35t-88.5 119h165q24 -46 141 -46q75 0 103.5 12.5t28.5 44.5v5q0 25 -20 36t-76 13l-137 5q-107 3 -149 40t-42 110v9q0 89 69.5 128t210.5 39h10q128 0 194.5 -35t90.5 -119h-166q-14 26 -43 36t-84 10q-66 0 -94 -12t-28 -40v-4
q0 -26 20.5 -37t75.5 -12l137 -5q108 -4 149.5 -40.5t41.5 -110.5v-8q0 -94 -70.5 -133.5t-218.5 -39.5zM380 -152l-18 -18h-91l49 53v8h-71v73h174v-19q0 -32 -9 -50.5t-34 -46.5z" />
    <glyph glyph-name="Tcommaaccent" unicode="&#x21a;" horiz-adv-x="755" 
d="M464 553v-553h-174v553h-272v147h719v-147h-273zM421 -152l-18 -18h-91l49 53v8h-71v73h174v-19q0 -32 -9 -50.5t-34 -46.5z" />
    <glyph glyph-name="tcommaaccent" unicode="&#x21b;" horiz-adv-x="451" 
d="M122 409h-108v121h108v170h158v-170h145v-121h-145v-193q0 -61 22 -79t86 -18h37v-119h-90q-120 0 -166.5 41.5t-46.5 141.5v226zM330 -152l-18 -18h-91l49 53v8h-71v73h174v-19q0 -32 -9 -50.5t-34 -46.5z" />
    <glyph glyph-name="circumflex" unicode="&#x2c6;" horiz-adv-x="500" 
d="M361 700l118 -120h-142l-87 73l-87 -73h-142l118 120h222z" />
    <glyph glyph-name="caron" unicode="&#x2c7;" horiz-adv-x="500" 
d="M250 627l87 73h142l-118 -120h-222l-118 120h142z" />
    <glyph glyph-name="breve" unicode="&#x2d8;" horiz-adv-x="500" 
d="M250 571q-107 0 -153.5 30.5t-53.5 98.5h124q4 -50 83 -50q41 0 60.5 12t22.5 38h124q-8 -68 -54.5 -98.5t-152.5 -30.5z" />
    <glyph glyph-name="dotaccent" unicode="&#x2d9;" horiz-adv-x="500" 
d="M169 691h159v-109h-159v109z" />
    <glyph glyph-name="ring" unicode="&#x2da;" horiz-adv-x="500" 
d="M250 562q-83 0 -123 25t-40 83t40 83t123 25t122.5 -25t39.5 -83t-39.5 -83t-122.5 -25zM250 627q62 0 62 43t-62 43t-62 -43t62 -43z" />
    <glyph glyph-name="ogonek" unicode="&#x2db;" horiz-adv-x="500" 
d="M351 -69v-71h-111q-63 0 -91.5 16.5t-28.5 55.5q0 30 13 47.5t64.5 36t153.5 35.5v-51q-58 -11 -73 -20t-15 -25q0 -13 7.5 -18.5t27.5 -5.5h53z" />
    <glyph glyph-name="tilde" unicode="&#x2dc;" horiz-adv-x="500" 
d="M330 579q-36 0 -87 18.5t-65 18.5q-15 0 -22.5 -5.5t-12.5 -23.5h-99q8 63 36.5 88.5t84.5 25.5q35 0 87 -18.5t65 -18.5q15 0 23 6t12 24h104q-8 -63 -39 -89t-87 -26z" />
    <glyph glyph-name="hungarumlaut" unicode="&#x2dd;" horiz-adv-x="500" 
d="M269 700l-124 -120h-156l89 120h191zM511 700l-125 -120h-156l90 120h191z" />
    <glyph glyph-name="commaaccent" unicode="&#x326;" horiz-adv-x="500" 
d="M299 -152l-18 -18h-91l49 53v8h-71v73h174v-19q0 -32 -9 -50.5t-34 -46.5z" />
    <glyph glyph-name="pi" unicode="&#x3c0;" horiz-adv-x="751" 
d="M728 123v-123h-67q-121 0 -165.5 44t-44.5 157v200h-181v-401h-158v401h-86v129h702v-129h-119v-175q0 -65 21 -84t81 -19h17z" />
    <glyph glyph-name="Wgrave" unicode="&#x1e80;" horiz-adv-x="1256" 
d="M625 860l89 -120h-157l-124 120h192zM1241 700l-208 -700h-229l-172 490l-174 -490h-235l-209 700h189l147 -528h7l181 528h195l182 -528h6l145 528h175z" />
    <glyph glyph-name="wgrave" unicode="&#x1e81;" horiz-adv-x="995" 
d="M495 700l89 -120h-157l-124 120h192zM988 530l-159 -530h-200l-126 354l-126 -354h-210l-161 530h175l105 -373h6l131 373h167l130 -373h6l106 373h156z" />
    <glyph glyph-name="Wacute" unicode="&#x1e82;" horiz-adv-x="1256" 
d="M837 860l-124 -120h-156l89 120h191zM1241 700l-208 -700h-229l-172 490l-174 -490h-235l-209 700h189l147 -528h7l181 528h195l182 -528h6l145 528h175z" />
    <glyph glyph-name="wacute" unicode="&#x1e83;" horiz-adv-x="995" 
d="M707 700l-124 -120h-156l89 120h191zM988 530l-159 -530h-200l-126 354l-126 -354h-210l-161 530h175l105 -373h6l131 373h167l130 -373h6l106 373h156z" />
    <glyph glyph-name="Wdieresis" unicode="&#x1e84;" horiz-adv-x="1256" 
d="M462 858h131v-109h-131v109zM677 858h131v-109h-131v109zM1241 700l-208 -700h-229l-172 490l-174 -490h-235l-209 700h189l147 -528h7l181 528h195l182 -528h6l145 528h175z" />
    <glyph glyph-name="wdieresis" unicode="&#x1e85;" horiz-adv-x="995" 
d="M332 691h131v-109h-131v109zM547 691h131v-109h-131v109zM988 530l-159 -530h-200l-126 354l-126 -354h-210l-161 530h175l105 -373h6l131 373h167l130 -373h6l106 373h156z" />
    <glyph glyph-name="Ygrave" unicode="&#x1ef2;" horiz-adv-x="855" 
d="M418 860l89 -120h-157l-124 120h192zM514 302v-302h-174v302l-328 398h209l213 -265h6l213 265h190z" />
    <glyph glyph-name="ygrave" unicode="&#x1ef3;" horiz-adv-x="622" 
d="M308 700l89 -120h-157l-124 120h192zM626 530l-315 -700h-166l86 171l-234 529h170l147 -353h7l143 353h162z" />
    <glyph glyph-name="endash" unicode="&#x2013;" horiz-adv-x="646" 
d="M629 249h-611v87h611v-87z" />
    <glyph glyph-name="emdash" unicode="&#x2014;" horiz-adv-x="969" 
d="M952 249h-934v87h934v-87z" />
    <glyph glyph-name="quoteleft" unicode="&#x2018;" horiz-adv-x="296" 
d="M112 675l16 25h107l-75 -131v-9h78v-163h-185v99q0 46 13 85.5t46 93.5z" />
    <glyph glyph-name="quoteright" unicode="&#x2019;" horiz-adv-x="296" 
d="M183 422l-16 -25h-107l75 131v9h-78v163h185v-99q0 -47 -12 -85t-47 -94z" />
    <glyph glyph-name="quotesinglbase" unicode="&#x201a;" horiz-adv-x="296" 
d="M183 -115l-16 -25h-107l75 131v9h-78v163h185v-99q0 -48 -12.5 -87t-46.5 -92z" />
    <glyph glyph-name="quotedblleft" unicode="&#x201c;" horiz-adv-x="537" 
d="M115 675l16 25h107l-75 -131v-9h78v-163h-185v99q0 48 12.5 87t46.5 92zM351 675l16 25h107l-75 -131v-9h78v-163h-185v99q0 48 12.5 87t46.5 92z" />
    <glyph glyph-name="quotedblright" unicode="&#x201d;" horiz-adv-x="537" 
d="M185 422l-16 -25h-107l75 131v9h-78v163h185v-99q0 -47 -12 -85t-47 -94zM422 422l-16 -25h-107l75 131v9h-78v163h185v-99q0 -49 -13 -85q-13 -41 -46 -94z" />
    <glyph glyph-name="quotedblbase" unicode="&#x201e;" horiz-adv-x="537" 
d="M185 -115l-16 -25h-107l75 131v9h-78v163h185v-99q0 -48 -12.5 -87t-46.5 -92zM422 -115l-16 -25h-107l75 131v9h-78v163h185v-99q0 -46 -13 -85.5t-46 -93.5z" />
    <glyph glyph-name="dagger" unicode="&#x2020;" horiz-adv-x="393" 
d="M151 459h-122v71h122v170h91v-170h122v-71h-122v-559h-91v559z" />
    <glyph glyph-name="daggerdbl" unicode="&#x2021;" horiz-adv-x="393" 
d="M242 70v-170h-91v170h-122v70h122v319h-122v71h122v170h91v-170h122v-71h-122v-319h122v-70h-122z" />
    <glyph glyph-name="bullet" unicode="&#x2022;" horiz-adv-x="463" 
d="M232 193q-68 0 -114.5 43.5t-46.5 112.5t47 113t114 44q66 0 113 -44t47 -113t-47 -112.5t-113 -43.5z" />
    <glyph glyph-name="ellipsis" unicode="&#x2026;" horiz-adv-x="890" 
d="M239 0h-182v163h182v-163zM535 0h-181v163h181v-163zM832 0h-181v163h181v-163z" />
    <glyph glyph-name="perthousand" unicode="&#x2030;" horiz-adv-x="1248" 
d="M234 331h-13q-103 0 -149 43.5t-46 138.5v14q0 94 46 138.5t149 44.5h13q103 0 148.5 -44.5t45.5 -138.5v-14q0 -95 -45.5 -138.5t-148.5 -43.5zM730 700l-397 -700h-103l398 700h102zM227 427q49 0 68 20t19 70v7q0 49 -19 68.5t-68 19.5q-48 0 -67 -19.5t-19 -68.5v-7
q0 -50 18.5 -70t67.5 -20zM1028 -10h-10q-109 0 -138 43h-5q-32 -43 -138 -43h-10q-103 0 -149 43.5t-46 138.5v15q0 94 46 138t149 44h10q104 0 138 -43h5q31 43 138 43h10q103 0 148.5 -44t45.5 -138v-15q0 -95 -45.5 -138.5t-148.5 -43.5zM733 86q49 0 68 20t19 70v8
q0 49 -19 68.5t-68 19.5q-48 0 -67 -19.5t-19 -68.5v-8q0 -50 18.5 -70t67.5 -20zM1021 86q49 0 67.5 20t18.5 70v8q0 49 -19 68.5t-67 19.5t-67 -19.5t-19 -68.5v-8q0 -50 18.5 -70t67.5 -20z" />
    <glyph glyph-name="guilsinglleft" unicode="&#x2039;" horiz-adv-x="266" 
d="M36 289v6l84 219h108l-88 -222l88 -222h-108z" />
    <glyph glyph-name="guilsinglright" unicode="&#x203a;" horiz-adv-x="266" 
d="M230 295v-6l-84 -219h-108l88 222l-88 222h108z" />
    <glyph glyph-name="fraction" unicode="&#x2044;" horiz-adv-x="216" 
d="M358 700l-397 -700h-103l398 700h102z" />
    <glyph glyph-name="zerosuperior" unicode="&#x2070;" horiz-adv-x="480" 
d="M244 374h-8q-114 0 -165 44t-51 162v20q0 118 51 162t165 44h8q115 0 165.5 -44t50.5 -162v-21q0 -117 -51 -161t-165 -44zM239 480q48 0 63.5 17t15.5 77v31q0 60 -15.5 77.5t-63.5 17.5q-46 0 -61.5 -17.5t-15.5 -77.5v-31q0 -59 15.5 -76.5t61.5 -17.5z" />
    <glyph glyph-name="foursuperior" unicode="&#x2074;" horiz-adv-x="480" 
d="M423 468v-88h-144v88h-263v154l196 178h211v-231h49v-101h-49zM128 574v-5h151v136h-5z" />
    <glyph glyph-name="fivesuperior" unicode="&#x2075;" horiz-adv-x="480" 
d="M257 374h-21q-93 0 -149.5 29t-69.5 102h146q10 -31 78 -31q43 0 60 10.5t17 34.5v6q0 24 -18.5 34.5t-64.5 10.5q-66 0 -82 -23h-131l24 253h395v-101h-266l-8 -72h5q27 36 120 36q96 0 135 -33t39 -102v-5q0 -149 -209 -149z" />
    <glyph glyph-name="sixsuperior" unicode="&#x2076;" horiz-adv-x="480" 
d="M260 374h-22q-115 0 -167.5 45.5t-52.5 159.5v21q0 115 51.5 160.5t166.5 45.5h14q97 0 146.5 -30.5t66.5 -90.5h-148q-12 21 -70 21q-47 0 -65.5 -17t-18.5 -63v-13h5q23 38 122 38t137.5 -31t38.5 -99v-3q0 -144 -204 -144zM240 471q46 0 62.5 10.5t16.5 34.5v6
q0 24 -16.5 34t-62.5 10t-62.5 -10t-16.5 -34v-6q0 -24 16.5 -34.5t62.5 -10.5z" />
    <glyph glyph-name="sevensuperior" unicode="&#x2077;" horiz-adv-x="480" 
d="M467 692l-237 -312h-180l249 309v5h-286v106h454v-108z" />
    <glyph glyph-name="eightsuperior" unicode="&#x2078;" horiz-adv-x="480" 
d="M253 373h-26q-210 0 -210 134v4q0 86 87 98v5q-76 14 -76 81v3q2 108 205 108h14q205 0 205 -108v-3q0 -67 -76 -81v-5q87 -12 87 -97v-5q0 -134 -210 -134zM225 635h30q29 0 41 8t12 26v4q0 20 -14.5 27.5t-53.5 7.5q-40 0 -54 -7.5t-14 -27.5v-4q0 -18 12 -26t41 -8z
M240 471q46 0 62.5 9t16.5 34v3q0 24 -13.5 33.5t-50.5 9.5h-31q-37 0 -50 -9.5t-13 -33.5v-3q0 -25 16.5 -34t62.5 -9z" />
    <glyph glyph-name="ninesuperior" unicode="&#x2079;" horiz-adv-x="480" 
d="M220 806h22q115 0 167.5 -45.5t52.5 -159.5v-21q0 -115 -51.5 -160.5t-166.5 -45.5h-14q-97 0 -146.5 30.5t-66.5 90.5h148q12 -21 70 -21q47 0 65.5 17t18.5 63v13h-5q-23 -38 -122 -38t-137.5 31t-38.5 99v3q0 144 204 144zM240 709q-46 0 -62.5 -10.5t-16.5 -34.5v-6
q0 -24 16.5 -34t62.5 -10t62.5 10t16.5 34v6q0 24 -16.5 34.5t-62.5 10.5z" />
    <glyph glyph-name="plussuperior" unicode="&#x207a;" horiz-adv-x="357" 
d="M142 551h-117v78h117v122h72v-122h118v-78h-118v-121h-72v121z" />
    <glyph glyph-name="minussuperior" unicode="&#x207b;" horiz-adv-x="349" 
d="M304 551h-259v78h259v-78z" />
    <glyph glyph-name="equalsuperior" unicode="&#x207c;" horiz-adv-x="353" 
d="M318 625h-283v78h283v-78zM318 476h-283v78h283v-78z" />
    <glyph glyph-name="parenleftsuperior" unicode="&#x207d;" horiz-adv-x="217" 
d="M193 424v-71q-79 7 -116 57.5t-37 162.5v34q0 112 37 162.5t116 57.5v-71q-39 -7 -58.5 -41t-19.5 -108v-34q0 -74 19.5 -108t58.5 -41z" />
    <glyph glyph-name="parenrightsuperior" unicode="&#x207e;" horiz-adv-x="217" 
d="M24 756v71q78 -7 115.5 -57.5t37.5 -162.5v-34q0 -112 -37.5 -162.5t-115.5 -57.5v71q39 7 58.5 41t19.5 108v34q0 74 -19.5 108t-58.5 41z" />
    <glyph glyph-name="zeroinferior" unicode="&#x2080;" horiz-adv-x="480" 
d="M244 -106h-8q-114 0 -165 44t-51 162v20q0 118 51 162t165 44h8q115 0 165.5 -44t50.5 -162v-21q0 -117 -51 -161t-165 -44zM239 0q48 0 63.5 17t15.5 77v31q0 60 -15.5 77.5t-63.5 17.5q-46 0 -61.5 -17.5t-15.5 -77.5v-31q0 -59 15.5 -76.5t61.5 -17.5z" />
    <glyph glyph-name="oneinferior" unicode="&#x2081;" horiz-adv-x="350" 
d="M306 320v-420h-141v312h-5l-140 -77v135l108 50h178z" />
    <glyph glyph-name="twoinferior" unicode="&#x2082;" horiz-adv-x="480" 
d="M461 1v-101h-441v77q0 79 33.5 114t122.5 49l95 15q27 5 36 12.5t9 23.5v1q0 19 -14.5 26.5t-53.5 7.5q-38 0 -54.5 -7t-23.5 -27h-146q12 75 65.5 104.5t149.5 29.5h9q111 0 162 -31.5t51 -95.5v-5q0 -58 -30 -87t-108 -43l-124 -19q-23 -5 -30 -12.5t-7 -24.5v-7h299z
" />
    <glyph glyph-name="threeinferior" unicode="&#x2083;" horiz-adv-x="480" 
d="M257 -106h-20q-98 0 -154 30.5t-67 106.5h145q5 -22 24.5 -29.5t57.5 -7.5q43 0 59 8t16 28v4q0 31 -49 31h-94v96h85q26 0 36 7t10 22v3q0 18 -14.5 25.5t-47.5 7.5q-59 0 -69 -31h-147q14 69 61.5 100t142.5 31h15q206 0 206 -105v-4q0 -38 -18 -57.5t-59 -25.5v-5
q47 -5 68.5 -28.5t21.5 -70.5v-3q0 -69 -50 -101t-159 -32z" />
    <glyph glyph-name="fourinferior" unicode="&#x2084;" horiz-adv-x="480" 
d="M423 -12v-88h-144v88h-263v154l196 178h211v-231h49v-101h-49zM128 94v-5h151v136h-5z" />
    <glyph glyph-name="fiveinferior" unicode="&#x2085;" horiz-adv-x="480" 
d="M257 -106h-21q-93 0 -149.5 29t-69.5 102h146q10 -31 78 -31q43 0 60 10.5t17 34.5v6q0 24 -18.5 34.5t-64.5 10.5q-66 0 -82 -23h-131l24 253h395v-101h-266l-8 -72h5q27 36 120 36q96 0 135 -33t39 -102v-5q0 -149 -209 -149z" />
    <glyph glyph-name="sixinferior" unicode="&#x2086;" horiz-adv-x="480" 
d="M260 -106h-22q-115 0 -167.5 45.5t-52.5 159.5v21q0 115 51.5 160.5t166.5 45.5h14q97 0 146.5 -30.5t66.5 -90.5h-148q-12 21 -70 21q-47 0 -65.5 -17t-18.5 -63v-13h5q23 38 122 38t137.5 -31t38.5 -99v-3q0 -144 -204 -144zM240 -9q46 0 62.5 10.5t16.5 34.5v6
q0 24 -16.5 34t-62.5 10t-62.5 -10t-16.5 -34v-6q0 -24 16.5 -34.5t62.5 -10.5z" />
    <glyph glyph-name="seveninferior" unicode="&#x2087;" horiz-adv-x="480" 
d="M467 212l-237 -312h-180l249 309v5h-286v106h454v-108z" />
    <glyph glyph-name="eightinferior" unicode="&#x2088;" horiz-adv-x="480" 
d="M253 -107h-26q-210 0 -210 134v4q0 86 87 98v5q-76 14 -76 81v3q2 108 205 108h14q205 0 205 -108v-3q0 -67 -76 -81v-5q87 -12 87 -97v-5q0 -134 -210 -134zM225 155h30q29 0 41 8t12 26v4q0 20 -14.5 27.5t-53.5 7.5q-40 0 -54 -7.5t-14 -27.5v-4q0 -18 12 -26t41 -8z
M240 -9q46 0 62.5 9t16.5 34v3q0 24 -13.5 33.5t-50.5 9.5h-31q-37 0 -50 -9.5t-13 -33.5v-3q0 -25 16.5 -34t62.5 -9z" />
    <glyph glyph-name="nineinferior" unicode="&#x2089;" horiz-adv-x="480" 
d="M220 326h22q115 0 167.5 -45.5t52.5 -159.5v-21q0 -115 -51.5 -160.5t-166.5 -45.5h-14q-97 0 -146.5 30.5t-66.5 90.5h148q12 -21 70 -21q47 0 65.5 17t18.5 63v13h-5q-23 -38 -122 -38t-137.5 31t-38.5 99v3q0 144 204 144zM240 229q-46 0 -62.5 -10.5t-16.5 -34.5v-6
q0 -24 16.5 -34t62.5 -10t62.5 10t16.5 34v6q0 24 -16.5 34.5t-62.5 10.5z" />
    <glyph glyph-name="plusinferior" unicode="&#x208a;" horiz-adv-x="357" 
d="M142 149v122h72v-122h118v-78h-118v-121h-72v121h-117v78h117z" />
    <glyph glyph-name="minusinferior" unicode="&#x208b;" horiz-adv-x="349" 
d="M304 71h-259v78h259v-78z" />
    <glyph glyph-name="equalinferior" unicode="&#x208c;" horiz-adv-x="353" 
d="M318 145h-283v78h283v-78zM318 -4h-283v78h283v-78z" />
    <glyph glyph-name="parenleftinferior" unicode="&#x208d;" horiz-adv-x="217" 
d="M193 -56v-71q-79 7 -116 57.5t-37 162.5v34q0 112 37 162.5t116 57.5v-71q-39 -7 -58.5 -41t-19.5 -108v-34q0 -74 19.5 -108t58.5 -41z" />
    <glyph glyph-name="parenrightinferior" unicode="&#x208e;" horiz-adv-x="217" 
d="M24 276v71q78 -7 115.5 -57.5t37.5 -162.5v-34q0 -112 -37.5 -162.5t-115.5 -57.5v71q39 7 58.5 41t19.5 108v34q0 74 -19.5 108t-58.5 41z" />
    <glyph glyph-name="Euro" unicode="&#x20ac;" 
d="M444 -10h-23q-142 0 -226 55.5t-104 195.5h-87v81h82v5v46v5h-82v81h87q20 140 104 195.5t226 55.5h23q143 0 219 -44t100 -148h-166q-16 30 -52 44q-33 13 -112 13t-121 -24.5t-54 -91.5h403v-81h-409v-56h409v-81h-404q14 -72 57 -94q44 -22 119 -22q79 0 112 13
q36 14 52 44h166q-24 -104 -100 -148t-219 -44z" />
    <glyph glyph-name="litre" unicode="&#x2113;" horiz-adv-x="445" 
d="M251 -15q-147 0 -160 172l-37 -21l-40 80l75 44v189q0 143 36.5 202t128.5 59q83 0 119 -44t36 -128q0 -95 -45.5 -165t-154.5 -144v-60q0 -82 64 -82q41 0 77 38l45 -78q-60 -62 -144 -62zM209 486v-146q59 45 79 86.5t20 106.5q0 76 -46 76q-28 0 -40.5 -26t-12.5 -97z
" />
    <glyph glyph-name="numero" unicode="&#x2116;" horiz-adv-x="1511" 
d="M1247 272h-28q-120 0 -179.5 47.5t-59.5 161.5v18q0 114 59.5 161.5t179.5 47.5h28q118 0 176.5 -47.5t58.5 -161.5v-18q0 -114 -58.5 -161.5t-176.5 -47.5zM883 700v-700h-264l-381 530h-7v-530h-170v700h264l381 -531h7v531h170zM1231 382q61 0 85 20t24 82v13
q0 64 -26 82q-25 19 -83 19q-61 0 -85.5 -19.5t-24.5 -81.5v-13q0 -62 24.5 -82t85.5 -20z" />
    <glyph glyph-name="published" unicode="&#x2117;" horiz-adv-x="868" 
d="M483 -10h-98q-185 0 -270.5 79t-85.5 232v98q0 153 85.5 232t270.5 79h98q185 0 270.5 -79t85.5 -232v-98q0 -153 -85.5 -232t-270.5 -79zM400 25h68q99 0 165 19.5t102 60t50.5 93t14.5 128.5v48q0 76 -14.5 128.5t-50.5 93t-102 60t-165 19.5h-68q-98 0 -164 -19.5
t-102 -60t-50.5 -93t-14.5 -128.5v-48q0 -76 14.5 -128.5t50.5 -93t102 -60t164 -19.5zM358 275v-135h-131v420h282q95 0 136.5 -30t41.5 -107v-13q0 -71 -42.5 -103t-135.5 -32h-151zM489 467h-131v-101h131q40 0 53 11t13 38v6q0 26 -13 36t-53 10z" />
    <glyph glyph-name="trademark" unicode="&#x2122;" horiz-adv-x="1076" 
d="M268 606v-256h-118v256h-131v94h380v-94h-131zM1046 700v-350h-117v265h-5l-113 -265h-132l-114 265h-4v-265h-117v350h210l95 -221h5l96 221h196z" />
    <glyph glyph-name="Omega" unicode="&#x2126;" horiz-adv-x="942" 
d="M894 137v-137h-380v204q112 3 156 43.5t44 129.5v13q0 92 -48.5 134.5t-177.5 42.5h-34q-129 0 -177.5 -42.5t-48.5 -134.5v-13q0 -89 44 -129.5t157 -43.5v-204h-380v137h191v8q-95 13 -142 72.5t-47 172.5v21q0 151 95.5 225t296.5 74h56q201 0 296.5 -74t95.5 -225
v-21q0 -113 -47 -172.5t-142 -72.5v-8h192z" />
    <glyph glyph-name="estimated" unicode="&#x212e;" horiz-adv-x="837" 
d="M423 -15q-163 0 -278.5 107t-115.5 258q0 152 115 258.5t279 106.5t279.5 -106.5t115.5 -258.5q0 -22 -1 -25h-600v-205q81 -71 206 -71q91 0 166.5 39t116.5 103h72q-49 -93 -144 -149.5t-211 -56.5zM217 585v-193h408v196q-79 62 -202 62q-62 0 -117.5 -17.5
t-88.5 -47.5z" />
    <glyph glyph-name="arrowleft" unicode="&#x2190;" horiz-adv-x="897" 
d="M245 409h623v-119h-623v-7l287 -284h-170l-346 348v4l346 348h170l-287 -283v-7z" />
    <glyph glyph-name="arrowup" unicode="&#x2191;" horiz-adv-x="896" 
d="M512 547v-623h-119v623h-6l-285 -287v170l348 346h5l347 -346v-170l-284 287h-6z" />
    <glyph glyph-name="arrowright" unicode="&#x2192;" horiz-adv-x="897" 
d="M652 290h-623v119h623v7l-287 284h170l346 -348v-4l-346 -348h-170l287 283v7z" />
    <glyph glyph-name="arrowdown" unicode="&#x2193;" horiz-adv-x="897" 
d="M393 775h119v-623h6l284 287v-170l-347 -346h-5l-348 346v170l285 -287h6v623z" />
    <glyph glyph-name="arrowupleft" unicode="&#x2196;" horiz-adv-x="896" 
d="M336 578l441 -441l-84 -84l-441 440l-5 -4l3 -405l-119 121v492l3 3h491l120 -120l-405 2z" />
    <glyph glyph-name="arrowupright" unicode="&#x2197;" horiz-adv-x="897" 
d="M204 53l-84 84l441 441l-4 4l-405 -2l120 120h491l3 -3v-492l-119 -121l3 405l-5 4z" />
    <glyph glyph-name="arrowdownright" unicode="&#x2198;" horiz-adv-x="897" 
d="M561 122l-441 441l84 84l441 -440l5 4l-3 405l119 -121v-492l-3 -3h-491l-120 120l405 -2z" />
    <glyph glyph-name="arrowdownleft" unicode="&#x2199;" horiz-adv-x="897" 
d="M693 647l84 -84l-441 -441l4 -4l405 2l-120 -120h-491l-3 3v492l119 121l-3 -405l5 -4z" />
    <glyph glyph-name="partialdiff" unicode="&#x2202;" horiz-adv-x="720" 
d="M371 -10h-27q-303 0 -303 226v13q0 118 69 173.5t204 55.5q93 0 140 -18t65 -55h6v35q0 90 -54 123t-178 33q-117 0 -189 -26v140q85 20 196 20h12q197 0 285 -74t88 -259v-66q0 -92 -22 -155.5t-64.5 -99t-97.5 -51t-130 -15.5zM364 120q86 0 122 23.5t36 79.5v13
q0 56 -36 79t-122 23t-122 -23t-36 -79v-13q0 -56 36 -79.5t122 -23.5z" />
    <glyph glyph-name="increment" unicode="&#x2206;" horiz-adv-x="947" 
d="M605 700l330 -700h-923l329 700h264zM475 574h-7l-199 -429h404z" />
    <glyph glyph-name="product" unicode="&#x220f;" horiz-adv-x="865" 
d="M800 700v-870h-173v728h-389v-728h-173v870h735z" />
    <glyph glyph-name="summation" unicode="&#x2211;" horiz-adv-x="774" 
d="M726 -28v-142h-666v147l340 278v5l-340 293v147h666v-142h-429v-4l262 -224v-139l-264 -215v-4h431z" />
    <glyph glyph-name="minus" unicode="&#x2212;" horiz-adv-x="600" 
d="M509 277h-418v105h418v-105z" />
    <glyph glyph-name="radical" unicode="&#x221a;" horiz-adv-x="533" 
d="M530 803l-198 -906h-109l-123 388l-60 -17l-29 122l169 47l88 -300h5l142 666h115z" />
    <glyph glyph-name="infinity" unicode="&#x221e;" horiz-adv-x="876" 
d="M638 125q-111 0 -200 119q-35 -47 -83 -84q-47 -35 -116 -35q-89 0 -145.5 57.5t-56.5 146.5t56.5 146.5t145.5 57.5q69 0 116 -36q47 -35 83 -83q89 119 200 119q89 0 145 -57.5t56 -146.5t-56 -146.5t-145 -57.5zM142 329q0 -48 30 -76t71 -28q39 0 69.5 26.5
t66.5 77.5q-36 51 -66.5 77.5t-69.5 26.5q-41 0 -71 -28t-30 -76zM633 225q42 0 72 28t30 76t-30 76t-72 28q-39 0 -69.5 -26.5t-65.5 -77.5q35 -51 65.5 -77.5t69.5 -26.5z" />
    <glyph glyph-name="integral" unicode="&#x222b;" horiz-adv-x="440" 
d="M66 -170h-40v118h29q54 0 73.5 17.5t19.5 75.5v518q0 110 51 150.5t165 40.5h41v-118h-29q-54 0 -73.5 -17.5t-19.5 -75.5v-518q0 -110 -51 -150.5t-166 -40.5z" />
    <glyph glyph-name="approxequal" unicode="&#x2248;" horiz-adv-x="600" 
d="M415 364q-47 0 -122 33t-111 33q-65 0 -111 -61v111q42 55 114 55q47 0 121.5 -33t111.5 -33q68 0 111 61v-112q-41 -54 -114 -54zM415 124q-47 0 -122 33t-111 33q-65 0 -111 -61v111q42 55 114 55q47 0 121.5 -33t111.5 -33q68 0 111 61v-112q-41 -54 -114 -54z" />
    <glyph glyph-name="notequal" unicode="&#x2260;" horiz-adv-x="600" 
d="M176 156h-105v105h147l56 136h-203v105h245l64 156h108l-64 -156h105v-105h-147l-56 -136h203v-105h-245l-64 -156h-108z" />
    <glyph glyph-name="lessequal" unicode="&#x2264;" horiz-adv-x="600" 
d="M530 301v-110l-457 162v103l457 162v-109l-302 -102v-5zM530 39h-460v105h460v-105z" />
    <glyph glyph-name="greaterequal" unicode="&#x2265;" horiz-adv-x="600" 
d="M527 353l-457 -162v110l302 101v5l-302 102v109l457 -162v-103zM530 144v-105h-460v105h460z" />
    <glyph glyph-name="lozenge" unicode="&#x25ca;" horiz-adv-x="538" 
d="M339 678l173 -349l-173 -349h-140l-173 349l173 349h140zM269 74l129 255l-129 255l-128 -255z" />
    <glyph glyph-name="germandbls.cap" horiz-adv-x="1676" 
d="M439 -10h-29q-77 0 -137.5 9.5t-111.5 32t-83 63t-41 98.5h184q16 -43 65 -56.5t146 -13.5q103 0 149 18t46 64v8q0 35 -23.5 51t-86.5 19l-206 7q-134 4 -194 49.5t-60 140.5v7q0 118 84 170.5t263 52.5h24q328 0 363 -210h-184q-14 44 -61 60.5t-136 16.5
q-99 0 -137.5 -18t-38.5 -60v-3q0 -35 23 -51t87 -18l206 -8q135 -5 194 -49.5t59 -138.5v-9q0 -127 -90.5 -179.5t-273.5 -52.5zM1277 -10h-29q-77 0 -137.5 9.5t-111.5 32t-83 63t-41 98.5h184q16 -43 65 -56.5t146 -13.5q103 0 149 18t46 64v8q0 35 -23.5 51t-86.5 19
l-206 7q-134 4 -194 49.5t-60 140.5v7q0 118 84 170.5t263 52.5h24q328 0 363 -210h-184q-14 44 -61 60.5t-136 16.5q-99 0 -137.5 -18t-38.5 -60v-3q0 -35 23 -51t87 -18l206 -8q135 -5 194 -49.5t59 -138.5v-9q0 -127 -90.5 -179.5t-273.5 -52.5z" />
    <glyph glyph-name="i.TRK" horiz-adv-x="251" 
d="M46 700h158v-109h-158v109zM46 530h158v-530h-158v530z" />
    <glyph glyph-name="a.superior" horiz-adv-x="537" 
d="M503 537v-257h-140v63h-4q-27 -71 -159 -71q-175 0 -175 132v5q0 61 36.5 91t114.5 33l186 8v8q0 39 -20.5 52.5t-69.5 13.5q-41 0 -60.5 -9t-27.5 -32h-144q20 73 74.5 103.5t158.5 30.5h10q120 0 170 -37t50 -134zM168 414v-5q0 -48 79 -48q56 0 85.5 22t29.5 62v18
l-135 -6q-32 -1 -45.5 -11t-13.5 -32z" />
    <glyph glyph-name="b.superior" horiz-adv-x="578" 
d="M179 280h-142v554h142v-197h4q35 71 149 71h9q102 0 155 -47t53 -160v-22q0 -113 -53 -160t-155 -47h-9q-115 0 -149 71h-4v-63zM293 382q65 0 90 20t25 82v13q0 62 -25 81.5t-90 19.5t-89.5 -19.5t-24.5 -81.5v-13q0 -62 24.5 -82t89.5 -20z" />
    <glyph glyph-name="c.superior" horiz-adv-x="544" 
d="M289 272h-25q-118 0 -176.5 47t-58.5 160v22q0 113 58.5 160t176.5 47h25q210 0 231 -153h-142q-12 24 -34 33.5t-67 9.5q-58 0 -82.5 -20.5t-24.5 -79.5v-16q0 -59 24.5 -79.5t82.5 -20.5q45 0 67 9.5t34 33.5h142q-21 -153 -231 -153z" />
    <glyph glyph-name="d.superior" horiz-adv-x="578" 
d="M541 834v-554h-142v63h-4q-34 -71 -149 -71h-9q-102 0 -155 47t-53 160v22q0 113 53 160t155 47h9q114 0 149 -71h4v197h142zM285 382q65 0 89.5 20t24.5 82v13q0 62 -24.5 81.5t-89.5 19.5t-90 -19.5t-25 -81.5v-13q0 -62 25 -82t90 -20z" />
    <glyph glyph-name="e.superior" horiz-adv-x="544" 
d="M370 413h141q-15 -73 -69 -107t-165 -34h-10q-121 0 -179.5 47.5t-58.5 161.5v18q0 114 58.5 161.5t179.5 47.5h11q119 0 177.5 -46.5t58.5 -160.5v-38h-344q2 -54 25 -72t78 -18q42 0 65.5 8.5t31.5 31.5zM271 615q-50 0 -72.5 -15t-27.5 -61h202v4q0 41 -25.5 56.5
t-76.5 15.5z" />
    <glyph glyph-name="f.superior" horiz-adv-x="380" 
d="M100 594h-88v106h88q5 80 49 107q45 27 128 27h85v-91h-56q-36 0 -50.5 -8.5t-14.5 -31.5v-3h121v-106h-121v-314h-141v314z" />
    <glyph glyph-name="g.superior" horiz-adv-x="571" 
d="M295 145h-21q-104 0 -163.5 26.5t-75.5 91.5h145q9 -16 32 -21t70 -5q61 0 85.5 17t24.5 67v47h-4q-31 -65 -147 -65h-6q-101 0 -152 43.5t-51 150.5v16q0 107 51 151t152 44h6q116 0 147 -66h4v58h142v-375q0 -101 -57.5 -140.5t-181.5 -39.5zM284 409q62 0 85 17t23 75
v8q0 58 -23 75t-85 17q-63 0 -87 -17t-24 -75v-8q0 -57 24 -74.5t87 -17.5z" />
    <glyph glyph-name="h.superior" horiz-adv-x="534" 
d="M500 547v-267h-141v235q0 50 -19.5 66t-65.5 16q-50 0 -72.5 -21.5t-22.5 -75.5v-220h-142v554h142v-205h4q31 79 144 79q85 0 129 -34.5t44 -126.5z" />
    <glyph glyph-name="i.superior" horiz-adv-x="216" 
d="M37 834h142v-91h-142v91zM37 700h142v-420h-142v420z" />
    <glyph glyph-name="j.superior" horiz-adv-x="216" 
d="M37 834h142v-91h-142v91zM37 700h142v-323q0 -92 -10.5 -133.5t-47.5 -98.5h-144q37 55 48.5 96t11.5 110v349z" />
    <glyph glyph-name="k.superior" horiz-adv-x="548" 
d="M179 379v-99h-142v554h142v-305h4l176 171h171l-186 -170l202 -250h-178l-122 156h-4z" />
    <glyph glyph-name="l.superior" horiz-adv-x="216" 
d="M179 834v-554h-142v554h142z" />
    <glyph glyph-name="m.superior" horiz-adv-x="829" 
d="M795 550v-270h-141v235q0 50 -18 66t-60 16q-47 0 -68 -21t-21 -76v-220h-141v235q0 50 -18 66t-61 16q-47 0 -67.5 -21t-20.5 -76v-220h-142v420h142v-70h4q30 78 138 78q122 0 153 -78h4q33 78 149 78q84 0 126 -34t42 -124z" />
    <glyph glyph-name="n.superior" horiz-adv-x="534" 
d="M500 547v-267h-141v235q0 50 -19.5 66t-65.5 16q-50 0 -72.5 -21.5t-22.5 -75.5v-220h-142v420h142v-71h4q31 79 144 79q85 0 129 -34.5t44 -126.5z" />
    <glyph glyph-name="o.superior" horiz-adv-x="570" 
d="M301 272h-29q-123 0 -183 48t-60 161v18q0 113 60 161t183 48h29q122 0 181 -48t59 -161v-18q0 -113 -59 -161t-181 -48zM285 382q64 0 89.5 20t25.5 82v13q0 64 -28 82q-26 19 -87 19q-60 0 -88 -19q-27 -18 -27 -82v-13q0 -62 25.5 -82t89.5 -20z" />
    <glyph glyph-name="p.superior" horiz-adv-x="578" 
d="M37 146v554h142v-63h4q34 71 149 71h9q102 0 155 -47t53 -160v-22q0 -113 -53 -160t-155 -47h-9q-114 0 -149 71h-4v-197h-142zM293 598q-65 0 -89.5 -20t-24.5 -82v-13q0 -62 24.5 -81.5t89.5 -19.5t90 19.5t25 81.5v13q0 62 -25 82t-90 20z" />
    <glyph glyph-name="q.superior" horiz-adv-x="578" 
d="M399 700h142v-554h-142v197h-4q-35 -71 -149 -71h-9q-102 0 -155 47t-53 160v22q0 113 53 160t155 47h9q115 0 149 -71h4v63zM285 598q-65 0 -90 -20t-25 -82v-13q0 -62 25 -81.5t90 -19.5t89.5 19.5t24.5 81.5v13q0 62 -24.5 82t-89.5 20z" />
    <glyph glyph-name="r.superior" horiz-adv-x="359" 
d="M328 700h19v-113h-51q-65 0 -91 -21t-26 -78v-208h-142v420h142v-70h3q14 38 48.5 54t97.5 16z" />
    <glyph glyph-name="s.superior" horiz-adv-x="556" 
d="M287 272h-16q-113 0 -169.5 30.5t-71.5 100.5h149q11 -41 103 -41q95 0 95 42v3q0 18 -14.5 26t-51.5 10l-109 5q-87 4 -124 32.5t-37 86.5v6q0 71 57.5 103t174.5 32h9q108 0 165.5 -30t72.5 -100h-148q-14 39 -95 39q-85 0 -85 -37v-4q0 -18 13.5 -25.5t50.5 -9.5
l110 -5q88 -5 124.5 -33t36.5 -86v-6q0 -75 -59 -107t-181 -32z" />
    <glyph glyph-name="t.superior" horiz-adv-x="364" 
d="M342 383v-103h-76q-99 0 -136.5 33t-37.5 112v169h-80v106h80v134h142v-134h108v-106h-108v-138q0 -45 16.5 -59t63.5 -14h28z" />
    <glyph glyph-name="u.superior" horiz-adv-x="534" 
d="M34 433v267h141v-235q0 -50 19.5 -66t65.5 -16q50 0 72.5 21.5t22.5 75.5v220h142v-420h-142v71h-4q-31 -79 -144 -79q-85 0 -129 34.5t-44 126.5z" />
    <glyph glyph-name="v.superior" horiz-adv-x="537" 
d="M530 700l-170 -420h-184l-169 420h157l107 -292h6l108 292h145z" />
    <glyph glyph-name="w.superior" horiz-adv-x="826" 
d="M816 700l-125 -420h-176l-97 270l-96 -270h-186l-127 420h155l79 -284h6l99 284h146l99 -284h5l80 284h138z" />
    <glyph glyph-name="x.superior" horiz-adv-x="603" 
d="M397 495l195 -215h-181l-111 136h-4l-115 -136h-170l191 213l-180 207h180l100 -123h5l104 123h170z" />
    <glyph glyph-name="y.superior" horiz-adv-x="526" 
d="M520 700l-244 -555h-148l68 134l-189 421h153l108 -270h5l103 270h144z" />
    <glyph glyph-name="z.superior" horiz-adv-x="495" 
d="M469 386v-106h-442v102l245 212h-231v106h414v-102l-245 -212h259z" />
    <glyph glyph-name="grave.cap" horiz-adv-x="500" 
d="M301 860l89 -120h-157l-124 120h192z" />
    <glyph glyph-name="acute.cap" horiz-adv-x="500" 
d="M389 860l-124 -120h-156l89 120h191z" />
    <glyph glyph-name="circumflex.cap" horiz-adv-x="500" 
d="M361 860l118 -120h-142l-87 73l-87 -73h-142l118 120h222z" />
    <glyph glyph-name="caron.cap" horiz-adv-x="500" 
d="M250 787l87 73h142l-118 -120h-222l-118 120h142z" />
    <glyph glyph-name="caronSlovak" horiz-adv-x="500" 
d="M351 700l-76 -218h-123l34 218h165z" />
    <glyph glyph-name="tilde.cap" horiz-adv-x="500" 
d="M330 739q-36 0 -87 18.5t-65 18.5q-15 0 -22.5 -5.5t-12.5 -23.5h-99q8 63 36.5 88.5t84.5 25.5q35 0 87 -18.5t65 -18.5q15 0 23 6t12 24h104q-8 -63 -39 -89t-87 -26z" />
    <glyph glyph-name="dieresis.cap" horiz-adv-x="500" 
d="M77 858h131v-109h-131v109zM292 858h131v-109h-131v109z" />
    <glyph glyph-name="macron.cap" horiz-adv-x="500" 
d="M441 840v-73h-383v73h383z" />
    <glyph glyph-name="breve.cap" horiz-adv-x="500" 
d="M250 731q-107 0 -153.5 30.5t-53.5 98.5h124q4 -50 83 -50q41 0 60.5 12t22.5 38h124q-8 -68 -54.5 -98.5t-152.5 -30.5z" />
    <glyph glyph-name="ring.cap" horiz-adv-x="500" 
d="M250 722q-83 0 -123 25.5t-40 82.5t40 82.5t123 25.5q82 0 122 -25.5t40 -82.5t-40 -82.5t-122 -25.5zM250 787q62 0 62 43t-62 43t-62 -43t62 -43z" />
    <glyph glyph-name="hungarumlaut.cap" horiz-adv-x="500" 
d="M269 860l-124 -120h-156l89 120h191zM511 860l-125 -120h-156l90 120h191z" />
    <glyph glyph-name="dotaccent.cap" horiz-adv-x="500" 
d="M169 858h159v-109h-159v109z" />
    <glyph glyph-name="commaaccent.alt" horiz-adv-x="500" 
d="M212 696l18 18h89l-48 -53v-8h71v-73h-174v19q0 31 9 50t35 47z" />
    <glyph glyph-name="hyphen.cap" horiz-adv-x="323" 
d="M305 283h-288v133h288v-133z" />
    <glyph glyph-name="exclamdown.cap" horiz-adv-x="303" 
d="M61 700h181v-163h-181v163zM248 297v-297h-193v297l40 157h113z" />
    <glyph glyph-name="questiondown.cap" horiz-adv-x="664" 
d="M259 707h181v-161h-181v161zM262 466h173v-15q0 -46 -26.5 -71.5t-102.5 -58.5q-72 -30 -94 -51t-22 -58v-4q0 -77 132 -77q69 0 105 22.5t44 80.5h164q-19 -237 -309 -237h-11q-141 0 -215.5 52.5t-74.5 142.5v11q0 80 36 124.5t132 81.5q36 15 50.5 27t18.5 30z" />
    <glyph glyph-name="guilsinglleft.cap" horiz-adv-x="266" 
d="M36 346v6l84 219h108l-88 -222l88 -222h-108z" />
    <glyph glyph-name="guilsinglright.cap" horiz-adv-x="266" 
d="M230 353v-6l-84 -219h-108l88 222l-88 222h108z" />
    <glyph glyph-name="guillemotleft.cap" horiz-adv-x="448" 
d="M36 347v6l84 219h108l-88 -222l88 -222h-108zM218 347v6l84 219h108l-88 -222l88 -222h-108z" />
    <glyph glyph-name="guillemotright.cap" horiz-adv-x="448" 
d="M230 353v-6l-84 -219h-108l88 222l-88 222h108zM412 353v-6l-84 -219h-108l88 222l-88 222h108z" />
    <glyph glyph-name="endash.cap" horiz-adv-x="659" 
d="M629 306h-611v87h611v-87z" />
    <glyph glyph-name="emdash.cap" horiz-adv-x="989" 
d="M952 306h-934v87h934v-87z" />
    <glyph glyph-name="periodcentered.cap" horiz-adv-x="358" 
d="M267 268h-182v163h182v-163z" />
    <glyph glyph-name="parenleft.cap" horiz-adv-x="341" 
d="M300 43v-88q-235 27 -235 366v58q0 339 235 366v-88q-69 -16 -103.5 -81t-34.5 -200v-52q0 -136 34.5 -200.5t103.5 -80.5z" />
    <glyph glyph-name="parenright.cap" horiz-adv-x="341" 
d="M39 657v88q116 -13 175.5 -101t59.5 -265v-58q0 -177 -59.5 -265t-175.5 -101v88q68 16 103 80.5t35 200.5v52q0 135 -35 200t-103 81z" />
    <glyph glyph-name="bracketleft.cap" horiz-adv-x="354" 
d="M313 39v-85h-229v790h229v-85h-134v-620h134z" />
    <glyph glyph-name="bracketright.cap" horiz-adv-x="354" 
d="M41 660v85h229v-790h-229v85h134v620h-134z" />
    <glyph glyph-name="braceleft.cap" horiz-adv-x="348" 
d="M312 40v-85h-44q-94 0 -128 41.5t-34 148.5v43q0 64 -15 82.5t-75 24.5v110q60 6 75 24.5t15 82.5v43q0 107 34 148.5t128 41.5h44v-85h-24q-51 0 -69 -26t-18 -111v-41q0 -69 -18.5 -94t-87.5 -35v-6q69 -10 87.5 -35t18.5 -94v-41q0 -85 18 -111t69 -26h24z" />
    <glyph glyph-name="braceright.cap" horiz-adv-x="348" 
d="M76 -45h-44v85h24q51 0 69 26t18 111v41q0 69 18.5 94t87.5 35v6q-69 10 -87.5 35t-18.5 94v41q0 85 -18 111t-69 26h-24v85h44q94 0 128 -41.5t34 -148.5v-43q0 -64 15 -82.5t75 -24.5v-110q-60 -6 -75 -24.5t-15 -82.5v-43q0 -107 -34 -148.5t-128 -41.5z" />
    <glyph glyph-name="at.cap" horiz-adv-x="1041" 
d="M515 -69q-478 0 -478 379v31q0 200 129 314t362 114q228 0 354 -89.5t126 -275.5v-12q0 -292 -249 -292q-79 0 -108 24q-27 23 -32 65h-6q-43 -70 -158 -70h-13q-99 0 -145.5 48.5t-33.5 167.5l1 13q13 120 67.5 168.5t153.5 48.5h14q58 0 95 -19.5t49 -51.5h5l8 63h146
l-40 -305q-6 -45 3.5 -60t41.5 -15q54 0 85.5 59t31.5 154v12q0 154 -101 222.5t-301 68.5q-196 0 -298.5 -96.5t-102.5 -256.5v-30q0 -156 99.5 -229.5t300.5 -73.5q146 0 239 26v-75q-92 -27 -245 -27zM505 224q58 0 87.5 23.5t37.5 87.5l2 19q8 62 -17 83.5t-83 21.5
t-87.5 -23t-37.5 -87l-2 -18q-8 -63 16.5 -85t83.5 -22z" />
    <glyph glyph-name="zero.slash" horiz-adv-x="868" 
d="M459 -10h-51q-191 0 -276.5 75t-85.5 256v58q0 181 85.5 256t276.5 75h51q194 0 278.5 -74.5t84.5 -256.5v-58q0 -181 -85.5 -256t-277.5 -75zM213 376v-52q0 -85 21 -123l336 353q-46 18 -136 18q-133 0 -177 -41t-44 -155zM434 128q131 0 175.5 41t44.5 155v52
q0 82 -19 121l-335 -352q48 -17 134 -17z" />
    <glyph glyph-name="numbersign.LT" 
d="M538 0h-114l25 167h-149l-24 -167h-113l24 167h-140v112h153l20 143h-141v112h154l24 166h114l-25 -166h148l25 166h114l-26 -166h141v-112h-154l-19 -143h142v-112h-155zM487 427h-158l-22 -154h159z" />
    <glyph glyph-name="Euro.LT" 
d="M444 -10h-23q-142 0 -226 55.5t-104 195.5h-87v81h82v5v46v5h-82v81h87q20 140 104 195.5t226 55.5h23q143 0 219 -44t100 -148h-166q-16 30 -52 44q-33 13 -112 13t-121 -24.5t-54 -91.5h403v-81h-409v-56h409v-81h-404q14 -72 57 -94q44 -22 119 -22q79 0 112 13
q36 14 52 44h166q-24 -104 -100 -148t-219 -44z" />
    <glyph glyph-name="dollar.LT" 
d="M456 11v-116h-100v116q-135 5 -214 43.5t-102 127.5h180q27 -54 185 -54q100 0 143 19t43 64v6q0 38 -25 51.5t-100 16.5l-178 7q-131 6 -183.5 49t-52.5 133v8q0 100 72.5 151t224.5 56v116h100v-116q268 -11 301 -171h-182q-15 29 -53 41.5t-120 12.5
q-89 0 -128.5 -17.5t-39.5 -55.5v-4q0 -38 24.5 -51t101.5 -16l177 -7q131 -6 183.5 -50t52.5 -134v-10q0 -107 -77 -159t-233 -57z" />
    <glyph glyph-name="cent.LT" 
d="M453 -9v-96h-100v96q-127 8 -190 67.5t-63 191.5v30q0 132 63 191.5t190 67.5v96h100v-96q220 -11 250 -187h-159q-16 34 -46.5 47t-91.5 13q-79 0 -113.5 -28t-34.5 -108v-22q0 -80 34.5 -108t113.5 -28q61 0 91.5 13t46.5 47h159q-30 -176 -250 -187z" />
    <glyph glyph-name="sterling.LT" 
d="M666 392v-84h-362v-174h452v-134h-727v134h111v174h-111v84h111v21q0 157 74.5 227t227.5 70h22q265 0 302 -192h-170q-14 30 -44.5 43.5t-95.5 13.5q-82 0 -117 -32.5t-35 -112.5v-38h362z" />
    <glyph glyph-name="florin.LT" 
d="M426 308v-413h-163v413h-240v84h240q0 170 74.5 239t241.5 69h170v-137h-148q-96 0 -135.5 -33.5t-39.5 -119.5v-18h324v-84h-324z" />
    <glyph glyph-name="yen.LT" 
d="M482 241v-241h-166v241h-242v81h242v35l-19 21h-223v81h152l-213 241h210l183 -224h6l183 224h188l-212 -241h154v-81h-225l-18 -20v-36h243v-81h-243z" />
    <glyph glyph-name="zero.slash.LT" 
d="M410 -10h-23q-82 0 -139.5 14t-105.5 49.5t-72 103.5t-24 170v45q0 102 24 170.5t72 104t105.5 49.5t139.5 14h23q83 0 141 -14t105.5 -49.5t71 -104t23.5 -170.5v-45q0 -102 -24 -170t-72 -103.5t-105.5 -49.5t-139.5 -14zM213 380v-60q0 -65 14 -107l285 342
q-38 17 -113 17q-102 0 -144 -37t-42 -155zM399 127q51 0 82 7t56 27t36 58.5t11 100.5v60q0 66 -14 108l-286 -343q35 -18 115 -18z" />
    <glyph glyph-name="zero.LT" 
d="M410 -10h-23q-82 0 -139.5 14t-105.5 49.5t-72 103.5t-24 170v45q0 102 24 170.5t72 104t105.5 49.5t139.5 14h23q83 0 141 -14t105.5 -49.5t71 -104t23.5 -170.5v-45q0 -102 -24 -170t-72 -103.5t-105.5 -49.5t-139.5 -14zM399 127q51 0 82 7t56 27t36 58.5t11 100.5v60
q0 61 -11 99.5t-36 58.5t-56 27t-82 7q-102 0 -144 -37t-42 -155v-60q0 -62 11 -100.5t36 -58.5t56.5 -27t82.5 -7z" />
    <glyph glyph-name="one.LT" 
d="M748 134v-134h-699v134h267v432h-7l-260 -140v173l214 101h219v-566h266z" />
    <glyph glyph-name="two.LT" 
d="M752 135v-135h-706v124q0 127 51 183.5t191 77.5l191 26q62 9 83.5 26t21.5 54v5q0 43 -38.5 61t-132.5 18q-92 0 -132.5 -15.5t-53.5 -57.5h-170q21 115 104 161.5t229 46.5h36q165 0 245 -50t80 -153v-11q0 -94 -46.5 -144.5t-165.5 -67.5l-223 -30q-62 -11 -84 -31
q-21 -19 -21 -70v-18h541z" />
    <glyph glyph-name="three.LT" 
d="M429 -10h-43q-155 0 -243 50t-104 165h170q12 -46 58 -63t140 -17q102 0 144.5 20.5t42.5 66.5v6q0 39 -26 56t-88 17h-216v134h210q56 0 79.5 15.5t23.5 51.5v5q0 43 -38.5 60.5t-129.5 17.5q-82 0 -123.5 -15t-53.5 -55h-169q23 108 102.5 156.5t223.5 48.5h33
q324 0 324 -176v-7q0 -63 -28.5 -97t-88.5 -44v-8q69 -10 101 -49t32 -114v-9q0 -111 -80.5 -163.5t-252.5 -52.5z" />
    <glyph glyph-name="four.LT" 
d="M678 164v-164h-167v164h-469v220l390 316h246v-406h98v-130h-98zM165 302v-8h346v282h-6z" />
    <glyph glyph-name="five.LT" 
d="M437 -10h-52q-149 0 -233 48t-102 157h170q12 -40 55.5 -55t131.5 -15q100 0 142 24.5t42 79.5v10q0 58 -41 81t-148 23q-82 0 -126.5 -12.5t-62.5 -41.5h-152l38 411h620v-135h-471l-17 -150h7q25 30 77 44t149 14q156 0 225.5 -56.5t69.5 -173.5v-10q0 -243 -322 -243z
" />
    <glyph glyph-name="six.LT" 
d="M435 -10h-50q-88 0 -148 15t-104.5 52t-65.5 102t-21 161v52q0 191 80 264.5t255 73.5h38q149 0 228 -47t102 -146h-171q-13 32 -52 46q-36 13 -123 13q-112 0 -152.5 -36t-40.5 -142v-17h7q38 74 230 74q166 0 235 -51.5t69 -163.5v-16q0 -234 -316 -234zM399 121
q103 0 144 23t41 77v11q0 53 -41.5 77t-143.5 24t-143.5 -24t-41.5 -77v-11q0 -53 39 -77q41 -23 146 -23z" />
    <glyph glyph-name="seven.LT" 
d="M762 560l-413 -560h-212l427 558v8h-530v134h728v-140z" />
    <glyph glyph-name="eight.LT" 
d="M427 -10h-58q-157 0 -241.5 50t-84.5 167v8q1 139 129 161v8q-114 22 -114 137v6q0 183 321 183h38q320 0 320 -183v-6q0 -114 -113 -137v-8q129 -22 129 -160v-9q0 -117 -84.5 -167t-241.5 -50zM336 424h123q57 0 83 17t26 54v6q0 45 -37 61t-133 16t-133 -16t-37 -61
v-6q0 -37 26 -54t82 -17zM398 121q106 0 146.5 19.5t40.5 72.5v5q0 46 -30 67t-97 21h-120q-67 0 -97 -21t-30 -67v-5q0 -53 40.5 -72.5t146.5 -19.5z" />
    <glyph glyph-name="nine.LT" 
d="M362 710h50q88 0 148 -15t104.5 -52t65.5 -102t21 -161v-52q0 -98 -20.5 -164t-64.5 -104t-104 -54t-146 -16h-38q-151 0 -229.5 47t-100.5 146h171q13 -32 51 -46q36 -13 124 -13q111 0 152 36t41 142v17h-7q-21 -38 -74.5 -56t-155.5 -18q-167 0 -235.5 51.5
t-68.5 163.5v16q0 234 316 234zM398 579q-103 0 -144 -23t-41 -77v-11q0 -53 41.5 -77t143.5 -24t143.5 24t41.5 77v11q0 54 -40 76q-39 24 -145 24z" />
    <glyph glyph-name="numbersign.OP" 
d="M546 0h-113l19 128h-150l-19 -128h-113l19 128h-141v112h154l17 120h-142v112h155l17 128h114l-18 -128h150l17 128h114l-18 -128h141v-112h-155l-16 -120h142v-112h-155zM488 365h-160l-19 -131h160z" />
    <glyph glyph-name="Euro.OP" 
d="M444 -10h-23q-133 0 -215 45.5t-109 155.5h-93v81h83q-1 8 -1 25v6q0 17 1 25h-83v81h93q27 110 109 155.5t215 45.5h23q141 0 217.5 -39.5t101.5 -125.5h-166q-20 23 -52.5 31t-110.5 8q-72 0 -111.5 -17t-56.5 -58h395v-81h-409v-13v-30v-13h409v-81h-395
q17 -41 56.5 -58t111.5 -17q78 0 110.5 8t52.5 31h166q-25 -86 -101.5 -125.5t-217.5 -39.5z" />
    <glyph glyph-name="dollar.OP" 
d="M452 10v-115h-95v115q-136 3 -216 40t-103 128h179q15 -29 57.5 -39.5t134.5 -10.5q103 0 141 11.5t38 42.5v7q0 26 -22 36t-90 13l-196 7q-129 4 -177.5 42.5t-48.5 122.5v7q0 166 298 173v115h95v-116q133 -3 209.5 -40.5t92.5 -125.5h-179q-15 29 -52.5 39.5
t-120.5 10.5q-94 0 -131.5 -11.5t-37.5 -38.5v-4q0 -29 21 -38.5t92 -12.5l195 -7q129 -4 177.5 -41t48.5 -120v-10q0 -90 -77 -133t-233 -47z" />
    <glyph glyph-name="cent.OP" horiz-adv-x="687" 
d="M398 -9v-96h-100v96q-127 8 -190 67.5t-63 191.5v30q0 132 63 191.5t190 67.5v96h100v-96q220 -11 250 -187h-159q-16 34 -46.5 47t-91.5 13q-79 0 -113.5 -28t-34.5 -108v-22q0 -80 34.5 -108t113.5 -28q61 0 91.5 13t46.5 47h159q-30 -176 -250 -187z" />
    <glyph glyph-name="sterling.OP" 
d="M666 342v-84h-362v-124h452v-134h-727v134h111v124h-111v84h111q4 145 78 206.5t224 61.5h22q268 0 302 -187h-170q-13 27 -43.5 39.5t-96.5 12.5q-84 0 -118 -28.5t-34 -104.5h362z" />
    <glyph glyph-name="florin.OP" 
d="M426 258v-454h-163v454h-240v84h242q10 141 84.5 199.5t229.5 58.5h170v-137h-148q-88 0 -127.5 -26.5t-46.5 -94.5h323v-84h-324z" />
    <glyph glyph-name="yen.OP" 
d="M482 191v-191h-166v191h-242v81h229l-50 56h-179v81h108l-169 191h210l183 -224h6l183 224h188l-168 -191h110v-81h-181l-50 -56h231v-81h-243z" />
    <glyph glyph-name="zero.slash.OP" horiz-adv-x="865" 
d="M458 -10h-51q-186 0 -272 67.5t-86 233.5v18q0 167 85.5 234t272.5 67h51q187 0 272.5 -67t85.5 -234v-18q0 -166 -86 -233.5t-272 -67.5zM216 308v-16q0 -77 27 -111l301 281q-39 10 -112 10q-125 0 -170.5 -35t-45.5 -129zM432 129q126 0 171 34.5t45 128.5v16
q0 76 -26 110l-300 -280q44 -9 110 -9z" />
    <glyph glyph-name="zero.OP" horiz-adv-x="865" 
d="M458 -10h-51q-186 0 -272 67.5t-86 233.5v18q0 167 85.5 234t272.5 67h51q187 0 272.5 -67t85.5 -234v-18q0 -166 -86 -233.5t-272 -67.5zM432 129q126 0 171 34.5t45 128.5v16q0 94 -45.5 129t-170.5 35t-170.5 -35t-45.5 -129v-16q0 -94 45 -128.5t171 -34.5z" />
    <glyph glyph-name="one.OP" horiz-adv-x="526" 
d="M461 600v-600h-166v466h-7l-260 -140v173l214 101h219z" />
    <glyph glyph-name="two.OP" 
d="M752 134v-134h-706v111q0 105 49 160q50 56 173 68l224 19q55 6 73.5 18t18.5 40v4q0 32 -38 44.5t-132 12.5q-87 0 -127.5 -14t-55.5 -51h-174q24 106 107.5 152t235.5 46h15q336 0 336 -179v-9q0 -90 -49 -133t-171 -55l-220 -19q-61 -6 -80.5 -21t-19.5 -56v-4h541z
" />
    <glyph glyph-name="three.OP" 
d="M429 -110h-43q-155 0 -243 50t-104 165h170q12 -46 58 -63t140 -17q102 0 144.5 20.5t42.5 66.5v6q0 39 -26 56t-88 17h-216v134h210q56 0 79.5 15.5t23.5 51.5v5q0 43 -38.5 60.5t-129.5 17.5q-82 0 -123.5 -15t-53.5 -55h-169q23 108 102.5 156.5t223.5 48.5h33
q324 0 324 -176v-7q0 -63 -28.5 -97t-88.5 -44v-8q69 -10 101 -49t32 -114v-9q0 -111 -80.5 -163.5t-252.5 -52.5z" />
    <glyph glyph-name="four.OP" 
d="M678 64v-164h-167v164h-469v220l390 316h246v-406h98v-130h-98zM165 202v-8h346v282h-6z" />
    <glyph glyph-name="five.OP" 
d="M437 -110h-52q-149 0 -233 48t-102 157h170q12 -40 55.5 -55t131.5 -15q100 0 142 24.5t42 79.5v10q0 58 -41 81t-148 23q-82 0 -126.5 -12.5t-62.5 -41.5h-152l38 411h620v-135h-471l-17 -150h7q25 30 77 44t149 14q156 0 225.5 -56.5t69.5 -173.5v-10q0 -243 -322 -243
z" />
    <glyph glyph-name="six.OP" 
d="M435 -10h-50q-88 0 -148 15t-104.5 52t-65.5 102t-21 161v52q0 191 80 264.5t255 73.5h38q149 0 228 -47t102 -146h-171q-13 32 -52 46q-36 13 -123 13q-112 0 -152.5 -36t-40.5 -142v-17h7q38 74 230 74q166 0 235 -51.5t69 -163.5v-16q0 -234 -316 -234zM399 121
q103 0 144 23t41 77v11q0 53 -41.5 77t-143.5 24t-143.5 -24t-41.5 -77v-11q0 -53 39 -77q41 -23 146 -23z" />
    <glyph glyph-name="seven.OP" 
d="M762 460l-413 -560h-212l427 558v8h-530v134h728v-140z" />
    <glyph glyph-name="eight.OP" 
d="M427 -10h-58q-157 0 -241.5 50t-84.5 167v8q1 139 129 161v8q-114 22 -114 137v6q0 183 321 183h38q320 0 320 -183v-6q0 -114 -113 -137v-8q129 -22 129 -160v-9q0 -117 -84.5 -167t-241.5 -50zM336 424h123q57 0 83 17t26 54v6q0 45 -37 61t-133 16t-133 -16t-37 -61
v-6q0 -37 26 -54t82 -17zM398 121q106 0 146.5 19.5t40.5 72.5v5q0 46 -30 67t-97 21h-120q-67 0 -97 -21t-30 -67v-5q0 -53 40.5 -72.5t146.5 -19.5z" />
    <glyph glyph-name="nine.OP" 
d="M362 610h50q88 0 148 -15t104.5 -52t65.5 -102t21 -161v-52q0 -98 -20.5 -164t-64.5 -104t-104 -54t-146 -16h-38q-151 0 -229.5 47t-100.5 146h171q13 -32 51 -46q36 -13 124 -13q111 0 152 36t41 142v17h-7q-21 -38 -74.5 -56t-155.5 -18q-167 0 -235.5 51.5
t-68.5 163.5v16q0 234 316 234zM398 479q-103 0 -144 -23t-41 -77v-11q0 -53 41.5 -77t143.5 -24t143.5 24t41.5 77v11q0 54 -40 76q-39 24 -145 24z" />
    <glyph glyph-name="numbersign.OT" 
d="M546 0h-113l19 128h-150l-19 -128h-113l19 128h-141v112h154l17 120h-142v112h155l17 128h114l-18 -128h150l17 128h114l-18 -128h141v-112h-155l-16 -120h142v-112h-155zM488 365h-160l-19 -131h160z" />
    <glyph glyph-name="Euro.OT" 
d="M444 -10h-23q-133 0 -215 45.5t-109 155.5h-93v81h83q-1 8 -1 25v6q0 17 1 25h-83v81h93q27 110 109 155.5t215 45.5h23q141 0 217.5 -39.5t101.5 -125.5h-166q-20 23 -52.5 31t-110.5 8q-72 0 -111.5 -17t-56.5 -58h395v-81h-409v-13v-30v-13h409v-81h-395
q17 -41 56.5 -58t111.5 -17q78 0 110.5 8t52.5 31h166q-25 -86 -101.5 -125.5t-217.5 -39.5z" />
    <glyph glyph-name="dollar.OT" 
d="M452 10v-115h-95v115q-136 3 -216 40t-103 128h179q15 -29 57.5 -39.5t134.5 -10.5q103 0 141 11.5t38 42.5v7q0 26 -22 36t-90 13l-196 7q-129 4 -177.5 42.5t-48.5 122.5v7q0 166 298 173v115h95v-116q133 -3 209.5 -40.5t92.5 -125.5h-179q-15 29 -52.5 39.5
t-120.5 10.5q-94 0 -131.5 -11.5t-37.5 -38.5v-4q0 -29 21 -38.5t92 -12.5l195 -7q129 -4 177.5 -41t48.5 -120v-10q0 -90 -77 -133t-233 -47z" />
    <glyph glyph-name="cent.OT" 
d="M453 -9v-96h-100v96q-127 8 -190 67.5t-63 191.5v30q0 132 63 191.5t190 67.5v96h100v-96q220 -11 250 -187h-159q-16 34 -46.5 47t-91.5 13q-79 0 -113.5 -28t-34.5 -108v-22q0 -80 34.5 -108t113.5 -28q61 0 91.5 13t46.5 47h159q-30 -176 -250 -187z" />
    <glyph glyph-name="sterling.OT" 
d="M666 342v-84h-362v-124h452v-134h-727v134h111v124h-111v84h111q4 145 78 206.5t224 61.5h22q268 0 302 -187h-170q-13 27 -43.5 39.5t-96.5 12.5q-84 0 -118 -28.5t-34 -104.5h362z" />
    <glyph glyph-name="florin.OT" 
d="M426 258v-454h-163v454h-240v84h242q10 141 84.5 199.5t229.5 58.5h170v-137h-148q-88 0 -127.5 -26.5t-46.5 -94.5h323v-84h-324z" />
    <glyph glyph-name="yen.OT" 
d="M482 191v-191h-166v191h-242v81h229l-50 56h-179v81h108l-169 191h210l183 -224h6l183 224h188l-168 -191h110v-81h-181l-50 -56h231v-81h-243z" />
    <glyph glyph-name="zero.slash.OT" 
d="M407 -10h-16q-89 0 -149.5 13.5t-106 47t-66.5 93t-21 149.5v14q0 90 21 149.5t66.5 93t106 47t149.5 13.5h16q90 0 150.5 -13.5t105.5 -47t65.5 -93t20.5 -149.5v-14q0 -90 -21 -149.5t-66 -93t-105.5 -47t-149.5 -13.5zM216 313v-26q0 -64 15 -95l267 271q-38 9 -99 9
q-109 0 -146 -32t-37 -127zM399 129q109 0 146 31.5t37 126.5v26q0 67 -16 99l-269 -273q36 -10 102 -10z" />
    <glyph glyph-name="zero.OT" 
d="M407 -10h-16q-89 0 -149.5 13.5t-106 47t-66.5 93t-21 149.5v14q0 90 21 149.5t66.5 93t106 47t149.5 13.5h16q90 0 150.5 -13.5t105.5 -47t65.5 -93t20.5 -149.5v-14q0 -90 -21 -149.5t-66 -93t-105.5 -47t-149.5 -13.5zM399 129q109 0 146 31.5t37 126.5v26
q0 95 -37 127t-146 32t-146 -32t-37 -127v-26q0 -95 37 -126.5t146 -31.5z" />
    <glyph glyph-name="one.OT" 
d="M748 134v-134h-699v134h267v332h-7l-260 -140v173l214 101h219v-466h266z" />
    <glyph glyph-name="two.OT" 
d="M752 134v-134h-706v111q0 105 49 160q50 56 173 68l224 19q55 6 73.5 18t18.5 40v4q0 32 -38 44.5t-132 12.5q-87 0 -127.5 -14t-55.5 -51h-174q24 106 107.5 152t235.5 46h15q336 0 336 -179v-9q0 -90 -49 -133t-171 -55l-220 -19q-61 -6 -80.5 -21t-19.5 -56v-4h541z
" />
    <glyph glyph-name="three.OT" 
d="M429 -110h-43q-155 0 -243 50t-104 165h170q12 -46 58 -63t140 -17q102 0 144.5 20.5t42.5 66.5v6q0 39 -26 56t-88 17h-216v134h210q56 0 79.5 15.5t23.5 51.5v5q0 43 -38.5 60.5t-129.5 17.5q-82 0 -123.5 -15t-53.5 -55h-169q23 108 102.5 156.5t223.5 48.5h33
q324 0 324 -176v-7q0 -63 -28.5 -97t-88.5 -44v-8q69 -10 101 -49t32 -114v-9q0 -111 -80.5 -163.5t-252.5 -52.5z" />
    <glyph glyph-name="four.OT" 
d="M678 64v-164h-167v164h-469v220l390 316h246v-406h98v-130h-98zM165 202v-8h346v282h-6z" />
    <glyph glyph-name="five.OT" 
d="M437 -110h-52q-149 0 -233 48t-102 157h170q12 -40 55.5 -55t131.5 -15q100 0 142 24.5t42 79.5v10q0 58 -41 81t-148 23q-82 0 -126.5 -12.5t-62.5 -41.5h-152l38 411h620v-135h-471l-17 -150h7q25 30 77 44t149 14q156 0 225.5 -56.5t69.5 -173.5v-10q0 -243 -322 -243
z" />
    <glyph glyph-name="six.OT" 
d="M435 -10h-50q-88 0 -148 15t-104.5 52t-65.5 102t-21 161v52q0 191 80 264.5t255 73.5h38q149 0 228 -47t102 -146h-171q-13 32 -52 46q-36 13 -123 13q-112 0 -152.5 -36t-40.5 -142v-17h7q38 74 230 74q166 0 235 -51.5t69 -163.5v-16q0 -234 -316 -234zM399 121
q103 0 144 23t41 77v11q0 53 -41.5 77t-143.5 24t-143.5 -24t-41.5 -77v-11q0 -53 39 -77q41 -23 146 -23z" />
    <glyph glyph-name="seven.OT" 
d="M762 460l-413 -560h-212l427 558v8h-530v134h728v-140z" />
    <glyph glyph-name="eight.OT" 
d="M427 -10h-58q-157 0 -241.5 50t-84.5 167v8q1 139 129 161v8q-114 22 -114 137v6q0 183 321 183h38q320 0 320 -183v-6q0 -114 -113 -137v-8q129 -22 129 -160v-9q0 -117 -84.5 -167t-241.5 -50zM336 424h123q57 0 83 17t26 54v6q0 45 -37 61t-133 16t-133 -16t-37 -61
v-6q0 -37 26 -54t82 -17zM398 121q106 0 146.5 19.5t40.5 72.5v5q0 46 -30 67t-97 21h-120q-67 0 -97 -21t-30 -67v-5q0 -53 40.5 -72.5t146.5 -19.5z" />
    <glyph glyph-name="nine.OT" 
d="M362 610h50q88 0 148 -15t104.5 -52t65.5 -102t21 -161v-52q0 -98 -20.5 -164t-64.5 -104t-104 -54t-146 -16h-38q-151 0 -229.5 47t-100.5 146h171q13 -32 51 -46q36 -13 124 -13q111 0 152 36t41 142v17h-7q-21 -38 -74.5 -56t-155.5 -18q-167 0 -235.5 51.5
t-68.5 163.5v16q0 234 316 234zM398 479q-103 0 -144 -23t-41 -77v-11q0 -53 41.5 -77t143.5 -24t143.5 24t41.5 77v11q0 54 -40 76q-39 24 -145 24z" />
    <glyph glyph-name="zero.numr" horiz-adv-x="480" 
d="M244 274h-8q-114 0 -165 44t-51 162v20q0 118 51 162t165 44h8q115 0 165.5 -44t50.5 -162v-21q0 -117 -51 -161t-165 -44zM239 380q48 0 63.5 17t15.5 77v31q0 60 -15.5 77.5t-63.5 17.5q-46 0 -61.5 -17.5t-15.5 -77.5v-31q0 -59 15.5 -76.5t61.5 -17.5z" />
    <glyph glyph-name="one.numr" horiz-adv-x="350" 
d="M306 700v-420h-141v312h-5l-140 -77v135l108 50h178z" />
    <glyph glyph-name="two.numr" horiz-adv-x="480" 
d="M461 381v-101h-441v77q0 79 33.5 114t122.5 49l95 15q27 5 36 12.5t9 23.5v1q0 19 -14.5 26.5t-53.5 7.5q-38 0 -54.5 -7t-23.5 -27h-146q12 75 65.5 104.5t149.5 29.5h9q111 0 162 -31.5t51 -95.5v-5q0 -58 -30 -87t-108 -43l-124 -19q-23 -5 -30 -12.5t-7 -24.5v-7h299
z" />
    <glyph glyph-name="three.numr" horiz-adv-x="480" 
d="M257 274h-20q-98 0 -154 30.5t-67 106.5h145q5 -22 24.5 -29.5t57.5 -7.5q43 0 59 8t16 28v4q0 31 -49 31h-94v96h85q26 0 36 7t10 22v3q0 18 -14.5 25.5t-47.5 7.5q-59 0 -69 -31h-147q14 69 61.5 100t142.5 31h15q206 0 206 -105v-4q0 -38 -18 -57.5t-59 -25.5v-5
q47 -5 68.5 -28.5t21.5 -70.5v-3q0 -69 -50 -101t-159 -32z" />
    <glyph glyph-name="four.numr" horiz-adv-x="480" 
d="M423 368v-88h-144v88h-263v154l196 178h211v-231h49v-101h-49zM128 474v-5h151v136h-5z" />
    <glyph glyph-name="five.numr" horiz-adv-x="480" 
d="M257 274h-21q-93 0 -149.5 29t-69.5 102h146q10 -31 78 -31q43 0 60 10.5t17 34.5v6q0 24 -18.5 34.5t-64.5 10.5q-66 0 -82 -23h-131l24 253h395v-101h-266l-8 -72h5q27 36 120 36q96 0 135 -33t39 -102v-5q0 -149 -209 -149z" />
    <glyph glyph-name="six.numr" horiz-adv-x="480" 
d="M260 274h-22q-115 0 -167.5 45.5t-52.5 159.5v21q0 115 51.5 160.5t166.5 45.5h14q97 0 146.5 -30.5t66.5 -90.5h-148q-12 21 -70 21q-47 0 -65.5 -17t-18.5 -63v-13h5q23 38 122 38t137.5 -31t38.5 -99v-3q0 -144 -204 -144zM240 371q46 0 62.5 10.5t16.5 34.5v6
q0 24 -16.5 34t-62.5 10t-62.5 -10t-16.5 -34v-6q0 -24 16.5 -34.5t62.5 -10.5z" />
    <glyph glyph-name="seven.numr" horiz-adv-x="480" 
d="M467 592l-237 -312h-180l249 309v5h-286v106h454v-108z" />
    <glyph glyph-name="eight.numr" horiz-adv-x="480" 
d="M253 273h-26q-210 0 -210 134v4q0 86 87 98v5q-76 14 -76 81v3q2 108 205 108h14q205 0 205 -108v-3q0 -67 -76 -81v-5q87 -12 87 -97v-5q0 -134 -210 -134zM225 535h30q29 0 41 8t12 26v4q0 20 -14.5 27.5t-53.5 7.5q-40 0 -54 -7.5t-14 -27.5v-4q0 -18 12 -26t41 -8z
M240 371q46 0 62.5 9t16.5 34v3q0 24 -13.5 33.5t-50.5 9.5h-31q-37 0 -50 -9.5t-13 -33.5v-3q0 -25 16.5 -34t62.5 -9z" />
    <glyph glyph-name="nine.numr" horiz-adv-x="480" 
d="M220 706h22q115 0 167.5 -45.5t52.5 -159.5v-21q0 -115 -51.5 -160.5t-166.5 -45.5h-14q-97 0 -146.5 30.5t-66.5 90.5h148q12 -21 70 -21q47 0 65.5 17t18.5 63v13h-5q-23 -38 -122 -38t-137.5 31t-38.5 99v3q0 144 204 144zM240 609q-46 0 -62.5 -10.5t-16.5 -34.5v-6
q0 -24 16.5 -34t62.5 -10t62.5 10t16.5 34v6q0 24 -16.5 34.5t-62.5 10.5z" />
    <glyph glyph-name="zero.dnom" horiz-adv-x="480" 
d="M244 -6h-8q-114 0 -165 44t-51 162v20q0 118 51 162t165 44h8q115 0 165.5 -44t50.5 -162v-21q0 -117 -51 -161t-165 -44zM239 100q48 0 63.5 17t15.5 77v31q0 60 -15.5 77.5t-63.5 17.5q-46 0 -61.5 -17.5t-15.5 -77.5v-31q0 -59 15.5 -76.5t61.5 -17.5z" />
    <glyph glyph-name="one.dnom" horiz-adv-x="350" 
d="M306 420v-420h-141v312h-5l-140 -77v135l108 50h178z" />
    <glyph glyph-name="two.dnom" horiz-adv-x="480" 
d="M461 101v-101h-441v77q0 79 33.5 114t122.5 49l95 15q27 5 36 12.5t9 23.5v1q0 19 -14.5 26.5t-53.5 7.5q-38 0 -54.5 -7t-23.5 -27h-146q12 75 65.5 104.5t149.5 29.5h9q111 0 162 -31.5t51 -95.5v-5q0 -58 -30 -87t-108 -43l-124 -19q-23 -5 -30 -12.5t-7 -24.5v-7h299
z" />
    <glyph glyph-name="three.dnom" horiz-adv-x="480" 
d="M257 -6h-20q-98 0 -154 30.5t-67 106.5h145q5 -22 24.5 -29.5t57.5 -7.5q43 0 59 8t16 28v4q0 31 -49 31h-94v96h85q26 0 36 7t10 22v3q0 18 -14.5 25.5t-47.5 7.5q-59 0 -69 -31h-147q14 69 61.5 100t142.5 31h15q206 0 206 -105v-4q0 -38 -18 -57.5t-59 -25.5v-5
q47 -5 68.5 -28.5t21.5 -70.5v-3q0 -69 -50 -101t-159 -32z" />
    <glyph glyph-name="four.dnom" horiz-adv-x="480" 
d="M423 88v-88h-144v88h-263v154l196 178h211v-231h49v-101h-49zM128 194v-5h151v136h-5z" />
    <glyph glyph-name="five.dnom" horiz-adv-x="480" 
d="M257 -6h-21q-93 0 -149.5 29t-69.5 102h146q10 -31 78 -31q43 0 60 10.5t17 34.5v6q0 24 -18.5 34.5t-64.5 10.5q-66 0 -82 -23h-131l24 253h395v-101h-266l-8 -72h5q27 36 120 36q96 0 135 -33t39 -102v-5q0 -149 -209 -149z" />
    <glyph glyph-name="six.dnom" horiz-adv-x="480" 
d="M260 -6h-22q-115 0 -167.5 45.5t-52.5 159.5v21q0 115 51.5 160.5t166.5 45.5h14q97 0 146.5 -30.5t66.5 -90.5h-148q-12 21 -70 21q-47 0 -65.5 -17t-18.5 -63v-13h5q23 38 122 38t137.5 -31t38.5 -99v-3q0 -144 -204 -144zM240 91q46 0 62.5 10.5t16.5 34.5v6
q0 24 -16.5 34t-62.5 10t-62.5 -10t-16.5 -34v-6q0 -24 16.5 -34.5t62.5 -10.5z" />
    <glyph glyph-name="seven.dnom" horiz-adv-x="480" 
d="M467 312l-237 -312h-180l249 309v5h-286v106h454v-108z" />
    <glyph glyph-name="eight.dnom" horiz-adv-x="480" 
d="M253 -7h-26q-210 0 -210 134v4q0 86 87 98v5q-76 14 -76 81v3q2 108 205 108h14q205 0 205 -108v-3q0 -67 -76 -81v-5q87 -12 87 -97v-5q0 -134 -210 -134zM225 255h30q29 0 41 8t12 26v4q0 20 -14.5 27.5t-53.5 7.5q-40 0 -54 -7.5t-14 -27.5v-4q0 -18 12 -26t41 -8z
M240 91q46 0 62.5 9t16.5 34v3q0 24 -13.5 33.5t-50.5 9.5h-31q-37 0 -50 -9.5t-13 -33.5v-3q0 -25 16.5 -34t62.5 -9z" />
    <glyph glyph-name="nine.dnom" horiz-adv-x="480" 
d="M220 426h22q115 0 167.5 -45.5t52.5 -159.5v-21q0 -115 -51.5 -160.5t-166.5 -45.5h-14q-97 0 -146.5 30.5t-66.5 90.5h148q12 -21 70 -21q47 0 65.5 17t18.5 63v13h-5q-23 -38 -122 -38t-137.5 31t-38.5 99v3q0 144 204 144zM240 329q-46 0 -62.5 -10.5t-16.5 -34.5v-6
q0 -24 16.5 -34t62.5 -10t62.5 10t16.5 34v6q0 24 -16.5 34.5t-62.5 10.5z" />
    <glyph glyph-name="G.alt" horiz-adv-x="929" 
d="M867 411v-411h-152v92h-7q-44 -102 -257 -102h-29q-196 0 -285.5 77.5t-89.5 255.5v54q0 179 90 256t297 77h55q169 0 259 -51t118 -163h-188q-19 39 -65 55t-138 16h-29q-69 0 -113 -11.5t-68 -38t-33 -61.5t-9 -91v-31q0 -56 9 -91t33 -61.5t68 -38t113 -11.5h28
q122 0 168.5 30t49.5 112h-261v137h436z" />
    <glyph glyph-name="Gcircumflex.alt" horiz-adv-x="931" 
d="M572 860l118 -120h-142l-87 73l-87 -73h-142l118 120h222zM867 411v-411h-152v92h-7q-44 -102 -257 -102h-29q-196 0 -285.5 77.5t-89.5 255.5v54q0 179 90 256t297 77h55q169 0 259 -51t118 -163h-188q-19 39 -65 55t-138 16h-29q-69 0 -113 -11.5t-68 -38t-33 -61.5
t-9 -91v-31q0 -56 9 -91t33 -61.5t68 -38t113 -11.5h28q122 0 168.5 30t49.5 112h-261v137h436z" />
    <glyph glyph-name="Gbreve.alt" horiz-adv-x="931" 
d="M461 731q-110 0 -154 31q-46 32 -53 98h124q4 -50 83 -50q41 0 60.5 12t22.5 38h124q-9 -69 -54.5 -99t-152.5 -30zM867 411v-411h-152v92h-7q-44 -102 -257 -102h-29q-196 0 -285.5 77.5t-89.5 255.5v54q0 179 90 256t297 77h55q169 0 259 -51t118 -163h-188
q-19 39 -65 55t-138 16h-29q-69 0 -113 -11.5t-68 -38t-33 -61.5t-9 -91v-31q0 -56 9 -91t33 -61.5t68 -38t113 -11.5h28q122 0 168.5 30t49.5 112h-261v137h436z" />
    <glyph glyph-name="Gdotaccent.alt" horiz-adv-x="931" 
d="M382 858h159v-109h-159v109zM867 411v-411h-152v92h-7q-44 -102 -257 -102h-29q-196 0 -285.5 77.5t-89.5 255.5v54q0 179 90 256t297 77h55q169 0 259 -51t118 -163h-188q-19 39 -65 55t-138 16h-29q-69 0 -113 -11.5t-68 -38t-33 -61.5t-9 -91v-31q0 -56 9 -91
t33 -61.5t68 -38t113 -11.5h28q122 0 168.5 30t49.5 112h-261v137h436z" />
    <glyph glyph-name="Gcommaaccent.alt" horiz-adv-x="931" 
d="M867 411v-411h-152v92h-7q-44 -102 -257 -102h-29q-196 0 -285.5 77.5t-89.5 255.5v54q0 179 90 256t297 77h55q169 0 259 -51t118 -163h-188q-19 39 -65 55t-138 16h-29q-69 0 -113 -11.5t-68 -38t-33 -61.5t-9 -91v-31q0 -56 9 -91t33 -61.5t68 -38t113 -11.5h28
q122 0 168.5 30t49.5 112h-261v137h436zM486 -152l-18 -18h-91l49 53v8h-71v73h174v-19q0 -32 -9 -50.5t-34 -46.5z" />
    <glyph glyph-name="J.alt" horiz-adv-x="745" 
d="M370 -10h-18q-159 0 -234 55.5t-90 180.5l-1 17h177l2 -14q10 -49 41.5 -72t108.5 -23h9q89 0 121 33q32 35 32 112v421h177v-413q0 -166 -72.5 -231.5t-252.5 -65.5z" />
    <glyph glyph-name="Jcircumflex.alt" horiz-adv-x="745" 
d="M717 860l118 -120h-142l-87 73l-87 -73h-142l118 120h222zM370 -10h-18q-159 0 -234 55.5t-90 180.5l-1 17h177l2 -14q10 -49 41.5 -72t108.5 -23h9q89 0 121 33q32 35 32 112v421h177v-413q0 -166 -72.5 -231.5t-252.5 -65.5z" />
    <glyph glyph-name="K.alt" horiz-adv-x="917" 
d="M238 700v-700h-173v700h173zM483 361l427 -361h-252l-409 350l406 350h229z" />
    <glyph glyph-name="Kcommaaccent.alt" horiz-adv-x="917" 
d="M238 700v-700h-173v700h173zM483 361l427 -361h-252l-409 350l406 350h229zM483 -152l-18 -18h-91l49 53v8h-71v73h174v-19q0 -32 -9 -50.5t-34 -46.5z" />
    <glyph glyph-name="Q.alt" horiz-adv-x="924" 
d="M491 -10h-2h-55q-207 0 -297 77t-90 256v54q0 179 90 256t297 77h55q207 0 297 -77t90 -256v-54q0 -132 -47 -206.5t-151 -104.5l158 -182h-214zM447 133h30q92 1 141 24t65.5 63.5t16.5 113.5v31q0 56 -9 91t-33 61.5t-68 38t-113 11.5h-30q-135 0 -179.5 -45.5
t-44.5 -156.5v-31q0 -55 8.5 -90t32.5 -61.5t68.5 -38t114.5 -11.5z" />
    <glyph glyph-name="R.alt" horiz-adv-x="853" 
d="M238 264v-264h-173v700h470q145 0 208 -47.5t63 -158.5v-23q0 -90 -49 -138t-154 -58l229 -275h-214l-213 264h-167zM501 565h-263v-169h263q73 0 102 17.5t29 64.5v8q0 47 -28.5 63t-102.5 16z" />
    <glyph glyph-name="Racute.alt" horiz-adv-x="853" 
d="M638 860l-124 -120h-156l89 120h191zM238 264v-264h-173v700h470q145 0 208 -47.5t63 -158.5v-23q0 -90 -49 -138t-154 -58l229 -275h-214l-213 264h-167zM501 565h-263v-169h263q73 0 102 17.5t29 64.5v8q0 47 -28.5 63t-102.5 16z" />
    <glyph glyph-name="Rcaron.alt" horiz-adv-x="853" 
d="M433 787l87 73h142l-118 -120h-222l-118 120h142zM238 264v-264h-173v700h470q145 0 208 -47.5t63 -158.5v-23q0 -90 -49 -138t-154 -58l229 -275h-214l-213 264h-167zM501 565h-263v-169h263q73 0 102 17.5t29 64.5v8q0 47 -28.5 63t-102.5 16z" />
    <glyph glyph-name="Rcommaaccent.alt" horiz-adv-x="853" 
d="M238 264v-264h-173v700h470q145 0 208 -47.5t63 -158.5v-23q0 -90 -49 -138t-154 -58l229 -275h-214l-213 264h-167zM501 565h-263v-169h263q73 0 102 17.5t29 64.5v8q0 47 -28.5 63t-102.5 16zM460 -152l-18 -18h-91l49 53v8h-71v73h174v-19q0 -32 -9 -50.5t-34 -46.5z
" />
    <glyph glyph-name="a.alt" horiz-adv-x="705" 
d="M661 530v-530h-158v81h-5q-40 -91 -190 -91h-12q-129 0 -196 59t-67 201v30q0 142 67 201t196 59h12q150 0 190 -91h5v81h158zM347 118q86 0 121 27.5t35 111.5v17q0 83 -35 110.5t-121 27.5t-121 -27.5t-35 -110.5v-17q0 -84 35 -111.5t121 -27.5z" />
    <glyph glyph-name="agrave.alt" horiz-adv-x="705" 
d="M339 700l89 -120h-157l-124 120h192zM661 530v-530h-158v81h-5q-40 -91 -190 -91h-12q-129 0 -196 59t-67 201v30q0 142 67 201t196 59h12q150 0 190 -91h5v81h158zM347 118q86 0 121 27.5t35 111.5v17q0 83 -35 110.5t-121 27.5t-121 -27.5t-35 -110.5v-17
q0 -84 35 -111.5t121 -27.5z" />
    <glyph glyph-name="aacute.alt" horiz-adv-x="705" 
d="M551 700l-124 -120h-156l89 120h191zM661 530v-530h-158v81h-5q-40 -91 -190 -91h-12q-129 0 -196 59t-67 201v30q0 142 67 201t196 59h12q150 0 190 -91h5v81h158zM347 118q86 0 121 27.5t35 111.5v17q0 83 -35 110.5t-121 27.5t-121 -27.5t-35 -110.5v-17
q0 -84 35 -111.5t121 -27.5z" />
    <glyph glyph-name="acircumflex.alt" horiz-adv-x="705" 
d="M460 700l118 -120h-142l-87 73l-87 -73h-142l118 120h222zM661 530v-530h-158v81h-5q-40 -91 -190 -91h-12q-129 0 -196 59t-67 201v30q0 142 67 201t196 59h12q150 0 190 -91h5v81h158zM347 118q86 0 121 27.5t35 111.5v17q0 83 -35 110.5t-121 27.5t-121 -27.5
t-35 -110.5v-17q0 -84 35 -111.5t121 -27.5z" />
    <glyph glyph-name="atilde.alt" horiz-adv-x="705" 
d="M429 579q-35 0 -87 18.5t-65 18.5q-16 0 -23.5 -5.5t-11.5 -23.5h-99q8 63 36.5 88.5t84.5 25.5q35 0 87 -18.5t65 -18.5q15 0 22.5 6t12.5 24h104q-8 -63 -39 -89t-87 -26zM661 530v-530h-158v81h-5q-40 -91 -190 -91h-12q-129 0 -196 59t-67 201v30q0 142 67 201
t196 59h12q150 0 190 -91h5v81h158zM347 118q86 0 121 27.5t35 111.5v17q0 83 -35 110.5t-121 27.5t-121 -27.5t-35 -110.5v-17q0 -84 35 -111.5t121 -27.5z" />
    <glyph glyph-name="adieresis.alt" horiz-adv-x="705" 
d="M176 691h131v-109h-131v109zM391 691h131v-109h-131v109zM661 530v-530h-158v81h-5q-40 -91 -190 -91h-12q-129 0 -196 59t-67 201v30q0 142 67 201t196 59h12q150 0 190 -91h5v81h158zM347 118q86 0 121 27.5t35 111.5v17q0 83 -35 110.5t-121 27.5t-121 -27.5
t-35 -110.5v-17q0 -84 35 -111.5t121 -27.5z" />
    <glyph glyph-name="amacron.alt" horiz-adv-x="705" 
d="M540 673v-73h-383v73h383zM661 530v-530h-158v81h-5q-40 -91 -190 -91h-12q-129 0 -196 59t-67 201v30q0 142 67 201t196 59h12q150 0 190 -91h5v81h158zM347 118q86 0 121 27.5t35 111.5v17q0 83 -35 110.5t-121 27.5t-121 -27.5t-35 -110.5v-17q0 -84 35 -111.5
t121 -27.5z" />
    <glyph glyph-name="abreve.alt" horiz-adv-x="705" 
d="M349 571q-110 0 -154 31q-46 32 -53 98h124q4 -50 83 -50q41 0 60.5 12t22.5 38h124q-9 -69 -54.5 -99t-152.5 -30zM661 530v-530h-158v81h-5q-40 -91 -190 -91h-12q-129 0 -196 59t-67 201v30q0 142 67 201t196 59h12q150 0 190 -91h5v81h158zM347 118q86 0 121 27.5
t35 111.5v17q0 83 -35 110.5t-121 27.5t-121 -27.5t-35 -110.5v-17q0 -84 35 -111.5t121 -27.5z" />
    <glyph glyph-name="aring.alt" horiz-adv-x="705" 
d="M349 562q-83 0 -123 25t-40 83t40 83t123 25t122.5 -25t39.5 -83t-39.5 -83t-122.5 -25zM349 627q62 0 62 43t-62 43q-34 0 -48 -10.5t-14 -32.5t14 -32.5t48 -10.5zM661 530v-530h-158v81h-5q-40 -91 -190 -91h-12q-129 0 -196 59t-67 201v30q0 142 67 201t196 59h12
q150 0 190 -91h5v81h158zM347 118q86 0 121 27.5t35 111.5v17q0 83 -35 110.5t-121 27.5t-121 -27.5t-35 -110.5v-17q0 -84 35 -111.5t121 -27.5z" />
    <glyph glyph-name="aringacute.alt" horiz-adv-x="706" 
d="M550 920l-124 -120h-156l89 120h191zM348 559q-83 0 -123 25t-40 83t40 83t123 25t122.5 -25t39.5 -83t-39.5 -83t-122.5 -25zM348 624q34 0 48 10t14 33t-14 33t-48 10t-48 -10t-14 -33t14 -33t48 -10zM661 530v-530h-158v81h-5q-40 -91 -190 -91h-12q-129 0 -196 59
t-67 201v30q0 142 67 201t196 59h12q150 0 190 -91h5v81h158zM347 118q86 0 121 27.5t35 111.5v17q0 83 -35 110.5t-121 27.5t-121 -27.5t-35 -110.5v-17q0 -84 35 -111.5t121 -27.5z" />
    <glyph glyph-name="aogonek.alt" horiz-adv-x="706" 
d="M661 -69v-71h-111q-63 0 -91.5 16.5t-28.5 55.5q0 30 14 48.5t59 34.5v66h-5q-40 -91 -190 -91h-12q-129 0 -196 59t-67 201v30q0 142 67 201t196 59h12q150 0 190 -91h5v81h158v-530q-58 -11 -73 -20t-15 -25q0 -13 7.5 -18.5t27.5 -5.5h53zM347 118q86 0 121 27.5
t35 111.5v17q0 83 -35 110.5t-121 27.5t-121 -27.5t-35 -110.5v-17q0 -84 35 -111.5t121 -27.5z" />
    <glyph glyph-name="a.superior.alt" horiz-adv-x="578" 
d="M541 700v-420h-142v63h-4q-34 -71 -149 -71h-9q-102 0 -155 47t-53 160v22q0 113 53 160t155 47h9q114 0 149 -71h4v63h142zM285 382q65 0 89.5 20t24.5 82v13q0 62 -24.5 81.5t-89.5 19.5t-90 -19.5t-25 -81.5v-13q0 -62 25 -82t90 -20z" />
    <glyph glyph-name="k.alt" horiz-adv-x="670" 
d="M201 700v-700h-158v700h158zM404 300l263 -300h-202l-253 294l234 236h195z" />
    <glyph glyph-name="kcommaaccent.alt" horiz-adv-x="670" 
d="M201 700v-700h-158v700h158zM404 300l263 -300h-202l-253 294l234 236h195zM371 -152l-18 -18h-91l49 53v8h-71v73h174v-19q0 -32 -9 -50.5t-34 -46.5z" />
    <glyph glyph-name="k.superior.alt" horiz-adv-x="548" 
d="M179 834v-554h-142v554h142zM546 280h-176l-186 243l175 177h170l-182 -172z" />
    <glyph glyph-name="ampersand.alt" horiz-adv-x="904" 
d="M736 291v-291h-418q-136 0 -200 50.5t-64 151.5v8q0 145 122 169v4q-105 19 -105 134v5q0 90 61 134t205 44h331v-134h-312q-61 0 -87.5 -14.5t-26.5 -50.5v-6q0 -38 28.5 -52.5t96.5 -14.5h203v71h166v-71h168v-137h-168zM357 133h213v158h-212q-76 0 -105 -14t-29 -60
v-5q0 -46 31 -62.5t102 -16.5z" />
    <glyph glyph-name="registered.alt" horiz-adv-x="868" 
d="M483 -10h-98q-185 0 -270.5 79t-85.5 232v98q0 153 85.5 232t270.5 79h98q185 0 270.5 -79t85.5 -232v-98q0 -153 -85.5 -232t-270.5 -79zM400 25h68q99 0 165 19.5t102 60t50.5 93t14.5 128.5v48q0 76 -14.5 128.5t-50.5 93t-102 60t-165 19.5h-68q-98 0 -164 -19.5
t-102 -60t-50.5 -93t-14.5 -128.5v-48q0 -76 14.5 -128.5t50.5 -93t102 -60t164 -19.5zM355 301v-161h-131v420h280q93 0 132.5 -28.5t39.5 -96.5v-12q0 -53 -27.5 -82t-88.5 -36l132 -165h-161l-121 161h-55zM475 467h-120v-86h123q36 0 51 9t15 32v4q0 24 -15.5 32.5
t-53.5 8.5z" />
    <glyph glyph-name="NULL" horiz-adv-x="0" 
 />
    <glyph glyph-name="CR" horiz-adv-x="237" 
 />
    </font>
</defs>
</svg>
