<svg xmlns="http://www.w3.org/2000/svg">
<defs>
<font id="PilatWide-Light" horiz-adv-x="774" >
  <font-face 
    font-family="Pilat Wide Light"
    font-weight="300"
    font-stretch="semi-expanded"
    units-per-em="1000"
    panose-1="2 11 4 5 3 0 0 0 0 4"
    ascent="750"
    descent="-250"
    x-height="530"
    cap-height="700"
    bbox="-142 -205 1548 1080"
    underline-thickness="44"
    underline-position="-180"
    unicode-range="U+0020-FB00"
  />
<missing-glyph horiz-adv-x="700" 
d="M369 -80q-113 0 -190 78.5t-77 187.5v18l-19 31q-15 25 -9 53q6 29 31 44l7 4q18 13 43 11q-7 24 0.5 46t28.5 35l7 4q20 12 41 11l-76 120q-12 21 -12 39q0 30 21.5 52.5t51.5 22.5q42 0 65 -35l139 -221v224q0 31 21.5 53t52.5 22t52.5 -22t21.5 -53v-286
q30 -15 48 -43t18 -63v-62q0 -65 -30 -126t-92.5 -103t-143.5 -42zM451 645v-274h66q8 0 22 -2v276q0 18 -13 31t-31 13t-31 -13t-13 -31zM182 579l127 -203l24 -37q13 32 50 32h33l-160 255q-12 20 -37 20q-18 0 -31 -13t-13 -31q0 -12 7 -23zM313 220l8 5q13 9 17 24.5
t-5 30.5l-72 114q-9 14 -25 17.5t-29 -4.5l-8 -5q-13 -9 -17 -25.5t5 -29.5l72 -114q9 -14 25 -17.5t29 4.5zM359 138q0 25 12.5 50t29.5 33q-16 1 -34 15q-7 -25 -29 -37l-7 -4q-18 -11 -43 -11q8 -23 -0.5 -45.5t-28.5 -35.5l-8 -5q-24 -15 -51.5 -8.5t-44.5 31.5l-20 30
q10 -85 78.5 -143t154.5 -58q99 0 168 71.5t69 169.5v62q0 36 -26 62t-62 26h-134q-10 0 -17 -7.5t-7 -19.5q0 -27 19 -47.5t48 -20.5h42q6 0 10.5 -4.5t4.5 -10.5t-4.5 -10.5t-10.5 -4.5q-34 0 -55.5 -23.5t-21.5 -54.5q0 -6 -5 -10.5t-11 -4.5t-11 4.5t-5 10.5zM235 124
l8 5q13 9 17 24.5t-5 30.5l-72 114q-9 14 -25 17.5t-29 -4.5l-8 -5q-13 -9 -17 -25.5t5 -29.5l72 -114q9 -14 25 -17.5t29 4.5z" />
    <glyph glyph-name="f_f" unicode="ff" horiz-adv-x="807" 
d="M159 480h-146v50h146q4 97 49 133q44 37 141 37h77v-49h-70q-73 0 -105.5 -23.5t-32.5 -97.5h310q4 97 49 133q44 37 141 37h77v-49h-70q-74 0 -106 -23.5t-32 -97.5h208v-50h-208v-480h-59v480h-310v-480h-59v480z" />
    <glyph glyph-name=".notdef" horiz-adv-x="700" 
d="M369 -80q-113 0 -190 78.5t-77 187.5v18l-19 31q-15 25 -9 53q6 29 31 44l7 4q18 13 43 11q-7 24 0.5 46t28.5 35l7 4q20 12 41 11l-76 120q-12 21 -12 39q0 30 21.5 52.5t51.5 22.5q42 0 65 -35l139 -221v224q0 31 21.5 53t52.5 22t52.5 -22t21.5 -53v-286
q30 -15 48 -43t18 -63v-62q0 -65 -30 -126t-92.5 -103t-143.5 -42zM451 645v-274h66q8 0 22 -2v276q0 18 -13 31t-31 13t-31 -13t-13 -31zM182 579l127 -203l24 -37q13 32 50 32h33l-160 255q-12 20 -37 20q-18 0 -31 -13t-13 -31q0 -12 7 -23zM313 220l8 5q13 9 17 24.5
t-5 30.5l-72 114q-9 14 -25 17.5t-29 -4.5l-8 -5q-13 -9 -17 -25.5t5 -29.5l72 -114q9 -14 25 -17.5t29 4.5zM359 138q0 25 12.5 50t29.5 33q-16 1 -34 15q-7 -25 -29 -37l-7 -4q-18 -11 -43 -11q8 -23 -0.5 -45.5t-28.5 -35.5l-8 -5q-24 -15 -51.5 -8.5t-44.5 31.5l-20 30
q10 -85 78.5 -143t154.5 -58q99 0 168 71.5t69 169.5v62q0 36 -26 62t-62 26h-134q-10 0 -17 -7.5t-7 -19.5q0 -27 19 -47.5t48 -20.5h42q6 0 10.5 -4.5t4.5 -10.5t-4.5 -10.5t-10.5 -4.5q-34 0 -55.5 -23.5t-21.5 -54.5q0 -6 -5 -10.5t-11 -4.5t-11 4.5t-5 10.5zM235 124
l8 5q13 9 17 24.5t-5 30.5l-72 114q-9 14 -25 17.5t-29 -4.5l-8 -5q-13 -9 -17 -25.5t5 -29.5l72 -114q9 -14 25 -17.5t29 4.5z" />
    <glyph glyph-name=".null" horiz-adv-x="0" 
 />
    <glyph glyph-name="nonmarkingreturn" horiz-adv-x="333" 
 />
    <glyph glyph-name="space" unicode=" " horiz-adv-x="271" 
 />
    <glyph glyph-name="exclam" unicode="!" horiz-adv-x="265" 
d="M100 406v294h65v-294l-13 -185h-39zM181 0h-97v95h97v-95z" />
    <glyph glyph-name="quotedbl" unicode="&#x22;" horiz-adv-x="359" 
d="M121 700v-234h-56v234h56zM293 700v-234h-56v234h56z" />
    <glyph glyph-name="numbersign" unicode="#" 
d="M488 0h-52l28 203h-194l-29 -203h-53l30 203h-161v49h167l27 197h-161v49h167l29 202h53l-30 -202h195l30 202h52l-30 -202h161v-49h-167l-27 -197h161v-49h-167zM499 450h-197l-27 -199h197z" />
    <glyph glyph-name="dollar" unicode="$" 
d="M427 10v-115h-51v115q-112 2 -197 37.5t-113 115.5h66q25 -54 96.5 -78.5t163.5 -24.5q137 0 203 33t67 112v6q0 66 -39.5 88.5t-146.5 27.5l-184 8q-119 6 -167 44.5t-48 115.5v14q0 176 283 181v115h52v-115q243 -8 285 -153h-66q-43 103 -254 103q-236 0 -237 -129v-6
q0 -66 38.5 -88.5t147.5 -28.5l184 -8q119 -6 166.5 -44t47.5 -115v-14q0 -104 -77.5 -149t-219.5 -48z" />
    <glyph glyph-name="percent" unicode="%" horiz-adv-x="880" 
d="M228 356h-11q-90 0 -133.5 41.5t-43.5 129.5v12q0 88 43.5 129.5t133.5 41.5h11q90 0 133.5 -41.5t43.5 -129.5v-12q0 -88 -43.5 -129.5t-133.5 -41.5zM664 700l-397 -700h-52l398 700h51zM222 403q69 0 99 28.5t30 96.5v10q0 67 -30.5 96t-98.5 29t-98.5 -29t-30.5 -96
v-10q0 -68 30 -96.5t99 -28.5zM663 -10h-11q-90 0 -134 41.5t-44 129.5v12q0 171 178 171h11q90 0 133.5 -42t43.5 -129v-12q0 -88 -43.5 -129.5t-133.5 -41.5zM657 36q68 0 99 29.5t31 96.5v10q0 66 -31.5 95.5t-98.5 29.5t-98 -29.5t-31 -95.5v-10q0 -67 30.5 -96.5
t98.5 -29.5z" />
    <glyph glyph-name="ampersand" unicode="&#x26;" horiz-adv-x="914" 
d="M890 53v-53h-12q-50 0 -97 28l-90 58q-48 -57 -112 -76.5t-172 -19.5h-51q-146 0 -221.5 47t-75.5 168v3q0 78 35 125t120 67v4q-60 40 -60 125v5q0 90 61.5 133t189.5 43h10q119 0 187.5 -41.5t82.5 -137.5h-62q-24 126 -208 126h-6q-105 0 -148 -30.5t-43 -90.5v-5
q0 -42 19 -70q18 -27 78 -65l366 -234l124 219h62l-142 -248l92 -59q33 -21 65 -21h8zM366 42h52q82 0 134.5 15.5t91.5 57.5l-384 246q-73 -13 -106.5 -48t-33.5 -99v-12q0 -86 59 -123t187 -37z" />
    <glyph glyph-name="quotesingle" unicode="'" horiz-adv-x="187" 
d="M121 700v-234h-56v234h56z" />
    <glyph glyph-name="parenleft" unicode="(" horiz-adv-x="353" 
d="M294 -44v-46q-98 23 -158 112q-59 91 -59 262v42q0 171 59 262q60 89 158 112v-46q-168 -53 -168 -339v-20q0 -286 168 -339z" />
    <glyph glyph-name="parenright" unicode=")" horiz-adv-x="353" 
d="M47 654v46q99 -23 157 -112q60 -90 60 -262v-42q0 -172 -60 -262q-58 -89 -157 -112v46q168 53 168 339v20q0 286 -168 339z" />
    <glyph glyph-name="asterisk" unicode="*" horiz-adv-x="399" 
d="M323 394l-39 -29l-82 121h-5l-82 -121l-39 29l89 118l-1 3l-140 43l16 48l138 -53l3 3l-6 144h48l-5 -144l3 -3l137 53l16 -48l-139 -43l-1 -3z" />
    <glyph glyph-name="plus" unicode="+" horiz-adv-x="600" 
d="M277 306h-207v47h207v216h47v-216h206v-47h-206v-217h-47v217z" />
    <glyph glyph-name="comma" unicode="," horiz-adv-x="259" 
d="M132 -119l-13 -21h-48l73 134v6h-65v95h106v-55q0 -40 -10 -72.5t-43 -86.5z" />
    <glyph glyph-name="hyphen" unicode="-" horiz-adv-x="315" 
d="M298 266h-281v53h281v-53z" />
    <glyph glyph-name="period" unicode="." horiz-adv-x="259" 
d="M178 0h-97v95h97v-95z" />
    <glyph glyph-name="slash" unicode="/" horiz-adv-x="429" 
d="M51 -100h-51l379 800h50z" />
    <glyph glyph-name="zero" unicode="0" horiz-adv-x="843" 
d="M447 -10h-51q-168 0 -246.5 72t-78.5 234v108q0 161 78.5 233.5t246.5 72.5h51q169 0 246.5 -72t77.5 -234v-108q0 -163 -77.5 -234.5t-246.5 -71.5zM421 43q166 0 227.5 61.5t61.5 210.5v70q0 149 -61.5 210.5t-227.5 61.5q-165 0 -226.5 -61.5t-61.5 -210.5v-70
q0 -149 61.5 -210.5t226.5 -61.5z" />
    <glyph glyph-name="one" unicode="1" horiz-adv-x="486" 
d="M389 700v-700h-61v653h-5l-283 -149v67l252 129h97z" />
    <glyph glyph-name="two" unicode="2" 
d="M706 53v-53h-636v86q0 131 44 183.5t170 71.5l204 30q89 13 122.5 44t33.5 97v10q0 69 -58 102t-183 33q-122 0 -179 -32.5t-71 -109.5h-62q8 56 33.5 95.5t67 60.5t90 30t111.5 9h17q295 0 295 -183v-18q0 -83 -40 -127t-149 -61l-207 -30q-107 -17 -142.5 -52.5
t-35.5 -139.5v-46h575z" />
    <glyph glyph-name="three" unicode="3" 
d="M410 -10h-26q-138 0 -217.5 45.5t-95.5 153.5h62q18 -83 81.5 -114.5t185.5 -31.5q130 0 192 37t62 117v17q0 64 -38.5 95.5t-128.5 31.5h-242v53h245q80 0 114 28t34 87v14q0 71 -57 102.5t-185 31.5q-106 0 -164.5 -30.5t-74.5 -110.5h-61q20 105 90.5 149.5
t200.5 44.5h16q151 0 224 -43t73 -137v-11q0 -117 -99 -142v-5q114 -27 114 -158v-15q0 -109 -77 -159t-228 -50z" />
    <glyph glyph-name="four" unicode="4" 
d="M603 195v-195h-61v195h-479v83l441 422h99v-454h127v-51h-127zM114 251v-5h428v410h-5z" />
    <glyph glyph-name="five" unicode="5" 
d="M417 -10h-28q-274 0 -301 180h62q14 -66 74.5 -96.5t177.5 -30.5q127 0 187.5 43t60.5 131v16q0 91 -57 133t-184 42q-191 0 -250 -94h-56l37 386h534v-53h-478l-27 -260h4q26 34 91 53.5t154 19.5q152 0 222.5 -55t70.5 -170v-17q0 -111 -75 -169.5t-219 -58.5z" />
    <glyph glyph-name="six" unicode="6" 
d="M408 -10h-27q-61 0 -104.5 6.5t-84.5 24.5t-65.5 50t-39 85t-14.5 127v114q0 94 19 156t60 96t93.5 47.5t130.5 13.5h24q137 0 207 -40t88 -134h-61q-17 67 -73.5 94t-171.5 27q-72 0 -116.5 -10t-77.5 -39t-47 -82t-14 -137v-50h5q22 52 81.5 77.5t182.5 25.5
q151 0 225.5 -49t74.5 -165v-16q0 -120 -77 -171t-218 -51zM392 42q133 0 191 39t58 125v21q0 85 -58.5 124.5t-190.5 39.5q-131 0 -190 -39.5t-59 -124.5v-21q0 -86 58 -125t191 -39z" />
    <glyph glyph-name="seven" unicode="7" 
d="M714 653l-427 -653h-73l425 643v4h-583v53h658v-47z" />
    <glyph glyph-name="eight" unicode="8" 
d="M405 -10h-36q-69 0 -119 8.5t-92.5 30t-64.5 63.5t-22 103v12q2 136 118 164v5q-100 26 -100 142v9q0 102 73.5 142.5t215.5 40.5h18q142 0 215.5 -40.5t73.5 -142.5v-9q0 -116 -101 -142v-5q117 -28 119 -164v-12q0 -61 -22 -103t-64.5 -63.5t-92.5 -30t-119 -8.5z
M292 395h190q141 0 141 117v12q0 74 -55 104t-181 30t-181 -30t-55 -104v-12q0 -117 141 -117zM387 42q136 0 195.5 33t59.5 116v17q0 63 -39.5 99.5t-120.5 36.5h-190q-81 0 -120.5 -36.5t-39.5 -99.5v-17q0 -83 59.5 -116t195.5 -33z" />
    <glyph glyph-name="nine" unicode="9" horiz-adv-x="775" 
d="M367 710h27q61 0 104.5 -6.5t84.5 -24.5t65.5 -50t39 -85t14.5 -127v-114q0 -94 -19 -156t-60 -96t-93.5 -47.5t-130.5 -13.5h-24q-136 0 -206.5 40t-88.5 134h61q17 -67 73.5 -94t171.5 -27q72 0 116.5 10t77.5 39t47 82t14 137v50h-5q-22 -52 -81.5 -77.5t-182.5 -25.5
q-151 0 -225.5 49t-74.5 165v16q0 119 77.5 170.5t217.5 51.5zM383 658q-132 0 -190.5 -39.5t-58.5 -124.5v-21q0 -85 58.5 -124.5t190.5 -39.5q131 0 190 39.5t59 124.5v21q0 85 -58.5 124.5t-190.5 39.5z" />
    <glyph glyph-name="colon" unicode=":" horiz-adv-x="259" 
d="M178 435h-97v95h97v-95zM178 0h-97v95h97v-95z" />
    <glyph glyph-name="semicolon" unicode=";" horiz-adv-x="259" 
d="M181 435h-97v95h97v-95zM132 -119l-13 -21h-48l73 134v6h-65v95h106v-55q0 -40 -10 -72.5t-43 -86.5z" />
    <glyph glyph-name="less" unicode="&#x3c;" horiz-adv-x="600" 
d="M530 176v-51l-457 182v43l457 182v-51l-385 -151v-2z" />
    <glyph glyph-name="equal" unicode="=" horiz-adv-x="600" 
d="M510 419h-420v47h420v-47zM510 192h-420v47h420v-47z" />
    <glyph glyph-name="greater" unicode="&#x3e;" horiz-adv-x="600" 
d="M73 481v51l457 -182v-43l-457 -182v51l385 151v2z" />
    <glyph glyph-name="question" unicode="?" horiz-adv-x="619" 
d="M320 221h-59v10q0 35 25.5 60t87.5 58q88 44 115.5 77.5t27.5 91.5v7q0 132 -195 132q-98 0 -150.5 -35t-61.5 -120h-60q19 208 265 208h14q117 0 183 -45.5t66 -135.5v-12q0 -73 -35 -115t-134 -94q-49 -26 -69 -44.5t-20 -42.5zM338 0h-96v94h96v-94z" />
    <glyph glyph-name="at" unicode="@" horiz-adv-x="1036" 
d="M520 -154q-470 0 -470 376v31q0 203 124 317t356 114q465 0 465 -362v-12q0 -62 -10.5 -112t-33 -91.5t-63.5 -64.5t-97 -23q-117 0 -119 91h-4q-46 -76 -181 -76h-10q-210 0 -186 207l3 33q13 111 70 158.5t154 47.5h18q137 0 161 -77h5l8 69h58l-39 -310
q-7 -57 9 -78.5t64 -21.5q145 0 145 247v14q0 169 -108.5 244t-315.5 75q-205 0 -315.5 -104.5t-110.5 -287.5v-29q0 -176 109 -254.5t320 -78.5q119 0 220 28v-42q-97 -28 -226 -28zM504 81q78 0 124.5 34.5t56.5 125.5l3 31q6 53 -4 87t-35.5 49t-51 20t-64.5 5
q-77 0 -124 -34.5t-57 -125.5l-4 -31q-5 -43 2 -73.5t20 -47t36.5 -26t45 -12t52.5 -2.5z" />
    <glyph glyph-name="A" unicode="A" horiz-adv-x="855" 
d="M475 700l353 -700h-70l-114 228h-433l-115 -228h-69l352 700h96zM430 657h-4l-189 -376h381z" />
    <glyph glyph-name="B" unicode="B" horiz-adv-x="843" 
d="M765 211v-37q0 -91 -53 -132.5t-178 -41.5h-441v700h424q130 0 183 -39.5t53 -130.5v-23q0 -128 -106 -143v-4q118 -15 118 -149zM504 646h-349v-260h350q108 0 147 23.5t39 95.5v12q0 74 -40 101.5t-147 27.5zM507 334h-352v-280h360q107 0 147.5 28.5t40.5 106.5v12
q0 80 -41.5 106.5t-154.5 26.5z" />
    <glyph glyph-name="C" unicode="C" horiz-adv-x="879" 
d="M486 -10h-75q-177 0 -257.5 77.5t-80.5 236.5v92q0 159 80.5 236.5t257.5 77.5h75q143 0 222.5 -50t104.5 -158h-66q-21 80 -85.5 117t-188.5 37h-48q-85 0 -142 -17.5t-89 -55.5t-45 -87.5t-13 -122.5v-47q0 -72 13 -122t45 -87.5t89 -55t142 -17.5h48q124 0 188.5 37
t85.5 117h66q-25 -108 -104.5 -158t-222.5 -50z" />
    <glyph glyph-name="D" unicode="D" horiz-adv-x="880" 
d="M806 386v-72q0 -158 -80 -236t-253 -78h-380v700h379q174 0 254 -78t80 -236zM452 646h-297v-592h297q86 0 143.5 17.5t89.5 55t45 87.5t13 122v27q0 147 -62.5 215t-228.5 68z" />
    <glyph glyph-name="E" unicode="E" horiz-adv-x="766" 
d="M695 54v-54h-602v700h602v-54h-540v-269h540v-53h-540v-270h540z" />
    <glyph glyph-name="F" unicode="F" horiz-adv-x="752" 
d="M155 323v-323h-62v700h602v-54h-540v-269h540v-54h-540z" />
    <glyph glyph-name="G" unicode="G" horiz-adv-x="900" 
d="M487 -10h-73q-179 0 -260 77.5t-81 235.5v94q0 158 81 235.5t260 77.5h73q285 0 327 -203h-67q-17 77 -83.5 113t-189.5 36h-48q-86 0 -143.5 -17.5t-89 -55.5t-44.5 -87.5t-13 -121.5v-48q0 -72 13 -121.5t44.5 -87.5t89 -55.5t143.5 -17.5h49q164 0 226.5 65.5
t62.5 206.5h-332v54h394v-68q0 -157 -81 -234.5t-258 -77.5z" />
    <glyph glyph-name="H" unicode="H" horiz-adv-x="868" 
d="M774 700v-700h-62v323h-557v-323h-62v700h62v-324h557v324h62z" />
    <glyph glyph-name="I" unicode="I" horiz-adv-x="249" 
d="M155 700v-700h-62v700h62z" />
    <glyph glyph-name="J" unicode="J" horiz-adv-x="503" 
d="M148 0h-127v54h103q129 0 182 51.5t53 152.5v442h62v-449q0 -251 -273 -251z" />
    <glyph glyph-name="K" unicode="K" horiz-adv-x="842" 
d="M155 268v-268h-62v700h62v-361h5l557 361h97l-430 -279l439 -421h-86l-402 384h-5z" />
    <glyph glyph-name="L" unicode="L" horiz-adv-x="690" 
d="M651 54v-54h-558v700h62v-646h496z" />
    <glyph glyph-name="M" unicode="M" horiz-adv-x="1063" 
d="M970 700v-700h-62v646h-5l-337 -646h-74l-332 646h-5v-646h-62v700h110l326 -631h5l331 631h105z" />
    <glyph glyph-name="N" unicode="N" horiz-adv-x="889" 
d="M795 700v-700h-103l-532 646h-5v-646h-62v700h103l532 -647h5v647h62z" />
    <glyph glyph-name="O" unicode="O" horiz-adv-x="900" 
d="M487 -10h-73q-179 0 -260 77.5t-81 236.5v92q0 159 81 236.5t260 77.5h73q178 0 259 -78t81 -236v-92q0 -158 -81 -236t-259 -78zM426 44h48q86 0 143.5 17.5t89 55.5t44.5 87.5t13 121.5v47q0 73 -13 122.5t-44.5 87.5t-89 55.5t-143.5 17.5h-48q-86 0 -143.5 -17.5
t-89 -55.5t-44.5 -87.5t-13 -122.5v-47q0 -72 13 -121.5t44.5 -87.5t89 -55.5t143.5 -17.5z" />
    <glyph glyph-name="P" unicode="P" horiz-adv-x="797" 
d="M155 275v-275h-62v700h435q123 0 178 -46.5t55 -151.5v-33q0 -95 -55.5 -144.5t-177.5 -49.5h-373zM510 647h-355v-318h355q107 0 148 33.5t41 117.5v15q0 84 -41 118t-148 34z" />
    <glyph glyph-name="Q" unicode="Q" horiz-adv-x="900" 
d="M863 54v-54h-450q-178 0 -259 77.5t-81 235.5v83q0 158 81 236t259 78h75q182 0 260 -80q79 -79 79 -232v-79q0 -213 -142 -260v-5h178zM426 54h53q86 0 142.5 17.5t88 55.5t43.5 87t12 122v37q0 147 -62.5 215t-227.5 68h-49q-86 0 -143.5 -17.5t-89 -55.5t-44.5 -87.5
t-13 -122.5v-37q0 -72 13 -121.5t44.5 -87.5t89 -55.5t143.5 -17.5z" />
    <glyph glyph-name="R" unicode="R" horiz-adv-x="843" 
d="M155 313v-313h-62v700h438q128 0 178 -43q52 -42 52 -134v-16q0 -75 -27 -113t-84 -48v-4q59 -8 85 -43t26 -112v-187h-62v166q0 90 -35 118.5t-147 28.5h-362zM507 646h-352v-279h366q103 0 140.5 31.5t37.5 106.5v8q0 76 -41 104.5t-151 28.5z" />
    <glyph glyph-name="S" unicode="S" horiz-adv-x="802" 
d="M412 -10h-11q-299 0 -341 172h65q43 -119 283 -119q139 0 207.5 34.5t68.5 117.5v9q0 67 -40.5 93.5t-152.5 32.5l-178 7q-124 6 -174.5 47.5t-50.5 124.5v5q0 105 77 150.5t221 45.5h16q288 0 323 -173h-64q-21 68 -88.5 94t-178.5 26q-126 0 -185 -32.5t-59 -105.5v-3
q0 -67 40.5 -93.5t152.5 -32.5l178 -7q124 -6 174.5 -47.5t50.5 -124.5v-9q0 -50 -17 -87.5t-45.5 -61t-72 -38t-91.5 -20t-108 -5.5z" />
    <glyph glyph-name="T" unicode="T" horiz-adv-x="739" 
d="M400 646v-646h-62v646h-315v54h693v-54h-316z" />
    <glyph glyph-name="U" unicode="U" horiz-adv-x="848" 
d="M467 -10h-86q-299 0 -299 263v447h63v-435q0 -110 57.5 -165.5t195.5 -55.5h52q138 0 195.5 55.5t57.5 165.5v435h63v-447q0 -263 -299 -263z" />
    <glyph glyph-name="V" unicode="V" horiz-adv-x="848" 
d="M821 700l-352 -700h-90l-352 700h71l324 -649h5l326 649h68z" />
    <glyph glyph-name="W" unicode="W" horiz-adv-x="1200" 
d="M1167 700l-221 -700h-89l-256 640l-256 -640h-95l-217 700h66l199 -648h4l259 648h81l258 -648h4l200 648h63z" />
    <glyph glyph-name="X" unicode="X" horiz-adv-x="834" 
d="M460 355l346 -355h-84l-306 317h-4l-302 -317h-82l344 356l-334 344h83l295 -305h4l293 305h82z" />
    <glyph glyph-name="Y" unicode="Y" horiz-adv-x="803" 
d="M433 318v-318h-63v318l-343 382h80l294 -329h5l295 329h75z" />
    <glyph glyph-name="Z" unicode="Z" horiz-adv-x="808" 
d="M738 54v-54h-668v46l566 600h-549v54h637v-46l-566 -600h580z" />
    <glyph glyph-name="bracketleft" unicode="[" horiz-adv-x="366" 
d="M308 -46v-44h-205v790h205v-44h-156v-702h156z" />
    <glyph glyph-name="backslash" unicode="\" horiz-adv-x="429" 
d="M50 700l379 -800h-51l-378 800h50z" />
    <glyph glyph-name="bracketright" unicode="]" horiz-adv-x="366" 
d="M58 656v44h205v-790h-205v44h156v702h-156z" />
    <glyph glyph-name="asciicircum" unicode="^" horiz-adv-x="600" 
d="M318 700l211 -506h-52l-176 428h-2l-176 -428h-52l211 506h36z" />
    <glyph glyph-name="underscore" unicode="_" horiz-adv-x="631" 
d="M631 -114h-631v43h631v-43z" />
    <glyph glyph-name="grave" unicode="`" horiz-adv-x="500" 
d="M239 700l95 -120h-56l-112 120h73z" />
    <glyph glyph-name="a" unicode="a" horiz-adv-x="630" 
d="M565 340v-340h-60v97h-4q-48 -108 -229 -108q-223 0 -223 161v6q0 73 42.5 110.5t134.5 42.5l279 12v15q0 93 -45.5 124.5t-143.5 31.5q-77 0 -121 -24.5t-61 -83.5h-60q36 156 236 156h18q120 0 178.5 -45t58.5 -155zM109 157v-5q0 -116 171 -116q108 0 166.5 46.5
t58.5 132.5v60l-273 -12q-64 -2 -93.5 -27t-29.5 -79z" />
    <glyph glyph-name="b" unicode="b" horiz-adv-x="682" 
d="M134 0h-59v700h59v-260h4q43 100 212 100h21q127 0 192 -59.5t65 -195.5v-41q0 -136 -65 -195t-192 -59h-21q-169 0 -212 100h-4v-90zM351 42q55 0 92 8t67.5 30.5t44.5 65.5t14 109v20q0 66 -14 109t-44.5 65.5t-67.5 30.5t-92 8q-54 0 -90.5 -8t-67 -30.5t-45 -65.5
t-14.5 -109v-28q0 -121 53.5 -163t163.5 -42z" />
    <glyph glyph-name="c" unicode="c" horiz-adv-x="617" 
d="M332 -10h-21q-127 0 -192 59.5t-65 194.5v41q0 136 65 195.5t192 59.5h21q203 0 243 -155h-61q-19 60 -67.5 81.5t-123.5 21.5q-52 0 -87 -8.5t-64.5 -30.5t-44 -65t-14.5 -109v-20q0 -66 14 -109.5t44 -65.5t65 -30t87 -8q75 0 123.5 21.5t67.5 81.5h61
q-40 -155 -243 -155z" />
    <glyph glyph-name="d" unicode="d" horiz-adv-x="682" 
d="M607 700v-700h-59v90h-4q-43 -100 -212 -100h-21q-127 0 -192 59t-65 195v41q0 136 65 195.5t192 59.5h21q169 0 212 -100h4v260h59zM331 42q110 0 163.5 42t53.5 163v28q0 66 -14.5 109t-45 65.5t-67 30.5t-90.5 8q-55 0 -92 -8t-67.5 -30.5t-44.5 -65.5t-14 -109v-20
q0 -66 14 -109t44.5 -65.5t67.5 -30.5t92 -8z" />
    <glyph glyph-name="e" unicode="e" horiz-adv-x="643" 
d="M521 140h61q-39 -150 -250 -150h-19q-128 0 -193.5 60t-65.5 195v39q0 136 65 196t194 60h19q128 0 193.5 -59.5t65.5 -195.5v-31h-478q0 -66 14.5 -109t44 -65.5t64.5 -31t87 -8.5q81 0 128 19.5t70 80.5zM322 492q-50 0 -84 -7.5t-63 -27t-44.5 -59t-17.5 -98.5h418v6
q0 98 -51.5 142t-157.5 44z" />
    <glyph glyph-name="f" unicode="f" horiz-adv-x="438" 
d="M159 480h-146v50h146q4 97 49 133q44 37 141 37h77v-49h-70q-73 0 -105.5 -23.5t-32.5 -97.5h208v-50h-208v-480h-59v480z" />
    <glyph glyph-name="g" unicode="g" horiz-adv-x="670" 
d="M348 -170h-23q-100 0 -163.5 29t-88.5 104h64q23 -50 68.5 -67t128.5 -17q103 0 152 36t49 132v79h-4q-22 -47 -69.5 -70.5t-132.5 -23.5h-11q-124 0 -187 54.5t-63 187.5v24q0 133 63 187.5t187 54.5h11q85 0 132.5 -23.5t69.5 -70.5h4v84h60v-494q0 -110 -62.5 -158
t-184.5 -48zM332 83q49 0 81 6t62.5 25t45 59.5t14.5 104.5v16q0 63 -14.5 103.5t-45 59.5t-62.5 25.5t-81 6.5q-48 0 -81 -6.5t-63 -26t-45 -60t-15 -102.5v-16q0 -63 15 -103.5t45.5 -59.5t62.5 -25.5t81 -6.5z" />
    <glyph glyph-name="h" unicode="h" horiz-adv-x="629" 
d="M563 337v-337h-60v325q0 92 -46 127.5t-125 35.5q-197 0 -197 -186v-302h-60v700h60v-261h4q48 101 205 101q219 0 219 -203z" />
    <glyph glyph-name="i" unicode="i" horiz-adv-x="210" 
d="M75 700h60v-69h-60v69zM75 530h60v-530h-60v530z" />
    <glyph glyph-name="j" unicode="j" horiz-adv-x="210" 
d="M75 700h60v-69h-60v69zM75 530h60v-451q0 -90 -17.5 -137.5t-68.5 -111.5h-68q57 69 75.5 116t18.5 125v459z" />
    <glyph glyph-name="k" unicode="k" horiz-adv-x="604" 
d="M135 173v-173h-60v700h60v-457h4l356 287h82l-274 -221l291 -309h-80l-254 270h-4z" />
    <glyph glyph-name="l" unicode="l" horiz-adv-x="210" 
d="M135 700v-700h-60v700h60z" />
    <glyph glyph-name="m" unicode="m" horiz-adv-x="1008" 
d="M942 338v-338h-59v325q0 92 -43 127.5t-117 35.5q-185 0 -185 -189v-299h-59v325q0 92 -43 127.5t-117 35.5q-184 0 -184 -189v-299h-60v530h60v-90h4q45 100 189 100q158 0 197 -112h5q45 112 201 112q101 0 156 -47t55 -155z" />
    <glyph glyph-name="n" unicode="n" horiz-adv-x="629" 
d="M563 337v-337h-60v325q0 92 -46 127.5t-125 35.5q-197 0 -197 -186v-302h-60v530h60v-91h4q48 101 205 101q219 0 219 -203z" />
    <glyph glyph-name="o" unicode="o" horiz-adv-x="661" 
d="M346 -10h-31q-130 0 -195.5 60t-65.5 195v39q0 136 65.5 196t195.5 60h31q130 0 195.5 -60t65.5 -196v-39q0 -135 -65.5 -195t-195.5 -60zM331 42q54 0 90.5 8t67 30t45 65.5t14.5 109.5v20q0 66 -14.5 109t-45 65.5t-67 30.5t-90.5 8q-55 0 -91.5 -8t-67 -30.5
t-45 -65.5t-14.5 -109v-20q0 -127 53 -170t165 -43z" />
    <glyph glyph-name="p" unicode="p" horiz-adv-x="682" 
d="M75 -170v700h59v-90h4q43 100 212 100h21q127 0 192 -59t65 -195v-41q0 -136 -65 -195.5t-192 -59.5h-21q-169 0 -212 100h-4v-260h-59zM351 488q-110 0 -163.5 -42t-53.5 -163v-28q0 -66 14.5 -109.5t45 -65.5t67 -30t90.5 -8q55 0 92 8t67.5 30.5t44.5 65.5t14 109v20
q0 66 -14 109t-44.5 65.5t-67.5 30.5t-92 8z" />
    <glyph glyph-name="q" unicode="q" horiz-adv-x="682" 
d="M548 530h59v-700h-59v260h-4q-43 -100 -212 -100h-21q-127 0 -192 59.5t-65 195.5v41q0 136 65 195t192 59h21q169 0 212 -100h4v90zM331 488q-55 0 -92 -8t-67.5 -30.5t-44.5 -65.5t-14 -109v-20q0 -66 14 -109t44.5 -65.5t67.5 -30.5t92 -8q54 0 90.5 8t67 30t45 65.5
t14.5 109.5v28q0 121 -53.5 163t-163.5 42z" />
    <glyph glyph-name="r" unicode="r" horiz-adv-x="405" 
d="M333 530h56v-52h-61q-42 0 -73.5 -6.5t-60.5 -23.5t-44 -51.5t-15 -85.5v-311h-60v530h60v-90h4q37 90 194 90z" />
    <glyph glyph-name="s" unicode="s" horiz-adv-x="617" 
d="M314 -10h-8q-234 0 -257 141h61q24 -92 202 -92q101 0 149 24t49 87v6q0 47 -30 65t-106 22l-141 7q-98 5 -133 38q-36 34 -36 90v13q0 80 64 114q65 35 167 35h11q106 0 168.5 -32.5t79.5 -107.5h-61q-18 50 -63 70.5t-129 20.5q-89 0 -133 -23.5t-44 -76.5v-5
q0 -47 30 -65t106 -22l141 -6q92 -5 130 -37.5t38 -92.5v-12q0 -88 -68 -124.5t-187 -36.5z" />
    <glyph glyph-name="t" unicode="t" horiz-adv-x="439" 
d="M397 50v-50h-62q-98 0 -138 36.5t-40 134.5v309h-144v50h144v170h60v-170h180v-50h-180v-301q0 -80 29.5 -104.5t107.5 -24.5h43z" />
    <glyph glyph-name="u" unicode="u" horiz-adv-x="629" 
d="M66 193v337h60v-325q0 -92 46.5 -127.5t124.5 -35.5q197 0 197 186v302h60v-530h-60v91h-4q-48 -101 -205 -101q-219 0 -219 203z" />
    <glyph glyph-name="v" unicode="v" horiz-adv-x="589" 
d="M582 530l-245 -530h-86l-244 530h65l222 -483h4l222 483h62z" />
    <glyph glyph-name="w" unicode="w" horiz-adv-x="906" 
d="M892 530l-171 -530h-84l-183 472l-181 -472h-90l-169 530h64l151 -480h4l183 480h78l183 -480h4l151 480h60z" />
    <glyph glyph-name="x" unicode="x" horiz-adv-x="630" 
d="M357 272l248 -272h-79l-210 235h-4l-211 -235h-76l247 270l-234 260h79l198 -222h4l199 222h74z" />
    <glyph glyph-name="y" unicode="y" horiz-adv-x="579" 
d="M577 530l-335 -700h-64l86 173l-259 527h65l224 -456h4l216 456h63z" />
    <glyph glyph-name="z" unicode="z" horiz-adv-x="588" 
d="M542 50v-50h-493v41l401 439h-389v50h471v-41l-401 -439h411z" />
    <glyph glyph-name="braceleft" unicode="{" horiz-adv-x="351" 
d="M320 -46v-44h-41q-78 0 -110.5 43.5t-32.5 148.5v50q0 70 -17.5 92.5t-82.5 31.5v58q65 9 82.5 31.5t17.5 92.5v50q0 105 32.5 148.5t110.5 43.5h41v-44h-24q-62 0 -86.5 -30t-24.5 -123v-55q0 -74 -18.5 -103.5t-86.5 -37.5v-4q68 -8 86.5 -37.5t18.5 -103.5v-55
q0 -93 24.5 -123t86.5 -30h24z" />
    <glyph glyph-name="bar" unicode="|" horiz-adv-x="248" 
d="M148 -100h-48v800h48v-800z" />
    <glyph glyph-name="braceright" unicode="}" horiz-adv-x="351" 
d="M71 -90h-41v44h24q62 0 86.5 30t24.5 123v55q0 74 18.5 103.5t86.5 37.5v4q-68 8 -86.5 37.5t-18.5 103.5v55q0 93 -24.5 123t-86.5 30h-24v44h41q78 0 110.5 -43.5t32.5 -148.5v-50q0 -70 17.5 -92.5t82.5 -31.5v-58q-65 -9 -82.5 -31.5t-17.5 -92.5v-50
q0 -105 -32.5 -148.5t-110.5 -43.5z" />
    <glyph glyph-name="asciitilde" unicode="~" horiz-adv-x="600" 
d="M403 273q-45 0 -106 33t-101 33q-67 0 -106 -61v54q15 21 43 37.5t64 16.5q45 0 106 -33t101 -33q32 0 60.5 17.5t45.5 43.5v-54q-15 -21 -43 -37.5t-64 -16.5z" />
    <glyph glyph-name="exclamdown" unicode="&#xa1;" horiz-adv-x="265" 
d="M84 530h97v-95h-97v95zM165 124v-294h-65v294l13 185h39z" />
    <glyph glyph-name="cent" unicode="&#xa2;" horiz-adv-x="650" 
d="M358 -10v-95h-52v95q-117 5 -179 61q-63 58 -63 193v41q0 132 61 192t181 63v95h52v-95q190 -6 228 -155h-61q-19 60 -67.5 81.5t-124.5 21.5q-51 0 -86.5 -8.5t-65 -30.5t-43.5 -65t-14 -109v-20q0 -53 10 -91.5t27 -62t44.5 -37t57 -18t70.5 -4.5q76 0 124.5 21.5
t67.5 81.5h61q-38 -149 -228 -155z" />
    <glyph glyph-name="sterling" unicode="&#xa3;" 
d="M625 373v-45h-377v-276h467v-52h-682v52h154v276h-154v45h154v57q0 83 20.5 140.5t59.5 86.5t82 41t100 12h21q218 0 257 -173h-66q-19 62 -65 91t-135 29q-107 0 -160 -50t-53 -181v-53h377z" />
    <glyph glyph-name="currency" unicode="&#xa4;" horiz-adv-x="600" 
d="M299 189q-55 0 -85 20l-110 -108l-33 33l107 107q-22 36 -22 88q0 53 22 87l-107 108l33 33l110 -108q30 20 85 20q54 0 85 -20l110 108l33 -33l-108 -108q23 -31 23 -87t-23 -88l108 -107l-33 -33l-110 108q-31 -20 -85 -20zM299 230q50 0 74.5 23t24.5 76t-24.5 76
t-74.5 23t-74 -23t-24 -76t24 -76t74 -23z" />
    <glyph glyph-name="yen" unicode="&#xa5;" 
d="M418 260v-260h-61v260h-264v44h264v53l-37 39h-227v44h185l-249 260h84l275 -292h4l274 292h77l-248 -260h188v-44h-230l-35 -37v-55h265v-44h-265z" />
    <glyph glyph-name="brokenbar" unicode="&#xa6;" horiz-adv-x="248" 
d="M148 410h-48v290h48v-290zM148 -100h-48v290h48v-290z" />
    <glyph glyph-name="section" unicode="&#xa7;" horiz-adv-x="694" 
d="M383 -170h-12q-274 0 -280 175h56q13 -129 229 -129q109 0 157.5 25.5t48.5 85.5v6q0 52 -34 71.5t-117 23.5l-86 3q-150 6 -211 41.5t-61 130.5v4q0 124 120 149v4q-100 18 -100 120v13q0 84 65 120.5t191 36.5h12q56 0 103 -8.5t88 -27.5t64.5 -54.5t24.5 -84.5h-56
q-6 71 -69 100t-160 29q-109 0 -157.5 -25.5t-48.5 -85.5v-6q0 -52 34 -71.5t117 -23.5l86 -3q150 -6 211 -42t61 -130v-4q0 -124 -120 -149v-4q100 -18 100 -120v-13q0 -84 -65 -120.5t-191 -36.5zM366 142q126 0 180.5 25t54.5 99v8q0 74 -54.5 99t-180.5 25t-180.5 -25
t-54.5 -99v-8q0 -74 54.5 -99t180.5 -25z" />
    <glyph glyph-name="dieresis" unicode="&#xa8;" horiz-adv-x="500" 
d="M126 674h55v-69h-55v69zM319 674h55v-69h-55v69z" />
    <glyph glyph-name="copyright" unicode="&#xa9;" horiz-adv-x="868" 
d="M483 -10h-98q-185 0 -270.5 80t-85.5 235v90q0 155 85.5 235t270.5 80h98q185 0 270.5 -80t85.5 -235v-90q0 -155 -85.5 -235t-270.5 -80zM400 25h68q99 0 165 20t102 61t50.5 94t14.5 129v42q0 76 -14.5 129t-50.5 94t-102 61t-165 20h-68q-98 0 -164 -20t-102 -61
t-50.5 -94t-14.5 -129v-42q0 -76 14.5 -129t50.5 -94t102 -61t164 -20zM464 134h-40q-111 0 -160.5 46.5t-49.5 145.5v48q0 98 50 145t160 47h40q172 0 201 -118l3 -14h-58l-3 9q-26 76 -151 76h-25q-93 0 -126.5 -37t-33.5 -119v-26q0 -82 33.5 -119t126.5 -37h25
q125 0 151 76l3 9h58l-3 -14q-29 -118 -201 -118z" />
    <glyph glyph-name="ordfeminine" unicode="&#xaa;" horiz-adv-x="504" 
d="M453 548v-268h-56v74h-4q-16 -33 -55 -58q-40 -25 -123 -25q-85 0 -131 33t-46 96v4q0 116 143 122l215 10v11q0 69 -34.5 92.5t-108.5 23.5q-58 0 -91.5 -18t-47.5 -62h-58q32 125 191 125h15q98 0 144.5 -35.5t46.5 -124.5zM96 405v-4q0 -86 129 -86q80 0 125.5 35
t45.5 101v44l-207 -10q-48 -2 -70.5 -21t-22.5 -59z" />
    <glyph glyph-name="guillemotleft" unicode="&#xab;" horiz-adv-x="369" 
d="M43 289v6l84 219h49l-85 -222l85 -222h-49zM192 289v6l84 219h49l-85 -222l85 -222h-49z" />
    <glyph glyph-name="logicalnot" unicode="&#xac;" horiz-adv-x="600" 
d="M518 353v-252h-47v205h-421v47h468z" />
    <glyph glyph-name="registered" unicode="&#xae;" horiz-adv-x="868" 
d="M483 -10h-98q-185 0 -270.5 80t-85.5 235v90q0 155 85.5 235t270.5 80h98q185 0 270.5 -80t85.5 -235v-90q0 -155 -85.5 -235t-270.5 -80zM400 25h68q99 0 165 20t102 61t50.5 94t14.5 129v42q0 76 -14.5 129t-50.5 94t-102 61t-165 20h-68q-98 0 -164 -20t-102 -61
t-50.5 -94t-14.5 -129v-42q0 -76 14.5 -129t50.5 -94t102 -61t164 -20zM302 318v-178h-56v420h270q76 0 109 -24t33 -81v-15q0 -86 -71 -94v-4q38 -6 54.5 -25t16.5 -67v-110h-56v97q0 50 -18.5 65.5t-80.5 15.5h-201zM497 515h-195v-152h205q56 0 75 16.5t19 57.5v5
q0 41 -22 57t-82 16z" />
    <glyph glyph-name="overscore" unicode="&#xaf;" horiz-adv-x="500" 
d="M404 661v-42h-308v42h308z" />
    <glyph glyph-name="degree" unicode="&#xb0;" horiz-adv-x="384" 
d="M192 436q-57 0 -97 40t-40 97t40 97t97 40t97 -40t40 -97t-40 -97t-97 -40zM192 477q40 0 67.5 28t27.5 68t-27.5 68t-67.5 28t-68 -28t-28 -68t28 -68t68 -28z" />
    <glyph glyph-name="plusminus" unicode="&#xb1;" horiz-adv-x="600" 
d="M277 426h-167v47h167v150h47v-150h166v-47h-166v-150h-47v150zM490 112h-380v47h380v-47z" />
    <glyph glyph-name="twosuperior" unicode="&#xb2;" horiz-adv-x="448" 
d="M413 427v-47h-376v58q0 79 26.5 111t105.5 45l106 17q46 7 63 23t17 51v4q0 36 -29 53t-92 17q-58 0 -89 -15t-39 -58h-58q15 120 179 120h9q177 0 177 -113v-10q0 -50 -25 -77.5t-90 -38.5l-114 -18q-54 -8 -72 -27t-18 -72v-23h319z" />
    <glyph glyph-name="threesuperior" unicode="&#xb3;" horiz-adv-x="448" 
d="M237 374h-15q-162 0 -182 123h57q11 -45 43 -60.5t88 -15.5q65 0 95.5 19t30.5 61v7q0 34 -19 50.5t-67 16.5h-117v46h114q43 0 60.5 15.5t17.5 46.5v6q0 37 -28 53.5t-88 16.5q-52 0 -80.5 -15t-37.5 -57h-58q11 65 53.5 92t115.5 27h10q172 0 172 -107v-6
q0 -73 -61 -85v-4q72 -12 72 -95v-8q0 -127 -176 -127z" />
    <glyph glyph-name="acute" unicode="&#xb4;" horiz-adv-x="500" 
d="M333 700l-112 -120h-57l95 120h74z" />
    <glyph glyph-name="mu" unicode="&#xb5;" horiz-adv-x="638" 
d="M563 530v-530h-59v80h-4q-41 -90 -192 -90q-58 0 -106 16q-50 17 -72 62h-4l6 -212v-26h-57v700h60v-325q0 -93 48.5 -128t135.5 -35q39 0 68.5 6.5t57.5 23t43 50t15 83.5v325h60z" />
    <glyph glyph-name="paragraph" unicode="&#xb6;" horiz-adv-x="591" 
d="M497 700v-800h-49v755h-142v-755h-48v569h-63q-81 0 -116.5 25.5t-35.5 87.5v5q0 66 35 89.5t117 23.5h302z" />
    <glyph glyph-name="middot" unicode="&#xb7;" horiz-adv-x="332" 
d="M208 245h-97v95h97v-95z" />
    <glyph glyph-name="cedilla" unicode="&#xb8;" horiz-adv-x="500" 
d="M207 -140l52 140h52l-46 -140h-58z" />
    <glyph glyph-name="onesuperior" unicode="&#xb9;" horiz-adv-x="315" 
d="M235 800v-420h-57v375h-4l-153 -85v60l134 70h80z" />
    <glyph glyph-name="ordmasculine" unicode="&#xba;" horiz-adv-x="526" 
d="M275 272h-24q-102 0 -155 45t-53 153v40q0 108 53 153t155 45h24q102 0 155 -45t53 -153v-40q0 -108 -53 -153t-155 -45zM263 320q38 0 63.5 5t50 20.5t36.5 48t12 82.5v27q0 94 -42 125.5t-120 31.5q-79 0 -121.5 -31.5t-42.5 -125.5v-27q0 -50 12.5 -82.5t37 -48
t50.5 -20.5t64 -5z" />
    <glyph glyph-name="guillemotright" unicode="&#xbb;" horiz-adv-x="370" 
d="M177 295v-6l-84 -219h-49l85 222l-85 222h49zM327 295v-6l-84 -219h-49l85 222l-85 222h49z" />
    <glyph glyph-name="onequarter" unicode="&#xbc;" horiz-adv-x="872" 
d="M235 700v-420h-57v375h-4l-153 -85v60l134 70h80zM618 700l-397 -700h-52l398 700h51zM775 110v-110h-57v110h-269v73l238 237h88v-264h70v-46h-70zM498 161v-5h220v223h-5z" />
    <glyph glyph-name="onehalf" unicode="&#xbd;" horiz-adv-x="931" 
d="M235 700v-420h-57v375h-4l-153 -85v60l134 70h80zM618 700l-397 -700h-52l398 700h51zM889 47v-47h-376v58q0 79 26.5 111t105.5 45l106 17q46 7 63 23t17 51v4q0 36 -29 53t-92 17q-58 0 -89 -15t-39 -58h-58q15 120 179 120h9q177 0 177 -113v-10q0 -50 -25 -77.5
t-90 -38.5l-114 -18q-54 -8 -72 -27t-18 -72v-23h319z" />
    <glyph glyph-name="threequarters" unicode="&#xbe;" horiz-adv-x="1015" 
d="M237 274h-15q-162 0 -182 123h57q11 -45 43 -60.5t88 -15.5q65 0 95.5 19t30.5 61v7q0 34 -19 50.5t-67 16.5h-117v46h114q43 0 60.5 15.5t17.5 46.5v6q0 37 -28 53.5t-88 16.5q-52 0 -80.5 -15t-37.5 -57h-58q11 65 53.5 92t115.5 27h10q172 0 172 -107v-6
q0 -73 -61 -85v-4q72 -12 72 -95v-8q0 -127 -176 -127zM762 700l-397 -700h-52l398 700h51zM919 110v-110h-57v110h-269v73l238 237h88v-264h70v-46h-70zM642 161v-5h220v223h-5z" />
    <glyph glyph-name="questiondown" unicode="&#xbf;" horiz-adv-x="619" 
d="M281 530h96v-94h-96v94zM299 309h59v-10q0 -35 -25.5 -60.5t-87.5 -57.5q-89 -45 -116 -77.5t-27 -91.5v-7q0 -132 195 -132q98 0 149.5 35t62.5 120h60q-19 -208 -265 -208h-14q-116 0 -182.5 45.5t-66.5 135.5v12q0 73 35 115t134 94q49 26 69 44.5t20 42.5z" />
    <glyph glyph-name="Agrave" unicode="&#xc0;" horiz-adv-x="855" 
d="M361 860l95 -120h-56l-112 120h73zM475 700l353 -700h-70l-114 228h-433l-115 -228h-69l352 700h96zM430 657h-4l-189 -376h381z" />
    <glyph glyph-name="Aacute" unicode="&#xc1;" horiz-adv-x="855" 
d="M568 860l-112 -120h-57l95 120h74zM475 700l353 -700h-70l-114 228h-433l-115 -228h-69l352 700h96zM430 657h-4l-189 -376h381z" />
    <glyph glyph-name="Acircumflex" unicode="&#xc2;" horiz-adv-x="855" 
d="M475 860l121 -120h-58l-110 99l-110 -99h-58l121 120h94zM475 700l353 -700h-70l-114 228h-433l-115 -228h-69l352 700h96zM430 657h-4l-189 -376h381z" />
    <glyph glyph-name="Atilde" unicode="&#xc3;" horiz-adv-x="855" 
d="M502 756q-30 0 -79 24t-66 24q-38 0 -48 -45h-41q14 86 86 86q30 0 78.5 -24t65.5 -24q38 0 48 45h43q-14 -86 -87 -86zM475 700l353 -700h-70l-114 228h-433l-115 -228h-69l352 700h96zM430 657h-4l-189 -376h381z" />
    <glyph glyph-name="Adieresis" unicode="&#xc4;" horiz-adv-x="855" 
d="M304 835h55v-69h-55v69zM497 835h55v-69h-55v69zM475 700l353 -700h-70l-114 228h-433l-115 -228h-69l352 700h96zM430 657h-4l-189 -376h381z" />
    <glyph glyph-name="Aring" unicode="&#xc5;" horiz-adv-x="855" 
d="M428 732q-121 0 -121 98t121 98q120 0 120 -98t-120 -98zM428 768q77 0 77 62t-77 62q-78 0 -78 -62t78 -62zM475 700l353 -700h-70l-114 228h-433l-115 -228h-69l352 700h96zM430 657h-4l-189 -376h381z" />
    <glyph glyph-name="AE" unicode="&#xc6;" horiz-adv-x="1208" 
d="M1138 54v-54h-603v228h-299l-156 -228h-73l478 700h653v-54h-541v-269h541v-53h-541v-270h541zM535 648h-12l-250 -366h262v366z" />
    <glyph glyph-name="Ccedilla" unicode="&#xc7;" horiz-adv-x="879" 
d="M486 -10h-13l-43 -130h-58l48 130h-9q-177 0 -257.5 77.5t-80.5 236.5v92q0 159 80.5 236.5t257.5 77.5h75q143 0 222.5 -50t104.5 -158h-66q-21 80 -85.5 117t-188.5 37h-48q-85 0 -142 -17.5t-89 -55.5t-45 -87.5t-13 -122.5v-47q0 -72 13 -122t45 -87.5t89 -55
t142 -17.5h48q124 0 188.5 37t85.5 117h66q-25 -108 -104.5 -158t-222.5 -50z" />
    <glyph glyph-name="Egrave" unicode="&#xc8;" horiz-adv-x="766" 
d="M326 860l95 -120h-56l-112 120h73zM695 54v-54h-602v700h602v-54h-540v-269h540v-53h-540v-270h540z" />
    <glyph glyph-name="Eacute" unicode="&#xc9;" horiz-adv-x="766" 
d="M536 860l-112 -120h-57l95 120h74zM695 54v-54h-602v700h602v-54h-540v-269h540v-53h-540v-270h540z" />
    <glyph glyph-name="Ecircumflex" unicode="&#xca;" horiz-adv-x="766" 
d="M441 860l121 -120h-58l-110 99l-110 -99h-58l121 120h94zM695 54v-54h-602v700h602v-54h-540v-269h540v-53h-540v-270h540z" />
    <glyph glyph-name="Edieresis" unicode="&#xcb;" horiz-adv-x="766" 
d="M270 835h55v-69h-55v69zM463 835h55v-69h-55v69zM695 54v-54h-602v700h602v-54h-540v-269h540v-53h-540v-270h540z" />
    <glyph glyph-name="Igrave" unicode="&#xcc;" horiz-adv-x="249" 
d="M57 860l95 -120h-56l-112 120h73zM155 700v-700h-62v700h62z" />
    <glyph glyph-name="Iacute" unicode="&#xcd;" horiz-adv-x="249" 
d="M265 860l-112 -120h-57l95 120h74zM155 700v-700h-62v700h62z" />
    <glyph glyph-name="Icircumflex" unicode="&#xce;" horiz-adv-x="249" 
d="M171 860l121 -120h-58l-110 99l-110 -99h-58l121 120h94zM155 700v-700h-62v700h62z" />
    <glyph glyph-name="Idieresis" unicode="&#xcf;" horiz-adv-x="249" 
d="M0 835h55v-69h-55v69zM193 835h55v-69h-55v69zM155 700v-700h-62v700h62z" />
    <glyph glyph-name="Eth" unicode="&#xd0;" horiz-adv-x="880" 
d="M93 325h-93v49h93v326h379q174 0 254 -78t80 -236v-72q0 -158 -80 -236t-253 -78h-380v325zM425 374v-49h-270v-271h297q86 0 143.5 17.5t89.5 55t45 87.5t13 122v27q0 147 -62.5 215t-228.5 68h-297v-272h270z" />
    <glyph glyph-name="Ntilde" unicode="&#xd1;" horiz-adv-x="887" 
d="M535 756q-31 0 -79.5 24t-65.5 24q-38 0 -48 -45h-41q14 86 86 86q30 0 78.5 -24t65.5 -24q19 0 30.5 9.5t17.5 35.5h43q-14 -86 -87 -86zM794 700v-700h-103l-532 646h-5v-646h-62v700h103l532 -647h5v647h62z" />
    <glyph glyph-name="Ograve" unicode="&#xd2;" horiz-adv-x="900" 
d="M383 860l95 -120h-56l-112 120h73zM487 -10h-73q-179 0 -260 77.5t-81 236.5v92q0 159 81 236.5t260 77.5h73q178 0 259 -78t81 -236v-92q0 -158 -81 -236t-259 -78zM426 44h48q86 0 143.5 17.5t89 55.5t44.5 87.5t13 121.5v47q0 73 -13 122.5t-44.5 87.5t-89 55.5
t-143.5 17.5h-48q-86 0 -143.5 -17.5t-89 -55.5t-44.5 -87.5t-13 -122.5v-47q0 -72 13 -121.5t44.5 -87.5t89 -55.5t143.5 -17.5z" />
    <glyph glyph-name="Oacute" unicode="&#xd3;" horiz-adv-x="900" 
d="M590 860l-112 -120h-57l95 120h74zM487 -10h-73q-179 0 -260 77.5t-81 236.5v92q0 159 81 236.5t260 77.5h73q178 0 259 -78t81 -236v-92q0 -158 -81 -236t-259 -78zM426 44h48q86 0 143.5 17.5t89 55.5t44.5 87.5t13 121.5v47q0 73 -13 122.5t-44.5 87.5t-89 55.5
t-143.5 17.5h-48q-86 0 -143.5 -17.5t-89 -55.5t-44.5 -87.5t-13 -122.5v-47q0 -72 13 -121.5t44.5 -87.5t89 -55.5t143.5 -17.5z" />
    <glyph glyph-name="Ocircumflex" unicode="&#xd4;" horiz-adv-x="900" 
d="M497 860l121 -120h-58l-110 99l-110 -99h-58l121 120h94zM487 -10h-73q-179 0 -260 77.5t-81 236.5v92q0 159 81 236.5t260 77.5h73q178 0 259 -78t81 -236v-92q0 -158 -81 -236t-259 -78zM426 44h48q86 0 143.5 17.5t89 55.5t44.5 87.5t13 121.5v47q0 73 -13 122.5
t-44.5 87.5t-89 55.5t-143.5 17.5h-48q-86 0 -143.5 -17.5t-89 -55.5t-44.5 -87.5t-13 -122.5v-47q0 -72 13 -121.5t44.5 -87.5t89 -55.5t143.5 -17.5z" />
    <glyph glyph-name="Otilde" unicode="&#xd5;" horiz-adv-x="900" 
d="M524 756q-30 0 -79 24t-66 24q-38 0 -48 -45h-41q14 86 86 86q30 0 78.5 -24t65.5 -24q38 0 48 45h43q-14 -86 -87 -86zM487 -10h-73q-179 0 -260 77.5t-81 236.5v92q0 159 81 236.5t260 77.5h73q178 0 259 -78t81 -236v-92q0 -158 -81 -236t-259 -78zM426 44h48
q86 0 143.5 17.5t89 55.5t44.5 87.5t13 121.5v47q0 73 -13 122.5t-44.5 87.5t-89 55.5t-143.5 17.5h-48q-86 0 -143.5 -17.5t-89 -55.5t-44.5 -87.5t-13 -122.5v-47q0 -72 13 -121.5t44.5 -87.5t89 -55.5t143.5 -17.5z" />
    <glyph glyph-name="Odieresis" unicode="&#xd6;" horiz-adv-x="900" 
d="M326 835h55v-69h-55v69zM519 835h55v-69h-55v69zM487 -10h-73q-179 0 -260 77.5t-81 236.5v92q0 159 81 236.5t260 77.5h73q178 0 259 -78t81 -236v-92q0 -158 -81 -236t-259 -78zM426 44h48q86 0 143.5 17.5t89 55.5t44.5 87.5t13 121.5v47q0 73 -13 122.5t-44.5 87.5
t-89 55.5t-143.5 17.5h-48q-86 0 -143.5 -17.5t-89 -55.5t-44.5 -87.5t-13 -122.5v-47q0 -72 13 -121.5t44.5 -87.5t89 -55.5t143.5 -17.5z" />
    <glyph glyph-name="multiply" unicode="&#xd7;" horiz-adv-x="600" 
d="M267 329l-168 167l34 34l168 -167l172 172l33 -34l-172 -172l167 -167l-34 -34l-167 167l-172 -172l-34 33z" />
    <glyph glyph-name="Oslash" unicode="&#xd8;" horiz-adv-x="900" 
d="M142 -40h-69l89 101q-89 77 -89 243v92q0 159 81 236.5t260 77.5h73q130 0 208 -42l63 72h69l-89 -101q89 -77 89 -243v-92q0 -158 -81 -236t-259 -78h-73q-131 0 -209 42zM136 373v-47q0 -156 67 -218l452 514q-64 34 -181 34h-48q-86 0 -143.5 -17.5t-89 -55.5
t-44.5 -87.5t-13 -122.5zM426 44h48q86 0 143.5 17.5t89 55.5t44.5 87.5t13 121.5v47q0 157 -67 219l-452 -514q64 -34 181 -34z" />
    <glyph glyph-name="Ugrave" unicode="&#xd9;" horiz-adv-x="849" 
d="M357 860l95 -120h-56l-112 120h73zM467 -10h-86q-299 0 -299 263v447h63v-435q0 -110 57.5 -165.5t195.5 -55.5h52q138 0 195.5 55.5t57.5 165.5v435h63v-447q0 -263 -299 -263z" />
    <glyph glyph-name="Uacute" unicode="&#xda;" horiz-adv-x="849" 
d="M565 860l-112 -120h-57l95 120h74zM467 -10h-86q-299 0 -299 263v447h63v-435q0 -110 57.5 -165.5t195.5 -55.5h52q138 0 195.5 55.5t57.5 165.5v435h63v-447q0 -263 -299 -263z" />
    <glyph glyph-name="Ucircumflex" unicode="&#xdb;" horiz-adv-x="849" 
d="M471 860l121 -120h-58l-110 99l-110 -99h-58l121 120h94zM467 -10h-86q-299 0 -299 263v447h63v-435q0 -110 57.5 -165.5t195.5 -55.5h52q138 0 195.5 55.5t57.5 165.5v435h63v-447q0 -263 -299 -263z" />
    <glyph glyph-name="Udieresis" unicode="&#xdc;" horiz-adv-x="849" 
d="M300 835h55v-69h-55v69zM493 835h55v-69h-55v69zM467 -10h-86q-299 0 -299 263v447h63v-435q0 -110 57.5 -165.5t195.5 -55.5h52q138 0 195.5 55.5t57.5 165.5v435h63v-447q0 -263 -299 -263z" />
    <glyph glyph-name="Yacute" unicode="&#xdd;" horiz-adv-x="803" 
d="M542 860l-112 -120h-57l95 120h74zM433 318v-318h-63v318l-343 382h80l294 -329h5l295 329h75z" />
    <glyph glyph-name="Thorn" unicode="&#xde;" horiz-adv-x="797" 
d="M155 148v-148h-62v700h62v-147h365q124 0 182.5 -45.5t58.5 -146.5v-22q0 -191 -241 -191h-365zM508 500h-353v-298h353q104 0 147.5 33t43.5 109v14q0 76 -44 109t-147 33z" />
    <glyph glyph-name="germandbls" unicode="&#xdf;" horiz-adv-x="677" 
d="M134 495v-495h-60v510q0 200 229 200h33q219 0 219 -161v-12q0 -105 -76 -129v-5q160 -13 160 -181v-22q0 -107 -58 -153.5t-178 -46.5h-153v50h147q98 0 140 36t42 118v15q-1 49 -15 78t-54 47t-111 18h-149v49h106q75 0 107 27.5t32 90.5v7q0 64 -39.5 94t-122.5 30
h-23q-91 0 -133.5 -36t-42.5 -129z" />
    <glyph glyph-name="agrave" unicode="&#xe0;" horiz-adv-x="630" 
d="M254 700l95 -120h-56l-112 120h73zM565 340v-340h-60v97h-4q-48 -108 -229 -108q-223 0 -223 161v6q0 73 42.5 110.5t134.5 42.5l279 12v15q0 93 -45.5 124.5t-143.5 31.5q-77 0 -121 -24.5t-61 -83.5h-60q36 156 236 156h18q120 0 178.5 -45t58.5 -155zM109 157v-5
q0 -116 171 -116q108 0 166.5 46.5t58.5 132.5v60l-273 -12q-64 -2 -93.5 -27t-29.5 -79z" />
    <glyph glyph-name="aacute" unicode="&#xe1;" horiz-adv-x="630" 
d="M461 700l-112 -120h-57l95 120h74zM565 340v-340h-60v97h-4q-48 -108 -229 -108q-223 0 -223 161v6q0 73 42.5 110.5t134.5 42.5l279 12v15q0 93 -45.5 124.5t-143.5 31.5q-77 0 -121 -24.5t-61 -83.5h-60q36 156 236 156h18q120 0 178.5 -45t58.5 -155zM109 157v-5
q0 -116 171 -116q108 0 166.5 46.5t58.5 132.5v60l-273 -12q-64 -2 -93.5 -27t-29.5 -79z" />
    <glyph glyph-name="acircumflex" unicode="&#xe2;" horiz-adv-x="630" 
d="M367 700l121 -120h-58l-110 99l-110 -99h-58l121 120h94zM565 340v-340h-60v97h-4q-48 -108 -229 -108q-223 0 -223 161v6q0 73 42.5 110.5t134.5 42.5l279 12v15q0 93 -45.5 124.5t-143.5 31.5q-77 0 -121 -24.5t-61 -83.5h-60q36 156 236 156h18q120 0 178.5 -45
t58.5 -155zM109 157v-5q0 -116 171 -116q108 0 166.5 46.5t58.5 132.5v60l-273 -12q-64 -2 -93.5 -27t-29.5 -79z" />
    <glyph glyph-name="atilde" unicode="&#xe3;" horiz-adv-x="630" 
d="M394 596q-30 0 -79 24t-66 24q-38 0 -48 -45h-41q14 86 86 86q30 0 78.5 -24t65.5 -24q38 0 48 45h43q-14 -86 -87 -86zM565 340v-340h-60v97h-4q-48 -108 -229 -108q-223 0 -223 161v6q0 73 42.5 110.5t134.5 42.5l279 12v15q0 93 -45.5 124.5t-143.5 31.5
q-77 0 -121 -24.5t-61 -83.5h-60q36 156 236 156h18q120 0 178.5 -45t58.5 -155zM109 157v-5q0 -116 171 -116q108 0 166.5 46.5t58.5 132.5v60l-273 -12q-64 -2 -93.5 -27t-29.5 -79z" />
    <glyph glyph-name="adieresis" unicode="&#xe4;" horiz-adv-x="630" 
d="M196 674h55v-69h-55v69zM389 674h55v-69h-55v69zM565 340v-340h-60v97h-4q-48 -108 -229 -108q-223 0 -223 161v6q0 73 42.5 110.5t134.5 42.5l279 12v15q0 93 -45.5 124.5t-143.5 31.5q-77 0 -121 -24.5t-61 -83.5h-60q36 156 236 156h18q120 0 178.5 -45t58.5 -155z
M109 157v-5q0 -116 171 -116q108 0 166.5 46.5t58.5 132.5v60l-273 -12q-64 -2 -93.5 -27t-29.5 -79z" />
    <glyph glyph-name="aring" unicode="&#xe5;" horiz-adv-x="630" 
d="M320 572q-121 0 -121 98t121 98q120 0 120 -98t-120 -98zM320 608q77 0 77 62t-77 62q-78 0 -78 -62t78 -62zM565 340v-340h-60v97h-4q-48 -108 -229 -108q-223 0 -223 161v6q0 73 42.5 110.5t134.5 42.5l279 12v15q0 93 -45.5 124.5t-143.5 31.5q-77 0 -121 -24.5
t-61 -83.5h-60q36 156 236 156h18q120 0 178.5 -45t58.5 -155zM109 157v-5q0 -116 171 -116q108 0 166.5 46.5t58.5 132.5v60l-273 -12q-64 -2 -93.5 -27t-29.5 -79z" />
    <glyph glyph-name="ae" unicode="&#xe6;" horiz-adv-x="1094" 
d="M783 -10h-19q-93 0 -152 29.5t-85 99.5h-4q-50 -130 -249 -130q-225 0 -225 161v6q0 73 42.5 110.5t134.5 42.5l279 12v15q0 93 -45.5 124.5t-143.5 31.5q-77 0 -121 -24.5t-61 -83.5h-60q36 156 236 156h18q86 0 138.5 -22.5t74.5 -77.5h4q52 100 219 100h19
q129 0 194 -59.5t65 -195.5v-31h-477v-8q1 -64 15 -105.5t43 -63t64 -29.5t87 -8q81 0 128.5 19.5t69.5 80.5h62q-42 -150 -251 -150zM773 492q-49 0 -83 -7.5t-63.5 -27t-44.5 -59t-17 -98.5h417v6q0 98 -52 142t-157 44zM109 156v-5q0 -115 173 -115q106 0 164.5 46.5
t58.5 132.5v60l-273 -12q-63 -2 -93 -28t-30 -79z" />
    <glyph glyph-name="ccedilla" unicode="&#xe7;" horiz-adv-x="617" 
d="M514 145h61q-38 -149 -228 -155l-43 -130h-58l48 130q-115 5 -177 61q-63 58 -63 193v41q0 136 65 195.5t192 59.5h21q203 0 243 -155h-61q-19 60 -67.5 81.5t-123.5 21.5q-52 0 -87 -8.5t-64.5 -30.5t-44 -65t-14.5 -109v-20q0 -66 14 -109.5t44 -65.5t65 -30t87 -8
q75 0 123.5 21.5t67.5 81.5z" />
    <glyph glyph-name="egrave" unicode="&#xe8;" horiz-adv-x="643" 
d="M258 700l95 -120h-56l-112 120h73zM521 140h61q-39 -150 -250 -150h-19q-128 0 -193.5 60t-65.5 195v39q0 136 65 196t194 60h19q128 0 193.5 -59.5t65.5 -195.5v-31h-478q0 -66 14.5 -109t44 -65.5t64.5 -31t87 -8.5q81 0 128 19.5t70 80.5zM322 492q-50 0 -84 -7.5
t-63 -27t-44.5 -59t-17.5 -98.5h418v6q0 98 -51.5 142t-157.5 44z" />
    <glyph glyph-name="eacute" unicode="&#xe9;" horiz-adv-x="643" 
d="M465 700l-112 -120h-57l95 120h74zM521 140h61q-39 -150 -250 -150h-19q-128 0 -193.5 60t-65.5 195v39q0 136 65 196t194 60h19q128 0 193.5 -59.5t65.5 -195.5v-31h-478q0 -66 14.5 -109t44 -65.5t64.5 -31t87 -8.5q81 0 128 19.5t70 80.5zM322 492q-50 0 -84 -7.5
t-63 -27t-44.5 -59t-17.5 -98.5h418v6q0 98 -51.5 142t-157.5 44z" />
    <glyph glyph-name="ecircumflex" unicode="&#xea;" horiz-adv-x="643" 
d="M372 700l121 -120h-58l-110 99l-110 -99h-58l121 120h94zM521 140h61q-39 -150 -250 -150h-19q-128 0 -193.5 60t-65.5 195v39q0 136 65 196t194 60h19q128 0 193.5 -59.5t65.5 -195.5v-31h-478q0 -66 14.5 -109t44 -65.5t64.5 -31t87 -8.5q81 0 128 19.5t70 80.5z
M322 492q-50 0 -84 -7.5t-63 -27t-44.5 -59t-17.5 -98.5h418v6q0 98 -51.5 142t-157.5 44z" />
    <glyph glyph-name="edieresis" unicode="&#xeb;" horiz-adv-x="643" 
d="M201 674h55v-69h-55v69zM394 674h55v-69h-55v69zM521 140h61q-39 -150 -250 -150h-19q-128 0 -193.5 60t-65.5 195v39q0 136 65 196t194 60h19q128 0 193.5 -59.5t65.5 -195.5v-31h-478q0 -66 14.5 -109t44 -65.5t64.5 -31t87 -8.5q81 0 128 19.5t70 80.5zM322 492
q-50 0 -84 -7.5t-63 -27t-44.5 -59t-17.5 -98.5h418v6q0 98 -51.5 142t-157.5 44z" />
    <glyph glyph-name="igrave" unicode="&#xec;" horiz-adv-x="212" 
d="M39 700l95 -120h-56l-112 120h73zM76 530h59v-530h-59v530z" />
    <glyph glyph-name="iacute" unicode="&#xed;" horiz-adv-x="212" 
d="M246 700l-112 -120h-57l95 120h74zM76 530h59v-530h-59v530z" />
    <glyph glyph-name="icircumflex" unicode="&#xee;" horiz-adv-x="212" 
d="M152 700l121 -120h-58l-110 99l-110 -99h-58l121 120h94zM76 530h59v-530h-59v530z" />
    <glyph glyph-name="idieresis" unicode="&#xef;" horiz-adv-x="212" 
d="M-19 674h55v-69h-55v69zM174 674h55v-69h-55v69zM76 530h59v-530h-59v530z" />
    <glyph glyph-name="eth" unicode="&#xf0;" horiz-adv-x="657" 
d="M350 -10h-41q-121 0 -187.5 57t-66.5 174v36q0 119 65.5 175t197.5 56q107 0 168 -44l3 3q-40 67 -100 128l-243 -33v47l200 28q-36 35 -102 83h87q27 -18 86 -73l169 23v-48l-129 -18q145 -162 145 -327v-34q0 -119 -66 -176t-186 -57zM329 42q104 0 158.5 40t54.5 147
v20q0 59 -15 97.5t-46 58t-66 26.5t-86 7q-105 0 -159.5 -40t-54.5 -149v-20q0 -107 55 -147t159 -40z" />
    <glyph glyph-name="ntilde" unicode="&#xf1;" horiz-adv-x="629" 
d="M394 596q-30 0 -79 24t-66 24q-38 0 -48 -45h-41q14 86 86 86q30 0 78.5 -24t65.5 -24q38 0 48 45h43q-14 -86 -87 -86zM563 337v-337h-60v325q0 92 -46 127.5t-125 35.5q-197 0 -197 -186v-302h-60v530h60v-91h4q48 101 205 101q219 0 219 -203z" />
    <glyph glyph-name="ograve" unicode="&#xf2;" horiz-adv-x="661" 
d="M264 700l95 -120h-56l-112 120h73zM346 -10h-31q-130 0 -195.5 60t-65.5 195v39q0 136 65.5 196t195.5 60h31q130 0 195.5 -60t65.5 -196v-39q0 -135 -65.5 -195t-195.5 -60zM331 42q54 0 90.5 8t67 30t45 65.5t14.5 109.5v20q0 66 -14.5 109t-45 65.5t-67 30.5t-90.5 8
q-55 0 -91.5 -8t-67 -30.5t-45 -65.5t-14.5 -109v-20q0 -127 53 -170t165 -43z" />
    <glyph glyph-name="oacute" unicode="&#xf3;" horiz-adv-x="661" 
d="M471 700l-112 -120h-57l95 120h74zM346 -10h-31q-130 0 -195.5 60t-65.5 195v39q0 136 65.5 196t195.5 60h31q130 0 195.5 -60t65.5 -196v-39q0 -135 -65.5 -195t-195.5 -60zM331 42q54 0 90.5 8t67 30t45 65.5t14.5 109.5v20q0 66 -14.5 109t-45 65.5t-67 30.5t-90.5 8
q-55 0 -91.5 -8t-67 -30.5t-45 -65.5t-14.5 -109v-20q0 -127 53 -170t165 -43z" />
    <glyph glyph-name="ocircumflex" unicode="&#xf4;" horiz-adv-x="661" 
d="M378 700l121 -120h-58l-110 99l-110 -99h-58l121 120h94zM346 -10h-31q-130 0 -195.5 60t-65.5 195v39q0 136 65.5 196t195.5 60h31q130 0 195.5 -60t65.5 -196v-39q0 -135 -65.5 -195t-195.5 -60zM331 42q54 0 90.5 8t67 30t45 65.5t14.5 109.5v20q0 66 -14.5 109
t-45 65.5t-67 30.5t-90.5 8q-55 0 -91.5 -8t-67 -30.5t-45 -65.5t-14.5 -109v-20q0 -127 53 -170t165 -43z" />
    <glyph glyph-name="otilde" unicode="&#xf5;" horiz-adv-x="661" 
d="M405 596q-31 0 -79.5 24t-65.5 24q-38 0 -48 -45h-41q14 86 86 86q30 0 78.5 -24t65.5 -24q19 0 30.5 9.5t17.5 35.5h43q-14 -86 -87 -86zM346 -10h-31q-130 0 -195.5 60t-65.5 195v39q0 136 65.5 196t195.5 60h31q130 0 195.5 -60t65.5 -196v-39q0 -135 -65.5 -195
t-195.5 -60zM331 42q54 0 90.5 8t67 30t45 65.5t14.5 109.5v20q0 66 -14.5 109t-45 65.5t-67 30.5t-90.5 8q-55 0 -91.5 -8t-67 -30.5t-45 -65.5t-14.5 -109v-20q0 -127 53 -170t165 -43z" />
    <glyph glyph-name="odieresis" unicode="&#xf6;" horiz-adv-x="661" 
d="M207 674h55v-69h-55v69zM400 674h55v-69h-55v69zM346 -10h-31q-130 0 -195.5 60t-65.5 195v39q0 136 65.5 196t195.5 60h31q130 0 195.5 -60t65.5 -196v-39q0 -135 -65.5 -195t-195.5 -60zM331 42q54 0 90.5 8t67 30t45 65.5t14.5 109.5v20q0 66 -14.5 109t-45 65.5
t-67 30.5t-90.5 8q-55 0 -91.5 -8t-67 -30.5t-45 -65.5t-14.5 -109v-20q0 -127 53 -170t165 -43z" />
    <glyph glyph-name="divide" unicode="&#xf7;" horiz-adv-x="600" 
d="M325 568v-68h-50v68h50zM490 353v-47h-380v47h380zM325 158v-68h-50v68h50z" />
    <glyph glyph-name="oslash" unicode="&#xf8;" horiz-adv-x="661" 
d="M117 -40h-63l70 86q-70 64 -70 199v39q0 136 65.5 196t195.5 60h31q92 0 150 -29l46 58h63l-68 -85q70 -61 70 -200v-39q0 -135 -65.5 -195t-195.5 -60h-31q-92 0 -150 29zM113 275v-20q0 -114 47 -163l300 375q-46 21 -129 21q-55 0 -91.5 -8t-67 -30.5t-45 -65.5
t-14.5 -109zM331 42q54 0 90.5 8t67 30t45 65.5t14.5 109.5v20q0 115 -47 164l-301 -376q46 -21 131 -21z" />
    <glyph glyph-name="ugrave" unicode="&#xf9;" horiz-adv-x="629" 
d="M243 700l95 -120h-56l-112 120h73zM66 193v337h60v-325q0 -92 46.5 -127.5t124.5 -35.5q197 0 197 186v302h60v-530h-60v91h-4q-48 -101 -205 -101q-219 0 -219 203z" />
    <glyph glyph-name="uacute" unicode="&#xfa;" horiz-adv-x="629" 
d="M450 700l-112 -120h-57l95 120h74zM66 193v337h60v-325q0 -92 46.5 -127.5t124.5 -35.5q197 0 197 186v302h60v-530h-60v91h-4q-48 -101 -205 -101q-219 0 -219 203z" />
    <glyph glyph-name="ucircumflex" unicode="&#xfb;" horiz-adv-x="629" 
d="M357 700l121 -120h-58l-110 99l-110 -99h-58l121 120h94zM66 193v337h60v-325q0 -92 46.5 -127.5t124.5 -35.5q197 0 197 186v302h60v-530h-60v91h-4q-48 -101 -205 -101q-219 0 -219 203z" />
    <glyph glyph-name="udieresis" unicode="&#xfc;" horiz-adv-x="629" 
d="M186 674h55v-69h-55v69zM379 674h55v-69h-55v69zM66 193v337h60v-325q0 -92 46.5 -127.5t124.5 -35.5q197 0 197 186v302h60v-530h-60v91h-4q-48 -101 -205 -101q-219 0 -219 203z" />
    <glyph glyph-name="yacute" unicode="&#xfd;" horiz-adv-x="579" 
d="M433 700l-112 -120h-57l95 120h74zM577 530l-335 -700h-64l86 173l-259 527h65l224 -456h4l216 456h63z" />
    <glyph glyph-name="thorn" unicode="&#xfe;" horiz-adv-x="682" 
d="M135 90v-260h-60v870h60v-260h4q42 100 211 100h21q127 0 192 -59t65 -195v-41q0 -136 -65 -195.5t-192 -59.5h-21q-169 0 -211 100h-4zM351 42q55 0 91.5 8t67 30.5t44.5 65.5t14 109v20q0 66 -14 109t-44.5 65.5t-67 30.5t-91.5 8q-111 0 -163.5 -42t-52.5 -163v-28
q0 -66 14 -109t44.5 -65.5t66.5 -30.5t91 -8z" />
    <glyph glyph-name="ydieresis" unicode="&#xff;" horiz-adv-x="579" 
d="M169 674h55v-69h-55v69zM362 674h55v-69h-55v69zM577 530l-335 -700h-64l86 173l-259 527h65l224 -456h4l216 456h63z" />
    <glyph glyph-name="Amacron" unicode="&#x100;" horiz-adv-x="855" 
d="M582 821v-42h-308v42h308zM475 700l353 -700h-70l-114 228h-433l-115 -228h-69l352 700h96zM430 657h-4l-189 -376h381z" />
    <glyph glyph-name="amacron" unicode="&#x101;" horiz-adv-x="630" 
d="M474 661v-42h-308v42h308zM565 340v-340h-60v97h-4q-48 -108 -229 -108q-223 0 -223 161v6q0 73 42.5 110.5t134.5 42.5l279 12v15q0 93 -45.5 124.5t-143.5 31.5q-77 0 -121 -24.5t-61 -83.5h-60q36 156 236 156h18q120 0 178.5 -45t58.5 -155zM109 157v-5
q0 -116 171 -116q108 0 166.5 46.5t58.5 132.5v60l-273 -12q-64 -2 -93.5 -27t-29.5 -79z" />
    <glyph glyph-name="Abreve" unicode="&#x102;" horiz-adv-x="855" 
d="M428 734q-152 0 -155 126h47q0 -42 28 -64.5t80 -22.5t80 22.5t28 64.5h47q-3 -126 -155 -126zM475 700l353 -700h-70l-114 228h-433l-115 -228h-69l352 700h96zM430 657h-4l-189 -376h381z" />
    <glyph glyph-name="abreve" unicode="&#x103;" horiz-adv-x="630" 
d="M320 574q-152 0 -155 126h47q0 -42 28 -64.5t80 -22.5t80 22.5t28 64.5h47q-3 -126 -155 -126zM565 340v-340h-60v97h-4q-48 -108 -229 -108q-223 0 -223 161v6q0 73 42.5 110.5t134.5 42.5l279 12v15q0 93 -45.5 124.5t-143.5 31.5q-77 0 -121 -24.5t-61 -83.5h-60
q36 156 236 156h18q120 0 178.5 -45t58.5 -155zM109 157v-5q0 -116 171 -116q108 0 166.5 46.5t58.5 132.5v60l-273 -12q-64 -2 -93.5 -27t-29.5 -79z" />
    <glyph glyph-name="Aogonek" unicode="&#x104;" horiz-adv-x="855" 
d="M806 -99v-41h-49q-49 0 -71.5 15.5t-22.5 52.5q0 32 16.5 50t70.5 38l-106 212h-433l-115 -228h-69l352 700h96l353 -700h-22q-56 -20 -71 -32t-15 -34q0 -18 11.5 -25.5t41.5 -7.5h33zM430 657h-4l-189 -376h381z" />
    <glyph glyph-name="aogonek" unicode="&#x105;" horiz-adv-x="630" 
d="M565 -99v-41h-49q-49 0 -71.5 15.5t-22.5 52.5q0 31 16 49t67 38v82h-4q-48 -108 -229 -108q-223 0 -223 161v6q0 73 42.5 110.5t134.5 42.5l279 12v15q0 93 -45.5 124.5t-143.5 31.5q-77 0 -121 -24.5t-61 -83.5h-60q36 156 236 156h18q120 0 178.5 -45t58.5 -155v-340
q-56 -20 -71 -32t-15 -34q0 -18 11 -25.5t42 -7.5h33zM109 157v-5q0 -116 171 -116q108 0 166.5 46.5t58.5 132.5v60l-273 -12q-64 -2 -93.5 -27t-29.5 -79z" />
    <glyph glyph-name="Cacute" unicode="&#x106;" horiz-adv-x="879" 
d="M589 860l-112 -120h-57l95 120h74zM486 -10h-75q-177 0 -257.5 77.5t-80.5 236.5v92q0 159 80.5 236.5t257.5 77.5h75q143 0 222.5 -50t104.5 -158h-66q-21 80 -85.5 117t-188.5 37h-48q-85 0 -142 -17.5t-89 -55.5t-45 -87.5t-13 -122.5v-47q0 -72 13 -122t45 -87.5
t89 -55t142 -17.5h48q124 0 188.5 37t85.5 117h66q-25 -108 -104.5 -158t-222.5 -50z" />
    <glyph glyph-name="cacute" unicode="&#x107;" horiz-adv-x="617" 
d="M446 700l-112 -120h-57l95 120h74zM332 -10h-21q-127 0 -192 59.5t-65 194.5v41q0 136 65 195.5t192 59.5h21q203 0 243 -155h-61q-19 60 -67.5 81.5t-123.5 21.5q-52 0 -87 -8.5t-64.5 -30.5t-44 -65t-14.5 -109v-20q0 -66 14 -109.5t44 -65.5t65 -30t87 -8
q75 0 123.5 21.5t67.5 81.5h61q-40 -155 -243 -155z" />
    <glyph glyph-name="Ccircumflex" unicode="&#x108;" horiz-adv-x="879" 
d="M496 860l121 -120h-58l-110 99l-110 -99h-58l121 120h94zM486 -10h-75q-177 0 -257.5 77.5t-80.5 236.5v92q0 159 80.5 236.5t257.5 77.5h75q143 0 222.5 -50t104.5 -158h-66q-21 80 -85.5 117t-188.5 37h-48q-85 0 -142 -17.5t-89 -55.5t-45 -87.5t-13 -122.5v-47
q0 -72 13 -122t45 -87.5t89 -55t142 -17.5h48q124 0 188.5 37t85.5 117h66q-25 -108 -104.5 -158t-222.5 -50z" />
    <glyph glyph-name="ccircumflex" unicode="&#x109;" horiz-adv-x="617" 
d="M366 700l121 -120h-58l-110 99l-110 -99h-58l121 120h94zM332 -10h-21q-127 0 -192 59.5t-65 194.5v41q0 136 65 195.5t192 59.5h21q203 0 243 -155h-61q-19 60 -67.5 81.5t-123.5 21.5q-52 0 -87 -8.5t-64.5 -30.5t-44 -65t-14.5 -109v-20q0 -66 14 -109.5t44 -65.5
t65 -30t87 -8q75 0 123.5 21.5t67.5 81.5h61q-40 -155 -243 -155z" />
    <glyph glyph-name="Cdotaccent" unicode="&#x10a;" horiz-adv-x="879" 
d="M419 834h60v-69h-60v69zM486 -10h-75q-177 0 -257.5 77.5t-80.5 236.5v92q0 159 80.5 236.5t257.5 77.5h75q143 0 222.5 -50t104.5 -158h-66q-21 80 -85.5 117t-188.5 37h-48q-85 0 -142 -17.5t-89 -55.5t-45 -87.5t-13 -122.5v-47q0 -72 13 -122t45 -87.5t89 -55
t142 -17.5h48q124 0 188.5 37t85.5 117h66q-25 -108 -104.5 -158t-222.5 -50z" />
    <glyph glyph-name="cdotaccent" unicode="&#x10b;" horiz-adv-x="617" 
d="M290 674h60v-69h-60v69zM332 -10h-21q-127 0 -192 59.5t-65 194.5v41q0 136 65 195.5t192 59.5h21q203 0 243 -155h-61q-19 60 -67.5 81.5t-123.5 21.5q-52 0 -87 -8.5t-64.5 -30.5t-44 -65t-14.5 -109v-20q0 -66 14 -109.5t44 -65.5t65 -30t87 -8q75 0 123.5 21.5
t67.5 81.5h61q-40 -155 -243 -155z" />
    <glyph glyph-name="Ccaron" unicode="&#x10c;" horiz-adv-x="879" 
d="M449 761l110 99h58l-121 -120h-94l-121 120h58zM486 -10h-75q-177 0 -257.5 77.5t-80.5 236.5v92q0 159 80.5 236.5t257.5 77.5h75q143 0 222.5 -50t104.5 -158h-66q-21 80 -85.5 117t-188.5 37h-48q-85 0 -142 -17.5t-89 -55.5t-45 -87.5t-13 -122.5v-47q0 -72 13 -122
t45 -87.5t89 -55t142 -17.5h48q124 0 188.5 37t85.5 117h66q-25 -108 -104.5 -158t-222.5 -50z" />
    <glyph glyph-name="ccaron" unicode="&#x10d;" horiz-adv-x="617" 
d="M319 601l110 99h58l-121 -120h-94l-121 120h58zM332 -10h-21q-127 0 -192 59.5t-65 194.5v41q0 136 65 195.5t192 59.5h21q203 0 243 -155h-61q-19 60 -67.5 81.5t-123.5 21.5q-52 0 -87 -8.5t-64.5 -30.5t-44 -65t-14.5 -109v-20q0 -66 14 -109.5t44 -65.5t65 -30t87 -8
q75 0 123.5 21.5t67.5 81.5h61q-40 -155 -243 -155z" />
    <glyph glyph-name="Dcaron" unicode="&#x10e;" horiz-adv-x="880" 
d="M438 761l110 99h58l-121 -120h-94l-121 120h58zM806 386v-72q0 -158 -80 -236t-253 -78h-380v700h379q174 0 254 -78t80 -236zM452 646h-297v-592h297q86 0 143.5 17.5t89.5 55t45 87.5t13 122v27q0 147 -62.5 215t-228.5 68z" />
    <glyph glyph-name="dcaron" unicode="&#x10f;" horiz-adv-x="803" 
d="M611 700v-700h-59v90h-4q-43 -100 -212 -100h-21q-127 0 -192 59t-65 195v41q0 136 65 195.5t192 59.5h21q169 0 212 -100h4v260h59zM795 700l-44 -198h-48l33 198h59zM335 42q110 0 163.5 42t53.5 163v28q0 66 -14.5 109t-45 65.5t-67 30.5t-90.5 8q-55 0 -92 -8
t-67.5 -30.5t-44.5 -65.5t-14 -109v-20q0 -66 14 -109t44.5 -65.5t67.5 -30.5t92 -8z" />
    <glyph glyph-name="Dcroat" unicode="&#x110;" horiz-adv-x="880" 
d="M93 325h-93v49h93v326h379q174 0 254 -78t80 -236v-72q0 -158 -80 -236t-253 -78h-380v325zM425 374v-49h-270v-271h297q86 0 143.5 17.5t89.5 55t45 87.5t13 122v27q0 147 -62.5 215t-228.5 68h-297v-272h270z" />
    <glyph glyph-name="dslash" unicode="&#x111;" horiz-adv-x="678" 
d="M603 586v-586h-59v90h-4q-43 -100 -212 -100h-21q-127 0 -192 59t-65 195v41q0 136 65 195.5t192 59.5h21q169 0 212 -100h4v146h-201v48h201v66h59v-66h67v-48h-67zM327 42q110 0 163.5 42t53.5 163v28q0 66 -14.5 109t-45 65.5t-67 30.5t-90.5 8q-55 0 -92 -8
t-67.5 -30.5t-44.5 -65.5t-14 -109v-20q0 -66 14 -109t44.5 -65.5t67.5 -30.5t92 -8z" />
    <glyph glyph-name="Emacron" unicode="&#x112;" horiz-adv-x="766" 
d="M548 821v-42h-308v42h308zM695 54v-54h-602v700h602v-54h-540v-269h540v-53h-540v-270h540z" />
    <glyph glyph-name="emacron" unicode="&#x113;" horiz-adv-x="643" 
d="M479 661v-42h-308v42h308zM521 140h61q-39 -150 -250 -150h-19q-128 0 -193.5 60t-65.5 195v39q0 136 65 196t194 60h19q128 0 193.5 -59.5t65.5 -195.5v-31h-478q0 -66 14.5 -109t44 -65.5t64.5 -31t87 -8.5q81 0 128 19.5t70 80.5zM322 492q-50 0 -84 -7.5t-63 -27
t-44.5 -59t-17.5 -98.5h418v6q0 98 -51.5 142t-157.5 44z" />
    <glyph glyph-name="Ebreve" unicode="&#x114;" horiz-adv-x="766" 
d="M394 734q-152 0 -155 126h47q0 -42 28 -64.5t80 -22.5t80 22.5t28 64.5h47q-3 -126 -155 -126zM695 54v-54h-602v700h602v-54h-540v-269h540v-53h-540v-270h540z" />
    <glyph glyph-name="ebreve" unicode="&#x115;" horiz-adv-x="643" 
d="M325 574q-152 0 -155 126h47q0 -87 108 -87t108 87h47q-3 -126 -155 -126zM521 140h61q-39 -150 -250 -150h-19q-128 0 -193.5 60t-65.5 195v39q0 136 65 196t194 60h19q128 0 193.5 -59.5t65.5 -195.5v-31h-478q0 -66 14.5 -109t44 -65.5t64.5 -31t87 -8.5
q81 0 128 19.5t70 80.5zM322 492q-50 0 -84 -7.5t-63 -27t-44.5 -59t-17.5 -98.5h418v6q0 98 -51.5 142t-157.5 44z" />
    <glyph glyph-name="Edotaccent" unicode="&#x116;" horiz-adv-x="766" 
d="M364 834h60v-69h-60v69zM695 54v-54h-602v700h602v-54h-540v-269h540v-53h-540v-270h540z" />
    <glyph glyph-name="edotaccent" unicode="&#x117;" horiz-adv-x="643" 
d="M295 674h60v-69h-60v69zM521 140h61q-39 -150 -250 -150h-19q-128 0 -193.5 60t-65.5 195v39q0 136 65 196t194 60h19q128 0 193.5 -59.5t65.5 -195.5v-31h-478q0 -66 14.5 -109t44 -65.5t64.5 -31t87 -8.5q81 0 128 19.5t70 80.5zM322 492q-50 0 -84 -7.5t-63 -27
t-44.5 -59t-17.5 -98.5h418v6q0 98 -51.5 142t-157.5 44z" />
    <glyph glyph-name="Eogonek" unicode="&#x118;" horiz-adv-x="766" 
d="M696 -99v-41h-49q-49 0 -71.5 15.5t-22.5 52.5q0 26 9.5 41.5t39.5 30.5h-509v700h602v-54h-540v-269h540v-53h-540v-270h540v-19h1v-35q-56 -20 -71 -32t-15 -34q0 -18 11.5 -25.5t41.5 -7.5h33z" />
    <glyph glyph-name="eogonek" unicode="&#x119;" horiz-adv-x="642" 
d="M506 -99v-41h-53q-90 0 -90 69q0 37 27 60v4q-36 -3 -68 -3q-141 0 -204.5 61.5t-63.5 193.5v39q0 136 65 196t194 60h19q128 0 193.5 -59.5t65.5 -195.5v-31h-477q0 -66 14.5 -109t43.5 -65.5t64.5 -31t86.5 -8.5q82 0 129.5 19.5t69.5 80.5h61q-21 -82 -103 -126
q-60 -31 -60 -74q0 -21 11 -30t42 -9h33zM323 492q-102 0 -152.5 -39t-56.5 -153h418v6q0 98 -52 142t-157 44z" />
    <glyph glyph-name="Ecaron" unicode="&#x11a;" horiz-adv-x="766" 
d="M394 761l110 99h58l-121 -120h-94l-121 120h58zM695 54v-54h-602v700h602v-54h-540v-269h540v-53h-540v-270h540z" />
    <glyph glyph-name="ecaron" unicode="&#x11b;" horiz-adv-x="643" 
d="M325 601l110 99h58l-121 -120h-94l-121 120h58zM521 140h61q-39 -150 -250 -150h-19q-128 0 -193.5 60t-65.5 195v39q0 136 65 196t194 60h19q128 0 193.5 -59.5t65.5 -195.5v-31h-478q0 -66 14.5 -109t44 -65.5t64.5 -31t87 -8.5q81 0 128 19.5t70 80.5zM322 492
q-50 0 -84 -7.5t-63 -27t-44.5 -59t-17.5 -98.5h418v6q0 98 -51.5 142t-157.5 44z" />
    <glyph glyph-name="Gcircumflex" unicode="&#x11c;" horiz-adv-x="900" 
d="M497 860l121 -120h-58l-110 99l-110 -99h-58l121 120h94zM487 -10h-73q-179 0 -260 77.5t-81 235.5v94q0 158 81 235.5t260 77.5h73q285 0 327 -203h-67q-17 77 -83.5 113t-189.5 36h-48q-86 0 -143.5 -17.5t-89 -55.5t-44.5 -87.5t-13 -121.5v-48q0 -72 13 -121.5
t44.5 -87.5t89 -55.5t143.5 -17.5h49q164 0 226.5 65.5t62.5 206.5h-332v54h394v-68q0 -157 -81 -234.5t-258 -77.5z" />
    <glyph glyph-name="gcircumflex" unicode="&#x11d;" horiz-adv-x="684" 
d="M387 700l121 -120h-58l-110 99l-110 -99h-58l121 120h94zM353 -170h-23q-100 0 -163.5 29t-88.5 104h64q25 -50 69.5 -67t127.5 -17q103 0 152 36t49 132v79h-4q-22 -47 -69.5 -70.5t-132.5 -23.5h-11q-124 0 -187 54.5t-63 187.5v24q0 133 63 187.5t187 54.5h11
q85 0 132.5 -23.5t69.5 -70.5h4v84h60v-494q0 -110 -63 -158t-184 -48zM337 83q49 0 81 6t62.5 25t45 59.5t14.5 104.5v16q0 63 -14.5 103.5t-45 59.5t-62.5 25.5t-81 6.5q-48 0 -81 -6.5t-63 -26t-45 -60t-15 -102.5v-16q0 -63 15 -103.5t45.5 -59.5t62.5 -25.5t81 -6.5z
" />
    <glyph glyph-name="Gbreve" unicode="&#x11e;" horiz-adv-x="900" 
d="M450 734q-152 0 -155 126h47q0 -42 28 -64.5t80 -22.5t80 22.5t28 64.5h47q-3 -126 -155 -126zM487 -10h-73q-179 0 -260 77.5t-81 235.5v94q0 158 81 235.5t260 77.5h73q285 0 327 -203h-67q-17 77 -83.5 113t-189.5 36h-48q-86 0 -143.5 -17.5t-89 -55.5t-44.5 -87.5
t-13 -121.5v-48q0 -72 13 -121.5t44.5 -87.5t89 -55.5t143.5 -17.5h49q164 0 226.5 65.5t62.5 206.5h-332v54h394v-68q0 -157 -81 -234.5t-258 -77.5z" />
    <glyph glyph-name="gbreve" unicode="&#x11f;" horiz-adv-x="684" 
d="M340 574q-152 0 -155 126h47q0 -42 28 -64.5t80 -22.5t80 22.5t28 64.5h47q-3 -126 -155 -126zM353 -170h-23q-100 0 -163.5 29t-88.5 104h64q25 -50 69.5 -67t127.5 -17q103 0 152 36t49 132v79h-4q-22 -47 -69.5 -70.5t-132.5 -23.5h-11q-124 0 -187 54.5t-63 187.5v24
q0 133 63 187.5t187 54.5h11q85 0 132.5 -23.5t69.5 -70.5h4v84h60v-494q0 -110 -63 -158t-184 -48zM337 83q49 0 81 6t62.5 25t45 59.5t14.5 104.5v16q0 63 -14.5 103.5t-45 59.5t-62.5 25.5t-81 6.5q-48 0 -81 -6.5t-63 -26t-45 -60t-15 -102.5v-16q0 -63 15 -103.5
t45.5 -59.5t62.5 -25.5t81 -6.5z" />
    <glyph glyph-name="Gdotaccent" unicode="&#x120;" horiz-adv-x="900" 
d="M420 834h60v-69h-60v69zM487 -10h-73q-179 0 -260 77.5t-81 235.5v94q0 158 81 235.5t260 77.5h73q285 0 327 -203h-67q-17 77 -83.5 113t-189.5 36h-48q-86 0 -143.5 -17.5t-89 -55.5t-44.5 -87.5t-13 -121.5v-48q0 -72 13 -121.5t44.5 -87.5t89 -55.5t143.5 -17.5h49
q164 0 226.5 65.5t62.5 206.5h-332v54h394v-68q0 -157 -81 -234.5t-258 -77.5z" />
    <glyph glyph-name="gdotaccent" unicode="&#x121;" horiz-adv-x="684" 
d="M310 674h60v-69h-60v69zM353 -170h-23q-100 0 -163.5 29t-88.5 104h64q25 -50 69.5 -67t127.5 -17q103 0 152 36t49 132v79h-4q-22 -47 -69.5 -70.5t-132.5 -23.5h-11q-124 0 -187 54.5t-63 187.5v24q0 133 63 187.5t187 54.5h11q85 0 132.5 -23.5t69.5 -70.5h4v84h60
v-494q0 -110 -63 -158t-184 -48zM337 83q49 0 81 6t62.5 25t45 59.5t14.5 104.5v16q0 63 -14.5 103.5t-45 59.5t-62.5 25.5t-81 6.5q-48 0 -81 -6.5t-63 -26t-45 -60t-15 -102.5v-16q0 -63 15 -103.5t45.5 -59.5t62.5 -25.5t81 -6.5z" />
    <glyph glyph-name="Gcommaaccent" unicode="&#x122;" horiz-adv-x="900" 
d="M487 -10h-73q-179 0 -260 77.5t-81 235.5v94q0 158 81 235.5t260 77.5h73q285 0 327 -203h-67q-17 77 -83.5 113t-189.5 36h-48q-86 0 -143.5 -17.5t-89 -55.5t-44.5 -87.5t-13 -121.5v-48q0 -72 13 -121.5t44.5 -87.5t89 -55.5t143.5 -17.5h49q164 0 226.5 65.5
t62.5 206.5h-332v54h394v-68q0 -157 -81 -234.5t-258 -77.5zM473 -148l-15 -22h-44l42 64v6h-55v46h99v-11q0 -38 -27 -83z" />
    <glyph glyph-name="gcommaaccent" unicode="&#x123;" horiz-adv-x="684" 
d="M318 692l15 22h43l-41 -64v-6h55v-46h-99v11q0 38 27 83zM353 -170h-23q-100 0 -163.5 29t-88.5 104h64q25 -50 69.5 -67t127.5 -17q103 0 152 36t49 132v79h-4q-22 -47 -69.5 -70.5t-132.5 -23.5h-11q-124 0 -187 54.5t-63 187.5v24q0 133 63 187.5t187 54.5h11
q85 0 132.5 -23.5t69.5 -70.5h4v84h60v-494q0 -110 -63 -158t-184 -48zM337 83q49 0 81 6t62.5 25t45 59.5t14.5 104.5v16q0 63 -14.5 103.5t-45 59.5t-62.5 25.5t-81 6.5q-48 0 -81 -6.5t-63 -26t-45 -60t-15 -102.5v-16q0 -63 15 -103.5t45.5 -59.5t62.5 -25.5t81 -6.5z
" />
    <glyph glyph-name="Hcircumflex" unicode="&#x124;" horiz-adv-x="868" 
d="M481 860l121 -120h-58l-110 99l-110 -99h-58l121 120h94zM774 700v-700h-62v323h-557v-323h-62v700h62v-324h557v324h62z" />
    <glyph glyph-name="hcircumflex" unicode="&#x125;" horiz-adv-x="629" 
d="M152 870l121 -120h-58l-110 99l-110 -99h-58l121 120h94zM563 337v-337h-60v325q0 92 -46 127.5t-125 35.5q-197 0 -197 -186v-302h-60v700h60v-261h4q48 101 205 101q219 0 219 -203z" />
    <glyph glyph-name="Hbar" unicode="&#x126;" horiz-adv-x="868" 
d="M93 511h-93v49h93v140h62v-140h557v140h62v-140h94v-49h-94v-511h-62v323h-557v-323h-62v511zM155 511v-135h557v135h-557z" />
    <glyph glyph-name="hbar" unicode="&#x127;" horiz-adv-x="629" 
d="M563 337v-337h-60v325q0 92 -46 127.5t-125 35.5q-197 0 -197 -186v-302h-60v586h-67v48h67v66h60v-66h201v-48h-201v-147h4q48 101 205 101q219 0 219 -203z" />
    <glyph glyph-name="Itilde" unicode="&#x128;" horiz-adv-x="249" 
d="M198 756q-30 0 -79 24t-66 24q-38 0 -48 -45h-41q14 86 86 86q30 0 78.5 -24t65.5 -24q38 0 48 45h43q-14 -86 -87 -86zM155 700v-700h-62v700h62z" />
    <glyph glyph-name="itilde" unicode="&#x129;" horiz-adv-x="212" 
d="M179 596q-31 0 -79.5 24t-65.5 24q-38 0 -48 -45h-41q14 86 86 86q30 0 78.5 -24t65.5 -24q19 0 30.5 9.5t17.5 35.5h43q-14 -86 -87 -86zM76 530h59v-530h-59v530z" />
    <glyph glyph-name="Imacron" unicode="&#x12a;" horiz-adv-x="249" 
d="M278 821v-42h-308v42h308zM155 700v-700h-62v700h62z" />
    <glyph glyph-name="imacron" unicode="&#x12b;" horiz-adv-x="212" 
d="M259 661v-42h-308v42h308zM76 530h59v-530h-59v530z" />
    <glyph glyph-name="Ibreve" unicode="&#x12c;" horiz-adv-x="249" 
d="M124 734q-152 0 -155 126h47q0 -42 28 -64.5t80 -22.5t80 22.5t28 64.5h47q-3 -126 -155 -126zM155 700v-700h-62v700h62z" />
    <glyph glyph-name="ibreve" unicode="&#x12d;" horiz-adv-x="212" 
d="M105 574q-152 0 -155 126h47q0 -87 108 -87t108 87h47q-3 -126 -155 -126zM76 530h59v-530h-59v530z" />
    <glyph glyph-name="Iogonek" unicode="&#x12e;" horiz-adv-x="249" 
d="M156 -99v-41h-49q-49 0 -71.5 15.5t-22.5 52.5q0 27 14 47q13 18 66 38v687h62v-665h1v-35q-56 -20 -71 -32t-15 -34q0 -18 11.5 -25.5t41.5 -7.5h33z" />
    <glyph glyph-name="iogonek" unicode="&#x12f;" horiz-adv-x="212" 
d="M76 700h60v-69h-60v69zM136 -99v-41h-49q-49 0 -71.5 15.5t-22.5 52.5q0 31 15.5 49t67.5 38v515h60v-530q-56 -20 -71 -32t-15 -34q0 -18 11.5 -25.5t41.5 -7.5h33z" />
    <glyph glyph-name="Idot" unicode="&#x130;" horiz-adv-x="249" 
d="M95 834h60v-69h-60v69zM155 700v-700h-62v700h62z" />
    <glyph glyph-name="dotlessi" unicode="&#x131;" horiz-adv-x="212" 
d="M76 530h59v-530h-59v530z" />
    <glyph glyph-name="IJ" unicode="&#x132;" horiz-adv-x="752" 
d="M155 700v-700h-62v700h62zM397 0h-127v54h103q130 0 182.5 51t52.5 153v442h62v-449q0 -251 -273 -251z" />
    <glyph glyph-name="ij" unicode="&#x133;" horiz-adv-x="445" 
d="M76 700h60v-69h-60v69zM309 700h60v-69h-60v69zM76 530h60v-530h-60v530zM309 530h60v-451q0 -90 -17.5 -137.5t-68.5 -111.5h-68q57 69 75.5 116t18.5 125v459z" />
    <glyph glyph-name="Jcircumflex" unicode="&#x134;" horiz-adv-x="503" 
d="M437 860l121 -120h-58l-110 99l-110 -99h-58l121 120h94zM148 0h-127v54h103q129 0 182 51.5t53 152.5v442h62v-449q0 -251 -273 -251z" />
    <glyph glyph-name="jcircumflex" unicode="&#x135;" horiz-adv-x="234" 
d="M163 700l121 -120h-58l-110 99l-110 -99h-58l121 120h94zM86 530h60v-451q0 -90 -16.5 -136.5t-68.5 -112.5h-68q56 70 74.5 116.5t18.5 124.5v459z" />
    <glyph glyph-name="Kcommaaccent" unicode="&#x136;" horiz-adv-x="842" 
d="M155 268v-268h-62v700h62v-361h5l557 361h97l-430 -279l439 -421h-86l-402 384h-5zM436 -148l-15 -22h-44l42 64v6h-55v46h99v-11q0 -38 -27 -83z" />
    <glyph glyph-name="kcommaaccent" unicode="&#x137;" horiz-adv-x="618" 
d="M142 173v-173h-60v700h60v-457h4l356 287h82l-274 -221l291 -309h-80l-254 270h-4zM329 -148l-15 -22h-44l42 64v6h-55v46h99v-11q0 -38 -27 -83z" />
    <glyph glyph-name="Lacute" unicode="&#x139;" horiz-adv-x="690" 
d="M265 860l-112 -120h-57l95 120h74zM651 54v-54h-558v700h62v-646h496z" />
    <glyph glyph-name="lacute" unicode="&#x13a;" horiz-adv-x="212" 
d="M246 860l-112 -120h-57l95 120h74zM136 700v-700h-60v700h60z" />
    <glyph glyph-name="Lcommaaccent" unicode="&#x13b;" horiz-adv-x="690" 
d="M651 54v-54h-558v700h62v-646h496zM390 -148l-15 -22h-44l42 64v6h-55v46h99v-11q0 -38 -27 -83z" />
    <glyph glyph-name="lcommaaccent" unicode="&#x13c;" horiz-adv-x="212" 
d="M136 700v-700h-60v700h60zM128 -148l-15 -22h-44l42 64v6h-55v46h99v-11q0 -38 -27 -83z" />
    <glyph glyph-name="Lcaron" unicode="&#x13d;" horiz-adv-x="693" 
d="M651 54v-54h-558v700h62v-646h496zM510 700l-44 -198h-48l33 198h59z" />
    <glyph glyph-name="lcaron" unicode="&#x13e;" horiz-adv-x="332" 
d="M136 700v-700h-60v700h60zM319 700l-44 -198h-48l33 198h59z" />
    <glyph glyph-name="Ldot" unicode="&#x13f;" horiz-adv-x="692" 
d="M651 54v-54h-558v700h62v-646h496zM438 423h60v-69h-60v69z" />
    <glyph glyph-name="ldot" unicode="&#x140;" horiz-adv-x="405" 
d="M136 700v-700h-60v700h60zM279 305h60v-69h-60v69z" />
    <glyph glyph-name="Lslash" unicode="&#x141;" horiz-adv-x="690" 
d="M93 286l-93 -22v49l93 22v365h62v-350l280 68v-49l-280 -68v-247h496v-54h-558v286z" />
    <glyph glyph-name="lslash" unicode="&#x142;" horiz-adv-x="227" 
d="M137 401v-401h-60v348l-71 -64v58l71 64v294h60v-241l90 81v-58z" />
    <glyph glyph-name="Nacute" unicode="&#x143;" horiz-adv-x="887" 
d="M602 860l-112 -120h-57l95 120h74zM794 700v-700h-103l-532 646h-5v-646h-62v700h103l532 -647h5v647h62z" />
    <glyph glyph-name="nacute" unicode="&#x144;" horiz-adv-x="629" 
d="M461 700l-112 -120h-57l95 120h74zM563 337v-337h-60v325q0 92 -46 127.5t-125 35.5q-197 0 -197 -186v-302h-60v530h60v-91h4q48 101 205 101q219 0 219 -203z" />
    <glyph glyph-name="Ncommaaccent" unicode="&#x145;" horiz-adv-x="887" 
d="M794 700v-700h-103l-532 646h-5v-646h-62v700h103l532 -647h5v647h62zM448 -148l-15 -22h-44l42 64v6h-55v46h99v-11q0 -38 -27 -83z" />
    <glyph glyph-name="ncommaaccent" unicode="&#x146;" horiz-adv-x="629" 
d="M563 337v-337h-60v325q0 92 -46 127.5t-125 35.5q-197 0 -197 -186v-302h-60v530h60v-91h4q48 101 205 101q219 0 219 -203zM341 -148l-15 -22h-44l42 64v6h-55v46h99v-11q0 -38 -27 -83z" />
    <glyph glyph-name="Ncaron" unicode="&#x147;" horiz-adv-x="887" 
d="M461 761l110 99h58l-121 -120h-94l-121 120h58zM794 700v-700h-103l-532 646h-5v-646h-62v700h103l532 -647h5v647h62z" />
    <glyph glyph-name="ncaron" unicode="&#x148;" horiz-adv-x="629" 
d="M320 601l110 99h58l-121 -120h-94l-121 120h58zM563 337v-337h-60v325q0 92 -46 127.5t-125 35.5q-197 0 -197 -186v-302h-60v530h60v-91h4q48 101 205 101q219 0 219 -203z" />
    <glyph glyph-name="Eng" unicode="&#x14a;" horiz-adv-x="889" 
d="M522 -170h-99v54h81q159 0 204 93l-548 669h-5v-646h-62v700h103l532 -647h5v647h62v-619q0 -251 -273 -251z" />
    <glyph glyph-name="eng" unicode="&#x14b;" horiz-adv-x="629" 
d="M135 304v-304h-60v530h60v-91h4q46 101 204 101q220 0 220 -203v-303q0 -109 -62 -156.5t-178 -47.5h-28v50h10q99 0 148.5 36t49.5 131v277q0 93 -46.5 128.5t-126.5 35.5q-195 0 -195 -184z" />
    <glyph glyph-name="Omacron" unicode="&#x14c;" horiz-adv-x="900" 
d="M604 821v-42h-308v42h308zM487 -10h-73q-179 0 -260 77.5t-81 236.5v92q0 159 81 236.5t260 77.5h73q178 0 259 -78t81 -236v-92q0 -158 -81 -236t-259 -78zM426 44h48q86 0 143.5 17.5t89 55.5t44.5 87.5t13 121.5v47q0 73 -13 122.5t-44.5 87.5t-89 55.5t-143.5 17.5
h-48q-86 0 -143.5 -17.5t-89 -55.5t-44.5 -87.5t-13 -122.5v-47q0 -72 13 -121.5t44.5 -87.5t89 -55.5t143.5 -17.5z" />
    <glyph glyph-name="omacron" unicode="&#x14d;" horiz-adv-x="661" 
d="M485 661v-42h-308v42h308zM346 -10h-31q-130 0 -195.5 60t-65.5 195v39q0 136 65.5 196t195.5 60h31q130 0 195.5 -60t65.5 -196v-39q0 -135 -65.5 -195t-195.5 -60zM331 42q54 0 90.5 8t67 30t45 65.5t14.5 109.5v20q0 66 -14.5 109t-45 65.5t-67 30.5t-90.5 8
q-55 0 -91.5 -8t-67 -30.5t-45 -65.5t-14.5 -109v-20q0 -127 53 -170t165 -43z" />
    <glyph glyph-name="Obreve" unicode="&#x14e;" horiz-adv-x="900" 
d="M450 734q-152 0 -155 126h47q0 -42 28 -64.5t80 -22.5t80 22.5t28 64.5h47q-3 -126 -155 -126zM487 -10h-73q-179 0 -260 77.5t-81 236.5v92q0 159 81 236.5t260 77.5h73q178 0 259 -78t81 -236v-92q0 -158 -81 -236t-259 -78zM426 44h48q86 0 143.5 17.5t89 55.5
t44.5 87.5t13 121.5v47q0 73 -13 122.5t-44.5 87.5t-89 55.5t-143.5 17.5h-48q-86 0 -143.5 -17.5t-89 -55.5t-44.5 -87.5t-13 -122.5v-47q0 -72 13 -121.5t44.5 -87.5t89 -55.5t143.5 -17.5z" />
    <glyph glyph-name="obreve" unicode="&#x14f;" horiz-adv-x="661" 
d="M331 574q-152 0 -155 126h47q0 -87 108 -87t108 87h47q-3 -126 -155 -126zM346 -10h-31q-130 0 -195.5 60t-65.5 195v39q0 136 65.5 196t195.5 60h31q130 0 195.5 -60t65.5 -196v-39q0 -135 -65.5 -195t-195.5 -60zM331 42q54 0 90.5 8t67 30t45 65.5t14.5 109.5v20
q0 66 -14.5 109t-45 65.5t-67 30.5t-90.5 8q-55 0 -91.5 -8t-67 -30.5t-45 -65.5t-14.5 -109v-20q0 -127 53 -170t165 -43z" />
    <glyph glyph-name="Ohungarumlaut" unicode="&#x150;" horiz-adv-x="900" 
d="M513 860l-113 -120h-56l95 120h74zM665 860l-112 -120h-57l96 120h73zM487 -10h-73q-179 0 -260 77.5t-81 236.5v92q0 159 81 236.5t260 77.5h73q178 0 259 -78t81 -236v-92q0 -158 -81 -236t-259 -78zM426 44h48q86 0 143.5 17.5t89 55.5t44.5 87.5t13 121.5v47
q0 73 -13 122.5t-44.5 87.5t-89 55.5t-143.5 17.5h-48q-86 0 -143.5 -17.5t-89 -55.5t-44.5 -87.5t-13 -122.5v-47q0 -72 13 -121.5t44.5 -87.5t89 -55.5t143.5 -17.5z" />
    <glyph glyph-name="ohungarumlaut" unicode="&#x151;" horiz-adv-x="661" 
d="M395 700l-113 -120h-56l95 120h74zM547 700l-112 -120h-57l96 120h73zM346 -10h-31q-130 0 -195.5 60t-65.5 195v39q0 136 65.5 196t195.5 60h31q130 0 195.5 -60t65.5 -196v-39q0 -135 -65.5 -195t-195.5 -60zM331 42q54 0 90.5 8t67 30t45 65.5t14.5 109.5v20
q0 66 -14.5 109t-45 65.5t-67 30.5t-90.5 8q-55 0 -91.5 -8t-67 -30.5t-45 -65.5t-14.5 -109v-20q0 -127 53 -170t165 -43z" />
    <glyph glyph-name="OE" unicode="&#x152;" horiz-adv-x="1397" 
d="M1326 54v-54h-918q-174 0 -254 78t-80 236v72q0 158 80 236t253 78h919v-54h-539v-269h539v-53h-539v-270h539zM428 54h296v592h-296q-86 0 -143.5 -17.5t-89.5 -55t-45 -87.5t-13 -122v-27q0 -147 62.5 -215t228.5 -68z" />
    <glyph glyph-name="oe" unicode="&#x153;" horiz-adv-x="1141" 
d="M345 -10h-30q-130 0 -195.5 60t-65.5 195v39q0 136 65.5 196t195.5 60h31q181 0 229 -121h4q46 121 230 121h20q130 0 195 -59.5t65 -195.5v-31h-481q0 -66 14 -109t44 -65.5t65.5 -31t88.5 -8.5q80 0 129 20t71 80h61q-42 -150 -252 -150h-20q-183 0 -229 121h-4
q-49 -121 -231 -121zM819 492q-51 0 -85 -7.5t-63.5 -27.5t-44.5 -58.5t-18 -98.5h422v6q0 98 -52 142t-159 44zM331 42q54 0 90.5 8t67 30t45 65.5t14.5 109.5v20q0 66 -14.5 109t-45 65.5t-67 30.5t-90.5 8q-55 0 -91.5 -8t-67 -30.5t-45 -65.5t-14.5 -109v-20
q0 -127 53 -170t165 -43z" />
    <glyph glyph-name="Racute" unicode="&#x154;" horiz-adv-x="843" 
d="M556 860l-112 -120h-57l95 120h74zM155 313v-313h-62v700h438q128 0 178 -43q52 -42 52 -134v-16q0 -75 -27 -113t-84 -48v-4q59 -8 85 -43t26 -112v-187h-62v166q0 90 -35 118.5t-147 28.5h-362zM507 646h-352v-279h366q103 0 140.5 31.5t37.5 106.5v8q0 76 -41 104.5
t-151 28.5z" />
    <glyph glyph-name="racute" unicode="&#x155;" horiz-adv-x="405" 
d="M399 700l-112 -120h-57l95 120h74zM333 530h56v-52h-61q-42 0 -73.5 -6.5t-60.5 -23.5t-44 -51.5t-15 -85.5v-311h-60v530h60v-90h4q37 90 194 90z" />
    <glyph glyph-name="Rcommaaccent" unicode="&#x156;" horiz-adv-x="843" 
d="M155 313v-313h-62v700h438q128 0 178 -43q52 -42 52 -134v-16q0 -75 -27 -113t-84 -48v-4q59 -8 85 -43t26 -112v-187h-62v166q0 90 -35 118.5t-147 28.5h-362zM507 646h-352v-279h366q103 0 140.5 31.5t37.5 106.5v8q0 76 -41 104.5t-151 28.5zM449 -148l-15 -22h-44
l42 64v6h-55v46h99v-11q0 -38 -27 -83z" />
    <glyph glyph-name="rcommaaccent" unicode="&#x157;" horiz-adv-x="405" 
d="M333 530h56v-52h-61q-42 0 -73.5 -6.5t-60.5 -23.5t-44 -51.5t-15 -85.5v-311h-60v530h60v-90h4q37 90 194 90zM128 -148l-15 -22h-44l42 64v6h-55v46h99v-11q0 -38 -27 -83z" />
    <glyph glyph-name="Rcaron" unicode="&#x158;" horiz-adv-x="843" 
d="M415 761l110 99h58l-121 -120h-94l-121 120h58zM155 313v-313h-62v700h438q128 0 178 -43q52 -42 52 -134v-16q0 -75 -27 -113t-84 -48v-4q59 -8 85 -43t26 -112v-187h-62v166q0 90 -35 118.5t-147 28.5h-362zM507 646h-352v-279h366q103 0 140.5 31.5t37.5 106.5v8
q0 76 -41 104.5t-151 28.5z" />
    <glyph glyph-name="rcaron" unicode="&#x159;" horiz-adv-x="405" 
d="M248 601l110 99h58l-121 -120h-94l-121 120h58zM333 530h56v-52h-61q-42 0 -73.5 -6.5t-60.5 -23.5t-44 -51.5t-15 -85.5v-311h-60v530h60v-90h4q37 90 194 90z" />
    <glyph glyph-name="Sacute" unicode="&#x15a;" horiz-adv-x="802" 
d="M537 860l-112 -120h-57l95 120h74zM412 -10h-11q-299 0 -341 172h65q43 -119 283 -119q139 0 207.5 34.5t68.5 117.5v9q0 67 -40.5 93.5t-152.5 32.5l-178 7q-124 6 -174.5 47.5t-50.5 124.5v5q0 105 77 150.5t221 45.5h16q288 0 323 -173h-64q-21 68 -88.5 94t-178.5 26
q-126 0 -185 -32.5t-59 -105.5v-3q0 -67 40.5 -93.5t152.5 -32.5l178 -7q124 -6 174.5 -47.5t50.5 -124.5v-9q0 -50 -17 -87.5t-45.5 -61t-72 -38t-91.5 -20t-108 -5.5z" />
    <glyph glyph-name="sacute" unicode="&#x15b;" horiz-adv-x="617" 
d="M453 700l-112 -120h-57l95 120h74zM314 -10h-8q-234 0 -257 141h61q24 -92 202 -92q101 0 149 24t49 87v6q0 47 -30 65t-106 22l-141 7q-98 5 -133 38q-36 34 -36 90v13q0 80 64 114q65 35 167 35h11q106 0 168.5 -32.5t79.5 -107.5h-61q-18 50 -63 70.5t-129 20.5
q-89 0 -133 -23.5t-44 -76.5v-5q0 -47 30 -65t106 -22l141 -6q92 -5 130 -37.5t38 -92.5v-12q0 -88 -68 -124.5t-187 -36.5z" />
    <glyph glyph-name="Scircumflex" unicode="&#x15c;" horiz-adv-x="802" 
d="M442 860l121 -120h-58l-110 99l-110 -99h-58l121 120h94zM412 -10h-11q-299 0 -341 172h65q43 -119 283 -119q139 0 207.5 34.5t68.5 117.5v9q0 67 -40.5 93.5t-152.5 32.5l-178 7q-124 6 -174.5 47.5t-50.5 124.5v5q0 105 77 150.5t221 45.5h16q288 0 323 -173h-64
q-21 68 -88.5 94t-178.5 26q-126 0 -185 -32.5t-59 -105.5v-3q0 -67 40.5 -93.5t152.5 -32.5l178 -7q124 -6 174.5 -47.5t50.5 -124.5v-9q0 -50 -17 -87.5t-45.5 -61t-72 -38t-91.5 -20t-108 -5.5z" />
    <glyph glyph-name="scircumflex" unicode="&#x15d;" horiz-adv-x="617" 
d="M348 700l121 -120h-58l-110 99l-110 -99h-58l121 120h94zM314 -10h-8q-234 0 -257 141h61q24 -92 202 -92q101 0 149 24t49 87v6q0 47 -30 65t-106 22l-141 7q-98 5 -133 38q-36 34 -36 90v13q0 80 64 114q65 35 167 35h11q106 0 168.5 -32.5t79.5 -107.5h-61
q-18 50 -63 70.5t-129 20.5q-89 0 -133 -23.5t-44 -76.5v-5q0 -47 30 -65t106 -22l141 -6q92 -5 130 -37.5t38 -92.5v-12q0 -88 -68 -124.5t-187 -36.5z" />
    <glyph glyph-name="Scedilla" unicode="&#x15e;" horiz-adv-x="802" 
d="M746 211v-9q0 -60 -23 -102t-68 -65t-98.5 -33t-125.5 -12l-43 -130h-58l48 130q-278 6 -318 172h65q43 -119 283 -119q139 0 207.5 34.5t68.5 117.5v9q0 67 -40.5 93.5t-152.5 32.5l-178 7q-124 6 -174.5 47.5t-50.5 124.5v5q0 105 77 150.5t221 45.5h16q288 0 323 -173
h-64q-21 68 -88.5 94t-178.5 26q-126 0 -185 -32.5t-59 -105.5v-3q0 -67 40.5 -93.5t152.5 -32.5l178 -7q124 -6 174.5 -47.5t50.5 -124.5z" />
    <glyph glyph-name="scedilla" unicode="&#x15f;" horiz-adv-x="617" 
d="M569 163v-12q0 -154 -228 -161l-43 -130h-58l48 130q-216 7 -239 141h61q24 -92 202 -92q101 0 149 24t49 87v6q0 47 -30 65t-106 22l-141 7q-98 5 -133 38q-36 34 -36 90v13q0 80 64 114q65 35 167 35h11q106 0 168.5 -32.5t79.5 -107.5h-61q-18 50 -63 70.5t-129 20.5
q-89 0 -133 -23.5t-44 -76.5v-5q0 -47 30 -65t106 -22l141 -6q92 -5 130 -37.5t38 -92.5z" />
    <glyph glyph-name="Scaron" unicode="&#x160;" horiz-adv-x="802" 
d="M395 761l110 99h58l-121 -120h-94l-121 120h58zM412 -10h-11q-299 0 -341 172h65q43 -119 283 -119q139 0 207.5 34.5t68.5 117.5v9q0 67 -40.5 93.5t-152.5 32.5l-178 7q-124 6 -174.5 47.5t-50.5 124.5v5q0 105 77 150.5t221 45.5h16q288 0 323 -173h-64
q-21 68 -88.5 94t-178.5 26q-126 0 -185 -32.5t-59 -105.5v-3q0 -67 40.5 -93.5t152.5 -32.5l178 -7q124 -6 174.5 -47.5t50.5 -124.5v-9q0 -50 -17 -87.5t-45.5 -61t-72 -38t-91.5 -20t-108 -5.5z" />
    <glyph glyph-name="scaron" unicode="&#x161;" horiz-adv-x="617" 
d="M301 601l110 99h58l-121 -120h-94l-121 120h58zM314 -10h-8q-234 0 -257 141h61q24 -92 202 -92q101 0 149 24t49 87v6q0 47 -30 65t-106 22l-141 7q-98 5 -133 38q-36 34 -36 90v13q0 80 64 114q65 35 167 35h11q106 0 168.5 -32.5t79.5 -107.5h-61q-18 50 -63 70.5
t-129 20.5q-89 0 -133 -23.5t-44 -76.5v-5q0 -47 30 -65t106 -22l141 -6q92 -5 130 -37.5t38 -92.5v-12q0 -88 -68 -124.5t-187 -36.5z" />
    <glyph glyph-name="Tcaron" unicode="&#x164;" horiz-adv-x="739" 
d="M369 761l110 99h58l-121 -120h-94l-121 120h58zM400 646v-646h-62v646h-315v54h693v-54h-316z" />
    <glyph glyph-name="tcaron" unicode="&#x165;" horiz-adv-x="439" 
d="M388 794l-44 -198h-48l33 198h59zM397 50v-50h-62q-98 0 -138 36.5t-40 134.5v309h-144v50h144v170h60v-170h180v-50h-180v-301q0 -80 29.5 -104.5t107.5 -24.5h43z" />
    <glyph glyph-name="Tbar" unicode="&#x166;" horiz-adv-x="739" 
d="M338 321h-232v49h232v276h-315v54h693v-54h-316v-276h233v-49h-233v-321h-62v321z" />
    <glyph glyph-name="tbar" unicode="&#x167;" horiz-adv-x="439" 
d="M157 279h-128v47h128v154h-144v50h144v170h60v-170h180v-50h-180v-154h167v-47h-167v-100q0 -80 29.5 -104.5t107.5 -24.5h43v-50h-62q-98 0 -138 36.5t-40 134.5v108z" />
    <glyph glyph-name="Utilde" unicode="&#x168;" horiz-adv-x="849" 
d="M498 756q-30 0 -79 24t-66 24q-38 0 -48 -45h-41q14 86 86 86q30 0 78.5 -24t65.5 -24q38 0 48 45h43q-14 -86 -87 -86zM467 -10h-86q-299 0 -299 263v447h63v-435q0 -110 57.5 -165.5t195.5 -55.5h52q138 0 195.5 55.5t57.5 165.5v435h63v-447q0 -263 -299 -263z" />
    <glyph glyph-name="utilde" unicode="&#x169;" horiz-adv-x="629" 
d="M384 596q-30 0 -79 24t-66 24q-38 0 -48 -45h-41q14 86 86 86q30 0 78.5 -24t65.5 -24q38 0 48 45h43q-14 -86 -87 -86zM66 193v337h60v-325q0 -92 46.5 -127.5t124.5 -35.5q197 0 197 186v302h60v-530h-60v91h-4q-48 -101 -205 -101q-219 0 -219 203z" />
    <glyph glyph-name="Umacron" unicode="&#x16a;" horiz-adv-x="849" 
d="M578 821v-42h-308v42h308zM467 -10h-86q-299 0 -299 263v447h63v-435q0 -110 57.5 -165.5t195.5 -55.5h52q138 0 195.5 55.5t57.5 165.5v435h63v-447q0 -263 -299 -263z" />
    <glyph glyph-name="umacron" unicode="&#x16b;" horiz-adv-x="629" 
d="M464 661v-42h-308v42h308zM66 193v337h60v-325q0 -92 46.5 -127.5t124.5 -35.5q197 0 197 186v302h60v-530h-60v91h-4q-48 -101 -205 -101q-219 0 -219 203z" />
    <glyph glyph-name="Ubreve" unicode="&#x16c;" horiz-adv-x="849" 
d="M424 734q-152 0 -155 126h47q0 -42 28 -64.5t80 -22.5t80 22.5t28 64.5h47q-3 -126 -155 -126zM467 -10h-86q-299 0 -299 263v447h63v-435q0 -110 57.5 -165.5t195.5 -55.5h52q138 0 195.5 55.5t57.5 165.5v435h63v-447q0 -263 -299 -263z" />
    <glyph glyph-name="ubreve" unicode="&#x16d;" horiz-adv-x="629" 
d="M310 574q-152 0 -155 126h47q0 -42 28 -64.5t80 -22.5t80 22.5t28 64.5h47q-3 -126 -155 -126zM66 193v337h60v-325q0 -92 46.5 -127.5t124.5 -35.5q197 0 197 186v302h60v-530h-60v91h-4q-48 -101 -205 -101q-219 0 -219 203z" />
    <glyph glyph-name="Uring" unicode="&#x16e;" horiz-adv-x="849" 
d="M424 732q-121 0 -121 98t121 98q120 0 120 -98t-120 -98zM424 768q77 0 77 62t-77 62q-78 0 -78 -62t78 -62zM467 -10h-86q-299 0 -299 263v447h63v-435q0 -110 57.5 -165.5t195.5 -55.5h52q138 0 195.5 55.5t57.5 165.5v435h63v-447q0 -263 -299 -263z" />
    <glyph glyph-name="uring" unicode="&#x16f;" horiz-adv-x="629" 
d="M310 572q-121 0 -121 98t121 98q120 0 120 -98t-120 -98zM310 608q77 0 77 62t-77 62q-78 0 -78 -62t78 -62zM66 193v337h60v-325q0 -92 46.5 -127.5t124.5 -35.5q197 0 197 186v302h60v-530h-60v91h-4q-48 -101 -205 -101q-219 0 -219 203z" />
    <glyph glyph-name="Uhungarumlaut" unicode="&#x170;" horiz-adv-x="849" 
d="M488 860l-113 -120h-56l95 120h74zM640 860l-112 -120h-57l96 120h73zM467 -10h-86q-299 0 -299 263v447h63v-435q0 -110 57.5 -165.5t195.5 -55.5h52q138 0 195.5 55.5t57.5 165.5v435h63v-447q0 -263 -299 -263z" />
    <glyph glyph-name="uhungarumlaut" unicode="&#x171;" horiz-adv-x="629" 
d="M375 700l-113 -120h-56l95 120h74zM527 700l-112 -120h-57l96 120h73zM66 193v337h60v-325q0 -92 46.5 -127.5t124.5 -35.5q197 0 197 186v302h60v-530h-60v91h-4q-48 -101 -205 -101q-219 0 -219 203z" />
    <glyph glyph-name="Uogonek" unicode="&#x172;" horiz-adv-x="849" 
d="M501 -99v-41h-53q-47 0 -68.5 14.5t-21.5 51.5q0 42 36 61v4h-20q-292 0 -292 262v447h63v-435q0 -110 57.5 -165.5t195.5 -55.5h52q138 0 195.5 55.5t57.5 165.5v435h63v-447q0 -118 -59.5 -181.5t-188.5 -81.5q-61 -10 -82 -22t-21 -34q0 -18 11 -25.5t42 -7.5h33z" />
    <glyph glyph-name="uogonek" unicode="&#x173;" horiz-adv-x="629" 
d="M66 193v337h60v-325q0 -92 46.5 -127.5t124.5 -35.5q197 0 197 186v302h60v-530q-56 -20 -71 -32t-15 -34q0 -18 11.5 -25.5t41.5 -7.5h33v-41h-49q-49 0 -71.5 15.5t-22.5 52.5q0 31 15.5 49t67.5 38v76h-4q-48 -101 -205 -101q-219 0 -219 203z" />
    <glyph glyph-name="Wcircumflex" unicode="&#x174;" horiz-adv-x="1200" 
d="M648 860l121 -120h-58l-110 99l-110 -99h-58l121 120h94zM1167 700l-221 -700h-89l-256 640l-256 -640h-95l-217 700h66l199 -648h4l259 648h81l258 -648h4l200 648h63z" />
    <glyph glyph-name="wcircumflex" unicode="&#x175;" horiz-adv-x="906" 
d="M501 700l121 -120h-58l-110 99l-110 -99h-58l121 120h94zM892 530l-171 -530h-84l-183 472l-181 -472h-90l-169 530h64l151 -480h4l183 480h78l183 -480h4l151 480h60z" />
    <glyph glyph-name="Ycircumflex" unicode="&#x176;" horiz-adv-x="803" 
d="M449 860l121 -120h-58l-110 99l-110 -99h-58l121 120h94zM433 318v-318h-63v318l-343 382h80l294 -329h5l295 329h75z" />
    <glyph glyph-name="ycircumflex" unicode="&#x177;" horiz-adv-x="579" 
d="M340 700l121 -120h-58l-110 99l-110 -99h-58l121 120h94zM577 530l-335 -700h-64l86 173l-259 527h65l224 -456h4l216 456h63z" />
    <glyph glyph-name="Ydieresis" unicode="&#x178;" horiz-adv-x="803" 
d="M278 835h55v-69h-55v69zM471 835h55v-69h-55v69zM433 318v-318h-63v318l-343 382h80l294 -329h5l295 329h75z" />
    <glyph glyph-name="Zacute" unicode="&#x179;" horiz-adv-x="808" 
d="M545 860l-112 -120h-57l95 120h74zM738 54v-54h-668v46l566 600h-549v54h637v-46l-566 -600h580z" />
    <glyph glyph-name="zacute" unicode="&#x17a;" horiz-adv-x="588" 
d="M436 700l-112 -120h-57l95 120h74zM542 50v-50h-493v41l401 439h-389v50h471v-41l-401 -439h411z" />
    <glyph glyph-name="Zdotaccent" unicode="&#x17b;" horiz-adv-x="808" 
d="M375 834h60v-69h-60v69zM738 54v-54h-668v46l566 600h-549v54h637v-46l-566 -600h580z" />
    <glyph glyph-name="zdotaccent" unicode="&#x17c;" horiz-adv-x="588" 
d="M266 674h60v-69h-60v69zM542 50v-50h-493v41l401 439h-389v50h471v-41l-401 -439h411z" />
    <glyph glyph-name="Zcaron" unicode="&#x17d;" horiz-adv-x="808" 
d="M405 761l110 99h58l-121 -120h-94l-121 120h58zM738 54v-54h-668v46l566 600h-549v54h637v-46l-566 -600h580z" />
    <glyph glyph-name="zcaron" unicode="&#x17e;" horiz-adv-x="588" 
d="M296 601l110 99h58l-121 -120h-94l-121 120h58zM542 50v-50h-493v41l401 439h-389v50h471v-41l-401 -439h411z" />
    <glyph glyph-name="florin" unicode="&#x192;" 
d="M359 328v-433h-60v433h-267v45h267v45q0 69 14.5 120t37.5 81.5t58.5 49t71.5 25t82 6.5h163v-53h-149q-110 0 -164 -50.5t-54 -182.5v-41h368v-45h-368z" />
    <glyph glyph-name="Aringacute" unicode="&#x1fa;" horiz-adv-x="855" 
d="M568 1080l-112 -120h-57l95 120h74zM428 732q-121 0 -121 98t121 98q120 0 120 -98t-120 -98zM428 768q77 0 77 62t-77 62q-78 0 -78 -62t78 -62zM475 700l353 -700h-70l-114 228h-433l-115 -228h-69l352 700h96zM430 657h-4l-189 -376h381z" />
    <glyph glyph-name="aringacute" unicode="&#x1fb;" horiz-adv-x="630" 
d="M462 920l-112 -120h-57l95 120h74zM321 571q-121 0 -121 98t121 98q120 0 120 -98t-120 -98zM321 607q77 0 77 62t-77 62q-78 0 -78 -62t78 -62zM565 340v-340h-60v97h-4q-48 -108 -229 -108q-223 0 -223 161v6q0 73 42.5 110.5t134.5 42.5l279 12v15q0 93 -45.5 124.5
t-143.5 31.5q-77 0 -121 -24.5t-61 -83.5h-60q36 156 236 156h18q120 0 178.5 -45t58.5 -155zM109 157v-5q0 -116 171 -116q108 0 166.5 46.5t58.5 132.5v60l-273 -12q-64 -2 -93.5 -27t-29.5 -79z" />
    <glyph glyph-name="AEacute" unicode="&#x1fc;" horiz-adv-x="1208" 
d="M706 860l-112 -120h-57l95 120h74zM1138 54v-54h-603v228h-299l-156 -228h-73l478 700h653v-54h-541v-269h541v-53h-541v-270h541zM535 648h-12l-250 -366h262v366z" />
    <glyph glyph-name="aeacute" unicode="&#x1fd;" horiz-adv-x="1102" 
d="M688 700l-112 -120h-57l95 120h74zM787 -10h-19q-93 0 -152 29.5t-85 99.5h-4q-50 -130 -249 -130q-225 0 -225 161v6q0 73 42.5 110.5t134.5 42.5l279 12v15q0 93 -45.5 124.5t-143.5 31.5q-77 0 -121 -24.5t-61 -83.5h-60q36 156 236 156h18q86 0 138.5 -22.5
t74.5 -77.5h4q52 100 219 100h19q129 0 194 -59.5t65 -195.5v-31h-477v-8q1 -64 15 -105.5t43 -63t64 -29.5t87 -8q81 0 128.5 19.5t69.5 80.5h62q-42 -150 -251 -150zM777 492q-49 0 -83 -7.5t-63.5 -27t-44.5 -59t-17 -98.5h417v6q0 98 -52 142t-157 44zM113 156v-5
q0 -115 173 -115q106 0 164.5 46.5t58.5 132.5v60l-273 -12q-63 -2 -93 -28t-30 -79z" />
    <glyph glyph-name="Oslashacute" unicode="&#x1fe;" horiz-adv-x="900" 
d="M590 860l-112 -120h-57l95 120h74zM142 -40h-69l89 101q-89 77 -89 243v92q0 159 81 236.5t260 77.5h73q130 0 208 -42l63 72h69l-89 -101q89 -77 89 -243v-92q0 -158 -81 -236t-259 -78h-73q-131 0 -209 42zM136 373v-47q0 -156 67 -218l452 514q-64 34 -181 34h-48
q-86 0 -143.5 -17.5t-89 -55.5t-44.5 -87.5t-13 -122.5zM426 44h48q86 0 143.5 17.5t89 55.5t44.5 87.5t13 121.5v47q0 157 -67 219l-452 -514q64 -34 181 -34z" />
    <glyph glyph-name="oslashacute" unicode="&#x1ff;" horiz-adv-x="661" 
d="M470 700l-112 -120h-57l95 120h74zM117 -40h-63l70 86q-70 64 -70 199v39q0 136 65.5 196t195.5 60h31q92 0 150 -29l46 58h63l-68 -85q70 -61 70 -200v-39q0 -135 -65.5 -195t-195.5 -60h-31q-92 0 -150 29zM113 275v-20q0 -114 47 -163l300 375q-46 21 -129 21
q-55 0 -91.5 -8t-67 -30.5t-45 -65.5t-14.5 -109zM331 42q54 0 90.5 8t67 30t45 65.5t14.5 109.5v20q0 115 -47 164l-301 -376q46 -21 131 -21z" />
    <glyph glyph-name="Scommaaccent" unicode="&#x218;" horiz-adv-x="802" 
d="M412 -10h-11q-299 0 -341 172h65q43 -119 283 -119q139 0 207.5 34.5t68.5 117.5v9q0 67 -40.5 93.5t-152.5 32.5l-178 7q-124 6 -174.5 47.5t-50.5 124.5v5q0 105 77 150.5t221 45.5h16q288 0 323 -173h-64q-21 68 -88.5 94t-178.5 26q-126 0 -185 -32.5t-59 -105.5v-3
q0 -67 40.5 -93.5t152.5 -32.5l178 -7q124 -6 174.5 -47.5t50.5 -124.5v-9q0 -50 -17 -87.5t-45.5 -61t-72 -38t-91.5 -20t-108 -5.5zM429 -148l-15 -22h-44l42 64v6h-55v46h99v-11q0 -38 -27 -83z" />
    <glyph glyph-name="scommaaccent" unicode="&#x219;" horiz-adv-x="617" 
d="M314 -10h-8q-234 0 -257 141h61q24 -92 202 -92q101 0 149 24t49 87v6q0 47 -30 65t-106 22l-141 7q-98 5 -133 38q-36 34 -36 90v13q0 80 64 114q65 35 167 35h11q106 0 168.5 -32.5t79.5 -107.5h-61q-18 50 -63 70.5t-129 20.5q-89 0 -133 -23.5t-44 -76.5v-5
q0 -47 30 -65t106 -22l141 -6q92 -5 130 -37.5t38 -92.5v-12q0 -88 -68 -124.5t-187 -36.5zM334 -148l-15 -22h-44l42 64v6h-55v46h99v-11q0 -38 -27 -83z" />
    <glyph glyph-name="Tcommaaccent" unicode="&#x21a;" horiz-adv-x="739" 
d="M400 646v-646h-62v646h-315v54h693v-54h-316zM392 -148l-15 -22h-44l42 64v6h-55v46h99v-11q0 -38 -27 -83z" />
    <glyph glyph-name="tcommaaccent" unicode="&#x21b;" horiz-adv-x="439" 
d="M397 50v-50h-62q-98 0 -138 36.5t-40 134.5v309h-144v50h144v170h60v-170h180v-50h-180v-301q0 -80 29.5 -104.5t107.5 -24.5h43zM321 -148l-15 -22h-44l42 64v6h-55v46h99v-11q0 -38 -27 -83z" />
    <glyph glyph-name="circumflex" unicode="&#x2c6;" horiz-adv-x="500" 
d="M297 700l121 -120h-58l-110 99l-110 -99h-58l121 120h94z" />
    <glyph glyph-name="caron" unicode="&#x2c7;" horiz-adv-x="500" 
d="M250 601l110 99h58l-121 -120h-94l-121 120h58z" />
    <glyph glyph-name="breve" unicode="&#x2d8;" horiz-adv-x="500" 
d="M250 574q-152 0 -155 126h47q0 -42 28 -64.5t80 -22.5t80 22.5t28 64.5h47q-3 -126 -155 -126z" />
    <glyph glyph-name="dotaccent" unicode="&#x2d9;" horiz-adv-x="500" 
d="M220 674h60v-69h-60v69z" />
    <glyph glyph-name="ring" unicode="&#x2da;" horiz-adv-x="500" 
d="M250 572q-121 0 -121 98t121 98q120 0 120 -98t-120 -98zM250 608q77 0 77 62t-77 62q-78 0 -78 -62t78 -62z" />
    <glyph glyph-name="ogonek" unicode="&#x2db;" horiz-adv-x="500" 
d="M307 -99v-41h-49q-49 0 -71.5 15.5t-22.5 52.5q0 38 26 59t117 48v-35q-56 -20 -71 -32t-15 -34q0 -18 11 -25.5t42 -7.5h33z" />
    <glyph glyph-name="tilde" unicode="&#x2dc;" horiz-adv-x="500" 
d="M324 596q-30 0 -79 24t-66 24q-38 0 -48 -45h-41q14 86 86 86q30 0 78.5 -24t65.5 -24q38 0 48 45h43q-14 -86 -87 -86z" />
    <glyph glyph-name="hungarumlaut" unicode="&#x2dd;" horiz-adv-x="500" 
d="M258 700l-113 -120h-56l95 120h74zM410 700l-112 -120h-57l96 120h73z" />
    <glyph glyph-name="commaaccent" unicode="&#x326;" horiz-adv-x="500" 
d="M278 -148l-15 -22h-44l42 64v6h-55v46h99v-11q0 -38 -27 -83z" />
    <glyph glyph-name="pi" unicode="&#x3c0;" horiz-adv-x="685" 
d="M664 51v-51h-28q-96 0 -133.5 41t-37.5 148v289h-276v-478h-59v478h-108v52h642v-52h-139v-290q0 -85 27.5 -111t93.5 -26h18z" />
    <glyph glyph-name="Wgrave" unicode="&#x1e80;" horiz-adv-x="1200" 
d="M535 860l95 -120h-56l-112 120h73zM1167 700l-221 -700h-89l-256 640l-256 -640h-95l-217 700h66l199 -648h4l259 648h81l258 -648h4l200 648h63z" />
    <glyph glyph-name="wgrave" unicode="&#x1e81;" horiz-adv-x="906" 
d="M388 700l95 -120h-56l-112 120h73zM892 530l-171 -530h-84l-183 472l-181 -472h-90l-169 530h64l151 -480h4l183 480h78l183 -480h4l151 480h60z" />
    <glyph glyph-name="Wacute" unicode="&#x1e82;" horiz-adv-x="1200" 
d="M742 860l-112 -120h-57l95 120h74zM1167 700l-221 -700h-89l-256 640l-256 -640h-95l-217 700h66l199 -648h4l259 648h81l258 -648h4l200 648h63z" />
    <glyph glyph-name="wacute" unicode="&#x1e83;" horiz-adv-x="906" 
d="M596 700l-112 -120h-57l95 120h74zM892 530l-171 -530h-84l-183 472l-181 -472h-90l-169 530h64l151 -480h4l183 480h78l183 -480h4l151 480h60z" />
    <glyph glyph-name="Wdieresis" unicode="&#x1e84;" horiz-adv-x="1200" 
d="M477 835h55v-69h-55v69zM670 835h55v-69h-55v69zM1167 700l-221 -700h-89l-256 640l-256 -640h-95l-217 700h66l199 -648h4l259 648h81l258 -648h4l200 648h63z" />
    <glyph glyph-name="wdieresis" unicode="&#x1e85;" horiz-adv-x="906" 
d="M330 674h55v-69h-55v69zM523 674h55v-69h-55v69zM892 530l-171 -530h-84l-183 472l-181 -472h-90l-169 530h64l151 -480h4l183 480h78l183 -480h4l151 480h60z" />
    <glyph glyph-name="Ygrave" unicode="&#x1ef2;" horiz-adv-x="803" 
d="M335 860l95 -120h-56l-112 120h73zM433 318v-318h-63v318l-343 382h80l294 -329h5l295 329h75z" />
    <glyph glyph-name="ygrave" unicode="&#x1ef3;" horiz-adv-x="579" 
d="M226 700l95 -120h-56l-112 120h73zM577 530l-335 -700h-64l86 173l-259 527h65l224 -456h4l216 456h63z" />
    <glyph glyph-name="endash" unicode="&#x2013;" horiz-adv-x="631" 
d="M613 271h-595v43h595v-43z" />
    <glyph glyph-name="emdash" unicode="&#x2014;" horiz-adv-x="946" 
d="M928 271h-910v43h910v-43z" />
    <glyph glyph-name="quoteleft" unicode="&#x2018;" horiz-adv-x="256" 
d="M123 679l13 21h48l-73 -134v-6h65v-95h-106v55q0 40 10 72.5t43 86.5z" />
    <glyph glyph-name="quoteright" unicode="&#x2019;" horiz-adv-x="256" 
d="M132 486l-13 -21h-48l73 134v6h-65v95h106v-55q0 -41 -10 -72.5t-43 -86.5z" />
    <glyph glyph-name="quotesinglbase" unicode="&#x201a;" horiz-adv-x="258" 
d="M132 -119l-13 -21h-48l73 134v6h-65v95h106v-55q0 -40 -10 -72.5t-43 -86.5z" />
    <glyph glyph-name="quotedblleft" unicode="&#x201c;" horiz-adv-x="436" 
d="M129 679l13 21h48l-73 -134v-6h65v-95h-106v55q0 40 10 72.5t43 86.5zM298 679l13 21h48l-73 -134v-6h65v-95h-106v55q0 40 10 72.5t43 86.5z" />
    <glyph glyph-name="quotedblright" unicode="&#x201d;" horiz-adv-x="436" 
d="M138 486l-13 -21h-48l73 134v6h-65v95h106v-55q0 -41 -10 -72.5t-43 -86.5zM307 486l-13 -21h-48l73 134v6h-65v95h106v-55q0 -41 -10 -72.5t-43 -86.5z" />
    <glyph glyph-name="quotedblbase" unicode="&#x201e;" horiz-adv-x="436" 
d="M138 -119l-13 -21h-48l73 134v6h-65v95h106v-55q0 -40 -10 -72.5t-43 -86.5zM307 -119l-13 -21h-48l73 134v6h-65v95h106v-55q0 -40 -10 -72.5t-43 -86.5z" />
    <glyph glyph-name="dagger" unicode="&#x2020;" horiz-adv-x="366" 
d="M159 489h-124v41h124v170h48v-170h124v-41h-124v-589h-48v589z" />
    <glyph glyph-name="daggerdbl" unicode="&#x2021;" horiz-adv-x="366" 
d="M207 70v-170h-48v170h-124v41h124v378h-124v41h124v170h48v-170h124v-41h-124v-378h124v-41h-124z" />
    <glyph glyph-name="bullet" unicode="&#x2022;" horiz-adv-x="463" 
d="M232 193q-68 0 -114.5 43.5t-46.5 112.5t47 113t114 44q66 0 113 -44t47 -113t-47 -112.5t-113 -43.5z" />
    <glyph glyph-name="ellipsis" unicode="&#x2026;" horiz-adv-x="776" 
d="M178 0h-97v95h97v-95zM437 0h-97v95h97v-95zM696 0h-97v95h97v-95z" />
    <glyph glyph-name="perthousand" unicode="&#x2030;" horiz-adv-x="1191" 
d="M228 356h-11q-90 0 -133.5 41.5t-43.5 129.5v12q0 88 43.5 129.5t133.5 41.5h11q90 0 133.5 -41.5t43.5 -129.5v-12q0 -88 -43.5 -129.5t-133.5 -41.5zM664 700l-397 -700h-52l398 700h51zM222 403q69 0 99 28.5t30 96.5v10q0 67 -30.5 96t-98.5 29t-98.5 -29t-30.5 -96
v-10q0 -68 30 -96.5t99 -28.5zM975 -10h-11q-117 0 -149 71h-4q-30 -71 -149 -71h-10q-90 0 -134 41.5t-44 129.5v12q0 171 178 171h10q119 0 149 -72h4q31 72 149 72h11q92 0 134.5 -41.5t42.5 -129.5v-12q0 -88 -43.5 -129.5t-133.5 -41.5zM657 36q68 0 99 29.5t31 96.5
v10q0 66 -31.5 95.5t-98.5 29.5t-98 -29.5t-31 -95.5v-10q0 -67 30.5 -96.5t98.5 -29.5zM969 36q68 0 98.5 29.5t30.5 96.5v10q0 66 -31 95.5t-98 29.5t-98 -29.5t-31 -95.5v-10q0 -67 30.5 -96.5t98.5 -29.5z" />
    <glyph glyph-name="guilsinglleft" unicode="&#x2039;" horiz-adv-x="220" 
d="M43 289v6l84 219h49l-85 -222l85 -222h-49z" />
    <glyph glyph-name="guilsinglright" unicode="&#x203a;" horiz-adv-x="220" 
d="M177 295v-6l-84 -219h-49l85 222l-85 222h49z" />
    <glyph glyph-name="fraction" unicode="&#x2044;" horiz-adv-x="166" 
d="M307 700l-397 -700h-52l398 700h51z" />
    <glyph glyph-name="zerosuperior" unicode="&#x2070;" horiz-adv-x="448" 
d="M230 374h-11q-41 0 -70 7t-56.5 26t-41.5 58.5t-14 99.5v50q0 60 14 99.5t41.5 58.5t56.5 26t70 7h11q41 0 70 -7t56.5 -26t41.5 -58.5t14 -99.5v-50q0 -60 -14 -99.5t-41.5 -58.5t-56.5 -26t-70 -7zM224 421q33 0 53.5 4.5t39.5 18.5t28 44t9 78v48q0 48 -9 78t-28 44
t-39.5 18.5t-53.5 4.5q-66 0 -98 -27.5t-32 -117.5v-48q0 -90 32 -117.5t98 -27.5z" />
    <glyph glyph-name="foursuperior" unicode="&#x2074;" horiz-adv-x="448" 
d="M359 490v-110h-57v110h-269v73l238 237h88v-264h70v-46h-70zM82 541v-5h220v223h-5z" />
    <glyph glyph-name="fivesuperior" unicode="&#x2075;" horiz-adv-x="448" 
d="M240 374h-15q-164 0 -181 119h58q9 -41 40 -56.5t89 -15.5q127 0 127 91v10q0 91 -128 91q-50 0 -78.5 -11t-45.5 -38h-54l22 236h321v-47h-269l-14 -133h4q34 39 131 39q169 0 169 -137v-8q0 -70 -46 -105t-130 -35z" />
    <glyph glyph-name="sixsuperior" unicode="&#x2076;" horiz-adv-x="448" 
d="M236 374h-14q-92 0 -138.5 37.5t-46.5 145.5v58q0 109 44 150t138 41h11q81 0 122.5 -25t54.5 -82h-59q-10 33 -38.5 46.5t-83.5 13.5q-73 0 -102.5 -28.5t-29.5 -112.5v-25h4q16 27 46.5 40.5t95.5 13.5q90 0 131 -31.5t41 -98.5v-7q0 -136 -176 -136zM226 420
q68 0 98 21t30 67v9q0 45 -29.5 65.5t-98.5 20.5q-68 0 -98 -20.5t-30 -65.5v-9q0 -46 29.5 -67t98.5 -21z" />
    <glyph glyph-name="sevensuperior" unicode="&#x2077;" horiz-adv-x="448" 
d="M418 755l-242 -375h-70l244 369v4h-321v47h389v-45z" />
    <glyph glyph-name="eightsuperior" unicode="&#x2078;" horiz-adv-x="448" 
d="M233 374h-18q-84 0 -131 27.5t-47 97.5v7q1 80 72 97v4q-62 15 -62 84v5q0 60 43.5 85t129.5 25h8q86 0 129.5 -25t44.5 -85v-5q0 -69 -62 -84v-4q71 -17 72 -97v-7q0 -70 -47 -97.5t-132 -27.5zM188 622h74q82 0 82 62v5q0 39 -28 54.5t-92 15.5t-91.5 -15.5
t-27.5 -54.5v-5q0 -62 83 -62zM224 420q70 0 100.5 17.5t30.5 61.5v8q0 72 -93 72h-75q-93 0 -93 -72v-8q0 -44 30 -61.5t100 -17.5z" />
    <glyph glyph-name="ninesuperior" unicode="&#x2079;" horiz-adv-x="448" 
d="M212 805h14q92 0 138.5 -37.5t46.5 -145.5v-58q0 -109 -44 -150t-138 -41h-11q-81 0 -122.5 25t-54.5 82h59q10 -33 38.5 -46.5t83.5 -13.5q73 0 102.5 28.5t29.5 112.5v25h-4q-15 -28 -46 -41t-96 -13q-90 0 -131 31.5t-41 98.5v7q0 136 176 136zM222 759q-68 0 -98 -21
t-30 -67v-9q0 -45 29.5 -65.5t98.5 -20.5q68 0 98 20.5t30 65.5v9q0 46 -29.5 67t-98.5 21z" />
    <glyph glyph-name="plussuperior" unicode="&#x207a;" horiz-adv-x="359" 
d="M160 569h-124v40h124v130h39v-130h125v-40h-125v-131h-39v131z" />
    <glyph glyph-name="minussuperior" unicode="&#x207b;" horiz-adv-x="358" 
d="M299 569h-240v40h240v-40z" />
    <glyph glyph-name="equalsuperior" unicode="&#x207c;" horiz-adv-x="359" 
d="M311 639h-264v40h264v-40zM311 497h-264v42h264v-42z" />
    <glyph glyph-name="parenleftsuperior" unicode="&#x207d;" horiz-adv-x="231" 
d="M194 392v-39q-139 24 -139 223v28q0 199 139 223v-39q-96 -21 -96 -188v-20q0 -167 96 -188z" />
    <glyph glyph-name="parenrightsuperior" unicode="&#x207e;" horiz-adv-x="231" 
d="M34 788v39q139 -24 139 -223v-28q0 -199 -139 -223v39q96 21 96 188v20q0 167 -96 188z" />
    <glyph glyph-name="zeroinferior" unicode="&#x2080;" horiz-adv-x="448" 
d="M230 -106h-11q-41 0 -70 7t-56.5 26t-41.5 58.5t-14 99.5v50q0 60 14 99.5t41.5 58.5t56.5 26t70 7h11q41 0 70 -7t56.5 -26t41.5 -58.5t14 -99.5v-50q0 -60 -14 -99.5t-41.5 -58.5t-56.5 -26t-70 -7zM224 -59q33 0 53.5 4.5t39.5 18.5t28 44t9 78v48q0 48 -9 78t-28 44
t-39.5 18.5t-53.5 4.5q-66 0 -98 -27.5t-32 -117.5v-48q0 -90 32 -117.5t98 -27.5z" />
    <glyph glyph-name="oneinferior" unicode="&#x2081;" horiz-adv-x="314" 
d="M235 320v-420h-57v375h-4l-153 -85v60l134 70h80z" />
    <glyph glyph-name="twoinferior" unicode="&#x2082;" horiz-adv-x="448" 
d="M413 -53v-47h-376v58q0 79 26.5 111t105.5 45l106 17q46 7 63 23t17 51v4q0 36 -29 53t-92 17q-58 0 -89 -15t-39 -58h-58q15 120 179 120h9q177 0 177 -113v-10q0 -50 -25 -77.5t-90 -38.5l-114 -18q-54 -9 -72 -27.5t-18 -71.5v-23h319z" />
    <glyph glyph-name="threeinferior" unicode="&#x2083;" horiz-adv-x="448" 
d="M237 -106h-15q-162 0 -182 123h57q11 -45 43 -60.5t88 -15.5q65 0 95.5 19t30.5 61v7q0 34 -19 50.5t-67 16.5h-117v46h114q43 0 60.5 15.5t17.5 46.5v6q0 37 -28 53.5t-88 16.5q-52 0 -80.5 -15t-37.5 -57h-58q11 65 53.5 92t115.5 27h10q172 0 172 -107v-6
q0 -73 -61 -85v-4q72 -12 72 -95v-8q0 -127 -176 -127z" />
    <glyph glyph-name="fourinferior" unicode="&#x2084;" horiz-adv-x="448" 
d="M359 10v-110h-57v110h-269v73l238 237h88v-264h70v-46h-70zM82 61v-5h220v223h-5z" />
    <glyph glyph-name="fiveinferior" unicode="&#x2085;" horiz-adv-x="448" 
d="M240 -106h-15q-164 0 -181 119h58q9 -41 40 -56.5t89 -15.5q127 0 127 91v10q0 91 -128 91q-50 0 -78.5 -11t-45.5 -38h-54l22 236h321v-47h-269l-14 -133h4q34 39 131 39q169 0 169 -137v-8q0 -70 -46 -105t-130 -35z" />
    <glyph glyph-name="sixinferior" unicode="&#x2086;" horiz-adv-x="448" 
d="M236 -106h-14q-92 0 -138.5 37.5t-46.5 145.5v58q0 109 44 150t138 41h11q81 0 122.5 -25t54.5 -82h-59q-10 33 -38.5 46.5t-83.5 13.5q-73 0 -102.5 -28.5t-29.5 -112.5v-25h4q16 27 46.5 40.5t95.5 13.5q90 0 131 -31.5t41 -98.5v-7q0 -136 -176 -136zM226 -60
q68 0 98 21t30 67v9q0 45 -29.5 65.5t-98.5 20.5q-68 0 -98 -20.5t-30 -65.5v-9q0 -46 29.5 -67t98.5 -21z" />
    <glyph glyph-name="seveninferior" unicode="&#x2087;" horiz-adv-x="448" 
d="M418 275l-242 -375h-70l244 369v4h-321v47h389v-45z" />
    <glyph glyph-name="eightinferior" unicode="&#x2088;" horiz-adv-x="448" 
d="M233 -106h-18q-84 0 -131 27.5t-47 97.5v7q1 80 72 97v4q-62 15 -62 84v5q0 60 43.5 85t129.5 25h8q86 0 129.5 -25t44.5 -85v-5q0 -69 -62 -84v-4q71 -17 72 -97v-7q0 -70 -47 -97.5t-132 -27.5zM188 142h74q82 0 82 62v5q0 39 -28 54.5t-92 15.5t-91.5 -15.5
t-27.5 -54.5v-5q0 -62 83 -62zM224 -60q70 0 100.5 17.5t30.5 61.5v8q0 72 -93 72h-75q-93 0 -93 -72v-8q0 -44 30 -61.5t100 -17.5z" />
    <glyph glyph-name="nineinferior" unicode="&#x2089;" horiz-adv-x="448" 
d="M212 325h14q92 0 138.5 -37.5t46.5 -145.5v-58q0 -109 -44 -150t-138 -41h-11q-81 0 -122.5 25t-54.5 82h59q10 -33 38.5 -46.5t83.5 -13.5q73 0 102.5 28.5t29.5 112.5v25h-4q-15 -28 -46 -41t-96 -13q-90 0 -131 31.5t-41 98.5v7q0 136 176 136zM222 279q-68 0 -98 -21
t-30 -67v-9q0 -45 29.5 -65.5t98.5 -20.5q68 0 98 20.5t30 65.5v9q0 46 -29.5 67t-98.5 21z" />
    <glyph glyph-name="plusinferior" unicode="&#x208a;" horiz-adv-x="359" 
d="M160 129v130h39v-130h125v-40h-125v-131h-39v131h-124v40h124z" />
    <glyph glyph-name="minusinferior" unicode="&#x208b;" horiz-adv-x="358" 
d="M299 89h-240v40h240v-40z" />
    <glyph glyph-name="equalinferior" unicode="&#x208c;" horiz-adv-x="359" 
d="M311 159h-264v40h264v-40zM311 17h-264v42h264v-42z" />
    <glyph glyph-name="parenleftinferior" unicode="&#x208d;" horiz-adv-x="231" 
d="M194 -88v-39q-139 24 -139 223v28q0 199 139 223v-39q-96 -21 -96 -188v-20q0 -167 96 -188z" />
    <glyph glyph-name="parenrightinferior" unicode="&#x208e;" horiz-adv-x="231" 
d="M34 308v39q139 -24 139 -223v-28q0 -199 -139 -223v39q96 21 96 188v20q0 167 -96 188z" />
    <glyph glyph-name="Euro" unicode="&#x20ac;" 
d="M429 -10h-21q-45 0 -80.5 5t-76 21.5t-68.5 45t-49.5 79t-26.5 119.5h-98v44h96v10v72v10h-96v44h98q5 69 26.5 119.5t49.5 79t68.5 45t76 21.5t80.5 5h21q118 0 192 -39.5t101 -133.5h-63q-24 62 -79.5 91t-160.5 29q-52 0 -89.5 -7.5t-75 -29t-59 -66.5t-27.5 -114h448
v-44h-450v-8v-77v-7h450v-44h-448q6 -68 27.5 -113t58 -66.5t74.5 -29.5t91 -8q105 0 160.5 29t79.5 91h63q-27 -95 -100.5 -134t-192.5 -39z" />
    <glyph glyph-name="litre" unicode="&#x2113;" horiz-adv-x="402" 
d="M238 -15q-134 0 -134 176v26q-31 -19 -58 -35l-19 38q14 8 40 24t37 22v259q0 105 30.5 160t100.5 55q127 0 127 -173q0 -97 -44 -167.5t-160 -148.5v-67q0 -66 25 -94t62 -28q44 0 80 38l21 -36q-46 -49 -108 -49zM158 504v-231q92 65 122.5 121t30.5 142q0 128 -74 128
q-39 0 -59 -36t-20 -124z" />
    <glyph glyph-name="numero" unicode="&#x2116;" horiz-adv-x="1405" 
d="M1155 272h-24q-102 0 -155 45t-53 153v40q0 108 53 153t155 45h24q102 0 155 -45t53 -153v-40q0 -108 -53 -153t-155 -45zM794 700v-700h-103l-532 646h-5v-646h-62v700h103l532 -647h5v647h62zM1143 320q38 0 63.5 5t50 20.5t36.5 48t12 82.5v27q0 94 -42 125.5
t-120 31.5q-79 0 -121.5 -31.5t-42.5 -125.5v-27q0 -50 12.5 -82.5t37 -48t50.5 -20.5t64 -5z" />
    <glyph glyph-name="published" unicode="&#x2117;" horiz-adv-x="868" 
d="M483 -10h-98q-185 0 -270.5 80t-85.5 235v90q0 155 85.5 235t270.5 80h98q185 0 270.5 -80t85.5 -235v-90q0 -155 -85.5 -235t-270.5 -80zM400 25h68q99 0 165 20t102 61t50.5 94t14.5 129v42q0 76 -14.5 129t-50.5 94t-102 61t-165 20h-68q-98 0 -164 -20t-102 -61
t-50.5 -94t-14.5 -129v-42q0 -76 14.5 -129t50.5 -94t102 -61t164 -20zM309 308v-168h-55v420h267q76 0 110 -26.5t34 -89.5v-23q0 -113 -144 -113h-212zM508 515h-199v-163h199q58 0 79.5 18t21.5 61v7q0 42 -21.5 59.5t-79.5 17.5z" />
    <glyph glyph-name="trademark" unicode="&#x2122;" horiz-adv-x="968" 
d="M229 654v-304h-54v304h-154v46h362v-46h-154zM932 700v-350h-53v308h-4l-158 -308h-60l-156 308h-4v-308h-53v350h94l149 -297h5l152 297h88z" />
    <glyph glyph-name="Omega" unicode="&#x2126;" horiz-adv-x="904" 
d="M835 53v-53h-322v90q144 6 199 69.5t55 202.5v20q0 69 -13 117t-45 85t-89.5 54.5t-143.5 17.5h-48q-86 0 -143.5 -17.5t-89.5 -54.5t-45 -85t-13 -117v-20q0 -139 54.5 -202.5t199.5 -69.5v-90h-322v53h236v5q-124 14 -177.5 85.5t-53.5 200.5v62q0 150 82.5 227
t258.5 77h73q177 0 259.5 -77t82.5 -227v-62q0 -129 -53.5 -200.5t-177.5 -85.5v-5h236z" />
    <glyph glyph-name="estimated" unicode="&#x212e;" horiz-adv-x="834" 
d="M427 -15q-163 0 -278.5 107.5t-115.5 258.5t115 257.5t279 106.5t279.5 -106.5t115.5 -257.5q0 -15 -1 -15h-632v-221q97 -90 238 -90q101 0 185.5 46.5t128.5 121.5h42q-47 -93 -144 -150.5t-212 -57.5zM189 590v-214h468v221q-91 78 -230 78q-74 0 -136.5 -23.5
t-101.5 -61.5z" />
    <glyph glyph-name="arrowleft" unicode="&#x2190;" horiz-adv-x="897" 
d="M113 374h748v-49h-748v-6l321 -320h-72l-346 348v5l346 347h72l-321 -319v-6z" />
    <glyph glyph-name="arrowup" unicode="&#x2191;" horiz-adv-x="896" 
d="M483 675v-749h-49v749h-6l-320 -321v72l348 346h5l347 -346v-72l-319 321h-6z" />
    <glyph glyph-name="arrowright" unicode="&#x2192;" horiz-adv-x="897" 
d="M784 325h-748v49h748v6l-321 320h72l346 -348v-5l-346 -347h-72l321 319v6z" />
    <glyph glyph-name="arrowdown" unicode="&#x2193;" horiz-adv-x="897" 
d="M433 772h49v-749h6l319 321v-72l-347 -346h-5l-348 346v72l320 -321h6v749z" />
    <glyph glyph-name="arrowupleft" unicode="&#x2196;" horiz-adv-x="896" 
d="M242 647l529 -530l-35 -34l-529 528l-4 -4l1 -453l-50 51v491l4 4h490l51 -50l-453 1z" />
    <glyph glyph-name="arrowupright" unicode="&#x2197;" horiz-adv-x="897" 
d="M161 83l-35 34l529 530l-4 4l-453 -1l51 50h490l4 -4v-491l-50 -51l1 453l-4 4z" />
    <glyph glyph-name="arrowdownright" unicode="&#x2198;" horiz-adv-x="897" 
d="M655 53l-529 530l35 34l529 -528l4 4l-1 453l50 -51v-491l-4 -4h-490l-51 50l453 -1z" />
    <glyph glyph-name="arrowdownleft" unicode="&#x2199;" horiz-adv-x="897" 
d="M736 617l35 -34l-529 -530l4 -4l453 1l-51 -50h-490l-4 4v491l50 51l-1 -453l4 -4z" />
    <glyph glyph-name="partialdiff" unicode="&#x2202;" horiz-adv-x="696" 
d="M360 -10h-23q-268 0 -268 217v19q0 117 70.5 166.5t200.5 49.5q108 0 161 -24t72 -73h5v70q0 76 -19 125t-58.5 74t-86 34t-116.5 9q-109 0 -181 -30v58q67 25 179 25h9q81 0 137.5 -12t103 -43t69.5 -89.5t23 -145.5v-143q0 -73 -15.5 -126t-40.5 -83.5t-63 -48.5
t-74.5 -23.5t-84.5 -5.5zM351 42q112 0 166.5 39t54.5 125v23q0 86 -55 124.5t-166 38.5q-113 0 -167.5 -38.5t-54.5 -124.5v-23q0 -86 55 -125t167 -39z" />
    <glyph glyph-name="increment" unicode="&#x2206;" horiz-adv-x="855" 
d="M475 700l353 -700h-801l352 700h96zM430 657h-4l-303 -602h609z" />
    <glyph glyph-name="product" unicode="&#x220f;" horiz-adv-x="824" 
d="M731 700v-871h-62v817h-514v-817h-62v871h638z" />
    <glyph glyph-name="summation" unicode="&#x2211;" horiz-adv-x="743" 
d="M683 -116v-54h-599v55l371 369v7l-370 383v56h598v-54h-515v-4l347 -360v-48l-346 -346v-4h514z" />
    <glyph glyph-name="minus" unicode="&#x2212;" horiz-adv-x="600" 
d="M490 306h-380v47h380v-47z" />
    <glyph glyph-name="radical" unicode="&#x221a;" horiz-adv-x="484" 
d="M477 803l-196 -906h-51l-141 441l-58 -16l-11 49l107 30l123 -402h4l171 804h52z" />
    <glyph glyph-name="infinity" unicode="&#x221e;" horiz-adv-x="775" 
d="M574 153q-61 0 -102.5 35t-84.5 100q-43 -66 -83.5 -100.5t-101.5 -34.5q-77 0 -123 51.5t-46 124.5t46 124.5t123 51.5q61 0 101.5 -34.5t83.5 -100.5q43 65 84.5 100t102.5 35q77 0 122.5 -51.5t45.5 -124.5t-45.5 -124.5t-122.5 -51.5zM79 329q0 -57 35.5 -94
t88.5 -37q48 0 84 34t74 97q-38 63 -74 97t-84 34q-53 0 -88.5 -37t-35.5 -94zM572 198q54 0 88.5 37t34.5 94t-34.5 94t-88.5 37q-49 0 -85.5 -34.5t-73.5 -96.5q37 -62 73.5 -96.5t85.5 -34.5z" />
    <glyph glyph-name="integral" unicode="&#x222b;" horiz-adv-x="441" 
d="M62 -170h-31v49h26q72 0 101 25.5t29 110.5v548q0 106 40.5 146.5t140.5 40.5h32v-49h-27q-72 0 -101 -26t-29 -110v-548q0 -106 -40.5 -146.5t-140.5 -40.5z" />
    <glyph glyph-name="approxequal" unicode="&#x2248;" horiz-adv-x="600" 
d="M403 378q-45 0 -106 33t-101 33q-67 0 -106 -61v54q15 21 43 37.5t64 16.5q45 0 106 -33t101 -33q32 0 60.5 17.5t45.5 43.5v-54q-15 -21 -43 -37.5t-64 -16.5zM403 168q-45 0 -106 33t-101 33q-67 0 -106 -61v54q15 21 43 37.5t64 16.5q45 0 106 -33t101 -33
q32 0 60.5 17.5t45.5 43.5v-54q-15 -21 -43 -37.5t-64 -16.5z" />
    <glyph glyph-name="notequal" unicode="&#x2260;" horiz-adv-x="600" 
d="M268 192l-78 -192h-48l78 192h-130v47h149l74 180h-223v47h242l78 192h48l-78 -192h130v-47h-149l-74 -180h223v-47h-242z" />
    <glyph glyph-name="lessequal" unicode="&#x2264;" horiz-adv-x="600" 
d="M530 258v-50l-457 175v43l457 175v-49l-381 -146v-2zM530 68h-460v47h460v-47z" />
    <glyph glyph-name="greaterequal" unicode="&#x2265;" horiz-adv-x="600" 
d="M527 383l-457 -175v50l381 146v2l-381 146v49l457 -175v-43zM530 115v-47h-460v47h460z" />
    <glyph glyph-name="lozenge" unicode="&#x25ca;" horiz-adv-x="483" 
d="M271 678l183 -349l-183 -349h-60l-183 349l183 349h60zM241 24l161 305l-161 305l-160 -305z" />
    <glyph glyph-name="germandbls.cap" horiz-adv-x="1605" 
d="M412 -10h-11q-299 0 -341 172h65q43 -119 283 -119q139 0 207.5 34.5t68.5 117.5v9q0 67 -40.5 93.5t-152.5 32.5l-178 7q-124 6 -174.5 47.5t-50.5 124.5v5q0 105 77 150.5t221 45.5h16q288 0 323 -173h-64q-21 68 -88.5 94t-178.5 26q-126 0 -185 -32.5t-59 -105.5v-3
q0 -67 40.5 -93.5t152.5 -32.5l178 -7q124 -6 174.5 -47.5t50.5 -124.5v-9q0 -50 -17 -87.5t-45.5 -61t-72 -38t-91.5 -20t-108 -5.5zM1214 -10h-11q-299 0 -341 172h65q43 -119 283 -119q139 0 207.5 34.5t68.5 117.5v9q0 67 -40.5 93.5t-152.5 32.5l-178 7
q-124 6 -174.5 47.5t-50.5 124.5v5q0 105 77 150.5t221 45.5h16q288 0 323 -173h-64q-21 68 -88.5 94t-178.5 26q-126 0 -185 -32.5t-59 -105.5v-3q0 -67 40.5 -93.5t152.5 -32.5l178 -7q124 -6 174.5 -47.5t50.5 -124.5v-9q0 -50 -17 -87.5t-45.5 -61t-72 -38t-91.5 -20
t-108 -5.5z" />
    <glyph glyph-name="i.TRK" horiz-adv-x="212" 
d="M76 700h59v-69h-59v69zM76 530h59v-530h-59v530z" />
    <glyph glyph-name="a.superior" horiz-adv-x="504" 
d="M453 548v-268h-56v74h-4q-16 -33 -55 -58q-40 -25 -123 -25q-85 0 -131 33t-46 96v4q0 116 143 122l215 10v11q0 69 -34.5 92.5t-108.5 23.5q-58 0 -91.5 -18t-47.5 -62h-58q32 125 191 125h15q98 0 144.5 -35.5t46.5 -124.5zM96 405v-4q0 -86 129 -86q80 0 125.5 35
t45.5 101v44l-207 -10q-48 -2 -70.5 -21t-22.5 -59z" />
    <glyph glyph-name="b.superior" horiz-adv-x="546" 
d="M115 280h-58v554h58v-205h4q34 79 165 79h16q97 0 150 -45t53 -152v-43q0 -106 -53 -151t-150 -45h-16q-131 0 -165 79h-4v-71zM281 320q39 0 65 5t51 20.5t37.5 48t12.5 82.5v28q0 49 -12.5 81.5t-37.5 48t-51.5 21t-64.5 5.5t-64.5 -5.5t-51.5 -21t-37.5 -48
t-12.5 -81.5v-28q0 -50 12.5 -82.5t37.5 -48t51 -20.5t65 -5z" />
    <glyph glyph-name="c.superior" horiz-adv-x="498" 
d="M267 272h-17q-103 0 -155 47.5t-52 155.5v30q0 108 52 155.5t155 47.5h17q167 0 197 -126h-58q-15 45 -51.5 61.5t-95.5 16.5q-81 0 -120.5 -33.5t-39.5 -128.5v-16q0 -96 39 -129t121 -33q59 0 95.5 16.5t51.5 61.5h58q-30 -126 -197 -126z" />
    <glyph glyph-name="d.superior" horiz-adv-x="546" 
d="M489 834v-554h-58v71h-4q-34 -79 -165 -79h-16q-97 0 -150 45t-53 151v43q0 107 53 152t150 45h16q131 0 165 -79h4v205h58zM265 320q39 0 65 5t51 20.5t37.5 48t12.5 82.5v28q0 49 -12.5 81.5t-37.5 48t-51.5 21t-64.5 5.5t-64.5 -5.5t-51.5 -21t-37.5 -48t-12.5 -81.5
v-28q0 -50 12.5 -82.5t37.5 -48t51 -20.5t65 -5z" />
    <glyph glyph-name="e.superior" horiz-adv-x="517" 
d="M412 401h57q-15 -70 -66 -99.5t-137 -29.5h-15q-102 0 -155 45t-53 153v40q0 108 53 153t155 45h15q102 0 155.5 -45t53.5 -152v-32h-376v-5q0 -50 12 -82.5t36 -48t49 -20.5t63 -5q63 0 100.5 16t52.5 67zM258 664q-36 0 -60.5 -5t-48 -19t-36 -44t-14.5 -76h318v7
q0 76 -41 106.5t-118 30.5z" />
    <glyph glyph-name="f.superior" horiz-adv-x="356" 
d="M124 653h-114v47h114q3 75 38.5 104.5t114.5 29.5h63v-45h-55q-56 0 -80.5 -17.5t-24.5 -71.5h160v-47h-160v-373h-56v373z" />
    <glyph glyph-name="g.superior" horiz-adv-x="537" 
d="M277 145h-23q-70 0 -124 21q-54 22 -76 86h60q19 -36 54.5 -49t97.5 -13q74 0 114 25q41 26 41 102v62h-3q-32 -74 -160 -74h-8q-99 0 -149 43t-50 148v21q0 105 50 148t149 43h8q128 0 160 -74h3v66h58v-390q0 -89 -51 -127t-151 -38zM265 352q38 0 62.5 5t48 19.5
t34.5 45t11 78.5v12q0 48 -11 79t-34 45.5t-48 19.5t-63 5t-63 -5t-48.5 -19.5t-34.5 -45.5t-11 -79v-12q0 -90 39.5 -119t117.5 -29z" />
    <glyph glyph-name="h.superior" horiz-adv-x="504" 
d="M453 547v-267h-57v255q0 70 -35.5 97.5t-95.5 27.5q-150 0 -150 -143v-237h-57v554h57v-206h4q37 80 160 80q174 0 174 -161z" />
    <glyph glyph-name="i.superior" horiz-adv-x="173" 
d="M58 834h57v-58h-57v58zM58 700h57v-420h-57v420z" />
    <glyph glyph-name="j.superior" horiz-adv-x="173" 
d="M58 834h57v-58h-57v58zM58 700h57v-353q0 -74 -13 -112t-53 -90h-64q45 55 59 92t14 101v362z" />
    <glyph glyph-name="k.superior" horiz-adv-x="486" 
d="M115 413v-133h-57v554h57v-355h4l271 221h76l-214 -175l227 -245h-75l-192 208h-4z" />
    <glyph glyph-name="l.superior" horiz-adv-x="173" 
d="M115 834v-554h-57v554h57z" />
    <glyph glyph-name="m.superior" horiz-adv-x="803" 
d="M752 548v-268h-56v255q0 70 -33 97.5t-89 27.5q-140 0 -140 -144v-236h-57v255q0 70 -33 97.5t-89 27.5q-140 0 -140 -144v-236h-57v420h57v-71h4q35 79 148 79q125 0 156 -88h4q34 88 159 88q73 0 120 -35q46 -34 46 -125z" />
    <glyph glyph-name="n.superior" horiz-adv-x="504" 
d="M453 547v-267h-57v255q0 70 -35.5 97.5t-95.5 27.5q-150 0 -150 -143v-237h-57v420h57v-72h4q37 80 160 80q174 0 174 -161z" />
    <glyph glyph-name="o.superior" horiz-adv-x="528" 
d="M276 272h-24q-102 0 -155.5 45t-53.5 153v40q0 108 53.5 153t155.5 45h24q102 0 155.5 -45t53.5 -153v-40q0 -108 -53.5 -153t-155.5 -45zM264 320q38 0 64 5t50.5 20.5t36.5 48t12 82.5v27q0 50 -12 82.5t-36.5 48t-50.5 21t-64 5.5t-64.5 -5.5t-51 -21t-37 -48
t-12.5 -82.5v-27q0 -50 12.5 -82.5t37 -48t50.5 -20.5t65 -5z" />
    <glyph glyph-name="p.superior" horiz-adv-x="546" 
d="M57 146v554h58v-71h4q34 79 165 79h16q97 0 150 -45t53 -151v-43q0 -107 -53 -152t-150 -45h-16q-131 0 -165 79h-4v-205h-58zM281 660q-38 0 -64.5 -5.5t-51.5 -20.5t-37.5 -47.5t-12.5 -82.5v-28q0 -49 12.5 -81.5t37.5 -48t51.5 -21t64.5 -5.5t64.5 5.5t51.5 21
t37.5 48t12.5 81.5v28q0 50 -12.5 82.5t-37.5 47.5t-51.5 20.5t-64.5 5.5z" />
    <glyph glyph-name="q.superior" horiz-adv-x="546" 
d="M431 700h58v-554h-58v205h-4q-34 -79 -165 -79h-16q-97 0 -150 45t-53 152v43q0 106 53 151t150 45h16q131 0 165 -79h4v71zM265 660q-38 0 -64.5 -5.5t-51.5 -20.5t-37.5 -47.5t-12.5 -82.5v-28q0 -49 12.5 -81.5t37.5 -48t51.5 -21t64.5 -5.5t64.5 5.5t51.5 21t37.5 48
t12.5 81.5v28q0 50 -12.5 82.5t-37.5 47.5t-51.5 20.5t-64.5 5.5z" />
    <glyph glyph-name="r.superior" horiz-adv-x="330" 
d="M271 700h42v-48h-48q-71 0 -110.5 -27.5t-39.5 -102.5v-242h-57v420h57v-71h4q27 71 152 71z" />
    <glyph glyph-name="s.superior" horiz-adv-x="502" 
d="M256 272h-8q-192 0 -209 120h59q14 -76 155 -76q76 0 113 18.5t38 64.5v5q0 35 -23 49t-79 16l-112 6q-75 4 -106 29.5t-31 73.5v9q0 121 187 121h9q90 0 140.5 -27t62.5 -92h-59q-12 43 -47.5 58.5t-100.5 15.5q-68 0 -101 -17t-33 -57v-4q0 -35 22.5 -48.5t80.5 -16.5
l111 -6q75 -4 106.5 -30t31.5 -74v-9q0 -129 -207 -129z" />
    <glyph glyph-name="t.superior" horiz-adv-x="345" 
d="M318 326v-46h-52q-80 0 -112.5 29.5t-32.5 107.5v236h-111v47h111v134h57v-134h140v-47h-140v-227q0 -62 22.5 -81t84.5 -19h33z" />
    <glyph glyph-name="u.superior" horiz-adv-x="504" 
d="M51 433v267h57v-255q0 -70 35.5 -97.5t95.5 -27.5q150 0 150 143v237h57v-420h-57v72h-4q-37 -80 -160 -80q-174 0 -174 161z" />
    <glyph glyph-name="v.superior" horiz-adv-x="486" 
d="M475 700l-191 -420h-81l-191 420h63l168 -373h4l169 373h59z" />
    <glyph glyph-name="w.superior" horiz-adv-x="756" 
d="M740 700l-135 -420h-78l-147 366l-148 -366h-82l-133 420h61l116 -370h4l147 370h70l148 -370h3l116 370h58z" />
    <glyph glyph-name="x.superior" horiz-adv-x="511" 
d="M295 495l197 -215h-75l-161 180h-4l-161 -180h-71l195 214l-185 206h74l151 -170h3l153 170h70z" />
    <glyph glyph-name="y.superior" horiz-adv-x="480" 
d="M471 700l-263 -555h-61l68 137l-204 418h62l171 -352h4l163 352h60z" />
    <glyph glyph-name="z.superior" horiz-adv-x="469" 
d="M434 326v-46h-396v40l310 333h-300v47h378v-40l-311 -334h319z" />
    <glyph glyph-name="grave.cap" horiz-adv-x="500" 
d="M239 860l95 -120h-56l-112 120h73z" />
    <glyph glyph-name="acute.cap" horiz-adv-x="500" 
d="M333 860l-112 -120h-57l95 120h74z" />
    <glyph glyph-name="circumflex.cap" horiz-adv-x="500" 
d="M297 860l121 -120h-58l-110 99l-110 -99h-58l121 120h94z" />
    <glyph glyph-name="caron.cap" horiz-adv-x="500" 
d="M250 761l110 99h58l-121 -120h-94l-121 120h58z" />
    <glyph glyph-name="caronSlovak" horiz-adv-x="500" 
d="M299 700l-44 -198h-48l33 198h59z" />
    <glyph glyph-name="tilde.cap" horiz-adv-x="500" 
d="M324 756q-30 0 -79 24t-66 24q-38 0 -48 -45h-41q14 86 86 86q30 0 78.5 -24t65.5 -24q38 0 48 45h43q-14 -86 -87 -86z" />
    <glyph glyph-name="dieresis.cap" horiz-adv-x="500" 
d="M126 835h55v-69h-55v69zM319 835h55v-69h-55v69z" />
    <glyph glyph-name="macron.cap" horiz-adv-x="500" 
d="M404 822v-42h-308v42h308z" />
    <glyph glyph-name="breve.cap" horiz-adv-x="500" 
d="M250 734q-152 0 -155 126h47q0 -42 28 -64.5t80 -22.5t80 22.5t28 64.5h47q-3 -126 -155 -126z" />
    <glyph glyph-name="ring.cap" horiz-adv-x="500" 
d="M250 732q-121 0 -121 98t121 98q120 0 120 -98t-120 -98zM250 768q77 0 77 62t-77 62q-78 0 -78 -62t78 -62z" />
    <glyph glyph-name="hungarumlaut.cap" horiz-adv-x="500" 
d="M258 860l-113 -120h-56l95 120h74zM410 860l-112 -120h-57l96 120h73z" />
    <glyph glyph-name="dotaccent.cap" horiz-adv-x="500" 
d="M220 835h60v-69h-60v69z" />
    <glyph glyph-name="commaaccent.alt" horiz-adv-x="500" 
d="M233 692l15 22h43l-41 -64v-6h55v-46h-99v11q0 38 27 83z" />
    <glyph glyph-name="hyphen.cap" horiz-adv-x="315" 
d="M298 324h-281v53h281v-53z" />
    <glyph glyph-name="exclamdown.cap" horiz-adv-x="265" 
d="M84 700h97v-95h-97v95zM165 294v-294h-65v294l13 185h39z" />
    <glyph glyph-name="questiondown.cap" horiz-adv-x="619" 
d="M281 702h96v-94h-96v94zM299 481h59v-10q0 -35 -25.5 -60.5t-87.5 -57.5q-89 -45 -116 -77.5t-27 -91.5v-7q0 -132 195 -132q98 0 149.5 35t62.5 120h60q-19 -208 -265 -208h-14q-116 0 -182.5 45.5t-66.5 135.5v12q0 73 35 115t134 94q49 26 69 44.5t20 42.5z" />
    <glyph glyph-name="guilsinglleft.cap" horiz-adv-x="220" 
d="M43 346v6l84 219h49l-85 -222l85 -222h-49z" />
    <glyph glyph-name="guilsinglright.cap" horiz-adv-x="220" 
d="M177 353v-6l-84 -219h-49l85 222l-85 222h49z" />
    <glyph glyph-name="guillemotleft.cap" horiz-adv-x="369" 
d="M43 347v6l84 219h49l-85 -222l85 -222h-49zM192 347v6l84 219h49l-85 -222l85 -222h-49z" />
    <glyph glyph-name="guillemotright.cap" horiz-adv-x="370" 
d="M177 353v-6l-84 -219h-49l85 222l-85 222h49zM327 353v-6l-84 -219h-49l85 222l-85 222h49z" />
    <glyph glyph-name="endash.cap" horiz-adv-x="659" 
d="M613 328h-595v43h595v-43z" />
    <glyph glyph-name="emdash.cap" horiz-adv-x="989" 
d="M928 328h-910v43h910v-43z" />
    <glyph glyph-name="periodcentered.cap" horiz-adv-x="332" 
d="M208 303h-97v95h97v-95z" />
    <glyph glyph-name="parenleft.cap" horiz-adv-x="353" 
d="M294 1v-46q-98 23 -158 112q-59 91 -59 262v42q0 171 59 262q60 89 158 112v-46q-168 -53 -168 -339v-20q0 -286 168 -339z" />
    <glyph glyph-name="parenright.cap" horiz-adv-x="353" 
d="M47 699v46q99 -23 157 -112q60 -90 60 -262v-42q0 -172 -60 -262q-58 -89 -157 -112v46q168 53 168 339v20q0 286 -168 339z" />
    <glyph glyph-name="bracketleft.cap" horiz-adv-x="366" 
d="M308 -1v-44h-205v790h205v-44h-156v-702h156z" />
    <glyph glyph-name="bracketright.cap" horiz-adv-x="366" 
d="M58 701v44h205v-790h-205v44h156v702h-156z" />
    <glyph glyph-name="braceleft.cap" horiz-adv-x="351" 
d="M320 -1v-44h-41q-78 0 -110.5 43.5t-32.5 148.5v50q0 70 -17 92t-83 32v58q66 10 83 32t17 92v50q0 105 32.5 148.5t110.5 43.5h41v-44h-24q-62 0 -86.5 -29.5t-24.5 -123.5v-55q0 -74 -18.5 -103.5t-86.5 -37.5v-4q68 -8 86.5 -37.5t18.5 -103.5v-55q0 -94 24.5 -123.5
t86.5 -29.5h24z" />
    <glyph glyph-name="braceright.cap" horiz-adv-x="351" 
d="M71 -45h-41v44h24q62 0 86.5 29.5t24.5 123.5v55q0 74 18.5 103.5t86.5 37.5v4q-68 8 -86.5 37.5t-18.5 103.5v55q0 94 -24.5 123.5t-86.5 29.5h-24v44h41q78 0 110.5 -43.5t32.5 -148.5v-50q0 -70 17 -92t83 -32v-58q-66 -10 -83 -32t-17 -92v-50q0 -105 -32.5 -148.5
t-110.5 -43.5z" />
    <glyph glyph-name="at.cap" horiz-adv-x="1036" 
d="M520 -69q-470 0 -470 376v31q0 203 124 317t356 114q465 0 465 -362v-12q0 -62 -10.5 -112t-33 -91.5t-63 -64.5t-97.5 -23q-117 0 -119 91h-4q-46 -76 -181 -76h-10q-210 0 -186 207l3 33q13 112 70 159t154 47h18q137 0 161 -77h5l8 69h58l-39 -310q-7 -58 9 -79
t64 -21q145 0 145 247v14q0 170 -108 244.5t-316 74.5q-205 0 -315.5 -104.5t-110.5 -287.5v-29q0 -176 109 -254.5t320 -78.5q119 0 220 28v-42q-97 -28 -226 -28zM504 166q78 0 124.5 34t56.5 126l3 31q6 53 -4 87t-35.5 49t-51 20t-64.5 5q-78 0 -124.5 -34t-56.5 -126
l-4 -31q-5 -43 2 -73.5t20 -47t36.5 -26t45 -12t52.5 -2.5z" />
    <glyph glyph-name="zero.slash" horiz-adv-x="843" 
d="M447 -10h-51q-168 0 -246.5 72t-78.5 234v108q0 161 78.5 233.5t246.5 72.5h51q169 0 246.5 -72t77.5 -234v-108q0 -163 -77.5 -234.5t-246.5 -71.5zM133 385v-70q0 -136 47 -194l450 490q-64 46 -209 46q-165 0 -226.5 -61.5t-61.5 -210.5zM421 43q166 0 227.5 61.5
t61.5 210.5v70q0 135 -46 193l-450 -489q62 -46 207 -46z" />
    <glyph glyph-name="numbersign.LT" 
d="M488 0h-52l28 203h-194l-29 -203h-53l30 203h-161v49h167l27 197h-161v49h167l29 202h53l-30 -202h195l30 202h52l-30 -202h161v-49h-167l-27 -197h161v-49h-167zM499 450h-197l-27 -199h197z" />
    <glyph glyph-name="Euro.LT" 
d="M429 -10h-21q-45 0 -80.5 5t-76 21.5t-68.5 45t-49.5 79t-26.5 119.5h-98v44h96v10v72v10h-96v44h98q5 69 26.5 119.5t49.5 79t68.5 45t76 21.5t80.5 5h21q118 0 192 -39.5t101 -133.5h-63q-24 62 -79.5 91t-160.5 29q-52 0 -89.5 -7.5t-75 -29t-59 -66.5t-27.5 -114h448
v-44h-450v-8v-77v-7h450v-44h-448q6 -68 27.5 -113t58 -66.5t74.5 -29.5t91 -8q105 0 160.5 29t79.5 91h63q-27 -95 -100.5 -134t-192.5 -39z" />
    <glyph glyph-name="dollar.LT" 
d="M427 10v-115h-51v115q-112 2 -197 37.5t-113 115.5h66q25 -54 96.5 -78.5t163.5 -24.5q137 0 203 33t67 112v6q0 66 -39.5 88.5t-146.5 27.5l-184 8q-119 6 -167 44.5t-48 115.5v14q0 176 283 181v115h52v-115q243 -8 285 -153h-66q-43 103 -254 103q-236 0 -237 -129v-6
q0 -66 38.5 -88.5t147.5 -28.5l184 -8q119 -6 166.5 -44t47.5 -115v-14q0 -104 -77.5 -149t-219.5 -48z" />
    <glyph glyph-name="cent.LT" 
d="M418 -10v-95h-52v95q-117 5 -179 61q-63 58 -63 193v41q0 132 61 192t181 63v95h52v-95q190 -6 228 -155h-61q-19 60 -67.5 81.5t-124.5 21.5q-51 0 -86.5 -8.5t-65 -30.5t-43.5 -65t-14 -109v-20q0 -53 10 -91.5t27 -62t44.5 -37t57 -18t70.5 -4.5q76 0 124.5 21.5
t67.5 81.5h61q-38 -149 -228 -155z" />
    <glyph glyph-name="sterling.LT" 
d="M625 373v-45h-377v-276h467v-52h-682v52h154v276h-154v45h154v57q0 83 20.5 140.5t59.5 86.5t82 41t100 12h21q218 0 257 -173h-66q-19 62 -65 91t-135 29q-107 0 -160 -50t-53 -181v-53h377z" />
    <glyph glyph-name="florin.LT" 
d="M359 328v-433h-60v433h-267v45h267v45q0 69 14.5 120t37.5 81.5t58.5 49t71.5 25t82 6.5h163v-53h-149q-110 0 -164 -50.5t-54 -182.5v-41h368v-45h-368z" />
    <glyph glyph-name="yen.LT" 
d="M418 260v-260h-61v260h-264v44h264v53l-37 39h-227v44h185l-249 260h84l275 -292h4l274 292h77l-248 -260h188v-44h-230l-35 -37v-55h265v-44h-265z" />
    <glyph glyph-name="zero.slash.LT" 
d="M399 -10h-23q-50 0 -88.5 5.5t-81 25t-70.5 52t-46.5 91.5t-18.5 139v94q0 80 18.5 139t46.5 91.5t70.5 52t81 25t88.5 5.5h23q50 0 88.5 -5.5t81 -25t70 -52t46 -91.5t18.5 -139v-94q0 -80 -18.5 -139t-46 -91.5t-70 -52t-81 -25t-88.5 -5.5zM133 391v-82
q0 -120 40 -184l398 486q-55 46 -184 46q-48 0 -80.5 -4.5t-68 -20t-56.5 -43.5t-35 -78t-14 -120zM387 43q47 0 80 4.5t68.5 20t57 43.5t35.5 78t14 120v82q0 121 -40 183l-399 -485q55 -46 184 -46z" />
    <glyph glyph-name="zero.LT" 
d="M399 -10h-23q-50 0 -88.5 5.5t-81 25t-70.5 52t-46.5 91.5t-18.5 139v94q0 80 18.5 139t46.5 91.5t70.5 52t81 25t88.5 5.5h23q50 0 88.5 -5.5t81 -25t70 -52t46 -91.5t18.5 -139v-94q0 -80 -18.5 -139t-46 -91.5t-70 -52t-81 -25t-88.5 -5.5zM387 43q47 0 80 4.5
t68.5 20t57 43.5t35.5 78t14 120v82q0 70 -14 120t-35.5 78t-57 43.5t-68.5 20t-80 4.5q-48 0 -80.5 -4.5t-68 -20t-56.5 -43.5t-35 -78t-14 -120v-82q0 -70 14 -120t35 -78t56.5 -43.5t68 -20t80.5 -4.5z" />
    <glyph glyph-name="one.LT" 
d="M706 53v-53h-638v53h313v600h-5l-283 -149v67l252 129h97v-647h264z" />
    <glyph glyph-name="two.LT" 
d="M706 53v-53h-636v86q0 131 44 183.5t170 71.5l204 30q89 13 122.5 44t33.5 97v10q0 69 -58 102t-183 33q-122 0 -179 -32.5t-71 -109.5h-62q8 56 33.5 95.5t67 60.5t90 30t111.5 9h17q295 0 295 -183v-18q0 -83 -40 -127t-149 -61l-207 -30q-107 -17 -142.5 -52.5
t-35.5 -139.5v-46h575z" />
    <glyph glyph-name="three.LT" 
d="M410 -10h-26q-138 0 -217.5 45.5t-95.5 153.5h62q18 -83 81.5 -114.5t185.5 -31.5q130 0 192 37t62 117v17q0 64 -38.5 95.5t-128.5 31.5h-242v53h245q80 0 114 28t34 87v14q0 71 -57 102.5t-185 31.5q-106 0 -164.5 -30.5t-74.5 -110.5h-61q20 105 90.5 149.5
t200.5 44.5h16q151 0 224 -43t73 -137v-11q0 -117 -99 -142v-5q114 -27 114 -158v-15q0 -109 -77 -159t-228 -50z" />
    <glyph glyph-name="four.LT" 
d="M603 195v-195h-61v195h-479v83l441 422h99v-454h127v-51h-127zM114 251v-5h428v410h-5z" />
    <glyph glyph-name="five.LT" 
d="M417 -10h-28q-274 0 -301 180h62q14 -66 74.5 -96.5t177.5 -30.5q127 0 187.5 43t60.5 131v16q0 91 -57 133t-184 42q-191 0 -250 -94h-56l37 386h534v-53h-478l-27 -260h4q26 34 91 53.5t154 19.5q152 0 222.5 -55t70.5 -170v-17q0 -111 -75 -169.5t-219 -58.5z" />
    <glyph glyph-name="six.LT" 
d="M408 -10h-27q-61 0 -104.5 6.5t-84.5 24.5t-65.5 50t-39 85t-14.5 127v114q0 94 19 156t60 96t93.5 47.5t130.5 13.5h24q137 0 207 -40t88 -134h-61q-17 67 -73.5 94t-171.5 27q-72 0 -116.5 -10t-77.5 -39t-47 -82t-14 -137v-50h5q22 52 81.5 77.5t182.5 25.5
q151 0 225.5 -49t74.5 -165v-16q0 -120 -77 -171t-218 -51zM392 42q133 0 191 39t58 125v21q0 85 -58.5 124.5t-190.5 39.5q-131 0 -190 -39.5t-59 -124.5v-21q0 -86 58 -125t191 -39z" />
    <glyph glyph-name="seven.LT" 
d="M714 653l-427 -653h-73l425 643v4h-583v53h658v-47z" />
    <glyph glyph-name="eight.LT" 
d="M405 -10h-36q-69 0 -119 8.5t-92.5 30t-64.5 63.5t-22 103v12q2 136 118 164v5q-100 26 -100 142v9q0 102 73.5 142.5t215.5 40.5h18q142 0 215.5 -40.5t73.5 -142.5v-9q0 -116 -101 -142v-5q117 -28 119 -164v-12q0 -61 -22 -103t-64.5 -63.5t-92.5 -30t-119 -8.5z
M292 395h190q141 0 141 117v12q0 74 -55 104t-181 30t-181 -30t-55 -104v-12q0 -117 141 -117zM387 42q136 0 195.5 33t59.5 116v17q0 63 -39.5 99.5t-120.5 36.5h-190q-81 0 -120.5 -36.5t-39.5 -99.5v-17q0 -83 59.5 -116t195.5 -33z" />
    <glyph glyph-name="nine.LT" 
d="M366 710h27q61 0 104.5 -6.5t84.5 -24.5t65.5 -50t39 -85t14.5 -127v-114q0 -94 -19 -156t-60 -96t-93.5 -47.5t-130.5 -13.5h-24q-137 0 -207 40t-88 134h61q17 -67 73.5 -94t171.5 -27q72 0 116.5 10t77.5 39t47 82t14 137v50h-5q-22 -52 -81.5 -77.5t-182.5 -25.5
q-151 0 -225.5 49t-74.5 165v16q0 120 77 171t218 51zM382 658q-133 0 -191 -39t-58 -125v-21q0 -85 58.5 -124.5t190.5 -39.5q131 0 190 39.5t59 124.5v21q0 86 -58 125t-191 39z" />
    <glyph glyph-name="numbersign.OP" 
d="M495 0h-52l24 171h-195l-25 -171h-53l26 171h-163v49h169l22 161h-163v48h169l24 171h53l-25 -171h196l24 171h52l-24 -171h163v-48h-170l-21 -161h163v-49h-169zM496 382h-197l-22 -163h197z" />
    <glyph glyph-name="Euro.OP" 
d="M429 -10h-21q-52 0 -94 8t-86 29.5t-74.5 67.5t-41.5 115h-103v44h98q-2 26 -2 43v6q0 17 2 43h-98v44h103q11 69 41.5 115t74.5 67.5t86 29.5t94 8h21q119 0 191 -35.5t102 -118.5h-63q-26 54 -79 78q-54 24 -161 24q-48 0 -83.5 -6.5t-70.5 -23.5t-58.5 -51.5
t-33.5 -86.5h443v-44h-448q-2 -26 -2 -42v-8q0 -16 2 -42h448v-44h-443q10 -52 33.5 -86.5t58.5 -51.5t70.5 -23.5t83.5 -6.5q107 0 161 24q53 24 79 78h63q-30 -83 -102 -118.5t-191 -35.5z" />
    <glyph glyph-name="dollar.OP" 
d="M423 10v-115h-50v115q-259 0 -310 152h67q41 -102 260 -102q141 0 201 25t60 85v8q0 53 -36.5 73t-140.5 25l-183 7q-117 4 -162 40t-45 103v9q0 155 278 155v115h51v-115q245 -7 284 -152h-66q-23 58 -85.5 80t-165.5 22q-233 0 -233 -103v-4q0 -55 36 -74t141 -24
l183 -8q118 -4 162.5 -39.5t44.5 -103.5v-11q0 -85 -71.5 -122.5t-219.5 -40.5z" />
    <glyph glyph-name="cent.OP" horiz-adv-x="650" 
d="M358 -10v-95h-52v95q-117 5 -179 61q-63 58 -63 193v41q0 132 61 192t181 63v95h52v-95q190 -6 228 -155h-61q-19 60 -67.5 81.5t-124.5 21.5q-51 0 -86.5 -8.5t-65 -30.5t-43.5 -65t-14 -109v-20q0 -53 10 -91.5t27 -62t44.5 -37t57 -18t70.5 -4.5q76 0 124.5 21.5
t67.5 81.5h61q-38 -149 -228 -155z" />
    <glyph glyph-name="sterling.OP" 
d="M625 323v-45h-377v-226h467v-52h-682v52h154v226h-154v45h154v20q0 65 14.5 113.5t37.5 77.5t58.5 46.5t71 23.5t80.5 6h21q215 0 257 -156h-66q-19 52 -65.5 77.5t-134.5 25.5q-108 0 -160.5 -46t-52.5 -172v-16h377z" />
    <glyph glyph-name="florin.OP" 
d="M359 278v-483h-60v483h-267v45h267q1 84 22 140.5t59.5 85.5t81.5 40t101 11h163v-53h-149q-108 0 -162.5 -48.5t-55.5 -175.5h368v-45h-368z" />
    <glyph glyph-name="yen.OP" 
d="M418 210v-210h-61v210h-264v44h264v3l-85 89h-179v44h137l-201 210h84l275 -292h4l274 292h77l-200 -210h140v-44h-182l-83 -87v-5h265v-44h-265z" />
    <glyph glyph-name="zero.slash.OP" horiz-adv-x="835" 
d="M442 -10h-50q-163 0 -239 68.5t-76 227.5v28q0 159 76 227.5t239 68.5h50q163 0 239 -68.5t76 -227.5v-28q0 -159 -76 -227.5t-239 -68.5zM138 312v-24q0 -124 51 -179l420 411q-59 37 -192 37q-156 0 -217.5 -55t-61.5 -190zM417 43q156 0 217.5 55t61.5 190v24
q0 124 -51 179l-420 -411q60 -37 192 -37z" />
    <glyph glyph-name="zero.OP" horiz-adv-x="835" 
d="M442 -10h-50q-163 0 -239 68.5t-76 227.5v28q0 159 76 227.5t239 68.5h50q163 0 239 -68.5t76 -227.5v-28q0 -159 -76 -227.5t-239 -68.5zM417 43q156 0 217.5 55t61.5 190v24q0 135 -61.5 190t-217.5 55t-217.5 -55t-61.5 -190v-24q0 -135 61.5 -190t217.5 -55z" />
    <glyph glyph-name="one.OP" horiz-adv-x="485" 
d="M389 600v-600h-61v553h-5l-283 -149v67l252 129h97z" />
    <glyph glyph-name="two.OP" 
d="M706 53v-53h-636v75q0 113 43.5 162t165.5 62l213 20q88 9 120 35t32 82v9q0 58 -58.5 85t-181.5 27q-118 0 -175.5 -30t-74.5 -105h-63q18 102 91.5 145t211.5 43h15q297 0 297 -160v-16q0 -74 -44 -114t-153 -52l-203 -20q-105 -10 -140 -43.5t-35 -118.5v-33h575z" />
    <glyph glyph-name="three.OP" 
d="M410 -110h-26q-137 0 -217 46t-96 153h62q18 -83 81.5 -114.5t185.5 -31.5q130 0 192 37t62 117v17q0 64 -38.5 95.5t-128.5 31.5h-242v53h245q80 0 114 28t34 87v14q0 71 -57 102.5t-185 31.5q-106 0 -164.5 -30.5t-74.5 -110.5h-61q20 105 90.5 149.5t200.5 44.5h16
q151 0 224 -43t73 -137v-11q0 -117 -99 -142v-5q114 -27 114 -158v-15q0 -109 -77 -159t-228 -50z" />
    <glyph glyph-name="four.OP" 
d="M603 95v-195h-61v195h-479v83l441 422h99v-454h127v-51h-127zM114 151v-5h428v410h-5z" />
    <glyph glyph-name="five.OP" 
d="M417 -110h-28q-274 0 -301 180h62q14 -66 74.5 -96.5t177.5 -30.5q127 0 187.5 43t60.5 131v16q0 91 -57 133t-184 42q-191 0 -250 -94h-56l37 386h534v-53h-478l-27 -260h4q26 34 91 53.5t154 19.5q152 0 222.5 -55t70.5 -170v-17q0 -111 -75 -169.5t-219 -58.5z" />
    <glyph glyph-name="six.OP" 
d="M408 -10h-27q-61 0 -104.5 6.5t-84.5 24.5t-65.5 50t-39 85t-14.5 127v114q0 94 19 156t60 96t93.5 47.5t130.5 13.5h24q137 0 207 -40t88 -134h-61q-17 67 -73.5 94t-171.5 27q-72 0 -116.5 -10t-77.5 -39t-47 -82t-14 -137v-50h5q22 52 81.5 77.5t182.5 25.5
q151 0 225.5 -49t74.5 -165v-16q0 -120 -77 -171t-218 -51zM392 42q133 0 191 39t58 125v21q0 85 -58.5 124.5t-190.5 39.5q-131 0 -190 -39.5t-59 -124.5v-21q0 -86 58 -125t191 -39z" />
    <glyph glyph-name="seven.OP" 
d="M714 553l-427 -653h-73l425 643v4h-583v53h658v-47z" />
    <glyph glyph-name="eight.OP" 
d="M405 -10h-36q-69 0 -119 8.5t-92.5 30t-64.5 63.5t-22 103v12q2 136 118 164v5q-100 26 -100 142v9q0 102 73.5 142.5t215.5 40.5h18q142 0 215.5 -40.5t73.5 -142.5v-9q0 -116 -101 -142v-5q117 -28 119 -164v-12q0 -61 -22 -103t-64.5 -63.5t-92.5 -30t-119 -8.5z
M292 395h190q141 0 141 117v12q0 74 -55 104t-181 30t-181 -30t-55 -104v-12q0 -117 141 -117zM387 42q136 0 195.5 33t59.5 116v17q0 63 -39.5 99.5t-120.5 36.5h-190q-81 0 -120.5 -36.5t-39.5 -99.5v-17q0 -83 59.5 -116t195.5 -33z" />
    <glyph glyph-name="nine.OP" horiz-adv-x="775" 
d="M367 610h27q61 0 104.5 -6.5t84.5 -24.5t65.5 -50t39 -85t14.5 -127v-114q0 -94 -19 -156t-60 -96t-93.5 -47.5t-130.5 -13.5h-24q-136 0 -206.5 40t-88.5 134h61q17 -67 73.5 -94t171.5 -27q72 0 116.5 10t77.5 39t47 82t14 137v50h-5q-22 -52 -81.5 -77.5t-182.5 -25.5
q-151 0 -225.5 49t-74.5 165v16q0 119 77.5 170.5t217.5 51.5zM383 558q-132 0 -190.5 -39.5t-58.5 -124.5v-21q0 -85 58.5 -124.5t190.5 -39.5q131 0 190 39.5t59 124.5v21q0 85 -58.5 124.5t-190.5 39.5z" />
    <glyph glyph-name="numbersign.OT" 
d="M495 0h-52l24 171h-195l-25 -171h-53l26 171h-163v49h169l22 161h-163v48h169l24 171h53l-25 -171h196l24 171h52l-24 -171h163v-48h-170l-21 -161h163v-49h-169zM496 382h-197l-22 -163h197z" />
    <glyph glyph-name="Euro.OT" 
d="M429 -10h-21q-52 0 -94 8t-86 29.5t-74.5 67.5t-41.5 115h-103v44h98q-2 26 -2 43v6q0 17 2 43h-98v44h103q11 69 41.5 115t74.5 67.5t86 29.5t94 8h21q119 0 191 -35.5t102 -118.5h-63q-26 54 -79 78q-54 24 -161 24q-48 0 -83.5 -6.5t-70.5 -23.5t-58.5 -51.5
t-33.5 -86.5h443v-44h-448q-2 -26 -2 -42v-8q0 -16 2 -42h448v-44h-443q10 -52 33.5 -86.5t58.5 -51.5t70.5 -23.5t83.5 -6.5q107 0 161 24q53 24 79 78h63q-30 -83 -102 -118.5t-191 -35.5z" />
    <glyph glyph-name="dollar.OT" 
d="M423 10v-115h-50v115q-259 0 -310 152h67q41 -102 260 -102q141 0 201 25t60 85v8q0 53 -36.5 73t-140.5 25l-183 7q-117 4 -162 40t-45 103v9q0 155 278 155v115h51v-115q245 -7 284 -152h-66q-23 58 -85.5 80t-165.5 22q-233 0 -233 -103v-4q0 -55 36 -74t141 -24
l183 -8q118 -4 162.5 -39.5t44.5 -103.5v-11q0 -85 -71.5 -122.5t-219.5 -40.5z" />
    <glyph glyph-name="cent.OT" 
d="M418 -10v-95h-52v95q-117 5 -179 61q-63 58 -63 193v41q0 132 61 192t181 63v95h52v-95q190 -6 228 -155h-61q-19 60 -67.5 81.5t-124.5 21.5q-51 0 -86.5 -8.5t-65 -30.5t-43.5 -65t-14 -109v-20q0 -53 10 -91.5t27 -62t44.5 -37t57 -18t70.5 -4.5q76 0 124.5 21.5
t67.5 81.5h61q-38 -149 -228 -155z" />
    <glyph glyph-name="sterling.OT" 
d="M625 323v-45h-377v-226h467v-52h-682v52h154v226h-154v45h154v20q0 65 14.5 113.5t37.5 77.5t58.5 46.5t71 23.5t80.5 6h21q215 0 257 -156h-66q-19 52 -65.5 77.5t-134.5 25.5q-108 0 -160.5 -46t-52.5 -172v-16h377z" />
    <glyph glyph-name="florin.OT" 
d="M359 278v-483h-60v483h-267v45h267q1 84 22 140.5t59.5 85.5t81.5 40t101 11h163v-53h-149q-108 0 -162.5 -48.5t-55.5 -175.5h368v-45h-368z" />
    <glyph glyph-name="yen.OT" 
d="M418 210v-210h-61v210h-264v44h264v3l-85 89h-179v44h137l-201 210h84l275 -292h4l274 292h77l-200 -210h140v-44h-182l-83 -87v-5h265v-44h-265z" />
    <glyph glyph-name="zero.slash.OT" 
d="M398 -10h-22q-74 0 -125.5 11.5t-94 42.5t-63.5 90.5t-21 150.5v30q0 91 21 151t63.5 90.5t93.5 42t126 11.5h22q59 0 102.5 -6.5t83.5 -25.5t64.5 -51.5t39 -85.5t14.5 -126v-30q0 -91 -20.5 -150.5t-63.5 -90.5t-94 -42.5t-126 -11.5zM133 309v-18q0 -125 42 -181
l389 412q-53 35 -177 35q-69 0 -113 -9.5t-78 -36.5t-48.5 -76t-14.5 -126zM387 43q69 0 113 9.5t78 36.5t48.5 76t14.5 126v18q0 125 -42 181l-390 -411q53 -36 178 -36z" />
    <glyph glyph-name="zero.OT" 
d="M398 -10h-22q-74 0 -125.5 11.5t-94 42.5t-63.5 90.5t-21 150.5v30q0 91 21 151t63.5 90.5t93.5 42t126 11.5h22q59 0 102.5 -6.5t83.5 -25.5t64.5 -51.5t39 -85.5t14.5 -126v-30q0 -91 -20.5 -150.5t-63.5 -90.5t-94 -42.5t-126 -11.5zM387 43q69 0 113 9.5t78 36.5
t48.5 76t14.5 126v18q0 77 -14.5 126t-48.5 76t-78 36.5t-113 9.5t-113 -9.5t-78 -36.5t-48.5 -76t-14.5 -126v-18q0 -77 14.5 -126t48.5 -76t78 -36.5t113 -9.5z" />
    <glyph glyph-name="one.OT" 
d="M706 53v-53h-638v53h313v500h-5l-283 -149v67l252 129h97v-547h264z" />
    <glyph glyph-name="two.OT" 
d="M706 53v-53h-636v75q0 113 43.5 162t165.5 62l213 20q88 9 120 35t32 82v9q0 58 -58.5 85t-181.5 27q-118 0 -175.5 -30t-74.5 -105h-63q18 102 91.5 145t211.5 43h15q297 0 297 -160v-16q0 -74 -44 -114t-153 -52l-203 -20q-105 -10 -140 -43.5t-35 -118.5v-33h575z" />
    <glyph glyph-name="three.OT" 
d="M410 -110h-26q-137 0 -217 46t-96 153h62q18 -83 81.5 -114.5t185.5 -31.5q130 0 192 37t62 117v17q0 64 -38.5 95.5t-128.5 31.5h-242v53h245q80 0 114 28t34 87v14q0 71 -57 102.5t-185 31.5q-106 0 -164.5 -30.5t-74.5 -110.5h-61q20 105 90.5 149.5t200.5 44.5h16
q151 0 224 -43t73 -137v-11q0 -117 -99 -142v-5q114 -27 114 -158v-15q0 -109 -77 -159t-228 -50z" />
    <glyph glyph-name="four.OT" 
d="M603 95v-195h-61v195h-479v83l441 422h99v-454h127v-51h-127zM114 151v-5h428v410h-5z" />
    <glyph glyph-name="five.OT" 
d="M417 -110h-28q-274 0 -301 180h62q14 -66 74.5 -96.5t177.5 -30.5q127 0 187.5 43t60.5 131v16q0 91 -57 133t-184 42q-191 0 -250 -94h-56l37 386h534v-53h-478l-27 -260h4q26 34 91 53.5t154 19.5q152 0 222.5 -55t70.5 -170v-17q0 -111 -75 -169.5t-219 -58.5z" />
    <glyph glyph-name="six.OT" 
d="M408 -10h-27q-61 0 -104.5 6.5t-84.5 24.5t-65.5 50t-39 85t-14.5 127v114q0 94 19 156t60 96t93.5 47.5t130.5 13.5h24q137 0 207 -40t88 -134h-61q-17 67 -73.5 94t-171.5 27q-72 0 -116.5 -10t-77.5 -39t-47 -82t-14 -137v-50h5q22 52 81.5 77.5t182.5 25.5
q151 0 225.5 -49t74.5 -165v-16q0 -120 -77 -171t-218 -51zM392 42q133 0 191 39t58 125v21q0 85 -58.5 124.5t-190.5 39.5q-131 0 -190 -39.5t-59 -124.5v-21q0 -86 58 -125t191 -39z" />
    <glyph glyph-name="seven.OT" 
d="M714 553l-427 -653h-73l425 643v4h-583v53h658v-47z" />
    <glyph glyph-name="eight.OT" 
d="M405 -10h-36q-69 0 -119 8.5t-92.5 30t-64.5 63.5t-22 103v12q2 136 118 164v5q-100 26 -100 142v9q0 102 73.5 142.5t215.5 40.5h18q142 0 215.5 -40.5t73.5 -142.5v-9q0 -116 -101 -142v-5q117 -28 119 -164v-12q0 -61 -22 -103t-64.5 -63.5t-92.5 -30t-119 -8.5z
M292 395h190q141 0 141 117v12q0 74 -55 104t-181 30t-181 -30t-55 -104v-12q0 -117 141 -117zM387 42q136 0 195.5 33t59.5 116v17q0 63 -39.5 99.5t-120.5 36.5h-190q-81 0 -120.5 -36.5t-39.5 -99.5v-17q0 -83 59.5 -116t195.5 -33z" />
    <glyph glyph-name="nine.OT" horiz-adv-x="775" 
d="M367 610h27q61 0 104.5 -6.5t84.5 -24.5t65.5 -50t39 -85t14.5 -127v-114q0 -94 -19 -156t-60 -96t-93.5 -47.5t-130.5 -13.5h-24q-136 0 -206.5 40t-88.5 134h61q17 -67 73.5 -94t171.5 -27q72 0 116.5 10t77.5 39t47 82t14 137v50h-5q-22 -52 -81.5 -77.5t-182.5 -25.5
q-151 0 -225.5 49t-74.5 165v16q0 119 77.5 170.5t217.5 51.5zM383 558q-132 0 -190.5 -39.5t-58.5 -124.5v-21q0 -85 58.5 -124.5t190.5 -39.5q131 0 190 39.5t59 124.5v21q0 85 -58.5 124.5t-190.5 39.5z" />
    <glyph glyph-name="zero.numr" horiz-adv-x="448" 
d="M230 274h-11q-41 0 -70 7t-56.5 26t-41.5 58.5t-14 99.5v50q0 60 14 99.5t41.5 58.5t56.5 26t70 7h11q41 0 70 -7t56.5 -26t41.5 -58.5t14 -99.5v-50q0 -60 -14 -99.5t-41.5 -58.5t-56.5 -26t-70 -7zM224 321q33 0 53.5 4.5t39.5 18.5t28 44t9 78v48q0 48 -9 78t-28 44
t-39.5 18.5t-53.5 4.5q-66 0 -98 -27.5t-32 -117.5v-48q0 -90 32 -117.5t98 -27.5z" />
    <glyph glyph-name="one.numr" horiz-adv-x="315" 
d="M235 700v-420h-57v375h-4l-153 -85v60l134 70h80z" />
    <glyph glyph-name="two.numr" horiz-adv-x="448" 
d="M413 327v-47h-376v58q0 79 26.5 111t105.5 45l106 17q46 7 63 23t17 51v4q0 36 -29 53t-92 17q-58 0 -89 -15t-39 -58h-58q15 120 179 120h9q177 0 177 -113v-10q0 -50 -25 -77.5t-90 -38.5l-114 -18q-54 -8 -72 -27t-18 -72v-23h319z" />
    <glyph glyph-name="three.numr" horiz-adv-x="448" 
d="M237 274h-15q-162 0 -182 123h57q11 -45 43 -60.5t88 -15.5q65 0 95.5 19t30.5 61v7q0 34 -19 50.5t-67 16.5h-117v46h114q43 0 60.5 15.5t17.5 46.5v6q0 37 -28 53.5t-88 16.5q-52 0 -80.5 -15t-37.5 -57h-58q11 65 53.5 92t115.5 27h10q172 0 172 -107v-6
q0 -73 -61 -85v-4q72 -12 72 -95v-8q0 -127 -176 -127z" />
    <glyph glyph-name="four.numr" horiz-adv-x="448" 
d="M359 390v-110h-57v110h-269v73l238 237h88v-264h70v-46h-70zM82 441v-5h220v223h-5z" />
    <glyph glyph-name="five.numr" horiz-adv-x="448" 
d="M240 274h-15q-164 0 -181 119h58q9 -41 40 -56.5t89 -15.5q127 0 127 91v10q0 91 -128 91q-50 0 -78.5 -11t-45.5 -38h-54l22 236h321v-47h-269l-14 -133h4q34 39 131 39q169 0 169 -137v-8q0 -70 -46 -105t-130 -35z" />
    <glyph glyph-name="six.numr" horiz-adv-x="448" 
d="M236 274h-14q-92 0 -138.5 37.5t-46.5 145.5v58q0 109 44 150t138 41h11q81 0 122.5 -25t54.5 -82h-59q-10 33 -38.5 46.5t-83.5 13.5q-73 0 -102.5 -28.5t-29.5 -112.5v-25h4q16 27 46.5 40.5t95.5 13.5q90 0 131 -31.5t41 -98.5v-7q0 -136 -176 -136zM226 320
q68 0 98 21t30 67v9q0 45 -29.5 65.5t-98.5 20.5q-68 0 -98 -20.5t-30 -65.5v-9q0 -46 29.5 -67t98.5 -21z" />
    <glyph glyph-name="seven.numr" horiz-adv-x="448" 
d="M418 655l-242 -375h-70l244 369v4h-321v47h389v-45z" />
    <glyph glyph-name="eight.numr" horiz-adv-x="448" 
d="M233 274h-18q-84 0 -131 27.5t-47 97.5v7q1 80 72 97v4q-62 15 -62 84v5q0 60 43.5 85t129.5 25h8q86 0 129.5 -25t44.5 -85v-5q0 -69 -62 -84v-4q71 -17 72 -97v-7q0 -70 -47 -97.5t-132 -27.5zM188 522h74q82 0 82 62v5q0 39 -28 54.5t-92 15.5t-91.5 -15.5
t-27.5 -54.5v-5q0 -62 83 -62zM224 320q70 0 100.5 17.5t30.5 61.5v8q0 72 -93 72h-75q-93 0 -93 -72v-8q0 -44 30 -61.5t100 -17.5z" />
    <glyph glyph-name="nine.numr" horiz-adv-x="448" 
d="M212 705h14q92 0 138.5 -37.5t46.5 -145.5v-58q0 -109 -44 -150t-138 -41h-11q-81 0 -122.5 25t-54.5 82h59q10 -33 38.5 -46.5t83.5 -13.5q73 0 102.5 28.5t29.5 112.5v25h-4q-15 -28 -46 -41t-96 -13q-90 0 -131 31.5t-41 98.5v7q0 136 176 136zM222 659q-68 0 -98 -21
t-30 -67v-9q0 -45 29.5 -65.5t98.5 -20.5q68 0 98 20.5t30 65.5v9q0 46 -29.5 67t-98.5 21z" />
    <glyph glyph-name="zero.dnom" horiz-adv-x="448" 
d="M230 -6h-11q-41 0 -70 7t-56.5 26t-41.5 58.5t-14 99.5v50q0 60 14 99.5t41.5 58.5t56.5 26t70 7h11q41 0 70 -7t56.5 -26t41.5 -58.5t14 -99.5v-50q0 -60 -14 -99.5t-41.5 -58.5t-56.5 -26t-70 -7zM224 41q33 0 53.5 4.5t39.5 18.5t28 44t9 78v48q0 48 -9 78t-28 44
t-39.5 18.5t-53.5 4.5q-66 0 -98 -27.5t-32 -117.5v-48q0 -90 32 -117.5t98 -27.5z" />
    <glyph glyph-name="one.dnom" horiz-adv-x="315" 
d="M235 420v-420h-57v375h-4l-153 -85v60l134 70h80z" />
    <glyph glyph-name="two.dnom" horiz-adv-x="448" 
d="M413 47v-47h-376v58q0 79 26.5 111t105.5 45l106 17q46 7 63 23t17 51v4q0 36 -29 53t-92 17q-58 0 -89 -15t-39 -58h-58q15 120 179 120h9q177 0 177 -113v-10q0 -50 -25 -77.5t-90 -38.5l-114 -18q-54 -8 -72 -27t-18 -72v-23h319z" />
    <glyph glyph-name="three.dnom" horiz-adv-x="448" 
d="M237 -6h-15q-162 0 -182 123h57q11 -45 43 -60.5t88 -15.5q65 0 95.5 19t30.5 61v7q0 34 -19 50.5t-67 16.5h-117v46h114q43 0 60.5 15.5t17.5 46.5v6q0 37 -28 53.5t-88 16.5q-52 0 -80.5 -15t-37.5 -57h-58q11 65 53.5 92t115.5 27h10q172 0 172 -107v-6q0 -73 -61 -85
v-4q72 -12 72 -95v-8q0 -127 -176 -127z" />
    <glyph glyph-name="four.dnom" horiz-adv-x="448" 
d="M359 110v-110h-57v110h-269v73l238 237h88v-264h70v-46h-70zM82 161v-5h220v223h-5z" />
    <glyph glyph-name="five.dnom" horiz-adv-x="448" 
d="M240 -6h-15q-164 0 -181 119h58q9 -41 40 -56.5t89 -15.5q127 0 127 91v10q0 91 -128 91q-50 0 -78.5 -11t-45.5 -38h-54l22 236h321v-47h-269l-14 -133h4q34 39 131 39q169 0 169 -137v-8q0 -70 -46 -105t-130 -35z" />
    <glyph glyph-name="six.dnom" horiz-adv-x="448" 
d="M236 -6h-14q-92 0 -138.5 37.5t-46.5 145.5v58q0 109 44 150t138 41h11q81 0 122.5 -25t54.5 -82h-59q-10 33 -38.5 46.5t-83.5 13.5q-73 0 -102.5 -28.5t-29.5 -112.5v-25h4q16 27 46.5 40.5t95.5 13.5q90 0 131 -31.5t41 -98.5v-7q0 -136 -176 -136zM226 40q68 0 98 21
t30 67v9q0 45 -29.5 65.5t-98.5 20.5q-68 0 -98 -20.5t-30 -65.5v-9q0 -46 29.5 -67t98.5 -21z" />
    <glyph glyph-name="seven.dnom" horiz-adv-x="448" 
d="M418 375l-242 -375h-70l244 369v4h-321v47h389v-45z" />
    <glyph glyph-name="eight.dnom" horiz-adv-x="448" 
d="M233 -6h-18q-84 0 -131 27.5t-47 97.5v7q1 80 72 97v4q-62 15 -62 84v5q0 60 43.5 85t129.5 25h8q86 0 129.5 -25t44.5 -85v-5q0 -69 -62 -84v-4q71 -17 72 -97v-7q0 -70 -47 -97.5t-132 -27.5zM188 242h74q82 0 82 62v5q0 39 -28 54.5t-92 15.5t-91.5 -15.5t-27.5 -54.5
v-5q0 -62 83 -62zM224 40q70 0 100.5 17.5t30.5 61.5v8q0 72 -93 72h-75q-93 0 -93 -72v-8q0 -44 30 -61.5t100 -17.5z" />
    <glyph glyph-name="nine.dnom" horiz-adv-x="448" 
d="M212 425h14q92 0 138.5 -37.5t46.5 -145.5v-58q0 -109 -44 -150t-138 -41h-11q-81 0 -122.5 25t-54.5 82h59q10 -33 38.5 -46.5t83.5 -13.5q73 0 102.5 28.5t29.5 112.5v25h-4q-15 -28 -46 -41t-96 -13q-90 0 -131 31.5t-41 98.5v7q0 136 176 136zM222 379q-68 0 -98 -21
t-30 -67v-9q0 -45 29.5 -65.5t98.5 -20.5q68 0 98 20.5t30 65.5v9q0 46 -29.5 67t-98.5 21z" />
    <glyph glyph-name="G.alt" horiz-adv-x="902" 
d="M816 370v-370h-58v123h-4q-22 -65 -88.5 -99t-194.5 -34h-60q-176 0 -257 78t-81 236v92q0 159 81 236.5t260 77.5h73q285 0 327 -203h-67q-17 77 -83.5 113t-189.5 36h-48q-86 0 -143.5 -17.5t-89 -55.5t-44.5 -87.5t-13 -122.5v-46q0 -73 13 -122.5t44.5 -87.5
t89 -55.5t143.5 -17.5h39q167 0 227.5 59.5t60.5 205.5v7h-328v54h391z" />
    <glyph glyph-name="Gcircumflex.alt" horiz-adv-x="905" 
d="M497 860l121 -120h-58l-110 99l-110 -99h-58l121 120h94zM816 370v-370h-58v123h-4q-22 -65 -88.5 -99t-194.5 -34h-60q-176 0 -257 78t-81 236v92q0 159 81 236.5t260 77.5h73q285 0 327 -203h-67q-17 77 -83.5 113t-189.5 36h-48q-86 0 -143.5 -17.5t-89 -55.5
t-44.5 -87.5t-13 -122.5v-46q0 -73 13 -122.5t44.5 -87.5t89 -55.5t143.5 -17.5h39q167 0 227.5 59.5t60.5 205.5v7h-328v54h391z" />
    <glyph glyph-name="Gbreve.alt" horiz-adv-x="905" 
d="M450 734q-152 0 -155 126h47q0 -42 28 -64.5t80 -22.5t80 22.5t28 64.5h47q-3 -126 -155 -126zM816 370v-370h-58v123h-4q-22 -65 -88.5 -99t-194.5 -34h-60q-176 0 -257 78t-81 236v92q0 159 81 236.5t260 77.5h73q285 0 327 -203h-67q-17 77 -83.5 113t-189.5 36h-48
q-86 0 -143.5 -17.5t-89 -55.5t-44.5 -87.5t-13 -122.5v-46q0 -73 13 -122.5t44.5 -87.5t89 -55.5t143.5 -17.5h39q167 0 227.5 59.5t60.5 205.5v7h-328v54h391z" />
    <glyph glyph-name="Gdotaccent.alt" horiz-adv-x="905" 
d="M420 834h60v-69h-60v69zM816 370v-370h-58v123h-4q-22 -65 -88.5 -99t-194.5 -34h-60q-176 0 -257 78t-81 236v92q0 159 81 236.5t260 77.5h73q285 0 327 -203h-67q-17 77 -83.5 113t-189.5 36h-48q-86 0 -143.5 -17.5t-89 -55.5t-44.5 -87.5t-13 -122.5v-46
q0 -73 13 -122.5t44.5 -87.5t89 -55.5t143.5 -17.5h39q167 0 227.5 59.5t60.5 205.5v7h-328v54h391z" />
    <glyph glyph-name="Gcommaaccent.alt" horiz-adv-x="905" 
d="M816 370v-370h-58v123h-4q-22 -65 -88.5 -99t-194.5 -34h-60q-176 0 -257 78t-81 236v92q0 159 81 236.5t260 77.5h73q285 0 327 -203h-67q-17 77 -83.5 113t-189.5 36h-48q-86 0 -143.5 -17.5t-89 -55.5t-44.5 -87.5t-13 -122.5v-46q0 -73 13 -122.5t44.5 -87.5
t89 -55.5t143.5 -17.5h39q167 0 227.5 59.5t60.5 205.5v7h-328v54h391zM470 -148l-15 -22h-44l42 64v6h-55v46h99v-11q0 -38 -27 -83z" />
    <glyph glyph-name="J.alt" horiz-adv-x="733" 
d="M371 -10h-34q-119 0 -188 47t-89 147l-3 16h63l4 -15q19 -71 70 -106t158 -35h4q133 0 182.5 54t49.5 164v438h63v-448q0 -131 -65 -196.5t-215 -65.5z" />
    <glyph glyph-name="Jcircumflex.alt" horiz-adv-x="733" 
d="M666 860l121 -120h-58l-110 99l-110 -99h-58l121 120h94zM371 -10h-34q-119 0 -188 47t-89 147l-3 16h63l4 -15q19 -71 70 -106t158 -35h4q133 0 182.5 54t49.5 164v438h63v-448q0 -131 -65 -196.5t-215 -65.5z" />
    <glyph glyph-name="K.alt" horiz-adv-x="807" 
d="M155 700v-700h-62v700h62zM264 353l526 -353h-102l-519 350l508 350h92z" />
    <glyph glyph-name="Kcommaaccent.alt" horiz-adv-x="807" 
d="M155 700v-700h-62v700h62zM264 353l526 -353h-102l-519 350l508 350h92zM428 -148l-15 -22h-44l42 64v6h-55v46h99v-11q0 -38 -27 -83z" />
    <glyph glyph-name="Q.alt" horiz-adv-x="900" 
d="M510 -10h-23h-73q-179 0 -260 77.5t-81 236.5v92q0 159 81 236.5t260 77.5h73q178 0 259 -78t81 -236v-92q0 -134 -57.5 -210t-182.5 -97l194 -167h-90zM426 44h48q86 0 143.5 17.5t89 55.5t44.5 87.5t13 121.5v47q0 73 -13 122.5t-44.5 87.5t-89 55.5t-143.5 17.5h-48
q-86 0 -143.5 -17.5t-89 -55.5t-44.5 -87.5t-13 -122.5v-47q0 -72 13 -121.5t44.5 -87.5t89 -55.5t143.5 -17.5z" />
    <glyph glyph-name="R.alt" horiz-adv-x="820" 
d="M155 322v-322h-62v700h438q121 0 173.5 -40t52.5 -138v-21q0 -96 -53 -137t-173 -41h-30l268 -323h-79l-265 322h-270zM511 647h-356v-272h355q107 0 146 28t39 104v9q0 75 -39 103t-145 28z" />
    <glyph glyph-name="Racute.alt" horiz-adv-x="820" 
d="M563 860l-112 -120h-57l95 120h74zM155 322v-322h-62v700h438q121 0 173.5 -40t52.5 -138v-21q0 -96 -53 -137t-173 -41h-30l268 -323h-79l-265 322h-270zM511 647h-356v-272h355q107 0 146 28t39 104v9q0 75 -39 103t-145 28z" />
    <glyph glyph-name="Rcaron.alt" horiz-adv-x="820" 
d="M420 761l110 99h58l-121 -120h-94l-121 120h58zM155 322v-322h-62v700h438q121 0 173.5 -40t52.5 -138v-21q0 -96 -53 -137t-173 -41h-30l268 -323h-79l-265 322h-270zM511 647h-356v-272h355q107 0 146 28t39 104v9q0 75 -39 103t-145 28z" />
    <glyph glyph-name="Rcommaaccent.alt" horiz-adv-x="820" 
d="M155 322v-322h-62v700h438q121 0 173.5 -40t52.5 -138v-21q0 -96 -53 -137t-173 -41h-30l268 -323h-79l-265 322h-270zM511 647h-356v-272h355q107 0 146 28t39 104v9q0 75 -39 103t-145 28zM422 -148l-15 -22h-44l42 64v6h-55v46h99v-11q0 -38 -27 -83z" />
    <glyph glyph-name="a.alt" horiz-adv-x="682" 
d="M607 530v-530h-59v90h-4q-43 -100 -212 -100h-21q-130 0 -193.5 58t-63.5 194v45q0 136 64 194.5t193 58.5h21q169 0 212 -100h4v90h59zM331 42q56 0 93 8t66.5 29.5t43.5 63t14 104.5v28q0 66 -14 109t-43.5 65.5t-66.5 30.5t-93 8t-93 -8t-67 -30.5t-44 -65.5t-14 -109
v-20q0 -67 14 -109.5t44 -65t66.5 -30.5t93.5 -8z" />
    <glyph glyph-name="agrave.alt" horiz-adv-x="682" 
d="M265 700l95 -120h-56l-112 120h73zM607 530v-530h-59v90h-4q-43 -100 -212 -100h-21q-130 0 -193.5 58t-63.5 194v45q0 136 64 194.5t193 58.5h21q169 0 212 -100h4v90h59zM331 42q56 0 93 8t66.5 29.5t43.5 63t14 104.5v28q0 66 -14 109t-43.5 65.5t-66.5 30.5t-93 8
t-93 -8t-67 -30.5t-44 -65.5t-14 -109v-20q0 -67 14 -109.5t44 -65t66.5 -30.5t93.5 -8z" />
    <glyph glyph-name="aacute.alt" horiz-adv-x="682" 
d="M472 700l-112 -120h-57l95 120h74zM607 530v-530h-59v90h-4q-43 -100 -212 -100h-21q-130 0 -193.5 58t-63.5 194v45q0 136 64 194.5t193 58.5h21q169 0 212 -100h4v90h59zM331 42q56 0 93 8t66.5 29.5t43.5 63t14 104.5v28q0 66 -14 109t-43.5 65.5t-66.5 30.5t-93 8
t-93 -8t-67 -30.5t-44 -65.5t-14 -109v-20q0 -67 14 -109.5t44 -65t66.5 -30.5t93.5 -8z" />
    <glyph glyph-name="acircumflex.alt" horiz-adv-x="682" 
d="M379 700l121 -120h-58l-110 99l-110 -99h-58l121 120h94zM607 530v-530h-59v90h-4q-43 -100 -212 -100h-21q-130 0 -193.5 58t-63.5 194v45q0 136 64 194.5t193 58.5h21q169 0 212 -100h4v90h59zM331 42q56 0 93 8t66.5 29.5t43.5 63t14 104.5v28q0 66 -14 109
t-43.5 65.5t-66.5 30.5t-93 8t-93 -8t-67 -30.5t-44 -65.5t-14 -109v-20q0 -67 14 -109.5t44 -65t66.5 -30.5t93.5 -8z" />
    <glyph glyph-name="atilde.alt" horiz-adv-x="682" 
d="M406 596q-30 0 -79 24t-66 24q-38 0 -48 -45h-41q14 86 86 86q30 0 78.5 -24t65.5 -24q38 0 48 45h43q-14 -86 -87 -86zM607 530v-530h-59v90h-4q-43 -100 -212 -100h-21q-130 0 -193.5 58t-63.5 194v45q0 136 64 194.5t193 58.5h21q169 0 212 -100h4v90h59zM331 42
q56 0 93 8t66.5 29.5t43.5 63t14 104.5v28q0 66 -14 109t-43.5 65.5t-66.5 30.5t-93 8t-93 -8t-67 -30.5t-44 -65.5t-14 -109v-20q0 -67 14 -109.5t44 -65t66.5 -30.5t93.5 -8z" />
    <glyph glyph-name="adieresis.alt" horiz-adv-x="682" 
d="M208 674h55v-69h-55v69zM401 674h55v-69h-55v69zM607 530v-530h-59v90h-4q-43 -100 -212 -100h-21q-130 0 -193.5 58t-63.5 194v45q0 136 64 194.5t193 58.5h21q169 0 212 -100h4v90h59zM331 42q56 0 93 8t66.5 29.5t43.5 63t14 104.5v28q0 66 -14 109t-43.5 65.5
t-66.5 30.5t-93 8t-93 -8t-67 -30.5t-44 -65.5t-14 -109v-20q0 -67 14 -109.5t44 -65t66.5 -30.5t93.5 -8z" />
    <glyph glyph-name="amacron.alt" horiz-adv-x="682" 
d="M486 661v-42h-308v42h308zM607 530v-530h-59v90h-4q-43 -100 -212 -100h-21q-130 0 -193.5 58t-63.5 194v45q0 136 64 194.5t193 58.5h21q169 0 212 -100h4v90h59zM331 42q56 0 93 8t66.5 29.5t43.5 63t14 104.5v28q0 66 -14 109t-43.5 65.5t-66.5 30.5t-93 8t-93 -8
t-67 -30.5t-44 -65.5t-14 -109v-20q0 -67 14 -109.5t44 -65t66.5 -30.5t93.5 -8z" />
    <glyph glyph-name="abreve.alt" horiz-adv-x="682" 
d="M332 574q-152 0 -155 126h47q0 -42 28 -64.5t80 -22.5t80 22.5t28 64.5h47q-3 -126 -155 -126zM607 530v-530h-59v90h-4q-43 -100 -212 -100h-21q-130 0 -193.5 58t-63.5 194v45q0 136 64 194.5t193 58.5h21q169 0 212 -100h4v90h59zM331 42q56 0 93 8t66.5 29.5t43.5 63
t14 104.5v28q0 66 -14 109t-43.5 65.5t-66.5 30.5t-93 8t-93 -8t-67 -30.5t-44 -65.5t-14 -109v-20q0 -67 14 -109.5t44 -65t66.5 -30.5t93.5 -8z" />
    <glyph glyph-name="aring.alt" horiz-adv-x="682" 
d="M332 572q-121 0 -121 98t121 98q120 0 120 -98t-120 -98zM332 608q77 0 77 62t-77 62q-78 0 -78 -62t78 -62zM607 530v-530h-59v90h-4q-43 -100 -212 -100h-21q-130 0 -193.5 58t-63.5 194v45q0 136 64 194.5t193 58.5h21q169 0 212 -100h4v90h59zM331 42q56 0 93 8
t66.5 29.5t43.5 63t14 104.5v28q0 66 -14 109t-43.5 65.5t-66.5 30.5t-93 8t-93 -8t-67 -30.5t-44 -65.5t-14 -109v-20q0 -67 14 -109.5t44 -65t66.5 -30.5t93.5 -8z" />
    <glyph glyph-name="aringacute.alt" horiz-adv-x="683" 
d="M472 920l-112 -120h-57l95 120h74zM332 568q-121 0 -121 98t121 98q120 0 120 -98t-120 -98zM332 604q77 0 77 62t-77 62q-78 0 -78 -62t78 -62zM607 530v-530h-59v90h-4q-43 -100 -212 -100h-21q-130 0 -193.5 58t-63.5 194v45q0 136 64 194.5t193 58.5h21
q169 0 212 -100h4v90h59zM331 42q56 0 93 8t66.5 29.5t43.5 63t14 104.5v28q0 66 -14 109t-43.5 65.5t-66.5 30.5t-93 8t-93 -8t-67 -30.5t-44 -65.5t-14 -109v-20q0 -67 14 -109.5t44 -65t66.5 -30.5t93.5 -8z" />
    <glyph glyph-name="aogonek.alt" horiz-adv-x="683" 
d="M607 -99v-41h-49q-49 0 -71.5 15.5t-22.5 52.5q0 31 16 49t68 38v75h-4q-43 -100 -212 -100h-21q-130 0 -193.5 58t-63.5 194v45q0 136 64 194.5t193 58.5h21q169 0 212 -100h4v90h59v-530q-56 -20 -71 -32t-15 -34q0 -18 11 -25.5t42 -7.5h33zM331 42q56 0 93 8
t66.5 29.5t43.5 63t14 104.5v28q0 66 -14 109t-43.5 65.5t-66.5 30.5t-93 8t-93 -8t-67 -30.5t-44 -65.5t-14 -109v-20q0 -67 14 -109.5t44 -65t66.5 -30.5t93.5 -8z" />
    <glyph glyph-name="a.superior.alt" horiz-adv-x="546" 
d="M489 700v-420h-58v71h-4q-34 -79 -165 -79h-16q-97 0 -150 45t-53 151v43q0 107 53 152t150 45h16q131 0 165 -79h4v71h58zM265 320q39 0 65 5t51 20.5t37.5 48t12.5 82.5v28q0 49 -12.5 81.5t-37.5 48t-51.5 21t-64.5 5.5t-64.5 -5.5t-51.5 -21t-37.5 -48t-12.5 -81.5
v-28q0 -50 12.5 -82.5t37.5 -48t51 -20.5t65 -5z" />
    <glyph glyph-name="k.alt" horiz-adv-x="594" 
d="M135 700v-700h-60v700h60zM233 279l346 -279h-88l-341 276l327 254h82z" />
    <glyph glyph-name="kcommaaccent.alt" horiz-adv-x="630" 
d="M141 700v-700h-60v700h60zM239 279l346 -279h-88l-341 276l327 254h82zM329 -148l-15 -22h-44l42 64v6h-55v46h99v-11q0 -38 -27 -83z" />
    <glyph glyph-name="k.superior.alt" horiz-adv-x="466" 
d="M114 834v-554h-56v554h56zM458 280h-78l-254 235l239 185h76l-240 -184z" />
    <glyph glyph-name="ampersand.alt" horiz-adv-x="930" 
d="M703 347v-347h-366q-125 0 -185.5 47.5t-60.5 155.5v6q0 85 34 122q36 39 87 46v4q-108 16 -108 145v5q0 88 54 128.5t165 40.5h349v-53h-346q-84 0 -122 -28.5t-38 -93.5v-5q0 -70 42 -95t146 -25h288v119h61v-119h227v-53h-227zM348 53h294v294h-292q-112 0 -155 -27
t-43 -111v-4q0 -86 48 -119t148 -33z" />
    <glyph glyph-name="registered.alt" horiz-adv-x="868" 
d="M483 -10h-98q-185 0 -270.5 80t-85.5 235v90q0 155 85.5 235t270.5 80h98q185 0 270.5 -80t85.5 -235v-90q0 -155 -85.5 -235t-270.5 -80zM400 25h68q99 0 165 20t102 61t50.5 94t14.5 129v42q0 76 -14.5 129t-50.5 94t-102 61t-165 20h-68q-98 0 -164 -20t-102 -61
t-50.5 -94t-14.5 -129v-42q0 -76 14.5 -129t50.5 -94t102 -61t164 -20zM304 325v-185h-56v420h265q77 0 110 -25.5t33 -86.5v-12q0 -58 -33.5 -83.5t-107.5 -25.5h-4l155 -187h-71l-151 185h-140zM499 515h-195v-147h194q58 0 80 15.5t22 55.5v5q0 41 -22 56t-79 15z" />
    <glyph glyph-name="NULL" horiz-adv-x="0" 
 />
    <glyph glyph-name="CR" horiz-adv-x="271" 
 />
    </font>
</defs>
</svg>
