<svg xmlns="http://www.w3.org/2000/svg">
<defs>
<font id="PilatWide-Black" horiz-adv-x="816" >
  <font-face 
    font-family="Pilat Wide Black"
    font-weight="950"
    font-stretch="semi-expanded"
    units-per-em="1000"
    panose-1="2 11 10 5 3 0 0 0 0 4"
    ascent="750"
    descent="-250"
    x-height="530"
    cap-height="700"
    bbox="-143 -180 1719 1080"
    underline-thickness="115"
    underline-position="-320"
    unicode-range="U+0020-FB00"
  />
<missing-glyph horiz-adv-x="700" 
d="M369 -80q-113 0 -190 78.5t-77 187.5v18l-19 31q-15 25 -9 53q6 29 31 44l7 4q18 13 43 11q-7 24 0.5 46t28.5 35l7 4q20 12 41 11l-76 120q-12 21 -12 39q0 30 21.5 52.5t51.5 22.5q42 0 65 -35l139 -221v224q0 31 21.5 53t52.5 22t52.5 -22t21.5 -53v-286
q30 -15 48 -43t18 -63v-62q0 -65 -30 -126t-92.5 -103t-143.5 -42zM451 645v-274h66q8 0 22 -2v276q0 18 -13 31t-31 13t-31 -13t-13 -31zM182 579l127 -203l24 -37q13 32 50 32h33l-160 255q-12 20 -37 20q-18 0 -31 -13t-13 -31q0 -12 7 -23zM313 220l8 5q13 9 17 24.5
t-5 30.5l-72 114q-9 14 -25 17.5t-29 -4.5l-8 -5q-13 -9 -17 -25.5t5 -29.5l72 -114q9 -14 25 -17.5t29 4.5zM359 138q0 25 12.5 50t29.5 33q-16 1 -34 15q-7 -25 -29 -37l-7 -4q-18 -11 -43 -11q8 -23 -0.5 -45.5t-28.5 -35.5l-8 -5q-24 -15 -51.5 -8.5t-44.5 31.5l-20 30
q10 -85 78.5 -143t154.5 -58q99 0 168 71.5t69 169.5v62q0 36 -26 62t-62 26h-134q-10 0 -17 -7.5t-7 -19.5q0 -27 19 -47.5t48 -20.5h42q6 0 10.5 -4.5t4.5 -10.5t-4.5 -10.5t-10.5 -4.5q-34 0 -55.5 -23.5t-21.5 -54.5q0 -6 -5 -10.5t-11 -4.5t-11 4.5t-5 10.5zM235 124
l8 5q13 9 17 24.5t-5 30.5l-72 114q-9 14 -25 17.5t-29 -4.5l-8 -5q-13 -9 -17 -25.5t5 -29.5l72 -114q9 -14 25 -17.5t29 4.5z" />
    <glyph glyph-name="f_f" unicode="ff" horiz-adv-x="875" 
d="M107 359h-94v171h94q4 97 63 133.5t178 36.5h122v-130h-70q-33 0 -44.5 -7.5t-11.5 -26.5v-6h159q4 97 63 133.5t178 36.5h122v-130h-70q-33 0 -44.5 -7.5t-11.5 -26.5v-6h126v-171h-126v-359h-237v359h-159v-359h-237v359z" />
    <glyph glyph-name=".notdef" horiz-adv-x="700" 
d="M369 -80q-113 0 -190 78.5t-77 187.5v18l-19 31q-15 25 -9 53q6 29 31 44l7 4q18 13 43 11q-7 24 0.5 46t28.5 35l7 4q20 12 41 11l-76 120q-12 21 -12 39q0 30 21.5 52.5t51.5 22.5q42 0 65 -35l139 -221v224q0 31 21.5 53t52.5 22t52.5 -22t21.5 -53v-286
q30 -15 48 -43t18 -63v-62q0 -65 -30 -126t-92.5 -103t-143.5 -42zM451 645v-274h66q8 0 22 -2v276q0 18 -13 31t-31 13t-31 -13t-13 -31zM182 579l127 -203l24 -37q13 32 50 32h33l-160 255q-12 20 -37 20q-18 0 -31 -13t-13 -31q0 -12 7 -23zM313 220l8 5q13 9 17 24.5
t-5 30.5l-72 114q-9 14 -25 17.5t-29 -4.5l-8 -5q-13 -9 -17 -25.5t5 -29.5l72 -114q9 -14 25 -17.5t29 4.5zM359 138q0 25 12.5 50t29.5 33q-16 1 -34 15q-7 -25 -29 -37l-7 -4q-18 -11 -43 -11q8 -23 -0.5 -45.5t-28.5 -35.5l-8 -5q-24 -15 -51.5 -8.5t-44.5 31.5l-20 30
q10 -85 78.5 -143t154.5 -58q99 0 168 71.5t69 169.5v62q0 36 -26 62t-62 26h-134q-10 0 -17 -7.5t-7 -19.5q0 -27 19 -47.5t48 -20.5h42q6 0 10.5 -4.5t4.5 -10.5t-4.5 -10.5t-10.5 -4.5q-34 0 -55.5 -23.5t-21.5 -54.5q0 -6 -5 -10.5t-11 -4.5t-11 4.5t-5 10.5zM235 124
l8 5q13 9 17 24.5t-5 30.5l-72 114q-9 14 -25 17.5t-29 -4.5l-8 -5q-13 -9 -17 -25.5t5 -29.5l72 -114q9 -14 25 -17.5t29 4.5z" />
    <glyph glyph-name=".null" horiz-adv-x="0" 
 />
    <glyph glyph-name="nonmarkingreturn" horiz-adv-x="333" 
 />
    <glyph glyph-name="space" unicode=" " horiz-adv-x="221" 
 />
    <glyph glyph-name="exclam" unicode="!" horiz-adv-x="334" 
d="M18 401v299h298v-299l-63 -143h-172zM291 0h-248v199h248v-199z" />
    <glyph glyph-name="quotedbl" unicode="&#x22;" horiz-adv-x="524" 
d="M240 700v-345h-196v345h196zM480 700v-345h-196v345h196z" />
    <glyph glyph-name="numbersign" unicode="#" 
d="M580 0h-162l21 148h-114l-20 -148h-161l20 148h-123v146h141l14 113h-124v146h143l21 147h160l-20 -147h114l20 147h161l-20 -147h124v-146h-143l-14 -113h126v-146h-144zM481 415h-131l-17 -130h131z" />
    <glyph glyph-name="dollar" unicode="$" 
d="M467 11v-116h-114v116q-156 5 -237 48.5t-99 144.5h268q7 -27 34 -36t95 -9q71 0 96 12t25 39v4q0 26 -15 35.5t-62 11.5l-173 6q-139 4 -196 50.5t-57 144.5v6q0 107 74.5 160.5t246.5 60.5v116h114v-116q154 -5 235.5 -51t92.5 -142h-267q-8 23 -31 34q-24 11 -86 11
q-65 0 -89.5 -10.5t-24.5 -33.5v-4q0 -26 15.5 -35.5t62.5 -10.5l172 -6q139 -4 196 -51t57 -145v-10q0 -110 -79 -164.5t-254 -59.5z" />
    <glyph glyph-name="percent" unicode="%" horiz-adv-x="1005" 
d="M238 320h-15q-111 0 -158 42t-47 143v19q0 100 47.5 143t157.5 43h15q110 0 157 -43t47 -143v-19q0 -101 -46.5 -143t-157.5 -42zM772 700l-397 -700h-140l398 700h139zM230 436q39 0 53 15.5t14 58.5v11q0 41 -13.5 56t-53.5 15q-39 0 -52.5 -15t-13.5 -56v-11
q0 -43 13.5 -58.5t52.5 -15.5zM782 -10h-14q-111 0 -158 42t-47 143v19q0 100 47 143t158 43h14q110 0 157 -43t47 -143v-19q0 -101 -46.5 -143t-157.5 -42zM775 106q39 0 53 15.5t14 58.5v11q0 41 -13.5 56t-53.5 15t-53.5 -15t-13.5 -56v-11q0 -43 14 -58.5t53 -15.5z" />
    <glyph glyph-name="ampersand" unicode="&#x26;" horiz-adv-x="954" 
d="M952 182v-182h-67q-70 0 -105 10.5t-85 40.5l-7 5q-49 -36 -112.5 -51t-157.5 -15h-91q-161 0 -240 51t-79 161v6q0 82 40.5 125.5t127.5 65.5v4q-66 45 -66 125v6q0 88 76 132t254 44h21q121 0 192 -23.5t102.5 -67t42.5 -118.5h-251q-7 24 -24.5 34.5t-57.5 10.5h-8
q-65 0 -65 -35v-4q0 -25 37 -47l232 -144l55 117h238l-122 -224q27 -17 45.5 -22t51.5 -5h23zM362 159h49q56 0 90 11l-197 121q-50 -8 -50 -58v-4q0 -39 23.5 -54.5t84.5 -15.5z" />
    <glyph glyph-name="quotesingle" unicode="'" horiz-adv-x="284" 
d="M240 700v-345h-196v345h196z" />
    <glyph glyph-name="parenleft" unicode="(" horiz-adv-x="333" 
d="M302 32v-122q-129 9 -189 91t-60 271v66q0 190 60 271.5t189 90.5v-122q-59 -11 -86 -62.5t-27 -173.5v-74q0 -122 27 -173.5t86 -62.5z" />
    <glyph glyph-name="parenright" unicode=")" horiz-adv-x="333" 
d="M31 578v122q129 -9 189 -90.5t60 -271.5v-66q0 -189 -60 -271t-189 -91v122q59 11 86 62.5t27 173.5v74q0 122 -27 173.5t-86 62.5z" />
    <glyph glyph-name="asterisk" unicode="*" horiz-adv-x="459" 
d="M407 377l-113 -83l-60 99h-8l-60 -99l-113 83l75 92l-1 3l-112 27l47 133l105 -48l3 2l-10 114h140l-10 -114l3 -2l105 48l47 -133l-112 -27l-1 -3z" />
    <glyph glyph-name="plus" unicode="+" horiz-adv-x="600" 
d="M229 258h-189v142h189v199h142v-199h189v-142h-189v-199h-142v199z" />
    <glyph glyph-name="comma" unicode="," horiz-adv-x="327" 
d="M221 -118l-15 -22h-154l75 130v10h-88v199h249v-123q0 -93 -67 -194z" />
    <glyph glyph-name="hyphen" unicode="-" horiz-adv-x="330" 
d="M312 204h-294v177h294v-177z" />
    <glyph glyph-name="period" unicode="." horiz-adv-x="327" 
d="M288 0h-249v199h249v-199z" />
    <glyph glyph-name="slash" unicode="/" horiz-adv-x="510" 
d="M131 -100h-131l379 800h131z" />
    <glyph glyph-name="zero" unicode="0" horiz-adv-x="889" 
d="M470 -10h-51q-211 0 -302 76t-91 269v29q0 194 91 270t302 76h51q212 0 302 -76t90 -270v-29q0 -193 -90.5 -269t-301.5 -76zM445 175q104 0 134.5 29.5t30.5 122.5v45q0 94 -30.5 123t-134.5 29q-105 0 -136 -29.5t-31 -122.5v-45q0 -93 31.5 -122.5t135.5 -29.5z" />
    <glyph glyph-name="one" unicode="1" horiz-adv-x="589" 
d="M539 700v-700h-250v508h-9l-241 -128v237l182 83h318z" />
    <glyph glyph-name="two" unicode="2" 
d="M789 182v-182h-762v136q0 132 56.5 190.5t207.5 79.5l180 23q38 6 51.5 17t13.5 34v3q0 27 -23 37t-92 10q-70 0 -97 -9.5t-38 -34.5h-251q19 124 105 174t248 50h50q187 0 268.5 -53t81.5 -162v-7q0 -102 -51 -153.5t-181 -70.5l-233 -29q-28 -5 -38 -15.5t-10 -30.5v-7
h514z" />
    <glyph glyph-name="three" unicode="3" 
d="M453 -10h-70q-75 0 -133 10t-109.5 34.5t-82.5 71t-39 113.5h254q6 -29 35.5 -39t102.5 -10q79 0 104.5 10t25.5 38v4q0 26 -16 35t-56 9h-186v172h175q67 0 67 42v5q0 25 -24.5 35t-84.5 10q-63 0 -88 -8t-33 -31h-256q21 117 102.5 168t237.5 51h64q339 0 339 -174v-4
q0 -66 -31.5 -99t-103.5 -42v-9q81 -6 116 -46t35 -121v-4q0 -115 -79 -168t-266 -53z" />
    <glyph glyph-name="four" unicode="4" 
d="M734 140v-140h-250v140h-462v302l351 258h361v-377h74v-183h-74zM206 332v-9h278v204h-9z" />
    <glyph glyph-name="five" unicode="5" 
d="M453 -10h-70q-75 0 -133 10t-108.5 33.5t-81.5 67.5t-40 108h254q12 -24 40 -31.5t94 -7.5q81 0 107 13t26 51v9q0 38 -28.5 51.5t-115.5 13.5q-70 0 -100 -8q-27 -7 -42 -25h-227l40 425h688v-182h-464l-12 -103h9q23 30 72 45t153 15q82 0 138.5 -15t88 -46t44.5 -71
t13 -96v-5q0 -128 -85 -190t-260 -62z" />
    <glyph glyph-name="six" unicode="6" 
d="M460 -10h-68q-189 0 -277.5 76t-88.5 269v29q0 102 21 169t67 106t111 55t162 16h51q165 0 247.5 -52t109.5 -152h-259q-10 16 -35 22.5t-83 6.5q-89 0 -116.5 -27t-27.5 -102v-14h8q37 57 206 57q93 0 154 -13.5t93.5 -42.5t45 -65.5t12.5 -91.5v-4q0 -126 -83.5 -184
t-249.5 -58zM407 164q81 0 107.5 14t26.5 50v9q0 36 -26 50t-108 14q-81 0 -107.5 -14t-26.5 -50v-9q0 -36 26.5 -50t107.5 -14z" />
    <glyph glyph-name="seven" unicode="7" 
d="M802 504l-402 -504h-325l431 508v10h-489v182h785v-196z" />
    <glyph glyph-name="eight" unicode="8" 
d="M445 -10h-75q-171 0 -260 51.5t-89 171.5v7q1 75 35 112t109 46v10q-131 20 -131 137v4q0 87 80.5 134t265.5 47h55q185 0 265.5 -47t80.5 -134v-4q0 -117 -131 -137v-10q75 -9 109 -46t35 -112v-7q0 -120 -88.5 -171.5t-260.5 -51.5zM373 429h69q45 0 63 12t18 40v5
q0 29 -24 40t-91 11q-68 0 -92 -11t-24 -40v-5q0 -28 17.5 -40t63.5 -12zM408 162q79 0 104.5 13.5t25.5 50.5v4q0 36 -20.5 50.5t-78.5 14.5h-63q-57 0 -78 -14.5t-21 -50.5v-4q0 -37 25.5 -50.5t105.5 -13.5z" />
    <glyph glyph-name="nine" unicode="9" 
d="M356 710h68q189 0 277.5 -76t88.5 -269v-29q0 -102 -21 -169t-67 -106t-111 -55t-162 -16h-51q-165 0 -247.5 52t-109.5 152h259q10 -16 35 -22.5t83 -6.5q89 0 116.5 27t27.5 102v14h-8q-37 -57 -206 -57q-93 0 -154 13.5t-93.5 42.5t-45 65.5t-12.5 91.5v4
q0 126 83.5 184t249.5 58zM409 536q-81 0 -107.5 -14t-26.5 -50v-9q0 -36 26 -50t108 -14q81 0 107.5 14t26.5 50v9q0 36 -26.5 50t-107.5 14z" />
    <glyph glyph-name="colon" unicode=":" horiz-adv-x="327" 
d="M288 331h-249v199h249v-199zM288 0h-249v199h249v-199z" />
    <glyph glyph-name="semicolon" unicode=";" horiz-adv-x="327" 
d="M288 331h-249v199h249v-199zM221 -118l-15 -22h-154l75 130v10h-88v199h249v-123q0 -93 -67 -194z" />
    <glyph glyph-name="less" unicode="&#x3c;" horiz-adv-x="600" 
d="M530 230v-155l-457 182v143l457 182v-156l-266 -95v-6z" />
    <glyph glyph-name="equal" unicode="=" horiz-adv-x="600" 
d="M540 382h-480v142h480v-142zM540 133h-480v142h480v-142z" />
    <glyph glyph-name="greater" unicode="&#x3e;" horiz-adv-x="600" 
d="M73 427v155l457 -182v-143l-457 -182v156l266 95v6z" />
    <glyph glyph-name="question" unicode="?" horiz-adv-x="719" 
d="M481 253h-270v19q0 54 27.5 78.5t117.5 55.5q63 20 80 34t17 40v4q-1 25 -20 35.5t-65 10.5q-57 0 -77 -16q-21 -15 -25 -61h-251q6 138 95 197.5t253 59.5h17q165 0 245 -52.5t80 -147.5v-21q0 -79 -36 -124.5t-129 -73.5q-49 -17 -59 -38zM466 0h-248v199h248v-199z
" />
    <glyph glyph-name="at" unicode="@" horiz-adv-x="1036" 
d="M510 -154q-486 0 -486 380v32q0 196 132.5 311t367.5 115q231 0 362 -89.5t131 -277.5v-12q0 -293 -285 -293q-90 0 -126 22.5t-41 66.5h-7q-40 -67 -148 -67h-12q-99 0 -140.5 49t-27.5 173l-1 -1q13 126 66 175.5t155 49.5h12q51 0 84 -19.5t43 -46.5h5l8 58h217
l-40 -297q-5 -35 2 -47.5t29 -12.5q39 0 66 54.5t27 132.5v12q0 141 -95 204.5t-288 63.5q-190 0 -286 -89.5t-96 -234.5v-29q0 -144 90 -212.5t287 -68.5q158 0 253 24v-100q-76 -26 -258 -26zM496 175q43 0 58 16.5t22 65.5l2 10q6 40 -5.5 56t-51.5 16q-42 0 -58 -17
t-23 -64l-1 -10q-6 -40 5 -56.5t52 -16.5z" />
    <glyph glyph-name="A" unicode="A" horiz-adv-x="1021" 
d="M709 700l312 -700h-297l-51 122h-339l-50 -122h-284l312 700h397zM508 523h-9l-91 -223h191z" />
    <glyph glyph-name="B" unicode="B" horiz-adv-x="877" 
d="M852 202v-7q0 -104 -66 -149.5t-228 -45.5h-516v700h502q162 0 228 -42t66 -134v-6q0 -72 -35.5 -111t-116.5 -46v-9q90 -5 128 -41.5t38 -108.5zM489 523h-184v-100h202q41 0 54.5 9t13.5 36v4q0 29 -17 40t-69 11zM483 282h-178v-105h178q65 0 85.5 10.5t20.5 39.5v6
q0 30 -19.5 39.5t-86.5 9.5z" />
    <glyph glyph-name="C" unicode="C" horiz-adv-x="905" 
d="M481 -10h-49q-223 0 -314.5 75t-91.5 264v42q0 189 91.5 264t314.5 75h49q200 0 291.5 -60.5t109.5 -201.5h-268q-12 42 -45 57t-110 15h-6q-53 0 -85.5 -9t-48.5 -31t-20.5 -47t-4.5 -69v-29q0 -43 5 -68t20.5 -47t48 -31t85.5 -9h6q77 0 110 15t45 57h268
q-18 -141 -109.5 -201.5t-291.5 -60.5z" />
    <glyph glyph-name="D" unicode="D" horiz-adv-x="899" 
d="M872 360v-21q0 -190 -88.5 -264.5t-314.5 -74.5h-427v700h421q226 0 317.5 -76t91.5 -264zM431 510h-126v-320h126q58 0 93 8.5t52.5 30t23 47t5.5 69.5v9q0 45 -5.5 70.5t-23 47t-52.5 30t-93 8.5z" />
    <glyph glyph-name="E" unicode="E" horiz-adv-x="775" 
d="M737 179v-179h-695v700h695v-179h-432v-81h432v-179h-432v-82h432z" />
    <glyph glyph-name="F" unicode="F" horiz-adv-x="775" 
d="M305 261v-261h-263v700h695v-179h-432v-81h432v-179h-432z" />
    <glyph glyph-name="G" unicode="G" horiz-adv-x="935" 
d="M499 -10h-56q-228 0 -322.5 75.5t-94.5 264.5v40q0 188 95 264t322 76h56q194 0 288 -50.5t121 -176.5h-282q-20 23 -50 30q-29 7 -99 7h-21q-53 0 -86 -9t-49.5 -30.5t-21.5 -47t-5 -69.5v-33q0 -43 5 -68.5t21.5 -47t49.5 -30.5t86 -9h26q95 0 128.5 16t33.5 69h-209
v170h474v-114q0 -184 -95.5 -255.5t-314.5 -71.5z" />
    <glyph glyph-name="H" unicode="H" horiz-adv-x="942" 
d="M899 700v-700h-263v248h-331v-248h-263v700h263v-247h331v247h263z" />
    <glyph glyph-name="I" unicode="I" horiz-adv-x="347" 
d="M305 700v-700h-263v700h263z" />
    <glyph glyph-name="J" unicode="J" horiz-adv-x="537" 
d="M156 0h-154v205h72q78 0 112 8.5t46 31t12 75.5v380h267v-377q0 -80 -8.5 -131.5t-30 -91t-63 -60t-101.5 -30.5t-152 -10z" />
    <glyph glyph-name="K" unicode="K" horiz-adv-x="955" 
d="M305 162v-162h-263v700h263v-261h9l287 261h346l-327 -279l335 -421h-344l-194 250h-9z" />
    <glyph glyph-name="L" unicode="L" horiz-adv-x="713" 
d="M699 205v-205h-657v700h263v-495h394z" />
    <glyph glyph-name="M" unicode="M" horiz-adv-x="1246" 
d="M1203 700v-700h-260v507h-8l-193 -507h-238l-194 507h-8v-507h-260v700h453l136 -371h9l136 371h427z" />
    <glyph glyph-name="N" unicode="N" horiz-adv-x="993" 
d="M951 700v-700h-394l-258 444h-8v-444h-249v700h394l258 -444h9v444h248z" />
    <glyph glyph-name="O" unicode="O" horiz-adv-x="942" 
d="M499 -10h-56q-227 0 -322 75t-95 264v41q0 188 95 264t322 76h56q227 0 322 -76t95 -264v-41q0 -189 -95 -264t-322 -75zM463 180h16q55 0 89.5 9t51.5 31t22.5 47.5t5.5 67.5v29q0 43 -5.5 69t-22.5 47.5t-51.5 30.5t-89.5 9h-16q-55 0 -89.5 -9t-51.5 -30.5
t-22.5 -47.5t-5.5 -69v-29q0 -42 5.5 -67.5t22.5 -47.5t51.5 -31t89.5 -9z" />
    <glyph glyph-name="P" unicode="P" horiz-adv-x="864" 
d="M305 188v-188h-263v700h495q176 0 245.5 -55.5t69.5 -191.5v-18q0 -131 -73 -189t-242 -58h-232zM499 523h-194v-158h195q54 0 71.5 15.5t17.5 60.5v7q0 45 -18 60t-72 15z" />
    <glyph glyph-name="Q" unicode="Q" horiz-adv-x="942" 
d="M928 204v-204h-485q-228 0 -322.5 73.5t-94.5 261.5v35q0 188 95 264t322 76h56q224 0 320.5 -75t96.5 -236v-9q0 -149 -110 -177v-9h122zM463 190h16q55 0 89.5 9t51.5 31t22.5 47.5t5.5 67.5v19q0 43 -5.5 69t-22.5 47.5t-51.5 30.5t-89.5 9h-16q-55 0 -89.5 -9
t-51.5 -30.5t-22.5 -47.5t-5.5 -69v-19q0 -42 5.5 -67.5t22.5 -47.5t51.5 -31t89.5 -9z" />
    <glyph glyph-name="R" unicode="R" horiz-adv-x="884" 
d="M305 215v-215h-263v700h496q178 0 246 -41t68 -147v-19q0 -79 -32 -118t-109 -49v-9q81 -11 111 -42t30 -125v-150h-263v146q0 41 -20.5 55t-90.5 14h-173zM483 523h-178v-132h217q35 0 51 13.5t16 45.5v5q0 40 -21.5 54t-84.5 14z" />
    <glyph glyph-name="S" unicode="S" horiz-adv-x="869" 
d="M460 -10h-41q-182 0 -283 50t-117 171h281q9 -30 41 -39.5t109 -9.5q79 0 106.5 11t27.5 38v8q0 21 -15.5 30t-56.5 11l-182 6q-165 6 -230 51t-65 152v7q0 125 88.5 179.5t294.5 54.5h29q370 0 398 -231h-281q-10 33 -40 46t-98 13q-71 0 -97.5 -11.5t-26.5 -39.5v-4
q0 -23 15 -32t57 -11l180 -6q166 -6 231 -49.5t65 -148.5v-7q0 -131 -91 -185t-299 -54z" />
    <glyph glyph-name="T" unicode="T" horiz-adv-x="762" 
d="M511 495v-495h-263v495h-237v205h740v-205h-240z" />
    <glyph glyph-name="U" unicode="U" horiz-adv-x="851" 
d="M454 -10h-57q-115 0 -184.5 14t-112.5 52.5t-58.5 98t-15.5 158.5v387h267v-379q0 -90 23.5 -114.5t102.5 -24.5h13q78 0 102 25t24 114v379h268v-387q0 -99 -15.5 -158.5t-59 -98t-113 -52.5t-184.5 -14z" />
    <glyph glyph-name="V" unicode="V" horiz-adv-x="956" 
d="M956 700l-311 -700h-333l-312 700h305l179 -452h9l180 452h283z" />
    <glyph glyph-name="W" unicode="W" horiz-adv-x="1301" 
d="M1301 700l-198 -700h-337l-107 396l-124 -396h-334l-201 700h287l105 -463h9l119 463h285l121 -463h9l101 463h265z" />
    <glyph glyph-name="X" unicode="X" horiz-adv-x="966" 
d="M661 360l305 -360h-339l-148 204h-9l-156 -204h-313l307 363l-284 337h335l129 -180h8l136 180h316z" />
    <glyph glyph-name="Y" unicode="Y" horiz-adv-x="897" 
d="M580 296v-296h-264v296l-316 404h312l148 -214h8l148 214h281z" />
    <glyph glyph-name="Z" unicode="Z" horiz-adv-x="821" 
d="M798 196v-196h-774v179l395 325h-360v196h719v-179l-394 -325h414z" />
    <glyph glyph-name="bracketleft" unicode="[" horiz-adv-x="345" 
d="M314 19v-109h-248v790h248v-109h-117v-572h117z" />
    <glyph glyph-name="backslash" unicode="\" horiz-adv-x="510" 
d="M131 700l379 -800h-131l-379 800h131z" />
    <glyph glyph-name="bracketright" unicode="]" horiz-adv-x="345" 
d="M31 591v109h248v-790h-248v109h117v572h-117z" />
    <glyph glyph-name="asciicircum" unicode="^" horiz-adv-x="600" 
d="M353 700l211 -506h-157l-105 265h-4l-105 -265h-157l211 506h106z" />
    <glyph glyph-name="underscore" unicode="_" horiz-adv-x="659" 
d="M659 -150h-659v115h659v-115z" />
    <glyph glyph-name="grave" unicode="`" horiz-adv-x="500" 
d="M350 700l85 -120h-237l-134 120h286z" />
    <glyph glyph-name="a" unicode="a" horiz-adv-x="673" 
d="M656 317v-317h-234v69h-7q-37 -79 -187 -79q-110 0 -164.5 40.5t-54.5 128.5v6q0 77 45.5 113t141.5 41l223 9v14q0 35 -15.5 46t-61.5 11q-38 0 -54 -7t-23 -24h-240q27 91 97.5 131.5t222.5 40.5h8q175 0 239 -45.5t64 -177.5zM247 169v-6q0 -24 15 -33.5t51 -9.5
q106 0 106 80v12l-120 -4q-29 -2 -40.5 -10.5t-11.5 -28.5z" />
    <glyph glyph-name="b" unicode="b" horiz-adv-x="720" 
d="M255 0h-237v700h237v-243h6q39 83 181 83h6q134 0 195 -60.5t61 -204.5v-20q0 -144 -61 -204.5t-195 -60.5h-6q-142 0 -181 83h-6v-73zM361 159q69 0 87.5 20t18.5 81v10q0 61 -18.5 81t-87.5 20t-87.5 -20t-18.5 -81v-10q0 -61 18.5 -81t87.5 -20z" />
    <glyph glyph-name="c" unicode="c" horiz-adv-x="688" 
d="M360 -10h-28q-163 0 -239.5 58t-76.5 207v20q0 149 76.5 207t239.5 58h28q155 0 227.5 -51t88.5 -155h-237q-12 21 -29.5 29t-58.5 8q-61 0 -79.5 -21t-18.5 -76v-18q0 -56 18 -76.5t80 -20.5q41 0 58.5 8t29.5 29h237q-16 -104 -88.5 -155t-227.5 -51z" />
    <glyph glyph-name="d" unicode="d" horiz-adv-x="720" 
d="M702 700v-700h-237v73h-6q-39 -83 -181 -83h-6q-134 0 -195 60.5t-61 204.5v20q0 144 61 204.5t195 60.5h6q142 0 181 -83h6v243h237zM359 159q69 0 87.5 20t18.5 81v10q0 61 -18.5 81t-87.5 20t-87.5 -20t-18.5 -81v-10q0 -61 18.5 -81t87.5 -20z" />
    <glyph glyph-name="e" unicode="e" horiz-adv-x="682" 
d="M427 175h236q-16 -67 -47.5 -105.5t-96 -59t-172.5 -20.5h-11q-166 0 -243 57.5t-77 206.5v21q0 149 77 207t243 58h12q165 0 241.5 -58t76.5 -207v-46h-413q2 -51 18.5 -67.5t72.5 -16.5q39 0 56 6t27 24zM341 400q-50 0 -67.5 -14.5t-19.5 -56.5h175v6q0 36 -19.5 50.5
t-68.5 14.5z" />
    <glyph glyph-name="f" unicode="f" horiz-adv-x="479" 
d="M107 359h-94v171h94q4 97 63 133.5t178 36.5h122v-130h-70q-33 0 -44.5 -7.5t-11.5 -26.5v-6h126v-171h-126v-359h-237v359z" />
    <glyph glyph-name="g" unicode="g" horiz-adv-x="708" 
d="M363 -170h-17q-155 0 -232 35t-95 118h235q8 -11 28 -15t69 -4q63 0 83 17.5t20 65.5v54h-7q-36 -75 -166 -75h-5q-138 0 -199 55.5t-61 190.5v22q0 135 59 190.5t192 55.5h5q139 0 175 -76h7v66h237v-467q0 -130 -74.5 -181.5t-253.5 -51.5zM354 190q67 0 83.5 15
t16.5 72v11q0 57 -16.5 72t-83.5 15q-66 0 -83.5 -15.5t-17.5 -71.5v-11q0 -56 17.5 -71.5t83.5 -15.5z" />
    <glyph glyph-name="h" unicode="h" horiz-adv-x="668" 
d="M651 341v-341h-237v287q0 54 -14.5 68.5t-61.5 14.5q-48 0 -65.5 -21.5t-17.5 -78.5v-270h-237v700h237v-253h6q39 93 176 93q53 0 89 -7.5t66 -28t44.5 -61t14.5 -102.5z" />
    <glyph glyph-name="i" unicode="i" horiz-adv-x="272" 
d="M18 700h237v-131h-237v131zM18 530h237v-530h-237v530z" />
    <glyph glyph-name="j" unicode="j" horiz-adv-x="272" 
d="M18 700h237v-131h-237v131zM18 530h237v-388q0 -134 -10.5 -186t-57.5 -126h-232q40 66 51.5 116t11.5 141v443z" />
    <glyph glyph-name="k" unicode="k" horiz-adv-x="721" 
d="M255 95v-95h-237v700h237v-363h6l170 193h268l-207 -205l229 -325h-290l-102 162h-8z" />
    <glyph glyph-name="l" unicode="l" horiz-adv-x="272" 
d="M255 700v-700h-237v700h237z" />
    <glyph glyph-name="m" unicode="m" horiz-adv-x="1038" 
d="M1020 341v-341h-237v287q0 54 -13 68.5t-56 14.5q-45 0 -61 -20.5t-16 -75.5v-274h-236v287q0 54 -13 68.5t-57 14.5q-45 0 -60.5 -20.5t-15.5 -75.5v-274h-237v530h237v-84h6q35 94 170 94q67 0 117 -18q51 -19 73 -76h6q38 94 182 94q52 0 87 -7.5t65 -28t44.5 -61
t14.5 -102.5z" />
    <glyph glyph-name="n" unicode="n" horiz-adv-x="668" 
d="M651 341v-341h-237v287q0 54 -14.5 68.5t-61.5 14.5q-48 0 -65.5 -21.5t-17.5 -78.5v-270h-237v530h237v-83h6q39 93 176 93q53 0 89 -7.5t66 -28t44.5 -61t14.5 -102.5z" />
    <glyph glyph-name="o" unicode="o" horiz-adv-x="718" 
d="M381 -10h-44q-171 0 -246 60.5t-75 204.5v21q0 143 75.5 203.5t245.5 60.5h44q171 0 246 -60.5t75 -204.5v-21q0 -143 -75.5 -203.5t-245.5 -60.5zM359 159q68 0 87 18.5t19 82.5v10q0 63 -19 82t-87 19t-87 -19t-19 -82v-10q0 -64 19 -82.5t87 -18.5z" />
    <glyph glyph-name="p" unicode="p" horiz-adv-x="720" 
d="M18 -170v700h237v-73h6q39 83 181 83h6q134 0 195 -60.5t61 -204.5v-20q0 -144 -61 -204.5t-195 -60.5h-6q-142 0 -181 83h-6v-243h-237zM361 371q-69 0 -87.5 -20t-18.5 -81v-10q0 -61 18.5 -81t87.5 -20t87.5 20t18.5 81v10q0 61 -18.5 81t-87.5 20z" />
    <glyph glyph-name="q" unicode="q" horiz-adv-x="720" 
d="M465 530h237v-700h-237v243h-6q-39 -83 -181 -83h-6q-134 0 -195 60.5t-61 204.5v20q0 144 61 204.5t195 60.5h6q142 0 181 -83h6v73zM359 371q-69 0 -87.5 -20t-18.5 -81v-10q0 -61 18.5 -81t87.5 -20t87.5 20t18.5 81v10q0 61 -18.5 81t-87.5 20z" />
    <glyph glyph-name="r" unicode="r" horiz-adv-x="451" 
d="M440 530h7v-186h-65q-81 0 -104 -22.5t-23 -86.5v-235h-237v530h237v-84h6q18 48 59 66t120 18z" />
    <glyph glyph-name="s" unicode="s" horiz-adv-x="701" 
d="M366 -10h-22q-151 0 -229 36.5t-98 125.5h253q18 -31 90 -31q44 0 60.5 9t16.5 29v4q0 16 -10.5 23.5t-42.5 9.5l-165 6q-111 4 -150 40.5t-39 114.5v8q0 94 77 134.5t242 40.5h11q140 0 220 -34q82 -35 98 -128h-253q-11 18 -27 24.5t-49 6.5q-41 0 -56.5 -8.5
t-15.5 -27.5v-4q0 -16 11 -23.5t43 -9.5l165 -6q111 -4 150 -40.5t39 -114.5v-9q0 -95 -74.5 -135.5t-244.5 -40.5z" />
    <glyph glyph-name="t" unicode="t" horiz-adv-x="465" 
d="M94 359h-80v171h80v170h237v-170h116v-171h-116v-119q0 -51 14.5 -64.5t68.5 -13.5h33v-162h-112q-140 0 -190.5 43t-50.5 145v171z" />
    <glyph glyph-name="u" unicode="u" horiz-adv-x="668" 
d="M17 189v341h237v-287q0 -54 14.5 -68.5t61.5 -14.5q48 0 65.5 21.5t17.5 78.5v270h237v-530h-237v83h-6q-39 -93 -176 -93q-53 0 -89 7.5t-66 28t-44.5 61t-14.5 102.5z" />
    <glyph glyph-name="v" unicode="v" horiz-adv-x="684" 
d="M693 530l-199 -530h-304l-199 530h264l94 -320h7l96 320h241z" />
    <glyph glyph-name="w" unicode="w" horiz-adv-x="1079" 
d="M1079 530l-153 -530h-289l-89 285l-88 -285h-304l-156 530h258l78 -313h7l92 313h239l91 -313h7l77 313h230z" />
    <glyph glyph-name="x" unicode="x" horiz-adv-x="803" 
d="M562 271l241 -271h-301l-101 142h-7l-112 -142h-282l236 269l-221 261h300l90 -124h7l94 124h283z" />
    <glyph glyph-name="y" unicode="y" horiz-adv-x="656" 
d="M665 530l-299 -700h-250l86 169l-211 531h254l86 -280h7l87 280h240z" />
    <glyph glyph-name="z" unicode="z" horiz-adv-x="624" 
d="M608 171v-171h-591v162l266 197h-244v171h547v-162l-267 -197h289z" />
    <glyph glyph-name="braceleft" unicode="{" horiz-adv-x="346" 
d="M316 19v-109h-47q-105 0 -141 40.5t-36 148.5v38q0 62 -12.5 78t-69.5 20v140q57 4 69.5 20t12.5 78v38q0 108 36 148.5t141 40.5h47v-109h-25q-42 0 -55 -23.5t-13 -103.5v-33q0 -66 -18.5 -89t-88.5 -33v-8q70 -10 88.5 -33t18.5 -89v-33q0 -80 13 -103.5t55 -23.5h25z
" />
    <glyph glyph-name="bar" unicode="|" horiz-adv-x="309" 
d="M209 -100h-109v800h109v-800z" />
    <glyph glyph-name="braceright" unicode="}" horiz-adv-x="346" 
d="M77 -90h-47v109h25q42 0 55 23.5t13 103.5v33q0 66 18.5 89t88.5 33v8q-70 10 -88.5 33t-18.5 89v33q0 80 -13 103.5t-55 23.5h-25v109h47q105 0 141 -40.5t36 -148.5v-38q0 -62 12.5 -78t69.5 -20v-140q-57 -4 -69.5 -20t-12.5 -78v-38q0 -108 -36 -148.5t-141 -40.5z
" />
    <glyph glyph-name="asciitilde" unicode="~" horiz-adv-x="600" 
d="M422 225q-48 0 -130.5 33t-117.5 33q-65 0 -114 -61v147q14 22 44.5 39t73.5 17q48 0 130.5 -33t117.5 -33q65 0 114 61v-148q-15 -21 -45 -38t-73 -17z" />
    <glyph glyph-name="exclamdown" unicode="&#xa1;" horiz-adv-x="334" 
d="M43 530h248v-199h-248v199zM316 129v-299h-298v299l63 143h172z" />
    <glyph glyph-name="cent" unicode="&#xa2;" horiz-adv-x="724" 
d="M422 -9v-96h-115v96q-142 5 -210 64.5t-68 199.5v20q0 140 68 199.5t210 64.5v96h115v-96q134 -7 197 -57.5t79 -147.5h-236q-10 21 -30 29t-67 8q-62 0 -80.5 -21t-18.5 -76v-18q0 -56 18.5 -76.5t80.5 -20.5q47 0 67 8t30 29h236q-16 -97 -79 -147.5t-197 -57.5z" />
    <glyph glyph-name="sterling" unicode="&#xa3;" 
d="M698 394v-88h-351v-124h442v-182h-765v182h78v124h-78v88h78v9q0 166 78.5 236.5t255.5 70.5h23q153 0 236.5 -51.5t102.5 -161.5h-248q-8 19 -29 26t-70 7q-64 0 -84 -22.5t-20 -74.5v-39h351z" />
    <glyph glyph-name="currency" unicode="&#xa4;" horiz-adv-x="600" 
d="M300 149q-40 0 -72 6l-89 -89l-101 101l80 79q-12 34 -12 83q0 48 12 83l-80 79l101 101l89 -89q32 6 72 6t72 -6l89 89l101 -101l-80 -79q12 -39 12 -83t-12 -83l80 -79l-101 -101l-89 89q-32 -6 -72 -6zM300 257q41 0 56.5 15.5t15.5 56.5t-15.5 56.5t-56.5 15.5
t-56.5 -15.5t-15.5 -56.5t15.5 -56.5t56.5 -15.5z" />
    <glyph glyph-name="yen" unicode="&#xa5;" 
d="M533 242v-242h-250v242h-224v89h224v26l-10 12h-214v89h141l-200 242h303l116 -170h7l117 170h273l-200 -242h142v-89h-215l-10 -12v-26h225v-89h-225z" />
    <glyph glyph-name="brokenbar" unicode="&#xa6;" horiz-adv-x="309" 
d="M209 410h-109v290h109v-290zM209 -100h-109v290h109v-290z" />
    <glyph glyph-name="section" unicode="&#xa7;" horiz-adv-x="752" 
d="M388 -170h-15q-159 0 -242.5 41.5t-90.5 151.5h202q5 -42 35 -55.5t103 -13.5q72 0 98 11t26 40v5q0 23 -15.5 33t-56.5 12l-155 9q-101 5 -154 22t-72.5 47.5t-19.5 85.5v8q0 56 26 86.5t86 39.5v7q-61 14 -84.5 47.5t-23.5 95.5v11q0 104 75.5 150t253.5 46h15
q156 0 241.5 -42t91.5 -151h-202q-4 40 -34 54.5t-104 14.5q-73 0 -98.5 -11t-25.5 -40v-5q0 -23 15.5 -33t56.5 -12l154 -9q149 -7 198 -40t49 -115v-8q0 -56 -26 -86.5t-86 -39.5v-7q61 -14 84.5 -47.5t23.5 -95.5v-11q0 -104 -75.5 -150t-253.5 -46zM376 215
q78 0 100.5 8.5t22.5 41.5v9q0 34 -22.5 42.5t-100.5 8.5q-77 0 -99.5 -8.5t-22.5 -42.5v-9q0 -33 22.5 -41.5t99.5 -8.5z" />
    <glyph glyph-name="dieresis" unicode="&#xa8;" horiz-adv-x="500" 
d="M39 700h191v-130h-191v130zM270 700h191v-130h-191v130z" />
    <glyph glyph-name="copyright" unicode="&#xa9;" horiz-adv-x="868" 
d="M483 -10h-98q-186 0 -271 78t-85 232v100q0 154 85 232t271 78h98q186 0 271 -78t85 -232v-100q0 -154 -85 -232t-271 -78zM400 25h68q99 0 165 19.5t102 60t50.5 92.5t14.5 127v52q0 75 -14.5 127t-50.5 92.5t-102 60t-165 19.5h-68q-98 0 -164 -19.5t-102 -60
t-50.5 -92.5t-14.5 -127v-52q0 -75 14.5 -127t50.5 -92.5t102 -60t164 -19.5zM461 134h-41q-135 0 -191.5 46t-56.5 163v14q0 117 56.5 163t191.5 46h41q120 0 174.5 -34t69.5 -116l4 -16h-184l-4 9q-7 20 -22 25.5t-56 5.5h-4q-54 0 -68.5 -15.5t-14.5 -66.5v-16
q0 -51 14.5 -66.5t68.5 -15.5h4q41 0 56 5.5t22 25.5l4 9h184l-4 -16q-15 -82 -69.5 -116t-174.5 -34z" />
    <glyph glyph-name="ordfeminine" unicode="&#xaa;" horiz-adv-x="554" 
d="M537 537v-257h-207v57h-5q-24 -65 -143 -65q-92 0 -132.5 32t-40.5 103v5q0 62 36.5 90t114.5 31l168 7v12q0 21 -9.5 28t-37.5 7q-37 0 -44 -20h-213q22 74 79.5 107.5t182.5 33.5h5q140 0 193 -36t53 -135zM220 418v-4q0 -16 8.5 -22t30.5 -6q69 0 69 52v7l-75 -3
q-19 -1 -26 -5.5t-7 -18.5z" />
    <glyph glyph-name="guillemotleft" unicode="&#xab;" horiz-adv-x="502" 
d="M32 289v6l84 219h147l-89 -222l89 -222h-147zM236 289v6l84 219h147l-89 -222l89 -222h-147z" />
    <glyph glyph-name="logicalnot" unicode="&#xac;" horiz-adv-x="600" 
d="M566 400v-347h-142v205h-374v142h516z" />
    <glyph glyph-name="registered" unicode="&#xae;" horiz-adv-x="868" 
d="M483 -10h-98q-186 0 -271 78t-85 232v100q0 154 85 232t271 78h98q186 0 271 -78t85 -232v-100q0 -154 -85 -232t-271 -78zM400 25h68q99 0 165 19.5t102 60t50.5 92.5t14.5 127v52q0 75 -14.5 127t-50.5 92.5t-102 60t-165 19.5h-68q-98 0 -164 -19.5t-102 -60
t-50.5 -92.5t-14.5 -127v-52q0 -75 14.5 -127t50.5 -92.5t102 -60t164 -19.5zM383 262v-122h-181v420h304q101 0 144.5 -26.5t43.5 -85.5v-12q0 -52 -22.5 -76t-78.5 -27v-4q60 -6 80.5 -25.5t20.5 -77.5v-86h-180v85q0 21 -10.5 29t-50.5 8h-70zM453 444h-70v-68h101
q16 0 23 6t7 23v5q0 21 -11.5 27.5t-49.5 6.5z" />
    <glyph glyph-name="overscore" unicode="&#xaf;" horiz-adv-x="500" 
d="M470 680v-90h-441v90h441z" />
    <glyph glyph-name="degree" unicode="&#xb0;" horiz-adv-x="413" 
d="M206 386q-68 0 -115.5 45.5t-47.5 116.5t47.5 116.5t115.5 45.5q69 0 116 -45.5t47 -116.5t-47 -116.5t-116 -45.5zM206 479q28 0 47.5 19.5t19.5 49.5t-19.5 49.5t-47.5 19.5t-47 -19.5t-19 -49.5t19 -49.5t47 -19.5z" />
    <glyph glyph-name="plusminus" unicode="&#xb1;" horiz-adv-x="600" 
d="M229 378h-149v142h149v112h142v-112h149v-142h-149v-112h-142v112zM520 64h-440v142h440v-142z" />
    <glyph glyph-name="twosuperior" unicode="&#xb2;" horiz-adv-x="546" 
d="M533 503v-123h-520v89q0 78 38.5 112.5t131.5 48.5l113 16q19 3 24 7.5t5 13.5v3q0 12 -9 16.5t-36 4.5q-29 0 -41 -6.5t-17 -24.5h-207q13 146 255 146h11q252 0 252 -127v-6q0 -63 -32.5 -92t-120.5 -42l-146 -20q-17 -1 -17 -12v-4h316z" />
    <glyph glyph-name="threesuperior" unicode="&#xb3;" horiz-adv-x="546" 
d="M294 374h-23q-125 0 -190.5 33t-74.5 116h208q5 -20 18 -27t43 -7q33 0 42 5.5t9 21.5v4q0 18 -31 18h-85v108h74q17 0 22.5 4.5t5.5 14.5v4q0 12 -7.5 17t-29.5 5q-24 0 -33.5 -6t-14.5 -24h-209q8 74 59.5 109.5t182.5 35.5h19q131 0 189 -26t58 -81v-4
q0 -35 -21.5 -54t-70.5 -25v-7q52 -4 78.5 -25t26.5 -69v-5q0 -70 -58.5 -103t-186.5 -33z" />
    <glyph glyph-name="acute" unicode="&#xb4;" horiz-adv-x="500" 
d="M435 700l-134 -120h-237l85 120h286z" />
    <glyph glyph-name="mu" unicode="&#xb5;" horiz-adv-x="668" 
d="M651 530v-530h-234v83h-7q-35 -92 -149 -92q-37 0 -48 10h-4l22 -163v-8h-213v700h237v-287q0 -54 14.5 -68.5t64.5 -14.5t65 14.5t15 68.5v287h237z" />
    <glyph glyph-name="paragraph" unicode="&#xb6;" horiz-adv-x="630" 
d="M581 700v-800h-124v673h-74v-673h-125v440h-17q-120 0 -175 37q-56 38 -56 138v9q0 103 52.5 139.5t178.5 36.5h340z" />
    <glyph glyph-name="middot" unicode="&#xb7;" horiz-adv-x="365" 
d="M307 192h-249v199h249v-199z" />
    <glyph glyph-name="cedilla" unicode="&#xb8;" horiz-adv-x="500" 
d="M108 -140l67 140h215l-44 -140h-238z" />
    <glyph glyph-name="onesuperior" unicode="&#xb9;" horiz-adv-x="399" 
d="M372 800v-420h-206v276h-6l-140 -79v176l108 47h244z" />
    <glyph glyph-name="ordmasculine" unicode="&#xba;" horiz-adv-x="583" 
d="M310 272h-32q-135 0 -198.5 45.5t-63.5 164.5v15q0 120 63.5 165.5t199.5 45.5h31q135 0 196.5 -45.5t61.5 -165.5v-15q0 -119 -61.5 -164.5t-196.5 -45.5zM292 418q45 0 56 10.5t11 55.5v13q0 44 -11 54.5t-56 10.5t-56 -10.5t-11 -54.5v-13q0 -45 11 -55.5t56 -10.5z
" />
    <glyph glyph-name="guillemotright" unicode="&#xbb;" horiz-adv-x="502" 
d="M265 295v-6l-84 -219h-147l89 222l-89 222h147zM470 295v-6l-84 -219h-147l89 222l-89 222h147z" />
    <glyph glyph-name="onequarter" unicode="&#xbc;" horiz-adv-x="1180" 
d="M372 700v-420h-206v276h-6l-140 -79v176l108 47h244zM819 700l-397 -700h-140l398 700h139zM1131 78v-78h-206v78h-282v187l183 155h305v-219h39v-123h-39zM798 208v-7h127v109h-7z" />
    <glyph glyph-name="onehalf" unicode="&#xbd;" horiz-adv-x="1224" 
d="M372 700v-420h-206v276h-6l-140 -79v176l108 47h244zM820 700l-397 -700h-140l398 700h139zM1211 123v-123h-520v89q0 78 38.5 112.5t131.5 48.5l113 16q19 3 24 7.5t5 13.5v3q0 12 -9 16.5t-36 4.5q-29 0 -41 -6.5t-17 -24.5h-207q13 146 255 146h11q252 0 252 -127v-6
q0 -63 -32.5 -92t-120.5 -42l-146 -20q-17 -1 -17 -12v-4h316z" />
    <glyph glyph-name="threequarters" unicode="&#xbe;" horiz-adv-x="1302" 
d="M294 274h-23q-125 0 -190.5 33t-74.5 116h208q5 -20 18 -27t43 -7q33 0 42 5.5t9 21.5v4q0 18 -31 18h-85v108h74q17 0 22.5 4.5t5.5 14.5v4q0 12 -7.5 17t-29.5 5q-24 0 -33.5 -6t-14.5 -24h-209q8 74 59.5 109.5t182.5 35.5h19q131 0 189 -26t58 -81v-4
q0 -35 -21.5 -54t-70.5 -25v-7q52 -4 78.5 -25t26.5 -69v-5q0 -70 -58.5 -103t-186.5 -33zM942 700l-397 -700h-140l398 700h139zM1253 78v-78h-206v78h-282v187l183 155h305v-219h39v-123h-39zM920 208v-7h127v109h-7z" />
    <glyph glyph-name="questiondown" unicode="&#xbf;" horiz-adv-x="719" 
d="M253 530h248v-199h-248v199zM238 277h270v-19q0 -54 -27.5 -78.5t-117.5 -55.5q-63 -20 -80 -34t-17 -40v-4q1 -25 20 -35.5t65 -10.5q56 0 77 15q21 16 25 62h251q-6 -138 -95.5 -197.5t-252.5 -59.5h-17q-164 0 -244.5 52.5t-80.5 147.5v21q0 79 36 124.5t129 73.5
q49 17 59 38z" />
    <glyph glyph-name="Agrave" unicode="&#xc0;" horiz-adv-x="1021" 
d="M545 860l85 -120h-237l-134 120h286zM709 700l312 -700h-297l-51 122h-339l-50 -122h-284l312 700h397zM508 523h-9l-91 -223h191z" />
    <glyph glyph-name="Aacute" unicode="&#xc1;" horiz-adv-x="1021" 
d="M763 860l-134 -120h-237l85 120h286zM709 700l312 -700h-297l-51 122h-339l-50 -122h-284l312 700h397zM508 523h-9l-91 -223h191z" />
    <glyph glyph-name="Acircumflex" unicode="&#xc2;" horiz-adv-x="1021" 
d="M679 860l111 -120h-192l-87 60l-86 -60h-192l110 120h336zM709 700l312 -700h-297l-51 122h-339l-50 -122h-284l312 700h397zM508 523h-9l-91 -223h191z" />
    <glyph glyph-name="Atilde" unicode="&#xc3;" horiz-adv-x="1021" 
d="M597 730q-40 0 -91 16t-62 16q-13 0 -17.5 -4t-6.5 -18h-151q9 73 43.5 101.5t105.5 28.5q39 0 90 -16t62 -16q13 0 17.5 4t7.5 18h158q-9 -72 -47 -101t-109 -29zM709 700l312 -700h-297l-51 122h-339l-50 -122h-284l312 700h397zM508 523h-9l-91 -223h191z" />
    <glyph glyph-name="Adieresis" unicode="&#xc4;" horiz-adv-x="1021" 
d="M300 870h191v-130h-191v130zM531 870h191v-130h-191v130zM709 700l312 -700h-297l-51 122h-339l-50 -122h-284l312 700h397zM508 523h-9l-91 -223h191z" />
    <glyph glyph-name="Aring" unicode="&#xc5;" horiz-adv-x="1021" 
d="M511 716q-103 0 -150 26.5t-47 87.5t47 87.5t150 26.5q102 0 149.5 -26.5t47.5 -87.5t-47.5 -87.5t-149.5 -26.5zM511 792q50 0 50 38t-50 38t-50 -38t50 -38zM709 700l312 -700h-297l-51 122h-339l-50 -122h-284l312 700h397zM508 523h-9l-91 -223h191z" />
    <glyph glyph-name="AE" unicode="&#xc6;" horiz-adv-x="1332" 
d="M1294 179v-179h-694v125h-231l-69 -125h-300l424 700h870v-179h-432v-81h432v-179h-432v-82h432zM600 528h-10l-124 -225h134v225z" />
    <glyph glyph-name="Ccedilla" unicode="&#xc7;" horiz-adv-x="905" 
d="M614 252h268q-15 -127 -90 -188t-231 -71l-42 -133h-238l64 133q-173 14 -246 90t-73 246v42q0 189 91.5 264t314.5 75h49q200 0 291.5 -60.5t109.5 -201.5h-268q-12 42 -45 57t-110 15h-6q-53 0 -85.5 -9t-48.5 -31t-20.5 -47t-4.5 -69v-29q0 -43 5 -68t20.5 -47t48 -31
t85.5 -9h6q77 0 110 15t45 57z" />
    <glyph glyph-name="Egrave" unicode="&#xc8;" horiz-adv-x="775" 
d="M425 860l85 -120h-237l-134 120h286zM737 179v-179h-695v700h695v-179h-432v-81h432v-179h-432v-82h432z" />
    <glyph glyph-name="Eacute" unicode="&#xc9;" horiz-adv-x="775" 
d="M643 860l-134 -120h-237l85 120h286zM737 179v-179h-695v700h695v-179h-432v-81h432v-179h-432v-82h432z" />
    <glyph glyph-name="Ecircumflex" unicode="&#xca;" horiz-adv-x="775" 
d="M559 860l111 -120h-192l-87 60l-86 -60h-192l110 120h336zM737 179v-179h-695v700h695v-179h-432v-81h432v-179h-432v-82h432z" />
    <glyph glyph-name="Edieresis" unicode="&#xcb;" horiz-adv-x="775" 
d="M180 870h191v-130h-191v130zM411 870h191v-130h-191v130zM737 179v-179h-695v700h695v-179h-432v-81h432v-179h-432v-82h432z" />
    <glyph glyph-name="Igrave" unicode="&#xcc;" horiz-adv-x="347" 
d="M208 860l85 -120h-237l-134 120h286zM305 700v-700h-263v700h263z" />
    <glyph glyph-name="Iacute" unicode="&#xcd;" horiz-adv-x="347" 
d="M426 860l-134 -120h-237l85 120h286zM305 700v-700h-263v700h263z" />
    <glyph glyph-name="Icircumflex" unicode="&#xce;" horiz-adv-x="347" 
d="M341 860l111 -120h-192l-87 60l-86 -60h-192l110 120h336zM305 700v-700h-263v700h263z" />
    <glyph glyph-name="Idieresis" unicode="&#xcf;" horiz-adv-x="347" 
d="M-38 870h191v-130h-191v130zM193 870h191v-130h-191v130zM305 700v-700h-263v700h263z" />
    <glyph glyph-name="Eth" unicode="&#xd0;" horiz-adv-x="899" 
d="M42 270h-42v160h42v270h421q226 0 317.5 -76t91.5 -264v-21q0 -190 -88.5 -264.5t-314.5 -74.5h-427v270zM453 430v-160h-148v-80h126q58 0 93 8.5t52.5 30t23 47t5.5 69.5v9q0 45 -5.5 70.5t-23 47t-52.5 30t-93 8.5h-126v-80h148z" />
    <glyph glyph-name="Ntilde" unicode="&#xd1;" horiz-adv-x="981" 
d="M577 730q-40 0 -91 16t-62 16q-13 0 -17.5 -4t-6.5 -18h-151q9 73 43.5 101.5t105.5 28.5q39 0 90 -16t62 -16q13 0 17.5 4t7.5 18h158q-9 -72 -47 -101t-109 -29zM944 700v-700h-394l-258 444h-8v-444h-249v700h394l258 -444h9v444h248z" />
    <glyph glyph-name="Ograve" unicode="&#xd2;" horiz-adv-x="942" 
d="M505 860l85 -120h-237l-134 120h286zM499 -10h-56q-227 0 -322 75t-95 264v41q0 188 95 264t322 76h56q227 0 322 -76t95 -264v-41q0 -189 -95 -264t-322 -75zM463 180h16q55 0 89.5 9t51.5 31t22.5 47.5t5.5 67.5v29q0 43 -5.5 69t-22.5 47.5t-51.5 30.5t-89.5 9h-16
q-55 0 -89.5 -9t-51.5 -30.5t-22.5 -47.5t-5.5 -69v-29q0 -42 5.5 -67.5t22.5 -47.5t51.5 -31t89.5 -9z" />
    <glyph glyph-name="Oacute" unicode="&#xd3;" horiz-adv-x="942" 
d="M723 860l-134 -120h-237l85 120h286zM499 -10h-56q-227 0 -322 75t-95 264v41q0 188 95 264t322 76h56q227 0 322 -76t95 -264v-41q0 -189 -95 -264t-322 -75zM463 180h16q55 0 89.5 9t51.5 31t22.5 47.5t5.5 67.5v29q0 43 -5.5 69t-22.5 47.5t-51.5 30.5t-89.5 9h-16
q-55 0 -89.5 -9t-51.5 -30.5t-22.5 -47.5t-5.5 -69v-29q0 -42 5.5 -67.5t22.5 -47.5t51.5 -31t89.5 -9z" />
    <glyph glyph-name="Ocircumflex" unicode="&#xd4;" horiz-adv-x="942" 
d="M639 860l111 -120h-192l-87 60l-86 -60h-192l110 120h336zM499 -10h-56q-227 0 -322 75t-95 264v41q0 188 95 264t322 76h56q227 0 322 -76t95 -264v-41q0 -189 -95 -264t-322 -75zM463 180h16q55 0 89.5 9t51.5 31t22.5 47.5t5.5 67.5v29q0 43 -5.5 69t-22.5 47.5
t-51.5 30.5t-89.5 9h-16q-55 0 -89.5 -9t-51.5 -30.5t-22.5 -47.5t-5.5 -69v-29q0 -42 5.5 -67.5t22.5 -47.5t51.5 -31t89.5 -9z" />
    <glyph glyph-name="Otilde" unicode="&#xd5;" horiz-adv-x="942" 
d="M557 730q-40 0 -91 16t-62 16q-13 0 -17.5 -4t-6.5 -18h-151q9 73 43.5 101.5t105.5 28.5q39 0 90 -16t62 -16q13 0 17.5 4t7.5 18h158q-9 -72 -47 -101t-109 -29zM499 -10h-56q-227 0 -322 75t-95 264v41q0 188 95 264t322 76h56q227 0 322 -76t95 -264v-41
q0 -189 -95 -264t-322 -75zM463 180h16q55 0 89.5 9t51.5 31t22.5 47.5t5.5 67.5v29q0 43 -5.5 69t-22.5 47.5t-51.5 30.5t-89.5 9h-16q-55 0 -89.5 -9t-51.5 -30.5t-22.5 -47.5t-5.5 -69v-29q0 -42 5.5 -67.5t22.5 -47.5t51.5 -31t89.5 -9z" />
    <glyph glyph-name="Odieresis" unicode="&#xd6;" horiz-adv-x="942" 
d="M260 870h191v-130h-191v130zM491 870h191v-130h-191v130zM499 -10h-56q-227 0 -322 75t-95 264v41q0 188 95 264t322 76h56q227 0 322 -76t95 -264v-41q0 -189 -95 -264t-322 -75zM463 180h16q55 0 89.5 9t51.5 31t22.5 47.5t5.5 67.5v29q0 43 -5.5 69t-22.5 47.5
t-51.5 30.5t-89.5 9h-16q-55 0 -89.5 -9t-51.5 -30.5t-22.5 -47.5t-5.5 -69v-29q0 -42 5.5 -67.5t22.5 -47.5t51.5 -31t89.5 -9z" />
    <glyph glyph-name="multiply" unicode="&#xd7;" horiz-adv-x="600" 
d="M199 329l-155 155l101 100l155 -154l155 155l101 -101l-155 -155l154 -155l-100 -101l-155 155l-155 -155l-101 101z" />
    <glyph glyph-name="Oslash" unicode="&#xd8;" horiz-adv-x="942" 
d="M238 -40h-212l93 107q-93 76 -93 262v41q0 188 95 264t322 76h56q98 0 169 -13l37 43h211l-93 -107q93 -79 93 -263v-41q0 -189 -95 -264t-322 -75h-56q-99 0 -168 13zM294 364v-29q0 -39 4 -62l215 246q-11 1 -34 1h-16q-55 0 -89.5 -9t-51.5 -30.5t-22.5 -47.5
t-5.5 -69zM463 180h16q55 0 89.5 9t51.5 31t22.5 47.5t5.5 67.5v29q0 40 -4 63l-214 -246q11 -1 33 -1z" />
    <glyph glyph-name="Ugrave" unicode="&#xd9;" horiz-adv-x="851" 
d="M461 860l85 -120h-237l-134 120h286zM454 -10h-57q-115 0 -184.5 14t-112.5 52.5t-58.5 98t-15.5 158.5v387h267v-379q0 -90 23.5 -114.5t102.5 -24.5h13q78 0 102 25t24 114v379h268v-387q0 -99 -15.5 -158.5t-59 -98t-113 -52.5t-184.5 -14z" />
    <glyph glyph-name="Uacute" unicode="&#xda;" horiz-adv-x="851" 
d="M679 860l-134 -120h-237l85 120h286zM454 -10h-57q-115 0 -184.5 14t-112.5 52.5t-58.5 98t-15.5 158.5v387h267v-379q0 -90 23.5 -114.5t102.5 -24.5h13q78 0 102 25t24 114v379h268v-387q0 -99 -15.5 -158.5t-59 -98t-113 -52.5t-184.5 -14z" />
    <glyph glyph-name="Ucircumflex" unicode="&#xdb;" horiz-adv-x="851" 
d="M595 860l111 -120h-192l-87 60l-86 -60h-192l110 120h336zM454 -10h-57q-115 0 -184.5 14t-112.5 52.5t-58.5 98t-15.5 158.5v387h267v-379q0 -90 23.5 -114.5t102.5 -24.5h13q78 0 102 25t24 114v379h268v-387q0 -99 -15.5 -158.5t-59 -98t-113 -52.5t-184.5 -14z" />
    <glyph glyph-name="Udieresis" unicode="&#xdc;" horiz-adv-x="851" 
d="M216 870h191v-130h-191v130zM447 870h191v-130h-191v130zM454 -10h-57q-115 0 -184.5 14t-112.5 52.5t-58.5 98t-15.5 158.5v387h267v-379q0 -90 23.5 -114.5t102.5 -24.5h13q78 0 102 25t24 114v379h268v-387q0 -99 -15.5 -158.5t-59 -98t-113 -52.5t-184.5 -14z" />
    <glyph glyph-name="Yacute" unicode="&#xdd;" horiz-adv-x="897" 
d="M701 860l-134 -120h-237l85 120h286zM580 296v-296h-264v296l-316 404h312l148 -214h8l148 214h281z" />
    <glyph glyph-name="Thorn" unicode="&#xde;" horiz-adv-x="864" 
d="M305 104v-104h-263v700h263v-104h232q88 0 144 -10t96 -36t57.5 -72t17.5 -119v-18q0 -134 -73 -185.5t-242 -51.5h-232zM505 419h-200v-139h201q56 0 69.5 13.5t13.5 49.5v15q0 34 -15 47q-14 14 -69 14z" />
    <glyph glyph-name="germandbls" unicode="&#xdf;" horiz-adv-x="765" 
d="M255 476v-476h-237v478q0 130 74 181t215 51h79q152 0 224 -41t72 -126v-11q0 -52 -23.5 -80t-72.5 -37v-7q86 -8 127 -47.5t41 -136.5v-15q0 -111 -66.5 -160t-213.5 -49h-187v154h132q50 0 68.5 12.5t18.5 43.5v7q0 31 -18.5 43.5t-68.5 12.5h-132v154h80q42 0 57 12.5
t15 46.5v4q0 32 -17 46.5t-60 14.5h-29q-46 0 -62 -15.5t-16 -59.5z" />
    <glyph glyph-name="agrave" unicode="&#xe0;" horiz-adv-x="673" 
d="M384 700l85 -120h-237l-134 120h286zM656 317v-317h-234v69h-7q-37 -79 -187 -79q-110 0 -164.5 40.5t-54.5 128.5v6q0 77 45.5 113t141.5 41l223 9v14q0 35 -15.5 46t-61.5 11q-38 0 -54 -7t-23 -24h-240q27 91 97.5 131.5t222.5 40.5h8q175 0 239 -45.5t64 -177.5z
M247 169v-6q0 -24 15 -33.5t51 -9.5q106 0 106 80v12l-120 -4q-29 -2 -40.5 -10.5t-11.5 -28.5z" />
    <glyph glyph-name="aacute" unicode="&#xe1;" horiz-adv-x="673" 
d="M602 700l-134 -120h-237l85 120h286zM656 317v-317h-234v69h-7q-37 -79 -187 -79q-110 0 -164.5 40.5t-54.5 128.5v6q0 77 45.5 113t141.5 41l223 9v14q0 35 -15.5 46t-61.5 11q-38 0 -54 -7t-23 -24h-240q27 91 97.5 131.5t222.5 40.5h8q175 0 239 -45.5t64 -177.5z
M247 169v-6q0 -24 15 -33.5t51 -9.5q106 0 106 80v12l-120 -4q-29 -2 -40.5 -10.5t-11.5 -28.5z" />
    <glyph glyph-name="acircumflex" unicode="&#xe2;" horiz-adv-x="673" 
d="M517 700l111 -120h-192l-87 60l-86 -60h-192l110 120h336zM656 317v-317h-234v69h-7q-37 -79 -187 -79q-110 0 -164.5 40.5t-54.5 128.5v6q0 77 45.5 113t141.5 41l223 9v14q0 35 -15.5 46t-61.5 11q-38 0 -54 -7t-23 -24h-240q27 91 97.5 131.5t222.5 40.5h8
q175 0 239 -45.5t64 -177.5zM247 169v-6q0 -24 15 -33.5t51 -9.5q106 0 106 80v12l-120 -4q-29 -2 -40.5 -10.5t-11.5 -28.5z" />
    <glyph glyph-name="atilde" unicode="&#xe3;" horiz-adv-x="673" 
d="M435 570q-40 0 -91 16t-62 16q-13 0 -17.5 -4t-6.5 -18h-151q9 73 43.5 101.5t105.5 28.5q39 0 90 -16t62 -16q13 0 17.5 4t7.5 18h158q-9 -72 -47 -101t-109 -29zM656 317v-317h-234v69h-7q-37 -79 -187 -79q-110 0 -164.5 40.5t-54.5 128.5v6q0 77 45.5 113t141.5 41
l223 9v14q0 35 -15.5 46t-61.5 11q-38 0 -54 -7t-23 -24h-240q27 91 97.5 131.5t222.5 40.5h8q175 0 239 -45.5t64 -177.5zM247 169v-6q0 -24 15 -33.5t51 -9.5q106 0 106 80v12l-120 -4q-29 -2 -40.5 -10.5t-11.5 -28.5z" />
    <glyph glyph-name="adieresis" unicode="&#xe4;" horiz-adv-x="673" 
d="M138 700h191v-130h-191v130zM369 700h191v-130h-191v130zM656 317v-317h-234v69h-7q-37 -79 -187 -79q-110 0 -164.5 40.5t-54.5 128.5v6q0 77 45.5 113t141.5 41l223 9v14q0 35 -15.5 46t-61.5 11q-38 0 -54 -7t-23 -24h-240q27 91 97.5 131.5t222.5 40.5h8
q175 0 239 -45.5t64 -177.5zM247 169v-6q0 -24 15 -33.5t51 -9.5q106 0 106 80v12l-120 -4q-29 -2 -40.5 -10.5t-11.5 -28.5z" />
    <glyph glyph-name="aring" unicode="&#xe5;" horiz-adv-x="673" 
d="M349 556q-104 0 -150.5 26t-46.5 88t46.5 88t150.5 26q103 0 150 -26t47 -88t-47 -88t-150 -26zM349 632q50 0 50 38t-50 38t-50 -38t50 -38zM656 317v-317h-234v69h-7q-37 -79 -187 -79q-110 0 -164.5 40.5t-54.5 128.5v6q0 77 45.5 113t141.5 41l223 9v14
q0 35 -15.5 46t-61.5 11q-38 0 -54 -7t-23 -24h-240q27 91 97.5 131.5t222.5 40.5h8q175 0 239 -45.5t64 -177.5zM247 169v-6q0 -24 15 -33.5t51 -9.5q106 0 106 80v12l-120 -4q-29 -2 -40.5 -10.5t-11.5 -28.5z" />
    <glyph glyph-name="ae" unicode="&#xe6;" horiz-adv-x="1086" 
d="M751 -10h-12q-113 0 -175 23t-94 76h-7q-56 -99 -222 -99q-118 0 -175 40.5t-57 128.5v6q0 77 45.5 113t141.5 41l223 9v14q0 35 -15.5 46t-61.5 11q-38 0 -54 -7t-23 -24h-240q27 91 97.5 131.5t224.5 40.5h8q151 0 193 -45h6q40 45 186 45h11q166 0 242.5 -58
t76.5 -207v-46h-414q2 -51 18 -67.5t73 -16.5q39 0 56.5 6t26.5 24h237q-16 -67 -47.5 -105.5t-96 -59t-172.5 -20.5zM745 400q-50 0 -68 -14.5t-20 -56.5h176v6q0 36 -19.5 50.5t-68.5 14.5zM247 169v-6q0 -24 15 -33.5t51 -9.5q106 0 106 80v12l-120 -4
q-29 -2 -40.5 -10.5t-11.5 -28.5z" />
    <glyph glyph-name="ccedilla" unicode="&#xe7;" horiz-adv-x="688" 
d="M443 196h237q-13 -86 -63.5 -135.5t-153.5 -64.5l-43 -136h-238l64 135q-116 14 -171 73t-55 187v20q0 149 76.5 207t239.5 58h28q155 0 227.5 -51t88.5 -155h-237q-12 21 -29.5 29t-58.5 8q-61 0 -79.5 -21t-18.5 -76v-18q0 -56 18 -76.5t80 -20.5q41 0 58.5 8t29.5 29z
" />
    <glyph glyph-name="egrave" unicode="&#xe8;" horiz-adv-x="682" 
d="M371 700l85 -120h-237l-134 120h286zM427 175h236q-16 -67 -47.5 -105.5t-96 -59t-172.5 -20.5h-11q-166 0 -243 57.5t-77 206.5v21q0 149 77 207t243 58h12q165 0 241.5 -58t76.5 -207v-46h-413q2 -51 18.5 -67.5t72.5 -16.5q39 0 56 6t27 24zM341 400
q-50 0 -67.5 -14.5t-19.5 -56.5h175v6q0 36 -19.5 50.5t-68.5 14.5z" />
    <glyph glyph-name="eacute" unicode="&#xe9;" horiz-adv-x="682" 
d="M590 700l-134 -120h-237l85 120h286zM427 175h236q-16 -67 -47.5 -105.5t-96 -59t-172.5 -20.5h-11q-166 0 -243 57.5t-77 206.5v21q0 149 77 207t243 58h12q165 0 241.5 -58t76.5 -207v-46h-413q2 -51 18.5 -67.5t72.5 -16.5q39 0 56 6t27 24zM341 400
q-50 0 -67.5 -14.5t-19.5 -56.5h175v6q0 36 -19.5 50.5t-68.5 14.5z" />
    <glyph glyph-name="ecircumflex" unicode="&#xea;" horiz-adv-x="682" 
d="M505 700l111 -120h-192l-87 60l-86 -60h-192l110 120h336zM427 175h236q-16 -67 -47.5 -105.5t-96 -59t-172.5 -20.5h-11q-166 0 -243 57.5t-77 206.5v21q0 149 77 207t243 58h12q165 0 241.5 -58t76.5 -207v-46h-413q2 -51 18.5 -67.5t72.5 -16.5q39 0 56 6t27 24z
M341 400q-50 0 -67.5 -14.5t-19.5 -56.5h175v6q0 36 -19.5 50.5t-68.5 14.5z" />
    <glyph glyph-name="edieresis" unicode="&#xeb;" horiz-adv-x="682" 
d="M126 700h191v-130h-191v130zM357 700h191v-130h-191v130zM427 175h236q-16 -67 -47.5 -105.5t-96 -59t-172.5 -20.5h-11q-166 0 -243 57.5t-77 206.5v21q0 149 77 207t243 58h12q165 0 241.5 -58t76.5 -207v-46h-413q2 -51 18.5 -67.5t72.5 -16.5q39 0 56 6t27 24z
M341 400q-50 0 -67.5 -14.5t-19.5 -56.5h175v6q0 36 -19.5 50.5t-68.5 14.5z" />
    <glyph glyph-name="igrave" unicode="&#xec;" horiz-adv-x="272" 
d="M170 700l85 -120h-237l-134 120h286zM18 530h237v-530h-237v530z" />
    <glyph glyph-name="iacute" unicode="&#xed;" horiz-adv-x="272" 
d="M388 700l-134 -120h-237l85 120h286zM18 530h237v-530h-237v530z" />
    <glyph glyph-name="icircumflex" unicode="&#xee;" horiz-adv-x="272" 
d="M303 700l111 -120h-192l-87 60l-86 -60h-192l110 120h336zM18 530h237v-530h-237v530z" />
    <glyph glyph-name="idieresis" unicode="&#xef;" horiz-adv-x="272" 
d="M-76 700h191v-130h-191v130zM155 700h191v-130h-191v130zM18 530h237v-530h-237v530z" />
    <glyph glyph-name="eth" unicode="&#xf0;" horiz-adv-x="716" 
d="M380 -10h-39q-167 0 -246 57.5t-79 206.5v10q0 237 238 237q78 0 133 -42l5 6q-13 21 -52 65l-213 -20v123l99 9q-23 19 -78 58h320q26 -22 36 -32l139 13v-123l-41 -4q98 -146 98 -286v-14q0 -149 -76.5 -206.5t-243.5 -57.5zM358 159q68 0 86.5 19t18.5 73v5
q0 55 -18.5 73.5t-86.5 18.5t-86.5 -18.5t-18.5 -73.5v-5q0 -54 18.5 -73t86.5 -19z" />
    <glyph glyph-name="ntilde" unicode="&#xf1;" horiz-adv-x="668" 
d="M434 570q-39 0 -91 16t-62 16q-13 0 -17.5 -4t-6.5 -18h-151q9 73 44 101.5t105 28.5q39 0 90.5 -16t61.5 -16q13 0 17.5 4t7.5 18h158q-9 -72 -47 -101t-109 -29zM651 341v-341h-237v287q0 54 -14.5 68.5t-61.5 14.5q-48 0 -65.5 -21.5t-17.5 -78.5v-270h-237v530h237
v-83h6q39 93 176 93q53 0 89 -7.5t66 -28t44.5 -61t14.5 -102.5z" />
    <glyph glyph-name="ograve" unicode="&#xf2;" horiz-adv-x="718" 
d="M393 700l85 -120h-237l-134 120h286zM381 -10h-44q-171 0 -246 60.5t-75 204.5v21q0 143 75.5 203.5t245.5 60.5h44q171 0 246 -60.5t75 -204.5v-21q0 -143 -75.5 -203.5t-245.5 -60.5zM359 159q68 0 87 18.5t19 82.5v10q0 63 -19 82t-87 19t-87 -19t-19 -82v-10
q0 -64 19 -82.5t87 -18.5z" />
    <glyph glyph-name="oacute" unicode="&#xf3;" horiz-adv-x="718" 
d="M612 700l-134 -120h-237l85 120h286zM381 -10h-44q-171 0 -246 60.5t-75 204.5v21q0 143 75.5 203.5t245.5 60.5h44q171 0 246 -60.5t75 -204.5v-21q0 -143 -75.5 -203.5t-245.5 -60.5zM359 159q68 0 87 18.5t19 82.5v10q0 63 -19 82t-87 19t-87 -19t-19 -82v-10
q0 -64 19 -82.5t87 -18.5z" />
    <glyph glyph-name="ocircumflex" unicode="&#xf4;" horiz-adv-x="718" 
d="M527 700l111 -120h-192l-87 60l-86 -60h-192l110 120h336zM381 -10h-44q-171 0 -246 60.5t-75 204.5v21q0 143 75.5 203.5t245.5 60.5h44q171 0 246 -60.5t75 -204.5v-21q0 -143 -75.5 -203.5t-245.5 -60.5zM359 159q68 0 87 18.5t19 82.5v10q0 63 -19 82t-87 19t-87 -19
t-19 -82v-10q0 -64 19 -82.5t87 -18.5z" />
    <glyph glyph-name="otilde" unicode="&#xf5;" horiz-adv-x="718" 
d="M445 570q-40 0 -91 16t-62 16q-13 0 -17.5 -4t-6.5 -18h-151q9 73 43.5 101.5t105.5 28.5q39 0 90 -16t62 -16q13 0 17.5 4t7.5 18h158q-9 -72 -47 -101t-109 -29zM381 -10h-44q-171 0 -246 60.5t-75 204.5v21q0 143 75.5 203.5t245.5 60.5h44q171 0 246 -60.5t75 -204.5
v-21q0 -143 -75.5 -203.5t-245.5 -60.5zM359 159q68 0 87 18.5t19 82.5v10q0 63 -19 82t-87 19t-87 -19t-19 -82v-10q0 -64 19 -82.5t87 -18.5z" />
    <glyph glyph-name="odieresis" unicode="&#xf6;" horiz-adv-x="718" 
d="M148 700h191v-130h-191v130zM379 700h191v-130h-191v130zM381 -10h-44q-171 0 -246 60.5t-75 204.5v21q0 143 75.5 203.5t245.5 60.5h44q171 0 246 -60.5t75 -204.5v-21q0 -143 -75.5 -203.5t-245.5 -60.5zM359 159q68 0 87 18.5t19 82.5v10q0 63 -19 82t-87 19t-87 -19
t-19 -82v-10q0 -64 19 -82.5t87 -18.5z" />
    <glyph glyph-name="divide" unicode="&#xf7;" horiz-adv-x="600" 
d="M370 599v-131h-140v131h140zM520 400v-142h-440v142h440zM370 189v-131h-140v131h140z" />
    <glyph glyph-name="oslash" unicode="&#xf8;" horiz-adv-x="718" 
d="M197 -40h-181l74 91q-74 62 -74 204v21q0 143 75.5 203.5t245.5 60.5h44q65 0 111 -7l30 37h180l-74 -91q74 -62 74 -204v-21q0 -143 -75.5 -203.5t-245.5 -60.5h-44q-64 0 -110 7zM253 270v-10q0 -19 2 -37l124 148h-20q-68 0 -87 -19t-19 -82zM339 159h20q68 0 87 18.5
t19 82.5v10q0 15 -2 37z" />
    <glyph glyph-name="ugrave" unicode="&#xf9;" horiz-adv-x="668" 
d="M374 700l85 -120h-237l-134 120h286zM17 189v341h237v-287q0 -54 14.5 -68.5t61.5 -14.5q48 0 65.5 21.5t17.5 78.5v270h237v-530h-237v83h-6q-39 -93 -176 -93q-53 0 -89 7.5t-66 28t-44.5 61t-14.5 102.5z" />
    <glyph glyph-name="uacute" unicode="&#xfa;" horiz-adv-x="668" 
d="M592 700l-134 -120h-237l85 120h286zM17 189v341h237v-287q0 -54 14.5 -68.5t61.5 -14.5q48 0 65.5 21.5t17.5 78.5v270h237v-530h-237v83h-6q-39 -93 -176 -93q-53 0 -89 7.5t-66 28t-44.5 61t-14.5 102.5z" />
    <glyph glyph-name="ucircumflex" unicode="&#xfb;" horiz-adv-x="668" 
d="M508 700l111 -120h-192l-87 60l-86 -60h-192l110 120h336zM17 189v341h237v-287q0 -54 14.5 -68.5t61.5 -14.5q48 0 65.5 21.5t17.5 78.5v270h237v-530h-237v83h-6q-39 -93 -176 -93q-53 0 -89 7.5t-66 28t-44.5 61t-14.5 102.5z" />
    <glyph glyph-name="udieresis" unicode="&#xfc;" horiz-adv-x="668" 
d="M129 700h191v-130h-191v130zM360 700h191v-130h-191v130zM17 189v341h237v-287q0 -54 14.5 -68.5t61.5 -14.5q48 0 65.5 21.5t17.5 78.5v270h237v-530h-237v83h-6q-39 -93 -176 -93q-53 0 -89 7.5t-66 28t-44.5 61t-14.5 102.5z" />
    <glyph glyph-name="yacute" unicode="&#xfd;" horiz-adv-x="656" 
d="M588 700l-134 -120h-237l85 120h286zM665 530l-299 -700h-250l86 169l-211 531h254l86 -280h7l87 280h240z" />
    <glyph glyph-name="thorn" unicode="&#xfe;" horiz-adv-x="720" 
d="M255 73v-243h-237v870h237v-243h6q39 83 181 83h6q134 0 195 -60.5t61 -204.5v-20q0 -144 -61 -204.5t-195 -60.5h-6q-142 0 -181 83h-6zM361 159q69 0 87.5 20t18.5 81v10q0 61 -18.5 81t-87.5 20t-87.5 -20t-18.5 -81v-10q0 -61 18.5 -81t87.5 -20z" />
    <glyph glyph-name="ydieresis" unicode="&#xff;" horiz-adv-x="656" 
d="M124 700h191v-130h-191v130zM355 700h191v-130h-191v130zM665 530l-299 -700h-250l86 169l-211 531h254l86 -280h7l87 280h240z" />
    <glyph glyph-name="Amacron" unicode="&#x100;" horiz-adv-x="1021" 
d="M731 850v-90h-441v90h441zM709 700l312 -700h-297l-51 122h-339l-50 -122h-284l312 700h397zM508 523h-9l-91 -223h191z" />
    <glyph glyph-name="amacron" unicode="&#x101;" horiz-adv-x="673" 
d="M569 680v-90h-441v90h441zM656 317v-317h-234v69h-7q-37 -79 -187 -79q-110 0 -164.5 40.5t-54.5 128.5v6q0 77 45.5 113t141.5 41l223 9v14q0 35 -15.5 46t-61.5 11q-38 0 -54 -7t-23 -24h-240q27 91 97.5 131.5t222.5 40.5h8q175 0 239 -45.5t64 -177.5zM247 169v-6
q0 -24 15 -33.5t51 -9.5q106 0 106 80v12l-120 -4q-29 -2 -40.5 -10.5t-11.5 -28.5z" />
    <glyph glyph-name="Abreve" unicode="&#x102;" horiz-adv-x="1021" 
d="M511 730q-130 0 -182 29t-66 101h189q4 -18 16 -26t43 -8t43 8t16 26h189q-14 -72 -66 -101t-182 -29zM709 700l312 -700h-297l-51 122h-339l-50 -122h-284l312 700h397zM508 523h-9l-91 -223h191z" />
    <glyph glyph-name="abreve" unicode="&#x103;" horiz-adv-x="673" 
d="M349 570q-130 0 -182 29t-66 101h189q4 -18 16 -26t43 -8t43 8t16 26h189q-14 -72 -66 -101t-182 -29zM656 317v-317h-234v69h-7q-37 -79 -187 -79q-110 0 -164.5 40.5t-54.5 128.5v6q0 77 45.5 113t141.5 41l223 9v14q0 35 -15.5 46t-61.5 11q-38 0 -54 -7t-23 -24h-240
q27 91 97.5 131.5t222.5 40.5h8q175 0 239 -45.5t64 -177.5zM247 169v-6q0 -24 15 -33.5t51 -9.5q106 0 106 80v12l-120 -4q-29 -2 -40.5 -10.5t-11.5 -28.5z" />
    <glyph glyph-name="Aogonek" unicode="&#x104;" horiz-adv-x="1021" 
d="M937 -54v-86h-170q-73 0 -102 16t-29 57q0 31 16 50t65 34l-44 105h-339l-50 -122h-284l312 700h397l312 -700h-84q-61 -9 -75.5 -15t-14.5 -20q0 -19 27 -19h63zM508 523h-9l-91 -223h191z" />
    <glyph glyph-name="aogonek" unicode="&#x105;" horiz-adv-x="673" 
d="M656 -54v-86h-170q-73 0 -102 16t-29 57q0 30 13 48t54 31v57h-7q-37 -79 -187 -79q-110 0 -164.5 40.5t-54.5 128.5v6q0 77 45.5 113t141.5 41l223 9v14q0 35 -15.5 46t-61.5 11q-38 0 -54 -7t-23 -24h-240q27 91 97.5 131.5t222.5 40.5h8q175 0 239 -45.5t64 -177.5
v-317q-61 -9 -75.5 -15t-14.5 -20q0 -19 27 -19h63zM247 169v-6q0 -24 15 -33.5t51 -9.5q106 0 106 80v12l-120 -4q-29 -2 -40.5 -10.5t-11.5 -28.5z" />
    <glyph glyph-name="Cacute" unicode="&#x106;" horiz-adv-x="905" 
d="M708 860l-134 -120h-237l85 120h286zM481 -10h-49q-223 0 -314.5 75t-91.5 264v42q0 189 91.5 264t314.5 75h49q200 0 291.5 -60.5t109.5 -201.5h-268q-12 42 -45 57t-110 15h-6q-53 0 -85.5 -9t-48.5 -31t-20.5 -47t-4.5 -69v-29q0 -43 5 -68t20.5 -47t48 -31t85.5 -9h6
q77 0 110 15t45 57h268q-18 -141 -109.5 -201.5t-291.5 -60.5z" />
    <glyph glyph-name="cacute" unicode="&#x107;" horiz-adv-x="688" 
d="M602 700l-134 -120h-237l85 120h286zM360 -10h-28q-163 0 -239.5 58t-76.5 207v20q0 149 76.5 207t239.5 58h28q155 0 227.5 -51t88.5 -155h-237q-12 21 -29.5 29t-58.5 8q-61 0 -79.5 -21t-18.5 -76v-18q0 -56 18 -76.5t80 -20.5q41 0 58.5 8t29.5 29h237
q-16 -104 -88.5 -155t-227.5 -51z" />
    <glyph glyph-name="Ccircumflex" unicode="&#x108;" horiz-adv-x="905" 
d="M623 860l111 -120h-192l-87 60l-86 -60h-192l110 120h336zM481 -10h-49q-223 0 -314.5 75t-91.5 264v42q0 189 91.5 264t314.5 75h49q200 0 291.5 -60.5t109.5 -201.5h-268q-12 42 -45 57t-110 15h-6q-53 0 -85.5 -9t-48.5 -31t-20.5 -47t-4.5 -69v-29q0 -43 5 -68
t20.5 -47t48 -31t85.5 -9h6q77 0 110 15t45 57h268q-18 -141 -109.5 -201.5t-291.5 -60.5z" />
    <glyph glyph-name="ccircumflex" unicode="&#x109;" horiz-adv-x="688" 
d="M517 700l111 -120h-192l-87 60l-86 -60h-192l110 120h336zM360 -10h-28q-163 0 -239.5 58t-76.5 207v20q0 149 76.5 207t239.5 58h28q155 0 227.5 -51t88.5 -155h-237q-12 21 -29.5 29t-58.5 8q-61 0 -79.5 -21t-18.5 -76v-18q0 -56 18 -76.5t80 -20.5q41 0 58.5 8
t29.5 29h237q-16 -104 -88.5 -155t-227.5 -51z" />
    <glyph glyph-name="Cdotaccent" unicode="&#x10a;" horiz-adv-x="905" 
d="M337 870h237v-130h-237v130zM481 -10h-49q-223 0 -314.5 75t-91.5 264v42q0 189 91.5 264t314.5 75h49q200 0 291.5 -60.5t109.5 -201.5h-268q-12 42 -45 57t-110 15h-6q-53 0 -85.5 -9t-48.5 -31t-20.5 -47t-4.5 -69v-29q0 -43 5 -68t20.5 -47t48 -31t85.5 -9h6
q77 0 110 15t45 57h268q-18 -141 -109.5 -201.5t-291.5 -60.5z" />
    <glyph glyph-name="cdotaccent" unicode="&#x10b;" horiz-adv-x="688" 
d="M231 700h237v-130h-237v130zM360 -10h-28q-163 0 -239.5 58t-76.5 207v20q0 149 76.5 207t239.5 58h28q155 0 227.5 -51t88.5 -155h-237q-12 21 -29.5 29t-58.5 8q-61 0 -79.5 -21t-18.5 -76v-18q0 -56 18 -76.5t80 -20.5q41 0 58.5 8t29.5 29h237q-16 -104 -88.5 -155
t-227.5 -51z" />
    <glyph glyph-name="Ccaron" unicode="&#x10c;" horiz-adv-x="905" 
d="M455 800l87 60h192l-111 -120h-336l-110 120h192zM481 -10h-49q-223 0 -314.5 75t-91.5 264v42q0 189 91.5 264t314.5 75h49q200 0 291.5 -60.5t109.5 -201.5h-268q-12 42 -45 57t-110 15h-6q-53 0 -85.5 -9t-48.5 -31t-20.5 -47t-4.5 -69v-29q0 -43 5 -68t20.5 -47
t48 -31t85.5 -9h6q77 0 110 15t45 57h268q-18 -141 -109.5 -201.5t-291.5 -60.5z" />
    <glyph glyph-name="ccaron" unicode="&#x10d;" horiz-adv-x="688" 
d="M349 640l87 60h192l-111 -120h-336l-110 120h192zM360 -10h-28q-163 0 -239.5 58t-76.5 207v20q0 149 76.5 207t239.5 58h28q155 0 227.5 -51t88.5 -155h-237q-12 21 -29.5 29t-58.5 8q-61 0 -79.5 -21t-18.5 -76v-18q0 -56 18 -76.5t80 -20.5q41 0 58.5 8t29.5 29h237
q-16 -104 -88.5 -155t-227.5 -51z" />
    <glyph glyph-name="Dcaron" unicode="&#x10e;" horiz-adv-x="899" 
d="M437 800l87 60h192l-111 -120h-336l-110 120h192zM872 360v-21q0 -190 -88.5 -264.5t-314.5 -74.5h-427v700h421q226 0 317.5 -76t91.5 -264zM431 510h-126v-320h126q58 0 93 8.5t52.5 30t23 47t5.5 69.5v9q0 45 -5.5 70.5t-23 47t-52.5 30t-93 8.5z" />
    <glyph glyph-name="dcaron" unicode="&#x10f;" horiz-adv-x="1013" 
d="M702 700v-700h-237v73h-6q-39 -83 -181 -83h-6q-134 0 -195 60.5t-61 204.5v20q0 144 61 204.5t195 60.5h6q142 0 181 -83h6v243h237zM1008 700l-102 -234h-182l36 234h248zM359 159q69 0 87.5 20t18.5 81v10q0 61 -18.5 81t-87.5 20t-87.5 -20t-18.5 -81v-10
q0 -61 18.5 -81t87.5 -20z" />
    <glyph glyph-name="Dcroat" unicode="&#x110;" horiz-adv-x="899" 
d="M42 270h-42v160h42v270h421q226 0 317.5 -76t91.5 -264v-21q0 -190 -88.5 -264.5t-314.5 -74.5h-427v270zM453 430v-160h-148v-80h126q58 0 93 8.5t52.5 30t23 47t5.5 69.5v9q0 45 -5.5 70.5t-23 47t-52.5 30t-93 8.5h-126v-80h148z" />
    <glyph glyph-name="dslash" unicode="&#x111;" horiz-adv-x="720" 
d="M465 548h-181v130h181v22h237v-22h32v-130h-32v-548h-237v73h-6q-39 -83 -181 -83h-6q-134 0 -195 60.5t-61 204.5v20q0 144 61 204.5t195 60.5h6q142 0 181 -83h6v91zM359 159q69 0 87.5 20t18.5 81v10q0 61 -18.5 81t-87.5 20t-87.5 -20t-18.5 -81v-10q0 -61 18.5 -81
t87.5 -20z" />
    <glyph glyph-name="Emacron" unicode="&#x112;" horiz-adv-x="775" 
d="M611 850v-90h-441v90h441zM737 179v-179h-695v700h695v-179h-432v-81h432v-179h-432v-82h432z" />
    <glyph glyph-name="emacron" unicode="&#x113;" horiz-adv-x="682" 
d="M557 680v-90h-441v90h441zM427 175h236q-16 -67 -47.5 -105.5t-96 -59t-172.5 -20.5h-11q-166 0 -243 57.5t-77 206.5v21q0 149 77 207t243 58h12q165 0 241.5 -58t76.5 -207v-46h-413q2 -51 18.5 -67.5t72.5 -16.5q39 0 56 6t27 24zM341 400q-50 0 -67.5 -14.5
t-19.5 -56.5h175v6q0 36 -19.5 50.5t-68.5 14.5z" />
    <glyph glyph-name="Ebreve" unicode="&#x114;" horiz-adv-x="775" 
d="M391 730q-130 0 -182 29t-66 101h189q4 -18 16 -26t43 -8t43 8t16 26h189q-14 -72 -66 -101t-182 -29zM737 179v-179h-695v700h695v-179h-432v-81h432v-179h-432v-82h432z" />
    <glyph glyph-name="ebreve" unicode="&#x115;" horiz-adv-x="682" 
d="M337 570q-131 0 -182.5 29t-65.5 101h189q4 -18 16 -26t43 -8t43 8t16 26h189q-14 -72 -66 -101t-182 -29zM427 175h236q-16 -67 -47.5 -105.5t-96 -59t-172.5 -20.5h-11q-166 0 -243 57.5t-77 206.5v21q0 149 77 207t243 58h12q165 0 241.5 -58t76.5 -207v-46h-413
q2 -51 18.5 -67.5t72.5 -16.5q39 0 56 6t27 24zM341 400q-50 0 -67.5 -14.5t-19.5 -56.5h175v6q0 36 -19.5 50.5t-68.5 14.5z" />
    <glyph glyph-name="Edotaccent" unicode="&#x116;" horiz-adv-x="775" 
d="M273 870h237v-130h-237v130zM737 179v-179h-695v700h695v-179h-432v-81h432v-179h-432v-82h432z" />
    <glyph glyph-name="edotaccent" unicode="&#x117;" horiz-adv-x="682" 
d="M219 700h237v-130h-237v130zM427 175h236q-16 -67 -47.5 -105.5t-96 -59t-172.5 -20.5h-11q-166 0 -243 57.5t-77 206.5v21q0 149 77 207t243 58h12q165 0 241.5 -58t76.5 -207v-46h-413q2 -51 18.5 -67.5t72.5 -16.5q39 0 56 6t27 24zM341 400q-50 0 -67.5 -14.5
t-19.5 -56.5h175v6q0 36 -19.5 50.5t-68.5 14.5z" />
    <glyph glyph-name="Eogonek" unicode="&#x118;" horiz-adv-x="775" 
d="M737 -55v-86h-170q-73 0 -102 16t-29 57q0 24 8 39.5t32 28.5h-434v700h695v-179h-432v-81h432v-179h-432v-82h432v-180q-59 -7 -74.5 -14t-15.5 -21q0 -19 27 -19h63z" />
    <glyph glyph-name="eogonek" unicode="&#x119;" horiz-adv-x="682" 
d="M600 -50v-90h-188q-61 0 -87 12.5t-26 47.5q0 41 43 63v8q-8 -1 -25 -1q-154 0 -227.5 64.5t-73.5 198.5v20q0 151 76.5 209t243.5 58h12q165 0 241.5 -58t76.5 -207v-46h-413q2 -51 18.5 -67.5t72.5 -16.5q39 0 56 6t27 24h236q-9 -53 -34 -88t-77 -69
q-25 -14 -33.5 -23t-8.5 -22q0 -23 33 -23h57zM341 400q-50 0 -67.5 -14.5t-19.5 -56.5h175v6q0 36 -19.5 50.5t-68.5 14.5z" />
    <glyph glyph-name="Ecaron" unicode="&#x11a;" horiz-adv-x="775" 
d="M391 800l87 60h192l-111 -120h-336l-110 120h192zM737 179v-179h-695v700h695v-179h-432v-81h432v-179h-432v-82h432z" />
    <glyph glyph-name="ecaron" unicode="&#x11b;" horiz-adv-x="682" 
d="M337 640l87 60h192l-111 -120h-336l-110 120h192zM427 175h236q-16 -67 -47.5 -105.5t-96 -59t-172.5 -20.5h-11q-166 0 -243 57.5t-77 206.5v21q0 149 77 207t243 58h12q165 0 241.5 -58t76.5 -207v-46h-413q2 -51 18.5 -67.5t72.5 -16.5q39 0 56 6t27 24zM341 400
q-50 0 -67.5 -14.5t-19.5 -56.5h175v6q0 36 -19.5 50.5t-68.5 14.5z" />
    <glyph glyph-name="Gcircumflex" unicode="&#x11c;" horiz-adv-x="936" 
d="M639 860l111 -120h-192l-87 60l-86 -60h-192l110 120h336zM499 -10h-56q-228 0 -322.5 75.5t-94.5 264.5v40q0 188 95 264t322 76h56q194 0 288 -50.5t121 -176.5h-282q-20 23 -50 30q-29 7 -99 7h-21q-53 0 -86 -9t-49.5 -30.5t-21.5 -47t-5 -69.5v-33q0 -43 5 -68.5
t21.5 -47t49.5 -30.5t86 -9h26q95 0 128.5 16t33.5 69h-209v170h474v-114q0 -184 -95.5 -255.5t-314.5 -71.5z" />
    <glyph glyph-name="gcircumflex" unicode="&#x11d;" horiz-adv-x="708" 
d="M517 700l111 -120h-192l-87 60l-86 -60h-192l110 120h336zM363 -170h-17q-155 0 -232 35t-95 118h235q8 -11 28 -15t69 -4q63 0 83 17.5t20 65.5v54h-7q-36 -75 -166 -75h-5q-138 0 -199 55.5t-61 190.5v22q0 135 59 190.5t192 55.5h5q139 0 175 -76h7v66h237v-467
q0 -130 -74.5 -181.5t-253.5 -51.5zM354 190q67 0 83.5 15t16.5 72v11q0 57 -16.5 72t-83.5 15q-66 0 -83.5 -15.5t-17.5 -71.5v-11q0 -56 17.5 -71.5t83.5 -15.5z" />
    <glyph glyph-name="Gbreve" unicode="&#x11e;" horiz-adv-x="936" 
d="M471 730q-130 0 -182 29t-66 101h189q4 -18 16 -26t43 -8t43 8t16 26h189q-14 -72 -66 -101t-182 -29zM499 -10h-56q-228 0 -322.5 75.5t-94.5 264.5v40q0 188 95 264t322 76h56q194 0 288 -50.5t121 -176.5h-282q-20 23 -50 30q-29 7 -99 7h-21q-53 0 -86 -9
t-49.5 -30.5t-21.5 -47t-5 -69.5v-33q0 -43 5 -68.5t21.5 -47t49.5 -30.5t86 -9h26q95 0 128.5 16t33.5 69h-209v170h474v-114q0 -184 -95.5 -255.5t-314.5 -71.5z" />
    <glyph glyph-name="gbreve" unicode="&#x11f;" horiz-adv-x="708" 
d="M349 570q-130 0 -182 29t-66 101h189q4 -18 16 -26t43 -8t43 8t16 26h189q-14 -72 -66 -101t-182 -29zM363 -170h-17q-155 0 -232 35t-95 118h235q8 -11 28 -15t69 -4q63 0 83 17.5t20 65.5v54h-7q-36 -75 -166 -75h-5q-138 0 -199 55.5t-61 190.5v22q0 135 59 190.5
t192 55.5h5q139 0 175 -76h7v66h237v-467q0 -130 -74.5 -181.5t-253.5 -51.5zM354 190q67 0 83.5 15t16.5 72v11q0 57 -16.5 72t-83.5 15q-66 0 -83.5 -15.5t-17.5 -71.5v-11q0 -56 17.5 -71.5t83.5 -15.5z" />
    <glyph glyph-name="Gdotaccent" unicode="&#x120;" horiz-adv-x="936" 
d="M353 870h237v-130h-237v130zM499 -10h-56q-228 0 -322.5 75.5t-94.5 264.5v40q0 188 95 264t322 76h56q194 0 288 -50.5t121 -176.5h-282q-20 23 -50 30q-29 7 -99 7h-21q-53 0 -86 -9t-49.5 -30.5t-21.5 -47t-5 -69.5v-33q0 -43 5 -68.5t21.5 -47t49.5 -30.5t86 -9h26
q95 0 128.5 16t33.5 69h-209v170h474v-114q0 -184 -95.5 -255.5t-314.5 -71.5z" />
    <glyph glyph-name="gdotaccent" unicode="&#x121;" horiz-adv-x="708" 
d="M231 700h237v-130h-237v130zM363 -170h-17q-155 0 -232 35t-95 118h235q8 -11 28 -15t69 -4q63 0 83 17.5t20 65.5v54h-7q-36 -75 -166 -75h-5q-138 0 -199 55.5t-61 190.5v22q0 135 59 190.5t192 55.5h5q139 0 175 -76h7v66h237v-467q0 -130 -74.5 -181.5t-253.5 -51.5z
M354 190q67 0 83.5 15t16.5 72v11q0 57 -16.5 72t-83.5 15q-66 0 -83.5 -15.5t-17.5 -71.5v-11q0 -56 17.5 -71.5t83.5 -15.5z" />
    <glyph glyph-name="Gcommaaccent" unicode="&#x122;" horiz-adv-x="936" 
d="M499 -10h-56q-228 0 -322.5 75.5t-94.5 264.5v40q0 188 95 264t322 76h56q194 0 288 -50.5t121 -176.5h-282q-20 23 -50 30q-29 7 -99 7h-21q-53 0 -86 -9t-49.5 -30.5t-21.5 -47t-5 -69.5v-33q0 -43 5 -68.5t21.5 -47t49.5 -30.5t86 -9h26q95 0 128.5 16t33.5 69h-209
v170h474v-114q0 -184 -95.5 -255.5t-314.5 -71.5zM529 -154l-20 -16h-128l54 47v10h-83v87h233v-24q0 -36 -11.5 -56t-44.5 -48z" />
    <glyph glyph-name="gcommaaccent" unicode="&#x123;" horiz-adv-x="708" 
d="M289 698l20 16h127l-54 -47v-10h84v-87h-233v24q0 36 11.5 56t44.5 48zM363 -170h-17q-155 0 -232 35t-95 118h235q8 -11 28 -15t69 -4q63 0 83 17.5t20 65.5v54h-7q-36 -75 -166 -75h-5q-138 0 -199 55.5t-61 190.5v22q0 135 59 190.5t192 55.5h5q139 0 175 -76h7v66
h237v-467q0 -130 -74.5 -181.5t-253.5 -51.5zM354 190q67 0 83.5 15t16.5 72v11q0 57 -16.5 72t-83.5 15q-66 0 -83.5 -15.5t-17.5 -71.5v-11q0 -56 17.5 -71.5t83.5 -15.5z" />
    <glyph glyph-name="Hcircumflex" unicode="&#x124;" horiz-adv-x="942" 
d="M638 860l111 -120h-192l-87 60l-86 -60h-192l110 120h336zM899 700v-700h-263v248h-331v-248h-263v700h263v-247h331v247h263z" />
    <glyph glyph-name="hcircumflex" unicode="&#x125;" horiz-adv-x="668" 
d="M303 870l111 -120h-192l-87 60l-86 -60h-192l110 120h336zM651 341v-341h-237v287q0 54 -14.5 68.5t-61.5 14.5q-48 0 -65.5 -21.5t-17.5 -78.5v-270h-237v700h237v-253h6q39 93 176 93q53 0 89 -7.5t66 -28t44.5 -61t14.5 -102.5z" />
    <glyph glyph-name="Hbar" unicode="&#x126;" horiz-adv-x="942" 
d="M42 496h-42v151h42v53h263v-53h331v53h263v-53h43v-151h-43v-496h-263v248h-331v-248h-263v496zM305 496v-43h331v43h-331z" />
    <glyph glyph-name="hbar" unicode="&#x127;" horiz-adv-x="668" 
d="M18 548h-32v130h32v22h237v-22h180v-130h-180v-101h6q39 93 176 93q53 0 89 -7.5t66 -28t44.5 -61t14.5 -102.5v-341h-237v287q0 54 -14.5 68.5t-61.5 14.5q-48 0 -65.5 -21.5t-17.5 -78.5v-270h-237v548z" />
    <glyph glyph-name="Itilde" unicode="&#x128;" horiz-adv-x="347" 
d="M259 730q-40 0 -91 16t-62 16q-13 0 -17.5 -4t-6.5 -18h-151q9 73 43.5 101.5t105.5 28.5q39 0 90 -16t62 -16q13 0 17.5 4t7.5 18h158q-9 -72 -47 -101t-109 -29zM305 700v-700h-263v700h263z" />
    <glyph glyph-name="itilde" unicode="&#x129;" horiz-adv-x="272" 
d="M221 570q-40 0 -91 16t-62 16q-13 0 -17.5 -4t-6.5 -18h-151q9 73 43.5 101.5t105.5 28.5q39 0 90 -16t62 -16q13 0 17.5 4t7.5 18h158q-9 -72 -47 -101t-109 -29zM18 530h237v-530h-237v530z" />
    <glyph glyph-name="Imacron" unicode="&#x12a;" horiz-adv-x="347" 
d="M393 850v-90h-441v90h441zM305 700v-700h-263v700h263z" />
    <glyph glyph-name="imacron" unicode="&#x12b;" horiz-adv-x="272" 
d="M355 680v-90h-441v90h441zM18 530h237v-530h-237v530z" />
    <glyph glyph-name="Ibreve" unicode="&#x12c;" horiz-adv-x="347" 
d="M173 730q-130 0 -182 29t-66 101h189q4 -18 16 -26t43 -8t43 8t16 26h189q-14 -72 -66 -101t-182 -29zM305 700v-700h-263v700h263z" />
    <glyph glyph-name="ibreve" unicode="&#x12d;" horiz-adv-x="272" 
d="M135 570q-130 0 -182 29t-66 101h189q4 -18 16 -26t43 -8t43 8t16 26h189q-14 -72 -66 -101t-182 -29zM18 530h237v-530h-237v530z" />
    <glyph glyph-name="Iogonek" unicode="&#x12e;" horiz-adv-x="347" 
d="M305 700v-700h-7q-61 -9 -75.5 -15t-14.5 -20q0 -19 27 -19h63v-86h-170q-73 0 -102 16t-29 57q0 26 9 42t36 29v696h263z" />
    <glyph glyph-name="iogonek" unicode="&#x12f;" horiz-adv-x="272" 
d="M18 700h237v-131h-237v131zM254 -54v-86h-170q-73 0 -102 16t-29 57q0 28 13 46.5t52 32.5v518h237v-530h-1q-61 -9 -75.5 -15t-14.5 -20q0 -19 27 -19h63z" />
    <glyph glyph-name="Idot" unicode="&#x130;" horiz-adv-x="347" 
d="M55 870h237v-130h-237v130zM305 700v-700h-263v700h263z" />
    <glyph glyph-name="dotlessi" unicode="&#x131;" horiz-adv-x="272" 
d="M18 530h237v-530h-237v530z" />
    <glyph glyph-name="IJ" unicode="&#x132;" horiz-adv-x="884" 
d="M305 700v-700h-263v700h263zM503 0h-154v205h72q78 0 112 8.5t46 31t12 75.5v380h267v-377q0 -80 -8.5 -131.5t-30 -91t-63 -60t-101.5 -30.5t-152 -10z" />
    <glyph glyph-name="ij" unicode="&#x133;" horiz-adv-x="545" 
d="M18 700h237v-131h-237v131zM290 700h237v-131h-237v131zM18 530h237v-530h-237v530zM290 530h237v-388q0 -134 -10.5 -186t-57.5 -126h-232q40 66 51.5 116t11.5 141v443z" />
    <glyph glyph-name="Jcircumflex" unicode="&#x134;" horiz-adv-x="537" 
d="M545 860l111 -120h-192l-87 60l-86 -60h-192l110 120h336zM156 0h-154v205h72q78 0 112 8.5t46 31t12 75.5v380h267v-377q0 -80 -8.5 -131.5t-30 -91t-63 -60t-101.5 -30.5t-152 -10z" />
    <glyph glyph-name="jcircumflex" unicode="&#x135;" horiz-adv-x="272" 
d="M303 700l111 -120h-192l-87 60l-86 -60h-192l110 120h336zM18 530h237v-388q0 -134 -10.5 -186t-57.5 -126h-232q40 66 51.5 116t11.5 141v443z" />
    <glyph glyph-name="Kcommaaccent" unicode="&#x136;" horiz-adv-x="955" 
d="M305 162v-162h-263v700h263v-261h9l287 261h346l-327 -279l335 -421h-344l-194 250h-9zM511 -154l-20 -16h-128l54 47v10h-83v87h233v-24q0 -36 -11.5 -56t-44.5 -48z" />
    <glyph glyph-name="kcommaaccent" unicode="&#x137;" horiz-adv-x="721" 
d="M255 95v-95h-237v700h237v-363h6l170 193h268l-207 -205l229 -325h-290l-102 162h-8zM404 -154l-20 -16h-128l54 47v10h-83v87h233v-24q0 -37 -11 -57t-45 -47z" />
    <glyph glyph-name="Lacute" unicode="&#x139;" horiz-adv-x="713" 
d="M427 860l-134 -120h-237l85 120h286zM699 205v-205h-657v700h263v-495h394z" />
    <glyph glyph-name="lacute" unicode="&#x13a;" horiz-adv-x="272" 
d="M388 860l-134 -120h-237l85 120h286zM255 700v-700h-237v700h237z" />
    <glyph glyph-name="Lcommaaccent" unicode="&#x13b;" horiz-adv-x="713" 
d="M699 205v-205h-657v700h263v-495h394zM431 -154l-20 -16h-128l54 47v10h-83v87h233v-24q0 -36 -11.5 -56t-44.5 -48z" />
    <glyph glyph-name="lcommaaccent" unicode="&#x13c;" horiz-adv-x="272" 
d="M255 700v-700h-237v700h237zM196 -154l-20 -16h-128l54 47v10h-83v87h233v-24q0 -37 -11 -57t-45 -47z" />
    <glyph glyph-name="Lcaron" unicode="&#x13d;" horiz-adv-x="743" 
d="M687 701l-102 -234h-182l36 234h248zM699 205v-205h-657v700h263v-495h394z" />
    <glyph glyph-name="lcaron" unicode="&#x13e;" horiz-adv-x="565" 
d="M255 700v-700h-237v700h237zM561 700l-102 -234h-182l36 234h248z" />
    <glyph glyph-name="Ldot" unicode="&#x13f;" horiz-adv-x="734" 
d="M699 205v-205h-657v700h263v-495h394zM429 519h225v-130h-225v130z" />
    <glyph glyph-name="ldot" unicode="&#x140;" horiz-adv-x="535" 
d="M255 700v-700h-237v700h237zM291 342h225v-130h-225v130z" />
    <glyph glyph-name="Lslash" unicode="&#x141;" horiz-adv-x="713" 
d="M42 261l-42 -9v162l42 9v277h263v-220l209 46v-161l-209 -46v-114h394v-205h-657v261z" />
    <glyph glyph-name="lslash" unicode="&#x142;" horiz-adv-x="320" 
d="M34 227l-34 -20v144l34 20v329h237v-189l49 29v-144l-49 -29v-367h-237v227z" />
    <glyph glyph-name="Nacute" unicode="&#x143;" horiz-adv-x="981" 
d="M743 860l-134 -120h-237l85 120h286zM944 700v-700h-394l-258 444h-8v-444h-249v700h394l258 -444h9v444h248z" />
    <glyph glyph-name="nacute" unicode="&#x144;" horiz-adv-x="668" 
d="M601 700l-134 -120h-237l85 120h286zM651 341v-341h-237v287q0 54 -14.5 68.5t-61.5 14.5q-48 0 -65.5 -21.5t-17.5 -78.5v-270h-237v530h237v-83h6q39 93 176 93q53 0 89 -7.5t66 -28t44.5 -61t14.5 -102.5z" />
    <glyph glyph-name="Ncommaaccent" unicode="&#x145;" horiz-adv-x="981" 
d="M944 700v-700h-394l-258 444h-8v-444h-249v700h394l258 -444h9v444h248zM552 -154l-20 -16h-128l54 47v10h-83v87h233v-24q0 -37 -11 -57t-45 -47z" />
    <glyph glyph-name="ncommaaccent" unicode="&#x146;" horiz-adv-x="668" 
d="M651 341v-341h-237v287q0 54 -14.5 68.5t-61.5 14.5q-48 0 -65.5 -21.5t-17.5 -78.5v-270h-237v530h237v-83h6q39 93 176 93q53 0 89 -7.5t66 -28t44.5 -61t14.5 -102.5zM390 -154l-20 -16h-128l54 47v10h-83v87h233v-24q0 -37 -11 -57t-45 -47z" />
    <glyph glyph-name="Ncaron" unicode="&#x147;" horiz-adv-x="981" 
d="M491 800l87 60h192l-111 -120h-336l-110 120h192zM944 700v-700h-394l-258 444h-8v-444h-249v700h394l258 -444h9v444h248z" />
    <glyph glyph-name="ncaron" unicode="&#x148;" horiz-adv-x="668" 
d="M348 640l87 60h192l-111 -120h-336l-110 120h192zM651 341v-341h-237v287q0 54 -14.5 68.5t-61.5 14.5q-48 0 -65.5 -21.5t-17.5 -78.5v-270h-237v530h237v-83h6q39 93 176 93q53 0 89 -7.5t66 -28t44.5 -61t14.5 -102.5z" />
    <glyph glyph-name="Eng" unicode="&#x14a;" horiz-adv-x="981" 
d="M584 -169h-192v191h129q21 0 21 6l-249 413h-9v-441h-242v700h379l267 -442h8v442h242v-546q0 -67 -5.5 -112.5t-20 -83.5t-39 -60.5t-65 -38.5t-94 -22t-130.5 -6z" />
    <glyph glyph-name="eng" unicode="&#x14b;" horiz-adv-x="668" 
d="M255 270v-270h-237v530h237v-83h6q39 93 176 93q53 0 89 -7.5t66 -28t44.5 -61t14.5 -102.5v-303q0 -117 -50 -162.5t-191 -45.5h-91v162h5q58 0 74 15t16 71v209q0 54 -14.5 68.5t-61.5 14.5q-48 0 -65.5 -21.5t-17.5 -78.5z" />
    <glyph glyph-name="Omacron" unicode="&#x14c;" horiz-adv-x="942" 
d="M691 850v-90h-441v90h441zM499 -10h-56q-227 0 -322 75t-95 264v41q0 188 95 264t322 76h56q227 0 322 -76t95 -264v-41q0 -189 -95 -264t-322 -75zM463 180h16q55 0 89.5 9t51.5 31t22.5 47.5t5.5 67.5v29q0 43 -5.5 69t-22.5 47.5t-51.5 30.5t-89.5 9h-16
q-55 0 -89.5 -9t-51.5 -30.5t-22.5 -47.5t-5.5 -69v-29q0 -42 5.5 -67.5t22.5 -47.5t51.5 -31t89.5 -9z" />
    <glyph glyph-name="omacron" unicode="&#x14d;" horiz-adv-x="718" 
d="M579 680v-90h-441v90h441zM381 -10h-44q-171 0 -246 60.5t-75 204.5v21q0 143 75.5 203.5t245.5 60.5h44q171 0 246 -60.5t75 -204.5v-21q0 -143 -75.5 -203.5t-245.5 -60.5zM359 159q68 0 87 18.5t19 82.5v10q0 63 -19 82t-87 19t-87 -19t-19 -82v-10q0 -64 19 -82.5
t87 -18.5z" />
    <glyph glyph-name="Obreve" unicode="&#x14e;" horiz-adv-x="942" 
d="M471 730q-130 0 -182 29t-66 101h189q4 -18 16 -26t43 -8t43 8t16 26h189q-14 -72 -66 -101t-182 -29zM499 -10h-56q-227 0 -322 75t-95 264v41q0 188 95 264t322 76h56q227 0 322 -76t95 -264v-41q0 -189 -95 -264t-322 -75zM463 180h16q55 0 89.5 9t51.5 31t22.5 47.5
t5.5 67.5v29q0 43 -5.5 69t-22.5 47.5t-51.5 30.5t-89.5 9h-16q-55 0 -89.5 -9t-51.5 -30.5t-22.5 -47.5t-5.5 -69v-29q0 -42 5.5 -67.5t22.5 -47.5t51.5 -31t89.5 -9z" />
    <glyph glyph-name="obreve" unicode="&#x14f;" horiz-adv-x="718" 
d="M359 570q-130 0 -182 29t-66 101h189q4 -18 16 -26t43 -8t43 8t16 26h189q-14 -72 -66 -101t-182 -29zM381 -10h-44q-171 0 -246 60.5t-75 204.5v21q0 143 75.5 203.5t245.5 60.5h44q171 0 246 -60.5t75 -204.5v-21q0 -143 -75.5 -203.5t-245.5 -60.5zM359 159
q68 0 87 18.5t19 82.5v10q0 63 -19 82t-87 19t-87 -19t-19 -82v-10q0 -64 19 -82.5t87 -18.5z" />
    <glyph glyph-name="Ohungarumlaut" unicode="&#x150;" horiz-adv-x="942" 
d="M554 860l-134 -120h-236l84 120h286zM870 860l-133 -120h-237l85 120h285zM499 -10h-56q-227 0 -322 75t-95 264v41q0 188 95 264t322 76h56q227 0 322 -76t95 -264v-41q0 -189 -95 -264t-322 -75zM463 180h16q55 0 89.5 9t51.5 31t22.5 47.5t5.5 67.5v29q0 43 -5.5 69
t-22.5 47.5t-51.5 30.5t-89.5 9h-16q-55 0 -89.5 -9t-51.5 -30.5t-22.5 -47.5t-5.5 -69v-29q0 -42 5.5 -67.5t22.5 -47.5t51.5 -31t89.5 -9z" />
    <glyph glyph-name="ohungarumlaut" unicode="&#x151;" horiz-adv-x="718" 
d="M453 700l-134 -120h-236l84 120h286zM769 700l-133 -120h-237l85 120h285zM381 -10h-44q-171 0 -246 60.5t-75 204.5v21q0 143 75.5 203.5t245.5 60.5h44q171 0 246 -60.5t75 -204.5v-21q0 -143 -75.5 -203.5t-245.5 -60.5zM359 159q68 0 87 18.5t19 82.5v10q0 63 -19 82
t-87 19t-87 -19t-19 -82v-10q0 -64 19 -82.5t87 -18.5z" />
    <glyph glyph-name="OE" unicode="&#x152;" horiz-adv-x="1327" 
d="M1289 179v-179h-853q-226 0 -317.5 75.5t-91.5 264.5v21q0 190 88.5 264.5t314.5 74.5h859v-179h-432v-81h432v-179h-432v-82h432zM468 190h126v320h-126q-58 0 -93 -8.5t-53 -30t-23 -47t-5 -69.5v-9q0 -45 5 -70.5t23 -47t53 -30t93 -8.5z" />
    <glyph glyph-name="oe" unicode="&#x153;" horiz-adv-x="1132" 
d="M381 -10h-44q-171 0 -246 60.5t-75 204.5v21q0 143 75.5 203.5t245.5 60.5h44q145 0 200 -48h6q48 48 199 48h11q166 0 242.5 -58t76.5 -207v-46h-414q2 -51 18 -67.5t73 -16.5q39 0 56.5 6t26.5 24h237q-16 -67 -47.5 -105.5t-96 -59t-172.5 -20.5h-12q-151 0 -199 47
h-5q-51 -47 -200 -47zM791 400q-50 0 -68 -14.5t-20 -56.5h176v6q0 36 -19.5 50.5t-68.5 14.5zM359 159q68 0 87 18.5t19 82.5v10q0 63 -19 82t-87 19t-87 -19t-19 -82v-10q0 -64 19 -82.5t87 -18.5z" />
    <glyph glyph-name="Racute" unicode="&#x154;" horiz-adv-x="884" 
d="M694 860l-134 -120h-237l85 120h286zM305 215v-215h-263v700h496q178 0 246 -41t68 -147v-19q0 -79 -32 -118t-109 -49v-9q81 -11 111 -42t30 -125v-150h-263v146q0 41 -20.5 55t-90.5 14h-173zM483 523h-178v-132h217q35 0 51 13.5t16 45.5v5q0 40 -21.5 54t-84.5 14z
" />
    <glyph glyph-name="racute" unicode="&#x155;" horiz-adv-x="451" 
d="M502 700l-134 -120h-237l85 120h286zM440 530h7v-186h-65q-81 0 -104 -22.5t-23 -86.5v-235h-237v530h237v-84h6q18 48 59 66t120 18z" />
    <glyph glyph-name="Rcommaaccent" unicode="&#x156;" horiz-adv-x="884" 
d="M305 215v-215h-263v700h496q178 0 246 -41t68 -147v-19q0 -79 -32 -118t-109 -49v-9q81 -11 111 -42t30 -125v-150h-263v146q0 41 -20.5 55t-90.5 14h-173zM483 523h-178v-132h217q35 0 51 13.5t16 45.5v5q0 40 -21.5 54t-84.5 14zM502 -154l-20 -16h-128l54 47v10h-83
v87h233v-24q0 -37 -11 -57t-45 -47z" />
    <glyph glyph-name="rcommaaccent" unicode="&#x157;" horiz-adv-x="451" 
d="M440 530h7v-186h-65q-81 0 -104 -22.5t-23 -86.5v-235h-237v530h237v-84h6q18 48 59 66t120 18zM197 -154l-20 -16h-128l54 47v10h-83v87h233v-24q0 -36 -11.5 -56t-44.5 -48z" />
    <glyph glyph-name="Rcaron" unicode="&#x158;" horiz-adv-x="884" 
d="M442 800l87 60h192l-111 -120h-336l-110 120h192zM305 215v-215h-263v700h496q178 0 246 -41t68 -147v-19q0 -79 -32 -118t-109 -49v-9q81 -11 111 -42t30 -125v-150h-263v146q0 41 -20.5 55t-90.5 14h-173zM483 523h-178v-132h217q35 0 51 13.5t16 45.5v5q0 40 -21.5 54
t-84.5 14z" />
    <glyph glyph-name="rcaron" unicode="&#x159;" horiz-adv-x="451" 
d="M249 640l87 60h192l-111 -120h-336l-110 120h192zM440 530h7v-186h-65q-81 0 -104 -22.5t-23 -86.5v-235h-237v530h237v-84h6q18 48 59 66t120 18z" />
    <glyph glyph-name="Sacute" unicode="&#x15a;" horiz-adv-x="869" 
d="M692 860l-134 -120h-237l85 120h286zM460 -10h-41q-182 0 -283 50t-117 171h281q9 -30 41 -39.5t109 -9.5q79 0 106.5 11t27.5 38v8q0 21 -15.5 30t-56.5 11l-182 6q-165 6 -230 51t-65 152v7q0 125 88.5 179.5t294.5 54.5h29q370 0 398 -231h-281q-10 33 -40 46t-98 13
q-71 0 -97.5 -11.5t-26.5 -39.5v-4q0 -23 15 -32t57 -11l180 -6q166 -6 231 -49.5t65 -148.5v-7q0 -131 -91 -185t-299 -54z" />
    <glyph glyph-name="sacute" unicode="&#x15b;" horiz-adv-x="701" 
d="M607 700l-134 -120h-237l85 120h286zM366 -10h-22q-151 0 -229 36.5t-98 125.5h253q18 -31 90 -31q44 0 60.5 9t16.5 29v4q0 16 -10.5 23.5t-42.5 9.5l-165 6q-111 4 -150 40.5t-39 114.5v8q0 94 77 134.5t242 40.5h11q140 0 220 -34q82 -35 98 -128h-253
q-11 18 -27 24.5t-49 6.5q-41 0 -56.5 -8.5t-15.5 -27.5v-4q0 -16 11 -23.5t43 -9.5l165 -6q111 -4 150 -40.5t39 -114.5v-9q0 -95 -74.5 -135.5t-244.5 -40.5z" />
    <glyph glyph-name="Scircumflex" unicode="&#x15c;" horiz-adv-x="869" 
d="M607 860l111 -120h-192l-87 60l-86 -60h-192l110 120h336zM460 -10h-41q-182 0 -283 50t-117 171h281q9 -30 41 -39.5t109 -9.5q79 0 106.5 11t27.5 38v8q0 21 -15.5 30t-56.5 11l-182 6q-165 6 -230 51t-65 152v7q0 125 88.5 179.5t294.5 54.5h29q370 0 398 -231h-281
q-10 33 -40 46t-98 13q-71 0 -97.5 -11.5t-26.5 -39.5v-4q0 -23 15 -32t57 -11l180 -6q166 -6 231 -49.5t65 -148.5v-7q0 -131 -91 -185t-299 -54z" />
    <glyph glyph-name="scircumflex" unicode="&#x15d;" horiz-adv-x="701" 
d="M523 700l111 -120h-192l-87 60l-86 -60h-192l110 120h336zM366 -10h-22q-151 0 -229 36.5t-98 125.5h253q18 -31 90 -31q44 0 60.5 9t16.5 29v4q0 16 -10.5 23.5t-42.5 9.5l-165 6q-111 4 -150 40.5t-39 114.5v8q0 94 77 134.5t242 40.5h11q140 0 220 -34q82 -35 98 -128
h-253q-11 18 -27 24.5t-49 6.5q-41 0 -56.5 -8.5t-15.5 -27.5v-4q0 -16 11 -23.5t43 -9.5l165 -6q111 -4 150 -40.5t39 -114.5v-9q0 -95 -74.5 -135.5t-244.5 -40.5z" />
    <glyph glyph-name="Scedilla" unicode="&#x15e;" horiz-adv-x="869" 
d="M850 236v-7q0 -117 -72 -172t-232 -65l-42 -132h-238l64 133q-134 11 -215 59q-81 50 -96 159h281q9 -30 41 -39.5t109 -9.5q79 0 106.5 11t27.5 38v8q0 21 -15.5 30t-56.5 11l-182 6q-165 6 -230 51t-65 152v7q0 125 88.5 179.5t294.5 54.5h29q370 0 398 -231h-281
q-10 33 -40 46t-98 13q-71 0 -97.5 -11.5t-26.5 -39.5v-4q0 -23 15 -32t57 -11l180 -6q166 -6 231 -49.5t65 -148.5z" />
    <glyph glyph-name="scedilla" unicode="&#x15f;" horiz-adv-x="701" 
d="M685 175v-9q0 -80 -51 -120.5t-164 -51.5l-42 -134h-238l64 134q-106 9 -163 46t-74 112h253q18 -31 90 -31q44 0 60.5 9t16.5 29v4q0 16 -10.5 23.5t-42.5 9.5l-165 6q-111 4 -150 40.5t-39 114.5v8q0 94 77 134.5t242 40.5h11q140 0 220 -34q82 -35 98 -128h-253
q-11 18 -27 24.5t-49 6.5q-41 0 -56.5 -8.5t-15.5 -27.5v-4q0 -16 11 -23.5t43 -9.5l165 -6q111 -4 150 -40.5t39 -114.5z" />
    <glyph glyph-name="Scaron" unicode="&#x160;" horiz-adv-x="869" 
d="M439 800l87 60h192l-111 -120h-336l-110 120h192zM460 -10h-41q-182 0 -283 50t-117 171h281q9 -30 41 -39.5t109 -9.5q79 0 106.5 11t27.5 38v8q0 21 -15.5 30t-56.5 11l-182 6q-165 6 -230 51t-65 152v7q0 125 88.5 179.5t294.5 54.5h29q370 0 398 -231h-281
q-10 33 -40 46t-98 13q-71 0 -97.5 -11.5t-26.5 -39.5v-4q0 -23 15 -32t57 -11l180 -6q166 -6 231 -49.5t65 -148.5v-7q0 -131 -91 -185t-299 -54z" />
    <glyph glyph-name="scaron" unicode="&#x161;" horiz-adv-x="701" 
d="M355 640l87 60h192l-111 -120h-336l-110 120h192zM366 -10h-22q-151 0 -229 36.5t-98 125.5h253q18 -31 90 -31q44 0 60.5 9t16.5 29v4q0 16 -10.5 23.5t-42.5 9.5l-165 6q-111 4 -150 40.5t-39 114.5v8q0 94 77 134.5t242 40.5h11q140 0 220 -34q82 -35 98 -128h-253
q-11 18 -27 24.5t-49 6.5q-41 0 -56.5 -8.5t-15.5 -27.5v-4q0 -16 11 -23.5t43 -9.5l165 -6q111 -4 150 -40.5t39 -114.5v-9q0 -95 -74.5 -135.5t-244.5 -40.5z" />
    <glyph glyph-name="Tcaron" unicode="&#x164;" horiz-adv-x="762" 
d="M380 800l87 60h192l-111 -120h-336l-110 120h192zM511 495v-495h-263v495h-237v205h740v-205h-240z" />
    <glyph glyph-name="tcaron" unicode="&#x165;" horiz-adv-x="465" 
d="M639 794l-102 -234h-182l36 234h248zM94 359h-80v171h80v170h237v-170h116v-171h-116v-119q0 -51 14.5 -64.5t68.5 -13.5h33v-162h-112q-140 0 -190.5 43t-50.5 145v171z" />
    <glyph glyph-name="Tbar" unicode="&#x166;" horiz-adv-x="762" 
d="M248 235h-170v160h170v100h-237v205h740v-205h-240v-100h173v-160h-173v-235h-263v235z" />
    <glyph glyph-name="tbar" unicode="&#x167;" horiz-adv-x="465" 
d="M94 203h-61v126h61v30h-80v171h80v170h237v-170h116v-171h-116v-30h100v-126h-98q5 -24 22.5 -32.5t58.5 -8.5h33v-162h-112q-140 0 -190.5 43t-50.5 145v15z" />
    <glyph glyph-name="Utilde" unicode="&#x168;" horiz-adv-x="851" 
d="M513 730q-40 0 -91 16t-62 16q-13 0 -17.5 -4t-6.5 -18h-151q9 73 43.5 101.5t105.5 28.5q39 0 90 -16t62 -16q13 0 17.5 4t7.5 18h158q-9 -72 -47 -101t-109 -29zM454 -10h-57q-115 0 -184.5 14t-112.5 52.5t-58.5 98t-15.5 158.5v387h267v-379q0 -90 23.5 -114.5
t102.5 -24.5h13q78 0 102 25t24 114v379h268v-387q0 -99 -15.5 -158.5t-59 -98t-113 -52.5t-184.5 -14z" />
    <glyph glyph-name="utilde" unicode="&#x169;" horiz-adv-x="668" 
d="M426 570q-39 0 -91 16t-62 16q-13 0 -17.5 -4t-6.5 -18h-151q9 73 44 101.5t105 28.5q39 0 90.5 -16t61.5 -16q13 0 17.5 4t7.5 18h158q-9 -72 -47 -101t-109 -29zM17 189v341h237v-287q0 -54 14.5 -68.5t61.5 -14.5q48 0 65.5 21.5t17.5 78.5v270h237v-530h-237v83h-6
q-39 -93 -176 -93q-53 0 -89 7.5t-66 28t-44.5 61t-14.5 102.5z" />
    <glyph glyph-name="Umacron" unicode="&#x16a;" horiz-adv-x="851" 
d="M647 850v-90h-441v90h441zM454 -10h-57q-115 0 -184.5 14t-112.5 52.5t-58.5 98t-15.5 158.5v387h267v-379q0 -90 23.5 -114.5t102.5 -24.5h13q78 0 102 25t24 114v379h268v-387q0 -99 -15.5 -158.5t-59 -98t-113 -52.5t-184.5 -14z" />
    <glyph glyph-name="umacron" unicode="&#x16b;" horiz-adv-x="668" 
d="M560 680v-90h-441v90h441zM17 189v341h237v-287q0 -54 14.5 -68.5t61.5 -14.5q48 0 65.5 21.5t17.5 78.5v270h237v-530h-237v83h-6q-39 -93 -176 -93q-53 0 -89 7.5t-66 28t-44.5 61t-14.5 102.5z" />
    <glyph glyph-name="Ubreve" unicode="&#x16c;" horiz-adv-x="851" 
d="M427 730q-130 0 -182 29t-66 101h189q4 -18 16 -26t43 -8t43 8t16 26h189q-14 -72 -66 -101t-182 -29zM454 -10h-57q-115 0 -184.5 14t-112.5 52.5t-58.5 98t-15.5 158.5v387h267v-379q0 -90 23.5 -114.5t102.5 -24.5h13q78 0 102 25t24 114v379h268v-387
q0 -99 -15.5 -158.5t-59 -98t-113 -52.5t-184.5 -14z" />
    <glyph glyph-name="ubreve" unicode="&#x16d;" horiz-adv-x="668" 
d="M340 570q-131 0 -183.5 29.5t-64.5 100.5h189q4 -18 16 -26t43 -8t43 8t16 26h189q-12 -71 -65 -100.5t-183 -29.5zM17 189v341h237v-287q0 -54 14.5 -68.5t61.5 -14.5q48 0 65.5 21.5t17.5 78.5v270h237v-530h-237v83h-6q-39 -93 -176 -93q-53 0 -89 7.5t-66 28
t-44.5 61t-14.5 102.5z" />
    <glyph glyph-name="Uring" unicode="&#x16e;" horiz-adv-x="851" 
d="M427 716q-103 0 -150 26.5t-47 87.5t47 87.5t150 26.5q102 0 149.5 -26.5t47.5 -87.5t-47.5 -87.5t-149.5 -26.5zM427 792q50 0 50 38t-50 38t-50 -38t50 -38zM454 -10h-57q-115 0 -184.5 14t-112.5 52.5t-58.5 98t-15.5 158.5v387h267v-379q0 -90 23.5 -114.5
t102.5 -24.5h13q78 0 102 25t24 114v379h268v-387q0 -99 -15.5 -158.5t-59 -98t-113 -52.5t-184.5 -14z" />
    <glyph glyph-name="uring" unicode="&#x16f;" horiz-adv-x="668" 
d="M340 556q-103 0 -150 26t-47 88t47 88t150 26t150 -26t47 -88t-47 -88t-150 -26zM340 632q50 0 50 38t-50 38t-50 -38t50 -38zM17 189v341h237v-287q0 -54 14.5 -68.5t61.5 -14.5q48 0 65.5 21.5t17.5 78.5v270h237v-530h-237v83h-6q-39 -93 -176 -93q-53 0 -89 7.5
t-66 28t-44.5 61t-14.5 102.5z" />
    <glyph glyph-name="Uhungarumlaut" unicode="&#x170;" horiz-adv-x="851" 
d="M509 860l-134 -120h-236l84 120h286zM825 860l-133 -120h-237l85 120h285zM454 -10h-57q-115 0 -184.5 14t-112.5 52.5t-58.5 98t-15.5 158.5v387h267v-379q0 -90 23.5 -114.5t102.5 -24.5h13q78 0 102 25t24 114v379h268v-387q0 -99 -15.5 -158.5t-59 -98t-113 -52.5
t-184.5 -14z" />
    <glyph glyph-name="uhungarumlaut" unicode="&#x171;" horiz-adv-x="668" 
d="M422 700l-134 -120h-236l84 120h286zM738 700l-133 -120h-237l85 120h285zM17 189v341h237v-287q0 -54 14.5 -68.5t61.5 -14.5q48 0 65.5 21.5t17.5 78.5v270h237v-530h-237v83h-6q-39 -93 -176 -93q-53 0 -89 7.5t-66 28t-44.5 61t-14.5 102.5z" />
    <glyph glyph-name="Uogonek" unicode="&#x172;" horiz-adv-x="851" 
d="M584 -54v-86h-188q-60 0 -87 16.5t-27 56.5q0 37 39 59v6h-12q-159 0 -221 70.5t-62 244.5v387h267v-379q0 -90 23.5 -114.5t102.5 -24.5h13q78 0 102 25t24 114v379h268v-387q0 -170 -54.5 -235.5t-214.5 -85.5q-39 -5 -51.5 -11t-12.5 -18q0 -17 28 -17h63z" />
    <glyph glyph-name="uogonek" unicode="&#x173;" horiz-adv-x="668" 
d="M17 189v341h237v-287q0 -54 14.5 -68.5t61.5 -14.5q48 0 65.5 21.5t17.5 78.5v270h237v-479h1v-51q-61 -9 -75.5 -15t-14.5 -20q0 -19 27 -19h63v-86h-170q-73 0 -102 16t-29 57q0 28 12.5 46t50.5 32v72h-6q-39 -93 -176 -93q-53 0 -89 7.5t-66 28t-44.5 61t-14.5 102.5
z" />
    <glyph glyph-name="Wcircumflex" unicode="&#x174;" horiz-adv-x="1301" 
d="M830 860l111 -120h-192l-87 60l-86 -60h-192l110 120h336zM1301 700l-198 -700h-337l-107 396l-124 -396h-334l-201 700h287l105 -463h9l119 463h285l121 -463h9l101 463h265z" />
    <glyph glyph-name="wcircumflex" unicode="&#x175;" horiz-adv-x="1079" 
d="M720 700l111 -120h-192l-87 60l-86 -60h-192l110 120h336zM1079 530l-153 -530h-289l-89 285l-88 -285h-304l-156 530h258l78 -313h7l92 313h239l91 -313h7l77 313h230z" />
    <glyph glyph-name="Ycircumflex" unicode="&#x176;" horiz-adv-x="897" 
d="M617 860l111 -120h-192l-87 60l-86 -60h-192l110 120h336zM580 296v-296h-264v296l-316 404h312l148 -214h8l148 214h281z" />
    <glyph glyph-name="ycircumflex" unicode="&#x177;" horiz-adv-x="656" 
d="M503 700l111 -120h-192l-87 60l-86 -60h-192l110 120h336zM665 530l-299 -700h-250l86 169l-211 531h254l86 -280h7l87 280h240z" />
    <glyph glyph-name="Ydieresis" unicode="&#x178;" horiz-adv-x="897" 
d="M238 870h191v-130h-191v130zM469 870h191v-130h-191v130zM580 296v-296h-264v296l-316 404h312l148 -214h8l148 214h281z" />
    <glyph glyph-name="Zacute" unicode="&#x179;" horiz-adv-x="821" 
d="M670 860l-134 -120h-237l85 120h286zM798 196v-196h-774v179l395 325h-360v196h719v-179l-394 -325h414z" />
    <glyph glyph-name="zacute" unicode="&#x17a;" horiz-adv-x="624" 
d="M564 700l-134 -120h-237l85 120h286zM608 171v-171h-591v162l266 197h-244v171h547v-162l-267 -197h289z" />
    <glyph glyph-name="Zdotaccent" unicode="&#x17b;" horiz-adv-x="821" 
d="M300 870h237v-130h-237v130zM798 196v-196h-774v179l395 325h-360v196h719v-179l-394 -325h414z" />
    <glyph glyph-name="zdotaccent" unicode="&#x17c;" horiz-adv-x="624" 
d="M194 700h237v-130h-237v130zM608 171v-171h-591v162l266 197h-244v171h547v-162l-267 -197h289z" />
    <glyph glyph-name="Zcaron" unicode="&#x17d;" horiz-adv-x="821" 
d="M418 800l87 60h192l-111 -120h-336l-110 120h192zM798 196v-196h-774v179l395 325h-360v196h719v-179l-394 -325h414z" />
    <glyph glyph-name="zcaron" unicode="&#x17e;" horiz-adv-x="624" 
d="M312 640l87 60h192l-111 -120h-336l-110 120h192zM608 171v-171h-591v162l266 197h-244v171h547v-162l-267 -197h289z" />
    <glyph glyph-name="florin" unicode="&#x192;" 
d="M480 306v-411h-246v411h-218v88h218q2 112 34.5 176.5t110 97t213.5 32.5h176v-186h-147q-86 0 -113.5 -23t-27.5 -85v-12h289v-88h-289z" />
    <glyph glyph-name="Aringacute" unicode="&#x1fa;" horiz-adv-x="1021" 
d="M763 1080l-134 -120h-237l85 120h286zM511 716q-103 0 -150 26.5t-47 87.5t47 87.5t150 26.5q102 0 149.5 -26.5t47.5 -87.5t-47.5 -87.5t-149.5 -26.5zM511 792q50 0 50 38t-50 38t-50 -38t50 -38zM709 700l312 -700h-297l-51 122h-339l-50 -122h-284l312 700h397z
M508 523h-9l-91 -223h191z" />
    <glyph glyph-name="aringacute" unicode="&#x1fb;" horiz-adv-x="673" 
d="M602 920l-134 -120h-237l85 120h286zM349 556q-104 0 -150.5 26t-46.5 88t46.5 88t150.5 26q103 0 150 -26t47 -88t-47 -88t-150 -26zM349 632q50 0 50 38t-50 38t-50 -38t50 -38zM656 317v-317h-234v69h-7q-37 -79 -187 -79q-110 0 -164.5 40.5t-54.5 128.5v6
q0 77 45.5 113t141.5 41l223 9v14q0 35 -15.5 46t-61.5 11q-38 0 -54 -7t-23 -24h-240q27 91 97.5 131.5t222.5 40.5h8q175 0 239 -45.5t64 -177.5zM247 169v-6q0 -24 15 -33.5t51 -9.5q106 0 106 80v12l-120 -4q-29 -2 -40.5 -10.5t-11.5 -28.5z" />
    <glyph glyph-name="AEacute" unicode="&#x1fc;" horiz-adv-x="1332" 
d="M983 860l-134 -120h-237l85 120h286zM1294 179v-179h-694v125h-231l-69 -125h-300l424 700h870v-179h-432v-81h432v-179h-432v-82h432zM600 528h-10l-124 -225h134v225z" />
    <glyph glyph-name="aeacute" unicode="&#x1fd;" horiz-adv-x="1085" 
d="M790 700l-134 -120h-237l85 120h286zM751 -10h-12q-113 0 -175 23t-94 76h-7q-56 -99 -222 -99q-118 0 -175 40.5t-57 128.5v6q0 77 45.5 113t141.5 41l223 9v14q0 35 -15.5 46t-61.5 11q-38 0 -54 -7t-23 -24h-240q27 91 97.5 131.5t224.5 40.5h8q151 0 193 -45h6
q40 45 186 45h11q166 0 242.5 -58t76.5 -207v-46h-414q2 -51 18 -67.5t73 -16.5q39 0 56.5 6t26.5 24h237q-16 -67 -47.5 -105.5t-96 -59t-172.5 -20.5zM745 400q-50 0 -68 -14.5t-20 -56.5h176v6q0 36 -19.5 50.5t-68.5 14.5zM247 169v-6q0 -24 15 -33.5t51 -9.5
q106 0 106 80v12l-120 -4q-29 -2 -40.5 -10.5t-11.5 -28.5z" />
    <glyph glyph-name="Oslashacute" unicode="&#x1fe;" horiz-adv-x="942" 
d="M723 860l-134 -120h-237l85 120h286zM238 -40h-212l93 107q-93 76 -93 262v41q0 188 95 264t322 76h56q98 0 169 -13l37 43h211l-93 -107q93 -79 93 -263v-41q0 -189 -95 -264t-322 -75h-56q-99 0 -168 13zM294 364v-29q0 -39 4 -62l215 246q-11 1 -34 1h-16
q-55 0 -89.5 -9t-51.5 -30.5t-22.5 -47.5t-5.5 -69zM463 180h16q55 0 89.5 9t51.5 31t22.5 47.5t5.5 67.5v29q0 40 -4 63l-214 -246q11 -1 33 -1z" />
    <glyph glyph-name="oslashacute" unicode="&#x1ff;" horiz-adv-x="718" 
d="M612 700l-134 -120h-237l85 120h286zM197 -40h-181l74 91q-74 62 -74 204v21q0 143 75.5 203.5t245.5 60.5h44q65 0 111 -7l30 37h180l-74 -91q74 -62 74 -204v-21q0 -143 -75.5 -203.5t-245.5 -60.5h-44q-64 0 -110 7zM253 270v-10q0 -19 2 -37l124 148h-20
q-68 0 -87 -19t-19 -82zM339 159h20q68 0 87 18.5t19 82.5v10q0 15 -2 37z" />
    <glyph glyph-name="Scommaaccent" unicode="&#x218;" horiz-adv-x="869" 
d="M460 -10h-41q-182 0 -283 50t-117 171h281q9 -30 41 -39.5t109 -9.5q79 0 106.5 11t27.5 38v8q0 21 -15.5 30t-56.5 11l-182 6q-165 6 -230 51t-65 152v7q0 125 88.5 179.5t294.5 54.5h29q370 0 398 -231h-281q-10 33 -40 46t-98 13q-71 0 -97.5 -11.5t-26.5 -39.5v-4
q0 -23 15 -32t57 -11l180 -6q166 -6 231 -49.5t65 -148.5v-7q0 -131 -91 -185t-299 -54zM501 -154l-20 -16h-128l54 47v10h-83v87h233v-24q0 -36 -11.5 -56t-44.5 -48z" />
    <glyph glyph-name="scommaaccent" unicode="&#x219;" horiz-adv-x="701" 
d="M366 -10h-22q-151 0 -229 36.5t-98 125.5h253q18 -31 90 -31q44 0 60.5 9t16.5 29v4q0 16 -10.5 23.5t-42.5 9.5l-165 6q-111 4 -150 40.5t-39 114.5v8q0 94 77 134.5t242 40.5h11q140 0 220 -34q82 -35 98 -128h-253q-11 18 -27 24.5t-49 6.5q-41 0 -56.5 -8.5
t-15.5 -27.5v-4q0 -16 11 -23.5t43 -9.5l165 -6q111 -4 150 -40.5t39 -114.5v-9q0 -95 -74.5 -135.5t-244.5 -40.5zM424 -154l-20 -16h-128l54 47v10h-83v87h233v-24q0 -37 -11 -57t-45 -47z" />
    <glyph glyph-name="Tcommaaccent" unicode="&#x21a;" horiz-adv-x="762" 
d="M511 495v-495h-263v495h-237v205h740v-205h-240zM442 -154l-20 -16h-128l54 47v10h-83v87h233v-24q0 -37 -11 -57t-45 -47z" />
    <glyph glyph-name="tcommaaccent" unicode="&#x21b;" horiz-adv-x="465" 
d="M94 359h-80v171h80v170h237v-170h116v-171h-116v-119q0 -51 14.5 -64.5t68.5 -13.5h33v-162h-112q-140 0 -190.5 43t-50.5 145v171zM346 -154l-20 -16h-128l54 47v10h-83v87h233v-24q0 -37 -11 -57t-45 -47z" />
    <glyph glyph-name="circumflex" unicode="&#x2c6;" horiz-adv-x="500" 
d="M418 700l111 -120h-192l-87 60l-86 -60h-192l110 120h336z" />
    <glyph glyph-name="caron" unicode="&#x2c7;" horiz-adv-x="500" 
d="M250 640l87 60h192l-111 -120h-336l-110 120h192z" />
    <glyph glyph-name="breve" unicode="&#x2d8;" horiz-adv-x="500" 
d="M250 570q-131 0 -183.5 29.5t-64.5 100.5h189q4 -18 16 -26t43 -8t43 8t16 26h189q-12 -71 -64.5 -100.5t-183.5 -29.5z" />
    <glyph glyph-name="dotaccent" unicode="&#x2d9;" horiz-adv-x="500" 
d="M130 700h237v-130h-237v130z" />
    <glyph glyph-name="ring" unicode="&#x2da;" horiz-adv-x="500" 
d="M250 556q-103 0 -150 26t-47 88t47 88t150 26t150 -26t47 -88t-47 -88t-150 -26zM250 632q50 0 50 38t-50 38t-50 -38t50 -38z" />
    <glyph glyph-name="ogonek" unicode="&#x2db;" horiz-adv-x="500" 
d="M386 -54v-86h-170q-73 0 -102 16t-29 57q0 34 17 52.5t83.5 35.5t200.5 30v-51q-61 -9 -75.5 -15t-14.5 -20q0 -19 27 -19h63z" />
    <glyph glyph-name="tilde" unicode="&#x2dc;" horiz-adv-x="500" 
d="M336 570q-39 0 -91 16t-62 16q-13 0 -17.5 -4t-6.5 -18h-151q9 73 44 101.5t105 28.5q39 0 90.5 -16t61.5 -16q13 0 17.5 4t7.5 18h158q-9 -72 -47 -101t-109 -29z" />
    <glyph glyph-name="hungarumlaut" unicode="&#x2dd;" horiz-adv-x="500" 
d="M277 700l-134 -120h-236l84 120h286zM593 700l-133 -120h-237l85 120h285z" />
    <glyph glyph-name="commaaccent" unicode="&#x326;" horiz-adv-x="500" 
d="M316 -154l-20 -16h-128l54 47v10h-83v87h233v-24q0 -37 -11 -57t-45 -47z" />
    <glyph glyph-name="pi" unicode="&#x3c0;" horiz-adv-x="803" 
d="M780 162v-162h-99q-141 0 -191 45.5t-50 162.5v151h-105v-359h-236v359h-70v171h751v-171h-103v-113q0 -54 15.5 -69t71.5 -15h16z" />
    <glyph glyph-name="Wgrave" unicode="&#x1e80;" horiz-adv-x="1301" 
d="M697 860l85 -120h-237l-134 120h286zM1301 700l-198 -700h-337l-107 396l-124 -396h-334l-201 700h287l105 -463h9l119 463h285l121 -463h9l101 463h265z" />
    <glyph glyph-name="wgrave" unicode="&#x1e81;" horiz-adv-x="1079" 
d="M587 700l85 -120h-237l-134 120h286zM1079 530l-153 -530h-289l-89 285l-88 -285h-304l-156 530h258l78 -313h7l92 313h239l91 -313h7l77 313h230z" />
    <glyph glyph-name="Wacute" unicode="&#x1e82;" horiz-adv-x="1301" 
d="M915 860l-134 -120h-237l85 120h286zM1301 700l-198 -700h-337l-107 396l-124 -396h-334l-201 700h287l105 -463h9l119 463h285l121 -463h9l101 463h265z" />
    <glyph glyph-name="wacute" unicode="&#x1e83;" horiz-adv-x="1079" 
d="M805 700l-134 -120h-237l85 120h286zM1079 530l-153 -530h-289l-89 285l-88 -285h-304l-156 530h258l78 -313h7l92 313h239l91 -313h7l77 313h230z" />
    <glyph glyph-name="Wdieresis" unicode="&#x1e84;" horiz-adv-x="1301" 
d="M451 870h191v-130h-191v130zM682 870h191v-130h-191v130zM1301 700l-198 -700h-337l-107 396l-124 -396h-334l-201 700h287l105 -463h9l119 463h285l121 -463h9l101 463h265z" />
    <glyph glyph-name="wdieresis" unicode="&#x1e85;" horiz-adv-x="1079" 
d="M341 700h191v-130h-191v130zM572 700h191v-130h-191v130zM1079 530l-153 -530h-289l-89 285l-88 -285h-304l-156 530h258l78 -313h7l92 313h239l91 -313h7l77 313h230z" />
    <glyph glyph-name="Ygrave" unicode="&#x1ef2;" horiz-adv-x="897" 
d="M483 860l85 -120h-237l-134 120h286zM580 296v-296h-264v296l-316 404h312l148 -214h8l148 214h281z" />
    <glyph glyph-name="ygrave" unicode="&#x1ef3;" horiz-adv-x="656" 
d="M369 700l85 -120h-237l-134 120h286zM665 530l-299 -700h-250l86 169l-211 531h254l86 -280h7l87 280h240z" />
    <glyph glyph-name="endash" unicode="&#x2013;" horiz-adv-x="659" 
d="M641 235h-623v115h623v-115z" />
    <glyph glyph-name="emdash" unicode="&#x2014;" horiz-adv-x="989" 
d="M971 235h-953v115h953v-115z" />
    <glyph glyph-name="quoteleft" unicode="&#x2018;" horiz-adv-x="327" 
d="M106 678l15 22h154l-75 -130v-10h88v-199h-249v123q0 94 67 194z" />
    <glyph glyph-name="quoteright" unicode="&#x2019;" horiz-adv-x="327" 
d="M221 383l-15 -22h-154l75 130v10h-88v199h249v-123q0 -93 -67 -194z" />
    <glyph glyph-name="quotesinglbase" unicode="&#x201a;" horiz-adv-x="327" 
d="M221 -118l-15 -22h-154l75 130v10h-88v199h249v-123q0 -93 -67 -194z" />
    <glyph glyph-name="quotedblleft" unicode="&#x201c;" horiz-adv-x="618" 
d="M106 678l15 22h154l-75 -130v-10h88v-199h-249v123q0 94 67 194zM397 678l15 22h154l-75 -130v-10h88v-199h-249v123q0 94 67 194z" />
    <glyph glyph-name="quotedblright" unicode="&#x201d;" horiz-adv-x="618" 
d="M221 383l-15 -22h-154l75 130v10h-88v199h249v-123q0 -93 -67 -194zM512 383l-15 -22h-154l75 130v10h-88v199h249v-123q0 -93 -67 -194z" />
    <glyph glyph-name="quotedblbase" unicode="&#x201e;" horiz-adv-x="618" 
d="M221 -118l-15 -22h-154l75 130v10h-88v199h249v-123q0 -93 -67 -194zM512 -118l-15 -22h-154l75 130v10h-88v199h249v-123q0 -93 -67 -194z" />
    <glyph glyph-name="dagger" unicode="&#x2020;" horiz-adv-x="415" 
d="M145 440h-121v90h121v170h125v-170h121v-90h-121v-540h-125v540z" />
    <glyph glyph-name="daggerdbl" unicode="&#x2021;" horiz-adv-x="415" 
d="M270 70v-170h-125v170h-121v90h121v280h-121v90h121v170h125v-170h121v-90h-121v-280h121v-90h-121z" />
    <glyph glyph-name="bullet" unicode="&#x2022;" horiz-adv-x="463" 
d="M232 193q-68 0 -114.5 43.5t-46.5 112.5t47 113t114 44q66 0 113 -44t47 -113t-47 -112.5t-113 -43.5z" />
    <glyph glyph-name="ellipsis" unicode="&#x2026;" horiz-adv-x="981" 
d="M288 0h-249v199h249v-199zM615 0h-248v199h248v-199zM942 0h-248v199h248v-199z" />
    <glyph glyph-name="perthousand" unicode="&#x2030;" horiz-adv-x="1284" 
d="M238 320h-15q-111 0 -158 42t-47 143v19q0 100 47.5 143t157.5 43h15q110 0 157 -43t47 -143v-19q0 -101 -46.5 -143t-157.5 -42zM772 700l-397 -700h-140l398 700h139zM230 436q39 0 53 15.5t14 58.5v11q0 41 -13.5 56t-53.5 15q-39 0 -52.5 -15t-13.5 -56v-11
q0 -43 13.5 -58.5t52.5 -15.5zM1061 -10h-10q-100 0 -134 34h-6q-33 -34 -134 -34h-9q-111 0 -158 42.5t-47 142.5v19q0 100 47 143t158 43h9q101 0 134 -34h6q34 34 134 34h10q109 0 156.5 -43t47.5 -143v-19q0 -99 -47.5 -142t-156.5 -43zM775 107q40 0 53.5 15t13.5 58
v12q0 41 -13.5 55.5t-53.5 14.5t-53.5 -14.5t-13.5 -55.5v-12q0 -43 13.5 -58t53.5 -15zM1053 107q40 0 53.5 15t13.5 58v12q0 41 -13.5 55.5t-53.5 14.5t-53.5 -14.5t-13.5 -55.5v-12q0 -43 13.5 -58t53.5 -15z" />
    <glyph glyph-name="guilsinglleft" unicode="&#x2039;" horiz-adv-x="297" 
d="M32 289v6l84 219h147l-89 -222l89 -222h-147z" />
    <glyph glyph-name="guilsinglright" unicode="&#x203a;" horiz-adv-x="297" 
d="M265 295v-6l-84 -219h-147l89 222l-89 222h147z" />
    <glyph glyph-name="fraction" unicode="&#x2044;" horiz-adv-x="253" 
d="M395 700l-397 -700h-140l398 700h139z" />
    <glyph glyph-name="zerosuperior" unicode="&#x2070;" horiz-adv-x="546" 
d="M279 374h-12q-145 0 -200 47.5t-55 160.5v16q0 113 55 160.5t200 47.5h12q145 0 200 -48t55 -161v-16q0 -113 -55 -160t-200 -47zM273 514q37 0 45.5 10t8.5 53v25q0 43 -8.5 53.5t-45.5 10.5q-36 0 -44 -10.5t-8 -53.5v-25q0 -43 8 -53t44 -10z" />
    <glyph glyph-name="foursuperior" unicode="&#x2074;" horiz-adv-x="546" 
d="M498 458v-78h-206v78h-282v187l183 155h305v-219h39v-123h-39zM165 588v-7h127v109h-7z" />
    <glyph glyph-name="fivesuperior" unicode="&#x2075;" horiz-adv-x="546" 
d="M293 374h-24q-125 0 -187.5 30.5t-75.5 115.5h208q6 -19 18.5 -25t41.5 -6q33 0 42.5 6.5t9.5 25.5v4q0 18 -12.5 24t-52.5 6q-51 0 -62 -13h-189l25 258h477v-118h-290l-5 -59h7q10 15 35 25q27 12 95 12q107 0 146 -30t39 -98v-7q0 -82 -60.5 -116.5t-185.5 -34.5z" />
    <glyph glyph-name="sixsuperior" unicode="&#x2076;" horiz-adv-x="546" 
d="M295 374h-34q-141 0 -197 50t-56 159v16q0 109 56.5 158t198.5 49h28q115 0 176 -36t70 -99h-209q-8 18 -51 18q-37 0 -50.5 -11t-13.5 -41v-24h7q21 34 130 34t149.5 -28.5t40.5 -96.5v-4q0 -72 -57 -108t-188 -36zM271 489q40 0 50.5 6t10.5 23v6q0 17 -10.5 23
t-50.5 6q-44 0 -52 -7q-8 -6 -8 -22v-6q0 -17 10 -23t50 -6z" />
    <glyph glyph-name="sevensuperior" unicode="&#x2077;" horiz-adv-x="546" 
d="M541 667l-254 -287h-259l254 264v7h-274v149h533v-133z" />
    <glyph glyph-name="eightsuperior" unicode="&#x2078;" horiz-adv-x="546" 
d="M295 373h-43q-246 0 -246 136v5q0 89 101 97v7q-87 11 -87 80v3q0 52 56 78.5t186 26.5h22q129 0 185.5 -26.5t56.5 -78.5v-3q0 -69 -88 -80v-7q101 -8 101 -97v-5q0 -136 -244 -136zM264 636h16q25 0 33 5.5t8 18.5v4q0 13 -9.5 18.5t-39.5 5.5q-31 0 -40 -5t-9 -19v-4
q0 -13 8 -18.5t33 -5.5zM272 491q36 0 47 6.5t11 23.5v3q0 19 -9.5 25t-42.5 6h-12q-33 0 -42 -6t-9 -25v-3q0 -17 10.5 -23.5t46.5 -6.5z" />
    <glyph glyph-name="ninesuperior" unicode="&#x2079;" horiz-adv-x="546" 
d="M251 806h34q141 0 197 -50t56 -159v-16q0 -109 -56.5 -158t-198.5 -49h-28q-115 0 -176 36t-70 99h209q7 -18 51 -18q37 0 50.5 11t13.5 41v24h-7q-21 -34 -130 -34t-149.5 28.5t-40.5 96.5v4q0 72 57 108t188 36zM275 691q-40 0 -50.5 -6t-10.5 -23v-6q0 -17 10.5 -23
t50.5 -6q43 0 51 6q9 7 9 23v6q0 17 -10 23t-50 6z" />
    <glyph glyph-name="plussuperior" unicode="&#x207a;" horiz-adv-x="355" 
d="M132 543h-113v95h113v118h91v-118h113v-95h-113v-118h-91v118z" />
    <glyph glyph-name="minussuperior" unicode="&#x207b;" horiz-adv-x="342" 
d="M305 543h-269v95h269v-95z" />
    <glyph glyph-name="equalsuperior" unicode="&#x207c;" horiz-adv-x="348" 
d="M321 619h-293v94h293v-94zM321 467h-293v94h293v-94z" />
    <glyph glyph-name="parenleftsuperior" unicode="&#x207d;" horiz-adv-x="208" 
d="M192 439v-86q-87 6 -125 54t-38 165v36q0 117 38 165t125 54v-86q-35 -6 -51.5 -34.5t-16.5 -97.5v-38q0 -72 17 -100q18 -26 51 -32z" />
    <glyph glyph-name="parenrightsuperior" unicode="&#x207e;" horiz-adv-x="208" 
d="M16 741v86q87 -6 125 -54t38 -165v-36q0 -117 -38 -165t-125 -54v86q35 6 51.5 34.5t16.5 97.5v38q0 73 -18 99q-16 27 -50 33z" />
    <glyph glyph-name="zeroinferior" unicode="&#x2080;" horiz-adv-x="546" 
d="M279 -106h-12q-145 0 -200 47.5t-55 160.5v16q0 113 55 160.5t200 47.5h12q145 0 200 -48t55 -161v-16q0 -113 -55 -160t-200 -47zM273 34q37 0 45.5 10t8.5 53v25q0 43 -8.5 53.5t-45.5 10.5q-36 0 -44 -10.5t-8 -53.5v-25q0 -43 8 -53t44 -10z" />
    <glyph glyph-name="oneinferior" unicode="&#x2081;" horiz-adv-x="399" 
d="M372 320v-420h-206v276h-6l-140 -79v176l108 47h244z" />
    <glyph glyph-name="twoinferior" unicode="&#x2082;" horiz-adv-x="546" 
d="M533 23v-123h-520v89q0 79 38 113t132 48l113 16q19 3 24 7.5t5 13.5v3q0 12 -9 16.5t-36 4.5q-29 0 -41 -6.5t-17 -24.5h-207q13 146 255 146h11q252 0 252 -127v-6q0 -63 -32.5 -92t-120.5 -42l-146 -20q-17 -1 -17 -12v-4h316z" />
    <glyph glyph-name="threeinferior" unicode="&#x2083;" horiz-adv-x="546" 
d="M294 -106h-23q-125 0 -190.5 33t-74.5 116h208q5 -20 18 -27t43 -7q33 0 42 5.5t9 21.5v4q0 18 -31 18h-85v108h74q17 0 22.5 4.5t5.5 14.5v4q0 12 -7.5 17t-29.5 5q-24 0 -33.5 -6t-14.5 -24h-209q8 74 59.5 109.5t182.5 35.5h19q131 0 189 -26t58 -81v-4
q0 -35 -21.5 -54t-70.5 -25v-7q52 -4 78.5 -25t26.5 -69v-5q0 -70 -58.5 -103t-186.5 -33z" />
    <glyph glyph-name="fourinferior" unicode="&#x2084;" horiz-adv-x="546" 
d="M498 -22v-78h-206v78h-282v187l183 155h305v-219h39v-123h-39zM165 108v-7h127v109h-7z" />
    <glyph glyph-name="fiveinferior" unicode="&#x2085;" horiz-adv-x="546" 
d="M293 -106h-24q-125 0 -187.5 30.5t-75.5 115.5h208q6 -19 18.5 -25t41.5 -6q33 0 42.5 6.5t9.5 25.5v4q0 18 -12.5 24t-52.5 6q-51 0 -62 -13h-189l25 258h477v-118h-290l-5 -59h7q10 15 35 25q27 12 95 12q107 0 146 -30t39 -98v-7q0 -82 -60.5 -116.5t-185.5 -34.5z
" />
    <glyph glyph-name="sixinferior" unicode="&#x2086;" horiz-adv-x="546" 
d="M295 -106h-34q-141 0 -197 50t-56 159v16q0 109 56.5 158t198.5 49h28q115 0 176 -36t70 -99h-209q-8 18 -51 18q-37 0 -50.5 -11t-13.5 -41v-24h7q21 34 130 34t149.5 -28.5t40.5 -96.5v-4q0 -72 -57 -108t-188 -36zM271 9q40 0 50.5 6t10.5 23v6q0 17 -10.5 23t-50.5 6
q-44 0 -52 -7q-8 -6 -8 -22v-6q0 -17 10 -23t50 -6z" />
    <glyph glyph-name="seveninferior" unicode="&#x2087;" horiz-adv-x="546" 
d="M541 187l-254 -287h-259l254 264v7h-274v149h533v-133z" />
    <glyph glyph-name="eightinferior" unicode="&#x2088;" horiz-adv-x="546" 
d="M295 -107h-43q-246 0 -246 136v5q0 89 101 97v7q-87 11 -87 80v3q0 52 56 78.5t186 26.5h22q129 0 185.5 -26.5t56.5 -78.5v-3q0 -69 -88 -80v-7q101 -8 101 -97v-5q0 -136 -244 -136zM264 156h16q25 0 33 5.5t8 18.5v4q0 13 -9.5 18.5t-39.5 5.5q-31 0 -40 -5t-9 -19v-4
q0 -13 8 -18.5t33 -5.5zM272 11q36 0 47 6.5t11 23.5v3q0 19 -9.5 25t-42.5 6h-12q-33 0 -42 -6t-9 -25v-3q0 -17 10.5 -23.5t46.5 -6.5z" />
    <glyph glyph-name="nineinferior" unicode="&#x2089;" horiz-adv-x="546" 
d="M251 326h34q141 0 197 -50t56 -159v-16q0 -109 -56.5 -158t-198.5 -49h-28q-115 0 -176 36t-70 99h209q7 -18 51 -18q37 0 50.5 11t13.5 41v24h-7q-21 -34 -130 -34t-149.5 28.5t-40.5 96.5v4q0 72 57 108t188 36zM275 211q-40 0 -50.5 -6t-10.5 -23v-6q0 -17 10.5 -23
t50.5 -6q43 0 51 6q9 7 9 23v6q0 17 -10 23t-50 6z" />
    <glyph glyph-name="plusinferior" unicode="&#x208a;" horiz-adv-x="355" 
d="M132 158v118h91v-118h113v-95h-113v-118h-91v118h-113v95h113z" />
    <glyph glyph-name="minusinferior" unicode="&#x208b;" horiz-adv-x="342" 
d="M305 63h-269v95h269v-95z" />
    <glyph glyph-name="equalinferior" unicode="&#x208c;" horiz-adv-x="348" 
d="M321 139h-293v94h293v-94zM321 -13h-293v94h293v-94z" />
    <glyph glyph-name="parenleftinferior" unicode="&#x208d;" horiz-adv-x="208" 
d="M192 -41v-86q-87 6 -125 54t-38 165v36q0 117 38 165t125 54v-86q-35 -6 -51.5 -34.5t-16.5 -97.5v-38q0 -73 17 -99q18 -27 51 -33z" />
    <glyph glyph-name="parenrightinferior" unicode="&#x208e;" horiz-adv-x="208" 
d="M16 261v86q87 -6 125 -54t38 -165v-36q0 -117 -38 -165t-125 -54v86q35 6 51.5 34.5t16.5 97.5v38q0 73 -18 99q-16 27 -50 33z" />
    <glyph glyph-name="Euro" unicode="&#x20ac;" 
d="M457 -10h-25q-163 0 -249 57.5t-106 194.5h-77v89h71v5v28v5h-71v89h77q20 137 106 194.5t249 57.5h25q163 0 242 -48.5t98 -164.5h-247q-10 19 -32 26t-74 7q-60 0 -86 -15.5t-33 -56.5h373v-89h-377v-38h377v-89h-373q7 -41 33 -56.5t86 -15.5q52 0 74.5 7.5t31.5 25.5
h247q-19 -116 -98 -164.5t-242 -48.5z" />
    <glyph glyph-name="litre" unicode="&#x2113;" horiz-adv-x="480" 
d="M261 -15q-78 0 -121 36.5t-56 115.5l-23 -12l-56 109q9 5 72 41v149q0 115 20.5 177.5t60.5 85.5t113 23q177 0 177 -172q0 -92 -47 -161.5t-151 -140.5v-57q0 -28 10.5 -41t35.5 -13q36 0 75 37l64 -106q-71 -71 -174 -71zM250 474v-83q31 30 43 61.5t12 78.5
q0 42 -23 42q-18 0 -25 -19.5t-7 -79.5z" />
    <glyph glyph-name="numero" unicode="&#x2116;" horiz-adv-x="1571" 
d="M1298 272h-32q-135 0 -198.5 45.5t-63.5 164.5v15q0 120 63.5 165.5t199.5 45.5h31q135 0 196.5 -45.5t61.5 -165.5v-15q0 -119 -61.5 -164.5t-196.5 -45.5zM951 700v-700h-394l-258 444h-8v-444h-249v700h394l258 -444h9v444h248zM1280 418q45 0 56 10.5t11 55.5v13
q0 44 -11 54.5t-56 10.5t-56 -10.5t-11 -54.5v-13q0 -45 11 -55.5t56 -10.5z" />
    <glyph glyph-name="published" unicode="&#x2117;" horiz-adv-x="868" 
d="M483 -10h-98q-186 0 -271 78t-85 232v100q0 154 85 232t271 78h98q186 0 271 -78t85 -232v-100q0 -154 -85 -232t-271 -78zM400 25h68q99 0 165 19.5t102 60t50.5 92.5t14.5 127v52q0 75 -14.5 127t-50.5 92.5t-102 60t-165 19.5h-68q-98 0 -164 -19.5t-102 -60
t-50.5 -92.5t-14.5 -127v-52q0 -75 14.5 -127t50.5 -92.5t102 -60t164 -19.5zM392 259v-119h-180v420h294q106 0 152 -32t46 -114v-10q0 -78 -48 -111.5t-150 -33.5h-114zM480 444h-88v-71h88q28 0 36 8t8 26v5q0 19 -8.5 25.5t-35.5 6.5z" />
    <glyph glyph-name="trademark" unicode="&#x2122;" horiz-adv-x="1149" 
d="M294 583v-233h-161v233h-116v117h394v-117h-117zM1123 700v-350h-159v243h-5l-85 -243h-179l-85 243h-6v-243h-159v350h285l61 -179h4l61 179h267z" />
    <glyph glyph-name="Omega" unicode="&#x2126;" horiz-adv-x="965" 
d="M937 179v-179h-427v271q92 2 125 24.5t33 89.5v15q0 71 -34.5 95.5t-139.5 24.5h-23q-105 0 -139.5 -24.5t-34.5 -95.5v-15q0 -67 33.5 -89.5t124.5 -24.5v-271h-427v179h217v9q-112 13 -164 69.5t-52 167.5v11q0 149 100 211.5t323 62.5h61q224 0 323.5 -62.5
t99.5 -211.5v-11q0 -111 -52 -167.5t-164 -69.5v-9h217z" />
    <glyph glyph-name="estimated" unicode="&#x212e;" horiz-adv-x="840" 
d="M420 -15q-163 0 -278.5 107t-115.5 258q0 152 115 258.5t279 106.5t279.5 -106.5t115.5 -258.5q0 -28 -1 -32h-574v-195q74 -57 180 -57q82 0 150.5 33.5t108.5 90.5h95q-49 -93 -143.5 -149t-210.5 -56zM240 582v-178h359v178q-30 23 -79 37.5t-100 14.5
q-52 0 -101.5 -14.5t-78.5 -37.5z" />
    <glyph glyph-name="arrowleft" unicode="&#x2190;" horiz-adv-x="897" 
d="M335 432h537v-166h-537v-7l264 -260h-237l-346 348v4l346 348h237l-264 -260v-7z" />
    <glyph glyph-name="arrowup" unicode="&#x2191;" horiz-adv-x="896" 
d="M531 460v-538h-165v538h-7l-260 -264v236l348 346h4l348 -346v-236l-261 264h-7z" />
    <glyph glyph-name="arrowright" unicode="&#x2192;" horiz-adv-x="897" 
d="M562 267h-537v166h537v7l-264 260h237l346 -348v-4l-346 -348h-237l264 260v7z" />
    <glyph glyph-name="arrowdown" unicode="&#x2193;" horiz-adv-x="897" 
d="M366 777h165v-538h7l261 264v-236l-348 -346h-4l-348 346v236l260 -264h7v538z" />
    <glyph glyph-name="arrowupleft" unicode="&#x2196;" horiz-adv-x="896" 
d="M401 530l380 -380l-117 -118l-381 381l-5 -5l4 -372l-167 169v492l2 3h493l167 -168l-372 3z" />
    <glyph glyph-name="arrowupright" unicode="&#x2197;" horiz-adv-x="897" 
d="M233 32l-117 118l380 380l-4 5l-372 -3l167 168h493l2 -3v-492l-167 -169l4 372l-5 5z" />
    <glyph glyph-name="arrowdownright" unicode="&#x2198;" horiz-adv-x="897" 
d="M496 170l-380 380l117 118l381 -381l5 5l-4 372l167 -169v-492l-2 -3h-493l-167 168l372 -3z" />
    <glyph glyph-name="arrowdownleft" unicode="&#x2199;" horiz-adv-x="897" 
d="M664 668l117 -118l-380 -380l4 -5l372 3l-167 -168h-493l-2 3v492l167 169l-4 -372l5 -5z" />
    <glyph glyph-name="partialdiff" unicode="&#x2202;" horiz-adv-x="738" 
d="M380 -10h-30q-331 0 -331 229v10q0 120 58.5 175.5t215.5 55.5q156 0 183 -56h8v17q0 62 -41 87t-155 25q-121 0 -193 -24v184q82 17 208 17h14q229 0 317.5 -81t88.5 -277v-24q0 -181 -84 -259.5t-259 -78.5zM375 161q64 0 85 15.5t21 55.5v8q0 40 -21 55t-85 15
t-85.5 -15t-21.5 -55v-8q0 -40 21.5 -55.5t85.5 -15.5z" />
    <glyph glyph-name="increment" unicode="&#x2206;" horiz-adv-x="1021" 
d="M709 700l312 -700h-1021l312 700h397zM508 523h-9l-134 -327h277z" />
    <glyph glyph-name="product" unicode="&#x220f;" horiz-adv-x="898" 
d="M856 700v-870h-263v674h-288v-674h-263v870h814z" />
    <glyph glyph-name="summation" unicode="&#x2211;" horiz-adv-x="799" 
d="M761 26v-196h-721v196l317 230v4l-317 244v196h721v-196h-345v-4l178 -139v-194l-186 -137v-4h353z" />
    <glyph glyph-name="minus" unicode="&#x2212;" horiz-adv-x="600" 
d="M520 258h-440v142h440v-142z" />
    <glyph glyph-name="radical" unicode="&#x221a;" horiz-adv-x="573" 
d="M573 803l-201 -906h-154l-109 353l-62 -18l-42 172l218 58l61 -232h5l119 573h165z" />
    <glyph glyph-name="infinity" unicode="&#x221e;" horiz-adv-x="940" 
d="M678 108q-114 0 -208 110q-93 -110 -208 -110q-97 0 -159.5 61.5t-62.5 159.5q0 97 62.5 159t159.5 62q115 0 208 -110q94 110 208 110q98 0 159.5 -61.5t61.5 -159.5t-61.5 -159.5t-159.5 -61.5zM181 329q0 -43 27 -65t60 -22q32 0 60 22t60 65q-32 43 -60 65t-60 22
q-33 0 -60 -22t-27 -65zM672 242q34 0 61 22t27 65t-27 65t-61 22q-32 0 -60 -22.5t-59 -64.5q31 -42 59 -64.5t60 -22.5z" />
    <glyph glyph-name="integral" unicode="&#x222b;" horiz-adv-x="438" 
d="M71 -170h-49v164h31q39 0 51.5 12t12.5 52v499q0 112 59 152.5t185 40.5h49v-164h-31q-40 0 -52 -12t-12 -52v-499q0 -112 -59 -152.5t-185 -40.5z" />
    <glyph glyph-name="approxequal" unicode="&#x2248;" horiz-adv-x="600" 
d="M422 354q-48 0 -130.5 33t-117.5 33q-70 0 -114 -61v147q40 56 118 56q48 0 130.5 -33t117.5 -33q70 0 114 61v-148q-15 -21 -45 -38t-73 -17zM422 96q-48 0 -130.5 33t-117.5 33q-70 0 -114 -61v147q40 56 118 56q48 0 130.5 -33t117.5 -33q70 0 114 61v-148
q-15 -21 -45 -38t-73 -17z" />
    <glyph glyph-name="notequal" unicode="&#x2260;" horiz-adv-x="600" 
d="M146 133h-86v142h144l44 107h-188v142h245l55 134h148l-55 -134h87v-142h-144l-44 -107h188v-142h-246l-54 -133h-148z" />
    <glyph glyph-name="lessequal" unicode="&#x2264;" horiz-adv-x="600" 
d="M530 328v-147l-457 152v143l457 152v-147l-252 -74v-6zM530 20h-460v142h460v-142z" />
    <glyph glyph-name="greaterequal" unicode="&#x2265;" horiz-adv-x="600" 
d="M527 333l-457 -152v147l252 73v6l-252 74v147l457 -152v-143zM530 162v-142h-460v142h460z" />
    <glyph glyph-name="lozenge" unicode="&#x25ca;" horiz-adv-x="573" 
d="M381 678l168 -349l-168 -349h-190l-167 349l167 349h190zM286 105l109 224l-109 224l-107 -224z" />
    <glyph glyph-name="germandbls.cap" horiz-adv-x="1738" 
d="M460 -10h-41q-182 0 -283 50t-117 171h281q9 -30 41 -39.5t109 -9.5q79 0 106.5 11t27.5 38v8q0 21 -15.5 30t-56.5 11l-182 6q-165 6 -230 51t-65 152v7q0 125 88.5 179.5t294.5 54.5h29q370 0 398 -231h-281q-10 33 -40 46t-98 13q-71 0 -97.5 -11.5t-26.5 -39.5v-4
q0 -23 15 -32t57 -11l180 -6q166 -6 231 -49.5t65 -148.5v-7q0 -131 -91 -185t-299 -54zM1329 -10h-41q-182 0 -282.5 50t-117.5 171h281q9 -30 41.5 -39.5t108.5 -9.5q79 0 106.5 11t27.5 38v8q0 21 -15.5 30t-56.5 11l-182 6q-164 6 -229.5 51t-65.5 152v7
q0 125 88.5 179.5t294.5 54.5h29q370 0 398 -231h-281q-10 33 -40 46t-98 13q-71 0 -97.5 -11.5t-26.5 -39.5v-4q0 -23 15 -32t57 -11l180 -6q166 -6 231 -49.5t65 -148.5v-7q0 -131 -91 -185t-299 -54z" />
    <glyph glyph-name="i.TRK" horiz-adv-x="272" 
d="M18 700h237v-131h-237v131zM18 530h237v-530h-237v530z" />
    <glyph glyph-name="a.superior" horiz-adv-x="554" 
d="M537 537v-257h-207v57h-5q-24 -65 -143 -65q-92 0 -132.5 32t-40.5 103v5q0 62 36.5 90t114.5 31l168 7v12q0 21 -9.5 28t-37.5 7q-37 0 -44 -20h-213q22 74 79.5 107.5t182.5 33.5h5q140 0 193 -36t53 -135zM220 418v-4q0 -16 8.5 -22t30.5 -6q69 0 69 52v7l-75 -3
q-19 -1 -26 -5.5t-7 -18.5z" />
    <glyph glyph-name="b.superior" horiz-adv-x="597" 
d="M227 280h-209v554h209v-193h5q31 67 142 67h3q106 0 155 -47q49 -46 49 -165v-12q0 -119 -49 -165q-49 -47 -155 -47h-3q-111 0 -142 67h-5v-59zM299 418q49 0 61 11t12 55v13q0 43 -12 54t-61 11q-47 0 -59.5 -11.5t-12.5 -53.5v-13q0 -44 12 -55t60 -11z" />
    <glyph glyph-name="c.superior" horiz-adv-x="577" 
d="M304 272h-31q-134 0 -195.5 45.5t-61.5 164.5v15q0 120 61.5 165.5t195.5 45.5h31q92 0 148 -22t79 -57t31 -90h-208q-7 23 -63 23q-44 0 -55 -11.5t-11 -53.5v-14q0 -43 11 -54t55 -11q56 0 63 23h208q-8 -55 -31 -90t-79 -57t-148 -22z" />
    <glyph glyph-name="d.superior" horiz-adv-x="597" 
d="M579 834v-554h-209v59h-5q-31 -67 -142 -67h-3q-108 0 -156 48t-48 164v12q0 116 48 164t156 48h3q111 0 142 -67h5v193h209zM298 418q48 0 60 11t12 55v13q0 42 -12.5 53.5t-59.5 11.5q-48 0 -60.5 -11.5t-12.5 -53.5v-13q0 -44 12 -55t61 -11z" />
    <glyph glyph-name="e.superior" horiz-adv-x="560" 
d="M334 425h208q-8 -53 -33.5 -85.5t-81 -50t-146.5 -17.5h-5q-136 0 -198 45.5t-62 164.5v15q0 120 62 165.5t199 45.5h8q137 0 198.5 -45.5t61.5 -166.5v-36h-320q2 -39 11 -47q11 -8 47 -8q45 0 51 20zM280 588q-33 0 -43.5 -8.5t-11.5 -38.5h110v6q0 24 -10 32.5
t-45 8.5z" />
    <glyph glyph-name="f.superior" horiz-adv-x="395" 
d="M81 551h-68v149h68q4 77 52 105.5t145 28.5h103v-108h-56q-22 0 -28 -4.5t-6 -16.5v-5h90v-149h-90v-271h-210v271z" />
    <glyph glyph-name="g.superior" horiz-adv-x="595" 
d="M308 145h-21q-127 0 -190.5 28t-77.5 97h207q6 -9 18.5 -11.5t48.5 -2.5q44 0 59.5 12t15.5 52v41h-5q-27 -60 -141 -60h-4q-105 0 -153.5 41.5t-48.5 152.5v17q0 112 48.5 154t153.5 42h4q114 0 141 -60h5v52h209v-368q0 -108 -62 -147.5t-207 -39.5zM298 441
q48 0 59 9.5t11 48.5v10q0 38 -11 47.5t-59 9.5t-60 -9.5t-12 -47.5v-10q0 -38 12 -48t60 -10z" />
    <glyph glyph-name="h.superior" horiz-adv-x="555" 
d="M537 553v-273h-208v224q0 37 -8 47q-7 10 -41 10q-32 0 -42 -14.5t-10 -54.5v-212h-210v554h210v-203h4q28 77 139 77q85 0 125.5 -31t40.5 -124z" />
    <glyph glyph-name="i.superior" horiz-adv-x="245" 
d="M18 834h210v-109h-210v109zM18 700h210v-420h-210v420z" />
    <glyph glyph-name="j.superior" horiz-adv-x="245" 
d="M18 834h210v-109h-210v109zM18 700h210v-316q0 -95 -9 -138t-41 -101h-209q32 52 40.5 94.5t8.5 119.5v341z" />
    <glyph glyph-name="k.superior" horiz-adv-x="597" 
d="M228 339v-59h-210v554h210v-282h4l116 148h231l-153 -159l171 -261h-253l-60 112h-6z" />
    <glyph glyph-name="l.superior" horiz-adv-x="245" 
d="M228 834v-554h-210v554h210z" />
    <glyph glyph-name="m.superior" horiz-adv-x="847" 
d="M829 551v-271h-209v224q0 39 -7 47q-7 10 -38 10q-30 0 -38.5 -13.5t-8.5 -52.5v-215h-209v224q0 39 -6.5 48t-38.5 9q-30 0 -38 -13t-8 -53v-215h-210v420h210v-69h4q15 42 47.5 59.5t87.5 17.5q60 0 96.5 -15.5t52.5 -60.5h5q27 76 142 76q84 0 125 -31.5t41 -125.5z
" />
    <glyph glyph-name="n.superior" horiz-adv-x="555" 
d="M537 553v-273h-209v224q0 39 -7.5 48t-40.5 9q-32 0 -42 -14.5t-10 -54.5v-212h-210v420h210v-69h4q27 77 139 77q85 0 125.5 -31t40.5 -124z" />
    <glyph glyph-name="o.superior" horiz-adv-x="594" 
d="M315 272h-36q-141 0 -202 48t-61 163v15q0 116 61 163t202 47h36q141 0 202 -48t61 -163v-15q0 -116 -61 -163t-202 -47zM297 418q49 0 60.5 10.5t11.5 55.5v12q0 45 -11.5 55.5t-60.5 10.5t-60.5 -10.5t-11.5 -55.5v-12q0 -45 11.5 -55.5t60.5 -10.5z" />
    <glyph glyph-name="p.superior" horiz-adv-x="597" 
d="M18 146v554h209v-59h5q31 67 142 67h3q106 0 155 -47q49 -46 49 -165v-12q0 -119 -49 -165q-49 -47 -155 -47h-3q-111 0 -142 67h-5v-193h-209zM299 562q-48 0 -60 -11t-12 -55v-13q0 -42 12.5 -53.5t59.5 -11.5q49 0 61 11t12 54v13q0 44 -12 55t-61 11z" />
    <glyph glyph-name="q.superior" horiz-adv-x="597" 
d="M370 700h209v-554h-209v193h-5q-31 -67 -142 -67h-3q-108 0 -156 48t-48 164v12q0 116 48 164t156 48h3q111 0 142 -67h5v59zM298 562q-49 0 -61 -11t-12 -55v-13q0 -42 12.5 -53.5t60.5 -11.5q47 0 59.5 11.5t12.5 53.5v13q0 44 -12 55t-60 11z" />
    <glyph glyph-name="r.superior" horiz-adv-x="380" 
d="M370 700h3v-155h-53q-34 0 -53 -3.5t-27.5 -15.5t-10 -23.5t-1.5 -37.5v-185h-210v420h210v-69h4q14 39 44 54t94 15z" />
    <glyph glyph-name="s.superior" horiz-adv-x="597" 
d="M310 272h-22q-128 0 -192.5 31t-76.5 106h224q5 -17 18.5 -22.5t42.5 -5.5q30 0 40 6.5t10 19.5v3q0 11 -8 15.5t-31 6.5l-116 6q-91 4 -130 32t-39 89v7q0 77 64 109.5t205 32.5h8q126 0 193 -32t76 -105h-224q-6 27 -49 27q-28 0 -37.5 -6t-9.5 -19v-3q0 -21 37 -22
l117 -5q92 -5 130.5 -32t38.5 -88v-8q0 -77 -63.5 -110t-205.5 -33z" />
    <glyph glyph-name="t.superior" horiz-adv-x="379" 
d="M363 421v-141h-97q-115 0 -155.5 33.5t-40.5 112.5v125h-56v149h56v134h209v-134h84v-149h-84v-75q0 -36 10 -45.5t48 -9.5h26z" />
    <glyph glyph-name="u.superior" horiz-adv-x="555" 
d="M18 427v273h209v-224q0 -39 7.5 -48t40.5 -9q32 0 42 14.5t10 54.5v212h210v-420h-210v69h-4q-27 -77 -139 -77q-86 0 -126 30.5t-40 124.5z" />
    <glyph glyph-name="v.superior" horiz-adv-x="572" 
d="M572 700l-152 -420h-268l-152 420h233l60 -237h4l61 237h214z" />
    <glyph glyph-name="w.superior" horiz-adv-x="876" 
d="M876 700l-118 -420h-255l-57 206l-58 -206h-266l-122 420h227l54 -235h5l61 235h209l60 -235h4l54 235h202z" />
    <glyph glyph-name="x.superior" horiz-adv-x="663" 
d="M472 495l191 -215h-267l-66 105h-5l-76 -105h-249l185 213l-173 207h265l58 -90h4l61 90h251z" />
    <glyph glyph-name="y.superior" horiz-adv-x="554" 
d="M555 700l-226 -555h-217l62 129l-176 426h227l60 -213h5l52 213h213z" />
    <glyph glyph-name="z.superior" horiz-adv-x="513" 
d="M497 428v-148h-480v141l195 130h-177v149h443v-141l-195 -131h214z" />
    <glyph glyph-name="grave.cap" horiz-adv-x="500" 
d="M350 860l85 -120h-237l-134 120h286z" />
    <glyph glyph-name="acute.cap" horiz-adv-x="500" 
d="M435 860l-134 -120h-237l85 120h286z" />
    <glyph glyph-name="circumflex.cap" horiz-adv-x="500" 
d="M418 860l111 -120h-192l-87 60l-86 -60h-192l110 120h336z" />
    <glyph glyph-name="caron.cap" horiz-adv-x="500" 
d="M250 800l87 60h192l-111 -120h-336l-110 120h192z" />
    <glyph glyph-name="caronSlovak" horiz-adv-x="500" 
d="M392 700l-102 -234h-182l36 234h248z" />
    <glyph glyph-name="tilde.cap" horiz-adv-x="500" 
d="M336 730q-39 0 -91 16t-62 16q-13 0 -17.5 -4t-6.5 -18h-151q9 73 44 101.5t105 28.5q39 0 90.5 -16t61.5 -16q13 0 17.5 4t7.5 18h158q-9 -72 -47 -101t-109 -29z" />
    <glyph glyph-name="dieresis.cap" horiz-adv-x="500" 
d="M39 870h191v-130h-191v130zM270 870h191v-130h-191v130z" />
    <glyph glyph-name="macron.cap" horiz-adv-x="500" 
d="M470 850v-90h-441v90h441z" />
    <glyph glyph-name="breve.cap" horiz-adv-x="500" 
d="M250 730q-131 0 -183.5 29.5t-64.5 100.5h189q4 -18 16 -26t43 -8t43 8t16 26h189q-12 -71 -64.5 -100.5t-183.5 -29.5z" />
    <glyph glyph-name="ring.cap" horiz-adv-x="500" 
d="M250 716q-102 0 -149.5 26.5t-47.5 87.5t47.5 87.5t149.5 26.5t149.5 -26.5t47.5 -87.5t-47.5 -87.5t-149.5 -26.5zM250 792q50 0 50 38t-50 38t-50 -38t50 -38z" />
    <glyph glyph-name="hungarumlaut.cap" horiz-adv-x="500" 
d="M277 860l-134 -120h-236l84 120h286zM593 860l-133 -120h-237l85 120h285z" />
    <glyph glyph-name="dotaccent.cap" horiz-adv-x="500" 
d="M130 870h237v-130h-237v130z" />
    <glyph glyph-name="commaaccent.alt" horiz-adv-x="500" 
d="M195 698l20 16h127l-54 -47v-10h84v-87h-233v24q0 36 11.5 56t44.5 48z" />
    <glyph glyph-name="hyphen.cap" horiz-adv-x="330" 
d="M312 261h-294v177h294v-177z" />
    <glyph glyph-name="exclamdown.cap" horiz-adv-x="334" 
d="M43 700h248v-199h-248v199zM316 299v-299h-298v299l63 143h172z" />
    <glyph glyph-name="questiondown.cap" horiz-adv-x="719" 
d="M253 706h248v-199h-248v199zM238 453h270v-19q0 -54 -27.5 -78.5t-117.5 -55.5q-63 -20 -80 -34t-17 -40v-4q1 -25 20 -35.5t65 -10.5q56 0 77 15q21 16 25 62h251q-6 -138 -95.5 -197.5t-252.5 -59.5h-17q-164 0 -244.5 52.5t-80.5 147.5v21q0 79 36 124.5t129 73.5
q49 17 59 38z" />
    <glyph glyph-name="guilsinglleft.cap" horiz-adv-x="297" 
d="M32 347v6l84 219h147l-89 -222l89 -222h-147z" />
    <glyph glyph-name="guilsinglright.cap" horiz-adv-x="297" 
d="M265 353v-6l-84 -219h-147l89 222l-89 222h147z" />
    <glyph glyph-name="guillemotleft.cap" horiz-adv-x="502" 
d="M32 347v6l84 219h147l-89 -222l89 -222h-147zM236 347v6l84 219h147l-89 -222l89 -222h-147z" />
    <glyph glyph-name="guillemotright.cap" horiz-adv-x="502" 
d="M265 353v-6l-84 -219h-147l89 222l-89 222h147zM470 353v-6l-84 -219h-147l89 222l-89 222h147z" />
    <glyph glyph-name="endash.cap" horiz-adv-x="659" 
d="M641 292h-623v115h623v-115z" />
    <glyph glyph-name="emdash.cap" horiz-adv-x="989" 
d="M971 292h-953v115h953v-115z" />
    <glyph glyph-name="periodcentered.cap" horiz-adv-x="365" 
d="M307 250h-249v199h249v-199z" />
    <glyph glyph-name="parenleft.cap" horiz-adv-x="333" 
d="M302 77v-122q-129 11 -189 92.5t-60 269.5v66q0 188 60 269.5t189 92.5v-122q-59 -11 -86 -62.5t-27 -173.5v-74q0 -122 27 -173.5t86 -62.5z" />
    <glyph glyph-name="parenright.cap" horiz-adv-x="333" 
d="M31 623v122q129 -11 189 -92.5t60 -269.5v-66q0 -188 -60 -269.5t-189 -92.5v122q59 11 86 62.5t27 173.5v74q0 122 -27 173.5t-86 62.5z" />
    <glyph glyph-name="bracketleft.cap" horiz-adv-x="345" 
d="M314 63v-109h-248v790h248v-109h-117v-572h117z" />
    <glyph glyph-name="bracketright.cap" horiz-adv-x="345" 
d="M31 636v109h248v-790h-248v109h117v572h-117z" />
    <glyph glyph-name="braceleft.cap" horiz-adv-x="346" 
d="M316 64v-109h-47q-105 0 -141 40.5t-36 148.5v38q0 61 -13 78t-69 20v140q56 3 69 20t13 78v38q0 108 36 148.5t141 40.5h47v-109h-25q-42 0 -55 -23.5t-13 -103.5v-33q0 -66 -18.5 -89t-88.5 -33v-8q70 -10 88.5 -33t18.5 -89v-33q0 -80 13 -103.5t55 -23.5h25z" />
    <glyph glyph-name="braceright.cap" horiz-adv-x="346" 
d="M77 -45h-47v109h25q42 0 55 23.5t13 103.5v33q0 66 18.5 89t88.5 33v8q-70 10 -88.5 33t-18.5 89v33q0 80 -13 103.5t-55 23.5h-25v109h47q105 0 141 -40.5t36 -148.5v-38q0 -61 13 -78t69 -20v-140q-56 -3 -69 -20t-13 -78v-38q0 -108 -36 -148.5t-141 -40.5z" />
    <glyph glyph-name="at.cap" horiz-adv-x="1062" 
d="M516 -69q-234 0 -360 93t-126 287v32q0 196 132.5 311t367.5 115q231 0 362 -89.5t131 -277.5v-12q0 -293 -285 -293q-90 0 -126 22t-41 67h-7q-42 -67 -148 -67h-12q-99 0 -140.5 49t-27.5 173l-1 -1q13 126 66 175.5t155 49.5h12q51 0 84 -19.5t43 -46.5h5l8 58h217
l-40 -297q-5 -35 2 -47.5t29 -12.5q39 0 66 54t27 133v12q0 141 -95 204.5t-288 63.5q-189 0 -285.5 -89.5t-96.5 -234.5v-29q0 -144 90 -212.5t287 -68.5q158 0 253 24v-100q-92 -26 -258 -26zM502 260q44 0 58 18q14 17 22 64l2 10q6 40 -5.5 56t-51.5 16q-42 0 -58 -16.5
t-23 -64.5l-1 -10q-6 -40 5 -56.5t52 -16.5z" />
    <glyph glyph-name="zero.slash" horiz-adv-x="889" 
d="M470 -10h-51q-211 0 -302 76t-91 269v29q0 194 91 270t302 76h51q212 0 302 -76t90 -270v-29q0 -193 -90.5 -269t-301.5 -76zM278 372v-45q0 -49 6 -72l259 259q-33 10 -98 10q-105 0 -136 -29.5t-31 -122.5zM445 175q104 0 134.5 29.5t30.5 122.5v45q0 50 -6 74
l-260 -260q34 -11 101 -11z" />
    <glyph glyph-name="numbersign.LT" 
d="M579 0h-162l21 148h-114l-20 -148h-161l20 148h-123v146h141l14 113h-124v146h143l21 147h160l-20 -147h114l20 147h161l-20 -147h124v-146h-143l-14 -113h126v-146h-144zM480 415h-131l-17 -130h131z" />
    <glyph glyph-name="Euro.LT" 
d="M457 -10h-25q-163 0 -249 57.5t-106 194.5h-77v89h71v5v28v5h-71v89h77q20 137 106 194.5t249 57.5h25q163 0 242 -48.5t98 -164.5h-247q-10 19 -32 26t-74 7q-60 0 -86 -15.5t-33 -56.5h373v-89h-377v-38h377v-89h-373q7 -41 33 -56.5t86 -15.5q52 0 74.5 7.5t31.5 25.5
h247q-19 -116 -98 -164.5t-242 -48.5z" />
    <glyph glyph-name="dollar.LT" 
d="M467 11v-116h-114v116q-156 5 -237 48.5t-99 144.5h268q7 -27 34 -36t95 -9q71 0 96 12t25 39v4q0 26 -15 35.5t-62 11.5l-173 6q-139 4 -196 50.5t-57 144.5v6q0 107 74.5 160.5t246.5 60.5v116h114v-116q154 -5 235.5 -51t92.5 -142h-267q-8 23 -31 34q-24 11 -86 11
q-65 0 -89.5 -10.5t-24.5 -33.5v-4q0 -26 15.5 -35.5t62.5 -10.5l172 -6q139 -4 196 -51t57 -145v-10q0 -110 -79 -164.5t-254 -59.5z" />
    <glyph glyph-name="cent.LT" 
d="M474 -9v-96h-115v96q-142 5 -210 64.5t-68 199.5v20q0 140 68 199.5t210 64.5v96h115v-96q134 -7 197 -57.5t79 -147.5h-236q-10 21 -30 29t-67 8q-62 0 -80.5 -21t-18.5 -76v-18q0 -56 18.5 -76.5t80.5 -20.5q47 0 67 8t30 29h236q-16 -97 -79 -147.5t-197 -57.5z" />
    <glyph glyph-name="sterling.LT" 
d="M698 394v-88h-351v-124h442v-182h-765v182h78v124h-78v88h78v9q0 166 78.5 236.5t255.5 70.5h23q153 0 236.5 -51.5t102.5 -161.5h-248q-8 19 -29 26t-70 7q-64 0 -84 -22.5t-20 -74.5v-39h351z" />
    <glyph glyph-name="florin.LT" 
d="M480 306v-411h-246v411h-218v88h218q2 112 34.5 176.5t110 97t213.5 32.5h176v-186h-147q-86 0 -113.5 -23t-27.5 -85v-12h289v-88h-289z" />
    <glyph glyph-name="yen.LT" 
d="M533 242v-242h-250v242h-224v89h224v26l-10 12h-214v89h141l-200 242h303l116 -170h7l117 170h273l-200 -242h142v-89h-215l-10 -12v-26h225v-89h-225z" />
    <glyph glyph-name="zero.slash.LT" 
d="M419 -10h-24q-98 0 -163 14.5t-114 52.5t-71 106t-22 172v29q0 104 22 172.5t71 106.5t114 52.5t163 14.5h24q100 0 165 -14.5t113.5 -53t70 -106t21.5 -172.5v-29q0 -104 -22 -172t-71 -106t-114 -52.5t-163 -14.5zM277 373v-47q0 -21 2 -51l212 237q-25 12 -84 12
q-84 0 -107 -28.5t-23 -122.5zM407 175q84 0 106.5 28t22.5 123v47q0 33 -1 48l-210 -235q27 -11 82 -11z" />
    <glyph glyph-name="zero.LT" 
d="M420 -10h-24q-98 0 -163 14.5t-114 52.5t-71 106t-22 172v29q0 104 22 172.5t71 106.5t114 52.5t163 14.5h24q100 0 165 -14.5t113.5 -53t70 -106t21.5 -172.5v-29q0 -104 -22 -172t-71 -106t-114 -52.5t-163 -14.5zM408 175q83 0 106 28t23 123v47q0 94 -23 122.5
t-106 28.5t-106.5 -28.5t-23.5 -122.5v-47q0 -95 23.5 -123t106.5 -28z" />
    <glyph glyph-name="one.LT" 
d="M781 182v-182h-747v182h250v326h-9l-241 -128v237l182 83h318v-518h247z" />
    <glyph glyph-name="two.LT" 
d="M789 182v-182h-762v136q0 132 56.5 190.5t207.5 79.5l180 23q38 6 51.5 17t13.5 34v3q0 27 -23 37t-92 10q-70 0 -97 -9.5t-38 -34.5h-251q19 124 105 174t248 50h50q187 0 268.5 -53t81.5 -162v-7q0 -102 -51 -153.5t-181 -70.5l-233 -29q-28 -5 -38 -15.5t-10 -30.5v-7
h514z" />
    <glyph glyph-name="three.LT" 
d="M453 -10h-70q-75 0 -133 10t-109.5 34.5t-82.5 71t-39 113.5h254q6 -29 35.5 -39t102.5 -10q79 0 104.5 10t25.5 38v4q0 26 -16 35t-56 9h-186v172h175q67 0 67 42v5q0 25 -24.5 35t-84.5 10q-63 0 -88 -8t-33 -31h-256q21 117 102.5 168t237.5 51h64q339 0 339 -174v-4
q0 -66 -31.5 -99t-103.5 -42v-9q81 -6 116 -46t35 -121v-4q0 -115 -79 -168t-266 -53z" />
    <glyph glyph-name="four.LT" 
d="M734 140v-140h-250v140h-462v302l351 258h361v-377h74v-183h-74zM206 332v-9h278v204h-9z" />
    <glyph glyph-name="five.LT" 
d="M453 -10h-70q-75 0 -133 10t-108.5 33.5t-81.5 67.5t-40 108h254q12 -24 40 -31.5t94 -7.5q81 0 107 13t26 51v9q0 38 -28.5 51.5t-115.5 13.5q-70 0 -100 -8q-27 -7 -42 -25h-227l40 425h688v-182h-464l-12 -103h9q23 30 72 45t153 15q82 0 138.5 -15t88 -46t44.5 -71
t13 -96v-5q0 -128 -85 -190t-260 -62z" />
    <glyph glyph-name="six.LT" 
d="M460 -10h-68q-189 0 -277.5 76t-88.5 269v29q0 102 21 169t67 106t111 55t162 16h51q165 0 247.5 -52t109.5 -152h-259q-10 16 -35 22.5t-83 6.5q-89 0 -116.5 -27t-27.5 -102v-14h8q37 57 206 57q93 0 154 -13.5t93.5 -42.5t45 -65.5t12.5 -91.5v-4q0 -126 -83.5 -184
t-249.5 -58zM407 164q81 0 107.5 14t26.5 50v9q0 36 -26 50t-108 14q-81 0 -107.5 -14t-26.5 -50v-9q0 -36 26.5 -50t107.5 -14z" />
    <glyph glyph-name="seven.LT" 
d="M802 504l-402 -504h-325l431 508v10h-489v182h785v-196z" />
    <glyph glyph-name="eight.LT" 
d="M445 -10h-75q-171 0 -260 51.5t-89 171.5v7q1 75 35 112t109 46v10q-131 20 -131 137v4q0 87 80.5 134t265.5 47h55q185 0 265.5 -47t80.5 -134v-4q0 -117 -131 -137v-10q75 -9 109 -46t35 -112v-7q0 -120 -88.5 -171.5t-260.5 -51.5zM373 429h69q45 0 63 12t18 40v5
q0 29 -24 40t-91 11q-68 0 -92 -11t-24 -40v-5q0 -28 17.5 -40t63.5 -12zM408 162q79 0 104.5 13.5t25.5 50.5v4q0 36 -20.5 50.5t-78.5 14.5h-63q-57 0 -78 -14.5t-21 -50.5v-4q0 -37 25.5 -50.5t105.5 -13.5z" />
    <glyph glyph-name="nine.LT" 
d="M356 710h68q189 0 277.5 -76t88.5 -269v-29q0 -102 -21 -169t-67 -106t-111 -55t-162 -16h-51q-165 0 -247.5 52t-109.5 152h259q10 -16 35 -22.5t83 -6.5q89 0 116.5 27t27.5 102v14h-8q-37 -57 -206 -57q-93 0 -154 13.5t-93.5 42.5t-45 65.5t-12.5 91.5v4
q0 126 83.5 184t249.5 58zM409 536q-81 0 -107.5 -14t-26.5 -50v-9q0 -36 26 -50t108 -14q81 0 107.5 14t26.5 50v9q0 36 -26.5 50t-107.5 14z" />
    <glyph glyph-name="numbersign.OP" 
d="M587 0h-161l14 107h-115l-15 -107h-161l15 107h-123v146h141l12 95h-124v146h143l14 106h161l-14 -106h116l13 106h162l-14 -106h124v-146h-143l-12 -95h125v-146h-143zM481 355h-133l-15 -110h133z" />
    <glyph glyph-name="Euro.OP" 
d="M457 -10h-25q-156 0 -241.5 47t-109.5 155h-81v89h71v14v10v14h-71v89h81q24 108 109.5 155t241.5 47h25q159 0 239 -42.5t101 -131.5h-247q-21 21 -101 21q-50 0 -77 -11t-39 -38h365v-89h-377v-2v-34v-2h377v-89h-365q12 -27 39 -38t77 -11q80 0 101 21h247
q-21 -89 -101 -131.5t-239 -42.5z" />
    <glyph glyph-name="dollar.OP" 
d="M467 10v-115h-114v115q-158 3 -236.5 38.5t-98.5 132.5h267q12 -20 38 -25.5t97 -5.5q75 0 98 7t23 28v5q0 16 -13 23t-50 9l-203 7q-138 4 -190 42t-52 129v6q0 89 77.5 134.5t242.5 49.5v115h114v-115q74 -2 126.5 -9.5t98 -25.5t71 -51.5t31.5 -83.5h-266
q-10 20 -34 26t-87 6q-71 0 -92 -7q-22 -7 -22 -27v-3q0 -18 13 -24.5t51 -7.5l202 -7q140 -6 191 -41.5t51 -125.5v-8q0 -94 -81 -141t-253 -50z" />
    <glyph glyph-name="cent.OP" horiz-adv-x="724" 
d="M422 -9v-96h-115v96q-142 5 -210 64.5t-68 199.5v20q0 140 68 199.5t210 64.5v96h115v-96q134 -7 197 -57.5t79 -147.5h-236q-10 21 -30 29t-67 8q-62 0 -80.5 -21t-18.5 -76v-18q0 -56 18.5 -76.5t80.5 -20.5q47 0 67 8t30 29h236q-16 -97 -79 -147.5t-197 -57.5z" />
    <glyph glyph-name="sterling.OP" 
d="M698 344v-89h-351v-73h442v-182h-765v182h78v73h-78v89h79q7 147 85 206.5t248 59.5h23q153 0 236.5 -51.5t102.5 -161.5h-248q-8 19 -29 26t-70 7q-65 0 -84.5 -18.5t-19.5 -67.5h351z" />
    <glyph glyph-name="florin.OP" 
d="M480 256v-417h-246v417h-218v88h221q11 137 90.5 196.5t264.5 59.5h176v-186h-147q-72 0 -102 -15.5t-36 -54.5h286v-88h-289z" />
    <glyph glyph-name="yen.OP" 
d="M533 192v-192h-250v192h-224v89h204l-31 38h-173v89h99l-158 192h303l116 -170h7l117 170h273l-158 -192h100v-89h-174l-31 -38h205v-89h-225z" />
    <glyph glyph-name="zero.slash.OP" horiz-adv-x="889" 
d="M471 -10h-52q-205 0 -299 66.5t-94 237.5v12q0 171 94 237.5t299 66.5h52q205 0 298.5 -66.5t93.5 -237.5v-12q0 -171 -93.5 -237.5t-298.5 -66.5zM279 307v-14q0 -44 9 -65l225 193q-29 3 -68 3q-103 0 -134.5 -22.5t-31.5 -94.5zM445 176q102 0 133.5 22.5t31.5 94.5
v14q0 43 -9 64l-224 -192q28 -3 68 -3z" />
    <glyph glyph-name="zero.OP" horiz-adv-x="889" 
d="M471 -10h-52q-205 0 -299 66.5t-94 237.5v12q0 171 94 237.5t299 66.5h52q205 0 298.5 -66.5t93.5 -237.5v-12q0 -171 -93.5 -237.5t-298.5 -66.5zM445 176q102 0 133.5 22.5t31.5 94.5v14q0 72 -31.5 94.5t-133.5 22.5q-103 0 -134.5 -22.5t-31.5 -94.5v-14
q0 -72 31.5 -94.5t134.5 -22.5z" />
    <glyph glyph-name="one.OP" horiz-adv-x="589" 
d="M539 600v-600h-250v408h-9l-241 -128v237l182 83h318z" />
    <glyph glyph-name="two.OP" 
d="M789 177v-177h-762v122q0 115 50.5 171.5t179.5 68.5l234 19q27 3 36 9t9 21v4q0 15 -23 21.5t-92 6.5q-70 0 -96.5 -8t-38.5 -32h-251q28 115 115 161t255 46h15q368 0 368 -185v-8q0 -89 -50 -132t-176 -55l-244 -21q-27 -3 -35 -9t-8 -19v-4h514z" />
    <glyph glyph-name="three.OP" 
d="M453 -110h-70q-75 0 -133 10t-109.5 34.5t-82.5 71t-39 113.5h254q6 -29 35.5 -39t102.5 -10q79 0 104.5 10t25.5 38v4q0 26 -16 35t-56 9h-186v172h175q67 0 67 42v5q0 25 -24.5 35t-84.5 10q-63 0 -88 -8t-33 -31h-256q21 117 102.5 168t237.5 51h64q339 0 339 -174v-4
q0 -66 -31.5 -99t-103.5 -42v-9q81 -6 116 -46t35 -121v-4q0 -115 -79 -168t-266 -53z" />
    <glyph glyph-name="four.OP" 
d="M734 40v-140h-250v140h-462v302l351 258h361v-377h74v-183h-74zM206 232v-9h278v204h-9z" />
    <glyph glyph-name="five.OP" 
d="M453 -110h-70q-75 0 -133 10t-108.5 33.5t-81.5 67.5t-40 108h254q12 -24 40 -31.5t94 -7.5q81 0 107 13t26 51v9q0 38 -28.5 51.5t-115.5 13.5q-70 0 -100 -8q-27 -7 -42 -25h-227l40 425h688v-182h-464l-12 -103h9q23 30 72 45t153 15q82 0 138.5 -15t88 -46t44.5 -71
t13 -96v-5q0 -128 -85 -190t-260 -62z" />
    <glyph glyph-name="six.OP" 
d="M460 -10h-68q-189 0 -277.5 76t-88.5 269v29q0 102 21 169t67 106t111 55t162 16h51q165 0 247.5 -52t109.5 -152h-259q-10 16 -35 22.5t-83 6.5q-89 0 -116.5 -27t-27.5 -102v-14h8q37 57 206 57q93 0 154 -13.5t93.5 -42.5t45 -65.5t12.5 -91.5v-4q0 -126 -83.5 -184
t-249.5 -58zM407 164q81 0 107.5 14t26.5 50v9q0 36 -26 50t-108 14q-81 0 -107.5 -14t-26.5 -50v-9q0 -36 26.5 -50t107.5 -14z" />
    <glyph glyph-name="seven.OP" 
d="M802 404l-402 -504h-325l431 508v10h-489v182h785v-196z" />
    <glyph glyph-name="eight.OP" 
d="M445 -10h-75q-171 0 -260 51.5t-89 171.5v7q1 75 35 112t109 46v10q-131 20 -131 137v4q0 87 80.5 134t265.5 47h55q185 0 265.5 -47t80.5 -134v-4q0 -117 -131 -137v-10q75 -9 109 -46t35 -112v-7q0 -120 -88.5 -171.5t-260.5 -51.5zM373 429h69q45 0 63 12t18 40v5
q0 29 -24 40t-91 11q-68 0 -92 -11t-24 -40v-5q0 -28 17.5 -40t63.5 -12zM408 162q79 0 104.5 13.5t25.5 50.5v4q0 36 -20.5 50.5t-78.5 14.5h-63q-57 0 -78 -14.5t-21 -50.5v-4q0 -37 25.5 -50.5t105.5 -13.5z" />
    <glyph glyph-name="nine.OP" 
d="M356 610h68q189 0 277.5 -76t88.5 -269v-29q0 -102 -21 -169t-67 -106t-111 -55t-162 -16h-51q-165 0 -247.5 52t-109.5 152h259q10 -16 35 -22.5t83 -6.5q89 0 116.5 27t27.5 102v14h-8q-37 -57 -206 -57q-93 0 -154 13.5t-93.5 42.5t-45 65.5t-12.5 91.5v4
q0 126 83.5 184t249.5 58zM409 436q-81 0 -107.5 -14t-26.5 -50v-9q0 -36 26 -50t108 -14q81 0 107.5 14t26.5 50v9q0 36 -26.5 50t-107.5 14z" />
    <glyph glyph-name="numbersign.OT" 
d="M587 0h-161l14 107h-115l-15 -107h-161l15 107h-123v146h141l12 95h-124v146h143l14 106h161l-14 -106h116l13 106h162l-14 -106h124v-146h-143l-12 -95h125v-146h-143zM481 355h-133l-15 -110h133z" />
    <glyph glyph-name="Euro.OT" 
d="M457 -10h-25q-156 0 -241.5 47t-109.5 155h-81v89h71v14v10v14h-71v89h81q24 108 109.5 155t241.5 47h25q159 0 239 -42.5t101 -131.5h-247q-21 21 -101 21q-50 0 -77 -11t-39 -38h365v-89h-377v-2v-34v-2h377v-89h-365q12 -27 39 -38t77 -11q80 0 101 21h247
q-21 -89 -101 -131.5t-239 -42.5z" />
    <glyph glyph-name="dollar.OT" 
d="M467 10v-115h-114v115q-158 3 -236.5 38.5t-98.5 132.5h267q12 -20 38 -25.5t97 -5.5q75 0 98 7t23 28v5q0 16 -13 23t-50 9l-203 7q-138 4 -190 42t-52 129v6q0 89 77.5 134.5t242.5 49.5v115h114v-115q74 -2 126.5 -9.5t98 -25.5t71 -51.5t31.5 -83.5h-266
q-10 20 -34 26t-87 6q-71 0 -92 -7q-22 -7 -22 -27v-3q0 -18 13 -24.5t51 -7.5l202 -7q140 -6 191 -41.5t51 -125.5v-8q0 -94 -81 -141t-253 -50z" />
    <glyph glyph-name="cent.OT" 
d="M474 -9v-96h-115v96q-142 5 -210 64.5t-68 199.5v20q0 140 68 199.5t210 64.5v96h115v-96q134 -7 197 -57.5t79 -147.5h-236q-10 21 -30 29t-67 8q-62 0 -80.5 -21t-18.5 -76v-18q0 -56 18.5 -76.5t80.5 -20.5q47 0 67 8t30 29h236q-16 -97 -79 -147.5t-197 -57.5z" />
    <glyph glyph-name="sterling.OT" 
d="M698 344v-89h-351v-73h442v-182h-765v182h78v73h-78v89h79q7 147 85 206.5t248 59.5h23q153 0 236.5 -51.5t102.5 -161.5h-248q-8 19 -29 26t-70 7q-65 0 -84.5 -18.5t-19.5 -67.5h351z" />
    <glyph glyph-name="florin.OT" 
d="M480 256v-417h-246v417h-218v88h221q11 137 90.5 196.5t264.5 59.5h176v-186h-147q-72 0 -102 -15.5t-36 -54.5h286v-88h-289z" />
    <glyph glyph-name="yen.OT" 
d="M533 192v-192h-250v192h-224v89h204l-31 38h-173v89h99l-158 192h303l116 -170h7l117 170h273l-158 -192h100v-89h-174l-31 -38h205v-89h-225z" />
    <glyph glyph-name="zero.slash.OT" 
d="M411 -10h-6q-99 0 -165 13t-116.5 46t-74 93t-23.5 152v12q0 92 23.5 152t74 93t116.5 46t165 13h6q101 0 167.5 -13t116.5 -46t72.5 -93t22.5 -152v-12q0 -92 -23.5 -152t-74 -93t-116.5 -46t-165 -13zM279 308v-16q0 -28 3 -47l184 176q-24 3 -58 3q-81 0 -105 -22.5
t-24 -93.5zM408 176q81 0 105 22.5t24 93.5v16q0 30 -3 51l-187 -179q21 -4 61 -4z" />
    <glyph glyph-name="zero.OT" 
d="M411 -10h-6q-99 0 -165 13t-116.5 46t-74 93t-23.5 152v12q0 92 23.5 152t74 93t116.5 46t165 13h6q101 0 167.5 -13t116.5 -46t72.5 -93t22.5 -152v-12q0 -92 -23.5 -152t-74 -93t-116.5 -46t-165 -13zM408 176q81 0 105 22.5t24 93.5v16q0 71 -24 93.5t-105 22.5
t-105 -22.5t-24 -93.5v-16q0 -71 24 -93.5t105 -22.5z" />
    <glyph glyph-name="one.OT" 
d="M781 182v-182h-747v182h250v226h-9l-241 -128v237l182 83h318v-418h247z" />
    <glyph glyph-name="two.OT" 
d="M789 177v-177h-762v122q0 115 50.5 171.5t179.5 68.5l234 19q27 3 36 9t9 21v4q0 15 -23 21.5t-92 6.5q-70 0 -96.5 -8t-38.5 -32h-251q28 115 115 161t255 46h15q368 0 368 -185v-8q0 -89 -50 -132t-176 -55l-244 -21q-27 -3 -35 -9t-8 -19v-4h514z" />
    <glyph glyph-name="three.OT" 
d="M453 -110h-70q-75 0 -133 10t-109.5 34.5t-82.5 71t-39 113.5h254q6 -29 35.5 -39t102.5 -10q79 0 104.5 10t25.5 38v4q0 26 -16 35t-56 9h-186v172h175q67 0 67 42v5q0 25 -24.5 35t-84.5 10q-63 0 -88 -8t-33 -31h-256q21 117 102.5 168t237.5 51h64q339 0 339 -174v-4
q0 -66 -31.5 -99t-103.5 -42v-9q81 -6 116 -46t35 -121v-4q0 -115 -79 -168t-266 -53z" />
    <glyph glyph-name="four.OT" 
d="M734 40v-140h-250v140h-462v302l351 258h361v-377h74v-183h-74zM206 232v-9h278v204h-9z" />
    <glyph glyph-name="five.OT" 
d="M453 -110h-70q-75 0 -133 10t-108.5 33.5t-81.5 67.5t-40 108h254q12 -24 40 -31.5t94 -7.5q81 0 107 13t26 51v9q0 38 -28.5 51.5t-115.5 13.5q-70 0 -100 -8q-27 -7 -42 -25h-227l40 425h688v-182h-464l-12 -103h9q23 30 72 45t153 15q82 0 138.5 -15t88 -46t44.5 -71
t13 -96v-5q0 -128 -85 -190t-260 -62z" />
    <glyph glyph-name="six.OT" 
d="M460 -10h-68q-189 0 -277.5 76t-88.5 269v29q0 102 21 169t67 106t111 55t162 16h51q165 0 247.5 -52t109.5 -152h-259q-10 16 -35 22.5t-83 6.5q-89 0 -116.5 -27t-27.5 -102v-14h8q37 57 206 57q93 0 154 -13.5t93.5 -42.5t45 -65.5t12.5 -91.5v-4q0 -126 -83.5 -184
t-249.5 -58zM407 164q81 0 107.5 14t26.5 50v9q0 36 -26 50t-108 14q-81 0 -107.5 -14t-26.5 -50v-9q0 -36 26.5 -50t107.5 -14z" />
    <glyph glyph-name="seven.OT" 
d="M802 404l-402 -504h-325l431 508v10h-489v182h785v-196z" />
    <glyph glyph-name="eight.OT" 
d="M445 -10h-75q-171 0 -260 51.5t-89 171.5v7q1 75 35 112t109 46v10q-131 20 -131 137v4q0 87 80.5 134t265.5 47h55q185 0 265.5 -47t80.5 -134v-4q0 -117 -131 -137v-10q75 -9 109 -46t35 -112v-7q0 -120 -88.5 -171.5t-260.5 -51.5zM373 429h69q45 0 63 12t18 40v5
q0 29 -24 40t-91 11q-68 0 -92 -11t-24 -40v-5q0 -28 17.5 -40t63.5 -12zM408 162q79 0 104.5 13.5t25.5 50.5v4q0 36 -20.5 50.5t-78.5 14.5h-63q-57 0 -78 -14.5t-21 -50.5v-4q0 -37 25.5 -50.5t105.5 -13.5z" />
    <glyph glyph-name="nine.OT" 
d="M356 610h68q189 0 277.5 -76t88.5 -269v-29q0 -102 -21 -169t-67 -106t-111 -55t-162 -16h-51q-165 0 -247.5 52t-109.5 152h259q10 -16 35 -22.5t83 -6.5q89 0 116.5 27t27.5 102v14h-8q-37 -57 -206 -57q-93 0 -154 13.5t-93.5 42.5t-45 65.5t-12.5 91.5v4
q0 126 83.5 184t249.5 58zM409 436q-81 0 -107.5 -14t-26.5 -50v-9q0 -36 26 -50t108 -14q81 0 107.5 14t26.5 50v9q0 36 -26.5 50t-107.5 14z" />
    <glyph glyph-name="zero.numr" horiz-adv-x="546" 
d="M279 274h-12q-145 0 -200 47.5t-55 160.5v16q0 113 55 160.5t200 47.5h12q145 0 200 -48t55 -161v-16q0 -113 -55 -160t-200 -47zM273 414q37 0 45.5 10t8.5 53v25q0 43 -8.5 53.5t-45.5 10.5q-36 0 -44 -10.5t-8 -53.5v-25q0 -43 8 -53t44 -10z" />
    <glyph glyph-name="one.numr" horiz-adv-x="399" 
d="M372 700v-420h-206v276h-6l-140 -79v176l108 47h244z" />
    <glyph glyph-name="two.numr" horiz-adv-x="546" 
d="M533 403v-123h-520v89q0 78 38.5 112.5t131.5 48.5l113 16q19 3 24 7.5t5 13.5v3q0 12 -9 16.5t-36 4.5q-29 0 -41 -6.5t-17 -24.5h-207q13 146 255 146h11q252 0 252 -127v-6q0 -63 -32.5 -92t-120.5 -42l-146 -20q-17 -1 -17 -12v-4h316z" />
    <glyph glyph-name="three.numr" horiz-adv-x="546" 
d="M294 274h-23q-125 0 -190.5 33t-74.5 116h208q5 -20 18 -27t43 -7q33 0 42 5.5t9 21.5v4q0 18 -31 18h-85v108h74q17 0 22.5 4.5t5.5 14.5v4q0 12 -7.5 17t-29.5 5q-24 0 -33.5 -6t-14.5 -24h-209q8 74 59.5 109.5t182.5 35.5h19q131 0 189 -26t58 -81v-4
q0 -35 -21.5 -54t-70.5 -25v-7q52 -4 78.5 -25t26.5 -69v-5q0 -70 -58.5 -103t-186.5 -33z" />
    <glyph glyph-name="four.numr" horiz-adv-x="546" 
d="M498 358v-78h-206v78h-282v187l183 155h305v-219h39v-123h-39zM165 488v-7h127v109h-7z" />
    <glyph glyph-name="five.numr" horiz-adv-x="546" 
d="M293 274h-24q-125 0 -187.5 30.5t-75.5 115.5h208q6 -19 18.5 -25t41.5 -6q33 0 42.5 6.5t9.5 25.5v4q0 18 -12.5 24t-52.5 6q-51 0 -62 -13h-189l25 258h477v-118h-290l-5 -59h7q10 15 35 25q27 12 95 12q107 0 146 -30t39 -98v-7q0 -82 -60.5 -116.5t-185.5 -34.5z" />
    <glyph glyph-name="six.numr" horiz-adv-x="546" 
d="M295 274h-34q-141 0 -197 50t-56 159v16q0 109 56.5 158t198.5 49h28q115 0 176 -36t70 -99h-209q-8 18 -51 18q-37 0 -50.5 -11t-13.5 -41v-24h7q21 34 130 34t149.5 -28.5t40.5 -96.5v-4q0 -72 -57 -108t-188 -36zM271 389q40 0 50.5 6t10.5 23v6q0 17 -10.5 23
t-50.5 6q-44 0 -52 -7q-8 -6 -8 -22v-6q0 -17 10 -23t50 -6z" />
    <glyph glyph-name="seven.numr" horiz-adv-x="546" 
d="M541 567l-254 -287h-259l254 264v7h-274v149h533v-133z" />
    <glyph glyph-name="eight.numr" horiz-adv-x="546" 
d="M295 273h-43q-246 0 -246 136v5q0 89 101 97v7q-87 11 -87 80v3q0 52 56 78.5t186 26.5h22q129 0 185.5 -26.5t56.5 -78.5v-3q0 -69 -88 -80v-7q101 -8 101 -97v-5q0 -136 -244 -136zM264 536h16q25 0 33 5.5t8 18.5v4q0 13 -9.5 18.5t-39.5 5.5q-31 0 -40 -5t-9 -19v-4
q0 -13 8 -18.5t33 -5.5zM272 391q36 0 47 6.5t11 23.5v3q0 19 -9.5 25t-42.5 6h-12q-33 0 -42 -6t-9 -25v-3q0 -17 10.5 -23.5t46.5 -6.5z" />
    <glyph glyph-name="nine.numr" horiz-adv-x="546" 
d="M251 706h34q141 0 197 -50t56 -159v-16q0 -109 -56.5 -158t-198.5 -49h-28q-115 0 -176 36t-70 99h209q7 -18 51 -18q37 0 50.5 11t13.5 41v24h-7q-21 -34 -130 -34t-149.5 28.5t-40.5 96.5v4q0 72 57 108t188 36zM275 591q-40 0 -50.5 -6t-10.5 -23v-6q0 -17 10.5 -23
t50.5 -6q43 0 51 6q9 7 9 23v6q0 17 -10 23t-50 6z" />
    <glyph glyph-name="zero.dnom" horiz-adv-x="546" 
d="M279 -6h-12q-145 0 -200 47.5t-55 160.5v16q0 113 55 160.5t200 47.5h12q145 0 200 -48t55 -161v-16q0 -113 -55 -160t-200 -47zM273 134q37 0 45.5 10t8.5 53v25q0 43 -8.5 53.5t-45.5 10.5q-36 0 -44 -10.5t-8 -53.5v-25q0 -43 8 -53t44 -10z" />
    <glyph glyph-name="one.dnom" horiz-adv-x="399" 
d="M372 420v-420h-206v276h-6l-140 -79v176l108 47h244z" />
    <glyph glyph-name="two.dnom" horiz-adv-x="546" 
d="M533 123v-123h-520v89q0 78 38.5 112.5t131.5 48.5l113 16q19 3 24 7.5t5 13.5v3q0 12 -9 16.5t-36 4.5q-29 0 -41 -6.5t-17 -24.5h-207q13 146 255 146h11q252 0 252 -127v-6q0 -63 -32.5 -92t-120.5 -42l-146 -20q-17 -1 -17 -12v-4h316z" />
    <glyph glyph-name="three.dnom" horiz-adv-x="546" 
d="M294 -6h-23q-125 0 -190.5 33t-74.5 116h208q5 -20 18 -27t43 -7q33 0 42 5.5t9 21.5v4q0 18 -31 18h-85v108h74q17 0 22.5 4.5t5.5 14.5v4q0 12 -7.5 17t-29.5 5q-24 0 -33.5 -6t-14.5 -24h-209q8 74 59.5 109.5t182.5 35.5h19q131 0 189 -26t58 -81v-4q0 -35 -21.5 -54
t-70.5 -25v-7q52 -4 78.5 -25t26.5 -69v-5q0 -70 -58.5 -103t-186.5 -33z" />
    <glyph glyph-name="four.dnom" horiz-adv-x="546" 
d="M498 78v-78h-206v78h-282v187l183 155h305v-219h39v-123h-39zM165 208v-7h127v109h-7z" />
    <glyph glyph-name="five.dnom" horiz-adv-x="546" 
d="M293 -6h-24q-125 0 -187.5 30.5t-75.5 115.5h208q6 -19 18.5 -25t41.5 -6q33 0 42.5 6.5t9.5 25.5v4q0 18 -12.5 24t-52.5 6q-51 0 -62 -13h-189l25 258h477v-118h-290l-5 -59h7q10 15 35 25q27 12 95 12q107 0 146 -30t39 -98v-7q0 -82 -60.5 -116.5t-185.5 -34.5z" />
    <glyph glyph-name="six.dnom" horiz-adv-x="546" 
d="M295 -6h-34q-141 0 -197 50t-56 159v16q0 109 56.5 158t198.5 49h28q115 0 176 -36t70 -99h-209q-8 18 -51 18q-37 0 -50.5 -11t-13.5 -41v-24h7q21 34 130 34t149.5 -28.5t40.5 -96.5v-4q0 -72 -57 -108t-188 -36zM271 109q40 0 50.5 6t10.5 23v6q0 17 -10.5 23t-50.5 6
q-44 0 -52 -7q-8 -6 -8 -22v-6q0 -17 10 -23t50 -6z" />
    <glyph glyph-name="seven.dnom" horiz-adv-x="546" 
d="M541 287l-254 -287h-259l254 264v7h-274v149h533v-133z" />
    <glyph glyph-name="eight.dnom" horiz-adv-x="546" 
d="M295 -7h-43q-246 0 -246 136v5q0 89 101 97v7q-87 11 -87 80v3q0 52 56 78.5t186 26.5h22q129 0 185.5 -26.5t56.5 -78.5v-3q0 -69 -88 -80v-7q101 -8 101 -97v-5q0 -136 -244 -136zM264 256h16q25 0 33 5.5t8 18.5v4q0 13 -9.5 18.5t-39.5 5.5q-31 0 -40 -5t-9 -19v-4
q0 -13 8 -18.5t33 -5.5zM272 111q36 0 47 6.5t11 23.5v3q0 19 -9.5 25t-42.5 6h-12q-33 0 -42 -6t-9 -25v-3q0 -17 10.5 -23.5t46.5 -6.5z" />
    <glyph glyph-name="nine.dnom" horiz-adv-x="546" 
d="M251 426h34q141 0 197 -50t56 -159v-16q0 -109 -56.5 -158t-198.5 -49h-28q-115 0 -176 36t-70 99h209q7 -18 51 -18q37 0 50.5 11t13.5 41v24h-7q-21 -34 -130 -34t-149.5 28.5t-40.5 96.5v4q0 72 57 108t188 36zM275 311q-40 0 -50.5 -6t-10.5 -23v-6q0 -17 10.5 -23
t50.5 -6q43 0 51 6q9 7 9 23v6q0 17 -10 23t-50 6z" />
    <glyph glyph-name="G.alt" horiz-adv-x="951" 
d="M909 431v-431h-229v70h-9q-44 -80 -235 -80h-13q-211 0 -304 76t-93 264v40q0 188 95 264t322 76h56q194 0 288 -50.5t121 -176.5h-282q-20 23 -50 30q-29 7 -99 7h-21q-53 0 -86 -9t-49.5 -30.5t-21.5 -47t-5 -69.5v-33q0 -43 5 -68.5t21.5 -47t49.5 -30.5t86 -9h26
q95 0 128.5 16t33.5 69h-209v170h474z" />
    <glyph glyph-name="Gcircumflex.alt" horiz-adv-x="951" 
d="M639 860l111 -120h-192l-87 60l-86 -60h-192l110 120h336zM909 431v-431h-229v70h-9q-44 -80 -235 -80h-13q-211 0 -304 76t-93 264v40q0 188 95 264t322 76h56q194 0 288 -50.5t121 -176.5h-282q-20 23 -50 30q-29 7 -99 7h-21q-53 0 -86 -9t-49.5 -30.5t-21.5 -47
t-5 -69.5v-33q0 -43 5 -68.5t21.5 -47t49.5 -30.5t86 -9h26q95 0 128.5 16t33.5 69h-209v170h474z" />
    <glyph glyph-name="Gbreve.alt" horiz-adv-x="951" 
d="M471 730q-130 0 -182 29t-66 101h189q4 -18 16 -26t43 -8t43 8t16 26h189q-14 -72 -66 -101t-182 -29zM909 431v-431h-229v70h-9q-44 -80 -235 -80h-13q-211 0 -304 76t-93 264v40q0 188 95 264t322 76h56q194 0 288 -50.5t121 -176.5h-282q-20 23 -50 30q-29 7 -99 7
h-21q-53 0 -86 -9t-49.5 -30.5t-21.5 -47t-5 -69.5v-33q0 -43 5 -68.5t21.5 -47t49.5 -30.5t86 -9h26q95 0 128.5 16t33.5 69h-209v170h474z" />
    <glyph glyph-name="Gdotaccent.alt" horiz-adv-x="951" 
d="M353 870h237v-130h-237v130zM909 431v-431h-229v70h-9q-44 -80 -235 -80h-13q-211 0 -304 76t-93 264v40q0 188 95 264t322 76h56q194 0 288 -50.5t121 -176.5h-282q-20 23 -50 30q-29 7 -99 7h-21q-53 0 -86 -9t-49.5 -30.5t-21.5 -47t-5 -69.5v-33q0 -43 5 -68.5
t21.5 -47t49.5 -30.5t86 -9h26q95 0 128.5 16t33.5 69h-209v170h474z" />
    <glyph glyph-name="Gcommaaccent.alt" horiz-adv-x="951" 
d="M909 431v-431h-229v70h-9q-44 -80 -235 -80h-13q-211 0 -304 76t-93 264v40q0 188 95 264t322 76h56q194 0 288 -50.5t121 -176.5h-282q-20 23 -50 30q-29 7 -99 7h-21q-53 0 -86 -9t-49.5 -30.5t-21.5 -47t-5 -69.5v-33q0 -43 5 -68.5t21.5 -47t49.5 -30.5t86 -9h26
q95 0 128.5 16t33.5 69h-209v170h474zM500 -154l-20 -16h-128l54 47v10h-83v87h233v-24q0 -37 -11 -57t-45 -47z" />
    <glyph glyph-name="J.alt" horiz-adv-x="757" 
d="M377 -10h-18q-130 0 -204.5 26t-108.5 80.5t-41 149.5l-1 21h266l1 -8q5 -44 25 -60t66 -16h12q49 0 70 19.5t21 75.5v422h267v-396q0 -184 -75 -249t-280 -65z" />
    <glyph glyph-name="Jcircumflex.alt" horiz-adv-x="757" 
d="M766 860l111 -120h-192l-87 60l-86 -60h-192l110 120h336zM377 -10h-18q-130 0 -204.5 26t-108.5 80.5t-41 149.5l-1 21h266l1 -8q5 -44 25 -60t66 -16h12q49 0 70 19.5t21 75.5v422h267v-396q0 -184 -75 -249t-280 -65z" />
    <glyph glyph-name="K.alt" horiz-adv-x="990" 
d="M305 700v-700h-263v700h263zM630 365l360 -365h-351l-326 350l333 350h321z" />
    <glyph glyph-name="Kcommaaccent.alt" horiz-adv-x="991" 
d="M305 700v-700h-263v700h263zM630 365l360 -365h-351l-326 350l333 350h321zM531 -154l-20 -16h-128l54 47v10h-83v87h233v-24q0 -36 -11.5 -56t-44.5 -48z" />
    <glyph glyph-name="Q.alt" horiz-adv-x="942" 
d="M736 20l145 -190h-308l-112 160h-18q-227 0 -322 75t-95 264v41q0 188 95 264t322 76h56q227 0 322 -76t95 -264v-41q0 -129 -42.5 -202.5t-137.5 -106.5zM463 180h16q55 0 89.5 9t51.5 31t22.5 47.5t5.5 67.5v29q0 43 -5.5 69t-22.5 47.5t-51.5 30.5t-89.5 9h-16
q-55 0 -89.5 -9t-51.5 -30.5t-22.5 -47.5t-5.5 -69v-29q0 -42 5.5 -67.5t22.5 -47.5t51.5 -31t89.5 -9z" />
    <glyph glyph-name="R.alt" horiz-adv-x="879" 
d="M305 242v-242h-263v700h503q164 0 232 -49t68 -171v-24q0 -83 -43 -130.5t-135 -62.5l217 -263h-319l-188 242h-72zM490 523h-185v-119h185q50 0 71 12.5t21 45.5v6q0 33 -20.5 44t-71.5 11z" />
    <glyph glyph-name="Racute.alt" horiz-adv-x="879" 
d="M688 860l-134 -120h-237l85 120h286zM305 242v-242h-263v700h503q164 0 232 -49t68 -171v-24q0 -83 -43 -130.5t-135 -62.5l217 -263h-319l-188 242h-72zM490 523h-185v-119h185q50 0 71 12.5t21 45.5v6q0 33 -20.5 44t-71.5 11z" />
    <glyph glyph-name="Rcaron.alt" horiz-adv-x="879" 
d="M436 800l87 60h192l-111 -120h-336l-110 120h192zM305 242v-242h-263v700h503q164 0 232 -49t68 -171v-24q0 -83 -43 -130.5t-135 -62.5l217 -263h-319l-188 242h-72zM490 523h-185v-119h185q50 0 71 12.5t21 45.5v6q0 33 -20.5 44t-71.5 11z" />
    <glyph glyph-name="Rcommaaccent.alt" horiz-adv-x="879" 
d="M305 242v-242h-263v700h503q164 0 232 -49t68 -171v-24q0 -83 -43 -130.5t-135 -62.5l217 -263h-319l-188 242h-72zM490 523h-185v-119h185q50 0 71 12.5t21 45.5v6q0 33 -20.5 44t-71.5 11zM490 -154l-20 -16h-128l54 47v10h-83v87h233v-24q0 -37 -11 -57t-45 -47z" />
    <glyph glyph-name="a.alt" horiz-adv-x="720" 
d="M702 530v-530h-237v73h-6q-39 -83 -181 -83h-6q-134 0 -195 60.5t-61 204.5v20q0 144 61 204.5t195 60.5h6q142 0 181 -83h6v73h237zM359 159q69 0 87.5 20t18.5 81v10q0 61 -18.5 81t-87.5 20t-87.5 -20t-18.5 -81v-10q0 -61 18.5 -81t87.5 -20z" />
    <glyph glyph-name="agrave.alt" horiz-adv-x="720" 
d="M397 700l85 -120h-237l-134 120h286zM702 530v-530h-237v73h-6q-39 -83 -181 -83h-6q-134 0 -195 60.5t-61 204.5v20q0 144 61 204.5t195 60.5h6q142 0 181 -83h6v73h237zM359 159q69 0 87.5 20t18.5 81v10q0 61 -18.5 81t-87.5 20t-87.5 -20t-18.5 -81v-10
q0 -61 18.5 -81t87.5 -20z" />
    <glyph glyph-name="aacute.alt" horiz-adv-x="720" 
d="M616 700l-134 -120h-237l85 120h286zM702 530v-530h-237v73h-6q-39 -83 -181 -83h-6q-134 0 -195 60.5t-61 204.5v20q0 144 61 204.5t195 60.5h6q142 0 181 -83h6v73h237zM359 159q69 0 87.5 20t18.5 81v10q0 61 -18.5 81t-87.5 20t-87.5 -20t-18.5 -81v-10
q0 -61 18.5 -81t87.5 -20z" />
    <glyph glyph-name="acircumflex.alt" horiz-adv-x="720" 
d="M531 700l111 -120h-192l-87 60l-86 -60h-192l110 120h336zM702 530v-530h-237v73h-6q-39 -83 -181 -83h-6q-134 0 -195 60.5t-61 204.5v20q0 144 61 204.5t195 60.5h6q142 0 181 -83h6v73h237zM359 159q69 0 87.5 20t18.5 81v10q0 61 -18.5 81t-87.5 20t-87.5 -20
t-18.5 -81v-10q0 -61 18.5 -81t87.5 -20z" />
    <glyph glyph-name="atilde.alt" horiz-adv-x="720" 
d="M449 570q-40 0 -91 16t-62 16q-13 0 -17.5 -4t-6.5 -18h-151q9 73 43.5 101.5t105.5 28.5q39 0 90 -16t62 -16q13 0 17.5 4t7.5 18h158q-9 -72 -47 -101t-109 -29zM702 530v-530h-237v73h-6q-39 -83 -181 -83h-6q-134 0 -195 60.5t-61 204.5v20q0 144 61 204.5t195 60.5
h6q142 0 181 -83h6v73h237zM359 159q69 0 87.5 20t18.5 81v10q0 61 -18.5 81t-87.5 20t-87.5 -20t-18.5 -81v-10q0 -61 18.5 -81t87.5 -20z" />
    <glyph glyph-name="adieresis.alt" horiz-adv-x="720" 
d="M152 700h191v-130h-191v130zM383 700h191v-130h-191v130zM702 530v-530h-237v73h-6q-39 -83 -181 -83h-6q-134 0 -195 60.5t-61 204.5v20q0 144 61 204.5t195 60.5h6q142 0 181 -83h6v73h237zM359 159q69 0 87.5 20t18.5 81v10q0 61 -18.5 81t-87.5 20t-87.5 -20
t-18.5 -81v-10q0 -61 18.5 -81t87.5 -20z" />
    <glyph glyph-name="amacron.alt" horiz-adv-x="720" 
d="M583 680v-90h-441v90h441zM702 530v-530h-237v73h-6q-39 -83 -181 -83h-6q-134 0 -195 60.5t-61 204.5v20q0 144 61 204.5t195 60.5h6q142 0 181 -83h6v73h237zM359 159q69 0 87.5 20t18.5 81v10q0 61 -18.5 81t-87.5 20t-87.5 -20t-18.5 -81v-10q0 -61 18.5 -81
t87.5 -20z" />
    <glyph glyph-name="abreve.alt" horiz-adv-x="720" 
d="M363 570q-130 0 -182 29t-66 101h189q4 -18 16 -26t43 -8t43 8t16 26h189q-14 -72 -66 -101t-182 -29zM702 530v-530h-237v73h-6q-39 -83 -181 -83h-6q-134 0 -195 60.5t-61 204.5v20q0 144 61 204.5t195 60.5h6q142 0 181 -83h6v73h237zM359 159q69 0 87.5 20t18.5 81
v10q0 61 -18.5 81t-87.5 20t-87.5 -20t-18.5 -81v-10q0 -61 18.5 -81t87.5 -20z" />
    <glyph glyph-name="aring.alt" horiz-adv-x="720" 
d="M363 556q-104 0 -150.5 26t-46.5 88t46.5 88t150.5 26q103 0 150 -26t47 -88t-47 -88t-150 -26zM363 632q50 0 50 38t-50 38t-50 -38t50 -38zM702 530v-530h-237v73h-6q-39 -83 -181 -83h-6q-134 0 -195 60.5t-61 204.5v20q0 144 61 204.5t195 60.5h6q142 0 181 -83h6v73
h237zM359 159q69 0 87.5 20t18.5 81v10q0 61 -18.5 81t-87.5 20t-87.5 -20t-18.5 -81v-10q0 -61 18.5 -81t87.5 -20z" />
    <glyph glyph-name="aringacute.alt" horiz-adv-x="720" 
d="M606 920l-134 -120h-237l85 120h286zM354 556q-103 0 -150 26t-47 88t47 88t150 26t150 -26t47 -88t-47 -88t-150 -26zM354 632q50 0 50 38t-50 38t-50 -38t50 -38zM702 530v-530h-237v73h-6q-39 -83 -181 -83h-6q-134 0 -195 60.5t-61 204.5v20q0 144 61 204.5t195 60.5
h6q142 0 181 -83h6v73h237zM359 159q69 0 87.5 20t18.5 81v10q0 61 -18.5 81t-87.5 20t-87.5 -20t-18.5 -81v-10q0 -61 18.5 -81t87.5 -20z" />
    <glyph glyph-name="aogonek.alt" horiz-adv-x="720" 
d="M702 -54v-86h-170q-73 0 -102 16t-29 57q0 28 12.5 46.5t51.5 31.5v62h-6q-39 -83 -181 -83h-6q-134 0 -195 60.5t-61 204.5v20q0 144 61 204.5t195 60.5h6q142 0 181 -83h6v73h237v-530q-61 -9 -75.5 -15t-14.5 -20q0 -19 27 -19h63zM359 159q69 0 87.5 20t18.5 81v10
q0 61 -18.5 81t-87.5 20t-87.5 -20t-18.5 -81v-10q0 -61 18.5 -81t87.5 -20z" />
    <glyph glyph-name="a.superior.alt" horiz-adv-x="597" 
d="M579 700v-420h-209v59h-5q-31 -67 -142 -67h-3q-108 0 -156 48t-48 164v12q0 116 48 164t156 48h3q111 0 142 -67h5v59h209zM298 418q48 0 60 11t12 55v13q0 42 -12.5 53.5t-59.5 11.5q-48 0 -60.5 -11.5t-12.5 -53.5v-13q0 -44 12 -55t61 -11z" />
    <glyph glyph-name="k.alt" horiz-adv-x="734" 
d="M255 700v-700h-237v700h237zM528 289l206 -289h-289l-184 280l184 250h267z" />
    <glyph glyph-name="kcommaaccent.alt" horiz-adv-x="734" 
d="M255 700v-700h-237v700h237zM528 289l206 -289h-289l-184 280l184 250h267zM411 -154l-20 -16h-128l54 47v10h-83v87h233v-24q0 -36 -11.5 -56t-44.5 -48z" />
    <glyph glyph-name="k.superior.alt" horiz-adv-x="597" 
d="M228 834v-554h-210v554h210zM597 280h-245l-120 235l116 185h225l-129 -171z" />
    <glyph glyph-name="ampersand.alt" horiz-adv-x="883" 
d="M762 261v-261h-475q-136 0 -200.5 49.5t-64.5 148.5v6q0 71 40.5 115.5t119.5 49.5v4q-74 11 -106.5 47t-32.5 100v7q0 85 65 129t223 44h334v-169h-275q-50 0 -68.5 -9.5t-18.5 -31.5v-4q0 -26 17.5 -34.5t66.5 -8.5h125v51h250v-51h121v-182h-121zM367 163h145v98h-145
q-45 0 -65 -9.5t-20 -36.5v-6q0 -27 20 -36.5t65 -9.5z" />
    <glyph glyph-name="registered.alt" horiz-adv-x="868" 
d="M483 -10h-98q-186 0 -271 78t-85 232v100q0 154 85 232t271 78h98q186 0 271 -78t85 -232v-100q0 -154 -85 -232t-271 -78zM400 25h68q99 0 165 19.5t102 60t50.5 92.5t14.5 127v52q0 75 -14.5 127t-50.5 92.5t-102 60t-165 19.5h-68q-98 0 -164 -19.5t-102 -60
t-50.5 -92.5t-14.5 -127v-52q0 -75 14.5 -127t50.5 -92.5t102 -60t164 -19.5zM384 299v-159h-182v420h298q104 0 147 -29t43 -100v-6q0 -52 -22.5 -83t-78.5 -40l112 -162h-212l-98 159h-7zM454 444h-70v-61h83q24 0 32 5.5t8 22.5v4q0 17 -10 23t-43 6z" />
    <glyph glyph-name="NULL" horiz-adv-x="0" 
 />
    <glyph glyph-name="CR" horiz-adv-x="221" 
 />
    </font>
</defs>
</svg>
